<svg width="50" height="44" viewBox="0 0 50 44" fill="none" xmlns="http://www.w3.org/2000/svg">
<path d="M35.6842 4.86417C35.2191 3.42875 34.319 2.25604 33.019 1.36771C32.8722 1.24854 31.2486 0 28.1946 0C24.205 0 20.5091 2.21813 18.4396 3.55875C16.7616 4.65021 13.4111 7.30438 13.7348 10.27C13.8734 11.6215 14.7573 12.759 16.7888 12.786C18.4504 12.8131 20.4085 11.8517 21.5208 11.1502C23.2559 10.0398 25.7986 8.22792 28.287 7.36937C29.5108 6.94417 30.1445 7.1175 30.3484 7.16354C30.9794 7.30438 31.4335 7.64563 31.7109 8.19C32.195 9.14333 32.0835 10.641 31.4335 12.0087C30.5524 13.8775 29.0295 15.7246 26.9055 17.4904C25.8286 18.3869 24.825 19.091 23.9439 19.5623L23.8596 19.6083C23.4517 19.8304 22.5053 20.3098 22.0402 20.4317C20.6397 20.781 20.743 20.1446 20.9279 19.6923C21.0394 19.4323 21.4093 18.9692 21.8662 18.5087C22.1164 18.2677 22.3666 18.0375 22.6249 17.7856C23.4897 16.9813 24.4361 16.2987 24.379 15.3833C24.3138 14.4679 23.4136 13.8667 22.4781 13.8775C21.5317 13.8775 20.055 14.5058 18.7006 16.4287C18.1159 17.2602 16.9928 19.4594 18.135 21.1873C18.5891 21.8806 19.3506 22.2327 20.3895 22.2327C21.1129 22.2327 21.9858 22.0865 22.9404 21.7154C25.7905 20.6158 28.7793 18.479 30.4219 17.0652C33.0027 14.8281 34.58 12.6642 35.4612 10.0127C35.8229 8.94021 36.3233 6.84125 35.6923 4.87229" fill="#D62128"/>
<path d="M45.4818 40.7764C45.4818 40.4162 45.6096 40.1129 45.8598 39.8908C46.0937 39.6877 46.4173 39.5766 46.7709 39.5766C47.1244 39.5766 47.429 39.6877 47.6248 39.8908C47.8288 40.0939 47.9294 40.3973 47.9294 40.7683V43.1354H48.7099V40.5733C48.7099 40.0668 48.5522 39.6308 48.2557 39.3356C47.9403 39.0214 47.4752 38.8535 46.9096 38.8535C46.0475 38.8535 45.6667 39.3627 45.6015 39.4548L45.5552 39.5306L45.4818 39.6389V38.9375H44.6904V43.1246H45.4709V40.7602L45.4818 40.7764Z" fill="black"/>
<path d="M45.5303 39.5114V39.5195L45.5464 39.4927L45.5303 39.5114Z" fill="black"/>
<path d="M41.1834 38.8647C39.8753 38.8647 38.8936 39.8072 38.8936 41.045C38.8936 42.2854 39.8753 43.2279 41.1834 43.2279C42.4942 43.2279 43.476 42.2854 43.476 41.045C43.476 39.8072 42.4942 38.8647 41.1834 38.8647ZM41.1834 42.5345C40.3213 42.5345 39.6713 41.8954 39.6713 41.0558C39.6713 40.2135 40.3213 39.577 41.1834 39.577C42.0482 39.577 42.6982 40.2135 42.6982 41.0558C42.6982 41.8954 42.0482 42.5345 41.1834 42.5345Z" fill="black"/>
<path d="M36.8994 38.957H37.6799V43.1441H36.8994V38.957Z" fill="black"/>
<path d="M37.2885 36.9604C37.1416 36.9604 37.0192 37.0065 36.9268 37.0877C36.8343 37.1717 36.7881 37.3017 36.7881 37.4398C36.7881 37.5779 36.8343 37.6998 36.9268 37.7919C37.0192 37.8759 37.1416 37.9219 37.2885 37.9219C37.4381 37.9219 37.5577 37.8759 37.6502 37.7919C37.7426 37.7079 37.7889 37.5779 37.7889 37.4398C37.7889 37.3017 37.7426 37.1825 37.6502 37.0877C37.5577 37.0065 37.4381 36.9604 37.2885 36.9604Z" fill="black"/>
<path d="M33.4827 38.9566H32.7402V39.5768H33.5289V41.9141C33.5289 42.3203 33.6594 42.6643 33.9178 42.8864C34.1707 43.1166 34.5406 43.2276 34.9757 43.2276C35.302 43.2276 35.6556 43.1626 35.8786 43.0705L35.7752 42.4314C35.5604 42.5072 35.302 42.5532 35.1062 42.5532C34.856 42.5532 34.6602 42.4882 34.5215 42.3582C34.3828 42.2282 34.3094 42.036 34.3094 41.7949V39.566H35.71V38.9457H34.2985V37.5591H33.5398V38.9457H33.4745L33.4827 38.9566Z" fill="black"/>
<path d="M35.8384 42.5343L35.8275 42.4043H35.8193L35.8384 42.5343Z" fill="black"/>
<path d="M28.4452 42.9134C28.7417 43.1246 29.1605 43.2465 29.6228 43.2465C30.1912 43.2465 30.6916 43.0136 30.9499 42.6263L30.9962 42.5532L31.0723 42.4421V43.1544H31.8338V40.5084C31.8338 40.0182 31.6461 39.6038 31.3035 39.3167C30.9499 39.0296 30.4604 38.8726 29.8567 38.8726C29.1142 38.8726 28.4371 39.2707 28.0835 39.6769L28.5649 40.1482C28.9184 39.788 29.3916 39.5767 29.8458 39.5767C30.1993 39.5767 30.4958 39.6769 30.7188 39.8611C30.9336 40.048 31.0533 40.3053 31.0533 40.5842V40.9255L30.9962 40.8984L30.9608 40.8794C30.8575 40.8334 30.4876 40.6844 29.8648 40.6844C29.3073 40.6844 28.826 40.8144 28.4833 41.0555C28.1488 41.2938 27.9639 41.6107 27.9639 41.9871C27.9639 42.3663 28.1298 42.6913 28.4371 42.9134H28.4452ZM29.1142 41.3886C29.3073 41.2857 29.5766 41.2315 29.892 41.2315C30.3761 41.2315 30.8112 41.3426 31.0261 41.4428H31.0451L31.0614 41.4617V41.4996C31.0614 42.1469 30.5066 42.6344 29.7642 42.6344C29.4841 42.6344 29.2448 42.5721 29.068 42.4611C28.8722 42.3392 28.7689 42.1551 28.7689 41.9411C28.7689 41.7028 28.8912 41.5078 29.1224 41.3778L29.1142 41.3886Z" fill="black"/>
<path d="M31.0296 42.5723L31.0107 42.5991L31.0296 42.5803V42.5723Z" fill="black"/>
<path d="M25.929 39.4819V39.6769L25.8556 39.5848L25.8093 39.5307C25.4558 39.0946 24.9473 38.8725 24.2782 38.8725C23.0245 38.8725 22.1162 39.7798 22.1162 41.0365C22.1162 42.2932 23.0245 43.2465 24.2782 43.2465C24.9473 43.2465 25.4558 43.0244 25.8093 42.5884L25.8556 42.5342L25.929 42.4421V43.1625H26.7095V36.9604H25.929V39.5009V39.4819ZM24.3897 42.5721C23.5358 42.5721 22.894 41.9059 22.894 41.0257C22.894 40.1482 23.5249 39.5307 24.3897 39.5307C25.2518 39.5307 25.929 40.1752 25.929 41.0257C25.929 41.8788 25.2518 42.5721 24.3897 42.5721Z" fill="black"/>
<path d="M25.8909 42.5613V42.5532L25.8721 42.572L25.8909 42.5613Z" fill="black"/>
<path d="M25.8809 39.5468L25.8916 39.5575V39.5308L25.8809 39.5468Z" fill="black"/>
<path d="M17.7568 39.5114V39.5195L17.7757 39.4927L17.7568 39.5114Z" fill="black"/>
<path d="M17.7105 40.7764C17.7105 40.4162 17.8384 40.1129 18.0913 39.8908C18.3224 39.6877 18.6461 39.5766 18.9996 39.5766C19.3531 39.5766 19.6577 39.6877 19.8535 39.8908C20.0575 40.0939 20.1608 40.3973 20.1608 40.7683V43.1354H20.9386V40.5733C20.9386 40.0668 20.7809 39.6308 20.4845 39.3356C20.169 39.0214 19.704 38.8535 19.1383 38.8535C18.3034 38.8535 17.9227 39.3166 17.8302 39.4548L17.784 39.5306L17.7105 39.6389V38.9375H16.9219V43.1246H17.6997V40.7602L17.7105 40.7764Z" fill="black"/>
<path d="M14.5969 41.3238C14.5969 41.684 14.4663 41.9873 14.2053 42.2094C13.9741 42.4126 13.6396 42.5236 13.2697 42.5236C12.8972 42.5236 12.6198 42.4126 12.424 42.2094C12.22 42.0063 12.1167 41.703 12.1167 41.3319V38.9648H11.3389V41.5269C11.3389 42.0361 11.4966 42.4694 11.793 42.7646C12.1085 43.0788 12.5627 43.2467 13.1283 43.2467C13.9931 43.2467 14.363 42.7836 14.4663 42.6455L14.5126 42.5723L14.586 42.4613V43.1628H15.3747V38.9757H14.5969V41.3428V41.3238Z" fill="black"/>
<path d="M14.5493 42.5993V42.5806L14.5332 42.6074L14.5493 42.5993Z" fill="black"/>
<path d="M7.89023 38.8647C6.58213 38.8647 5.59766 39.8072 5.59766 41.045C5.59766 42.2854 6.58213 43.2279 7.89023 43.2279C9.19833 43.2279 10.1828 42.2854 10.1828 41.045C10.1828 39.8072 9.19833 38.8647 7.89023 38.8647ZM7.89023 42.5345C7.02814 42.5345 6.37817 41.8954 6.37817 41.0558C6.37817 40.2135 7.02814 39.577 7.89023 39.577C8.75504 39.577 9.40229 40.2135 9.40229 41.0558C9.40229 41.8954 8.75504 42.5345 7.89023 42.5345Z" fill="black"/>
<path d="M1.8183 40.5197V40.4547H4.49161V39.7343H1.8183V37.8926H5.22588V37.1641H0.983398V43.1441H1.8183V40.5197Z" fill="black"/>
<path d="M48.9287 27.4839H49.7065V33.686H48.9287V27.4839Z" fill="black"/>
<path d="M47.0137 32.3296L47.0492 32.3459L47.0219 32.3296H47.0137Z" fill="black"/>
<path d="M45.6336 29.415C44.3445 29.415 43.4062 30.3413 43.4062 31.6061C43.4062 32.8736 44.3798 33.789 45.6716 33.789C46.4793 33.789 47.2109 33.399 47.5916 32.7707L47.026 32.3752C46.6915 32.8546 46.2455 33.0848 45.6716 33.0848C44.8911 33.0848 44.2683 32.5594 44.2221 31.8661V31.839V31.793H47.695C47.714 31.69 47.7222 31.5709 47.7222 31.4409C47.7222 30.2655 46.8492 29.415 45.6526 29.415H45.6336ZM46.8682 31.2567H44.2221V31.2107L44.2411 31.1809C44.3635 30.5255 44.9183 30.0921 45.6254 30.0921C46.3298 30.0921 46.8492 30.5525 46.9145 31.1917V31.2188V31.2648H46.8682V31.2567Z" fill="black"/>
<path d="M42.7791 33.0768L42.7628 32.9468L42.752 32.9576L42.7791 33.0768Z" fill="black"/>
<path d="M40.429 29.5071H39.6865V30.1273H40.4752V32.4673C40.4752 32.8736 40.6057 33.2148 40.8641 33.4369C41.1143 33.6671 41.4869 33.7781 41.922 33.7781C42.2483 33.7781 42.5992 33.7158 42.8222 33.6211L42.7215 32.9846C42.5067 33.0577 42.2483 33.1038 42.0525 33.1038C41.8023 33.1038 41.6065 33.0388 41.4678 32.9115C41.3291 32.7815 41.253 32.5865 41.253 32.3454V30.1192H42.6563V29.499H41.2448V28.1123H40.4833V29.499H40.4181L40.429 29.5071Z" fill="black"/>
<path d="M39.1736 29.4988C39.1736 29.4988 39.1084 29.4799 39.054 29.4609C38.9615 29.4338 38.8038 29.4067 38.6352 29.4067C38.1456 29.4067 37.7649 29.6288 37.5419 30.054L37.5229 30.0811H37.4957L37.4494 30.0622H37.4195V29.4988H36.6309V33.6859H37.4195V31.3947C37.4195 30.9315 37.5609 30.5903 37.8302 30.3601C38.0341 30.1922 38.3115 30.0919 38.627 30.0919C38.7929 30.0919 38.9506 30.119 39.1084 30.1651L39.1927 29.4799L39.1736 29.4988Z" fill="black"/>
<path d="M39.0813 30.2197C39.0813 30.2197 39.1086 30.2306 39.1168 30.2388C39.1168 30.2388 39.0895 30.2306 39.0703 30.2197H39.0813Z" fill="black"/>
<path d="M34.3076 29.499H35.0854V33.6861H34.3076V29.499Z" fill="black"/>
<path d="M35.0584 27.6412C34.9659 27.5573 34.8354 27.5112 34.6967 27.5112C34.558 27.5112 34.4274 27.5573 34.335 27.6412C34.2425 27.7252 34.1963 27.8525 34.1963 27.9933C34.1963 28.1314 34.2425 28.2506 34.335 28.3427C34.4274 28.4266 34.5498 28.4727 34.6967 28.4727C34.8463 28.4727 34.9659 28.4266 35.0584 28.3427C35.1508 28.2614 35.1971 28.1314 35.1971 27.9933C35.1971 27.8525 35.1508 27.7333 35.0584 27.6412Z" fill="black"/>
<path d="M28.2229 33.6971L28.707 32.4675V32.4485L28.7233 32.4214H32.0004V32.4485L32.0194 32.4675L32.5008 33.6971H33.3928L30.85 27.7144H29.8846L27.3418 33.6971H28.2338H28.2229ZM28.9844 31.7091L29.0034 31.6712L30.3034 28.6758L30.3306 28.6216L30.3659 28.5296L30.404 28.6216L30.4312 28.6758L31.7311 31.6712L31.7774 31.7633H28.9762L29.0034 31.7091H28.9844Z" fill="black"/>
<path d="M27.9926 32.0425L27.2773 33.7162H27.2855L27.9926 32.0425Z" fill="black"/>
<path d="M23.7207 29.5073H24.5012V33.6971H23.7207V29.5073Z" fill="black"/>
<path d="M20.3167 29.5071H19.5742V30.1273H20.3629V32.4673C20.3629 32.8736 20.4907 33.2148 20.7518 33.4369C21.002 33.6671 21.3746 33.7781 21.8097 33.7781C22.136 33.7781 22.4868 33.7158 22.7099 33.6211L22.6092 32.9846C22.3944 33.0577 22.136 33.1038 21.9402 33.1038C21.69 33.1038 21.4942 33.0388 21.3555 32.9115C21.2168 32.7815 21.1407 32.5865 21.1407 32.3454V30.1192H22.544V29.499H21.1325V28.1123H20.371V29.499H20.3058L20.3167 29.5071Z" fill="black"/>
<path d="M22.6696 33.0849L22.6533 32.9468V32.9576L22.6696 33.0849Z" fill="black"/>
<path d="M19.075 29.4988C19.075 29.4988 19.0097 29.4799 18.9526 29.4609C18.8602 29.4338 18.7024 29.4067 18.5365 29.4067C18.0443 29.4067 17.6636 29.6288 17.4406 30.054L17.4215 30.0811H17.3943L17.3481 30.0622H17.3209V29.4988H16.5322V33.6859H17.3209V31.3947C17.3209 30.9315 17.4596 30.5903 17.7288 30.3601C17.9328 30.1922 18.2102 30.0919 18.5257 30.0919C18.6943 30.0919 18.852 30.119 19.0097 30.1651L19.094 29.4799L19.075 29.4988Z" fill="black"/>
<path d="M18.9799 30.2197C18.9799 30.2197 19.0073 30.2306 19.0182 30.2388C19.0182 30.2388 18.9908 30.2306 18.9717 30.2197H18.9799Z" fill="black"/>
<path d="M14.2339 33.1335V33.1147L14.2178 33.1415L14.2339 33.1335Z" fill="black"/>
<path d="M14.5142 29.8592C14.1607 29.5721 13.6684 29.415 13.0647 29.415C12.3222 29.415 11.6451 29.8132 11.2943 30.2194L11.7756 30.6907C12.1183 30.3305 12.6024 30.1192 13.0565 30.1192C13.4101 30.1192 13.7065 30.2194 13.9295 30.4063C14.1416 30.5905 14.264 30.8477 14.264 31.1267V31.468L14.2069 31.4409L14.1715 31.4219C14.0682 31.3759 13.6956 31.2269 13.0756 31.2269C12.518 31.2269 12.0367 31.3569 11.6913 31.598C11.3595 31.8282 11.1719 32.1532 11.1719 32.5323C11.1719 32.9115 11.3405 33.2338 11.6451 33.4559C11.9442 33.6671 12.3603 33.789 12.8254 33.789C13.391 33.789 13.8914 33.5588 14.1525 33.1688L14.1987 33.0957L14.2722 32.9846V33.6969H15.0336V31.0536C15.0336 30.5634 14.8487 30.1463 14.5033 29.8592H14.5142ZM14.264 32.0313V32.0502C14.264 32.6975 13.7065 33.1877 12.9641 33.1877C12.6867 33.1877 12.4446 33.1227 12.2679 33.0117C12.072 32.8925 11.9714 32.7057 11.9714 32.4944C11.9714 32.2534 12.0911 32.0611 12.3222 31.9311C12.518 31.8282 12.7873 31.7632 13.1027 31.7632C13.5868 31.7632 14.022 31.8742 14.2341 31.9771H14.2531L14.2722 31.9961V32.0232L14.264 32.0313Z" fill="black"/>
<path d="M6.8125 30.0542V30.0729L6.83133 30.0435L6.8125 30.0542Z" fill="black"/>
<path d="M7.14206 30.4417C7.37594 30.2386 7.69956 30.1275 8.0531 30.1275C8.40392 30.1275 8.6922 30.2386 8.888 30.4417C9.08109 30.6448 9.19259 30.9509 9.19259 31.3192V33.6863H9.9731V31.1269C9.9731 30.6177 9.81537 30.1844 9.51894 29.8865C9.21163 29.5723 8.74931 29.4071 8.1918 29.4071C7.32699 29.4071 6.94897 29.9163 6.8837 30.0084L6.83747 30.0815L6.76132 30.1925V27.4761H5.97266V33.6782H6.75316V31.3111C6.75316 30.9509 6.8837 30.6448 7.1339 30.4227L7.14206 30.4417Z" fill="black"/>
<path d="M3.79996 30.5903H3.78906L3.79996 30.5985V30.5903Z" fill="black"/>
<path d="M4.71297 31.9854C4.71297 31.3841 4.3703 30.8777 3.83183 30.6448L3.7856 30.6258L3.71217 30.5987L3.7856 30.5635L3.83183 30.5337C4.22073 30.3116 4.48996 29.8404 4.48996 29.361C4.48996 28.3887 3.72849 27.7144 2.64339 27.7144H0V33.6971H2.82832C3.91614 33.6971 4.732 32.9658 4.732 31.9962L4.71297 31.9854ZM0.824021 30.2764V28.4266H2.63524C3.28521 28.4266 3.63603 28.9169 3.63603 29.3881C3.63603 29.8594 3.28521 30.3225 2.63524 30.3225H0.824021V30.2764ZM0.862095 32.9739H0.815862V30.9698H2.81201C3.47829 30.9698 3.88623 31.4789 3.88623 31.9664C3.88623 32.5406 3.4239 32.9739 2.81201 32.9739H0.862095Z" fill="black"/>
<path d="M23.7207 27.0317H24.7514L23.7207 28.1692V27.0317Z" fill="black"/>
<path d="M25.7526 27.7251V29.5072L24.1562 27.7251H25.7526Z" fill="#D62128"/>
</svg>
