<svg width="47" height="46" viewBox="0 0 47 46" fill="none" xmlns="http://www.w3.org/2000/svg">
<rect width="47" height="46" rx="23" fill="#05164D"/>
<path d="M15.2929 29.2929C14.9024 29.6834 14.9024 30.3166 15.2929 30.7071C15.6834 31.0976 16.3166 31.0976 16.7071 30.7071L16 30L15.2929 29.2929ZM31.1528 15.8472C31.1528 15.2949 30.7051 14.8472 30.1528 14.8472L21.1528 14.8472C20.6005 14.8472 20.1528 15.2949 20.1528 15.8472C20.1528 16.3995 20.6005 16.8472 21.1528 16.8472L29.1528 16.8472L29.1528 24.8472C29.1528 25.3995 29.6005 25.8472 30.1528 25.8472C30.7051 25.8472 31.1528 25.3995 31.1528 24.8472L31.1528 15.8472ZM16 30L16.7071 30.7071L30.8599 16.5543L30.1528 15.8472L29.4457 15.1401L15.2929 29.2929L16 30Z" fill="white"/>
</svg>
