<svg width="16" height="16" viewBox="0 0 16 16" fill="none" xmlns="http://www.w3.org/2000/svg">
<path d="M8.00293 1.12012C11.8031 1.12029 14.8838 4.20084 14.8838 8.00098C14.8836 11.801 11.8029 14.8817 8.00293 14.8818C4.20279 14.8818 1.12225 11.8011 1.12207 8.00098C1.12207 4.20073 4.20269 1.12012 8.00293 1.12012Z" stroke="#00A63E" stroke-width="0.571429"/>
<path d="M11.2491 5.34692C11.4257 5.66995 11.3071 6.07505 10.9841 6.25171C10.0698 6.75167 9.21126 7.79833 8.55566 8.80213C8.23613 9.29147 7.97973 9.74713 7.80339 10.0803C7.71539 10.2465 7.64779 10.3814 7.60266 10.4737L7.53713 10.6106C7.43413 10.8357 7.2148 10.9855 6.9676 10.9991C6.72033 11.0127 6.48584 10.8882 6.35872 10.6757C6.15157 10.3293 5.82242 10.0132 5.51738 9.77207C5.36916 9.65487 5.23574 9.56247 5.14054 9.50013L5.00034 9.41247C4.68068 9.22993 4.56938 8.82293 4.75174 8.5032C4.93415 8.18333 5.3413 8.07193 5.66112 8.25433L5.87115 8.3848C5.99261 8.46433 6.1592 8.5798 6.34432 8.72613C6.48578 8.838 6.64396 8.97247 6.80366 9.1274C6.97486 8.8198 7.18886 8.45667 7.43933 8.07307C8.11713 7.03527 9.1252 5.74857 10.3443 5.08188C10.6673 4.90521 11.0724 5.02388 11.2491 5.34692Z" fill="#00A63E"/>
</svg>
