<svg width="19" height="19" viewBox="0 0 19 19" fill="none" xmlns="http://www.w3.org/2000/svg">
<path d="M9.16667 18.3333C14.2293 18.3333 18.3333 14.2293 18.3333 9.16667C18.3333 4.10406 14.2293 0 9.16667 0C4.10406 0 0 4.10406 0 9.16667C0 14.2293 4.10406 18.3333 9.16667 18.3333Z" fill="#525252"/>
<path d="M10.1315 9.33717L12.2398 7.238C12.4124 7.06539 12.5094 6.83128 12.5094 6.58717C12.5094 6.34306 12.4124 6.10894 12.2398 5.93633C12.0672 5.76372 11.8331 5.66675 11.589 5.66675C11.3449 5.66675 11.1108 5.76372 10.9381 5.93633L8.83897 8.04467L6.73981 5.93633C6.5672 5.76372 6.33308 5.66675 6.08897 5.66675C5.84486 5.66675 5.61075 5.76372 5.43814 5.93633C5.26553 6.10894 5.16856 6.34306 5.16856 6.58717C5.16856 6.83128 5.26553 7.06539 5.43814 7.238L7.54647 9.33717L5.43814 11.4363C5.35222 11.5215 5.28403 11.6229 5.23749 11.7346C5.19095 11.8463 5.16699 11.9662 5.16699 12.0872C5.16699 12.2082 5.19095 12.328 5.23749 12.4397C5.28403 12.5514 5.35222 12.6528 5.43814 12.738C5.52336 12.8239 5.62474 12.8921 5.73645 12.9386C5.84815 12.9852 5.96796 13.0091 6.08897 13.0091C6.20998 13.0091 6.3298 12.9852 6.4415 12.9386C6.55321 12.8921 6.65459 12.8239 6.73981 12.738L8.83897 10.6297L10.9381 12.738C11.0234 12.8239 11.1247 12.8921 11.2364 12.9386C11.3481 12.9852 11.468 13.0091 11.589 13.0091C11.71 13.0091 11.8298 12.9852 11.9415 12.9386C12.0532 12.8921 12.1546 12.8239 12.2398 12.738C12.3257 12.6528 12.3939 12.5514 12.4405 12.4397C12.487 12.328 12.511 12.2082 12.511 12.0872C12.511 11.9662 12.487 11.8463 12.4405 11.7346C12.3939 11.6229 12.3257 11.5215 12.2398 11.4363L10.1315 9.33717Z" fill="#090C19"/>
</svg>
