<svg width="19" height="19" viewBox="0 0 19 19" fill="none" xmlns="http://www.w3.org/2000/svg">
<path d="M9.16667 18.33C14.2293 18.33 18.3333 14.2267 18.3333 9.165C18.3333 4.10331 14.2293 0 9.16667 0C4.10406 0 0 4.10331 0 9.165C0 14.2267 4.10406 18.33 9.16667 18.33Z" fill="#FB2C36"/>
<path d="M10.4596 9.16505L12.5679 7.06627C12.7405 6.89369 12.8375 6.65962 12.8375 6.41555C12.8375 6.17148 12.7405 5.93742 12.5679 5.76484C12.3953 5.59225 12.1612 5.4953 11.9171 5.4953C11.673 5.4953 11.4389 5.59225 11.2663 5.76484L9.1671 7.87279L7.06793 5.76484C6.89532 5.59225 6.66121 5.4953 6.4171 5.4953C6.17299 5.4953 5.93888 5.59225 5.76627 5.76484C5.59365 5.93742 5.49668 6.17148 5.49668 6.41555C5.49668 6.65962 5.59365 6.89369 5.76627 7.06627L7.8746 9.16505L5.76627 11.2638C5.68035 11.349 5.61215 11.4504 5.56562 11.5621C5.51908 11.6738 5.49512 11.7936 5.49512 11.9146C5.49512 12.0355 5.51908 12.1553 5.56562 12.267C5.61215 12.3787 5.68035 12.4801 5.76627 12.5653C5.85148 12.6512 5.95287 12.7194 6.06457 12.7659C6.17627 12.8124 6.29609 12.8364 6.4171 12.8364C6.53811 12.8364 6.65792 12.8124 6.76963 12.7659C6.88133 12.7194 6.98272 12.6512 7.06793 12.5653L9.1671 10.4573L11.2663 12.5653C11.3515 12.6512 11.4529 12.7194 11.5646 12.7659C11.6763 12.8124 11.7961 12.8364 11.9171 12.8364C12.0381 12.8364 12.1579 12.8124 12.2696 12.7659C12.3813 12.7194 12.4827 12.6512 12.5679 12.5653C12.6539 12.4801 12.722 12.3787 12.7686 12.267C12.8151 12.1553 12.8391 12.0355 12.8391 11.9146C12.8391 11.7936 12.8151 11.6738 12.7686 11.5621C12.722 11.4504 12.6539 11.349 12.5679 11.2638L10.4596 9.16505Z" fill="#EDEBEA"/>
</svg>
