<svg width="44" height="44" viewBox="0 0 44 44" fill="none" xmlns="http://www.w3.org/2000/svg">
<g opacity="0.5" clip-path="url(#clip0_1_795)">
<path d="M17.2692 40.0325C17.1527 40.0325 17.0329 40.0182 16.9147 39.9853C16.1872 39.7908 15.7563 39.0397 15.9544 38.3142L25.0462 4.67526C25.2407 3.94977 25.9898 3.51128 26.7173 3.71504C27.4444 3.90949 27.8756 4.66061 27.6772 5.3861L18.5857 39.0254C18.4219 39.6327 17.8709 40.0325 17.2692 40.0325Z" fill="#05164D"/>
<path d="M13.183 34.5774C12.8411 34.5774 12.5028 34.4519 12.2375 34.1975L0.418181 22.8331C0.150825 22.5747 0 22.2201 0 21.8492C0 21.4783 0.150825 21.1237 0.418181 20.8653L12.2375 9.50086C12.7812 8.9808 13.6448 8.99545 14.1666 9.53915C14.6886 10.0809 14.6703 10.9465 14.1286 11.4682L3.33113 21.8492L14.1286 32.2301C14.672 32.7519 14.6903 33.6175 14.1666 34.1592C13.8992 34.4376 13.5413 34.5774 13.183 34.5774Z" fill="#05164D"/>
<path d="M30.4587 34.5776C30.1005 34.5776 29.7426 34.4378 29.4752 34.1594C28.9532 33.6177 28.9715 32.754 29.5132 32.2303L40.3106 21.8494L29.5132 11.4684C28.9698 10.9467 28.9515 10.081 29.4752 9.53934C29.9969 8.99364 30.8606 8.97732 31.4043 9.50105L43.2236 20.8655C43.4909 21.1239 43.6418 21.4785 43.6418 21.8494C43.6418 22.2203 43.4909 22.5749 43.2236 22.8332L31.4043 34.1977C31.1389 34.4521 30.8007 34.5776 30.4587 34.5776Z" fill="#05164D"/>
</g>
<defs>
<clipPath id="clip0_1_795">
<rect width="43.64" height="43.64" fill="white"/>
</clipPath>
</defs>
</svg>
