<svg width="25" height="25" viewBox="0 0 25 25" fill="none" xmlns="http://www.w3.org/2000/svg">
<path d="M6.72752 6.51061C7.5783 3.38452 10.3712 1.08191 13.7326 1.08191C17.7614 1.08191 20.9877 4.41655 20.9877 8.51619C20.9877 8.86503 21.2038 9.24153 21.5707 9.46922C22.985 10.3468 23.9136 11.9277 23.9136 13.7252C23.9136 15.3283 23.1768 16.7396 22.0391 17.6623L22.0317 17.6683C21.1977 18.3273 20.1459 18.7203 19.0194 18.7203C18.601 18.7203 18.2618 18.3811 18.2618 17.9627C18.2618 17.5443 18.601 17.2051 19.0194 17.2051C19.788 17.2051 20.5105 16.9379 21.0884 16.4824C21.8857 15.8341 22.3984 14.849 22.3984 13.7252C22.3984 12.459 21.7468 11.3617 20.7718 10.7567C20.0323 10.2978 19.4725 9.46948 19.4725 8.51619C19.4725 5.21564 16.8873 2.59711 13.7326 2.59711C11.0931 2.59711 8.87106 4.40434 8.18954 6.9085C7.98076 7.67575 7.26798 8.17824 6.50863 8.17824C4.09896 8.17824 2.12067 10.1782 2.12067 12.6917C2.12067 14.3084 2.95251 15.7243 4.19299 16.5185L4.20037 16.5233C4.91534 16.9927 5.61175 17.2051 5.99978 17.2051C6.41818 17.2051 6.75738 17.5443 6.75738 17.9627C6.75738 18.3811 6.41818 18.7203 5.99978 18.7203C5.21433 18.7203 4.23038 18.3549 3.37228 17.7922C1.70914 16.7256 0.605469 14.8355 0.605469 12.6917C0.605469 9.376 3.22793 6.66304 6.50863 6.66304C6.62049 6.66304 6.70756 6.58404 6.72752 6.51061Z" fill="#6A7282"/>
<path d="M13.6944 23.5581C13.6944 23.88 13.4335 24.1409 13.1116 24.1409H11.9461C11.6242 24.1409 11.3633 23.88 11.3633 23.5581V22.3926C11.3633 22.0707 11.6242 21.8098 11.9461 21.8098H13.1116C13.4335 21.8098 13.6944 22.0707 13.6944 22.3926V23.5581Z" fill="#6A7282"/>
<path d="M16.5061 21.5565C16.828 21.5565 17.0889 21.2956 17.0889 20.9738V19.8082C17.0889 19.4864 16.828 19.2255 16.5061 19.2255H15.3406C15.0187 19.2255 14.7578 19.4864 14.7578 19.8082V20.9738C14.7578 21.2956 15.0187 21.5565 15.3406 21.5565H16.5061Z" fill="#6A7282"/>
<path d="M12.5291 19.983C12.1107 19.983 11.7715 19.6438 11.7715 19.2254V8.83109C11.7715 8.41269 12.1107 8.07349 12.5291 8.07349C12.9475 8.07349 13.2867 8.41269 13.2867 8.83109V19.2254C13.2867 19.6438 12.9475 19.983 12.5291 19.983Z" fill="#6A7282"/>
<path d="M15.165 17.136C15.165 17.5544 15.5042 17.8936 15.9226 17.8936C16.341 17.8936 16.6802 17.5544 16.6802 17.136V14.3061C16.6802 13.4371 17.3847 12.7326 18.2537 12.7326H18.5603C18.9787 12.7326 19.3179 12.3934 19.3179 11.975C19.3179 11.5566 18.9787 11.2174 18.5603 11.2174H18.2537C16.5479 11.2174 15.165 12.6003 15.165 14.3061V17.136Z" fill="#6A7282"/>
<path d="M7.96875 20.9738C7.96875 21.2956 8.22966 21.5565 8.55152 21.5565H9.71706C10.0389 21.5565 10.2998 21.2956 10.2998 20.9738V19.8082C10.2998 19.4864 10.0389 19.2255 9.71706 19.2255H8.55152C8.22966 19.2255 7.96875 19.4864 7.96875 19.8082V20.9738Z" fill="#6A7282"/>
<path d="M9.89053 17.136C9.89053 17.5544 9.55136 17.8936 9.13293 17.8936C8.71453 17.8936 8.37533 17.5544 8.37533 17.136V14.3061C8.37533 13.4371 7.67088 12.7326 6.80185 12.7326H6.49881C6.08041 12.7326 5.74121 12.3934 5.74121 11.975C5.74121 11.5566 6.08041 11.2174 6.49881 11.2174H6.80185C8.50768 11.2174 9.89053 12.6003 9.89053 14.3061V17.136Z" fill="#6A7282"/>
</svg>
