<svg width="15" height="15" viewBox="0 0 15 15" fill="none" xmlns="http://www.w3.org/2000/svg">
<g clip-path="url(#clip0_1_5217)">
<path opacity="0.5" d="M15 7.5C15 3.35786 11.6421 0 7.5 0C3.35786 0 0 3.35786 0 7.5C0 11.6421 3.35786 15 7.5 15C11.6421 15 15 11.6421 15 7.5Z" fill="#314158"/>
<path d="M12.499 7.5C12.499 4.73858 10.2604 2.5 7.49902 2.5C4.7376 2.5 2.49902 4.73858 2.49902 7.5C2.49902 10.2614 4.7376 12.5 7.49902 12.5C10.2604 12.5 12.499 10.2614 12.499 7.5Z" fill="#314158"/>
<path d="M5.00098 7.50066L6.66748 9.16783L10.001 5.8335" stroke="white"/>
</g>
<defs>
<clipPath id="clip0_1_5217">
<rect width="15" height="15" rx="7.5" fill="white"/>
</clipPath>
</defs>
</svg>
