<svg width="23" height="23" viewBox="0 0 23 23" fill="none" xmlns="http://www.w3.org/2000/svg">
<g clip-path="url(#clip0_645_55)">
<path d="M9.08496 -0.00976562C12.1553 -0.00976562 14.6512 2.4854 14.6514 5.55566C14.6514 7.63436 13.5037 9.44304 11.8105 10.3994C12.4028 10.5909 12.9728 10.8465 13.5186 11.1611C14.4931 10.418 15.7053 9.97367 17.0234 9.97363C20.2268 9.97363 22.8301 12.5806 22.8301 15.7803C22.83 18.6436 20.7451 21.0174 18.0117 21.4912V22.4355C18.0117 22.7531 17.7541 23.0098 17.4365 23.0098H0.744141C0.426569 23.0098 0.169922 22.7531 0.169922 22.4355V18.8926C0.169922 14.9223 2.77897 11.557 6.37012 10.4033C4.67319 9.44992 3.51855 7.63793 3.51855 5.55566C3.5187 2.48542 6.01469 -0.00974444 9.08496 -0.00976562ZM9.0918 11.1182C4.80598 11.1184 1.32231 14.6028 1.32227 18.8887V21.8574H16.8662V21.5762C13.7379 21.4878 11.2207 18.9249 11.2207 15.7764C11.2208 14.324 11.7598 13.0026 12.6406 11.9844C11.5415 11.4191 10.3302 11.1182 9.0918 11.1182ZM17.0234 11.126C14.4553 11.1261 12.3691 13.2157 12.3691 15.7803C12.3692 18.3483 14.4589 20.4345 17.0234 20.4346C17.1588 20.4346 17.2949 20.4239 17.4316 20.4131C19.8063 20.2055 21.6777 18.2075 21.6777 15.7803C21.6777 13.2121 19.5881 11.126 17.0234 11.126ZM9.08496 1.14258C6.65337 1.1426 4.67105 3.12061 4.6709 5.55566C4.6709 7.9873 6.65333 9.96971 9.08496 9.96973C11.5167 9.96973 13.499 7.99085 13.499 5.55566C13.4989 3.12409 11.5201 1.14258 9.08496 1.14258Z" fill="#6A7282" stroke="#6A7282" stroke-width="0.2"/>
<path d="M17.0234 11.8712C17.4983 11.8712 17.8996 12.1649 18.0459 12.6154L18.4541 13.8722H19.7764C20.2512 13.8722 20.6526 14.1667 20.7988 14.6173C20.9452 15.0683 20.7902 15.541 20.4111 15.8214H20.4102L19.3398 16.5968L19.749 17.8546L19.791 18.0236C19.8568 18.4186 19.696 18.8135 19.3604 19.0558C18.9768 19.3326 18.4802 19.3326 18.0967 19.0558L17.0264 18.2784L15.957 19.0558L15.9551 19.0577C15.4583 19.3958 15.0093 19.2464 14.7783 19.1115L14.6934 19.0558C14.3103 18.7754 14.1553 18.3029 14.3018 17.8517L14.709 16.5948L13.6406 15.8185C13.2569 15.5415 13.1017 15.0683 13.248 14.6173C13.3943 14.1668 13.7957 13.8723 14.2705 13.8722H15.5928L16.001 12.6154C16.1473 12.1649 16.5486 11.8712 17.0234 11.8712ZM16.5576 14.6329C16.4794 14.8676 16.2579 15.0284 16.0098 15.0284H14.5654L15.7227 15.9161H15.7217C15.895 16.0447 15.984 16.2566 15.9512 16.4679L15.9287 16.5587L15.4834 17.9318L16.6865 17.1027L16.6904 17.0997C16.9985 16.9098 17.2597 17.0281 17.3633 17.1046H17.3623L18.5293 17.9513L18.1133 16.5529V16.5519C18.0367 16.3131 18.1246 16.0586 18.3223 15.9122L18.3232 15.9113L19.4922 15.0636L18.0342 15.0284V15.0275C17.7842 15.0263 17.5673 14.8709 17.4893 14.6329V14.632L17.0312 13.2198L16.5576 14.6329Z" fill="#6A7282" stroke="#6A7282" stroke-width="0.2"/>
</g>
<defs>
<clipPath id="clip0_645_55">
<rect width="23" height="23" fill="white"/>
</clipPath>
</defs>
</svg>
