<svg width="30" height="30" viewBox="0 0 30 30" fill="none" xmlns="http://www.w3.org/2000/svg">
<rect x="0.5" y="0.5" width="29" height="29" rx="7.5" fill="white"/>
<rect x="0.5" y="0.5" width="29" height="29" rx="7.5" stroke="#E5E7EB"/>
<g opacity="0.5" clip-path="url(#clip0_1_1006)">
<path d="M15 22.5C19.135 22.5 22.5 19.135 22.5 15C22.5 10.865 19.135 7.5 15 7.5C10.865 7.5 7.5 10.865 7.5 15C7.5 19.135 10.865 22.5 15 22.5ZM15 8.49998C18.585 8.49998 21.5 11.415 21.5 15C21.5 18.585 18.585 21.5 15 21.5C11.415 21.5 8.49998 18.585 8.49998 15C8.49998 11.415 11.415 8.49998 15 8.49998Z" fill="#05164D"/>
<path d="M17.1914 17.8695C17.2839 17.9445 17.3939 17.9795 17.5039 17.9795C17.6514 17.9795 17.7964 17.9145 17.8939 17.792C18.0664 17.577 18.0314 17.262 17.8164 17.0895L15.5039 15.2395V11.4795C15.5039 11.2045 15.2789 10.9795 15.0039 10.9795C14.7289 10.9795 14.5039 11.2045 14.5039 11.4795V15.4795C14.5039 15.632 14.5739 15.7745 14.6914 15.8695L17.1914 17.8695Z" fill="#05164D"/>
</g>
<defs>
<clipPath id="clip0_1_1006">
<rect width="15" height="15" fill="white" transform="translate(7.5 7.5)"/>
</clipPath>
</defs>
</svg>
