<svg width="23" height="23" viewBox="0 0 23 23" fill="none" xmlns="http://www.w3.org/2000/svg">
<path d="M1.75645 7.65869H0.673828C0.301695 7.65869 0 7.96039 0 8.33252C0 8.70465 0.301695 9.00635 0.673828 9.00635H1.75645C2.649 8.97346 2.64931 7.69171 1.75645 7.65869Z" fill="#6A7282"/>
<path d="M22.3268 7.65869H21.2441C20.872 7.65869 20.5703 7.96039 20.5703 8.33252C20.5703 8.70465 20.872 9.00635 21.2441 9.00635H22.3268C23.2194 8.97346 23.2196 7.69171 22.3268 7.65869Z" fill="#6A7282"/>
<path d="M4.13369 1.91898C4.78811 2.52691 5.69468 1.62065 5.08661 0.96605L4.32119 0.200626C4.05808 -0.062481 3.63142 -0.062481 3.36826 0.200626C3.10511 0.463734 3.10511 0.890402 3.36826 1.15355L4.13369 1.91898Z" fill="#6A7282"/>
<path d="M18.8665 14.7459C18.2121 14.1381 17.3055 15.0442 17.9136 15.6989L18.679 16.4643C18.9423 16.7275 19.3688 16.7273 19.6319 16.4643C19.8951 16.2012 19.8951 15.7745 19.6319 15.5114L18.8665 14.7459Z" fill="#6A7282"/>
<path d="M4.13369 14.7458L3.36826 15.5113C3.10511 15.7744 3.10511 16.201 3.36826 16.4642C3.6315 16.7274 4.05808 16.7273 4.32119 16.4642L5.08661 15.6988C5.69454 15.0444 4.78833 14.1378 4.13369 14.7458Z" fill="#6A7282"/>
<path d="M18.6786 0.200661L17.9132 0.966085C17.65 1.22919 17.65 1.65586 17.9132 1.91901C18.1764 2.18225 18.603 2.18207 18.8661 1.91901L19.6315 1.15359C20.2395 0.499211 19.3333 -0.407312 18.6786 0.200661Z" fill="#6A7282"/>
<path d="M11.5003 0.801915C4.68154 0.760137 1.34828 9.39378 6.4634 13.9031C7.23508 14.6164 7.73566 15.5749 7.88911 16.6038C6.96752 16.6473 7.01635 17.9723 7.93947 17.9514V18.7211C7.93947 20.4541 9.18423 21.9012 10.8265 22.2171C10.7595 23.2612 12.2414 23.2606 12.1742 22.2171C13.8165 21.9012 15.0612 20.4541 15.0612 18.7211V17.9514C15.9849 17.9721 16.0326 16.6469 15.1116 16.6038C15.2649 15.5751 15.7655 14.6165 16.5373 13.9031C21.6542 9.39194 18.316 0.759239 11.5003 0.801915ZM13.7135 18.7211C13.6019 21.6537 9.39784 21.6518 9.28715 18.721V17.9514H13.7135V18.7211ZM15.638 12.8992C14.5819 13.8681 13.9144 15.1918 13.7521 16.6037H9.24856C8.76438 12.6927 5.82923 12.9992 5.35466 9.00628H8.61326C8.79201 9.00628 8.96339 8.9353 9.08971 8.80889L10.5579 7.34068C11.9282 8.0492 13.6384 6.99509 13.6176 5.44535C13.6176 4.27785 12.6678 3.32801 11.5003 3.32801C9.95075 3.30743 8.89637 5.01737 9.60498 6.38773L8.33416 7.65855H5.35431C6.32311 0.360505 16.6803 0.365761 17.6463 7.65855H14.3874C14.2086 7.65855 14.0372 7.72953 13.9109 7.85594L12.4427 9.32415C11.0724 8.61572 9.36226 9.66974 9.38301 11.2195C9.38301 12.387 10.3329 13.3368 11.5004 13.3368C13.0499 13.3574 14.1043 11.6475 13.3957 10.2771L14.6665 9.00628H17.646C17.4809 10.5046 16.7696 11.8962 15.638 12.8992ZM10.7306 5.44544C10.7306 5.02105 11.0759 4.67573 11.5003 4.67573C12.52 4.71445 12.5197 6.17655 11.5003 6.21514C11.0759 6.2151 10.7306 5.86982 10.7306 5.44544ZM12.27 11.2195C12.27 11.6439 11.9247 11.9892 11.5003 11.9892C10.4806 11.9505 10.4809 10.4884 11.5003 10.4498C11.9247 10.4498 12.27 10.7951 12.27 11.2195Z" fill="#6A7282"/>
</svg>
