<svg width="220" height="46" viewBox="0 0 220 46" fill="none" xmlns="http://www.w3.org/2000/svg">
<g clip-path="url(#clip0_1_1702)">
<path d="M33.1431 33.7145L22.2734 39.2601V28.1689L33.1431 33.7145Z" fill="white"/>
<path d="M11.136 22.4521L22.1267 16.8575L11.136 11.2383H11.1115L0.0967868 16.8575L0 16.9065V28.0467L0.0728623 28.0958H0.0967868L11.1115 33.7149H11.136V33.7394L22.1267 39.3586L22.2719 39.2604V39.4322L33.4078 45.1005V33.8621L33.1414 33.7149L22.2719 28.1694L22.1267 28.0958L11.136 22.5011L11.1115 22.4766L11.136 22.4521Z" fill="#FFAD00"/>
<path d="M22.2766 5.69241V16.7835L22.1313 16.8571L11.1406 11.238V11.2134L22.1313 5.59424L22.2766 5.69241Z" fill="#FFAD00"/>
<path d="M22.1314 5.5946L11.1406 0V11.2383L22.1314 16.8574L22.2766 16.7839V16.9311L33.1461 22.4767L22.2766 28.0222V28.1695L33.1461 33.715L33.4125 33.5923L44.1613 28.0958L44.5485 27.8996V17.0539L44.1613 16.8576L33.4125 11.3611L33.1461 11.2384L22.2766 5.69278L22.1314 5.5946Z" fill="#24315B"/>
<path d="M44.5451 27.8994V17.0537L44.1578 16.8574L33.4224 22.3226V22.3207L33.1406 22.4779L33.4224 22.6313V22.6306L44.1578 28.0957L44.5451 27.8994Z" fill="white"/>
<path d="M33.4093 11.3605V22.3289L33.1431 22.4762L22.2734 16.9306V16.7834L33.1431 11.2378L33.4093 11.3605Z" fill="white"/>
<path d="M22.1313 16.857L11.1406 22.4516V11.2378L22.1313 16.857Z" fill="#D99913"/>
<path d="M11.1118 22.4764L0.0968341 28.0956H0.0726259L0 28.0465V16.9063L0.0968341 16.8572L11.1118 22.4764Z" fill="#D99913"/>
<path d="M11.1407 22.5011V33.7149H11.1164L0.101562 28.0957L11.1164 22.4766L11.1407 22.5011Z" fill="#FFAD00"/>
<path d="M22.2766 28.1693V39.2604L22.1313 39.3585L11.1406 33.7394V33.7148L22.1313 28.0957L22.2766 28.1693Z" fill="#FFAD00"/>
<path d="M33.4093 33.8621V45.1004L22.2734 39.4322V39.2604L33.1431 33.7148L33.4093 33.8621Z" fill="#FFAD00"/>
<path d="M22.1313 28.0956L11.1406 33.7148V22.501L22.1313 28.0956Z" fill="#D99913"/>
<path d="M33.1431 33.715L22.2734 39.2606V28.1694L33.1431 33.715Z" fill="#D99913"/>
<path d="M33.4093 22.6238V33.5922L33.1431 33.7149L22.2734 28.1693V28.0221L33.1431 22.4766L33.4093 22.6238Z" fill="white"/>
<path d="M44.1549 28.0955L33.4062 33.592V22.6235L44.1549 28.0955Z" fill="#E6E6E6"/>
<path d="M11.1407 11.2378V22.4516L11.1164 22.4762L0.101562 16.857L11.1164 11.2378H11.1407Z" fill="#FFAD00"/>
<path d="M22.2766 5.69236V16.7835L22.1313 16.8571L11.1406 11.238V11.2134L22.1313 5.59424L22.2766 5.69236Z" fill="#FFAD00"/>
<path d="M22.2766 5.69236V16.7835L22.1313 16.8571L11.1406 11.238V11.2134L22.1313 5.59424L22.2766 5.69236Z" fill="white"/>
<path d="M44.1549 16.8573L33.4062 22.3293V11.3608L44.1549 16.8573Z" fill="#E6E6E6"/>
<path d="M33.1431 11.2379L22.2734 16.7835V5.69238L33.1431 11.2379Z" fill="#E6E6E6"/>
<path d="M22.1313 5.59466L11.1406 11.2138V0L22.1313 5.59466Z" fill="#E6E6E6"/>
<path d="M206.975 15.8683C204.581 15.5595 202.902 15.4051 201.937 15.4051C200.992 15.4051 200.374 15.4919 200.084 15.6657C199.814 15.8393 199.679 16.1192 199.679 16.5053C199.679 16.872 199.862 17.1326 200.229 17.2871C200.615 17.4221 201.58 17.6345 203.124 17.924C204.688 18.1942 205.797 18.6479 206.454 19.2848C207.11 19.9218 207.438 20.9545 207.438 22.3829C207.438 25.5098 205.498 27.0733 201.619 27.0733C200.345 27.0733 198.8 26.8996 196.986 26.5521L196.06 26.3785L196.175 23.1357C198.569 23.4445 200.229 23.5989 201.155 23.5989C202.101 23.5989 202.738 23.512 203.066 23.3383C203.414 23.1453 203.588 22.8654 203.588 22.4986C203.588 22.1319 203.404 21.8617 203.038 21.688C202.69 21.5142 201.763 21.3019 200.258 21.051C198.772 20.8001 197.662 20.3754 196.928 19.777C196.194 19.1787 195.828 18.1171 195.828 16.5921C195.828 15.048 196.349 13.8898 197.391 13.1177C198.434 12.3263 199.775 11.9307 201.416 11.9307C202.555 11.9307 204.108 12.114 206.077 12.4808L207.033 12.6545L206.975 15.8683Z" fill="#FFAD00"/>
<path d="M185.812 26.7261V12.2493H189.663V13.7838C191.284 12.8187 192.829 12.1914 194.296 11.9019V15.8106C192.732 16.1387 191.391 16.4765 190.271 16.824L189.692 17.0266V26.7261H185.812Z" fill="#FFAD00"/>
<path d="M174.237 21.138C174.256 22.0259 174.488 22.6726 174.932 23.0779C175.395 23.464 176.051 23.657 176.901 23.657C178.696 23.657 180.298 23.5991 181.707 23.4833L182.518 23.3964L182.576 26.2628C180.356 26.8033 178.348 27.0735 176.553 27.0735C174.372 27.0735 172.789 26.4944 171.805 25.3363C170.82 24.1781 170.328 22.2961 170.328 19.6904C170.328 14.498 172.461 11.9019 176.727 11.9019C180.935 11.9019 183.039 14.083 183.039 18.4454L182.749 21.138H174.237ZM179.217 18.1848C179.217 17.0266 179.034 16.2256 178.667 15.7816C178.3 15.3184 177.654 15.0867 176.727 15.0867C175.82 15.0867 175.173 15.328 174.787 15.8106C174.42 16.2739 174.227 17.0653 174.208 18.1848H179.217Z" fill="#FFAD00"/>
<path d="M167.461 6.45898V26.7264H163.61V26.1184C162.259 26.7554 161.091 27.0739 160.107 27.0739C158.003 27.0739 156.536 26.4658 155.706 25.2498C154.876 24.0337 154.461 22.1132 154.461 19.488C154.461 16.8436 154.953 14.923 155.938 13.7263C156.941 12.5103 158.447 11.9023 160.454 11.9023C161.072 11.9023 161.931 11.9987 163.031 12.1918L163.581 12.3076V6.45898H167.461ZM163.176 23.252L163.581 23.1652V15.5504C162.52 15.3574 161.574 15.2609 160.744 15.2609C159.18 15.2609 158.398 16.6507 158.398 19.4301C158.398 20.9358 158.572 22.007 158.92 22.644C159.267 23.281 159.837 23.5995 160.628 23.5995C161.439 23.5995 162.288 23.4836 163.176 23.252Z" fill="#FFAD00"/>
<path d="M140.534 13.8997C141.557 12.5678 143.266 11.9019 145.659 11.9019C148.052 11.9019 149.761 12.5678 150.784 13.8997C151.807 15.2122 152.318 17.0653 152.318 19.4587C152.318 24.5352 150.099 27.0735 145.659 27.0735C141.22 27.0735 139 24.5352 139 19.4587C139 17.0653 139.511 15.2122 140.534 13.8997ZM143.517 22.7305C143.922 23.4253 144.636 23.7728 145.659 23.7728C146.682 23.7728 147.387 23.4253 147.773 22.7305C148.178 22.0356 148.381 20.945 148.381 19.4587C148.381 17.9724 148.178 16.8915 147.773 16.2159C147.387 15.5404 146.682 15.2026 145.659 15.2026C144.636 15.2026 143.922 15.5404 143.517 16.2159C143.13 16.8915 142.937 17.9724 142.937 19.4587C142.937 20.945 143.13 22.0356 143.517 22.7305Z" fill="#FFAD00"/>
<path d="M137.081 26.4078C135.035 26.8517 133.192 27.0737 131.551 27.0737C129.91 27.0737 128.598 26.871 127.613 26.4656C126.629 26.0603 125.856 25.4137 125.297 24.5258C124.737 23.6379 124.351 22.5956 124.139 21.3988C123.926 20.2021 123.82 18.6965 123.82 16.882C123.82 13.0795 124.351 10.4351 125.413 8.94878C126.494 7.44321 128.472 6.69043 131.348 6.69043C133.008 6.69043 134.929 6.95102 137.11 7.4722L136.994 10.657C135.083 10.3675 133.491 10.2227 132.217 10.2227C130.962 10.2227 130.064 10.3965 129.524 10.7439C128.984 11.0721 128.578 11.709 128.308 12.6549C128.057 13.6007 127.932 15.2124 127.932 17.4901C127.932 19.7677 128.192 21.3505 128.713 22.2384C129.254 23.107 130.315 23.5413 131.898 23.5413C133.5 23.5413 135.199 23.4062 136.994 23.136L137.081 26.4078Z" fill="#FFAD00"/>
<path d="M112.682 21.138C112.702 22.0259 112.933 22.6726 113.377 23.0779C113.841 23.464 114.497 23.657 115.346 23.657C117.141 23.657 118.743 23.5991 120.152 23.4833L120.963 23.3964L121.021 26.2628C118.801 26.8033 116.794 27.0735 114.998 27.0735C112.817 27.0735 111.235 26.4944 110.25 25.3363C109.266 24.1781 108.773 22.2961 108.773 19.6904C108.773 14.498 110.906 11.9019 115.172 11.9019C119.38 11.9019 121.484 14.083 121.484 18.4454L121.195 21.138H112.682ZM117.662 18.1848C117.662 17.0266 117.479 16.2256 117.112 15.7816C116.745 15.3184 116.099 15.0867 115.172 15.0867C114.265 15.0867 113.618 15.328 113.232 15.8106C112.865 16.2739 112.672 17.0653 112.653 18.1848H117.662Z" fill="white"/>
<path d="M102.037 12.2495H105.917V26.7262H102.066V25.9155C100.676 26.6876 99.4703 27.0737 98.4473 27.0737C96.4398 27.0737 95.0885 26.5236 94.3938 25.4233C93.6986 24.3038 93.3516 22.4411 93.3516 19.8353V12.2495H97.2313V19.8932C97.2313 21.3216 97.3468 22.2964 97.5783 22.8175C97.8099 23.3387 98.3698 23.5993 99.258 23.5993C100.107 23.5993 100.908 23.4641 101.661 23.1939L102.037 23.0781V12.2495Z" fill="white"/>
<path d="M85.8672 26.7264V6.45898H89.7469V26.7264H85.8672Z" fill="white"/>
<path d="M81.9898 16.7661V22.7884C82.0283 23.2517 82.1058 23.5798 82.2213 23.7728C82.3374 23.9465 82.5788 24.072 82.9451 24.1492L82.8296 27.0735C81.8451 27.0735 81.0537 27.0059 80.4553 26.8708C79.8761 26.7357 79.2876 26.4655 78.6892 26.0601C77.2994 26.7357 75.8809 27.0735 74.4333 27.0735C71.4413 27.0735 69.9453 25.4907 69.9453 22.3251C69.9453 20.7809 70.36 19.6904 71.1905 19.0534C72.0205 18.3971 73.2943 18.011 75.0119 17.8953L78.1101 17.6636V16.7661C78.1101 16.1677 77.9748 15.7624 77.7047 15.55C77.4347 15.3184 77.0002 15.2026 76.4018 15.2026L70.9584 15.4342L70.8429 12.7415C72.9082 12.1818 74.8673 11.9019 76.7202 11.9019C78.593 11.9019 79.9344 12.2879 80.7451 13.06C81.5751 13.8321 81.9898 15.0674 81.9898 16.7661ZM75.4756 20.5879C74.3943 20.6844 73.8542 21.2635 73.8542 22.3251C73.8542 23.3867 74.3272 23.9175 75.2726 23.9175C76.0063 23.9175 76.8071 23.8018 77.6761 23.5701L78.1101 23.4543V20.3563L75.4756 20.5879Z" fill="white"/>
<path d="M65.1389 7.0376H69.3371L64.7627 26.7259H57.3795L52.8047 7.0376H57.0028L60.4194 23.2515H61.7223L65.1389 7.0376Z" fill="white"/>
<path d="M157.55 42.5312C157.296 42.5312 157.049 42.4878 156.808 42.4009C156.568 42.3207 156.361 42.2004 156.188 42.0401L156.598 41.3185C156.732 41.4454 156.879 41.5423 157.039 41.6091C157.2 41.676 157.37 41.7094 157.55 41.7094C157.784 41.7094 157.978 41.6492 158.132 41.529C158.285 41.4087 158.429 41.1949 158.562 40.8875L158.894 40.1559L158.994 40.0356L161.078 35.2148H162.02L159.445 41.0579C159.291 41.432 159.117 41.7261 158.923 41.9399C158.736 42.1537 158.529 42.304 158.302 42.3909C158.075 42.4844 157.824 42.5312 157.55 42.5312ZM158.813 40.6971L156.388 35.2148H157.39L159.455 39.9454L158.813 40.6971Z" fill="white"/>
<path d="M155.093 40.5869C154.559 40.5869 154.145 40.4432 153.85 40.1559C153.557 39.8686 153.41 39.4576 153.41 38.9232V34.0522H154.372V38.8831C154.372 39.1703 154.442 39.3908 154.582 39.5445C154.729 39.6982 154.936 39.7751 155.203 39.7751C155.504 39.7751 155.755 39.6915 155.955 39.5245L156.256 40.216C156.109 40.343 155.932 40.4365 155.725 40.4967C155.525 40.5568 155.314 40.5869 155.093 40.5869ZM152.508 36.0066V35.2148H155.895V36.0066H152.508Z" fill="white"/>
<path d="M150.467 40.5269V35.215H151.429V40.5269H150.467ZM150.949 34.1927C150.762 34.1927 150.604 34.1326 150.477 34.0123C150.357 33.892 150.297 33.7451 150.297 33.5713C150.297 33.3909 150.357 33.2406 150.477 33.1203C150.604 33.0001 150.762 32.9399 150.949 32.9399C151.136 32.9399 151.289 33.0001 151.41 33.1203C151.537 33.2339 151.6 33.3776 151.6 33.5513C151.6 33.7317 151.54 33.8854 151.419 34.0123C151.3 34.1326 151.142 34.1927 150.949 34.1927Z" fill="white"/>
<path d="M147.127 40.5871C146.586 40.5871 146.101 40.4702 145.673 40.2363C145.253 40.0025 144.922 39.6817 144.681 39.2742C144.441 38.8666 144.32 38.3989 144.32 37.871C144.32 37.3432 144.441 36.8755 144.681 36.4679C144.922 36.0603 145.253 35.743 145.673 35.5158C146.101 35.282 146.586 35.165 147.127 35.165C147.608 35.165 148.036 35.2619 148.41 35.4557C148.791 35.6428 149.084 35.9234 149.292 36.2975L148.56 36.7686C148.386 36.508 148.173 36.3176 147.918 36.1973C147.671 36.0704 147.404 36.0069 147.117 36.0069C146.769 36.0069 146.459 36.0838 146.185 36.2374C145.911 36.3911 145.694 36.6082 145.533 36.8888C145.373 37.1628 145.293 37.4902 145.293 37.871C145.293 38.2519 145.373 38.5826 145.533 38.8633C145.694 39.1439 145.911 39.361 146.185 39.5147C146.459 39.6684 146.769 39.7452 147.117 39.7452C147.404 39.7452 147.671 39.6851 147.918 39.5648C148.173 39.4379 148.386 39.2441 148.56 38.9835L149.292 39.4446C149.084 39.812 148.791 40.096 148.41 40.2965C148.036 40.4902 147.608 40.5871 147.127 40.5871Z" fill="white"/>
<path d="M140.727 40.5871C140.193 40.5871 139.718 40.4702 139.304 40.2363C138.89 40.0025 138.563 39.6817 138.322 39.2742C138.081 38.8599 137.961 38.3922 137.961 37.871C137.961 37.3432 138.081 36.8755 138.322 36.4679C138.563 36.0603 138.89 35.743 139.304 35.5158C139.718 35.282 140.193 35.165 140.727 35.165C141.255 35.165 141.726 35.282 142.14 35.5158C142.561 35.743 142.889 36.0603 143.123 36.4679C143.363 36.8688 143.483 37.3365 143.483 37.871C143.483 38.3989 143.363 38.8666 143.123 39.2742C142.889 39.6817 142.561 40.0025 142.14 40.2363C141.726 40.4702 141.255 40.5871 140.727 40.5871ZM140.727 39.7452C141.068 39.7452 141.372 39.6684 141.639 39.5147C141.913 39.361 142.127 39.1439 142.281 38.8633C142.435 38.576 142.511 38.2452 142.511 37.871C142.511 37.4902 142.435 37.1628 142.281 36.8888C142.127 36.6082 141.913 36.3911 141.639 36.2374C141.372 36.0838 141.068 36.0069 140.727 36.0069C140.386 36.0069 140.082 36.0838 139.816 36.2374C139.548 36.3911 139.334 36.6082 139.174 36.8888C139.014 37.1628 138.933 37.4902 138.933 37.871C138.933 38.2452 139.014 38.576 139.174 38.8633C139.334 39.1439 139.548 39.361 139.816 39.5147C140.082 39.6684 140.386 39.7452 140.727 39.7452Z" fill="white"/>
<path d="M135.656 40.5265V33.0898H136.618V40.5265H135.656Z" fill="white"/>
<path d="M131.88 40.5871C131.312 40.5871 130.811 40.4702 130.376 40.2363C129.949 40.0025 129.615 39.6817 129.374 39.2742C129.141 38.8666 129.023 38.3989 129.023 37.871C129.023 37.3432 129.137 36.8755 129.364 36.4679C129.598 36.0603 129.916 35.743 130.316 35.5158C130.724 35.282 131.182 35.165 131.689 35.165C132.204 35.165 132.658 35.2786 133.053 35.5058C133.447 35.733 133.754 36.0537 133.975 36.4679C134.202 36.8755 134.316 37.3532 134.316 37.9011C134.316 37.9412 134.312 37.988 134.305 38.0414C134.305 38.0949 134.302 38.145 134.295 38.1918H129.775V37.5002H133.794L133.403 37.7407C133.41 37.4 133.34 37.096 133.193 36.8287C133.046 36.5615 132.842 36.3544 132.581 36.2073C132.328 36.0537 132.03 35.9768 131.689 35.9768C131.355 35.9768 131.058 36.0537 130.798 36.2073C130.537 36.3544 130.333 36.5648 130.186 36.8387C130.039 37.106 129.966 37.4134 129.966 37.7608V37.9211C129.966 38.2753 130.046 38.5927 130.206 38.8733C130.373 39.1473 130.604 39.361 130.898 39.5147C131.192 39.6684 131.529 39.7452 131.91 39.7452C132.224 39.7452 132.508 39.6918 132.762 39.5849C133.022 39.478 133.25 39.3176 133.443 39.1038L133.975 39.7252C133.734 40.0058 133.433 40.2196 133.073 40.3666C132.718 40.5136 132.321 40.5871 131.88 40.5871Z" fill="white"/>
<path d="M125.095 40.5264L122.008 33.5107H123.09L125.927 39.9852H125.306L128.162 33.5107H129.164L126.087 40.5264H125.095Z" fill="white"/>
<path d="M115.636 42.5315C115.149 42.5315 114.674 42.4613 114.213 42.321C113.759 42.1873 113.388 41.9936 113.101 41.7397L113.562 40.998C113.809 41.2118 114.113 41.3789 114.474 41.4992C114.835 41.6261 115.212 41.6896 115.607 41.6896C116.235 41.6896 116.696 41.5426 116.989 41.2486C117.284 40.9546 117.43 40.5069 117.43 39.9056V38.7831L117.531 37.7307L117.48 36.6684V35.2151H118.393V39.8054C118.393 40.7408 118.159 41.429 117.691 41.87C117.224 42.311 116.538 42.5315 115.636 42.5315ZM115.516 40.3065C115.002 40.3065 114.541 40.1996 114.133 39.9858C113.732 39.7653 113.412 39.4613 113.171 39.0737C112.937 38.6862 112.82 38.2386 112.82 37.7307C112.82 37.2163 112.937 36.7686 113.171 36.3877C113.412 36.0002 113.732 35.6995 114.133 35.4857C114.541 35.2719 115.002 35.165 115.516 35.165C115.971 35.165 116.385 35.2585 116.759 35.4456C117.133 35.626 117.43 35.9067 117.651 36.2875C117.878 36.6684 117.992 37.1494 117.992 37.7307C117.992 38.3054 117.878 38.7831 117.651 39.1639C117.43 39.5448 117.133 39.8321 116.759 40.0259C116.385 40.2129 115.971 40.3065 115.516 40.3065ZM115.626 39.4646C115.981 39.4646 116.295 39.3911 116.569 39.2441C116.842 39.0972 117.056 38.8933 117.21 38.6327C117.37 38.3722 117.451 38.0715 117.451 37.7307C117.451 37.39 117.37 37.0893 117.21 36.8287C117.056 36.5681 116.842 36.3677 116.569 36.2274C116.295 36.0804 115.981 36.0069 115.626 36.0069C115.272 36.0069 114.955 36.0804 114.674 36.2274C114.4 36.3677 114.183 36.5681 114.023 36.8287C113.869 37.0893 113.792 37.39 113.792 37.7307C113.792 38.0715 113.869 38.3722 114.023 38.6327C114.183 38.8933 114.4 39.0972 114.674 39.2441C114.955 39.3911 115.272 39.4646 115.626 39.4646Z" fill="white"/>
<path d="M109.329 35.165C109.763 35.165 110.144 35.2485 110.471 35.4156C110.805 35.5826 111.066 35.8365 111.253 36.1773C111.44 36.518 111.533 36.949 111.533 37.4701V40.527H110.572V37.5804C110.572 37.0659 110.444 36.6784 110.19 36.4178C109.943 36.1572 109.593 36.0269 109.138 36.0269C108.797 36.0269 108.5 36.0938 108.246 36.2274C107.993 36.361 107.795 36.5581 107.655 36.8187C107.521 37.0793 107.455 37.4034 107.455 37.7909V40.527H106.492V35.2151H107.415V36.6483L107.264 36.2675C107.438 35.92 107.705 35.6494 108.066 35.4557C108.427 35.2619 108.848 35.165 109.329 35.165Z" fill="white"/>
<path d="M103.694 40.5269V35.215H104.656V40.5269H103.694ZM104.175 34.1927C103.988 34.1927 103.831 34.1326 103.704 34.0123C103.583 33.892 103.523 33.7451 103.523 33.5713C103.523 33.3909 103.583 33.2406 103.704 33.1203C103.831 33.0001 103.988 32.9399 104.175 32.9399C104.362 32.9399 104.516 33.0001 104.636 33.1203C104.763 33.2339 104.826 33.3776 104.826 33.5513C104.826 33.7317 104.766 33.8854 104.646 34.0123C104.526 34.1326 104.369 34.1927 104.175 34.1927Z" fill="white"/>
<path d="M99.6562 40.527V35.2151H100.579V36.6583L100.488 36.2975C100.635 35.9301 100.883 35.6494 101.23 35.4557C101.577 35.2619 102.005 35.165 102.513 35.165V36.0971C102.473 36.0904 102.433 36.0871 102.393 36.0871C102.359 36.0871 102.326 36.0871 102.292 36.0871C101.778 36.0871 101.37 36.2407 101.07 36.5481C100.769 36.8555 100.619 37.2998 100.619 37.8811V40.527H99.6562Z" fill="white"/>
<path d="M95.8796 40.5871C95.312 40.5871 94.8104 40.4702 94.3764 40.2363C93.9485 40.0025 93.6147 39.6817 93.3743 39.2742C93.14 38.8666 93.0234 38.3989 93.0234 37.871C93.0234 37.3432 93.1367 36.8755 93.3639 36.4679C93.5982 36.0603 93.9155 35.743 94.3165 35.5158C94.724 35.282 95.1816 35.165 95.6893 35.165C96.2035 35.165 96.6584 35.2786 97.0522 35.5058C97.4465 35.733 97.754 36.0537 97.9745 36.4679C98.2017 36.8755 98.315 37.3532 98.315 37.9011C98.315 37.9412 98.3117 37.988 98.3051 38.0414C98.3051 38.0949 98.3018 38.145 98.2952 38.1918H93.7753V37.5002H97.7941L97.4031 37.7407C97.4097 37.4 97.3398 37.096 97.1924 36.8287C97.0456 36.5615 96.8421 36.3544 96.5814 36.2073C96.3273 36.0537 96.0303 35.9768 95.6893 35.9768C95.3554 35.9768 95.0579 36.0537 94.7972 36.2073C94.5365 36.3544 94.333 36.5648 94.1861 36.8387C94.0387 37.106 93.9656 37.4134 93.9656 37.7608V37.9211C93.9656 38.2753 94.0459 38.5927 94.2059 38.8733C94.3731 39.1473 94.6036 39.361 94.8973 39.5147C95.1915 39.6684 95.5287 39.7452 95.9098 39.7452C96.2239 39.7452 96.5077 39.6918 96.7618 39.5849C97.0225 39.478 97.2496 39.3176 97.4432 39.1038L97.9745 39.7252C97.7336 40.0058 97.4333 40.2196 97.0725 40.3666C96.7183 40.5136 96.3207 40.5871 95.8796 40.5871Z" fill="white"/>
<path d="M89.7473 40.5871C89.1792 40.5871 88.6781 40.4702 88.2436 40.2363C87.8163 40.0025 87.4819 39.6817 87.2415 39.2742C87.0078 38.8666 86.8906 38.3989 86.8906 37.871C86.8906 37.3432 87.0045 36.8755 87.2316 36.4679C87.4654 36.0603 87.7827 35.743 88.1837 35.5158C88.5912 35.282 89.0488 35.165 89.5565 35.165C90.0713 35.165 90.5256 35.2786 90.9199 35.5058C91.3137 35.733 91.6212 36.0537 91.8417 36.4679C92.0689 36.8755 92.1827 37.3532 92.1827 37.9011C92.1827 37.9412 92.1789 37.988 92.1723 38.0414C92.1723 38.0949 92.169 38.145 92.1624 38.1918H87.6425V37.5002H91.6613L91.2703 37.7407C91.2769 37.4 91.207 37.096 91.0602 36.8287C90.9128 36.5615 90.7093 36.3544 90.4486 36.2073C90.1945 36.0537 89.8975 35.9768 89.5565 35.9768C89.2226 35.9768 88.9251 36.0537 88.6644 36.2073C88.4042 36.3544 88.2002 36.5648 88.0533 36.8387C87.9065 37.106 87.8328 37.4134 87.8328 37.7608V37.9211C87.8328 38.2753 87.9131 38.5927 88.0731 38.8733C88.2403 39.1473 88.4708 39.361 88.765 39.5147C89.0587 39.6684 89.3964 39.7452 89.777 39.7452C90.0911 39.7452 90.3749 39.6918 90.629 39.5849C90.8897 39.478 91.1168 39.3176 91.3104 39.1038L91.8417 39.7252C91.6014 40.0058 91.3005 40.2196 90.9397 40.3666C90.5855 40.5136 90.1879 40.5871 89.7473 40.5871Z" fill="white"/>
<path d="M83.391 35.165C83.825 35.165 84.2061 35.2485 84.5334 35.4156C84.8672 35.5826 85.1279 35.8365 85.3149 36.1773C85.5019 36.518 85.596 36.949 85.596 37.4701V40.527H84.6335V37.5804C84.6335 37.0659 84.5064 36.6784 84.2529 36.4178C84.0054 36.1572 83.6545 36.0269 83.2002 36.0269C82.8597 36.0269 82.5622 36.0938 82.3086 36.2274C82.0545 36.361 81.8576 36.5581 81.7168 36.8187C81.5832 37.0793 81.5166 37.4034 81.5166 37.7909V40.527H80.5547V35.2151H81.4765V36.6483L81.3263 36.2675C81.5001 35.92 81.7674 35.6494 82.1282 35.4557C82.489 35.2619 82.9098 35.165 83.391 35.165Z" fill="white"/>
<path d="M77.7564 40.5269V35.215H78.7189V40.5269H77.7564ZM78.2377 34.1927C78.0507 34.1927 77.8934 34.1326 77.7663 34.0123C77.6464 33.892 77.5859 33.7451 77.5859 33.5713C77.5859 33.3909 77.6464 33.2406 77.7663 33.1203C77.8934 33.0001 78.0507 32.9399 78.2377 32.9399C78.4247 32.9399 78.5781 33.0001 78.6986 33.1203C78.8256 33.2339 78.8889 33.3776 78.8889 33.5513C78.8889 33.7317 78.8289 33.8854 78.7085 34.0123C78.5886 34.1326 78.4313 34.1927 78.2377 34.1927Z" fill="white"/>
<path d="M73.1676 42.5315C72.6803 42.5315 72.2056 42.4613 71.7447 42.321C71.2904 42.1873 70.9197 41.9936 70.6321 41.7397L71.093 40.998C71.3405 41.2118 71.6446 41.3789 72.0054 41.4992C72.3662 41.6261 72.7435 41.6896 73.1379 41.6896C73.766 41.6896 74.2269 41.5426 74.5206 41.2486C74.8148 40.9546 74.9617 40.5069 74.9617 39.9056V38.7831L75.0618 37.7307L75.0117 36.6684V35.2151H75.9242V39.8054C75.9242 40.7408 75.6899 41.429 75.2224 41.87C74.7549 42.311 74.0696 42.5315 73.1676 42.5315ZM73.0477 40.3065C72.5329 40.3065 72.072 40.1996 71.6644 39.9858C71.2635 39.7653 70.9428 39.4613 70.7025 39.0737C70.4687 38.6862 70.3516 38.2386 70.3516 37.7307C70.3516 37.2163 70.4687 36.7686 70.7025 36.3877C70.9428 36.0002 71.2635 35.6995 71.6644 35.4857C72.072 35.2719 72.5329 35.165 73.0477 35.165C73.502 35.165 73.9161 35.2585 74.2901 35.4456C74.6647 35.626 74.9617 35.9067 75.1822 36.2875C75.4094 36.6684 75.5232 37.1494 75.5232 37.7307C75.5232 38.3054 75.4094 38.7831 75.1822 39.1639C74.9617 39.5448 74.6647 39.8321 74.2901 40.0259C73.9161 40.2129 73.502 40.3065 73.0477 40.3065ZM73.1577 39.4646C73.5119 39.4646 73.8259 39.3911 74.0998 39.2441C74.3737 39.0972 74.5877 38.8933 74.7411 38.6327C74.9017 38.3722 74.982 38.0715 74.982 37.7307C74.982 37.39 74.9017 37.0893 74.7411 36.8287C74.5877 36.5681 74.3737 36.3677 74.0998 36.2274C73.8259 36.0804 73.5119 36.0069 73.1577 36.0069C72.8035 36.0069 72.4861 36.0804 72.2056 36.2274C71.9317 36.3677 71.7145 36.5681 71.5544 36.8287C71.4004 37.0893 71.324 37.39 71.324 37.7307C71.324 38.0715 71.4004 38.3722 71.5544 38.6327C71.7145 38.8933 71.9317 39.0972 72.2056 39.2441C72.4861 39.3911 72.8035 39.4646 73.1577 39.4646Z" fill="white"/>
<path d="M66.852 35.165C67.2865 35.165 67.6671 35.2485 67.9949 35.4156C68.3287 35.5826 68.5894 35.8365 68.7764 36.1773C68.9634 36.518 69.0569 36.949 69.0569 37.4701V40.527H68.095V37.5804C68.095 37.0659 67.9679 36.6784 67.7144 36.4178C67.4669 36.1572 67.116 36.0269 66.6617 36.0269C66.3212 36.0269 66.0237 36.0938 65.7696 36.2274C65.516 36.361 65.3186 36.5581 65.1783 36.8187C65.0447 37.0793 64.9781 37.4034 64.9781 37.7909V40.527H64.0156V35.2151H64.938V36.6483L64.7878 36.2675C64.9611 35.92 65.2284 35.6494 65.5892 35.4557C65.95 35.2619 66.3713 35.165 66.852 35.165Z" fill="white"/>
<path d="M58.3494 36.5375H61.9574V37.3894H58.3494V36.5375ZM58.4396 39.6545H62.5288V40.5264H57.4375V33.5107H62.3886V34.3827H58.4396V39.6545Z" fill="white"/>
<path d="M214.188 16.7037V11.2471H214.827L217.275 15.3707H216.931L219.348 11.2471H219.987L219.995 16.7037H219.246L219.239 12.4241H219.418L217.266 16.0411H216.908L214.741 12.4241H214.936V16.7037H214.188Z" fill="white"/>
<path d="M210.699 16.7037V11.9253H208.828V11.2471H213.341V11.9253H211.471V16.7037H210.699Z" fill="white"/>
</g>
<defs>
<clipPath id="clip0_1_1702">
<rect width="220" height="45.1" fill="white"/>
</clipPath>
</defs>
</svg>
