<svg width="14" height="15" viewBox="0 0 14 15" fill="none" xmlns="http://www.w3.org/2000/svg">
<path d="M12.0796 5.4289L2.91292 0.257234C2.61356 0.0861568 2.27422 -0.00257774 1.92944 5.70095e-05C1.58465 0.00269176 1.24671 0.0966019 0.950002 0.272234C0.660932 0.437562 0.42077 0.676456 0.253915 0.964647C0.0870593 1.25284 -0.000544571 1.58006 2.54708e-06 1.91307V12.2564C-0.000544571 12.5894 0.0870593 12.9166 0.253915 13.2048C0.42077 13.493 0.660932 13.7319 0.950002 13.8972C1.24674 14.0728 1.58467 14.1666 1.92944 14.1693C2.27421 14.1719 2.61353 14.0832 2.91292 13.9122L12.0796 8.74057C12.3752 8.5768 12.6216 8.33687 12.7932 8.04569C12.9648 7.75451 13.0553 7.4227 13.0553 7.08474C13.0553 6.74677 12.9648 6.41496 12.7932 6.12378C12.6216 5.8326 12.3752 5.59267 12.0796 5.4289Z" fill="black"/>
</svg>
