<svg width="23" height="23" viewBox="0 0 23 23" fill="none" xmlns="http://www.w3.org/2000/svg">
<path d="M21.3982 19.0275C21.0939 17.3604 20.3727 15.7973 19.3019 14.4838C18.2311 13.1703 16.8453 12.1491 15.2737 11.5151C16.1575 10.7465 16.7855 9.72618 17.0736 8.59084C17.3617 7.45549 17.2962 6.25924 16.8859 5.16214C16.4755 4.06504 15.7399 3.11943 14.7774 2.45184C13.815 1.78424 12.6716 1.42651 11.5002 1.42651C10.3289 1.42651 9.18552 1.78424 8.22306 2.45184C7.2606 3.11943 6.52498 4.06504 6.11463 5.16214C5.70429 6.25924 5.63879 7.45549 5.9269 8.59084C6.21501 9.72618 6.84299 10.7465 7.72681 11.5151C6.15515 12.1491 4.76941 13.1703 3.69857 14.4838C2.62774 15.7973 1.90662 17.3604 1.60234 19.0275C1.54577 19.3362 1.55798 19.6535 1.63811 19.9569C1.71825 20.2603 1.86432 20.5422 2.06593 20.7827C2.26886 21.0269 2.52309 21.2233 2.81055 21.3581C3.09801 21.4929 3.41163 21.5627 3.72912 21.5625H19.2714C19.5889 21.5627 19.9025 21.4929 20.1899 21.3581C20.4774 21.2233 20.7316 21.0269 20.9346 20.7827C21.1362 20.5422 21.2822 20.2603 21.3624 19.9569C21.4425 19.6535 21.4547 19.3362 21.3982 19.0275ZM7.18775 7.18755C7.18775 6.33461 7.44067 5.50084 7.91453 4.79165C8.3884 4.08246 9.06192 3.52972 9.84992 3.20331C10.6379 2.87691 11.505 2.79151 12.3416 2.95791C13.1781 3.12431 13.9465 3.53503 14.5496 4.13815C15.1528 4.74126 15.5635 5.50968 15.7299 6.34622C15.8963 7.18276 15.8109 8.04986 15.4845 8.83787C15.1581 9.62587 14.6053 10.2994 13.8961 10.7733C13.187 11.2471 12.3532 11.5 11.5002 11.5C10.3568 11.4989 9.26061 11.0442 8.45211 10.2357C7.6436 9.42718 7.18889 8.33094 7.18775 7.18755ZM11.7324 12.9375L12.8105 15.6393L11.5002 16.9525L10.1878 15.6393L11.2681 12.9375H11.7324ZM19.8306 19.862C19.7624 19.9442 19.677 20.0105 19.5803 20.0559C19.4837 20.1014 19.3782 20.125 19.2714 20.125H3.72912C3.62231 20.125 3.51682 20.1014 3.42017 20.0559C3.32352 20.0105 3.23808 19.9442 3.16993 19.862C3.10332 19.7835 3.05492 19.6912 3.0282 19.5918C3.00148 19.4924 2.99711 19.3883 3.0154 19.287C3.31081 17.674 4.06079 16.1789 5.1771 14.9776C6.29341 13.7764 7.7296 12.919 9.31668 12.5063C9.48152 12.5739 9.64922 12.634 9.81981 12.6867L8.85093 15.1082C8.74663 15.3693 8.7212 15.6553 8.77779 15.9307C8.83439 16.2062 8.97052 16.459 9.16934 16.6578L10.4839 17.9688C10.7535 18.2383 11.1191 18.3897 11.5002 18.3897C11.8814 18.3897 12.247 18.2383 12.5166 17.9688L13.8304 16.6556C14.0293 16.4567 14.1654 16.2037 14.2218 15.9281C14.2783 15.6525 14.2527 15.3665 14.1481 15.1053L13.18 12.6845C13.351 12.6318 13.5187 12.5717 13.6831 12.5041C15.2703 12.9169 16.7065 13.7744 17.8228 14.9758C18.9392 16.1771 19.6891 17.6724 19.9844 19.2855C20.003 19.387 19.9988 19.4914 19.9722 19.591C19.9456 19.6907 19.8972 19.7833 19.8306 19.862Z" fill="#6A7282"/>
</svg>
