<svg width="88" height="50" viewBox="0 0 88 50" fill="none" xmlns="http://www.w3.org/2000/svg">
<g opacity="0.6">
<g opacity="0.5">
<rect x="0.799561" y="0.799805" width="85.5555" height="47.6331" rx="1.83211" fill="#CDCED6"/>
<rect x="0.399774" y="0.400018" width="86.355" height="48.4326" rx="2.2319" stroke="white" stroke-opacity="0.3" stroke-width="0.799573"/>
</g>
</g>
<path d="M0.799316 15.9932H86.3548V2.8679C86.3548 1.72575 85.4289 0.79986 84.2867 0.79986H2.86736C1.72521 0.79986 0.799316 1.72575 0.799316 2.8679V15.9932Z" fill="#4285F4"/>
<path d="M31.0913 6.13086C31.8322 6.13086 32.3706 6.28544 32.7064 6.59461C33.0476 6.90378 33.2181 7.33022 33.2181 7.87393C33.2181 8.11913 33.1808 8.35367 33.1062 8.57755C33.0316 8.7961 32.9063 8.99333 32.7304 9.16924C32.5545 9.34514 32.3226 9.48374 32.0348 9.58502C31.7523 9.6863 31.4004 9.73694 30.9793 9.73694H30.4116V11.8398H29.3882V6.13086H31.0913ZM31.0273 6.97841H30.4116V8.88939H30.8754C31.1526 8.88939 31.3871 8.8574 31.579 8.79344C31.7762 8.72414 31.9255 8.61753 32.0268 8.47361C32.1281 8.32969 32.1787 8.14312 32.1787 7.91391C32.1787 7.59941 32.0854 7.36487 31.8988 7.21028C31.7123 7.0557 31.4218 6.97841 31.0273 6.97841Z" fill="white"/>
<path d="M35.9698 7.42617C36.5295 7.42617 36.9533 7.54877 37.2411 7.79397C37.5343 8.03384 37.6809 8.41231 37.6809 8.92937V11.8398H36.9693L36.7694 11.2401H36.7374C36.6148 11.3947 36.4869 11.5253 36.3536 11.6319C36.2257 11.7332 36.0764 11.8052 35.9058 11.8478C35.7406 11.8958 35.538 11.9198 35.2982 11.9198C35.0423 11.9198 34.8104 11.8718 34.6025 11.7758C34.4 11.6799 34.2401 11.5333 34.1228 11.3361C34.0055 11.1335 33.9469 10.8803 33.9469 10.5765C33.9469 10.1287 34.1095 9.79291 34.4346 9.56903C34.7651 9.33981 35.2635 9.21455 35.9298 9.19323L36.6814 9.16924V8.95335C36.6814 8.67617 36.6148 8.47894 36.4815 8.36167C36.3483 8.2444 36.1617 8.18576 35.9218 8.18576C35.7033 8.18576 35.4927 8.21775 35.2902 8.28171C35.0876 8.34568 34.8904 8.4203 34.6985 8.50559L34.3786 7.80197C34.5919 7.69003 34.8344 7.59941 35.1063 7.53011C35.3834 7.46082 35.6713 7.42617 35.9698 7.42617ZM36.1537 9.8089C35.7113 9.82489 35.4048 9.90218 35.2342 10.0408C35.0636 10.174 34.9783 10.3553 34.9783 10.5845C34.9783 10.787 35.0396 10.9336 35.1622 11.0242C35.2848 11.1149 35.4421 11.1602 35.634 11.1602C35.9272 11.1602 36.175 11.0776 36.3776 10.9123C36.5801 10.7417 36.6814 10.4912 36.6814 10.1607V9.79291L36.1537 9.8089Z" fill="white"/>
<path d="M41.2141 7.42617C41.2781 7.42617 41.3527 7.42883 41.438 7.43416C41.5233 7.43949 41.5953 7.45016 41.6539 7.46615L41.5659 8.40165C41.518 8.39099 41.454 8.38299 41.374 8.37766C41.2994 8.367 41.2328 8.36167 41.1741 8.36167C41.0142 8.36167 40.8596 8.38832 40.7104 8.44163C40.5665 8.4896 40.4359 8.56423 40.3186 8.66551C40.2067 8.76146 40.116 8.88672 40.0467 9.04131C39.9828 9.19589 39.9508 9.37979 39.9508 9.59301V11.8398H38.9433V7.50613H39.7189L39.8628 8.25773H39.9108C39.9961 8.10314 40.1027 7.96455 40.2306 7.84195C40.3586 7.71401 40.5052 7.61274 40.6704 7.53811C40.841 7.46348 41.0222 7.42617 41.2141 7.42617Z" fill="white"/>
<path d="M44.1362 11.1122C44.2641 11.1122 44.3867 11.1015 44.504 11.0802C44.6213 11.0536 44.7305 11.0242 44.8318 10.9923V11.7439C44.7252 11.7918 44.5866 11.8318 44.416 11.8638C44.2455 11.9011 44.0669 11.9198 43.8803 11.9198C43.6351 11.9198 43.4112 11.8798 43.2087 11.7998C43.0115 11.7145 42.8515 11.5706 42.7289 11.3681C42.6117 11.1655 42.553 10.883 42.553 10.5205V8.26572H41.9693V7.82596L42.609 7.47414L42.9288 6.55463H43.5605V7.50613H44.7918V8.26572H43.5605V10.5125C43.5605 10.7151 43.6138 10.867 43.7204 10.9683C43.827 11.0642 43.9656 11.1122 44.1362 11.1122Z" fill="white"/>
<path d="M48.0241 7.42617C48.5092 7.42617 48.8877 7.55143 49.1595 7.80197C49.4367 8.0525 49.5753 8.45762 49.5753 9.01732V11.8398H48.5678V9.21721C48.5678 8.89205 48.5039 8.64952 48.3759 8.4896C48.248 8.32436 48.0454 8.24173 47.7683 8.24173C47.3631 8.24173 47.086 8.36967 46.9367 8.62553C46.7874 8.87606 46.7128 9.2412 46.7128 9.72094V11.8398H45.7054V7.50613H46.4809L46.6249 8.07382H46.6808C46.7768 7.92457 46.8941 7.80197 47.0326 7.70602C47.1712 7.61007 47.3258 7.54077 47.4964 7.49813C47.667 7.45016 47.8429 7.42617 48.0241 7.42617Z" fill="white"/>
<path d="M52.5785 7.42617C52.9676 7.42617 53.3008 7.50613 53.578 7.66604C53.8605 7.82062 54.079 8.04451 54.2336 8.33768C54.3882 8.62553 54.4655 8.97734 54.4655 9.39312V9.90485H51.603C51.6137 10.2993 51.723 10.6058 51.9308 10.8244C52.1387 11.0376 52.4266 11.1442 52.7944 11.1442C53.0769 11.1442 53.3274 11.1175 53.546 11.0642C53.7699 11.0056 53.9991 10.923 54.2336 10.8164V11.6239C54.0204 11.7252 53.7992 11.7998 53.57 11.8478C53.3408 11.8958 53.0662 11.9198 52.7464 11.9198C52.3253 11.9198 51.9495 11.8398 51.619 11.6799C51.2939 11.5147 51.038 11.2668 50.8514 10.9363C50.6702 10.6058 50.5796 10.1954 50.5796 9.70495C50.5796 9.20922 50.6622 8.79344 50.8274 8.45762C50.998 8.11647 51.2325 7.8606 51.5311 7.69003C51.8296 7.51412 52.1787 7.42617 52.5785 7.42617ZM52.5785 8.16977C52.312 8.16977 52.0934 8.25772 51.9228 8.43363C51.7576 8.60421 51.659 8.86007 51.627 9.20122H53.49C53.49 8.99866 53.4554 8.82009 53.3861 8.66551C53.3221 8.51092 53.2235 8.39099 53.0902 8.3057C52.957 8.21508 52.7864 8.16977 52.5785 8.16977Z" fill="white"/>
<path d="M57.7522 7.42617C57.8161 7.42617 57.8908 7.42883 57.9761 7.43416C58.0613 7.43949 58.1333 7.45016 58.1919 7.46615L58.104 8.40165C58.056 8.39099 57.992 8.38299 57.9121 8.37766C57.8375 8.367 57.7708 8.36167 57.7122 8.36167C57.5523 8.36167 57.3977 8.38832 57.2484 8.44163C57.1045 8.4896 56.9739 8.56423 56.8567 8.66551C56.7447 8.76146 56.6541 8.88672 56.5848 9.04131C56.5208 9.19589 56.4888 9.37979 56.4888 9.59301V11.8398H55.4814V7.50613H56.257L56.4009 8.25773H56.4489C56.5342 8.10314 56.6408 7.96455 56.7687 7.84195C56.8966 7.71401 57.0432 7.61274 57.2085 7.53811C57.379 7.46348 57.5603 7.42617 57.7522 7.42617Z" fill="white"/>
<g clip-path="url(#clip0_99_6212)">
<path d="M52.84 32.9014C52.3285 32.9132 51.82 32.8217 51.3454 32.6328C50.8709 32.4438 50.4403 32.1612 50.08 31.8023C49.7197 31.4434 49.4372 31.0157 49.2498 30.5453C49.0625 30.0749 48.9741 29.5718 48.9901 29.0665C48.9769 28.5645 49.0671 28.0651 49.2552 27.5986C49.4433 27.1321 49.7254 26.7082 50.0843 26.3527C50.442 25.9912 50.8714 25.7066 51.3456 25.5167C51.8198 25.3269 52.3286 25.2358 52.84 25.2494C53.3522 25.2369 53.8608 25.3379 54.3283 25.545C54.7958 25.7521 55.2104 26.06 55.5417 26.4461L54.8798 27.1001C54.637 26.7969 54.3266 26.5531 53.9728 26.388C53.619 26.2229 53.2313 26.1407 52.84 26.148C52.4587 26.1388 52.0795 26.2067 51.7256 26.3475C51.3718 26.4882 51.0508 26.6989 50.7823 26.9666C50.508 27.2429 50.2938 27.5718 50.1529 27.9329C50.0119 28.294 49.9472 28.6798 49.9627 29.0665C49.946 29.4547 50.0101 29.8422 50.151 30.2049C50.292 30.5676 50.5068 30.8979 50.7823 31.1753C51.0501 31.4438 51.371 31.6551 51.725 31.7959C52.079 31.9367 52.4586 32.0041 52.84 31.9938C53.2729 31.9918 53.6997 31.894 54.0893 31.7077C54.4789 31.5214 54.8213 31.2513 55.0915 30.9172L55.7849 31.5846C55.4339 31.9991 54.992 32.3293 54.4926 32.55C53.9743 32.7849 53.4103 32.9049 52.84 32.9014ZM57.5095 25.414V32.7413H56.5549V25.414H57.5095ZM58.329 30.2321C58.3186 29.8809 58.3785 29.5311 58.5052 29.2029C58.6319 28.8746 58.823 28.5742 59.0674 28.3191C59.3094 28.0714 59.6009 27.8762 59.9234 27.746C60.2459 27.6158 60.5923 27.5534 60.9406 27.5628C61.2876 27.553 61.6328 27.6152 61.9539 27.7455C62.275 27.8758 62.5649 28.0712 62.8048 28.3191C63.0517 28.5727 63.2447 28.8727 63.3723 29.2013C63.4999 29.5298 63.5596 29.8804 63.5477 30.2321C63.5608 30.584 63.5018 30.9348 63.3741 31.2636C63.2464 31.5924 63.0528 31.8922 62.8048 32.1451C62.5656 32.3939 62.2758 32.5899 61.9546 32.7203C61.6333 32.8506 61.2877 32.9123 60.9406 32.9014C60.5922 32.9119 60.2454 32.85 59.9228 32.7197C59.6001 32.5895 59.3087 32.3937 59.0674 32.1451C58.823 31.8899 58.6319 31.5896 58.5052 31.2613C58.3785 30.9331 58.3186 30.5833 58.329 30.2321ZM59.2836 30.2321C59.2617 30.7132 59.4332 31.1834 59.7609 31.5401C59.9124 31.699 60.0953 31.8256 60.2981 31.9121C60.501 31.9986 60.7196 32.0433 60.9406 32.0433C61.1616 32.0433 61.3802 31.9986 61.5831 31.9121C61.786 31.8256 61.9688 31.699 62.1204 31.5401C62.448 31.1834 62.6196 30.7132 62.5977 30.2321C62.6186 29.7538 62.447 29.2867 62.1204 28.933C61.9702 28.7718 61.7879 28.6431 61.5848 28.555C61.3817 28.467 61.1624 28.4215 60.9406 28.4215C60.7189 28.4215 60.4995 28.467 60.2964 28.555C60.0934 28.6431 59.911 28.7718 59.7609 28.933C59.4342 29.2867 59.2626 29.7538 59.2836 30.2321ZM68.816 32.7413H67.9155V32.0428H67.8705C67.7095 32.3039 67.4789 32.5163 67.204 32.6567C66.9184 32.8167 66.5958 32.901 66.2675 32.9014C66.0042 32.9183 65.7402 32.8802 65.4928 32.7898C65.2453 32.6994 65.0199 32.5585 64.8311 32.3765C64.4743 31.9595 64.2951 31.422 64.3312 30.8772V27.7318H65.2813V30.8193C65.2615 30.9865 65.2804 31.1559 65.3368 31.3148C65.3931 31.4736 65.4853 31.6177 65.6064 31.736C65.7275 31.8544 65.8743 31.9439 66.0356 31.9978C66.197 32.0518 66.3687 32.0687 66.5376 32.0472C66.72 32.0504 66.9006 32.0118 67.0654 31.9347C67.2302 31.8575 67.3747 31.7438 67.4877 31.6023C67.7446 31.2967 67.8805 30.9095 67.8705 30.5124V27.7318H68.8251L68.816 32.7413ZM72.0401 32.9014C71.716 32.9013 71.3957 32.8321 71.1012 32.6985C70.8067 32.5649 70.5448 32.3701 70.3335 32.1273C69.8605 31.6077 69.6032 30.9309 69.613 30.2321C69.5976 29.5369 69.8485 28.8616 70.3155 28.3413C70.5252 28.0963 70.7866 27.8997 71.0814 27.7652C71.3763 27.6307 71.6973 27.5616 72.0221 27.5628C72.3772 27.5568 72.7284 27.6378 73.0442 27.7986C73.3335 27.9395 73.5792 28.1546 73.7556 28.4214H73.7962L73.7737 27.7318V25.414H74.7237V32.7413H73.8232V32.0428H73.7827C73.6062 32.3096 73.3605 32.5247 73.0712 32.6656C72.7527 32.8278 72.3983 32.9088 72.0401 32.9014ZM72.1977 32.0428C72.415 32.0497 72.6311 32.0081 72.8299 31.9211C73.0287 31.834 73.2051 31.7038 73.3459 31.5401C73.6608 31.1776 73.8221 30.7091 73.7962 30.2321C73.8179 29.7584 73.657 29.2941 73.3459 28.933C73.2055 28.7682 73.0295 28.6366 72.8307 28.548C72.632 28.4595 72.4156 28.4162 72.1977 28.4214C71.98 28.4181 71.7642 28.4622 71.5658 28.5506C71.3673 28.6391 71.191 28.7696 71.0494 28.933C70.7383 29.2941 70.5774 29.7584 70.5992 30.2321C70.5742 30.7063 70.7355 31.1717 71.0494 31.5312C71.191 31.6946 71.3673 31.8251 71.5658 31.9135C71.7642 32.002 71.98 32.0461 72.1977 32.0428Z" fill="white"/>
<path d="M16.696 32.9015C15.5756 32.9052 14.4988 32.4725 13.6989 31.6972C12.8991 30.922 12.4406 29.8665 12.4229 28.7596C12.4406 27.6527 12.8991 26.5973 13.6989 25.822C14.4988 25.0468 15.5756 24.6141 16.696 24.6177C17.2299 24.609 17.7602 24.7056 18.2559 24.9019C18.7515 25.0982 19.2025 25.3903 19.5823 25.7611L18.7673 26.5574C18.2116 26.0288 17.4674 25.7378 16.696 25.7478C16.2966 25.7465 15.901 25.8238 15.5321 25.9751C15.1632 26.1264 14.8284 26.3486 14.5473 26.6289C14.2661 26.9091 14.0442 27.2419 13.8944 27.6077C13.7445 27.9735 13.6699 28.365 13.6746 28.7596C13.6699 29.1542 13.7445 29.5458 13.8944 29.9116C14.0442 30.2774 14.2661 30.6101 14.5473 30.8904C14.8284 31.1707 15.1632 31.3929 15.5321 31.5442C15.901 31.6955 16.2966 31.7727 16.696 31.7715C17.0895 31.7875 17.4819 31.7217 17.848 31.5784C18.2141 31.4351 18.5457 31.2174 18.8214 30.9396C19.1888 30.548 19.4096 30.0441 19.4472 29.5115H16.696V28.3859H20.5685C20.6107 28.6193 20.6303 28.8562 20.627 29.0933C20.6575 30.0696 20.2985 31.0187 19.6274 31.7359C19.2497 32.1236 18.7932 32.4279 18.288 32.6288C17.7828 32.8297 17.2402 32.9226 16.696 32.9015Z" fill="#4285F4"/>
<path d="M26.6152 30.2315C26.63 30.5874 26.5718 30.9425 26.4441 31.2756C26.3165 31.6087 26.122 31.9128 25.8724 32.1698C25.6228 32.4268 25.3232 32.6312 24.9916 32.7709C24.66 32.9105 24.3032 32.9825 23.9427 32.9825C23.5823 32.9825 23.2255 32.9105 22.8939 32.7709C22.5623 32.6312 22.2627 32.4268 22.0131 32.1698C21.7634 31.9128 21.569 31.6087 21.4413 31.2756C21.3137 30.9425 21.2555 30.5874 21.2703 30.2315C21.2555 29.8756 21.3137 29.5205 21.4413 29.1874C21.569 28.8543 21.7634 28.5502 22.0131 28.2932C22.2627 28.0362 22.5623 27.8318 22.8939 27.6921C23.2255 27.5525 23.5823 27.4805 23.9427 27.4805C24.3032 27.4805 24.66 27.5525 24.9916 27.6921C25.3232 27.8318 25.6228 28.0362 25.8724 28.2932C26.122 28.5502 26.3165 28.8543 26.4441 29.1874C26.5718 29.5205 26.63 29.8756 26.6152 30.2315ZM25.4444 30.2315C25.4643 30.0248 25.4402 29.8163 25.3738 29.6194C25.3074 29.4225 25.2 29.2414 25.0586 29.0878C24.9173 28.9342 24.745 28.8115 24.5528 28.7276C24.3607 28.6436 24.1529 28.6003 23.9427 28.6003C23.7326 28.6003 23.5248 28.6436 23.3327 28.7276C23.1405 28.8115 22.9682 28.9342 22.8268 29.0878C22.6855 29.2414 22.5781 29.4225 22.5117 29.6194C22.4452 29.8163 22.4212 30.0248 22.4411 30.2315C22.4212 30.4382 22.4452 30.6467 22.5117 30.8436C22.5781 31.0406 22.6855 31.2216 22.8268 31.3752C22.9682 31.5288 23.1405 31.6515 23.3327 31.7354C23.5248 31.8194 23.7326 31.8628 23.9427 31.8628C24.1529 31.8628 24.3607 31.8194 24.5528 31.7354C24.745 31.6515 24.9173 31.5288 25.0586 31.3752C25.2 31.2216 25.3074 31.0406 25.3738 30.8436C25.4402 30.6467 25.4643 30.4382 25.4444 30.2315Z" fill="#EA4335"/>
<path d="M32.6122 30.2315C32.627 30.5874 32.5689 30.9425 32.4412 31.2756C32.3136 31.6087 32.1191 31.9128 31.8695 32.1698C31.6199 32.4268 31.3203 32.6312 30.9887 32.7709C30.6571 32.9105 30.3003 32.9825 29.9398 32.9825C29.5793 32.9825 29.2226 32.9105 28.891 32.7709C28.5594 32.6312 28.2597 32.4268 28.0101 32.1698C27.7605 31.9128 27.566 31.6087 27.4384 31.2756C27.3108 30.9425 27.2526 30.5874 27.2674 30.2315C27.2526 29.8756 27.3108 29.5205 27.4384 29.1874C27.566 28.8543 27.7605 28.5502 28.0101 28.2932C28.2597 28.0362 28.5594 27.8318 28.891 27.6921C29.2226 27.5525 29.5793 27.4805 29.9398 27.4805C30.3003 27.4805 30.6571 27.5525 30.9887 27.6921C31.3203 27.8318 31.6199 28.0362 31.8695 28.2932C32.1191 28.5502 32.3136 28.8543 32.4412 29.1874C32.5689 29.5205 32.627 29.8756 32.6122 30.2315ZM31.4415 30.2315C31.4576 30.0267 31.4306 29.8208 31.3623 29.6268C31.294 29.4328 31.1858 29.2548 31.0446 29.1041C30.9034 28.9533 30.7321 28.833 30.5416 28.7508C30.3511 28.6685 30.1455 28.6261 29.9376 28.6261C29.7297 28.6261 29.524 28.6685 29.3335 28.7508C29.143 28.833 28.9717 28.9533 28.8305 29.1041C28.6893 29.2548 28.5811 29.4328 28.5128 29.6268C28.4445 29.8208 28.4176 30.0267 28.4336 30.2315C28.4176 30.4363 28.4445 30.6422 28.5128 30.8362C28.5811 31.0302 28.6893 31.2082 28.8305 31.3589C28.9717 31.5097 29.143 31.63 29.3335 31.7122C29.524 31.7945 29.7297 31.8369 29.9376 31.8369C30.1455 31.8369 30.3511 31.7945 30.5416 31.7122C30.7321 31.63 30.9034 31.5097 31.0446 31.3589C31.1858 31.2082 31.294 31.0302 31.3623 30.8362C31.4306 30.6422 31.4576 30.4363 31.4415 30.2315Z" fill="#FBBC04"/>
<path d="M38.4505 27.7309V32.5179C38.4505 34.4843 37.2663 35.294 35.8704 35.294C35.3567 35.2968 34.8538 35.1485 34.4256 34.8681C33.9974 34.5876 33.6634 34.1877 33.4659 33.7191L34.5061 33.2742C34.6109 33.547 34.7951 33.783 35.0355 33.9524C35.2759 34.1218 35.5617 34.2171 35.8569 34.2263C36.7575 34.2263 37.3068 33.679 37.3068 32.6603V32.2776H37.2798C37.0997 32.4785 36.8775 32.6382 36.6287 32.7457C36.3799 32.8533 36.1104 32.9061 35.8389 32.9005C35.1224 32.9005 34.4352 32.6193 33.9285 32.1187C33.4218 31.6181 33.1372 30.9391 33.1372 30.2312C33.1372 29.5232 33.4218 28.8443 33.9285 28.3437C34.4352 27.8431 35.1224 27.5618 35.8389 27.5618C36.1095 27.5569 36.378 27.6091 36.6265 27.715C36.875 27.8209 37.0977 27.978 37.2798 28.1758H37.3203V27.7309H38.4505ZM37.4014 30.249C37.4179 30.0473 37.3932 29.8443 37.3287 29.6523C37.2642 29.4602 37.1612 29.2829 37.026 29.131C36.8907 28.9791 36.7258 28.8556 36.5412 28.7679C36.3566 28.6802 36.1561 28.6302 35.9515 28.6207C35.7437 28.6281 35.5394 28.6763 35.3507 28.7624C35.1619 28.8486 34.9924 28.971 34.852 29.1226C34.7116 29.2741 34.6031 29.4518 34.5329 29.6451C34.4627 29.8385 34.4321 30.0438 34.443 30.249C34.4334 30.4527 34.4649 30.6564 34.5358 30.848C34.6068 31.0395 34.7156 31.2152 34.8561 31.3648C34.9965 31.5143 35.1657 31.6347 35.3538 31.7189C35.5419 31.803 35.7451 31.8493 35.9515 31.855C36.1552 31.8479 36.3554 31.8 36.54 31.7142C36.7245 31.6285 36.8895 31.5066 37.025 31.3561C37.1605 31.2056 37.2637 31.0295 37.3284 30.8384C37.3931 30.6473 37.4179 30.4453 37.4014 30.2445V30.249Z" fill="#4285F4"/>
<path d="M40.5352 24.9023V32.7413H39.3464V24.9023H40.5352Z" fill="#34A853"/>
<path d="M45.2182 31.1129L46.1458 31.7358C45.8981 32.1009 45.563 32.4 45.1703 32.6065C44.7775 32.8129 44.3392 32.9203 43.8944 32.9192C43.5405 32.9242 43.1892 32.8582 42.8619 32.7252C42.5346 32.5922 42.2379 32.3949 41.99 32.1454C41.7421 31.8959 41.5479 31.5992 41.4194 31.2734C41.2909 30.9476 41.2306 30.5994 41.2422 30.2499C41.1895 29.649 41.3624 29.05 41.728 28.567C42.0936 28.0841 42.6262 27.7509 43.2245 27.631C43.8227 27.5112 44.4447 27.613 44.9718 27.9171C45.4989 28.2212 45.8944 28.7063 46.0827 29.28L46.2043 29.587L42.602 31.0596C42.7143 31.3088 42.8995 31.5192 43.1339 31.6635C43.3682 31.8078 43.6409 31.8795 43.9169 31.8693C44.1811 31.8633 44.4393 31.7907 44.6671 31.6584C44.8949 31.526 45.0846 31.3382 45.2182 31.1129ZM42.3769 30.152L44.7994 29.1643C44.7025 28.9872 44.5556 28.8416 44.3765 28.7452C44.1975 28.6489 43.994 28.6059 43.7908 28.6216C43.5962 28.6301 43.4052 28.6766 43.2288 28.7581C43.0523 28.8397 42.8939 28.9549 42.7626 29.097C42.6312 29.2392 42.5296 29.4055 42.4634 29.5866C42.3972 29.7676 42.3678 29.9597 42.3769 30.152Z" fill="#EA4335"/>
</g>
<defs>
<clipPath id="clip0_99_6212">
<rect width="62.2977" height="10.6764" fill="white" transform="translate(12.429 24.6172)"/>
</clipPath>
</defs>
</svg>
