<svg width="88" height="50" viewBox="0 0 88 50" fill="none" xmlns="http://www.w3.org/2000/svg">
<g opacity="0.9">
<g opacity="0.5">
<rect x="0.799561" y="0.799805" width="85.556" height="47.6331" rx="1.83211" fill="#CDCED6"/>
<rect x="0.399774" y="0.400018" width="86.3555" height="48.4326" rx="2.2319" stroke="white" stroke-opacity="0.3" stroke-width="0.799573"/>
</g>
</g>
<path d="M64.5268 27.2556H63.7878V28.5387H62.9269V27.2556H60.4338V26.5734L62.9188 22.716H63.7878V26.5247H64.5268V27.2556ZM62.9269 24.9493C62.9269 24.8193 62.9269 24.6948 62.9269 24.5757C62.9324 24.4566 62.9378 24.3429 62.9432 24.2346C62.9486 24.1209 62.9513 24.0181 62.9513 23.926C62.9567 23.8286 62.9621 23.742 62.9676 23.6662H62.9351C62.8918 23.7744 62.8403 23.8854 62.7808 23.9991C62.7266 24.1128 62.6725 24.213 62.6184 24.2996L61.254 26.5247H62.9269V24.9493Z" fill="#80838D"/>
<path d="M65.1607 28.0596C65.1607 27.8484 65.2121 27.6995 65.315 27.6129C65.4233 27.5263 65.5559 27.483 65.7129 27.483C65.8645 27.483 65.9944 27.5263 66.1027 27.6129C66.2164 27.6995 66.2733 27.8484 66.2733 28.0596C66.2733 28.2707 66.2164 28.4223 66.1027 28.5143C65.9944 28.6064 65.8645 28.6524 65.7129 28.6524C65.5559 28.6524 65.4233 28.6064 65.315 28.5143C65.2121 28.4223 65.1607 28.2707 65.1607 28.0596Z" fill="#80838D"/>
<path d="M68.9596 22.6592C69.2844 22.6592 69.5713 22.7133 69.8204 22.8216C70.0748 22.9245 70.2724 23.0788 70.4132 23.2845C70.5594 23.4902 70.6325 23.7474 70.6325 24.056C70.6325 24.2888 70.5864 24.4918 70.4944 24.665C70.4078 24.8383 70.286 24.9926 70.129 25.1279C69.9774 25.2579 69.8095 25.3716 69.6255 25.469C69.8366 25.5827 70.0315 25.7126 70.2102 25.8588C70.3888 25.9996 70.5323 26.1647 70.6406 26.3542C70.7543 26.5437 70.8111 26.7711 70.8111 27.0363C70.8111 27.3612 70.7353 27.6427 70.5837 27.8809C70.4376 28.1137 70.2264 28.2951 69.9503 28.425C69.6742 28.5549 69.3467 28.6199 68.9677 28.6199C68.5616 28.6199 68.2178 28.5576 67.9363 28.4331C67.6602 28.3086 67.4518 28.1327 67.311 27.9053C67.1703 27.6725 67.0999 27.3909 67.0999 27.0607C67.0999 26.7954 67.1486 26.5653 67.2461 26.3704C67.3489 26.1755 67.4816 26.0077 67.644 25.8669C67.8118 25.7262 67.9959 25.6071 68.1962 25.5096C68.0229 25.4013 67.8659 25.2795 67.7252 25.1442C67.5844 25.0034 67.4734 24.8437 67.3922 24.665C67.3164 24.4864 67.2785 24.2806 67.2785 24.0479C67.2785 23.7447 67.3516 23.4929 67.4978 23.2926C67.644 23.0869 67.8443 22.9299 68.0987 22.8216C68.3532 22.7133 68.6401 22.6592 68.9596 22.6592ZM67.9444 27.0445C67.9444 27.3097 68.0284 27.529 68.1962 27.7022C68.364 27.8701 68.6158 27.954 68.9514 27.954C69.1788 27.954 69.3656 27.9161 69.5118 27.8403C69.658 27.7591 69.7689 27.6508 69.8447 27.5155C69.9259 27.3747 69.9665 27.215 69.9665 27.0363C69.9665 26.8577 69.9232 26.7007 69.8366 26.5653C69.75 26.43 69.6309 26.3109 69.4793 26.208C69.3331 26.0997 69.1653 26.0023 68.9758 25.9157L68.8702 25.8669C68.6753 25.959 68.5075 26.0618 68.3667 26.1755C68.2314 26.2892 68.1258 26.4164 68.05 26.5572C67.9796 26.698 67.9444 26.8604 67.9444 27.0445ZM68.9433 23.3332C68.7051 23.3332 68.5075 23.3982 68.3505 23.5281C68.1989 23.658 68.1231 23.8475 68.1231 24.0966C68.1231 24.2752 68.161 24.4268 68.2368 24.5513C68.318 24.6759 68.4209 24.7841 68.5454 24.8762C68.6753 24.9628 68.8161 25.0467 68.9677 25.1279C69.1193 25.0521 69.2546 24.9709 69.3737 24.8843C69.4982 24.7923 69.5957 24.684 69.6661 24.5595C69.7419 24.4295 69.7798 24.2752 69.7798 24.0966C69.7798 23.8475 69.7013 23.658 69.5443 23.5281C69.3927 23.3982 69.1924 23.3332 68.9433 23.3332Z" fill="#80838D"/>
<path d="M13.8753 7.39453C14.2374 7.39453 14.5364 7.44296 14.7722 7.5398C15.008 7.63665 15.1827 7.78193 15.2964 7.97563C15.4143 8.16511 15.4733 8.40513 15.4733 8.69568C15.4733 8.92727 15.4333 9.12308 15.3533 9.28309C15.2775 9.43889 15.1764 9.56732 15.0501 9.66838C14.928 9.76523 14.7954 9.84313 14.6522 9.90208L15.846 11.9043H15.0501L14.0458 10.0789H13.3574V11.9043H12.6562V7.39453H13.8753ZM13.8437 7.97563H13.3574V9.51047H13.8563C14.0627 9.51047 14.2311 9.481 14.3616 9.42204C14.4964 9.36309 14.5953 9.27467 14.6585 9.15676C14.7259 9.03886 14.7596 8.89359 14.7596 8.72094C14.7596 8.53988 14.7259 8.39671 14.6585 8.29144C14.5953 8.18196 14.4943 8.10195 14.3553 8.05142C14.2206 8.00089 14.05 7.97563 13.8437 7.97563Z" fill="#80838D"/>
<path d="M17.6626 8.43671C18.0626 8.43671 18.3637 8.53145 18.5658 8.72094C18.7721 8.90622 18.8753 9.19887 18.8753 9.5989V11.9043H18.3889L18.2563 11.4306H18.231C18.1342 11.5527 18.0373 11.6538 17.9405 11.7338C17.8478 11.8138 17.7384 11.8727 17.612 11.9106C17.4899 11.9485 17.3383 11.9675 17.1573 11.9675C16.9678 11.9675 16.7972 11.9317 16.6456 11.8601C16.4941 11.7843 16.374 11.6706 16.2856 11.519C16.1972 11.3632 16.153 11.1695 16.153 10.9379C16.153 10.5927 16.2751 10.3295 16.5193 10.1484C16.7678 9.96735 17.1446 9.86839 17.6499 9.85155L18.1931 9.8326V9.64311C18.1931 9.39046 18.1405 9.21361 18.0352 9.11255C17.9342 9.01149 17.791 8.96096 17.6057 8.96096C17.4499 8.96096 17.2962 8.98622 17.1446 9.03675C16.993 9.08728 16.8457 9.14834 16.7025 9.21992L16.4941 8.73357C16.6499 8.64936 16.8267 8.57988 17.0246 8.52514C17.2267 8.46619 17.4394 8.43671 17.6626 8.43671ZM17.7826 10.2811C17.4373 10.2979 17.1973 10.3632 17.0625 10.4769C16.9278 10.5863 16.8604 10.7421 16.8604 10.9443C16.8604 11.1211 16.9067 11.2495 16.9994 11.3295C17.0962 11.4096 17.2204 11.4496 17.372 11.4496C17.6036 11.4496 17.7973 11.3759 17.9531 11.2285C18.1131 11.0811 18.1931 10.86 18.1931 10.5653V10.2684L17.7826 10.2811Z" fill="#80838D"/>
<path d="M21.0223 11.4243C21.1107 11.4243 21.1971 11.4159 21.2813 11.399C21.3655 11.3822 21.4392 11.3632 21.5023 11.3422V11.8475C21.4308 11.8812 21.336 11.9085 21.2181 11.9296C21.1044 11.9549 20.9844 11.9675 20.8581 11.9675C20.6812 11.9675 20.5191 11.9359 20.3717 11.8727C20.2244 11.8096 20.1065 11.7001 20.018 11.5443C19.9296 11.3885 19.8854 11.1716 19.8854 10.8937V9.01149H19.4496V8.70831L19.917 8.45566L20.1507 7.73561H20.5739V8.49987H21.4771V9.01149H20.5739V10.8811C20.5739 11.0664 20.616 11.2032 20.7002 11.2917C20.7844 11.3801 20.8918 11.4243 21.0223 11.4243Z" fill="#80838D"/>
<path d="M23.4237 8.43671C23.7058 8.43671 23.95 8.49987 24.1563 8.6262C24.3627 8.74831 24.5206 8.92517 24.6301 9.15676C24.7438 9.38836 24.8006 9.66206 24.8006 9.97787V10.3442H22.6594C22.6678 10.6937 22.752 10.9611 22.912 11.1464C23.0721 11.3317 23.2973 11.4243 23.5879 11.4243C23.7942 11.4243 23.9774 11.4053 24.1374 11.3674C24.3016 11.3253 24.4679 11.2643 24.6364 11.1843V11.7401C24.4764 11.8159 24.3121 11.8727 24.1437 11.9106C23.9795 11.9485 23.7795 11.9675 23.5437 11.9675C23.2363 11.9675 22.9626 11.9022 22.7226 11.7717C22.4825 11.6412 22.2952 11.4475 22.1604 11.1906C22.0257 10.9295 21.9583 10.6095 21.9583 10.2305C21.9583 9.84734 22.0194 9.5231 22.1415 9.25782C22.2636 8.99254 22.4341 8.79042 22.6531 8.65146C22.8763 8.5083 23.1331 8.43671 23.4237 8.43671ZM23.4237 8.95464C23.2089 8.95464 23.0363 9.03254 22.9057 9.18834C22.7752 9.34414 22.6994 9.56521 22.6783 9.85155H24.1248C24.1248 9.67469 24.0995 9.51889 24.049 9.38415C23.9984 9.2494 23.9205 9.14413 23.8153 9.06834C23.7142 8.99254 23.5837 8.95464 23.4237 8.95464Z" fill="#80838D"/>
<path d="M29.968 10.1989C29.968 10.4811 29.9322 10.7316 29.8606 10.9506C29.789 11.1695 29.6859 11.3548 29.5511 11.5064C29.4206 11.658 29.2606 11.7738 29.0711 11.8538C28.8816 11.9296 28.6689 11.9675 28.4331 11.9675C28.2184 11.9675 28.0184 11.9296 27.8331 11.8538C27.6478 11.7738 27.4878 11.658 27.3531 11.5064C27.2183 11.3548 27.113 11.1695 27.0372 10.9506C26.9657 10.7316 26.9299 10.479 26.9299 10.1926C26.9299 9.81786 26.9909 9.49994 27.113 9.23887C27.2352 8.9778 27.4099 8.77989 27.6373 8.64515C27.8689 8.50619 28.1426 8.43671 28.4584 8.43671C28.7532 8.43671 29.0142 8.50619 29.2416 8.64515C29.469 8.77989 29.6458 8.9778 29.7722 9.23887C29.9027 9.49994 29.968 9.81997 29.968 10.1989ZM27.6373 10.1989C27.6373 10.4516 27.6647 10.6706 27.7194 10.8558C27.7783 11.0369 27.8668 11.1759 27.9847 11.2727C28.1068 11.3696 28.2605 11.418 28.4458 11.418C28.6353 11.418 28.7889 11.3696 28.9069 11.2727C29.029 11.1759 29.1174 11.0369 29.1721 10.8558C29.2311 10.6706 29.2606 10.4516 29.2606 10.1989C29.2606 9.93787 29.2311 9.71891 29.1721 9.54205C29.1132 9.3652 29.0248 9.23045 28.9069 9.13781C28.7889 9.04096 28.6331 8.99254 28.4394 8.99254C28.1573 8.99254 27.9531 9.09781 27.8268 9.30835C27.7004 9.51889 27.6373 9.81576 27.6373 10.1989Z" fill="#80838D"/>
<path d="M32.4135 8.43671C32.784 8.43671 33.0682 8.53567 33.2661 8.73357C33.4683 8.93148 33.5693 9.2494 33.5693 9.68733V11.9043H32.8872V9.78207C32.8872 9.51679 32.8345 9.31888 32.7293 9.18834C32.6282 9.0536 32.4703 8.98622 32.2555 8.98622C31.9397 8.98622 31.7229 9.08939 31.605 9.29572C31.4871 9.50205 31.4281 9.79891 31.4281 10.1863V11.9043H30.746V8.49987H31.2828L31.3776 8.95464H31.4155C31.4871 8.83674 31.5734 8.73989 31.6744 8.6641C31.7755 8.5883 31.8892 8.53145 32.0155 8.49356C32.1419 8.45566 32.2745 8.43671 32.4135 8.43671Z" fill="#80838D"/>
<path d="M24.71 15.6602H26.7558V28.2696H24.71V15.6602Z" fill="#60646C"/>
<path d="M33.8706 24.2743C33.8706 26.228 32.2695 26.4056 31.7358 26.4056C30.4905 26.4056 30.3127 25.2511 30.3127 24.6295V19.7451H28.2668V24.5407C28.2668 25.6952 28.6226 26.7609 29.3342 27.3825C29.9569 28.0041 30.7574 28.2706 31.7358 28.2706C32.4474 28.2706 33.3369 28.093 33.8706 27.5601V28.2706H35.9164V19.7451H33.8706V24.2743Z" fill="#60646C"/>
<path d="M39.9117 16.6377H37.8659V19.7457H36.3538V21.6992H37.8659V28.2704H39.9117V21.6992H41.4238V19.7457H39.9117V16.6377Z" fill="#60646C"/>
<path d="M47.8344 25.696C47.3896 26.0513 46.767 26.3177 46.1444 26.3177C44.7212 26.3177 43.7427 25.252 43.7427 23.8311C43.7427 22.4102 44.7212 21.4333 46.1444 21.4333C46.767 21.4333 47.3896 21.6109 47.8344 22.0549L48.1012 22.3214L49.5244 20.9893L49.1686 20.7228C48.3681 20.0124 47.3007 19.5684 46.1444 19.5684C43.6538 19.5684 41.7859 21.4333 41.7859 23.9199C41.7859 26.4065 43.6538 28.2714 46.1444 28.2714C47.3007 28.2714 48.3681 27.8274 49.1686 27.1169L49.5244 26.8505L48.1012 25.4296L47.8344 25.696Z" fill="#60646C"/>
<path d="M56.7291 20.4553C56.1064 19.8337 55.4838 19.5673 54.5054 19.5673C53.7938 19.5673 53.0822 19.7449 52.5485 20.2777V15.6602H50.5027V28.2696H52.5485V23.5633C52.5485 21.6097 53.8827 21.4321 54.4164 21.4321C55.6617 21.4321 55.5727 22.5865 55.5727 23.2081V28.1808H57.6185V23.2969C57.6185 22.1425 57.3517 21.0769 56.7291 20.4553Z" fill="#60646C"/>
<path d="M46.0572 25.3408C46.8432 25.3408 47.4804 24.7047 47.4804 23.9199C47.4804 23.1352 46.8432 22.499 46.0572 22.499C45.2712 22.499 44.634 23.1352 44.634 23.9199C44.634 24.7047 45.2712 25.3408 46.0572 25.3408Z" fill="#EF4335"/>
<path d="M21.8617 25.1622C21.1501 25.8726 20.0827 26.3166 18.9264 26.3166C16.7027 26.3166 15.1016 24.5406 15.1016 22.143C15.1016 19.7455 16.7027 17.9695 19.0154 17.9695C20.0827 17.9695 21.1501 18.4135 21.9506 19.2127L22.2175 19.4791L23.5517 18.1471L23.2849 17.8807C22.1285 16.7263 20.6164 16.1047 19.0154 16.1047C15.6353 16.0159 13.1448 18.6799 13.1448 22.143C13.1448 25.6062 15.6353 28.2702 18.9264 28.2702C20.5275 28.2702 22.1285 27.6486 23.1959 26.4942L23.4628 26.2278L22.1285 24.8958L21.8617 25.1622Z" fill="#60646C"/>
<path d="M28.0593 33.3853L27.2385 35.053C27.1967 35.1379 27.135 35.2113 27.0587 35.2669C26.9823 35.3225 26.8937 35.3587 26.8003 35.3723L24.9656 35.6398C24.8796 35.6523 24.7988 35.6887 24.7324 35.7449C24.6659 35.801 24.6165 35.8747 24.5897 35.9576C24.5628 36.0405 24.5596 36.1292 24.5805 36.2138C24.6014 36.2984 24.6454 36.3755 24.7077 36.4362L26.0358 37.7345C26.1032 37.8005 26.1537 37.8819 26.1828 37.9718C26.212 38.0616 26.2189 38.1572 26.2031 38.2504L25.8896 40.0837C25.875 40.1695 25.8847 40.2577 25.9175 40.3383C25.9503 40.4189 26.0049 40.4887 26.0752 40.5398C26.1454 40.5909 26.2286 40.6213 26.3151 40.6275C26.4017 40.6337 26.4883 40.6155 26.5651 40.575L28.2063 39.7095C28.2898 39.6655 28.3827 39.6425 28.4771 39.6425C28.5714 39.6425 28.6643 39.6655 28.7478 39.7095L30.389 40.575C30.4658 40.6155 30.5524 40.6337 30.639 40.6275C30.7255 40.6213 30.8087 40.5909 30.8789 40.5398C30.9492 40.4887 31.0038 40.4189 31.0366 40.3383C31.0694 40.2577 31.0791 40.1695 31.0645 40.0837L30.751 38.2504C30.7352 38.1572 30.7421 38.0616 30.7712 37.9718C30.8004 37.8819 30.8508 37.8005 30.9183 37.7345L32.2464 36.4362C32.3087 36.3755 32.3527 36.2984 32.3736 36.2138C32.3945 36.1292 32.3913 36.0405 32.3644 35.9576C32.3376 35.8747 32.2882 35.801 32.2217 35.7449C32.1553 35.6887 32.0745 35.6523 31.9885 35.6398L30.1531 35.3723C30.0597 35.3587 29.971 35.3225 29.8947 35.2669C29.8183 35.2113 29.7566 35.1379 29.7149 35.053L28.8941 33.3853C28.8556 33.3072 28.7962 33.2414 28.7224 33.1954C28.6487 33.1494 28.5635 33.125 28.4767 33.125C28.3898 33.125 28.3047 33.1494 28.2309 33.1954C28.1572 33.2414 28.0977 33.3072 28.0593 33.3853Z" fill="#F59E0B"/>
<path d="M39.4604 33.3845L38.6396 35.0522C38.5979 35.1371 38.5361 35.2105 38.4598 35.2662C38.3835 35.3218 38.2948 35.358 38.2014 35.3716L36.366 35.6391C36.28 35.6516 36.1992 35.688 36.1328 35.7441C36.0663 35.8003 36.0169 35.874 35.99 35.9568C35.9632 36.0397 35.96 36.1285 35.9809 36.2131C36.0018 36.2977 36.0458 36.3747 36.1081 36.4355L37.4362 37.7338C37.5036 37.7997 37.5541 37.8812 37.5832 37.971C37.6124 38.0609 37.6193 38.1565 37.6035 38.2496L37.29 40.0829C37.2754 40.1687 37.2851 40.2569 37.3179 40.3375C37.3507 40.4181 37.4053 40.4879 37.4755 40.539C37.5458 40.5901 37.6289 40.6205 37.7155 40.6267C37.8021 40.6329 37.8887 40.6148 37.9655 40.5742L39.6067 39.7088C39.6902 39.6648 39.7831 39.6418 39.8774 39.6418C39.9718 39.6418 40.0647 39.6648 40.1482 39.7088L41.7894 40.5742C41.8662 40.6148 41.9528 40.6329 42.0394 40.6267C42.1259 40.6205 42.2091 40.5901 42.2793 40.539C42.3496 40.4879 42.4042 40.4181 42.437 40.3375C42.4698 40.2569 42.4795 40.1687 42.4649 40.0829L42.1514 38.2496C42.1355 38.1565 42.1425 38.0609 42.1716 37.971C42.2008 37.8811 42.2512 37.7997 42.3187 37.7338L43.6468 36.4355C43.7091 36.3747 43.7531 36.2977 43.774 36.2131C43.7948 36.1285 43.7917 36.0397 43.7648 35.9568C43.738 35.874 43.6885 35.8003 43.6221 35.7441C43.5557 35.688 43.4749 35.6516 43.3889 35.6391L41.5535 35.3716C41.4601 35.358 41.3714 35.3218 41.2951 35.2662C41.2187 35.2105 41.157 35.1371 41.1153 35.0522L40.2945 33.3845C40.256 33.3066 40.1965 33.241 40.1228 33.1952C40.0492 33.1493 39.9642 33.125 39.8774 33.125C39.7907 33.125 39.7057 33.1493 39.632 33.1952C39.5584 33.241 39.4989 33.3066 39.4604 33.3845Z" fill="#F59E0B"/>
<path d="M50.8823 33.3833L50.0615 35.051C50.0197 35.1359 49.958 35.2093 49.8817 35.265C49.8053 35.3206 49.7167 35.3568 49.6233 35.3704L47.7881 35.6379C47.7021 35.6504 47.6213 35.6868 47.5549 35.7429C47.4885 35.7991 47.439 35.8728 47.4122 35.9556C47.3853 36.0385 47.3822 36.1273 47.403 36.2119C47.4239 36.2965 47.4679 36.3735 47.5302 36.4343L48.8583 37.7326C48.9257 37.7985 48.9762 37.88 49.0053 37.9698C49.0345 38.0597 49.0414 38.1553 49.0256 38.2484L48.7121 40.0817C48.6975 40.1675 48.7072 40.2557 48.74 40.3363C48.7728 40.4169 48.8274 40.4867 48.8977 40.5378C48.9679 40.5889 49.0511 40.6193 49.1376 40.6255C49.2242 40.6317 49.3108 40.6136 49.3876 40.573L51.0288 39.7076C51.1123 39.6636 51.2052 39.6406 51.2996 39.6406C51.3939 39.6406 51.4868 39.6636 51.5703 39.7076L53.2115 40.573C53.2883 40.6136 53.3749 40.6317 53.4615 40.6255C53.5481 40.6193 53.6312 40.5889 53.7015 40.5378C53.7717 40.4867 53.8263 40.4169 53.8591 40.3363C53.8919 40.2557 53.9016 40.1675 53.887 40.0817L53.5735 38.2484C53.5577 38.1553 53.5646 38.0597 53.5937 37.9698C53.6229 37.8799 53.6734 37.7985 53.7408 37.7326L55.0689 36.4343C55.1312 36.3735 55.1752 36.2965 55.1961 36.2119C55.217 36.1273 55.2138 36.0385 55.1869 35.9556C55.1601 35.8728 55.1107 35.7991 55.0442 35.7429C54.9778 35.6868 54.897 35.6504 54.811 35.6379L52.9756 35.3704C52.8822 35.3568 52.7935 35.3206 52.7172 35.265C52.6409 35.2093 52.5791 35.1359 52.5374 35.051L51.7171 33.3833C51.6786 33.3052 51.6192 33.2394 51.5454 33.1934C51.4717 33.1474 51.3865 33.123 51.2997 33.123C51.2128 33.123 51.1277 33.1474 51.0539 33.1934C50.9802 33.2394 50.9207 33.3052 50.8823 33.3833Z" fill="#F59E0B"/>
<path d="M63.1194 33.3851L63.9402 35.0528C63.982 35.1377 64.0437 35.2111 64.12 35.2667C64.1964 35.3223 64.2851 35.3585 64.3784 35.3721L66.2136 35.6396C66.2996 35.6521 66.3804 35.6885 66.4468 35.7447C66.5133 35.8008 66.5627 35.8745 66.5895 35.9574C66.6164 36.0403 66.6196 36.129 66.5987 36.2136C66.5778 36.2982 66.5338 36.3753 66.4715 36.436L65.1434 37.7343C65.076 37.8003 65.0255 37.8817 64.9964 37.9716C64.9672 38.0614 64.9603 38.157 64.9761 38.2502L65.2896 40.0835C65.3042 40.1693 65.2945 40.2575 65.2617 40.3381C65.2289 40.4187 65.1743 40.4885 65.104 40.5396C65.0338 40.5907 64.9506 40.6211 64.8641 40.6273C64.7775 40.6335 64.6909 40.6153 64.6141 40.5748L62.9729 39.7093C62.8894 39.6653 62.7965 39.6423 62.7022 39.6423C62.6078 39.6423 62.5149 39.6653 62.4314 39.7093L60.7902 40.5748C60.7134 40.6153 60.6268 40.6335 60.5402 40.6273C60.4537 40.6211 60.3705 40.5907 60.3003 40.5396C60.23 40.4885 60.1754 40.4187 60.1426 40.3381C60.1098 40.2575 60.1001 40.1693 60.1147 40.0835L60.4282 38.2502C60.444 38.157 60.4371 38.0614 60.408 37.9716C60.3788 37.8817 60.3284 37.8003 60.2609 37.7343L58.9328 36.436C58.8705 36.3753 58.8265 36.2982 58.8056 36.2136C58.7847 36.129 58.7879 36.0403 58.8148 35.9574C58.8416 35.8745 58.891 35.8008 58.9575 35.7447C59.0239 35.6885 59.1047 35.6521 59.1907 35.6396L61.0261 35.3721C61.1195 35.3585 61.2082 35.3223 61.2845 35.2667C61.3609 35.2111 61.4226 35.1377 61.4643 35.0528L62.2829 33.3851C62.3212 33.3065 62.3807 33.2403 62.4546 33.1939C62.5285 33.1476 62.614 33.123 62.7012 33.123C62.7884 33.123 62.8738 33.1476 62.9477 33.1939C63.0217 33.2403 63.0812 33.3065 63.1194 33.3851Z" fill="#F59E0B"/>
<path d="M64.6141 40.5761L63.4964 39.9865V34.1514L63.94 35.0529C63.9817 35.1378 64.0434 35.2112 64.1198 35.2668C64.1961 35.3225 64.2848 35.3586 64.3782 35.3722L66.2136 35.6398C66.2996 35.6522 66.3804 35.6886 66.4468 35.7448C66.5133 35.8009 66.5627 35.8746 66.5895 35.9575C66.6164 36.0404 66.6196 36.1291 66.5987 36.2137C66.5778 36.2983 66.5338 36.3754 66.4715 36.4362L65.1434 37.7344C65.076 37.8004 65.0255 37.8818 64.9964 37.9717C64.9672 38.0615 64.9603 38.1571 64.9761 38.2503L65.2896 40.0836C65.3045 40.1695 65.295 40.2578 65.2623 40.3386C65.2296 40.4194 65.175 40.4894 65.1047 40.5407C65.0344 40.592 64.9512 40.6225 64.8644 40.6287C64.7777 40.635 64.691 40.6167 64.6141 40.5761Z" fill="#FDE3AC"/>
<path d="M16.6452 33.3836L15.8244 35.0515C15.7827 35.1364 15.721 35.2098 15.6446 35.2655C15.5683 35.3211 15.4796 35.3573 15.3862 35.3709L13.5508 35.6384C13.4648 35.6509 13.384 35.6873 13.3176 35.7434C13.2511 35.7996 13.2017 35.8733 13.1749 35.9561C13.148 36.039 13.1449 36.1278 13.1657 36.2124C13.1866 36.297 13.2306 36.374 13.2929 36.4348L14.621 37.733C14.6884 37.799 14.7389 37.8804 14.768 37.9703C14.7972 38.0602 14.8041 38.1558 14.7883 38.2489L14.4748 40.0822C14.4602 40.168 14.4699 40.2562 14.5027 40.3368C14.5355 40.4174 14.5901 40.4872 14.6604 40.5383C14.7306 40.5894 14.8138 40.6198 14.9003 40.626C14.9869 40.6322 15.0735 40.614 15.1503 40.5735L16.7915 39.7081C16.875 39.6641 16.9679 39.641 17.0623 39.641C17.1566 39.641 17.2495 39.6641 17.333 39.7081L18.9742 40.5735C19.051 40.614 19.1376 40.6322 19.2242 40.626C19.3108 40.6198 19.3939 40.5894 19.4642 40.5383C19.5344 40.4872 19.589 40.4174 19.6218 40.3368C19.6546 40.2562 19.6643 40.168 19.6497 40.0822L19.3362 38.2489C19.3204 38.1558 19.3273 38.0602 19.3564 37.9703C19.3856 37.8804 19.4361 37.799 19.5035 37.733L20.8316 36.4348C20.8939 36.374 20.9379 36.297 20.9588 36.2124C20.9797 36.1278 20.9765 36.039 20.9496 35.9561C20.9228 35.8733 20.8734 35.7996 20.8069 35.7434C20.7405 35.6873 20.6597 35.6509 20.5737 35.6384L18.7393 35.3706C18.6459 35.357 18.5572 35.3208 18.4809 35.2652C18.4045 35.2096 18.3428 35.1362 18.3011 35.0513L17.4803 33.3836C17.4419 33.3054 17.3824 33.2395 17.3086 33.1935C17.2348 33.1475 17.1496 33.123 17.0627 33.123C16.9758 33.123 16.8907 33.1475 16.8169 33.1935C16.7431 33.2395 16.6836 33.3054 16.6452 33.3836Z" fill="#E2E2E2"/>
<path d="M17.4719 33.3826L18.2928 35.0503C18.3345 35.1352 18.3962 35.2086 18.4726 35.2642C18.5489 35.3198 18.6376 35.356 18.731 35.3696L20.5663 35.6372C20.6523 35.6496 20.7331 35.686 20.7996 35.7422C20.866 35.7983 20.9155 35.872 20.9423 35.9549C20.9692 36.0378 20.9723 36.1265 20.9515 36.2111C20.9306 36.2957 20.8866 36.3728 20.8243 36.4335L19.4962 37.7318C19.4287 37.7978 19.3783 37.8792 19.3491 37.9691C19.32 38.0589 19.313 38.1545 19.3289 38.2477L19.6424 40.081C19.657 40.1668 19.6473 40.255 19.6145 40.3356C19.5817 40.4162 19.5271 40.486 19.4568 40.5371C19.3866 40.5882 19.3034 40.6186 19.2168 40.6248C19.1303 40.631 19.0437 40.6128 18.9669 40.5723L17.3257 39.7068C17.2422 39.6628 17.1493 39.6398 17.0549 39.6398C16.9606 39.6398 16.8677 39.6628 16.7841 39.7068L15.143 40.5723C15.0662 40.6128 14.9796 40.631 14.893 40.6248C14.8064 40.6186 14.7233 40.5882 14.653 40.5371C14.5828 40.486 14.5281 40.4162 14.4953 40.3356C14.4626 40.255 14.4529 40.1668 14.4674 40.081L14.781 38.2477C14.7968 38.1545 14.7899 38.0589 14.7607 37.9691C14.7316 37.8792 14.6811 37.7978 14.6137 37.7318L13.2856 36.4335C13.2233 36.3728 13.1792 36.2957 13.1584 36.2111C13.1375 36.1265 13.1407 36.0378 13.1675 35.9549C13.1944 35.872 13.2438 35.7983 13.3103 35.7422C13.3767 35.686 13.4575 35.6496 13.5435 35.6372L15.3789 35.3696C15.4723 35.356 15.561 35.3198 15.6373 35.2642C15.7136 35.2086 15.7753 35.1352 15.8171 35.0503L16.6379 33.3826C16.6764 33.3046 16.7359 33.2391 16.8095 33.1932C16.8832 33.1473 16.9682 33.123 17.0549 33.123C17.1417 33.123 17.2266 33.1473 17.3003 33.1932C17.374 33.2391 17.4335 33.3046 17.4719 33.3826Z" fill="#F59E0B"/>
</svg>
