<svg width="88" height="50" viewBox="0 0 88 50" fill="none" xmlns="http://www.w3.org/2000/svg">
<g opacity="0.9">
<g opacity="0.5">
<rect x="0.799561" y="0.799805" width="85.556" height="47.6331" rx="1.83211" fill="#CDCED6"/>
<rect x="0.399774" y="0.400018" width="86.3555" height="48.4326" rx="2.2319" stroke="white" stroke-opacity="0.3" stroke-width="0.799573"/>
</g>
</g>
<path d="M24.1015 14.7994L23.324 11.8693H23.7217L24.1674 13.7901C24.2154 13.9913 24.2567 14.1911 24.2914 14.3897C24.366 14.0766 24.4099 13.896 24.4233 13.848L24.9809 11.8693H25.4486L25.8683 13.3524C25.9736 13.7201 26.0496 14.0659 26.0962 14.3897C26.1335 14.2045 26.1821 13.9919 26.2421 13.7521L26.7018 11.8693H27.0916L26.2881 14.7994H25.9143L25.2967 12.5669C25.2447 12.3803 25.2141 12.2657 25.2048 12.2231C25.1741 12.3577 25.1455 12.4723 25.1188 12.5669L24.4972 14.7994H24.1015Z" fill="#80838D"/>
<path d="M27.4114 12.283V11.8693H27.7711V12.283H27.4114ZM27.4114 14.7994V12.6768H27.7711V14.7994H27.4114Z" fill="#80838D"/>
<path d="M28.3208 14.7994V12.6768H28.6446V12.9786C28.8005 12.7454 29.0257 12.6288 29.3201 12.6288C29.4481 12.6288 29.5653 12.6521 29.6719 12.6988C29.7798 12.7441 29.8605 12.804 29.9138 12.8787C29.9671 12.9533 30.0044 13.0419 30.0257 13.1445C30.039 13.2111 30.0457 13.3277 30.0457 13.4943V14.7994H29.6859V13.5083C29.6859 13.3617 29.6719 13.2524 29.6439 13.1805C29.6159 13.1072 29.566 13.0492 29.494 13.0066C29.4234 12.9626 29.3401 12.9406 29.2442 12.9406C29.0909 12.9406 28.9584 12.9893 28.8464 13.0865C28.7358 13.1838 28.6805 13.3683 28.6805 13.6402V14.7994H28.3208Z" fill="#80838D"/>
<path d="M30.5993 14.7994V12.6768H30.9231V12.9786C31.079 12.7454 31.3042 12.6288 31.5987 12.6288C31.7266 12.6288 31.8439 12.6521 31.9504 12.6988C32.0584 12.7441 32.139 12.804 32.1923 12.8787C32.2456 12.9533 32.2829 13.0419 32.3042 13.1445C32.3175 13.2111 32.3242 13.3277 32.3242 13.4943V14.7994H31.9644V13.5083C31.9644 13.3617 31.9504 13.2524 31.9225 13.1805C31.8945 13.1072 31.8445 13.0492 31.7726 13.0066C31.7019 12.9626 31.6187 12.9406 31.5227 12.9406C31.3695 12.9406 31.2369 12.9893 31.125 13.0865C31.0144 13.1838 30.9591 13.3683 30.9591 13.6402V14.7994H30.5993Z" fill="#80838D"/>
<path d="M34.3309 14.1159L34.7027 14.1618C34.6441 14.379 34.5355 14.5476 34.3769 14.6675C34.2183 14.7874 34.0158 14.8474 33.7693 14.8474C33.4588 14.8474 33.2123 14.7521 33.0298 14.5616C32.8485 14.3697 32.7579 14.1012 32.7579 13.7561C32.7579 13.399 32.8499 13.1218 33.0338 12.9246C33.2176 12.7274 33.4562 12.6288 33.7493 12.6288C34.0331 12.6288 34.265 12.7254 34.4449 12.9186C34.6247 13.1118 34.7147 13.3837 34.7147 13.7341C34.7147 13.7554 34.714 13.7874 34.7127 13.83H33.1297C33.143 14.0632 33.209 14.2418 33.3276 14.3657C33.4462 14.4896 33.5941 14.5516 33.7713 14.5516C33.9032 14.5516 34.0158 14.5169 34.1091 14.4477C34.2023 14.3784 34.2763 14.2678 34.3309 14.1159ZM33.1497 13.5342H34.3349C34.3189 13.3557 34.2736 13.2218 34.199 13.1325C34.0844 12.9939 33.9358 12.9246 33.7533 12.9246C33.5881 12.9246 33.4488 12.9799 33.3356 13.0905C33.2236 13.2011 33.1617 13.349 33.1497 13.5342Z" fill="#80838D"/>
<path d="M35.1524 14.7994V12.6768H35.4762V12.9986C35.5588 12.848 35.6348 12.7487 35.704 12.7008C35.7747 12.6528 35.852 12.6288 35.9359 12.6288C36.0572 12.6288 36.1804 12.6675 36.3057 12.7447L36.1817 13.0785C36.0938 13.0266 36.0059 13.0006 35.9179 13.0006C35.8393 13.0006 35.7687 13.0246 35.706 13.0725C35.6434 13.1192 35.5988 13.1845 35.5721 13.2684C35.5322 13.3963 35.5122 13.5362 35.5122 13.6881V14.7994H35.1524Z" fill="#80838D"/>
<path d="M37.5249 13.7381C37.5249 13.345 37.6341 13.0539 37.8527 12.8647C38.0352 12.7074 38.2577 12.6288 38.5202 12.6288C38.8121 12.6288 39.0506 12.7248 39.2358 12.9166C39.421 13.1072 39.5136 13.371 39.5136 13.7081C39.5136 13.9813 39.4723 14.1965 39.3897 14.3537C39.3084 14.5096 39.1891 14.6309 39.0319 14.7175C38.876 14.8041 38.7055 14.8474 38.5202 14.8474C38.2231 14.8474 37.9826 14.7521 37.7987 14.5616C37.6162 14.371 37.5249 14.0965 37.5249 13.7381ZM37.8946 13.7381C37.8946 14.0099 37.9539 14.2138 38.0725 14.3497C38.1911 14.4843 38.3404 14.5516 38.5202 14.5516C38.6988 14.5516 38.8474 14.4836 38.966 14.3477C39.0845 14.2118 39.1438 14.0046 39.1438 13.7261C39.1438 13.4636 39.0839 13.2651 38.964 13.1305C38.8454 12.9946 38.6975 12.9266 38.5202 12.9266C38.3404 12.9266 38.1911 12.9939 38.0725 13.1285C37.9539 13.2631 37.8946 13.4663 37.8946 13.7381Z" fill="#80838D"/>
<path d="M40.0233 14.7994V12.9566H39.7055V12.6768H40.0233V12.4509C40.0233 12.3084 40.0359 12.2024 40.0613 12.1331C40.0959 12.0399 40.1565 11.9646 40.2431 11.9073C40.3311 11.8487 40.4537 11.8193 40.6109 11.8193C40.7122 11.8193 40.8241 11.8313 40.9467 11.8553L40.8927 12.1691C40.8181 12.1558 40.7475 12.1491 40.6809 12.1491C40.5716 12.1491 40.4943 12.1724 40.449 12.2191C40.4037 12.2657 40.381 12.353 40.381 12.4809V12.6768H40.7948V12.9566H40.381V14.7994H40.0233Z" fill="#80838D"/>
<path d="M23.2649 37.1348L24.9529 32.7396H25.5794L27.3783 37.1348H26.7157L26.2031 35.8036H24.3652L23.8825 37.1348H23.2649ZM24.5331 35.3299H26.0232L25.5645 34.1127C25.4245 33.7429 25.3206 33.4391 25.2527 33.2013C25.1967 33.4831 25.1177 33.7629 25.0158 34.0407L24.5331 35.3299ZM28.2537 37.1348L27.2794 33.9508H27.837L28.3437 35.7886L28.5326 36.4722C28.5406 36.4382 28.5955 36.2194 28.6975 35.8156L29.2041 33.9508H29.7588L30.2355 35.7976L30.3944 36.4062L30.5773 35.7916L31.1229 33.9508H31.6476L30.6522 37.1348H30.0916L29.5849 35.228L29.462 34.6853L28.8174 37.1348H28.2537ZM34.1809 36.742C33.9811 36.9119 33.7882 37.0318 33.6023 37.1018C33.4184 37.1717 33.2206 37.2067 33.0087 37.2067C32.6589 37.2067 32.3901 37.1218 32.2022 36.9519C32.0143 36.78 31.9204 36.5611 31.9204 36.2953C31.9204 36.1394 31.9554 35.9975 32.0253 35.8696C32.0973 35.7397 32.1902 35.6357 32.3041 35.5578C32.4201 35.4798 32.55 35.4209 32.6939 35.3809C32.7998 35.3529 32.9597 35.3259 33.1736 35.2999C33.6093 35.248 33.9301 35.186 34.136 35.1141C34.138 35.0401 34.139 34.9931 34.139 34.9731C34.139 34.7533 34.088 34.5984 33.9861 34.5084C33.8482 34.3865 33.6433 34.3256 33.3715 34.3256C33.1176 34.3256 32.9297 34.3705 32.8078 34.4605C32.6879 34.5484 32.599 34.7053 32.541 34.9312L32.0133 34.8592C32.0613 34.6334 32.1402 34.4515 32.2502 34.3136C32.3601 34.1737 32.519 34.0667 32.7269 33.9928C32.9347 33.9168 33.1756 33.8789 33.4494 33.8789C33.7212 33.8789 33.9421 33.9108 34.112 33.9748C34.2819 34.0387 34.4068 34.1197 34.4867 34.2176C34.5667 34.3136 34.6227 34.4355 34.6546 34.5834C34.6726 34.6753 34.6816 34.8412 34.6816 35.0811V35.8006C34.6816 36.3023 34.6926 36.6201 34.7146 36.754C34.7386 36.8859 34.7846 37.0128 34.8525 37.1348H34.2889C34.2329 37.0228 34.1969 36.8919 34.1809 36.742ZM34.136 35.5368C33.9401 35.6167 33.6463 35.6847 33.2545 35.7407C33.0327 35.7726 32.8758 35.8086 32.7838 35.8486C32.6919 35.8886 32.6209 35.9475 32.571 36.0255C32.521 36.1014 32.496 36.1864 32.496 36.2803C32.496 36.4242 32.55 36.5441 32.6579 36.6401C32.7678 36.736 32.9277 36.784 33.1376 36.784C33.3455 36.784 33.5304 36.739 33.6923 36.6491C33.8542 36.5571 33.9731 36.4322 34.049 36.2743C34.107 36.1524 34.136 35.9725 34.136 35.7347V35.5368ZM35.5151 37.1348V33.9508H36.0008V34.4335C36.1247 34.2076 36.2386 34.0587 36.3426 33.9868C36.4485 33.9148 36.5644 33.8789 36.6903 33.8789C36.8722 33.8789 37.0571 33.9368 37.245 34.0527L37.0591 34.5534C36.9272 34.4755 36.7953 34.4365 36.6634 34.4365C36.5454 34.4365 36.4395 34.4725 36.3456 34.5444C36.2516 34.6144 36.1847 34.7123 36.1447 34.8382C36.0847 35.0301 36.0547 35.24 36.0547 35.4678V37.1348H35.5151ZM39.6315 37.1348V36.733C39.4296 37.0488 39.1328 37.2067 38.741 37.2067C38.4872 37.2067 38.2533 37.1368 38.0395 36.9969C37.8276 36.8569 37.6627 36.6621 37.5448 36.4122C37.4289 36.1604 37.3709 35.8716 37.3709 35.5458C37.3709 35.228 37.4239 34.9402 37.5298 34.6823C37.6357 34.4225 37.7946 34.2236 38.0065 34.0857C38.2184 33.9478 38.4552 33.8789 38.717 33.8789C38.9089 33.8789 39.0798 33.9198 39.2297 34.0018C39.3796 34.0817 39.5015 34.1867 39.5955 34.3166V32.7396H40.1321V37.1348H39.6315ZM37.9255 35.5458C37.9255 35.9535 38.0115 36.2583 38.1834 36.4602C38.3553 36.6621 38.5581 36.763 38.792 36.763C39.0278 36.763 39.2277 36.6671 39.3916 36.4752C39.5575 36.2813 39.6404 35.9865 39.6404 35.5908C39.6404 35.155 39.5565 34.8352 39.3886 34.6314C39.2207 34.4275 39.0138 34.3256 38.768 34.3256C38.5282 34.3256 38.3273 34.4235 38.1654 34.6194C38.0055 34.8153 37.9255 35.1241 37.9255 35.5458ZM40.7677 36.1844L41.3014 36.1004C41.3314 36.3143 41.4143 36.4782 41.5502 36.5921C41.6881 36.706 41.88 36.763 42.1259 36.763C42.3737 36.763 42.5576 36.713 42.6775 36.6131C42.7974 36.5112 42.8574 36.3922 42.8574 36.2563C42.8574 36.1344 42.8044 36.0385 42.6985 35.9685C42.6245 35.9205 42.4407 35.8596 42.1468 35.7856C41.7511 35.6857 41.4763 35.5997 41.3224 35.5278C41.1705 35.4538 41.0545 35.3529 40.9746 35.225C40.8966 35.0951 40.8577 34.9522 40.8577 34.7963C40.8577 34.6544 40.8896 34.5234 40.9536 34.4035C41.0196 34.2816 41.1085 34.1807 41.2204 34.1007C41.3044 34.0387 41.4183 33.9868 41.5622 33.9448C41.7081 33.9008 41.864 33.8789 42.0299 33.8789C42.2798 33.8789 42.4986 33.9148 42.6865 33.9868C42.8764 34.0587 43.0163 34.1567 43.1062 34.2806C43.1962 34.4025 43.2581 34.5664 43.2921 34.7723L42.7644 34.8442C42.7405 34.6803 42.6705 34.5524 42.5546 34.4605C42.4407 34.3685 42.2788 34.3226 42.0689 34.3226C41.8211 34.3226 41.6442 34.3635 41.5382 34.4455C41.4323 34.5274 41.3793 34.6234 41.3793 34.7333C41.3793 34.8033 41.4013 34.8662 41.4453 34.9222C41.4893 34.9801 41.5582 35.0281 41.6522 35.0661C41.7061 35.0861 41.865 35.132 42.1289 35.204C42.5106 35.3059 42.7764 35.3899 42.9263 35.4558C43.0782 35.5198 43.1972 35.6137 43.2831 35.7377C43.3691 35.8616 43.412 36.0155 43.412 36.1994C43.412 36.3792 43.3591 36.5491 43.2531 36.709C43.1492 36.8669 42.9983 36.9899 42.8004 37.0778C42.6026 37.1637 42.3787 37.2067 42.1289 37.2067C41.7151 37.2067 41.3993 37.1208 41.1815 36.9489C40.9656 36.777 40.8277 36.5222 40.7677 36.1844ZM48.4638 36.3523V37.1348H45.5107C45.5427 36.839 45.6386 36.5591 45.7985 36.2953C45.9584 36.0295 46.2742 35.6777 46.7459 35.24C47.1257 34.8862 47.3585 34.6464 47.4445 34.5204C47.5604 34.3466 47.6183 34.1747 47.6183 34.0048C47.6183 33.8169 47.5674 33.673 47.4654 33.573C47.3655 33.4711 47.2266 33.4201 47.0487 33.4201C46.8728 33.4201 46.7329 33.4731 46.629 33.579C46.525 33.685 46.4651 33.8609 46.4491 34.1067L45.6096 34.0228C45.6596 33.5591 45.8165 33.2263 46.0803 33.0244C46.3442 32.8225 46.6739 32.7216 47.0697 32.7216C47.5034 32.7216 47.8442 32.8385 48.092 33.0724C48.3399 33.3062 48.4638 33.597 48.4638 33.9448C48.4638 34.1427 48.4278 34.3316 48.3559 34.5114C48.2859 34.6893 48.174 34.8762 48.0201 35.0721C47.9181 35.202 47.7343 35.3889 47.4684 35.6327C47.2026 35.8766 47.0337 36.0385 46.9618 36.1184C46.8918 36.1984 46.8348 36.2763 46.7909 36.3523H48.4638ZM50.4605 32.7216C50.8862 32.7216 51.219 32.8735 51.4589 33.1773C51.7447 33.5371 51.8876 34.1337 51.8876 34.9672C51.8876 35.7986 51.7437 36.3962 51.4559 36.76C51.218 37.0598 50.8862 37.2097 50.4605 37.2097C50.0328 37.2097 49.688 37.0458 49.4262 36.718C49.1643 36.3882 49.0334 35.8016 49.0334 34.9582C49.0334 34.1307 49.1773 33.5351 49.4652 33.1713C49.703 32.8715 50.0348 32.7216 50.4605 32.7216ZM50.4605 33.4201C50.3586 33.4201 50.2676 33.4531 50.1877 33.5191C50.1077 33.583 50.0458 33.699 50.0018 33.8669C49.9439 34.0847 49.9149 34.4515 49.9149 34.9672C49.9149 35.4828 49.9409 35.8376 49.9928 36.0315C50.0448 36.2233 50.1097 36.3513 50.1877 36.4152C50.2676 36.4792 50.3586 36.5112 50.4605 36.5112C50.5625 36.5112 50.6534 36.4792 50.7333 36.4152C50.8133 36.3493 50.8753 36.2323 50.9192 36.0645C50.9772 35.8486 51.0062 35.4828 51.0062 34.9672C51.0062 34.4515 50.9802 34.0977 50.9282 33.9058C50.8763 33.712 50.8103 33.583 50.7303 33.5191C50.6524 33.4531 50.5625 33.4201 50.4605 33.4201ZM54.6099 37.1348H53.7674V33.9598C53.4596 34.2476 53.0968 34.4605 52.6791 34.5984V33.8339C52.899 33.7619 53.1378 33.626 53.3956 33.4261C53.6535 33.2243 53.8304 32.9894 53.9263 32.7216H54.6099V37.1348ZM58.7172 36.3523V37.1348H55.7641C55.7961 36.839 55.892 36.5591 56.0519 36.2953C56.2118 36.0295 56.5276 35.6777 56.9993 35.24C57.3791 34.8862 57.6119 34.6464 57.6979 34.5204C57.8138 34.3466 57.8718 34.1747 57.8718 34.0048C57.8718 33.8169 57.8208 33.673 57.7189 33.573C57.6189 33.4711 57.48 33.4201 57.3021 33.4201C57.1263 33.4201 56.9863 33.4731 56.8824 33.579C56.7785 33.685 56.7185 33.8609 56.7025 34.1067L55.8631 34.0228C55.913 33.5591 56.0699 33.2263 56.3338 33.0244C56.5976 32.8225 56.9274 32.7216 57.3231 32.7216C57.7568 32.7216 58.0976 32.8385 58.3455 33.0724C58.5933 33.3062 58.7172 33.597 58.7172 33.9448C58.7172 34.1427 58.6813 34.3316 58.6093 34.5114C58.5393 34.6893 58.4274 34.8762 58.2735 35.0721C58.1716 35.202 57.9877 35.3889 57.7219 35.6327C57.456 35.8766 57.2871 36.0385 57.2152 36.1184C57.1452 36.1984 57.0883 36.2763 57.0443 36.3523H58.7172Z" fill="#80838D"/>
<path d="M23.9456 16.6514H25.7604V22.5116H23.9456V16.6514Z" fill="#14D773"/>
<path d="M27.0756 16.6514H28.7665L30.9731 19.8933V16.6514H32.68V22.5116H30.9731L28.7785 19.2937V22.5116H27.0756V16.6514Z" fill="#14D773"/>
<path d="M33.9072 16.6514H36.5975C37.1278 16.6514 37.5555 16.7233 37.8806 16.8672C38.2084 17.0111 38.4789 17.2177 38.6921 17.4868C38.9053 17.756 39.0599 18.0691 39.1558 18.4262C39.2518 18.7833 39.2997 19.1618 39.2997 19.5615C39.2997 20.1878 39.2278 20.6741 39.0839 21.0206C38.9426 21.3643 38.7454 21.6535 38.4922 21.888C38.2391 22.1199 37.9672 22.2744 37.6768 22.3517C37.2797 22.4583 36.9199 22.5116 36.5975 22.5116H33.9072V16.6514ZM35.718 17.9785V21.1805H36.1617C36.5402 21.1805 36.8093 21.1392 36.9692 21.0565C37.1291 20.9713 37.2544 20.8247 37.345 20.6168C37.4356 20.4063 37.4809 20.0665 37.4809 19.5975C37.4809 18.9765 37.3796 18.5515 37.1771 18.3223C36.9745 18.0931 36.6388 17.9785 36.1697 17.9785H35.718Z" fill="#14D773"/>
<path d="M40.3271 16.6514H42.1419V22.5116H40.3271V16.6514Z" fill="#14D773"/>
<path d="M47.0508 21.5442H44.9881L44.7043 22.5116H42.8534L45.056 16.6514H47.0308L49.2334 22.5116H47.3386L47.0508 21.5442ZM46.671 20.277L46.0234 18.1704L45.3798 20.277H46.671Z" fill="#14D773"/>
<path d="M49.829 16.6514H51.5199L53.7265 19.8933V16.6514H55.4334V22.5116H53.7265L51.5319 19.2937V22.5116H49.829V16.6514Z" fill="#14D773"/>
<path d="M32.0863 31.3227V25.4624H35.1043C35.664 25.4624 36.0917 25.5104 36.3875 25.6064C36.6833 25.7023 36.9218 25.8808 37.1031 26.142C37.2843 26.4005 37.3749 26.7163 37.3749 27.0894C37.3749 27.4145 37.3056 27.6957 37.167 27.9329C37.0284 28.1674 36.8379 28.3579 36.5954 28.5045C36.4408 28.5978 36.229 28.6751 35.9598 28.7364C36.1757 28.8083 36.3329 28.8803 36.4315 28.9522C36.4981 29.0002 36.5941 29.1028 36.7193 29.26C36.8472 29.4172 36.9325 29.5385 36.9751 29.6238L37.8506 31.3227H35.8039L34.8365 29.5318C34.7139 29.3 34.6047 29.1494 34.5087 29.0801C34.3781 28.9895 34.2302 28.9442 34.065 28.9442H33.9051V31.3227H32.0863ZM33.9051 27.8369H34.6686C34.7512 27.8369 34.9111 27.8103 35.1483 27.757C35.2682 27.733 35.3655 27.6717 35.4401 27.5731C35.5174 27.4745 35.556 27.3612 35.556 27.2333C35.556 27.0441 35.4961 26.8989 35.3762 26.7976C35.2562 26.6963 35.0311 26.6457 34.7006 26.6457H33.9051V27.8369Z" fill="#60646C"/>
<path d="M38.4302 25.4624H43.2831V26.7136H40.245V27.6451H43.0632V28.8403H40.245V29.9955H43.371V31.3227H38.4302V25.4624Z" fill="#60646C"/>
<path d="M43.9387 25.4624H49.4432V26.9095H47.5963V31.3227H45.7855V26.9095H43.9387V25.4624Z" fill="#60646C"/>
<path d="M53.3207 30.3553H51.258L50.9742 31.3227H49.1234L51.3259 25.4624H53.3007L55.5033 31.3227H53.6085L53.3207 30.3553ZM52.9409 29.0881L52.2933 26.9815L51.6497 29.0881H52.9409Z" fill="#60646C"/>
<path d="M56.1589 25.4624H57.9737V31.3227H56.1589V25.4624Z" fill="#60646C"/>
<path d="M59.2769 25.4624H61.0877V29.8796H63.9139V31.3227H59.2769V25.4624Z" fill="#60646C"/>
<path d="M25.0506 31.0177C24.4102 31.0177 23.8717 30.8649 23.4351 30.5592C23.013 30.239 22.802 29.7806 22.802 29.1838C22.802 28.5435 22.9548 27.9467 23.2605 27.3937C23.5661 26.8406 23.9736 26.3603 24.483 25.9528C24.9924 25.5307 25.5455 25.2033 26.1422 24.9704C26.7535 24.7375 27.3575 24.6211 27.9542 24.6211C28.5509 24.6211 28.9948 24.7303 29.2859 24.9486C29.577 25.1523 29.7225 25.407 29.7225 25.7127C29.7225 26.0037 29.5843 26.3167 29.3077 26.6514C29.0458 26.9716 28.6601 27.2554 28.1507 27.5028C27.8305 27.6484 27.4594 27.7794 27.0373 27.8958C26.6298 27.9977 26.2732 28.0486 25.9675 28.0486C25.7347 28.0486 25.6182 28.0122 25.6182 27.9395C25.6182 27.8812 25.7201 27.8521 25.9239 27.8521C26.1131 27.8521 26.4042 27.8012 26.7971 27.6993C27.2047 27.5829 27.5976 27.4301 27.976 27.2409C28.3981 27.008 28.6965 26.7751 28.8711 26.5423C29.0458 26.3094 29.1331 26.0983 29.1331 25.9091C29.1331 25.7345 29.0603 25.589 28.9148 25.4725C28.7838 25.3561 28.5946 25.2979 28.3472 25.2979C28.1143 25.2979 27.8523 25.3634 27.5612 25.4943C27.1392 25.6836 26.7025 25.9965 26.2514 26.4331C25.8147 26.8552 25.4509 27.3209 25.1598 27.8303C24.8687 28.3397 24.7232 28.8273 24.7232 29.293C24.7232 29.6132 24.8105 29.8824 24.9851 30.1008C25.1743 30.3191 25.4509 30.4282 25.8147 30.4282C26.1931 30.4282 26.6298 30.3118 27.1246 30.0789C27.6195 29.8315 28.1216 29.5331 28.631 29.1838C29.1404 28.82 29.6134 28.4561 30.05 28.0923C30.4866 27.7284 30.8359 27.4228 31.0979 27.1754C31.1852 27.088 31.2507 27.0444 31.2944 27.0444C31.3381 27.0444 31.3599 27.0808 31.3599 27.1535C31.3599 27.2554 31.3162 27.3427 31.2289 27.4155C30.6758 27.9249 30.0718 28.4561 29.4169 29.0092C28.7765 29.5623 28.0852 30.0353 27.3429 30.4282C26.6152 30.8066 25.8511 31.0031 25.0506 31.0177Z" fill="#60646C"/>
</svg>
