<svg width="88" height="50" viewBox="0 0 88 50" fill="none" xmlns="http://www.w3.org/2000/svg">
<g opacity="0.5">
<path d="M0.799561 2.63191C0.799561 1.62007 1.61982 0.799805 2.63167 0.799805H84.5234C85.5353 0.799805 86.3555 1.62007 86.3555 2.63191V46.6008C86.3555 47.6126 85.5353 48.4329 84.5234 48.4329H2.63167C1.61982 48.4329 0.799561 47.6126 0.799561 46.6008V2.63191Z" fill="#CDCED6"/>
<path d="M84.5232 0.400391C85.7558 0.400391 86.7556 1.39923 86.7556 2.63184V46.6006C86.7556 47.8332 85.7558 48.833 84.5232 48.833H2.63159C1.39899 48.833 0.400146 47.8332 0.400146 46.6006V2.63184C0.400188 1.39925 1.39901 0.400433 2.63159 0.400391H84.5232Z" stroke="white" stroke-opacity="0.3" stroke-width="0.799573"/>
</g>
<path d="M33.9512 20.3135C34.1972 20.4705 34.5783 20.6044 35.0491 20.694C35.52 20.8279 36.013 20.8501 36.5292 20.8501C37.0222 20.8501 37.4708 20.7836 37.8741 20.6709C38.2774 20.537 38.6364 20.3588 38.9499 20.1343C39.2413 19.9109 39.4883 19.6431 39.6456 19.2847C39.8019 18.9495 39.8916 18.5921 39.8916 18.1673C39.8916 17.6751 39.7353 17.2281 39.4439 16.8255C39.1525 16.445 38.6585 16.1319 37.9639 15.9084L36.6189 15.4614C36.1259 15.3054 35.7448 15.1262 35.5422 14.9249C35.3637 14.7457 35.2508 14.5222 35.2508 14.2313C35.2508 13.8518 35.4081 13.5387 35.6994 13.3817C36.013 13.2035 36.4173 13.0918 36.9778 13.0918C37.6725 13.0918 38.2553 13.2256 38.838 13.4713C38.9953 13.5387 39.1294 13.6061 39.2191 13.6061C39.3764 13.6061 39.4439 13.5166 39.4439 13.2931V12.9126C39.4439 12.7787 39.4208 12.6669 39.3542 12.5995C39.2866 12.5099 39.1969 12.4203 39.0628 12.3539C38.9731 12.2864 38.8158 12.219 38.6585 12.1969C38.5022 12.1304 38.3228 12.1073 38.1211 12.0408C37.9417 12.0177 37.7169 11.9512 37.493 11.9512C37.2692 11.8838 37.0444 11.8838 36.8427 11.8838C36.3941 11.8838 36.0362 11.9512 35.655 12.0408C35.2739 12.1747 34.9372 12.3307 34.6458 12.5321C34.3545 12.7556 34.1528 13.0022 33.9512 13.3152C33.7717 13.6283 33.7042 13.9635 33.7042 14.3883C33.7042 14.8806 33.8614 15.3497 34.175 15.7745C34.4886 16.2215 34.9826 16.5345 35.7216 16.7359L37.1119 17.1828C37.5828 17.3399 37.8963 17.4959 38.0758 17.6751C38.2552 17.8543 38.3228 18.0777 38.3228 18.3234C38.3228 18.7039 38.1655 19.0169 37.8298 19.2404C37.493 19.4639 37.0444 19.5535 36.4173 19.5535C36.0362 19.5535 35.655 19.5313 35.2961 19.4196C34.915 19.3522 34.5783 19.2404 34.2204 19.0834C34.1306 19.0613 34.0409 19.0169 33.9734 18.9948C33.9058 18.9717 33.8383 18.9717 33.7939 18.9717C33.6366 18.9717 33.5701 19.0613 33.5701 19.2847V19.7548C33.5701 19.8444 33.5923 19.933 33.6366 20.0457C33.7042 20.1575 33.7939 20.2239 33.9512 20.3135Z" fill="#1C2024"/>
<path d="M17.7189 15.6843C17.3822 15.6168 17.0235 15.6168 16.7096 15.6168C15.7455 15.6168 14.9609 15.8634 14.3556 16.3778C13.7503 16.8691 13.4812 17.5405 13.4812 18.3449C13.4812 19.128 13.7054 19.731 14.1763 20.2011C14.647 20.6702 15.2748 20.8937 16.0819 20.8937C17.2028 20.8937 18.1444 20.4468 18.9066 19.575C18.9963 19.7985 19.0861 19.9776 19.198 20.1337C19.3099 20.2907 19.4228 20.4468 19.5347 20.5807C19.6244 20.6702 19.7142 20.7155 19.8261 20.7155C19.8926 20.7155 19.9824 20.6934 20.0721 20.6259L20.678 20.2233C20.8121 20.1337 20.8575 20.0441 20.8575 19.9324C20.8575 19.8659 20.8343 19.7985 20.7899 19.7089C20.6558 19.4632 20.5429 19.2398 20.4764 19.0163C20.4088 18.7928 20.3866 18.524 20.3866 18.1667V15.036C20.3866 14.0072 20.1396 13.225 19.6013 12.6884C19.0639 12.1519 18.2563 11.9053 17.0907 11.9053C16.5526 11.9053 16.0594 11.9727 15.5887 12.0844C15.1402 12.2183 14.7367 12.3301 14.4004 12.5314C14.2659 12.5988 14.1763 12.6653 14.1538 12.7106C14.0865 12.778 14.0865 12.8898 14.0865 13.0458V13.5159C14.0865 13.6941 14.1538 13.828 14.2659 13.828C14.2883 13.828 14.3556 13.828 14.4229 13.8058C14.4901 13.7837 14.6022 13.7394 14.7591 13.6719C15.0954 13.538 15.4541 13.4263 15.7904 13.3589C16.1267 13.2693 16.4854 13.225 16.8217 13.225C17.5838 13.225 18.0769 13.381 18.3914 13.6719C18.705 13.9629 18.8391 14.4773 18.8391 15.2151V15.9077C18.4358 15.8182 18.1 15.7517 17.7189 15.6843ZM18.8169 17.3835C18.8169 17.6966 18.7947 17.9875 18.7271 18.1888C18.6596 18.4123 18.5708 18.6358 18.4136 18.7928C18.1666 19.0827 17.853 19.2841 17.4943 19.3958C17.158 19.5307 16.7992 19.575 16.4854 19.575C16.037 19.575 15.7007 19.4411 15.4766 19.2398C15.2523 19.0163 15.1402 18.6801 15.1402 18.2331C15.1402 17.764 15.2972 17.3835 15.6111 17.1379C15.9249 16.8922 16.3957 16.7574 17.0235 16.7574C17.3149 16.7574 17.6292 16.7795 17.9427 16.8248C18.2563 16.8469 18.5477 16.9144 18.8169 16.9808V17.3835Z" fill="#1C2024"/>
<path d="M23.6711 20.1573C23.7377 20.3355 23.8052 20.4704 23.8505 20.5368C23.9171 20.6043 24.03 20.6264 24.2317 20.6264H25.0382C25.2177 20.6264 25.3518 20.6043 25.4194 20.5368C25.4869 20.4704 25.5544 20.3586 25.5988 20.1573L27.0788 13.9855L28.5811 20.1573C28.6033 20.3355 28.6698 20.4704 28.7596 20.5368C28.8271 20.6043 28.9844 20.6264 29.1407 20.6264H29.9482C30.1055 20.6264 30.2396 20.6043 30.3293 20.5368C30.3969 20.4704 30.4866 20.3586 30.5088 20.1573L32.8398 12.7785C32.863 12.6889 32.9073 12.5993 32.9073 12.555C32.9073 12.4876 32.9295 12.4654 32.9295 12.398C32.9295 12.2419 32.863 12.1745 32.7057 12.1745H31.8316C31.6521 12.1745 31.518 12.1967 31.4505 12.2641C31.3829 12.3315 31.3154 12.4433 31.271 12.6436L29.6115 19.0611L28.0649 12.6215C28.0427 12.4433 27.9752 12.3084 27.8854 12.2419C27.8179 12.1745 27.6616 12.1523 27.5043 12.1523H26.7199C26.5405 12.1523 26.4064 12.1745 26.3388 12.2419C26.2713 12.3084 26.2038 12.4201 26.1594 12.6215L24.6571 18.9493L23.0652 12.6215C22.9986 12.4433 22.9311 12.3084 22.8857 12.2419C22.8191 12.1745 22.7072 12.1523 22.5046 12.1523H21.5639C21.4067 12.1523 21.3391 12.2188 21.3391 12.3758C21.3391 12.4433 21.3613 12.555 21.4288 12.7563L23.6711 20.1573Z" fill="#1C2024"/>
<path d="M37.8796 24.7861C34.359 26.284 30.5035 26.9997 27.0283 26.9997C21.8491 26.9997 16.8277 25.5904 12.7698 23.2207C12.4336 22.9973 12.1421 23.3768 12.4559 23.6677C16.2223 27.044 21.1766 29.0785 26.7147 29.0785C30.6377 29.0785 35.2109 27.8494 38.3948 25.5009C38.8435 25.1435 38.417 24.5848 37.8796 24.7861Z" fill="#FF9900"/>
<path d="M35.9047 23.4872C35.6133 23.6663 35.6809 23.9572 35.9723 23.9341C36.9805 23.8002 39.2671 23.5324 39.6492 24.069C40.0525 24.5603 39.2006 26.7074 38.8416 27.6688C38.7075 27.9597 38.9757 28.0714 39.2449 27.847C40.9488 26.4387 41.3753 23.465 41.0385 23.0623C40.6796 22.5701 37.6983 22.2349 35.9047 23.4872Z" fill="#FF9900"/>
<path d="M48.5828 18.6583C48.5163 18.6583 48.4487 18.6361 48.4487 18.5244V13.3592C48.4487 13.2918 48.4709 13.2253 48.5828 13.2253H48.7401C48.8298 13.2253 48.8742 13.2475 48.8742 13.3592L48.8974 13.6723C49.1212 13.4931 49.3682 13.3592 49.5921 13.2696C49.8159 13.1801 50.0407 13.1357 50.2867 13.1357C50.7807 13.1357 51.1618 13.3149 51.4532 13.6723C51.7446 14.0075 51.9009 14.5219 51.9009 15.1037C51.9009 15.7299 51.7446 16.2212 51.4532 16.6017C51.1387 16.9812 50.7576 17.1604 50.2201 17.1604C49.7493 17.1604 49.3451 16.9812 48.9418 16.6238V18.5022C48.9418 18.5687 48.9196 18.6361 48.8077 18.6361H48.5828V18.6583ZM50.1526 16.7808C50.5559 16.7808 50.8695 16.646 51.0943 16.3782C51.3181 16.0873 51.4078 15.6846 51.4078 15.1481C51.4078 14.075 51.0045 13.5606 50.1748 13.5606C49.7715 13.5606 49.3229 13.7176 48.9196 14.0528V16.2664C49.1434 16.4446 49.3229 16.5795 49.5245 16.6681C49.7262 16.7134 49.951 16.7808 50.1526 16.7808Z" fill="#1C2024"/>
<path d="M53.7436 17.1604C53.4079 17.1604 53.1155 17.0708 52.8917 16.8473C52.6679 16.6681 52.5781 16.3782 52.5781 16.043C52.5781 15.6625 52.7122 15.3937 52.9592 15.1702C53.2053 14.9467 53.5642 14.8571 53.9906 14.8571C54.3264 14.8571 54.6853 14.9246 55.0886 15.0363V14.4102C55.0886 14.0971 55.022 13.8736 54.8648 13.7619C54.7075 13.628 54.4836 13.5827 54.1469 13.5827C53.8112 13.5827 53.4301 13.6501 53.049 13.7619C53.0268 13.7619 52.9592 13.784 52.9139 13.784C52.8473 13.784 52.8473 13.7619 52.8473 13.6945V13.5384C52.8473 13.5162 52.8473 13.471 52.8695 13.4488C52.8917 13.4267 52.8917 13.4267 52.937 13.3814C53.3403 13.2253 53.7436 13.1357 54.2145 13.1357C54.6631 13.1357 54.9989 13.2253 55.2237 13.4267C55.4475 13.6049 55.5372 13.8958 55.5372 14.2763V16.959C55.5372 17.0265 55.515 17.0939 55.4031 17.0939H55.2459C55.1783 17.0939 55.1117 17.0708 55.1117 16.959L55.0886 16.646C54.6853 17.0043 54.2145 17.1604 53.7436 17.1604ZM53.8112 16.7808C53.9906 16.7808 54.2145 16.7577 54.4383 16.646C54.6631 16.5564 54.8869 16.4678 55.1339 16.3107V15.3716C54.7972 15.282 54.4836 15.2376 54.1247 15.2376C53.4079 15.2376 53.049 15.5286 53.049 16.043C53.049 16.2664 53.1155 16.4447 53.2284 16.5795C53.3625 16.7134 53.5642 16.7808 53.8112 16.7808Z" fill="#1C2024"/>
<path d="M56.856 17.0961C56.7885 17.0961 56.7219 17.073 56.7219 16.9613V13.3614C56.7219 13.295 56.7441 13.2275 56.856 13.2275H57.0133C57.103 13.2275 57.1474 13.2497 57.1474 13.3614L57.1696 13.8084C57.349 13.5849 57.5507 13.4289 57.7302 13.3614C57.9096 13.2719 58.1344 13.2275 58.3583 13.2275C58.448 13.2275 58.5155 13.2275 58.5377 13.2275C58.6043 13.2275 58.6718 13.2497 58.6718 13.3614V13.5406C58.6718 13.5628 58.6718 13.5628 58.6496 13.6071C58.6496 13.6302 58.6274 13.6302 58.5821 13.6302C58.5599 13.6302 58.4924 13.6302 58.448 13.6302C58.4258 13.6302 58.3583 13.6302 58.2907 13.6302C58.0669 13.6302 57.8421 13.6524 57.6636 13.7641C57.4841 13.8537 57.3269 13.9876 57.1252 14.1668V16.9613C57.1252 17.0287 57.103 17.0961 56.9901 17.0961H56.856Z" fill="#1C2024"/>
<path d="M60.6651 17.1386C60.3505 17.1386 60.1267 17.049 59.9695 16.893C59.8131 16.736 59.7234 16.5125 59.7234 16.1994V13.6727H59.1175C59.0509 13.6727 58.9834 13.6505 58.9834 13.5388V13.4714C58.9834 13.4492 58.9834 13.4049 59.0056 13.3818C59.0056 13.3596 59.0278 13.3596 59.0953 13.3596L59.7234 13.2932L59.79 12.2865C59.79 12.2644 59.8131 12.2191 59.8131 12.197C59.8353 12.1748 59.8353 12.1748 59.9029 12.1748H60.037C60.1045 12.1748 60.1711 12.197 60.1711 12.3087V13.3153H61.27C61.3376 13.3153 61.4041 13.3375 61.4041 13.4492V13.6062C61.4041 13.6727 61.3819 13.7401 61.27 13.7401H60.1711V16.2668C60.1711 16.4903 60.1943 16.6021 60.3062 16.7138C60.3959 16.8034 60.5522 16.8477 60.7548 16.8477C60.9111 16.8477 61.0462 16.8477 61.1359 16.8256C61.2025 16.8256 61.2247 16.8034 61.27 16.8034C61.2922 16.8034 61.3376 16.8034 61.3376 16.8034C61.4041 16.8034 61.4273 16.8256 61.4273 16.893V17.0269C61.4273 17.1165 61.4041 17.1608 61.3376 17.1829C61.1359 17.0943 60.9333 17.1386 60.6651 17.1386Z" fill="#1C2024"/>
<path d="M62.3675 17.0926C62.3 17.0926 62.2324 17.0695 62.2324 16.9578V13.3579C62.2324 13.2915 62.2556 13.224 62.3675 13.224H62.5248C62.6135 13.224 62.6589 13.2462 62.6589 13.3579L62.6811 13.671C62.9281 13.4918 63.1741 13.3579 63.4655 13.2684C63.7578 13.1788 64.0038 13.1123 64.2508 13.1123C64.6319 13.1123 64.9011 13.2019 65.1028 13.4032C65.2822 13.5814 65.3942 13.8723 65.3942 14.275V16.9356C65.3942 17.003 65.372 17.0695 65.2591 17.0695H65.0352C64.9677 17.0695 64.9011 17.0474 64.9011 16.9356V14.4985C64.9011 14.1632 64.8336 13.9398 64.7217 13.7828C64.5866 13.6267 64.385 13.5593 64.1158 13.5593C63.6227 13.5593 63.1075 13.7163 62.6367 14.0515V17.003C62.6367 17.0695 62.6135 17.1369 62.5016 17.1369H62.3453V17.0926H62.3675Z" fill="#1C2024"/>
<path d="M68.1991 17.1825C67.5941 17.1825 67.1233 17.0265 66.8541 16.6913C66.5396 16.356 66.3833 15.8416 66.3833 15.1481C66.3833 14.5219 66.5396 14.0297 66.8541 13.6723C67.1677 13.3371 67.6163 13.1357 68.1316 13.1357C68.6024 13.1357 68.9391 13.2696 69.2083 13.5384C69.4543 13.784 69.5894 14.1645 69.5894 14.6558C69.5894 14.835 69.5894 14.992 69.5662 15.1259C69.5662 15.1924 69.4997 15.2598 69.4321 15.2598H66.8541C66.8541 15.7963 66.9882 16.199 67.1899 16.4447C67.4147 16.6913 67.7958 16.8251 68.2666 16.8251C68.6477 16.8251 68.9835 16.7577 69.298 16.646C69.3646 16.6238 69.4321 16.6238 69.4321 16.6238C69.4543 16.6238 69.4543 16.6238 69.4997 16.646C69.4997 16.6681 69.5219 16.6681 69.5219 16.7134V16.8473C69.5219 16.9369 69.4997 16.9812 69.4321 17.0043C69.0288 17.0939 68.6477 17.1825 68.1991 17.1825ZM69.1408 14.9024C69.1408 14.835 69.1408 14.7454 69.1408 14.6558C69.1408 14.2763 69.051 14.0297 68.8938 13.8515C68.7143 13.6723 68.4461 13.5606 68.1094 13.5606C67.3018 13.5606 66.8763 14.0075 66.8319 14.9024H69.1408Z" fill="#1C2024"/>
<path d="M70.6182 17.0961C70.5507 17.0961 70.4841 17.073 70.4841 16.9613V13.3614C70.4841 13.295 70.5063 13.2275 70.6182 13.2275H70.7755C70.8652 13.2275 70.9096 13.2497 70.9096 13.3614L70.9318 13.8084C71.1113 13.5849 71.3129 13.4289 71.4924 13.3614C71.6718 13.2719 71.8966 13.2275 72.1205 13.2275C72.2102 13.2275 72.2777 13.2275 72.2999 13.2275C72.3675 13.2275 72.434 13.2497 72.434 13.3614V13.5406C72.434 13.5628 72.434 13.5628 72.4118 13.6071C72.4118 13.6302 72.3897 13.6302 72.3443 13.6302C72.2999 13.6302 72.2546 13.6302 72.2102 13.6302C72.188 13.6302 72.1205 13.6302 72.0529 13.6302C71.8291 13.6302 71.6053 13.6524 71.4258 13.7641C71.2463 13.8537 71.0891 13.9876 70.8874 14.1668V16.9613C70.8874 17.0287 70.8652 17.0961 70.7533 17.0961H70.6182Z" fill="#1C2024"/>
<path d="M48.5828 25.5216C48.5163 25.5216 48.4487 25.4995 48.4487 25.3877V21.8101C48.4487 21.7436 48.4709 21.6762 48.5828 21.6762H48.7401C48.8298 21.6762 48.8742 21.6984 48.8742 21.8101L48.8974 22.1232C49.1434 21.944 49.3904 21.8101 49.6818 21.7205C49.9732 21.6309 50.2201 21.5645 50.4662 21.5645C50.8473 21.5645 51.1165 21.654 51.3181 21.8554C51.4976 22.0336 51.6095 22.3245 51.6095 22.7271V25.3877C51.6095 25.4552 51.5873 25.5216 51.4754 25.5216H51.2506C51.184 25.5216 51.1165 25.4995 51.1165 25.3877V22.9063C51.1165 22.5701 51.0489 22.3466 50.937 22.1906C50.8029 22.0336 50.6013 21.9671 50.3321 21.9671C49.8391 21.9671 49.3229 22.1232 48.852 22.4584V25.4099C48.852 25.4773 48.8298 25.5448 48.7179 25.5448H48.5607V25.5216H48.5828Z" fill="#1C2024"/>
<path d="M54.4298 25.6347C53.8239 25.6347 53.354 25.4786 53.0849 25.1434C52.7703 24.8082 52.614 24.2938 52.614 23.6002C52.614 22.9741 52.7703 22.4828 53.0849 22.1244C53.3984 21.7892 53.8471 21.5879 54.3623 21.5879C54.8331 21.5879 55.1698 21.7218 55.439 21.9905C55.685 22.2362 55.8201 22.6167 55.8201 23.1089C55.8201 23.2871 55.8201 23.4442 55.797 23.5781C55.797 23.6455 55.7304 23.7119 55.6629 23.7119H53.0849C53.0849 24.2485 53.219 24.6511 53.4206 24.8968C53.6454 25.1434 54.0265 25.2773 54.4973 25.2773C54.8785 25.2773 55.2142 25.2099 55.5278 25.0981C55.5953 25.076 55.6629 25.076 55.6629 25.076C55.6851 25.076 55.685 25.076 55.7304 25.0981C55.7304 25.1212 55.7526 25.1212 55.7526 25.1656V25.2995C55.7526 25.389 55.7304 25.4343 55.6629 25.4565C55.2818 25.5461 54.8553 25.6347 54.4298 25.6347ZM55.3715 23.3324C55.3715 23.265 55.3715 23.1754 55.3715 23.0858C55.3715 22.7063 55.2818 22.4597 55.1245 22.2815C54.945 22.1023 54.6758 21.9905 54.3401 21.9905C53.5325 21.9905 53.107 22.4375 53.0617 23.3324H55.3715Z" fill="#1C2024"/>
<path d="M57.9527 25.5902C57.6382 25.5902 57.4143 25.5006 57.257 25.3445C57.1007 25.1875 57.011 24.964 57.011 24.651V22.0799H56.4051C56.3385 22.0799 56.271 22.0578 56.271 21.946V21.8786C56.271 21.8565 56.271 21.8112 56.2932 21.789C56.2932 21.7669 56.3154 21.7669 56.3829 21.7669L57.011 21.6994L57.0776 20.6938C57.0776 20.6716 57.1007 20.6263 57.1007 20.6042C57.1229 20.582 57.1229 20.582 57.1895 20.582H57.3246C57.3921 20.582 57.4587 20.6042 57.4587 20.7159V21.7226H58.5576C58.6252 21.7226 58.6917 21.7447 58.6917 21.8565V22.0125C58.6917 22.0799 58.6696 22.1474 58.5576 22.1474H57.4819V24.6741C57.4819 24.8976 57.504 25.0093 57.616 25.121C57.7279 25.2328 57.863 25.2549 58.0646 25.2549C58.2209 25.2549 58.356 25.255 58.4457 25.2328C58.5123 25.2328 58.5354 25.2106 58.5798 25.2106C58.602 25.2106 58.6474 25.2106 58.6474 25.2106C58.7149 25.2106 58.7371 25.2328 58.7371 25.2993V25.4341C58.7371 25.5237 58.7149 25.568 58.6474 25.5902C58.4235 25.5459 58.1987 25.5902 57.9527 25.5902Z" fill="#1C2024"/>
<path d="M60.4221 25.5239C60.3546 25.5239 60.288 25.5017 60.2648 25.4352L59.0771 21.9019C59.0549 21.8345 59.0549 21.8123 59.0549 21.768C59.0549 21.7227 59.0771 21.7006 59.1447 21.7006H59.3907C59.4582 21.7006 59.4804 21.7227 59.5258 21.7901L60.5562 25.0104L61.4757 21.7901C61.4979 21.7227 61.5432 21.7006 61.6329 21.7006H61.9243C61.9919 21.7006 62.0584 21.7227 62.0816 21.7901L63.0001 25.0104L64.0768 21.7458C64.099 21.6784 64.1434 21.6562 64.2109 21.6562H64.4348C64.5023 21.6562 64.5245 21.6784 64.5245 21.7227C64.5245 21.7458 64.5245 21.7901 64.5023 21.8576L63.2471 25.39C63.2249 25.4574 63.1796 25.4795 63.0898 25.4795H62.8438C62.7763 25.4795 62.7087 25.4574 62.6865 25.39L61.7671 22.1706L60.8485 25.39C60.8254 25.4574 60.781 25.4795 60.6913 25.4795H60.4674V25.5239H60.4221Z" fill="#1C2024"/>
<path d="M66.7457 25.6334C66.1852 25.6334 65.7375 25.4552 65.423 25.0968C65.1094 24.7616 64.9521 24.2472 64.9521 23.5989C64.9521 22.9728 65.1094 22.4815 65.423 22.101C65.7375 21.7658 66.1852 21.5645 66.7457 21.5645C67.3063 21.5645 67.755 21.7436 68.0685 22.101C68.3831 22.4362 68.5394 22.9506 68.5394 23.5989C68.5394 24.2251 68.3831 24.7173 68.0685 25.0968C67.7328 25.4552 67.3063 25.6334 66.7457 25.6334ZM66.7457 25.2317C67.6208 25.2317 68.0685 24.6951 68.0685 23.5989C68.0685 22.5037 67.6208 21.9671 66.7457 21.9671C65.8716 21.9671 65.423 22.5037 65.423 23.5989C65.423 24.6951 65.8494 25.2317 66.7457 25.2317Z" fill="#1C2024"/>
<path d="M69.6102 25.5232C69.5426 25.5232 69.4751 25.501 69.4751 25.3893V21.8116C69.4751 21.7452 69.4983 21.6777 69.6102 21.6777H69.7665C69.8562 21.6777 69.9016 21.6999 69.9016 21.8116L69.9237 22.2586C70.1032 22.0351 70.3049 21.8791 70.4843 21.8116C70.6638 21.7221 70.8876 21.6777 71.1124 21.6777C71.2021 21.6777 71.2687 21.6777 71.2909 21.6777C71.3584 21.6777 71.426 21.6999 71.426 21.8116V21.9908C71.426 22.013 71.426 22.013 71.4038 22.0582C71.3806 22.0804 71.3806 22.0804 71.3362 22.0804C71.3141 22.0804 71.2465 22.0804 71.2021 22.0804C71.179 22.0804 71.1124 22.0804 71.0449 22.0804C70.821 22.0804 70.5962 22.1026 70.4168 22.2143C70.2373 22.3039 70.081 22.4378 69.8794 22.6169V25.4115C69.8794 25.4789 69.8562 25.5463 69.7443 25.5463H69.588V25.5232H69.6102Z" fill="#1C2024"/>
<path d="M72.2357 25.5236C72.1691 25.5236 72.1016 25.5015 72.1016 25.3897V20.0011C72.1016 19.9337 72.1238 19.8672 72.2357 19.8672H72.4605C72.528 19.8672 72.5946 19.8894 72.5946 20.0011V23.3996L74.4104 21.7678C74.4779 21.7003 74.5455 21.7003 74.5899 21.7003H74.8812C74.9488 21.7003 74.9709 21.7225 74.9709 21.7678C74.9709 21.8121 74.9488 21.8342 74.8812 21.9017L73.021 23.5344L75.0385 25.3897C75.0607 25.4119 75.106 25.4572 75.106 25.4793C75.106 25.5467 75.0838 25.5468 75.0163 25.5468H74.7018C74.6352 25.5468 74.5677 25.5236 74.5455 25.4793L72.5946 23.6683V25.4119C72.5946 25.4793 72.5724 25.5468 72.4605 25.5468H72.2357V25.5236Z" fill="#1C2024"/>
<path d="M13.8464 35.2069C13.4204 35.0498 13.1066 34.8495 12.9272 34.625C12.7478 34.4015 12.6582 34.1116 12.6582 33.7533C12.6582 33.3063 12.8151 32.9489 13.1514 32.6802C13.4877 32.4114 13.9361 32.2775 14.4966 32.2775C14.9673 32.2775 15.4158 32.3671 15.8641 32.5463V33.3506C15.3933 33.2167 14.9673 33.1271 14.5638 33.1271C14.0034 33.1271 13.7119 33.3063 13.7119 33.6637C13.7119 33.7985 13.7567 33.9103 13.8464 33.9989C13.9361 34.0885 14.1378 34.1781 14.4068 34.2677L14.9449 34.469C15.3933 34.625 15.7071 34.8264 15.8865 35.0277C16.0659 35.2512 16.178 35.5199 16.178 35.8773C16.178 36.3696 15.9986 36.7501 15.6399 37.04C15.2812 37.3309 14.8104 37.4648 14.1827 37.4648C13.9136 37.4648 13.6446 37.4427 13.3755 37.3984C13.1066 37.3531 12.8823 37.2866 12.6806 37.197V36.3696C12.9272 36.437 13.1738 36.5035 13.4429 36.5487C13.7119 36.593 13.9585 36.6152 14.1827 36.6152C14.4741 36.6152 14.6759 36.5709 14.8328 36.4591C14.9898 36.3474 15.057 36.2125 15.057 36.0122C15.057 35.8552 15.0122 35.7434 14.9225 35.6538C14.8328 35.5642 14.6311 35.4747 14.362 35.3629L13.8464 35.2069ZM17.792 35.8108C17.8142 36.1239 17.9039 36.3474 18.0834 36.5035C18.2629 36.6374 18.532 36.7048 18.891 36.7048C19.2045 36.7048 19.5856 36.6373 20.0121 36.5256V37.2192C19.8548 37.3088 19.6532 37.3752 19.4062 37.4205C19.1823 37.4648 18.9353 37.4879 18.6893 37.4879C18.0834 37.4879 17.6126 37.3309 17.2989 36.9957C16.985 36.6605 16.8282 36.1904 16.8282 35.5421C16.8282 34.9381 16.985 34.469 17.2989 34.1116C17.6126 33.7754 18.0612 33.5972 18.6218 33.5972C19.0926 33.5972 19.4515 33.7311 19.7197 33.9989C19.9667 34.2677 20.1008 34.625 20.1008 35.1173C20.1008 35.229 20.1008 35.3408 20.0787 35.4747C20.0565 35.6095 20.0565 35.7213 20.0343 35.8108H17.792ZM18.5542 34.3351C18.3082 34.3351 18.1288 34.4016 17.9937 34.5364C17.8596 34.6703 17.792 34.8716 17.7698 35.1394H19.1823V35.0277C19.1823 34.5586 18.9807 34.3351 18.5542 34.3351ZM22.5004 37.3088C22.2987 37.3984 22.0739 37.4205 21.8501 37.4205C21.1998 37.4205 20.8862 37.0631 20.8862 36.3474V32.0762H21.9398V36.2578C21.9398 36.3917 21.962 36.4813 22.0073 36.5487C22.0517 36.593 22.1193 36.6373 22.2312 36.6373C22.2987 36.6373 22.3884 36.6374 22.5004 36.6152V37.3088ZM24.0026 35.8108C24.0248 36.1239 24.1145 36.3474 24.294 36.5035C24.4734 36.6374 24.7416 36.7048 25.1006 36.7048C25.4151 36.7048 25.7962 36.6373 26.2217 36.5256V37.2192C26.0644 37.3088 25.8628 37.3752 25.6167 37.4205C25.3919 37.4648 25.1459 37.4879 24.8989 37.4879C24.294 37.4879 23.8231 37.3309 23.5086 36.9957C23.195 36.6605 23.0378 36.1904 23.0378 35.5421C23.0378 34.9381 23.195 34.469 23.5086 34.1116C23.8231 33.7754 24.2708 33.5972 24.8314 33.5972C25.3022 33.5972 25.6611 33.7311 25.9303 33.9989C26.1773 34.2677 26.3114 34.625 26.3114 35.1173C26.3114 35.229 26.3114 35.3408 26.2892 35.4747C26.267 35.6095 26.267 35.7213 26.2439 35.8108H24.0026ZM24.787 34.3351C24.54 34.3351 24.3605 34.4016 24.2264 34.5364C24.0923 34.6703 24.0248 34.8716 24.0026 35.1394H25.4151V35.0277C25.3919 34.5586 25.1903 34.3351 24.787 34.3351ZM29.7414 37.2192C29.6073 37.2866 29.45 37.3531 29.2705 37.3984C29.0911 37.4427 28.8894 37.4648 28.71 37.4648C28.1272 37.4648 27.6786 37.3088 27.365 36.9735C27.0514 36.6373 26.8942 36.1682 26.8942 35.5642C26.8942 34.9612 27.0514 34.4911 27.3872 34.1559C27.7239 33.8207 28.1726 33.6415 28.7331 33.6415C29.0911 33.6415 29.4056 33.709 29.697 33.865V34.5586C29.4056 34.469 29.1586 34.4468 28.9116 34.4468C28.5759 34.4468 28.3289 34.5364 28.1726 34.6925C28.0153 34.8716 27.9478 35.1394 27.9478 35.4978V35.6095C27.9478 35.9669 28.0153 36.2357 28.1726 36.4139C28.3289 36.593 28.5759 36.6605 28.8894 36.6605C29.1142 36.6605 29.4056 36.6152 29.697 36.5256V37.2192H29.7414ZM32.6561 37.2866C32.3869 37.3752 32.1177 37.4427 31.782 37.4427C31.3777 37.4427 31.0641 37.3531 30.8847 37.1517C30.683 36.9504 30.5933 36.6605 30.5933 36.2578V34.4911H30.0327V33.8428L30.6155 33.7311L30.7728 32.7245H31.6247V33.709H32.6108V34.4911H31.6247V36.2125C31.6247 36.3696 31.67 36.4813 31.7366 36.5487C31.8042 36.6152 31.9383 36.6373 32.1177 36.6373C32.275 36.6373 32.4323 36.6152 32.6339 36.593V37.2866H32.6561Z" fill="#1C2024"/>
<path d="M35.2765 36.8936C35.2341 36.8936 35.216 36.8761 35.216 36.8355V34.3676H34.3318C34.2894 34.3676 34.2712 34.3501 34.2712 34.3093V34.2165C34.2712 34.1759 34.2894 34.1584 34.3318 34.1584H36.3425C36.3848 34.1584 36.403 34.1759 36.403 34.2165V34.3093C36.403 34.3501 36.3848 34.3676 36.3425 34.3676H35.4582V36.8355C35.4582 36.8761 35.4401 36.8936 35.3977 36.8936H35.2765ZM37.6748 36.9516C37.3478 36.9516 37.1054 36.8646 36.936 36.6844C36.7723 36.5046 36.6876 36.2431 36.6876 35.8946C36.6876 35.5637 36.7723 35.3082 36.936 35.1223C37.1054 34.9365 37.3355 34.8494 37.6324 34.8494C37.8807 34.8494 38.0744 34.9192 38.2076 35.0528C38.341 35.1921 38.4075 35.3838 38.4075 35.6392C38.4075 35.7438 38.4015 35.8251 38.3892 35.8774C38.3832 35.9179 38.359 35.9354 38.3168 35.9354H36.9237C36.9237 36.2141 36.9904 36.4173 37.1116 36.5451C37.2326 36.6787 37.4265 36.7425 37.6868 36.7425C37.8867 36.7425 38.0744 36.7077 38.25 36.6439C38.2863 36.6321 38.3105 36.6264 38.3228 36.6264C38.3348 36.6264 38.341 36.6321 38.353 36.6379C38.359 36.6497 38.3652 36.6554 38.3652 36.6729V36.731C38.3652 36.7715 38.353 36.8005 38.3168 36.8123C38.1289 36.9051 37.911 36.9516 37.6748 36.9516ZM38.1833 35.7553C38.1833 35.7205 38.1896 35.674 38.1896 35.6277C38.1896 35.4361 38.1411 35.2967 38.0442 35.1979C37.9472 35.0991 37.808 35.0528 37.6201 35.0528C37.1841 35.0528 36.954 35.2907 36.9297 35.761H38.1833V35.7553ZM39.7942 36.9399C39.4794 36.9399 39.2373 36.8528 39.0676 36.6787C38.9042 36.5046 38.8193 36.2431 38.8193 35.9064C38.8193 35.5694 38.9042 35.314 39.0676 35.1341C39.2373 34.954 39.4794 34.8669 39.7942 34.8669C39.9457 34.8669 40.0911 34.8902 40.2243 34.9425C40.2545 34.954 40.2728 34.983 40.2728 35.0238V35.0818C40.2728 35.1166 40.2545 35.1341 40.2243 35.1341C40.2183 35.1341 40.206 35.1341 40.194 35.1281C40.1818 35.1224 40.1638 35.1223 40.1336 35.1166C40.0244 35.0933 39.9154 35.0758 39.8065 35.0758C39.5461 35.0758 39.3582 35.1399 39.2433 35.2674C39.1281 35.3953 39.0676 35.5987 39.0676 35.8831V35.9297C39.0676 36.2026 39.1281 36.4057 39.2433 36.5336C39.3582 36.6612 39.5461 36.731 39.8005 36.731C39.9094 36.731 40.0244 36.7135 40.1578 36.6787C40.1881 36.6729 40.206 36.6672 40.2183 36.6612C40.2303 36.6554 40.2425 36.6554 40.2485 36.6554C40.2788 36.6554 40.297 36.6729 40.297 36.7077V36.7657C40.297 36.8065 40.2847 36.8355 40.2545 36.8471C40.1153 36.9051 39.9579 36.9399 39.7942 36.9399ZM40.8542 36.8936C40.8117 36.8936 40.7935 36.8761 40.7935 36.8355V34.0306C40.7935 33.9901 40.8117 33.9725 40.8542 33.9725H40.9632C41.0056 33.9725 41.0236 33.9901 41.0236 34.0306V35.1341C41.1571 35.0468 41.2962 34.9772 41.4477 34.925C41.5931 34.8727 41.7383 34.8494 41.8777 34.8494C42.0773 34.8494 42.2287 34.9017 42.3379 35.0005C42.4469 35.0991 42.4954 35.2502 42.4954 35.4476V36.8355C42.4954 36.8761 42.4771 36.8936 42.4346 36.8936H42.3257C42.2835 36.8936 42.2652 36.8761 42.2652 36.8355V35.5464C42.2652 35.3778 42.2287 35.2502 42.1623 35.1746C42.0956 35.0991 41.9866 35.0586 41.8352 35.0586C41.5626 35.0586 41.2962 35.1399 41.0359 35.3082V36.8355C41.0359 36.8761 41.0176 36.8936 40.9751 36.8936H40.8542ZM43.1918 36.8936C43.1493 36.8936 43.1313 36.8761 43.1313 36.8355V34.9655C43.1313 34.925 43.1493 34.9074 43.1918 34.9074H43.2765C43.3189 34.9074 43.3432 34.925 43.3492 34.9655L43.3674 35.1341C43.5006 35.041 43.646 34.9715 43.7912 34.9192C43.9366 34.8669 44.0821 34.8437 44.2212 34.8437C44.4211 34.8437 44.5725 34.8959 44.6815 34.9945C44.7904 35.0933 44.8389 35.2444 44.8389 35.4418V36.8355C44.8389 36.8761 44.8209 36.8936 44.7784 36.8936H44.6695C44.627 36.8936 44.6088 36.8761 44.6088 36.8355V35.5464C44.6088 35.3778 44.5725 35.2502 44.5058 35.1746C44.4394 35.0991 44.3302 35.0586 44.179 35.0586C43.9064 35.0586 43.64 35.1399 43.3794 35.3082V36.8355C43.3794 36.8761 43.3614 36.8936 43.3189 36.8936H43.1918ZM46.3167 36.9516C46.0138 36.9516 45.7777 36.8588 45.6143 36.6729C45.4446 36.487 45.3659 36.2256 45.3659 35.8946C45.3659 35.5637 45.4506 35.3082 45.6143 35.1223C45.7837 34.9365 46.0198 34.8437 46.3167 34.8437C46.6195 34.8437 46.8556 34.9365 47.019 35.1223C47.1887 35.3082 47.2734 35.5637 47.2734 35.8946C47.2734 36.2256 47.1887 36.487 47.019 36.6729C46.8556 36.8588 46.6195 36.9516 46.3167 36.9516ZM46.3167 36.7482C46.7889 36.7482 47.0313 36.4638 47.0313 35.9006C47.0313 35.3372 46.7952 35.0586 46.3167 35.0586C45.8444 35.0586 45.602 35.3372 45.602 35.9006C45.602 36.4638 45.8381 36.7482 46.3167 36.7482ZM48.1577 36.9051C48.0488 36.9051 47.9638 36.8761 47.9033 36.8123C47.8429 36.7485 47.8124 36.6672 47.8124 36.5508V34.0248C47.8124 33.9843 47.8306 33.9668 47.8731 33.9668H47.982C48.0245 33.9668 48.0425 33.9843 48.0425 34.0248V36.5451C48.0425 36.6031 48.0548 36.6439 48.079 36.6672C48.1032 36.6902 48.1455 36.7019 48.2062 36.7019C48.2244 36.7019 48.2424 36.7019 48.2607 36.6962C48.2789 36.6962 48.2969 36.6902 48.3091 36.6902C48.3454 36.6902 48.3696 36.7077 48.3696 36.7482V36.8238C48.3696 36.8588 48.3516 36.8761 48.3151 36.8818C48.2666 36.8993 48.2182 36.9051 48.1577 36.9051ZM49.6839 36.9516C49.3811 36.9516 49.1447 36.8588 48.9813 36.6729C48.8116 36.487 48.7329 36.2256 48.7329 35.8946C48.7329 35.5637 48.8179 35.3082 48.9813 35.1223C49.1509 34.9365 49.3871 34.8437 49.6839 34.8437C49.9865 34.8437 50.2229 34.9365 50.3863 35.1223C50.556 35.3082 50.6407 35.5637 50.6407 35.8946C50.6407 36.2256 50.556 36.487 50.3863 36.6729C50.2229 36.8588 49.9865 36.9516 49.6839 36.9516ZM49.6839 36.7482C50.1562 36.7482 50.3983 36.4638 50.3983 35.9006C50.3983 35.3372 50.1622 35.0586 49.6839 35.0586C49.2114 35.0586 48.9693 35.3372 48.9693 35.9006C48.9753 36.4638 49.2114 36.7482 49.6839 36.7482ZM51.9063 37.7529C51.7913 37.7529 51.6761 37.7414 51.5672 37.7182C51.4583 37.6949 51.3613 37.6659 51.2766 37.6253C51.2464 37.6136 51.2281 37.5846 51.2281 37.544V37.4857C51.2281 37.451 51.2401 37.4337 51.2766 37.4337C51.2826 37.4337 51.2946 37.4337 51.3008 37.4395C51.3128 37.4395 51.3311 37.4452 51.3553 37.4567C51.549 37.5148 51.7306 37.5498 51.8883 37.5498C52.1427 37.5498 52.3303 37.4917 52.4515 37.3697C52.5724 37.2478 52.6332 37.0562 52.6332 36.7948V36.6031C52.5302 36.6844 52.421 36.7482 52.2938 36.7948C52.1729 36.8413 52.0517 36.8646 51.9428 36.8646C51.6761 36.8646 51.4703 36.7715 51.3068 36.5916C51.1494 36.4115 51.0707 36.1736 51.0707 35.8774C51.0707 35.5579 51.1494 35.3082 51.3068 35.1223C51.4643 34.9365 51.6824 34.8437 51.9548 34.8437C52.2151 34.8437 52.4393 34.9307 52.6392 35.1051L52.6574 34.9597C52.6634 34.9192 52.6876 34.9017 52.7299 34.9017H52.8148C52.857 34.9017 52.8753 34.9192 52.8753 34.9597V36.7948C52.8753 37.1025 52.7906 37.3406 52.6269 37.5033C52.4635 37.6659 52.2151 37.7529 51.9063 37.7529ZM51.9972 36.6612C52.2031 36.6612 52.415 36.5799 52.6332 36.4115V35.314C52.518 35.2269 52.415 35.1571 52.3061 35.1166C52.2031 35.0758 52.0879 35.0528 51.973 35.0528C51.7549 35.0528 51.5854 35.1224 51.4765 35.2559C51.3673 35.3953 51.3128 35.5927 51.3128 35.8656C51.3128 36.1213 51.3736 36.3187 51.4885 36.458C51.6037 36.5974 51.7731 36.6612 51.9972 36.6612ZM53.5839 37.7529C53.5172 37.7529 53.4567 37.7414 53.3963 37.7239C53.3538 37.7124 53.3355 37.6891 53.3355 37.6426V37.5846C53.3355 37.5498 53.3538 37.5323 53.384 37.5323C53.4023 37.5323 53.4143 37.5323 53.4265 37.538C53.4385 37.538 53.4567 37.544 53.481 37.544C53.5052 37.544 53.5294 37.544 53.5657 37.544C53.6566 37.544 53.7293 37.5208 53.7838 37.4742C53.8383 37.4277 53.8868 37.3464 53.9352 37.2303L54.0744 36.8993L53.2628 34.9888C53.2508 34.9655 53.2448 34.9482 53.2448 34.9365C53.2448 34.9074 53.2628 34.8902 53.2931 34.8902H53.4265C53.4627 34.8902 53.487 34.9074 53.4992 34.9425L54.1894 36.6379L54.886 34.9425C54.898 34.9074 54.9222 34.8902 54.9587 34.8902H55.0796C55.1099 34.8902 55.1281 34.9017 55.1281 34.9365C55.1281 34.9425 55.1221 34.9597 55.1099 34.9888L54.1411 37.3001C54.0744 37.4627 53.9957 37.5731 53.911 37.6426C53.826 37.7239 53.7171 37.7529 53.5839 37.7529Z" fill="#1C2024"/>
<path d="M57.0997 37.6743C57.0456 37.6743 57.0225 37.6509 57.0225 37.5956V34.0455C57.0225 33.9905 57.0456 33.9668 57.0997 33.9668H58.274C58.6061 33.9668 58.8688 34.0692 59.0699 34.2659C59.2707 34.4629 59.3635 34.7305 59.3635 35.0689C59.3635 35.3995 59.2631 35.6671 59.0699 35.8638C58.8688 36.0608 58.6061 36.1629 58.274 36.1629H57.3238V37.5956C57.3238 37.6509 57.3006 37.6743 57.2465 37.6743H57.0997ZM58.2663 35.8797C58.784 35.8797 59.0467 35.6121 59.0467 35.0689C59.0467 34.5256 58.784 34.2503 58.2663 34.2503H57.3238V35.8797H58.2663ZM60.6535 37.7373C60.4142 37.7373 60.221 37.6665 60.074 37.5247C59.935 37.383 59.8579 37.1941 59.8579 36.9581C59.8579 36.6983 59.9427 36.4935 60.1206 36.3439C60.2981 36.1944 60.5378 36.1157 60.8391 36.1157C61.0708 36.1157 61.3258 36.1551 61.5885 36.2419V35.7932C61.5885 35.5728 61.5343 35.4233 61.4339 35.3287C61.3335 35.234 61.1636 35.1869 60.9318 35.1869C60.6921 35.1869 60.4371 35.234 60.1668 35.3209C60.1359 35.3287 60.1049 35.3365 60.0897 35.3365C60.0587 35.3365 60.0355 35.3131 60.0355 35.2656V35.1791C60.0355 35.1476 60.0431 35.132 60.0511 35.116C60.0587 35.1004 60.082 35.0845 60.1049 35.0767C60.3832 34.9665 60.6768 34.9115 60.9857 34.9115C61.2949 34.9115 61.519 34.9743 61.6733 35.1082C61.8279 35.2422 61.8974 35.4389 61.8974 35.7064V37.5956C61.8974 37.6509 61.8741 37.6743 61.8202 37.6743H61.7118C61.658 37.6743 61.6347 37.6509 61.6271 37.5956L61.6038 37.3674C61.2949 37.6112 60.9781 37.7373 60.6535 37.7373ZM60.6921 37.4538C60.8234 37.4538 60.9704 37.4304 61.1247 37.3752C61.2793 37.3202 61.4339 37.2416 61.5961 37.1391V36.4701C61.3644 36.407 61.1327 36.3755 60.9162 36.3755C60.4295 36.3755 60.1824 36.5644 60.1824 36.9503C60.1824 37.1154 60.2286 37.2416 60.3137 37.328C60.3909 37.4145 60.5222 37.4538 60.6921 37.4538ZM62.7781 37.6743C62.7239 37.6743 62.701 37.6509 62.701 37.5956V35.0611C62.701 35.0058 62.7239 34.9824 62.7781 34.9824H62.8785C62.9327 34.9824 62.9636 35.0058 62.9713 35.0611L62.9946 35.3758C63.1259 35.2262 63.2572 35.116 63.3886 35.0611C63.5199 34.998 63.6589 34.9665 63.8211 34.9665C63.8753 34.9665 63.9215 34.9665 63.9601 34.9743C64.0143 34.9743 64.0376 35.0058 64.0376 35.0611V35.1947C64.0376 35.2106 64.0296 35.2262 64.0219 35.234C64.0143 35.25 63.9987 35.25 63.9834 35.25C63.9524 35.25 63.9292 35.25 63.9062 35.25C63.883 35.25 63.8444 35.25 63.7978 35.25C63.6356 35.25 63.4966 35.2815 63.3729 35.3442C63.2496 35.4073 63.1259 35.5019 63.0175 35.6355V37.6034C63.0175 37.6587 62.9946 37.6821 62.9404 37.6821H62.7781V37.6743ZM65.32 37.7058C65.1115 37.7058 64.9569 37.6509 64.8485 37.5406C64.7404 37.4304 64.6866 37.265 64.6866 37.0523V35.2578H64.2693C64.2151 35.2578 64.1918 35.234 64.1918 35.1791V35.1242C64.1918 35.0926 64.1998 35.0767 64.2075 35.0611C64.2151 35.0452 64.2384 35.0374 64.2693 35.0374L64.6942 34.998L64.7328 34.2896C64.7328 34.2581 64.7404 34.2425 64.7561 34.2266C64.7714 34.211 64.787 34.211 64.8099 34.211H64.9027C64.9569 34.211 64.9802 34.2347 64.9802 34.2896V34.9902H65.7449C65.7991 34.9902 65.822 35.014 65.822 35.0689V35.1791C65.822 35.234 65.7991 35.2578 65.7449 35.2578H64.9802V37.0367C64.9802 37.1863 65.0107 37.2887 65.0726 37.3436C65.1344 37.4067 65.2348 37.4382 65.3818 37.4382C65.4822 37.4382 65.575 37.4304 65.6521 37.4145C65.6907 37.4067 65.7216 37.3989 65.7449 37.3989C65.7681 37.3911 65.7834 37.3911 65.7991 37.3911C65.8376 37.3911 65.8606 37.4145 65.8606 37.4538V37.5325C65.8606 37.5956 65.8453 37.6271 65.7991 37.6427C65.6598 37.6821 65.4975 37.7058 65.32 37.7058ZM66.4866 37.6743C66.4324 37.6743 66.4092 37.6509 66.4092 37.5956V35.0611C66.4092 35.0058 66.4324 34.9824 66.4866 34.9824H66.5947C66.6489 34.9824 66.6798 35.0058 66.6875 35.0611L66.7104 35.2893C66.8806 35.1635 67.0658 35.0689 67.2513 34.998C67.4369 34.9271 67.6221 34.8956 67.7999 34.8956C68.055 34.8956 68.2481 34.9665 68.3871 35.1004C68.5261 35.234 68.5879 35.4389 68.5879 35.7064V37.5956C68.5879 37.6509 68.5647 37.6743 68.5108 37.6743H68.3715C68.3176 37.6743 68.2944 37.6509 68.2944 37.5956V35.8482C68.2944 35.6199 68.2481 35.4467 68.163 35.3442C68.0779 35.2422 67.9389 35.1869 67.7458 35.1869C67.3983 35.1869 67.0582 35.2971 66.726 35.5253V37.5956C66.726 37.6509 66.7028 37.6743 66.6489 37.6743H66.4866ZM70.5117 37.7529C70.0944 37.7529 69.7855 37.6349 69.5691 37.3911C69.3606 37.1469 69.2522 36.7926 69.2522 36.3205C69.2522 35.8719 69.3606 35.5253 69.5691 35.2737C69.7855 35.0218 70.0791 34.9038 70.4575 34.9038C70.7743 34.9038 71.0214 34.998 71.1916 35.1791C71.3615 35.368 71.4463 35.6277 71.4463 35.974C71.4463 36.1157 71.4386 36.2259 71.4234 36.2968C71.4157 36.3521 71.3848 36.3755 71.3306 36.3755H69.5538C69.5538 36.7532 69.6386 37.0289 69.7932 37.2019C69.9478 37.383 70.1948 37.4698 70.527 37.4698C70.782 37.4698 71.0214 37.4223 71.2455 37.3358C71.292 37.3202 71.3229 37.3121 71.3382 37.3121C71.3539 37.3121 71.3615 37.3202 71.3768 37.328C71.3848 37.3436 71.3924 37.3514 71.3924 37.3752V37.4538C71.3924 37.5091 71.3768 37.5484 71.3306 37.564C71.0912 37.6902 70.8129 37.7529 70.5117 37.7529ZM71.1607 36.1317C71.1607 36.0842 71.1683 36.0214 71.1683 35.9584C71.1683 35.6986 71.1065 35.5097 70.9828 35.3758C70.8591 35.2422 70.6816 35.1791 70.4422 35.1791C69.8859 35.1791 69.5924 35.5019 69.5614 36.1395H71.1607V36.1317ZM72.1957 37.6743C72.1418 37.6743 72.1186 37.6509 72.1186 37.5956V35.0611C72.1186 35.0058 72.1418 34.9824 72.1957 34.9824H72.2961C72.3503 34.9824 72.3812 35.0058 72.3889 35.0611L72.4122 35.3758C72.5435 35.2262 72.6748 35.116 72.8061 35.0611C72.9375 34.998 73.0765 34.9665 73.2387 34.9665C73.2929 34.9665 73.3391 34.9665 73.378 34.9743C73.4319 34.9743 73.4552 35.0058 73.4552 35.0611V35.1947C73.4552 35.2106 73.4475 35.2262 73.4395 35.234C73.4319 35.25 73.4166 35.25 73.401 35.25C73.37 35.25 73.3471 35.25 73.3238 35.25C73.3006 35.25 73.262 35.25 73.2158 35.25C73.0535 35.25 72.9142 35.2815 72.7909 35.3442C72.6672 35.4073 72.5435 35.5019 72.4354 35.6355V37.6034C72.4354 37.6587 72.4122 37.6821 72.358 37.6821H72.1957V37.6743Z" fill="#1C2024"/>
</svg>
