<svg width="87" height="50" viewBox="0 0 87 50" fill="none" xmlns="http://www.w3.org/2000/svg">
<g opacity="0.5">
<rect x="0.799561" y="0.799805" width="85.1931" height="47.6331" rx="1.83211" fill="#CDCED6"/>
<rect x="0.399774" y="0.400018" width="85.9927" height="48.4326" rx="2.2319" stroke="white" stroke-opacity="0.3" stroke-width="0.799573"/>
</g>
<path d="M31.5119 26.2973L29.3468 19.8351H29.3026C29.31 19.9824 29.321 20.1922 29.3357 20.4647C29.3505 20.7298 29.3615 21.0207 29.3689 21.3374C29.3836 21.6467 29.391 21.9376 29.391 22.2101V26.2973H28.1206V18.4101H30.0869L32.1637 24.6072H32.2079L34.373 18.4101H36.3393V26.2973H34.9916V22.1438C34.9916 21.8934 34.9953 21.6209 35.0027 21.3264C35.0174 21.0244 35.0284 20.7409 35.0358 20.4758C35.0505 20.2033 35.0616 19.9934 35.0689 19.8461H35.0247L32.7712 26.2973H31.5119Z" fill="#60646C"/>
<path d="M39.639 20.3101V26.2973H38.2472V20.3101H39.639ZM38.9431 18.0013C39.1493 18.0013 39.3297 18.0566 39.4844 18.167C39.639 18.2701 39.7164 18.4579 39.7164 18.7304C39.7164 18.9955 39.639 19.187 39.4844 19.3048C39.3297 19.4153 39.1493 19.4705 38.9431 19.4705C38.7295 19.4705 38.5454 19.4153 38.3908 19.3048C38.2435 19.187 38.1698 18.9955 38.1698 18.7304C38.1698 18.4579 38.2435 18.2701 38.3908 18.167C38.5454 18.0566 38.7295 18.0013 38.9431 18.0013Z" fill="#60646C"/>
<path d="M43.838 26.4078C43.2709 26.4078 42.7775 26.301 42.3577 26.0875C41.9453 25.8665 41.625 25.5314 41.3967 25.0822C41.1757 24.6256 41.0653 24.0438 41.0653 23.3369C41.0653 22.6004 41.1868 22.0039 41.4298 21.5473C41.6802 21.0833 42.0226 20.7446 42.4571 20.531C42.8916 20.3101 43.3887 20.1996 43.9484 20.1996C44.324 20.1996 44.6591 20.2364 44.9537 20.3101C45.2483 20.3837 45.4986 20.4721 45.7048 20.5752L45.2961 21.6688C45.0678 21.5804 44.8395 21.5068 44.6112 21.4479C44.3829 21.3816 44.162 21.3485 43.9484 21.3485C43.617 21.3485 43.3409 21.4221 43.1199 21.5694C42.9064 21.7167 42.748 21.9376 42.6449 22.2322C42.5418 22.5194 42.4903 22.8839 42.4903 23.3258C42.4903 23.7529 42.5418 24.1101 42.6449 24.3973C42.7554 24.6845 42.9174 24.9018 43.131 25.0491C43.3445 25.189 43.6097 25.259 43.9263 25.259C44.2651 25.259 44.5634 25.2185 44.8211 25.1375C45.0789 25.0564 45.3219 24.946 45.5502 24.8061V26.0101C45.3219 26.1501 45.0752 26.2495 44.8101 26.3084C44.5523 26.3747 44.2283 26.4078 43.838 26.4078Z" fill="#60646C"/>
<path d="M50.0901 20.1996C50.1785 20.1996 50.2816 20.2033 50.3994 20.2107C50.5172 20.218 50.6166 20.2328 50.6977 20.2548L50.5761 21.5473C50.5099 21.5326 50.4215 21.5215 50.311 21.5142C50.2079 21.4994 50.1159 21.4921 50.0349 21.4921C49.8139 21.4921 49.6004 21.5289 49.3942 21.6025C49.1953 21.6688 49.0149 21.7719 48.8529 21.9118C48.6982 22.0444 48.573 22.2175 48.4773 22.431C48.3889 22.6446 48.3447 22.8987 48.3447 23.1932V26.2973H46.9529V20.3101H48.0244L48.2232 21.3485H48.2895C48.4073 21.1349 48.5546 20.9434 48.7314 20.774C48.9081 20.5973 49.1106 20.4574 49.3389 20.3543C49.5746 20.2512 49.825 20.1996 50.0901 20.1996Z" fill="#60646C"/>
<path d="M56.9381 23.2927C56.9381 23.7934 56.8719 24.2353 56.7393 24.6183C56.6067 25.0012 56.4153 25.3289 56.1649 25.6014C55.9218 25.8665 55.6199 26.069 55.2591 26.209C54.9056 26.3415 54.5116 26.4078 54.0771 26.4078C53.6647 26.4078 53.2854 26.3415 52.9393 26.209C52.5931 26.069 52.2912 25.8665 52.0334 25.6014C51.783 25.3289 51.5879 25.0012 51.448 24.6183C51.308 24.2353 51.2381 23.7934 51.2381 23.2927C51.2381 22.6299 51.3522 22.0702 51.5805 21.6136C51.8088 21.1496 52.1365 20.7998 52.5637 20.5641C52.9982 20.3211 53.51 20.1996 54.0992 20.1996C54.6589 20.1996 55.1486 20.3211 55.5684 20.5641C55.9955 20.7998 56.3306 21.1496 56.5736 21.6136C56.8166 22.0702 56.9381 22.6299 56.9381 23.2927ZM52.6631 23.2927C52.6631 23.7124 52.711 24.0733 52.8067 24.3752C52.9098 24.6698 53.0645 24.8944 53.2707 25.0491C53.4842 25.2037 53.7567 25.2811 54.0881 25.2811C54.4269 25.2811 54.6994 25.2037 54.9056 25.0491C55.1191 24.8944 55.2738 24.6698 55.3695 24.3752C55.4653 24.0733 55.5131 23.7124 55.5131 23.2927C55.5131 22.8655 55.4616 22.5084 55.3585 22.2211C55.2627 21.9266 55.1081 21.7056 54.8945 21.5583C54.6883 21.4037 54.4195 21.3264 54.0881 21.3264C53.5873 21.3264 53.2228 21.4957 52.9945 21.8345C52.7736 22.1733 52.6631 22.6593 52.6631 23.2927Z" fill="#60646C"/>
<path d="M62.4533 24.563C62.4533 24.9607 62.3575 25.2995 62.166 25.5793C61.9746 25.8518 61.691 26.058 61.3154 26.1979C60.9472 26.3379 60.4943 26.4078 59.9567 26.4078C59.5369 26.4078 59.1761 26.3784 58.8741 26.3194C58.5722 26.2605 58.285 26.1685 58.0125 26.0433V24.8613C58.3071 25.0012 58.6348 25.119 58.9957 25.2148C59.3565 25.3105 59.6916 25.3584 60.0009 25.3584C60.3839 25.3584 60.66 25.2995 60.8294 25.1816C60.9988 25.0638 61.0835 24.9055 61.0835 24.7066C61.0835 24.5888 61.0503 24.482 60.9841 24.3863C60.9178 24.2905 60.7889 24.1911 60.5974 24.088C60.4059 23.9776 60.115 23.8413 59.7247 23.6793C59.3418 23.5246 59.0214 23.37 58.7637 23.2153C58.5133 23.0607 58.3218 22.8766 58.1893 22.663C58.0641 22.4421 58.0015 22.1659 58.0015 21.8345C58.0015 21.2969 58.215 20.8919 58.6422 20.6194C59.0693 20.3395 59.6327 20.1996 60.3323 20.1996C60.7005 20.1996 61.0466 20.2364 61.3707 20.3101C61.7021 20.3764 62.0335 20.4868 62.3649 20.6415L61.923 21.6688C61.7389 21.5878 61.5548 21.5178 61.3707 21.4589C61.1939 21.3926 61.0135 21.3411 60.8294 21.3043C60.6527 21.2675 60.4722 21.249 60.2881 21.249C59.9862 21.249 59.7579 21.2969 59.6032 21.3926C59.4486 21.481 59.3712 21.6062 59.3712 21.7682C59.3712 21.8934 59.4081 22.0039 59.4817 22.0996C59.5627 22.188 59.699 22.2801 59.8904 22.3758C60.0893 22.4642 60.3691 22.582 60.73 22.7293C61.0908 22.8692 61.3965 23.0165 61.6468 23.1712C61.9046 23.3184 62.1034 23.5026 62.2434 23.7235C62.3833 23.9444 62.4533 24.2243 62.4533 24.563Z" fill="#60646C"/>
<path d="M69.139 23.2927C69.139 23.7934 69.0728 24.2353 68.9402 24.6183C68.8076 25.0012 68.6162 25.3289 68.3658 25.6014C68.1228 25.8665 67.8208 26.069 67.46 26.209C67.1065 26.3415 66.7125 26.4078 66.278 26.4078C65.8656 26.4078 65.4863 26.3415 65.1402 26.209C64.794 26.069 64.4921 25.8665 64.2343 25.6014C63.984 25.3289 63.7888 25.0012 63.6489 24.6183C63.509 24.2353 63.439 23.7934 63.439 23.2927C63.439 22.6299 63.5531 22.0702 63.7814 21.6136C64.0097 21.1496 64.3374 20.7998 64.7646 20.5641C65.1991 20.3211 65.7109 20.1996 66.3001 20.1996C66.8598 20.1996 67.3495 20.3211 67.7693 20.5641C68.1964 20.7998 68.5315 21.1496 68.7745 21.6136C69.0175 22.0702 69.139 22.6299 69.139 23.2927ZM64.864 23.2927C64.864 23.7124 64.9119 24.0733 65.0076 24.3752C65.1107 24.6698 65.2654 24.8944 65.4716 25.0491C65.6851 25.2037 65.9576 25.2811 66.289 25.2811C66.6278 25.2811 66.9003 25.2037 67.1065 25.0491C67.32 24.8944 67.4747 24.6698 67.5704 24.3752C67.6662 24.0733 67.714 23.7124 67.714 23.2927C67.714 22.8655 67.6625 22.5084 67.5594 22.2211C67.4636 21.9266 67.309 21.7056 67.0954 21.5583C66.8892 21.4037 66.6204 21.3264 66.289 21.3264C65.7882 21.3264 65.4237 21.4957 65.1954 21.8345C64.9745 22.1733 64.864 22.6593 64.864 23.2927Z" fill="#60646C"/>
<path d="M73.6821 21.3595H72.235V26.2973H70.8431V21.3595H69.882V20.6967L70.8431 20.299V19.8903C70.8431 19.3748 70.9241 18.9698 71.0861 18.6752C71.2481 18.3806 71.4838 18.1707 71.7931 18.0455C72.1024 17.913 72.4669 17.8467 72.8867 17.8467C73.1813 17.8467 73.4464 17.8725 73.6821 17.924C73.9177 17.9682 74.1129 18.0197 74.2675 18.0787L73.914 19.117C73.7888 19.0802 73.6489 19.0471 73.4943 19.0176C73.347 18.9808 73.185 18.9624 73.0082 18.9624C72.7431 18.9624 72.5479 19.0471 72.4227 19.2165C72.2976 19.3858 72.235 19.6215 72.235 19.9234V20.3101H73.6821V21.3595Z" fill="#60646C"/>
<path d="M76.9971 25.2921C77.1738 25.2921 77.3432 25.2774 77.5052 25.2479C77.6672 25.2111 77.8182 25.1706 77.9581 25.1264V26.1648C77.8108 26.2311 77.6194 26.2863 77.3837 26.3305C77.1481 26.382 76.9013 26.4078 76.6436 26.4078C76.3048 26.4078 75.9955 26.3526 75.7157 26.2421C75.4432 26.1243 75.2223 25.9254 75.0529 25.6456C74.8909 25.3657 74.8098 24.9754 74.8098 24.4747V21.3595H74.0034V20.7519L74.8872 20.2659L75.329 18.9955H76.2017V20.3101H77.9029V21.3595H76.2017V24.4636C76.2017 24.7435 76.2754 24.9533 76.4227 25.0933C76.5699 25.2258 76.7614 25.2921 76.9971 25.2921Z" fill="#60646C"/>
<path d="M30.8489 32.3052C30.8489 32.6524 30.7649 32.9481 30.5967 33.1922C30.4285 33.4363 30.1871 33.6262 29.8725 33.7618C29.5578 33.892 29.1835 33.9571 28.7495 33.9571C28.538 33.9571 28.3345 33.9436 28.1392 33.9164C27.9439 33.8947 27.7622 33.8622 27.594 33.8188C27.4259 33.7754 27.2767 33.7211 27.1465 33.656V32.826C27.3635 32.9237 27.6184 33.0132 27.9114 33.0946C28.2043 33.1705 28.5027 33.2085 28.8065 33.2085C29.0669 33.2085 29.2839 33.1732 29.4575 33.1027C29.6311 33.0322 29.7613 32.9345 29.8481 32.8098C29.9349 32.685 29.9783 32.5385 29.9783 32.3703C29.9783 32.1913 29.9321 32.0421 29.8399 31.9228C29.7531 31.798 29.6148 31.6841 29.4249 31.581C29.2405 31.4725 28.9909 31.3586 28.6763 31.2393C28.4593 31.1579 28.2613 31.0684 28.0823 30.9707C27.9087 30.8677 27.7541 30.7483 27.6184 30.6127C27.4883 30.4771 27.3879 30.3197 27.3174 30.1407C27.2468 29.9617 27.2116 29.7529 27.2116 29.5142C27.2116 29.1941 27.2902 28.9201 27.4476 28.6923C27.6103 28.4644 27.8327 28.2909 28.1148 28.1715C28.3969 28.0467 28.7251 27.9843 29.0994 27.9843C29.4141 27.9843 29.7043 28.0169 29.9701 28.082C30.2414 28.1417 30.499 28.2258 30.7432 28.3343L30.4665 29.0585C30.2441 28.9662 30.0189 28.8903 29.7911 28.8306C29.5633 28.771 29.3246 28.7411 29.075 28.7411C28.858 28.7411 28.6763 28.7737 28.5298 28.8388C28.3834 28.9039 28.2721 28.9934 28.1962 29.1073C28.1257 29.2212 28.0904 29.3541 28.0904 29.506C28.0904 29.685 28.1311 29.8342 28.2125 29.9536C28.2938 30.0729 28.424 30.1841 28.6031 30.2872C28.7821 30.3848 29.0181 30.4933 29.311 30.6127C29.6365 30.7375 29.9132 30.8731 30.141 31.0196C30.3743 31.166 30.5506 31.3423 30.6699 31.5485C30.7893 31.7492 30.8489 32.0015 30.8489 32.3052Z" fill="#80838D"/>
<path d="M32.7515 29.4897V33.8757H31.8889V29.4897H32.7515ZM32.3283 27.8216C32.4585 27.8216 32.5725 27.8596 32.6701 27.9355C32.7678 28.0115 32.8166 28.139 32.8166 28.318C32.8166 28.4916 32.7678 28.6191 32.6701 28.7004C32.5725 28.7764 32.4585 28.8144 32.3283 28.8144C32.1873 28.8144 32.0679 28.7764 31.9703 28.7004C31.8781 28.6191 31.832 28.4916 31.832 28.318C31.832 28.139 31.8781 28.0115 31.9703 27.9355C32.0679 27.8596 32.1873 27.8216 32.3283 27.8216Z" fill="#80838D"/>
<path d="M34.9686 33.8757H34.106V27.6914H34.9686V33.8757Z" fill="#80838D"/>
<path d="M37.3077 33.8757L35.6477 29.4897H36.5591L37.4705 32.053C37.5084 32.1615 37.5464 32.2835 37.5844 32.4192C37.6278 32.5548 37.6658 32.685 37.6983 32.8098C37.7309 32.9345 37.7526 33.043 37.7634 33.1352H37.796C37.8122 33.043 37.8366 32.9345 37.8692 32.8098C37.9072 32.6796 37.9479 32.5494 37.9913 32.4192C38.0347 32.2835 38.0726 32.1615 38.1052 32.053L39.0166 29.4897H39.9279L38.2598 33.8757H37.3077Z" fill="#80838D"/>
<path d="M42.3314 29.4084C42.7166 29.4084 43.0475 29.4897 43.3242 29.6525C43.6008 29.8098 43.8124 30.0377 43.9589 30.336C44.1108 30.6344 44.1867 30.987 44.1867 31.3939V31.8658H41.241C41.2519 32.3161 41.3685 32.6606 41.5909 32.8993C41.8188 33.138 42.1361 33.2573 42.543 33.2573C42.8251 33.2573 43.0746 33.2329 43.2916 33.1841C43.514 33.1298 43.7419 33.0512 43.9751 32.9481V33.6642C43.7582 33.7618 43.5357 33.8351 43.3079 33.8839C43.0855 33.9327 42.8196 33.9571 42.5104 33.9571C42.0873 33.9571 41.713 33.873 41.3875 33.7049C41.062 33.5367 40.807 33.2871 40.6226 32.9562C40.4436 32.6199 40.3541 32.2076 40.3541 31.7194C40.3541 31.2257 40.4354 30.808 40.5982 30.4662C40.7663 30.1245 40.9969 29.8641 41.2898 29.685C41.5882 29.5006 41.9354 29.4084 42.3314 29.4084ZM42.3314 30.0756C42.0222 30.0756 41.7727 30.176 41.5828 30.3767C41.3983 30.5774 41.2898 30.8622 41.2573 31.2311H43.3242C43.3242 31.0033 43.2889 30.8026 43.2184 30.629C43.1479 30.4554 43.0394 30.3197 42.8929 30.2221C42.7464 30.1245 42.5593 30.0756 42.3314 30.0756Z" fill="#80838D"/>
<path d="M47.4275 29.4084C47.5035 29.4084 47.5875 29.4138 47.6798 29.4246C47.772 29.4301 47.8479 29.4382 47.9076 29.4491L47.8181 30.2546C47.7584 30.2384 47.6879 30.2248 47.6065 30.214C47.5252 30.2031 47.4492 30.1977 47.3787 30.1977C47.2159 30.1977 47.0586 30.2302 46.9067 30.2953C46.7603 30.355 46.6273 30.4445 46.508 30.5639C46.3887 30.6778 46.2937 30.8188 46.2232 30.987C46.1581 31.1552 46.1255 31.3478 46.1255 31.5648V33.8757H45.263V29.4897H45.9465L46.0604 30.2709H46.093C46.1852 30.1136 46.2964 29.9698 46.4266 29.8396C46.5568 29.7095 46.706 29.6064 46.8742 29.5304C47.0423 29.4491 47.2268 29.4084 47.4275 29.4084Z" fill="#80838D"/>
<path d="M52.5586 28.0657C53.3181 28.0657 53.8715 28.2203 54.2186 28.5295C54.5658 28.8333 54.7394 29.2592 54.7394 29.8071C54.7394 30.0512 54.6987 30.2845 54.6174 30.5069C54.5414 30.7293 54.4139 30.93 54.2349 31.1091C54.0559 31.2827 53.8172 31.421 53.5188 31.5241C53.2259 31.6217 52.8651 31.6705 52.4366 31.6705H51.81V33.8757H50.9312V28.0657H52.5586ZM52.4935 28.8062H51.81V30.93H52.3389C52.6698 30.93 52.9465 30.8948 53.1689 30.8243C53.3914 30.7483 53.5568 30.6317 53.6653 30.4744C53.7792 30.3116 53.8362 30.1 53.8362 29.8396C53.8362 29.4925 53.7277 29.2348 53.5107 29.0666C53.2991 28.893 52.9601 28.8062 52.4935 28.8062Z" fill="#80838D"/>
<path d="M57.5167 29.4084C58.0701 29.4084 58.4823 29.5304 58.7536 29.7746C59.0248 30.0132 59.1605 30.3903 59.1605 30.9056V33.8757H58.5502L58.3793 33.2654H58.3467C58.222 33.4228 58.0918 33.553 57.9561 33.656C57.8259 33.7591 57.674 33.8351 57.5004 33.8839C57.3323 33.9327 57.1261 33.9571 56.882 33.9571C56.6216 33.9571 56.3856 33.911 56.1741 33.8188C55.9679 33.7211 55.8052 33.5747 55.6858 33.3794C55.5665 33.1786 55.5068 32.9291 55.5068 32.6307C55.5068 32.1859 55.675 31.8468 56.0113 31.6136C56.3531 31.3803 56.8712 31.2528 57.5655 31.2311L58.3142 31.2067V30.9626C58.3142 30.6371 58.2409 30.4093 58.0945 30.2791C57.948 30.1489 57.7419 30.0838 57.476 30.0838C57.2482 30.0838 57.0312 30.1163 56.8251 30.1814C56.6189 30.2465 56.4236 30.3252 56.2392 30.4174L55.9625 29.7908C56.1686 29.6823 56.4046 29.5928 56.6704 29.5223C56.9417 29.4463 57.2238 29.4084 57.5167 29.4084ZM57.7202 31.7845C57.2211 31.8062 56.8739 31.8902 56.6786 32.0367C56.4887 32.1778 56.3938 32.3785 56.3938 32.6389C56.3938 32.8667 56.4616 33.0322 56.5972 33.1352C56.7383 33.2383 56.9146 33.2899 57.1261 33.2899C57.4679 33.2899 57.75 33.1949 57.9724 33.0051C58.1948 32.8152 58.306 32.5304 58.306 32.1506V31.7682L57.7202 31.7845Z" fill="#80838D"/>
<path d="M62.6531 29.4084C62.7291 29.4084 62.8132 29.4138 62.9054 29.4246C62.9976 29.4301 63.0736 29.4382 63.1332 29.4491L63.0437 30.2546C62.984 30.2384 62.9135 30.2248 62.8321 30.214C62.7508 30.2031 62.6748 30.1977 62.6043 30.1977C62.4416 30.1977 62.2842 30.2302 62.1323 30.2953C61.9859 30.355 61.853 30.4445 61.7336 30.5639C61.6143 30.6778 61.5193 30.8188 61.4488 30.987C61.3837 31.1552 61.3512 31.3478 61.3512 31.5648V33.8757H60.4886V29.4897H61.1721L61.2861 30.2709H61.3186C61.4108 30.1136 61.522 29.9698 61.6522 29.8396C61.7824 29.7095 61.9316 29.6064 62.0998 29.5304C62.268 29.4491 62.4524 29.4084 62.6531 29.4084Z" fill="#80838D"/>
<path d="M65.524 33.2573C65.6379 33.2573 65.7546 33.2465 65.8739 33.2248C65.9932 33.2031 66.0963 33.1786 66.1831 33.1515V33.8025C66.0909 33.8459 65.9661 33.8812 65.8088 33.9083C65.6515 33.9408 65.4942 33.9571 65.3368 33.9571C65.0981 33.9571 64.8784 33.9164 64.6777 33.8351C64.4824 33.7537 64.3251 33.6126 64.2058 33.4119C64.0864 33.2112 64.0267 32.9318 64.0267 32.5738V30.1489H63.4164V29.7583L64.0593 29.4328L64.3604 28.5051H64.8893V29.4897H66.1424V30.1489H64.8893V32.5575C64.8893 32.7962 64.9463 32.9725 65.0602 33.0864C65.1795 33.2003 65.3341 33.2573 65.524 33.2573Z" fill="#80838D"/>
<path d="M69.2819 29.4084C69.7918 29.4084 70.1824 29.5359 70.4537 29.7908C70.7249 30.0458 70.8605 30.4554 70.8605 31.0196V33.8757H70.0061V31.1416C70.0061 30.7998 69.9329 30.5449 69.7864 30.3767C69.6454 30.2031 69.4175 30.1163 69.1029 30.1163C68.658 30.1163 68.3488 30.2492 68.1752 30.515C68.0071 30.7809 67.923 31.1633 67.923 31.6624V33.8757H67.0604V29.4897H67.7439L67.866 30.0756H67.9148C68.0125 29.9237 68.1318 29.799 68.2729 29.7013C68.4139 29.6037 68.5712 29.5304 68.7448 29.4816C68.9184 29.4328 69.0975 29.4084 69.2819 29.4084Z" fill="#80838D"/>
<path d="M73.9111 29.4084C74.2962 29.4084 74.6271 29.4897 74.9038 29.6525C75.1805 29.8098 75.392 30.0377 75.5385 30.336C75.6904 30.6344 75.7664 30.987 75.7664 31.3939V31.8658H72.8207C72.8315 32.3161 72.9481 32.6606 73.1706 32.8993C73.3984 33.138 73.7158 33.2573 74.1226 33.2573C74.4047 33.2573 74.6543 33.2329 74.8713 33.1841C75.0937 33.1298 75.3215 33.0512 75.5548 32.9481V33.6642C75.3378 33.7618 75.1154 33.8351 74.8875 33.8839C74.6651 33.9327 74.3993 33.9571 74.0901 33.9571C73.6669 33.9571 73.2926 33.873 72.9671 33.7049C72.6416 33.5367 72.3867 33.2871 72.2022 32.9562C72.0232 32.6199 71.9337 32.2076 71.9337 31.7194C71.9337 31.2257 72.0151 30.808 72.1778 30.4662C72.346 30.1245 72.5765 29.8641 72.8695 29.685C73.1678 29.5006 73.515 29.4084 73.9111 29.4084ZM73.9111 30.0756C73.6018 30.0756 73.3523 30.176 73.1624 30.3767C72.978 30.5774 72.8695 30.8622 72.8369 31.2311H74.9038C74.9038 31.0033 74.8685 30.8026 74.798 30.629C74.7275 30.4554 74.619 30.3197 74.4725 30.2221C74.3261 30.1245 74.1389 30.0756 73.9111 30.0756Z" fill="#80838D"/>
<path d="M79.0072 29.4084C79.0831 29.4084 79.1672 29.4138 79.2594 29.4246C79.3516 29.4301 79.4276 29.4382 79.4873 29.4491L79.3977 30.2546C79.3381 30.2384 79.2675 30.2248 79.1862 30.214C79.1048 30.2031 79.0289 30.1977 78.9583 30.1977C78.7956 30.1977 78.6383 30.2302 78.4864 30.2953C78.3399 30.355 78.207 30.4445 78.0876 30.5639C77.9683 30.6778 77.8734 30.8188 77.8028 30.987C77.7377 31.1552 77.7052 31.3478 77.7052 31.5648V33.8757H76.8426V29.4897H77.5262L77.6401 30.2709H77.6726C77.7649 30.1136 77.8761 29.9698 78.0063 29.8396C78.1365 29.7095 78.2856 29.6064 78.4538 29.5304C78.622 29.4491 78.8064 29.4084 79.0072 29.4084Z" fill="#80838D"/>
<rect x="7.14526" y="16.9902" width="8.08182" height="8.08182" fill="#EB5321"/>
<rect x="16.5715" y="16.9902" width="8.08182" height="8.08182" fill="#7FBA00"/>
<rect x="16.5715" y="26.4189" width="8.08182" height="8.08182" fill="#FCBB01"/>
<rect x="7.14526" y="26.4189" width="8.08182" height="8.08182" fill="#08A1EF"/>
</svg>
