<svg width="88" height="50" viewBox="0 0 88 50" fill="none" xmlns="http://www.w3.org/2000/svg">
<g opacity="0.5">
<path d="M0.799561 2.63191C0.799561 1.62007 1.61982 0.799805 2.63167 0.799805H84.5234C85.5353 0.799805 86.3555 1.62007 86.3555 2.63191V46.6008C86.3555 47.6126 85.5353 48.4329 84.5234 48.4329H2.63167C1.61982 48.4329 0.799561 47.6126 0.799561 46.6008V2.63191Z" fill="#CDCED6"/>
<path d="M84.5232 0.400391C85.7558 0.400391 86.7556 1.39923 86.7556 2.63184V46.6006C86.7556 47.8332 85.7558 48.833 84.5232 48.833H2.63159C1.39899 48.833 0.400146 47.8332 0.400146 46.6006V2.63184C0.400188 1.39925 1.39901 0.400433 2.63159 0.400391H84.5232Z" stroke="white" stroke-opacity="0.3" stroke-width="0.799573"/>
</g>
<path d="M46.9284 14.0176H44.9409V15.5586H46.9284V14.0176Z" fill="#60646C"/>
<path d="M31.4166 17.1638C32.1273 17.1638 32.3353 17.8252 32.3353 18.1868H30.4286C30.4286 17.6665 30.7839 17.1638 31.4166 17.1638ZM33.4534 20.2062C33.254 20.2768 33.0373 20.3385 32.8293 20.3826C32.5867 20.4355 32.3267 20.462 32.0666 20.462C31.2259 20.462 30.5673 20.1798 30.4633 19.5007H34.0427C34.0687 19.3685 34.1207 19.0598 34.1207 18.7247C34.1207 17.1903 33.3667 15.7793 31.4513 15.7793C29.5879 15.7793 28.5999 17.2608 28.5999 18.9275C28.5999 20.8412 29.9172 21.9435 31.7633 21.9435C32.2313 21.9435 32.5693 21.8994 32.8553 21.8465C33.15 21.7847 33.4707 21.6877 33.7394 21.5643L33.4534 20.2062Z" fill="#60646C"/>
<path d="M59.6049 17.1638C60.344 17.1638 60.5694 17.8252 60.5694 18.1868H58.5774C58.5774 17.6665 58.9379 17.1638 59.6049 17.1638ZM61.7141 20.2062C61.5068 20.2768 61.2905 20.3385 61.0651 20.3826C60.8127 20.4355 60.5423 20.462 60.2719 20.462C59.3976 20.462 58.7126 20.1798 58.6044 19.5007H62.318C62.3451 19.3685 62.3901 19.0598 62.3901 18.7247C62.3901 17.1903 61.6059 15.7793 59.6139 15.7793C57.676 15.7793 56.6484 17.2608 56.6484 18.9275C56.6484 20.8412 58.0185 21.9435 59.9294 21.9435C60.4161 21.9435 60.7767 21.8994 61.0741 21.8465C61.3806 21.7847 61.7141 21.6877 62.0026 21.5643L61.7141 20.2062Z" fill="#60646C"/>
<path d="M36.9902 14.0176H35.0027V21.943H36.9902V14.0176Z" fill="#60646C"/>
<path d="M40.9692 20.4863C40.3216 20.4863 39.9046 19.8505 39.9046 18.8702C39.9046 18.0842 40.1885 17.2541 40.978 17.2541C41.741 17.2541 42.016 18.1196 42.016 18.8614C42.0071 19.8417 41.599 20.4863 40.9692 20.4863ZM40.9426 21.9435C42.4862 21.9435 44.0564 20.972 44.0564 18.8084C44.0564 17.519 43.2846 15.7793 41.0313 15.7793C38.707 15.7793 37.873 17.4661 37.873 18.9055C37.8819 20.7159 39.1417 21.9435 40.9426 21.9435Z" fill="#60646C"/>
<path d="M46.9284 16H44.9409V21.944H46.9284V16Z" fill="#60646C"/>
<path d="M48.3594 14.4631V16.037H47.5933V17.4726H48.3594V19.8421C48.3594 21.1479 48.9741 21.9435 50.3727 21.9435C50.6399 21.9435 50.9339 21.9176 51.2101 21.8743C51.4595 21.8397 51.6911 21.7878 51.7891 21.7619L51.7713 20.2399C51.7 20.2658 51.2546 20.335 51.0854 20.335C50.925 20.335 50.6845 20.3177 50.5152 20.1448C50.3905 20.0237 50.3014 19.8248 50.3014 19.5135V17.4639H51.5931V16.0284H50.3014V14.2383L48.3594 14.4631Z" fill="#60646C"/>
<path d="M52.9959 14.4631V16.037H52.2297V17.4726H52.9959V19.8421C52.9959 21.1479 53.6105 21.9435 55.0092 21.9435C55.2764 21.9435 55.5704 21.9176 55.8465 21.8743C56.096 21.8397 56.3276 21.7878 56.4256 21.7619L56.4078 20.2399C56.3454 20.2658 55.8911 20.335 55.7218 20.335C55.5615 20.335 55.321 20.3177 55.1517 20.1448C55.027 20.0237 54.9379 19.8248 54.9379 19.5135V17.4639H56.2296V16.0284H54.9379V14.2383L52.9959 14.4631Z" fill="#60646C"/>
<path d="M63.272 20.842C63.272 20.2383 63.7706 19.7412 64.3761 19.7412C64.9817 19.7412 65.4803 20.2294 65.4803 20.842C65.4803 21.4545 64.9817 21.9427 64.3761 21.9427C63.7617 21.9427 63.272 21.4456 63.272 20.842Z" fill="#99CA4A"/>
<path d="M20.8721 21.9434H23.1125C23.2631 21.9434 23.449 21.9434 23.5907 21.9345C26.6636 21.7755 27.9388 19.9644 27.9388 17.8706C27.9388 15.2556 26.1765 13.7979 23.1302 13.7979C22.3421 13.7979 21.6514 13.8244 20.8809 13.8862V21.9434H20.8721ZM23.7413 20.3443C23.6616 20.3531 23.5376 20.3531 23.4579 20.3531H22.8291V15.4323C23.0417 15.4146 23.3251 15.3969 23.511 15.3969C24.6622 15.3969 25.8932 16.139 25.8932 17.8618C25.8843 19.6729 24.7242 20.2736 23.7413 20.3443Z" fill="#60646C"/>
<path d="M23.7778 26.4163C23.8638 26.4163 23.9497 26.425 24.0357 26.4075C24.2506 26.3724 24.2076 26.127 24.3194 26.127C24.4054 26.127 24.4054 26.3286 24.4054 26.5828C24.4054 26.8721 24.3968 27.1878 24.2936 27.1878C24.1732 27.1878 24.1904 26.916 24.1045 26.7932C24.0701 26.7319 23.8294 26.6179 23.219 26.6179C22.9783 26.6179 22.9353 26.6354 22.9353 27.0124V29.5198C22.9353 29.8091 23.0213 29.8617 23.2878 29.8968C23.4511 29.9231 23.6059 29.9143 23.6059 30.0107C23.6059 30.0896 23.5113 30.0896 23.4769 30.0896C23.2878 30.0896 22.9525 30.0633 22.686 30.0633C22.4367 30.0633 22.1444 30.0896 21.8263 30.0896L21.7232 30.0283C21.7232 29.9318 21.9209 29.9231 22.067 29.8968C22.3421 29.8354 22.4023 29.7477 22.4023 29.3795V26.8809C22.4023 26.6267 22.3593 26.6179 21.8607 26.6179C21.3019 26.6179 21.0784 27.2316 20.9494 27.2316L20.8721 27.1527C20.8721 27.0738 21.0526 26.5828 21.1214 26.3987C21.1816 26.2322 21.2073 26.127 21.2933 26.127C21.4223 26.127 21.3105 26.3374 21.5168 26.3724C21.8263 26.4075 22.1186 26.4163 22.4195 26.4163H23.7778Z" fill="#60646C"/>
<path d="M23.8627 26.3V26.405H24.0191L24.1571 26.3963C24.3135 26.37 24.3964 26.2563 24.4332 26.1863L24.47 26.1075L24.4424 26.0813V26.1163L24.47 26.1075L24.4424 26.0813V26.1163V26.0638L24.4148 26.1075L24.4424 26.1163V26.0638L24.4148 26.1075L24.4332 26.0813L24.4056 26.0988L24.4148 26.1075L24.4332 26.0813L24.4056 26.0988L24.424 26.2125C24.4332 26.2825 24.4332 26.37 24.4332 26.4663C24.4332 26.6063 24.4332 26.7551 24.4148 26.8688L24.3872 26.9826V26.9913L24.4056 27.0001L24.3964 26.9826L24.3872 26.9913L24.4056 27.0001L24.3964 26.9826L24.424 27.0263V26.9738L24.3964 26.9826L24.424 27.0263V26.9738V27.0001L24.4424 26.9738L24.424 26.9651V26.9913L24.4424 26.9651L24.3964 26.8251L24.3227 26.6063C24.2583 26.5276 24.1755 26.5013 24.0099 26.4488C23.8443 26.4138 23.6142 26.3788 23.2738 26.3788C23.1542 26.3788 23.0345 26.37 22.9425 26.475C22.8597 26.5713 22.8689 26.6851 22.8597 26.8776V29.3803C22.8597 29.5378 22.8781 29.6516 22.9701 29.7391C23.0621 29.8266 23.1818 29.8441 23.3198 29.8616C23.4118 29.8703 23.5038 29.8791 23.5498 29.8878L23.5866 29.8966L23.605 29.8703H23.5774L23.5958 29.8966L23.6142 29.8703H23.5774H23.605L23.5774 29.8878L23.5682 29.9053H23.5958L23.5774 29.8878L23.605 29.9053L23.5958 29.8791L23.5774 29.8878L23.605 29.9053L23.5958 29.8791L23.5498 29.8878C23.3658 29.8878 22.9977 29.8616 22.7033 29.8616C22.4272 29.8616 22.1144 29.8878 21.7831 29.8878V29.9928L21.8384 29.9053L21.7279 29.8441L21.6727 29.9316H21.7831H21.7371L21.7739 29.9491V29.9316H21.7371L21.7739 29.9491L21.7555 29.9403L21.7739 29.9578L21.7831 29.9491L21.7647 29.9403L21.7831 29.9578C21.7923 29.9403 21.9488 29.9141 22.0776 29.8966C22.2248 29.8616 22.3536 29.8178 22.4364 29.7128C22.5101 29.5991 22.5285 29.4678 22.5285 29.284V26.7901L22.5101 26.6063C22.4825 26.51 22.3812 26.4488 22.28 26.44C22.1788 26.4225 22.0408 26.4225 21.8384 26.4225C21.4979 26.4225 21.2587 26.5976 21.1022 26.7638C21.0194 26.8426 20.955 26.9213 20.909 26.9826L20.8538 27.0351L20.8446 27.0438L20.8722 27.0876V27.0438L20.8446 27.0526L20.8722 27.0963V27.0526V27.1576L20.9458 27.0876L20.8722 27.0088L20.7894 27.0788H20.8998H20.8814H20.8998H20.8814H20.8998C20.8998 27.0526 20.9458 26.9038 21.0102 26.7551C21.0654 26.6063 21.1298 26.44 21.1666 26.3525C21.2035 26.265 21.2219 26.195 21.2403 26.1688L21.2587 26.1513L21.2495 26.1338V26.1513H21.2587L21.2495 26.1338V26.1513V26.125L21.2311 26.1513L21.2495 26.16V26.1338L21.2311 26.16L21.2587 26.125L21.2127 26.1513L21.2311 26.1688L21.2587 26.1338L21.2127 26.16L21.2587 26.2825C21.2863 26.3438 21.3691 26.405 21.4703 26.4138C21.8015 26.4488 22.1328 26.4575 22.4456 26.4575H23.8903V26.3V26.195H22.4272C22.1052 26.195 21.7923 26.1863 21.4703 26.1513L21.4519 26.2475L21.4703 26.1513L21.4243 26.1338L21.3967 26.055L21.3507 25.9588L21.2219 25.9062C21.1206 25.9062 21.047 25.9763 21.0194 26.0375C20.9826 26.0988 20.9642 26.1688 20.9366 26.2475C20.8998 26.335 20.8354 26.5101 20.771 26.6676C20.7434 26.7463 20.7158 26.8251 20.6882 26.8863L20.6514 27.0438V27.0876L20.7526 27.1926L20.7894 27.2276H20.8354C20.955 27.2101 20.9826 27.1489 21.047 27.0963C21.2035 26.9126 21.4335 26.6151 21.8107 26.6151C22.0776 26.6151 22.2248 26.6238 22.2524 26.6413L22.2708 26.6588L22.28 26.7813V29.2753C22.28 29.4503 22.2616 29.5465 22.2248 29.5903C22.1972 29.6341 22.142 29.6603 22.004 29.6866C21.9304 29.7041 21.8384 29.7128 21.7463 29.7303L21.6175 29.7828L21.5347 29.9228V29.9841L21.7003 30.0716L21.7279 30.0891H21.7555C22.096 30.0891 22.4088 30.0628 22.6757 30.0628C22.9609 30.0628 23.3106 30.0891 23.5222 30.0891L23.6418 30.0716C23.697 30.0541 23.7707 29.9841 23.7707 29.9053L23.697 29.7653C23.5774 29.6866 23.4578 29.7041 23.329 29.6866C23.191 29.6691 23.1174 29.6428 23.099 29.6253C23.0713 29.5991 23.0529 29.5553 23.0529 29.4153V26.9126C23.0529 26.7288 23.0713 26.6413 23.0805 26.6413L23.1082 26.6326L23.2462 26.6238C23.5682 26.6238 23.7891 26.6501 23.9271 26.6851L24.0743 26.7376L24.1111 26.7551C24.1387 26.7813 24.1479 26.8776 24.1755 26.9651L24.2307 27.1051L24.3964 27.2014C24.4884 27.2014 24.5436 27.1401 24.562 27.0876C24.6264 26.9388 24.6264 26.7113 24.6264 26.4925C24.6264 26.3613 24.6264 26.2475 24.6172 26.1513L24.5712 26.02L24.424 25.9325L24.2675 26.02L24.1939 26.1513L24.1019 26.2125L24.1203 26.3175L24.1019 26.2125L23.9915 26.2213H23.8351V26.3H23.8627Z" fill="#60646C"/>
<path d="M25.947 28.1629C25.947 27.9645 25.7336 27.8075 25.4553 27.8075C24.9821 27.8075 24.7037 28.2125 24.7037 28.3943C24.7037 28.4356 24.7223 28.4439 25.279 28.4439C25.8635 28.4522 25.947 28.3778 25.947 28.1629ZM24.648 28.6257C24.6387 28.6588 24.6387 28.7332 24.6387 28.8324C24.6387 29.32 24.7872 29.8076 25.5945 29.8076C26.1048 29.8076 26.1141 29.5679 26.2254 29.5679L26.2811 29.6175C26.2811 29.6589 26.0027 30.0886 25.3254 30.0886C24.6016 30.0886 24.1841 29.6341 24.1841 28.8985C24.1841 28.3447 24.5645 27.667 25.381 27.667C26.1326 27.667 26.3924 28.2373 26.3924 28.4935C26.3924 28.6009 26.3739 28.6257 26.2625 28.6257H24.648Z" fill="#60646C"/>
<path d="M25.8455 28.0943H25.9567C25.9567 27.8063 25.6786 27.5993 25.3633 27.5993C25.0851 27.5993 24.8718 27.7253 24.7328 27.8783C24.5844 28.0313 24.5102 28.2023 24.5009 28.3463L24.5566 28.4543C24.6215 28.4993 24.6586 28.4903 24.7513 28.4993C24.844 28.4993 24.9738 28.4993 25.1871 28.4993C25.4838 28.4993 25.66 28.4813 25.7898 28.4183C25.9289 28.3463 25.966 28.2023 25.966 28.0853H25.8455H25.7342C25.7249 28.1933 25.7249 28.2023 25.6693 28.2293C25.6044 28.2653 25.4467 28.2923 25.1686 28.2833C24.8904 28.2833 24.7513 28.2833 24.6864 28.2743H24.6586L24.6493 28.3013L24.6678 28.2743H24.6586L24.6493 28.3013L24.6678 28.2743L24.6308 28.3463L24.7049 28.3193L24.6678 28.2833L24.6308 28.3553L24.7049 28.3283L24.6493 28.3463H24.7142V28.3283L24.6586 28.3463H24.7235C24.7235 28.2923 24.7791 28.1393 24.8997 28.0223C25.0109 27.9053 25.1778 27.8063 25.3726 27.8063C25.6044 27.8063 25.7527 27.9413 25.7527 28.0853H25.8455V28.0943ZM24.5473 28.5983L24.4453 28.5713C24.4268 28.6433 24.4268 28.7153 24.4268 28.8233C24.4268 29.1023 24.4639 29.3813 24.6215 29.6152C24.7791 29.8492 25.0666 29.9932 25.4838 29.9932C25.7527 29.9932 25.9196 29.9212 26.0216 29.8402L26.1236 29.7412L26.1422 29.7322L26.1236 29.6962V29.7412L26.1422 29.7322L26.1236 29.6962V29.7412V29.6332L26.0495 29.7142L26.1051 29.7682L26.1793 29.6872H26.068H26.1329L26.068 29.6602L26.0587 29.6872H26.1236L26.0587 29.6602C26.0495 29.6782 25.9753 29.7952 25.8455 29.8942C25.7064 29.9932 25.5024 30.0922 25.2057 30.0922C24.8718 30.0922 24.6215 29.9842 24.4546 29.7862C24.2784 29.5882 24.1857 29.2913 24.1857 28.9043C24.1857 28.6253 24.2784 28.3103 24.4546 28.0673C24.64 27.8243 24.8997 27.6623 25.2706 27.6623C25.6137 27.6623 25.8362 27.7973 25.9753 27.9683C26.1144 28.1393 26.17 28.3463 26.17 28.4543L26.1607 28.5083L26.1978 28.5263L26.1885 28.4903L26.17 28.5083L26.2071 28.5263L26.1978 28.4903H26.1607H24.4639L24.436 28.5713L24.5473 28.5983V28.7063H26.1515L26.3462 28.6343L26.3925 28.4543C26.3925 28.2923 26.3184 28.0493 26.1422 27.8333C25.966 27.6173 25.6786 27.4463 25.2706 27.4463C24.8255 27.4463 24.4917 27.6533 24.2784 27.9413C24.0651 28.2293 23.9631 28.5803 23.9631 28.9043C23.9631 29.3273 24.0651 29.6692 24.2877 29.9212C24.5009 30.1732 24.8255 30.3082 25.2057 30.3082C25.5766 30.3082 25.8362 30.1822 26.0124 30.0472C26.0958 29.9752 26.1607 29.9122 26.1978 29.8492L26.2535 29.7682L26.272 29.6872V29.6422L26.1793 29.5612L26.1515 29.5342H26.1144L25.966 29.6062C25.8826 29.6872 25.8455 29.7772 25.4931 29.7952C25.1129 29.7952 24.9275 29.6782 24.8069 29.5072C24.6864 29.3363 24.6493 29.0933 24.6493 28.8323C24.6493 28.7333 24.6493 28.6433 24.6586 28.6343L24.5473 28.5983V28.7063V28.5983Z" fill="#60646C"/>
<path d="M27.9635 27.667C28.1605 27.667 28.5974 27.7082 28.5974 27.9635C28.5974 28.0706 28.5288 28.1118 28.426 28.1118C28.1776 28.1118 28.1434 27.807 27.8264 27.807C27.5352 27.807 27.0126 28.1283 27.0126 28.9355C27.0126 29.5862 27.4495 29.8333 27.9378 29.8333C28.3147 29.8333 28.4089 29.6933 28.486 29.6933L28.5203 29.7427C28.5203 29.8415 28.1519 30.0886 27.7407 30.0886C26.9783 30.0886 26.61 29.4956 26.61 28.9437C26.6014 28.3177 27.0383 27.667 27.9635 27.667Z" fill="#60646C"/>
<path d="M28.0213 27.5543V27.6623C28.1245 27.6623 28.2933 27.6713 28.4152 27.7163L28.5559 27.7883L28.6028 27.8783L28.5935 27.9233L28.5278 27.9413C28.4434 27.9413 28.3965 27.8963 28.3027 27.8063C28.2183 27.7163 28.0776 27.6083 27.8618 27.6083C27.4679 27.6083 26.8582 28.0133 26.8582 28.9403C26.8582 29.3183 26.9895 29.5972 27.2052 29.7772C27.421 29.9482 27.693 30.0202 27.9838 30.0202C28.1995 30.0202 28.3496 29.9752 28.4528 29.9392L28.5653 29.8852L28.5935 29.8762L28.5841 29.8402V29.8762H28.5935L28.5841 29.8402V29.8762V29.7682L28.4903 29.8312L28.5278 29.8852L28.6122 29.8222H28.4997H28.5372L28.4997 29.8042V29.8222H28.5372L28.4997 29.8042L28.4903 29.8222C28.4152 29.9122 28.0869 30.0922 27.7493 30.0832C26.9895 30.0832 26.6237 29.4982 26.6143 28.9403C26.6237 28.3103 27.0364 27.6623 27.9931 27.6533V27.5543V27.4463C27.4585 27.4463 27.0551 27.6353 26.7831 27.9233C26.5205 28.2113 26.3892 28.5803 26.3892 28.9493C26.3892 29.2733 26.5017 29.6062 26.7268 29.8672C26.952 30.1282 27.299 30.3082 27.7399 30.3082C27.9931 30.3082 28.2183 30.2362 28.3965 30.1462C28.4809 30.1012 28.5559 30.0562 28.6028 30.0112C28.6591 29.9572 28.6966 29.9212 28.706 29.8312V29.7952L28.6497 29.7142L28.6122 29.6692H28.5935C28.4809 29.6782 28.4528 29.7232 28.3683 29.7502C28.2933 29.7862 28.1807 29.8132 27.9931 29.8132C27.7399 29.8132 27.5148 29.7502 27.3553 29.6152C27.1958 29.4802 27.0833 29.2733 27.0833 28.9403C27.0833 28.1033 27.6179 27.8153 27.8618 27.8153C27.9931 27.8153 28.0588 27.8693 28.1432 27.9503C28.2276 28.0223 28.3308 28.1483 28.5184 28.1483L28.7248 28.0853C28.7904 28.0313 28.8186 27.9593 28.8186 27.8783C28.8186 27.7793 28.7717 27.6893 28.706 27.6353C28.509 27.4733 28.1901 27.4553 28.0119 27.4553V27.5543H28.0213Z" fill="#60646C"/>
<path d="M29.8594 27.925L29.886 28.0123C29.9569 28.0123 30.205 27.6108 30.781 27.6108C31.5431 27.6108 31.5609 28.2567 31.5609 28.4487V29.5921C31.5609 29.8452 31.6052 29.8976 31.7469 29.9413C31.8356 29.9674 31.9065 29.9674 31.9153 30.0198L31.7647 30.0896C31.5963 30.0896 31.4457 30.0635 31.2773 30.0635C31.1444 30.0635 30.9849 30.0896 30.8431 30.0896L30.7456 30.0285C30.7456 29.9762 30.7899 29.9762 30.9228 29.9413C31.0557 29.9063 31.1089 29.758 31.1089 29.5572V28.3178C31.1089 28.0647 30.8785 27.8814 30.5418 27.8814C30.1342 27.8814 29.8683 28.1432 29.8683 28.3876V29.6969C29.8683 29.8714 29.9392 29.9151 30.1785 29.9413C30.3114 29.95 30.3557 29.9587 30.3557 30.0198L30.2405 30.0896C30.1076 30.0896 29.886 30.0635 29.7088 30.0635C29.5227 30.0635 29.3278 30.0896 29.1417 30.0896L29.0442 30.0198L29.1505 29.9413C29.3898 29.9151 29.443 29.7929 29.443 29.627V26.6245C29.443 26.511 29.1328 26.4848 29.1328 26.4063L29.186 26.3277L29.7708 26.127C29.8772 26.127 29.8772 26.1968 29.8772 26.3452V27.925H29.8594Z" fill="#60646C"/>
<path d="M29.8166 27.836L29.7213 27.8623L29.7473 27.9412L29.7733 28.0113H29.8512L29.9465 27.9762C30.0677 27.8798 30.2756 27.6168 30.726 27.6168C31.0724 27.6168 31.211 27.7571 31.2976 27.9061C31.3842 28.0639 31.3842 28.2568 31.3842 28.3532V29.5017C31.3842 29.6332 31.3929 29.7209 31.4362 29.8085C31.4795 29.8962 31.5574 29.9313 31.6354 29.9576L31.7566 29.9927L31.774 29.9576L31.748 29.9839L31.7566 29.9927L31.774 29.9576L31.748 29.9839L31.7826 29.9488L31.7307 29.9576L31.7393 29.9839L31.774 29.9488L31.722 29.9576L31.8259 29.94L31.7826 29.8436L31.6354 29.9137L31.6787 30.0102V29.905C31.5315 29.905 31.3756 29.8787 31.2023 29.8787C31.0638 29.8787 30.8992 29.905 30.7779 29.905V30.0102L30.8299 29.9225L30.7433 29.8611L30.6913 29.9488H30.7953H30.7346L30.7779 29.9927L30.7953 29.9488H30.7346L30.7779 29.9927L30.752 29.9664L30.7693 30.0014L30.7779 29.9927L30.752 29.9664L30.7693 30.0014C30.7779 29.9927 30.8299 29.9839 30.8992 29.9664C30.9945 29.94 31.0724 29.8611 31.1071 29.7822C31.1417 29.6946 31.159 29.5981 31.159 29.4842V28.2392C31.159 28.0814 31.0897 27.9324 30.9685 27.8447C30.8472 27.7483 30.6913 27.6957 30.5095 27.6957C30.0677 27.6957 29.7559 27.985 29.7473 28.3094V29.6244C29.7473 29.7209 29.7733 29.8261 29.8512 29.8874C29.9292 29.94 30.0244 29.9576 30.1457 29.9751L30.2496 29.9839L30.2669 29.94L30.2323 29.9664L30.2496 29.9839L30.2669 29.94L30.2323 29.9664L30.2756 29.94L30.2323 29.9488L30.241 29.9664L30.2843 29.94L30.241 29.9488H30.2496H30.241H30.2496H30.241H30.3449L30.2929 29.8611L30.1717 29.9313L30.2236 30.019V29.905C30.1024 29.905 29.8859 29.8787 29.704 29.8787C29.5134 29.8787 29.3229 29.905 29.1497 29.905V30.0102L29.2103 29.9225L29.1064 29.8524L29.0457 29.94L29.1064 30.019L29.2103 29.94L29.1497 29.8611L29.1583 29.9664C29.2883 29.9488 29.3922 29.905 29.4615 29.8173C29.5221 29.7384 29.5394 29.6332 29.5394 29.5455V26.5297C29.5394 26.4508 29.4875 26.3982 29.4528 26.3719L29.2709 26.2842L29.219 26.2579L29.1757 26.3017H29.2363L29.219 26.2579L29.1757 26.3017H29.2363H29.1324L29.219 26.3543L29.2449 26.3017L29.7819 26.1176L29.7473 26.0212V26.1264H29.7646V26.1001L29.7473 26.1176L29.7646 26.1264V26.1001L29.7473 26.1176L29.7646 26.1088L29.7386 26.1176L29.7473 26.1264L29.7646 26.1176L29.7386 26.1264L29.7473 26.2579V27.8798V27.8886L29.8166 27.836H29.9205V26.2316C29.9205 26.1527 29.9292 26.1001 29.9032 26.0299C29.8859 25.951 29.7819 25.8984 29.7126 25.9072H29.6953L29.1064 26.1088L29.0717 26.1176L29.0024 26.2316L28.9851 26.2579V26.2842L29.0284 26.3806L29.2276 26.4858L29.2883 26.5209H29.2969L29.3056 26.5121L29.2883 26.5209L29.2969 26.5121L29.2796 26.5209L29.3142 26.5034H29.2796V26.5209L29.3142 26.5034H29.2796V29.5192L29.2449 29.6683C29.2276 29.6946 29.1843 29.7209 29.089 29.7384H29.0631L28.9331 29.8348L28.8206 29.9225L29.0371 30.0716L29.0631 30.0891H29.0977C29.2883 30.0891 29.4788 30.0628 29.652 30.0628C29.8166 30.0628 30.0331 30.0891 30.1717 30.0891H30.1977L30.3362 30.0102L30.3882 29.9751V29.9137L30.2843 29.7559L30.1197 29.7296C30.0071 29.7209 29.9465 29.7033 29.9292 29.6858C29.9205 29.6683 29.9032 29.6683 29.9032 29.5894V28.2743C29.9032 28.1866 29.9465 28.0902 30.0418 28.0025C30.137 27.9236 30.2843 27.8623 30.4575 27.8623C30.7433 27.871 30.9079 28.0201 30.9079 28.2042V29.4491C30.9079 29.5455 30.8992 29.6157 30.8732 29.6595L30.8039 29.7296L30.6567 29.7735L30.5874 29.8261L30.5528 29.9225V29.9751L30.6913 30.0716L30.7173 30.0891H30.752C30.8992 30.0891 31.0638 30.0628 31.1763 30.0628C31.3236 30.0628 31.4795 30.0891 31.6527 30.0891H31.6787L31.8432 30.0102L31.9125 29.9751L31.9039 29.8962C31.8952 29.8173 31.8173 29.7647 31.7826 29.7647L31.67 29.7384L31.5921 29.6858C31.5748 29.6683 31.5661 29.5981 31.5661 29.4754V28.3269C31.5661 28.2305 31.5661 28.0025 31.4535 27.7834C31.3496 27.5729 31.1071 27.3801 30.7 27.3801C30.3969 27.3801 30.1717 27.494 30.0158 27.5992C29.9378 27.6518 29.8859 27.7044 29.8426 27.7395L29.7993 27.7746H29.7906L29.8252 27.836V27.7658L29.7906 27.7746L29.8252 27.836V27.7658V27.871L29.9205 27.836L29.8945 27.7571L29.8166 27.836H29.9205H29.8166Z" fill="#60646C"/>
<path d="M32.4731 28.3508C32.4731 27.9926 32.1923 28.1179 32.1923 27.9926C32.1923 27.9299 32.2919 27.9209 32.4459 27.7866C32.5908 27.6523 32.7901 27.4463 32.8535 27.4463L32.9169 27.5269V27.8582C33.1795 27.6702 33.3878 27.5269 33.732 27.5269C34.5924 27.5269 34.6015 28.1627 34.6015 28.4493V29.6403C34.6015 29.7836 34.6105 29.8911 34.7826 29.9179C34.8732 29.9358 35.0091 29.9358 35.0091 30.0075C35.0091 30.0702 34.9638 30.0791 34.8732 30.0791C34.6921 30.0791 34.4928 30.0523 34.366 30.0523C34.1758 30.0523 34.0399 30.0791 33.895 30.0791L33.7682 30.0164L33.8588 29.9269C34.0399 29.8911 34.1758 29.8821 34.1758 29.5508V28.4941C34.1758 28.2344 34.1396 27.8135 33.6324 27.8135C33.2339 27.8135 32.935 28.0463 32.9259 28.109C32.9169 28.2702 32.9169 28.4135 32.9169 28.5657V29.5508C32.9169 29.7746 32.9259 29.8911 33.2067 29.9269C33.2882 29.9448 33.3969 29.9448 33.3969 30.0164L33.252 30.0881C33.1886 30.0881 32.944 30.0612 32.7901 30.0612C32.5999 30.0612 32.4731 30.0881 32.3463 30.0881L32.1379 30.0164L32.2376 29.9269C32.4097 29.9 32.4821 29.7657 32.4821 29.4612V28.3508H32.4731Z" fill="#60646C"/>
<path d="M32.4963 28.388H32.6089C32.6183 28.2047 32.4963 28.0797 32.3931 28.0547L32.2993 28.0297L32.2711 28.063H32.3181L32.2993 28.0297L32.2711 28.063H32.3181H32.2711L32.3087 28.0963L32.3181 28.063H32.2711L32.3087 28.0963C32.3087 28.088 32.4119 28.0463 32.5433 27.9463L32.7872 27.7463L32.8811 27.6713L32.9092 27.6546L32.8905 27.6046V27.663H32.9092L32.8905 27.613V27.6713V27.5713L32.806 27.6296L32.8529 27.6796V27.9546V28.1463L33.0312 28.0297C33.3033 27.8546 33.4816 27.7463 33.8101 27.7463C34.2323 27.7463 34.4012 27.8796 34.4951 28.0213C34.5889 28.1713 34.5983 28.3713 34.5983 28.5047V29.6131C34.5983 29.6797 34.5983 29.7547 34.6358 29.8297C34.6734 29.9047 34.7672 29.9631 34.8798 29.9714L35.0206 29.9881L35.0393 29.9964H35.0487L35.0769 29.9547H35.0206L35.0487 29.9964L35.0769 29.9547H35.0206H35.0581L35.03 29.9381L35.0206 29.9547H35.0581L35.03 29.9381L35.0863 29.9631L35.0581 29.9131L35.0393 29.9297L35.0956 29.9547L35.0675 29.9047L35.0863 29.9297L35.0769 29.9047H35.0675L35.0863 29.9297L35.0769 29.9047H35.0112C34.8329 29.9047 34.6358 29.8797 34.4857 29.8797C34.2793 29.8797 34.1291 29.9047 33.9977 29.9047V30.0047L34.0447 29.9131L33.9039 29.8547L33.857 29.9464L33.9321 30.0131L34.0259 29.9297L33.9414 29.8547L33.9696 29.9547C34.054 29.9381 34.1573 29.9297 34.2511 29.8631C34.3449 29.7881 34.3825 29.6714 34.3825 29.5047V28.5213C34.3825 28.3963 34.3731 28.2297 34.2886 28.0713C34.2042 27.913 34.0071 27.788 33.7068 27.788C33.4816 27.788 33.2846 27.8463 33.1344 27.913L32.9561 28.0213C32.9092 28.063 32.8811 28.0797 32.8623 28.1547C32.8529 28.3047 32.8529 28.4463 32.8529 28.588V29.5047C32.8529 29.6047 32.8529 29.7047 32.9092 29.7964C32.9749 29.8881 33.0875 29.9381 33.247 29.9631L33.369 29.9797H33.3784L33.3878 29.9547L33.369 29.9714L33.3784 29.9797L33.3878 29.9547L33.369 29.9714L33.416 29.9464H33.3596L33.369 29.9714L33.416 29.9464H33.3596H33.4723L33.4253 29.8631L33.2752 29.9297L33.3221 30.0214V29.8964C33.2752 29.8964 33.0124 29.8714 32.8435 29.8714C32.6371 29.8714 32.4963 29.8964 32.3837 29.8964V29.9964L32.4213 29.9047L32.2054 29.8381L32.1679 29.9297L32.243 30.0047L32.3462 29.9297L32.2711 29.8464L32.2899 29.9464C32.4025 29.9297 32.5057 29.8631 32.562 29.7714C32.6183 29.6797 32.6277 29.5631 32.6371 29.4131V28.388H32.4963H32.3837V29.4131C32.3837 29.5464 32.365 29.6381 32.3368 29.6797L32.2148 29.7547L32.1867 29.7631L32.0647 29.8547L31.9146 29.9631L32.3087 30.0881H32.3274H32.3462C32.4963 30.0881 32.6277 30.0631 32.806 30.0631C32.9561 30.0631 33.2095 30.0881 33.2846 30.0881H33.3127L33.4816 30.0131L33.5473 29.9881V29.9297L33.5004 29.8131C33.4066 29.7464 33.3221 29.7631 33.2658 29.7464C33.1344 29.7297 33.0969 29.6964 33.0875 29.6797C33.0688 29.6547 33.0594 29.5964 33.0688 29.4881V28.5713C33.0688 28.4297 33.0688 28.2963 33.0781 28.1547H33.0124L33.0688 28.1797V28.163H33.0031L33.0594 28.188C33.0688 28.1713 33.1532 28.113 33.2658 28.063C33.3784 28.013 33.5286 27.9796 33.6881 27.9796C33.9227 27.988 34.0071 28.0547 34.0634 28.1547C34.1197 28.2547 34.1291 28.4047 34.1291 28.5213V29.5047C34.1291 29.6547 34.0916 29.6964 34.0728 29.7131C34.054 29.7381 33.9884 29.7464 33.8945 29.7631L33.857 29.7714L33.7444 29.8714L33.6318 29.9631L33.9039 30.0798L33.9321 30.0881H33.9602C34.1197 30.0881 34.2605 30.0631 34.4482 30.0631C34.5702 30.0631 34.7766 30.0881 34.9737 30.0881L35.1238 30.0714L35.227 29.9297L35.1519 29.8131C35.0581 29.7631 34.9549 29.7631 34.8892 29.7547L34.8141 29.7214L34.7954 29.5881V28.4797C34.7954 28.3463 34.7954 28.113 34.6734 27.9046C34.542 27.688 34.2605 27.5213 33.7913 27.5213C33.3972 27.5213 33.1532 27.6713 32.8811 27.8463L32.9468 27.9296H33.0594V27.6213V27.588L32.9749 27.488L32.9468 27.4463H32.8905L32.7497 27.4963C32.6465 27.563 32.4963 27.6963 32.3837 27.788L32.2054 27.9046L32.1304 27.9546L32.0835 28.063L32.1961 28.2047L32.3274 28.2547C32.3462 28.2713 32.365 28.288 32.3744 28.3963H32.4963V28.388Z" fill="#60646C"/>
<path d="M37.1865 28.8572C37.1865 28.4026 36.9069 27.8075 36.4437 27.8075C35.9805 27.8075 35.6922 28.2621 35.6922 28.915C35.6922 29.3531 35.9718 29.9564 36.435 29.9564C36.8981 29.9564 37.1865 29.4936 37.1865 28.8572ZM37.6584 28.8654C37.6584 29.4605 37.3001 30.0886 36.435 30.0886C35.5786 30.0886 35.229 29.5184 35.229 28.8902C35.229 28.2951 35.5873 27.667 36.4524 27.667C37.1428 27.667 37.6584 28.2373 37.6584 28.8654Z" fill="#60646C"/>
<path d="M37.2845 28.8457H37.3895C37.3895 28.5748 37.3195 28.2769 37.1795 28.0331C37.0396 27.7984 36.8297 27.5998 36.541 27.5998C36.2699 27.5998 36.0425 27.7532 35.9025 27.988C35.7626 28.2227 35.6838 28.5477 35.6838 28.9179C35.6838 29.1797 35.7626 29.4776 35.8938 29.7124C36.0337 29.9561 36.2436 30.1548 36.5323 30.1548C36.8034 30.1548 37.0221 30.0013 37.1708 29.7665C37.3107 29.5318 37.3895 29.2068 37.3895 28.8457H37.2845H37.1795C37.1795 29.1797 37.1096 29.4596 36.9958 29.6492C36.8821 29.8388 36.7334 29.9381 36.5323 29.9381C36.3486 29.9381 36.1911 29.8117 36.0774 29.604C35.955 29.4054 35.8938 29.1346 35.8938 28.9089C35.8938 28.5658 35.9637 28.2859 36.0774 28.0963C36.1911 27.9067 36.3398 27.8074 36.541 27.8074C36.7247 27.8074 36.8821 27.9338 36.9958 28.1415C37.1096 28.3491 37.1795 28.62 37.1795 28.8457H37.2845ZM37.7568 28.8547H37.6519C37.6519 29.1616 37.5644 29.4776 37.3895 29.7033C37.2058 29.929 36.9346 30.0825 36.5323 30.0916C36.1299 30.0916 35.8588 29.9471 35.6838 29.7304C35.5089 29.5137 35.4302 29.2068 35.4302 28.8908C35.4302 28.5838 35.5176 28.2679 35.6926 28.0421C35.8763 27.8164 36.1474 27.663 36.5498 27.663C37.1795 27.663 37.6606 28.2408 37.6606 28.8637H37.7568H37.8618C37.8618 28.1324 37.302 27.4463 36.5498 27.4463C36.0949 27.4463 35.7451 27.6359 35.5351 27.9158C35.3165 28.1866 35.229 28.5477 35.229 28.8908C35.229 29.2519 35.3165 29.604 35.5351 29.8658C35.7538 30.1367 36.0949 30.3082 36.541 30.3082C36.9958 30.3082 37.3457 30.1186 37.5644 29.8478C37.7831 29.5679 37.8793 29.2158 37.8793 28.8637H37.7568V28.8547Z" fill="#60646C"/>
<path d="M38.9462 29.7003C38.9462 29.856 39.0643 29.882 39.326 29.9426L39.4188 30.0118L39.3429 30.0896C39.1656 30.0896 38.9799 30.0637 38.7943 30.0637C38.5917 30.0637 38.3807 30.0896 38.1781 30.0896L38.0938 30.0204L38.2203 29.9426C38.4398 29.882 38.5411 29.8647 38.5411 29.4926V26.6201C38.5411 26.4903 38.2541 26.4471 38.2541 26.3952L38.3047 26.326L38.7858 26.1529L38.904 26.127L38.9631 26.2481C38.9631 26.3952 38.9546 26.5336 38.9546 26.6893V29.7003H38.9462Z" fill="#60646C"/>
<path d="M38.9693 29.5944H38.8606C38.8515 29.6986 38.924 29.8027 39.0146 29.8374C39.1052 29.8808 39.2049 29.9069 39.3407 29.9416L39.3679 29.8461L39.3045 29.9329L39.4042 29.9936L39.4676 29.9069L39.386 29.8374L39.3045 29.9242L39.386 29.9936V29.8895C39.2049 29.8895 39.0055 29.8635 38.7972 29.8635C38.5707 29.8635 38.3442 29.8895 38.1358 29.8895V29.9936L38.1992 29.9155L38.1086 29.8461L38.0452 29.9329L38.0995 30.0197L38.2354 29.9416L38.1811 29.8548L38.2083 29.9502C38.317 29.9155 38.4257 29.8982 38.5163 29.8114C38.6069 29.7159 38.625 29.5944 38.625 29.4035V26.505C38.625 26.4269 38.5797 26.3749 38.5435 26.3402L38.3532 26.236L38.2989 26.21H38.2898L38.2626 26.2534L38.2989 26.2273L38.2898 26.2187L38.2626 26.2621L38.2989 26.236L38.2264 26.2881H38.317L38.2989 26.236L38.2264 26.2881H38.317H38.2083L38.2989 26.3488L38.326 26.3054L38.8062 26.1406L38.8425 26.1319L38.8606 26.1839L38.9602 26.1406H38.8787C38.8787 26.2794 38.8696 26.4269 38.8696 26.5831V29.5944H38.9693H39.078V26.5831C39.078 26.4356 39.0871 26.2881 39.0871 26.1406V26.1232L39.0146 25.9844L38.9784 25.9062L38.7609 25.9496H38.7519L38.2264 26.1232L38.1901 26.1319L38.1177 26.2273L38.0995 26.2534V26.2881L38.1539 26.3835L38.3442 26.4703L38.3985 26.505L38.4076 26.5137H38.4166H38.4257H38.4348H38.4257V29.4035C38.4257 29.5771 38.3895 29.6465 38.3713 29.6725C38.3442 29.6986 38.2807 29.7246 38.163 29.7506H38.1448L37.9999 29.8374L37.873 29.9155L38.0905 30.0717L38.1177 30.0891H38.1539C38.3804 30.0891 38.5978 30.0631 38.8153 30.0631C38.9965 30.0631 39.1958 30.0891 39.4042 30.0891H39.4495L39.5582 29.9763L39.6397 29.8895L39.4495 29.7593L39.4313 29.7506H39.4132C39.2773 29.7159 39.1686 29.6899 39.1324 29.6725L39.0961 29.6031H38.9693V29.5944Z" fill="#60646C"/>
<path d="M41.8247 28.8572C41.8247 28.4026 41.546 27.8075 41.0845 27.8075C40.623 27.8075 40.3357 28.2621 40.3357 28.915C40.3357 29.3531 40.6143 29.9564 41.0758 29.9564C41.546 29.9481 41.8247 29.4936 41.8247 28.8572ZM42.2949 28.8654C42.2949 29.4605 41.9379 30.0886 41.0758 30.0886C40.2225 30.0886 39.8655 29.5184 39.8655 28.8902C39.8655 28.2951 40.2225 27.667 41.0932 27.667C41.7724 27.667 42.2949 28.2373 42.2949 28.8654Z" fill="#60646C"/>
<path d="M41.7151 28.8457H41.82C41.82 28.5748 41.7413 28.2769 41.6014 28.0331C41.4614 27.7984 41.2515 27.5998 40.9628 27.5998C40.6917 27.5998 40.473 27.7532 40.3243 27.988C40.1844 28.2227 40.1057 28.5477 40.1057 28.9179C40.1057 29.1797 40.1756 29.4776 40.3156 29.7124C40.4555 29.9561 40.6655 30.1548 40.9541 30.1548C41.2253 30.1548 41.4439 30.0013 41.5926 29.7665C41.7326 29.5318 41.8113 29.2068 41.8113 28.8457H41.7151H41.6101C41.6101 29.1797 41.5401 29.4596 41.4264 29.6492C41.3127 29.8388 41.164 29.9381 40.9628 29.9381C40.7792 29.9381 40.6217 29.8117 40.508 29.604C40.3943 29.4054 40.3243 29.1346 40.3243 28.9089C40.3243 28.5658 40.3943 28.2859 40.508 28.0963C40.6217 27.9067 40.7704 27.8074 40.9716 27.8074C41.1553 27.8074 41.3127 27.9338 41.4264 28.1415C41.5401 28.3491 41.6101 28.62 41.6101 28.8457H41.7151ZM42.1874 28.8547H42.0824C42.0824 29.1616 41.995 29.4776 41.82 29.7033C41.6364 29.929 41.3652 30.0825 40.9628 30.0916C40.5605 30.0916 40.2893 29.9471 40.1144 29.7304C39.9395 29.5137 39.852 29.2068 39.852 28.8908C39.852 28.5838 39.9395 28.2679 40.1144 28.0421C40.2981 27.8164 40.5605 27.663 40.9716 27.663C41.5926 27.663 42.0737 28.2408 42.0737 28.8637H42.1874H42.2924C42.2924 28.1324 41.7326 27.4463 40.9803 27.4463C40.5168 27.4463 40.1756 27.6359 39.957 27.9158C39.7383 28.1866 39.6421 28.5477 39.6421 28.8908C39.6421 29.2519 39.7296 29.604 39.9482 29.8658C40.1669 30.1367 40.4993 30.3082 40.9541 30.3082C41.4089 30.3082 41.7588 30.1186 41.9687 29.8478C42.1874 29.5679 42.2836 29.2158 42.2836 28.8637H42.1874V28.8547Z" fill="#60646C"/>
<path d="M43.9818 27.753C43.5374 27.753 43.4663 28.1402 43.4663 28.4413C43.4663 28.7166 43.5018 29.2328 43.9729 29.2328C44.4085 29.2328 44.5151 28.9145 44.5151 28.5273C44.5151 28.2176 44.4529 27.753 43.9818 27.753ZM43.6263 31.2117C44.7196 31.2117 44.9329 30.7385 44.9329 30.5578C44.9329 30.1878 44.4885 30.1448 43.804 30.1448C43.564 30.1448 43.4485 30.1534 43.404 30.1792C43.2085 30.2911 42.924 30.6008 42.924 30.7385C42.924 31.0482 43.244 31.2117 43.6263 31.2117ZM44.9863 28.1746C44.9507 28.1746 44.9151 28.2176 44.9151 28.4585C44.9151 28.5532 44.9151 29.2845 43.9551 29.3447C43.8218 29.3533 43.324 29.3447 43.324 29.5942C43.324 29.7318 43.404 29.7749 44.0263 29.7749C44.6929 29.7749 45.2085 29.8609 45.2085 30.4459C45.2085 31.2203 43.9196 31.4095 43.5374 31.4095C42.7462 31.4095 42.5151 31.0654 42.5151 30.8245C42.5151 30.4201 42.9685 30.2481 43.324 30.0846C43.2174 30.0244 42.8351 29.7577 42.8351 29.62C42.8351 29.4307 43.3951 29.3189 43.5107 29.3017C43.1996 29.0866 43.0129 28.8801 43.0129 28.5015C43.0129 28.0111 43.404 27.667 43.9463 27.667C44.1685 27.667 44.3285 27.7272 44.4885 27.8046C44.6485 27.8821 44.8263 27.9423 45.0751 27.9423H45.3418L45.3863 28.0972C45.3863 28.1918 45.3685 28.2004 45.2707 28.2004H44.9863V28.1746Z" fill="#60646C"/>
<path d="M43.8643 27.6645V27.5554C43.6051 27.5554 43.4264 27.6827 43.346 27.8555C43.2566 28.0192 43.2388 28.2192 43.2388 28.3829C43.2388 28.5375 43.2477 28.7557 43.3192 28.9557C43.3907 29.1558 43.5694 29.3377 43.8554 29.3286C44.1056 29.3286 44.2843 29.2285 44.3826 29.0558C44.4809 28.8921 44.5077 28.683 44.5077 28.4738C44.5077 28.301 44.4898 28.0828 44.4094 27.9009C44.329 27.71 44.1413 27.5554 43.8732 27.5554V27.6645V27.7736C44.0698 27.7736 44.1592 27.8646 44.2218 27.9919C44.2843 28.1283 44.3022 28.3192 44.3022 28.4738C44.3022 28.6648 44.2754 28.8375 44.2128 28.9467C44.1413 29.0558 44.0609 29.1194 43.8643 29.1194C43.6677 29.1194 43.5962 29.0285 43.5247 28.8739C43.4622 28.7284 43.4532 28.5284 43.4532 28.3829C43.4532 28.2283 43.4711 28.0646 43.5337 27.9555C43.5962 27.8464 43.6766 27.7736 43.8732 27.7645V27.6645H43.8643ZM43.5068 31.32V31.4291C44.0698 31.4291 44.4184 31.3018 44.6418 31.1381C44.8562 30.9653 44.9277 30.7653 44.9277 30.6289C44.9367 30.3834 44.7579 30.2197 44.5435 30.1651C44.3201 30.0924 44.0341 30.0833 43.6856 30.0833C43.4354 30.0833 43.3371 30.0833 43.2388 30.1288C43.1226 30.2015 42.9975 30.3106 42.8992 30.4379C42.8009 30.5652 42.7115 30.6743 42.7026 30.8107C42.7026 31.0199 42.8009 31.1836 42.9617 31.2836C43.1136 31.3836 43.3102 31.4291 43.5158 31.4291V31.32V31.2108C43.3371 31.2108 43.1762 31.1654 43.069 31.1017C42.9617 31.029 42.9081 30.9471 42.9081 30.8107C42.8992 30.8017 42.9617 30.6834 43.0511 30.5743C43.1405 30.4652 43.2566 30.3561 43.3371 30.3106L43.2834 30.2197L43.3371 30.3106C43.3639 30.3015 43.48 30.2924 43.6856 30.2924C44.0252 30.2924 44.3111 30.3106 44.4809 30.3652C44.6596 30.4288 44.7133 30.4834 44.7222 30.6289C44.7222 30.7471 44.5881 31.2108 43.5158 31.2199V31.32H43.5068ZM44.8741 28.1101V28.001L44.7758 28.0373C44.7043 28.1283 44.7043 28.201 44.7043 28.4011C44.7043 28.4465 44.7043 28.6375 44.5971 28.8284C44.4898 29.0103 44.2932 29.1922 43.8375 29.2285C43.7749 29.2285 43.6141 29.2285 43.4532 29.2649C43.3728 29.2831 43.3013 29.3104 43.2298 29.3649C43.1583 29.4104 43.1047 29.5013 43.1047 29.6014L43.1494 29.7468C43.2119 29.8287 43.2924 29.8469 43.4085 29.8651C43.5247 29.8832 43.6856 29.8923 43.9269 29.8923C44.2575 29.8923 44.5435 29.9196 44.7222 30.0105C44.9009 30.1015 44.9992 30.2197 44.9992 30.4925C44.9992 30.838 44.7311 31.0654 44.3737 31.2108C44.0252 31.3563 43.6051 31.4018 43.4264 31.4018C42.6579 31.3927 42.506 31.0654 42.506 30.8926C42.506 30.7198 42.5953 30.6016 42.7383 30.4925C42.8813 30.3834 43.0779 30.2924 43.2656 30.2106L43.4443 30.1288L43.2745 30.0287C43.2209 30.0015 43.1047 29.9105 43.0064 29.8287L42.8724 29.7014L42.8366 29.6468V29.6286V29.6195C42.8545 29.5832 42.9885 29.5104 43.1136 29.4741C43.2477 29.4286 43.3817 29.4013 43.4175 29.3922L43.6677 29.3468L43.4622 29.2013C43.1583 28.9739 43.0064 28.8012 43.0064 28.4374C43.0064 27.9828 43.3371 27.6645 43.8375 27.6554C44.043 27.6554 44.1771 27.71 44.3379 27.7918C44.5077 27.8737 44.7043 27.9464 44.9724 27.9464H45.1601L45.1779 28.0282L45.2762 28.001H45.169V28.0373L45.2137 28.0464L45.1779 28.0282L45.169 28.0464L45.2137 28.0555L45.1779 28.0282L45.2316 28.0646L45.2048 28.0101L45.1779 28.0282L45.2316 28.0646L45.2048 28.0101L45.2226 28.0464L45.2137 28.0101H45.2048L45.2226 28.0464L45.2137 28.0101H45.169H44.883V28.1101V28.2192H45.169L45.3299 28.1737L45.3835 28.001V27.9828L45.3299 27.81L45.312 27.7373H44.9724C44.7401 27.7373 44.5792 27.6736 44.4273 27.6009C44.2575 27.519 44.0788 27.4463 43.8375 27.4463C43.5337 27.4463 43.2745 27.5463 43.0868 27.7282C42.8992 27.9009 42.7919 28.1556 42.7919 28.4465C42.783 28.8921 43.0243 29.1558 43.3371 29.3831L43.3996 29.2922L43.3817 29.1831C43.3192 29.1922 43.1494 29.2285 42.9885 29.2922C42.9081 29.3195 42.8277 29.3649 42.7562 29.4104C42.6936 29.4559 42.6221 29.5286 42.6221 29.6286C42.6221 29.7105 42.6668 29.765 42.7115 29.8287C42.8366 29.9924 43.069 30.156 43.1673 30.2106L43.2209 30.1197L43.1762 30.0196C42.9975 30.1106 42.7919 30.1924 42.6132 30.3288C42.4434 30.4561 42.2915 30.6471 42.2915 30.9017C42.2915 31.0563 42.363 31.2472 42.5507 31.3927C42.7294 31.5382 43.0153 31.6291 43.4264 31.6291C43.632 31.6291 44.0609 31.5837 44.4541 31.42C44.8384 31.2654 45.2137 30.9835 45.2137 30.5016C45.2226 30.1651 45.0528 29.9287 44.8116 29.8196C44.5703 29.7105 44.2664 29.6832 43.9269 29.6832C43.6141 29.6832 43.4354 29.665 43.3639 29.6468L43.3281 29.6377V29.6105L43.3639 29.5468C43.4532 29.465 43.7571 29.4559 43.8643 29.4559C44.3737 29.4195 44.6596 29.1922 44.7937 28.9467C44.9277 28.7102 44.9277 28.4647 44.9277 28.4193C44.9277 28.301 44.9367 28.2283 44.9456 28.2101V28.201L44.9009 28.1737L44.9277 28.2192L44.9456 28.201L44.9009 28.1737L44.9277 28.2192L44.892 28.1646V28.2374L44.9277 28.2283L44.892 28.1737V28.2465V28.1101H44.8741Z" fill="#60646C"/>
<path d="M46.9313 29.468L46.9858 29.547L47.0584 29.468L47.485 28.5367C47.5576 28.3786 47.6393 28.1765 47.6393 28.0272C47.6393 27.8163 47.249 27.8778 47.249 27.7461C47.249 27.7021 47.2944 27.6758 47.367 27.6758C47.3942 27.6758 47.4487 27.6933 47.73 27.6933C47.9933 27.6933 48.0568 27.6758 48.1112 27.6758C48.202 27.6758 48.2565 27.7021 48.2565 27.7461C48.2565 27.8515 48.0205 27.8076 47.9206 28.036L46.6137 30.9966C46.4866 31.269 46.3958 31.4095 46.1145 31.4095C45.8603 31.4095 45.7786 31.269 45.7786 31.1548C45.7786 30.9966 45.8876 30.9263 46.0419 30.9263C46.1508 30.9263 46.2325 30.9791 46.3051 30.9791C46.4321 30.9791 46.7135 30.2323 46.7135 30.162C46.7135 30.0654 46.6681 29.9863 46.6318 29.8897L45.9329 28.0096C45.8785 27.8691 45.6062 27.8603 45.6062 27.7548C45.6062 27.7021 45.6425 27.667 45.7423 27.667C45.8785 27.667 46.0328 27.6846 46.1871 27.6846C46.3414 27.6846 46.4957 27.667 46.6954 27.667C46.7952 27.667 46.8224 27.6933 46.8224 27.7548C46.8224 27.8427 46.4049 27.8076 46.4049 27.9833L46.4412 28.1238L46.9313 29.468Z" fill="#60646C"/>
<path d="M46.9188 29.5698L46.8352 29.6309L46.8854 29.7094L46.9606 29.8229L47.1027 29.6396L47.1111 29.6309L47.5124 28.6882C47.5793 28.5224 47.6629 28.3216 47.6629 28.1383C47.6712 28.051 47.6211 27.9812 47.5709 27.9376C47.4873 27.8852 47.4037 27.8677 47.3452 27.8503L47.2867 27.8328L47.2783 27.8503L47.2867 27.8416V27.8328L47.2783 27.8503L47.2867 27.8416L47.2532 27.8677H47.295L47.2867 27.8416L47.2532 27.8677H47.295H47.2532L47.2783 27.9027L47.295 27.8677H47.2532L47.2783 27.9027V27.8939V27.9027V27.8939V27.9027H47.3117C47.3117 27.9027 47.3953 27.9114 47.6462 27.9114C47.8886 27.9114 47.9639 27.9027 47.9973 27.9027L48.0558 27.9114L48.0642 27.8852L48.0475 27.9027L48.0558 27.9114L48.0642 27.8852L48.0475 27.9027L48.0893 27.8677H48.0391L48.0475 27.9027L48.0893 27.8677H48.0391H48.0809L48.0475 27.8416L48.0391 27.8677H48.0809L48.0475 27.8416L48.0642 27.8503L48.0558 27.8328L48.0475 27.8416L48.0642 27.8503L48.0558 27.8328C48.0391 27.8503 47.8301 27.8939 47.7381 28.1121L46.5342 31.0536C46.4841 31.1845 46.4339 31.2805 46.3837 31.3329C46.3336 31.3766 46.2834 31.4115 46.1747 31.4115C46.0744 31.4115 46.0242 31.3853 45.9991 31.3591L45.9573 31.2631L45.9908 31.1671L46.0995 31.1409C46.1747 31.1322 46.2249 31.1845 46.3419 31.1933L46.459 31.1234C46.5426 31.0274 46.6178 30.8441 46.6931 30.6696C46.7265 30.5823 46.7516 30.495 46.7767 30.4252L46.8185 30.2681C46.8185 30.1371 46.7683 30.0498 46.7432 29.9713L46.0995 28.1034C46.0493 27.9812 45.949 27.9463 45.8821 27.9027L45.8069 27.859H45.7985L45.7901 27.8677L45.7985 27.859L45.7901 27.8677L45.7985 27.859L45.765 27.8765H45.8069L45.7985 27.859L45.765 27.8765H45.8069H45.7734L45.7901 27.9027L45.8069 27.8765H45.7734L45.7901 27.9027H45.7985H45.8403C45.9657 27.9027 46.0995 27.9114 46.25 27.9114C46.4004 27.9114 46.5426 27.9027 46.7181 27.9027H46.7599L46.785 27.8677L46.7432 27.8852L46.7599 27.9114L46.785 27.8765L46.7432 27.8939L46.7599 27.8852H46.7432V27.8939L46.7599 27.8852H46.7432V27.8939H46.8101L46.7683 27.8416L46.7432 27.8939H46.8101L46.7683 27.8416C46.7516 27.8503 46.6596 27.8677 46.576 27.8939L46.4506 27.9638L46.367 28.1296V28.1471L46.4088 28.2954V28.3042L46.8519 29.6571L46.8603 29.6658L46.9188 29.5698L47.0108 29.5349L46.576 28.1994L46.5426 28.0685L46.4506 28.0947H46.5509L46.5927 28.0685L46.7599 28.0249L46.8519 27.9899L46.9355 27.859L46.877 27.7106L46.7181 27.667C46.5259 27.667 46.3837 27.6845 46.25 27.6845C46.1162 27.6845 45.9824 27.667 45.8403 27.667L45.6814 27.7106L45.6062 27.859C45.6062 27.9376 45.6564 27.9812 45.6898 28.0074L45.8487 28.0947L45.9155 28.1471L46.5593 30.0149L46.6513 29.98L46.5593 30.0149C46.5927 30.1109 46.6262 30.1895 46.6262 30.2506C46.6178 30.303 46.5509 30.5037 46.4757 30.687C46.4422 30.7743 46.4004 30.8529 46.367 30.914L46.3252 30.9751V30.9838L46.3586 31.0362V30.9838L46.3252 30.9925L46.3586 31.0449V30.9925C46.3419 31.0012 46.2583 30.9401 46.1162 30.9401C46.0326 30.9401 45.949 30.9576 45.8821 31.0187C45.8152 31.0798 45.7734 31.1671 45.7818 31.2718C45.7818 31.3504 45.8069 31.4464 45.8737 31.5162C45.949 31.586 46.0493 31.6297 46.1831 31.6297C46.3252 31.6297 46.4506 31.586 46.5342 31.4988C46.6178 31.4115 46.668 31.298 46.7265 31.1583L47.9304 28.2169C47.9639 28.1296 48.014 28.1034 48.0725 28.0772L48.1729 28.0336L48.2565 27.8939L48.1645 27.7543L48.0224 27.7281C47.9555 27.7281 47.9137 27.7455 47.6712 27.7455C47.4121 27.7455 47.3786 27.7368 47.3368 27.7281L47.2031 27.763L47.1278 27.9027C47.1278 27.9987 47.2031 28.0423 47.2449 28.0685L47.4455 28.1296L47.4957 28.182C47.4957 28.2954 47.4288 28.4962 47.3619 28.6533L46.9773 29.5611L46.9188 29.6309L46.994 29.692L47.0776 29.6309L47.0191 29.5523L46.9188 29.5698L47.0108 29.5349L46.9188 29.5698Z" fill="#60646C"/>
<path d="M52.8931 26.9924L52.8206 27.0561L52.7482 27.0197C52.5489 26.5369 52.7391 26.3638 51.616 26.3638C51.2628 26.3638 51.1903 26.4185 51.1903 26.6189V27.712C51.1903 27.9216 51.2266 27.9489 51.6523 27.9489C51.7791 27.9489 51.8878 27.9216 52.0146 27.9124C52.4674 27.8578 52.2863 27.3203 52.5127 27.3203C52.5489 27.3203 52.5852 27.3294 52.5852 27.4296C52.5852 27.6118 52.567 27.7849 52.567 27.9671C52.567 28.1402 52.5852 28.5228 52.5852 28.6321L52.5218 28.7323C52.4402 28.7323 52.4221 28.6594 52.3497 28.377C52.3044 28.1948 52.2591 28.1129 51.5889 28.1129C51.2628 28.1129 51.1813 28.1311 51.1813 28.2859V29.5248C51.1813 29.7981 51.2537 29.8346 51.6523 29.8892C51.7791 29.9075 51.9149 29.8983 51.9149 29.9985C51.924 30.0623 51.8877 30.0896 51.7519 30.0896C51.6523 30.0896 51.5164 30.0623 50.9549 30.0623C50.6831 30.0623 50.4205 30.0896 50.2212 30.0896C50.1125 30.0896 50.022 30.0805 50.022 29.9985C50.022 29.9348 50.0491 29.9257 50.4114 29.8801C50.5654 29.8619 50.6197 29.7799 50.6197 29.3609V26.6371C50.6197 26.4002 50.5926 26.382 50.4295 26.3365C50.1941 26.2727 50.0582 26.3274 50.0582 26.218C50.0582 26.1452 50.1307 26.1361 50.3661 26.1361C50.502 26.1361 50.6741 26.1361 50.8552 26.1452C51.0364 26.1452 51.2266 26.1543 51.3896 26.1543C51.8515 26.1543 52.5127 26.127 52.7301 26.127L52.8659 26.1907V26.9924H52.8931Z" fill="#60646C"/>
<path d="M52.7672 27.0315L52.7001 26.9539L52.6917 26.9626H52.6833L52.6329 27.0487L52.7252 27.0056C52.6329 26.7989 52.6413 26.6352 52.4902 26.4888C52.3391 26.3509 52.1041 26.3251 51.5838 26.3165C51.4159 26.3165 51.3068 26.3251 51.2145 26.3854C51.1137 26.4457 51.0886 26.5663 51.0969 26.6697V27.7034L51.1053 27.8499C51.1305 27.9274 51.2061 27.9963 51.29 28.0049C51.3739 28.0222 51.4746 28.0308 51.6257 28.0308C51.7516 28.0308 51.8523 28.0049 51.9698 27.9963H51.9782C52.2384 27.9705 52.3391 27.7637 52.3727 27.6259L52.4147 27.4536L52.4231 27.4364L52.4147 27.4277L52.4231 27.4364L52.4147 27.4277L52.4231 27.4364V27.4191L52.4147 27.4364H52.4231V27.4191L52.4147 27.4364L52.4315 27.3933L52.3895 27.4105L52.4231 27.4364L52.4399 27.3933L52.3979 27.4105L52.4063 27.4019H52.3979L52.4063 27.3933H52.3979V27.4277C52.3979 27.6 52.3895 27.7637 52.3895 27.936C52.3895 28.0997 52.3979 28.4615 52.3979 28.5649H52.4986L52.4147 28.5132L52.3559 28.6079L52.4399 28.6596V28.5563L52.4315 28.5821L52.4483 28.5649L52.4399 28.5563L52.4315 28.5821L52.4483 28.5649C52.4399 28.5649 52.4063 28.4701 52.3727 28.2978C52.3559 28.2117 52.3056 28.0911 52.1797 28.0394C52.0538 27.9877 51.8859 27.9705 51.5754 27.9705C51.4243 27.9705 51.3236 27.9705 51.2396 28.0049L51.1305 28.0997L51.1053 28.2375V29.4091C51.1053 29.5383 51.1221 29.6589 51.2228 29.7364C51.3152 29.8054 51.4327 29.8226 51.6173 29.8571L51.7768 29.8743L51.7936 29.8829L51.802 29.8657L51.7852 29.8743L51.7936 29.8829L51.802 29.8657L51.7852 29.8743L51.802 29.8657H51.7768L51.7852 29.8743L51.802 29.8657H51.7768V29.8743H51.802L51.7768 29.8571V29.8743H51.802L51.7768 29.8571L51.8104 29.8743L51.7852 29.8398L51.7768 29.8571L51.8104 29.8743L51.7852 29.8398L51.7936 29.8484V29.8398L51.802 29.8484V29.8398L51.7348 29.8484C51.6509 29.8484 51.5166 29.8226 50.9962 29.8226C50.736 29.8226 50.4926 29.8484 50.3164 29.8484L50.2157 29.8398H50.2073L50.1905 29.8657H50.2157L50.2073 29.8398L50.1905 29.8657H50.2157L50.1737 29.8915L50.2073 29.9432L50.2324 29.9087L50.1737 29.8915L50.2073 29.9432L50.1989 29.9346L50.2073 29.9432L50.1989 29.9346L50.2073 29.9432C50.2157 29.9346 50.3164 29.9174 50.5094 29.8915C50.5934 29.8829 50.7025 29.8312 50.736 29.7278C50.778 29.6331 50.7864 29.5039 50.7864 29.2971V26.7214C50.7864 26.6094 50.7864 26.5318 50.736 26.4543C50.6857 26.3768 50.6101 26.3595 50.5346 26.3337C50.4171 26.2992 50.3164 26.2992 50.266 26.2906L50.2408 26.282L50.2157 26.3251L50.2576 26.2992L50.2408 26.282L50.2157 26.3251L50.2576 26.2992L50.2241 26.3165L50.2576 26.3079V26.2992L50.2241 26.3165L50.2576 26.3079H50.2157L50.2492 26.3337L50.2576 26.3079H50.2157L50.2492 26.3337L50.2157 26.3079L50.2408 26.3423L50.2492 26.3337L50.2157 26.3079L50.2408 26.3423H50.2492C50.2744 26.3337 50.3416 26.3337 50.4507 26.3337C50.5766 26.3337 50.736 26.3337 50.9039 26.3423C51.0634 26.3423 51.248 26.3509 51.3991 26.3509C51.8272 26.3509 52.4399 26.3251 52.6413 26.3251V26.2217L52.5993 26.3165L52.6665 26.3509V27.0315H52.7672L52.7001 26.9539L52.7672 27.0315H52.8679V26.282V26.2217L52.6833 26.1356L52.6665 26.127H52.6413C52.4315 26.127 51.8188 26.1528 51.3991 26.1528C51.248 26.1528 51.0718 26.1442 50.9039 26.1442V26.2476V26.1442C50.736 26.1356 50.5766 26.1356 50.4423 26.1356C50.3332 26.1356 50.2576 26.1356 50.1905 26.1528L50.0982 26.2045L50.0562 26.3165L50.1233 26.4543L50.2912 26.4974L50.4758 26.5318C50.5514 26.5491 50.5682 26.5663 50.5682 26.5663C50.5682 26.5663 50.585 26.618 50.585 26.7214V29.2971C50.585 29.4866 50.5682 29.5986 50.5514 29.6417L50.4758 29.6934C50.308 29.7106 50.2157 29.7278 50.1485 29.7451L50.0562 29.8054L50.0226 29.9087C50.0142 29.9949 50.0898 30.0638 50.1485 30.0724L50.3164 30.0896C50.5094 30.0896 50.7444 30.0638 50.9962 30.0638C51.5166 30.0638 51.6173 30.0896 51.7348 30.0896L51.8943 30.0552L51.9782 29.9087V29.8829L51.8775 29.8915H51.9782L51.9195 29.7623C51.8188 29.6761 51.7264 29.702 51.6425 29.6848C51.4579 29.6589 51.3571 29.6331 51.332 29.6072C51.3068 29.59 51.29 29.5642 51.29 29.4349V28.2634L51.2984 28.2203H51.29H51.2984H51.29H51.2984L51.3571 28.2031C51.4075 28.1944 51.4746 28.1944 51.5754 28.1944C51.8775 28.1944 52.037 28.2117 52.1041 28.2461C52.1629 28.2806 52.1545 28.2806 52.1881 28.3667C52.2216 28.496 52.2384 28.5821 52.272 28.651L52.3391 28.7458L52.4483 28.7802H52.507L52.5909 28.6338L52.6077 28.6079V28.5821C52.6077 28.4701 52.5993 28.1083 52.5993 27.9532C52.5993 27.7896 52.6077 27.6173 52.6077 27.445L52.5658 27.2985L52.4483 27.2468C52.3475 27.2468 52.2804 27.333 52.2552 27.3933C52.2216 27.4881 52.2049 27.5914 52.1713 27.669C52.1377 27.7465 52.1041 27.7896 51.9782 27.8068L51.9866 27.9102L51.9782 27.8068C51.8439 27.8154 51.7432 27.8412 51.6425 27.8412C51.4411 27.8412 51.3404 27.8326 51.3236 27.8154V27.8068L51.3152 27.7206V26.6869C51.3152 26.5921 51.3236 26.5921 51.3403 26.5749C51.3571 26.5577 51.4495 26.5405 51.6089 26.5405C52.1209 26.5405 52.3224 26.5921 52.3895 26.6611C52.465 26.7127 52.4734 26.8592 52.5742 27.109L52.5825 27.1435L52.6749 27.1952L52.742 27.2296L52.8595 27.1176L52.8931 27.0918V27.0487H52.7672V27.0315Z" fill="#60646C"/>
<path d="M54.5465 28.9933C54.5465 28.7965 54.4999 28.7794 54.4534 28.7794C54.4255 28.7794 53.625 28.9505 53.625 29.4725C53.625 29.6266 53.746 29.7977 53.9787 29.7977C54.3882 29.7977 54.5372 29.4725 54.5372 29.2586V28.9933H54.5465ZM54.9747 29.5324C54.9747 29.618 55.0026 29.7292 55.1887 29.7292C55.3749 29.7292 55.3749 29.6094 55.468 29.6094L55.5424 29.6608C55.5424 29.7207 55.3656 30.0287 54.9933 30.0287C54.7047 30.0287 54.5558 29.8319 54.4906 29.7464C54.23 29.9261 54.0904 30.0886 53.6529 30.0886C53.3923 30.0886 53.141 29.9517 53.141 29.6437C53.141 29.0276 53.9973 28.8051 54.0438 28.788C54.2579 28.711 54.3976 28.6682 54.5279 28.6339L54.5558 28.4542C54.5558 28.0948 54.5465 27.8552 54.1369 27.8552C53.4481 27.8552 53.6994 28.5569 53.262 28.5569C53.1317 28.5569 53.113 28.4799 53.113 28.4115C53.113 28.2917 53.5505 27.667 54.3417 27.667C54.9747 27.667 54.9747 28.0521 54.9747 28.1975V29.5324Z" fill="#60646C"/>
<path d="M54.5025 28.9186H54.6048C54.6048 28.8147 54.5963 28.7454 54.5622 28.6848L54.4172 28.5982L54.3576 28.6068C54.2723 28.6328 54.0763 28.6848 53.9058 28.806C53.7268 28.9273 53.5563 29.1178 53.5563 29.4036C53.5563 29.5075 53.5904 29.6115 53.6671 29.6894C53.7353 29.776 53.8546 29.8366 53.9825 29.8366C54.2041 29.8366 54.3661 29.7414 54.4599 29.6028C54.5622 29.4729 54.5963 29.3257 54.5963 29.1871V28.91H54.5025H54.4087V29.1871C54.4087 29.2737 54.3746 29.3863 54.315 29.4729C54.2468 29.5595 54.153 29.6201 53.991 29.6201C53.8376 29.6201 53.7694 29.4989 53.7694 29.3863C53.7694 29.1698 53.9143 29.0225 54.0848 28.9186C54.17 28.8666 54.2553 28.832 54.332 28.8147L54.4172 28.7887L54.4343 28.78H54.4428L54.4343 28.7108V28.78H54.4428L54.4343 28.7108V28.78V28.7627L54.4172 28.7974L54.4343 28.806V28.7627L54.4172 28.7974L54.4343 28.7627L54.4002 28.7887L54.4172 28.7974L54.4343 28.7627L54.4002 28.7887C54.4087 28.7974 54.4172 28.8407 54.4172 28.9186H54.5025ZM54.8946 29.4642H54.7923L54.8435 29.6548C54.8946 29.7241 54.9798 29.7587 55.0821 29.7587C55.1844 29.7587 55.2697 29.7154 55.3123 29.6808L55.3464 29.6461V29.5422L55.2782 29.6201L55.3464 29.6808L55.4146 29.6028H55.3123H55.3549L55.3208 29.5941V29.6028H55.3634L55.3293 29.5941L55.2185 29.75C55.1503 29.8193 55.048 29.8713 54.9202 29.8713C54.7156 29.8713 54.6048 29.7241 54.5366 29.6288L54.4684 29.5508L54.3917 29.6115C54.1445 29.802 54.0592 29.9319 53.6842 29.9319C53.4796 29.9233 53.3261 29.8366 53.3176 29.5768C53.3176 29.317 53.4796 29.1265 53.6671 28.9966C53.8546 28.8666 54.0507 28.8147 54.0763 28.7974C54.2809 28.7194 54.4002 28.6761 54.511 28.6415L54.5792 28.6241L54.6218 28.373V28.3643V28.3557C54.6218 28.1738 54.6218 28.0092 54.5622 27.8707C54.494 27.7234 54.3405 27.6368 54.1359 27.6455C53.9655 27.6455 53.8291 27.6975 53.7353 27.7841C53.5989 27.9053 53.5563 28.0785 53.5052 28.1998L53.4284 28.321L53.3347 28.3557L53.3091 28.347L53.3006 28.3037H53.275H53.3006H53.275H53.3006C53.3006 28.2777 53.4029 28.0872 53.5733 27.94C53.7524 27.7927 53.9996 27.6541 54.3235 27.6541C54.5877 27.6541 54.69 27.7408 54.7412 27.8187C54.7923 27.9053 54.8008 28.0179 54.8008 28.0872V29.4383H54.8946H54.9969V28.0872C54.9969 28.0092 54.9969 27.8533 54.9117 27.7061C54.8179 27.5589 54.6304 27.4463 54.3235 27.4463C53.9314 27.4463 53.6245 27.6195 53.4284 27.8014C53.3261 27.888 53.2494 27.9919 53.1983 28.0699C53.1471 28.1565 53.113 28.2171 53.113 28.295L53.1557 28.4509C53.1898 28.5116 53.275 28.5462 53.3517 28.5375C53.4796 28.5375 53.5904 28.4683 53.6415 28.3816C53.7268 28.2517 53.7524 28.1045 53.8206 28.0006C53.8887 27.8966 53.9484 27.8274 54.1615 27.8274C54.332 27.836 54.3746 27.8707 54.4087 27.9313C54.4428 28.0006 54.4513 28.1478 54.4513 28.3297H54.5536L54.4513 28.3124L54.4258 28.4942L54.5195 28.5116L54.494 28.4163C54.3576 28.4509 54.2382 28.5029 54.0337 28.5722C54.0166 28.5808 53.795 28.6415 53.5819 28.7887C53.3688 28.9273 53.1386 29.1784 53.1386 29.5335C53.1386 29.7154 53.2068 29.8626 53.3176 29.9579C53.4284 30.0532 53.5648 30.0878 53.7012 30.0878C54.1359 30.0965 54.3064 29.8973 54.5366 29.7241L54.4684 29.6461L54.3917 29.7154C54.4513 29.7933 54.6133 30.0358 54.9372 30.0358C55.1418 30.0358 55.2952 29.9406 55.389 29.8453L55.4998 29.6981L55.5424 29.5682V29.5162L55.4402 29.4296L55.4146 29.4036H55.3464C55.2526 29.4036 55.2015 29.4729 55.1759 29.4902L55.0821 29.5249L55.0054 29.4989L54.9884 29.4296H54.8946V29.4642Z" fill="#60646C"/>
<path d="M55.7651 29.5762C55.7651 29.4605 55.7734 29.3944 55.8313 29.3944L55.9222 29.5431C55.9387 29.5845 56.0957 29.9399 56.4346 29.9399C56.666 29.9399 56.9057 29.8242 56.9057 29.5431C56.9057 29.0225 55.7982 29.0307 55.7982 28.3447C55.7982 28.0141 55.9966 27.667 56.5255 27.667C57.1454 27.667 57.1536 27.7579 57.1536 28.0224C57.1536 28.2538 57.1454 28.2951 57.104 28.2951C56.9305 28.2951 56.9883 27.8323 56.5255 27.8323C56.3024 27.8323 56.1453 27.9645 56.1453 28.1877C56.1453 28.6257 57.3107 28.7993 57.3107 29.4026C57.3107 29.6919 57.1206 30.0886 56.4924 30.0886C56.3189 30.0886 55.7734 30.0638 55.7734 29.8572V29.5762H55.7651Z" fill="#60646C"/>
<path d="M55.6454 29.6084H55.7463L55.7548 29.4918L55.7211 29.4739V29.5187L55.7548 29.4918L55.7211 29.4739V29.5187V29.4111L55.637 29.4649L55.7295 29.6264L55.8136 29.5726L55.7211 29.6084C55.7295 29.6443 55.78 29.752 55.8809 29.8686C55.9735 29.9853 56.1249 30.1019 56.3352 30.1019C56.4698 30.1019 56.6044 30.066 56.7222 29.9853C56.8316 29.8955 56.9157 29.752 56.9157 29.5726C56.9157 29.3842 56.8232 29.2496 56.7054 29.1509C56.5287 28.9984 56.2848 28.8997 56.0997 28.7741C55.9146 28.6395 55.7884 28.5049 55.7884 28.2806C55.7884 28.1192 55.8305 27.9666 55.9314 27.85C56.0324 27.7334 56.1838 27.6526 56.4278 27.6526C56.739 27.6526 56.8905 27.6885 56.9241 27.7244L56.9578 27.7782L56.9662 27.9397C56.9662 28.0653 56.9662 28.1371 56.9578 28.155V28.164L57.0083 28.1909L56.9746 28.1371L56.9494 28.164L56.9998 28.1909L56.9662 28.1371L56.9998 28.1909V28.1281L56.9662 28.1371L56.9998 28.1909V28.1281V28.1371L57.0083 28.1281H56.9998V28.1371L57.0083 28.1281C56.9914 28.1281 56.9494 28.0025 56.8736 27.8769C56.7979 27.7513 56.6465 27.6257 56.4109 27.6257C56.2763 27.6257 56.1586 27.6706 56.066 27.7513C55.9819 27.841 55.923 27.9666 55.923 28.1192C55.923 28.2896 56.024 28.4152 56.1502 28.5229C56.3268 28.6754 56.5792 28.801 56.7811 28.9535C56.983 29.106 57.1176 29.2586 57.1176 29.447C57.1176 29.5815 57.0756 29.743 56.9662 29.8686C56.8568 29.9942 56.6802 30.0839 56.3773 30.0929C56.2932 30.0929 56.1165 30.0839 55.9651 30.057C55.8894 30.0391 55.8221 30.0211 55.7884 29.9942L55.7463 29.9494V29.6354H55.6454H55.5444V29.9494C55.5444 30.057 55.6117 30.1378 55.6875 30.1737C55.8978 30.2993 56.2427 30.2993 56.3773 30.3082C56.7222 30.3082 56.9578 30.1916 57.1092 30.0211C57.2606 29.8507 57.3111 29.6354 57.3111 29.4559C57.3111 29.2586 57.2186 29.0971 57.1008 28.9625C56.9157 28.7741 56.6633 28.6305 56.453 28.496C56.3521 28.4332 56.2595 28.3614 56.209 28.2986L56.1249 28.1281C56.1333 27.9397 56.2259 27.859 56.4109 27.85C56.6129 27.859 56.6633 27.9397 56.7306 28.0474L56.8148 28.2178C56.8484 28.2717 56.9073 28.3434 56.9998 28.3434L57.1008 28.2986L57.1513 28.155C57.1597 28.1102 57.1597 28.0384 57.1597 27.9487L57.1429 27.7424C57.126 27.6437 57.0503 27.536 56.9241 27.5001C56.8148 27.4642 56.6549 27.4463 56.4109 27.4463C56.1249 27.4463 55.9062 27.5539 55.7632 27.7154C55.6286 27.8769 55.5697 28.0922 55.5697 28.2896C55.5697 28.5049 55.6538 28.6754 55.7716 28.801C55.9482 28.9894 56.1922 29.0971 56.3857 29.2137C56.4782 29.2675 56.5624 29.3303 56.6129 29.3842C56.6633 29.447 56.6886 29.5008 56.6886 29.5815C56.6886 29.6982 56.6465 29.7699 56.5792 29.8238C56.5119 29.8776 56.4109 29.9045 56.31 29.9045C56.1754 29.9045 56.0744 29.8238 56.0071 29.743C55.9314 29.6533 55.8894 29.5546 55.8894 29.5456L55.8809 29.5367L55.78 29.3662L55.7463 29.3124H55.7127C55.637 29.3034 55.5613 29.3842 55.5613 29.438L55.5444 29.6174H55.6454V29.6084Z" fill="#60646C"/>
<path d="M58.7512 27.9443C58.5691 27.9443 58.5509 27.9974 58.5509 28.1924C58.5509 28.5291 58.5327 29.0518 58.5327 29.4062C58.5327 29.6632 58.6329 29.8138 58.9789 29.8138C59.2521 29.8138 59.2521 29.7429 59.3705 29.7429L59.4433 29.805C59.4433 29.867 59.2521 30.0885 58.7877 30.0885C58.305 30.0885 58.0773 29.9113 58.0773 29.4417C58.0773 29.0075 58.0865 28.5734 58.0865 28.086C58.0865 27.9974 58.0591 27.9797 57.9499 27.9797H57.8042L57.7495 27.9265C57.7495 27.8291 58.0591 27.7759 58.2231 27.5987C58.4689 27.3329 58.4143 27.2266 58.5145 27.2266L58.5964 27.3417V27.5721C58.5964 27.6341 58.6146 27.6519 58.6966 27.6519H59.3978C59.4616 27.6519 59.5162 27.6696 59.5162 27.7936C59.5162 27.8734 59.5071 27.9265 59.4069 27.9265H58.7512V27.9443Z" fill="#60646C"/>
<path d="M58.6279 27.9987V27.898C58.5363 27.898 58.4356 27.9064 58.3714 27.9903C58.3165 28.0658 58.3256 28.1414 58.3165 28.2337C58.3165 28.5526 58.2982 29.0478 58.2982 29.3835C58.2982 29.5178 58.3256 29.6437 58.4264 29.736C58.5271 29.8283 58.6737 29.8703 58.8569 29.8703C59.0034 29.8703 59.0858 29.8535 59.1408 29.8367L59.2507 29.8115V29.7108L59.1774 29.7864L59.2507 29.8451L59.324 29.7696H59.2232H59.2599L59.2324 29.7528V29.7696H59.269L59.2415 29.7528C59.2324 29.7864 59.0675 29.9374 58.6828 29.9374C58.4447 29.9374 58.2982 29.8955 58.2157 29.8199C58.1241 29.7528 58.0784 29.6269 58.0784 29.4171C58.0784 29.0058 58.0967 28.5946 58.0967 28.133L58.0234 27.9735L57.8494 27.9316H57.7486L57.7303 27.9148L57.6479 27.9819H57.7578H57.712L57.7486 28.0071L57.7578 27.9819H57.712L57.7486 28.0071L57.7578 27.9987C57.8219 27.9483 58.0509 27.8896 58.1974 27.7385C58.3256 27.6042 58.3806 27.5119 58.4172 27.4448L58.4356 27.4112L58.4447 27.4028L58.4081 27.3776L58.4264 27.4112L58.4447 27.3944L58.4081 27.3692L58.4264 27.4028L58.3989 27.3944V27.428H58.4172L58.3989 27.3944V27.428V27.3273L58.3073 27.3776L58.3714 27.47V27.663L58.4264 27.7973L58.5821 27.8392H59.2873H59.3057L59.3148 27.8141L59.2965 27.8308L59.3148 27.8392L59.324 27.8141L59.3057 27.8308V27.8392L59.3148 27.8812V27.9232V27.9316L59.3423 27.9483L59.324 27.9232L59.3057 27.9399L59.3331 27.9567L59.3148 27.9316V27.898H59.2965H58.6462V27.9987V28.0994H59.2965L59.4797 28.0155L59.5163 27.8728L59.443 27.6882L59.2873 27.6378H58.5821H58.5546L58.5455 27.663L58.5638 27.6378L58.5546 27.6294L58.5455 27.6546L58.5638 27.6294L58.5363 27.6714L58.5913 27.6546L58.5638 27.6294L58.5363 27.6714L58.5913 27.6546H58.5821H58.5913H58.5821H58.5913V27.6462V27.428V27.4028L58.4997 27.2685L58.463 27.2266H58.3989L58.2707 27.2769L58.1883 27.4028C58.1608 27.4532 58.115 27.5119 58.0326 27.6042C57.9684 27.6714 57.8677 27.7217 57.7669 27.7637L57.6296 27.8308C57.5838 27.856 57.5288 27.898 57.5288 27.9735V28.0155L57.6112 28.091L57.6479 28.1162H57.8402H57.8952H57.9043L57.9135 28.091L57.8952 28.1078H57.9043L57.9135 28.0826L57.8952 28.0994L57.9135 28.0658L57.8677 28.0742L57.886 28.091L57.9043 28.0574L57.8585 28.0658L57.8677 28.091C57.8677 28.5526 57.8494 28.9639 57.8494 29.3751C57.8494 29.6101 57.9135 29.7948 58.06 29.9206C58.2066 30.0465 58.4172 30.0885 58.6737 30.0885C58.9301 30.0885 59.1133 30.0298 59.2415 29.9626L59.3881 29.8535L59.4522 29.7192V29.6773L59.3423 29.5849L59.3057 29.5598H59.2599C59.1774 29.5598 59.1225 29.5849 59.0767 29.5933C59.0309 29.6101 58.9851 29.6185 58.8569 29.6185C58.7012 29.6185 58.6187 29.5849 58.5821 29.5514C58.5455 29.5094 58.518 29.4423 58.518 29.3332C58.518 29.0058 58.5363 28.5107 58.5363 28.1833V28.0826L58.5455 28.0574L58.6279 28.0491V27.9987Z" fill="#60646C"/>
<path d="M60.6969 27.1205L60.6798 27.197C60.6798 27.2736 62.4275 27.3246 62.4275 28.6257C62.4275 29.8842 60.9882 30.3094 60.5684 30.3094C60.4656 30.3094 60.4399 30.2754 60.4399 30.2413L60.4999 30.1648C60.5513 30.1563 60.6712 30.1393 60.8255 30.0883C61.4594 29.8927 62.0162 29.459 62.0162 28.7362C62.0162 28.328 61.9049 28.0559 61.3909 27.8093C60.8683 27.5712 60.4399 27.5117 60.4399 27.4266C60.4399 27.3416 60.6712 26.6868 60.6969 26.5933C60.7226 26.5082 60.7483 26.4997 60.9625 26.4742L61.9648 26.3722C62.0419 26.3637 62.0676 26.3467 62.1019 26.3467C62.179 26.3467 62.2133 26.3552 62.2133 26.4402C62.2133 26.5168 62.2133 26.6953 62.0762 26.7123L60.834 26.8909C60.7569 26.8994 60.7483 26.9419 60.7398 26.9759L60.6969 27.1205Z" fill="#60646C"/>
<path d="M60.5743 27.0382L60.4704 27.0202L60.4617 27.1014V27.1104V27.1194L60.505 27.2097L60.6522 27.2638C60.8514 27.3089 61.2497 27.3811 61.5961 27.5886C61.9425 27.7961 62.2283 28.0939 62.2283 28.6352C62.2283 29.2578 61.8905 29.6728 61.4922 29.9435C61.0939 30.2051 60.6349 30.3224 60.4444 30.3134H60.4011H60.3924L60.3751 30.3495L60.4011 30.3314L60.3838 30.3224L60.3665 30.3585L60.3924 30.3405L60.3578 30.3675H60.4098L60.4011 30.3405L60.3665 30.3675H60.4184H60.3145L60.3924 30.4307L60.453 30.3495L60.3751 30.2863L60.3924 30.3946C60.4444 30.3856 60.5743 30.3585 60.7302 30.3044C61.3969 30.0969 62.0031 29.5916 62.0031 28.7706C62.0031 28.545 61.9771 28.3375 61.8732 28.157C61.7693 27.9766 61.5875 27.8232 61.319 27.6878C61.0506 27.5615 60.7994 27.4713 60.6262 27.4172C60.5396 27.3901 60.4704 27.363 60.4271 27.345L60.3924 27.3269L60.3751 27.354L60.4011 27.336L60.3924 27.3269L60.3751 27.354L60.4011 27.336L60.3405 27.3721H60.4098L60.4011 27.336L60.3405 27.3721H60.4098H60.4011H60.4184H60.4011H60.4184C60.4271 27.336 60.479 27.1285 60.5396 26.948C60.6003 26.7585 60.6609 26.5691 60.6782 26.5149L60.6869 26.4969L60.6695 26.4879L60.6782 26.4969L60.6869 26.4879L60.6695 26.4788L60.6782 26.4879C60.6782 26.4879 60.7388 26.4698 60.8601 26.4608L61.8732 26.3525H61.8819C61.9685 26.3435 61.9858 26.3345 62.0118 26.3345H62.0464L62.0637 26.2894L62.0204 26.3164L62.0464 26.3435L62.0637 26.2984L62.0204 26.3254L62.0378 26.3164H62.0204V26.3254L62.0378 26.3164H62.0204V26.3345L62.0118 26.4698L61.9685 26.5239L60.7128 26.7044L60.5743 26.7766L60.531 26.8758L60.6349 26.9029L60.5396 26.8668L60.4877 27.0112V27.0202V27.0292L60.5743 27.0382L60.6695 27.0743L60.7215 26.93L60.7302 26.9029L60.7042 26.8848L60.7215 26.9119L60.7302 26.9029L60.7042 26.8848L60.7215 26.9119L60.7388 26.9029L61.9858 26.7224C62.107 26.7044 62.1763 26.6051 62.1936 26.5239C62.2196 26.4427 62.2196 26.3706 62.2196 26.3254L62.1503 26.163L62.0031 26.127C61.9425 26.127 61.9252 26.136 61.8473 26.145L61.8646 26.2533L61.8559 26.145L60.8427 26.2533C60.7388 26.2623 60.6695 26.2713 60.6089 26.2984L60.4877 26.4518L60.5829 26.4788L60.4877 26.4427C60.4704 26.4879 60.4011 26.6954 60.3405 26.8939C60.3058 26.9931 60.2799 27.0924 60.2539 27.1736C60.2366 27.2548 60.2192 27.3089 60.2192 27.363L60.2799 27.4803C60.3665 27.5435 60.479 27.5706 60.6436 27.6247C60.8081 27.6788 61.0246 27.751 61.2411 27.8593C61.4922 27.9766 61.6308 28.1029 61.7087 28.2382C61.7866 28.3736 61.8126 28.536 61.8126 28.7435C61.8126 29.4472 61.3017 29.8803 60.6782 30.0788C60.5223 30.133 60.4184 30.151 60.3578 30.16L60.3232 30.169L60.2366 30.2863L60.2192 30.3134V30.3495L60.2972 30.4939L60.453 30.5299C60.6955 30.5299 61.1718 30.4126 61.6048 30.1149C62.0378 29.8262 62.4361 29.339 62.4274 28.6262C62.4274 27.8773 61.9425 27.4803 61.4835 27.2818C61.2497 27.1826 61.0246 27.1194 60.8514 27.0833C60.7735 27.0563 60.6955 27.0473 60.6522 27.0382L60.6089 27.0292L60.5916 27.0653L60.6176 27.0292L60.6089 27.0202L60.5916 27.0563L60.6176 27.0202L60.5743 27.1104H60.6609L60.6262 27.0292L60.5743 27.1104H60.6609H60.557L60.6609 27.1285L60.6695 27.0472L60.5743 27.0382L60.6695 27.0743L60.5743 27.0382Z" fill="#60646C"/>
<path d="M65.4698 28.2179C65.4698 27.4014 65.2199 26.4658 64.6399 26.4658C64.051 26.4658 63.8011 27.4014 63.8011 28.2179C63.8011 29.0345 64.042 29.9701 64.6399 29.9701C65.2199 29.9616 65.4698 29.026 65.4698 28.2179ZM63.3103 28.2179C63.3103 26.9761 63.9885 26.3467 64.6399 26.3467C65.4073 26.3467 65.9606 27.1292 65.9606 28.2179C65.9606 29.4088 65.2824 30.0892 64.6399 30.0892C63.8725 30.0807 63.3103 29.4088 63.3103 28.2179Z" fill="#60646C"/>
<path d="M65.3731 28.2229H65.4804C65.4804 27.7802 65.4178 27.3104 65.2747 26.931C65.1405 26.5606 64.899 26.2625 64.5413 26.2625C64.1745 26.2625 63.942 26.5696 63.7989 26.931C63.6558 27.3104 63.5932 27.7802 63.5932 28.2229C63.5932 28.6656 63.6558 29.1444 63.7989 29.5148C63.933 29.8852 64.1745 30.1833 64.5413 30.1833C64.899 30.1833 65.1405 29.8852 65.2747 29.5148C65.4178 29.1444 65.4804 28.6656 65.4804 28.2229H65.3731H65.2658C65.2658 28.6475 65.2031 29.0992 65.0779 29.4335C64.9438 29.7768 64.7649 29.9755 64.5413 29.9755C64.3087 29.9755 64.1298 29.7858 63.9957 29.4425C63.8704 29.1082 63.8078 28.6475 63.8078 28.2319C63.8078 27.8073 63.8704 27.3556 63.9957 27.0213C64.1298 26.678 64.3087 26.4793 64.5413 26.4793C64.7649 26.4793 64.9527 26.669 65.0779 27.0213C65.2031 27.3556 65.2658 27.8163 65.2658 28.2319H65.3731V28.2229ZM63.2086 28.2229H63.3159C63.3159 26.94 63.9688 26.3438 64.5413 26.3438C64.8811 26.3438 65.1853 26.5245 65.4089 26.8587C65.6325 27.193 65.7666 27.6628 65.7666 28.2229C65.7666 28.8372 65.6056 29.307 65.3641 29.6232C65.1316 29.9394 64.8275 30.102 64.5413 30.102C64.1924 30.102 63.8883 29.9394 63.6737 29.6322C63.4501 29.316 63.3159 28.8372 63.3159 28.2229H63.2086H63.1012C63.1012 28.8734 63.2443 29.3883 63.4948 29.7497C63.7452 30.111 64.1209 30.3098 64.5323 30.3098C65.2658 30.3008 65.9634 29.5148 65.9634 28.2229C65.9634 27.6266 65.8203 27.1117 65.5699 26.7322C65.3194 26.3528 64.9527 26.127 64.5323 26.127C64.1745 26.127 63.8078 26.3167 63.5395 26.669C63.2712 27.0213 63.0923 27.5453 63.0923 28.2229H63.2086Z" fill="#60646C"/>
<path d="M33.9314 35.4198L35.0795 34.3945C35.1567 34.3321 35.2146 34.2697 35.2725 34.2162C35.3304 34.1627 35.369 34.1092 35.4076 34.0557C35.4462 34.0023 35.4654 33.9488 35.4847 33.8953C35.504 33.8418 35.504 33.7794 35.504 33.708C35.504 33.6367 35.4944 33.5654 35.4654 33.5119C35.4365 33.4495 35.3979 33.4049 35.3497 33.3603C35.3014 33.3157 35.2435 33.289 35.176 33.2622C35.1085 33.2444 35.0313 33.2266 34.9637 33.2266C34.8094 33.2266 34.6839 33.2712 34.5778 33.3514C34.4813 33.4316 34.4138 33.5386 34.3849 33.6724L33.9989 33.6456C34.0182 33.5297 34.0568 33.4316 34.1147 33.3425C34.1726 33.2533 34.2401 33.182 34.327 33.1285C34.4138 33.0661 34.5103 33.0215 34.6164 32.9948C34.7225 32.968 34.8383 32.9502 34.9637 32.9502C35.0892 32.9502 35.2049 32.968 35.3207 33.0037C35.4269 33.0394 35.5233 33.0839 35.6102 33.1463C35.697 33.2088 35.7645 33.289 35.8128 33.3871C35.861 33.4851 35.89 33.5921 35.89 33.7169C35.89 33.8239 35.8707 33.9309 35.8417 34.0201C35.8031 34.1092 35.7645 34.1895 35.7067 34.2697C35.6488 34.35 35.5909 34.4124 35.5233 34.4837C35.4558 34.555 35.3786 34.6174 35.3014 34.6798L34.3656 35.4912V35.5001H35.9189V35.8121H33.9314V35.4198Z" fill="#60646C"/>
<path d="M36.1421 34.3768C36.1421 34.2271 36.1504 34.0597 36.1753 33.8924C36.2001 33.7251 36.2499 33.5666 36.3163 33.4257C36.3826 33.2848 36.4739 33.1703 36.5817 33.0823C36.6978 32.9942 36.8471 32.9502 37.0213 32.9502C37.2038 32.9502 37.3448 32.9942 37.4609 33.0823C37.577 33.1703 37.6682 33.2848 37.7346 33.4257C37.8009 33.5666 37.8507 33.7163 37.8673 33.8924C37.8922 34.0597 37.9088 34.2271 37.9088 34.3768C37.9088 34.5353 37.9005 34.6938 37.8673 34.8699C37.8424 35.0372 37.8009 35.1957 37.7346 35.3366C37.6682 35.4775 37.577 35.592 37.4609 35.68C37.3448 35.7681 37.2038 35.8121 37.0213 35.8121C36.8388 35.8121 36.6978 35.7681 36.5817 35.68C36.4656 35.592 36.3743 35.4775 36.3163 35.3366C36.2499 35.1957 36.2084 35.046 36.1753 34.8699C36.1587 34.7026 36.1421 34.5353 36.1421 34.3768ZM36.4573 34.3768C36.4573 34.4472 36.4573 34.5177 36.4656 34.6057C36.4739 34.6938 36.4822 34.773 36.4904 34.8611C36.507 34.9492 36.5236 35.0284 36.5485 35.1165C36.5734 35.1957 36.6149 35.2662 36.6563 35.3366C36.6978 35.3983 36.7476 35.4511 36.8139 35.4863C36.8803 35.5215 36.9466 35.548 37.0379 35.548C37.1208 35.548 37.1955 35.5303 37.2618 35.4863C37.3199 35.4511 37.3696 35.3983 37.4194 35.3366C37.4609 35.275 37.4941 35.2045 37.5189 35.1165C37.5438 35.0372 37.5687 34.9492 37.577 34.8611C37.5936 34.773 37.6019 34.6938 37.6019 34.6057C37.6102 34.5265 37.6102 34.4472 37.6102 34.3768C37.6102 34.3063 37.6102 34.2359 37.6019 34.1478C37.5936 34.0597 37.5853 33.9805 37.577 33.8924C37.5604 33.8132 37.5438 33.7251 37.5189 33.6459C37.4941 33.5666 37.4609 33.4962 37.4194 33.4257C37.3696 33.3641 37.3199 33.3112 37.2618 33.276C37.1955 33.2408 37.1208 33.2232 37.0379 33.2232C36.9549 33.2232 36.8803 33.2408 36.8139 33.276C36.7476 33.32 36.6978 33.3641 36.6563 33.4257C36.6149 33.4874 36.5817 33.5578 36.5485 33.6459C36.5236 33.7251 36.507 33.8132 36.4904 33.8924C36.4739 33.9805 36.4656 34.0597 36.4656 34.1478C36.4573 34.2359 36.4573 34.3063 36.4573 34.3768Z" fill="#60646C"/>
<path d="M39.6723 35.8117H39.3137V33.5725H39.3043L38.7757 33.9667L38.5681 33.7402L39.3609 33.1699H39.6723V35.8117Z" fill="#60646C"/>
<path d="M40.5552 35.4198L41.5757 34.3945C41.6443 34.3321 41.6958 34.2697 41.7473 34.2162C41.7987 34.1627 41.833 34.1092 41.8673 34.0557C41.9016 34.0023 41.9188 33.9488 41.9359 33.8953C41.9531 33.8418 41.9531 33.7794 41.9531 33.708C41.9531 33.6367 41.9445 33.5654 41.9188 33.5119C41.893 33.4495 41.8587 33.4049 41.8159 33.3603C41.773 33.3157 41.7215 33.289 41.6615 33.2622C41.6015 33.2444 41.5329 33.2266 41.4728 33.2266C41.3356 33.2266 41.2155 33.2712 41.1298 33.3514C41.044 33.4316 40.984 33.5386 40.9583 33.6724L40.6152 33.6456C40.6324 33.5297 40.6667 33.4316 40.7181 33.3425C40.7696 33.2533 40.8296 33.182 40.9068 33.1285C40.984 33.0661 41.0697 33.0215 41.1641 32.9948C41.2584 32.968 41.3613 32.9502 41.4728 32.9502C41.5843 32.9502 41.6958 32.968 41.7901 33.0037C41.893 33.0394 41.9788 33.0839 42.056 33.1463C42.1332 33.2088 42.1932 33.289 42.2361 33.3871C42.279 33.4851 42.3047 33.5921 42.3047 33.7169C42.3047 33.8239 42.2875 33.9309 42.2618 34.0201C42.2275 34.1092 42.1932 34.1895 42.1418 34.2697C42.0903 34.35 42.0388 34.4124 41.9788 34.4837C41.9188 34.555 41.8502 34.6174 41.7816 34.6798L40.9497 35.4912V35.5001H42.3219V35.8121H40.5809V35.4198H40.5552Z" fill="#60646C"/>
<path d="M43.6516 33.1699H44.0244L44.6634 35.3588L45.3556 33.1699H45.7284L46.4029 35.3588H46.4118L47.0597 33.1699H47.4058L46.5893 35.8117H46.2254L45.5331 33.5725L44.8409 35.8117H44.477L43.6516 33.1699Z" fill="#60646C"/>
<path d="M47.626 33.388C47.626 33.3293 47.6525 33.2789 47.6879 33.237C47.7322 33.1951 47.7853 33.1699 47.8472 33.1699C47.9091 33.1699 47.9622 33.1951 48.0065 33.237C48.0507 33.2789 48.0684 33.3293 48.0684 33.388C48.0684 33.4467 48.0507 33.497 48.0065 33.5389C47.9622 33.5809 47.9091 33.5976 47.8472 33.5976C47.7764 33.5976 47.7322 33.5725 47.6879 33.5389C47.6437 33.5054 47.626 33.4467 47.626 33.388ZM47.6968 34.0673H48.0065V35.8117H47.6968V34.0673Z" fill="#60646C"/>
<path d="M48.523 34.5148C48.523 34.4321 48.523 34.3577 48.5133 34.2915C48.5133 34.2254 48.5037 34.1592 48.5037 34.1014H48.8222C48.8222 34.151 48.8222 34.1923 48.8222 34.2419C48.8222 34.2915 48.8319 34.3329 48.8319 34.3825H48.8416C48.8609 34.3412 48.8995 34.2998 48.9381 34.2585C48.9767 34.2171 49.025 34.1841 49.0829 34.151C49.1408 34.1262 49.1987 34.0931 49.276 34.0766C49.3532 34.06 49.4208 34.0518 49.5077 34.0518C49.6428 34.0518 49.7587 34.0683 49.8456 34.1014C49.9421 34.1344 50.0193 34.1841 50.0869 34.2419C50.1448 34.3081 50.1931 34.3742 50.2221 34.4652C50.251 34.5479 50.2703 34.6471 50.2703 34.7463V35.813H49.9325V34.7794C49.9325 34.6306 49.8938 34.5231 49.8166 34.4321C49.7394 34.3494 49.6235 34.3081 49.4691 34.3081C49.3629 34.3081 49.2663 34.3246 49.1891 34.3577C49.1119 34.3908 49.0443 34.4321 48.996 34.49C48.9477 34.5479 48.9091 34.614 48.8802 34.6967C48.8512 34.7794 48.8416 34.8621 48.8416 34.9613V35.8047H48.5133V34.5148H48.523Z" fill="#60646C"/>
<path d="M50.7337 34.5148C50.7337 34.4321 50.724 34.3577 50.724 34.2915C50.7144 34.2254 50.7144 34.1592 50.7144 34.1014H51.0329C51.0329 34.151 51.0329 34.1923 51.0426 34.2419C51.0426 34.2915 51.0426 34.3329 51.0426 34.3825H51.0522C51.0716 34.3412 51.1102 34.2998 51.1488 34.2585C51.1874 34.2171 51.2357 34.1841 51.2936 34.151C51.3515 34.1262 51.4191 34.0931 51.4867 34.0766C51.5639 34.06 51.6315 34.0518 51.7184 34.0518C51.8439 34.0518 51.9597 34.0683 52.0563 34.1014C52.1528 34.1344 52.23 34.1841 52.2976 34.2419C52.3652 34.3081 52.4038 34.3742 52.4328 34.4652C52.4617 34.5479 52.481 34.6471 52.481 34.7463V35.813H52.1431V34.7794C52.1431 34.6306 52.1045 34.5231 52.037 34.4321C51.9597 34.3494 51.8439 34.3081 51.6894 34.3081C51.5832 34.3081 51.4867 34.3246 51.4094 34.3577C51.3322 34.3908 51.2646 34.4321 51.2164 34.49C51.1681 34.5479 51.1295 34.614 51.1005 34.6967C51.0716 34.7794 51.0619 34.8621 51.0619 34.9613V35.8047H50.724V34.5148H50.7337Z" fill="#60646C"/>
<path d="M54.6285 35.4591C54.5164 35.5878 54.4044 35.6762 54.2751 35.7325C54.1459 35.7808 53.9994 35.813 53.8356 35.813C53.6977 35.813 53.5685 35.7888 53.4564 35.7406C53.3444 35.6923 53.2496 35.636 53.172 35.5556C53.0945 35.4752 53.0342 35.3787 52.9911 35.2741C52.948 35.1696 52.9221 35.049 52.9221 34.9283C52.9221 34.7997 52.948 34.679 52.9911 34.5745C53.0342 34.4699 53.1031 34.3734 53.1807 34.293C53.2668 34.2126 53.3616 34.1563 53.4737 34.1161C53.5857 34.0678 53.7064 34.0518 53.8442 34.0518C53.9735 34.0518 54.0855 34.0678 54.189 34.1081C54.2924 34.1483 54.3872 34.2046 54.4561 34.2769C54.5337 34.3493 54.594 34.4458 54.6285 34.5504C54.6716 34.6549 54.6888 34.7836 54.6888 34.9203V35.0088H53.241C53.2496 35.0811 53.2668 35.1455 53.3013 35.2178C53.3272 35.2822 53.3789 35.3385 53.422 35.3867C53.4737 35.435 53.534 35.4752 53.6029 35.4993C53.6719 35.5315 53.7408 35.5395 53.827 35.5395C53.9563 35.5395 54.0683 35.5154 54.1545 35.4752C54.2407 35.435 54.3268 35.3706 54.3958 35.2822L54.6285 35.4591ZM54.3699 34.7755C54.3613 34.6308 54.3182 34.5182 54.2234 34.4297C54.1286 34.3413 53.9994 34.3011 53.8356 34.3011C53.6719 34.3011 53.534 34.3413 53.4306 34.4297C53.3272 34.5182 53.2668 34.6308 53.2496 34.7755H54.3699Z" fill="#60646C"/>
<path d="M55.1515 34.5126C55.1515 34.4303 55.1515 34.3563 55.1422 34.2904C55.1422 34.2246 55.1328 34.1587 55.1328 34.1011H55.4416C55.4416 34.1505 55.4416 34.1917 55.451 34.241C55.451 34.2904 55.451 34.3316 55.451 34.381H55.4603C55.4791 34.3398 55.5165 34.2987 55.5539 34.2575C55.5913 34.2164 55.6381 34.1834 55.6943 34.1505C55.7504 34.1258 55.8159 34.0929 55.8814 34.0764C55.9563 34.06 56.0218 34.0518 56.106 34.0518C56.1247 34.0518 56.1528 34.0518 56.1715 34.06C56.1902 34.06 56.209 34.0682 56.237 34.0764L56.2183 34.3645C56.1622 34.348 56.106 34.3398 56.0499 34.3398C55.844 34.3398 55.7036 34.3974 55.6101 34.5126C55.5165 34.6278 55.4791 34.776 55.4791 34.9735V35.813H55.1515V34.5126Z" fill="#60646C"/>
<path d="M20.7622 36.2051V35.9873H21.1854V33.6209H20.7704V33.4032H22.0399V33.6209H21.625V35.9873H22.0481V36.2051H20.7622Z" fill="#60646C"/>
<path d="M23.8525 36.2051V35.9873H24.1565V34.7877C24.1565 34.6371 24.114 34.5275 24.0291 34.459C23.947 34.3878 23.836 34.3522 23.6963 34.3522C23.595 34.3522 23.5005 34.3755 23.4129 34.4221C23.3252 34.4686 23.254 34.5426 23.1992 34.6439C23.1445 34.7425 23.1171 34.8726 23.1171 35.0342H23.0144C23.0144 34.8124 23.0445 34.6288 23.1047 34.4837C23.1677 34.3385 23.2609 34.2317 23.3841 34.1632C23.5101 34.092 23.6649 34.0564 23.8484 34.0564C24.062 34.0564 24.2359 34.1126 24.3701 34.2249C24.5071 34.3372 24.5755 34.5207 24.5755 34.7754V35.9873H24.8837V36.2051H23.8525ZM22.3283 36.2051V35.9873H22.6898V34.307H22.3611V34.0893H23.0678V34.8411L23.1171 34.8329V35.9873H23.4211V36.2051H22.3283Z" fill="#60646C"/>
<path d="M26.2205 36.2503C26.0287 36.2503 25.8589 36.2078 25.711 36.1229C25.5631 36.0353 25.4467 35.9093 25.3618 35.745C25.2769 35.5779 25.2344 35.3779 25.2344 35.1451C25.2344 34.9123 25.2769 34.7138 25.3618 34.5494C25.4467 34.3851 25.5631 34.2605 25.711 34.1756C25.8589 34.0879 26.0287 34.0441 26.2205 34.0441C26.4259 34.0441 26.5943 34.0879 26.7258 34.1756C26.86 34.2632 26.9586 34.3892 27.0216 34.5535C27.0873 34.7179 27.1202 34.9137 27.1202 35.141L27.1448 35.1492C27.1448 35.3738 27.1106 35.5697 27.0421 35.7367C26.9737 35.9011 26.8709 36.0284 26.734 36.1188C26.5971 36.2065 26.4259 36.2503 26.2205 36.2503ZM26.3601 35.9668C26.4943 35.9668 26.6121 35.9353 26.7135 35.8723C26.8148 35.8093 26.8942 35.7162 26.9517 35.5929C27.0093 35.4697 27.038 35.3204 27.038 35.1451C27.038 34.9698 27.0093 34.8219 26.9517 34.7014C26.8942 34.5782 26.8148 34.4851 26.7135 34.4221C26.6121 34.3563 26.4943 34.3235 26.3601 34.3235C26.2259 34.3235 26.1082 34.3563 26.0068 34.4221C25.9055 34.4851 25.8261 34.5782 25.7685 34.7014C25.7138 34.8219 25.6864 34.9698 25.6864 35.1451C25.6864 35.3204 25.7138 35.4697 25.7685 35.5929C25.8261 35.7162 25.9055 35.8093 26.0068 35.8723C26.1082 35.9353 26.2259 35.9668 26.3601 35.9668ZM27.0503 36.2051V35.6464L27.0996 35.1451L27.0134 34.722V33.4648H26.6929V33.2471H27.4406V35.9873H27.7611V36.2051H27.0503Z" fill="#60646C"/>
<path d="M28.0655 36.2051V35.9873H28.4271V34.307H28.0984V34.0893H28.8502V35.9873H29.1707V36.2051H28.0655ZM28.6161 33.8058C28.5311 33.8058 28.4613 33.7812 28.4065 33.7319C28.3545 33.6826 28.3285 33.6182 28.3285 33.5388C28.3285 33.4593 28.3545 33.3963 28.4065 33.3498C28.4613 33.3032 28.5311 33.2799 28.6161 33.2799C28.701 33.2799 28.7694 33.3032 28.8215 33.3498C28.8735 33.3936 28.8995 33.4566 28.8995 33.5388C28.8995 33.6182 28.8735 33.6826 28.8215 33.7319C28.7694 33.7812 28.701 33.8058 28.6161 33.8058Z" fill="#60646C"/>
<path d="M29.975 34.8C29.901 34.8 29.8339 34.7795 29.7737 34.7384C29.7162 34.6946 29.6874 34.6261 29.6874 34.533C29.6874 34.4262 29.7299 34.3372 29.8148 34.2659C29.9024 34.1947 30.0161 34.1413 30.1558 34.1057C30.2954 34.0674 30.4433 34.0482 30.5995 34.0482C30.8514 34.0482 31.0473 34.0989 31.187 34.2002C31.3266 34.3016 31.3951 34.4549 31.3924 34.6603L30.9939 34.5987C30.9939 34.4919 30.9528 34.4097 30.8706 34.3522C30.7912 34.2947 30.672 34.2659 30.5132 34.2659C30.4173 34.2659 30.3256 34.2769 30.2379 34.2988C30.1503 34.3207 30.0777 34.3563 30.0202 34.4056C29.9654 34.4522 29.9353 34.5152 29.9298 34.5946L29.9257 34.3974C30.0133 34.4002 30.0832 34.418 30.1352 34.4508C30.1873 34.4837 30.2119 34.5344 30.2092 34.6028C30.2064 34.6631 30.1845 34.711 30.1434 34.7466C30.1023 34.7822 30.0462 34.8 29.975 34.8ZM31.5814 36.2462C31.4061 36.2462 31.2719 36.1982 31.1787 36.1024C31.0856 36.0038 31.0391 35.8655 31.0391 35.6874V35.556H30.9939V34.952H30.9692L30.9939 34.7672V34.5987L31.3924 34.6603V35.7203C31.3924 35.7943 31.4102 35.8559 31.4458 35.9052C31.4841 35.9517 31.5403 35.975 31.6142 35.975C31.6854 35.975 31.7388 35.9517 31.7745 35.9052C31.8128 35.8559 31.832 35.7943 31.832 35.7203V35.1205H32.1113V35.6915C32.1113 35.8668 32.0661 36.0038 31.9758 36.1024C31.8854 36.1982 31.7539 36.2462 31.5814 36.2462ZM30.2461 36.2462C30.038 36.2462 29.8668 36.1969 29.7326 36.0983C29.6011 35.9969 29.5354 35.8573 29.5354 35.6792C29.5354 35.5505 29.5628 35.4464 29.6176 35.367C29.6751 35.2848 29.7531 35.2205 29.8517 35.1739C29.9503 35.1246 30.064 35.0876 30.1927 35.063L30.5419 34.989C30.6268 34.9726 30.7035 34.9493 30.772 34.9192C30.8405 34.889 30.8939 34.848 30.9322 34.7959C30.9733 34.7439 30.9939 34.6782 30.9939 34.5987L31.0062 34.952H30.9939C30.9665 35.0123 30.9185 35.0616 30.8501 35.0999C30.7843 35.1383 30.7008 35.1684 30.5995 35.1903L30.4187 35.2273C30.3365 35.2465 30.2612 35.2711 30.1927 35.3013C30.1243 35.3286 30.0695 35.3656 30.0284 35.4122C29.9873 35.4587 29.9668 35.5217 29.9668 35.6012C29.9668 35.7107 30.0065 35.7943 30.0859 35.8518C30.1653 35.9093 30.2722 35.938 30.4064 35.938C30.5104 35.938 30.6063 35.9161 30.694 35.8723C30.7843 35.8285 30.8569 35.7573 30.9117 35.6587C30.9665 35.5573 30.9939 35.4245 30.9939 35.2602L31.113 35.2684C31.113 35.5039 31.0747 35.6943 30.998 35.8394C30.9213 35.9819 30.8172 36.0859 30.6857 36.1517C30.5543 36.2147 30.4077 36.2462 30.2461 36.2462Z" fill="#60646C"/>
</svg>
