<svg width="88" height="50" viewBox="0 0 88 50" fill="none" xmlns="http://www.w3.org/2000/svg">
<g opacity="0.9">
<g opacity="0.5">
<rect x="0.799561" y="0.799805" width="85.556" height="47.6331" rx="1.83211" fill="#CDCED6"/>
<rect x="0.399774" y="0.400018" width="86.3555" height="48.4326" rx="2.2319" stroke="white" stroke-opacity="0.3" stroke-width="0.799573"/>
</g>
</g>
<path d="M21.7108 14.5169C19.4284 14.2325 14.816 15.939 12.7951 16.8278C10.9406 27.0669 17.9662 33.0635 21.7108 34.7818C30.27 31.511 31.221 21.6867 30.6266 17.1834C27.4169 15.228 24.5639 14.8725 21.7108 14.5169Z" fill="#61BE7D"/>
<path d="M30.6274 17.183C27.4178 15.2277 24.5647 14.8721 21.7117 14.5166V34.7815C30.2708 31.5107 31.2218 21.6864 30.6274 17.183Z" fill="#56AA6F"/>
<path d="M23.4919 33.8927L17.0725 27.4932L20.4605 20.916H25.9883L30.2679 23.938C29.1266 30.1952 25.275 33.1816 23.4919 33.8927Z" fill="#4C9964"/>
<path d="M21.9546 18.7949C23.0628 18.9075 23.9387 19.8008 24.0269 20.916H24.8384C25.773 20.916 26.5307 21.6738 26.5308 22.6084V26.334C26.5306 27.2685 25.7729 28.0264 24.8384 28.0264H18.5942C17.6597 28.0263 16.902 27.2685 16.9019 26.334V22.6084C16.9019 21.6738 17.6596 20.916 18.5942 20.916H19.4087C19.5032 19.7224 20.5004 18.7832 21.7183 18.7832L21.9546 18.7949ZM21.896 23.7598C21.5022 23.7598 21.1824 24.0782 21.1821 24.4707C21.1821 24.8634 21.5021 25.1826 21.896 25.1826C22.2897 25.1824 22.6089 24.8633 22.6089 24.4707C22.6086 24.0784 22.2896 23.76 21.896 23.7598ZM21.7183 19.9111C21.1242 19.9111 20.6326 20.3469 20.5435 20.916H22.8911C22.8021 20.3471 22.312 19.9115 21.7183 19.9111Z" fill="white"/>
<path d="M34.2887 17.8991C34.7024 17.8991 35.0184 17.9893 35.2365 18.1699C35.4584 18.3466 35.5693 18.6193 35.5693 18.9878V21.0413H34.9826L34.819 20.6238H34.7965C34.71 20.7329 34.6197 20.8231 34.5257 20.8946C34.4354 20.966 34.3301 21.0168 34.2098 21.0469C34.0932 21.0808 33.9484 21.0977 33.7754 21.0977C33.5949 21.0977 33.4313 21.0638 33.2846 20.9961C33.1417 20.9247 33.0289 20.8175 32.9461 20.6746C32.8634 20.5279 32.822 20.3436 32.822 20.1217C32.822 19.7945 32.9367 19.5539 33.1661 19.3997C33.3955 19.2417 33.7397 19.1552 34.1985 19.1402L34.7344 19.1232V18.9878C34.7344 18.8261 34.6912 18.7077 34.6047 18.6324C34.5219 18.5572 34.4053 18.5196 34.2549 18.5196C34.1045 18.5196 33.9578 18.5422 33.8149 18.5873C33.672 18.6287 33.5291 18.6813 33.3861 18.7453L33.1097 18.1755C33.2752 18.089 33.4576 18.0213 33.6569 17.9724C33.86 17.9235 34.0706 17.8991 34.2887 17.8991ZM34.4072 19.6253C34.1364 19.6328 33.9484 19.6817 33.8431 19.772C33.7378 19.8622 33.6851 19.9807 33.6851 20.1274C33.6851 20.2553 33.7227 20.3474 33.798 20.4038C33.8732 20.4565 33.971 20.4828 34.0913 20.4828C34.2718 20.4828 34.4241 20.4301 34.5482 20.3248C34.6724 20.2158 34.7344 20.0634 34.7344 19.8679V19.614L34.4072 19.6253Z" fill="#60646C"/>
<path d="M38.184 17.9047C38.515 17.9047 38.7801 17.995 38.9794 18.1755C39.1787 18.3523 39.2784 18.6381 39.2784 19.033V21.0413H38.4379V19.2417C38.4379 19.0198 38.3984 18.8543 38.3194 18.7453C38.2404 18.6324 38.1144 18.576 37.9414 18.576C37.6857 18.576 37.5108 18.6644 37.4168 18.8412C37.3228 19.0142 37.2758 19.2643 37.2758 19.5915V21.0413H36.4352V17.9611H37.0783L37.1911 18.356H37.2363C37.304 18.2507 37.3867 18.1661 37.4845 18.1022C37.5823 18.0345 37.6913 17.9856 37.8117 17.9555C37.932 17.9216 38.0561 17.9047 38.184 17.9047Z" fill="#60646C"/>
<path d="M41.1187 21.0977C40.7765 21.0977 40.4963 20.9642 40.2782 20.6971C40.0638 20.4264 39.9566 20.0296 39.9566 19.5068C39.9566 18.9803 40.0657 18.5817 40.2838 18.3109C40.502 18.0401 40.7878 17.9047 41.1413 17.9047C41.288 17.9047 41.4177 17.9254 41.5305 17.9668C41.6434 18.0044 41.7393 18.057 41.8183 18.1247C41.901 18.1924 41.9706 18.2695 42.027 18.356H42.0552C42.0439 18.2959 42.0307 18.2094 42.0157 18.0965C42.0007 17.9799 41.9931 17.8615 41.9931 17.7411V16.7539H42.8337V21.0413H42.1906L42.027 20.6407H41.9931C41.9405 20.7235 41.8728 20.8006 41.79 20.872C41.7111 20.9397 41.617 20.9943 41.508 21.0356C41.3989 21.077 41.2692 21.0977 41.1187 21.0977ZM41.4121 20.4264C41.6453 20.4264 41.8088 20.3587 41.9029 20.2233C41.9969 20.0841 42.0458 19.8773 42.0495 19.6027V19.5125C42.0495 19.2116 42.0025 18.9822 41.9085 18.8243C41.8182 18.6663 41.649 18.5873 41.4008 18.5873C41.2165 18.5873 41.0717 18.6682 40.9664 18.8299C40.8611 18.9878 40.8085 19.2173 40.8085 19.5181C40.8085 19.819 40.8611 20.0465 40.9664 20.2007C41.0717 20.3512 41.2203 20.4264 41.4121 20.4264Z" fill="#60646C"/>
<path d="M45.4332 17.9047C45.4746 17.9047 45.5235 17.9066 45.5799 17.9104C45.6363 17.9141 45.6815 17.9198 45.7153 17.9273L45.6533 18.7171C45.6269 18.7095 45.5874 18.7039 45.5348 18.7001C45.4859 18.6926 45.4426 18.6889 45.405 18.6889C45.296 18.6889 45.1907 18.7039 45.0891 18.734C44.9876 18.7603 44.8954 18.8036 44.8127 18.8637C44.7337 18.9239 44.6698 19.0048 44.6209 19.1063C44.5758 19.2041 44.5532 19.3263 44.5532 19.473V21.0413H43.7127V17.9611H44.3501L44.4742 18.4801H44.5137C44.5739 18.3748 44.6491 18.2789 44.7394 18.1924C44.8296 18.1059 44.9331 18.0364 45.0496 17.9837C45.17 17.931 45.2979 17.9047 45.4332 17.9047Z" fill="#60646C"/>
<path d="M48.9622 19.4956C48.9622 19.7513 48.9265 19.9788 48.8551 20.1782C48.7874 20.3775 48.6877 20.5467 48.5561 20.6859C48.4282 20.8213 48.2721 20.9247 48.0879 20.9961C47.9036 21.0638 47.6948 21.0977 47.4617 21.0977C47.2473 21.0977 47.048 21.0638 46.8637 20.9961C46.6832 20.9247 46.5271 20.8213 46.3955 20.6859C46.2638 20.5467 46.1604 20.3775 46.0852 20.1782C46.0137 19.9788 45.978 19.7513 45.978 19.4956C45.978 19.1533 46.0382 18.8656 46.1585 18.6324C46.2789 18.3955 46.4519 18.215 46.6775 18.0909C46.9032 17.9668 47.1702 17.9047 47.4786 17.9047C47.7682 17.9047 48.0239 17.9668 48.2458 18.0909C48.4677 18.215 48.6426 18.3955 48.7704 18.6324C48.8983 18.8656 48.9622 19.1533 48.9622 19.4956ZM46.8355 19.4956C46.8355 19.6986 46.8562 19.8698 46.8975 20.0089C46.9427 20.1443 47.0123 20.2477 47.1063 20.3192C47.2003 20.3869 47.3225 20.4207 47.473 20.4207C47.6234 20.4207 47.7437 20.3869 47.834 20.3192C47.928 20.2477 47.9957 20.1443 48.0371 20.0089C48.0822 19.8698 48.1048 19.6986 48.1048 19.4956C48.1048 19.2925 48.0822 19.1232 48.0371 18.9878C47.9957 18.8525 47.928 18.7509 47.834 18.6832C47.74 18.6155 47.6177 18.5817 47.4673 18.5817C47.2454 18.5817 47.0837 18.6588 46.9822 18.813C46.8844 18.9634 46.8355 19.1909 46.8355 19.4956Z" fill="#60646C"/>
<path d="M50.4975 17.9611V21.0413H49.6569V17.9611H50.4975ZM50.08 16.7539C50.2041 16.7539 50.3113 16.784 50.4016 16.8442C50.4918 16.9006 50.537 17.0078 50.537 17.1657C50.537 17.3199 50.4918 17.4271 50.4016 17.4873C50.3113 17.5474 50.2041 17.5775 50.08 17.5775C49.9521 17.5775 49.8431 17.5474 49.7528 17.4873C49.6663 17.4271 49.6231 17.3199 49.6231 17.1657C49.6231 17.0078 49.6663 16.9006 49.7528 16.8442C49.8431 16.784 49.9521 16.7539 50.08 16.7539Z" fill="#60646C"/>
<path d="M52.3517 21.0977C52.0094 21.0977 51.7293 20.9642 51.5111 20.6971C51.2968 20.4264 51.1896 20.0296 51.1896 19.5068C51.1896 18.9803 51.2986 18.5817 51.5168 18.3109C51.7349 18.0401 52.0207 17.9047 52.3742 17.9047C52.5209 17.9047 52.6507 17.9254 52.7635 17.9668C52.8763 18.0044 52.9722 18.057 53.0512 18.1247C53.1339 18.1924 53.2035 18.2695 53.2599 18.356H53.2881C53.2768 18.2959 53.2637 18.2094 53.2486 18.0965C53.2336 17.9799 53.2261 17.8615 53.2261 17.7411V16.7539H54.0666V21.0413H53.4235L53.2599 20.6407H53.2261C53.1734 20.7235 53.1057 20.8006 53.023 20.872C52.944 20.9397 52.85 20.9943 52.7409 21.0356C52.6319 21.077 52.5021 21.0977 52.3517 21.0977ZM52.645 20.4264C52.8782 20.4264 53.0418 20.3587 53.1358 20.2233C53.2298 20.0841 53.2787 19.8773 53.2825 19.6027V19.5125C53.2825 19.2116 53.2355 18.9822 53.1415 18.8243C53.0512 18.6663 52.882 18.5873 52.6337 18.5873C52.4495 18.5873 52.3047 18.6682 52.1994 18.8299C52.0941 18.9878 52.0414 19.2173 52.0414 19.5181C52.0414 19.819 52.0941 20.0465 52.1994 20.2007C52.3047 20.3512 52.4532 20.4264 52.645 20.4264Z" fill="#60646C"/>
<path d="M34.1503 23.9789C34.4361 23.9789 34.6805 24.0334 34.8836 24.1425C35.0905 24.2515 35.2503 24.4095 35.3631 24.6163C35.476 24.8232 35.5324 25.077 35.5324 25.3779V25.7841H33.5467C33.5542 26.021 33.6238 26.2072 33.7554 26.3426C33.8908 26.478 34.0769 26.5456 34.3139 26.5456C34.5132 26.5456 34.6937 26.5268 34.8554 26.4892C35.0171 26.4479 35.1845 26.3858 35.3575 26.3031V26.9518C35.2071 27.027 35.0472 27.0816 34.878 27.1154C34.7125 27.153 34.5113 27.1718 34.2744 27.1718C33.966 27.1718 33.6933 27.1154 33.4564 27.0026C33.2195 26.886 33.0333 26.7111 32.8979 26.478C32.7625 26.2448 32.6948 25.9514 32.6948 25.5979C32.6948 25.2369 32.755 24.9379 32.8753 24.701C32.9995 24.4603 33.1706 24.2797 33.3887 24.1594C33.6068 24.039 33.8607 23.9789 34.1503 23.9789ZM34.1559 24.5768C33.9942 24.5768 33.8588 24.6295 33.7497 24.7348C33.6444 24.8401 33.5824 25.0037 33.5636 25.2256H34.7426C34.7426 25.1015 34.72 24.9905 34.6749 24.8928C34.6335 24.795 34.5696 24.7179 34.4831 24.6615C34.3966 24.6051 34.2875 24.5768 34.1559 24.5768Z" fill="#60646C"/>
<path d="M37.9628 23.9789C38.2937 23.9789 38.5588 24.0691 38.7582 24.2497C38.9575 24.4264 39.0572 24.7122 39.0572 25.1071V27.1154H38.2166V25.3159C38.2166 25.094 38.1771 24.9285 38.0981 24.8194C38.0192 24.7066 37.8932 24.6502 37.7202 24.6502C37.4644 24.6502 37.2896 24.7386 37.1955 24.9153C37.1015 25.0883 37.0545 25.3384 37.0545 25.6656V27.1154H36.214V24.0353H36.8571L36.9699 24.4302H37.015C37.0827 24.3249 37.1655 24.2403 37.2632 24.1763C37.361 24.1086 37.4701 24.0597 37.5904 24.0296C37.7108 23.9958 37.8349 23.9789 37.9628 23.9789Z" fill="#60646C"/>
<path d="M41.219 26.5005C41.3131 26.5005 41.4033 26.4911 41.4898 26.4723C41.5763 26.4535 41.6628 26.4309 41.7493 26.4046V27.0308C41.6591 27.0684 41.5462 27.1004 41.4108 27.1267C41.2792 27.1568 41.1344 27.1718 40.9765 27.1718C40.7922 27.1718 40.6267 27.1417 40.48 27.0816C40.3371 27.0214 40.2224 26.918 40.1359 26.7713C40.0532 26.6209 40.0118 26.414 40.0118 26.1508V24.6671H39.6113V24.3117L40.0739 24.0296L40.3164 23.3809H40.8524V24.0353H41.7155V24.6671H40.8524V26.1508C40.8524 26.2673 40.8862 26.3557 40.9539 26.4159C41.0216 26.4723 41.11 26.5005 41.219 26.5005Z" fill="#60646C"/>
<path d="M43.6368 23.9789C43.9227 23.9789 44.1671 24.0334 44.3702 24.1425C44.5771 24.2515 44.7369 24.4095 44.8497 24.6163C44.9625 24.8232 45.019 25.077 45.019 25.3779V25.7841H43.0332C43.0408 26.021 43.1103 26.2072 43.242 26.3426C43.3773 26.478 43.5635 26.5456 43.8004 26.5456C43.9998 26.5456 44.1803 26.5268 44.342 26.4892C44.5037 26.4479 44.6711 26.3858 44.8441 26.3031V26.9518C44.6936 27.027 44.5338 27.0816 44.3646 27.1154C44.1991 27.153 43.9979 27.1718 43.761 27.1718C43.4526 27.1718 43.1799 27.1154 42.943 27.0026C42.706 26.886 42.5199 26.7111 42.3845 26.478C42.2491 26.2448 42.1814 25.9514 42.1814 25.5979C42.1814 25.2369 42.2416 24.9379 42.3619 24.701C42.486 24.4603 42.6571 24.2797 42.8753 24.1594C43.0934 24.039 43.3473 23.9789 43.6368 23.9789ZM43.6425 24.5768C43.4808 24.5768 43.3454 24.6295 43.2363 24.7348C43.131 24.8401 43.069 25.0037 43.0502 25.2256H44.2292C44.2292 25.1015 44.2066 24.9905 44.1615 24.8928C44.1201 24.795 44.0562 24.7179 43.9697 24.6615C43.8832 24.6051 43.7741 24.5768 43.6425 24.5768Z" fill="#60646C"/>
<path d="M47.4211 23.9789C47.4625 23.9789 47.5114 23.9808 47.5678 23.9845C47.6242 23.9883 47.6693 23.9939 47.7032 24.0014L47.6411 24.7912C47.6148 24.7837 47.5753 24.7781 47.5227 24.7743C47.4738 24.7668 47.4305 24.763 47.3929 24.763C47.2839 24.763 47.1785 24.7781 47.077 24.8081C46.9755 24.8345 46.8833 24.8777 46.8006 24.9379C46.7216 24.9981 46.6577 25.0789 46.6088 25.1805C46.5637 25.2782 46.5411 25.4005 46.5411 25.5471V27.1154H45.7005V24.0353H46.338L46.4621 24.5543H46.5016C46.5618 24.449 46.637 24.3531 46.7272 24.2666C46.8175 24.1801 46.9209 24.1105 47.0375 24.0579C47.1579 24.0052 47.2857 23.9789 47.4211 23.9789Z" fill="#60646C"/>
<path d="M49.9772 23.9789C50.3232 23.9789 50.6034 24.1143 50.8177 24.385C51.0321 24.6521 51.1393 25.047 51.1393 25.5697C51.1393 25.9195 51.0885 26.2147 50.987 26.4554C50.8854 26.6923 50.7463 26.871 50.5695 26.9913C50.3928 27.1117 50.1878 27.1718 49.9546 27.1718C49.8079 27.1718 49.6801 27.153 49.571 27.1154C49.4657 27.0778 49.3755 27.0289 49.3002 26.9687C49.225 26.9086 49.1592 26.8446 49.1028 26.7769H49.0577C49.0727 26.8484 49.084 26.9236 49.0915 27.0026C49.099 27.0778 49.1028 27.153 49.1028 27.2282V28.4693H48.2622V24.0353H48.9448L49.0633 24.4358H49.1028C49.1592 24.3531 49.2269 24.2779 49.3059 24.2102C49.3849 24.1387 49.4789 24.0823 49.5879 24.0409C49.7008 23.9996 49.8305 23.9789 49.9772 23.9789ZM49.7064 24.6502C49.5597 24.6502 49.4431 24.6803 49.3566 24.7404C49.2701 24.8006 49.2062 24.8928 49.1648 25.0169C49.1272 25.1372 49.1066 25.2895 49.1028 25.4738V25.5641C49.1028 25.7634 49.1216 25.9326 49.1592 26.0718C49.1968 26.2072 49.2607 26.3106 49.351 26.3821C49.4413 26.4535 49.5635 26.4892 49.7177 26.4892C49.8456 26.4892 49.9509 26.4535 50.0336 26.3821C50.1163 26.3106 50.1784 26.2053 50.2198 26.0661C50.2611 25.927 50.2818 25.7578 50.2818 25.5584C50.2818 25.2576 50.2348 25.0319 50.1408 24.8815C50.0505 24.7273 49.9057 24.6502 49.7064 24.6502Z" fill="#60646C"/>
<path d="M53.5527 23.9789C53.5941 23.9789 53.643 23.9808 53.6994 23.9845C53.7558 23.9883 53.8009 23.9939 53.8348 24.0014L53.7727 24.7912C53.7464 24.7837 53.7069 24.7781 53.6542 24.7743C53.6053 24.7668 53.5621 24.763 53.5245 24.763C53.4154 24.763 53.3101 24.7781 53.2086 24.8081C53.107 24.8345 53.0149 24.8777 52.9321 24.9379C52.8532 24.9981 52.7892 25.0789 52.7403 25.1805C52.6952 25.2782 52.6727 25.4005 52.6727 25.5471V27.1154H51.8321V24.0353H52.4696L52.5937 24.5543H52.6332C52.6933 24.449 52.7686 24.3531 52.8588 24.2666C52.9491 24.1801 53.0525 24.1105 53.1691 24.0579C53.2894 24.0052 53.4173 23.9789 53.5527 23.9789Z" fill="#60646C"/>
<path d="M55.2344 24.0353V27.1154H54.3938V24.0353H55.2344ZM54.8169 22.8281C54.941 22.8281 55.0482 22.8581 55.1385 22.9183C55.2287 22.9747 55.2738 23.0819 55.2738 23.2399C55.2738 23.3941 55.2287 23.5012 55.1385 23.5614C55.0482 23.6216 54.941 23.6517 54.8169 23.6517C54.689 23.6517 54.58 23.6216 54.4897 23.5614C54.4032 23.5012 54.36 23.3941 54.36 23.2399C54.36 23.0819 54.4032 22.9747 54.4897 22.9183C54.58 22.8581 54.689 22.8281 54.8169 22.8281Z" fill="#60646C"/>
<path d="M58.262 26.2015C58.262 26.4084 58.2131 26.5851 58.1153 26.7318C58.0175 26.8747 57.8708 26.9838 57.6753 27.059C57.4797 27.1342 57.2371 27.1718 56.9475 27.1718C56.7332 27.1718 56.5489 27.1568 56.3947 27.1267C56.2405 27.1004 56.0863 27.0552 55.9321 26.9913V26.2974C56.0976 26.3727 56.2762 26.4347 56.468 26.4836C56.6598 26.5325 56.8291 26.5569 56.9757 26.5569C57.1412 26.5569 57.2578 26.5325 57.3255 26.4836C57.397 26.4347 57.4327 26.3708 57.4327 26.2918C57.4327 26.2391 57.4176 26.1921 57.3876 26.1508C57.3612 26.1094 57.3011 26.0624 57.207 26.0097C57.113 25.9571 56.9663 25.8894 56.767 25.8066C56.5752 25.7239 56.4173 25.643 56.2932 25.5641C56.169 25.4813 56.0769 25.3835 56.0167 25.2707C55.9566 25.1541 55.9265 25.0093 55.9265 24.8363C55.9265 24.5505 56.0374 24.3362 56.2593 24.1932C56.4812 24.0503 56.7764 23.9789 57.145 23.9789C57.3368 23.9789 57.5192 23.9977 57.6922 24.0353C57.8652 24.0729 58.0438 24.1349 58.2281 24.2214L57.9743 24.8251C57.8727 24.7799 57.7749 24.7404 57.6809 24.7066C57.5869 24.6727 57.4947 24.6464 57.4045 24.6276C57.318 24.6088 57.2277 24.5994 57.1337 24.5994C57.0096 24.5994 56.9156 24.6163 56.8516 24.6502C56.7915 24.684 56.7614 24.7348 56.7614 24.8025C56.7614 24.8514 56.7764 24.8965 56.8065 24.9379C56.8404 24.9755 56.9024 25.0169 56.9927 25.062C57.0867 25.1071 57.224 25.1673 57.4045 25.2425C57.5812 25.314 57.7336 25.3892 57.8614 25.4682C57.9893 25.5434 58.0871 25.6393 58.1548 25.7559C58.2262 25.8687 58.262 26.0173 58.262 26.2015Z" fill="#60646C"/>
<path d="M60.186 23.9789C60.4718 23.9789 60.7163 24.0334 60.9194 24.1425C61.1262 24.2515 61.2861 24.4095 61.3989 24.6163C61.5117 24.8232 61.5681 25.077 61.5681 25.3779V25.7841H59.5824C59.5899 26.021 59.6595 26.2072 59.7911 26.3426C59.9265 26.478 60.1127 26.5456 60.3496 26.5456C60.5489 26.5456 60.7295 26.5268 60.8912 26.4892C61.0529 26.4479 61.2203 26.3858 61.3933 26.3031V26.9518C61.2428 27.027 61.083 27.0816 60.9137 27.1154C60.7483 27.153 60.5471 27.1718 60.3101 27.1718C60.0017 27.1718 59.7291 27.1154 59.4921 27.0026C59.2552 26.886 59.0691 26.7111 58.9337 26.478C58.7983 26.2448 58.7306 25.9514 58.7306 25.5979C58.7306 25.2369 58.7908 24.9379 58.9111 24.701C59.0352 24.4603 59.2063 24.2797 59.4245 24.1594C59.6426 24.039 59.8964 23.9789 60.186 23.9789ZM60.1917 24.5768C60.0299 24.5768 59.8946 24.6295 59.7855 24.7348C59.6802 24.8401 59.6181 25.0037 59.5993 25.2256H60.7784C60.7784 25.1015 60.7558 24.9905 60.7107 24.8928C60.6693 24.795 60.6054 24.7179 60.5189 24.6615C60.4324 24.6051 60.3233 24.5768 60.1917 24.5768Z" fill="#60646C"/>
<path d="M34.7408 30.0527C34.7821 30.0527 34.831 30.0545 34.8874 30.0583C34.9439 30.0621 34.989 30.0677 35.0228 30.0752L34.9608 30.865C34.9345 30.8575 34.895 30.8518 34.8423 30.8481C34.7934 30.8406 34.7502 30.8368 34.7126 30.8368C34.6035 30.8368 34.4982 30.8518 34.3967 30.8819C34.2951 30.9082 34.203 30.9515 34.1202 31.0117C34.0413 31.0718 33.9773 31.1527 33.9284 31.2542C33.8833 31.352 33.8607 31.4743 33.8607 31.6209V33.1892H33.0202V30.1091H33.6577L33.7818 30.6281H33.8212C33.8814 30.5228 33.9566 30.4269 34.0469 30.3404C34.1372 30.2539 34.2406 30.1843 34.3572 30.1316C34.4775 30.079 34.6054 30.0527 34.7408 30.0527Z" fill="#60646C"/>
<path d="M36.741 30.0527C37.0268 30.0527 37.2713 30.1072 37.4744 30.2163C37.6812 30.3253 37.841 30.4833 37.9539 30.6901C38.0667 30.897 38.1231 31.1508 38.1231 31.4517V31.8579H36.1374C36.1449 32.0948 36.2145 32.281 36.3461 32.4163C36.4815 32.5517 36.6677 32.6194 36.9046 32.6194C37.1039 32.6194 37.2844 32.6006 37.4462 32.563C37.6079 32.5216 37.7752 32.4596 37.9482 32.3769V33.0256C37.7978 33.1008 37.638 33.1553 37.4687 33.1892C37.3032 33.2268 37.102 33.2456 36.8651 33.2456C36.5567 33.2456 36.2841 33.1892 36.0471 33.0764C35.8102 32.9598 35.624 32.7849 35.4886 32.5517C35.3532 32.3186 35.2856 32.0252 35.2856 31.6717C35.2856 31.3107 35.3457 31.0117 35.4661 30.7747C35.5902 30.534 35.7613 30.3535 35.9794 30.2332C36.1976 30.1128 36.4514 30.0527 36.741 30.0527ZM36.7466 30.6506C36.5849 30.6506 36.4495 30.7033 36.3405 30.8086C36.2352 30.9139 36.1731 31.0775 36.1543 31.2994H37.3333C37.3333 31.1753 37.3108 31.0643 37.2656 30.9665C37.2243 30.8688 37.1603 30.7917 37.0738 30.7352C36.9873 30.6788 36.8783 30.6506 36.7466 30.6506Z" fill="#60646C"/>
<path d="M40.057 33.2456C39.7524 33.2456 39.4929 33.1911 39.2786 33.082C39.0642 32.9692 38.9006 32.7962 38.7878 32.563C38.6749 32.3298 38.6185 32.0309 38.6185 31.6661C38.6185 31.29 38.6825 30.9835 38.8103 30.7465C38.9382 30.5096 39.115 30.3347 39.3406 30.2219C39.57 30.1091 39.8333 30.0527 40.1304 30.0527C40.341 30.0527 40.5234 30.0733 40.6776 30.1147C40.8355 30.1561 40.9728 30.205 41.0894 30.2614L40.8412 30.9101C40.7096 30.8575 40.5854 30.8142 40.4689 30.7804C40.356 30.7465 40.2432 30.7296 40.1304 30.7296C39.9837 30.7296 39.8615 30.7653 39.7637 30.8368C39.6659 30.9045 39.5926 31.0079 39.5437 31.1471C39.4986 31.2825 39.476 31.4536 39.476 31.6604C39.476 31.8635 39.5004 32.0327 39.5493 32.1681C39.602 32.2998 39.6772 32.3994 39.775 32.4671C39.8728 32.5311 39.9912 32.563 40.1304 32.563C40.3071 32.563 40.4632 32.5405 40.5986 32.4953C40.734 32.4464 40.8656 32.3806 40.9935 32.2979V33.0143C40.8656 33.0971 40.7302 33.1553 40.5873 33.1892C40.4482 33.2268 40.2714 33.2456 40.057 33.2456Z" fill="#60646C"/>
<path d="M44.5005 31.6435C44.5005 31.8992 44.4648 32.1268 44.3933 32.3261C44.3256 32.5254 44.226 32.6946 44.0943 32.8338C43.9665 32.9692 43.8104 33.0726 43.6261 33.1441C43.4418 33.2118 43.2331 33.2456 42.9999 33.2456C42.7856 33.2456 42.5862 33.2118 42.402 33.1441C42.2214 33.0726 42.0654 32.9692 41.9337 32.8338C41.8021 32.6946 41.6987 32.5254 41.6235 32.3261C41.552 32.1268 41.5163 31.8992 41.5163 31.6435C41.5163 31.3013 41.5765 31.0136 41.6968 30.7804C41.8172 30.5434 41.9901 30.3629 42.2158 30.2388C42.4415 30.1147 42.7085 30.0527 43.0169 30.0527C43.3064 30.0527 43.5622 30.1147 43.7841 30.2388C44.006 30.3629 44.1808 30.5434 44.3087 30.7804C44.4366 31.0136 44.5005 31.3013 44.5005 31.6435ZM42.3738 31.6435C42.3738 31.8466 42.3944 32.0177 42.4358 32.1568C42.4809 32.2922 42.5505 32.3957 42.6445 32.4671C42.7386 32.5348 42.8608 32.5687 43.0112 32.5687C43.1617 32.5687 43.282 32.5348 43.3723 32.4671C43.4663 32.3957 43.534 32.2922 43.5753 32.1568C43.6205 32.0177 43.643 31.8466 43.643 31.6435C43.643 31.4404 43.6205 31.2712 43.5753 31.1358C43.534 31.0004 43.4663 30.8988 43.3723 30.8312C43.2782 30.7635 43.156 30.7296 43.0056 30.7296C42.7837 30.7296 42.622 30.8067 42.5204 30.9609C42.4226 31.1113 42.3738 31.3389 42.3738 31.6435Z" fill="#60646C"/>
<path d="M48.8112 30.0527C49.161 30.0527 49.4242 30.1429 49.601 30.3234C49.7815 30.5002 49.8718 30.786 49.8718 31.1809V33.1892H49.0312V31.3896C49.0312 31.1677 48.9936 31.0023 48.9184 30.8932C48.8432 30.7804 48.7266 30.724 48.5687 30.724C48.3468 30.724 48.1888 30.8029 48.0948 30.9609C48.0008 31.1189 47.9538 31.3464 47.9538 31.6435V33.1892H47.1132V31.3896C47.1132 31.243 47.0963 31.1207 47.0624 31.023C47.0286 30.9252 46.9778 30.8518 46.9101 30.8029C46.8424 30.7503 46.7559 30.724 46.6506 30.724C46.4964 30.724 46.3742 30.7635 46.2839 30.8424C46.1937 30.9214 46.1297 31.0361 46.0921 31.1865C46.0545 31.337 46.0357 31.5213 46.0357 31.7394V33.1892H45.1952V30.1091H45.8383L45.9511 30.504H45.9962C46.0602 30.3987 46.1392 30.314 46.2332 30.2501C46.3272 30.1824 46.4306 30.1335 46.5434 30.1034C46.66 30.0696 46.7766 30.0527 46.8932 30.0527C47.1189 30.0527 47.3107 30.0903 47.4686 30.1655C47.6266 30.2369 47.7469 30.3498 47.8297 30.504H47.903C47.997 30.346 48.1268 30.2313 48.2922 30.1598C48.4615 30.0884 48.6345 30.0527 48.8112 30.0527Z" fill="#60646C"/>
<path d="M54.3533 30.0527C54.7031 30.0527 54.9663 30.1429 55.1431 30.3234C55.3236 30.5002 55.4139 30.786 55.4139 31.1809V33.1892H54.5733V31.3896C54.5733 31.1677 54.5357 31.0023 54.4605 30.8932C54.3853 30.7804 54.2687 30.724 54.1108 30.724C53.8889 30.724 53.7309 30.8029 53.6369 30.9609C53.5429 31.1189 53.4959 31.3464 53.4959 31.6435V33.1892H52.6553V31.3896C52.6553 31.243 52.6384 31.1207 52.6045 31.023C52.5707 30.9252 52.5199 30.8518 52.4522 30.8029C52.3845 30.7503 52.298 30.724 52.1927 30.724C52.0385 30.724 51.9163 30.7635 51.826 30.8424C51.7358 30.9214 51.6719 31.0361 51.6342 31.1865C51.5966 31.337 51.5778 31.5213 51.5778 31.7394V33.1892H50.7373V30.1091H51.3804L51.4932 30.504H51.5383C51.6023 30.3987 51.6813 30.314 51.7753 30.2501C51.8693 30.1824 51.9727 30.1335 52.0855 30.1034C52.2021 30.0696 52.3187 30.0527 52.4353 30.0527C52.661 30.0527 52.8528 30.0903 53.0107 30.1655C53.1687 30.2369 53.289 30.3498 53.3717 30.504H53.4451C53.5391 30.346 53.6689 30.2313 53.8343 30.1598C54.0036 30.0884 54.1766 30.0527 54.3533 30.0527Z" fill="#60646C"/>
<path d="M57.5487 30.0527C57.8345 30.0527 58.0789 30.1072 58.282 30.2163C58.4889 30.3253 58.6487 30.4833 58.7615 30.6901C58.8744 30.897 58.9308 31.1508 58.9308 31.4517V31.8579H56.9451C56.9526 32.0948 57.0221 32.281 57.1538 32.4163C57.2892 32.5517 57.4753 32.6194 57.7123 32.6194C57.9116 32.6194 58.0921 32.6006 58.2538 32.563C58.4155 32.5216 58.5829 32.4596 58.7559 32.3769V33.0256C58.6055 33.1008 58.4456 33.1553 58.2764 33.1892C58.1109 33.2268 57.9097 33.2456 57.6728 33.2456C57.3644 33.2456 57.0917 33.1892 56.8548 33.0764C56.6179 32.9598 56.4317 32.7849 56.2963 32.5517C56.1609 32.3186 56.0932 32.0252 56.0932 31.6717C56.0932 31.3107 56.1534 31.0117 56.2737 30.7747C56.3978 30.534 56.569 30.3535 56.7871 30.2332C57.0052 30.1128 57.2591 30.0527 57.5487 30.0527ZM57.5543 30.6506C57.3926 30.6506 57.2572 30.7033 57.1481 30.8086C57.0428 30.9139 56.9808 31.0775 56.962 31.2994H58.141C58.141 31.1753 58.1184 31.0643 58.0733 30.9665C58.0319 30.8688 57.968 30.7917 57.8815 30.7352C57.795 30.6788 57.6859 30.6506 57.5543 30.6506Z" fill="#60646C"/>
<path d="M61.3611 30.0527C61.6921 30.0527 61.9572 30.1429 62.1566 30.3234C62.3559 30.5002 62.4556 30.786 62.4556 31.1809V33.1892H61.615V31.3896C61.615 31.1677 61.5755 31.0023 61.4965 30.8932C61.4176 30.7804 61.2916 30.724 61.1186 30.724C60.8628 30.724 60.688 30.8123 60.5939 30.9891C60.4999 31.1621 60.4529 31.4122 60.4529 31.7394V33.1892H59.6124V30.1091H60.2555L60.3683 30.504H60.4134C60.4811 30.3987 60.5638 30.314 60.6616 30.2501C60.7594 30.1824 60.8685 30.1335 60.9888 30.1034C61.1092 30.0696 61.2333 30.0527 61.3611 30.0527Z" fill="#60646C"/>
<path d="M64.2959 33.2456C63.9536 33.2456 63.6735 33.1121 63.4553 32.8451C63.241 32.5743 63.1338 32.1775 63.1338 31.6548C63.1338 31.1283 63.2428 30.7296 63.461 30.4588C63.6791 30.188 63.9649 30.0527 64.3184 30.0527C64.4651 30.0527 64.5949 30.0733 64.7077 30.1147C64.8205 30.1523 64.9164 30.205 64.9954 30.2727C65.0781 30.3404 65.1477 30.4175 65.2041 30.504H65.2323C65.221 30.4438 65.2079 30.3573 65.1928 30.2445C65.1778 30.1279 65.1703 30.0094 65.1703 29.8891V28.9018H66.0108V33.1892H65.3677L65.2041 32.7887H65.1703C65.1176 32.8714 65.0499 32.9485 64.9672 33.02C64.8882 33.0877 64.7942 33.1422 64.6851 33.1836C64.5761 33.2249 64.4463 33.2456 64.2959 33.2456ZM64.5892 32.5743C64.8224 32.5743 64.986 32.5066 65.08 32.3712C65.174 32.2321 65.2229 32.0252 65.2267 31.7507V31.6604C65.2267 31.3595 65.1797 31.1301 65.0857 30.9722C64.9954 30.8142 64.8262 30.7352 64.5779 30.7352C64.3937 30.7352 64.2489 30.8161 64.1436 30.9778C64.0383 31.1358 63.9856 31.3652 63.9856 31.6661C63.9856 31.9669 64.0383 32.1945 64.1436 32.3486C64.2489 32.4991 64.3974 32.5743 64.5892 32.5743Z" fill="#60646C"/>
<path d="M68.1591 30.0527C68.4449 30.0527 68.6894 30.1072 68.8925 30.2163C69.0993 30.3253 69.2591 30.4833 69.372 30.6901C69.4848 30.897 69.5412 31.1508 69.5412 31.4517V31.8579H67.5555C67.563 32.0948 67.6326 32.281 67.7642 32.4163C67.8996 32.5517 68.0858 32.6194 68.3227 32.6194C68.522 32.6194 68.7025 32.6006 68.8642 32.563C69.026 32.5216 69.1933 32.4596 69.3663 32.3769V33.0256C69.2159 33.1008 69.056 33.1553 68.8868 33.1892C68.7213 33.2268 68.5201 33.2456 68.2832 33.2456C67.9748 33.2456 67.7021 33.1892 67.4652 33.0764C67.2283 32.9598 67.0421 32.7849 66.9067 32.5517C66.7713 32.3186 66.7036 32.0252 66.7036 31.6717C66.7036 31.3107 66.7638 31.0117 66.8842 30.7747C67.0083 30.534 67.1794 30.3535 67.3975 30.2332C67.6156 30.1128 67.8695 30.0527 68.1591 30.0527ZM68.1647 30.6506C68.003 30.6506 67.8676 30.7033 67.7586 30.8086C67.6533 30.9139 67.5912 31.0775 67.5724 31.2994H68.7514C68.7514 31.1753 68.7289 31.0643 68.6837 30.9665C68.6424 30.8688 68.5784 30.7917 68.4919 30.7352C68.4054 30.6788 68.2964 30.6506 68.1647 30.6506Z" fill="#60646C"/>
<path d="M71.1987 33.2456C70.8565 33.2456 70.5763 33.1121 70.3582 32.8451C70.1438 32.5743 70.0366 32.1775 70.0366 31.6548C70.0366 31.1283 70.1457 30.7296 70.3638 30.4588C70.5819 30.188 70.8678 30.0527 71.2213 30.0527C71.368 30.0527 71.4977 30.0733 71.6105 30.1147C71.7234 30.1523 71.8193 30.205 71.8982 30.2727C71.981 30.3404 72.0506 30.4175 72.107 30.504H72.1352C72.1239 30.4438 72.1107 30.3573 72.0957 30.2445C72.0806 30.1279 72.0731 30.0094 72.0731 29.8891V28.9018H72.9137V33.1892H72.2706L72.107 32.7887H72.0731C72.0205 32.8714 71.9528 32.9485 71.87 33.02C71.791 33.0877 71.697 33.1422 71.588 33.1836C71.4789 33.2249 71.3492 33.2456 71.1987 33.2456ZM71.4921 32.5743C71.7252 32.5743 71.8888 32.5066 71.9829 32.3712C72.0769 32.2321 72.1258 32.0252 72.1295 31.7507V31.6604C72.1295 31.3595 72.0825 31.1301 71.9885 30.9722C71.8982 30.8142 71.729 30.7352 71.4808 30.7352C71.2965 30.7352 71.1517 30.8161 71.0464 30.9778C70.9411 31.1358 70.8885 31.3652 70.8885 31.6661C70.8885 31.9669 70.9411 32.1945 71.0464 32.3486C71.1517 32.4991 71.3003 32.5743 71.4921 32.5743Z" fill="#60646C"/>
</svg>
