<svg width="15" height="15" viewBox="0 0 15 15" fill="none" xmlns="http://www.w3.org/2000/svg">
<path d="M7.48975 0.56262C5.63323 0.56262 3.85279 1.30008 2.53998 2.61283C1.22722 3.92558 0.489746 5.70615 0.489746 7.56256C0.489746 9.41897 1.22722 11.1995 2.53998 12.5123C3.85273 13.825 5.63332 14.5625 7.48975 14.5625C9.34617 14.5625 11.1267 13.825 12.4395 12.5123C13.7523 11.1995 14.4897 9.41897 14.4897 7.56256C14.4897 6.33384 14.1663 5.1267 13.552 4.06244C12.9376 2.99836 12.0538 2.11465 10.9898 1.50025C9.92557 0.885932 8.71841 0.5625 7.48963 0.5625L7.48975 0.56262ZM11.463 6.32865L7.26294 10.1786C7.12993 10.3006 6.95496 10.3664 6.77463 10.3626C6.59427 10.3586 6.42236 10.2852 6.29486 10.1576L4.19483 8.05759C4.05971 7.92716 3.98272 7.74798 3.98108 7.56024C3.97944 7.37239 4.05338 7.19193 4.18604 7.05915C4.31881 6.92638 4.49939 6.85255 4.68714 6.85407C4.87487 6.85571 5.05416 6.93271 5.1846 7.06782L6.81072 8.69392L10.5167 5.2967C10.701 5.12772 10.9614 5.06983 11.2 5.14495C11.4386 5.21995 11.6189 5.41659 11.6732 5.6608C11.7274 5.9049 11.6473 6.15943 11.4631 6.32854L11.463 6.32865Z" fill="#FFAD00"/>
</svg>
