<svg width="15" height="15" viewBox="0 0 15 15" fill="none" xmlns="http://www.w3.org/2000/svg">
<g clip-path="url(#clip0_1255_56074)">
<path d="M14.7602 7.91673L9.34322 2.49958C9.18858 2.34495 8.98249 2.26007 8.76273 2.26007C8.54274 2.26007 8.33676 2.34507 8.18213 2.49958L7.6903 2.99153C7.53579 3.14592 7.45067 3.35213 7.45067 3.57201C7.45067 3.79177 7.53579 4.00493 7.6903 4.15932L10.8505 7.32649H0.810359C0.35768 7.32649 0 7.68088 0 8.13368V8.82916C0 9.28196 0.35768 9.67208 0.810359 9.67208H10.8864L7.69043 12.8569C7.53591 13.0116 7.45079 13.2122 7.45079 13.4321C7.45079 13.6517 7.53591 13.8552 7.69043 14.0097L8.18225 14.5001C8.33688 14.6547 8.54286 14.739 8.76286 14.739C8.98261 14.739 9.18871 14.6536 9.34334 14.499L14.7604 9.08197C14.9154 8.92685 15.0006 8.71977 15 8.49965C15.0005 8.2788 14.9154 8.07161 14.7602 7.91673Z" fill="white"/>
</g>
<defs>
<clipPath id="clip0_1255_56074">
<rect width="15" height="15" fill="white"/>
</clipPath>
</defs>
</svg>
