<svg width="16" height="15" viewBox="0 0 16 15" fill="none" xmlns="http://www.w3.org/2000/svg">
<g clip-path="url(#clip0_1220_1019)">
<path d="M15.2485 6.91716L9.8315 1.50001C9.67687 1.34538 9.47077 1.2605 9.25102 1.2605C9.03102 1.2605 8.82504 1.3455 8.67041 1.50001L8.17859 1.99196C8.02407 2.14634 7.93895 2.35256 7.93895 2.57244C7.93895 2.79219 8.02407 3.00536 8.17859 3.15975L11.3388 6.32692H1.29864C0.845961 6.32692 0.488281 6.68131 0.488281 7.13411V7.82959C0.488281 8.28239 0.845961 8.67251 1.29864 8.67251H11.3747L8.17871 11.8574C8.0242 12.012 7.93907 12.2126 7.93907 12.4325C7.93907 12.6521 8.0242 12.8556 8.17871 13.0102L8.67053 13.5005C8.82517 13.6552 9.03114 13.7394 9.25114 13.7394C9.47089 13.7394 9.67699 13.6541 9.83162 13.4994L15.2487 8.08239C15.4036 7.92727 15.4889 7.7202 15.4883 7.50008C15.4888 7.27923 15.4036 7.07204 15.2485 6.91716Z" fill="#FFAD00"/>
</g>
<defs>
<clipPath id="clip0_1220_1019">
<rect width="15" height="15" fill="white" transform="translate(0.488281)"/>
</clipPath>
</defs>
</svg>
