<svg width="91" height="12" viewBox="0 0 91 12" fill="none" xmlns="http://www.w3.org/2000/svg">
<path d="M25.5739 0.500262L24.2886 3.09247C24.2233 3.22439 24.1266 3.3385 24.0071 3.42497C23.8876 3.51145 23.7487 3.56768 23.6025 3.58884L20.7298 4.00465C20.5951 4.02405 20.4686 4.0806 20.3646 4.16788C20.2606 4.25517 20.1831 4.3697 20.1411 4.49853C20.0991 4.62735 20.0941 4.76532 20.1268 4.89681C20.1594 5.0283 20.2284 5.14806 20.3259 5.24253L22.4055 7.26047C22.5111 7.36303 22.5901 7.48958 22.6357 7.62925C22.6813 7.76892 22.6922 7.91753 22.6674 8.06231L22.1765 10.9119C22.1537 11.0453 22.1688 11.1823 22.2202 11.3076C22.2716 11.4329 22.3571 11.5414 22.4671 11.6208C22.5771 11.7003 22.7073 11.7475 22.8429 11.7571C22.9784 11.7668 23.114 11.7385 23.2343 11.6755L25.804 10.3303C25.9348 10.2619 26.0803 10.2262 26.228 10.2262C26.3757 10.2262 26.5212 10.2619 26.652 10.3303L29.2217 11.6755C29.342 11.7385 29.4776 11.7668 29.6131 11.7571C29.7487 11.7475 29.8789 11.7003 29.9889 11.6208C30.0989 11.5414 30.1845 11.4329 30.2358 11.3076C30.2872 11.1823 30.3023 11.0453 30.2795 10.9119L29.7886 8.06231C29.7637 7.91753 29.7746 7.76891 29.8202 7.62924C29.8659 7.48956 29.9449 7.36301 30.0505 7.26047L32.1301 5.24253C32.2276 5.14806 32.2966 5.0283 32.3292 4.89681C32.3619 4.76532 32.3569 4.62735 32.3149 4.49853C32.2729 4.3697 32.1954 4.25517 32.0914 4.16788C31.9874 4.0806 31.8609 4.02405 31.7262 4.00465L28.8524 3.58884C28.7061 3.56768 28.5673 3.51145 28.4477 3.42497C28.3282 3.3385 28.2316 3.22439 28.1662 3.09247L26.881 0.500262C26.8208 0.378832 26.7277 0.276585 26.6122 0.20509C26.4967 0.133595 26.3634 0.0957031 26.2274 0.0957031C26.0914 0.0957031 25.9581 0.133595 25.8426 0.20509C25.7271 0.276585 25.634 0.378832 25.5739 0.500262Z" fill="#F15E61"/>
<path d="M44.8563 0.497149L43.571 3.08936C43.5057 3.22127 43.4091 3.33539 43.2895 3.42186C43.17 3.50833 43.0311 3.56457 42.8849 3.58573L40.0111 4.00154C39.8764 4.02094 39.7499 4.07748 39.6459 4.16477C39.5418 4.25205 39.4644 4.36659 39.4224 4.49542C39.3803 4.62424 39.3754 4.76221 39.408 4.8937C39.4407 5.02519 39.5097 5.14494 39.6072 5.23941L41.6867 7.25736C41.7923 7.35992 41.8713 7.48647 41.917 7.62614C41.9626 7.76581 41.9735 7.91441 41.9487 8.05919L41.4578 10.9088C41.435 11.0421 41.4501 11.1792 41.5014 11.3045C41.5528 11.4298 41.6383 11.5383 41.7484 11.6177C41.8584 11.6972 41.9885 11.7444 42.1241 11.754C42.2597 11.7637 42.3953 11.7354 42.5155 11.6724L45.0853 10.3272C45.216 10.2588 45.3615 10.2231 45.5093 10.2231C45.657 10.2231 45.8025 10.2588 45.9333 10.3272L48.503 11.6724C48.6232 11.7354 48.7588 11.7637 48.8944 11.754C49.03 11.7444 49.1601 11.6972 49.2701 11.6177C49.3802 11.5383 49.4657 11.4298 49.5171 11.3045C49.5684 11.1792 49.5835 11.0421 49.5607 10.9088L49.0698 8.05919C49.045 7.91441 49.0559 7.7658 49.1015 7.62612C49.1471 7.48645 49.2261 7.3599 49.3318 7.25736L51.4113 5.23941C51.5088 5.14494 51.5778 5.02519 51.6105 4.8937C51.6431 4.76221 51.6382 4.62424 51.5961 4.49542C51.5541 4.36659 51.4767 4.25205 51.3726 4.16477C51.2686 4.07748 51.1421 4.02094 51.0074 4.00154L48.1336 3.58573C47.9874 3.56457 47.8485 3.50833 47.729 3.42186C47.6095 3.33539 47.5128 3.22127 47.4475 3.08936L46.1622 0.497149C46.1019 0.376023 46.0089 0.274073 45.8935 0.202796C45.7781 0.131519 45.645 0.09375 45.5093 0.09375C45.3735 0.09375 45.2404 0.131519 45.125 0.202796C45.0096 0.274073 44.9166 0.376023 44.8563 0.497149Z" fill="#F15E61"/>
<path d="M64.1684 0.500262L62.8832 3.09247C62.8178 3.22439 62.7212 3.3385 62.6016 3.42497C62.4821 3.51145 62.3432 3.56768 62.197 3.58884L59.3236 4.00465C59.1889 4.02405 59.0624 4.0806 58.9583 4.16788C58.8543 4.25517 58.7769 4.3697 58.7349 4.49853C58.6928 4.62735 58.6879 4.76532 58.7205 4.89681C58.7532 5.0283 58.8222 5.14806 58.9197 5.24253L60.9992 7.26047C61.1048 7.36303 61.1838 7.48958 61.2295 7.62925C61.2751 7.76892 61.286 7.91753 61.2612 8.06231L60.7703 10.9119C60.7475 11.0453 60.7626 11.1823 60.814 11.3076C60.8653 11.4329 60.9508 11.5414 61.0609 11.6208C61.1709 11.7003 61.301 11.7475 61.4366 11.7571C61.5722 11.7668 61.7078 11.7385 61.8281 11.6755L64.3978 10.3303C64.5285 10.2619 64.674 10.2262 64.8218 10.2262C64.9695 10.2262 65.115 10.2619 65.2458 10.3303L67.8154 11.6755C67.9357 11.7385 68.0713 11.7668 68.2069 11.7571C68.3425 11.7475 68.4726 11.7003 68.5826 11.6208C68.6927 11.5414 68.7782 11.4329 68.8296 11.3076C68.8809 11.1823 68.896 11.0453 68.8733 10.9119L68.3823 8.06231C68.3575 7.91753 68.3684 7.76891 68.414 7.62924C68.4596 7.48956 68.5386 7.36301 68.6443 7.26047L70.7238 5.24253C70.8213 5.14806 70.8903 5.0283 70.923 4.89681C70.9556 4.76532 70.9507 4.62735 70.9086 4.49853C70.8666 4.3697 70.7892 4.25517 70.6851 4.16788C70.5811 4.0806 70.4546 4.02405 70.3199 4.00465L67.4461 3.58884C67.2999 3.56768 67.161 3.51145 67.0415 3.42497C66.922 3.3385 66.8253 3.22439 66.76 3.09247L65.4755 0.500262C65.4153 0.378832 65.3222 0.276585 65.2067 0.20509C65.0912 0.133595 64.9579 0.0957031 64.8219 0.0957031C64.6859 0.0957031 64.5526 0.133595 64.4372 0.20509C64.3217 0.276585 64.2286 0.378832 64.1684 0.500262Z" fill="#F15E61"/>
<path d="M84.7808 0.488337L86.0661 3.08054C86.1314 3.21246 86.2281 3.32657 86.3476 3.41305C86.4671 3.49952 86.606 3.55576 86.7522 3.57692L89.6257 3.99272C89.7603 4.01213 89.8868 4.06867 89.9909 4.15596C90.0949 4.24324 90.1723 4.35778 90.2144 4.4866C90.2564 4.61543 90.2614 4.7534 90.2287 4.88488C90.196 5.01637 90.127 5.13613 90.0295 5.2306L87.95 7.24854C87.8444 7.35111 87.7654 7.47766 87.7198 7.61732C87.6741 7.75699 87.6632 7.9056 87.688 8.05038L88.179 10.8999C88.2018 11.0333 88.1866 11.1704 88.1353 11.2957C88.0839 11.421 87.9984 11.5295 87.8884 11.6089C87.7783 11.6883 87.6482 11.7356 87.5126 11.7452C87.377 11.7549 87.2414 11.7266 87.1212 11.6636L84.5515 10.3184C84.4207 10.25 84.2752 10.2142 84.1275 10.2142C83.9797 10.2142 83.8342 10.25 83.7035 10.3184L81.1338 11.6636C81.0135 11.7266 80.8779 11.7549 80.7423 11.7452C80.6068 11.7356 80.4766 11.6883 80.3666 11.6089C80.2565 11.5295 80.171 11.421 80.1197 11.2957C80.0683 11.1704 80.0532 11.0333 80.076 10.8999L80.5669 8.05038C80.5917 7.9056 80.5809 7.75698 80.5352 7.61731C80.4896 7.47764 80.4106 7.35109 80.3049 7.24854L78.2254 5.2306C78.1279 5.13613 78.0589 5.01637 78.0262 4.88488C77.9936 4.7534 77.9985 4.61543 78.0406 4.4866C78.0826 4.35778 78.16 4.24324 78.2641 4.15596C78.3681 4.06867 78.4946 4.01213 78.6293 3.99272L81.5031 3.57692C81.6493 3.55576 81.7882 3.49952 81.9077 3.41305C82.0273 3.32657 82.1239 3.21246 82.1893 3.08054L83.471 0.488337C83.5309 0.366194 83.6241 0.263251 83.7398 0.191242C83.8556 0.119234 83.9894 0.0810547 84.1259 0.0810547C84.2625 0.0810547 84.3962 0.119234 84.512 0.191242C84.6278 0.263251 84.7209 0.366194 84.7808 0.488337Z" fill="#F15E61"/>
<path d="M87.1212 11.6733L85.3711 10.7569V1.68701L86.0657 3.08831C86.1311 3.22023 86.2277 3.33434 86.3472 3.42081C86.4667 3.50728 86.6056 3.56352 86.7518 3.58468L89.6257 4.00049C89.7603 4.01989 89.8868 4.07644 89.9909 4.16372C90.0949 4.251 90.1723 4.36554 90.2144 4.49437C90.2564 4.62319 90.2614 4.76116 90.2287 4.89265C90.196 5.02414 90.127 5.1439 90.0295 5.23837L87.95 7.25631C87.8444 7.35887 87.7654 7.48542 87.7198 7.62509C87.6741 7.76476 87.6632 7.91336 87.688 8.05814L88.179 10.9077C88.2022 11.0412 88.1874 11.1786 88.1362 11.3042C88.085 11.4298 87.9995 11.5386 87.8894 11.6183C87.7793 11.698 87.649 11.7453 87.5132 11.7551C87.3774 11.7648 87.2416 11.7364 87.1212 11.6733Z" fill="#F15E61"/>
<path d="M6.3094 0.486001L5.02418 3.07859C4.9588 3.21051 4.86218 3.32462 4.74264 3.41109C4.62311 3.49757 4.48425 3.55381 4.33803 3.57496L1.46418 3.99077C1.32953 4.01017 1.20301 4.06672 1.09897 4.154C0.994931 4.24129 0.917514 4.35582 0.875484 4.48465C0.833455 4.61348 0.828493 4.75144 0.861158 4.88293C0.893823 5.01442 0.962821 5.13418 1.06032 5.22865L3.13986 7.24659C3.24546 7.34915 3.32446 7.47571 3.37009 7.61537C3.41572 7.75504 3.4266 7.90365 3.40181 8.04843L2.91088 10.898C2.88809 11.0314 2.90322 11.1685 2.95458 11.2937C3.00593 11.419 3.09145 11.5275 3.20149 11.607C3.31152 11.6864 3.44168 11.7336 3.57725 11.7433C3.71282 11.7529 3.8484 11.7247 3.96868 11.6616L6.53838 10.3165C6.66914 10.248 6.81465 10.2123 6.96238 10.2123C7.11011 10.2123 7.25562 10.248 7.38638 10.3165L9.95608 11.6616C10.0764 11.7247 10.2119 11.7529 10.3475 11.7433C10.4831 11.7336 10.6132 11.6864 10.7233 11.607C10.8333 11.5275 10.9188 11.419 10.9702 11.2937C11.0215 11.1685 11.0367 11.0314 11.0139 10.898L10.5229 8.04843C10.4981 7.90365 10.509 7.75503 10.5546 7.61536C10.6003 7.47569 10.6793 7.34913 10.7849 7.24659L12.8644 5.22865C12.9619 5.13418 13.0309 5.01442 13.0636 4.88293C13.0963 4.75144 13.0913 4.61348 13.0493 4.48465C13.0072 4.35582 12.9298 4.24129 12.8258 4.154C12.7217 4.06672 12.5952 4.01017 12.4606 3.99077L9.58826 3.57458C9.44204 3.55342 9.30318 3.49718 9.18365 3.41071C9.06411 3.32424 8.96749 3.21013 8.90212 3.07821L7.61688 0.486001C7.55676 0.36447 7.46366 0.262123 7.34812 0.190555C7.23258 0.118987 7.09922 0.0810547 6.96314 0.0810547C6.82706 0.0810547 6.6937 0.118987 6.57816 0.190555C6.46262 0.262123 6.36952 0.36447 6.3094 0.486001Z" fill="#F15E61"/>
<path d="M7.56847 0.485431L8.85371 3.07764C8.91909 3.20956 9.01571 3.32367 9.13524 3.41014C9.25477 3.49661 9.39363 3.55285 9.53986 3.57401L12.4137 3.98982C12.5483 4.00922 12.6749 4.06577 12.7789 4.15305C12.8829 4.24033 12.9604 4.35487 13.0024 4.4837C13.0444 4.61252 13.0494 4.75049 13.0167 4.88198C12.984 5.01347 12.9151 5.13323 12.8176 5.2277L10.738 7.24564C10.6324 7.3482 10.5534 7.47475 10.5078 7.61442C10.4622 7.75409 10.4513 7.90269 10.4761 8.04747L10.967 10.897C10.9898 11.0304 10.9747 11.1675 10.9233 11.2928C10.872 11.4181 10.7864 11.5266 10.6764 11.606C10.5664 11.6854 10.4362 11.7327 10.3006 11.7423C10.1651 11.752 10.0295 11.7237 9.90919 11.6607L7.3395 10.3155C7.20874 10.2471 7.06323 10.2113 6.9155 10.2113C6.76778 10.2113 6.62227 10.2471 6.4915 10.3155L3.9218 11.6607C3.80152 11.7237 3.66594 11.752 3.53036 11.7423C3.39479 11.7327 3.26464 11.6854 3.15461 11.606C3.04458 11.5266 2.95905 11.4181 2.9077 11.2928C2.85635 11.1675 2.84121 11.0304 2.86401 10.897L3.35493 8.04747C3.37976 7.90269 3.36889 7.75408 3.32326 7.61441C3.27763 7.47473 3.1986 7.34818 3.09297 7.24564L1.01344 5.2277C0.915935 5.13323 0.846948 5.01347 0.814283 4.88198C0.781618 4.75049 0.78658 4.61252 0.828609 4.4837C0.870639 4.35487 0.948056 4.24033 1.0521 4.15305C1.15614 4.06577 1.28265 4.00922 1.41731 3.98982L4.29115 3.57401C4.43738 3.55285 4.57624 3.49661 4.69577 3.41014C4.8153 3.32367 4.91192 3.20956 4.9773 3.07764L6.26253 0.485431C6.32281 0.364304 6.41589 0.262354 6.53126 0.191077C6.64664 0.1198 6.77972 0.0820312 6.9155 0.0820312C7.05129 0.0820312 7.18437 0.1198 7.29974 0.191077C7.41512 0.262354 7.50819 0.364304 7.56847 0.485431Z" fill="#F15E61"/>
</svg>
