<svg width="51" height="40" viewBox="0 0 51 40" fill="none" xmlns="http://www.w3.org/2000/svg">
<g opacity="0.9">
<path d="M11.3133 18.8934H8.14398C8.16678 18.6619 8.15158 18.4533 8.09838 18.2674C8.04518 18.0816 7.95397 17.9219 7.82476 17.7882C7.69556 17.6513 7.52645 17.547 7.31744 17.4753C7.10843 17.4035 6.85952 17.3677 6.5707 17.3677C6.01587 17.3677 5.51995 17.4867 5.08293 17.7247C4.6459 17.9594 4.28299 18.2968 3.99417 18.7369C3.70536 19.1737 3.50015 19.6953 3.37854 20.3017C3.27214 20.8885 3.26834 21.3759 3.36714 21.7638C3.46974 22.1518 3.66926 22.4419 3.96567 22.6342C4.26589 22.8266 4.6554 22.9228 5.13423 22.9228C5.45344 22.9228 5.74606 22.8902 6.01207 22.825C6.28189 22.7598 6.5213 22.6668 6.73031 22.5462C6.94312 22.4223 7.12363 22.2756 7.27184 22.1061C7.42384 21.9333 7.53975 21.7426 7.61955 21.534H10.8117C10.6901 21.9578 10.4735 22.3914 10.1619 22.8347C9.85027 23.2748 9.44745 23.6807 8.95342 24.0523C8.4594 24.4207 7.87797 24.719 7.20913 24.9472C6.5403 25.1754 5.78786 25.2895 4.95182 25.2895C3.85736 25.2895 2.91302 25.0841 2.11878 24.6734C1.32834 24.2626 0.754509 23.6628 0.397291 22.8739C0.0438729 22.0849 -0.0264306 21.1232 0.18638 19.9887C0.399191 18.8934 0.819112 17.9757 1.44614 17.2357C2.07317 16.4956 2.83511 15.9382 3.73196 15.5633C4.6288 15.1884 5.58265 15.0009 6.5935 15.0009C7.35734 15.0009 8.04138 15.0873 8.64561 15.2601C9.25364 15.4329 9.76476 15.6855 10.179 16.018C10.597 16.3473 10.9048 16.7532 11.1024 17.2357C11.3 17.7181 11.3703 18.2707 11.3133 18.8934Z" fill="#2B434D"/>
<path d="M13.4923 15.1378H17.4369L19.0558 20.8103H19.1926L23.0004 15.1378H26.9449L25.0069 25.1526H21.9059L23.0232 19.3628H22.9319L19.2382 25.0744H17.3685L15.8864 19.3237H15.7952L14.6551 25.1526H11.5542L13.4923 15.1378Z" fill="#2B434D"/>
<path d="M28.447 15.1378H32.3916L34.0105 20.8103H34.1473L37.9551 15.1378H41.8997L39.9616 25.1526H36.8606L37.9779 19.3628H37.8866L34.1929 25.0744H32.3232L30.8411 19.3237H30.7499L29.6098 25.1526H26.5089L28.447 15.1378Z" fill="#2B434D"/>
<path d="M46.571 15.1378L44.6329 25.1526H41.4636L43.4017 15.1378H46.571Z" fill="#2B434D"/>
<path d="M47.582 11.7273C47.582 13.0187 46.4504 14.0656 45.0546 14.0656C43.6587 14.0656 42.5272 13.0187 42.5272 11.7273C42.5272 10.4358 43.6587 9.38893 45.0546 9.38893C46.4504 9.38893 47.582 10.4358 47.582 11.7273Z" fill="#2B434D"/>
<path d="M9.16514 13.445C17.2529 6.5859 35.8547 -3.85861 45.5601 9.236C42.6956 1.44144 31.4065 -8.62915 9.16514 13.445Z" fill="#2B434D"/>
<path d="M39.4942 28.0955C31.5272 34.3618 15.6927 41.3408 6.13223 29.3778C8.95389 36.4987 17.5849 48.262 39.4942 28.0955Z" fill="#2B434D"/>
<path d="M34.7462 26.2249L34.1613 29.9122H33.4284L34.0134 26.2249H34.7462Z" fill="#2B434D"/>
<path d="M35.9458 29.9662C35.6751 29.9662 35.4509 29.9086 35.2731 29.7933C35.0953 29.6769 34.9703 29.5125 34.8981 29.3C34.827 29.0864 34.8149 28.8337 34.8619 28.542C34.9078 28.2576 35.0001 28.0079 35.1389 27.793C35.2789 27.5782 35.4543 27.4107 35.6654 27.2907C35.8764 27.1707 36.1115 27.1107 36.3707 27.1107C36.5451 27.1107 36.7028 27.1401 36.8438 27.1989C36.9861 27.2565 37.1042 27.3441 37.1982 27.4618C37.2923 27.5782 37.3565 27.724 37.3909 27.8993C37.4265 28.0745 37.4259 28.2798 37.3892 28.515L37.3565 28.7257H35.1269L35.1974 28.2504H36.7389C36.7561 28.1399 36.7492 28.0421 36.7183 27.9569C36.6873 27.8717 36.6357 27.805 36.5634 27.757C36.4912 27.7078 36.4023 27.6832 36.2968 27.6832C36.1889 27.6832 36.088 27.7108 35.994 27.766C35.8999 27.8212 35.8208 27.8939 35.7566 27.9839C35.6935 28.0727 35.6528 28.1693 35.6344 28.2738L35.5535 28.7455C35.5306 28.8907 35.5352 29.0113 35.5673 29.1074C35.6006 29.2034 35.6579 29.2754 35.7394 29.3234C35.8208 29.3702 35.924 29.3936 36.049 29.3936C36.1305 29.3936 36.2067 29.3816 36.2778 29.3576C36.3501 29.3336 36.4143 29.2982 36.4705 29.2514C36.5267 29.2034 36.5726 29.144 36.6082 29.0732L37.2774 29.12C37.2155 29.2904 37.1214 29.4392 36.9952 29.5665C36.8691 29.6925 36.7171 29.7909 36.5393 29.8617C36.3627 29.9314 36.1649 29.9662 35.9458 29.9662Z" fill="#2B434D"/>
<path d="M40.4816 27.1467L39.1174 29.9122H38.2916L37.8081 27.1467H38.5548L38.7888 29.1254H38.8163L39.6782 27.1467H40.4816Z" fill="#2B434D"/>
<path d="M41.5285 29.9662C41.2578 29.9662 41.0336 29.9086 40.8558 29.7933C40.678 29.6769 40.553 29.5125 40.4808 29.3C40.4097 29.0864 40.3976 28.8337 40.4446 28.542C40.4905 28.2576 40.5828 28.0079 40.7216 27.793C40.8616 27.5782 41.037 27.4107 41.2481 27.2907C41.4591 27.1707 41.6942 27.1107 41.9534 27.1107C42.1278 27.1107 42.2855 27.1401 42.4265 27.1989C42.5688 27.2565 42.6869 27.3441 42.781 27.4618C42.875 27.5782 42.9392 27.724 42.9736 27.8993C43.0092 28.0745 43.0086 28.2798 42.9719 28.515L42.9392 28.7257H40.7096L40.7801 28.2504H42.3216C42.3388 28.1399 42.3319 28.0421 42.301 27.9569C42.27 27.8717 42.2184 27.805 42.1461 27.757C42.0739 27.7078 41.985 27.6832 41.8795 27.6832C41.7716 27.6832 41.6707 27.7108 41.5767 27.766C41.4826 27.8212 41.4035 27.8939 41.3393 27.9839C41.2762 28.0727 41.2355 28.1693 41.2171 28.2738L41.1362 28.7455C41.1133 28.8907 41.1179 29.0113 41.15 29.1074C41.1833 29.2034 41.2406 29.2754 41.3221 29.3234C41.4035 29.3702 41.5067 29.3936 41.6317 29.3936C41.7132 29.3936 41.7894 29.3816 41.8605 29.3576C41.9328 29.3336 41.997 29.2982 42.0532 29.2514C42.1094 29.2034 42.1553 29.144 42.1909 29.0732L42.8601 29.12C42.7982 29.2904 42.7041 29.4392 42.5779 29.5665C42.4518 29.6925 42.2998 29.7909 42.122 29.8617C41.9454 29.9314 41.7476 29.9662 41.5285 29.9662Z" fill="#2B434D"/>
<path d="M44.5491 26.2249L43.9642 29.9122H43.2313L43.8162 26.2249H44.5491Z" fill="#2B434D"/>
<path d="M48.0574 29.0308C47.5732 29.0308 47.1429 28.9447 46.7667 28.7726C46.3925 28.5983 46.0984 28.3587 45.8842 28.0537C45.6701 27.7488 45.5621 27.3982 45.5601 27.0019H47.241C47.243 27.1243 47.279 27.2343 47.349 27.3318C47.4211 27.4272 47.5191 27.5019 47.6432 27.5558C47.7673 27.6098 47.9093 27.6367 48.0694 27.6367C48.2235 27.6367 48.3596 27.6087 48.4777 27.5527C48.5957 27.4946 48.6878 27.4148 48.7538 27.3131C48.8198 27.2115 48.8519 27.0953 48.8499 26.9646C48.8519 26.836 48.8138 26.7219 48.7358 26.6223C48.6598 26.5227 48.5527 26.4449 48.4146 26.3889C48.2765 26.3329 48.1175 26.3049 47.9374 26.3049H47.313V25.1099H47.9374C48.1034 25.1099 48.2495 25.0819 48.3756 25.0259C48.5037 24.9699 48.6027 24.8921 48.6728 24.7925C48.7448 24.6929 48.7798 24.5788 48.7778 24.4502C48.7798 24.3257 48.7508 24.2158 48.6908 24.1204C48.6307 24.0249 48.5467 23.9502 48.4386 23.8963C48.3326 23.8424 48.2095 23.8154 48.0694 23.8154C47.9173 23.8154 47.7813 23.8434 47.6612 23.8994C47.5431 23.9554 47.4501 24.0332 47.3821 24.1328C47.314 24.2324 47.279 24.3465 47.277 24.4751H45.6801C45.6821 24.0851 45.7852 23.7407 45.9893 23.442C46.1954 23.1432 46.4776 22.9088 46.8358 22.7387C47.194 22.5686 47.6052 22.4835 48.0694 22.4835C48.5237 22.4835 48.9249 22.5634 49.2731 22.7232C49.6233 22.8829 49.8964 23.1028 50.0925 23.3829C50.2906 23.6608 50.3887 23.9793 50.3867 24.3382C50.3907 24.695 50.2726 24.9875 50.0325 25.2157C49.7944 25.4439 49.4922 25.5788 49.126 25.6203V25.6701C49.6223 25.7261 49.9955 25.8837 50.2456 26.1431C50.4958 26.4003 50.6188 26.7239 50.6148 27.114C50.6168 27.4874 50.5088 27.8183 50.2906 28.1066C50.0745 28.395 49.7734 28.6211 49.3872 28.785C49.0029 28.9489 48.5597 29.0308 48.0574 29.0308Z" fill="#2B434D"/>
</g>
</svg>
