<svg width="636" height="79" viewBox="0 0 636 79" fill="none" xmlns="http://www.w3.org/2000/svg">
<path d="M16.8817 37.9135H12.1245C12.1587 37.5637 12.1359 37.2483 12.056 36.9674C11.9762 36.6866 11.8393 36.4451 11.6454 36.2431C11.4514 36.0361 11.1976 35.8784 10.8839 35.77C10.5701 35.6616 10.1965 35.6074 9.76299 35.6074C8.93019 35.6074 8.18581 35.7873 7.52983 36.147C6.87386 36.5018 6.32912 37.0118 5.8956 37.677C5.46209 38.3373 5.15407 39.1258 4.97154 40.0423C4.81182 40.9293 4.80612 41.666 4.95443 42.2524C5.10844 42.8388 5.4079 43.2773 5.85282 43.5681C6.30345 43.8588 6.88812 44.0042 7.60684 44.0042C8.08598 44.0042 8.5252 43.9549 8.92449 43.8563C9.32948 43.7578 9.68884 43.6173 10.0026 43.435C10.322 43.2478 10.5929 43.026 10.8154 42.7698C11.0436 42.5086 11.2175 42.2203 11.3373 41.905H16.1288C15.9463 42.5456 15.6211 43.2009 15.1534 43.8711C14.6856 44.5363 14.081 45.1498 13.3395 45.7116C12.5979 46.2684 11.7252 46.7193 10.7213 47.0642C9.71736 47.4092 8.58795 47.5816 7.33304 47.5816C5.69026 47.5816 4.27278 47.2712 3.08062 46.6503C1.89417 46.0294 1.03285 45.1227 0.49666 43.9302C-0.0338227 42.7377 -0.139349 41.2841 0.180082 39.5692C0.499512 37.9135 1.12982 36.5264 2.071 35.4078C3.01217 34.2892 4.15585 33.4466 5.50202 32.8799C6.84819 32.3132 8.27992 32.0299 9.79722 32.0299C10.9437 32.0299 11.9705 32.1605 12.8774 32.4217C13.7901 32.6828 14.5573 33.0647 15.1791 33.5673C15.8065 34.065 16.2685 34.6785 16.5652 35.4078C16.8618 36.1371 16.9673 36.9724 16.8817 37.9135Z" fill="black"/>
<path d="M20.1523 32.2369H26.0732L28.5031 40.811H28.7085L34.424 32.2369H40.3449L37.4358 47.3747H32.7812L34.4582 38.6231H34.3213L28.7769 47.2564H25.9705L23.7459 38.564H23.609L21.8978 47.3747H17.2432L20.1523 32.2369Z" fill="black"/>
<path d="M42.5994 32.2369H48.5203L50.9503 40.811H51.1556L56.8711 32.2369H62.792L59.8829 47.3747H55.2283L56.9054 38.6231H56.7685L51.2241 47.2564H48.4176L46.193 38.564H46.0561L44.3449 47.3747H39.6903L42.5994 32.2369Z" fill="black"/>
<path d="M69.8038 32.2369L66.8947 47.3747H62.1375L65.0466 32.2369H69.8038Z" fill="black"/>
<path d="M71.3213 27.0816C71.3213 29.0337 69.6228 30.6161 67.5276 30.6161C65.4324 30.6161 63.7339 29.0337 63.7339 27.0816C63.7339 25.1296 65.4324 23.5471 67.5276 23.5471C69.6228 23.5471 71.3213 25.1296 71.3213 27.0816Z" fill="#00B5F0"/>
<path d="M13.6573 29.678C25.797 19.3102 53.7186 3.52283 68.2863 23.316C63.9868 11.5341 47.0417 -3.68807 13.6573 29.678Z" fill="url(#paint0_linear_266_518)"/>
<path d="M59.1815 51.823C47.2229 61.2949 23.4552 71.8439 9.10484 53.7613C13.3402 64.5249 26.2953 82.3056 59.1815 51.823Z" fill="url(#paint1_linear_266_518)"/>
<path d="M52.0547 48.9954L51.1767 54.569H50.0766L50.9546 48.9954H52.0547Z" fill="black"/>
<path d="M53.8552 54.6506C53.4489 54.6506 53.1124 54.5635 52.8455 54.3894C52.5787 54.2134 52.391 53.9648 52.2826 53.6437C52.1758 53.3207 52.1578 52.9388 52.2284 52.498C52.2972 52.068 52.4358 51.6906 52.6441 51.3658C52.8541 51.0411 53.1175 50.788 53.4343 50.6065C53.7511 50.4251 54.104 50.3344 54.4931 50.3344C54.7547 50.3344 54.9915 50.3788 55.2032 50.4677C55.4167 50.5548 55.594 50.6873 55.7352 50.8651C55.8763 51.0411 55.9727 51.2615 56.0244 51.5264C56.0778 51.7913 56.0769 52.1015 56.0218 52.4571L55.9727 52.7755H52.626L52.7319 52.0571H55.0457C55.0715 51.8902 55.0612 51.7423 55.0147 51.6135C54.9682 51.4847 54.8907 51.384 54.7823 51.3114C54.6738 51.237 54.5404 51.1998 54.382 51.1998C54.2202 51.1998 54.0687 51.2415 53.9275 51.325C53.7864 51.4085 53.6676 51.5182 53.5712 51.6543C53.4765 51.7886 53.4154 51.9346 53.3878 52.0925L53.2665 52.8055C53.232 53.025 53.2389 53.2073 53.2871 53.3525C53.337 53.4976 53.4231 53.6065 53.5453 53.6791C53.6676 53.7498 53.8225 53.7852 54.0102 53.7852C54.1324 53.7852 54.2469 53.7671 54.3536 53.7308C54.4621 53.6945 54.5585 53.641 54.6428 53.5702C54.7272 53.4976 54.7961 53.4078 54.8494 53.3008L55.854 53.3715C55.761 53.6292 55.6198 53.8541 55.4304 54.0465C55.2411 54.237 55.013 54.3857 54.7461 54.4928C54.481 54.598 54.184 54.6506 53.8552 54.6506Z" fill="black"/>
<path d="M60.6635 50.3888L58.6158 54.569H57.3762L56.6506 50.3888H57.7713L58.1225 53.3797H58.1639L59.4576 50.3888H60.6635Z" fill="black"/>
<path d="M62.2349 54.6506C61.8286 54.6506 61.492 54.5635 61.2252 54.3894C60.9584 54.2134 60.7707 53.9648 60.6623 53.6437C60.5555 53.3207 60.5374 52.9388 60.608 52.498C60.6769 52.068 60.8155 51.6906 61.0238 51.3658C61.2338 51.0411 61.4972 50.788 61.814 50.6065C62.1307 50.4251 62.4837 50.3344 62.8727 50.3344C63.1344 50.3344 63.3711 50.3788 63.5829 50.4677C63.7963 50.5548 63.9737 50.6873 64.1148 50.8651C64.256 51.0411 64.3524 51.2615 64.4041 51.5264C64.4574 51.7913 64.4566 52.1015 64.4015 52.4571L64.3524 52.7755H61.0057L61.1116 52.0571H63.4254C63.4512 51.8902 63.4408 51.7423 63.3944 51.6135C63.3479 51.4847 63.2704 51.384 63.162 51.3114C63.0535 51.237 62.9201 51.1998 62.7617 51.1998C62.5999 51.1998 62.4484 51.2415 62.3072 51.325C62.166 51.4085 62.0473 51.5182 61.9508 51.6543C61.8562 51.7886 61.795 51.9346 61.7675 52.0925L61.6461 52.8055C61.6117 53.025 61.6186 53.2073 61.6668 53.3525C61.7167 53.4976 61.8028 53.6065 61.925 53.6791C62.0473 53.7498 62.2022 53.7852 62.3898 53.7852C62.5121 53.7852 62.6266 53.7671 62.7333 53.7308C62.8417 53.6945 62.9382 53.641 63.0225 53.5702C63.1069 53.4976 63.1757 53.4078 63.2291 53.3008L64.2336 53.3715C64.1407 53.6292 63.9995 53.8541 63.8101 54.0465C63.6208 54.237 63.3926 54.3857 63.1258 54.4928C62.8607 54.598 62.5637 54.6506 62.2349 54.6506Z" fill="black"/>
<path d="M66.7688 48.9954L65.8908 54.569H64.7908L65.6688 48.9954H66.7688Z" fill="black"/>
<path d="M72.0349 53.2368C71.308 53.2368 70.6622 53.1067 70.0975 52.8464C69.5358 52.583 69.0943 52.2208 68.7729 51.7599C68.4515 51.2989 68.2893 50.769 68.2863 50.17H70.8094C70.8124 50.355 70.8664 50.5212 70.9716 50.6686C71.0797 50.8129 71.2269 50.9257 71.4131 51.0073C71.5993 51.0888 71.8126 51.1296 72.0529 51.1296C72.2842 51.1296 72.4884 51.0872 72.6656 51.0026C72.8428 50.9148 72.981 50.794 73.0801 50.6404C73.1793 50.4867 73.2273 50.3111 73.2243 50.1136C73.2273 49.9192 73.1702 49.7467 73.0531 49.5962C72.939 49.4457 72.7783 49.3281 72.571 49.2434C72.3638 49.1587 72.125 49.1164 71.8546 49.1164H70.9175V47.3102H71.8546C72.1039 47.3102 72.3232 47.2678 72.5124 47.1832C72.7047 47.0985 72.8534 46.9809 72.9585 46.8304C73.0666 46.6799 73.1192 46.5074 73.1162 46.313C73.1192 46.1248 73.0756 45.9587 72.9855 45.8144C72.8954 45.6702 72.7693 45.5573 72.6071 45.4757C72.4479 45.3942 72.2631 45.3534 72.0529 45.3534C71.8246 45.3534 71.6204 45.3958 71.4401 45.4804C71.2629 45.5651 71.1233 45.6827 71.0211 45.8332C70.919 45.9837 70.8664 46.1562 70.8634 46.3506H68.4665C68.4695 45.7611 68.6242 45.2406 68.9306 44.789C69.24 44.3374 69.6635 43.9831 70.2011 43.726C70.7388 43.4688 71.356 43.3403 72.0529 43.3403C72.7347 43.3403 73.3369 43.461 73.8596 43.7024C74.3852 43.9439 74.7952 44.2763 75.0896 44.6996C75.3869 45.1198 75.5341 45.6012 75.5311 46.1437C75.5371 46.683 75.3599 47.1252 74.9995 47.4701C74.642 47.815 74.1885 48.0189 73.6388 48.0816V48.1568C74.3837 48.2415 74.9439 48.4798 75.3194 48.8718C75.6948 49.2606 75.8795 49.7498 75.8735 50.3394C75.8765 50.9038 75.7143 51.404 75.3869 51.8398C75.0625 52.2757 74.6105 52.6175 74.0308 52.8652C73.4541 53.113 72.7888 53.2368 72.0349 53.2368Z" fill="#00AEEF"/>
<path d="M449.679 46.5028H448.606V48.3662H447.356V46.5028H443.735V45.5121L447.344 39.9101H448.606V45.4414H449.679V46.5028ZM447.356 43.1534C447.356 42.9647 447.356 42.7839 447.356 42.6109C447.363 42.4379 447.371 42.2728 447.379 42.1155C447.387 41.9504 447.391 41.801 447.391 41.6674C447.399 41.5259 447.407 41.4001 447.415 41.29H447.367C447.305 41.4472 447.23 41.6084 447.143 41.7735C447.065 41.9386 446.986 42.0841 446.907 42.2099L444.926 45.4414H447.356V43.1534ZM450.6 47.6704C450.6 47.3637 450.674 47.1475 450.824 47.0217C450.981 46.8959 451.174 46.833 451.402 46.833C451.622 46.833 451.81 46.8959 451.968 47.0217C452.133 47.1475 452.215 47.3637 452.215 47.6704C452.215 47.977 452.133 48.1972 451.968 48.3308C451.81 48.4645 451.622 48.5313 451.402 48.5313C451.174 48.5313 450.981 48.4645 450.824 48.3308C450.674 48.1972 450.6 47.977 450.6 47.6704ZM456.117 39.8276C456.588 39.8276 457.005 39.9062 457.367 40.0634C457.736 40.2128 458.023 40.4369 458.228 40.7357C458.44 41.0345 458.546 41.4079 458.546 41.8561C458.546 42.1942 458.479 42.489 458.346 42.7406C458.22 42.9922 458.043 43.2163 457.815 43.4129C457.595 43.6015 457.351 43.7667 457.084 43.9082C457.39 44.0733 457.673 44.262 457.933 44.4743C458.192 44.6787 458.401 44.9185 458.558 45.1937C458.723 45.4689 458.806 45.7991 458.806 46.1844C458.806 46.6561 458.695 47.065 458.475 47.4109C458.263 47.749 457.956 48.0124 457.555 48.2011C457.154 48.3898 456.679 48.4841 456.128 48.4841C455.539 48.4841 455.039 48.3937 454.631 48.2129C454.23 48.0321 453.927 47.7765 453.722 47.4463C453.518 47.1082 453.416 46.6994 453.416 46.2198C453.416 45.8345 453.487 45.5003 453.628 45.2173C453.778 44.9342 453.97 44.6905 454.206 44.4861C454.45 44.2817 454.717 44.1087 455.008 43.9672C454.756 43.8099 454.528 43.633 454.324 43.4364C454.12 43.232 453.958 43.0001 453.84 42.7406C453.73 42.4811 453.675 42.1824 453.675 41.8443C453.675 41.404 453.781 41.0384 453.994 40.7475C454.206 40.4487 454.497 40.2207 454.866 40.0634C455.236 39.9062 455.653 39.8276 456.117 39.8276ZM454.642 46.1962C454.642 46.5814 454.764 46.8999 455.008 47.1515C455.252 47.3952 455.617 47.5171 456.105 47.5171C456.435 47.5171 456.706 47.462 456.919 47.352C457.131 47.234 457.292 47.0768 457.402 46.8802C457.52 46.6758 457.579 46.4438 457.579 46.1844C457.579 45.9249 457.516 45.6969 457.39 45.5003C457.265 45.3038 457.092 45.1308 456.871 44.9814C456.659 44.8242 456.415 44.6826 456.14 44.5568L455.987 44.4861C455.704 44.6197 455.46 44.7691 455.256 44.9342C455.059 45.0994 454.906 45.2841 454.796 45.4885C454.693 45.693 454.642 45.9288 454.642 46.1962ZM456.093 40.8064C455.747 40.8064 455.46 40.9008 455.232 41.0895C455.012 41.2782 454.902 41.5534 454.902 41.915C454.902 42.1745 454.957 42.3947 455.067 42.5755C455.185 42.7563 455.334 42.9136 455.515 43.0472C455.704 43.173 455.908 43.2949 456.128 43.4129C456.349 43.3028 456.545 43.1848 456.718 43.059C456.899 42.9254 457.04 42.7681 457.143 42.5873C457.253 42.3986 457.308 42.1745 457.308 41.915C457.308 41.5534 457.194 41.2782 456.966 41.0895C456.746 40.9008 456.455 40.8064 456.093 40.8064Z" fill="black"/>
<path d="M390.336 29.6841H393.324V48.1293H390.336V29.6841Z" fill="#16313B"/>
<path d="M403.715 42.2839C403.715 45.1416 401.377 45.4014 400.597 45.4014C398.779 45.4014 398.519 43.7127 398.519 42.8034V35.6592H395.531V42.6735C395.531 44.3622 396.051 45.9209 397.09 46.8302C397.999 47.7395 399.168 48.1292 400.597 48.1292C401.636 48.1292 402.935 47.8694 403.715 47.09V48.1292H406.702V35.6592H403.715V42.2839Z" fill="#16313B"/>
<path d="M412.547 31.1128H409.56V35.6591H407.352V38.5168H409.56V48.1291H412.547V38.5168H414.756V35.6591H412.547V31.1128Z" fill="#16313B"/>
<path d="M424.106 44.3622C423.457 44.8818 422.548 45.2715 421.638 45.2715C419.56 45.2715 418.131 43.7127 418.131 41.6344C418.131 39.5561 419.56 38.1272 421.638 38.1272C422.548 38.1272 423.457 38.387 424.106 39.0365L424.496 39.4262L426.574 37.4777L426.055 37.0881C424.886 36.0489 423.327 35.3994 421.638 35.3994C418.001 35.3994 415.273 38.1272 415.273 41.7643C415.273 45.4014 418.001 48.1292 421.638 48.1292C423.327 48.1292 424.886 47.4797 426.055 46.4405L426.574 46.0509L424.496 43.9725L424.106 44.3622Z" fill="#16313B"/>
<path d="M437.097 36.6985C436.187 35.7892 435.278 35.3995 433.849 35.3995C432.81 35.3995 431.771 35.6593 430.992 36.4387V29.6841H428.004V48.1293H430.992V41.2448C430.992 38.3871 432.94 38.1273 433.719 38.1273C435.538 38.1273 435.408 39.8159 435.408 40.7252V47.9994H438.396V40.8551C438.396 39.1665 438.006 37.6077 437.097 36.6985Z" fill="#16313B"/>
<path d="M421.512 43.8425C422.66 43.8425 423.59 42.912 423.59 41.7641C423.59 40.6163 422.66 39.6858 421.512 39.6858C420.364 39.6858 419.434 40.6163 419.434 41.7641C419.434 42.912 420.364 43.8425 421.512 43.8425Z" fill="#EF4335"/>
<path d="M386.179 43.5831C385.14 44.6222 383.581 45.2717 381.892 45.2717C378.645 45.2717 376.307 42.6738 376.307 39.1666C376.307 35.6594 378.645 33.0615 382.022 33.0615C383.581 33.0615 385.14 33.711 386.309 34.8801L386.699 35.2698L388.647 33.3213L388.257 32.9316C386.569 31.243 384.36 30.3337 382.022 30.3337C377.086 30.2038 373.449 34.1007 373.449 39.1666C373.449 44.2326 377.086 48.1294 381.892 48.1294C384.231 48.1294 386.569 47.2202 388.127 45.5315L388.517 45.1418L386.569 43.1934L386.179 43.5831Z" fill="#16313B"/>
<path d="M397.91 55.3829L396.642 57.9631C396.578 58.0944 396.483 58.208 396.365 58.2941C396.247 58.3802 396.11 58.4361 395.965 58.4572L393.132 58.8711C392.999 58.8904 392.874 58.9467 392.771 59.0335C392.669 59.1204 392.592 59.2344 392.551 59.3627C392.509 59.4909 392.504 59.6282 392.537 59.7591C392.569 59.89 392.637 60.0092 392.733 60.1032L394.785 62.1118C394.889 62.2139 394.967 62.3399 395.012 62.4789C395.057 62.6179 395.068 62.7658 395.043 62.9099L394.559 65.7463C394.536 65.8791 394.551 66.0155 394.602 66.1402C394.652 66.2649 394.737 66.3729 394.845 66.452C394.954 66.5311 395.082 66.5781 395.216 66.5877C395.35 66.5973 395.484 66.5691 395.602 66.5064L398.137 65.1675C398.266 65.0994 398.41 65.0638 398.556 65.0638C398.701 65.0638 398.845 65.0994 398.974 65.1675L401.509 66.5064C401.628 66.5691 401.761 66.5973 401.895 66.5877C402.029 66.5781 402.157 66.5311 402.266 66.452C402.374 66.3729 402.459 66.2649 402.509 66.1402C402.56 66.0155 402.575 65.8791 402.552 65.7463L402.068 62.9099C402.044 62.7658 402.054 62.6179 402.099 62.4789C402.144 62.3399 402.222 62.2139 402.327 62.1118L404.378 60.1032C404.474 60.0092 404.542 59.89 404.575 59.7591C404.607 59.6282 404.602 59.4909 404.56 59.3627C404.519 59.2344 404.443 59.1204 404.34 59.0335C404.237 58.9467 404.112 58.8904 403.98 58.8711L401.145 58.4572C401 58.4361 400.863 58.3802 400.745 58.2941C400.627 58.208 400.532 58.0944 400.468 57.9631L399.2 55.3829C399.14 55.262 399.049 55.1603 398.935 55.0891C398.821 55.0179 398.689 54.9802 398.555 54.9802C398.421 54.9802 398.289 55.0179 398.175 55.0891C398.061 55.1603 397.97 55.262 397.91 55.3829V55.3829Z" fill="#FFAF00"/>
<path d="M416.95 55.383L415.683 57.9632C415.618 58.0945 415.523 58.2081 415.405 58.2941C415.287 58.3802 415.15 58.4362 415.006 58.4573L412.171 58.8711C412.038 58.8905 411.913 58.9467 411.81 59.0336C411.708 59.1205 411.631 59.2345 411.59 59.3627C411.548 59.491 411.543 59.6283 411.576 59.7592C411.608 59.89 411.676 60.0093 411.772 60.1033L413.824 62.1119C413.928 62.214 414.006 62.3399 414.051 62.479C414.096 62.618 414.107 62.7659 414.082 62.91L413.598 65.7464C413.575 65.8791 413.59 66.0156 413.641 66.1403C413.692 66.265 413.776 66.373 413.884 66.4521C413.993 66.5311 414.121 66.5781 414.255 66.5877C414.389 66.5974 414.523 66.5692 414.641 66.5065L417.176 65.1675C417.305 65.0994 417.449 65.0638 417.595 65.0638C417.74 65.0638 417.884 65.0994 418.013 65.1675L420.548 66.5065C420.667 66.5692 420.8 66.5974 420.934 66.5877C421.068 66.5781 421.196 66.5311 421.305 66.4521C421.413 66.373 421.498 66.265 421.548 66.1403C421.599 66.0156 421.614 65.8791 421.592 65.7464L421.107 62.91C421.083 62.7659 421.093 62.618 421.138 62.4789C421.183 62.3399 421.261 62.214 421.366 62.1119L423.417 60.1033C423.513 60.0093 423.581 59.89 423.614 59.7592C423.646 59.6283 423.641 59.491 423.599 59.3627C423.558 59.2345 423.482 59.1205 423.379 59.0336C423.276 58.9467 423.152 58.8905 423.019 58.8711L420.184 58.4573C420.039 58.4362 419.902 58.3802 419.784 58.2941C419.667 58.2081 419.571 58.0945 419.507 57.9632L418.239 55.383C418.179 55.2624 418.088 55.1609 417.974 55.09C417.86 55.019 417.729 54.9814 417.595 54.9814C417.461 54.9814 417.329 55.019 417.216 55.09C417.102 55.1609 417.01 55.2624 416.95 55.383Z" fill="#FFAF00"/>
<path d="M435.993 55.3829L434.725 57.9631C434.661 58.0944 434.565 58.208 434.447 58.2941C434.33 58.3802 434.193 58.4361 434.048 58.4572L431.214 58.8711C431.081 58.8904 430.956 58.9467 430.853 59.0335C430.751 59.1204 430.674 59.2344 430.633 59.3627C430.591 59.4909 430.586 59.6282 430.619 59.7591C430.651 59.89 430.719 60.0092 430.815 60.1032L432.867 62.1118C432.971 62.2139 433.049 62.3399 433.094 62.4789C433.139 62.6179 433.15 62.7658 433.125 62.9099L432.641 65.7463C432.618 65.8791 432.633 66.0155 432.684 66.1402C432.735 66.2649 432.819 66.3729 432.927 66.452C433.036 66.5311 433.164 66.5781 433.298 66.5877C433.432 66.5973 433.566 66.5691 433.684 66.5064L436.219 65.1675C436.348 65.0994 436.492 65.0638 436.638 65.0638C436.783 65.0638 436.927 65.0994 437.056 65.1675L439.591 66.5064C439.71 66.5691 439.843 66.5973 439.977 66.5877C440.111 66.5781 440.239 66.5311 440.348 66.452C440.456 66.3729 440.541 66.2649 440.591 66.1402C440.642 66.0155 440.657 65.8791 440.634 65.7463L440.15 62.9099C440.126 62.7658 440.136 62.6179 440.181 62.4789C440.226 62.3399 440.304 62.2139 440.409 62.1118L442.46 60.1032C442.556 60.0092 442.624 59.89 442.657 59.7591C442.689 59.6282 442.684 59.4909 442.642 59.3627C442.601 59.2344 442.525 59.1204 442.422 59.0335C442.319 58.9467 442.195 58.8904 442.062 58.8711L439.227 58.4572C439.082 58.4361 438.945 58.3802 438.827 58.2941C438.71 58.208 438.614 58.0944 438.55 57.9631L437.283 55.3829C437.223 55.262 437.131 55.1603 437.017 55.0891C436.903 55.0179 436.772 54.9802 436.638 54.9802C436.504 54.9802 436.372 55.0179 436.258 55.0891C436.144 55.1603 436.052 55.262 435.993 55.3829V55.3829Z" fill="#FFAF00"/>
<path d="M456.323 55.3834L457.591 57.9636C457.656 58.0949 457.751 58.2085 457.869 58.2946C457.987 58.3807 458.124 58.4366 458.268 58.4577L461.103 58.8716C461.236 58.8909 461.36 58.9472 461.463 59.0341C461.566 59.1209 461.642 59.2349 461.684 59.3632C461.725 59.4914 461.73 59.6287 461.698 59.7596C461.665 59.8905 461.597 60.0097 461.501 60.1037L459.45 62.1123C459.346 62.2144 459.268 62.3404 459.223 62.4794C459.178 62.6184 459.167 62.7663 459.191 62.9105L459.676 65.7468C459.698 65.8796 459.683 66.016 459.633 66.1407C459.582 66.2654 459.498 66.3734 459.389 66.4525C459.28 66.5316 459.152 66.5786 459.018 66.5882C458.885 66.5978 458.751 66.5697 458.632 66.5069L456.097 65.168C455.968 65.0999 455.825 65.0643 455.679 65.0643C455.533 65.0643 455.389 65.0999 455.26 65.168L452.725 66.5069C452.607 66.5697 452.473 66.5978 452.339 66.5882C452.206 66.5786 452.077 66.5316 451.969 66.4525C451.86 66.3734 451.776 66.2654 451.725 66.1407C451.674 66.016 451.659 65.8796 451.682 65.7468L452.166 62.9105C452.191 62.7663 452.18 62.6184 452.135 62.4794C452.09 62.3404 452.012 62.2144 451.908 62.1123L449.856 60.1037C449.76 60.0097 449.692 59.8905 449.66 59.7596C449.628 59.6287 449.633 59.4914 449.674 59.3632C449.715 59.2349 449.792 59.1209 449.894 59.0341C449.997 58.9472 450.122 58.8909 450.255 58.8716L453.09 58.4577C453.234 58.4366 453.371 58.3807 453.489 58.2946C453.607 58.2085 453.702 58.0949 453.767 57.9636L455.031 55.3834C455.09 55.2618 455.182 55.1594 455.296 55.0877C455.411 55.016 455.543 54.978 455.677 54.978C455.812 54.978 455.944 55.016 456.058 55.0877C456.172 55.1594 456.264 55.2618 456.323 55.3834V55.3834Z" fill="#FFAF00"/>
<path d="M458.632 66.5089L456.906 65.5967V56.5688L457.591 57.9637C457.655 58.095 457.751 58.2085 457.869 58.2946C457.987 58.3807 458.123 58.4367 458.268 58.4577L461.103 58.8716C461.236 58.8909 461.36 58.9472 461.463 59.0341C461.566 59.121 461.642 59.235 461.684 59.3632C461.725 59.4914 461.73 59.6288 461.698 59.7596C461.665 59.8905 461.597 60.0097 461.501 60.1038L459.45 62.1124C459.346 62.2144 459.268 62.3404 459.223 62.4794C459.178 62.6185 459.167 62.7664 459.191 62.9105L459.676 65.7468C459.699 65.8798 459.684 66.0165 459.633 66.1415C459.583 66.2665 459.499 66.3748 459.39 66.4541C459.281 66.5334 459.153 66.5806 459.019 66.5903C458.885 66.6 458.751 66.5718 458.632 66.5089V66.5089Z" fill="#FDE3AC"/>
<path d="M378.872 55.3833L377.604 57.9639C377.54 58.0952 377.445 58.2088 377.327 58.2948C377.209 58.3809 377.072 58.4369 376.928 58.458L374.092 58.8718C373.96 58.8911 373.835 58.9474 373.732 59.0343C373.63 59.1212 373.553 59.2352 373.512 59.3634C373.47 59.4917 373.465 59.629 373.498 59.7599C373.53 59.8907 373.598 60.01 373.694 60.104L375.746 62.1126C375.85 62.2147 375.928 62.3406 375.973 62.4797C376.018 62.6187 376.028 62.7666 376.004 62.9107L375.52 65.7471C375.497 65.8798 375.512 66.0163 375.563 66.141C375.613 66.2657 375.698 66.3737 375.806 66.4528C375.915 66.5318 376.043 66.5788 376.177 66.5884C376.311 66.5981 376.445 66.5699 376.563 66.5072L379.098 65.1682C379.227 65.1001 379.371 65.0645 379.517 65.0645C379.662 65.0645 379.806 65.1001 379.935 65.1682L382.47 66.5072C382.589 66.5699 382.722 66.5981 382.856 66.5884C382.99 66.5788 383.118 66.5318 383.227 66.4528C383.335 66.3737 383.42 66.2657 383.47 66.141C383.521 66.0163 383.536 65.8798 383.513 65.7471L383.029 62.9107C383.005 62.7666 383.015 62.6187 383.06 62.4796C383.105 62.3406 383.183 62.2147 383.288 62.1126L385.339 60.104C385.435 60.01 385.503 59.8907 385.535 59.7599C385.568 59.629 385.563 59.4917 385.521 59.3634C385.48 59.2352 385.404 59.1212 385.301 59.0343C385.198 58.9474 385.073 58.8911 384.941 58.8718L382.107 58.4576C381.963 58.4365 381.826 58.3805 381.708 58.2945C381.59 58.2084 381.495 58.0948 381.43 57.9635L380.162 55.3833C380.103 55.2623 380.011 55.1605 379.897 55.0892C379.783 55.018 379.652 54.9802 379.517 54.9802C379.383 54.9802 379.251 55.018 379.138 55.0892C379.024 55.1605 378.932 55.2623 378.872 55.3833V55.3833Z" fill="#E2E2E2"/>
<path d="M380.137 55.3837L381.405 57.9639C381.47 58.0952 381.565 58.2088 381.683 58.2949C381.801 58.3809 381.938 58.4369 382.082 58.458L384.917 58.8719C385.05 58.8912 385.175 58.9475 385.277 59.0343C385.38 59.1212 385.456 59.2352 385.498 59.3635C385.539 59.4917 385.544 59.629 385.512 59.7599C385.48 59.8908 385.412 60.01 385.316 60.104L383.264 62.1126C383.16 62.2147 383.082 62.3407 383.037 62.4797C382.992 62.6187 382.981 62.7666 383.006 62.9107L383.49 65.7471C383.512 65.8799 383.498 66.0163 383.447 66.141C383.396 66.2657 383.312 66.3737 383.203 66.4528C383.095 66.5319 382.966 66.5789 382.833 66.5885C382.699 66.5981 382.565 66.5699 382.446 66.5072L379.911 65.1683C379.782 65.1002 379.639 65.0646 379.493 65.0646C379.347 65.0646 379.204 65.1002 379.075 65.1683L376.54 66.5072C376.421 66.5699 376.287 66.5981 376.154 66.5885C376.02 66.5789 375.891 66.5319 375.783 66.4528C375.674 66.3737 375.59 66.2657 375.539 66.141C375.489 66.0163 375.474 65.8799 375.496 65.7471L375.981 62.9107C376.005 62.7666 375.994 62.6187 375.949 62.4797C375.904 62.3406 375.826 62.2147 375.722 62.1126L373.671 60.104C373.574 60.01 373.506 59.8908 373.474 59.7599C373.442 59.629 373.447 59.4917 373.488 59.3635C373.53 59.2352 373.606 59.1212 373.709 59.0343C373.811 58.9475 373.936 58.8912 374.069 58.8719L376.904 58.458C377.048 58.4369 377.185 58.3809 377.303 58.2949C377.421 58.2088 377.517 58.0952 377.581 57.9639L378.849 55.3837C378.908 55.2631 379 55.1617 379.114 55.0907C379.228 55.0198 379.359 54.9822 379.493 54.9822C379.627 54.9822 379.758 55.0198 379.872 55.0907C379.986 55.1617 380.078 55.2631 380.137 55.3837V55.3837Z" fill="#FFAF00"/>
<path d="M375.328 15.6915C375.885 15.6915 376.344 15.7658 376.706 15.9146C377.068 16.0634 377.337 16.2866 377.512 16.5841C377.693 16.8752 377.783 17.2439 377.783 17.6902C377.783 18.046 377.722 18.3467 377.599 18.5925C377.482 18.8319 377.327 19.0292 377.133 19.1844C376.946 19.3332 376.742 19.4528 376.522 19.5434L378.356 22.6191H377.133L375.59 19.8151H374.533V22.6191H373.456V15.6915H375.328ZM375.28 16.5841H374.533V18.9418H375.299C375.616 18.9418 375.875 18.8966 376.076 18.806C376.283 18.7154 376.435 18.5796 376.532 18.3985C376.635 18.2174 376.687 17.9942 376.687 17.729C376.687 17.4509 376.635 17.2309 376.532 17.0692C376.435 16.9011 376.279 16.7782 376.066 16.7005C375.859 16.6229 375.597 16.5841 375.28 16.5841ZM381.146 17.2924C381.761 17.2924 382.223 17.4379 382.534 17.729C382.851 18.0136 383.009 18.4632 383.009 19.0777V22.6191H382.262L382.058 21.8914H382.02C381.871 22.079 381.722 22.2343 381.573 22.3572C381.431 22.4801 381.263 22.5706 381.069 22.6288C380.881 22.6871 380.648 22.7162 380.37 22.7162C380.079 22.7162 379.817 22.6612 379.584 22.5512C379.351 22.4348 379.167 22.2601 379.031 22.0273C378.895 21.7879 378.827 21.4904 378.827 21.1346C378.827 20.6042 379.015 20.2 379.39 19.9218C379.772 19.6437 380.351 19.4917 381.127 19.4658L381.961 19.4367V19.1456C381.961 18.7575 381.88 18.4858 381.719 18.3306C381.563 18.1753 381.344 18.0977 381.059 18.0977C380.82 18.0977 380.584 18.1365 380.351 18.2141C380.118 18.2918 379.891 18.3856 379.671 18.4955L379.351 17.7484C379.591 17.6191 379.862 17.5123 380.166 17.4282C380.477 17.3377 380.803 17.2924 381.146 17.2924ZM381.331 20.1256C380.8 20.1514 380.432 20.2517 380.225 20.4263C380.018 20.5945 379.914 20.8339 379.914 21.1443C379.914 21.416 379.985 21.6133 380.127 21.7362C380.276 21.8591 380.467 21.9206 380.7 21.9206C381.056 21.9206 381.353 21.8074 381.593 21.581C381.838 21.3546 381.961 21.015 381.961 20.5622V20.1062L381.331 20.1256ZM386.307 21.8817C386.443 21.8817 386.576 21.8688 386.705 21.8429C386.834 21.8171 386.948 21.7879 387.045 21.7556V22.5318C386.935 22.5836 386.789 22.6256 386.608 22.658C386.433 22.6968 386.249 22.7162 386.055 22.7162C385.783 22.7162 385.534 22.6677 385.308 22.5706C385.082 22.4736 384.9 22.3054 384.765 22.0661C384.629 21.8268 384.561 21.4936 384.561 21.0667V18.1753H383.891V17.7096L384.609 17.3215L384.968 16.2154H385.618V17.3894H387.006V18.1753H385.618V21.0473C385.618 21.3319 385.683 21.5421 385.812 21.678C385.942 21.8138 386.107 21.8817 386.307 21.8817ZM389.996 17.2924C390.43 17.2924 390.805 17.3894 391.122 17.5835C391.439 17.7711 391.681 18.0427 391.849 18.3985C392.024 18.7543 392.111 19.1747 392.111 19.6598V20.2226H388.822C388.835 20.7595 388.964 21.1702 389.21 21.4548C389.456 21.7394 389.802 21.8817 390.248 21.8817C390.565 21.8817 390.847 21.8526 391.093 21.7944C391.345 21.7297 391.6 21.6359 391.859 21.513V22.3669C391.613 22.4833 391.361 22.5706 391.102 22.6288C390.85 22.6871 390.543 22.7162 390.18 22.7162C389.708 22.7162 389.288 22.6159 388.919 22.4154C388.55 22.2149 388.263 21.9173 388.056 21.5227C387.849 21.1217 387.745 20.6301 387.745 20.0479C387.745 19.4593 387.839 18.9612 388.026 18.5537C388.214 18.1462 388.476 17.8357 388.812 17.6223C389.155 17.4024 389.55 17.2924 389.996 17.2924ZM389.996 18.088C389.666 18.088 389.401 18.2077 389.201 18.447C389 18.6863 388.884 19.0259 388.851 19.4658H391.073C391.073 19.1941 391.034 18.9548 390.957 18.7478C390.879 18.5408 390.759 18.3791 390.598 18.2627C390.442 18.1462 390.242 18.088 389.996 18.088ZM400.049 19.9994C400.049 20.4328 399.994 20.8177 399.884 21.154C399.774 21.4904 399.616 21.775 399.409 22.0079C399.208 22.2407 398.962 22.4186 398.671 22.5415C398.38 22.658 398.054 22.7162 397.691 22.7162C397.361 22.7162 397.054 22.658 396.77 22.5415C396.485 22.4186 396.239 22.2407 396.032 22.0079C395.825 21.775 395.664 21.4904 395.547 21.154C395.437 20.8177 395.382 20.4296 395.382 19.9897C395.382 19.414 395.476 18.9257 395.664 18.5246C395.851 18.1236 396.12 17.8196 396.469 17.6126C396.825 17.3991 397.245 17.2924 397.73 17.2924C398.183 17.2924 398.584 17.3991 398.933 17.6126C399.283 17.8196 399.554 18.1236 399.748 18.5246C399.949 18.9257 400.049 19.4173 400.049 19.9994ZM396.469 19.9994C396.469 20.3875 396.511 20.7239 396.595 21.0085C396.686 21.2866 396.821 21.5001 397.002 21.6489C397.19 21.7977 397.426 21.872 397.711 21.872C398.002 21.872 398.238 21.7977 398.419 21.6489C398.607 21.5001 398.742 21.2866 398.827 21.0085C398.917 20.7239 398.962 20.3875 398.962 19.9994C398.962 19.5984 398.917 19.262 398.827 18.9904C398.736 18.7187 398.6 18.5117 398.419 18.3694C398.238 18.2206 397.999 18.1462 397.701 18.1462C397.268 18.1462 396.954 18.3079 396.76 18.6314C396.566 18.9548 396.469 19.4108 396.469 19.9994ZM403.806 17.2924C404.375 17.2924 404.812 17.4444 405.116 17.7484C405.426 18.0524 405.581 18.5408 405.581 19.2135V22.6191H404.533V19.3591C404.533 18.9515 404.453 18.6475 404.291 18.447C404.136 18.24 403.893 18.1365 403.563 18.1365C403.078 18.1365 402.745 18.295 402.564 18.612C402.383 18.9289 402.292 19.3849 402.292 19.98V22.6191H401.244V17.3894H402.069L402.214 18.088H402.273C402.383 17.9069 402.515 17.7581 402.67 17.6417C402.826 17.5253 403 17.4379 403.194 17.3797C403.388 17.3215 403.592 17.2924 403.806 17.2924Z" fill="black"/>
<path d="M137.29 19.4258C132.732 18.8561 123.522 22.2744 119.486 24.0548C115.783 44.5649 129.812 56.5766 137.29 60.0187C154.382 53.4668 156.281 33.7876 155.094 24.767C148.685 20.8501 142.987 20.138 137.29 19.4258Z" fill="#61BE7D"/>
<path d="M155.093 24.767C148.684 20.8501 142.986 20.1379 137.289 19.4258V60.0186C154.381 53.4668 156.28 33.7876 155.093 24.767Z" fill="#56AA6F"/>
<path d="M140.85 58.2385L128.031 45.4197L134.797 32.2449H145.835L154.381 38.2982C152.102 50.8321 144.411 56.8142 140.85 58.2385Z" fill="#4C9964"/>
<path fill-rule="evenodd" clip-rule="evenodd" d="M137.295 30.225C138.486 30.225 139.473 31.1017 139.644 32.245H134.945C135.117 31.1017 136.104 30.225 137.295 30.225ZM131.059 32.245H132.679C132.861 29.8548 134.858 27.9719 137.295 27.9719C139.732 27.9719 141.729 29.8548 141.91 32.245H143.528C145.395 32.245 146.908 33.7581 146.908 35.6247V43.1084C146.908 44.975 145.395 46.4881 143.528 46.4881H131.059C129.193 46.4881 127.68 44.975 127.68 43.1084V35.6247C127.68 33.7581 129.193 32.245 131.059 32.245ZM137.65 40.7908C138.436 40.7908 139.074 40.1531 139.074 39.3665C139.074 38.5798 138.436 37.9421 137.65 37.9421C136.863 37.9421 136.225 38.5798 136.225 39.3665C136.225 40.1531 136.863 40.7908 137.65 40.7908Z" fill="white"/>
<path d="M164.119 25.251H165.616V31.2358H164.119V30.6033C163.826 30.882 163.531 31.0837 163.234 31.2083C162.94 31.3294 162.621 31.3899 162.277 31.3899C161.503 31.3899 160.834 31.091 160.269 30.4932C159.704 29.8918 159.422 29.1455 159.422 28.2544C159.422 27.3303 159.695 26.573 160.241 25.9826C160.788 25.3922 161.452 25.097 162.233 25.097C162.592 25.097 162.929 25.1648 163.245 25.3005C163.56 25.4362 163.852 25.6397 164.119 25.9111V25.251ZM162.541 26.4832C162.075 26.4832 161.688 26.6482 161.38 26.9782C161.072 27.3046 160.918 27.7245 160.918 28.2379C160.918 28.755 161.074 29.1804 161.386 29.5141C161.701 29.8478 162.088 30.0147 162.546 30.0147C163.019 30.0147 163.412 29.8515 163.723 29.5251C164.035 29.1951 164.191 28.7642 164.191 28.2324C164.191 27.7117 164.035 27.29 163.723 26.9672C163.412 26.6445 163.017 26.4832 162.541 26.4832ZM167.134 25.251H168.63V25.8616C168.971 25.5756 169.279 25.3775 169.554 25.2675C169.833 25.1538 170.117 25.097 170.407 25.097C171.001 25.097 171.505 25.3042 171.92 25.7186C172.268 26.0706 172.442 26.5914 172.442 27.2808V31.2358H170.957V28.612C170.957 27.8969 170.924 27.422 170.858 27.1873C170.796 26.9526 170.684 26.7747 170.522 26.6537C170.365 26.529 170.168 26.4667 169.934 26.4667C169.629 26.4667 169.367 26.5694 169.147 26.7747C168.931 26.9764 168.78 27.257 168.696 27.6163C168.652 27.8034 168.63 28.2086 168.63 28.832V31.2358H167.134V25.251ZM178.322 22.9407H179.819V31.2358H178.322V30.6033C178.029 30.882 177.734 31.0837 177.437 31.2083C177.143 31.3294 176.824 31.3899 176.48 31.3899C175.706 31.3899 175.037 31.091 174.472 30.4932C173.907 29.8918 173.625 29.1455 173.625 28.2544C173.625 27.3303 173.898 26.573 174.444 25.9826C174.991 25.3922 175.655 25.097 176.436 25.097C176.795 25.097 177.132 25.1648 177.448 25.3005C177.763 25.4362 178.055 25.6397 178.322 25.9111V22.9407ZM176.744 26.4832C176.278 26.4832 175.891 26.6482 175.583 26.9782C175.275 27.3046 175.121 27.7245 175.121 28.2379C175.121 28.755 175.277 29.1804 175.589 29.5141C175.904 29.8478 176.291 30.0147 176.749 30.0147C177.222 30.0147 177.615 29.8515 177.926 29.5251C178.238 29.1951 178.394 28.7642 178.394 28.2324C178.394 27.7117 178.238 27.29 177.926 26.9672C177.615 26.6445 177.22 26.4832 176.744 26.4832ZM180.985 25.251H182.272V26.0046C182.411 25.7076 182.597 25.482 182.828 25.328C183.059 25.174 183.312 25.097 183.587 25.097C183.781 25.097 183.985 25.1483 184.197 25.251L183.73 26.5437C183.554 26.4557 183.409 26.4117 183.295 26.4117C183.064 26.4117 182.868 26.5547 182.707 26.8407C182.549 27.1268 182.47 27.6878 182.47 28.524L182.475 28.8155V31.2358H180.985V25.251ZM187.756 25.097C188.321 25.097 188.851 25.2382 189.346 25.5205C189.845 25.8029 190.233 26.1861 190.512 26.6702C190.791 27.1543 190.93 27.6768 190.93 28.2379C190.93 28.8027 190.789 29.3307 190.507 29.8221C190.228 30.3135 189.847 30.6986 189.362 30.9773C188.878 31.2523 188.345 31.3899 187.762 31.3899C186.904 31.3899 186.17 31.0855 185.561 30.4767C184.956 29.8643 184.654 29.1217 184.654 28.2489C184.654 27.3138 184.997 26.5345 185.682 25.9111C186.284 25.3684 186.975 25.097 187.756 25.097ZM187.778 26.5107C187.313 26.5107 186.924 26.6739 186.612 27.0003C186.304 27.323 186.15 27.7374 186.15 28.2434C186.15 28.7642 186.302 29.1859 186.607 29.5086C186.915 29.8313 187.303 29.9927 187.773 29.9927C188.242 29.9927 188.633 29.8295 188.944 29.5031C189.256 29.1767 189.412 28.7568 189.412 28.2434C189.412 27.73 189.258 27.3138 188.95 26.9948C188.646 26.672 188.255 26.5107 187.778 26.5107ZM192.751 22.7867C193.015 22.7867 193.24 22.882 193.428 23.0727C193.618 23.2634 193.714 23.4944 193.714 23.7658C193.714 24.0335 193.62 24.2627 193.433 24.4534C193.246 24.6404 193.022 24.7339 192.762 24.7339C192.494 24.7339 192.265 24.6386 192.074 24.4479C191.887 24.2535 191.794 24.0188 191.794 23.7438C191.794 23.4798 191.887 23.2542 192.074 23.0672C192.261 22.8802 192.487 22.7867 192.751 22.7867ZM191.997 25.251H193.505V31.2358H191.997V25.251ZM199.291 22.9407H200.788V31.2358H199.291V30.6033C198.998 30.882 198.703 31.0837 198.406 31.2083C198.112 31.3294 197.793 31.3899 197.449 31.3899C196.675 31.3899 196.006 31.091 195.441 30.4932C194.876 29.8918 194.594 29.1455 194.594 28.2544C194.594 27.3303 194.867 26.573 195.413 25.9826C195.96 25.3922 196.623 25.097 197.405 25.097C197.764 25.097 198.101 25.1648 198.417 25.3005C198.732 25.4362 199.024 25.6397 199.291 25.9111V22.9407ZM197.713 26.4832C197.247 26.4832 196.86 26.6482 196.552 26.9782C196.244 27.3046 196.09 27.7245 196.09 28.2379C196.09 28.755 196.246 29.1804 196.557 29.5141C196.873 29.8478 197.26 30.0147 197.718 30.0147C198.191 30.0147 198.584 29.8515 198.895 29.5251C199.207 29.1951 199.363 28.7642 199.363 28.2324C199.363 27.7117 199.207 27.29 198.895 26.9672C198.584 26.6445 198.189 26.4832 197.713 26.4832Z" fill="black"/>
<path d="M166.701 40.8447H161.876C161.946 41.2701 162.131 41.6093 162.432 41.8624C162.736 42.1117 163.123 42.2364 163.593 42.2364C164.154 42.2364 164.636 42.0402 165.039 41.6478L166.305 42.2419C165.989 42.6893 165.611 43.0212 165.171 43.2376C164.731 43.4503 164.209 43.5566 163.604 43.5566C162.665 43.5566 161.9 43.2614 161.31 42.671C160.719 42.0769 160.424 41.3343 160.424 40.4432C160.424 39.5301 160.718 38.7728 161.304 38.1714C161.895 37.5663 162.634 37.2637 163.521 37.2637C164.464 37.2637 165.23 37.5663 165.82 38.1714C166.411 38.7728 166.706 39.5686 166.706 40.5587L166.701 40.8447ZM165.193 39.6621C165.094 39.3284 164.898 39.057 164.605 38.848C164.315 38.6389 163.978 38.5344 163.593 38.5344C163.175 38.5344 162.808 38.6518 162.493 38.8865C162.294 39.0331 162.111 39.2917 161.942 39.6621H165.193ZM167.922 37.4178H169.418V38.0283C169.759 37.7423 170.067 37.5443 170.342 37.4343C170.621 37.3206 170.905 37.2637 171.195 37.2637C171.789 37.2637 172.293 37.4709 172.707 37.8853C173.056 38.2374 173.23 38.7581 173.23 39.4475V43.4026H171.745V40.7787C171.745 40.0636 171.712 39.5887 171.646 39.354C171.583 39.1193 171.472 38.9415 171.31 38.8205C171.153 38.6958 170.956 38.6334 170.722 38.6334C170.417 38.6334 170.155 38.7361 169.935 38.9415C169.719 39.1432 169.568 39.4237 169.484 39.7831C169.44 39.9701 169.418 40.3753 169.418 40.9988V43.4026H167.922V37.4178ZM174.869 35.212H176.365V37.4178H177.257V38.7104H176.365V43.4026H174.869V38.7104H174.099V37.4178H174.869V35.212ZM184.061 40.8447H179.237C179.307 41.2701 179.492 41.6093 179.792 41.8624C180.097 42.1117 180.484 42.2364 180.953 42.2364C181.514 42.2364 181.996 42.0402 182.4 41.6478L183.665 42.2419C183.35 42.6893 182.972 43.0212 182.532 43.2376C182.092 43.4503 181.569 43.5566 180.964 43.5566C180.025 43.5566 179.261 43.2614 178.67 42.671C178.08 42.0769 177.785 41.3343 177.785 40.4432C177.785 39.5301 178.078 38.7728 178.665 38.1714C179.255 37.5663 179.994 37.2637 180.882 37.2637C181.824 37.2637 182.59 37.5663 183.181 38.1714C183.771 38.7728 184.066 39.5686 184.066 40.5587L184.061 40.8447ZM182.554 39.6621C182.455 39.3284 182.259 39.057 181.965 38.848C181.676 38.6389 181.338 38.5344 180.953 38.5344C180.535 38.5344 180.168 38.6518 179.853 38.8865C179.655 39.0331 179.472 39.2917 179.303 39.6621H182.554ZM184.93 37.4178H186.217V38.1714C186.357 37.8743 186.542 37.6488 186.773 37.4948C187.004 37.3407 187.257 37.2637 187.532 37.2637C187.726 37.2637 187.93 37.3151 188.143 37.4178L187.675 38.7104C187.499 38.6224 187.354 38.5784 187.24 38.5784C187.009 38.5784 186.813 38.7214 186.652 39.0075C186.494 39.2935 186.415 39.8546 186.415 40.6907L186.421 40.9823V43.4026H184.93V37.4178ZM190.381 37.4178V38.0778C190.653 37.8065 190.946 37.6029 191.261 37.4673C191.577 37.3316 191.914 37.2637 192.274 37.2637C193.055 37.2637 193.719 37.5589 194.265 38.1494C194.811 38.7398 195.085 39.497 195.085 40.4212C195.085 41.3123 194.802 42.0586 194.237 42.66C193.673 43.2577 193.003 43.5566 192.23 43.5566C191.885 43.5566 191.564 43.4961 191.267 43.3751C190.97 43.2504 190.675 43.0487 190.381 42.77V45.5919H188.891V37.4178H190.381ZM191.96 38.6499C191.487 38.6499 191.095 38.8113 190.783 39.134C190.471 39.4567 190.315 39.8784 190.315 40.3992C190.315 40.9309 190.471 41.3618 190.783 41.6919C191.095 42.0182 191.487 42.1814 191.96 42.1814C192.418 42.1814 192.804 42.0146 193.115 41.6808C193.431 41.3471 193.588 40.9217 193.588 40.4047C193.588 39.8913 193.434 39.4714 193.126 39.145C192.818 38.815 192.429 38.6499 191.96 38.6499ZM195.976 37.4178H197.263V38.1714C197.402 37.8743 197.587 37.6488 197.818 37.4948C198.049 37.3407 198.302 37.2637 198.578 37.2637C198.772 37.2637 198.975 37.3151 199.188 37.4178L198.721 38.7104C198.545 38.6224 198.4 38.5784 198.286 38.5784C198.055 38.5784 197.859 38.7214 197.697 39.0075C197.54 39.2935 197.461 39.8546 197.461 40.6907L197.466 40.9823V43.4026H195.976V37.4178ZM200.525 34.9534C200.789 34.9534 201.014 35.0488 201.201 35.2395C201.392 35.4301 201.487 35.6612 201.487 35.9326C201.487 36.2003 201.394 36.4295 201.207 36.6201C201.02 36.8072 200.796 36.9007 200.536 36.9007C200.268 36.9007 200.039 36.8053 199.848 36.6146C199.661 36.4203 199.568 36.1856 199.568 35.9105C199.568 35.6465 199.661 35.421 199.848 35.234C200.035 35.0469 200.261 34.9534 200.525 34.9534ZM199.771 37.4178H201.278V43.4026H199.771V37.4178ZM206.306 38.2539L205.376 39.1835C204.999 38.8095 204.656 38.6224 204.348 38.6224C204.179 38.6224 204.047 38.6591 203.952 38.7324C203.856 38.8021 203.809 38.8901 203.809 38.9965C203.809 39.0772 203.838 39.1523 203.897 39.222C203.959 39.288 204.109 39.3797 204.348 39.497L204.898 39.7721C205.477 40.0581 205.875 40.3497 206.092 40.6467C206.308 40.9437 206.416 41.2921 206.416 41.6919C206.416 42.2236 206.22 42.6673 205.828 43.023C205.439 43.3788 204.916 43.5566 204.26 43.5566C203.387 43.5566 202.69 43.2156 202.17 42.5335L203.094 41.5268C203.27 41.7322 203.475 41.899 203.71 42.0274C203.948 42.1521 204.159 42.2144 204.342 42.2144C204.54 42.2144 204.7 42.1667 204.821 42.0714C204.942 41.9761 205.002 41.866 205.002 41.7414C205.002 41.5103 204.784 41.2848 204.348 41.0648L203.842 40.8117C202.874 40.324 202.39 39.7134 202.39 38.98C202.39 38.5069 202.571 38.1035 202.934 37.7698C203.301 37.4324 203.768 37.2637 204.337 37.2637C204.726 37.2637 205.09 37.3499 205.431 37.5223C205.776 37.691 206.068 37.9348 206.306 38.2539ZM213.6 40.8447H208.776C208.846 41.2701 209.031 41.6093 209.332 41.8624C209.636 42.1117 210.023 42.2364 210.492 42.2364C211.053 42.2364 211.535 42.0402 211.939 41.6478L213.204 42.2419C212.889 42.6893 212.511 43.0212 212.071 43.2376C211.631 43.4503 211.108 43.5566 210.503 43.5566C209.564 43.5566 208.8 43.2614 208.209 42.671C207.619 42.0769 207.324 41.3343 207.324 40.4432C207.324 39.5301 207.617 38.7728 208.204 38.1714C208.794 37.5663 209.533 37.2637 210.421 37.2637C211.363 37.2637 212.13 37.5663 212.72 38.1714C213.31 38.7728 213.606 39.5686 213.606 40.5587L213.6 40.8447ZM212.093 39.6621C211.994 39.3284 211.798 39.057 211.504 38.848C211.215 38.6389 210.877 38.5344 210.492 38.5344C210.074 38.5344 209.707 38.6518 209.392 38.8865C209.194 39.0331 209.011 39.2917 208.842 39.6621H212.093Z" fill="black"/>
<path d="M158.818 49.5847H160.105V50.3384C160.244 50.0413 160.429 49.8158 160.66 49.6618C160.891 49.5077 161.145 49.4307 161.42 49.4307C161.614 49.4307 161.817 49.4821 162.03 49.5847L161.563 50.8774C161.387 50.7894 161.242 50.7454 161.128 50.7454C160.897 50.7454 160.701 50.8884 160.539 51.1745C160.382 51.4605 160.303 52.0216 160.303 52.8577L160.308 53.1492V55.5696H158.818V49.5847ZM168.774 53.0117H163.95C164.02 53.4371 164.205 53.7763 164.505 54.0294C164.81 54.2787 165.197 54.4034 165.666 54.4034C166.227 54.4034 166.709 54.2072 167.113 53.8148L168.378 54.4089C168.063 54.8563 167.685 55.1882 167.245 55.4046C166.805 55.6173 166.282 55.7236 165.677 55.7236C164.738 55.7236 163.974 55.4284 163.383 54.838C162.793 54.2439 162.498 53.5013 162.498 52.6102C162.498 51.697 162.791 50.9398 163.378 50.3384C163.968 49.7333 164.707 49.4307 165.595 49.4307C166.537 49.4307 167.304 49.7333 167.894 50.3384C168.484 50.9398 168.78 51.7355 168.78 52.7257L168.774 53.0117ZM167.267 51.8291C167.168 51.4953 166.972 51.224 166.678 51.0149C166.389 50.8059 166.051 50.7014 165.666 50.7014C165.248 50.7014 164.881 50.8188 164.566 51.0535C164.368 51.2001 164.185 51.4587 164.016 51.8291H167.267ZM175.854 50.7949L174.605 51.4825C174.37 51.2368 174.137 51.0663 173.906 50.9709C173.679 50.8756 173.411 50.8279 173.103 50.8279C172.542 50.8279 172.087 50.9966 171.739 51.334C171.394 51.6677 171.222 52.0968 171.222 52.6212C171.222 53.1309 171.389 53.5471 171.722 53.8698C172.056 54.1926 172.494 54.3539 173.037 54.3539C173.708 54.3539 174.231 54.1247 174.605 53.6663L175.788 54.4749C175.146 55.3074 174.24 55.7236 173.07 55.7236C172.018 55.7236 171.193 55.4119 170.595 54.7885C170.001 54.1651 169.704 53.4353 169.704 52.5992C169.704 52.0198 169.849 51.4862 170.138 50.9984C170.428 50.5107 170.831 50.1275 171.348 49.8488C171.869 49.5701 172.45 49.4307 173.092 49.4307C173.686 49.4307 174.22 49.5499 174.693 49.7883C175.166 50.023 175.553 50.3585 175.854 50.7949ZM180.023 49.4307C180.588 49.4307 181.118 49.5719 181.613 49.8543C182.112 50.1367 182.5 50.5199 182.779 51.0039C183.058 51.488 183.197 52.0106 183.197 52.5717C183.197 53.1364 183.056 53.6645 182.774 54.1559C182.495 54.6473 182.113 55.0323 181.629 55.311C181.145 55.5861 180.612 55.7236 180.029 55.7236C179.171 55.7236 178.437 55.4192 177.828 54.8105C177.223 54.1981 176.921 53.4555 176.921 52.5827C176.921 51.6475 177.264 50.8683 177.949 50.2448C178.551 49.7021 179.242 49.4307 180.023 49.4307ZM180.045 50.8444C179.579 50.8444 179.191 51.0076 178.879 51.334C178.571 51.6567 178.417 52.0711 178.417 52.5772C178.417 53.0979 178.569 53.5196 178.873 53.8423C179.182 54.1651 179.57 54.3264 180.04 54.3264C180.509 54.3264 180.9 54.1632 181.211 53.8368C181.523 53.5105 181.679 53.0906 181.679 52.5772C181.679 52.0638 181.525 51.6475 181.217 51.3285C180.912 51.0058 180.522 50.8444 180.045 50.8444ZM184.418 49.5847H185.925V50.2723C186.182 49.99 186.466 49.7791 186.778 49.6398C187.093 49.5004 187.436 49.4307 187.807 49.4307C188.181 49.4307 188.518 49.5224 188.819 49.7058C189.12 49.8891 189.362 50.1568 189.545 50.5089C189.783 50.1568 190.075 49.8891 190.42 49.7058C190.768 49.5224 191.148 49.4307 191.558 49.4307C191.984 49.4307 192.358 49.5297 192.68 49.7278C193.003 49.9258 193.234 50.1843 193.373 50.5034C193.517 50.8224 193.588 51.3413 193.588 52.0601V55.5696H192.075V52.5332C192.075 51.8547 191.991 51.3963 191.822 51.158C191.654 50.9159 191.401 50.7949 191.063 50.7949C190.806 50.7949 190.575 50.8683 190.37 51.0149C190.168 51.1616 190.018 51.3652 189.919 51.6255C189.82 51.8822 189.77 52.2966 189.77 52.8687V55.5696H188.258V52.6707C188.258 52.1353 188.217 51.7484 188.137 51.51C188.06 51.268 187.942 51.0883 187.785 50.9709C187.627 50.8536 187.436 50.7949 187.213 50.7949C186.963 50.7949 186.736 50.8701 186.531 51.0204C186.329 51.1671 186.177 51.3743 186.074 51.642C185.975 51.9097 185.925 52.3315 185.925 52.9072V55.5696H184.418V49.5847ZM195.013 49.5847H196.52V50.2723C196.777 49.99 197.061 49.7791 197.373 49.6398C197.688 49.5004 198.031 49.4307 198.401 49.4307C198.775 49.4307 199.113 49.5224 199.413 49.7058C199.714 49.8891 199.956 50.1568 200.139 50.5089C200.378 50.1568 200.669 49.8891 201.014 49.7058C201.362 49.5224 201.742 49.4307 202.153 49.4307C202.578 49.4307 202.952 49.5297 203.275 49.7278C203.598 49.9258 203.829 50.1843 203.968 50.5034C204.111 50.8224 204.182 51.3413 204.182 52.0601V55.5696H202.67V52.5332C202.67 51.8547 202.585 51.3963 202.417 51.158C202.248 50.9159 201.995 50.7949 201.658 50.7949C201.401 50.7949 201.17 50.8683 200.965 51.0149C200.763 51.1616 200.613 51.3652 200.513 51.6255C200.414 51.8822 200.365 52.2966 200.365 52.8687V55.5696H198.852V52.6707C198.852 52.1353 198.812 51.7484 198.731 51.51C198.654 51.268 198.537 51.0883 198.379 50.9709C198.222 50.8536 198.031 50.7949 197.807 50.7949C197.558 50.7949 197.33 50.8701 197.125 51.0204C196.923 51.1671 196.771 51.3743 196.668 51.642C196.569 51.9097 196.52 52.3315 196.52 52.9072V55.5696H195.013V49.5847ZM211.614 53.0117H206.79C206.86 53.4371 207.045 53.7763 207.345 54.0294C207.65 54.2787 208.037 54.4034 208.506 54.4034C209.067 54.4034 209.549 54.2072 209.953 53.8148L211.218 54.4089C210.903 54.8563 210.525 55.1882 210.085 55.4046C209.645 55.6173 209.122 55.7236 208.517 55.7236C207.578 55.7236 206.814 55.4284 206.223 54.838C205.633 54.2439 205.338 53.5013 205.338 52.6102C205.338 51.697 205.631 50.9398 206.218 50.3384C206.808 49.7333 207.547 49.4307 208.435 49.4307C209.377 49.4307 210.143 49.7333 210.734 50.3384C211.324 50.9398 211.62 51.7355 211.62 52.7257L211.614 53.0117ZM210.107 51.8291C210.008 51.4953 209.812 51.224 209.518 51.0149C209.229 50.8059 208.891 50.7014 208.506 50.7014C208.088 50.7014 207.721 50.8188 207.406 51.0535C207.208 51.2001 207.025 51.4587 206.856 51.8291H210.107ZM212.835 49.5847H214.331V50.1953C214.672 49.9093 214.98 49.7113 215.256 49.6013C215.534 49.4876 215.818 49.4307 216.108 49.4307C216.702 49.4307 217.206 49.6379 217.621 50.0523C217.969 50.4044 218.143 50.9251 218.143 51.6145V55.5696H216.658V52.9457C216.658 52.2306 216.625 51.7557 216.559 51.521C216.497 51.2863 216.385 51.1085 216.224 50.9874C216.066 50.8628 215.87 50.8004 215.635 50.8004C215.331 50.8004 215.069 50.9031 214.848 51.1085C214.632 51.3102 214.482 51.5907 214.397 51.9501C214.353 52.1371 214.331 52.5423 214.331 53.1657V55.5696H212.835V49.5847ZM224.024 47.2744H225.52V55.5696H224.024V54.937C223.73 55.2157 223.435 55.4174 223.138 55.5421C222.845 55.6631 222.526 55.7236 222.181 55.7236C221.407 55.7236 220.738 55.4247 220.173 54.827C219.608 54.2256 219.326 53.4793 219.326 52.5882C219.326 51.664 219.599 50.9068 220.146 50.3164C220.692 49.7259 221.356 49.4307 222.137 49.4307C222.496 49.4307 222.834 49.4986 223.149 49.6343C223.465 49.7699 223.756 49.9735 224.024 50.2448V47.2744ZM222.445 50.8169C221.979 50.8169 221.592 50.9819 221.284 51.312C220.976 51.6384 220.822 52.0583 220.822 52.5717C220.822 53.0887 220.978 53.5141 221.29 53.8478C221.605 54.1816 221.992 54.3484 222.451 54.3484C222.924 54.3484 223.316 54.1852 223.628 53.8588C223.939 53.5288 224.095 53.0979 224.095 52.5662C224.095 52.0454 223.939 51.6237 223.628 51.301C223.316 50.9783 222.922 50.8169 222.445 50.8169ZM233.034 53.0117H228.21C228.28 53.4371 228.465 53.7763 228.765 54.0294C229.07 54.2787 229.457 54.4034 229.926 54.4034C230.487 54.4034 230.969 54.2072 231.373 53.8148L232.638 54.4089C232.323 54.8563 231.945 55.1882 231.505 55.4046C231.065 55.6173 230.542 55.7236 229.937 55.7236C228.998 55.7236 228.234 55.4284 227.643 54.838C227.053 54.2439 226.758 53.5013 226.758 52.6102C226.758 51.697 227.051 50.9398 227.638 50.3384C228.228 49.7333 228.967 49.4307 229.855 49.4307C230.797 49.4307 231.563 49.7333 232.154 50.3384C232.744 50.9398 233.04 51.7355 233.04 52.7257L233.034 53.0117ZM231.527 51.8291C231.428 51.4953 231.232 51.224 230.938 51.0149C230.649 50.8059 230.311 50.7014 229.926 50.7014C229.508 50.7014 229.141 50.8188 228.826 51.0535C228.628 51.2001 228.445 51.4587 228.276 51.8291H231.527ZM238.678 47.2744H240.174V55.5696H238.678V54.937C238.384 55.2157 238.089 55.4174 237.792 55.5421C237.499 55.6631 237.18 55.7236 236.835 55.7236C236.061 55.7236 235.392 55.4247 234.827 54.827C234.263 54.2256 233.98 53.4793 233.98 52.5882C233.98 51.664 234.253 50.9068 234.8 50.3164C235.346 49.7259 236.01 49.4307 236.791 49.4307C237.15 49.4307 237.488 49.4986 237.803 49.6343C238.119 49.7699 238.41 49.9735 238.678 50.2448V47.2744ZM237.099 50.8169C236.633 50.8169 236.246 50.9819 235.938 51.312C235.63 51.6384 235.476 52.0583 235.476 52.5717C235.476 53.0887 235.632 53.5141 235.944 53.8478C236.259 54.1816 236.646 54.3484 237.105 54.3484C237.578 54.3484 237.97 54.1852 238.282 53.8588C238.593 53.5288 238.749 53.0979 238.749 52.5662C238.749 52.0454 238.593 51.6237 238.282 51.301C237.97 50.9783 237.576 50.8169 237.099 50.8169Z" fill="black"/>
<path d="M327.183 67.4731V68.8634H326.898V67.4731H327.183ZM327.612 67.4731V67.6975H326.477V67.4731H327.612ZM327.906 67.4731H328.149L328.506 68.4939L328.863 67.4731H329.106L328.603 68.8634H328.409L327.906 67.4731ZM327.775 67.4731H328.017L328.061 68.4681V68.8634H327.775V67.4731ZM328.995 67.4731H329.238V68.8634H328.951V68.4681L328.995 67.4731Z" fill="white"/>
<path d="M329.452 0.58252H284.188V45.6062H329.452V0.58252Z" fill="#DD0401"/>
<path d="M293.364 9.24171C293.207 8.95388 292.991 8.73473 292.716 8.58427C292.441 8.43381 292.12 8.35859 291.754 8.35859C291.348 8.35859 290.988 8.45015 290.673 8.63333C290.359 8.8165 290.114 9.07815 289.937 9.41835C289.76 9.75845 289.672 10.151 289.672 10.5958C289.672 11.0538 289.76 11.4528 289.937 11.7929C290.12 12.1332 290.372 12.3948 290.693 12.578C291.014 12.7611 291.387 12.8527 291.813 12.8527C292.336 12.8527 292.765 12.7154 293.099 12.4406C293.433 12.1593 293.652 11.7701 293.757 11.2729H291.4V10.2229H295.112V11.4201C295.02 11.8976 294.824 12.3392 294.523 12.7447C294.222 13.1503 293.832 13.4775 293.354 13.726C292.883 13.9681 292.353 14.0891 291.763 14.0891C291.102 14.0891 290.503 13.9419 289.966 13.6475C289.436 13.3467 289.017 12.9312 288.71 12.4013C288.408 11.8714 288.258 11.2696 288.258 10.5958C288.258 9.92206 288.408 9.3202 288.71 8.79034C289.017 8.25392 289.436 7.83852 289.966 7.54413C290.503 7.24323 291.099 7.09277 291.754 7.09277C292.526 7.09277 293.197 7.28248 293.767 7.6619C294.336 8.03477 294.729 8.56137 294.945 9.24171H293.364ZM297.504 9.43797C297.681 9.15013 297.91 8.92443 298.191 8.76089C298.479 8.59735 298.807 8.51558 299.173 8.51558V9.95799H298.81C298.378 9.95799 298.05 10.0594 297.828 10.2622C297.612 10.465 297.504 10.8182 297.504 11.3219V14.0302H296.129V8.59409H297.504V9.43797ZM305.156 11.1944C305.156 11.3907 305.143 11.5672 305.117 11.7243H301.14C301.173 12.1167 301.31 12.4243 301.552 12.6466C301.795 12.8691 302.092 12.9803 302.446 12.9803C302.957 12.9803 303.32 12.7611 303.536 12.3228H305.019C304.862 12.8462 304.56 13.2779 304.115 13.6181C303.67 13.9517 303.124 14.1185 302.475 14.1185C301.952 14.1185 301.48 14.004 301.061 13.7751C300.649 13.5396 300.325 13.2092 300.089 12.784C299.86 12.3588 299.746 11.8682 299.746 11.3122C299.746 10.7496 299.86 10.2556 300.089 9.8305C300.318 9.40526 300.639 9.07815 301.052 8.84921C301.464 8.62025 301.939 8.50576 302.475 8.50576C302.993 8.50576 303.454 8.61698 303.86 8.83939C304.272 9.06181 304.59 9.37907 304.813 9.79126C305.042 10.1968 305.156 10.6646 305.156 11.1944ZM303.732 10.8019C303.726 10.4486 303.598 10.1674 303.349 9.95799C303.101 9.74215 302.796 9.63418 302.436 9.63418C302.096 9.63418 301.808 9.73883 301.572 9.94823C301.343 10.151 301.202 10.4355 301.15 10.8019H303.732ZM305.806 11.2925C305.806 10.743 305.914 10.2556 306.13 9.8305C306.353 9.40526 306.651 9.07815 307.024 8.84921C307.404 8.62025 307.826 8.50576 308.29 8.50576C308.696 8.50576 309.05 8.58754 309.351 8.75108C309.659 8.91461 309.904 9.12068 310.088 9.36928V8.59409H311.472V14.0302H310.088V13.2354C309.911 13.4906 309.665 13.7032 309.351 13.8732C309.043 14.0367 308.687 14.1185 308.281 14.1185C307.822 14.1185 307.404 14.0008 307.024 13.7653C306.651 13.5298 306.353 13.1995 306.13 12.7742C305.914 12.3424 305.806 11.8486 305.806 11.2925ZM310.088 11.3122C310.088 10.9785 310.022 10.6939 309.891 10.4585C309.76 10.2164 309.583 10.0333 309.361 9.90898C309.138 9.77817 308.899 9.71267 308.644 9.71267C308.389 9.71267 308.153 9.77485 307.937 9.89912C307.721 10.0235 307.544 10.2066 307.407 10.4486C307.276 10.6842 307.21 10.9654 307.21 11.2925C307.21 11.6196 307.276 11.9075 307.407 12.156C307.544 12.3981 307.721 12.5845 307.937 12.7154C308.16 12.8462 308.395 12.9116 308.644 12.9116C308.899 12.9116 309.138 12.8495 309.361 12.7251C309.583 12.5943 309.76 12.4112 309.891 12.1756C310.022 11.9336 310.088 11.6457 310.088 11.3122ZM314.415 9.72253V12.3523C314.415 12.5354 314.458 12.6696 314.543 12.7546C314.635 12.8331 314.785 12.8723 314.995 12.8723H315.633V14.0302H314.769C313.61 14.0302 313.031 13.4676 313.031 12.3424V9.72253H312.383V8.59409H313.031V7.24976H314.415V8.59409H315.633V9.72253H314.415Z" fill="white"/>
<path d="M293.592 18.976C293.592 19.3424 293.504 19.6858 293.327 20.0063C293.157 20.3269 292.885 20.5853 292.512 20.7815C292.145 20.9778 291.68 21.0759 291.117 21.0759H289.968V23.7056H288.594V16.8565H291.117C291.648 16.8565 292.099 16.9481 292.473 17.1313C292.846 17.3144 293.124 17.5663 293.307 17.8868C293.497 18.2073 293.592 18.5704 293.592 18.976ZM291.058 19.967C291.438 19.967 291.72 19.882 291.903 19.712C292.086 19.5354 292.178 19.2899 292.178 18.976C292.178 18.3088 291.805 17.9751 291.058 17.9751H289.968V19.967H291.058ZM295.943 16.4443V23.7056H294.568V16.4443H295.943ZM296.948 20.9679C296.948 20.4184 297.056 19.9311 297.272 19.5059C297.494 19.0807 297.792 18.7535 298.165 18.5246C298.545 18.2957 298.967 18.1812 299.432 18.1812C299.838 18.1812 300.191 18.263 300.492 18.4265C300.8 18.59 301.046 18.7961 301.229 19.0446V18.2695H302.613V23.7056H301.229V22.9108C301.052 23.1659 300.807 23.3785 300.492 23.5486C300.185 23.7121 299.828 23.794 299.422 23.794C298.964 23.794 298.545 23.6762 298.165 23.4407C297.792 23.2053 297.494 22.8749 297.272 22.4496C297.056 22.0178 296.948 21.524 296.948 20.9679ZM301.229 20.9876C301.229 20.654 301.163 20.3693 301.033 20.1339C300.902 19.8919 300.725 19.7086 300.502 19.5844C300.28 19.4536 300.041 19.3882 299.785 19.3882C299.53 19.3882 299.294 19.4502 299.078 19.5746C298.862 19.6989 298.686 19.882 298.548 20.1241C298.417 20.3596 298.352 20.6409 298.352 20.9679C298.352 21.2951 298.417 21.5828 298.548 21.8315C298.686 22.0735 298.862 22.26 299.078 22.3908C299.301 22.5217 299.537 22.587 299.785 22.587C300.041 22.587 300.28 22.5249 300.502 22.4005C300.725 22.2698 300.902 22.0866 301.033 21.8511C301.163 21.609 301.229 21.3212 301.229 20.9876ZM303.603 20.9876C303.603 20.425 303.717 19.9343 303.946 19.5156C304.175 19.0905 304.493 18.7634 304.899 18.5345C305.305 18.2989 305.769 18.1812 306.293 18.1812C306.967 18.1812 307.524 18.3512 307.963 18.6914C308.408 19.0251 308.706 19.496 308.856 20.1045H307.373C307.295 19.8689 307.161 19.6858 306.971 19.5549C306.787 19.4175 306.558 19.3489 306.283 19.3489C305.891 19.3489 305.58 19.4928 305.351 19.7806C305.121 20.0619 305.007 20.4642 305.007 20.9876C305.007 21.5044 305.121 21.9066 305.351 22.1945C305.58 22.4758 305.891 22.6165 306.283 22.6165C306.84 22.6165 307.203 22.3679 307.373 21.8707H308.856C308.706 22.4594 308.408 22.9273 307.963 23.2738C307.517 23.6207 306.961 23.794 306.293 23.794C305.769 23.794 305.305 23.6794 304.899 23.4505C304.493 23.215 304.175 22.8879 303.946 22.4693C303.717 22.044 303.603 21.5501 303.603 20.9876ZM314.92 20.8698C314.92 21.066 314.907 21.2427 314.881 21.3997H310.904C310.937 21.7922 311.074 22.0996 311.317 22.3221C311.559 22.5446 311.857 22.6557 312.21 22.6557C312.721 22.6557 313.084 22.4366 313.3 21.9982H314.783C314.626 22.5217 314.325 22.9534 313.88 23.2935C313.434 23.6271 312.888 23.794 312.24 23.794C311.716 23.794 311.245 23.6794 310.826 23.4505C310.413 23.215 310.089 22.8846 309.853 22.4594C309.624 22.0342 309.51 21.5436 309.51 20.9876C309.51 20.425 309.624 19.9311 309.853 19.5059C310.083 19.0807 310.403 18.7535 310.816 18.5246C311.228 18.2957 311.703 18.1812 312.24 18.1812C312.757 18.1812 313.218 18.2924 313.624 18.5149C314.037 18.7372 314.354 19.0545 314.577 19.4666C314.806 19.8723 314.92 20.3399 314.92 20.8698ZM313.497 20.4773C313.49 20.1241 313.362 19.8428 313.114 19.6335C312.865 19.4175 312.56 19.3097 312.2 19.3097C311.86 19.3097 311.572 19.4143 311.336 19.6236C311.107 19.8265 310.966 20.111 310.914 20.4773H313.497Z" fill="white"/>
<path d="M293.258 26.5312V27.6399H291.432V33.3802H290.057V27.6399H288.23V26.5312H293.258ZM296.677 33.4687C296.153 33.4687 295.682 33.3541 295.263 33.1252C294.844 32.8897 294.513 32.5594 294.271 32.1342C294.035 31.709 293.917 31.2184 293.917 30.6623C293.917 30.1062 294.039 29.6156 294.281 29.1903C294.53 28.7653 294.867 28.4382 295.292 28.2092C295.718 27.9738 296.192 27.8559 296.716 27.8559C297.24 27.8559 297.714 27.9738 298.14 28.2092C298.565 28.4382 298.899 28.7653 299.142 29.1903C299.39 29.6156 299.515 30.1062 299.515 30.6623C299.515 31.2184 299.387 31.709 299.132 32.1342C298.883 32.5594 298.543 32.8897 298.11 33.1252C297.685 33.3541 297.207 33.4687 296.677 33.4687ZM296.677 32.2716C296.926 32.2716 297.158 32.2127 297.374 32.0949C297.597 31.9706 297.773 31.7875 297.904 31.5453C298.035 31.3034 298.101 31.0089 298.101 30.6623C298.101 30.1456 297.963 29.7497 297.688 29.4749C297.42 29.1936 297.089 29.0531 296.696 29.0531C296.304 29.0531 295.973 29.1936 295.705 29.4749C295.443 29.7497 295.312 30.1456 295.312 30.6623C295.312 31.179 295.44 31.5782 295.695 31.8594C295.957 32.1342 296.284 32.2716 296.677 32.2716Z" fill="white"/>
<path d="M297.756 36.2067L295.841 43.0558H294.221L292.935 38.179L291.589 43.0558L289.979 43.0658L288.133 36.2067H289.606L290.814 41.525L292.208 36.2067H293.74L295.056 41.4957L296.273 36.2067H297.756ZM301.069 43.1443C300.546 43.1443 300.074 43.0297 299.655 42.8007C299.236 42.5653 298.906 42.2349 298.664 41.8096C298.428 41.3846 298.31 40.8939 298.31 40.3379C298.31 39.7818 298.431 39.2912 298.673 38.8659C298.922 38.4407 299.259 38.1137 299.685 37.8848C300.11 37.6492 300.585 37.5315 301.109 37.5315C301.632 37.5315 302.107 37.6492 302.533 37.8848C302.958 38.1137 303.292 38.4407 303.534 38.8659C303.783 39.2912 303.907 39.7818 303.907 40.3379C303.907 40.8939 303.78 41.3846 303.524 41.8096C303.276 42.2349 302.935 42.5653 302.503 42.8007C302.078 43.0297 301.6 43.1443 301.069 43.1443ZM301.069 41.9472C301.318 41.9472 301.551 41.8883 301.767 41.7705C301.989 41.6462 302.166 41.4631 302.297 41.2209C302.428 40.979 302.493 40.6844 302.493 40.3379C302.493 39.8211 302.356 39.4252 302.081 39.1504C301.812 38.8692 301.482 38.7286 301.089 38.7286C300.696 38.7286 300.366 38.8692 300.097 39.1504C299.835 39.4252 299.704 39.8211 299.704 40.3379C299.704 40.8546 299.832 41.2538 300.087 41.535C300.349 41.8096 300.677 41.9472 301.069 41.9472ZM306.29 38.4636C306.467 38.1758 306.696 37.95 306.978 37.7866C307.266 37.6229 307.593 37.5412 307.96 37.5412V38.9838H307.596C307.164 38.9838 306.837 39.0851 306.615 39.288C306.398 39.4908 306.29 39.8438 306.29 40.3477V43.0558H304.916V37.6197H306.29V38.4636ZM312.107 43.0558L310.261 40.7403V43.0558H308.886V35.7947H310.261V39.9257L312.087 37.6197H313.874L311.478 40.3477L313.894 43.0558H312.107Z" fill="white"/>
<path d="M329.452 45.6069H284.188V63.4555H329.452V45.6069Z" fill="#001666"/>
<path d="M306.809 63.4543H329.446L318.126 70.9361L306.809 78.4176L295.491 70.9361L284.172 63.4543H306.809Z" fill="#001666"/>
<path d="M293.313 53.3454H294.656C294.629 53.7853 294.508 54.1757 294.292 54.5169C294.08 54.8581 293.782 55.1244 293.398 55.3158C293.018 55.5073 292.56 55.6031 292.024 55.6031C291.605 55.6031 291.229 55.5314 290.896 55.3878C290.564 55.241 290.279 55.0317 290.043 54.7593C289.809 54.4871 289.631 54.1578 289.508 53.7719C289.386 53.3859 289.324 52.9535 289.324 52.4745V52.0214C289.324 51.5425 289.387 51.1101 289.513 50.7241C289.642 50.3352 289.824 50.0044 290.061 49.7322C290.3 49.46 290.586 49.2505 290.919 49.1039C291.251 48.9571 291.623 48.8838 292.033 48.8838C292.578 48.8838 293.037 48.9826 293.412 49.18C293.789 49.3776 294.081 49.6498 294.288 49.997C294.497 50.3441 294.623 50.7391 294.665 51.1818H293.317C293.302 50.9187 293.25 50.6956 293.16 50.5131C293.07 50.3277 292.934 50.1886 292.751 50.0958C292.572 50 292.332 49.952 292.033 49.952C291.808 49.952 291.612 49.994 291.444 50.0779C291.277 50.1615 291.136 50.2887 291.022 50.4593C290.908 50.6299 290.823 50.8453 290.766 51.1058C290.712 51.3631 290.685 51.6653 290.685 52.0123V52.4745C290.685 52.8127 290.711 53.1105 290.762 53.368C290.812 53.6223 290.89 53.8378 290.995 54.0142C291.103 54.1879 291.241 54.3195 291.408 54.4092C291.579 54.496 291.784 54.5394 292.024 54.5394C292.305 54.5394 292.537 54.4944 292.72 54.4047C292.903 54.3149 293.042 54.1818 293.138 54.0053C293.237 53.8287 293.295 53.6088 293.313 53.3454ZM297.697 55.6031C297.32 55.6031 296.981 55.5432 296.682 55.4237C296.382 55.3008 296.128 55.1318 295.918 54.9165C295.711 54.7009 295.553 54.4512 295.442 54.1668C295.331 53.8795 295.276 53.5745 295.276 53.2513V53.0715C295.276 52.7036 295.328 52.3669 295.433 52.0616C295.538 51.7565 295.688 51.4917 295.882 51.2673C296.08 51.0429 296.319 50.8707 296.601 50.7512C296.882 50.6284 297.2 50.5669 297.553 50.5669C297.898 50.5669 298.203 50.6238 298.469 50.7376C298.736 50.8513 298.959 51.013 299.139 51.2223C299.321 51.4318 299.459 51.6833 299.552 51.9765C299.645 52.2666 299.691 52.5899 299.691 52.946V53.4845H295.828V52.6227H298.42V52.5241C298.42 52.3444 298.387 52.1845 298.321 52.0437C298.258 51.9001 298.163 51.7864 298.034 51.7027C297.905 51.6189 297.74 51.5769 297.54 51.5769C297.369 51.5769 297.222 51.6143 297.099 51.6891C296.977 51.764 296.876 51.8688 296.799 52.0034C296.724 52.138 296.667 52.2967 296.628 52.4791C296.592 52.6588 296.574 52.8562 296.574 53.0715V53.2513C296.574 53.4456 296.601 53.6253 296.655 53.7898C296.712 53.9543 296.791 54.0966 296.893 54.2161C296.998 54.336 297.123 54.4286 297.27 54.4945C297.42 54.5604 297.589 54.5933 297.778 54.5933C298.011 54.5933 298.228 54.5485 298.429 54.4585C298.633 54.3658 298.808 54.2267 298.955 54.0412L299.583 54.7234C299.482 54.87 299.342 55.0107 299.166 55.1454C298.992 55.2799 298.782 55.3906 298.537 55.4775C298.291 55.5612 298.011 55.6031 297.697 55.6031ZM301.721 51.7162V55.5134H300.428V50.6569H301.645L301.721 51.7162ZM303.186 50.6253L303.163 51.8238C303.101 51.815 303.024 51.8073 302.934 51.8013C302.847 51.7924 302.768 51.7879 302.696 51.7879C302.514 51.7879 302.355 51.8119 302.22 51.8596C302.088 51.9046 301.978 51.9719 301.888 52.0616C301.801 52.1515 301.735 52.2607 301.69 52.3894C301.648 52.518 301.624 52.6646 301.618 52.8291L301.358 52.7485C301.358 52.4344 301.389 52.1455 301.452 51.8822C301.515 51.6158 301.606 51.384 301.726 51.1864C301.849 50.9891 301.998 50.8364 302.175 50.7287C302.352 50.6208 302.554 50.5669 302.782 50.5669C302.853 50.5669 302.927 50.573 303.002 50.585C303.077 50.594 303.138 50.6074 303.186 50.6253ZM306.402 50.6569V51.5726H303.572V50.6569H306.402ZM304.273 49.4585H305.566V54.0501C305.566 54.1909 305.584 54.2985 305.62 54.3733C305.659 54.4482 305.716 54.5005 305.791 54.5303C305.866 54.5573 305.96 54.5707 306.074 54.5707C306.155 54.5707 306.227 54.5677 306.29 54.5619C306.355 54.5528 306.411 54.544 306.456 54.5348L306.46 55.4864C306.35 55.5223 306.23 55.5508 306.101 55.5718C305.972 55.5927 305.83 55.6031 305.674 55.6031C305.39 55.6031 305.141 55.5568 304.929 55.4642C304.719 55.3684 304.557 55.2157 304.444 55.0062C304.33 54.7966 304.273 54.5214 304.273 54.1803V49.4585ZM308.504 50.6569V55.5134H307.206V50.6569H308.504ZM307.125 49.391C307.125 49.2025 307.191 49.047 307.323 48.9242C307.455 48.8016 307.631 48.7402 307.853 48.7402C308.071 48.7402 308.246 48.8016 308.378 48.9242C308.513 49.047 308.581 49.2025 308.581 49.391C308.581 49.5795 308.513 49.7352 308.378 49.8579C308.246 49.9806 308.071 50.0418 307.853 50.0418C307.631 50.0418 307.455 49.9806 307.323 49.8579C307.191 49.7352 307.125 49.5795 307.125 49.391ZM311.19 55.5134H309.892V50.4368C309.892 50.0239 309.976 49.6753 310.144 49.391C310.314 49.1067 310.557 48.8914 310.871 48.7448C311.189 48.5982 311.572 48.5249 312.021 48.5249C312.276 48.5249 312.523 48.5502 312.762 48.601C313.002 48.649 313.249 48.7119 313.504 48.7895L313.315 49.8265C313.15 49.7756 312.973 49.7276 312.785 49.6829C312.596 49.6379 312.368 49.6155 312.102 49.6155C311.803 49.6155 311.575 49.6857 311.419 49.8265C311.266 49.9642 311.19 50.1677 311.19 50.4368V55.5134ZM312.156 50.6569V51.5726H309.169V50.6569H312.156ZM314.105 50.6569V55.5134H312.807V50.6569H314.105ZM317.425 55.6031C317.047 55.6031 316.709 55.5432 316.409 55.4237C316.11 55.3008 315.856 55.1318 315.646 54.9165C315.439 54.7009 315.281 54.4512 315.17 54.1668C315.059 53.8795 315.004 53.5745 315.004 53.2513V53.0715C315.004 52.7036 315.056 52.3669 315.161 52.0616C315.266 51.7565 315.416 51.4917 315.61 51.2673C315.808 51.0429 316.047 50.8707 316.329 50.7512C316.61 50.6284 316.928 50.5669 317.281 50.5669C317.625 50.5669 317.931 50.6238 318.197 50.7376C318.464 50.8513 318.687 51.013 318.867 51.2223C319.049 51.4318 319.187 51.6833 319.28 51.9765C319.373 52.2666 319.419 52.5899 319.419 52.946V53.4845H315.556V52.6227H318.148V52.5241C318.148 52.3444 318.115 52.1845 318.049 52.0437C317.986 51.9001 317.89 51.7864 317.762 51.7027C317.633 51.6189 317.468 51.5769 317.268 51.5769C317.097 51.5769 316.95 51.6143 316.827 51.6891C316.705 51.764 316.604 51.8688 316.526 52.0034C316.451 52.138 316.395 52.2967 316.356 52.4791C316.32 52.6588 316.302 52.8562 316.302 53.0715V53.2513C316.302 53.4456 316.329 53.6253 316.383 53.7898C316.44 53.9543 316.519 54.0966 316.621 54.2161C316.726 54.336 316.851 54.4286 316.998 54.4945C317.148 54.5604 317.317 54.5933 317.506 54.5933C317.739 54.5933 317.956 54.5485 318.157 54.4585C318.36 54.3658 318.536 54.2267 318.682 54.0412L319.311 54.7234C319.21 54.87 319.07 55.0107 318.894 55.1454C318.72 55.2799 318.51 55.3906 318.265 55.4775C318.019 55.5612 317.739 55.6031 317.425 55.6031ZM323.026 54.4542V48.6189H324.329V55.5134H323.156L323.026 54.4542ZM319.954 53.1435V53.0493C319.954 52.6782 319.996 52.3414 320.079 52.0394C320.163 51.7341 320.286 51.4722 320.448 51.2539C320.609 51.0352 320.808 50.8662 321.045 50.7467C321.282 50.6268 321.551 50.5669 321.854 50.5669C322.138 50.5669 322.387 50.6268 322.599 50.7467C322.815 50.8662 322.998 51.0368 323.147 51.2582C323.3 51.4768 323.423 51.7356 323.516 52.0348C323.608 52.3311 323.676 52.6558 323.718 53.0089V53.2153C323.676 53.5534 323.608 53.8676 323.516 54.1578C323.423 54.4482 323.3 54.7024 323.147 54.921C322.998 55.1363 322.815 55.3039 322.599 55.4237C322.384 55.5432 322.132 55.6031 321.845 55.6031C321.542 55.6031 321.273 55.5417 321.036 55.4192C320.803 55.2965 320.605 55.1244 320.443 54.9031C320.284 54.6814 320.163 54.4211 320.079 54.1218C319.996 53.8227 319.954 53.4966 319.954 53.1435ZM321.247 53.0493V53.1435C321.247 53.3439 321.262 53.531 321.292 53.7046C321.325 53.878 321.378 54.0322 321.449 54.1668C321.524 54.2985 321.62 54.4017 321.737 54.4764C321.857 54.5485 322.002 54.5843 322.173 54.5843C322.394 54.5843 322.577 54.5348 322.72 54.4363C322.864 54.3345 322.974 54.1952 323.048 54.0187C323.126 53.8421 323.171 53.6387 323.183 53.4081V52.8203C323.174 52.6317 323.147 52.4627 323.102 52.313C323.06 52.1604 322.998 52.0303 322.914 51.9226C322.833 51.815 322.731 51.731 322.608 51.6712C322.489 51.6115 322.346 51.5814 322.182 51.5814C322.014 51.5814 321.87 51.6204 321.75 51.6981C321.631 51.773 321.533 51.8761 321.458 52.0078C321.387 52.1395 321.332 52.2951 321.297 52.4745C321.264 52.6512 321.247 52.8428 321.247 53.0493Z" fill="white"/>
<path d="M302.238 65.2808V68.4176H301.594V65.2808H302.238ZM305.399 65.2808V68.4176H304.752L303.491 66.3149V68.4176H302.844V65.2808H303.491L304.754 67.3856V65.2808H305.399ZM306.925 68.4176H306.242L306.246 67.9134H306.925C307.095 67.9134 307.238 67.8753 307.354 67.7992C307.471 67.7216 307.558 67.6089 307.617 67.4609C307.678 67.3129 307.708 67.1341 307.708 66.9244V66.7716C307.708 66.6107 307.691 66.4693 307.656 66.3472C307.623 66.225 307.574 66.1223 307.507 66.0391C307.441 65.9557 307.36 65.8933 307.264 65.8516C307.167 65.8085 307.057 65.7869 306.932 65.7869H306.229V65.2808H306.932C307.141 65.2808 307.333 65.3167 307.507 65.3884C307.683 65.4588 307.834 65.5601 307.962 65.6922C308.09 65.8243 308.189 65.9824 308.258 66.1661C308.328 66.3487 308.363 66.5518 308.363 66.7758V66.9244C308.363 67.1471 308.328 67.3504 308.258 67.5341C308.189 67.7182 308.09 67.8759 307.962 68.008C307.836 68.1389 307.684 68.2401 307.507 68.3118C307.332 68.3823 307.138 68.4176 306.925 68.4176ZM306.608 65.2808V68.4176H305.962V65.2808H306.608ZM309.521 65.2808V68.4176H308.876V65.2808H309.521ZM311.442 65.8172L310.588 68.4176H309.9L311.067 65.2808H311.505L311.442 65.8172ZM312.151 68.4176L311.295 65.8172L311.226 65.2808H311.668L312.841 68.4176H312.151ZM312.113 67.2497V67.7562H310.454V67.2497H312.113Z" fill="white"/>
<path d="M315.586 39.9294H316.154C316.271 39.9294 316.371 39.947 316.454 39.9818C316.539 40.0166 316.604 40.068 316.649 40.1363C316.694 40.2046 316.717 40.2888 316.717 40.3885C316.717 40.47 316.703 40.54 316.675 40.5986C316.648 40.6563 316.609 40.7047 316.559 40.7439C316.51 40.7821 316.451 40.8129 316.384 40.836L316.285 40.8881H315.791L315.789 40.6436H316.156C316.211 40.6436 316.257 40.6338 316.293 40.6142C316.33 40.5947 316.357 40.5675 316.375 40.5327C316.394 40.4979 316.403 40.4574 316.403 40.4113C316.403 40.3627 316.394 40.3206 316.376 40.2848C316.358 40.2494 316.33 40.2222 316.293 40.2033C316.256 40.1845 316.21 40.1751 316.154 40.1751H315.9V41.4518H315.586V39.9294ZM316.438 41.4518L316.09 40.7731L316.422 40.7712L316.774 41.4371V41.4518H316.438Z" fill="white"/>
<path d="M297.252 61.3755V61.7893H295.421V61.4362L296.287 60.5076C296.374 60.4107 296.442 60.3255 296.493 60.2519C296.543 60.1772 296.579 60.1104 296.601 60.0515C296.624 59.9914 296.636 59.9345 296.636 59.8805C296.636 59.7996 296.623 59.7303 296.596 59.6728C296.569 59.6139 296.529 59.5685 296.476 59.5366C296.425 59.5048 296.361 59.4888 296.285 59.4888C296.204 59.4888 296.134 59.5084 296.075 59.5477C296.018 59.5869 295.973 59.6415 295.943 59.7114C295.913 59.7812 295.899 59.8603 295.899 59.9486H295.367C295.367 59.7892 295.405 59.6433 295.481 59.5109C295.557 59.3773 295.665 59.2713 295.803 59.1928C295.942 59.1131 296.106 59.0732 296.296 59.0732C296.483 59.0732 296.642 59.1039 296.77 59.1652C296.9 59.2253 296.998 59.3123 297.064 59.4263C297.132 59.5391 297.166 59.674 297.166 59.8308C297.166 59.9192 297.152 60.0055 297.123 60.0901C297.095 60.1736 297.055 60.2569 297.002 60.3402C296.95 60.4224 296.888 60.5057 296.814 60.5903C296.741 60.675 296.659 60.7626 296.57 60.8533L296.105 61.3755H297.252ZM299.46 60.2152V60.6786C299.46 60.8796 299.439 61.0531 299.396 61.199C299.353 61.3436 299.291 61.4625 299.21 61.5557C299.131 61.6477 299.036 61.7157 298.925 61.7599C298.815 61.8039 298.692 61.8261 298.558 61.8261C298.45 61.8261 298.349 61.8125 298.256 61.7855C298.163 61.7574 298.079 61.7139 298.004 61.655C297.93 61.5962 297.867 61.522 297.813 61.4325C297.76 61.3418 297.72 61.2339 297.691 61.1088C297.663 60.9839 297.649 60.8404 297.649 60.6786V60.2152C297.649 60.0142 297.671 59.8419 297.714 59.6985C297.758 59.5538 297.82 59.4355 297.899 59.3436C297.98 59.2516 298.076 59.1842 298.186 59.1413C298.296 59.0972 298.419 59.0751 298.554 59.0751C298.662 59.0751 298.762 59.0892 298.854 59.1174C298.947 59.1444 299.031 59.1866 299.106 59.2443C299.18 59.3019 299.244 59.376 299.297 59.4668C299.349 59.5562 299.39 59.6635 299.418 59.7886C299.446 59.9124 299.46 60.0546 299.46 60.2152ZM298.929 60.7484V60.1435C298.929 60.0467 298.923 59.962 298.912 59.8897C298.903 59.8173 298.887 59.7561 298.866 59.7059C298.846 59.6543 298.82 59.6127 298.789 59.5808C298.759 59.5489 298.724 59.5256 298.684 59.5109C298.645 59.4962 298.602 59.4888 298.554 59.4888C298.494 59.4888 298.441 59.5005 298.394 59.5238C298.349 59.5471 298.31 59.5845 298.278 59.6359C298.246 59.6862 298.222 59.7537 298.204 59.8382C298.189 59.9216 298.181 60.0233 298.181 60.1435V60.7484C298.181 60.8453 298.185 60.9305 298.195 61.0041C298.206 61.0776 298.222 61.1407 298.243 61.1935C298.265 61.245 298.291 61.2872 298.32 61.3203C298.351 61.3522 298.386 61.3755 298.425 61.3902C298.466 61.405 298.51 61.4123 298.558 61.4123C298.616 61.4123 298.669 61.4006 298.714 61.3773C298.76 61.3529 298.8 61.3148 298.832 61.2633C298.865 61.2107 298.889 61.1419 298.905 61.0574C298.921 60.9728 298.929 60.8699 298.929 60.7484ZM301.728 61.3755V61.7893H299.896V61.4362L300.762 60.5076C300.849 60.4107 300.918 60.3255 300.968 60.2519C301.018 60.1772 301.055 60.1104 301.077 60.0515C301.1 59.9914 301.112 59.9345 301.112 59.8805C301.112 59.7996 301.098 59.7303 301.071 59.6728C301.044 59.6139 301.004 59.5685 300.952 59.5366C300.9 59.5048 300.836 59.4888 300.76 59.4888C300.679 59.4888 300.61 59.5084 300.551 59.5477C300.493 59.5869 300.449 59.6415 300.418 59.7114C300.389 59.7812 300.374 59.8603 300.374 59.9486H299.843C299.843 59.7892 299.881 59.6433 299.957 59.5109C300.033 59.3773 300.14 59.2713 300.279 59.1928C300.417 59.1131 300.581 59.0732 300.771 59.0732C300.959 59.0732 301.117 59.1039 301.246 59.1652C301.376 59.2253 301.474 59.3123 301.54 59.4263C301.608 59.5391 301.641 59.674 301.641 59.8308C301.641 59.9192 301.627 60.0055 301.599 60.0901C301.571 60.1736 301.53 60.2569 301.478 60.3402C301.426 60.4224 301.364 60.5057 301.29 60.5903C301.216 60.675 301.135 60.7626 301.045 60.8533L300.58 61.3755H301.728ZM303.966 61.3755V61.7893H302.134V61.4362L303 60.5076C303.087 60.4107 303.156 60.3255 303.206 60.2519C303.256 60.1772 303.292 60.1104 303.314 60.0515C303.338 59.9914 303.349 59.9345 303.349 59.8805C303.349 59.7996 303.336 59.7303 303.309 59.6728C303.282 59.6139 303.242 59.5685 303.19 59.5366C303.138 59.5048 303.074 59.4888 302.998 59.4888C302.917 59.4888 302.847 59.5084 302.789 59.5477C302.731 59.5869 302.687 59.6415 302.656 59.7114C302.627 59.7812 302.612 59.8603 302.612 59.9486H302.081C302.081 59.7892 302.119 59.6433 302.195 59.5109C302.271 59.3773 302.378 59.2713 302.516 59.1928C302.655 59.1131 302.819 59.0732 303.009 59.0732C303.197 59.0732 303.355 59.1039 303.484 59.1652C303.614 59.2253 303.712 59.3123 303.778 59.4263C303.845 59.5391 303.879 59.674 303.879 59.8308C303.879 59.9192 303.865 60.0055 303.837 60.0901C303.809 60.1736 303.768 60.2569 303.715 60.3402C303.664 60.4224 303.601 60.5057 303.528 60.5903C303.454 60.675 303.373 60.7626 303.283 60.8533L302.818 61.3755H303.966ZM306.451 60.4322V60.8477H305.412V60.4322H306.451ZM309.791 61.3755V61.7893H307.959V61.4362L308.825 60.5076C308.912 60.4107 308.981 60.3255 309.031 60.2519C309.081 60.1772 309.118 60.1104 309.14 60.0515C309.163 59.9914 309.175 59.9345 309.175 59.8805C309.175 59.7996 309.161 59.7303 309.134 59.6728C309.107 59.6139 309.067 59.5685 309.015 59.5366C308.963 59.5048 308.899 59.4888 308.823 59.4888C308.743 59.4888 308.673 59.5084 308.614 59.5477C308.556 59.5869 308.512 59.6415 308.481 59.7114C308.452 59.7812 308.437 59.8603 308.437 59.9486H307.906C307.906 59.7892 307.944 59.6433 308.02 59.5109C308.096 59.3773 308.203 59.2713 308.342 59.1928C308.48 59.1131 308.644 59.0732 308.834 59.0732C309.022 59.0732 309.18 59.1039 309.309 59.1652C309.439 59.2253 309.537 59.3123 309.603 59.4263C309.671 59.5391 309.704 59.674 309.704 59.8308C309.704 59.9192 309.69 60.0055 309.662 60.0901C309.634 60.1736 309.593 60.2569 309.541 60.3402C309.489 60.4224 309.427 60.5057 309.353 60.5903C309.279 60.675 309.198 60.7626 309.108 60.8533L308.643 61.3755H309.791ZM311.999 60.2152V60.6786C311.999 60.8796 311.978 61.0531 311.935 61.199C311.892 61.3436 311.83 61.4625 311.749 61.5557C311.669 61.6477 311.574 61.7157 311.464 61.7599C311.354 61.8039 311.231 61.8261 311.096 61.8261C310.988 61.8261 310.888 61.8125 310.795 61.7855C310.701 61.7574 310.617 61.7139 310.543 61.655C310.469 61.5962 310.405 61.522 310.351 61.4325C310.299 61.3418 310.258 61.2339 310.23 61.1088C310.202 60.9839 310.188 60.8404 310.188 60.6786V60.2152C310.188 60.0142 310.209 59.8419 310.252 59.6985C310.296 59.5538 310.358 59.4355 310.438 59.3436C310.519 59.2516 310.614 59.1842 310.725 59.1413C310.835 59.0972 310.958 59.0751 311.093 59.0751C311.2 59.0751 311.3 59.0892 311.392 59.1174C311.485 59.1444 311.569 59.1866 311.644 59.2443C311.719 59.3019 311.783 59.376 311.835 59.4668C311.888 59.5562 311.929 59.6635 311.957 59.7886C311.985 59.9124 311.999 60.0546 311.999 60.2152ZM311.468 60.7484V60.1435C311.468 60.0467 311.462 59.962 311.451 59.8897C311.441 59.8173 311.426 59.7561 311.405 59.7059C311.384 59.6543 311.359 59.6127 311.328 59.5808C311.297 59.5489 311.262 59.5256 311.223 59.5109C311.184 59.4962 311.14 59.4888 311.093 59.4888C311.032 59.4888 310.979 59.5005 310.933 59.5238C310.887 59.5471 310.849 59.5845 310.817 59.6359C310.785 59.6862 310.76 59.7537 310.743 59.8382C310.727 59.9216 310.719 60.0233 310.719 60.1435V60.7484C310.719 60.8453 310.724 60.9305 310.734 61.0041C310.745 61.0776 310.761 61.1407 310.782 61.1935C310.804 61.245 310.83 61.2872 310.859 61.3203C310.89 61.3522 310.925 61.3755 310.964 61.3902C311.004 61.405 311.048 61.4123 311.096 61.4123C311.155 61.4123 311.207 61.4006 311.253 61.3773C311.299 61.3529 311.338 61.3148 311.37 61.2633C311.403 61.2107 311.428 61.1419 311.444 61.0574C311.46 60.9728 311.468 60.8699 311.468 60.7484ZM314.266 61.3755V61.7893H312.435V61.4362L313.301 60.5076C313.388 60.4107 313.457 60.3255 313.507 60.2519C313.557 60.1772 313.593 60.1104 313.615 60.0515C313.639 59.9914 313.65 59.9345 313.65 59.8805C313.65 59.7996 313.637 59.7303 313.61 59.6728C313.583 59.6139 313.543 59.5685 313.49 59.5366C313.439 59.5048 313.375 59.4888 313.299 59.4888C313.218 59.4888 313.148 59.5084 313.089 59.5477C313.032 59.5869 312.988 59.6415 312.957 59.7114C312.928 59.7812 312.913 59.8603 312.913 59.9486H312.381C312.381 59.7892 312.42 59.6433 312.496 59.5109C312.571 59.3773 312.679 59.2713 312.817 59.1928C312.956 59.1131 313.12 59.0732 313.31 59.0732C313.498 59.0732 313.656 59.1039 313.785 59.1652C313.914 59.2253 314.013 59.3123 314.079 59.4263C314.146 59.5391 314.18 59.674 314.18 59.8308C314.18 59.9192 314.166 60.0055 314.138 60.0901C314.109 60.1736 314.069 60.2569 314.016 60.3402C313.965 60.4224 313.902 60.5057 313.829 60.5903C313.755 60.675 313.674 60.7626 313.584 60.8533L313.119 61.3755H314.266ZM315.215 60.2207H315.498C315.589 60.2207 315.664 60.2054 315.723 60.1748C315.781 60.1429 315.825 60.0987 315.853 60.0423C315.883 59.9847 315.897 59.9179 315.897 59.8419C315.897 59.7733 315.884 59.7126 315.857 59.6599C315.831 59.6059 315.791 59.5643 315.737 59.5348C315.683 59.5042 315.615 59.4888 315.533 59.4888C315.468 59.4888 315.408 59.5017 315.353 59.5275C315.298 59.5532 315.254 59.5893 315.221 59.6359C315.187 59.6825 315.171 59.739 315.171 59.8052H314.64C314.64 59.6581 314.679 59.5299 314.757 59.4208C314.837 59.3117 314.944 59.2265 315.077 59.1652C315.211 59.1039 315.358 59.0732 315.519 59.0732C315.7 59.0732 315.859 59.1027 315.995 59.1615C316.131 59.2191 316.237 59.3044 316.313 59.4172C316.389 59.5299 316.427 59.6696 316.427 59.8364C316.427 59.921 316.407 60.0031 316.368 60.0828C316.329 60.1613 316.272 60.2323 316.199 60.2961C316.127 60.3586 316.038 60.4089 315.934 60.4468C315.83 60.4837 315.713 60.5021 315.583 60.5021H315.215V60.2207ZM315.215 60.6234V60.3494H315.583C315.729 60.3494 315.857 60.3659 315.967 60.399C316.077 60.4321 316.17 60.4799 316.245 60.5425C316.32 60.6038 316.376 60.6768 316.414 60.7613C316.452 60.8447 316.471 60.9373 316.471 61.039C316.471 61.1641 316.447 61.2756 316.399 61.3737C316.351 61.4705 316.284 61.5527 316.197 61.6201C316.111 61.6875 316.011 61.739 315.895 61.7746C315.78 61.8089 315.655 61.8261 315.519 61.8261C315.406 61.8261 315.295 61.8107 315.186 61.7801C315.078 61.7482 314.98 61.701 314.891 61.6384C314.804 61.5747 314.735 61.495 314.682 61.3994C314.63 61.3025 314.605 61.1879 314.605 61.0555H315.136C315.136 61.1242 315.153 61.1855 315.187 61.2395C315.222 61.2934 315.269 61.3356 315.329 61.3663C315.39 61.3969 315.458 61.4123 315.533 61.4123C315.618 61.4123 315.69 61.3969 315.75 61.3663C315.812 61.3344 315.858 61.2903 315.89 61.2339C315.923 61.1763 315.94 61.1094 315.94 61.0335C315.94 60.9354 315.922 60.857 315.886 60.7981C315.851 60.738 315.8 60.6939 315.734 60.6657C315.667 60.6375 315.589 60.6234 315.498 60.6234H315.215Z" fill="white"/>
<g clip-path="url(#clip0_266_518)">
<path d="M512.727 36.6638C512.727 36.6638 511.645 36.5582 511.645 37.5043V41.7066H518.788V42.9677C518.788 42.9677 518.809 43.5979 518.139 43.5979H511.645V49.0613H519.437C519.437 49.0613 524.155 48.3465 524.199 43.5979V36.6638H512.727ZM523.982 29.9392H509.913C504.826 31.1157 504.719 35.2133 504.719 35.2133V49.0613H510.131V36.4535C510.131 35.3817 511.212 35.1932 511.212 35.1932H523.983V29.9392H523.982ZM542.555 45.0985C542.184 45.3416 541.909 45.5201 541.715 45.6339C541.021 46.0555 540.36 46.3806 539.747 46.6401C538.859 46.997 538.068 47.1755 537.358 47.1755C534.921 47.1755 532.904 46.4452 531.273 44.9683C529.642 43.4913 528.837 41.6419 528.837 39.4028C528.837 37.2448 529.563 35.3781 531.032 33.7873C532.5 32.1974 534.276 31.418 536.374 31.418C537.246 31.418 538.181 31.5637 539.149 31.8733C540.408 32.2621 541.425 32.8467 542.232 33.6088L540.827 35.134C540.231 34.5668 539.456 34.1442 538.552 33.8847C537.875 33.6899 537.133 33.5934 536.309 33.5934C534.841 33.5934 533.598 34.1761 532.613 35.3289C531.629 36.4972 531.129 37.8767 531.129 39.4993C531.129 41.1065 531.693 42.4205 532.823 43.4758C533.953 44.5303 535.389 45.0657 537.132 45.0657C537.858 45.0657 538.601 44.8381 539.359 44.401C539.989 43.9302 540.312 43.7026 540.328 43.6862V40.3598H535.615L536.292 38.2828H542.555V45.0985ZM556.789 41.041C556.789 42.6472 556.208 44.0431 555.046 45.2114C553.884 46.3797 552.448 46.9806 550.737 46.9806C549.156 46.9806 547.768 46.3961 546.573 45.2442C545.378 44.0923 544.798 42.6964 544.798 41.0573C544.798 39.4347 545.364 38.0388 546.493 36.8377C547.621 35.6367 549.01 35.053 550.64 35.053C552.448 35.053 553.916 35.6212 555.062 36.7731C556.208 37.8931 556.789 39.3209 556.789 41.041ZM554.578 41.0737C554.578 39.9865 554.207 39.0614 553.465 38.3147C552.722 37.5516 551.802 37.1783 550.705 37.1783C549.672 37.1783 548.8 37.568 548.074 38.3475C547.348 39.126 546.992 40.0184 546.992 41.0246C546.992 42.0799 547.364 42.9723 548.09 43.719C548.816 44.4656 549.721 44.8544 550.817 44.8544C551.835 44.8544 552.706 44.4811 553.449 43.7344C554.207 42.9878 554.579 42.0954 554.579 41.0737H554.578ZM570.83 41.041C570.83 42.6472 570.249 44.0431 569.087 45.2114C567.924 46.3797 566.488 46.9806 564.778 46.9806C563.196 46.9806 561.809 46.3961 560.614 45.2442C559.42 44.0923 558.838 42.6964 558.838 41.0573C558.838 39.4347 559.404 38.0388 560.533 36.8377C561.663 35.6367 563.051 35.053 564.68 35.053C566.488 35.053 567.957 35.6212 569.102 36.7731C570.249 37.8931 570.83 39.3209 570.83 41.041ZM568.618 41.0737C568.618 39.9865 568.247 39.0614 567.505 38.3147C566.763 37.5516 565.843 37.1783 564.745 37.1783C563.713 37.1783 562.841 37.568 562.115 38.3475C561.388 39.126 561.033 40.0184 561.033 41.0246C561.033 42.0799 561.404 42.9723 562.131 43.719C562.857 44.4656 563.761 44.8544 564.859 44.8544C565.875 44.8544 566.746 44.4811 567.489 43.7344C568.247 42.9878 568.619 42.0954 568.619 41.0737H568.618ZM583.822 46.6556L581.789 46.9643V45.0329L581.353 45.5192C580.969 45.8723 580.533 46.1678 580.061 46.3961C579.369 46.7098 578.614 46.8705 577.851 46.8668C576.269 46.8668 574.913 46.2986 573.816 45.1458C572.718 43.993 572.17 42.6308 572.17 41.041C572.17 39.4019 572.718 37.9905 573.8 36.8213C574.882 35.6522 576.204 35.0685 577.786 35.0685C578.69 35.0685 579.481 35.2142 580.142 35.5065C580.611 35.7177 581.014 35.9936 581.353 36.3351C581.466 36.4808 581.579 36.6429 581.692 36.7886V31.7258L583.854 31.4171L583.822 46.6556ZM581.918 41.1866C581.918 40.0512 581.53 39.0932 580.74 38.3147C579.949 37.5188 579.06 37.13 578.045 37.13C576.915 37.13 576.011 37.5034 575.318 38.25C574.671 38.963 574.332 39.8399 574.332 40.8625C574.332 42.0144 574.671 42.9714 575.349 43.718C576.026 44.4647 576.882 44.8381 577.932 44.8381C578.964 44.8381 579.868 44.4975 580.676 43.8C581.498 43.0852 581.919 42.2092 581.919 41.1866H581.918ZM595.232 33.8365H589.18V37.8767H593.876V39.9537H589.18V46.6401L586.824 46.9806V31.7421H594.763L595.232 33.8365ZM600.09 32.6509L598.637 34.452L597.249 32.6509L598.718 30.8662L600.09 32.6509ZM599.654 46.6556L597.491 46.9479V35.6695L599.654 35.3453V46.6565V46.6556ZM609.418 35.2315L608.401 37.5352C608.268 37.5152 608.133 37.5046 607.998 37.5034C607.788 37.5034 607.578 37.5198 607.368 37.5516C607.157 37.5835 606.932 37.6654 606.691 37.7793C606.239 37.9741 605.851 38.3957 605.513 39.0286C605.138 39.7468 604.944 40.5427 604.947 41.3496V46.6401L602.785 46.9806V35.6695L604.786 35.3125V37.6654C605.044 37.2593 605.319 36.8541 605.577 36.4325C605.948 36.01 606.384 35.7022 606.868 35.5229C607.126 35.4263 607.594 35.3444 608.304 35.2797C608.982 35.2315 609.37 35.1987 609.418 35.2315ZM625.523 46.6556L623.361 46.9643V39.2234C623.361 38.5086 623.2 37.9896 622.877 37.6654C622.554 37.3404 622.07 37.1783 621.44 37.1783C620.682 37.1783 620.101 37.487 619.714 38.1034C619.455 38.525 619.31 38.9794 619.31 39.4338V46.6392L617.148 47.0289V39.2717C617.148 38.5906 616.986 38.0707 616.679 37.7146C616.357 37.3568 615.937 37.1783 615.388 37.1783H615.179C614.42 37.1783 613.871 37.487 613.532 38.1198C613.274 38.5906 613.145 39.1907 613.145 39.9209V46.6392L610.902 47.0289V35.6695L612.919 35.3289V36.7731C613.145 36.4316 613.371 36.1557 613.581 35.9618C614.162 35.4263 614.84 35.1659 615.598 35.1659C616.453 35.1659 617.082 35.2961 617.518 35.572C617.889 35.7997 618.244 36.2531 618.6 36.9024C619.342 35.7505 620.391 35.1659 621.78 35.1659C623.102 35.1659 624.087 35.572 624.732 36.3997C625.266 37.0809 625.523 38.087 625.523 39.4019V46.6556ZM635.403 43.2318C635.403 44.2699 635.032 45.1304 634.289 45.796C633.547 46.4771 632.61 46.8022 631.481 46.8022C630.625 46.8022 629.867 46.6073 629.173 46.2176C628.479 45.8288 627.963 45.3899 627.624 44.8708L629.141 43.5405C629.253 43.7026 629.351 43.8319 629.447 43.9293C630.013 44.4975 630.69 44.7898 631.481 44.7898C632.03 44.7898 632.466 44.6441 632.772 44.3682C633.095 44.0923 633.24 43.7026 633.24 43.199C633.24 42.6317 632.869 42.242 632.127 42.0308C630.658 41.5928 629.867 41.3496 629.754 41.3005C629.076 40.9599 628.592 40.603 628.285 40.1968C627.946 39.7261 627.769 39.1096 627.769 38.3147C627.769 37.3404 628.14 36.53 628.867 35.8807C629.593 35.2315 630.464 34.9228 631.464 34.9228C632.224 34.9228 632.933 35.0849 633.579 35.4263C634.225 35.7669 634.692 36.1238 634.967 36.5463L633.675 37.925C633.481 37.7344 633.271 37.5607 633.046 37.4059C632.53 37.049 632.03 36.8705 631.562 36.8705C631.11 36.8705 630.739 36.9679 630.448 37.1619C630.109 37.4059 629.931 37.7629 629.931 38.2336C629.931 38.688 630.093 39.0286 630.432 39.2398C630.723 39.4183 631.336 39.6132 632.304 39.8235C633.272 40.0512 634.015 40.4409 634.547 40.9927C635.145 41.5764 635.403 42.3067 635.403 43.2318Z" fill="#0086F8"/>
</g>
<defs>
<linearGradient id="paint0_linear_266_518" x1="3.1614" y1="75.6786" x2="93.9335" y2="73.5302" gradientUnits="userSpaceOnUse">
<stop offset="0.469461" stop-color="#00B7F1"/>
<stop offset="0.603003" stop-color="#97E2F9"/>
<stop offset="1" stop-color="white"/>
</linearGradient>
<linearGradient id="paint1_linear_266_518" x1="-2.26489" y1="89.8733" x2="95.2829" y2="87.6002" gradientUnits="userSpaceOnUse">
<stop offset="0.469461" stop-color="#00B7F1"/>
<stop offset="1" stop-color="#F9FAFB"/>
</linearGradient>
<clipPath id="clip0_266_518">
<rect width="130.795" height="19.1221" fill="white" transform="translate(504.719 29.939)"/>
</clipPath>
</defs>
</svg>
