<svg width="115" height="33" viewBox="0 0 115 33" fill="none" xmlns="http://www.w3.org/2000/svg">
<path fill-rule="evenodd" clip-rule="evenodd" d="M53.7447 32.7144H0.890625V0.944824H53.7447V32.7144ZM19.8472 26.9795C19.2866 26.9795 18.9726 26.5169 18.9726 26.0205C18.9726 25.1466 19.8309 24.6785 21.6402 24.4536V26.2024C21.0476 26.7263 20.4543 26.9795 19.8472 26.9795ZM19.2556 28.3097C20.1266 28.3097 20.9376 28.0683 21.6875 27.5737L21.8577 28.2237H23.5738C23.571 28.2099 23.5719 22.8684 23.5719 22.8684C23.5719 21.5118 22.4964 20.678 20.5799 20.678C19.1765 20.678 18.1324 21.1589 17.4453 22.1206L18.7551 22.8684C19.1909 22.3181 19.7999 22.0192 20.5498 22.0192C21.298 22.0192 21.7011 22.3317 21.7011 22.8684V23.2798C18.584 23.6344 17.0712 24.5103 17.0712 26.1622C17.0712 27.3927 17.8831 28.3097 19.2556 28.3097ZM26.7063 20.8088L25.1042 21.0309V28.2128H27.0221V22.916C27.6783 22.362 28.2533 22.094 28.8302 22.094C29.532 22.094 29.765 22.5028 29.765 23.4096V28.2128H31.7008V23.0686C31.7008 21.4725 30.9189 20.667 29.4072 20.667C28.5022 20.667 27.7873 21.02 26.8823 21.6854L26.7063 20.8088ZM44.4857 21.9798C45.4046 21.9798 45.9675 22.5604 45.9675 23.5523H42.989C43.0663 22.5485 43.6115 21.9798 44.4857 21.9798ZM41.0542 24.5249C41.0542 26.9566 42.3487 28.3554 44.5164 28.3554C46.029 28.3554 47.1502 27.8032 47.7746 26.7574L46.3571 25.9657C45.9033 26.6166 45.4215 26.9137 44.6908 26.9137C43.5509 26.9137 42.974 26.208 42.9591 24.8074H47.853C47.853 24.7434 47.8572 24.6797 47.8614 24.6162C47.8656 24.5528 47.8698 24.4896 47.8698 24.4261C47.8698 22.0246 46.6059 20.667 44.4857 20.667C42.3655 20.667 41.0542 22.0658 41.0542 24.5249ZM5.7509 24.5368C5.7509 23.5906 6.0166 22.2834 7.46202 22.2834C8.90734 22.2834 9.17491 23.5906 9.17491 24.5368C9.17491 25.4857 8.90734 26.7921 7.46202 26.7921C6.0166 26.7921 5.7509 25.4857 5.7509 24.5368ZM3.82243 24.5368C3.82243 27.2108 5.54884 28.4357 7.46202 28.4357C9.3752 28.4357 11.1008 27.2108 11.1008 24.5368C11.1008 21.8629 9.3752 20.6378 7.46202 20.6378C5.54884 20.6378 3.82243 21.8629 3.82243 24.5368ZM14.2653 20.8335H12.425V28.2182H14.3909V23.3054C14.6867 22.6473 15.6078 22.5192 16.4496 22.5192H16.5424V20.6945C16.4651 20.6816 16.3723 20.6816 16.294 20.6816C15.4841 20.6816 14.6176 21.2339 14.2653 21.7019V20.8335ZM39.8901 27.7995V20.8061H38.2544L38.1024 21.6527C37.9522 21.2896 37.3923 20.669 35.9813 20.6717C34.4174 20.6726 33.0269 22.0547 33.0269 24.5268C33.0269 27.0234 34.3774 28.2155 36.0886 28.2155C37.2134 28.2155 37.6813 27.6935 37.9888 27.1412L38.0168 27.1706V28.029C38.0168 29.1836 37.534 29.6644 36.5312 29.6644C35.4483 29.6644 35.2255 29.3033 35.1481 28.9404L33.2376 29.2475C33.507 30.5174 34.8434 31.096 36.2889 31.0887C39.7951 31.0658 39.8901 29.0363 39.8901 27.7995ZM38.0289 24.141C38.0289 25.1228 37.9077 26.6211 36.4381 26.633C35.0195 26.644 34.9525 25.1347 34.9525 24.2223C34.9525 22.5567 35.7278 22.0484 36.4259 22.0484C37.467 22.0484 38.0289 22.9873 38.0289 24.141ZM51.3954 20.4733H51.798V18.0324H51.183L50.4691 19.8863L49.7431 18.0324H49.1232V20.4733H49.5258V18.4347H49.5371L50.3349 20.4733H50.5884L51.3843 18.4347H51.3954V20.4733ZM47.8679 18.3561H48.6283V18.0324H46.7066V18.3561H47.468V20.4733H47.8679V18.3561Z" fill="#FF6600"/>
<path d="M60.3561 17.6315H63.3753C64.4155 17.6315 65.018 17.0738 65.018 16.0943C65.018 15.1428 64.4155 14.5979 63.3753 14.5979H60.3561V17.6315ZM60.3561 13.3735H63.1437C63.9641 13.3735 64.5793 12.8954 64.5793 12.027C64.5793 11.0465 64.0736 10.6923 63.1437 10.6923H60.3561V13.3735ZM58.6463 9.30518H63.3898C65.1396 9.30518 66.2882 10.095 66.2882 11.7134C66.2882 12.6939 65.7819 13.3996 64.8943 13.7819V13.8081C66.0838 14.0675 66.7269 14.9928 66.7269 16.3121C66.7269 17.8365 65.659 19.0185 63.131 19.0185H58.6463M74.2326 19.0185H72.7008V18.039H72.6738C72.2912 18.7474 71.4431 19.211 70.6632 19.211C68.817 19.211 68.0252 18.2848 68.0252 16.4485V11.9845H69.5825V16.2985C69.5825 17.5356 70.0893 17.9847 70.9373 17.9847C72.2366 17.9847 72.6738 17.1571 72.6738 16.0663V11.9845H74.2326M76.9938 16.7612C77.0755 17.6594 77.7603 17.9847 78.5924 17.9847C79.183 17.9847 80.2073 17.8636 80.1656 17.0621C80.1248 16.2443 78.9902 16.1495 77.8552 15.8901C76.706 15.647 75.5851 15.2376 75.5851 13.8081C75.5851 12.2701 77.2545 11.7947 78.539 11.7947C79.9876 11.7947 81.2998 12.393 81.4922 13.9563H79.866C79.7274 13.2244 79.1137 13.0183 78.429 13.0183C77.9786 13.0183 77.1427 13.1285 77.1427 13.7394C77.1427 14.503 78.2924 14.6124 79.441 14.869C80.5752 15.1283 81.7241 15.5368 81.7241 16.9239C81.7241 18.5992 80.0294 19.211 78.5647 19.211C76.7896 19.211 75.4625 18.4212 75.4348 16.7612M83.0513 11.9845H84.6085V19.0185H83.0513V11.9845ZM83.0513 9.30518H84.6085V10.7745H83.0513M86.4015 11.9845H87.8769V13.0183L87.9037 13.0463C88.3679 12.2701 89.176 11.7947 90.1058 11.7947C91.6371 11.7947 92.6068 12.6099 92.6068 14.1894V19.0185H91.0483V14.5979C91.021 13.4964 90.5834 13.0183 89.6672 13.0183C88.6294 13.0183 87.9575 13.8361 87.9575 14.869V19.0185H86.4015M99.0752 14.8834C99.0207 13.903 98.3511 13.0183 97.2973 13.0183C96.2168 13.0183 95.4795 13.8361 95.4377 14.8834H99.0752ZM95.4377 15.9027C95.4377 17.0061 96.0389 17.9847 97.3374 17.9847C98.2402 17.9847 98.7864 17.5908 99.0608 16.8154H100.537C100.194 18.3525 98.8828 19.211 97.3374 19.211C95.1235 19.211 93.8776 17.673 93.8776 15.5088C93.8776 13.509 95.1908 11.7947 97.2973 11.7947C99.5257 11.7947 100.893 13.7954 100.634 15.9027M103.094 16.7612C103.176 17.6594 103.859 17.9847 104.694 17.9847C105.281 17.9847 106.309 17.8636 106.267 17.0621C106.225 16.2443 105.09 16.1495 103.955 15.8901C102.807 15.647 101.685 15.2376 101.685 13.8081C101.685 12.2701 103.354 11.7947 104.64 11.7947C106.089 11.7947 107.402 12.393 107.592 13.9563H105.965C105.829 13.2244 105.214 13.0183 104.529 13.0183C104.079 13.0183 103.245 13.1285 103.245 13.7394C103.245 14.503 104.393 14.6124 105.542 14.869C106.677 15.1283 107.825 15.5368 107.825 16.9239C107.825 18.5992 106.129 19.211 104.667 19.211C102.889 19.211 101.563 18.4212 101.536 16.7612M110.189 16.7612C110.273 17.6594 110.956 17.9847 111.789 17.9847C112.378 17.9847 113.404 17.8636 113.362 17.0621C113.32 16.2443 112.185 16.1495 111.05 15.8901C109.903 15.647 108.782 15.2376 108.782 13.8081C108.782 12.2701 110.449 11.7947 111.734 11.7947C113.184 11.7947 114.497 12.393 114.687 13.9563H113.061C112.924 13.2244 112.309 13.0183 111.626 13.0183C111.174 13.0183 110.34 13.1285 110.34 13.7394C110.34 14.503 111.488 14.6124 112.637 14.869C113.773 15.1283 114.92 15.5368 114.92 16.9239C114.92 18.5992 113.224 19.211 111.762 19.211C109.984 19.211 108.658 18.4212 108.631 16.7612M60.0283 28.4092C60.0283 29.9057 61.1361 30.4931 62.504 30.4931C64.0082 30.4931 64.5684 29.7575 64.5684 29.021C64.5684 28.2737 64.1589 27.9746 63.7611 27.8263C63.0784 27.5661 62.1903 27.3881 60.8482 27.0212C59.1802 26.5722 58.689 25.5655 58.689 24.5597C58.689 22.6124 60.4932 21.7024 62.2575 21.7024C64.2951 21.7024 66.003 22.7768 66.003 24.8037H64.2951C64.2134 23.553 63.3653 23.0885 62.1903 23.0885C61.3958 23.0885 60.3979 23.3741 60.3979 24.3555C60.3979 25.035 60.8628 25.4155 61.561 25.6061C61.7109 25.6476 63.8711 26.2043 64.3764 26.3553C65.6616 26.7357 66.2764 27.8263 66.2764 28.8303C66.2764 31.0081 64.3369 31.8783 62.3937 31.8783C60.165 31.8783 58.3603 30.8183 58.3203 28.4092M72.4283 27.511C72.3747 26.5333 71.7037 25.6476 70.6532 25.6476C69.5725 25.6476 68.8334 26.4646 68.7925 27.511H72.4283ZM68.7925 28.5321C68.7925 29.6346 69.3946 30.6141 70.6926 30.6141C71.5948 30.6141 72.1413 30.2183 72.4165 29.443H73.8929C73.5515 30.981 72.2385 31.8395 70.6926 31.8395C68.4789 31.8395 67.2353 30.3014 67.2353 28.1381C67.2353 26.1366 68.5465 24.4232 70.6532 24.4232C72.8814 24.4232 74.2489 26.423 73.9883 28.5321M75.191 24.6139H76.6543V25.973H76.6815C76.8604 25.2257 77.7883 24.4232 78.7464 24.4232C79.1005 24.4232 79.1967 24.4494 79.3329 24.4639V25.9612C79.1154 25.9332 78.8825 25.8916 78.6642 25.8916C77.5978 25.8916 76.7487 26.751 76.7487 28.2999V31.6479H75.191M79.5381 24.6139H81.2353L83.025 30.0159H83.0528L84.7756 24.6139H86.3884L83.8612 31.6479H82.1088M87.4688 24.6139H89.0284V31.6479H87.4688V24.6139ZM87.4688 21.9328H89.0284V23.4021H87.4688M95.4394 26.967C95.3161 26.1103 94.6876 25.6476 93.827 25.6476C93.0188 25.6476 91.8846 26.0697 91.8846 28.205C91.8846 29.3753 92.405 30.6141 93.7583 30.6141C94.6609 30.6141 95.2893 30.0159 95.4394 29.0093H96.9982C96.7113 30.8328 95.5762 31.8395 93.7583 31.8395C91.5432 31.8395 90.326 30.2743 90.326 28.205C90.326 26.0832 91.4887 24.4232 93.8128 24.4232C95.4541 24.4232 96.8489 25.2392 96.9982 26.967M103.151 27.511C103.096 26.5333 102.426 25.6476 101.374 25.6476C100.294 25.6476 99.5552 26.4646 99.5147 27.511H103.151ZM99.5147 28.5321C99.5147 29.6346 100.116 30.6141 101.414 30.6141C102.317 30.6141 102.863 30.2183 103.138 29.443H104.614C104.273 30.981 102.96 31.8395 101.414 31.8395C99.2007 31.8395 97.9567 30.3014 97.9567 28.1381C97.9567 26.1366 99.2683 24.4232 101.374 24.4232C103.602 24.4232 104.97 26.423 104.71 28.5321M107.171 29.3897C107.253 30.287 107.937 30.6141 108.771 30.6141C109.359 30.6141 110.384 30.4931 110.342 29.6888C110.302 28.8719 109.167 28.7761 108.032 28.5177C106.884 28.2737 105.762 27.8652 105.762 26.4375C105.762 24.8994 107.431 24.4232 108.717 24.4232C110.166 24.4232 111.477 25.0214 111.67 26.5866H110.042C109.906 25.8501 109.291 25.6476 108.605 25.6476C108.155 25.6476 107.322 25.7552 107.322 26.3687C107.322 27.1315 108.47 27.2399 109.617 27.4983C110.752 27.7567 111.902 28.1661 111.902 29.5514C111.902 31.2259 110.205 31.8395 108.744 31.8395C106.966 31.8395 105.638 31.0497 105.613 29.3897" fill="black"/>
</svg>
