<svg width="112" height="18" viewBox="0 0 112 18" fill="none" xmlns="http://www.w3.org/2000/svg">
<path fill-rule="evenodd" clip-rule="evenodd" d="M85.5067 0.62358H90.0186V7.17128H99.1577V0.62358H103.671V16.9786H99.1577V9.76348H90.0186V16.9786H85.5067V0.62358ZM0.890625 0.62358H5.4046V7.17128H14.5426V0.62358H19.0836V16.9786H14.5426V9.76348H5.4046V16.9786H0.890625V0.62358ZM22.8167 0.62358H27.3867V16.9786H22.8167V0.62358ZM107.321 0.62358H111.891V16.9786H107.321V0.62358ZM29.0587 0.62358H46.8066V3.34918H40.1756V16.9786H35.6896V3.34918H29.0587V0.62358ZM50.7066 10.7252L53.8546 3.42928L56.9756 10.7252H50.7066ZM58.1176 13.3173L59.6786 16.9786H64.7776L56.7256 0.65018H51.0136L42.9056 16.9786H47.9756L49.5646 13.3173H58.1176ZM78.5126 6.18218H83.1386C83.0816 3.21568 80.4066 0.383279 74.1936 0.329879C69.5696 0.303179 63.9686 2.12048 63.9396 8.77438C63.9126 15.3749 69.6246 17.4325 74.1936 17.3257C78.4006 17.1922 83.0816 16.0703 83.2776 11.0996L78.6237 11.1263C78.4847 14.227 75.8936 14.841 74.1946 14.8677C72.4386 14.8677 68.8446 14.5206 68.7896 8.85508C68.7346 3.51068 72.0216 2.76248 74.1946 2.76248C76.3396 2.78858 78.4846 3.75088 78.5126 6.18218Z" fill="#CF4044"/>
</svg>
