<svg width="82" height="21" viewBox="0 0 82 21" fill="none" xmlns="http://www.w3.org/2000/svg">
<g clip-path="url(#clip0_7969_30063)">
<path d="M21.6354 12.6738C21.2595 12.6738 20.9149 12.8628 20.7269 13.1779C20.5389 13.4929 20.5389 13.9024 20.7269 14.2175C20.9149 14.5325 21.2595 14.7373 21.6354 14.7215C22.1994 14.7058 22.638 14.249 22.638 13.6977C22.6536 13.1464 22.1994 12.6896 21.6354 12.6738Z" fill="white" fill-opacity="0.6"/>
<path d="M20.3381 15.3516C19.8525 15.3516 19.4609 15.7453 19.4609 16.2179C19.4609 16.7062 19.8525 17.1 20.3381 17.1C20.8237 17.1 21.2153 16.7062 21.2153 16.2179C21.2153 15.7453 20.8237 15.3516 20.3381 15.3516Z" fill="white" fill-opacity="0.6"/>
<path d="M18.4343 18.9568C18.8493 18.9429 19.1745 18.5933 19.1607 18.176C19.1469 17.7587 18.7993 17.4316 18.3842 17.4455C17.9692 17.4594 17.644 17.809 17.6578 18.2263C17.6717 18.6436 18.0193 18.9707 18.4343 18.9568Z" fill="white" fill-opacity="0.6"/>
<path d="M16.2359 18.8652C15.8913 18.8652 15.625 19.133 15.625 19.4795C15.625 19.8261 15.8913 20.0938 16.2359 20.0938C16.5805 20.0938 16.8468 19.8261 16.8468 19.4795C16.8468 19.133 16.5805 18.8652 16.2359 18.8652Z" fill="white" fill-opacity="0.6"/>
<path d="M14.1029 19.6055C13.8209 19.6055 13.5859 19.8417 13.5859 20.1253C13.5859 20.4088 13.8209 20.6451 14.1029 20.6451C14.3848 20.6451 14.6198 20.4088 14.6198 20.1253C14.6354 19.8417 14.4005 19.6055 14.1029 19.6055Z" fill="white" fill-opacity="0.6"/>
<path d="M12.1105 19.9043C11.8599 19.9043 11.6562 20.1091 11.6562 20.3611C11.6562 20.6131 11.8599 20.8179 12.1105 20.8179C12.3611 20.8179 12.5648 20.6131 12.5648 20.3611C12.5491 20.1091 12.3455 19.9043 12.1105 19.9043Z" fill="white" fill-opacity="0.6"/>
<path d="M10.1107 19.6055C9.82871 19.6055 9.59375 19.8417 9.59375 20.1253C9.59375 20.4088 9.82871 20.6451 10.1107 20.6451C10.3926 20.6451 10.6276 20.4088 10.6276 20.1253C10.6276 19.8417 10.3926 19.6055 10.1107 19.6055Z" fill="white" fill-opacity="0.6"/>
<path d="M7.98201 18.8496C7.76271 18.8496 7.55908 18.9599 7.44943 19.1489C7.33977 19.3379 7.33977 19.5742 7.44943 19.7632C7.55908 19.9522 7.76271 20.0625 7.98201 20.0625C8.31096 20.0625 8.59292 19.7947 8.59292 19.4482C8.57725 19.1331 8.31096 18.8654 7.98201 18.8496Z" fill="white" fill-opacity="0.6"/>
<path d="M5.8027 17.4473C5.5364 17.4473 5.28577 17.589 5.1448 17.8253C5.00382 18.0616 5.00382 18.3451 5.1448 18.5814C5.28577 18.8176 5.52074 18.9594 5.8027 18.9594C6.20997 18.9594 6.55458 18.6286 6.55458 18.2033C6.55458 17.7938 6.22563 17.4473 5.8027 17.4473Z" fill="white" fill-opacity="0.6"/>
<path d="M3.8772 15.3516C3.39161 15.3516 3 15.7453 3 16.2336C3 16.7219 3.39161 17.1157 3.8772 17.1157C4.36279 17.1157 4.7544 16.7219 4.7544 16.2336C4.73874 15.7453 4.36279 15.3516 3.8772 15.3516Z" fill="white" fill-opacity="0.6"/>
<path d="M2.57294 12.6747C2.197 12.6589 1.85239 12.8637 1.66442 13.1787C1.47644 13.4938 1.47644 13.9033 1.66442 14.2183C1.85239 14.5334 2.197 14.7381 2.57294 14.7224C3.13686 14.7066 3.57546 14.2498 3.57546 13.6985C3.57546 13.1472 3.12119 12.6904 2.57294 12.6747Z" fill="white" fill-opacity="0.6"/>
<path d="M2.10455 9.33398C1.44665 9.33398 0.914062 9.86954 0.914062 10.5311C0.914062 11.1927 1.44665 11.7282 2.10455 11.7282C2.76245 11.7282 3.29503 11.1927 3.29503 10.5311C3.27937 9.86954 2.76245 9.33398 2.10455 9.33398Z" fill="white" fill-opacity="0.6"/>
<path d="M2.57294 6.31055C2.197 6.31055 1.85239 6.49956 1.66442 6.81459C1.47644 7.12962 1.47644 7.53916 1.66442 7.85419C1.85239 8.16922 2.197 8.37399 2.57294 8.35824C3.13686 8.34249 3.57546 7.8857 3.57546 7.33439C3.57546 6.78309 3.12119 6.3263 2.57294 6.31055Z" fill="white" fill-opacity="0.6"/>
<path d="M3.87722 3.93164C3.56393 3.93164 3.26631 4.08916 3.10967 4.37268C2.95303 4.64046 2.95303 4.98699 3.10967 5.25476C3.26631 5.52254 3.56393 5.69581 3.87722 5.69581C4.34715 5.68005 4.73875 5.30202 4.73875 4.81372C4.72309 4.34118 4.34715 3.94739 3.87722 3.93164Z" fill="white" fill-opacity="0.6"/>
<path d="M5.79876 2.07422C5.39149 2.07422 5.04688 2.405 5.04688 2.83029C5.04688 3.23983 5.37583 3.58636 5.79876 3.58636C6.20603 3.58636 6.55065 3.25558 6.55065 2.83029C6.55065 2.42075 6.2217 2.07422 5.79876 2.07422Z" fill="white" fill-opacity="0.6"/>
<path d="M7.97809 0.955078C7.64914 0.955078 7.36719 1.22285 7.36719 1.56939C7.36719 1.90017 7.63348 2.18369 7.97809 2.18369C8.30704 2.18369 8.589 1.91592 8.589 1.56939C8.57334 1.2386 8.30704 0.955078 7.97809 0.955078Z" fill="white" fill-opacity="0.6"/>
<path d="M10.1107 0.388672C9.81309 0.388672 9.57812 0.624944 9.57812 0.924222C9.57812 1.2235 9.81309 1.45977 10.1107 1.45977C10.3927 1.45977 10.6276 1.2235 10.6276 0.939974C10.612 0.624944 10.3927 0.388672 10.1107 0.388672Z" fill="white" fill-opacity="0.6"/>
<path d="M12.0949 0.230469C11.8443 0.230469 11.6406 0.435238 11.6406 0.687262C11.6406 0.939285 11.8443 1.14405 12.0949 1.14405C12.3455 1.14405 12.5492 0.939285 12.5492 0.687262C12.5492 0.435238 12.3455 0.230469 12.0949 0.230469Z" fill="white" fill-opacity="0.6"/>
<path d="M14.1029 0.388672C13.8209 0.388672 13.5859 0.624944 13.5859 0.908471C13.5859 1.192 13.8209 1.42827 14.1029 1.42827C14.3848 1.42827 14.6198 1.192 14.6198 0.908471C14.6354 0.624944 14.4005 0.388672 14.1029 0.388672Z" fill="white" fill-opacity="0.6"/>
<path d="M16.232 0.955078C16.0127 0.955078 15.8091 1.06534 15.6994 1.25436C15.5898 1.44337 15.5898 1.67965 15.6994 1.86866C15.8091 2.05768 16.0127 2.16794 16.232 2.16794C16.561 2.16794 16.8429 1.90017 16.8429 1.55363C16.8429 1.2071 16.5766 0.955078 16.232 0.955078Z" fill="white" fill-opacity="0.6"/>
<path d="M18.4081 2.08984C18.0009 2.08984 17.6562 2.42062 17.6562 2.84591C17.6562 3.25545 17.9852 3.60199 18.4081 3.60199C18.8154 3.60199 19.16 3.2712 19.16 2.84591C19.16 2.42062 18.8154 2.08984 18.4081 2.08984Z" fill="white" fill-opacity="0.6"/>
<path d="M20.3381 3.93164C19.8525 3.93164 19.4609 4.32543 19.4609 4.81372C19.4609 5.30202 19.8525 5.69581 20.3381 5.69581C20.8237 5.69581 21.2153 5.30202 21.2153 4.81372C21.2153 4.32543 20.8237 3.93164 20.3381 3.93164Z" fill="white" fill-opacity="0.6"/>
<path d="M21.6354 6.31055C21.2595 6.31055 20.9149 6.49956 20.7269 6.81459C20.5389 7.12962 20.5389 7.53916 20.7269 7.85419C20.9149 8.16922 21.2595 8.37399 21.6354 8.35824C22.1994 8.34249 22.638 7.8857 22.638 7.33439C22.638 6.76734 22.1994 6.31055 21.6354 6.31055Z" fill="white" fill-opacity="0.6"/>
<path d="M16.9348 12.0918C16.7625 12.0918 16.6058 12.1706 16.5275 12.3123C16.4492 12.4541 16.4492 12.6431 16.5275 12.7849C16.6058 12.9266 16.7625 13.0211 16.9348 13.0054C17.1854 12.9896 17.3734 12.7849 17.3734 12.5486C17.389 12.3123 17.1854 12.1075 16.9348 12.0918Z" fill="white" fill-opacity="0.6"/>
<path d="M15.7941 13.8086C15.6218 13.8086 15.4652 13.8874 15.3869 14.0291C15.3085 14.1709 15.3085 14.3599 15.3869 14.5017C15.4652 14.6434 15.6375 14.7379 15.7941 14.7222C16.0448 14.7064 16.2327 14.5017 16.2327 14.2654C16.2327 14.0291 16.0448 13.8243 15.7941 13.8086Z" fill="white" fill-opacity="0.6"/>
<path d="M14.0872 14.9102C13.9149 14.9102 13.7426 15.0047 13.6486 15.1622C13.5546 15.3197 13.5546 15.5087 13.6486 15.6662C13.7426 15.8237 13.8992 15.9182 14.0872 15.9182C14.3692 15.9182 14.5885 15.6977 14.5885 15.4142C14.5885 15.1307 14.3692 14.9102 14.0872 14.9102Z" fill="white" fill-opacity="0.6"/>
<path d="M12.0798 15.2109C11.7039 15.2109 11.4062 15.5102 11.4062 15.8883C11.4062 16.2663 11.7039 16.5656 12.0798 16.5656C12.4558 16.5656 12.7534 16.2663 12.7534 15.8883C12.7377 15.5102 12.4401 15.2109 12.0798 15.2109Z" fill="white" fill-opacity="0.6"/>
<path d="M10.0644 14.8008C9.64149 14.8008 9.29688 15.1473 9.29688 15.5726C9.29688 15.9979 9.64149 16.3444 10.0644 16.3444C10.4874 16.3444 10.832 15.9979 10.832 15.5726C10.832 15.1473 10.4874 14.8008 10.0644 14.8008Z" fill="white" fill-opacity="0.6"/>
<path d="M8.24431 13.5098C7.77438 13.5098 7.39844 13.8878 7.39844 14.3603C7.39844 14.8329 7.77438 15.2109 8.24431 15.2109C8.71424 15.2109 9.09018 14.8329 9.09018 14.3603C9.09018 13.8878 8.71424 13.5098 8.24431 13.5098Z" fill="white" fill-opacity="0.6"/>
<path d="M7.04083 11.7754C6.64922 11.7754 6.33594 12.0904 6.33594 12.4842C6.33594 12.878 6.64922 13.193 7.04083 13.193C7.43244 13.193 7.74572 12.878 7.74572 12.4842C7.76139 12.1062 7.43244 11.7754 7.04083 11.7754Z" fill="white" fill-opacity="0.6"/>
<path d="M6.75919 9.88672C6.46157 9.88672 6.21094 10.1387 6.21094 10.438C6.21094 10.7373 6.46157 10.9893 6.75919 10.9893C7.05681 10.9893 7.30744 10.7373 7.30744 10.438C7.30744 10.123 7.07247 9.88672 6.75919 9.88672Z" fill="white" fill-opacity="0.6"/>
<path d="M7.24333 8.02734C6.9927 8.02734 6.78906 8.23211 6.78906 8.48414C6.78906 8.73616 6.9927 8.94093 7.24333 8.94093C7.49396 8.94093 7.69759 8.73616 7.69759 8.48414C7.71326 8.23211 7.49396 8.02734 7.24333 8.02734Z" fill="white" fill-opacity="0.6"/>
<path d="M8.40351 6.32617C8.2312 6.32617 8.07456 6.40493 7.99624 6.54669C7.91792 6.68846 7.91792 6.87747 7.99624 7.01924C8.07456 7.161 8.24687 7.25551 8.40351 7.23976C8.65414 7.23976 8.85778 7.03499 8.85778 6.78296C8.84211 6.53094 8.63848 6.32617 8.40351 6.32617Z" fill="white" fill-opacity="0.6"/>
<path d="M10.095 5.12891C9.81305 5.12891 9.59375 5.34943 9.59375 5.63295C9.59375 5.91648 9.81305 6.137 10.095 6.137C10.377 6.137 10.5963 5.91648 10.5963 5.63295C10.5963 5.36518 10.377 5.12891 10.095 5.12891Z" fill="white" fill-opacity="0.6"/>
<path d="M12.7861 5.17788C12.8004 4.80407 12.5106 4.4894 12.1389 4.47505C11.7671 4.46069 11.4542 4.75209 11.4399 5.1259C11.4256 5.4997 11.7154 5.81437 12.0872 5.82873C12.4589 5.84308 12.7718 5.55169 12.7861 5.17788Z" fill="white" fill-opacity="0.6"/>
<path d="M14.1191 4.70312C13.6962 4.70312 13.3516 5.04966 13.3516 5.47495C13.3516 5.90024 13.6962 6.24677 14.1191 6.24677C14.5421 6.24677 14.8867 5.90024 14.8867 5.47495C14.8867 5.04966 14.5421 4.70312 14.1191 4.70312Z" fill="white" fill-opacity="0.6"/>
<path d="M15.9396 5.83789C15.4697 5.83789 15.0938 6.21593 15.0938 6.68847C15.0938 7.16101 15.4697 7.53905 15.9396 7.53905C16.4095 7.53905 16.7855 7.16101 16.7855 6.68847C16.7855 6.21593 16.4095 5.83789 15.9396 5.83789Z" fill="white" fill-opacity="0.6"/>
<path d="M17.1424 7.83789C16.7508 7.83789 16.4375 8.15292 16.4375 8.54671C16.4375 8.94049 16.7508 9.25552 17.1424 9.25552C17.534 9.25552 17.8473 8.94049 17.8473 8.54671C17.8473 8.15292 17.534 7.83789 17.1424 7.83789Z" fill="white" fill-opacity="0.6"/>
<path d="M15.2901 11.8232C15.5237 11.8232 15.7131 11.6328 15.7131 11.3979C15.7131 11.1631 15.5237 10.9727 15.2901 10.9727C15.0565 10.9727 14.8672 11.1631 14.8672 11.3979C14.8672 11.6328 15.0565 11.8232 15.2901 11.8232Z" fill="white" fill-opacity="0.6"/>
<path d="M14.4625 12.2969C14.1179 12.2969 13.8359 12.5804 13.8359 12.9269C13.8359 13.2735 14.1179 13.557 14.4625 13.557C14.8071 13.557 15.0891 13.2735 15.0891 12.9269C15.1047 12.5804 14.8228 12.2969 14.4625 12.2969Z" fill="white" fill-opacity="0.6"/>
<path d="M12.8532 13.1465C12.4929 13.1465 12.1953 13.4458 12.1953 13.808C12.1953 14.1703 12.4929 14.4696 12.8532 14.4696C13.2135 14.4696 13.5111 14.1703 13.5111 13.808C13.5111 13.4458 13.2135 13.1465 12.8532 13.1465Z" fill="white" fill-opacity="0.6"/>
<path d="M10.9429 13.0996C10.7392 13.0996 10.5356 13.2099 10.4416 13.3989C10.332 13.5879 10.332 13.8084 10.4416 13.9817C10.5513 14.1707 10.7392 14.281 10.9429 14.281C11.2718 14.281 11.5224 14.0132 11.5224 13.6982C11.5381 13.3674 11.2718 13.0996 10.9429 13.0996Z" fill="white" fill-opacity="0.6"/>
<path d="M9.53231 12.1387C9.29735 12.1387 9.10938 12.3277 9.10938 12.564C9.10938 12.8002 9.29735 12.9893 9.53231 12.9893C9.76727 12.9893 9.95525 12.8002 9.95525 12.564C9.97091 12.3434 9.76727 12.1387 9.53231 12.1387Z" fill="white" fill-opacity="0.6"/>
<path d="M8.96172 10.8945C8.78942 10.8945 8.64844 11.0363 8.64844 11.2096C8.64844 11.3828 8.78942 11.5246 8.96172 11.5246C9.13403 11.5246 9.27501 11.3828 9.27501 11.2096C9.27501 11.0363 9.13403 10.8945 8.96172 10.8945Z" fill="white" fill-opacity="0.6"/>
<path d="M8.93075 9.27148C8.69578 9.27148 8.50781 9.4605 8.50781 9.69677C8.50781 9.93305 8.69578 10.1221 8.93075 10.1221C9.16571 10.1221 9.35368 9.93305 9.35368 9.69677C9.35368 9.4605 9.16571 9.27148 8.93075 9.27148Z" fill="white" fill-opacity="0.6"/>
<path d="M9.7672 7.52344C9.42258 7.52344 9.14062 7.80696 9.14062 8.1535C9.14062 8.50003 9.42258 8.78356 9.7672 8.78356C10.1118 8.78356 10.3938 8.50003 10.3938 8.1535C10.3938 7.80696 10.1118 7.52344 9.7672 7.52344Z" fill="white" fill-opacity="0.6"/>
<path d="M11.3767 6.60938C11.0164 6.60938 10.7188 6.90865 10.7188 7.27094C10.7188 7.63322 11.0164 7.9325 11.3767 7.9325C11.7369 7.9325 12.0346 7.63322 12.0346 7.27094C12.0346 6.90865 11.7369 6.60938 11.3767 6.60938Z" fill="white" fill-opacity="0.6"/>
<path d="M13.2867 6.81445C13.0674 6.81445 12.8794 6.92471 12.7697 7.09798C12.6601 7.287 12.6601 7.50752 12.7697 7.69653C12.8794 7.88555 13.083 7.99581 13.2867 7.98006C13.5999 7.96431 13.8506 7.71228 13.8506 7.39726C13.8506 7.08223 13.5999 6.8302 13.2867 6.81445Z" fill="white" fill-opacity="0.6"/>
<path d="M14.6808 8.07422C14.4458 8.07422 14.2578 8.26324 14.2578 8.49951C14.2578 8.73578 14.4458 8.9248 14.6808 8.9248C14.9157 8.9248 15.1037 8.73578 15.1037 8.49951C15.1194 8.26324 14.9314 8.07422 14.6808 8.07422Z" fill="white" fill-opacity="0.6"/>
<path d="M15.282 9.57031C15.1097 9.57031 14.9688 9.71208 14.9688 9.88534C14.9688 10.0586 15.1097 10.2004 15.282 10.2004C15.4543 10.2004 15.5953 10.0586 15.5953 9.88534C15.5953 9.71208 15.4543 9.57031 15.282 9.57031Z" fill="white" fill-opacity="0.6"/>
<path d="M17.4232 10.0586C17.1256 10.0586 16.875 10.3106 16.875 10.6099C16.875 10.9092 17.1256 11.1612 17.4232 11.1612C17.7209 11.1612 17.9715 10.9092 17.9715 10.6099C17.9715 10.3106 17.7209 10.0586 17.4232 10.0586Z" fill="white" fill-opacity="0.6"/>
<path d="M19.6968 10.7363C19.3678 10.7363 19.1172 11.0041 19.1172 11.3191C19.1172 11.6499 19.3835 11.9019 19.6968 11.9019C20.0257 11.9019 20.2763 11.6342 20.2763 11.3191C20.2763 11.0041 20.0257 10.7363 19.6968 10.7363Z" fill="white" fill-opacity="0.6"/>
<path d="M19.1186 12.8008C18.8209 12.8008 18.5703 13.0528 18.5703 13.3521C18.5703 13.6514 18.8209 13.9034 19.1186 13.9034C19.4162 13.9034 19.6668 13.6514 19.6668 13.3521C19.6668 13.0528 19.4318 12.8008 19.1186 12.8008Z" fill="white" fill-opacity="0.6"/>
<path d="M18.1262 14.5332C17.8755 14.5332 17.6562 14.738 17.6562 15.0057C17.6562 15.2578 17.8599 15.4783 18.1262 15.4783C18.3768 15.4783 18.5804 15.2578 18.5804 15.0057C18.5804 14.7537 18.3768 14.549 18.1262 14.5332Z" fill="white" fill-opacity="0.6"/>
<path d="M16.9425 15.8242C16.8015 15.8242 16.6605 15.903 16.5822 16.029C16.5039 16.155 16.5039 16.3125 16.5822 16.4385C16.6605 16.5645 16.7858 16.6433 16.9425 16.6433C17.1618 16.6433 17.3497 16.47 17.3497 16.2338C17.3497 16.0132 17.1618 15.8242 16.9425 15.8242Z" fill="white" fill-opacity="0.6"/>
<path d="M15.6884 16.7695C15.5004 16.7695 15.3438 16.927 15.3438 17.1161C15.3438 17.3051 15.5004 17.4626 15.6884 17.4626C15.8763 17.4626 16.033 17.3051 16.033 17.1161C16.033 16.927 15.8763 16.7695 15.6884 16.7695Z" fill="white" fill-opacity="0.6"/>
<path d="M14.2588 17.3047C14.0395 17.3047 13.8516 17.478 13.8516 17.7142C13.8516 17.9347 14.0239 18.1238 14.2588 18.1238C14.4781 18.1238 14.6661 17.9505 14.6661 17.7142C14.6504 17.478 14.4781 17.3047 14.2588 17.3047Z" fill="white" fill-opacity="0.6"/>
<path d="M12.5871 17.5723C12.3365 17.5723 12.1172 17.777 12.1172 18.0448C12.1172 18.2968 12.3208 18.5174 12.5871 18.5174C12.8377 18.5174 13.057 18.3126 13.057 18.0448C13.0414 17.777 12.8377 17.5723 12.5871 17.5723Z" fill="white" fill-opacity="0.6"/>
<path d="M10.6734 17.3848C10.3444 17.3848 10.0781 17.6525 10.0781 17.9833C10.0781 18.3141 10.3444 18.5819 10.6734 18.5819C11.0023 18.5819 11.2686 18.3141 11.2686 17.9833C11.2686 17.6525 11.0023 17.3848 10.6734 17.3848Z" fill="white" fill-opacity="0.6"/>
<path d="M8.65021 16.6602C8.2586 16.6602 7.94531 16.9752 7.94531 17.369C7.94531 17.7628 8.2586 18.0778 8.65021 18.0778C9.04181 18.0778 9.3551 17.7628 9.3551 17.369C9.37076 16.9752 9.04181 16.6602 8.65021 16.6602Z" fill="white" fill-opacity="0.6"/>
<path d="M6.88495 15.3047C6.58733 15.3047 6.30537 15.4622 6.14873 15.7142C5.99209 15.982 5.99209 16.297 6.14873 16.5648C6.30537 16.8326 6.58733 16.9901 6.88495 16.9744C7.33922 16.9586 7.6995 16.5963 7.6995 16.1395C7.6995 15.6985 7.33922 15.3204 6.88495 15.3047Z" fill="white" fill-opacity="0.6"/>
<path d="M5.3929 13.2891C4.89165 13.2891 4.48438 13.6986 4.48438 14.2026C4.48438 14.7067 4.89165 15.1162 5.3929 15.1162C5.89416 15.1162 6.30143 14.7067 6.30143 14.2026C6.30143 13.6828 5.89416 13.2891 5.3929 13.2891Z" fill="white" fill-opacity="0.6"/>
<path d="M5.26984 11.9464C5.29805 11.5472 4.99912 11.2006 4.60216 11.1723C4.20521 11.1439 3.86054 11.4445 3.83233 11.8436C3.80412 12.2428 4.10305 12.5894 4.50001 12.6178C4.89696 12.6461 5.24163 12.3455 5.26984 11.9464Z" fill="white" fill-opacity="0.6"/>
<path d="M5.08791 9.74815C5.10561 9.42676 4.86086 9.15179 4.54125 9.13399C4.22164 9.11619 3.94819 9.3623 3.93049 9.6837C3.91279 10.0051 4.15753 10.2801 4.47715 10.2979C4.79676 10.3157 5.0702 10.0695 5.08791 9.74815Z" fill="white" fill-opacity="0.6"/>
<path d="M5.09512 7.12891C4.7975 7.12891 4.54688 7.38093 4.54688 7.68021C4.54688 7.97949 4.7975 8.23151 5.09512 8.23151C5.39275 8.23151 5.64337 7.97949 5.64337 7.68021C5.64337 7.38093 5.39275 7.12891 5.09512 7.12891Z" fill="white" fill-opacity="0.6"/>
<path d="M6.0832 5.57031C5.91089 5.57031 5.75425 5.64907 5.67593 5.80658C5.59761 5.94835 5.59761 6.13736 5.67593 6.27913C5.75425 6.42089 5.92656 6.5154 6.0832 6.5154C6.33383 6.5154 6.53746 6.29488 6.53746 6.04286C6.53746 5.77508 6.33383 5.57031 6.0832 5.57031Z" fill="white" fill-opacity="0.6"/>
<path d="M7.27446 4.4043C7.05516 4.4043 6.86719 4.57756 6.86719 4.81384C6.86719 5.03436 7.03949 5.22337 7.27446 5.22337C7.50942 5.22337 7.68173 5.05011 7.68173 4.81384C7.68173 4.59331 7.49376 4.4043 7.27446 4.4043Z" fill="white" fill-opacity="0.6"/>
<path d="M8.5243 3.58594C8.33633 3.58594 8.17969 3.74345 8.17969 3.93247C8.17969 4.12149 8.33633 4.279 8.5243 4.279C8.71227 4.279 8.86892 4.12149 8.86892 3.93247C8.86892 3.7277 8.71227 3.58594 8.5243 3.58594Z" fill="white" fill-opacity="0.6"/>
<path d="M9.95415 2.93945C9.73485 2.93945 9.54688 3.11272 9.54688 3.34899C9.54688 3.56951 9.71918 3.75853 9.95415 3.75853C10.1734 3.75853 10.3614 3.58526 10.3614 3.34899C10.3614 3.11272 10.1734 2.93945 9.95415 2.93945Z" fill="white" fill-opacity="0.6"/>
<path d="M11.6301 2.5293C11.4578 2.5293 11.3011 2.60805 11.2228 2.76557C11.1445 2.90733 11.1445 3.09635 11.2228 3.23811C11.3011 3.37988 11.4734 3.47439 11.6301 3.47439C11.8807 3.47439 12.0843 3.25386 12.0843 3.00184C12.0843 2.74982 11.8807 2.54505 11.6301 2.5293Z" fill="white" fill-opacity="0.6"/>
<path d="M13.5367 2.45117C13.3174 2.45117 13.1138 2.56143 13.0041 2.75045C12.8945 2.93947 12.8945 3.17574 13.0041 3.36476C13.1138 3.55378 13.3174 3.66404 13.5367 3.66404C13.8657 3.66404 14.1319 3.38051 14.1319 3.04973C14.1319 2.71895 13.8657 2.45117 13.5367 2.45117Z" fill="white" fill-opacity="0.6"/>
<path d="M15.494 2.9082C15.1024 2.9082 14.7734 3.22323 14.7734 3.63277C14.7734 4.02656 15.0867 4.35734 15.494 4.35734C15.8856 4.35734 16.2146 4.04231 16.2146 3.63277C16.2146 3.23898 15.8856 2.9082 15.494 2.9082Z" fill="white" fill-opacity="0.6"/>
<path d="M17.3458 4.04297C16.8759 4.04297 16.5156 4.421 16.5156 4.8778C16.5156 5.33459 16.8916 5.71263 17.3458 5.71263C17.8158 5.71263 18.176 5.33459 18.176 4.8778C18.176 4.421 17.8001 4.04297 17.3458 4.04297Z" fill="white" fill-opacity="0.6"/>
<path d="M18.8187 5.93164C18.4898 5.93164 18.1922 6.10491 18.0199 6.38843C17.8475 6.67196 17.8475 7.01849 18.0199 7.30202C18.1922 7.58555 18.4898 7.75881 18.8187 7.75881C19.32 7.74306 19.7116 7.34927 19.7116 6.84523C19.6959 6.35693 19.3043 5.94739 18.8187 5.93164Z" fill="white" fill-opacity="0.6"/>
<path d="M19.6502 8.4375C19.3996 8.4375 19.149 8.56351 19.0237 8.78403C18.8984 9.00455 18.8984 9.28808 19.0237 9.5086C19.149 9.72912 19.3996 9.87089 19.6502 9.85513C20.0418 9.83938 20.3395 9.52435 20.3395 9.14632C20.3395 8.76828 20.0418 8.45325 19.6502 8.4375Z" fill="white" fill-opacity="0.6"/>
<path d="M23.295 10.5155C23.295 11.177 22.7624 11.7126 22.1045 11.7126C21.4466 11.7126 20.9141 11.177 20.9141 10.5155C20.9141 9.85391 21.4466 9.31836 22.1045 9.31836C22.7624 9.33411 23.295 9.86966 23.295 10.5155Z" fill="white" fill-opacity="0.6"/>
<path d="M81.9141 12.3582C81.9141 11.2241 81.2719 10.6255 80.2694 10.216C79.4862 9.90094 78.797 9.63317 78.2644 9.41265C77.7474 9.20788 77.2932 8.84559 77.2932 8.45181C77.2932 7.91626 77.9511 7.60123 78.8283 7.60123C79.8621 7.60123 80.6767 7.74299 81.4442 7.82175H81.4755C81.6009 7.82175 81.6792 7.72724 81.6792 7.60123V6.71914C81.6792 6.60888 81.5852 6.51437 81.4599 6.49862C81.0526 6.40411 80.0188 6.18359 78.8909 6.18359C76.6979 6.18359 75.6484 7.12868 75.6484 8.45181C75.6484 9.28664 76.0087 10.1057 77.0426 10.531C78.0764 10.9563 80.1911 11.4603 80.1911 12.3424C80.1911 13.0355 79.8778 13.4135 78.8126 13.4135C77.7161 13.4135 76.604 13.256 76.134 13.193H76.1027C75.9774 13.193 75.8834 13.2875 75.8834 13.4135V14.2641C75.8834 14.3901 75.9931 14.4846 76.1027 14.5004C76.6666 14.6264 77.7318 14.8154 78.7813 14.8154C81.1779 14.8469 81.9141 13.5553 81.9141 12.3582Z" fill="white" fill-opacity="0.6"/>
<path d="M58.7275 7.66543H56.3622V14.5016C56.3622 14.6276 56.2526 14.7378 56.1272 14.7378H54.9524C54.8271 14.7378 54.7175 14.6276 54.7175 14.5016V7.66543H52.3522C52.2268 7.66543 52.1172 7.58667 52.1172 7.44491V6.49982C52.1172 6.37381 52.2268 6.2793 52.3522 6.2793H58.7275C58.8528 6.2793 58.9625 6.37381 58.9625 6.49982V7.44491C58.9625 7.58667 58.8528 7.66543 58.7275 7.66543Z" fill="white" fill-opacity="0.6"/>
<path d="M51.0881 11.4772V6.51544C51.0881 6.38943 50.9784 6.29492 50.8531 6.29492H49.6783C49.553 6.29492 49.4433 6.38943 49.4433 6.51544V11.4614C49.4433 12.816 48.8168 13.4618 47.5479 13.4618C46.2791 13.4618 45.6526 12.816 45.6526 11.4614V6.51544C45.6526 6.38943 45.5429 6.29492 45.4176 6.29492H44.2428C44.1175 6.29492 44.0078 6.38943 44.0078 6.51544V11.4614C44.0078 13.9974 45.6526 14.8322 47.5479 14.8322C49.4433 14.8322 51.0881 14.0131 51.0881 11.4772Z" fill="white" fill-opacity="0.6"/>
<path d="M61.6916 11.0684H65.4824C65.6077 11.0684 65.7173 10.9581 65.7173 10.8321V9.96578C65.7173 9.83976 65.6077 9.7295 65.4824 9.7295H61.6916V8.64265C61.6916 7.65031 61.7229 7.61881 62.6314 7.61881H65.6233C65.7486 7.61881 65.8583 7.50855 65.8583 7.38253V6.62646C65.8583 6.4532 65.7956 6.40594 65.6233 6.37444C65.2474 6.31143 64.4798 6.20117 63.07 6.20117C61.112 6.20117 60.0625 6.18542 60.0625 8.64265V12.4073C60.0625 14.8645 61.112 14.8487 63.07 14.8487C64.4798 14.8487 65.2474 14.7385 65.6233 14.6755C65.7956 14.6597 65.8583 14.5967 65.8583 14.4234V13.6674C65.8583 13.5414 65.7486 13.4311 65.6233 13.4311H62.6314C61.7386 13.4311 61.6916 13.3996 61.6916 12.4073V11.0684Z" fill="white" fill-opacity="0.6"/>
<path d="M38.301 11.0684H42.0917C42.217 11.0684 42.3267 10.9581 42.3267 10.8321V9.96578C42.3267 9.83976 42.217 9.7295 42.0917 9.7295H38.301V8.64265C38.301 7.65031 38.3323 7.61881 39.2408 7.61881H42.2327C42.358 7.61881 42.4677 7.50855 42.4677 7.38253V6.62646C42.4677 6.4532 42.405 6.40594 42.2327 6.37444C41.8568 6.31143 41.0892 6.20117 39.6794 6.20117C37.7214 6.20117 36.6719 6.18542 36.6719 8.64265V12.4073C36.6719 14.8645 37.7214 14.8487 39.6794 14.8487C41.0892 14.8487 41.8568 14.7385 42.2327 14.6755C42.405 14.6597 42.4677 14.5967 42.4677 14.4234V13.6674C42.4677 13.5414 42.358 13.4311 42.2327 13.4311H39.2408C38.348 13.4311 38.301 13.3996 38.301 12.4073V11.0684Z" fill="white" fill-opacity="0.6"/>
<path d="M74.658 14.5022L72.8096 11.3204C73.7808 10.9424 74.4074 10.2493 74.4074 8.98918V8.89467C74.4074 6.86273 72.7313 6.20117 70.8986 6.20117C70.0371 6.20117 68.7056 6.26418 68.0947 6.35869C67.8597 6.39019 67.7188 6.4847 67.7188 6.72097V14.518C67.7188 14.644 67.8284 14.7542 67.9537 14.7542H69.1442C69.2695 14.7542 69.3635 14.644 69.3635 14.518V11.5724C69.6298 11.5882 70.5853 11.6197 70.8986 11.6197H71.1649L72.8723 14.5022C72.935 14.6125 72.9819 14.7385 73.1073 14.7385H74.5484C74.6424 14.7385 74.6894 14.6755 74.6894 14.5967C74.6894 14.5652 74.6737 14.5337 74.658 14.5022ZM72.7626 8.98918C72.7626 10.0288 72.1047 10.2651 70.8829 10.2651C70.6793 10.2651 69.5358 10.2335 69.3478 10.2335V7.66606C69.5515 7.63456 70.6323 7.6188 70.8829 7.6188C72.0734 7.6188 72.7626 7.99684 72.7626 8.89467V8.98918Z" fill="white" fill-opacity="0.6"/>
<path d="M35.3924 14.5022L33.5284 11.3204C34.4996 10.9424 35.1261 10.2493 35.1261 8.98918V8.89467C35.1261 6.86273 33.4501 6.20117 31.6173 6.20117C30.7558 6.20117 29.4244 6.26418 28.8134 6.35869C28.5785 6.39019 28.4375 6.4847 28.4375 6.72097V14.518C28.4375 14.644 28.5471 14.7542 28.6725 14.7542H29.863C29.9883 14.7542 30.0822 14.644 30.0822 14.518V11.5724C30.3485 11.5882 31.3041 11.6197 31.6173 11.6197H31.8836L33.591 14.5022C33.6537 14.6125 33.7007 14.7385 33.826 14.7385H35.2671C35.3611 14.7385 35.4081 14.6755 35.4081 14.5967C35.4081 14.5652 35.4081 14.5337 35.3924 14.5022ZM33.4971 8.98918C33.4971 10.0288 32.8392 10.2651 31.633 10.2651C31.4294 10.2651 30.2859 10.2335 30.0979 10.2335V7.66606C30.3016 7.63456 31.3824 7.6188 31.633 7.6188C32.8235 7.6188 33.4971 7.99684 33.4971 8.89467V8.98918Z" fill="white" fill-opacity="0.6"/>
</g>
<defs>
<clipPath id="clip0_7969_30063">
<rect width="81" height="20.5714" fill="white" transform="translate(0.914062 0.230469)"/>
</clipPath>
</defs>
</svg>
