<svg width="80" height="14" viewBox="0 0 80 14" fill="none" xmlns="http://www.w3.org/2000/svg">
<g opacity="0.6">
<g clip-path="url(#clip0_7969_30024)">
<path d="M77.9373 11.8373C77.3059 12.5056 76.59 12.9041 75.692 13.086C75.0859 13.2094 74.5551 13.2353 73.9389 13.171C73.1224 13.0865 72.4486 12.8225 71.7914 12.3275C71.2539 11.9242 70.869 11.4878 70.5328 10.9031C70.2734 10.4504 70.1222 10.0269 70.0383 9.51132C69.9205 8.79599 69.9515 8.1666 70.1384 7.46712C70.5657 5.87612 71.7547 4.7484 73.3571 4.41282C74.2723 4.22127 75.0859 4.24095 75.9906 4.47619C76.6349 4.64374 77.1466 4.92603 77.634 5.38259C77.9416 5.66968 78.16 5.95821 78.3537 6.33172C78.583 6.7734 78.6756 7.20259 78.6493 7.69996H75.7912C75.7292 7.31445 75.5456 7.0072 75.237 6.771C74.8374 6.46422 74.3219 6.43974 73.8945 6.7057C73.6027 6.88862 73.411 7.1373 73.3075 7.46712C73.0614 8.25302 73.0504 8.98419 73.2698 9.77777C73.3633 10.1114 73.5202 10.3731 73.771 10.6112C74.0567 10.8858 74.4129 10.9986 74.804 10.9405C75.0463 10.905 75.2432 10.7984 75.4063 10.6136C75.5776 10.423 75.6753 10.2185 75.7202 9.96548C75.7516 9.78737 75.7693 9.63662 75.7788 9.45611H78.7919C78.852 10.3707 78.564 11.1739 77.9373 11.8373" fill="white"/>
<path d="M66.4297 3.37109H69.5554V1.14828H66.4297V3.37109Z" fill="white"/>
<path d="M66.4297 12.9277H69.5554V4.51322H66.4297V12.9277Z" fill="white"/>
<path d="M59.9533 5.4024C60.3644 5.04042 60.7564 4.78502 61.2524 4.55409C62.0598 4.17867 62.8672 4.1177 63.7213 4.36878C64.6375 4.63907 65.2975 5.28766 65.5865 6.20415C65.7253 6.64438 65.7854 7.03517 65.7854 7.49701V12.9277H62.4656V8.04383C62.4656 7.8806 62.4461 7.74234 62.3974 7.58583C62.3125 7.30546 62.1285 7.09902 61.8595 6.98476C61.271 6.7332 60.6019 6.95596 60.279 7.51094C60.144 7.74234 60.0825 7.97038 60.0825 8.23923V12.9277H56.8672V4.51281H59.8836L59.9533 5.4024" fill="white"/>
<path d="M22.9845 5.4024C23.3956 5.04042 23.7876 4.78502 24.2827 4.55409C25.0906 4.17867 25.8984 4.1177 26.7521 4.36878C27.6687 4.63907 28.3288 5.28766 28.6178 6.20415C28.7566 6.64438 28.8166 7.03517 28.8166 7.49701V12.9277H25.4969V8.04383C25.4969 7.8806 25.4764 7.74234 25.4292 7.58583C25.3433 7.30546 25.1592 7.09902 24.8898 6.98476C24.3017 6.7332 23.6326 6.95596 23.3102 7.51094C23.1748 7.74234 23.1133 7.97038 23.1133 8.23923V12.9277H19.8984V4.51281H22.9144L22.9845 5.4024" fill="white"/>
<path d="M42.6959 9.83458C42.9353 9.87538 43.1356 9.92579 43.3655 10.0031C43.5576 10.0665 43.6897 10.2162 43.7317 10.4145C43.7775 10.631 43.7169 10.8365 43.5624 10.9925C43.4055 11.1524 43.2267 11.2446 43.0063 11.2792C42.7116 11.3267 42.4503 11.3022 42.1694 11.1995C42.0334 11.1505 41.9257 11.0886 41.8141 10.9959C41.6705 10.874 41.578 10.7343 41.5222 10.5537C41.4755 10.4006 41.4569 10.2652 41.4597 10.1049H38.3984V10.2844C38.3984 10.5744 38.4433 10.8202 38.5444 11.0914C38.6979 11.4995 38.9083 11.8149 39.2259 12.1126C39.6403 12.5029 40.0729 12.7463 40.618 12.9033C41.7497 13.2278 42.7688 13.2921 43.932 13.1126C44.4776 13.0286 44.9278 12.8807 45.4185 12.6248C45.6346 12.512 45.8077 12.3953 45.9942 12.2379C46.8211 11.5389 47.1278 10.4721 46.7973 9.43755C46.6723 9.04772 46.4749 8.74718 46.1673 8.47834C45.7457 8.11059 45.3189 7.87631 44.7828 7.71884C44.6655 7.68476 44.5654 7.65595 44.4471 7.6233C43.7913 7.43991 43.2281 7.31893 42.5547 7.21811C42.3744 7.19123 42.2228 7.16194 42.0449 7.12018C41.9629 7.10049 41.8947 7.07745 41.8184 7.0424C41.63 6.95695 41.5465 6.73371 41.6314 6.54455C41.6362 6.53447 41.6405 6.52535 41.6457 6.51575C41.7468 6.3338 41.8966 6.21522 42.094 6.15713C42.4436 6.05535 42.7655 6.06399 43.1084 6.18161C43.4375 6.29443 43.644 6.59832 43.6297 6.94831H46.5793C46.5765 6.58344 46.5212 6.27523 46.3991 5.93245C46.2741 5.58486 46.0843 5.32034 45.7958 5.09134C45.5449 4.89066 45.3069 4.75432 45.0079 4.63766C44.717 4.52388 44.4604 4.45282 44.1528 4.39857C43.4217 4.27183 42.7927 4.23487 42.0525 4.27903C41.6295 4.30352 41.2728 4.35633 40.8588 4.45378C40.3018 4.58581 39.853 4.80233 39.4028 5.15759C39.0203 5.45956 38.77 5.81242 38.6097 6.27427C38.5367 6.48358 38.5019 6.66938 38.4924 6.88974C38.4757 7.25892 38.5286 7.57338 38.6646 7.91664C38.9078 8.53115 39.3399 8.96658 39.9513 9.21191C40.2608 9.33625 40.5321 9.41786 40.8588 9.48507C41.5026 9.61902 42.0477 9.7232 42.6959 9.83458" fill="white"/>
<path d="M6.09465 9.29925H3.94951V6.53829H5.34351C5.6082 6.53829 5.83235 6.53204 6.09703 6.51716C6.46377 6.497 6.76852 6.33185 6.98694 6.03468C7.10283 5.87673 7.16817 5.71734 7.19583 5.52243C7.21872 5.35824 7.22206 5.21805 7.20585 5.05386C7.14623 4.43935 6.64071 3.97847 6.02788 3.97847H3.94951V12.9277H0.398438V1.14741H6.2029C6.43373 1.14741 6.62878 1.15173 6.85913 1.1647C8.39907 1.24775 9.66765 2.10854 10.3201 3.51519C10.6596 4.24732 10.775 4.95113 10.6878 5.75479C10.5037 7.44661 9.32809 8.76252 7.67655 9.1269C7.12906 9.24788 6.65501 9.29925 6.09465 9.29925" fill="white"/>
<path d="M52.7109 4.3527C52.3804 4.29989 52.0981 4.27828 51.7637 4.27828C51.4289 4.27828 51.1471 4.29989 50.8161 4.3527C49.8566 4.50392 49.0792 4.89231 48.3786 5.56923C47.6289 6.29464 47.2183 7.15303 47.1244 8.19529C47.0671 8.83525 47.1163 9.38686 47.2875 10.0057C47.5498 10.9553 48.0424 11.6889 48.8198 12.288C49.3315 12.6841 49.8404 12.9212 50.4708 13.0595C50.9187 13.1584 51.3054 13.1992 51.7637 13.1992C52.2216 13.1992 52.6088 13.1584 53.0571 13.0595C53.6871 12.9212 54.196 12.6841 54.7077 12.288L52.9117 10.3177C52.626 10.9563 51.882 11.241 51.2472 10.9534C50.9549 10.8209 50.7474 10.6125 50.6153 10.3177C50.4937 10.0455 50.4227 9.80166 50.3788 9.50593C50.2901 8.91494 50.3001 8.40173 50.415 7.81459C50.4737 7.50973 50.5748 7.26105 50.7436 7.00132C51.1128 6.43434 51.8682 6.27591 52.4324 6.64702C52.5797 6.74448 52.6875 6.85298 52.7834 7.00132C52.9527 7.26105 53.0538 7.50973 53.1124 7.81459C53.2259 8.40173 53.2374 8.91494 53.1487 9.50593C53.1043 9.80166 53.0333 10.0455 52.9117 10.3177L54.7077 12.288C55.4855 11.6889 55.9782 10.9553 56.24 10.0057C56.4112 9.38686 56.4599 8.83525 56.4031 8.19529C56.3092 7.15303 55.8995 6.29464 55.1493 5.56923C54.4483 4.89135 53.6714 4.50392 52.7109 4.3527" fill="white"/>
<path d="M38.0386 12.2695C37.9919 11.5762 37.9657 10.9891 37.9518 10.2935C37.9337 9.37937 37.9227 8.60836 37.9165 7.69475C37.9127 7.20171 37.8588 6.78547 37.7363 6.30827C37.5755 5.68272 37.2117 5.20744 36.6513 4.89154C36.3127 4.70095 36.0022 4.58381 35.6236 4.50123C34.4179 4.24151 33.3539 4.2199 32.1393 4.4321C31.7978 4.49163 31.5155 4.5742 31.195 4.70767C30.4548 5.01588 29.945 5.57758 29.7075 6.34716C29.6164 6.64145 29.5921 6.90838 29.6269 7.21515C29.6336 7.27132 29.6474 7.31885 29.6727 7.37022L32.4855 7.43935C32.4783 7.25884 32.5017 7.10617 32.5623 6.9367C32.6543 6.67842 32.8355 6.49502 33.0921 6.40093C33.4694 6.26122 33.8328 6.25594 34.2152 6.38172C34.4666 6.46478 34.6449 6.64721 34.7231 6.90117C34.7723 7.06008 34.7479 7.21659 34.6526 7.35245C34.5696 7.47248 34.467 7.55313 34.3311 7.60546C34.2472 7.63762 34.1757 7.66115 34.0898 7.68419C33.6987 7.79029 33.3649 7.86327 32.9657 7.93C32.6495 7.98233 32.3834 8.03177 32.0701 8.09611C31.6442 8.18108 31.2884 8.27518 30.8759 8.4096C30.4982 8.5325 30.2006 8.70725 29.9087 8.97754C29.5291 9.32704 29.3121 9.74136 29.2396 10.2555C29.192 10.5983 29.2029 10.8969 29.2783 11.2344C29.4752 12.112 30.0804 12.7611 30.9393 13.0127C31.8913 13.2906 32.7845 13.245 33.7035 12.8715C34.1509 12.6905 34.4914 12.4394 34.799 12.0659L34.6006 10.6194C34.4589 10.8403 34.283 10.991 34.045 11.0966C33.8218 11.196 33.6201 11.2483 33.3773 11.2733C33.1751 11.2935 32.9996 11.2786 32.8036 11.2234C32.6443 11.1792 32.5198 11.1043 32.4068 10.9833C32.3114 10.8796 32.2547 10.7683 32.2256 10.63C32.1812 10.4178 32.2504 10.2138 32.4149 10.0731C32.5251 9.97852 32.6329 9.91515 32.7678 9.86522C33.0945 9.74424 33.3735 9.6535 33.7078 9.55796C34.1122 9.44322 34.447 9.31888 34.8285 9.14221C34.8662 9.44995 34.8643 9.71351 34.8219 10.0198C34.7909 10.2445 34.7231 10.4293 34.6006 10.6194L34.799 12.0659C34.8605 12.2714 34.9173 12.4433 34.9869 12.6444C35.0265 12.7572 35.078 12.8446 35.1562 12.9325H38.2547C38.1226 12.7236 38.0553 12.5172 38.0386 12.2695" fill="white"/>
<path d="M19.2732 12.2695C19.2264 11.5762 19.2002 10.9891 19.1864 10.2935C19.1678 9.37937 19.1573 8.60836 19.1511 7.69475C19.1477 7.20171 19.0939 6.78547 18.9708 6.30827C18.8101 5.68272 18.4467 5.20744 17.8858 4.89154C17.5472 4.70095 17.2368 4.58381 16.8581 4.50123C15.6525 4.24151 14.5885 4.2199 13.3733 4.4321C13.0328 4.49163 12.7495 4.5742 12.4295 4.70767C11.6894 5.01588 11.1795 5.57758 10.942 6.34716C10.8514 6.64145 10.8266 6.90838 10.8619 7.21515C10.8681 7.27132 10.882 7.31885 10.9072 7.37022L13.72 7.43935C13.7134 7.25884 13.7363 7.10617 13.7968 6.9367C13.8889 6.67842 14.0701 6.49502 14.3267 6.40093C14.7044 6.26122 15.0673 6.25594 15.4493 6.38172C15.7011 6.46478 15.88 6.64721 15.9587 6.90117C16.0068 7.06008 15.9825 7.21659 15.8871 7.35245C15.8037 7.47248 15.7011 7.55313 15.5657 7.60546C15.4817 7.63762 15.4102 7.66115 15.3239 7.68419C14.9333 7.79029 14.599 7.86327 14.2003 7.93C13.8846 7.98233 13.618 8.03177 13.3042 8.09611C12.8788 8.18108 12.5235 8.27518 12.11 8.4096C11.7332 8.5325 11.4356 8.70725 11.1433 8.97754C10.7637 9.32704 10.5472 9.74136 10.4742 10.2555C10.426 10.5983 10.4375 10.8969 10.5133 11.2344C10.7093 12.112 11.3155 12.7611 12.1734 13.0127C13.1263 13.2906 14.0186 13.245 14.9381 12.8715C15.3849 12.6905 15.7264 12.4394 16.034 12.0659L15.8356 10.6194C15.694 10.8403 15.5175 10.991 15.2791 11.0966C15.0563 11.196 14.8541 11.2483 14.6123 11.2733C14.4092 11.2935 14.2346 11.2786 14.0381 11.2234C13.8789 11.1792 13.7544 11.1043 13.6418 10.9833C13.546 10.8796 13.4892 10.7683 13.4601 10.63C13.4163 10.4178 13.4849 10.2138 13.6495 10.0731C13.7591 9.97852 13.8669 9.91515 14.0024 9.86522C14.3291 9.74424 14.6085 9.6535 14.9428 9.55796C15.3473 9.44322 15.6816 9.31888 16.0636 9.14221C16.1008 9.44995 16.0989 9.71351 16.0564 10.0198C16.0254 10.2445 15.9572 10.4293 15.8356 10.6194L16.034 12.0659C16.0951 12.2714 16.1518 12.4433 16.2219 12.6444C16.261 12.7572 16.3125 12.8446 16.3907 12.9325H19.4892C19.3571 12.7236 19.2903 12.5172 19.2732 12.2695" fill="white"/>
</g>
</g>
<defs>
<clipPath id="clip0_7969_30024">
<rect width="79.0406" height="12.6926" fill="white" transform="translate(0.0859375 0.832031)"/>
</clipPath>
</defs>
</svg>
