<svg width="110" height="62" viewBox="0 0 110 62" fill="none" xmlns="http://www.w3.org/2000/svg">
<path d="M1.58984 11.001C1.58984 5.47813 6.067 1.00098 11.5898 1.00098H98.4079C103.931 1.00098 108.408 5.47813 108.408 11.001V51.001C108.408 56.5238 103.931 61.001 98.4079 61.001H11.5898C6.06699 61.001 1.58984 56.5238 1.58984 51.001V11.001Z" fill="#071A59"/>
<path d="M11.5898 0.500977C5.79085 0.500977 1.08984 5.20199 1.08984 11.001V51.001C1.08984 56.8 5.79085 61.501 11.5898 61.501H98.4079C104.207 61.501 108.908 56.8 108.908 51.001V11.001C108.908 5.20199 104.207 0.500977 98.4079 0.500977H11.5898Z" stroke="white" stroke-opacity="0.09"/>
<path d="M42.8235 25.3264C43.1307 25.5241 43.6065 25.6928 44.1943 25.8056C44.7822 25.9743 45.3977 26.0022 46.0422 26.0022C46.6578 26.0022 47.2179 25.9185 47.7215 25.7765C48.225 25.6079 48.6731 25.3834 49.0646 25.1007C49.4284 24.8191 49.7368 24.4818 49.9331 24.0305C50.1283 23.6082 50.2403 23.158 50.2403 22.6229C50.2403 22.0029 50.0452 21.4399 49.6814 20.9327C49.3176 20.4534 48.7008 20.059 47.8335 19.7775L46.1543 19.2145C45.5387 19.0179 45.0629 18.7923 44.8099 18.5387C44.587 18.313 44.4461 18.0315 44.4461 17.665C44.4461 17.187 44.6424 16.7926 45.0062 16.5948C45.3977 16.3703 45.9025 16.2296 46.6024 16.2296C47.4697 16.2296 48.1973 16.3983 48.9249 16.7077C49.1212 16.7926 49.2887 16.8775 49.4007 16.8775C49.5971 16.8775 49.6814 16.7647 49.6814 16.4832V16.0039C49.6814 15.8352 49.6525 15.6945 49.5694 15.6096C49.485 15.4967 49.373 15.3839 49.2056 15.3001C49.0935 15.2152 48.8972 15.1303 48.7008 15.1024C48.5057 15.0186 48.2816 14.9895 48.0298 14.9058C47.8058 14.8767 47.5251 14.7929 47.2456 14.7929C46.9662 14.708 46.6855 14.708 46.4337 14.708C45.8736 14.708 45.4267 14.7929 44.9508 14.9058C44.475 15.0744 44.0546 15.271 43.6908 15.5246C43.327 15.8061 43.0752 16.1167 42.8235 16.5111C42.5994 16.9054 42.5151 17.3277 42.5151 17.8628C42.5151 18.4828 42.7115 19.0738 43.103 19.6089C43.4945 20.1719 44.1112 20.5662 45.034 20.8198L46.7698 21.3828C47.3577 21.5806 47.7492 21.7772 47.9732 22.0029C48.1973 22.2286 48.2816 22.5101 48.2816 22.8195C48.2816 23.2988 48.0853 23.6931 47.666 23.9746C47.2456 24.2561 46.6855 24.369 45.9025 24.369C45.4267 24.369 44.9508 24.3411 44.5027 24.2003C44.0269 24.1154 43.6065 23.9746 43.1596 23.7769C43.0475 23.749 42.9355 23.6931 42.8512 23.6652C42.7669 23.6361 42.6825 23.6361 42.6271 23.6361C42.4308 23.6361 42.3477 23.749 42.3477 24.0305V24.6226C42.3477 24.7354 42.3754 24.8471 42.4308 24.989C42.5151 25.1298 42.6271 25.2135 42.8235 25.3264Z" fill="white"/>
<path d="M22.5605 19.4955C22.1401 19.4105 21.6922 19.4105 21.3003 19.4105C20.0967 19.4105 19.1169 19.7212 18.3613 20.3691C17.6055 20.9879 17.2695 21.8337 17.2695 22.8468C17.2695 23.8333 17.5495 24.5929 18.1373 25.185C18.7251 25.776 19.5089 26.0575 20.5166 26.0575C21.9161 26.0575 23.0917 25.4945 24.0434 24.3963C24.1554 24.6779 24.2674 24.9035 24.4071 25.1001C24.5469 25.2979 24.6878 25.4945 24.8276 25.6631C24.9396 25.776 25.0516 25.833 25.1914 25.833C25.2745 25.833 25.3865 25.8051 25.4985 25.7201L26.255 25.2129C26.4225 25.1001 26.4791 24.9873 26.4791 24.8465C26.4791 24.7628 26.4502 24.6778 26.3948 24.565C26.2273 24.2556 26.0864 23.9741 26.0033 23.6926C25.919 23.4111 25.8912 23.0725 25.8912 22.6224V18.6789C25.8912 17.383 25.5829 16.3977 24.9107 15.7218C24.2397 15.046 23.2314 14.7354 21.7761 14.7354C21.1043 14.7354 20.4885 14.8203 19.9008 14.961C19.3409 15.1297 18.8371 15.2704 18.4172 15.524C18.2493 15.609 18.1373 15.6927 18.1093 15.7497C18.0253 15.8347 18.0253 15.9754 18.0253 16.172V16.7641C18.0253 16.9886 18.1093 17.1573 18.2493 17.1573C18.2772 17.1573 18.3613 17.1573 18.4452 17.1294C18.5292 17.1015 18.6692 17.0456 18.8651 16.9607C19.285 16.792 19.7327 16.6513 20.1527 16.5664C20.5725 16.4535 21.0204 16.3977 21.4403 16.3977C22.3918 16.3977 23.0074 16.5943 23.4001 16.9607C23.7916 17.3271 23.959 17.9751 23.959 18.9046V19.777C23.4555 19.6641 23.0363 19.5804 22.5605 19.4955ZM23.9313 21.6359C23.9313 22.0302 23.9036 22.3967 23.8193 22.6503C23.735 22.9318 23.6242 23.2133 23.4278 23.4111C23.1194 23.7763 22.7279 24.0299 22.28 24.1707C21.8601 24.3405 21.4122 24.3963 21.0204 24.3963C20.4606 24.3963 20.0406 24.2277 19.7608 23.9741C19.4809 23.6926 19.3409 23.2691 19.3409 22.7061C19.3409 22.1152 19.5369 21.6359 19.9287 21.3265C20.3206 21.0171 20.9085 20.8472 21.6922 20.8472C22.0561 20.8472 22.4484 20.8751 22.8399 20.9321C23.2314 20.96 23.5952 21.045 23.9313 21.1287V21.6359Z" fill="white"/>
<path d="M29.978 25.1291C30.0611 25.3536 30.1454 25.5235 30.202 25.6072C30.2851 25.6922 30.4261 25.7201 30.6779 25.7201H31.6849C31.909 25.7201 32.0764 25.6922 32.1608 25.6072C32.2451 25.5235 32.3294 25.3827 32.3848 25.1291L34.2327 17.355L36.1083 25.1291C36.136 25.3536 36.2191 25.5235 36.3311 25.6072C36.4155 25.6922 36.6118 25.7201 36.807 25.7201H37.8152C38.0116 25.7201 38.179 25.6922 38.2911 25.6072C38.3754 25.5235 38.4874 25.3827 38.5151 25.1291L41.4255 15.8346C41.4544 15.7218 41.5098 15.6089 41.5098 15.5531C41.5098 15.4682 41.5375 15.4403 41.5375 15.3553C41.5375 15.1587 41.4544 15.0738 41.258 15.0738H40.1667C39.9426 15.0738 39.7752 15.1017 39.6908 15.1866C39.6065 15.2716 39.5222 15.4124 39.4668 15.6647L37.3948 23.7483L35.4638 15.6368C35.4361 15.4123 35.3518 15.2425 35.2398 15.1587C35.1554 15.0738 34.9603 15.0459 34.7639 15.0459H33.7846C33.5605 15.0459 33.3931 15.0738 33.3087 15.1587C33.2244 15.2425 33.1401 15.3832 33.0847 15.6368L31.2091 23.6076L29.2215 15.6368C29.1384 15.4123 29.054 15.2425 28.9974 15.1587C28.9143 15.0738 28.7746 15.0459 28.5216 15.0459H27.3471C27.1507 15.0459 27.0664 15.1296 27.0664 15.3274C27.0664 15.4124 27.0941 15.5531 27.1784 15.8067L29.978 25.1291Z" fill="white"/>
<path d="M47.7264 30.959C43.3307 32.8458 38.5171 33.7474 34.178 33.7474C27.7116 33.7474 21.4422 31.9722 16.3758 28.9873C15.956 28.7058 15.5921 29.1838 15.9839 29.5503C20.6864 33.8032 26.872 36.3659 33.7865 36.3659C38.6845 36.3659 44.3944 34.8176 48.3697 31.8594C48.9298 31.4092 48.3974 30.7054 47.7264 30.959Z" fill="#FF9900"/>
<path d="M45.2617 29.3246C44.8979 29.5503 44.9822 29.9167 45.346 29.8876C46.6048 29.7189 49.4598 29.3816 49.9368 30.0575C50.4403 30.6763 49.3766 33.3809 48.9285 34.5919C48.7611 34.9583 49.096 35.0991 49.4321 34.8164C51.5594 33.0424 52.0919 29.2966 51.6714 28.7895C51.2233 28.1694 47.5011 27.7472 45.2617 29.3246Z" fill="#FF9900"/>
<path d="M61.0776 23.2405C60.9945 23.2405 60.9102 23.2126 60.9102 23.0719V16.5657C60.9102 16.4808 60.9379 16.397 61.0776 16.397H61.274C61.386 16.397 61.4414 16.4249 61.4414 16.5657L61.4703 16.96C61.7498 16.7344 62.0582 16.5657 62.3376 16.4528C62.6171 16.34 62.8978 16.2842 63.205 16.2842C63.8217 16.2842 64.2975 16.5099 64.6613 16.96C65.0251 17.3823 65.2203 18.0302 65.2203 18.7631C65.2203 19.5518 65.0251 20.1707 64.6613 20.65C64.2686 21.128 63.7928 21.3537 63.1218 21.3537C62.534 21.3537 62.0293 21.128 61.5257 20.6779V23.044C61.5257 23.1277 61.498 23.2126 61.3583 23.2126H61.0776V23.2405ZM63.0375 20.8757C63.5411 20.8757 63.9326 20.7058 64.2132 20.3685C64.4927 20.002 64.6047 19.4948 64.6047 18.819C64.6047 17.4672 64.1012 16.8193 63.0652 16.8193C62.5617 16.8193 62.0016 17.0171 61.498 17.4393V20.2277C61.7775 20.4522 62.0015 20.622 62.2533 20.7337C62.5051 20.7907 62.7858 20.8757 63.0375 20.8757Z" fill="white"/>
<path d="M67.5177 21.3537C67.0985 21.3537 66.7335 21.2409 66.454 20.9594C66.1745 20.7337 66.0625 20.3684 66.0625 19.9462C66.0625 19.4669 66.2299 19.1284 66.5383 18.8469C66.8455 18.5653 67.2936 18.4525 67.8261 18.4525C68.2453 18.4525 68.6934 18.5374 69.1969 18.6782V17.8895C69.1969 17.4952 69.1138 17.2136 68.9174 17.0729C68.7211 16.9042 68.4416 16.8472 68.0212 16.8472C67.602 16.8472 67.1262 16.9321 66.6503 17.0729C66.6226 17.0729 66.5383 17.1008 66.4817 17.1008C66.3986 17.1008 66.3986 17.0729 66.3986 16.9879V16.7914C66.3986 16.7635 66.3986 16.7065 66.4263 16.6785C66.454 16.6506 66.454 16.6506 66.5106 16.5936C67.0141 16.397 67.5177 16.2842 68.1055 16.2842C68.6657 16.2842 69.0849 16.397 69.3656 16.6506C69.645 16.8751 69.7571 17.2415 69.7571 17.7208V21.1001C69.7571 21.1851 69.7294 21.27 69.5896 21.27H69.3933C69.309 21.27 69.2258 21.2409 69.2258 21.1001L69.1969 20.7058C68.6934 21.1572 68.1055 21.3537 67.5177 21.3537ZM67.602 20.8757C67.8261 20.8757 68.1055 20.8465 68.385 20.7058C68.6657 20.5929 68.9452 20.4813 69.2535 20.2835V19.1005C68.8331 18.9876 68.4416 18.9318 67.9935 18.9318C67.0985 18.9318 66.6503 19.2982 66.6503 19.9462C66.6503 20.2277 66.7335 20.4522 66.8744 20.6221C67.0419 20.7907 67.2936 20.8757 67.602 20.8757Z" fill="white"/>
<path d="M71.4057 21.2704C71.3214 21.2704 71.2383 21.2413 71.2383 21.1006V16.5661C71.2383 16.4824 71.266 16.3975 71.4057 16.3975H71.6021C71.7141 16.3975 71.7695 16.4254 71.7695 16.5661L71.7972 17.1291C72.0213 16.8476 72.273 16.6511 72.4971 16.5661C72.7212 16.4533 73.0018 16.3975 73.2813 16.3975C73.3933 16.3975 73.4777 16.3975 73.5054 16.3975C73.5885 16.3975 73.6728 16.4254 73.6728 16.5661V16.7918C73.6728 16.8197 73.6728 16.8197 73.6451 16.8755C73.6451 16.9047 73.6174 16.9047 73.5608 16.9047C73.5331 16.9047 73.4487 16.9047 73.3933 16.9047C73.3656 16.9047 73.2813 16.9047 73.197 16.9047C72.9175 16.9047 72.6368 16.9326 72.414 17.0733C72.1899 17.1862 71.9936 17.3548 71.7418 17.5805V21.1006C71.7418 21.1855 71.7141 21.2704 71.5732 21.2704H71.4057Z" fill="white"/>
<path d="M76.1661 21.3258C75.7733 21.3258 75.4939 21.213 75.2975 21.0164C75.1024 20.8186 74.9903 20.5371 74.9903 20.1428V16.9601H74.2339C74.1507 16.9601 74.0664 16.9321 74.0664 16.7914V16.7065C74.0664 16.6785 74.0664 16.6227 74.0941 16.5936C74.0941 16.5657 74.1218 16.5657 74.2061 16.5657L74.9903 16.482L75.0735 15.214C75.0735 15.1861 75.1024 15.1291 75.1024 15.1011C75.1301 15.0732 75.1301 15.0732 75.2144 15.0732H75.3818C75.4662 15.0732 75.5493 15.1011 75.5493 15.2419V16.5099H76.9214C77.0057 16.5099 77.0888 16.5378 77.0888 16.6786V16.8763C77.0888 16.9601 77.0611 17.045 76.9214 17.045H75.5493V20.2277C75.5493 20.5092 75.5782 20.65 75.7179 20.7907C75.83 20.9036 76.0251 20.9594 76.2781 20.9594C76.4732 20.9594 76.6419 20.9594 76.7539 20.9315C76.837 20.9315 76.8647 20.9036 76.9214 20.9036C76.9491 20.9036 77.0057 20.9036 77.0057 20.9036C77.0888 20.9036 77.1177 20.9315 77.1177 21.0164V21.1851C77.1177 21.2979 77.0888 21.3537 77.0057 21.3816C76.7539 21.27 76.5009 21.3258 76.1661 21.3258Z" fill="white"/>
<path d="M78.2936 21.2696C78.2093 21.2696 78.125 21.2405 78.125 21.0997V16.5653C78.125 16.4816 78.1539 16.3966 78.2936 16.3966H78.49C78.6008 16.3966 78.6574 16.4245 78.6574 16.5653L78.6852 16.9596C78.9935 16.7339 79.3007 16.5653 79.6645 16.4524C80.0295 16.3396 80.3367 16.2559 80.6451 16.2559C81.1209 16.2559 81.457 16.3687 81.7088 16.6223C81.9328 16.8468 82.0726 17.2132 82.0726 17.7204V21.0718C82.0726 21.1567 82.0448 21.2405 81.9039 21.2405H81.6244C81.5401 21.2405 81.457 21.2126 81.457 21.0718V18.0019C81.457 17.5797 81.3727 17.2982 81.2329 17.1004C81.0643 16.9038 80.8125 16.8189 80.4764 16.8189C79.8609 16.8189 79.2176 17.0167 78.6297 17.4389V21.1567C78.6297 21.2405 78.6008 21.3254 78.4611 21.3254H78.2659V21.2696H78.2936Z" fill="white"/>
<path d="M85.5718 21.3816C84.8165 21.3816 84.2286 21.1851 83.8925 20.7628C83.4998 20.3405 83.3047 19.6926 83.3047 18.819C83.3047 18.0302 83.4998 17.4102 83.8925 16.96C84.284 16.5378 84.8442 16.2842 85.4875 16.2842C86.0753 16.2842 86.4957 16.4528 86.8318 16.7914C87.139 17.1008 87.3076 17.5801 87.3076 18.1989C87.3076 18.4246 87.3076 18.6224 87.2787 18.791C87.2787 18.8748 87.1956 18.9597 87.1113 18.9597H83.8925C83.8925 19.6356 84.06 20.1428 84.3117 20.4522C84.5924 20.7628 85.0682 20.9315 85.6561 20.9315C86.1319 20.9315 86.5511 20.8465 86.9438 20.7058C87.027 20.6779 87.1113 20.6779 87.1113 20.6779C87.139 20.6779 87.139 20.6779 87.1956 20.7058C87.1956 20.7337 87.2233 20.7337 87.2233 20.7907V20.9594C87.2233 21.0722 87.1956 21.128 87.1113 21.1572C86.6077 21.27 86.1319 21.3816 85.5718 21.3816ZM86.7475 18.5095C86.7475 18.4246 86.7475 18.3118 86.7475 18.1989C86.7475 17.7208 86.6355 17.4102 86.4391 17.1857C86.215 16.9601 85.8801 16.8193 85.4597 16.8193C84.4515 16.8193 83.9202 17.3823 83.8648 18.5095H86.7475Z" fill="white"/>
<path d="M88.5971 21.2704C88.5128 21.2704 88.4297 21.2413 88.4297 21.1006V16.5661C88.4297 16.4824 88.4574 16.3975 88.5971 16.3975H88.7935C88.9055 16.3975 88.9609 16.4254 88.9609 16.5661L88.9886 17.1291C89.2127 16.8476 89.4645 16.6511 89.6885 16.5661C89.9126 16.4533 90.1933 16.3975 90.4727 16.3975C90.5848 16.3975 90.6691 16.3975 90.6968 16.3975C90.7811 16.3975 90.8642 16.4254 90.8642 16.5661V16.7918C90.8642 16.8197 90.8642 16.8197 90.8365 16.8755C90.8365 16.9047 90.8088 16.9047 90.7522 16.9047C90.6968 16.9047 90.6402 16.9047 90.5848 16.9047C90.557 16.9047 90.4727 16.9047 90.3884 16.9047C90.1089 16.9047 89.8295 16.9326 89.6054 17.0733C89.3813 17.1862 89.185 17.3548 88.9332 17.5805V21.1006C88.9332 21.1855 88.9055 21.2704 88.7658 21.2704H88.5971Z" fill="white"/>
<path d="M61.0776 31.886C60.9945 31.886 60.9102 31.858 60.9102 31.7173V27.2108C60.9102 27.1271 60.9379 27.0421 61.0776 27.0421H61.274C61.386 27.0421 61.4414 27.07 61.4414 27.2108L61.4703 27.6051C61.7775 27.3794 62.0859 27.2108 62.4497 27.0979C62.8135 26.9851 63.1218 26.9014 63.429 26.9014C63.9048 26.9014 64.2409 27.0142 64.4927 27.2678C64.7168 27.4923 64.8565 27.8587 64.8565 28.3659V31.7173C64.8565 31.8022 64.8288 31.886 64.6891 31.886H64.4084C64.3253 31.886 64.2409 31.858 64.2409 31.7173V28.5916C64.2409 28.1682 64.1566 27.8866 64.0169 27.6901C63.8494 27.4923 63.5977 27.4086 63.2616 27.4086C62.646 27.4086 62.0015 27.6051 61.4137 28.0274V31.7452C61.4137 31.8302 61.386 31.9151 61.2463 31.9151H61.0499V31.886H61.0776Z" fill="white"/>
<path d="M68.3843 32.0271C67.6278 32.0271 67.0411 31.8306 66.7051 31.4083C66.3123 30.9861 66.1172 30.3381 66.1172 29.4645C66.1172 28.6758 66.3123 28.0569 66.7051 27.6056C67.0966 27.1833 67.6567 26.9297 68.3 26.9297C68.8878 26.9297 69.3082 27.0983 69.6443 27.4369C69.9515 27.7463 70.1201 28.2256 70.1201 28.8456C70.1201 29.0701 70.1201 29.2679 70.0912 29.4366C70.0912 29.5215 70.0081 29.6052 69.9238 29.6052H66.7051C66.7051 30.2811 66.8725 30.7883 67.1242 31.0977C67.4049 31.4083 67.8807 31.577 68.4686 31.577C68.9444 31.577 69.3636 31.492 69.7551 31.3513C69.8395 31.3234 69.9238 31.3234 69.9238 31.3234C69.9515 31.3234 69.9515 31.3234 70.0081 31.3513C70.0081 31.3804 70.0358 31.3804 70.0358 31.4362V31.6049C70.0358 31.7177 70.0081 31.7748 69.9238 31.8027C69.448 31.9155 68.9155 32.0271 68.3843 32.0271ZM69.56 29.1271C69.56 29.0422 69.56 28.9294 69.56 28.8165C69.56 28.3384 69.448 28.0278 69.2516 27.8033C69.0276 27.5776 68.6915 27.4369 68.2723 27.4369C67.264 27.4369 66.7328 27.9999 66.6761 29.1271H69.56Z" fill="white"/>
<path d="M72.7794 31.9715C72.3866 31.9715 72.1072 31.8586 71.9108 31.6621C71.7157 31.4643 71.6036 31.1828 71.6036 30.7884V27.5499H70.8471C70.764 27.5499 70.6797 27.522 70.6797 27.3812V27.2963C70.6797 27.2684 70.6797 27.2114 70.7074 27.1834C70.7074 27.1555 70.7351 27.1555 70.8194 27.1555L71.6036 27.0706L71.6867 25.8038C71.6867 25.7759 71.7157 25.7189 71.7157 25.691C71.7434 25.6631 71.7434 25.6631 71.8265 25.6631H71.9951C72.0795 25.6631 72.1626 25.691 72.1626 25.8317V27.0997H73.5347C73.619 27.0997 73.7021 27.1276 73.7021 27.2684V27.465C73.7021 27.5499 73.6744 27.6348 73.5347 27.6348H72.1915V30.8176C72.1915 31.0991 72.2192 31.2398 72.3589 31.3806C72.4987 31.5213 72.6673 31.5492 72.9191 31.5492C73.1142 31.5492 73.2829 31.5492 73.3949 31.5213C73.478 31.5213 73.5069 31.4934 73.5624 31.4934C73.5901 31.4934 73.6467 31.4934 73.6467 31.4934C73.731 31.4934 73.7587 31.5213 73.7587 31.605V31.7749C73.7587 31.8878 73.731 31.9436 73.6467 31.9715C73.3672 31.9157 73.0865 31.9715 72.7794 31.9715Z" fill="white"/>
<path d="M75.8554 31.8864C75.7711 31.8864 75.6879 31.8585 75.659 31.7748L74.1761 27.3241C74.1484 27.2391 74.1484 27.2112 74.1484 27.1554C74.1484 27.0984 74.1761 27.0705 74.2605 27.0705H74.5677C74.652 27.0705 74.6797 27.0984 74.7363 27.1833L76.0228 31.2397L77.1708 27.1833C77.1985 27.0984 77.2552 27.0705 77.3672 27.0705H77.731C77.8153 27.0705 77.8984 27.0984 77.9273 27.1833L79.0741 31.2397L80.4185 27.1275C80.4462 27.0426 80.5016 27.0146 80.5859 27.0146H80.8654C80.9497 27.0146 80.9774 27.0426 80.9774 27.0984C80.9774 27.1275 80.9774 27.1833 80.9497 27.2682L79.3825 31.7177C79.3548 31.8027 79.2982 31.8306 79.1862 31.8306H78.879C78.7947 31.8306 78.7103 31.8027 78.6826 31.7177L77.5346 27.6626L76.3878 31.7177C76.3589 31.8027 76.3035 31.8306 76.1915 31.8306H75.912V31.8864H75.8554Z" fill="white"/>
<path d="M83.7511 32.0267C83.0512 32.0267 82.4923 31.8022 82.0996 31.3508C81.7081 30.9286 81.5117 30.2807 81.5117 29.464C81.5117 28.6753 81.7081 28.0565 82.0996 27.5772C82.4923 27.155 83.0512 26.9014 83.7511 26.9014C84.451 26.9014 85.0111 27.1271 85.4026 27.5772C85.7953 27.9995 85.9905 28.6474 85.9905 29.464C85.9905 30.2527 85.7953 30.8728 85.4026 31.3508C84.9834 31.8022 84.451 32.0267 83.7511 32.0267ZM83.7511 31.5207C84.8437 31.5207 85.4026 30.8449 85.4026 29.464C85.4026 28.0844 84.8437 27.4086 83.7511 27.4086C82.6597 27.4086 82.0996 28.0844 82.0996 29.464C82.0996 30.8449 82.632 31.5207 83.7511 31.5207Z" fill="white"/>
<path d="M87.3366 31.8858C87.2523 31.8858 87.168 31.8579 87.168 31.7172V27.2107C87.168 27.1269 87.1969 27.042 87.3366 27.042H87.5318C87.6438 27.042 87.7004 27.0699 87.7004 27.2107L87.7281 27.7737C87.9522 27.4922 88.2039 27.2956 88.428 27.2107C88.6521 27.0978 88.9315 27.042 89.2122 27.042C89.3242 27.042 89.4074 27.042 89.4351 27.042C89.5194 27.042 89.6037 27.0699 89.6037 27.2107V27.4363C89.6037 27.4642 89.6037 27.4643 89.576 27.5213C89.5471 27.5492 89.5471 27.5492 89.4917 27.5492C89.464 27.5492 89.3796 27.5492 89.3242 27.5492C89.2953 27.5492 89.2122 27.5492 89.1279 27.5492C88.8484 27.5492 88.5677 27.5771 88.3437 27.7179C88.1196 27.8307 87.9245 27.9994 87.6727 28.2251V31.7451C87.6727 31.83 87.6438 31.915 87.5041 31.915H87.3089V31.8858H87.3366Z" fill="white"/>
<path d="M90.6089 31.8867C90.5257 31.8867 90.4414 31.8588 90.4414 31.7181V24.9304C90.4414 24.8455 90.4691 24.7617 90.6089 24.7617H90.8895C90.9739 24.7617 91.057 24.7896 91.057 24.9304V29.2112L93.3241 27.1557C93.4084 27.0708 93.4927 27.0708 93.5481 27.0708H93.9119C93.9963 27.0708 94.0239 27.0987 94.0239 27.1557C94.0239 27.2116 93.9963 27.2395 93.9119 27.3244L91.5894 29.3811L94.1083 31.7181C94.136 31.746 94.1926 31.803 94.1926 31.8309C94.1926 31.9159 94.1649 31.9159 94.0806 31.9159H93.6879C93.6047 31.9159 93.5204 31.8867 93.4927 31.8309L91.057 29.5498V31.746C91.057 31.8309 91.0293 31.9159 90.8895 31.9159H90.6089V31.8867Z" fill="white"/>
<path d="M17.7179 44.0851C17.186 43.8873 16.7942 43.6349 16.5702 43.3522C16.3463 43.0707 16.2344 42.7055 16.2344 42.2541C16.2344 41.6911 16.4302 41.2409 16.8502 40.9024C17.27 40.5639 17.8299 40.3952 18.5297 40.3952C19.1174 40.3952 19.6773 40.5081 20.2371 40.7337V41.7469C19.6492 41.5782 19.1174 41.4654 18.6136 41.4654C17.9139 41.4654 17.5499 41.6911 17.5499 42.1413C17.5499 42.3112 17.606 42.4519 17.7179 42.5635C17.8299 42.6764 18.0818 42.7892 18.4176 42.9021L19.0894 43.1557C19.6492 43.3522 20.0411 43.6058 20.265 43.8594C20.489 44.1409 20.6289 44.4795 20.6289 44.9296C20.6289 45.5497 20.405 46.029 19.9571 46.3942C19.5092 46.7606 18.9215 46.9293 18.1378 46.9293C17.8018 46.9293 17.466 46.9014 17.13 46.8456C16.7942 46.7885 16.5142 46.7048 16.2623 46.592V45.5497C16.5702 45.6346 16.8781 45.7183 17.2141 45.7754C17.5499 45.8312 17.8578 45.8591 18.1378 45.8591C18.5016 45.8591 18.7536 45.8033 18.9495 45.6625C19.1455 45.5218 19.2294 45.3519 19.2294 45.0995C19.2294 44.9017 19.1734 44.761 19.0615 44.6481C18.9495 44.5353 18.6976 44.4224 18.3616 44.2817L17.7179 44.0851ZM22.6442 44.8459C22.6719 45.2403 22.7839 45.5218 23.0079 45.7183C23.232 45.887 23.5681 45.9719 24.0162 45.9719C24.4077 45.9719 24.8835 45.887 25.416 45.7462V46.6199C25.2196 46.7327 24.9679 46.8165 24.6595 46.8735C24.38 46.9293 24.0716 46.9584 23.7645 46.9584C23.008 46.9584 22.4201 46.7606 22.0285 46.3384C21.6366 45.9161 21.4407 45.324 21.4407 44.5074C21.4407 43.7466 21.6366 43.1557 22.0285 42.7055C22.4201 42.282 22.9802 42.0576 23.6801 42.0576C24.268 42.0576 24.7161 42.2262 25.051 42.5635C25.3594 42.9021 25.5268 43.3522 25.5268 43.9723C25.5268 44.113 25.5268 44.2538 25.4991 44.4224C25.4714 44.5923 25.4714 44.7331 25.4437 44.8459H22.6442ZM23.5958 42.987C23.2886 42.987 23.0646 43.0707 22.8959 43.2406C22.7285 43.4093 22.6442 43.6629 22.6165 44.0002H24.38V43.8594C24.38 43.2685 24.1283 42.987 23.5958 42.987ZM28.5227 46.7327C28.2709 46.8456 27.9903 46.8735 27.7108 46.8735C26.8989 46.8735 26.5074 46.4233 26.5074 45.5218V40.1416H27.8228V45.4089C27.8228 45.5776 27.8505 45.6904 27.9071 45.7754C27.9626 45.8312 28.0469 45.887 28.1866 45.887C28.2709 45.887 28.383 45.887 28.5227 45.8591V46.7327ZM30.3983 44.8459C30.426 45.2403 30.538 45.5218 30.7621 45.7183C30.9862 45.887 31.321 45.9719 31.7692 45.9719C32.1619 45.9719 32.6377 45.887 33.1689 45.7462V46.6199C32.9726 46.7327 32.7208 46.8165 32.4136 46.8735C32.133 46.9293 31.8258 46.9584 31.5174 46.9584C30.7621 46.9584 30.1742 46.7606 29.7815 46.3384C29.39 45.9161 29.1937 45.324 29.1937 44.5074C29.1937 43.7466 29.39 43.1557 29.7815 42.7055C30.1742 42.282 30.7332 42.0576 31.4331 42.0576C32.0209 42.0576 32.469 42.2262 32.8051 42.5635C33.1135 42.9021 33.281 43.3522 33.281 43.9723C33.281 44.113 33.281 44.2538 33.2533 44.4224C33.2255 44.5923 33.2255 44.7331 33.1966 44.8459H30.3983ZM31.3777 42.987C31.0693 42.987 30.8452 43.0707 30.6778 43.2406C30.5103 43.4093 30.426 43.6629 30.3983 44.0002H32.1619V43.8594C32.133 43.2685 31.8812 42.987 31.3777 42.987ZM37.5634 46.6199C37.3959 46.7048 37.1996 46.7885 36.9755 46.8456C36.7515 46.9014 36.4997 46.9293 36.2756 46.9293C35.548 46.9293 34.9879 46.7327 34.5964 46.3105C34.2049 45.887 34.0085 45.2961 34.0085 44.5353C34.0085 43.7757 34.2049 43.1836 34.6241 42.7613C35.0445 42.339 35.6047 42.1134 36.3046 42.1134C36.7515 42.1134 37.1442 42.1983 37.508 42.3949V43.2685C37.1442 43.1557 36.8358 43.1277 36.5274 43.1277C36.1082 43.1277 35.7998 43.2406 35.6047 43.4372C35.4083 43.6629 35.324 44.0002 35.324 44.4516V44.5923C35.324 45.0425 35.4083 45.381 35.6047 45.6055C35.7998 45.8312 36.1082 45.9161 36.4997 45.9161C36.7804 45.9161 37.1442 45.8591 37.508 45.7462V46.6199H37.5634ZM41.2025 46.7048C40.8665 46.8164 40.5304 46.9014 40.1112 46.9014C39.6064 46.9014 39.2149 46.7885 38.9909 46.5349C38.7391 46.2813 38.6271 45.9161 38.6271 45.4089V43.1836H37.9272V42.367L38.6548 42.2262L38.8511 40.9582H39.9148V42.1983H41.1459V43.1836H39.9148V45.3519C39.9148 45.5497 39.9714 45.6904 40.0545 45.7754C40.1389 45.8591 40.3063 45.887 40.5304 45.887C40.7267 45.887 40.9231 45.8591 41.1748 45.8312V46.7048H41.2025Z" fill="white"/>
<path d="M44.47 46.2111C44.4171 46.2111 44.3944 46.189 44.3944 46.138V43.0292H43.2905C43.2375 43.0292 43.2148 43.0072 43.2148 42.9558V42.8389C43.2148 42.7879 43.2375 42.7658 43.2905 42.7658H45.8009C45.8536 42.7658 45.8764 42.7879 45.8764 42.8389V42.9558C45.8764 43.0072 45.8536 43.0292 45.8009 43.0292H44.6969V46.138C44.6969 46.189 44.6742 46.2111 44.6212 46.2111H44.47ZM47.4644 46.2842C47.056 46.2842 46.7534 46.1745 46.5419 45.9476C46.3375 45.7211 46.2318 45.3917 46.2318 44.9528C46.2318 44.5359 46.3375 44.2141 46.5419 43.98C46.7534 43.7458 47.0407 43.6362 47.4113 43.6362C47.7214 43.6362 47.9632 43.7241 48.1295 43.8924C48.2961 44.0679 48.3791 44.3093 48.3791 44.631C48.3791 44.7628 48.3716 44.8652 48.3563 44.931C48.3488 44.9821 48.3186 45.0041 48.2658 45.0041H46.5266C46.5266 45.3552 46.6099 45.6111 46.7612 45.7721C46.9122 45.9404 47.1543 46.0207 47.4794 46.0207C47.7289 46.0207 47.9632 45.9769 48.1825 45.8966C48.2278 45.8818 48.258 45.8745 48.2733 45.8745C48.2883 45.8745 48.2961 45.8818 48.3111 45.889C48.3186 45.9038 48.3264 45.9111 48.3264 45.9331V46.0062C48.3264 46.0573 48.3111 46.0939 48.2658 46.1087C48.0312 46.2256 47.7592 46.2842 47.4644 46.2842ZM48.0992 44.7772C48.0992 44.7334 48.107 44.6748 48.107 44.6165C48.107 44.3751 48.0465 44.1996 47.9255 44.0751C47.8044 43.9507 47.6307 43.8924 47.396 43.8924C46.8517 43.8924 46.5643 44.1921 46.5341 44.7845H48.0992V44.7772ZM50.1105 46.2694C49.7175 46.2694 49.4152 46.1597 49.2033 45.9404C48.9993 45.7211 48.8932 45.3917 48.8932 44.9676C48.8932 44.5431 48.9993 44.2214 49.2033 43.9948C49.4152 43.7679 49.7175 43.6582 50.1105 43.6582C50.2996 43.6582 50.4812 43.6875 50.6475 43.7534C50.6852 43.7679 50.708 43.8045 50.708 43.8558V43.9289C50.708 43.9727 50.6852 43.9948 50.6475 43.9948C50.64 43.9948 50.6247 43.9948 50.6097 43.9872C50.5944 43.98 50.572 43.98 50.5342 43.9727C50.3979 43.9434 50.2619 43.9214 50.1258 43.9214C49.8008 43.9214 49.5661 44.002 49.4226 44.1628C49.2788 44.3238 49.2033 44.58 49.2033 44.9383V44.9969C49.2033 45.3407 49.2788 45.5966 49.4226 45.7576C49.5661 45.9183 49.8008 46.0062 50.1184 46.0062C50.2544 46.0062 50.3979 45.9842 50.5645 45.9404C50.6022 45.9331 50.6247 45.9259 50.64 45.9183C50.6549 45.9111 50.6702 45.9111 50.6777 45.9111C50.7155 45.9111 50.7382 45.9331 50.7382 45.9769V46.05C50.7382 46.1014 50.7229 46.138 50.6852 46.1525C50.5114 46.2256 50.3149 46.2694 50.1105 46.2694ZM51.4339 46.2111C51.3809 46.2111 51.3581 46.189 51.3581 46.138V42.6048C51.3581 42.5537 51.3809 42.5317 51.4339 42.5317H51.57C51.623 42.5317 51.6455 42.5537 51.6455 42.6048V43.9948C51.8121 43.8848 51.9858 43.7972 52.1749 43.7313C52.3565 43.6655 52.5377 43.6362 52.7118 43.6362C52.9611 43.6362 53.1501 43.702 53.2865 43.8265C53.4225 43.9507 53.483 44.141 53.483 44.3896V46.138C53.483 46.189 53.4602 46.2111 53.4072 46.2111H53.2712C53.2184 46.2111 53.1957 46.189 53.1957 46.138V44.5141C53.1957 44.3017 53.1501 44.141 53.0671 44.0458C52.9838 43.9507 52.8478 43.8996 52.6588 43.8996C52.3184 43.8996 51.9858 44.002 51.6607 44.2141V46.138C51.6607 46.189 51.638 46.2111 51.5849 46.2111H51.4339ZM54.3525 46.2111C54.2994 46.2111 54.277 46.189 54.277 46.138V43.7824C54.277 43.7313 54.2994 43.7093 54.3525 43.7093H54.4582C54.5113 43.7093 54.5415 43.7313 54.549 43.7824L54.5718 43.9948C54.7381 43.8776 54.9196 43.79 55.1009 43.7241C55.2825 43.6582 55.464 43.6289 55.6378 43.6289C55.8874 43.6289 56.0764 43.6948 56.2125 43.8189C56.3485 43.9434 56.409 44.1338 56.409 44.3824V46.138C56.409 46.189 56.3865 46.2111 56.3335 46.2111H56.1975C56.1444 46.2111 56.1217 46.189 56.1217 46.138V44.5141C56.1217 44.3017 56.0764 44.141 55.9931 44.0458C55.9102 43.9507 55.7738 43.8996 55.5851 43.8996C55.2447 43.8996 54.9122 44.002 54.5868 44.2141V46.138C54.5868 46.189 54.5643 46.2111 54.5113 46.2111H54.3525ZM58.254 46.2842C57.8759 46.2842 57.5811 46.1673 57.3771 45.9331C57.1652 45.699 57.067 45.3697 57.067 44.9528C57.067 44.5359 57.1727 44.2141 57.3771 43.98C57.5886 43.7458 57.8834 43.6289 58.254 43.6289C58.6321 43.6289 58.927 43.7458 59.131 43.98C59.3428 44.2141 59.4486 44.5359 59.4486 44.9528C59.4486 45.3697 59.3428 45.699 59.131 45.9331C58.927 46.1673 58.6321 46.2842 58.254 46.2842ZM58.254 46.028C58.8436 46.028 59.1463 45.6697 59.1463 44.9603C59.1463 44.2507 58.8515 43.8996 58.254 43.8996C57.6644 43.8996 57.3618 44.2507 57.3618 44.9603C57.3618 45.6697 57.6566 46.028 58.254 46.028ZM60.5526 46.2256C60.4166 46.2256 60.3106 46.189 60.2351 46.1087C60.1596 46.0283 60.1215 45.9259 60.1215 45.7794V42.5975C60.1215 42.5465 60.1443 42.5244 60.1973 42.5244H60.3333C60.3864 42.5244 60.4088 42.5465 60.4088 42.5975V45.7721C60.4088 45.8452 60.4241 45.8966 60.4544 45.9259C60.4846 45.9549 60.5374 45.9697 60.6132 45.9697C60.636 45.9697 60.6584 45.9697 60.6812 45.9624C60.704 45.9624 60.7264 45.9549 60.7417 45.9549C60.7869 45.9549 60.8172 45.9769 60.8172 46.028V46.1232C60.8172 46.1673 60.7947 46.189 60.7492 46.1963C60.6887 46.2183 60.6281 46.2256 60.5526 46.2256ZM62.4582 46.2842C62.0801 46.2842 61.7849 46.1673 61.5809 45.9331C61.3691 45.699 61.2708 45.3697 61.2708 44.9528C61.2708 44.5359 61.3769 44.2141 61.5809 43.98C61.7928 43.7458 62.0876 43.6289 62.4582 43.6289C62.836 43.6289 63.1311 43.7458 63.3352 43.98C63.547 44.2141 63.6527 44.5359 63.6527 44.9528C63.6527 45.3697 63.547 45.699 63.3352 45.9331C63.1311 46.1673 62.836 46.2842 62.4582 46.2842ZM62.4582 46.028C63.0478 46.028 63.3501 45.6697 63.3501 44.9603C63.3501 44.2507 63.0553 43.8996 62.4582 43.8996C61.8682 43.8996 61.566 44.2507 61.566 44.9603C61.5734 45.6697 61.8682 46.028 62.4582 46.028ZM65.2329 47.2935C65.0894 47.2935 64.9456 47.279 64.8095 47.2497C64.6735 47.2204 64.5525 47.1839 64.4467 47.1328C64.409 47.118 64.3862 47.0815 64.3862 47.0304V46.957C64.3862 46.9132 64.4012 46.8914 64.4467 46.8914C64.4542 46.8914 64.4692 46.8914 64.477 46.8987C64.492 46.8987 64.5147 46.9059 64.545 46.9204C64.7868 46.9935 65.0136 47.0377 65.2104 47.0377C65.528 47.0377 65.7623 46.9645 65.9136 46.8108C66.0646 46.6573 66.1404 46.4159 66.1404 46.0866V45.8452C66.0119 45.9476 65.8756 46.028 65.7168 46.0866C65.5658 46.1452 65.4145 46.1745 65.2784 46.1745C64.9456 46.1745 64.6885 46.0573 64.4845 45.8307C64.2879 45.6038 64.1897 45.3041 64.1897 44.931C64.1897 44.5286 64.2879 44.2141 64.4845 43.98C64.681 43.7458 64.9534 43.6289 65.2934 43.6289C65.6185 43.6289 65.8983 43.7386 66.1479 43.9582L66.1707 43.7751C66.1782 43.7241 66.2084 43.702 66.2612 43.702H66.3672C66.42 43.702 66.4427 43.7241 66.4427 43.7751V46.0866C66.4427 46.4742 66.337 46.7742 66.1326 46.979C65.9286 47.1839 65.6185 47.2935 65.2329 47.2935ZM65.3465 45.9183C65.6035 45.9183 65.8681 45.8159 66.1404 45.6038V44.2214C65.9966 44.1117 65.8681 44.0238 65.7321 43.9727C65.6035 43.9214 65.4597 43.8924 65.3162 43.8924C65.0438 43.8924 64.8323 43.98 64.6963 44.1483C64.56 44.3238 64.492 44.5724 64.492 44.9162C64.492 45.2383 64.5678 45.4869 64.7113 45.6624C64.8551 45.838 65.0666 45.9183 65.3465 45.9183ZM67.3275 47.2935C67.2442 47.2935 67.1687 47.279 67.0932 47.257C67.0402 47.2425 67.0174 47.2132 67.0174 47.1546V47.0815C67.0174 47.0377 67.0402 47.0156 67.0779 47.0156C67.1007 47.0156 67.1157 47.0156 67.131 47.0228C67.1459 47.0228 67.1687 47.0304 67.199 47.0304C67.2292 47.0304 67.2595 47.0304 67.3047 47.0304C67.4183 47.0304 67.5091 47.0011 67.5771 46.9425C67.6451 46.8839 67.7056 46.7815 67.7661 46.6352L67.9399 46.2183L66.9266 43.8117C66.9116 43.7824 66.9042 43.7607 66.9042 43.7458C66.9042 43.7093 66.9266 43.6875 66.9643 43.6875H67.131C67.1762 43.6875 67.2064 43.7093 67.2217 43.7534L68.0834 45.889L68.9532 43.7534C68.9682 43.7093 68.9984 43.6875 69.044 43.6875H69.195C69.2327 43.6875 69.2555 43.702 69.2555 43.7458C69.2555 43.7534 69.248 43.7751 69.2327 43.8117L68.0232 46.7232C67.9399 46.928 67.8416 47.067 67.7359 47.1546C67.6298 47.257 67.4938 47.2935 67.3275 47.2935Z" fill="white"/>
<path d="M71.7176 47.1944C71.65 47.1944 71.6211 47.165 71.6211 47.0953V42.6235C71.6211 42.5543 71.65 42.5244 71.7176 42.5244H73.1837C73.5983 42.5244 73.9263 42.6534 74.1774 42.9012C74.4282 43.1493 74.544 43.4864 74.544 43.9127C74.544 44.3291 74.4186 44.6661 74.1774 44.9139C73.9263 45.1621 73.5983 45.2906 73.1837 45.2906H71.9973V47.0953C71.9973 47.165 71.9683 47.1944 71.9008 47.1944H71.7176ZM73.1741 44.934C73.8204 44.934 74.1484 44.5969 74.1484 43.9127C74.1484 43.2284 73.8204 42.8815 73.1741 42.8815H71.9973V44.934H73.1741ZM76.1547 47.2739C75.8558 47.2739 75.6146 47.1846 75.4311 47.0061C75.2576 46.8275 75.1613 46.5896 75.1613 46.2923C75.1613 45.9651 75.2671 45.7071 75.4892 45.5187C75.7109 45.3304 76.0102 45.2313 76.3863 45.2313C76.6756 45.2313 76.994 45.2808 77.322 45.3902V44.825C77.322 44.5474 77.2543 44.359 77.1289 44.2398C77.0036 44.1207 76.7914 44.0613 76.5021 44.0613C76.2028 44.0613 75.8844 44.1207 75.5469 44.23C75.5083 44.2398 75.4697 44.2497 75.4506 44.2497C75.412 44.2497 75.3829 44.2202 75.3829 44.1604V44.0515C75.3829 44.0117 75.3925 43.9921 75.4025 43.972C75.412 43.9524 75.4411 43.9323 75.4697 43.9225C75.8172 43.7836 76.1837 43.7145 76.5694 43.7145C76.9554 43.7145 77.2352 43.7935 77.4278 43.9622C77.6208 44.1309 77.7076 44.3787 77.7076 44.7157V47.0953C77.7076 47.165 77.6786 47.1944 77.6113 47.1944H77.476C77.4087 47.1944 77.3797 47.165 77.3701 47.0953L77.3411 46.8079C76.9554 47.115 76.5598 47.2739 76.1547 47.2739ZM76.2028 46.9168C76.3668 46.9168 76.5503 46.8873 76.7429 46.8177C76.9359 46.7485 77.1289 46.6494 77.3315 46.5204V45.6776C77.0422 45.5982 76.7528 45.5585 76.4826 45.5585C75.8749 45.5585 75.5664 45.7964 75.5664 46.2825C75.5664 46.4905 75.6241 46.6494 75.7304 46.7583C75.8267 46.8672 75.9907 46.9168 76.2028 46.9168ZM78.8073 47.1944C78.7396 47.1944 78.711 47.165 78.711 47.0953V43.9028C78.711 43.8332 78.7396 43.8037 78.8073 43.8037H78.9326C79.0003 43.8037 79.0389 43.8332 79.0484 43.9028L79.0775 44.2992C79.2415 44.1108 79.4054 43.972 79.5694 43.9028C79.7334 43.8234 79.9069 43.7837 80.1095 43.7837C80.1771 43.7837 80.2349 43.7836 80.283 43.7935C80.3507 43.7935 80.3797 43.8332 80.3797 43.9028V44.0711C80.3797 44.0912 80.3698 44.1108 80.3602 44.1207C80.3507 44.1407 80.3312 44.1407 80.3121 44.1407C80.2735 44.1407 80.2444 44.1407 80.2158 44.1407C80.1867 44.1407 80.1385 44.1407 80.0804 44.1407C79.8778 44.1407 79.7043 44.1805 79.5499 44.2595C79.3959 44.3389 79.2415 44.4581 79.1061 44.6264V47.1052C79.1061 47.1748 79.0775 47.2043 79.0098 47.2043H78.8073V47.1944ZM81.9808 47.2342C81.7206 47.2342 81.5275 47.165 81.3922 47.0261C81.2573 46.8873 81.19 46.6789 81.19 46.411V44.1506H80.6691C80.6014 44.1506 80.5723 44.1207 80.5723 44.0515V43.9823C80.5723 43.9425 80.5823 43.9225 80.5919 43.9028C80.6014 43.8828 80.6305 43.8729 80.6691 43.8729L81.1996 43.8234L81.2477 42.9311C81.2477 42.8913 81.2573 42.8717 81.2768 42.8516C81.2959 42.832 81.3154 42.832 81.3441 42.832H81.4599C81.5275 42.832 81.5566 42.8619 81.5566 42.9311V43.8136H82.5114C82.579 43.8136 82.6077 43.8435 82.6077 43.9127V44.0515C82.6077 44.1207 82.579 44.1506 82.5114 44.1506H81.5566V46.3914C81.5566 46.5798 81.5948 46.7088 81.672 46.778C81.7492 46.8574 81.8746 46.8971 82.0581 46.8971C82.1834 46.8971 82.2992 46.8873 82.3955 46.8672C82.4437 46.8574 82.4823 46.8476 82.5114 46.8476C82.5404 46.8378 82.5595 46.8378 82.579 46.8378C82.6272 46.8378 82.6558 46.8672 82.6558 46.9168V47.0159C82.6558 47.0953 82.6367 47.1351 82.579 47.1547C82.4051 47.2043 82.2025 47.2342 81.9808 47.2342ZM83.4375 47.1944C83.3698 47.1944 83.3408 47.165 83.3408 47.0953V43.9028C83.3408 43.8332 83.3698 43.8037 83.4375 43.8037H83.5724C83.6401 43.8037 83.6787 43.8332 83.6882 43.9028L83.7169 44.1903C83.9294 44.0318 84.1606 43.9127 84.3923 43.8234C84.6239 43.7341 84.8551 43.6944 85.0772 43.6944C85.3956 43.6944 85.6368 43.7837 85.8103 43.9524C85.9838 44.1207 86.061 44.3787 86.061 44.7157V47.0953C86.061 47.165 86.032 47.1944 85.9647 47.1944H85.7908C85.7236 47.1944 85.6945 47.165 85.6945 47.0953V44.8942C85.6945 44.6068 85.6368 44.3885 85.5305 44.2595C85.4243 44.1309 85.2507 44.0613 85.0095 44.0613C84.5758 44.0613 84.1511 44.2001 83.7364 44.4876V47.0953C83.7364 47.165 83.7073 47.1944 83.6401 47.1944H83.4375ZM88.4629 47.2935C87.9419 47.2935 87.5563 47.1449 87.2861 46.8378C87.0258 46.5302 86.8905 46.0838 86.8905 45.4893C86.8905 44.9241 87.0258 44.4876 87.2861 44.1707C87.5563 43.8533 87.9229 43.7046 88.3953 43.7046C88.7909 43.7046 89.0993 43.8234 89.3118 44.0515C89.524 44.2894 89.6298 44.6166 89.6298 45.0527C89.6298 45.2313 89.6203 45.3701 89.6012 45.4594C89.5916 45.529 89.553 45.5585 89.4854 45.5585H87.267C87.267 46.0343 87.3728 46.3816 87.5659 46.5994C87.7589 46.8275 88.0673 46.9369 88.482 46.9369C88.8004 46.9369 89.0993 46.8771 89.3791 46.7681C89.4372 46.7485 89.4758 46.7382 89.4949 46.7382C89.5144 46.7382 89.524 46.7485 89.5431 46.7583C89.553 46.778 89.5626 46.7878 89.5626 46.8177V46.9168C89.5626 46.9864 89.5431 47.036 89.4854 47.0556C89.1865 47.2145 88.839 47.2935 88.4629 47.2935ZM89.2732 45.2513C89.2732 45.1915 89.2828 45.1125 89.2828 45.0331C89.2828 44.7059 89.2056 44.4679 89.0511 44.2992C88.8967 44.1309 88.675 44.0515 88.3762 44.0515C87.6817 44.0515 87.3151 44.4581 87.2765 45.2612H89.2732V45.2513ZM90.5655 47.1944C90.4983 47.1944 90.4692 47.165 90.4692 47.0953V43.9028C90.4692 43.8332 90.4983 43.8037 90.5655 43.8037H90.6909C90.7585 43.8037 90.7971 43.8332 90.8067 43.9028L90.8357 44.2992C90.9997 44.1108 91.1637 43.972 91.3277 43.9028C91.4916 43.8234 91.6651 43.7837 91.8677 43.7837C91.9354 43.7837 91.9931 43.7836 92.0417 43.7935C92.1089 43.7935 92.138 43.8332 92.138 43.9028V44.0711C92.138 44.0912 92.1284 44.1108 92.1185 44.1207C92.1089 44.1407 92.0898 44.1407 92.0703 44.1407C92.0317 44.1407 92.0031 44.1407 91.974 44.1407C91.9449 44.1407 91.8968 44.1407 91.8391 44.1407C91.6365 44.1407 91.4626 44.1805 91.3086 44.2595C91.1541 44.3389 90.9997 44.4581 90.8648 44.6264V47.1052C90.8648 47.1748 90.8357 47.2043 90.7681 47.2043H90.5655V47.1944Z" fill="white"/>
</svg>
