<svg width="75" height="46" viewBox="0 0 75 46" fill="none" xmlns="http://www.w3.org/2000/svg">
<path d="M64.8257 27.4436H63.9293V29H62.8851V27.4436H59.8609V26.6161L62.8752 21.9369H63.9293V26.557H64.8257V27.4436ZM62.8851 24.6459C62.8851 24.4883 62.8851 24.3373 62.8851 24.1928C62.8917 24.0483 62.8982 23.9104 62.9048 23.779C62.9114 23.6411 62.9146 23.5164 62.9146 23.4047C62.9212 23.2865 62.9278 23.1814 62.9343 23.0895H62.8949C62.8424 23.2208 62.78 23.3555 62.7078 23.4934C62.6421 23.6313 62.5764 23.7528 62.5108 23.8578L60.8558 26.557H62.8851V24.6459ZM65.5947 28.4188C65.5947 28.1627 65.6571 27.9821 65.7819 27.877C65.9132 27.7719 66.0741 27.7194 66.2645 27.7194C66.4484 27.7194 66.606 27.7719 66.7374 27.877C66.8753 27.9821 66.9443 28.1627 66.9443 28.4188C66.9443 28.6749 66.8753 28.8588 66.7374 28.9704C66.606 29.0821 66.4484 29.1379 66.2645 29.1379C66.0741 29.1379 65.9132 29.0821 65.7819 28.9704C65.6571 28.8588 65.5947 28.6749 65.5947 28.4188ZM70.2028 21.868C70.5969 21.868 70.9449 21.9336 71.247 22.065C71.5557 22.1898 71.7954 22.3769 71.9661 22.6265C72.1434 22.876 72.2321 23.188 72.2321 23.5623C72.2321 23.8447 72.1763 24.091 72.0646 24.3011C71.9596 24.5113 71.8118 24.6985 71.6213 24.8626C71.4375 25.0202 71.2339 25.1582 71.0106 25.2764C71.2667 25.4143 71.5031 25.5719 71.7198 25.7492C71.9366 25.92 72.1106 26.1203 72.2419 26.3501C72.3799 26.58 72.4488 26.8558 72.4488 27.1776C72.4488 27.5716 72.3569 27.9131 72.173 28.2021C71.9957 28.4845 71.7396 28.7045 71.4046 28.8621C71.0697 29.0197 70.6724 29.0985 70.2127 29.0985C69.7201 29.0985 69.3031 29.023 68.9616 28.8719C68.6267 28.7209 68.3738 28.5075 68.2031 28.2316C68.0323 27.9492 67.947 27.6077 67.947 27.2071C67.947 26.8853 68.0061 26.6062 68.1243 26.3698C68.2491 26.1334 68.41 25.9298 68.607 25.7591C68.8106 25.5883 69.0338 25.4438 69.2768 25.3256C69.0667 25.1943 68.8762 25.0465 68.7055 24.8823C68.5347 24.7116 68.4001 24.5179 68.3016 24.3011C68.2097 24.0844 68.1637 23.8349 68.1637 23.5525C68.1637 23.1847 68.2523 22.8793 68.4297 22.6363C68.607 22.3868 68.85 22.1963 69.1586 22.065C69.4673 21.9336 69.8153 21.868 70.2028 21.868ZM68.9715 27.1874C68.9715 27.5092 69.0732 27.7752 69.2768 27.9854C69.4804 28.1889 69.7858 28.2907 70.193 28.2907C70.4688 28.2907 70.6954 28.2448 70.8727 28.1528C71.05 28.0543 71.1846 27.923 71.2766 27.7588C71.3751 27.588 71.4243 27.3943 71.4243 27.1776C71.4243 26.9609 71.3718 26.7704 71.2667 26.6062C71.1616 26.4421 71.0172 26.2976 70.8333 26.1728C70.656 26.0415 70.4524 25.9232 70.2225 25.8182L70.0945 25.7591C69.858 25.8707 69.6545 25.9955 69.4837 26.1334C69.3195 26.2713 69.1915 26.4256 69.0995 26.5964C69.0141 26.7671 68.9715 26.9642 68.9715 27.1874ZM70.1831 22.6856C69.8942 22.6856 69.6545 22.7644 69.464 22.922C69.2801 23.0796 69.1882 23.3095 69.1882 23.6116C69.1882 23.8283 69.2341 24.0122 69.3261 24.1632C69.4246 24.3143 69.5494 24.4456 69.7004 24.5573C69.858 24.6623 70.0288 24.7641 70.2127 24.8626C70.3965 24.7707 70.5607 24.6722 70.7052 24.5671C70.8563 24.4555 70.9745 24.3241 71.0598 24.1731C71.1518 24.0155 71.1978 23.8283 71.1978 23.6116C71.1978 23.3095 71.1025 23.0796 70.9121 22.922C70.7282 22.7644 70.4852 22.6856 70.1831 22.6856Z" fill="black"/>
<path d="M14.9399 14.2539H17.4354V29.6605H14.9399V14.2539Z" fill="#16313B"/>
<path d="M26.1155 24.778C26.1155 27.1649 24.1626 27.3819 23.5116 27.3819C21.9926 27.3819 21.7756 25.9715 21.7756 25.212V19.2446H19.2802V25.1035C19.2802 26.5139 19.7142 27.8159 20.5822 28.5754C21.3417 29.3349 22.3181 29.6604 23.5116 29.6604C24.3796 29.6604 25.4646 29.4434 26.1155 28.7924V29.6604H28.611V19.2446H26.1155V24.778Z" fill="#16313B"/>
<path d="M33.4948 15.4473H30.9994V19.2447H29.1549V21.6316H30.9994V29.6604H33.4948V21.6316H35.3392V19.2447H33.4948V15.4473Z" fill="#16313B"/>
<path d="M43.1487 26.5137C42.6063 26.9476 41.8468 27.2731 41.0873 27.2731C39.3513 27.2731 38.1579 25.9712 38.1579 24.2352C38.1579 22.4993 39.3513 21.3058 41.0873 21.3058C41.8468 21.3058 42.6063 21.5228 43.1487 22.0653L43.4742 22.3908L45.2102 20.7633L44.7762 20.4378C43.7997 19.5698 42.4978 19.0273 41.0873 19.0273C38.0494 19.0273 35.7709 21.3058 35.7709 24.3437C35.7709 27.3816 38.0494 29.6601 41.0873 29.6601C42.4978 29.6601 43.7997 29.1176 44.7762 28.2496L45.2102 27.9241L43.4742 26.1882L43.1487 26.5137Z" fill="#16313B"/>
<path d="M53.9989 20.1128C53.2394 19.3533 52.4799 19.0278 51.2864 19.0278C50.4184 19.0278 49.5505 19.2448 48.8995 19.8958V14.2539H46.4041V29.6605H48.8995V23.9102C48.8995 21.5232 50.5269 21.3062 51.1779 21.3062C52.6969 21.3062 52.5884 22.7167 52.5884 23.4762V29.552H55.0838V23.5847C55.0838 22.1742 54.7583 20.8722 53.9989 20.1128Z" fill="#16313B"/>
<path d="M40.9808 26.0793C41.9395 26.0793 42.7167 25.3021 42.7167 24.3434C42.7167 23.3846 41.9395 22.6074 40.9808 22.6074C40.022 22.6074 39.2448 23.3846 39.2448 24.3434C39.2448 25.3021 40.022 26.0793 40.9808 26.0793Z" fill="#EF4335"/>
<path d="M11.4686 25.8633C10.6006 26.7313 9.29866 27.2738 7.88819 27.2738C5.17576 27.2738 3.22281 25.1038 3.22281 22.1744C3.22281 19.245 5.17576 17.075 7.99669 17.075C9.29866 17.075 10.6006 17.6175 11.5771 18.594L11.9026 18.9195L13.53 17.292L13.2046 16.9665C11.7941 15.5561 9.94964 14.7966 7.99669 14.7966C3.8738 14.6881 0.835876 17.943 0.835876 22.1744C0.835876 26.4058 3.8738 29.6607 7.88819 29.6607C9.84114 29.6607 11.7941 28.9012 13.0961 27.4908L13.4216 27.1653L11.7941 25.5378L11.4686 25.8633Z" fill="#16313B"/>
<path d="M21.2649 35.7192L20.2059 37.8743C20.152 37.984 20.0724 38.0789 19.9739 38.1508C19.8754 38.2226 19.761 38.2694 19.6405 38.287L17.2734 38.6327C17.1625 38.6488 17.0582 38.6958 16.9725 38.7684C16.8868 38.841 16.823 38.9362 16.7883 39.0433C16.7537 39.1504 16.7496 39.2651 16.7765 39.3744C16.8034 39.4838 16.8603 39.5833 16.9406 39.6619L18.6542 41.3396C18.7412 41.4248 18.8063 41.5301 18.8439 41.6462C18.8815 41.7623 18.8905 41.8859 18.87 42.0062L18.4655 44.3753C18.4467 44.4862 18.4592 44.6002 18.5015 44.7044C18.5438 44.8085 18.6143 44.8987 18.705 44.9648C18.7956 45.0308 18.9029 45.0701 19.0146 45.0781C19.1263 45.0861 19.238 45.0626 19.3371 45.0102L21.4546 43.8919C21.5623 43.835 21.6822 43.8052 21.8039 43.8052C21.9257 43.8052 22.0456 43.835 22.1533 43.8919L24.2708 45.0102C24.3699 45.0626 24.4816 45.0861 24.5933 45.0781C24.705 45.0701 24.8123 45.0308 24.9029 44.9648C24.9936 44.8987 25.0641 44.8085 25.1064 44.7044C25.1487 44.6002 25.1612 44.4862 25.1424 44.3753L24.7379 42.0062C24.7174 41.8858 24.7264 41.7623 24.764 41.6462C24.8016 41.53 24.8667 41.4248 24.9537 41.3396L26.6672 39.6619C26.7476 39.5833 26.8044 39.4838 26.8314 39.3744C26.8583 39.2651 26.8542 39.1504 26.8195 39.0433C26.7849 38.9362 26.7211 38.841 26.6354 38.7684C26.5497 38.6958 26.4454 38.6488 26.3345 38.6327L23.9664 38.287C23.8459 38.2694 23.7315 38.2226 23.633 38.1508C23.5345 38.0789 23.4549 37.984 23.401 37.8743L22.342 35.7192C22.2924 35.6182 22.2157 35.5332 22.1205 35.4738C22.0254 35.4143 21.9155 35.3828 21.8035 35.3828C21.6914 35.3828 21.5816 35.4143 21.4864 35.4738C21.3912 35.5332 21.3145 35.6182 21.2649 35.7192V35.7192Z" fill="#FFAF00"/>
<path d="M37.1703 35.7192L36.1113 37.8743C36.0574 37.984 35.9778 38.0789 35.8793 38.1508C35.7808 38.2227 35.6664 38.2694 35.5459 38.287L33.1778 38.6327C33.0669 38.6488 32.9626 38.6959 32.8769 38.7684C32.7912 38.841 32.7274 38.9362 32.6928 39.0433C32.6581 39.1504 32.654 39.2651 32.681 39.3744C32.7079 39.4838 32.7647 39.5833 32.8451 39.6619L34.5586 41.3396C34.6456 41.4249 34.7107 41.5301 34.7483 41.6462C34.7859 41.7623 34.7949 41.8859 34.7745 42.0062L34.3699 44.3753C34.3511 44.4862 34.3636 44.6002 34.4059 44.7044C34.4482 44.8085 34.5187 44.8987 34.6094 44.9648C34.7001 45.0308 34.8073 45.0701 34.919 45.0781C35.0307 45.0861 35.1424 45.0626 35.2416 45.0102L37.359 43.8919C37.4667 43.835 37.5866 43.8053 37.7084 43.8053C37.8301 43.8053 37.95 43.835 38.0577 43.8919L40.1752 45.0102C40.2743 45.0626 40.386 45.0861 40.4977 45.0781C40.6094 45.0701 40.7167 45.0308 40.8073 44.9648C40.898 44.8987 40.9685 44.8085 41.0108 44.7044C41.0531 44.6002 41.0656 44.4862 41.0468 44.3753L40.6423 42.0062C40.6218 41.8859 40.6308 41.7623 40.6684 41.6462C40.706 41.5301 40.7711 41.4248 40.8581 41.3396L42.5717 39.6619C42.652 39.5833 42.7089 39.4838 42.7358 39.3744C42.7627 39.2651 42.7586 39.1504 42.724 39.0433C42.6893 38.9362 42.6255 38.841 42.5398 38.7684C42.4541 38.6959 42.3498 38.6488 42.2389 38.6327L39.8708 38.287C39.7503 38.2694 39.6359 38.2227 39.5374 38.1508C39.4389 38.0789 39.3593 37.984 39.3054 37.8743L38.2464 35.7192C38.1967 35.6185 38.12 35.5337 38.025 35.4744C37.9299 35.4152 37.8203 35.3838 37.7084 35.3838C37.5965 35.3838 37.4868 35.4152 37.3917 35.4744C37.2967 35.5337 37.22 35.6185 37.1703 35.7192Z" fill="#FFAF00"/>
<path d="M53.0737 35.7192L52.0147 37.8743C51.9608 37.984 51.8812 38.0789 51.7827 38.1508C51.6842 38.2226 51.5698 38.2694 51.4493 38.287L49.0815 38.6327C48.9706 38.6488 48.8663 38.6958 48.7806 38.7684C48.6949 38.841 48.6311 38.9362 48.5964 39.0433C48.5618 39.1504 48.5577 39.2651 48.5846 39.3744C48.6116 39.4838 48.6684 39.5833 48.7487 39.6619L50.4623 41.3396C50.5493 41.4248 50.6144 41.5301 50.652 41.6462C50.6896 41.7623 50.6986 41.8859 50.6781 42.0062L50.2736 44.3753C50.2548 44.4862 50.2673 44.6002 50.3096 44.7044C50.3519 44.8085 50.4224 44.8987 50.5131 44.9648C50.6037 45.0308 50.711 45.0701 50.8227 45.0781C50.9344 45.0861 51.0461 45.0626 51.1452 45.0102L53.2627 43.8919C53.3704 43.835 53.4903 43.8052 53.6121 43.8052C53.7338 43.8052 53.8537 43.835 53.9614 43.8919L56.0789 45.0102C56.178 45.0626 56.2897 45.0861 56.4014 45.0781C56.5131 45.0701 56.6204 45.0308 56.711 44.9648C56.8017 44.8987 56.8722 44.8085 56.9145 44.7044C56.9568 44.6002 56.9693 44.4862 56.9505 44.3753L56.546 42.0062C56.5255 41.8858 56.5345 41.7623 56.5721 41.6462C56.6097 41.53 56.6748 41.4248 56.7618 41.3396L58.4754 39.6619C58.5557 39.5833 58.6125 39.4838 58.6395 39.3744C58.6664 39.2651 58.6623 39.1504 58.6276 39.0433C58.593 38.9362 58.5292 38.841 58.4435 38.7684C58.3578 38.6958 58.2535 38.6488 58.1426 38.6327L55.7745 38.287C55.654 38.2694 55.5396 38.2226 55.4411 38.1508C55.3426 38.0789 55.263 37.984 55.2091 37.8743L54.1507 35.7192C54.1012 35.6182 54.0244 35.5332 53.9293 35.4738C53.8341 35.4143 53.7243 35.3828 53.6122 35.3828C53.5001 35.3828 53.3903 35.4143 53.2951 35.4738C53.2 35.5332 53.1233 35.6182 53.0737 35.7192V35.7192Z" fill="#FFAF00"/>
<path d="M70.0561 35.7195L71.1152 37.8746C71.169 37.9843 71.2487 38.0792 71.3472 38.1511C71.4456 38.223 71.5601 38.2697 71.6806 38.2873L74.0483 38.633C74.1592 38.6491 74.2635 38.6962 74.3492 38.7687C74.4349 38.8413 74.4987 38.9365 74.5334 39.0436C74.568 39.1507 74.5721 39.2654 74.5452 39.3747C74.5183 39.4841 74.4614 39.5836 74.3811 39.6622L72.6675 41.3399C72.5805 41.4252 72.5154 41.5304 72.4778 41.6465C72.4402 41.7626 72.4313 41.8862 72.4517 42.0065L72.8562 44.3756C72.875 44.4865 72.8625 44.6005 72.8202 44.7047C72.7779 44.8088 72.7074 44.899 72.6168 44.9651C72.5261 45.0311 72.4188 45.0704 72.3071 45.0784C72.1954 45.0864 72.0837 45.0629 71.9846 45.0105L69.8671 43.8922C69.7594 43.8353 69.6395 43.8056 69.5178 43.8056C69.396 43.8056 69.2761 43.8353 69.1684 43.8922L67.051 45.0105C66.9519 45.0629 66.8401 45.0864 66.7284 45.0784C66.6167 45.0704 66.5095 45.0311 66.4188 44.9651C66.3281 44.899 66.2577 44.8088 66.2153 44.7047C66.173 44.6005 66.1606 44.4865 66.1793 44.3756L66.5839 42.0065C66.6043 41.8862 66.5954 41.7626 66.5578 41.6465C66.5202 41.5304 66.455 41.4251 66.368 41.3399L64.6545 39.6622C64.5741 39.5836 64.5173 39.4841 64.4904 39.3747C64.4634 39.2654 64.4675 39.1507 64.5022 39.0436C64.5368 38.9365 64.6006 38.8413 64.6863 38.7687C64.7721 38.6962 64.8763 38.6491 64.9873 38.633L67.3553 38.2873C67.4758 38.2697 67.5902 38.223 67.6887 38.1511C67.7872 38.0792 67.8668 37.9843 67.9207 37.8746L68.9769 35.7195C69.0262 35.6179 69.103 35.5323 69.1984 35.4725C69.2938 35.4126 69.404 35.3809 69.5165 35.3809C69.629 35.3809 69.7392 35.4126 69.8346 35.4725C69.9301 35.5323 70.0068 35.6179 70.0561 35.7195V35.7195Z" fill="#FFAF00"/>
<path d="M71.9846 45.012L70.5425 44.2501V36.7095L71.1149 37.8745C71.1687 37.9842 71.2483 38.0791 71.3468 38.1509C71.4453 38.2228 71.5598 38.2696 71.6802 38.2872L74.0483 38.6329C74.1592 38.649 74.2635 38.696 74.3492 38.7686C74.4349 38.8412 74.4987 38.9364 74.5334 39.0435C74.568 39.1506 74.5721 39.2653 74.5452 39.3746C74.5183 39.4839 74.4614 39.5835 74.3811 39.6621L72.6675 41.3398C72.5805 41.425 72.5154 41.5303 72.4778 41.6464C72.4402 41.7625 72.4313 41.886 72.4517 42.0064L72.8562 44.3755C72.8753 44.4866 72.8631 44.6007 72.821 44.7052C72.7788 44.8096 72.7084 44.9 72.6176 44.9663C72.5269 45.0325 72.4195 45.0719 72.3076 45.08C72.1957 45.0881 72.0838 45.0645 71.9846 45.012V45.012Z" fill="#FDE3AC"/>
<path d="M5.36343 35.719L4.3044 37.8745C4.25053 37.9841 4.17091 38.079 4.07242 38.1509C3.97392 38.2228 3.8595 38.2696 3.73901 38.2871L1.37096 38.6328C1.26 38.649 1.15576 38.696 1.07003 38.7686C0.984299 38.8411 0.920507 38.9364 0.885874 39.0435C0.851242 39.1506 0.847153 39.2653 0.874069 39.3746C0.900986 39.4839 0.95784 39.5835 1.03818 39.662L2.75172 41.3397C2.83873 41.425 2.90383 41.5302 2.94143 41.6463C2.97903 41.7624 2.988 41.886 2.96757 42.0064L2.56304 44.3755C2.54426 44.4864 2.55673 44.6004 2.59905 44.7045C2.64136 44.8087 2.71183 44.8989 2.8025 44.9649C2.89317 45.031 3.00042 45.0702 3.11213 45.0782C3.22384 45.0863 3.33556 45.0628 3.43467 45.0104L5.5521 43.892C5.65985 43.8351 5.77975 43.8054 5.90148 43.8054C6.02321 43.8054 6.14311 43.8351 6.25086 43.892L8.3683 45.0104C8.4674 45.0628 8.57912 45.0863 8.69083 45.0782C8.80254 45.0702 8.90979 45.031 9.00046 44.9649C9.09113 44.8989 9.1616 44.8087 9.20391 44.7045C9.24623 44.6004 9.2587 44.4864 9.23992 44.3755L8.83539 42.0064C8.81494 41.886 8.82389 41.7624 8.86149 41.6463C8.89909 41.5302 8.96421 41.425 9.05124 41.3397L10.7648 39.662C10.8451 39.5835 10.902 39.4839 10.9289 39.3746C10.9558 39.2653 10.9517 39.1506 10.9171 39.0435C10.8824 38.9364 10.8187 38.8411 10.7329 38.7686C10.6472 38.696 10.543 38.649 10.432 38.6328L8.06521 38.2868C7.94473 38.2692 7.8303 38.2225 7.73181 38.1506C7.63331 38.0787 7.5537 37.9838 7.49983 37.8741L6.44079 35.719C6.39125 35.618 6.31453 35.5329 6.21933 35.4734C6.12413 35.4139 6.01424 35.3823 5.90211 35.3823C5.78998 35.3823 5.68009 35.4139 5.58489 35.4734C5.48968 35.5329 5.41297 35.618 5.36343 35.719V35.719Z" fill="#E2E2E2"/>
<path d="M6.41993 35.7197L7.47897 37.8748C7.53284 37.9845 7.61246 38.0794 7.71095 38.1513C7.80945 38.2231 7.92387 38.2699 8.04436 38.2875L10.4124 38.6332C10.5234 38.6493 10.6276 38.6963 10.7133 38.7689C10.7991 38.8415 10.8629 38.9367 10.8975 39.0438C10.9321 39.1509 10.9362 39.2656 10.9093 39.3749C10.8824 39.4843 10.8255 39.5838 10.7452 39.6624L9.03165 41.3401C8.94463 41.4253 8.87954 41.5306 8.84194 41.6467C8.80434 41.7628 8.79536 41.8864 8.81579 42.0067L9.22032 44.3758C9.2391 44.4867 9.22664 44.6007 9.18432 44.7049C9.14201 44.809 9.07154 44.8992 8.98087 44.9653C8.8902 45.0313 8.78295 45.0706 8.67124 45.0786C8.55953 45.0866 8.4478 45.0631 8.34869 45.0107L6.23126 43.8924C6.12352 43.8355 6.00362 43.8057 5.88189 43.8057C5.76016 43.8057 5.64026 43.8355 5.53251 43.8924L3.41507 45.0107C3.31597 45.0631 3.20424 45.0866 3.09253 45.0786C2.98082 45.0706 2.87358 45.0313 2.78291 44.9653C2.69224 44.8992 2.62177 44.809 2.57946 44.7049C2.53714 44.6007 2.52467 44.4867 2.54345 44.3758L2.94798 42.0067C2.96843 41.8864 2.95948 41.7628 2.92188 41.6467C2.88428 41.5305 2.81916 41.4253 2.73212 41.3401L1.01858 39.6624C0.938238 39.5838 0.881393 39.4843 0.854477 39.3749C0.827561 39.2656 0.831649 39.1509 0.866282 39.0438C0.900915 38.9367 0.964706 38.8415 1.05044 38.7689C1.13617 38.6963 1.24041 38.6493 1.35137 38.6332L3.71942 38.2875C3.83991 38.2699 3.95433 38.2231 4.05283 38.1513C4.15132 38.0794 4.23094 37.9845 4.28481 37.8748L5.34383 35.7197C5.39351 35.619 5.47021 35.5342 5.56528 35.4749C5.66034 35.4157 5.77 35.3843 5.88189 35.3843C5.99377 35.3843 6.10343 35.4157 6.1985 35.4749C6.29357 35.5342 6.37026 35.619 6.41993 35.7197V35.7197Z" fill="#FFAF00"/>
<path d="M2.70545 3.21356C3.1701 3.21356 3.5537 3.27569 3.85626 3.39996C4.15882 3.52422 4.38303 3.71062 4.52891 3.95915C4.68019 4.20228 4.75583 4.51024 4.75583 4.88304C4.75583 5.18019 4.7045 5.43142 4.60185 5.63673C4.5046 5.83664 4.37493 6.00142 4.21284 6.13109C4.05616 6.25536 3.88597 6.35531 3.70228 6.43095L5.23398 9H4.21284L2.92427 6.65787H2.0409V9H1.14133V3.21356H2.70545ZM2.66493 3.95915H2.0409V5.92849H2.68114C2.94588 5.92849 3.16199 5.89067 3.32948 5.81503C3.50237 5.73939 3.62934 5.62593 3.71038 5.47465C3.79683 5.32337 3.84005 5.13697 3.84005 4.91545C3.84005 4.68313 3.79683 4.49943 3.71038 4.36436C3.62934 4.22389 3.49967 4.12123 3.32138 4.0564C3.14849 3.99157 2.92967 3.95915 2.66493 3.95915ZM7.56484 4.55076C8.07811 4.55076 8.46442 4.67232 8.72375 4.91545C8.98849 5.15318 9.12086 5.52868 9.12086 6.04194V9H8.49683L8.32664 8.39218H8.29423C8.16996 8.54886 8.0457 8.67853 7.92143 8.78118C7.80257 8.88384 7.66209 8.95948 7.50001 9.0081C7.34333 9.05673 7.14882 9.08104 6.9165 9.08104C6.67337 9.08104 6.45456 9.03512 6.26006 8.94327C6.06555 8.84602 5.91157 8.70014 5.79811 8.50564C5.68465 8.30573 5.62792 8.0572 5.62792 7.76005C5.62792 7.31702 5.78461 6.97934 6.09797 6.74702C6.41674 6.51469 6.90029 6.38773 7.54863 6.36612L8.2456 6.3418V6.09867C8.2456 5.7745 8.17807 5.54758 8.04299 5.41792C7.91333 5.28825 7.72963 5.22341 7.4919 5.22341C7.292 5.22341 7.0948 5.25583 6.90029 5.32067C6.70579 5.3855 6.51669 5.46384 6.333 5.55569L6.06555 4.93166C6.26546 4.8236 6.49238 4.73446 6.74631 4.66422C7.00565 4.58858 7.27849 4.55076 7.56484 4.55076ZM7.71882 6.91721C7.27579 6.93882 6.96783 7.02256 6.79494 7.16844C6.62205 7.30891 6.5356 7.50882 6.5356 7.76815C6.5356 7.99507 6.59503 8.15986 6.7139 8.26251C6.83816 8.36517 6.99754 8.41649 7.19205 8.41649C7.4892 8.41649 7.73773 8.32194 7.93764 8.13284C8.14295 7.94374 8.2456 7.6601 8.2456 7.2819V6.901L7.71882 6.91721ZM11.8757 8.38408C11.9891 8.38408 12.0999 8.37327 12.208 8.35166C12.316 8.33005 12.4106 8.30573 12.4916 8.27872V8.92706C12.3998 8.97028 12.2782 9.0054 12.1269 9.03242C11.981 9.06483 11.8271 9.08104 11.665 9.08104C11.438 9.08104 11.23 9.04052 11.0409 8.95948C10.8518 8.87844 10.7006 8.73796 10.5871 8.53806C10.4736 8.33815 10.4169 8.05991 10.4169 7.70332V5.28825H9.85772V4.89924L10.4574 4.57507L10.7573 3.65119H11.3003V4.6318H12.4592V5.28825H11.3003V7.68711C11.3003 7.92483 11.3543 8.10043 11.4624 8.21389C11.5704 8.32735 11.7082 8.38408 11.8757 8.38408ZM14.9568 4.55076C15.3188 4.55076 15.6322 4.6318 15.8969 4.79389C16.1616 4.95057 16.3643 5.17749 16.5047 5.47465C16.6506 5.7718 16.7235 6.12299 16.7235 6.5282V6.99825H13.9762C13.987 7.44668 14.0951 7.78976 14.3004 8.02749C14.5057 8.26521 14.7947 8.38408 15.1675 8.38408C15.4323 8.38408 15.6673 8.35976 15.8726 8.31114C16.0833 8.25711 16.2967 8.17877 16.5128 8.07611V8.78929C16.3075 8.88654 16.0968 8.95948 15.8807 9.0081C15.67 9.05673 15.4134 9.08104 15.1108 9.08104C14.7164 9.08104 14.3652 8.9973 14.0572 8.82981C13.7493 8.66232 13.5089 8.41379 13.336 8.08422C13.1631 7.74924 13.0766 7.33863 13.0766 6.85237C13.0766 6.36071 13.155 5.94469 13.3117 5.60431C13.4683 5.26394 13.6871 5.0046 13.9681 4.82631C14.2544 4.64261 14.584 4.55076 14.9568 4.55076ZM14.9568 5.21531C14.6813 5.21531 14.4598 5.31526 14.2923 5.51517C14.1248 5.71507 14.0275 5.99872 14.0005 6.36612H15.8564C15.8564 6.1392 15.824 5.93929 15.7591 5.7664C15.6943 5.59351 15.5944 5.45844 15.4593 5.36119C15.3296 5.26394 15.1621 5.21531 14.9568 5.21531ZM23.3537 6.81185C23.3537 7.17384 23.3078 7.49531 23.2159 7.77626C23.1241 8.0572 22.9917 8.29493 22.8188 8.48943C22.6513 8.68393 22.446 8.83251 22.2029 8.93517C21.9598 9.03242 21.6869 9.08104 21.3844 9.08104C21.1088 9.08104 20.8522 9.03242 20.6145 8.93517C20.3768 8.83251 20.1714 8.68393 19.9986 8.48943C19.8257 8.29493 19.6906 8.0572 19.5933 7.77626C19.5015 7.49531 19.4556 7.17114 19.4556 6.80375C19.4556 6.32289 19.5339 5.91498 19.6906 5.58C19.8473 5.24503 20.0715 4.99109 20.3632 4.8182C20.6604 4.63991 21.0116 4.55076 21.4168 4.55076C21.795 4.55076 22.13 4.63991 22.4217 4.8182C22.7135 4.99109 22.9404 5.24503 23.1025 5.58C23.27 5.91498 23.3537 6.32559 23.3537 6.81185ZM20.3632 6.81185C20.3632 7.13602 20.3984 7.41697 20.4686 7.65469C20.5442 7.88701 20.6577 8.06531 20.809 8.18957C20.9657 8.31384 21.1629 8.37597 21.4006 8.37597C21.6437 8.37597 21.8409 8.31384 21.9922 8.18957C22.1489 8.06531 22.2623 7.88701 22.3326 7.65469C22.4082 7.41697 22.446 7.13602 22.446 6.81185C22.446 6.47687 22.4082 6.19593 22.3326 5.96901C22.2569 5.74209 22.1435 5.5692 21.9922 5.45033C21.8409 5.32607 21.641 5.26394 21.3925 5.26394C21.0305 5.26394 20.7685 5.39901 20.6064 5.66915C20.4443 5.93929 20.3632 6.32019 20.3632 6.81185ZM26.4915 4.55076C26.9669 4.55076 27.3316 4.67773 27.5855 4.93166C27.8449 5.18559 27.9745 5.59351 27.9745 6.1554V9H27.0993V6.27697C27.0993 5.93659 27.0317 5.68266 26.8967 5.51517C26.767 5.34228 26.5644 5.25583 26.2888 5.25583C25.8836 5.25583 25.6054 5.3882 25.4541 5.65294C25.3028 5.91768 25.2272 6.29858 25.2272 6.79564V9H24.3519V4.6318H25.0408L25.1624 5.21531H25.211C25.3028 5.06403 25.4136 4.93977 25.5433 4.84251C25.6729 4.74526 25.8188 4.67232 25.9809 4.6237C26.143 4.57507 26.3132 4.55076 26.4915 4.55076Z" fill="black"/>
</svg>
