<svg width="109" height="62" viewBox="0 0 109 62" fill="none" xmlns="http://www.w3.org/2000/svg">
<g opacity="0.9">
<rect x="1.17969" y="1.00098" width="106.818" height="60" rx="10" fill="#071A59"/>
<rect x="0.679688" y="0.500977" width="107.818" height="61" rx="10.5" stroke="white" stroke-opacity="0.09"/>
</g>
<path d="M83.2002 36.3284H82.276V37.9331H81.1994V36.3284H78.0813V35.4752L81.1892 30.6509H82.276V35.4143H83.2002V36.3284ZM81.1994 33.4439C81.1994 33.2814 81.1994 33.1257 81.1994 32.9767C81.2061 32.8278 81.2129 32.6856 81.2197 32.5502C81.2265 32.408 81.2298 32.2793 81.2298 32.1642C81.2366 32.0423 81.2434 31.934 81.2502 31.8392H81.2095C81.1554 31.9746 81.091 32.1134 81.0166 32.2556C80.9489 32.3978 80.8811 32.5231 80.8134 32.6314L79.1071 35.4143H81.1994V33.4439ZM83.9931 37.3339C83.9931 37.0698 84.0574 36.8836 84.186 36.7753C84.3214 36.6669 84.4873 36.6128 84.6837 36.6128C84.8733 36.6128 85.0358 36.6669 85.1712 36.7753C85.3134 36.8836 85.3845 37.0698 85.3845 37.3339C85.3845 37.5979 85.3134 37.7875 85.1712 37.9026C85.0358 38.0177 84.8733 38.0753 84.6837 38.0753C84.4873 38.0753 84.3214 38.0177 84.186 37.9026C84.0574 37.7875 83.9931 37.5979 83.9931 37.3339ZM88.7442 30.5798C89.1504 30.5798 89.5093 30.6475 89.8208 30.7829C90.139 30.9116 90.3861 31.1045 90.5622 31.3618C90.745 31.6191 90.8364 31.9408 90.8364 32.3267C90.8364 32.6179 90.7789 32.8718 90.6637 33.0884C90.5554 33.3051 90.4031 33.4981 90.2067 33.6674C90.0171 33.8299 89.8072 33.9721 89.577 34.0939C89.8411 34.2361 90.0848 34.3986 90.3083 34.5815C90.5317 34.7575 90.7111 34.964 90.8466 35.201C90.9888 35.438 91.0598 35.7224 91.0598 36.0542C91.0598 36.4604 90.9651 36.8125 90.7755 37.1104C90.5926 37.4016 90.3286 37.6284 89.9833 37.7909C89.6379 37.9534 89.2283 38.0347 88.7543 38.0347C88.2465 38.0347 87.8165 37.9568 87.4644 37.8011C87.1191 37.6453 86.8584 37.4253 86.6824 37.1409C86.5063 36.8497 86.4183 36.4977 86.4183 36.0846C86.4183 35.7528 86.4793 35.4651 86.6011 35.2213C86.7298 34.9776 86.8957 34.7677 87.0988 34.5916C87.3087 34.4156 87.5389 34.2666 87.7894 34.1447C87.5728 34.0093 87.3764 33.857 87.2004 33.6877C87.0243 33.5116 86.8855 33.3119 86.784 33.0884C86.6892 32.865 86.6418 32.6077 86.6418 32.3166C86.6418 31.9374 86.7332 31.6225 86.916 31.372C87.0988 31.1147 87.3493 30.9183 87.6676 30.7829C87.9858 30.6475 88.3447 30.5798 88.7442 30.5798ZM87.4746 36.0643C87.4746 36.3961 87.5795 36.6703 87.7894 36.887C87.9994 37.0969 88.3142 37.2018 88.734 37.2018C89.0184 37.2018 89.252 37.1544 89.4348 37.0596C89.6176 36.9581 89.7564 36.8227 89.8512 36.6534C89.9528 36.4773 90.0036 36.2776 90.0036 36.0542C90.0036 35.8307 89.9494 35.6343 89.8411 35.4651C89.7327 35.2958 89.5838 35.1468 89.3942 35.0182C89.2114 34.8828 89.0015 34.7609 88.7645 34.6526L88.6324 34.5916C88.3887 34.7067 88.1788 34.8354 88.0027 34.9776C87.8335 35.1198 87.7014 35.2789 87.6066 35.4549C87.5186 35.631 87.4746 35.8341 87.4746 36.0643ZM88.7238 31.4228C88.4259 31.4228 88.1788 31.504 87.9824 31.6665C87.7928 31.829 87.698 32.066 87.698 32.3775C87.698 32.6009 87.7454 32.7905 87.8402 32.9463C87.9418 33.102 88.0704 33.2374 88.2262 33.3525C88.3887 33.4609 88.5647 33.5658 88.7543 33.6674C88.9439 33.5726 89.1132 33.471 89.2621 33.3627C89.4179 33.2476 89.5398 33.1121 89.6278 32.9564C89.7226 32.7939 89.77 32.6009 89.77 32.3775C89.77 32.066 89.6718 31.829 89.4754 31.6665C89.2858 31.504 89.0353 31.4228 88.7238 31.4228Z" fill="#F0F0F0"/>
<path d="M19.9374 11.8593C20.3903 11.8593 20.7643 11.9198 21.0592 12.0409C21.3541 12.1621 21.5726 12.3438 21.7148 12.586C21.8623 12.823 21.936 13.1232 21.936 13.4866C21.936 13.7762 21.886 14.0211 21.7859 14.2212C21.6911 14.4161 21.5647 14.5767 21.4067 14.7031C21.254 14.8242 21.0881 14.9216 20.9091 14.9954L22.4021 17.4995H21.4067L20.1507 15.2166H19.2897V17.4995H18.4128V11.8593H19.9374ZM19.8979 12.586H19.2897V14.5056H19.9137C20.1718 14.5056 20.3824 14.4687 20.5457 14.395C20.7142 14.3213 20.838 14.2107 20.917 14.0632C21.0012 13.9158 21.0434 13.7341 21.0434 13.5182C21.0434 13.2917 21.0012 13.1126 20.917 12.981C20.838 12.8441 20.7116 12.744 20.5378 12.6808C20.3693 12.6176 20.156 12.586 19.8979 12.586ZM24.6741 13.1627C25.1744 13.1627 25.5509 13.2812 25.8037 13.5182C26.0617 13.7499 26.1908 14.1159 26.1908 14.6162V17.4995H25.5825L25.4166 16.907H25.385C25.2639 17.0598 25.1428 17.1862 25.0216 17.2862C24.9058 17.3863 24.7689 17.46 24.6109 17.5074C24.4581 17.5548 24.2686 17.5785 24.0421 17.5785C23.8051 17.5785 23.5918 17.5337 23.4022 17.4442C23.2126 17.3494 23.0626 17.2072 22.952 17.0176C22.8414 16.8228 22.7861 16.5805 22.7861 16.2909C22.7861 15.859 22.9388 15.5299 23.2442 15.3034C23.555 15.077 24.0263 14.9532 24.6583 14.9322L25.3376 14.9085V14.6715C25.3376 14.3555 25.2718 14.1343 25.1401 14.0079C25.0137 13.8815 24.8347 13.8183 24.603 13.8183C24.4081 13.8183 24.2159 13.8499 24.0263 13.9131C23.8367 13.9763 23.6524 14.0527 23.4733 14.1422L23.2126 13.534C23.4075 13.4286 23.6287 13.3417 23.8762 13.2733C24.129 13.1995 24.3949 13.1627 24.6741 13.1627ZM24.8241 15.4693C24.3923 15.4904 24.0921 15.572 23.9236 15.7142C23.7551 15.8511 23.6708 16.046 23.6708 16.2988C23.6708 16.52 23.7288 16.6806 23.8446 16.7807C23.9657 16.8807 24.1211 16.9307 24.3107 16.9307C24.6003 16.9307 24.8426 16.8386 25.0374 16.6543C25.2376 16.4699 25.3376 16.1935 25.3376 15.8248V15.4535L24.8241 15.4693ZM28.876 16.8991C28.9866 16.8991 29.0945 16.8886 29.1999 16.8676C29.3052 16.8465 29.3973 16.8228 29.4763 16.7965V17.4284C29.3868 17.4705 29.2683 17.5048 29.1209 17.5311C28.9787 17.5627 28.8286 17.5785 28.6706 17.5785C28.4494 17.5785 28.2467 17.539 28.0623 17.46C27.878 17.381 27.7306 17.2441 27.62 17.0492C27.5094 16.8544 27.4541 16.5832 27.4541 16.2356V13.8815H26.909V13.5024L27.4936 13.1864L27.7858 12.2858H28.3151V13.2417H29.4447V13.8815H28.3151V16.2198C28.3151 16.4515 28.3678 16.6227 28.4731 16.7333C28.5784 16.8439 28.7127 16.8991 28.876 16.8991ZM31.8793 13.1627C32.2321 13.1627 32.5376 13.2417 32.7956 13.3997C33.0537 13.5524 33.2512 13.7736 33.3881 14.0632C33.5303 14.3529 33.6014 14.6952 33.6014 15.0902V15.5483H30.9234C30.934 15.9854 31.0393 16.3199 31.2394 16.5516C31.4395 16.7833 31.7213 16.8991 32.0847 16.8991C32.3427 16.8991 32.5718 16.8755 32.7719 16.8281C32.9773 16.7754 33.1853 16.699 33.396 16.599V17.2941C33.1959 17.3889 32.9905 17.46 32.7798 17.5074C32.5744 17.5548 32.3243 17.5785 32.0294 17.5785C31.6449 17.5785 31.3026 17.4969 31.0024 17.3336C30.7022 17.1704 30.4679 16.9281 30.2994 16.6069C30.1309 16.2804 30.0466 15.8801 30.0466 15.4061C30.0466 14.9269 30.123 14.5214 30.2757 14.1896C30.4284 13.8578 30.6417 13.6051 30.9155 13.4313C31.1947 13.2522 31.5159 13.1627 31.8793 13.1627ZM31.8793 13.8104C31.6107 13.8104 31.3948 13.9079 31.2315 14.1027C31.0683 14.2976 30.9735 14.5741 30.9471 14.9322H32.7561C32.7561 14.711 32.7245 14.5161 32.6613 14.3476C32.5981 14.1791 32.5007 14.0474 32.369 13.9526C32.2427 13.8578 32.0794 13.8104 31.8793 13.8104ZM40.064 15.3666C40.064 15.7195 40.0193 16.0328 39.9297 16.3067C39.8402 16.5805 39.7112 16.8123 39.5427 17.0018C39.3794 17.1914 39.1793 17.3363 38.9423 17.4363C38.7053 17.5311 38.4394 17.5785 38.1445 17.5785C37.8759 17.5785 37.6257 17.5311 37.394 17.4363C37.1623 17.3363 36.9622 17.1914 36.7936 17.0018C36.6251 16.8123 36.4935 16.5805 36.3987 16.3067C36.3091 16.0328 36.2644 15.7169 36.2644 15.3587C36.2644 14.89 36.3407 14.4924 36.4935 14.1659C36.6462 13.8394 36.8647 13.5919 37.1491 13.4234C37.4388 13.2496 37.7811 13.1627 38.1761 13.1627C38.5447 13.1627 38.8712 13.2496 39.1556 13.4234C39.44 13.5919 39.6612 13.8394 39.8191 14.1659C39.9824 14.4924 40.064 14.8927 40.064 15.3666ZM37.1491 15.3666C37.1491 15.6826 37.1833 15.9565 37.2518 16.1882C37.3255 16.4146 37.4361 16.5884 37.5836 16.7096C37.7363 16.8307 37.9285 16.8912 38.1603 16.8912C38.3972 16.8912 38.5895 16.8307 38.7369 16.7096C38.8896 16.5884 39.0002 16.4146 39.0687 16.1882C39.1424 15.9565 39.1793 15.6826 39.1793 15.3666C39.1793 15.0401 39.1424 14.7663 39.0687 14.5451C38.995 14.3239 38.8844 14.1554 38.7369 14.0395C38.5895 13.9184 38.3946 13.8578 38.1524 13.8578C37.7995 13.8578 37.5441 13.9895 37.3861 14.2528C37.2281 14.5161 37.1491 14.8874 37.1491 15.3666ZM43.1225 13.1627C43.5859 13.1627 43.9414 13.2864 44.1889 13.534C44.4417 13.7815 44.5681 14.1791 44.5681 14.7268V17.4995H43.715V14.8453C43.715 14.5135 43.6491 14.266 43.5175 14.1027C43.3911 13.9342 43.1936 13.8499 42.925 13.8499C42.53 13.8499 42.2588 13.979 42.1114 14.237C41.9639 14.4951 41.8902 14.8663 41.8902 15.3508V17.4995H41.037V13.2417H41.7085L41.827 13.8104H41.8744C41.9639 13.663 42.0719 13.5419 42.1983 13.4471C42.3247 13.3523 42.4668 13.2812 42.6248 13.2338C42.7828 13.1864 42.9487 13.1627 43.1225 13.1627Z" fill="#F0F0F0"/>
<path d="M33.4766 22.0415H36.0308V37.9248H33.4766V22.0415Z" fill="white"/>
<path d="M44.9145 32.8921C44.9145 35.3531 42.9155 35.5768 42.2491 35.5768C40.6944 35.5768 40.4722 34.1226 40.4722 33.3395V27.187H37.918V33.2276C37.918 34.6819 38.3622 36.0242 39.2506 36.8073C40.028 37.5903 41.0275 37.9259 42.2491 37.9259C43.1376 37.9259 44.2481 37.7022 44.9145 37.031V37.9259H47.4687V27.187H44.9145V32.8921Z" fill="white"/>
<path d="M52.4657 23.272H49.9114V27.1869H48.0234V29.6477H49.9114V37.9248H52.4657V29.6477H54.3536V27.1869H52.4657V23.272Z" fill="white"/>
<path d="M62.3486 34.682C61.7934 35.1294 61.016 35.465 60.2386 35.465C58.4617 35.465 57.2401 34.1226 57.2401 32.3328C57.2401 30.543 58.4617 29.3125 60.2386 29.3125C61.016 29.3125 61.7934 29.5362 62.3486 30.0956L62.6818 30.4311L64.4587 28.7532L64.0145 28.4176C63.015 27.5227 61.6823 26.9634 60.2386 26.9634C57.129 26.9634 54.7969 29.3125 54.7969 32.4447C54.7969 35.5769 57.129 37.926 60.2386 37.926C61.6823 37.926 63.015 37.3667 64.0145 36.4718L64.4587 36.1362L62.6818 34.3464L62.3486 34.682Z" fill="white"/>
<path d="M73.4575 28.0816C72.6801 27.2986 71.9027 26.9631 70.6811 26.9631C69.7926 26.9631 68.9042 27.1868 68.2379 27.8579V22.0415H65.6836V37.9248H68.2379V31.9965C68.2379 29.5357 69.9037 29.312 70.57 29.312C72.1248 29.312 72.0138 30.7661 72.0138 31.5491V37.8129H74.568V31.661C74.568 30.2068 74.2349 28.8646 73.4575 28.0816Z" fill="white"/>
<path d="M60.1284 34.2334C61.1098 34.2334 61.9053 33.4321 61.9053 32.4436C61.9053 31.4551 61.1098 30.6538 60.1284 30.6538C59.1471 30.6538 58.3516 31.4551 58.3516 32.4436C58.3516 33.4321 59.1471 34.2334 60.1284 34.2334Z" fill="#EF4335"/>
<path d="M29.9225 34.01C29.034 34.9048 27.7014 35.4641 26.2577 35.4641C23.4813 35.4641 21.4823 33.227 21.4823 30.2069C21.4823 27.1869 23.4813 24.9498 26.3687 24.9498C27.7014 24.9498 29.034 25.5091 30.0335 26.5158L30.3667 26.8513L32.0325 25.1735L31.6994 24.8379C30.2557 23.3838 28.3677 22.6009 26.3687 22.6009C22.1486 22.489 19.0391 25.8446 19.0391 30.2069C19.0391 34.5692 22.1486 37.9249 26.2577 37.9249C28.2567 37.9249 30.2557 37.1419 31.5883 35.6878L31.9215 35.3522L30.2557 33.6744L29.9225 34.01Z" fill="white"/>
<path d="M37.669 44.3762L36.6442 46.4769C36.592 46.5838 36.515 46.6763 36.4197 46.7464C36.3244 46.8164 36.2136 46.862 36.0971 46.8792L33.8064 47.2161C33.6991 47.2318 33.5982 47.2777 33.5152 47.3484C33.4323 47.4191 33.3705 47.512 33.337 47.6164C33.3035 47.7208 33.2995 47.8326 33.3256 47.9391C33.3516 48.0457 33.4066 48.1427 33.4844 48.2193L35.1426 49.8546C35.2268 49.9377 35.2898 50.0403 35.3262 50.1535C35.3625 50.2667 35.3712 50.3871 35.3515 50.5044L34.96 52.8137C34.9418 52.9218 34.9539 53.0329 34.9948 53.1344C35.0358 53.2359 35.104 53.3238 35.1917 53.3882C35.2795 53.4526 35.3832 53.4909 35.4913 53.4987C35.5994 53.5065 35.7076 53.4836 35.8035 53.4325L37.8525 52.3424C37.9568 52.287 38.0728 52.258 38.1906 52.258C38.3084 52.258 38.4244 52.287 38.5287 52.3424L40.5777 53.4325C40.6736 53.4836 40.7817 53.5065 40.8898 53.4987C40.9979 53.4909 41.1017 53.4526 41.1894 53.3882C41.2772 53.3238 41.3454 53.2359 41.3863 53.1344C41.4273 53.0329 41.4393 52.9218 41.4212 52.8137L41.0297 50.5044C41.0099 50.3871 41.0186 50.2666 41.055 50.1535C41.0913 50.0403 41.1544 49.9377 41.2386 49.8546L42.8968 48.2193C42.9745 48.1427 43.0295 48.0457 43.0556 47.9391C43.0816 47.8326 43.0777 47.7208 43.0441 47.6164C43.0106 47.512 42.9489 47.4191 42.8659 47.3484C42.783 47.2777 42.6821 47.2318 42.5747 47.2161L40.2832 46.8792C40.1666 46.862 40.0559 46.8164 39.9606 46.7464C39.8652 46.6763 39.7882 46.5838 39.7361 46.4769L38.7112 44.3762C38.6633 44.2778 38.589 44.1949 38.4969 44.137C38.4049 44.079 38.2986 44.0483 38.1901 44.0483C38.0817 44.0483 37.9754 44.079 37.8833 44.137C37.7912 44.1949 37.717 44.2778 37.669 44.3762Z" fill="#FFAF00"/>
<path d="M51.9199 44.3762L50.8951 46.4769C50.843 46.5838 50.7659 46.6763 50.6706 46.7464C50.5753 46.8165 50.4646 46.862 50.348 46.8792L48.0564 47.2162C47.9491 47.2319 47.8482 47.2777 47.7652 47.3484C47.6823 47.4192 47.6205 47.512 47.587 47.6164C47.5535 47.7208 47.5495 47.8326 47.5756 47.9392C47.6016 48.0457 47.6566 48.1428 47.7344 48.2193L49.3926 49.8546C49.4768 49.9378 49.5398 50.0403 49.5762 50.1535C49.6125 50.2667 49.6212 50.3871 49.6015 50.5044L49.21 52.8137C49.1918 52.9218 49.2039 53.0329 49.2448 53.1344C49.2858 53.236 49.354 53.3239 49.4417 53.3882C49.5295 53.4526 49.6332 53.4909 49.7413 53.4987C49.8494 53.5065 49.9576 53.4836 50.0535 53.4326L52.1025 52.3424C52.2068 52.287 52.3228 52.258 52.4406 52.258C52.5584 52.258 52.6744 52.287 52.7787 52.3424L54.8277 53.4326C54.9236 53.4836 55.0317 53.5065 55.1398 53.4987C55.2479 53.4909 55.3517 53.4526 55.4394 53.3882C55.5272 53.3239 55.5954 53.236 55.6363 53.1344C55.6773 53.0329 55.6893 52.9218 55.6712 52.8137L55.2797 50.5044C55.2599 50.3871 55.2686 50.2667 55.305 50.1535C55.3413 50.0403 55.4044 49.9377 55.4886 49.8546L57.1468 48.2193C57.2245 48.1428 57.2795 48.0457 57.3056 47.9392C57.3316 47.8326 57.3277 47.7208 57.2941 47.6164C57.2606 47.512 57.1989 47.4192 57.1159 47.3484C57.033 47.2777 56.9321 47.2319 56.8247 47.2162L54.5332 46.8792C54.4166 46.862 54.3059 46.8165 54.2106 46.7464C54.1152 46.6763 54.0382 46.5838 53.9861 46.4769L52.9612 44.3762C52.9132 44.2781 52.839 44.1954 52.747 44.1377C52.655 44.0799 52.5489 44.0493 52.4406 44.0493C52.3323 44.0493 52.2262 44.0799 52.1342 44.1377C52.0422 44.1954 51.968 44.2781 51.9199 44.3762Z" fill="#FFAF00"/>
<path d="M66.1618 44.3752L65.137 46.4759C65.0848 46.5828 65.0078 46.6753 64.9125 46.7454C64.8172 46.8155 64.7064 46.861 64.5899 46.8782L62.2986 47.2151C62.1912 47.2309 62.0904 47.2767 62.0074 47.3474C61.9244 47.4182 61.8627 47.511 61.8292 47.6154C61.7957 47.7198 61.7917 47.8316 61.8178 47.9381C61.8438 48.0447 61.8988 48.1418 61.9766 48.2183L63.6348 49.8536C63.719 49.9367 63.782 50.0393 63.8183 50.1525C63.8547 50.2657 63.8634 50.3861 63.8436 50.5034L63.4522 52.8127C63.434 52.9208 63.4461 53.0319 63.487 53.1334C63.528 53.2349 63.5962 53.3229 63.6839 53.3872C63.7716 53.4516 63.8754 53.4899 63.9835 53.4977C64.0916 53.5055 64.1997 53.4826 64.2956 53.4316L66.3447 52.3414C66.4489 52.286 66.565 52.257 66.6828 52.257C66.8006 52.257 66.9166 52.286 67.0209 52.3414L69.0699 53.4316C69.1658 53.4826 69.2739 53.5055 69.382 53.4977C69.4901 53.4899 69.5939 53.4516 69.6816 53.3872C69.7694 53.3229 69.8376 53.2349 69.8785 53.1334C69.9195 53.0319 69.9315 52.9208 69.9134 52.8127L69.5219 50.5034C69.5021 50.3861 69.5108 50.2657 69.5472 50.1525C69.5835 50.0393 69.6465 49.9367 69.7308 49.8536L71.3889 48.2183C71.4667 48.1418 71.5217 48.0447 71.5478 47.9381C71.5738 47.8316 71.5698 47.7198 71.5363 47.6154C71.5028 47.511 71.4411 47.4182 71.3581 47.3474C71.2752 47.2767 71.1743 47.2309 71.0669 47.2151L68.7754 46.8782C68.6588 46.861 68.5481 46.8155 68.4527 46.7454C68.3574 46.6753 68.2804 46.5828 68.2283 46.4759L67.204 44.3752C67.1561 44.2768 67.0818 44.1939 66.9897 44.136C66.8976 44.0781 66.7914 44.0474 66.6829 44.0474C66.5745 44.0474 66.4682 44.0781 66.3761 44.136C66.284 44.1939 66.2098 44.2768 66.1618 44.3752Z" fill="#FFAF00"/>
<path d="M81.4515 44.3764L82.4763 46.4771C82.5284 46.5841 82.6055 46.6765 82.7008 46.7466C82.7961 46.8167 82.9068 46.8623 83.0234 46.8794L85.3147 47.2164C85.422 47.2321 85.5229 47.2779 85.6059 47.3487C85.6888 47.4194 85.7506 47.5122 85.7841 47.6166C85.8176 47.721 85.8216 47.8328 85.7955 47.9394C85.7695 48.0459 85.7144 48.143 85.6367 48.2195L83.9785 49.8549C83.8943 49.938 83.8313 50.0405 83.7949 50.1537C83.7586 50.2669 83.7499 50.3873 83.7696 50.5047L84.1611 52.8139C84.1793 52.922 84.1672 53.0331 84.1263 53.1346C84.0853 53.2362 84.0171 53.3241 83.9294 53.3885C83.8416 53.4528 83.7379 53.4911 83.6298 53.4989C83.5217 53.5068 83.4135 53.4839 83.3176 53.4328L81.2686 52.3427C81.1643 52.2872 81.0483 52.2582 80.9305 52.2582C80.8127 52.2582 80.6967 52.2872 80.5924 52.3427L78.5434 53.4328C78.4475 53.4839 78.3394 53.5068 78.2313 53.4989C78.1232 53.4911 78.0194 53.4528 77.9317 53.3885C77.8439 53.3241 77.7757 53.2362 77.7348 53.1346C77.6938 53.0331 77.6818 52.922 77.6999 52.8139L78.0914 50.5047C78.1112 50.3873 78.1025 50.2669 78.0661 50.1537C78.0298 50.0405 77.9667 49.938 77.8825 49.8549L76.2243 48.2195C76.1466 48.143 76.0916 48.0459 76.0655 47.9394C76.0395 47.8328 76.0434 47.721 76.077 47.6166C76.1105 47.5122 76.1722 47.4194 76.2552 47.3487C76.3381 47.2779 76.439 47.2321 76.5464 47.2164L78.8379 46.8794C78.9545 46.8623 79.0652 46.8167 79.1605 46.7466C79.2559 46.6765 79.3329 46.5841 79.385 46.4771L80.4071 44.3764C80.4548 44.2775 80.5291 44.194 80.6214 44.1357C80.7138 44.0773 80.8204 44.0464 80.9293 44.0464C81.0382 44.0464 81.1448 44.0773 81.2371 44.1357C81.3295 44.194 81.4037 44.2775 81.4515 44.3764Z" fill="#FFAF00"/>
<path d="M83.3176 53.4331L81.9222 52.6905V45.3403L82.476 46.4759C82.5281 46.5828 82.6052 46.6753 82.7005 46.7454C82.7958 46.8155 82.9065 46.861 83.0231 46.8782L85.3147 47.2152C85.422 47.2309 85.5229 47.2767 85.6059 47.3474C85.6888 47.4182 85.7506 47.511 85.7841 47.6154C85.8176 47.7198 85.8216 47.8316 85.7955 47.9382C85.7695 48.0447 85.7144 48.1418 85.6367 48.2183L83.9785 49.8536C83.8943 49.9368 83.8313 50.0393 83.7949 50.1525C83.7586 50.2657 83.7499 50.3861 83.7696 50.5034L84.1611 52.8127C84.1796 52.9209 84.1678 53.0322 84.127 53.134C84.0862 53.2358 84.018 53.324 83.9302 53.3885C83.8424 53.4531 83.7385 53.4915 83.6302 53.4994C83.522 53.5073 83.4137 53.4843 83.3176 53.4331Z" fill="#FDE3AC"/>
<path d="M23.4238 44.3775L22.399 46.4785C22.3469 46.5854 22.2698 46.6779 22.1745 46.748C22.0792 46.818 21.9685 46.8636 21.8519 46.8808L19.5603 47.2177C19.453 47.2334 19.3521 47.2793 19.2691 47.35C19.1862 47.4207 19.1244 47.5136 19.0909 47.618C19.0574 47.7224 19.0534 47.8342 19.0795 47.9407C19.1055 48.0473 19.1606 48.1443 19.2383 48.2209L20.8965 49.8562C20.9807 49.9393 21.0437 50.0419 21.0801 50.1551C21.1165 50.2683 21.1251 50.3887 21.1054 50.506L20.7139 52.8153C20.6957 52.9234 20.7078 53.0345 20.7487 53.136C20.7897 53.2375 20.8579 53.3254 20.9456 53.3898C21.0334 53.4542 21.1372 53.4924 21.2453 53.5003C21.3534 53.5081 21.4615 53.4852 21.5574 53.4341L23.6064 52.344C23.7107 52.2886 23.8267 52.2596 23.9445 52.2596C24.0623 52.2596 24.1783 52.2886 24.2826 52.344L26.3316 53.4341C26.4275 53.4852 26.5356 53.5081 26.6437 53.5003C26.7518 53.4924 26.8556 53.4542 26.9433 53.3898C27.0311 53.3254 27.0993 53.2375 27.1402 53.136C27.1812 53.0345 27.1932 52.9234 27.1751 52.8153L26.7836 50.506C26.7638 50.3887 26.7725 50.2682 26.8089 50.1551C26.8453 50.0419 26.9083 49.9393 26.9925 49.8562L28.6507 48.2209C28.7284 48.1443 28.7834 48.0473 28.8095 47.9407C28.8355 47.8342 28.8316 47.7224 28.798 47.618C28.7645 47.5136 28.7028 47.4207 28.6198 47.35C28.5369 47.2793 28.436 47.2334 28.3286 47.2177L26.0383 46.8804C25.9217 46.8633 25.811 46.8177 25.7157 46.7476C25.6204 46.6776 25.5433 46.5851 25.4912 46.4782L24.4664 44.3775C24.4184 44.279 24.3442 44.1961 24.2521 44.1381C24.1599 44.0801 24.0536 44.0493 23.9451 44.0493C23.8366 44.0493 23.7302 44.0801 23.6381 44.1381C23.546 44.1961 23.4718 44.279 23.4238 44.3775Z" fill="#E2E2E2"/>
<path d="M24.4456 44.3772L25.4704 46.4779C25.5226 46.5848 25.5996 46.6773 25.6949 46.7474C25.7902 46.8174 25.901 46.863 26.0176 46.8802L28.3091 47.2171C28.4165 47.2329 28.5173 47.2787 28.6003 47.3494C28.6833 47.4201 28.745 47.513 28.7785 47.6174C28.812 47.7218 28.816 47.8336 28.7899 47.9401C28.7639 48.0467 28.7089 48.1437 28.6311 48.2203L26.973 49.8556C26.8888 49.9387 26.8258 50.0413 26.7894 50.1545C26.753 50.2677 26.7443 50.3881 26.7641 50.5054L27.1555 52.8147C27.1737 52.9228 27.1616 53.0339 27.1207 53.1354C27.0798 53.2369 27.0116 53.3249 26.9238 53.3892C26.8361 53.4536 26.7323 53.4919 26.6242 53.4997C26.5161 53.5075 26.408 53.4846 26.3121 53.4335L24.263 52.3434C24.1588 52.288 24.0427 52.259 23.925 52.259C23.8072 52.259 23.6911 52.288 23.5869 52.3434L21.5378 53.4335C21.4419 53.4846 21.3338 53.5075 21.2257 53.4997C21.1176 53.4919 21.0138 53.4536 20.9261 53.3892C20.8384 53.3249 20.7702 53.2369 20.7292 53.1354C20.6883 53.0339 20.6762 52.9228 20.6944 52.8147L21.0858 50.5054C21.1056 50.3881 21.097 50.2677 21.0606 50.1545C21.0242 50.0413 20.9612 49.9387 20.8769 49.8556L19.2188 48.2203C19.141 48.1437 19.086 48.0467 19.06 47.9401C19.0339 47.8336 19.0379 47.7218 19.0714 47.6174C19.1049 47.513 19.1666 47.4201 19.2496 47.3494C19.3326 47.2787 19.4334 47.2329 19.5408 47.2171L21.8324 46.8802C21.9489 46.863 22.0597 46.8174 22.155 46.7474C22.2503 46.6773 22.3273 46.5848 22.3795 46.4779L23.4043 44.3772C23.4524 44.279 23.5266 44.1964 23.6186 44.1387C23.7106 44.0809 23.8167 44.0503 23.925 44.0503C24.0332 44.0503 24.1393 44.0809 24.2313 44.1387C24.3233 44.1964 24.3976 44.279 24.4456 44.3772Z" fill="#FFAF00"/>
</svg>
