<svg width="84" height="34" viewBox="0 0 84 34" fill="none" xmlns="http://www.w3.org/2000/svg">
<path d="M28.7287 11.0782C29.0554 11.2846 29.5615 11.4605 30.1868 11.5783C30.812 11.7542 31.4667 11.7833 32.1522 11.7833C32.8069 11.7833 33.4027 11.696 33.9383 11.5479C34.4739 11.3719 34.9505 11.1377 35.3669 10.8427C35.7538 10.549 36.0818 10.1971 36.2907 9.7262C36.4982 9.28565 36.6174 8.81599 36.6174 8.25771C36.6174 7.61081 36.4098 7.02341 36.0229 6.49425C35.636 5.9942 34.9799 5.58278 34.0574 5.28908L32.2714 4.70168C31.6166 4.4966 31.1106 4.26114 30.8415 3.99656C30.6045 3.7611 30.4545 3.4674 30.4545 3.08509C30.4545 2.58631 30.6634 2.17487 31.0503 1.96852C31.4667 1.73433 32.0036 1.58748 32.748 1.58748C33.6705 1.58748 34.4444 1.76345 35.2183 2.08626C35.4271 2.17488 35.6052 2.26349 35.7244 2.26349C35.9332 2.26349 36.0229 2.14576 36.0229 1.85206V1.35201C36.0229 1.17605 35.9921 1.0292 35.9037 0.940587C35.8141 0.822855 35.6949 0.705116 35.5168 0.617767C35.3976 0.529151 35.1888 0.440543 34.98 0.411426C34.7724 0.324076 34.5341 0.29369 34.2663 0.206341C34.028 0.175958 33.7294 0.0886056 33.4322 0.0886056C33.1349 -1.00451e-05 32.8364 0 32.5686 0C31.9728 0 31.4975 0.0886085 30.9914 0.206341C30.4853 0.382306 30.0381 0.587381 29.6512 0.851962C29.2643 1.14566 28.9965 1.46974 28.7287 1.88117C28.4904 2.2926 28.4007 2.73315 28.4007 3.29143C28.4007 3.93832 28.6095 4.55485 29.0259 5.11313C29.4424 5.70052 30.0984 6.11193 31.0798 6.37651L32.9261 6.96391C33.5514 7.17026 33.9678 7.37535 34.2061 7.61081C34.4444 7.84627 34.5341 8.13998 34.5341 8.46279C34.5341 8.96284 34.3252 9.37426 33.8793 9.66796C33.4322 9.96166 32.8364 10.0794 32.0036 10.0794C31.4975 10.0794 30.9914 10.0503 30.5148 9.90343C30.0087 9.81481 29.5615 9.66797 29.0862 9.46162C28.967 9.4325 28.8478 9.37426 28.7582 9.34514C28.6685 9.31476 28.5788 9.31477 28.5198 9.31477C28.311 9.31477 28.2226 9.4325 28.2226 9.7262V10.344C28.2226 10.4617 28.2521 10.5782 28.311 10.7263C28.4007 10.8731 28.5198 10.9605 28.7287 11.0782Z" fill="black"/>
<path d="M7.17391 4.99509C6.72675 4.90647 6.25037 4.90646 5.83358 4.90646C4.55334 4.90646 3.5113 5.23055 2.70757 5.90656C1.9037 6.55219 1.54636 7.43454 1.54636 8.4916C1.54636 9.52081 1.84413 10.3133 2.46938 10.9311C3.09451 11.5476 3.92822 11.8413 5 11.8413C6.48856 11.8413 7.73894 11.2539 8.75113 10.1082C8.87029 10.4019 8.98945 10.6374 9.13808 10.8424C9.2867 11.0488 9.43661 11.2539 9.58524 11.4298C9.70439 11.5476 9.82355 11.6071 9.97218 11.6071C10.0606 11.6071 10.1797 11.578 10.2989 11.4893L11.1035 10.9602C11.2816 10.8424 11.3418 10.7247 11.3418 10.5779C11.3418 10.4905 11.3111 10.4019 11.2522 10.2842C11.0741 9.96135 10.9242 9.66766 10.8358 9.37397C10.7461 9.08027 10.7166 8.72707 10.7166 8.2574V4.14311C10.7166 2.79108 10.3886 1.76315 9.67364 1.05802C8.95998 0.352893 7.88757 0.0288086 6.33968 0.0288086C5.62512 0.0288086 4.97014 0.11743 4.34502 0.264279C3.74949 0.440244 3.21367 0.587079 2.76702 0.85166C2.58841 0.940276 2.46938 1.02763 2.43953 1.08713C2.35023 1.17575 2.35022 1.3226 2.35022 1.52769V2.14545C2.35022 2.37965 2.43952 2.55562 2.58841 2.55562C2.61813 2.55562 2.70757 2.55563 2.79687 2.52651C2.88618 2.4974 3.03505 2.43915 3.24339 2.35054C3.69003 2.17457 4.16628 2.02773 4.61293 1.93911C5.05944 1.82138 5.53582 1.76314 5.98247 1.76314C6.99453 1.76314 7.64926 1.96822 8.06695 2.35054C8.48336 2.73285 8.66145 3.40887 8.66145 4.37858V5.28878C8.12588 5.17105 7.68001 5.0837 7.17391 4.99509ZM8.63198 7.22819C8.63198 7.63962 8.60251 8.02193 8.51282 8.28651C8.42314 8.58021 8.30526 8.87391 8.09642 9.08026C7.76842 9.4613 7.352 9.72589 6.87563 9.87274C6.42898 10.05 5.95261 10.1082 5.53582 10.1082C4.94041 10.1082 4.49377 9.93224 4.19613 9.66766C3.89836 9.37396 3.74949 8.93215 3.74949 8.34475C3.74949 7.72824 3.95795 7.2282 4.37474 6.90539C4.79154 6.58258 5.41679 6.40534 6.25038 6.40534C6.63744 6.40534 7.05475 6.43445 7.47116 6.49395C7.88757 6.52306 8.27451 6.61168 8.63198 6.69903V7.22819Z" fill="black"/>
<path d="M15.0629 10.873C15.1513 11.1072 15.241 11.2844 15.3012 11.3718C15.3896 11.4604 15.5395 11.4895 15.8073 11.4895H16.8784C17.1167 11.4895 17.2948 11.4604 17.3845 11.3718C17.4742 11.2844 17.5639 11.1375 17.6228 10.873L19.5883 2.76211L21.5832 10.873C21.6127 11.1072 21.7011 11.2844 21.8202 11.3718C21.9099 11.4604 22.1188 11.4895 22.3263 11.4895H23.3988C23.6076 11.4895 23.7857 11.4604 23.9049 11.3718C23.9945 11.2844 24.1137 11.1375 24.1432 10.873L27.2387 1.1759C27.2694 1.05817 27.3284 0.940422 27.3284 0.882188C27.3284 0.793573 27.3579 0.764463 27.3579 0.675848C27.3579 0.470766 27.2694 0.382157 27.0606 0.382157H25.8998C25.6615 0.382157 25.4834 0.411257 25.3937 0.499873C25.304 0.588488 25.2143 0.735353 25.1554 0.998668L22.9516 9.43233L20.8977 0.969538C20.8683 0.73534 20.7786 0.558112 20.6594 0.470762C20.5697 0.382147 20.3622 0.353027 20.1533 0.353027H19.1117C18.8734 0.353027 18.6953 0.382147 18.6056 0.470762C18.5159 0.558112 18.4262 0.704957 18.3673 0.969538L16.3723 9.28548L14.2583 0.969538C14.1698 0.73534 14.0802 0.558112 14.0199 0.470762C13.9315 0.382147 13.7829 0.353027 13.5138 0.353027H12.2646C12.0558 0.353027 11.9661 0.44039 11.9661 0.646737C11.9661 0.735353 11.9956 0.882188 12.0852 1.14677L15.0629 10.873Z" fill="black"/>
<path d="M33.9401 16.9558C29.2648 18.9243 24.1449 19.8649 19.5298 19.8649C12.652 19.8649 5.98369 18.0129 0.594969 14.8987C0.14845 14.605 -0.238621 15.1037 0.178173 15.4861C5.17983 19.9232 11.759 22.5968 19.1134 22.5968C24.323 22.5968 30.3962 20.9815 34.6243 17.8951C35.2201 17.4255 34.6538 16.6912 33.9401 16.9558Z" fill="#FF9900"/>
<path d="M31.3192 15.2508C30.9322 15.4862 31.0219 15.8686 31.4089 15.8382C32.7478 15.6622 35.7844 15.3103 36.2917 16.0154C36.8273 16.661 35.696 19.4828 35.2193 20.7462C35.0412 21.1285 35.3974 21.2754 35.7549 20.9804C38.0176 19.1296 38.5839 15.2216 38.1368 14.6925C37.6601 14.0456 33.701 13.6051 31.3192 15.2508Z" fill="#FF9900"/>
<path d="M48.1388 8.90264C48.0504 8.90264 47.9607 8.87354 47.9607 8.72669V1.93873C47.9607 1.85011 47.9901 1.76275 48.1388 1.76275H48.3476C48.4668 1.76275 48.5257 1.79188 48.5257 1.93873L48.5565 2.35016C48.8537 2.11469 49.1817 1.93873 49.479 1.82099C49.7762 1.70326 50.0747 1.64502 50.4015 1.64502C51.0575 1.64502 51.5636 1.88049 51.9505 2.35016C52.3374 2.7907 52.545 3.4667 52.545 4.23133C52.545 5.05419 52.3374 5.69983 51.9505 6.19987C51.5328 6.69865 51.0267 6.93412 50.3131 6.93412C49.6878 6.93412 49.151 6.69865 48.6154 6.22898V8.69758C48.6154 8.78493 48.5859 8.87353 48.4373 8.87353H48.1388V8.90264ZM50.2234 6.43534C50.7589 6.43534 51.1753 6.25811 51.4739 5.90618C51.7711 5.52387 51.8903 4.9947 51.8903 4.28957C51.8903 2.87931 51.3547 2.20331 50.2528 2.20331C49.7173 2.20331 49.1215 2.40966 48.5859 2.85021V5.75932C48.8832 5.99352 49.1215 6.17076 49.3893 6.28722C49.6571 6.34672 49.9556 6.43534 50.2234 6.43534Z" fill="black"/>
<path d="M54.9891 6.93412C54.5432 6.93412 54.155 6.81639 53.8578 6.52269C53.5605 6.28723 53.4413 5.90617 53.4413 5.46563C53.4413 4.96558 53.6194 4.61238 53.9474 4.31868C54.2742 4.02498 54.7508 3.90725 55.3171 3.90725C55.763 3.90725 56.2396 3.99587 56.7752 4.14272V3.31987C56.7752 2.90844 56.6868 2.61474 56.4779 2.46789C56.2691 2.29193 55.9718 2.23242 55.5247 2.23242C55.0788 2.23242 54.5727 2.32104 54.0666 2.46789C54.0371 2.46789 53.9474 2.497 53.8872 2.497C53.7988 2.497 53.7988 2.46788 53.7988 2.37927V2.17418C53.7988 2.14506 53.7988 2.08558 53.8283 2.05646C53.8578 2.02735 53.8577 2.02734 53.918 1.96784C54.4535 1.76276 54.9891 1.64502 55.6144 1.64502C56.2101 1.64502 56.656 1.76275 56.9546 2.02734C57.2518 2.26153 57.371 2.64385 57.371 3.1439V6.66954C57.371 6.75815 57.3415 6.84677 57.1929 6.84677H56.984C56.8943 6.84677 56.8059 6.81639 56.8059 6.66954L56.7752 6.25811C56.2396 6.72904 55.6144 6.93412 54.9891 6.93412ZM55.0788 6.43534C55.3171 6.43534 55.6144 6.40496 55.9116 6.25811C56.2101 6.14038 56.5074 6.0239 56.8354 5.81756V4.58328C56.3882 4.46555 55.9718 4.4073 55.4952 4.4073C54.5432 4.4073 54.0666 4.78961 54.0666 5.46563C54.0666 5.75932 54.155 5.99353 54.3049 6.17076C54.483 6.34673 54.7508 6.43534 55.0788 6.43534Z" fill="black"/>
<path d="M59.1248 6.84622C59.0351 6.84622 58.9467 6.81584 58.9467 6.66899V1.93818C58.9467 1.85083 58.9762 1.76221 59.1248 1.76221H59.3336C59.4528 1.76221 59.5117 1.79133 59.5117 1.93818L59.5412 2.52558C59.7795 2.23189 60.0473 2.0268 60.2856 1.93818C60.5239 1.82045 60.8225 1.76221 61.1197 1.76221C61.2389 1.76221 61.3285 1.76221 61.358 1.76221C61.4464 1.76221 61.5361 1.79133 61.5361 1.93818V2.17363C61.5361 2.20275 61.5361 2.20275 61.5066 2.26098C61.5066 2.29137 61.4772 2.29137 61.417 2.29137C61.3875 2.29137 61.2978 2.29137 61.2389 2.29137C61.2094 2.29137 61.1197 2.29137 61.03 2.29137C60.7328 2.29137 60.4342 2.32049 60.1972 2.46734C59.9589 2.58508 59.75 2.76104 59.4823 2.9965V6.66899C59.4823 6.75761 59.4528 6.84622 59.3029 6.84622H59.1248Z" fill="black"/>
<path d="M64.1859 6.90472C63.7682 6.90472 63.4709 6.78699 63.2621 6.5819C63.0545 6.37556 62.9354 6.08186 62.9354 5.67043V2.34987H62.1307C62.0423 2.34987 61.9526 2.32075 61.9526 2.1739V2.08529C61.9526 2.05617 61.9526 1.99794 61.9821 1.96756C61.9821 1.93844 62.0116 1.93845 62.1013 1.93845L62.9354 1.8511L63.0238 0.528193C63.0238 0.499076 63.0545 0.439574 63.0545 0.410458C63.084 0.381341 63.084 0.381348 63.1737 0.381348H63.3518C63.4415 0.381348 63.5299 0.410454 63.5299 0.557303V1.88021H64.9892C65.0789 1.88021 65.1673 1.90933 65.1673 2.05618V2.26252C65.1673 2.34987 65.1378 2.4385 64.9892 2.4385H63.5299V5.75903C63.5299 6.05273 63.5606 6.19959 63.7092 6.34643C63.8284 6.46417 64.036 6.52241 64.305 6.52241C64.5126 6.52241 64.692 6.5224 64.8111 6.49328C64.8995 6.49328 64.929 6.46417 64.9892 6.46417C65.0187 6.46417 65.0789 6.46417 65.0789 6.46417C65.1673 6.46417 65.1981 6.49329 65.1981 6.5819V6.75786C65.1981 6.87559 65.1673 6.93383 65.0789 6.96294C64.8111 6.84648 64.5421 6.90472 64.1859 6.90472Z" fill="black"/>
<path d="M66.4501 6.84658C66.3604 6.84658 66.2707 6.8162 66.2707 6.66935V1.93854C66.2707 1.85119 66.3015 1.76257 66.4501 1.76257H66.659C66.7768 1.76257 66.8371 1.79169 66.8371 1.93854L66.8665 2.34997C67.1945 2.1145 67.5212 1.93854 67.9082 1.82081C68.2964 1.70308 68.6231 1.61572 68.9511 1.61572C69.4572 1.61572 69.8147 1.73346 70.0825 1.99804C70.3208 2.23224 70.4694 2.61455 70.4694 3.14371V6.64024C70.4694 6.72886 70.44 6.8162 70.2901 6.8162H69.9928C69.9031 6.8162 69.8147 6.78709 69.8147 6.64024V3.4374C69.8147 2.99685 69.725 2.70316 69.5764 2.49681C69.397 2.29173 69.1292 2.20312 68.7718 2.20312C68.117 2.20312 67.4328 2.40947 66.8076 2.85002V6.72885C66.8076 6.8162 66.7768 6.90482 66.6282 6.90482H66.4206V6.84658H66.4501Z" fill="black"/>
<path d="M74.1904 6.96323C73.3871 6.96323 72.7618 6.75815 72.4044 6.31761C71.9867 5.87706 71.7791 5.20104 71.7791 4.28957C71.7791 3.46671 71.9867 2.81982 72.4044 2.35016C72.8208 1.90961 73.4166 1.64502 74.1008 1.64502C74.726 1.64502 75.1732 1.82098 75.5306 2.17418C75.8574 2.49699 76.0368 2.99704 76.0368 3.64267C76.0368 3.87814 76.0367 4.08449 76.006 4.26046C76.006 4.34781 75.9176 4.43641 75.8279 4.43641H72.4044C72.4044 5.14154 72.5825 5.67072 72.8503 5.99353C73.1488 6.31761 73.6549 6.49356 74.2801 6.49356C74.7862 6.49356 75.2321 6.40496 75.6498 6.25811C75.7382 6.229 75.8279 6.22898 75.8279 6.22898C75.8574 6.22898 75.8574 6.229 75.9176 6.25811C75.9176 6.28723 75.9471 6.28722 75.9471 6.34672V6.52269C75.9471 6.64043 75.9176 6.69865 75.8279 6.72903C75.2923 6.84677 74.7862 6.96323 74.1904 6.96323ZM75.441 3.96675C75.441 3.87813 75.441 3.76041 75.441 3.64267C75.441 3.14389 75.3218 2.81982 75.113 2.58563C74.8746 2.35016 74.5184 2.20331 74.0713 2.20331C72.9989 2.20331 72.4338 2.79069 72.3749 3.96675H75.441Z" fill="black"/>
<path d="M77.4072 6.84622C77.3175 6.84622 77.2291 6.81584 77.2291 6.66899V1.93818C77.2291 1.85083 77.2586 1.76221 77.4072 1.76221H77.6161C77.7352 1.76221 77.7941 1.79133 77.7941 1.93818L77.8236 2.52558C78.0619 2.23189 78.3297 2.0268 78.568 1.93818C78.8063 1.82045 79.1049 1.76221 79.4021 1.76221C79.5213 1.76221 79.611 1.76221 79.6404 1.76221C79.7301 1.76221 79.8185 1.79133 79.8185 1.93818V2.17363C79.8185 2.20275 79.8185 2.20275 79.7891 2.26098C79.7891 2.29137 79.7596 2.29137 79.6994 2.29137C79.6404 2.29137 79.5802 2.29137 79.5213 2.29137C79.4918 2.29137 79.4021 2.29137 79.3124 2.29137C79.0152 2.29137 78.7179 2.32049 78.4796 2.46734C78.2413 2.58508 78.0325 2.76104 77.7647 2.9965V6.66899C77.7647 6.75761 77.7352 6.84622 77.5866 6.84622H77.4072Z" fill="black"/>
<path d="M48.1388 17.9241C48.0504 17.9241 47.9607 17.895 47.9607 17.7481V13.0465C47.9607 12.9591 47.9901 12.8705 48.1388 12.8705H48.3476C48.4668 12.8705 48.5257 12.8996 48.5257 13.0465L48.5565 13.4579C48.8832 13.2224 49.2112 13.0465 49.5981 12.9287C49.9851 12.811 50.3131 12.7236 50.6398 12.7236C51.1459 12.7236 51.5033 12.8414 51.7711 13.1059C52.0094 13.3401 52.1581 13.7225 52.1581 14.2516V17.7481C52.1581 17.8367 52.1286 17.9241 51.98 17.9241H51.6814C51.593 17.9241 51.5033 17.895 51.5033 17.7481V14.4871C51.5033 14.0453 51.4137 13.7516 51.265 13.5465C51.0869 13.3401 50.8192 13.2528 50.4617 13.2528C49.807 13.2528 49.1215 13.4579 48.4962 13.8984V17.7773C48.4962 17.8659 48.4668 17.9545 48.3181 17.9545H48.1093V17.9241H48.1388Z" fill="black"/>
<path d="M55.908 18.0702C55.1034 18.0702 54.4794 17.8651 54.1219 17.4245C53.7042 16.984 53.4967 16.308 53.4967 15.3965C53.4967 14.5736 53.7042 13.928 54.1219 13.4571C54.5383 13.0165 55.1341 12.752 55.8183 12.752C56.4436 12.752 56.8907 12.9279 57.2482 13.2811C57.5749 13.6039 57.7543 14.104 57.7543 14.7509C57.7543 14.9851 57.7543 15.1914 57.7235 15.3674C57.7235 15.456 57.6351 15.5433 57.5455 15.5433H54.1219C54.1219 16.2485 54.3 16.7776 54.5678 17.1004C54.8663 17.4245 55.3724 17.6005 55.9977 17.6005C56.5038 17.6005 56.9497 17.5119 57.3661 17.365C57.4558 17.3359 57.5455 17.3359 57.5455 17.3359C57.5749 17.3359 57.5749 17.3359 57.6351 17.365C57.6351 17.3954 57.6646 17.3954 57.6646 17.4537V17.6296C57.6646 17.7474 57.6351 17.8069 57.5455 17.836C57.0394 17.9537 56.473 18.0702 55.908 18.0702ZM57.1585 15.0446C57.1585 14.956 57.1585 14.8382 57.1585 14.7205C57.1585 14.2217 57.0394 13.8976 56.8305 13.6634C56.5922 13.428 56.2347 13.2811 55.7888 13.2811C54.7164 13.2811 54.1514 13.8685 54.0912 15.0446H57.1585Z" fill="black"/>
<path d="M60.583 18.0123C60.1653 18.0123 59.868 17.8945 59.6592 17.6895C59.4516 17.4831 59.3324 17.1894 59.3324 16.778V13.3992H58.5278C58.4394 13.3992 58.3497 13.3701 58.3497 13.2232V13.1346C58.3497 13.1055 58.3497 13.046 58.3792 13.0169C58.3792 12.9878 58.4086 12.9878 58.4983 12.9878L59.3324 12.8991L59.4208 11.5775C59.4208 11.5484 59.4516 11.4889 59.4516 11.4598C59.4811 11.4307 59.4811 11.4307 59.5695 11.4307H59.7488C59.8385 11.4307 59.9269 11.4598 59.9269 11.6066V12.9295H61.3863C61.476 12.9295 61.5644 12.9586 61.5644 13.1055V13.3106C61.5644 13.3992 61.5349 13.4878 61.3863 13.4878H59.9577V16.8084C59.9577 17.1021 59.9871 17.2489 60.1358 17.3958C60.2844 17.5426 60.4638 17.5717 60.7316 17.5717C60.9391 17.5717 61.1185 17.5717 61.2377 17.5426C61.3261 17.5426 61.3568 17.5135 61.4158 17.5135C61.4452 17.5135 61.5054 17.5135 61.5054 17.5135C61.5951 17.5135 61.6246 17.5426 61.6246 17.63V17.8072C61.6246 17.9249 61.5951 17.9831 61.5054 18.0123C61.2082 17.954 60.9097 18.0123 60.583 18.0123Z" fill="black"/>
<path d="M63.8579 17.924C63.7683 17.924 63.6798 17.8949 63.6491 17.8076L62.0719 13.1641C62.0424 13.0755 62.0424 13.0464 62.0424 12.9882C62.0424 12.9287 62.0719 12.8995 62.1615 12.8995H62.4883C62.578 12.8995 62.6074 12.9286 62.6677 13.0173L64.036 17.2493L65.2571 13.0173C65.2865 12.9286 65.3468 12.8995 65.4659 12.8995H65.8529C65.9425 12.8995 66.0309 12.9286 66.0617 13.0173L67.2815 17.2493L68.7113 12.959C68.7408 12.8704 68.7997 12.8413 68.8894 12.8413H69.1867C69.2764 12.8413 69.3059 12.8704 69.3059 12.9287C69.3059 12.959 69.3058 13.0173 69.2764 13.1059L67.6095 17.7481C67.58 17.8367 67.5198 17.8658 67.4006 17.8658H67.0739C66.9842 17.8658 66.8945 17.8367 66.8651 17.7481L65.644 13.5173L64.4242 17.7481C64.3935 17.8367 64.3346 17.8658 64.2154 17.8658H63.9182V17.924H63.8579Z" fill="black"/>
<path d="M72.2563 18.071C71.5119 18.071 70.9174 17.8367 70.4997 17.3658C70.0833 16.9253 69.8744 16.2493 69.8744 15.3973C69.8744 14.5744 70.0833 13.9288 70.4997 13.4288C70.9174 12.9882 71.5119 12.7236 72.2563 12.7236C73.0007 12.7236 73.5965 12.9591 74.0129 13.4288C74.4306 13.8693 74.6381 14.5453 74.6381 15.3973C74.6381 16.2202 74.4306 16.867 74.0129 17.3658C73.567 17.8367 73.0007 18.071 72.2563 18.071ZM72.2563 17.5431C73.4184 17.5431 74.0129 16.8379 74.0129 15.3973C74.0129 13.9579 73.4184 13.2528 72.2563 13.2528C71.0955 13.2528 70.4997 13.9579 70.4997 15.3973C70.4997 16.8379 71.066 17.5431 72.2563 17.5431Z" fill="black"/>
<path d="M76.0656 17.9237C75.9759 17.9237 75.8862 17.8946 75.8862 17.7478V13.0461C75.8862 12.9587 75.917 12.8701 76.0656 12.8701H76.2732C76.3923 12.8701 76.4526 12.8992 76.4526 13.0461L76.482 13.6335C76.7203 13.3398 76.9881 13.1347 77.2265 13.0461C77.4648 12.9284 77.762 12.8701 78.0606 12.8701C78.1797 12.8701 78.2681 12.8701 78.2976 12.8701C78.3873 12.8701 78.477 12.8992 78.477 13.0461V13.2815C78.477 13.3107 78.4769 13.3107 78.4475 13.3702C78.4167 13.3993 78.4167 13.3993 78.3578 13.3993C78.3283 13.3993 78.2386 13.3993 78.1797 13.3993C78.1489 13.3993 78.0605 13.3993 77.9709 13.3993C77.6736 13.3993 77.3751 13.4284 77.1368 13.5753C76.8984 13.693 76.6909 13.8689 76.4231 14.1044V17.7769C76.4231 17.8655 76.3924 17.9541 76.2437 17.9541H76.0362V17.9237H76.0656Z" fill="black"/>
<path d="M79.5476 17.9238C79.4592 17.9238 79.3695 17.8947 79.3695 17.7479V10.6662C79.3695 10.5776 79.399 10.4902 79.5476 10.4902H79.8461C79.9358 10.4902 80.0242 10.5194 80.0242 10.6662V15.1324L82.4355 12.9879C82.5252 12.8993 82.6149 12.8993 82.6739 12.8993H83.0608C83.1505 12.8993 83.1799 12.9284 83.1799 12.9879C83.1799 13.0462 83.1505 13.0753 83.0608 13.1639L80.5905 15.3097L83.2696 17.7479C83.2991 17.777 83.3593 17.8365 83.3593 17.8656C83.3593 17.9542 83.3299 17.9542 83.2402 17.9542H82.8225C82.7341 17.9542 82.6444 17.9238 82.6149 17.8656L80.0242 15.4856V17.777C80.0242 17.8656 79.9947 17.9542 79.8461 17.9542H79.5476V17.9238Z" fill="black"/>
<path d="M2.02254 30.6509C1.45687 30.4446 1.04006 30.1813 0.801878 29.8863C0.563692 29.5926 0.444672 29.2115 0.444672 28.7406C0.444672 28.1532 0.653004 27.6836 1.09965 27.3304C1.54617 26.9772 2.14169 26.8012 2.88598 26.8012C3.5111 26.8012 4.10664 26.9189 4.70204 27.1544V28.2115C4.07679 28.0355 3.51111 27.9178 2.97528 27.9178C2.231 27.9178 1.84393 28.1532 1.84393 28.6229C1.84393 28.8001 1.90351 28.947 2.02254 29.0634C2.1417 29.1812 2.4096 29.2989 2.76682 29.4166L3.48138 29.6812C4.07678 29.8863 4.49357 30.1509 4.73176 30.4155C4.96994 30.7092 5.11883 31.0623 5.11883 31.532C5.11883 32.1789 4.88064 32.679 4.40427 33.06C3.92789 33.4423 3.30277 33.6183 2.46918 33.6183C2.11184 33.6183 1.75463 33.5892 1.39729 33.5309C1.04007 33.4714 0.7423 33.3841 0.474388 33.2664V32.1789C0.801878 32.2675 1.12937 32.3549 1.48671 32.4144C1.84393 32.4726 2.17142 32.5017 2.46918 32.5017C2.85612 32.5017 3.12417 32.4435 3.3325 32.2966C3.54096 32.1498 3.63026 31.9726 3.63026 31.7092C3.63026 31.5029 3.57068 31.3561 3.45165 31.2383C3.33249 31.1206 3.06459 31.0029 2.70725 30.856L2.02254 30.6509ZM7.26225 31.4447C7.29172 31.8561 7.41087 32.1498 7.64919 32.3549C7.8875 32.5308 8.24498 32.6195 8.72161 32.6195C9.13802 32.6195 9.64411 32.5308 10.2104 32.384V33.2955C10.0016 33.4132 9.7338 33.5006 9.4058 33.56C9.10854 33.6183 8.78055 33.6487 8.45382 33.6487C7.64919 33.6487 7.02394 33.4423 6.6074 33.0018C6.19061 32.5612 5.98227 31.9435 5.98227 31.0915C5.98227 30.2977 6.19061 29.6812 6.6074 29.2116C7.02394 28.7697 7.61972 28.5355 8.36414 28.5355C8.98939 28.5355 9.46602 28.7115 9.82221 29.0634C10.1502 29.4166 10.3283 29.8863 10.3283 30.5332C10.3283 30.68 10.3283 30.8269 10.2988 31.0028C10.2694 31.1801 10.2694 31.3269 10.2399 31.4447H7.26225ZM8.27445 29.5052C7.94773 29.5052 7.70941 29.5926 7.53004 29.7698C7.35194 29.9458 7.26225 30.2104 7.23278 30.5623H9.10854V30.4155C9.10854 29.799 8.84077 29.5052 8.27445 29.5052ZM13.5148 33.4132C13.247 33.5309 12.9485 33.56 12.6512 33.56C11.7877 33.56 11.3713 33.0904 11.3713 32.1498V26.5366H12.7704V32.0321C12.7704 32.208 12.7999 32.3258 12.8601 32.4144C12.919 32.4726 13.0087 32.5308 13.1573 32.5308C13.247 32.5308 13.3662 32.5308 13.5148 32.5017V33.4132ZM15.5097 31.4447C15.5392 31.8561 15.6583 32.1498 15.8967 32.3549C16.135 32.5308 16.4912 32.6195 16.9678 32.6195C17.3855 32.6195 17.8916 32.5308 18.4566 32.384V33.2955C18.2478 33.4132 17.98 33.5006 17.6533 33.56C17.3547 33.6183 17.028 33.6487 16.7 33.6487C15.8967 33.6487 15.2714 33.4423 14.8537 33.0018C14.4373 32.5612 14.2285 31.9435 14.2285 31.0915C14.2285 30.2977 14.4373 29.6812 14.8537 29.2116C15.2714 28.7697 15.8659 28.5355 16.6103 28.5355C17.2356 28.5355 17.7122 28.7115 18.0697 29.0634C18.3977 29.4166 18.5758 29.8863 18.5758 30.5332C18.5758 30.68 18.5758 30.8269 18.5463 31.0028C18.5168 31.1801 18.5168 31.3269 18.4861 31.4447H15.5097ZM16.5514 29.5052C16.2234 29.5052 15.9851 29.5926 15.807 29.7698C15.6289 29.9458 15.5392 30.2104 15.5097 30.5623H17.3855V30.4155C17.3547 29.799 17.087 29.5052 16.5514 29.5052ZM23.1306 33.2955C22.9525 33.3841 22.7437 33.4714 22.5054 33.5309C22.2671 33.5892 21.9993 33.6183 21.761 33.6183C20.9871 33.6183 20.3913 33.4132 19.9749 32.9726C19.5585 32.5308 19.3497 31.9143 19.3497 31.1206C19.3497 30.3281 19.5585 29.7103 20.0044 29.2698C20.4515 28.8292 21.0473 28.5938 21.7917 28.5938C22.2671 28.5938 22.6848 28.6824 23.0717 28.8875V29.7989C22.6848 29.6812 22.3568 29.6521 22.0288 29.6521C21.5829 29.6521 21.2549 29.7698 21.0473 29.9749C20.8385 30.2104 20.7488 30.5623 20.7488 31.0332V31.1801C20.7488 31.6497 20.8385 32.0029 21.0473 32.2371C21.2549 32.4726 21.5829 32.5612 21.9993 32.5612C22.2978 32.5612 22.6848 32.5017 23.0717 32.384V33.2955H23.1306ZM27.0013 33.3841C26.6439 33.5005 26.2864 33.5892 25.8405 33.5892C25.3037 33.5892 24.8873 33.4714 24.6489 33.2068C24.3812 32.9423 24.262 32.5612 24.262 32.0321V29.7103H23.5176V28.8584L24.2915 28.7115L24.5003 27.3886H25.6317V28.6824H26.9411V29.7103H25.6317V31.9726C25.6317 32.1789 25.6919 32.3258 25.7803 32.4144C25.87 32.5017 26.0481 32.5308 26.2864 32.5308C26.4952 32.5308 26.7041 32.5017 26.9719 32.4726V33.3841H27.0013Z" fill="black"/>
<path d="M30.4751 32.8707C30.4188 32.8707 30.3947 32.8477 30.3947 32.7945V29.5511H29.2205C29.1642 29.5511 29.1401 29.5281 29.1401 29.4745V29.3525C29.1401 29.2993 29.1642 29.2763 29.2205 29.2763H31.8907C31.9468 29.2763 31.971 29.2993 31.971 29.3525V29.4745C31.971 29.5281 31.9468 29.5511 31.8907 29.5511H30.7164V32.7945C30.7164 32.8477 30.6923 32.8707 30.6359 32.8707H30.4751ZM33.66 32.947C33.2256 32.947 32.9038 32.8326 32.6788 32.5959C32.4614 32.3595 32.349 32.0159 32.349 31.5579C32.349 31.123 32.4614 30.7873 32.6788 30.543C32.9038 30.2987 33.2094 30.1843 33.6036 30.1843C33.9334 30.1843 34.1906 30.2761 34.3674 30.4516C34.5446 30.6347 34.6329 30.8866 34.6329 31.2223C34.6329 31.3597 34.6249 31.4665 34.6087 31.5353C34.6007 31.5885 34.5685 31.6115 34.5124 31.6115H32.6625C32.6625 31.9778 32.7511 32.2448 32.9121 32.4128C33.0727 32.5883 33.3302 32.6722 33.6759 32.6722C33.9414 32.6722 34.1906 32.6265 34.4238 32.5426C34.4719 32.5272 34.5041 32.5196 34.5204 32.5196C34.5363 32.5196 34.5446 32.5272 34.5605 32.5347C34.5685 32.5502 34.5768 32.5577 34.5768 32.5808V32.657C34.5768 32.7103 34.5605 32.7484 34.5124 32.7639C34.2629 32.8859 33.9736 32.947 33.66 32.947ZM34.3352 31.3748C34.3352 31.3291 34.3435 31.268 34.3435 31.2071C34.3435 30.9553 34.2792 30.7722 34.1504 30.6423C34.0217 30.5124 33.8368 30.4516 33.5873 30.4516C33.0083 30.4516 32.7027 30.7643 32.6705 31.3824H34.3352V31.3748ZM36.4745 32.9316C36.0564 32.9316 35.7349 32.8172 35.5096 32.5883C35.2926 32.3595 35.1797 32.0159 35.1797 31.5734C35.1797 31.1305 35.2926 30.7949 35.5096 30.5585C35.7349 30.3218 36.0564 30.2073 36.4745 30.2073C36.6756 30.2073 36.8687 30.2379 37.0456 30.3066C37.0857 30.3218 37.1099 30.3599 37.1099 30.4135V30.4898C37.1099 30.5355 37.0857 30.5585 37.0456 30.5585C37.0376 30.5585 37.0213 30.5585 37.0054 30.5506C36.9892 30.543 36.9653 30.543 36.9251 30.5355C36.7801 30.5049 36.6354 30.4819 36.4908 30.4819C36.145 30.4819 35.8955 30.566 35.7428 30.7337C35.5899 30.9017 35.5096 31.169 35.5096 31.5428V31.604C35.5096 31.9627 35.5899 32.2296 35.7428 32.3976C35.8955 32.5653 36.145 32.657 36.4828 32.657C36.6275 32.657 36.7801 32.634 36.9573 32.5883C36.9975 32.5808 37.0213 32.5732 37.0376 32.5653C37.0535 32.5577 37.0698 32.5578 37.0778 32.5578C37.1179 32.5578 37.1421 32.5808 37.1421 32.6265V32.7027C37.1421 32.7563 37.1259 32.7945 37.0857 32.8096C36.9009 32.8859 36.6919 32.9316 36.4745 32.9316ZM37.8821 32.8707C37.8257 32.8707 37.8015 32.8477 37.8015 32.7945V29.1082C37.8015 29.055 37.8257 29.032 37.8821 29.032H38.0268C38.0832 29.032 38.1071 29.055 38.1071 29.1082V30.5585C38.2843 30.4437 38.4691 30.3523 38.6702 30.2836C38.8633 30.2149 39.0561 30.1843 39.2412 30.1843C39.5064 30.1843 39.7074 30.253 39.8525 30.3829C39.9971 30.5124 40.0615 30.711 40.0615 30.9704V32.7945C40.0615 32.8477 40.0373 32.8707 39.9809 32.8707H39.8362C39.7801 32.8707 39.7559 32.8477 39.7559 32.7945V31.1003C39.7559 30.8787 39.7074 30.711 39.6192 30.6117C39.5306 30.5124 39.3859 30.4592 39.1848 30.4592C38.8228 30.4592 38.4691 30.566 38.1233 30.7873V32.7945C38.1233 32.8477 38.0991 32.8707 38.0427 32.8707H37.8821ZM40.9863 32.8707C40.9299 32.8707 40.906 32.8477 40.906 32.7945V30.3369C40.906 30.2836 40.9299 30.2606 40.9863 30.2606H41.0988C41.1552 30.2606 41.1874 30.2836 41.1953 30.3369L41.2196 30.5585C41.3964 30.4362 41.5896 30.3448 41.7823 30.2761C41.9755 30.2073 42.1686 30.1768 42.3534 30.1768C42.6189 30.1768 42.82 30.2455 42.9646 30.375C43.1093 30.5049 43.1737 30.7035 43.1737 30.9629V32.7945C43.1737 32.8477 43.1498 32.8707 43.0934 32.8707H42.9487C42.8923 32.8707 42.8681 32.8477 42.8681 32.7945V31.1003C42.8681 30.8787 42.82 30.711 42.7314 30.6117C42.6431 30.5124 42.4981 30.4592 42.2973 30.4592C41.9353 30.4592 41.5816 30.566 41.2355 30.7873V32.7945C41.2355 32.8477 41.2116 32.8707 41.1552 32.8707H40.9863ZM45.1361 32.947C44.7339 32.947 44.4203 32.825 44.2033 32.5808C43.978 32.3365 43.8735 31.9929 43.8735 31.5579C43.8735 31.123 43.986 30.7873 44.2033 30.543C44.4283 30.2987 44.7419 30.1768 45.1361 30.1768C45.5382 30.1768 45.8518 30.2987 46.0688 30.543C46.2941 30.7873 46.4066 31.123 46.4066 31.5579C46.4066 31.9929 46.2941 32.3365 46.0688 32.5808C45.8518 32.825 45.5382 32.947 45.1361 32.947ZM45.1361 32.6797C45.7632 32.6797 46.0851 32.3059 46.0851 31.5658C46.0851 30.8254 45.7715 30.4592 45.1361 30.4592C44.5089 30.4592 44.1871 30.8254 44.1871 31.5658C44.1871 32.3059 44.5006 32.6797 45.1361 32.6797ZM47.5809 32.8859C47.4363 32.8859 47.3234 32.8477 47.2431 32.7639C47.1629 32.6801 47.1224 32.5732 47.1224 32.4203V29.1007C47.1224 29.0474 47.1466 29.0244 47.203 29.0244H47.3477C47.4041 29.0244 47.428 29.0474 47.428 29.1007V32.4128C47.428 32.489 47.4442 32.5426 47.4764 32.5732C47.5086 32.6034 47.5647 32.6189 47.6453 32.6189C47.6695 32.6189 47.6934 32.6189 47.7177 32.6113C47.7419 32.6113 47.7658 32.6034 47.782 32.6034C47.8301 32.6034 47.8623 32.6265 47.8623 32.6797V32.779C47.8623 32.825 47.8384 32.8477 47.79 32.8553C47.7256 32.8783 47.6612 32.8859 47.5809 32.8859ZM49.6077 32.947C49.2056 32.947 48.8916 32.825 48.6746 32.5808C48.4493 32.3365 48.3448 31.9929 48.3448 31.5579C48.3448 31.123 48.4576 30.7873 48.6746 30.543C48.8999 30.2987 49.2135 30.1768 49.6077 30.1768C50.0095 30.1768 50.3235 30.2987 50.5405 30.543C50.7658 30.7873 50.8783 31.123 50.8783 31.5579C50.8783 31.9929 50.7658 32.3365 50.5405 32.5808C50.3235 32.825 50.0095 32.947 49.6077 32.947ZM49.6077 32.6797C50.2349 32.6797 50.5564 32.3059 50.5564 31.5658C50.5564 30.8254 50.2428 30.4592 49.6077 30.4592C48.9802 30.4592 48.6587 30.8254 48.6587 31.5658C48.6667 32.3059 48.9802 32.6797 49.6077 32.6797ZM52.5589 34.0001C52.4063 34.0001 52.2533 33.985 52.1087 33.9544C51.964 33.9238 51.8352 33.8857 51.7228 33.8324C51.6826 33.817 51.6584 33.7788 51.6584 33.7256V33.649C51.6584 33.6033 51.6743 33.5806 51.7228 33.5806C51.7307 33.5806 51.7466 33.5806 51.755 33.5881C51.7709 33.5881 51.7951 33.5957 51.8273 33.6108C52.0844 33.6871 52.3257 33.7331 52.5351 33.7331C52.8729 33.7331 53.1221 33.6568 53.283 33.4964C53.4436 33.3363 53.5242 33.0844 53.5242 32.7409V32.489C53.3875 32.5959 53.2425 32.6797 53.0736 32.7409C52.913 32.802 52.7521 32.8326 52.6074 32.8326C52.2533 32.8326 51.9799 32.7103 51.7629 32.4739C51.5539 32.2372 51.4493 31.9245 51.4493 31.5353C51.4493 31.1154 51.5539 30.7873 51.7629 30.543C51.972 30.2987 52.2616 30.1768 52.6233 30.1768C52.9691 30.1768 53.2667 30.2912 53.5322 30.5203L53.5564 30.3293C53.5644 30.2761 53.5966 30.253 53.6526 30.253H53.7655C53.8215 30.253 53.8458 30.2761 53.8458 30.3293V32.7409C53.8458 33.1453 53.7333 33.4583 53.5159 33.672C53.2989 33.8857 52.9691 34.0001 52.5589 34.0001ZM52.6797 32.5653C52.9532 32.5653 53.2345 32.4585 53.5242 32.2372V30.7949C53.3713 30.6804 53.2345 30.5887 53.0899 30.5355C52.9532 30.4819 52.8002 30.4516 52.6475 30.4516C52.3579 30.4516 52.1329 30.543 51.9882 30.7186C51.8432 30.9017 51.7709 31.1611 51.7709 31.5198C51.7709 31.8558 51.8515 32.1152 52.0041 32.2983C52.1571 32.4815 52.3821 32.5653 52.6797 32.5653ZM54.7868 34.0001C54.6982 34.0001 54.6179 33.985 54.5376 33.9619C54.4812 33.9468 54.457 33.9162 54.457 33.8551V33.7788C54.457 33.7331 54.4812 33.7101 54.5214 33.7101C54.5456 33.7101 54.5615 33.7101 54.5778 33.7177C54.5937 33.7177 54.6179 33.7256 54.6501 33.7256C54.6823 33.7256 54.7145 33.7256 54.7626 33.7256C54.8834 33.7256 54.9799 33.695 55.0523 33.6338C55.1246 33.5727 55.189 33.4658 55.2534 33.3133L55.4382 32.8783L54.3604 30.3675C54.3445 30.3369 54.3365 30.3142 54.3365 30.2987C54.3365 30.2606 54.3604 30.2379 54.4006 30.2379H54.5778C54.6259 30.2379 54.6581 30.2606 54.6743 30.3066L55.5908 32.5347L56.5159 30.3066C56.5319 30.2606 56.564 30.2379 56.6125 30.2379H56.7731C56.8132 30.2379 56.8375 30.253 56.8375 30.2987C56.8375 30.3066 56.8295 30.3293 56.8132 30.3675L55.5268 33.405C55.4382 33.6187 55.3337 33.7637 55.2212 33.8551C55.1083 33.9619 54.9637 34.0001 54.7868 34.0001Z" fill="black"/>
<path d="M59.4576 33.8967C59.3857 33.8967 59.3549 33.8659 59.3549 33.7933V29.1278C59.3549 29.0556 59.3857 29.0244 59.4576 29.0244H61.017C61.458 29.0244 61.8068 29.159 62.0739 29.4175C62.3406 29.6764 62.4638 30.028 62.4638 30.4728C62.4638 30.9073 62.3305 31.2589 62.0739 31.5174C61.8068 31.7763 61.458 31.9104 61.017 31.9104H59.7551V33.7933C59.7551 33.8659 59.7243 33.8967 59.6525 33.8967H59.4576ZM61.0068 31.5383C61.6942 31.5383 62.043 31.1867 62.043 30.4728C62.043 29.7588 61.6942 29.397 61.0068 29.397H59.7551V31.5383H61.0068ZM64.1769 33.9796C63.859 33.9796 63.6025 33.8864 63.4073 33.7002C63.2228 33.5139 63.1204 33.2657 63.1204 32.9555C63.1204 32.6141 63.2329 32.3449 63.4692 32.1484C63.7049 31.9519 64.0233 31.8485 64.4233 31.8485C64.7311 31.8485 65.0697 31.9002 65.4185 32.0143V31.4247C65.4185 31.135 65.3465 30.9385 65.2132 30.8141C65.0799 30.6898 64.8542 30.6279 64.5465 30.6279C64.2282 30.6279 63.8895 30.6898 63.5305 30.8039C63.4895 30.8141 63.4484 30.8244 63.4281 30.8244C63.387 30.8244 63.3561 30.7936 63.3561 30.7313V30.6176C63.3561 30.5762 63.3663 30.5557 63.3769 30.5347C63.387 30.5142 63.4179 30.4933 63.4484 30.483C63.818 30.3382 64.2078 30.266 64.618 30.266C65.0286 30.266 65.3262 30.3484 65.5311 30.5245C65.7364 30.7005 65.8287 30.959 65.8287 31.3106V33.7933C65.8287 33.8659 65.7978 33.8967 65.7263 33.8967H65.5823C65.5108 33.8967 65.4799 33.8659 65.4697 33.7933L65.4388 33.4934C65.0286 33.8138 64.6079 33.9796 64.1769 33.9796ZM64.2282 33.607C64.4026 33.607 64.5977 33.5763 64.8026 33.5036C65.0079 33.4314 65.2132 33.328 65.4287 33.1935V32.3142C65.1209 32.2313 64.8132 32.1899 64.5257 32.1899C63.8793 32.1899 63.5513 32.4381 63.5513 32.9452C63.5513 33.1623 63.6127 33.328 63.7257 33.4417C63.8281 33.5553 64.0025 33.607 64.2282 33.607ZM66.9983 33.8967C66.9263 33.8967 66.8959 33.8659 66.8959 33.7933V30.4625C66.8959 30.3899 66.9263 30.3591 66.9983 30.3591H67.1316C67.2036 30.3591 67.2447 30.3899 67.2548 30.4625L67.2857 30.8761C67.4601 30.6796 67.6345 30.5347 67.809 30.4625C67.9834 30.3796 68.1679 30.3382 68.3834 30.3382C68.4553 30.3382 68.5167 30.3382 68.5679 30.3484C68.6399 30.3484 68.6708 30.3899 68.6708 30.4625V30.6381C68.6708 30.6591 68.6602 30.6796 68.6501 30.6898C68.6399 30.7107 68.6192 30.7107 68.5988 30.7107C68.5578 30.7107 68.5269 30.7107 68.4964 30.7107C68.4655 30.7107 68.4143 30.7107 68.3525 30.7107C68.137 30.7107 67.9524 30.7522 67.7882 30.8346C67.6244 30.9175 67.4601 31.0419 67.3162 31.2175V33.8036C67.3162 33.8762 67.2857 33.9069 67.2138 33.9069H66.9983V33.8967ZM70.3738 33.9381C70.097 33.9381 69.8916 33.8659 69.7477 33.7211C69.6042 33.5763 69.5327 33.3588 69.5327 33.0794V30.721H68.9786C68.9066 30.721 68.8757 30.6898 68.8757 30.6176V30.5454C68.8757 30.504 68.8863 30.483 68.8964 30.4625C68.9066 30.4416 68.9375 30.4313 68.9786 30.4313L69.5428 30.3796L69.5941 29.4487C69.5941 29.4072 69.6042 29.3867 69.625 29.3658C69.6453 29.3453 69.666 29.3453 69.6965 29.3453H69.8197C69.8916 29.3453 69.9226 29.3765 69.9226 29.4487V30.3694H70.9381C71.01 30.3694 71.0405 30.4006 71.0405 30.4728V30.6176C71.0405 30.6898 71.01 30.721 70.9381 30.721H69.9226V33.0589C69.9226 33.2554 69.9632 33.39 70.0453 33.4622C70.1274 33.5451 70.2608 33.5865 70.4559 33.5865C70.5893 33.5865 70.7124 33.5763 70.8149 33.5553C70.8661 33.5451 70.9072 33.5348 70.9381 33.5348C70.969 33.5246 70.9893 33.5246 71.01 33.5246C71.0613 33.5246 71.0917 33.5553 71.0917 33.607V33.7104C71.0917 33.7933 71.0714 33.8347 71.01 33.8552C70.825 33.9069 70.6096 33.9381 70.3738 33.9381ZM71.9231 33.8967C71.8512 33.8967 71.8202 33.8659 71.8202 33.7933V30.4625C71.8202 30.3899 71.8512 30.3591 71.9231 30.3591H72.0666C72.1386 30.3591 72.1796 30.3899 72.1898 30.4625L72.2203 30.7624C72.4463 30.5971 72.6923 30.4728 72.9386 30.3796C73.185 30.2865 73.4309 30.245 73.6672 30.245C74.0058 30.245 74.2623 30.3382 74.4469 30.5142C74.6315 30.6898 74.7136 30.959 74.7136 31.3106V33.7933C74.7136 33.8659 74.6827 33.8967 74.6112 33.8967H74.4262C74.3546 33.8967 74.3237 33.8659 74.3237 33.7933V31.4969C74.3237 31.197 74.2623 30.9692 74.1493 30.8346C74.0363 30.7005 73.8517 30.6279 73.5952 30.6279C73.1338 30.6279 72.6821 30.7727 72.241 31.0726V33.7933C72.241 33.8659 72.2101 33.8967 72.1386 33.8967H71.9231ZM77.2683 34.0001C76.7142 34.0001 76.304 33.845 76.0165 33.5246C75.7397 33.2037 75.5958 32.738 75.5958 32.1177C75.5958 31.5281 75.7397 31.0726 76.0165 30.7419C76.304 30.4108 76.6938 30.2557 77.1963 30.2557C77.6171 30.2557 77.9451 30.3796 78.1712 30.6176C78.3968 30.8658 78.5094 31.2072 78.5094 31.6622C78.5094 31.8485 78.4993 31.9933 78.4789 32.0865C78.4688 32.1591 78.4277 32.1899 78.3558 32.1899H75.9962C75.9962 32.6863 76.1088 33.0486 76.3141 33.2759C76.5194 33.5139 76.8475 33.628 77.2886 33.628C77.6272 33.628 77.9451 33.5656 78.2427 33.4519C78.3045 33.4314 78.3456 33.4207 78.3659 33.4207C78.3867 33.4207 78.3968 33.4314 78.4171 33.4417C78.4277 33.4622 78.4379 33.4724 78.4379 33.5036V33.607C78.4379 33.6797 78.4171 33.7314 78.3558 33.7519C78.0379 33.9176 77.6683 34.0001 77.2683 34.0001ZM78.1301 31.8694C78.1301 31.807 78.1403 31.7246 78.1403 31.6417C78.1403 31.3003 78.0582 31.0521 77.8939 30.8761C77.7297 30.7005 77.4939 30.6176 77.176 30.6176C76.4373 30.6176 76.0474 31.0419 76.0064 31.8797H78.1301V31.8694ZM79.5046 33.8967C79.4331 33.8967 79.4022 33.8659 79.4022 33.7933V30.4625C79.4022 30.3899 79.4331 30.3591 79.5046 30.3591H79.638C79.7099 30.3591 79.751 30.3899 79.7611 30.4625L79.7921 30.8761C79.9665 30.6796 80.1409 30.5347 80.3153 30.4625C80.4897 30.3796 80.6742 30.3382 80.8897 30.3382C80.9617 30.3382 81.023 30.3382 81.0747 30.3484C81.1462 30.3484 81.1771 30.3899 81.1771 30.4625V30.6381C81.1771 30.6591 81.167 30.6796 81.1564 30.6898C81.1462 30.7107 81.1259 30.7107 81.1052 30.7107C81.0641 30.7107 81.0336 30.7107 81.0027 30.7107C80.9718 30.7107 80.9206 30.7107 80.8592 30.7107C80.6438 30.7107 80.4588 30.7522 80.295 30.8346C80.1307 30.9175 79.9665 31.0419 79.823 31.2175V33.8036C79.823 33.8762 79.7921 33.9069 79.7201 33.9069H79.5046V33.8967Z" fill="black"/>
</svg>
