<svg width="469" height="62" viewBox="0 0 469 62" fill="none" xmlns="http://www.w3.org/2000/svg">
<path opacity="0.6" d="M226.154 0.612036H123.732C122.089 0.612036 120.757 1.94372 120.757 3.58643V58.4187C120.757 60.0614 122.089 61.3931 123.732 61.3931H226.154C227.797 61.3931 229.129 60.0614 229.129 58.4187V3.58643C229.129 1.94372 227.797 0.612036 226.154 0.612036Z" fill="#1D1C39" stroke="#403F6F" stroke-width="0.775928"/>
<path d="M162.836 25.5852C163.146 25.7829 163.625 25.9516 164.217 26.0644C164.809 26.2331 165.429 26.261 166.078 26.261C166.698 26.261 167.263 26.1773 167.77 26.0353C168.277 25.8667 168.728 25.6422 169.123 25.3595C169.489 25.0779 169.8 24.7406 169.998 24.2893C170.194 23.867 170.307 23.4168 170.307 22.8817C170.307 22.2617 170.11 21.6987 169.744 21.1915C169.378 20.7122 168.756 20.3178 167.883 20.0363L166.191 19.4733C165.571 19.2767 165.092 19.0511 164.837 18.7975C164.613 18.5718 164.471 18.2903 164.471 17.9238C164.471 17.4458 164.668 17.0514 165.035 16.8536C165.429 16.6291 165.938 16.4884 166.643 16.4884C167.516 16.4884 168.249 16.657 168.982 16.9665C169.18 17.0514 169.348 17.1363 169.461 17.1363C169.659 17.1363 169.744 17.0235 169.744 16.742V16.2627C169.744 16.094 169.715 15.9533 169.631 15.8683C169.546 15.7555 169.433 15.6427 169.265 15.5589C169.152 15.474 168.954 15.3891 168.756 15.3612C168.56 15.2774 168.334 15.2483 168.08 15.1646C167.855 15.1355 167.572 15.0517 167.291 15.0517C167.009 14.9668 166.726 14.9668 166.473 14.9668C165.909 14.9668 165.458 15.0517 164.979 15.1646C164.5 15.3332 164.076 15.5298 163.71 15.7834C163.343 16.0649 163.09 16.3755 162.836 16.7699C162.611 17.1642 162.526 17.5865 162.526 18.1216C162.526 18.7416 162.723 19.3326 163.118 19.8677C163.512 20.4307 164.133 20.825 165.063 21.0786L166.811 21.6416C167.403 21.8394 167.798 22.036 168.023 22.2617C168.249 22.4874 168.334 22.7689 168.334 23.0783C168.334 23.5576 168.136 23.9519 167.714 24.2334C167.291 24.5149 166.726 24.6278 165.938 24.6278C165.458 24.6278 164.979 24.5999 164.528 24.4591C164.048 24.3742 163.625 24.2334 163.175 24.0357C163.062 24.0078 162.949 23.9519 162.864 23.924C162.779 23.8949 162.694 23.8949 162.638 23.8949C162.441 23.8949 162.357 24.0078 162.357 24.2893V24.8814C162.357 24.9942 162.385 25.1059 162.441 25.2478C162.526 25.3886 162.638 25.4723 162.836 25.5852Z" fill="white"/>
<path d="M142.423 19.7547C141.999 19.6698 141.548 19.6698 141.154 19.6698C139.941 19.6698 138.954 19.9804 138.193 20.6284C137.432 21.2472 137.094 22.0929 137.094 23.1061C137.094 24.0926 137.376 24.8521 137.968 25.4443C138.56 26.0352 139.349 26.3167 140.364 26.3167C141.774 26.3167 142.958 25.7537 143.917 24.6556C144.029 24.9371 144.142 25.1628 144.283 25.3593C144.424 25.5571 144.566 25.7537 144.707 25.9224C144.819 26.0352 144.932 26.0922 145.073 26.0922C145.157 26.0922 145.27 26.0643 145.382 25.9794L146.144 25.4722C146.313 25.3593 146.37 25.2465 146.37 25.1057C146.37 25.022 146.341 24.9371 146.285 24.8242C146.117 24.5148 145.975 24.2333 145.891 23.9518C145.806 23.6703 145.778 23.3318 145.778 22.8816V18.9381C145.778 17.6422 145.467 16.6569 144.79 15.9811C144.114 15.3052 143.099 14.9946 141.633 14.9946C140.956 14.9946 140.336 15.0795 139.744 15.2203C139.18 15.3889 138.673 15.5297 138.25 15.7833C138.08 15.8682 137.968 15.952 137.939 16.009C137.855 16.0939 137.855 16.2347 137.855 16.4312V17.0234C137.855 17.2478 137.939 17.4165 138.08 17.4165C138.109 17.4165 138.193 17.4165 138.278 17.3886C138.362 17.3607 138.503 17.3049 138.701 17.2199C139.124 17.0513 139.575 16.9105 139.998 16.8256C140.421 16.7128 140.872 16.6569 141.295 16.6569C142.253 16.6569 142.873 16.8535 143.269 17.2199C143.663 17.5864 143.832 18.2343 143.832 19.1638V20.0362C143.325 19.9234 142.902 19.8397 142.423 19.7547ZM143.804 21.8951C143.804 22.2895 143.776 22.6559 143.691 22.9095C143.606 23.191 143.494 23.4725 143.297 23.6703C142.986 24.0355 142.592 24.2891 142.14 24.4299C141.717 24.5998 141.266 24.6556 140.872 24.6556C140.308 24.6556 139.885 24.4869 139.603 24.2333C139.321 23.9518 139.18 23.5283 139.18 22.9653C139.18 22.3744 139.377 21.8951 139.772 21.5857C140.167 21.2763 140.759 21.1064 141.548 21.1064C141.915 21.1064 142.31 21.1343 142.704 21.1914C143.099 21.2193 143.465 21.3042 143.804 21.3879V21.8951Z" fill="white"/>
<path d="M149.894 25.3884C149.978 25.6128 150.063 25.7827 150.12 25.8664C150.204 25.9514 150.346 25.9793 150.599 25.9793H151.614C151.839 25.9793 152.008 25.9514 152.093 25.8664C152.178 25.7827 152.263 25.642 152.319 25.3884L154.18 17.6142L156.069 25.3884C156.097 25.6128 156.181 25.7827 156.294 25.8664C156.379 25.9514 156.576 25.9793 156.773 25.9793H157.789C157.986 25.9793 158.155 25.9514 158.268 25.8664C158.353 25.7827 158.466 25.642 158.494 25.3884L161.425 16.0938C161.454 15.981 161.51 15.8681 161.51 15.8123C161.51 15.7274 161.538 15.6995 161.538 15.6145C161.538 15.418 161.454 15.333 161.256 15.333H160.157C159.931 15.333 159.763 15.3609 159.678 15.4459C159.593 15.5308 159.508 15.6716 159.452 15.924L157.365 24.0075L155.42 15.896C155.392 15.6716 155.307 15.5017 155.194 15.418C155.109 15.333 154.913 15.3051 154.715 15.3051H153.729C153.503 15.3051 153.334 15.333 153.249 15.418C153.164 15.5017 153.079 15.6424 153.024 15.896L151.134 23.8668L149.132 15.896C149.049 15.6716 148.964 15.5017 148.907 15.418C148.823 15.333 148.682 15.3051 148.427 15.3051H147.244C147.047 15.3051 146.962 15.3888 146.962 15.5866C146.962 15.6716 146.989 15.8123 147.074 16.0659L149.894 25.3884Z" fill="white"/>
<path d="M167.771 31.2184C163.344 33.1052 158.495 34.0068 154.124 34.0068C147.611 34.0068 141.296 32.2316 136.193 29.2467C135.77 28.9652 135.403 29.4432 135.798 29.8097C140.535 34.0626 146.765 36.6253 153.73 36.6253C158.664 36.6253 164.415 35.077 168.419 32.1188C168.984 31.6686 168.447 30.9648 167.771 31.2184Z" fill="#FF9900"/>
<path d="M165.29 29.5846C164.923 29.8103 165.008 30.1768 165.375 30.1476C166.643 29.979 169.518 29.6417 169.999 30.3175C170.506 30.9364 169.435 33.641 168.983 34.852C168.814 35.2184 169.152 35.3591 169.49 35.0764C171.633 33.3025 172.169 29.5567 171.746 29.0495C171.295 28.4295 167.545 28.0072 165.29 29.5846Z" fill="#FF9900"/>
<path d="M181.218 23.4998C181.135 23.4998 181.05 23.4719 181.05 23.3311V16.8249C181.05 16.74 181.078 16.6562 181.218 16.6562H181.416C181.529 16.6562 181.585 16.6842 181.585 16.8249L181.614 17.2193C181.895 16.9936 182.206 16.8249 182.488 16.7121C182.769 16.5992 183.052 16.5434 183.361 16.5434C183.982 16.5434 184.462 16.7691 184.828 17.2193C185.195 17.6415 185.391 18.2895 185.391 19.0223C185.391 19.8111 185.195 20.4299 184.828 20.9092C184.433 21.3873 183.953 21.6129 183.277 21.6129C182.685 21.6129 182.177 21.3872 181.67 20.9371V23.3032C181.67 23.3869 181.642 23.4718 181.501 23.4718H181.218V23.4998ZM183.192 21.1349C183.7 21.1349 184.094 20.965 184.377 20.6277C184.658 20.2612 184.771 19.754 184.771 19.0782C184.771 17.7265 184.264 17.0785 183.22 17.0785C182.713 17.0785 182.149 17.2763 181.642 17.6986V20.4869C181.923 20.7114 182.149 20.8813 182.403 20.9929C182.656 21.0499 182.939 21.1349 183.192 21.1349Z" fill="white"/>
<path d="M187.706 21.6129C187.284 21.6129 186.916 21.5001 186.635 21.2186C186.353 20.9929 186.24 20.6277 186.24 20.2054C186.24 19.7261 186.409 19.3876 186.72 19.1061C187.029 18.8246 187.48 18.7117 188.017 18.7117C188.439 18.7117 188.89 18.7967 189.397 18.9374V18.1487C189.397 17.7544 189.314 17.4729 189.116 17.3321C188.918 17.1635 188.637 17.1064 188.213 17.1064C187.791 17.1064 187.312 17.1914 186.832 17.3321C186.804 17.3321 186.72 17.36 186.663 17.36C186.579 17.36 186.579 17.3321 186.579 17.2472V17.0506C186.579 17.0227 186.579 16.9657 186.607 16.9378C186.635 16.9099 186.635 16.9098 186.692 16.8528C187.199 16.6563 187.706 16.5434 188.298 16.5434C188.862 16.5434 189.285 16.6562 189.567 16.9098C189.849 17.1343 189.962 17.5008 189.962 17.9801V21.3593C189.962 21.4443 189.934 21.5292 189.793 21.5292H189.595C189.51 21.5292 189.427 21.5001 189.427 21.3593L189.397 20.965C188.89 21.4164 188.298 21.6129 187.706 21.6129ZM187.791 21.1349C188.017 21.1349 188.298 21.1058 188.58 20.965C188.862 20.8522 189.144 20.7405 189.455 20.5427V19.3597C189.031 19.2468 188.637 19.191 188.185 19.191C187.284 19.191 186.832 19.5575 186.832 20.2054C186.832 20.4869 186.916 20.7114 187.058 20.8813C187.227 21.0499 187.48 21.1349 187.791 21.1349Z" fill="white"/>
<path d="M191.622 21.5295C191.537 21.5295 191.454 21.5004 191.454 21.3597V16.8252C191.454 16.7415 191.482 16.6566 191.622 16.6566H191.82C191.933 16.6566 191.989 16.6845 191.989 16.8252L192.017 17.3883C192.242 17.1068 192.496 16.9102 192.722 16.8252C192.947 16.7124 193.23 16.6566 193.512 16.6566C193.625 16.6566 193.709 16.6566 193.737 16.6566C193.821 16.6566 193.906 16.6845 193.906 16.8252V17.0509C193.906 17.0788 193.906 17.0788 193.878 17.1346C193.878 17.1638 193.85 17.1638 193.793 17.1638C193.765 17.1638 193.68 17.1638 193.624 17.1638C193.597 17.1638 193.512 17.1638 193.427 17.1638C193.145 17.1638 192.863 17.1917 192.638 17.3324C192.412 17.4453 192.215 17.6139 191.961 17.8396V21.3597C191.961 21.4446 191.933 21.5295 191.791 21.5295H191.622Z" fill="white"/>
<path d="M196.416 21.5854C196.02 21.5854 195.739 21.4725 195.541 21.2759C195.344 21.0782 195.231 20.7966 195.231 20.4023V17.2196H194.469C194.386 17.2196 194.301 17.1917 194.301 17.0509V16.966C194.301 16.9381 194.301 16.8823 194.329 16.8531C194.329 16.8252 194.357 16.8252 194.442 16.8252L195.231 16.7415L195.315 15.4735C195.315 15.4456 195.344 15.3886 195.344 15.3607C195.372 15.3328 195.372 15.3328 195.457 15.3328H195.626C195.711 15.3328 195.794 15.3607 195.794 15.5014V16.7694H197.176C197.261 16.7694 197.345 16.7973 197.345 16.9381V17.1359C197.345 17.2196 197.317 17.3045 197.176 17.3045H195.794V20.4872C195.794 20.7687 195.824 20.9095 195.964 21.0502C196.077 21.1631 196.274 21.2189 196.529 21.2189C196.725 21.2189 196.895 21.2189 197.008 21.191C197.092 21.191 197.119 21.1631 197.176 21.1631C197.204 21.1631 197.261 21.1631 197.261 21.1631C197.345 21.1631 197.374 21.191 197.374 21.2759V21.4446C197.374 21.5574 197.345 21.6133 197.261 21.6412C197.008 21.5295 196.753 21.5854 196.416 21.5854Z" fill="white"/>
<path d="M198.56 21.5293C198.475 21.5293 198.39 21.5002 198.39 21.3595V16.825C198.39 16.7413 198.419 16.6564 198.56 16.6564H198.758C198.869 16.6564 198.926 16.6843 198.926 16.825L198.954 17.2194C199.265 16.9937 199.574 16.825 199.941 16.7122C200.308 16.5993 200.618 16.5156 200.928 16.5156C201.408 16.5156 201.746 16.6285 202 16.8821C202.225 17.1065 202.366 17.473 202.366 17.9802V21.3316C202.366 21.4165 202.338 21.5002 202.196 21.5002H201.915C201.83 21.5002 201.746 21.4723 201.746 21.3316V18.2617C201.746 17.8394 201.661 17.5579 201.52 17.3601C201.351 17.1636 201.097 17.0786 200.758 17.0786C200.138 17.0786 199.49 17.2764 198.898 17.6987V21.4165C198.898 21.5002 198.869 21.5852 198.728 21.5852H198.532V21.5293H198.56Z" fill="white"/>
<path d="M205.89 21.6408C205.129 21.6408 204.537 21.4443 204.199 21.022C203.803 20.5998 203.607 19.9518 203.607 19.0782C203.607 18.2895 203.803 17.6694 204.199 17.2193C204.593 16.797 205.157 16.5434 205.805 16.5434C206.397 16.5434 206.821 16.7121 207.159 17.0506C207.469 17.36 207.639 17.8393 207.639 18.4581C207.639 18.6838 207.639 18.8816 207.61 19.0503C207.61 19.134 207.526 19.2189 207.441 19.2189H204.199C204.199 19.8948 204.367 20.402 204.621 20.7114C204.904 21.022 205.383 21.1907 205.975 21.1907C206.454 21.1907 206.877 21.1058 207.272 20.965C207.356 20.9371 207.441 20.9371 207.441 20.9371C207.469 20.9371 207.469 20.9371 207.526 20.965C207.526 20.9929 207.554 20.9929 207.554 21.0499V21.2186C207.554 21.3314 207.526 21.3873 207.441 21.4164C206.934 21.5292 206.454 21.6408 205.89 21.6408ZM207.074 18.7688C207.074 18.6838 207.074 18.571 207.074 18.4581C207.074 17.9801 206.962 17.6694 206.764 17.445C206.538 17.2193 206.201 17.0785 205.777 17.0785C204.762 17.0785 204.227 17.6415 204.171 18.7688H207.074Z" fill="white"/>
<path d="M208.936 21.5295C208.852 21.5295 208.768 21.5004 208.768 21.3597V16.8252C208.768 16.7415 208.796 16.6566 208.936 16.6566H209.134C209.247 16.6566 209.303 16.6845 209.303 16.8252L209.331 17.3883C209.557 17.1068 209.81 16.9102 210.036 16.8252C210.261 16.7124 210.544 16.6566 210.826 16.6566C210.939 16.6566 211.023 16.6566 211.051 16.6566C211.136 16.6566 211.22 16.6845 211.22 16.8252V17.0509C211.22 17.0788 211.22 17.0788 211.192 17.1346C211.192 17.1638 211.164 17.1638 211.107 17.1638C211.051 17.1638 210.994 17.1638 210.939 17.1638C210.911 17.1638 210.826 17.1638 210.741 17.1638C210.459 17.1638 210.178 17.1917 209.952 17.3324C209.726 17.4453 209.529 17.6139 209.275 17.8396V21.3597C209.275 21.4446 209.247 21.5295 209.106 21.5295H208.936Z" fill="white"/>
<path d="M181.218 32.1466C181.135 32.1466 181.05 32.1187 181.05 31.978V27.4714C181.05 27.3877 181.078 27.3028 181.218 27.3028H181.416C181.529 27.3028 181.585 27.3307 181.585 27.4714L181.614 27.8658C181.923 27.6401 182.234 27.4714 182.6 27.3586C182.967 27.2458 183.277 27.162 183.587 27.162C184.066 27.162 184.405 27.2749 184.658 27.5285C184.884 27.7529 185.025 28.1194 185.025 28.6266V31.978C185.025 32.0629 184.997 32.1466 184.856 32.1466H184.573C184.49 32.1466 184.405 32.1187 184.405 31.978V28.8523C184.405 28.4288 184.32 28.1473 184.179 27.9507C184.01 27.7529 183.757 27.6692 183.418 27.6692C182.798 27.6692 182.149 27.8658 181.557 28.288V32.0059C181.557 32.0908 181.529 32.1757 181.388 32.1757H181.19V32.1466H181.218Z" fill="white"/>
<path d="M188.576 32.2873C187.814 32.2873 187.223 32.0907 186.885 31.6684C186.489 31.2462 186.293 30.5982 186.293 29.7246C186.293 28.9359 186.489 28.3171 186.885 27.8657C187.279 27.4434 187.843 27.1898 188.491 27.1898C189.083 27.1898 189.507 27.3585 189.845 27.697C190.155 28.0064 190.325 28.4857 190.325 29.1058C190.325 29.3302 190.325 29.528 190.296 29.6967C190.296 29.7816 190.212 29.8653 190.127 29.8653H186.885C186.885 30.5412 187.053 31.0484 187.307 31.3578C187.59 31.6684 188.069 31.8371 188.661 31.8371C189.14 31.8371 189.563 31.7521 189.957 31.6114C190.042 31.5835 190.127 31.5835 190.127 31.5835C190.155 31.5835 190.155 31.5835 190.212 31.6114C190.212 31.6405 190.24 31.6405 190.24 31.6963V31.865C190.24 31.9778 190.212 32.0349 190.127 32.0628C189.648 32.1756 189.111 32.2873 188.576 32.2873ZM189.76 29.3873C189.76 29.3023 189.76 29.1895 189.76 29.0766C189.76 28.5986 189.648 28.2879 189.45 28.0634C189.224 27.8378 188.886 27.697 188.463 27.697C187.448 27.697 186.913 28.26 186.856 29.3873H189.76Z" fill="white"/>
<path d="M193.003 32.2316C192.608 32.2316 192.326 32.1188 192.128 31.9222C191.932 31.7244 191.819 31.4429 191.819 31.0486V27.81H191.057C190.973 27.81 190.888 27.7821 190.888 27.6414V27.5564C190.888 27.5285 190.888 27.4715 190.916 27.4436C190.916 27.4157 190.944 27.4157 191.029 27.4157L191.819 27.3307L191.903 26.064C191.903 26.036 191.932 25.979 191.932 25.9511C191.96 25.9232 191.96 25.9232 192.043 25.9232H192.213C192.298 25.9232 192.382 25.9511 192.382 26.0919V27.3598H193.764C193.849 27.3598 193.933 27.3878 193.933 27.5285V27.7251C193.933 27.81 193.905 27.895 193.764 27.895H192.411V31.0777C192.411 31.3592 192.439 31.4999 192.58 31.6407C192.721 31.7814 192.89 31.8093 193.144 31.8093C193.341 31.8093 193.51 31.8093 193.623 31.7814C193.707 31.7814 193.736 31.7535 193.792 31.7535C193.82 31.7535 193.877 31.7535 193.877 31.7535C193.962 31.7535 193.99 31.7814 193.99 31.8652V32.035C193.99 32.1479 193.962 32.2037 193.877 32.2316C193.595 32.1758 193.313 32.2316 193.003 32.2316Z" fill="white"/>
<path d="M196.105 32.1469C196.02 32.1469 195.936 32.119 195.907 32.0353L194.414 27.5846C194.386 27.4997 194.386 27.4718 194.386 27.4159C194.386 27.3589 194.414 27.331 194.499 27.331H194.808C194.893 27.331 194.921 27.3589 194.978 27.4439L196.274 31.5002L197.43 27.4439C197.458 27.3589 197.515 27.331 197.628 27.331H197.994C198.079 27.331 198.163 27.3589 198.192 27.4439L199.347 31.5002L200.701 27.388C200.729 27.3031 200.785 27.2752 200.87 27.2752H201.152C201.237 27.2752 201.264 27.3031 201.264 27.3589C201.264 27.388 201.264 27.4439 201.237 27.5288L199.658 31.9783C199.63 32.0632 199.573 32.0911 199.46 32.0911H199.151C199.066 32.0911 198.981 32.0632 198.953 31.9783L197.797 27.9231L196.641 31.9783C196.612 32.0632 196.556 32.0911 196.444 32.0911H196.162V32.1469H196.105Z" fill="white"/>
<path d="M204.058 32.2874C203.353 32.2874 202.79 32.0629 202.394 31.6115C202 31.1892 201.802 30.5413 201.802 29.7247C201.802 28.936 202 28.3172 202.394 27.8379C202.79 27.4156 203.353 27.162 204.058 27.162C204.763 27.162 205.327 27.3877 205.722 27.8379C206.117 28.2601 206.314 28.9081 206.314 29.7247C206.314 30.5134 206.117 31.1334 205.722 31.6115C205.299 32.0629 204.763 32.2874 204.058 32.2874ZM204.058 31.7814C205.159 31.7814 205.722 31.1055 205.722 29.7247C205.722 28.3451 205.159 27.6692 204.058 27.6692C202.959 27.6692 202.394 28.3451 202.394 29.7247C202.394 31.1055 202.931 31.7814 204.058 31.7814Z" fill="white"/>
<path d="M207.666 32.1468C207.581 32.1468 207.496 32.1189 207.496 31.9782V27.4717C207.496 27.3879 207.525 27.303 207.666 27.303H207.863C207.976 27.303 208.033 27.3309 208.033 27.4717L208.061 28.0347C208.286 27.7531 208.54 27.5566 208.766 27.4717C208.991 27.3588 209.273 27.303 209.555 27.303C209.668 27.303 209.752 27.303 209.78 27.303C209.865 27.303 209.95 27.3309 209.95 27.4717V27.6973C209.95 27.7252 209.95 27.7252 209.922 27.7823C209.893 27.8102 209.893 27.8102 209.837 27.8102C209.809 27.8102 209.724 27.8102 209.668 27.8102C209.639 27.8102 209.555 27.8102 209.47 27.8102C209.189 27.8102 208.906 27.8381 208.681 27.9788C208.455 28.0917 208.258 28.2604 208.005 28.486V32.0061C208.005 32.091 207.976 32.176 207.835 32.176H207.638V32.1468H207.666Z" fill="white"/>
<path d="M210.963 32.1469C210.879 32.1469 210.794 32.119 210.794 31.9782V25.1905C210.794 25.1056 210.822 25.0219 210.963 25.0219H211.246C211.331 25.0219 211.414 25.0498 211.414 25.1905V29.4714L213.698 27.4159C213.783 27.331 213.868 27.3309 213.924 27.3309H214.29C214.375 27.3309 214.403 27.3589 214.403 27.4159C214.403 27.4717 214.375 27.4996 214.29 27.5846L211.951 29.6412L214.488 31.9782C214.516 32.0061 214.573 32.0632 214.573 32.0911C214.573 32.176 214.545 32.176 214.46 32.176H214.064C213.981 32.176 213.896 32.1469 213.868 32.0911L211.414 29.8099V32.0061C211.414 32.0911 211.387 32.176 211.246 32.176H210.963V32.1469Z" fill="white"/>
<path d="M137.545 44.3456C137.009 44.1478 136.614 43.8954 136.389 43.6127C136.163 43.3312 136.051 42.966 136.051 42.5146C136.051 41.9516 136.248 41.5014 136.671 41.1629C137.094 40.8244 137.658 40.6557 138.362 40.6557C138.955 40.6557 139.518 40.7685 140.082 40.9942V42.0074C139.49 41.8387 138.955 41.7259 138.447 41.7259C137.742 41.7259 137.376 41.9516 137.376 42.4018C137.376 42.5716 137.432 42.7124 137.545 42.824C137.658 42.9369 137.911 43.0497 138.25 43.1626L138.926 43.4162C139.49 43.6127 139.885 43.8663 140.11 44.1199C140.336 44.4014 140.477 44.74 140.477 45.1901C140.477 45.8102 140.251 46.2894 139.8 46.6547C139.349 47.0211 138.757 47.1898 137.968 47.1898C137.629 47.1898 137.291 47.1619 136.953 47.1061C136.614 47.049 136.332 46.9653 136.079 46.8525V45.8102C136.389 45.8951 136.699 45.9788 137.037 46.0359C137.376 46.0917 137.686 46.1196 137.968 46.1196C138.334 46.1196 138.588 46.0638 138.785 45.923C138.983 45.7823 139.067 45.6124 139.067 45.36C139.067 45.1622 139.011 45.0215 138.898 44.9086C138.785 44.7958 138.532 44.6829 138.193 44.5422L137.545 44.3456ZM142.507 45.1064C142.535 45.5007 142.648 45.7823 142.873 45.9788C143.099 46.1475 143.438 46.2324 143.889 46.2324C144.283 46.2324 144.763 46.1475 145.299 46.0067V46.8804C145.101 46.9932 144.848 47.0769 144.537 47.134C144.255 47.1898 143.945 47.2189 143.635 47.2189C142.873 47.2189 142.281 47.0211 141.887 46.5989C141.492 46.1766 141.295 45.5845 141.295 44.7679C141.295 44.0071 141.492 43.4162 141.887 42.966C142.281 42.5425 142.845 42.318 143.55 42.318C144.143 42.318 144.594 42.4867 144.931 42.824C145.242 43.1626 145.411 43.6127 145.411 44.2328C145.411 44.3735 145.411 44.5143 145.383 44.6829C145.355 44.8528 145.355 44.9936 145.327 45.1064H142.507ZM143.466 43.2475C143.156 43.2475 142.93 43.3312 142.761 43.5011C142.592 43.6697 142.507 43.9234 142.479 44.2607H144.255V44.1199C144.255 43.529 144.002 43.2475 143.466 43.2475ZM148.428 46.9932C148.175 47.1061 147.892 47.134 147.61 47.134C146.793 47.134 146.398 46.6838 146.398 45.7823V40.4021H147.723V45.6694C147.723 45.8381 147.751 45.9509 147.808 46.0359C147.864 46.0917 147.949 46.1475 148.09 46.1475C148.175 46.1475 148.288 46.1475 148.428 46.1196V46.9932ZM150.318 45.1064C150.345 45.5007 150.458 45.7823 150.684 45.9788C150.91 46.1475 151.247 46.2324 151.698 46.2324C152.094 46.2324 152.573 46.1475 153.108 46.0067V46.8804C152.911 46.9932 152.657 47.0769 152.348 47.134C152.065 47.1898 151.755 47.2189 151.445 47.2189C150.684 47.2189 150.092 47.0211 149.696 46.5989C149.302 46.1766 149.104 45.5845 149.104 44.7679C149.104 44.0071 149.302 43.4162 149.696 42.966C150.092 42.5425 150.655 42.318 151.36 42.318C151.952 42.318 152.403 42.4867 152.742 42.824C153.052 43.1626 153.221 43.6127 153.221 44.2328C153.221 44.3735 153.221 44.5143 153.193 44.6829C153.165 44.8528 153.165 44.9936 153.136 45.1064H150.318ZM151.304 43.2475C150.993 43.2475 150.768 43.3312 150.599 43.5011C150.43 43.6697 150.345 43.9234 150.318 44.2607H152.094V44.1199C152.065 43.529 151.811 43.2475 151.304 43.2475ZM157.535 46.8804C157.366 46.9653 157.168 47.049 156.943 47.1061C156.717 47.1619 156.463 47.1898 156.238 47.1898C155.505 47.1898 154.941 46.9932 154.546 46.571C154.152 46.1475 153.954 45.5566 153.954 44.7958C153.954 44.0362 154.152 43.4441 154.574 43.0218C154.998 42.5995 155.562 42.3738 156.267 42.3738C156.717 42.3738 157.112 42.4588 157.479 42.6554V43.529C157.112 43.4161 156.802 43.3882 156.491 43.3882C156.069 43.3882 155.758 43.5011 155.562 43.6977C155.364 43.9233 155.279 44.2607 155.279 44.712V44.8528C155.279 45.303 155.364 45.6415 155.562 45.866C155.758 46.0917 156.069 46.1766 156.463 46.1766C156.746 46.1766 157.112 46.1196 157.479 46.0067V46.8804H157.535ZM161.2 46.9653C160.862 47.0769 160.523 47.1619 160.101 47.1619C159.593 47.1619 159.198 47.049 158.973 46.7954C158.719 46.5418 158.606 46.1766 158.606 45.6694V43.4441H157.901V42.6274L158.634 42.4867L158.832 41.2187H159.903V42.4588H161.143V43.4441H159.903V45.6124C159.903 45.8102 159.96 45.9509 160.044 46.0359C160.129 46.1196 160.298 46.1475 160.523 46.1475C160.721 46.1475 160.919 46.1196 161.172 46.0917V46.9653H161.2Z" fill="white"/>
<path d="M164.49 46.4732C164.437 46.4732 164.414 46.4512 164.414 46.4001V43.2914H163.302C163.249 43.2914 163.226 43.2693 163.226 43.218V43.1011C163.226 43.05 163.249 43.028 163.302 43.028H165.831C165.884 43.028 165.907 43.05 165.907 43.1011V43.218C165.907 43.2693 165.884 43.2914 165.831 43.2914H164.719V46.4001C164.719 46.4512 164.696 46.4732 164.643 46.4732H164.49ZM167.507 46.5463C167.095 46.5463 166.79 46.4367 166.577 46.2098C166.371 45.9832 166.265 45.6539 166.265 45.2149C166.265 44.798 166.371 44.4763 166.577 44.2421C166.79 44.008 167.08 43.8983 167.453 43.8983C167.765 43.8983 168.009 43.9863 168.176 44.1545C168.344 44.3301 168.428 44.5714 168.428 44.8932C168.428 45.0249 168.42 45.1273 168.405 45.1932C168.397 45.2442 168.367 45.2663 168.314 45.2663H166.562C166.562 45.6174 166.646 45.8732 166.798 46.0343C166.95 46.2025 167.194 46.2829 167.522 46.2829C167.773 46.2829 168.009 46.2391 168.23 46.1587C168.275 46.1439 168.306 46.1367 168.321 46.1367C168.336 46.1367 168.344 46.1439 168.359 46.1512C168.367 46.166 168.375 46.1732 168.375 46.1953V46.2684C168.375 46.3195 168.359 46.356 168.314 46.3708C168.078 46.4877 167.803 46.5463 167.507 46.5463ZM168.146 45.0394C168.146 44.9956 168.154 44.937 168.154 44.8787C168.154 44.6373 168.093 44.4618 167.971 44.3373C167.849 44.2128 167.674 44.1545 167.438 44.1545C166.889 44.1545 166.6 44.4542 166.569 45.0467H168.146V45.0394ZM170.172 46.5315C169.776 46.5315 169.472 46.4219 169.258 46.2025C169.053 45.9832 168.946 45.6539 168.946 45.2297C168.946 44.8053 169.053 44.4835 169.258 44.257C169.472 44.0301 169.776 43.9204 170.172 43.9204C170.362 43.9204 170.545 43.9497 170.713 44.0156C170.751 44.0301 170.774 44.0666 170.774 44.118V44.1911C170.774 44.2349 170.751 44.257 170.713 44.257C170.705 44.257 170.69 44.257 170.675 44.2494C170.659 44.2421 170.637 44.2421 170.599 44.2349C170.461 44.2056 170.324 44.1835 170.187 44.1835C169.86 44.1835 169.624 44.2642 169.479 44.4249C169.334 44.5859 169.258 44.8421 169.258 45.2004V45.2591C169.258 45.6029 169.334 45.8587 169.479 46.0198C169.624 46.1805 169.86 46.2684 170.18 46.2684C170.317 46.2684 170.461 46.2463 170.629 46.2025C170.667 46.1953 170.69 46.188 170.705 46.1805C170.72 46.1732 170.736 46.1732 170.743 46.1732C170.781 46.1732 170.804 46.1953 170.804 46.2391V46.3122C170.804 46.3636 170.789 46.4001 170.751 46.4146C170.576 46.4877 170.378 46.5315 170.172 46.5315ZM171.505 46.4732C171.452 46.4732 171.429 46.4512 171.429 46.4001V42.8669C171.429 42.8159 171.452 42.7938 171.505 42.7938H171.642C171.695 42.7938 171.718 42.8159 171.718 42.8669V44.257C171.886 44.147 172.061 44.0594 172.251 43.9935C172.434 43.9276 172.617 43.8983 172.792 43.8983C173.043 43.8983 173.234 43.9642 173.371 44.0887C173.508 44.2128 173.569 44.4032 173.569 44.6518V46.4001C173.569 46.4512 173.546 46.4732 173.493 46.4732H173.356C173.302 46.4732 173.28 46.4512 173.28 46.4001V44.7763C173.28 44.5639 173.234 44.4032 173.15 44.308C173.066 44.2128 172.929 44.1618 172.739 44.1618C172.396 44.1618 172.061 44.2642 171.733 44.4763V46.4001C171.733 46.4512 171.711 46.4732 171.657 46.4732H171.505ZM174.445 46.4732C174.391 46.4732 174.369 46.4512 174.369 46.4001V44.0446C174.369 43.9935 174.391 43.9714 174.445 43.9714H174.551C174.605 43.9714 174.635 43.9935 174.643 44.0446L174.666 44.257C174.833 44.1397 175.016 44.0521 175.199 43.9863C175.382 43.9204 175.564 43.8911 175.739 43.8911C175.991 43.8911 176.181 43.9569 176.318 44.0811C176.455 44.2056 176.516 44.3959 176.516 44.6446V46.4001C176.516 46.4512 176.494 46.4732 176.44 46.4732H176.303C176.25 46.4732 176.227 46.4512 176.227 46.4001V44.7763C176.227 44.5639 176.181 44.4032 176.097 44.308C176.014 44.2128 175.876 44.1618 175.686 44.1618C175.343 44.1618 175.009 44.2642 174.681 44.4763V46.4001C174.681 46.4512 174.658 46.4732 174.605 46.4732H174.445ZM178.375 46.5463C177.994 46.5463 177.697 46.4294 177.491 46.1953C177.278 45.9612 177.179 45.6318 177.179 45.2149C177.179 44.798 177.286 44.4763 177.491 44.2421C177.704 44.008 178.001 43.8911 178.375 43.8911C178.756 43.8911 179.053 44.008 179.258 44.2421C179.471 44.4763 179.578 44.798 179.578 45.2149C179.578 45.6318 179.471 45.9612 179.258 46.1953C179.053 46.4294 178.756 46.5463 178.375 46.5463ZM178.375 46.2901C178.969 46.2901 179.273 45.9319 179.273 45.2225C179.273 44.5128 178.976 44.1618 178.375 44.1618C177.781 44.1618 177.476 44.5128 177.476 45.2225C177.476 45.9319 177.773 46.2901 178.375 46.2901ZM180.69 46.4877C180.553 46.4877 180.446 46.4512 180.37 46.3708C180.294 46.2905 180.256 46.188 180.256 46.0415V42.8597C180.256 42.8086 180.279 42.7866 180.332 42.7866H180.469C180.523 42.7866 180.545 42.8086 180.545 42.8597V46.0343C180.545 46.1074 180.561 46.1587 180.591 46.188C180.622 46.217 180.675 46.2319 180.751 46.2319C180.774 46.2319 180.797 46.2318 180.82 46.2246C180.842 46.2246 180.865 46.217 180.88 46.217C180.926 46.217 180.957 46.2391 180.957 46.2901V46.3853C180.957 46.4294 180.934 46.4512 180.888 46.4584C180.827 46.4805 180.766 46.4877 180.69 46.4877ZM182.609 46.5463C182.229 46.5463 181.931 46.4294 181.726 46.1953C181.512 45.9612 181.413 45.6318 181.413 45.2149C181.413 44.798 181.52 44.4763 181.726 44.2421C181.939 44.008 182.236 43.8911 182.609 43.8911C182.99 43.8911 183.287 44.008 183.493 44.2421C183.706 44.4763 183.813 44.798 183.813 45.2149C183.813 45.6318 183.706 45.9612 183.493 46.1953C183.287 46.4294 182.99 46.5463 182.609 46.5463ZM182.609 46.2901C183.203 46.2901 183.508 45.9319 183.508 45.2225C183.508 44.5128 183.211 44.1618 182.609 44.1618C182.015 44.1618 181.711 44.5128 181.711 45.2225C181.718 45.9319 182.015 46.2901 182.609 46.2901ZM185.404 47.5557C185.26 47.5557 185.115 47.5412 184.978 47.5119C184.841 47.4826 184.719 47.446 184.612 47.395C184.574 47.3802 184.552 47.3436 184.552 47.2926V47.2191C184.552 47.1753 184.567 47.1536 184.612 47.1536C184.62 47.1536 184.635 47.1536 184.643 47.1608C184.658 47.1608 184.681 47.1681 184.711 47.1826C184.955 47.2557 185.183 47.2998 185.382 47.2998C185.702 47.2998 185.938 47.2267 186.09 47.0729C186.242 46.9195 186.319 46.6781 186.319 46.3488V46.1074C186.189 46.2098 186.052 46.2901 185.892 46.3488C185.74 46.4074 185.587 46.4367 185.45 46.4367C185.115 46.4367 184.856 46.3195 184.65 46.0929C184.453 45.866 184.354 45.5663 184.354 45.1932C184.354 44.7908 184.453 44.4763 184.65 44.2421C184.848 44.008 185.123 43.8911 185.465 43.8911C185.793 43.8911 186.075 44.0008 186.326 44.2204L186.349 44.0373C186.357 43.9863 186.387 43.9642 186.44 43.9642H186.547C186.6 43.9642 186.623 43.9863 186.623 44.0373V46.3488C186.623 46.7364 186.516 47.0364 186.311 47.2412C186.105 47.446 185.793 47.5557 185.404 47.5557ZM185.519 46.1805C185.778 46.1805 186.044 46.0781 186.319 45.866V44.4835C186.174 44.3739 186.044 44.2859 185.907 44.2349C185.778 44.1835 185.633 44.1545 185.488 44.1545C185.214 44.1545 185.001 44.2421 184.864 44.4104C184.727 44.5859 184.658 44.8346 184.658 45.1784C184.658 45.5004 184.734 45.7491 184.879 45.9246C185.024 46.1001 185.237 46.1805 185.519 46.1805ZM187.514 47.5557C187.43 47.5557 187.354 47.5412 187.278 47.5191C187.225 47.5046 187.202 47.4753 187.202 47.4167V47.3436C187.202 47.2998 187.225 47.2778 187.263 47.2778C187.286 47.2778 187.301 47.2778 187.316 47.285C187.331 47.285 187.354 47.2926 187.385 47.2926C187.415 47.2926 187.446 47.2926 187.491 47.2926C187.606 47.2926 187.697 47.2633 187.766 47.2046C187.834 47.146 187.895 47.0436 187.956 46.8974L188.131 46.4805L187.11 44.0739C187.095 44.0446 187.088 44.0228 187.088 44.008C187.088 43.9714 187.11 43.9497 187.148 43.9497H187.316C187.362 43.9497 187.392 43.9714 187.408 44.0156L188.276 46.1512L189.152 44.0156C189.167 43.9714 189.197 43.9497 189.243 43.9497H189.395C189.433 43.9497 189.456 43.9642 189.456 44.008C189.456 44.0156 189.449 44.0373 189.433 44.0739L188.215 46.9853C188.131 47.1901 188.032 47.3291 187.926 47.4167C187.819 47.5191 187.682 47.5557 187.514 47.5557Z" fill="white"/>
<path d="M191.937 47.4566C191.869 47.4566 191.84 47.4271 191.84 47.3575V42.8857C191.84 42.8165 191.869 42.7866 191.937 42.7866H193.414C193.831 42.7866 194.162 42.9156 194.415 43.1633C194.667 43.4115 194.784 43.7485 194.784 44.1748C194.784 44.5913 194.658 44.9283 194.415 45.176C194.162 45.4242 193.831 45.5528 193.414 45.5528H192.219V47.3575C192.219 47.4271 192.19 47.4566 192.122 47.4566H191.937ZM193.404 45.1961C194.055 45.1961 194.386 44.8591 194.386 44.1748C194.386 43.4905 194.055 43.1437 193.404 43.1437H192.219V45.1961H193.404ZM196.406 47.5361C196.105 47.5361 195.862 47.4468 195.678 47.2682C195.503 47.0897 195.406 46.8518 195.406 46.5545C195.406 46.2273 195.512 45.9693 195.736 45.7809C195.959 45.5925 196.261 45.4934 196.64 45.4934C196.931 45.4934 197.252 45.543 197.582 45.6523V45.0872C197.582 44.8096 197.514 44.6212 197.388 44.502C197.261 44.3828 197.048 44.3235 196.756 44.3235C196.455 44.3235 196.134 44.3828 195.794 44.4922C195.755 44.502 195.716 44.5118 195.697 44.5118C195.658 44.5118 195.629 44.4824 195.629 44.4226V44.3136C195.629 44.2739 195.639 44.2543 195.649 44.2342C195.658 44.2145 195.688 44.1945 195.716 44.1846C196.066 44.0458 196.436 43.9766 196.824 43.9766C197.213 43.9766 197.495 44.0556 197.689 44.2244C197.883 44.3931 197.971 44.6408 197.971 44.9779V47.3575C197.971 47.4271 197.941 47.4566 197.874 47.4566H197.737C197.67 47.4566 197.64 47.4271 197.631 47.3575L197.601 47.07C197.213 47.3771 196.815 47.5361 196.406 47.5361ZM196.455 47.179C196.62 47.179 196.805 47.1495 196.999 47.0799C197.193 47.0107 197.388 46.9116 197.592 46.7826V45.9398C197.3 45.8603 197.009 45.8206 196.737 45.8206C196.125 45.8206 195.814 46.0585 195.814 46.5446C195.814 46.7527 195.872 46.9116 195.979 47.0205C196.076 47.1294 196.241 47.179 196.455 47.179ZM199.078 47.4566C199.01 47.4566 198.981 47.4271 198.981 47.3575V44.165C198.981 44.0954 199.01 44.0659 199.078 44.0659H199.205C199.273 44.0659 199.312 44.0954 199.321 44.165L199.351 44.5614C199.516 44.373 199.681 44.2342 199.846 44.165C200.011 44.0855 200.186 44.0458 200.39 44.0458C200.458 44.0458 200.516 44.0458 200.565 44.0556C200.633 44.0556 200.662 44.0954 200.662 44.165V44.3333C200.662 44.3534 200.652 44.373 200.643 44.3828C200.633 44.4029 200.613 44.4029 200.594 44.4029C200.555 44.4029 200.526 44.4029 200.497 44.4029C200.468 44.4029 200.419 44.4029 200.361 44.4029C200.157 44.4029 199.982 44.4426 199.826 44.5217C199.671 44.6011 199.516 44.7203 199.379 44.8886V47.3673C199.379 47.4369 199.351 47.4664 199.282 47.4664H199.078V47.4566ZM202.275 47.4963C202.013 47.4963 201.818 47.4271 201.682 47.2883C201.546 47.1495 201.478 46.941 201.478 46.6732V44.4127H200.954C200.886 44.4127 200.856 44.3828 200.856 44.3136V44.2444C200.856 44.2047 200.866 44.1846 200.876 44.165C200.886 44.1449 200.915 44.1351 200.954 44.1351L201.488 44.0855L201.537 43.1932C201.537 43.1535 201.546 43.1338 201.566 43.1138C201.585 43.0941 201.605 43.0941 201.634 43.0941H201.75C201.818 43.0941 201.848 43.124 201.848 43.1932V44.0757H202.809C202.878 44.0757 202.906 44.1056 202.906 44.1748V44.3136C202.906 44.3828 202.878 44.4127 202.809 44.4127H201.848V46.6536C201.848 46.8419 201.886 46.9709 201.964 47.0401C202.042 47.1196 202.168 47.1593 202.353 47.1593C202.479 47.1593 202.596 47.1495 202.693 47.1294C202.741 47.1196 202.78 47.1098 202.809 47.1098C202.839 47.0999 202.858 47.0999 202.878 47.0999C202.926 47.0999 202.955 47.1294 202.955 47.179V47.2781C202.955 47.3575 202.936 47.3972 202.878 47.4169C202.702 47.4664 202.498 47.4963 202.275 47.4963ZM203.742 47.4566C203.674 47.4566 203.645 47.4271 203.645 47.3575V44.165C203.645 44.0954 203.674 44.0659 203.742 44.0659H203.878C203.946 44.0659 203.985 44.0954 203.995 44.165L204.024 44.4525C204.238 44.294 204.471 44.1748 204.704 44.0855C204.937 43.9963 205.17 43.9565 205.394 43.9565C205.715 43.9565 205.958 44.0458 206.132 44.2145C206.307 44.3828 206.385 44.6408 206.385 44.9779V47.3575C206.385 47.4271 206.356 47.4566 206.288 47.4566H206.113C206.045 47.4566 206.016 47.4271 206.016 47.3575V45.1564C206.016 44.8689 205.958 44.6507 205.851 44.5217C205.743 44.3931 205.569 44.3235 205.326 44.3235C204.889 44.3235 204.461 44.4623 204.043 44.7497V47.3575C204.043 47.4271 204.014 47.4566 203.946 47.4566H203.742ZM208.804 47.5557C208.279 47.5557 207.891 47.4071 207.619 47.0999C207.357 46.7924 207.22 46.346 207.22 45.7514C207.22 45.1863 207.357 44.7498 207.619 44.4328C207.891 44.1154 208.26 43.9668 208.736 43.9668C209.135 43.9668 209.445 44.0855 209.659 44.3136C209.873 44.5516 209.98 44.8788 209.98 45.3149C209.98 45.4934 209.97 45.6322 209.951 45.7215C209.941 45.7911 209.902 45.8206 209.834 45.8206H207.6C207.6 46.2965 207.706 46.6437 207.901 46.8616C208.095 47.0897 208.406 47.199 208.823 47.199C209.144 47.199 209.445 47.1392 209.727 47.0303C209.786 47.0107 209.825 47.0004 209.844 47.0004C209.863 47.0004 209.873 47.0107 209.892 47.0205C209.902 47.0401 209.912 47.05 209.912 47.0799V47.179C209.912 47.2486 209.892 47.2981 209.834 47.3178C209.533 47.4767 209.183 47.5557 208.804 47.5557ZM209.62 45.5135C209.62 45.4537 209.63 45.3747 209.63 45.2952C209.63 44.968 209.552 44.7301 209.397 44.5614C209.241 44.3931 209.018 44.3136 208.717 44.3136C208.017 44.3136 207.648 44.7203 207.609 45.5233H209.62V45.5135ZM210.922 47.4566C210.854 47.4566 210.825 47.4271 210.825 47.3575V44.165C210.825 44.0954 210.854 44.0659 210.922 44.0659H211.048C211.117 44.0659 211.155 44.0954 211.165 44.165L211.194 44.5614C211.36 44.373 211.525 44.2342 211.69 44.165C211.855 44.0855 212.03 44.0458 212.234 44.0458C212.302 44.0458 212.36 44.0458 212.409 44.0556C212.477 44.0556 212.506 44.0954 212.506 44.165V44.3333C212.506 44.3534 212.496 44.373 212.486 44.3828C212.477 44.4029 212.458 44.4029 212.438 44.4029C212.399 44.4029 212.37 44.4029 212.341 44.4029C212.312 44.4029 212.263 44.4029 212.205 44.4029C212.001 44.4029 211.826 44.4426 211.671 44.5217C211.515 44.6011 211.359 44.7203 211.224 44.8886V47.3673C211.224 47.4369 211.194 47.4664 211.126 47.4664H210.922V47.4566Z" fill="white"/>
<g opacity="0.6">
<rect x="360.017" y="0.612036" width="108.371" height="60.7811" rx="2.97439" fill="#1D1C39" stroke="#403F6F" stroke-width="0.775928"/>
</g>
<path d="M440.559 34.0042H439.635V35.609H438.558V34.0042H435.44V33.1511L438.548 28.3267H439.635V33.0901H440.559V34.0042ZM438.558 31.1198C438.558 30.9573 438.558 30.8015 438.558 30.6526C438.565 30.5036 438.572 30.3614 438.579 30.226C438.586 30.0838 438.589 29.9552 438.589 29.8401C438.596 29.7182 438.602 29.6098 438.609 29.515H438.569C438.514 29.6505 438.45 29.7893 438.376 29.9315C438.308 30.0737 438.24 30.1989 438.172 30.3073L436.466 33.0901H438.558V31.1198ZM441.352 35.0097C441.352 34.7456 441.416 34.5594 441.545 34.4511C441.681 34.3428 441.846 34.2886 442.043 34.2886C442.232 34.2886 442.395 34.3428 442.53 34.4511C442.672 34.5594 442.744 34.7456 442.744 35.0097C442.744 35.2738 442.672 35.4634 442.53 35.5785C442.395 35.6936 442.232 35.7511 442.043 35.7511C441.846 35.7511 441.681 35.6936 441.545 35.5785C441.416 35.4634 441.352 35.2738 441.352 35.0097ZM446.103 28.2556C446.509 28.2556 446.868 28.3233 447.18 28.4588C447.498 28.5874 447.745 28.7804 447.921 29.0377C448.104 29.295 448.195 29.6166 448.195 30.0026C448.195 30.2937 448.138 30.5476 448.023 30.7643C447.914 30.981 447.762 31.1739 447.566 31.3432C447.376 31.5057 447.166 31.6479 446.936 31.7698C447.2 31.912 447.444 32.0745 447.667 32.2573C447.891 32.4333 448.07 32.6399 448.206 32.8768C448.348 33.1138 448.419 33.3982 448.419 33.73C448.419 34.1363 448.324 34.4883 448.135 34.7863C447.952 35.0774 447.688 35.3043 447.342 35.4668C446.997 35.6293 446.587 35.7105 446.113 35.7105C445.606 35.7105 445.176 35.6327 444.824 35.4769C444.478 35.3212 444.217 35.1011 444.041 34.8167C443.865 34.5256 443.777 34.1735 443.777 33.7605C443.777 33.4287 443.838 33.1409 443.96 32.8972C444.089 32.6534 444.255 32.4435 444.458 32.2675C444.668 32.0914 444.898 31.9424 445.149 31.8206C444.932 31.6852 444.735 31.5328 444.559 31.3635C444.383 31.1875 444.245 30.9877 444.143 30.7643C444.048 30.5409 444.001 30.2836 444.001 29.9924C444.001 29.6132 444.092 29.2984 444.275 29.0478C444.458 28.7905 444.708 28.5942 445.027 28.4588C445.345 28.3233 445.704 28.2556 446.103 28.2556ZM444.834 33.7402C444.834 34.0719 444.939 34.3462 445.149 34.5628C445.358 34.7727 445.673 34.8777 446.093 34.8777C446.377 34.8777 446.611 34.8303 446.794 34.7355C446.977 34.6339 447.115 34.4985 447.21 34.3292C447.312 34.1532 447.363 33.9534 447.363 33.73C447.363 33.5066 447.308 33.3102 447.2 33.1409C447.092 32.9716 446.943 32.8227 446.753 32.694C446.57 32.5586 446.361 32.4367 446.124 32.3284L445.992 32.2675C445.748 32.3826 445.538 32.5112 445.362 32.6534C445.193 32.7956 445.06 32.9547 444.966 33.1308C444.878 33.3068 444.834 33.5099 444.834 33.7402ZM446.083 29.0986C445.785 29.0986 445.538 29.1799 445.341 29.3424C445.152 29.5049 445.057 29.7419 445.057 30.0533C445.057 30.2768 445.105 30.4664 445.199 30.6221C445.301 30.7778 445.43 30.9133 445.585 31.0284C445.748 31.1367 445.924 31.2416 446.113 31.3432C446.303 31.2484 446.472 31.1469 446.621 31.0385C446.777 30.9234 446.899 30.788 446.987 30.6323C447.082 30.4698 447.129 30.2768 447.129 30.0533C447.129 29.7419 447.031 29.5049 446.834 29.3424C446.645 29.1799 446.394 29.0986 446.083 29.0986Z" fill="#F0F0F0"/>
<path d="M376.91 9.5331C377.363 9.5331 377.737 9.59366 378.032 9.71479C378.327 9.83591 378.546 10.0176 378.688 10.2599C378.835 10.4968 378.909 10.797 378.909 11.1604C378.909 11.45 378.859 11.6949 378.759 11.8951C378.664 12.0899 378.538 12.2505 378.38 12.3769C378.227 12.498 378.061 12.5955 377.882 12.6692L379.375 15.1733H378.38L377.124 12.8904H376.263V15.1733H375.386V9.5331H376.91ZM376.871 10.2599H376.263V12.1794H376.887C377.145 12.1794 377.355 12.1426 377.519 12.0688C377.687 11.9951 377.811 11.8845 377.89 11.7371C377.974 11.5896 378.016 11.4079 378.016 11.192C378.016 10.9655 377.974 10.7865 377.89 10.6548C377.811 10.5179 377.685 10.4178 377.511 10.3546C377.342 10.2915 377.129 10.2599 376.871 10.2599ZM381.647 10.8365C382.147 10.8365 382.524 10.955 382.777 11.192C383.035 11.4237 383.164 11.7897 383.164 12.29V15.1733H382.555L382.39 14.5809H382.358C382.237 14.7336 382.116 14.86 381.995 14.9601C381.879 15.0601 381.742 15.1339 381.584 15.1812C381.431 15.2286 381.241 15.2523 381.015 15.2523C380.778 15.2523 380.565 15.2076 380.375 15.1181C380.186 15.0233 380.036 14.8811 379.925 14.6915C379.814 14.4966 379.759 14.2544 379.759 13.9647C379.759 13.5329 379.912 13.2037 380.217 12.9773C380.528 12.7508 380.999 12.6271 381.631 12.606L382.311 12.5823V12.3453C382.311 12.0293 382.245 11.8082 382.113 11.6818C381.987 11.5554 381.808 11.4922 381.576 11.4922C381.381 11.4922 381.189 11.5238 380.999 11.587C380.81 11.6502 380.625 11.7265 380.446 11.8161L380.186 11.2078C380.38 11.1025 380.602 11.0156 380.849 10.9471C381.102 10.8734 381.368 10.8365 381.647 10.8365ZM381.797 13.1432C381.365 13.1642 381.065 13.2459 380.897 13.3881C380.728 13.525 380.644 13.7198 380.644 13.9726C380.644 14.1938 380.702 14.3544 380.818 14.4545C380.939 14.5546 381.094 14.6046 381.284 14.6046C381.573 14.6046 381.816 14.5124 382.01 14.3281C382.211 14.1438 382.311 13.8673 382.311 13.4987V13.1274L381.797 13.1432ZM385.849 14.573C385.96 14.573 386.067 14.5625 386.173 14.5414C386.278 14.5203 386.37 14.4966 386.449 14.4703V15.1023C386.36 15.1444 386.241 15.1786 386.094 15.2049C385.952 15.2365 385.802 15.2523 385.644 15.2523C385.422 15.2523 385.22 15.2128 385.035 15.1339C384.851 15.0549 384.704 14.9179 384.593 14.7231C384.482 14.5282 384.427 14.257 384.427 13.9094V11.5554H383.882V11.1762L384.467 10.8602L384.759 9.95967H385.288V10.9155H386.418V11.5554H385.288V13.8936C385.288 14.1253 385.341 14.2965 385.446 14.4071C385.551 14.5177 385.686 14.573 385.849 14.573ZM388.852 10.8365C389.205 10.8365 389.511 10.9155 389.769 11.0735C390.027 11.2262 390.224 11.4474 390.361 11.7371C390.503 12.0267 390.574 12.369 390.574 12.764V13.2222H387.896C387.907 13.6593 388.012 13.9937 388.212 14.2254C388.412 14.4571 388.694 14.573 389.058 14.573C389.316 14.573 389.545 14.5493 389.745 14.5019C389.95 14.4492 390.158 14.3729 390.369 14.2728V14.968C390.169 15.0628 389.963 15.1339 389.753 15.1812C389.547 15.2286 389.297 15.2523 389.002 15.2523C388.618 15.2523 388.276 15.1707 387.975 15.0075C387.675 14.8442 387.441 14.602 387.272 14.2807C387.104 13.9542 387.02 13.5539 387.02 13.08C387.02 12.6007 387.096 12.1952 387.249 11.8635C387.401 11.5317 387.615 11.2789 387.888 11.1051C388.168 10.926 388.489 10.8365 388.852 10.8365ZM388.852 11.4843C388.584 11.4843 388.368 11.5817 388.204 11.7766C388.041 11.9714 387.946 12.2479 387.92 12.606H389.729C389.729 12.3848 389.697 12.19 389.634 12.0214C389.571 11.8529 389.474 11.7213 389.342 11.6265C389.216 11.5317 389.052 11.4843 388.852 11.4843ZM397.037 13.0405C397.037 13.3933 396.992 13.7067 396.903 13.9805C396.813 14.2544 396.684 14.4861 396.516 14.6757C396.352 14.8653 396.152 15.0101 395.915 15.1102C395.678 15.2049 395.412 15.2523 395.117 15.2523C394.849 15.2523 394.599 15.2049 394.367 15.1102C394.135 15.0101 393.935 14.8653 393.767 14.6757C393.598 14.4861 393.466 14.2544 393.372 13.9805C393.282 13.7067 393.237 13.3907 393.237 13.0326C393.237 12.5639 393.314 12.1663 393.466 11.8398C393.619 11.5132 393.838 11.2657 394.122 11.0972C394.412 10.9234 394.754 10.8365 395.149 10.8365C395.518 10.8365 395.844 10.9234 396.129 11.0972C396.413 11.2657 396.634 11.5132 396.792 11.8398C396.955 12.1663 397.037 12.5665 397.037 13.0405ZM394.122 13.0405C394.122 13.3565 394.156 13.6303 394.225 13.862C394.298 14.0885 394.409 14.2623 394.557 14.3834C394.709 14.5045 394.901 14.5651 395.133 14.5651C395.37 14.5651 395.562 14.5045 395.71 14.3834C395.863 14.2623 395.973 14.0885 396.042 13.862C396.115 13.6303 396.152 13.3565 396.152 13.0405C396.152 12.714 396.115 12.4401 396.042 12.2189C395.968 11.9977 395.857 11.8292 395.71 11.7134C395.562 11.5922 395.368 11.5317 395.125 11.5317C394.772 11.5317 394.517 11.6633 394.359 11.9266C394.201 12.19 394.122 12.5612 394.122 13.0405ZM400.095 10.8365C400.559 10.8365 400.914 10.9603 401.162 11.2078C401.415 11.4553 401.541 11.8529 401.541 12.4006V15.1733H400.688V12.5191C400.688 12.1873 400.622 11.9398 400.49 11.7766C400.364 11.608 400.167 11.5238 399.898 11.5238C399.503 11.5238 399.232 11.6528 399.084 11.9109C398.937 12.1689 398.863 12.5402 398.863 13.0247V15.1733H398.01V10.9155H398.681L398.8 11.4843H398.847C398.937 11.3368 399.045 11.2157 399.171 11.1209C399.298 11.0261 399.44 10.955 399.598 10.9076C399.756 10.8602 399.922 10.8365 400.095 10.8365Z" fill="#F0F0F0"/>
<path d="M390.466 19.7156H393.039V35.6003H390.466V19.7156Z" fill="white"/>
<path d="M401.988 30.5664C401.988 33.0274 399.975 33.2511 399.304 33.2511C397.738 33.2511 397.514 31.7969 397.514 31.0138V24.8613H394.941V30.9019C394.941 32.3562 395.388 33.6985 396.283 34.4816C397.066 35.2646 398.073 35.6002 399.304 35.6002C400.199 35.6002 401.317 35.3765 401.988 34.7053V35.6002H404.561V24.8613H401.988V30.5664Z" fill="white"/>
<path d="M409.594 20.9459H407.021V24.8611H405.12V27.3221H407.021V35.6H409.594V27.3221H411.496V24.8611H409.594V20.9459Z" fill="white"/>
<path d="M419.551 32.356C418.992 32.8035 418.209 33.139 417.426 33.139C415.636 33.139 414.406 31.7967 414.406 30.0069C414.406 28.217 415.636 26.9865 417.426 26.9865C418.209 26.9865 418.992 27.2103 419.551 27.7696L419.887 28.1052L421.677 26.4272L421.229 26.0916C420.222 25.1967 418.88 24.6374 417.426 24.6374C414.294 24.6374 411.945 26.9865 411.945 30.1187C411.945 33.2509 414.294 35.6 417.426 35.6C418.88 35.6 420.222 35.0407 421.229 34.1458L421.677 33.8102L419.887 32.0204L419.551 32.356Z" fill="white"/>
<path d="M430.738 25.7563C429.955 24.9732 429.172 24.6376 427.941 24.6376C427.047 24.6376 426.152 24.8614 425.48 25.5325V19.7156H422.908V35.6003H425.48V29.6715C425.48 27.2105 427.158 26.9868 427.83 26.9868C429.396 26.9868 429.284 28.441 429.284 29.224V35.4884H431.857V29.3359C431.857 27.8817 431.521 26.5393 430.738 25.7563Z" fill="white"/>
<path d="M417.314 31.9086C418.302 31.9086 419.103 31.1072 419.103 30.1188C419.103 29.1303 418.302 28.3289 417.314 28.3289C416.325 28.3289 415.524 29.1303 415.524 30.1188C415.524 31.1072 416.325 31.9086 417.314 31.9086Z" fill="#EF4335"/>
<path d="M386.887 31.6849C385.992 32.5798 384.649 33.1392 383.195 33.1392C380.399 33.1392 378.385 30.9019 378.385 27.8816C378.385 24.8612 380.399 22.624 383.307 22.624C384.649 22.624 385.992 23.1833 386.999 24.1901L387.334 24.5257L389.012 22.8477L388.676 22.5121C387.222 21.0579 385.321 20.2748 383.307 20.2748C379.056 20.163 375.924 23.5189 375.924 27.8816C375.924 32.2442 379.056 35.6002 383.195 35.6002C385.209 35.6002 387.222 34.8171 388.565 33.3629L388.9 33.0273L387.222 31.3493L386.887 31.6849Z" fill="white"/>
<path d="M394.685 42.051L393.653 44.1517C393.601 44.2586 393.523 44.3511 393.427 44.4212C393.331 44.4913 393.219 44.5368 393.102 44.554L390.795 44.8909C390.687 44.9067 390.585 44.9525 390.501 45.0232C390.418 45.094 390.356 45.1868 390.322 45.2912C390.288 45.3956 390.284 45.5074 390.31 45.6139C390.337 45.7205 390.392 45.8175 390.47 45.8941L392.141 47.5294C392.225 47.6125 392.289 47.7151 392.325 47.8283C392.362 47.9415 392.371 48.0619 392.351 48.1792L391.957 50.4885C391.938 50.5966 391.95 50.7077 391.992 50.8092C392.033 50.9107 392.102 50.9987 392.19 51.063C392.278 51.1274 392.383 51.1657 392.492 51.1735C392.601 51.1813 392.71 51.1584 392.806 51.1073L394.87 50.0172C394.975 49.9618 395.092 49.9328 395.211 49.9328C395.329 49.9328 395.446 49.9618 395.551 50.0172L397.615 51.1073C397.712 51.1584 397.821 51.1813 397.93 51.1735C398.038 51.1657 398.143 51.1274 398.231 51.063C398.32 50.9987 398.388 50.9107 398.43 50.8092C398.471 50.7077 398.483 50.5966 398.465 50.4885L398.071 48.1792C398.051 48.0619 398.059 47.9415 398.096 47.8283C398.133 47.7151 398.196 47.6125 398.281 47.5294L399.951 45.8941C400.029 45.8175 400.085 45.7205 400.111 45.6139C400.137 45.5074 400.133 45.3956 400.1 45.2912C400.066 45.1868 400.004 45.094 399.92 45.0232C399.837 44.9525 399.735 44.9067 399.627 44.8909L397.319 44.554C397.201 44.5368 397.09 44.4913 396.994 44.4212C396.898 44.3511 396.82 44.2586 396.767 44.1517L395.735 42.051C395.687 41.9526 395.612 41.8697 395.519 41.8118C395.427 41.7539 395.319 41.7232 395.21 41.7232C395.101 41.7232 394.994 41.7539 394.901 41.8118C394.808 41.8697 394.734 41.9526 394.685 42.051V42.051Z" fill="#FFAF00"/>
<path d="M409.036 42.0513L408.003 44.152C407.951 44.2589 407.873 44.3514 407.777 44.4215C407.681 44.4915 407.57 44.5371 407.452 44.5543L405.144 44.8912C405.036 44.907 404.934 44.9528 404.851 45.0235C404.767 45.0942 404.705 45.1871 404.671 45.2915C404.637 45.3959 404.633 45.5077 404.66 45.6142C404.686 45.7208 404.741 45.8178 404.82 45.8944L406.49 47.5297C406.575 47.6128 406.638 47.7154 406.675 47.8286C406.711 47.9418 406.72 48.0622 406.7 48.1795L406.306 50.4888C406.288 50.5969 406.3 50.708 406.341 50.8095C406.382 50.911 406.451 50.9989 406.539 51.0633C406.628 51.1277 406.732 51.166 406.841 51.1738C406.95 51.1816 407.059 51.1587 407.156 51.1076L409.22 50.0175C409.325 49.9621 409.441 49.9331 409.56 49.9331C409.679 49.9331 409.796 49.9621 409.901 50.0175L411.965 51.1076C412.061 51.1587 412.17 51.1816 412.279 51.1738C412.388 51.166 412.492 51.1277 412.581 51.0633C412.669 50.9989 412.738 50.911 412.779 50.8095C412.82 50.708 412.833 50.5969 412.814 50.4888L412.42 48.1795C412.4 48.0622 412.409 47.9418 412.445 47.8286C412.482 47.7154 412.545 47.6128 412.63 47.5297L414.301 45.8944C414.379 45.8178 414.434 45.7208 414.461 45.6142C414.487 45.5077 414.483 45.3959 414.449 45.2915C414.415 45.1871 414.353 45.0942 414.269 45.0235C414.186 44.9528 414.084 44.907 413.976 44.8912L411.668 44.5543C411.551 44.5371 411.439 44.4915 411.343 44.4215C411.247 44.3514 411.169 44.2589 411.117 44.152L410.085 42.0513C410.036 41.9531 409.961 41.8705 409.869 41.8128C409.776 41.755 409.669 41.7244 409.56 41.7244C409.451 41.7244 409.344 41.755 409.251 41.8128C409.159 41.8705 409.084 41.9531 409.036 42.0513Z" fill="#FFAF00"/>
<path d="M423.384 42.0513L422.352 44.152C422.299 44.2589 422.222 44.3514 422.126 44.4215C422.03 44.4916 421.918 44.5371 421.801 44.5543L419.493 44.8912C419.385 44.907 419.283 44.9528 419.199 45.0235C419.116 45.0943 419.054 45.1871 419.02 45.2915C418.986 45.3959 418.982 45.5077 419.008 45.6142C419.035 45.7208 419.09 45.8178 419.168 45.8944L420.839 47.5297C420.924 47.6128 420.987 47.7154 421.024 47.8286C421.06 47.9418 421.069 48.0622 421.049 48.1795L420.655 50.4888C420.636 50.5969 420.649 50.708 420.69 50.8095C420.731 50.911 420.8 50.999 420.888 51.0633C420.977 51.1277 421.081 51.166 421.19 51.1738C421.299 51.1816 421.408 51.1587 421.504 51.1076L423.568 50.0175C423.673 49.9621 423.79 49.9331 423.909 49.9331C424.028 49.9331 424.144 49.9621 424.249 50.0175L426.313 51.1076C426.41 51.1587 426.519 51.1816 426.628 51.1738C426.737 51.166 426.841 51.1277 426.93 51.0633C427.018 50.999 427.087 50.911 427.128 50.8095C427.169 50.708 427.181 50.5969 427.163 50.4888L426.769 48.1795C426.749 48.0622 426.757 47.9418 426.794 47.8286C426.831 47.7154 426.894 47.6128 426.979 47.5297L428.649 45.8944C428.728 45.8178 428.783 45.7208 428.809 45.6142C428.836 45.5077 428.832 45.3959 428.798 45.2915C428.764 45.1871 428.702 45.0943 428.618 45.0235C428.535 44.9528 428.433 44.907 428.325 44.8912L426.017 44.5543C425.899 44.5371 425.788 44.4916 425.692 44.4215C425.596 44.3514 425.518 44.2589 425.466 44.152L424.434 42.0513C424.386 41.9529 424.311 41.87 424.218 41.8121C424.125 41.7542 424.018 41.7235 423.909 41.7235C423.8 41.7235 423.693 41.7542 423.6 41.8121C423.507 41.87 423.432 41.9529 423.384 42.0513V42.0513Z" fill="#FFAF00"/>
<path d="M438.787 42.0514L439.819 44.1521C439.871 44.259 439.949 44.3514 440.045 44.4215C440.141 44.4916 440.252 44.5372 440.37 44.5543L442.678 44.8913C442.786 44.907 442.888 44.9528 442.971 45.0236C443.055 45.0943 443.117 45.1871 443.151 45.2915C443.184 45.3959 443.188 45.5077 443.162 45.6143C443.136 45.7208 443.081 45.8179 443.002 45.8945L441.332 47.5298C441.247 47.6129 441.184 47.7154 441.147 47.8286C441.11 47.9418 441.102 48.0622 441.122 48.1796L441.516 50.4888C441.534 50.5969 441.522 50.708 441.481 50.8096C441.44 50.9111 441.371 50.999 441.282 51.0634C441.194 51.1278 441.09 51.166 440.981 51.1738C440.872 51.1817 440.763 51.1588 440.666 51.1077L438.602 50.0176C438.497 49.9621 438.38 49.9331 438.262 49.9331C438.143 49.9331 438.026 49.9621 437.921 50.0176L435.857 51.1077C435.761 51.1588 435.652 51.1817 435.543 51.1738C435.434 51.166 435.329 51.1278 435.241 51.0634C435.153 50.999 435.084 50.9111 435.043 50.8096C435.002 50.708 434.989 50.5969 435.008 50.4888L435.402 48.1796C435.422 48.0622 435.413 47.9418 435.377 47.8286C435.34 47.7154 435.276 47.6129 435.192 47.5298L433.521 45.8945C433.443 45.8179 433.388 45.7208 433.361 45.6143C433.335 45.5077 433.339 45.3959 433.373 45.2915C433.407 45.1871 433.469 45.0943 433.552 45.0236C433.636 44.9528 433.738 44.907 433.846 44.8913L436.154 44.5543C436.271 44.5372 436.383 44.4916 436.479 44.4215C436.575 44.3514 436.653 44.259 436.705 44.1521L437.735 42.0514C437.783 41.9524 437.857 41.869 437.95 41.8106C438.043 41.7522 438.151 41.7213 438.261 41.7213C438.37 41.7213 438.478 41.7522 438.571 41.8106C438.664 41.869 438.738 41.9524 438.787 42.0514V42.0514Z" fill="#FFAF00"/>
<path d="M440.666 51.1091L439.261 50.3665V43.0163L439.819 44.1519C439.871 44.2588 439.949 44.3513 440.045 44.4214C440.141 44.4915 440.252 44.537 440.37 44.5542L442.678 44.8912C442.786 44.9069 442.888 44.9527 442.971 45.0234C443.055 45.0942 443.117 45.187 443.151 45.2914C443.184 45.3958 443.188 45.5076 443.162 45.6142C443.136 45.7207 443.081 45.8178 443.002 45.8943L441.332 47.5297C441.247 47.6128 441.184 47.7153 441.147 47.8285C441.11 47.9417 441.102 48.0621 441.122 48.1795L441.516 50.4887C441.535 50.5969 441.523 50.7082 441.482 50.81C441.44 50.9118 441.372 51 441.283 51.0645C441.195 51.1291 441.09 51.1675 440.981 51.1754C440.872 51.1833 440.763 51.1603 440.666 51.1091V51.1091Z" fill="#FDE3AC"/>
<path d="M380.338 42.0519L379.306 44.1529C379.254 44.2598 379.176 44.3523 379.08 44.4224C378.984 44.4925 378.872 44.5381 378.755 44.5552L376.447 44.8922C376.339 44.9079 376.237 44.9537 376.153 45.0244C376.07 45.0952 376.008 45.188 375.974 45.2924C375.94 45.3968 375.936 45.5086 375.962 45.6152C375.989 45.7217 376.044 45.8188 376.122 45.8953L377.793 47.5307C377.877 47.6138 377.941 47.7163 377.978 47.8295C378.014 47.9427 378.023 48.0631 378.003 48.1805L377.609 50.4897C377.59 50.5978 377.603 50.7089 377.644 50.8104C377.685 50.912 377.754 50.9999 377.842 51.0643C377.93 51.1286 378.035 51.1669 378.144 51.1747C378.253 51.1826 378.362 51.1596 378.458 51.1086L380.522 50.0185C380.627 49.963 380.744 49.934 380.863 49.934C380.981 49.934 381.098 49.963 381.203 50.0185L383.267 51.1086C383.364 51.1596 383.473 51.1826 383.582 51.1747C383.691 51.1669 383.795 51.1286 383.883 51.0643C383.972 50.9999 384.041 50.912 384.082 50.8104C384.123 50.7089 384.135 50.5978 384.117 50.4897L383.723 48.1805C383.703 48.0631 383.711 47.9427 383.748 47.8295C383.785 47.7163 383.848 47.6138 383.933 47.5307L385.603 45.8953C385.682 45.8188 385.737 45.7217 385.763 45.6152C385.789 45.5086 385.785 45.3968 385.752 45.2924C385.718 45.188 385.656 45.0952 385.572 45.0244C385.489 44.9537 385.387 44.9079 385.279 44.8922L382.972 44.5549C382.854 44.5377 382.743 44.4922 382.647 44.4221C382.551 44.352 382.473 44.2595 382.421 44.1526L381.388 42.0519C381.34 41.9534 381.265 41.8705 381.173 41.8125C381.08 41.7545 380.973 41.7238 380.863 41.7238C380.754 41.7238 380.647 41.7545 380.554 41.8125C380.461 41.8705 380.387 41.9534 380.338 42.0519V42.0519Z" fill="#E2E2E2"/>
<path d="M381.367 42.0512L382.4 44.1519C382.452 44.2588 382.53 44.3513 382.626 44.4213C382.722 44.4914 382.833 44.537 382.951 44.5541L385.259 44.8911C385.367 44.9068 385.469 44.9527 385.552 45.0234C385.636 45.0941 385.698 45.1869 385.732 45.2913C385.766 45.3957 385.77 45.5076 385.743 45.6141C385.717 45.7207 385.662 45.8177 385.583 45.8943L383.913 47.5296C383.828 47.6127 383.765 47.7153 383.728 47.8285C383.692 47.9416 383.683 48.0621 383.703 48.1794L384.097 50.4887C384.115 50.5968 384.103 50.7079 384.062 50.8094C384.021 50.9109 383.952 50.9988 383.864 51.0632C383.775 51.1276 383.671 51.1658 383.562 51.1737C383.453 51.1815 383.344 51.1586 383.247 51.1075L381.183 50.0174C381.078 49.9619 380.962 49.933 380.843 49.933C380.724 49.933 380.607 49.9619 380.502 50.0174L378.438 51.1075C378.342 51.1586 378.233 51.1815 378.124 51.1737C378.015 51.1658 377.911 51.1276 377.822 51.0632C377.734 50.9988 377.665 50.9109 377.624 50.8094C377.583 50.7079 377.571 50.5968 377.589 50.4887L377.983 48.1794C378.003 48.0621 377.994 47.9416 377.958 47.8284C377.921 47.7153 377.858 47.6127 377.773 47.5296L376.103 45.8943C376.024 45.8177 375.969 45.7207 375.943 45.6141C375.916 45.5076 375.92 45.3957 375.954 45.2913C375.988 45.1869 376.05 45.0941 376.134 45.0234C376.217 44.9527 376.319 44.9068 376.427 44.8911L378.735 44.5541C378.853 44.537 378.964 44.4914 379.06 44.4213C379.156 44.3513 379.234 44.2588 379.286 44.1519L380.318 42.0512C380.367 41.953 380.442 41.8704 380.534 41.8126C380.627 41.7549 380.734 41.7243 380.843 41.7243C380.952 41.7243 381.059 41.7549 381.152 41.8126C381.244 41.8704 381.319 41.953 381.367 42.0512V42.0512Z" fill="#FFAF00"/>
<g opacity="0.6">
<rect x="240.905" y="0.612036" width="107.337" height="60.7811" rx="2.97439" fill="#1D1C39" stroke="#403F6F" stroke-width="0.775928"/>
</g>
<path d="M241.292 20.5277H240.904V20.1397V3.58654C240.904 1.94383 242.236 0.612152 243.879 0.612152H345.267C346.909 0.612152 348.241 1.94383 348.241 3.58654V20.1397V20.5277H347.853H241.292Z" fill="#4285F4" stroke="#403F6F" stroke-width="0.775928"/>
<path d="M281.038 8.19421C281.805 8.19421 282.362 8.35422 282.71 8.67425C283.063 8.99428 283.239 9.4357 283.239 9.9985C283.239 10.2523 283.201 10.4951 283.124 10.7268C283.046 10.9531 282.917 11.1572 282.735 11.3393C282.553 11.5214 282.312 11.6649 282.015 11.7697C281.722 11.8745 281.358 11.9269 280.922 11.9269H280.334V14.1037H279.275V8.19421H281.038ZM280.972 9.07153H280.334V11.0496H280.814C281.101 11.0496 281.344 11.0165 281.543 10.9503C281.747 10.8786 281.901 10.7682 282.006 10.6192C282.111 10.4703 282.164 10.2771 282.164 10.0399C282.164 9.71434 282.067 9.47156 281.874 9.31155C281.681 9.15153 281.38 9.07153 280.972 9.07153ZM286.088 9.53501C286.667 9.53501 287.106 9.66192 287.404 9.91574C287.707 10.164 287.859 10.5558 287.859 11.091V14.1037H287.122L286.915 13.4829H286.882C286.755 13.643 286.623 13.7781 286.485 13.8885C286.353 13.9933 286.198 14.0678 286.022 14.112C285.851 14.1616 285.641 14.1864 285.393 14.1864C285.128 14.1864 284.888 14.1368 284.672 14.0375C284.463 13.9382 284.297 13.7864 284.176 13.5823C284.054 13.3726 283.994 13.1105 283.994 12.796C283.994 12.3325 284.162 11.9849 284.499 11.7531C284.841 11.5159 285.357 11.3862 286.046 11.3641L286.824 11.3393V11.1158C286.824 10.8289 286.755 10.6248 286.617 10.5034C286.48 10.382 286.286 10.3213 286.038 10.3213C285.812 10.3213 285.594 10.3544 285.384 10.4206C285.175 10.4868 284.97 10.5641 284.772 10.6524L284.441 9.92401C284.661 9.80814 284.913 9.71434 285.194 9.64261C285.481 9.57088 285.779 9.53501 286.088 9.53501ZM286.278 12.0014C285.82 12.018 285.503 12.098 285.326 12.2415C285.15 12.3794 285.061 12.567 285.061 12.8043C285.061 13.0139 285.125 13.1657 285.252 13.2595C285.379 13.3533 285.542 13.4002 285.74 13.4002C286.044 13.4002 286.3 13.3146 286.51 13.1436C286.72 12.967 286.824 12.7077 286.824 12.3656V11.9849L286.278 12.0014ZM291.516 9.53501C291.583 9.53501 291.66 9.53777 291.748 9.54329C291.836 9.54881 291.911 9.55984 291.972 9.5764L291.88 10.5448C291.831 10.5337 291.765 10.5254 291.682 10.5199C291.605 10.5089 291.536 10.5034 291.475 10.5034C291.309 10.5034 291.149 10.531 290.995 10.5861C290.846 10.6358 290.711 10.713 290.589 10.8179C290.473 10.9172 290.38 11.0469 290.308 11.2069C290.242 11.3669 290.209 11.5573 290.209 11.778V14.1037H289.166V9.61778H289.969L290.118 10.3958H290.167C290.256 10.2358 290.366 10.0923 290.498 9.9654C290.631 9.83297 290.782 9.72813 290.953 9.65089C291.13 9.57364 291.318 9.53501 291.516 9.53501ZM294.541 13.3505C294.673 13.3505 294.8 13.3395 294.922 13.3174C295.043 13.2898 295.156 13.2595 295.261 13.2264V14.0044C295.151 14.054 295.007 14.0954 294.831 14.1285C294.654 14.1671 294.469 14.1864 294.276 14.1864C294.022 14.1864 293.791 14.1451 293.581 14.0623C293.377 13.974 293.211 13.825 293.084 13.6154C292.963 13.4057 292.902 13.1133 292.902 12.738V10.4041H292.298V9.94884L292.96 9.58467L293.291 8.63287H293.945V9.61778H295.22V10.4041H293.945V12.7298C293.945 12.9394 294 13.0967 294.111 13.2015C294.221 13.3009 294.364 13.3505 294.541 13.3505ZM298.565 9.53501C299.068 9.53501 299.459 9.66468 299.741 9.92401C300.028 10.1833 300.171 10.6027 300.171 11.1821V14.1037H299.128V11.389C299.128 11.0524 299.062 10.8013 298.93 10.6358C298.797 10.4647 298.588 10.3792 298.301 10.3792C297.881 10.3792 297.594 10.5116 297.44 10.7765C297.285 11.0358 297.208 11.4138 297.208 11.9104V14.1037H296.165V9.61778H296.968L297.117 10.2054H297.175C297.274 10.0509 297.396 9.92401 297.539 9.82469C297.683 9.72538 297.843 9.65365 298.019 9.6095C298.196 9.55984 298.378 9.53501 298.565 9.53501ZM303.28 9.53501C303.683 9.53501 304.027 9.61778 304.314 9.78331C304.607 9.94333 304.833 10.1751 304.993 10.4785C305.153 10.7765 305.233 11.1407 305.233 11.5711V12.1008H302.27C302.281 12.5091 302.394 12.8263 302.609 13.0526C302.825 13.2733 303.123 13.3836 303.503 13.3836C303.796 13.3836 304.055 13.356 304.281 13.3009C304.513 13.2402 304.75 13.1546 304.993 13.0443V13.8802C304.772 13.9851 304.543 14.0623 304.306 14.112C304.069 14.1616 303.785 14.1864 303.454 14.1864C303.018 14.1864 302.629 14.1037 302.287 13.9382C301.95 13.7671 301.685 13.5105 301.492 13.1684C301.304 12.8263 301.211 12.4015 301.211 11.8938C301.211 11.3807 301.296 10.9503 301.467 10.6027C301.644 10.2496 301.887 9.98471 302.196 9.80814C302.505 9.62606 302.866 9.53501 303.28 9.53501ZM303.28 10.3047C303.004 10.3047 302.778 10.3958 302.601 10.5779C302.43 10.7544 302.328 11.0193 302.295 11.3724H304.223C304.223 11.1627 304.187 10.9779 304.116 10.8179C304.05 10.6579 303.947 10.5337 303.81 10.4454C303.672 10.3516 303.495 10.3047 303.28 10.3047ZM308.635 9.53501C308.701 9.53501 308.779 9.53777 308.867 9.54329C308.955 9.54881 309.03 9.55984 309.09 9.5764L308.999 10.5448C308.95 10.5337 308.884 10.5254 308.801 10.5199C308.724 10.5089 308.655 10.5034 308.594 10.5034C308.428 10.5034 308.268 10.531 308.114 10.5861C307.965 10.6358 307.83 10.713 307.708 10.8179C307.592 10.9172 307.499 11.0469 307.427 11.2069C307.361 11.3669 307.328 11.5573 307.328 11.778V14.1037H306.285V9.61778H307.088L307.236 10.3958H307.286C307.374 10.2358 307.485 10.0923 307.617 9.9654C307.75 9.83297 307.901 9.72813 308.072 9.65089C308.249 9.57364 308.437 9.53501 308.635 9.53501Z" fill="white"/>
<g clip-path="url(#clip0_1_98)">
<path d="M306.112 41.4373C305.475 41.4521 304.841 41.337 304.25 41.0989C303.659 40.8609 303.123 40.505 302.674 40.0529C302.225 39.6008 301.873 39.0621 301.64 38.4695C301.407 37.877 301.296 37.2432 301.316 36.6068C301.3 35.9744 301.412 35.3453 301.647 34.7577C301.881 34.1701 302.232 33.6362 302.679 33.1884C303.125 32.733 303.66 32.3745 304.25 32.1354C304.841 31.8962 305.475 31.7816 306.112 31.7986C306.75 31.7829 307.383 31.9101 307.965 32.171C308.548 32.4318 309.064 32.8197 309.477 33.306L308.652 34.1298C308.35 33.7478 307.963 33.4409 307.523 33.2328C307.082 33.0248 306.599 32.9214 306.112 32.9306C305.637 32.919 305.164 33.0045 304.724 33.1818C304.283 33.3591 303.883 33.6245 303.549 33.9617C303.207 34.3098 302.94 34.724 302.765 35.1788C302.589 35.6337 302.509 36.1196 302.528 36.6068C302.507 37.0957 302.587 37.5838 302.762 38.0407C302.938 38.4976 303.206 38.9136 303.549 39.263C303.882 39.6013 304.282 39.8674 304.723 40.0448C305.164 40.2222 305.637 40.3071 306.112 40.2941C306.651 40.2915 307.182 40.1684 307.668 39.9337C308.153 39.699 308.579 39.3588 308.916 38.938L309.78 39.7786C309.342 40.3008 308.792 40.7167 308.17 40.9946C307.524 41.2906 306.822 41.4417 306.112 41.4373V41.4373ZM311.928 32.0059V41.2356H310.739V32.0059H311.928ZM312.948 38.075C312.935 37.6326 313.01 37.192 313.168 36.7785C313.326 36.365 313.564 35.9867 313.868 35.6653C314.169 35.3533 314.533 35.1074 314.934 34.9434C315.336 34.7794 315.767 34.7008 316.201 34.7126C316.633 34.7003 317.063 34.7787 317.463 34.9428C317.863 35.1069 318.224 35.353 318.523 35.6653C318.831 35.9848 319.071 36.3626 319.23 36.7765C319.389 37.1904 319.463 37.6319 319.449 38.075C319.465 38.5182 319.391 38.9602 319.232 39.3743C319.073 39.7884 318.832 40.1661 318.523 40.4847C318.225 40.7981 317.864 41.045 317.464 41.2091C317.064 41.3733 316.634 41.4511 316.201 41.4373C315.767 41.4506 315.335 41.3726 314.933 41.2085C314.532 41.0444 314.169 40.7978 313.868 40.4847C313.564 40.1633 313.326 39.785 313.168 39.3714C313.01 38.9579 312.935 38.5174 312.948 38.075V38.075ZM314.137 38.075C314.11 38.6811 314.324 39.2733 314.732 39.7225C314.921 39.9227 315.148 40.0822 315.401 40.1912C315.654 40.3002 315.926 40.3564 316.201 40.3564C316.476 40.3564 316.749 40.3002 317.002 40.1912C317.254 40.0822 317.482 39.9227 317.671 39.7225C318.079 39.2733 318.292 38.6811 318.265 38.075C318.291 37.4724 318.078 36.8841 317.671 36.4386C317.484 36.2355 317.257 36.0734 317.004 35.9625C316.751 35.8516 316.477 35.7943 316.201 35.7943C315.925 35.7943 315.652 35.8516 315.399 35.9625C315.146 36.0734 314.919 36.2355 314.732 36.4386C314.325 36.8841 314.111 37.4724 314.137 38.075V38.075ZM326.01 41.2356H324.889V40.3558H324.833C324.632 40.6847 324.345 40.9522 324.003 41.1291C323.647 41.3306 323.245 41.4368 322.836 41.4373C322.508 41.4586 322.179 41.4107 321.871 41.2968C321.563 41.1828 321.282 41.0054 321.047 40.7761C320.603 40.2508 320.379 39.5738 320.424 38.8876V34.9256H321.608V38.8147C321.583 39.0252 321.607 39.2387 321.677 39.4387C321.747 39.6388 321.862 39.8203 322.013 39.9694C322.163 40.1184 322.346 40.2312 322.547 40.2992C322.748 40.3671 322.962 40.3884 323.173 40.3614C323.4 40.3653 323.625 40.3168 323.83 40.2196C324.035 40.1224 324.215 39.9791 324.356 39.801C324.676 39.416 324.845 38.9282 324.833 38.428V34.9256H326.022L326.01 41.2356ZM330.026 41.4373C329.622 41.4373 329.224 41.3501 328.857 41.1818C328.49 41.0135 328.164 40.7681 327.9 40.4623C327.311 39.8077 326.991 38.9552 327.003 38.075C326.984 37.1993 327.296 36.3486 327.878 35.6933C328.139 35.3847 328.465 35.137 328.832 34.9676C329.199 34.7982 329.599 34.7111 330.004 34.7126C330.446 34.7051 330.883 34.8072 331.277 35.0096C331.637 35.1871 331.943 35.4581 332.163 35.7942H332.213L332.185 34.9256V32.0059H333.369V41.2356H332.247V40.3558H332.197C331.977 40.6919 331.671 40.9628 331.31 41.1403C330.914 41.3446 330.472 41.4467 330.026 41.4373V41.4373ZM330.222 40.3558C330.493 40.3645 330.762 40.3121 331.01 40.2025C331.257 40.0928 331.477 39.9288 331.653 39.7225C332.045 39.266 332.246 38.6758 332.213 38.075C332.24 37.4783 332.04 36.8935 331.653 36.4386C331.478 36.231 331.258 36.0652 331.011 35.9537C330.763 35.8421 330.494 35.7876 330.222 35.7942C329.951 35.79 329.683 35.8456 329.435 35.957C329.188 36.0684 328.969 36.2328 328.792 36.4386C328.405 36.8935 328.204 37.4783 328.231 38.075C328.2 38.6723 328.401 39.2585 328.792 39.7113C328.969 39.9172 329.188 40.0816 329.435 40.193C329.683 40.3044 329.951 40.36 330.222 40.3558V40.3558Z" fill="white"/>
<path d="M261.097 41.4375C259.702 41.4421 258.361 40.8971 257.364 39.9206C256.368 38.944 255.797 37.6146 255.775 36.2203C255.797 34.826 256.368 33.4965 257.364 32.52C258.361 31.5434 259.702 30.9984 261.097 31.003C261.762 30.9919 262.423 31.1136 263.04 31.3609C263.657 31.6082 264.219 31.9762 264.692 32.4432L263.677 33.4463C262.985 32.7804 262.058 32.4139 261.097 32.4264C260.6 32.4249 260.107 32.5222 259.648 32.7128C259.188 32.9033 258.771 33.1832 258.421 33.5363C258.071 33.8893 257.794 34.3084 257.608 34.7692C257.421 35.23 257.328 35.7232 257.334 36.2203C257.328 36.7173 257.421 37.2106 257.608 37.6713C257.794 38.1321 258.071 38.5512 258.421 38.9043C258.771 39.2573 259.188 39.5372 259.648 39.7278C260.107 39.9183 260.6 40.0157 261.097 40.0141C261.587 40.0342 262.076 39.9513 262.532 39.7708C262.988 39.5903 263.401 39.3162 263.745 38.9662C264.202 38.473 264.477 37.8383 264.524 37.1673H261.097V35.7495H265.921C265.973 36.0436 265.998 36.3419 265.994 36.6406C266.031 37.8704 265.584 39.0658 264.748 39.9693C264.278 40.4576 263.709 40.8409 263.08 41.0939C262.451 41.347 261.775 41.4641 261.097 41.4375Z" fill="#4285F4"/>
<path d="M273.452 38.075C273.47 38.5232 273.398 38.9706 273.239 39.3901C273.08 39.8097 272.838 40.1928 272.527 40.5165C272.216 40.8402 271.843 41.0977 271.43 41.2736C271.017 41.4496 270.572 41.5403 270.123 41.5403C269.674 41.5403 269.23 41.4496 268.817 41.2736C268.404 41.0977 268.031 40.8402 267.72 40.5165C267.409 40.1928 267.167 39.8097 267.008 39.3901C266.849 38.9706 266.776 38.5232 266.795 38.075C266.776 37.6267 266.849 37.1794 267.008 36.7598C267.167 36.3402 267.409 35.9571 267.72 35.6334C268.031 35.3098 268.404 35.0522 268.817 34.8763C269.23 34.7004 269.674 34.6097 270.123 34.6097C270.572 34.6097 271.017 34.7004 271.43 34.8763C271.843 35.0522 272.216 35.3098 272.527 35.6334C272.838 35.9571 273.08 36.3402 273.239 36.7598C273.398 37.1794 273.47 37.6267 273.452 38.075V38.075ZM271.994 38.075C272.018 37.8146 271.989 37.552 271.906 37.3039C271.823 37.0559 271.689 36.8278 271.513 36.6344C271.337 36.4409 271.123 36.2863 270.883 36.1806C270.644 36.0748 270.385 36.0202 270.123 36.0202C269.862 36.0202 269.603 36.0748 269.363 36.1806C269.124 36.2863 268.91 36.4409 268.733 36.6344C268.557 36.8278 268.424 37.0559 268.341 37.3039C268.258 37.552 268.228 37.8146 268.253 38.075C268.228 38.3353 268.258 38.5979 268.341 38.846C268.424 39.0941 268.557 39.3221 268.733 39.5156C268.91 39.709 269.124 39.8636 269.363 39.9694C269.603 40.0751 269.862 40.1297 270.123 40.1297C270.385 40.1297 270.644 40.0751 270.883 39.9694C271.123 39.8636 271.337 39.709 271.513 39.5156C271.689 39.3221 271.823 39.0941 271.906 38.846C271.989 38.5979 272.018 38.3353 271.994 38.075V38.075Z" fill="#EA4335"/>
<path d="M280.918 38.075C280.936 38.5232 280.864 38.9706 280.705 39.3901C280.546 39.8097 280.303 40.1928 279.992 40.5165C279.682 40.8402 279.308 41.0977 278.895 41.2736C278.482 41.4496 278.038 41.5403 277.589 41.5403C277.14 41.5403 276.696 41.4496 276.283 41.2736C275.87 41.0977 275.496 40.8402 275.185 40.5165C274.875 40.1928 274.632 39.8097 274.473 39.3901C274.314 38.9706 274.242 38.5232 274.26 38.075C274.242 37.6267 274.314 37.1794 274.473 36.7598C274.632 36.3402 274.875 35.9571 275.185 35.6334C275.496 35.3098 275.87 35.0522 276.283 34.8763C276.696 34.7004 277.14 34.6097 277.589 34.6097C278.038 34.6097 278.482 34.7004 278.895 34.8763C279.308 35.0522 279.682 35.3098 279.992 35.6334C280.303 35.9571 280.546 36.3402 280.705 36.7598C280.864 37.1794 280.936 37.6267 280.918 38.075V38.075ZM279.459 38.075C279.479 37.817 279.446 37.5577 279.361 37.3133C279.276 37.0689 279.141 36.8447 278.965 36.6548C278.789 36.4649 278.576 36.3134 278.339 36.2098C278.101 36.1062 277.845 36.0527 277.586 36.0527C277.327 36.0527 277.071 36.1062 276.834 36.2098C276.596 36.3134 276.383 36.4649 276.207 36.6548C276.031 36.8447 275.897 37.0689 275.812 37.3133C275.727 37.5577 275.693 37.817 275.713 38.075C275.693 38.3329 275.727 38.5923 275.812 38.8367C275.897 39.081 276.031 39.3052 276.207 39.4951C276.383 39.685 276.596 39.8365 276.834 39.9401C277.071 40.0437 277.327 40.0972 277.586 40.0972C277.845 40.0972 278.101 40.0437 278.339 39.9401C278.576 39.8365 278.789 39.685 278.965 39.4951C279.141 39.3052 279.276 39.081 279.361 38.8367C279.446 38.5923 279.479 38.3329 279.459 38.075V38.075Z" fill="#FBBC04"/>
<path d="M288.192 34.9256V40.9554C288.192 43.4324 286.717 44.4523 284.979 44.4523C284.339 44.4558 283.712 44.269 283.179 43.9158C282.646 43.5625 282.23 43.0587 281.984 42.4685L283.279 41.9081C283.41 42.2517 283.639 42.5489 283.939 42.7624C284.238 42.9758 284.594 43.0958 284.962 43.1073C286.084 43.1073 286.768 42.418 286.768 41.1347V40.6528H286.734C286.51 40.9058 286.233 41.1069 285.923 41.2424C285.613 41.3779 285.278 41.4444 284.939 41.4374C284.047 41.4374 283.191 41.0831 282.56 40.4525C281.929 39.822 281.574 38.9668 281.574 38.075C281.574 37.1833 281.929 36.328 282.56 35.6975C283.191 35.0669 284.047 34.7126 284.939 34.7126C285.276 34.7064 285.611 34.7722 285.92 34.9056C286.23 35.0389 286.507 35.2368 286.734 35.486H286.785V34.9256H288.192ZM286.886 38.0974C286.906 37.8433 286.875 37.5877 286.795 37.3458C286.715 37.1039 286.587 36.8806 286.418 36.6892C286.249 36.4978 286.044 36.3423 285.814 36.2318C285.584 36.1214 285.334 36.0583 285.08 36.0464C284.821 36.0557 284.566 36.1164 284.331 36.2249C284.096 36.3335 283.885 36.4877 283.71 36.6786C283.535 36.8695 283.4 37.0932 283.313 37.3368C283.225 37.5804 283.187 37.839 283.201 38.0974C283.189 38.3541 283.228 38.6106 283.316 38.8519C283.405 39.0933 283.54 39.3146 283.715 39.5029C283.89 39.6913 284.101 39.8429 284.335 39.9489C284.57 40.055 284.823 40.1133 285.08 40.1204C285.333 40.1114 285.583 40.0511 285.813 39.9431C286.042 39.8351 286.248 39.6816 286.417 39.492C286.586 39.3024 286.714 39.0806 286.795 38.8399C286.875 38.5992 286.906 38.3447 286.886 38.0918V38.0974Z" fill="#4285F4"/>
<path d="M290.789 31.3615V41.2356H289.308V31.3615H290.789Z" fill="#34A853"/>
<path d="M296.622 39.1844L297.777 39.969C297.469 40.4289 297.052 40.8056 296.562 41.0657C296.073 41.3257 295.527 41.461 294.973 41.4596C294.532 41.4659 294.095 41.3828 293.687 41.2152C293.279 41.0477 292.91 40.7992 292.601 40.4849C292.292 40.1706 292.051 39.7969 291.89 39.3865C291.73 38.9761 291.655 38.5375 291.67 38.0972C291.604 37.3404 291.819 36.5859 292.275 35.9775C292.73 35.3691 293.394 34.9495 294.139 34.7985C294.884 34.6475 295.659 34.7758 296.315 35.1588C296.972 35.5419 297.464 36.153 297.699 36.8756L297.85 37.2623L293.364 39.1172C293.503 39.4312 293.734 39.6961 294.026 39.8779C294.318 40.0597 294.657 40.1499 295.001 40.1371C295.33 40.1296 295.652 40.0382 295.936 39.8714C296.219 39.7047 296.456 39.4682 296.622 39.1844V39.1844ZM293.083 37.974L296.1 36.7299C295.98 36.5067 295.797 36.3233 295.574 36.202C295.351 36.0806 295.097 36.0265 294.844 36.0462C294.602 36.057 294.364 36.1154 294.144 36.2182C293.924 36.321 293.727 36.4661 293.563 36.6451C293.4 36.8242 293.273 37.0337 293.191 37.2617C293.108 37.4898 293.072 37.7318 293.083 37.974V37.974Z" fill="#EA4335"/>
</g>
<rect opacity="0.6" x="0.633218" y="0.633218" width="108.329" height="60.7387" rx="3.4705" fill="#1D1C39" stroke="#403F6F" stroke-width="0.733564"/>
<path d="M39.4505 33L36.7426 24.9178H36.6873C36.6966 25.1021 36.7104 25.3646 36.7288 25.7053C36.7472 26.0369 36.761 26.4007 36.7702 26.7968C36.7887 27.1836 36.7979 27.5474 36.7979 27.8882V33H35.2091V23.1356H37.6683L40.2656 30.8862H40.3209L43.0287 23.1356H45.4879V33H43.8024V27.8053C43.8024 27.4922 43.807 27.1514 43.8162 26.783C43.8346 26.4053 43.8485 26.0507 43.8577 25.7192C43.8761 25.3784 43.8899 25.1159 43.8991 24.9317H43.8439L41.0255 33H39.4505ZM49.6148 25.5119V33H47.874V25.5119H49.6148ZM48.7444 22.6244C49.0023 22.6244 49.228 22.6935 49.4214 22.8317C49.6148 22.9606 49.7115 23.1955 49.7115 23.5363C49.7115 23.8679 49.6148 24.1073 49.4214 24.2547C49.228 24.3929 49.0023 24.4619 48.7444 24.4619C48.4773 24.4619 48.247 24.3929 48.0536 24.2547C47.8694 24.1073 47.7773 23.8679 47.7773 23.5363C47.7773 23.1955 47.8694 22.9606 48.0536 22.8317C48.247 22.6935 48.4773 22.6244 48.7444 22.6244ZM54.8663 33.1382C54.1571 33.1382 53.54 33.0046 53.015 32.7375C52.4992 32.4612 52.0985 32.0421 51.813 31.4803C51.5367 30.9092 51.3985 30.1816 51.3985 29.2974C51.3985 28.3764 51.5505 27.6303 51.8544 27.0593C52.1676 26.479 52.5959 26.0553 53.1393 25.7882C53.6827 25.5119 54.3044 25.3738 55.0044 25.3738C55.4741 25.3738 55.8932 25.4198 56.2616 25.5119C56.6301 25.604 56.9432 25.7145 57.2011 25.8435L56.6899 27.2112C56.4044 27.1007 56.1189 27.0086 55.8333 26.9349C55.5478 26.852 55.2715 26.8106 55.0044 26.8106C54.5899 26.8106 54.2445 26.9027 53.9682 27.0869C53.7011 27.2711 53.5031 27.5474 53.3742 27.9158C53.2452 28.275 53.1807 28.731 53.1807 29.2836C53.1807 29.8178 53.2452 30.2645 53.3742 30.6237C53.5123 30.9829 53.7149 31.2546 53.9821 31.4388C54.2492 31.6138 54.5807 31.7013 54.9768 31.7013C55.4005 31.7013 55.7735 31.6507 56.0958 31.5494C56.4182 31.448 56.7222 31.3099 57.0077 31.1349V32.6408C56.7222 32.8158 56.4136 32.9401 56.082 33.0138C55.7597 33.0967 55.3544 33.1382 54.8663 33.1382ZM62.6856 25.3738C62.7961 25.3738 62.9251 25.3784 63.0724 25.3876C63.2198 25.3968 63.3441 25.4152 63.4454 25.4428L63.2935 27.0593C63.2106 27.0409 63.1001 27.027 62.9619 27.0178C62.833 26.9994 62.7178 26.9902 62.6165 26.9902C62.3402 26.9902 62.0731 27.0362 61.8152 27.1284C61.5665 27.2112 61.3409 27.3402 61.1382 27.5152C60.9448 27.681 60.7882 27.8974 60.6685 28.1645C60.558 28.4316 60.5027 28.7494 60.5027 29.1178V33H58.7619V25.5119H60.1021L60.3507 26.8106H60.4336C60.581 26.5435 60.7652 26.304 60.9863 26.0922C61.2073 25.8711 61.4606 25.6961 61.7461 25.5672C62.0409 25.4382 62.354 25.3738 62.6856 25.3738ZM71.2502 29.2421C71.2502 29.8685 71.1673 30.4211 71.0015 30.9C70.8357 31.379 70.5963 31.7888 70.2831 32.1296C69.9792 32.4612 69.6015 32.7145 69.1502 32.8895C68.7081 33.0553 68.2154 33.1382 67.672 33.1382C67.1562 33.1382 66.6818 33.0553 66.2489 32.8895C65.8161 32.7145 65.4384 32.4612 65.1161 32.1296C64.8029 31.7888 64.5588 31.379 64.3838 30.9C64.2088 30.4211 64.1213 29.8685 64.1213 29.2421C64.1213 28.4132 64.2641 27.7132 64.5496 27.1422C64.8351 26.5619 65.245 26.1244 65.7792 25.8297C66.3226 25.5257 66.9628 25.3738 67.6996 25.3738C68.3996 25.3738 69.0121 25.5257 69.5371 25.8297C70.0713 26.1244 70.4903 26.5619 70.7943 27.1422C71.0982 27.7132 71.2502 28.4132 71.2502 29.2421ZM65.9036 29.2421C65.9036 29.7671 65.9634 30.2185 66.0832 30.5961C66.2121 30.9645 66.4055 31.2454 66.6634 31.4388C66.9305 31.6323 67.2713 31.729 67.6858 31.729C68.1094 31.729 68.4502 31.6323 68.7081 31.4388C68.9752 31.2454 69.1686 30.9645 69.2884 30.5961C69.4081 30.2185 69.468 29.7671 69.468 29.2421C69.468 28.7079 69.4035 28.2612 69.2746 27.902C69.1548 27.5336 68.9614 27.2573 68.6943 27.0731C68.4364 26.8797 68.1002 26.783 67.6858 26.783C67.0595 26.783 66.6035 26.9948 66.318 27.4185C66.0417 27.8422 65.9036 28.45 65.9036 29.2421ZM78.1478 30.8309C78.1478 31.3283 78.028 31.752 77.7886 32.102C77.5491 32.4428 77.1945 32.7007 76.7248 32.8757C76.2642 33.0507 75.6978 33.1382 75.0254 33.1382C74.5004 33.1382 74.0491 33.1013 73.6715 33.0276C73.2939 32.9539 72.9347 32.8388 72.5939 32.6822V31.204C72.9623 31.379 73.3722 31.5263 73.8235 31.6461C74.2748 31.7658 74.6939 31.8257 75.0807 31.8257C75.5596 31.8257 75.905 31.752 76.1169 31.6046C76.3287 31.4573 76.4346 31.2592 76.4346 31.0105C76.4346 30.8632 76.3932 30.7296 76.3103 30.6099C76.2274 30.4902 76.0662 30.3658 75.8267 30.2369C75.5873 30.0987 75.2235 29.9283 74.7353 29.7257C74.2564 29.5323 73.8557 29.3389 73.5333 29.1454C73.2202 28.952 72.9807 28.7218 72.8149 28.4547C72.6584 28.1783 72.5801 27.8329 72.5801 27.4185C72.5801 26.7461 72.8472 26.2395 73.3814 25.8988C73.9156 25.5488 74.6202 25.3738 75.4952 25.3738C75.9557 25.3738 76.3886 25.4198 76.7938 25.5119C77.2083 25.5948 77.6228 25.733 78.0372 25.9264L77.4846 27.2112C77.2544 27.1099 77.0241 27.0224 76.7938 26.9487C76.5728 26.8659 76.3471 26.8014 76.1169 26.7553C75.8958 26.7093 75.6702 26.6862 75.4399 26.6862C75.0623 26.6862 74.7768 26.7461 74.5833 26.8659C74.3899 26.9764 74.2932 27.133 74.2932 27.3356C74.2932 27.4922 74.3393 27.6303 74.4314 27.7501C74.5327 27.8606 74.7031 27.9757 74.9425 28.0954C75.1912 28.206 75.5412 28.3533 75.9925 28.5375C76.4438 28.7125 76.8261 28.8968 77.1392 29.0902C77.4616 29.2744 77.7103 29.5046 77.8853 29.781C78.0603 30.0573 78.1478 30.4073 78.1478 30.8309ZM86.5095 29.2421C86.5095 29.8685 86.4266 30.4211 86.2608 30.9C86.095 31.379 85.8555 31.7888 85.5424 32.1296C85.2384 32.4612 84.8608 32.7145 84.4095 32.8895C83.9674 33.0553 83.4746 33.1382 82.9312 33.1382C82.4154 33.1382 81.9411 33.0553 81.5082 32.8895C81.0753 32.7145 80.6977 32.4612 80.3753 32.1296C80.0622 31.7888 79.8181 31.379 79.6431 30.9C79.4681 30.4211 79.3806 29.8685 79.3806 29.2421C79.3806 28.4132 79.5234 27.7132 79.8089 27.1422C80.0944 26.5619 80.5043 26.1244 81.0385 25.8297C81.5819 25.5257 82.222 25.3738 82.9589 25.3738C83.6588 25.3738 84.2713 25.5257 84.7963 25.8297C85.3305 26.1244 85.7496 26.5619 86.0536 27.1422C86.3575 27.7132 86.5095 28.4132 86.5095 29.2421ZM81.1628 29.2421C81.1628 29.7671 81.2227 30.2185 81.3424 30.5961C81.4714 30.9645 81.6648 31.2454 81.9227 31.4388C82.1898 31.6323 82.5306 31.729 82.945 31.729C83.3687 31.729 83.7095 31.6323 83.9674 31.4388C84.2345 31.2454 84.4279 30.9645 84.5477 30.5961C84.6674 30.2185 84.7273 29.7671 84.7273 29.2421C84.7273 28.7079 84.6628 28.2612 84.5338 27.902C84.4141 27.5336 84.2207 27.2573 83.9536 27.0731C83.6957 26.8797 83.3595 26.783 82.945 26.783C82.3187 26.783 81.8628 26.9948 81.5773 27.4185C81.301 27.8422 81.1628 28.45 81.1628 29.2421ZM92.1913 26.8244H90.3814V33H88.6406V26.8244H87.4387V25.9955L88.6406 25.4981V24.9869C88.6406 24.3422 88.742 23.8356 88.9446 23.4672C89.1472 23.0988 89.442 22.8363 89.8288 22.6797C90.2156 22.5139 90.6715 22.431 91.1965 22.431C91.565 22.431 91.8965 22.4633 92.1913 22.5277C92.486 22.583 92.7301 22.6475 92.9235 22.7212L92.4814 24.0198C92.3248 23.9738 92.1498 23.9323 91.9564 23.8955C91.7722 23.8494 91.5696 23.8264 91.3485 23.8264C91.0169 23.8264 90.7729 23.9323 90.6163 24.1442C90.4597 24.356 90.3814 24.6507 90.3814 25.0284V25.5119H92.1913V26.8244ZM96.3373 31.7428C96.5583 31.7428 96.7701 31.7244 96.9728 31.6875C97.1754 31.6415 97.3642 31.5908 97.5392 31.5355V32.8342C97.355 32.9171 97.1155 32.9862 96.8208 33.0414C96.5261 33.1059 96.2175 33.1382 95.8952 33.1382C95.4715 33.1382 95.0846 33.0691 94.7346 32.9309C94.3939 32.7836 94.1175 32.5349 93.9057 32.1849C93.7031 31.8349 93.6018 31.3467 93.6018 30.7204V26.8244H92.5932V26.0645L93.6985 25.4567L94.2511 23.8679H95.3425V25.5119H97.4701V26.8244H95.3425V30.7066C95.3425 31.0566 95.4346 31.3191 95.6188 31.4941C95.8031 31.6599 96.0425 31.7428 96.3373 31.7428Z" fill="#E8E8E8"/>
<path d="M38.9959 40.2659C38.9959 40.7002 38.8907 41.0699 38.6804 41.3752C38.4701 41.6806 38.1681 41.918 37.7746 42.0876C37.3811 42.2505 36.913 42.3319 36.3702 42.3319C36.1056 42.3319 35.8512 42.3149 35.6069 42.281C35.3627 42.2539 35.1354 42.2132 34.9251 42.1589C34.7147 42.1046 34.5282 42.0367 34.3653 41.9553V40.9173C34.6367 41.0394 34.9556 41.1513 35.322 41.2531C35.6883 41.3481 36.0615 41.3956 36.4414 41.3956C36.7671 41.3956 37.0385 41.3515 37.2556 41.2633C37.4727 41.1751 37.6355 41.053 37.7441 40.8969C37.8527 40.7409 37.9069 40.5577 37.9069 40.3474C37.9069 40.1235 37.8493 39.9369 37.7339 39.7876C37.6254 39.6316 37.4524 39.4891 37.2149 39.3602C36.9842 39.2245 36.6721 39.082 36.2786 38.9328C36.0072 38.831 35.7596 38.719 35.5357 38.5969C35.3186 38.468 35.1252 38.3187 34.9556 38.1491C34.7928 37.9795 34.6672 37.7828 34.579 37.5589C34.4908 37.335 34.4467 37.0738 34.4467 36.7752C34.4467 36.3749 34.5451 36.0323 34.7419 35.7473C34.9454 35.4624 35.2236 35.2453 35.5764 35.096C35.9292 34.94 36.3397 34.8619 36.8078 34.8619C37.2013 34.8619 37.5643 34.9027 37.8968 34.9841C38.236 35.0587 38.5583 35.1639 38.8636 35.2996L38.5176 36.2053C38.2394 36.09 37.9578 35.995 37.6729 35.9204C37.3879 35.8457 37.0894 35.8084 36.7773 35.8084C36.5059 35.8084 36.2786 35.8491 36.0954 35.9305C35.9122 36.0119 35.7732 36.1239 35.6782 36.2664C35.59 36.4089 35.5459 36.5751 35.5459 36.765C35.5459 36.9889 35.5968 37.1755 35.6985 37.3248C35.8003 37.474 35.9631 37.6131 36.187 37.742C36.4109 37.8642 36.706 37.9999 37.0724 38.1491C37.4795 38.3052 37.8255 38.4748 38.1105 38.658C38.4022 38.8412 38.6227 39.0617 38.772 39.3195C38.9212 39.5705 38.9959 39.886 38.9959 40.2659ZM41.3753 36.7447V42.2301H40.2965V36.7447H41.3753ZM40.8461 34.6584C41.0089 34.6584 41.1514 34.7059 41.2735 34.8009C41.3957 34.8959 41.4567 35.0553 41.4567 35.2792C41.4567 35.4963 41.3957 35.6558 41.2735 35.7575C41.1514 35.8525 41.0089 35.9 40.8461 35.9C40.6697 35.9 40.5204 35.8525 40.3983 35.7575C40.283 35.6558 40.2253 35.4963 40.2253 35.2792C40.2253 35.0553 40.283 34.8959 40.3983 34.8009C40.5204 34.7059 40.6697 34.6584 40.8461 34.6584ZM44.1482 42.2301H43.0694V34.4956H44.1482V42.2301ZM47.0737 42.2301L44.9975 36.7447H46.1374L47.2772 39.9505C47.3247 40.0862 47.3722 40.2388 47.4197 40.4084C47.474 40.578 47.5214 40.7409 47.5622 40.8969C47.6029 41.053 47.63 41.1887 47.6436 41.304H47.6843C47.7046 41.1887 47.7352 41.053 47.7759 40.8969C47.8234 40.7341 47.8742 40.5713 47.9285 40.4084C47.9828 40.2388 48.0303 40.0862 48.071 39.9505L49.2108 36.7447H50.3507L48.2644 42.2301H47.0737ZM53.3566 36.6429C53.8383 36.6429 54.2522 36.7447 54.5982 36.9482C54.9442 37.145 55.2088 37.4299 55.392 37.8031C55.582 38.1763 55.677 38.6173 55.677 39.1261V39.7164H51.9929C52.0065 40.2795 52.1523 40.7103 52.4305 41.0089C52.7155 41.3074 53.1124 41.4567 53.6212 41.4567C53.974 41.4567 54.2861 41.4261 54.5575 41.3651C54.8357 41.2972 55.1206 41.1988 55.4124 41.0699V41.9655C55.141 42.0876 54.8628 42.1792 54.5779 42.2403C54.2997 42.3014 53.9672 42.3319 53.5805 42.3319C53.0513 42.3319 52.5832 42.2267 52.1761 42.0164C51.769 41.8061 51.4501 41.494 51.2194 41.0801C50.9955 40.6595 50.8836 40.1438 50.8836 39.5332C50.8836 38.9158 50.9854 38.3934 51.1889 37.9659C51.3992 37.5385 51.6876 37.2128 52.054 36.9889C52.4271 36.7583 52.8613 36.6429 53.3566 36.6429ZM53.3566 37.4774C52.9699 37.4774 52.6578 37.603 52.4203 37.854C52.1897 38.105 52.054 38.4612 52.0132 38.9226H54.5982C54.5982 38.6376 54.5541 38.3866 54.4659 38.1695C54.3777 37.9524 54.242 37.7828 54.0588 37.6606C53.8756 37.5385 53.6416 37.4774 53.3566 37.4774ZM59.7301 36.6429C59.8251 36.6429 59.9303 36.6497 60.0456 36.6633C60.161 36.6701 60.256 36.6802 60.3306 36.6938L60.2186 37.7013C60.144 37.681 60.0558 37.664 59.954 37.6504C59.8523 37.6369 59.7573 37.6301 59.6691 37.6301C59.4655 37.6301 59.2688 37.6708 59.0788 37.7522C58.8956 37.8269 58.7294 37.9388 58.5801 38.0881C58.4309 38.2305 58.3121 38.4069 58.2239 38.6173C58.1425 38.8276 58.1018 39.0684 58.1018 39.3398V42.2301H57.023V36.7447H57.8779L58.0204 37.7217H58.0611C58.1764 37.5249 58.3155 37.3451 58.4784 37.1823C58.6412 37.0195 58.8278 36.8906 59.0381 36.7956C59.2484 36.6938 59.4791 36.6429 59.7301 36.6429Z" fill="#C4C4C4"/>
<path d="M66.1475 34.9637C67.0973 34.9637 67.7894 35.1571 68.2236 35.5438C68.6578 35.9237 68.8749 36.4563 68.8749 37.1416C68.8749 37.4469 68.824 37.7387 68.7223 38.0168C68.6273 38.295 68.4678 38.546 68.2439 38.7699C68.02 38.987 67.7215 39.16 67.3484 39.289C66.982 39.4111 66.5308 39.4721 65.9948 39.4721H65.2112V42.2301H64.1121V34.9637H66.1475ZM66.0661 35.8898H65.2112V38.546H65.8727C66.2866 38.546 66.6326 38.5019 66.9107 38.4137C67.1889 38.3187 67.3959 38.1729 67.5315 37.9761C67.674 37.7726 67.7453 37.508 67.7453 37.1823C67.7453 36.7481 67.6096 36.4258 67.3382 36.2155C67.0736 35.9984 66.6495 35.8898 66.0661 35.8898ZM72.3484 36.6429C73.0404 36.6429 73.5561 36.7956 73.8953 37.1009C74.2345 37.3994 74.4041 37.871 74.4041 38.5155V42.2301H73.6409L73.4271 41.4668H73.3864C73.2304 41.6636 73.0676 41.8264 72.8979 41.9553C72.7351 42.0842 72.5451 42.1792 72.328 42.2403C72.1177 42.3014 71.8599 42.3319 71.5546 42.3319C71.2289 42.3319 70.9338 42.2742 70.6692 42.1589C70.4114 42.0367 70.2078 41.8536 70.0586 41.6093C69.9093 41.3583 69.8347 41.0462 69.8347 40.673C69.8347 40.1167 70.045 39.6926 70.4656 39.4009C70.8931 39.1092 71.541 38.9497 72.4094 38.9226L73.3457 38.892V38.5867C73.3457 38.1797 73.2541 37.8947 73.071 37.7319C72.8878 37.569 72.6299 37.4876 72.2975 37.4876C72.0125 37.4876 71.7412 37.5283 71.4833 37.6097C71.2255 37.6912 70.9813 37.7895 70.7506 37.9049L70.4046 37.1212C70.6624 36.9856 70.9575 36.8736 71.29 36.7854C71.6292 36.6904 71.982 36.6429 72.3484 36.6429ZM72.6028 39.6146C71.9786 39.6418 71.5444 39.7469 71.3001 39.9301C71.0627 40.1065 70.944 40.3575 70.944 40.6832C70.944 40.9682 71.0288 41.1751 71.1984 41.304C71.3748 41.4329 71.5953 41.4974 71.8599 41.4974C72.2873 41.4974 72.6401 41.3786 72.9183 41.1412C73.1965 40.9037 73.3356 40.5475 73.3356 40.0726V39.5943L72.6028 39.6146ZM78.7723 36.6429C78.8673 36.6429 78.9725 36.6497 79.0878 36.6633C79.2031 36.6701 79.2981 36.6802 79.3728 36.6938L79.2608 37.7013C79.1862 37.681 79.098 37.664 78.9962 37.6504C78.8944 37.6369 78.7994 37.6301 78.7112 37.6301C78.5077 37.6301 78.311 37.6708 78.121 37.7522C77.9378 37.8269 77.7716 37.9388 77.6223 38.0881C77.473 38.2305 77.3543 38.4069 77.2661 38.6173C77.1847 38.8276 77.144 39.0684 77.144 39.3398V42.2301H76.0652V36.7447H76.9201L77.0626 37.7217H77.1033C77.2186 37.5249 77.3577 37.3451 77.5205 37.1823C77.6834 37.0195 77.8699 36.8906 78.0803 36.7956C78.2906 36.6938 78.5213 36.6429 78.7723 36.6429ZM82.3628 41.4567C82.5053 41.4567 82.6512 41.4431 82.8004 41.4159C82.9497 41.3888 83.0786 41.3583 83.1872 41.3244V42.1385C83.0718 42.1928 82.9158 42.2369 82.719 42.2708C82.5223 42.3115 82.3255 42.3319 82.1287 42.3319C81.8302 42.3319 81.5554 42.281 81.3044 42.1792C81.0602 42.0775 80.8634 41.9011 80.7141 41.65C80.5649 41.399 80.4902 41.0496 80.4902 40.6018V37.569H79.727V37.0805L80.5309 36.6735L80.9075 35.5133H81.569V36.7447H83.1363V37.569H81.569V40.5814C81.569 40.88 81.6402 41.1005 81.7827 41.2429C81.932 41.3854 82.1254 41.4567 82.3628 41.4567ZM87.0627 36.6429C87.7005 36.6429 88.1889 36.8024 88.5282 37.1212C88.8674 37.4401 89.037 37.9524 89.037 38.658V42.2301H87.9684V38.8106C87.9684 38.3832 87.8769 38.0643 87.6937 37.854C87.5173 37.6369 87.2323 37.5283 86.8388 37.5283C86.2825 37.5283 85.8957 37.6946 85.6786 38.027C85.4683 38.3594 85.3631 38.8378 85.3631 39.462V42.2301H84.2844V36.7447H85.1392L85.2919 37.4774H85.353C85.4751 37.2875 85.6243 37.1314 85.8007 37.0093C85.9771 36.8872 86.1739 36.7956 86.391 36.7345C86.6081 36.6735 86.832 36.6429 87.0627 36.6429ZM92.8522 36.6429C93.3339 36.6429 93.7478 36.7447 94.0938 36.9482C94.4398 37.145 94.7044 37.4299 94.8876 37.8031C95.0776 38.1763 95.1726 38.6173 95.1726 39.1261V39.7164H91.4885C91.5021 40.2795 91.6479 40.7103 91.9261 41.0089C92.2111 41.3074 92.608 41.4567 93.1168 41.4567C93.4696 41.4567 93.7817 41.4261 94.0531 41.3651C94.3313 41.2972 94.6162 41.1988 94.908 41.0699V41.9655C94.6366 42.0876 94.3584 42.1792 94.0735 42.2403C93.7953 42.3014 93.4628 42.3319 93.0761 42.3319C92.5469 42.3319 92.0788 42.2267 91.6717 42.0164C91.2646 41.8061 90.9457 41.494 90.715 41.0801C90.4912 40.6595 90.3792 40.1438 90.3792 39.5332C90.3792 38.9158 90.481 38.3934 90.6845 37.9659C90.8948 37.5385 91.1832 37.2128 91.5496 36.9889C91.9227 36.7583 92.3569 36.6429 92.8522 36.6429ZM92.8522 37.4774C92.4655 37.4774 92.1534 37.603 91.9159 37.854C91.6853 38.105 91.5496 38.4612 91.5089 38.9226H94.0938C94.0938 38.6376 94.0497 38.3866 93.9615 38.1695C93.8733 37.9524 93.7376 37.7828 93.5544 37.6606C93.3713 37.5385 93.1372 37.4774 92.8522 37.4774ZM99.2257 36.6429C99.3207 36.6429 99.4259 36.6497 99.5412 36.6633C99.6566 36.6701 99.7516 36.6802 99.8262 36.6938L99.7142 37.7013C99.6396 37.681 99.5514 37.664 99.4496 37.6504C99.3479 37.6369 99.2529 37.6301 99.1647 37.6301C98.9611 37.6301 98.7644 37.6708 98.5744 37.7522C98.3912 37.8269 98.225 37.9388 98.0757 38.0881C97.9265 38.2305 97.8077 38.4069 97.7195 38.6173C97.6381 38.8276 97.5974 39.0684 97.5974 39.3398V42.2301H96.5187V36.7447H97.3735L97.516 37.7217H97.5567C97.6721 37.5249 97.8111 37.3451 97.974 37.1823C98.1368 37.0195 98.3234 36.8906 98.5337 36.7956C98.744 36.6938 98.9747 36.6429 99.2257 36.6429Z" fill="#A2A2A2"/>
<rect x="9.00003" y="21.3692" width="10.1077" height="10.1077" fill="#EB5321"/>
<rect x="20.7923" y="21.3693" width="10.1077" height="10.1077" fill="#7FBA00"/>
<rect x="20.7923" y="33.1616" width="10.1077" height="10.1077" fill="#FCBB01"/>
<rect x="9.00006" y="33.1616" width="10.1077" height="10.1077" fill="#08A1EF"/>
<defs>
<clipPath id="clip0_1_98">
<rect width="77.5928" height="13.4494" fill="white" transform="translate(255.776 31.0026)"/>
</clipPath>
</defs>
</svg>
