<svg width="14" height="15" viewBox="0 0 14 15" fill="none" xmlns="http://www.w3.org/2000/svg">
<path opacity="0.7" d="M7.00233 0.815918C3.14254 0.815918 0 3.95723 0 7.81592C0 11.6744 3.14236 14.8159 7.00233 14.8159C10.8621 14.8159 14 11.6746 14 7.81592C14 3.95741 10.8621 0.815918 7.00233 0.815918ZM6.87532 4.28476C7.28966 4.28476 7.62553 4.62052 7.62553 5.03472C7.62553 5.44892 7.28966 5.78468 6.87532 5.78468C6.46099 5.78468 6.12511 5.44892 6.12511 5.03472C6.12511 4.62052 6.46081 4.28476 6.87532 4.28476ZM8.07856 11.9287H5.92144V10.7665H6.40277V7.89758H5.92144V6.73539H7.56534V10.7665H8.07856V11.9287Z" fill="white"/>
</svg>
