<svg width="150" height="22" viewBox="0 0 150 22" fill="none" xmlns="http://www.w3.org/2000/svg">
<path d="M11.509 0.861182L8.62386 6.53395C8.37145 7.03051 7.89093 7.36834 7.34252 7.44707L7.343 7.447L7.23563 6.70473L7.34196 7.44715L11.509 0.861182ZM11.509 0.861182C11.5441 0.792084 11.6101 0.75 11.7012 0.75C11.7922 0.75 11.8578 0.792034 11.8928 0.860814L11.8929 0.860943M11.509 0.861182L11.8929 0.860943M11.8929 0.860943L14.7782 6.5341L14.7786 6.53488M11.8929 0.860943L14.7786 6.53488M14.7786 6.53488C15.0314 7.03057 15.5115 7.36844 16.0602 7.44711C16.0603 7.44712 16.0604 7.44714 16.0605 7.44715L22.4738 8.37484L22.4738 8.37485M14.7786 6.53488L22.4738 8.37485M22.4738 8.37485C22.5691 8.38863 22.621 8.44312 22.6425 8.50767C22.6538 8.54156 22.6546 8.57415 22.6483 8.60138C22.6428 8.62557 22.6296 8.65596 22.5942 8.68993L17.9636 13.1231C17.9635 13.1232 17.9634 13.1233 17.9632 13.1234C17.5605 13.5087 17.3721 14.0674 17.4675 14.6198L17.4675 14.6198M22.4738 8.37485L17.4675 14.6198M17.4675 14.6198L18.5465 20.866L18.5466 20.8664M17.4675 14.6198L18.5466 20.8664M18.5466 20.8664C18.5584 20.9348 18.5355 20.9953 18.469 21.0425C18.4013 21.0905 18.3176 21.1012 18.2343 21.0587C18.2342 21.0587 18.2342 21.0587 18.2342 21.0587L12.4868 18.1259L18.5466 20.8664ZM10.9152 18.1259L10.9157 18.1257C11.4085 17.8746 11.9938 17.8743 12.4867 18.1259H10.9152ZM10.9152 18.1259L5.16776 21.0587M10.9152 18.1259L5.16776 21.0587M5.16776 21.0587C5.16774 21.0587 5.16771 21.0587 5.16769 21.0587C5.08436 21.1012 5.00082 21.0905 4.93317 21.0425C4.86678 20.9954 4.84359 20.9346 4.85543 20.866M5.16776 21.0587L4.85543 20.866M4.85543 20.866C4.85543 20.866 4.85544 20.866 4.85544 20.866L4.85543 20.866ZM5.43885 13.1231L4.92056 13.6652L5.43922 13.1235L5.43885 13.1231Z" stroke="#AFAFAF" stroke-width="1.5"/>
<path d="M42.9113 0.861182L40.0262 6.53395C39.7738 7.03051 39.2933 7.36834 38.7449 7.44707L38.7453 7.447L38.638 6.70473L38.7443 7.44715L42.9113 0.861182ZM42.9113 0.861182C42.9465 0.792084 43.0124 0.75 43.1035 0.75C43.1946 0.75 43.2602 0.792034 43.2951 0.860814L43.2952 0.860943M42.9113 0.861182L43.2952 0.860943M43.2952 0.860943L46.1805 6.5341L46.1809 6.53488M43.2952 0.860943L46.1809 6.53488M46.1809 6.53488C46.4338 7.03057 46.9138 7.36844 47.4625 7.44711C47.4626 7.44712 47.4627 7.44714 47.4628 7.44715L53.8761 8.37484L53.8762 8.37485M46.1809 6.53488L53.8762 8.37485M53.8762 8.37485C53.9715 8.38863 54.0234 8.44312 54.0448 8.50767C54.0561 8.54156 54.0569 8.57415 54.0507 8.60138C54.0452 8.62557 54.032 8.65596 53.9965 8.68993L49.3659 13.1231C49.3658 13.1232 49.3657 13.1233 49.3656 13.1234C48.9629 13.5087 48.7745 14.0674 48.8699 14.6198L48.8699 14.6198M53.8762 8.37485L48.8699 14.6198M48.8699 14.6198L49.9489 20.866L49.9489 20.8664M48.8699 14.6198L49.9489 20.8664M49.9489 20.8664C49.9608 20.9348 49.9378 20.9953 49.8714 21.0425C49.8036 21.0905 49.7199 21.1012 49.6366 21.0587C49.6366 21.0587 49.6366 21.0587 49.6365 21.0587L43.8891 18.1259L49.9489 20.8664ZM42.3176 18.1259L42.318 18.1257C42.8108 17.8746 43.3961 17.8743 43.8891 18.1259H42.3176ZM42.3176 18.1259L36.5701 21.0587M42.3176 18.1259L36.5701 21.0587M36.5701 21.0587C36.5701 21.0587 36.5701 21.0587 36.57 21.0587C36.4867 21.1012 36.4032 21.0905 36.3355 21.0425C36.2691 20.9954 36.2459 20.9346 36.2578 20.866M36.5701 21.0587L36.2578 20.866M36.2578 20.866C36.2578 20.866 36.2578 20.866 36.2578 20.866L36.2578 20.866ZM36.8412 13.1231L36.3229 13.6652L36.8416 13.1235L36.8412 13.1231Z" stroke="#AFAFAF" stroke-width="1.5"/>
<path d="M74.6976 0.860943L74.6975 0.860814C74.6625 0.792034 74.5969 0.75 74.5058 0.75C74.4148 0.75 74.3488 0.792084 74.3136 0.861182L71.4285 6.53395C71.1761 7.03051 70.6956 7.36834 70.1472 7.44707L70.1477 7.447L70.0403 6.70473L70.1466 7.44715L63.7333 8.37484L63.7333 8.37485C63.6379 8.38865 63.5859 8.44325 63.5644 8.50778C63.5532 8.54164 63.5523 8.57416 63.5586 8.60128C63.5641 8.62536 63.5772 8.65571 63.6127 8.68971L63.6128 8.6898L68.2435 13.1231C68.6471 13.5089 68.8344 14.0681 68.7391 14.6198L68.7391 14.6198L67.6601 20.866C67.6601 20.866 67.6601 20.866 67.6601 20.866C67.6483 20.9346 67.6715 20.9954 67.7379 21.0425C67.8055 21.0905 67.8891 21.1012 67.9724 21.0587C67.9724 21.0587 67.9724 21.0587 67.9724 21.0587L73.7199 18.1259L73.7203 18.1257C74.2132 17.8746 74.7984 17.8743 75.2914 18.1259L74.6976 0.860943ZM74.6976 0.860943L77.5829 6.5341L77.5833 6.53488M74.6976 0.860943L77.5833 6.53488M77.5833 6.53488C77.836 7.03034 78.3157 7.36812 78.8641 7.447C78.8641 7.447 78.8642 7.44701 78.8642 7.44701C78.8645 7.44706 78.8648 7.4471 78.8652 7.44715L85.2785 8.37484L85.2785 8.37485M77.5833 6.53488L85.2785 8.37485M85.2785 8.37485C85.3738 8.38863 85.4257 8.44312 85.4472 8.50766M85.2785 8.37485L85.4472 8.50766M85.4472 8.50766C85.4585 8.54155 85.4593 8.57415 85.453 8.60137M85.4472 8.50766L85.453 8.60137M85.453 8.60137C85.4475 8.62553 85.4344 8.65587 85.399 8.68979L85.453 8.60137ZM81.0389 21.0587L75.2915 18.1259L85.3988 8.68993L80.7683 13.1231C80.7682 13.1232 80.768 13.1233 80.7679 13.1234C80.3652 13.5087 80.1768 14.0674 80.2722 14.6198L80.2722 14.6198L81.3512 20.866L81.3513 20.8664C81.3631 20.9348 81.3402 20.9953 81.2737 21.0425C81.206 21.0905 81.1223 21.1012 81.0389 21.0587C81.0389 21.0587 81.0389 21.0587 81.0389 21.0587Z" stroke="#AFAFAF" stroke-width="1.5"/>
<path d="M106.1 0.860941L106.1 0.860814C106.065 0.792038 105.999 0.75 105.908 0.75C105.817 0.75 105.751 0.792089 105.716 0.861182L102.831 6.53395C102.579 7.03035 102.098 7.36814 101.55 7.447C101.55 7.447 101.55 7.44701 101.55 7.44701C101.55 7.44706 101.549 7.4471 101.549 7.44715L95.1357 8.37484L95.1357 8.37485C95.0402 8.38865 94.9882 8.44325 94.9668 8.50778C94.9555 8.54164 94.9547 8.57416 94.9609 8.60128C94.9664 8.62536 94.9796 8.65571 95.0151 8.68971L95.0152 8.68979L99.6459 13.1231C100.049 13.5089 100.237 14.0681 100.141 14.6198L100.141 14.6198L99.0625 20.866C99.0625 20.866 99.0625 20.866 99.0625 20.866C99.0506 20.9346 99.0738 20.9954 99.1402 21.0425C99.2079 21.0905 99.2914 21.1012 99.3747 21.0587C99.3748 21.0587 99.3748 21.0587 99.3748 21.0587L105.122 18.1259L105.123 18.1257C105.616 17.8746 106.201 17.8743 106.694 18.1259C106.694 18.1259 106.694 18.1259 106.694 18.1259L112.441 21.0587C112.525 21.1012 112.608 21.0906 112.676 21.0425C112.742 20.9953 112.765 20.9348 112.754 20.8664L112.754 20.866L111.675 14.6198L111.675 14.6198C111.579 14.0674 111.768 13.5087 112.17 13.1234C112.17 13.1233 112.171 13.1232 112.171 13.1231L116.801 8.68993L106.1 0.860941ZM106.1 0.860941L108.985 6.53409L108.986 6.53488M106.1 0.860941L108.986 6.53488M108.986 6.53488C109.238 7.03051 109.718 7.36834 110.267 7.44708C110.267 7.4471 110.267 7.44713 110.268 7.44715L116.681 8.37484L116.681 8.37485M108.986 6.53488L116.681 8.37485M116.681 8.37485C116.776 8.38863 116.828 8.44312 116.85 8.50766M116.681 8.37485L116.85 8.50766M116.85 8.50766C116.861 8.54155 116.862 8.57415 116.855 8.60137M116.85 8.50766L116.855 8.60137M116.855 8.60137C116.85 8.62553 116.837 8.65587 116.801 8.68979L116.855 8.60137Z" stroke="#AFAFAF" stroke-width="1.5"/>
<path d="M137.502 0.860941L137.502 0.860814C137.467 0.792038 137.402 0.75 137.311 0.75C137.219 0.75 137.154 0.792089 137.118 0.861182L134.233 6.53395C133.981 7.03035 133.501 7.36814 132.952 7.447C132.952 7.447 132.952 7.44701 132.952 7.44701C132.952 7.44706 132.952 7.4471 132.951 7.44715L126.538 8.37484L126.538 8.37485C126.443 8.38865 126.391 8.44325 126.369 8.50778C126.358 8.54164 126.357 8.57416 126.363 8.60128C126.369 8.62536 126.382 8.65571 126.417 8.68971L126.418 8.68979L131.048 13.1231C131.452 13.5089 131.639 14.0681 131.544 14.6198L131.544 14.6198L130.465 20.866C130.465 20.866 130.465 20.866 130.465 20.866C130.453 20.9346 130.476 20.9954 130.543 21.0425C130.61 21.0905 130.694 21.1012 130.777 21.0587C130.777 21.0587 130.777 21.0587 130.777 21.0587L136.525 18.1259L136.525 18.1257C137.018 17.8746 137.603 17.8743 138.096 18.1259C138.096 18.1259 138.096 18.1259 138.096 18.1259L143.844 21.0587C143.927 21.1012 144.011 21.0906 144.078 21.0425C144.145 20.9953 144.168 20.9348 144.156 20.8664L144.156 20.866L143.077 14.6198L143.077 14.6198C142.982 14.0674 143.17 13.5087 143.573 13.1234C143.573 13.1233 143.573 13.1232 143.573 13.1231L148.204 8.68993L137.502 0.860941ZM137.502 0.860941L140.388 6.53409L140.388 6.53488M137.502 0.860941L140.388 6.53488M140.388 6.53488C140.641 7.03051 141.121 7.36834 141.669 7.44708C141.67 7.4471 141.67 7.44713 141.67 7.44715L148.083 8.37484L148.083 8.37485M140.388 6.53488L148.083 8.37485M148.083 8.37485C148.179 8.38863 148.23 8.44312 148.252 8.50766M148.083 8.37485L148.252 8.50766M148.252 8.50766C148.263 8.54155 148.264 8.57415 148.258 8.60137M148.252 8.50766L148.258 8.60137M148.258 8.60137C148.252 8.62553 148.239 8.65587 148.204 8.68979L148.258 8.60137Z" stroke="#AFAFAF" stroke-width="1.5"/>
</svg>
