<svg width="202" height="30" viewBox="0 0 202 30" fill="none" xmlns="http://www.w3.org/2000/svg">
<path d="M172 14.9999C172 12.0335 172.88 9.1344 174.527 6.66783C176.175 4.20126 178.517 2.2768 181.258 1.14123C183.998 0.00566314 187.014 -0.290001 189.923 0.288101C192.833 0.866202 195.505 2.29273 197.604 4.38969C199.702 6.48665 201.131 9.15868 201.711 12.0679C202.29 14.977 201.995 17.994 200.861 20.7351C199.727 23.4762 197.805 25.8195 195.34 27.4687C192.874 29.118 189.975 29.9983 187.008 30C185.038 30.0011 183.086 29.6143 181.266 28.8609C179.445 28.1076 177.79 27.0031 176.396 25.6101C175.003 24.2171 173.897 22.5626 173.143 20.7421C172.388 18.9217 172 16.9705 172 14.9999ZM180.74 13.4835C180.304 13.5354 179.896 13.7206 179.571 14.0155C179.247 14.3104 179.022 14.7003 178.929 15.1288C178.687 16.4313 178.589 17.7564 178.636 19.0804C178.586 20.4044 178.684 21.7298 178.929 23.032C179.021 23.4593 179.243 23.8457 179.566 24.1406C179.889 24.4354 180.295 24.6242 180.729 24.6773C184.902 24.9898 189.092 24.9898 193.265 24.6773C193.701 24.6263 194.11 24.4403 194.435 24.1453C194.759 23.8502 194.984 23.4609 195.076 23.032C195.463 20.4118 195.463 17.749 195.076 15.1288C194.983 14.7003 194.758 14.3104 194.434 14.0155C194.109 13.7206 193.701 13.5354 193.265 13.4835C189.092 13.171 184.902 13.171 180.729 13.4835H180.74ZM188.675 11.4749C188.663 11.7578 188.693 12.0401 188.765 12.314C188.812 12.4483 188.902 12.5631 189.022 12.6397C189.142 12.7164 189.284 12.7499 189.425 12.7358C189.658 12.7092 189.883 12.6336 190.084 12.5132C190.285 12.3927 190.458 12.2301 190.592 12.0374V12.6632H191.614V7.01236H190.592V11.3319C190.362 11.6511 190.15 11.8124 189.947 11.8124C189.809 11.8124 189.729 11.7318 189.707 11.571C189.688 11.4367 189.683 11.3009 189.692 11.1655V7.01236H188.674L188.675 11.4749ZM185.134 7.52799C184.888 7.92435 184.776 8.38977 184.815 8.85456V10.828C184.777 11.2942 184.889 11.7607 185.134 12.1593C185.276 12.3391 185.457 12.4836 185.663 12.5835C185.869 12.6834 186.095 12.7358 186.324 12.7358C186.553 12.7358 186.78 12.6834 186.986 12.5835C187.192 12.4836 187.373 12.3391 187.515 12.1593C187.76 11.7607 187.871 11.2942 187.834 10.828V8.85456C187.873 8.38972 187.761 7.92409 187.515 7.52799C187.372 7.34879 187.191 7.20326 186.985 7.10377C186.779 7.00428 186.553 6.95377 186.324 6.95377C186.096 6.95377 185.87 7.00428 185.663 7.10377C185.457 7.20326 185.276 7.34879 185.134 7.52799V7.52799ZM181.613 7.19283C181.898 7.97637 182.129 8.77819 182.306 9.59284V12.6608H183.44V9.59284L184.803 5.08813H183.658L182.886 8.06002L182.082 5.08813H180.89C181.124 5.78653 181.373 6.49683 181.613 7.19283V7.19283ZM191.423 22.0523C191.177 21.658 191.064 21.1961 191.098 20.7328V18.7851C191.057 18.3226 191.167 17.8599 191.412 17.4655C191.551 17.2783 191.734 17.1271 191.945 17.0273C192.156 16.9274 192.388 16.8802 192.621 16.8913C192.851 16.8809 193.081 16.9297 193.289 17.0296C193.497 17.1295 193.677 17.2791 193.814 17.4655C194.056 17.8609 194.166 18.3228 194.128 18.7851V19.9406H192.105V20.9249C192.105 21.4481 192.275 21.7007 192.621 21.7007C192.734 21.7051 192.845 21.6663 192.929 21.5906C193.014 21.5149 193.065 21.4084 193.073 21.2953C193.093 21.0686 193.1 20.843 193.095 20.6156H194.128V20.7609C194.128 21.0849 194.117 21.3141 194.106 21.4101C194.077 21.629 193.995 21.8373 193.866 22.0171C193.733 22.2151 193.55 22.3748 193.337 22.4812C193.123 22.5876 192.886 22.6369 192.647 22.6242C192.412 22.6351 192.178 22.5877 191.965 22.4882C191.752 22.3887 191.566 22.2394 191.423 22.0523V22.0523ZM192.105 18.5718V19.0945H193.116V18.5718C193.116 18.0558 192.946 17.8054 192.61 17.8054C192.274 17.8054 192.105 18.0581 192.105 18.5741V18.5718ZM188.356 22.0031V22.5398H187.344V15.0515H188.356V17.5007C188.471 17.325 188.625 17.1796 188.806 17.0741C188.987 16.9687 189.191 16.9063 189.4 16.8937C189.587 16.8859 189.77 16.9436 189.919 17.0577C190.067 17.1718 190.17 17.3345 190.21 17.5171C190.293 17.8875 190.327 18.2676 190.311 18.6468V20.8687C190.326 21.2459 190.292 21.6228 190.21 21.9914C190.17 22.1742 190.067 22.3384 189.919 22.4531C189.771 22.5677 189.587 22.6261 189.4 22.6195C189.19 22.6046 188.987 22.5409 188.806 22.4343C188.625 22.3277 188.471 22.1815 188.356 22.0054V22.0031ZM188.356 18.0491V21.4523C188.419 21.5245 188.496 21.5835 188.581 21.6257C188.667 21.668 188.761 21.6927 188.856 21.6984C189.149 21.6984 189.298 21.4526 189.298 20.9413V18.5624C189.298 18.056 189.149 17.8054 188.856 17.8054C188.761 17.8111 188.667 17.8358 188.581 17.8781C188.496 17.9203 188.419 17.9793 188.356 18.0515V18.0491ZM183.648 22.2046C183.578 21.9304 183.548 21.6484 183.558 21.3656V16.957H184.57V21.0679C184.564 21.1992 184.568 21.3309 184.581 21.4617C184.602 21.6165 184.682 21.7007 184.821 21.7007C185.024 21.7007 185.236 21.5464 185.46 21.232V16.9616H186.472V22.5398H185.46V21.9328C185.329 22.1239 185.157 22.2854 184.958 22.4039C184.758 22.5224 184.536 22.5954 184.305 22.6195C184.165 22.6358 184.023 22.6031 183.903 22.5281C183.784 22.453 183.693 22.3403 183.647 22.207L183.648 22.2046ZM181.076 22.5398V16.1062H179.883V15.0515H183.413V16.1062H182.199V22.5398H181.076ZM185.837 11.0202V8.64362C185.837 8.12042 185.997 7.86315 186.317 7.86315C186.638 7.86315 186.807 8.12162 186.807 8.64362V11.0202C186.807 11.547 186.647 11.8007 186.317 11.8007C185.987 11.8007 185.837 11.5493 185.837 11.0225V11.0202Z" fill="white"/>
<path d="M15.0056 30C11.5352 30.0012 8.17181 28.7998 5.48838 26.5992C2.80495 24.3986 0.967556 21.3354 0.289296 17.932C-0.388963 14.5285 0.133881 10.9947 1.76871 7.93355C3.40354 4.87238 6.04924 2.47287 9.25496 1.1437C12.4607 -0.185462 16.0281 -0.361779 19.3494 0.644483C22.6706 1.65075 25.5402 3.77838 27.4692 6.66323C29.3982 9.54809 30.2673 13.011 29.9282 16.4648C29.5892 19.9186 28.0631 23.1484 25.61 25.6031C24.221 27.0008 22.5686 28.1085 20.7483 28.8632C18.928 29.618 16.9761 30.0048 15.0056 30V30ZM11.144 12.1804V14.9882H12.896V23.1257H16.406V14.9882H18.7484L19.0628 12.1804H16.4108V10.7695C16.4108 10.0567 16.4648 9.65151 17.5772 9.65151H19.0364V6.8437H16.6988C14.1044 6.8437 12.896 8.00401 12.896 10.4976V12.1757L11.144 12.1804Z" fill="white"/>
<path d="M101.003 30C97.5328 30.0007 94.1695 28.7979 91.4864 26.5968C88.8033 24.3958 86.9664 21.3333 86.2888 17.9297C85.6111 14.5261 86.1346 10.9922 87.77 7.93127C89.4054 4.87038 92.0516 2.47235 95.2576 1.1438C98.4637 -0.184761 102.031 -0.362362 105.352 0.644578C108.673 1.65152 111.543 3.78036 113.471 6.66565C115.399 9.55094 116.268 13.0158 115.928 16.4695C115.588 19.9232 114.061 23.1513 111.608 25.6054C110.218 27.0027 108.566 28.1113 106.746 28.8656C104.925 29.6199 102.974 30.005 101.003 30V30ZM104.151 15.2414C105.249 15.2414 105.831 15.9592 105.831 17.332V22.2984H109.138V16.9758C109.138 14.3598 107.715 12.8016 105.33 12.8016C104.742 12.77 104.157 12.8937 103.633 13.1625C103.109 13.4313 102.666 13.8336 102.348 14.3297V13.0102H99.0364C99.0832 13.873 99.0364 22.2097 99.0364 22.2937H102.348V17.107C102.334 16.8556 102.371 16.6036 102.455 16.3664C102.593 16.0303 102.828 15.7428 103.131 15.5414C103.433 15.34 103.789 15.2344 104.152 15.2367L104.151 15.2414ZM93.8932 13.0149V22.2984H97.2052V13.0149H93.8932ZM95.5732 8.55705C95.3441 8.52075 95.1098 8.53234 94.8863 8.59455C94.6628 8.65676 94.4553 8.76852 94.2779 8.91799C94.1005 9.06746 93.9573 9.25205 93.8581 9.46174C93.7588 9.67142 93.7058 9.90008 93.7027 10.132C93.6995 10.364 93.7463 10.5948 93.8399 10.807C93.9335 11.0193 94.0716 11.2083 94.2449 11.3625C94.4182 11.5167 94.6227 11.6318 94.8444 11.7C95.0662 11.7682 95.3 11.7887 95.53 11.7586H95.5516C95.7817 11.7948 96.0169 11.7795 96.2411 11.7164C96.4653 11.6534 96.6733 11.5438 96.8508 11.393C97.0284 11.2422 97.1712 11.0556 97.2697 10.8445C97.3683 10.6335 97.4201 10.4025 97.4216 10.1695C97.4232 9.93664 97.3745 9.70691 97.2789 9.49455C97.1832 9.28219 97.0429 9.09224 96.8674 8.93908C96.6919 8.78593 96.4854 8.67234 96.2621 8.60627C96.0387 8.5402 95.8038 8.524 95.5732 8.55705V8.55705Z" fill="white"/>
<path d="M129 14.9934C129.001 12.027 129.882 9.12728 131.531 6.66155C133.181 4.19583 135.524 2.274 138.265 1.13982C141.006 0.0056405 144.022 -0.290514 146.931 0.289062C149.84 0.868638 152.512 2.29953 154.609 4.39755C156.706 6.49557 158.134 9.16837 158.712 12.0778C159.29 14.9873 158.993 18.002 157.857 20.7424C156.722 23.4828 154.799 25.8256 152.333 27.4735C149.866 29.1214 146.966 30 144 30C140.022 29.9943 136.209 28.4118 133.397 25.5986C130.585 22.7853 129.004 18.971 129 14.9934V14.9934ZM135.47 9.75288V20.2292C135.471 21.1031 135.819 21.9409 136.437 22.5588C137.055 23.1766 137.893 23.5241 138.767 23.5244H149.232C149.665 23.5245 150.093 23.4391 150.493 23.2736C150.893 23.1081 151.257 22.8648 151.563 22.5588C151.869 22.2528 152.112 21.8899 152.277 21.4901C152.443 21.0902 152.528 20.662 152.528 20.2292V9.75288C152.528 8.87894 152.18 8.0411 151.562 7.42325C150.944 6.8054 150.106 6.45797 149.232 6.45765H138.767C137.893 6.45924 137.056 6.80798 136.438 7.42559C135.821 8.0432 135.473 8.87944 135.472 9.75288H135.47ZM138.767 21.8627C138.334 21.8627 137.918 21.6908 137.612 21.3846C137.305 21.0784 137.133 20.6624 137.132 20.2292V13.2356H139.678C139.387 13.9445 139.276 14.7141 139.354 15.4762C139.431 16.2382 139.695 16.9705 140.122 17.6066C140.549 18.2426 141.125 18.7649 141.801 19.1253C142.477 19.4857 143.232 19.6737 143.998 19.6737C144.764 19.6737 145.518 19.4857 146.194 19.1253C146.87 18.7649 147.447 18.2426 147.874 17.6066C148.3 16.9705 148.564 16.2382 148.642 15.4762C148.719 14.7141 148.608 13.9445 148.318 13.2356H150.863V20.2292C150.863 20.4438 150.82 20.6567 150.738 20.8549C150.656 21.0532 150.535 21.2329 150.383 21.3846C150.231 21.5363 150.051 21.6565 149.853 21.7385C149.654 21.8205 149.442 21.8629 149.227 21.8627H138.767ZM140.999 14.9934C141.001 14.1984 141.318 13.4368 141.88 12.8747C142.442 12.3126 143.204 11.9957 143.999 11.9934C144.592 11.9934 145.172 12.17 145.666 12.4997C146.159 12.8293 146.543 13.2968 146.77 13.845C146.997 14.3931 147.057 14.9974 146.941 15.5793C146.825 16.1612 146.54 16.6949 146.12 17.1144C145.701 17.5339 145.166 17.8189 144.584 17.9347C144.002 18.0504 143.399 17.993 142.851 17.7659C142.303 17.5389 141.834 17.1531 141.504 16.6597C141.175 16.1664 140.999 15.5867 140.999 14.9934V14.9934ZM147.661 8.43338L150.181 8.42635H150.559V11.3185H147.679L147.661 8.43338Z" fill="white"/>
<path fill-rule="evenodd" clip-rule="evenodd" d="M58 30C66.2812 30 73 23.2852 73 15C73 6.71484 66.2812 0 58 0C49.7188 0 43 6.71484 43 15C43 23.2852 49.7188 30 58 30ZM49.3047 7.39844L49.0547 7.04102C49.0625 7.0293 50.2734 7.02539 51.7422 7.03711L54.4219 7.05469L56.6875 10.1035L58.9609 13.1484L60.8281 11.1191L63.6406 8.0625L64.5859 7.04102L65.3906 7.03711H66.1953L65.7578 7.50781C64.2188 9.15625 59.6953 14.0859 59.6953 14.1113L61.25 16.2305L63.3984 19.1113L65.4844 21.9043L66.9922 23.9512C67.0078 23.9922 66.5547 24 64.3359 24H61.6562L59.9141 21.6602L57.4297 18.3223L56.6875 17.3301L56.6016 17.4375L53.7969 20.4844L50.8281 23.707L50.5703 23.9922L49.7812 23.9961C49.3203 24 49 23.9844 49.0078 23.9668C49.0078 23.9473 50.5234 22.3027 52.3594 20.3066L55.8359 16.5293L55.9766 16.375L53.8438 13.5117L50.375 8.85547L49.3047 7.39844ZM58.3906 14.3516L55.3906 10.3223L53.7969 8.18555H52.5781L51.5156 8.19922C51.4062 8.20703 51.375 8.2168 51.3828 8.23047L59.8203 19.5625L62.2422 22.8145H63.4609C64.4141 22.8145 64.6797 22.8027 64.6562 22.7695L62.2109 19.4824L58.3906 14.3516Z" fill="white"/>
</svg>
