<svg width="24" height="22" viewBox="0 0 24 22" fill="none" xmlns="http://www.w3.org/2000/svg">
<path d="M11.509 0.861182L8.62386 6.53395C8.37145 7.03051 7.89093 7.36834 7.34252 7.44707L7.343 7.447L7.23563 6.70473L7.34196 7.44715L11.509 0.861182ZM11.509 0.861182C11.5441 0.792084 11.6101 0.75 11.7012 0.75C11.7922 0.75 11.8578 0.792034 11.8928 0.860814L11.8929 0.860943M11.509 0.861182L11.8929 0.860943M11.8929 0.860943L14.7782 6.5341L14.7786 6.53488M11.8929 0.860943L14.7786 6.53488M14.7786 6.53488C15.0314 7.03057 15.5115 7.36844 16.0602 7.44711C16.0603 7.44712 16.0604 7.44714 16.0605 7.44715L22.4738 8.37484L22.4738 8.37485M14.7786 6.53488L22.4738 8.37485M22.4738 8.37485C22.5691 8.38863 22.621 8.44312 22.6425 8.50767C22.6538 8.54156 22.6546 8.57415 22.6483 8.60138C22.6428 8.62557 22.6296 8.65596 22.5942 8.68993L17.9636 13.1231C17.9635 13.1232 17.9634 13.1233 17.9632 13.1234C17.5605 13.5087 17.3721 14.0674 17.4675 14.6198L17.4675 14.6198M22.4738 8.37485L17.4675 14.6198M17.4675 14.6198L18.5465 20.866L18.5466 20.8664M17.4675 14.6198L18.5466 20.8664M18.5466 20.8664C18.5584 20.9348 18.5355 20.9953 18.469 21.0425C18.4013 21.0905 18.3176 21.1012 18.2343 21.0587C18.2342 21.0587 18.2342 21.0587 18.2342 21.0587L12.4868 18.1259L18.5466 20.8664ZM10.9152 18.1259L10.9157 18.1257C11.4085 17.8746 11.9938 17.8743 12.4867 18.1259H10.9152ZM10.9152 18.1259L5.16776 21.0587M10.9152 18.1259L5.16776 21.0587M5.16776 21.0587C5.16774 21.0587 5.16771 21.0587 5.16769 21.0587C5.08436 21.1012 5.00082 21.0905 4.93317 21.0425C4.86678 20.9954 4.84359 20.9346 4.85543 20.866M5.16776 21.0587L4.85543 20.866M4.85543 20.866C4.85543 20.866 4.85544 20.866 4.85544 20.866L4.85543 20.866ZM5.43885 13.1231L4.92056 13.6652L5.43922 13.1235L5.43885 13.1231Z" stroke="#AFAFAF" stroke-width="1.5"/>
</svg>
