<svg width="24" height="22" viewBox="0 0 24 22" fill="none" xmlns="http://www.w3.org/2000/svg">
<path d="M11.8928 0.860814L11.8929 0.860943L14.7782 6.5341L14.7786 6.53487C15.0313 7.03034 15.511 7.36812 16.0594 7.447C16.0595 7.447 16.0595 7.44701 16.0595 7.44701C16.0598 7.44706 16.0601 7.4471 16.0605 7.44715L22.4738 8.37484L22.4738 8.37485C22.5691 8.38863 22.621 8.44312 22.6425 8.50767C22.6538 8.54156 22.6546 8.57415 22.6483 8.60138C22.6428 8.62557 22.6296 8.65596 22.5942 8.68993L17.9636 13.1231C17.9635 13.1232 17.9634 13.1233 17.9632 13.1234C17.5605 13.5087 17.3721 14.0674 17.4675 14.6198L17.4675 14.6198L18.5465 20.866L18.5466 20.8664C18.5584 20.9348 18.5355 20.9953 18.469 21.0425C18.4013 21.0906 18.3175 21.1012 18.2342 21.0587L12.4868 18.1259C11.9938 17.8743 11.4085 17.8746 10.9157 18.1257L10.9152 18.1259L5.16776 21.0587C5.16774 21.0587 5.16771 21.0587 5.16769 21.0587C5.08436 21.1012 5.00082 21.0905 4.93317 21.0425C4.86678 20.9954 4.84359 20.9346 4.85543 20.866C4.85543 20.866 4.85544 20.866 4.85544 20.866L5.9344 14.6198L5.93441 14.6198C6.02966 14.0683 5.84252 13.5093 5.43922 13.1235C5.43919 13.1234 5.43917 13.1234 5.43914 13.1234C5.43904 13.1233 5.43895 13.1232 5.43885 13.1231L0.808143 8.6898L0.808059 8.68972C0.772532 8.65571 0.759379 8.62536 0.753868 8.60128C0.747662 8.57416 0.748465 8.54164 0.759729 8.50778C0.781201 8.44325 0.833182 8.38865 0.928621 8.37485L0.92866 8.37484L7.34196 7.44715C7.34226 7.44711 7.34256 7.44706 7.34286 7.44702C7.34291 7.44701 7.34295 7.44701 7.343 7.447C7.89116 7.36815 8.37143 7.03043 8.62379 6.53409C8.62381 6.53405 8.62384 6.534 8.62386 6.53395L11.509 0.861182C11.5441 0.792084 11.6101 0.75 11.7012 0.75C11.7922 0.75 11.8578 0.792034 11.8928 0.860814Z" stroke="#AFAFAF" stroke-width="1.5"/>
</svg>
