<svg width="36" height="35" viewBox="0 0 36 35" fill="none" xmlns="http://www.w3.org/2000/svg">
<g opacity="0.9">
<rect x="0.77832" y="0.618164" width="33.8884" height="33.7637" rx="16.8818" stroke="#05164D" stroke-width="1.23633"/>
<g clip-path="url(#clip0_1098_2031)">
<path fill-rule="evenodd" clip-rule="evenodd" d="M16.1714 11.0542C16.5496 10.676 17.1628 10.676 17.541 11.0542L23.1905 16.7036C23.3721 16.8853 23.4742 17.1316 23.4742 17.3885C23.4742 17.6453 23.3721 17.8916 23.1905 18.0733L17.541 23.7227C17.1628 24.101 16.5496 24.101 16.1714 23.7227C15.7932 23.3445 15.7932 22.7313 16.1714 22.3531L20.1676 18.3569H11.2068C10.6719 18.3569 10.2383 17.9233 10.2383 17.3885C10.2383 16.8536 10.6719 16.42 11.2068 16.42H20.1676L16.1714 12.4238C15.7932 12.0456 15.7932 11.4324 16.1714 11.0542Z" fill="#05164D"/>
</g>
</g>
<defs>
<clipPath id="clip0_1098_2031">
<rect width="28.3626" height="28.3626" fill="white" transform="translate(2.67578 3.20679)"/>
</clipPath>
</defs>
</svg>
