<svg width="76" height="76" viewBox="0 0 76 76" fill="none" xmlns="http://www.w3.org/2000/svg">
<circle cx="38" cy="38" r="38" fill="#EDEDED"/>
<path d="M50.099 50.6515L37.6016 57.0089V44.2939L50.099 50.6515Z" fill="black"/>
<path d="M24.8035 37.7392L37.4401 31.3255L24.8035 24.8838H24.7754L12.1113 31.3255L12 31.3818V44.1529L12.0838 44.2091H12.1113L24.7754 50.6509H24.8035V50.679L37.4401 57.1208L37.607 57.0083V57.2052L50.4106 63.7033V50.8197L50.1042 50.6509L37.607 44.2935L37.4401 44.2091L24.8035 37.7954L24.7754 37.7674L24.8035 37.7392Z" fill="#FFAD00"/>
<path d="M37.6083 18.5256V31.2405L37.4413 31.3248L24.8047 24.883V24.8549L37.4413 18.4131L37.6083 18.5256Z" fill="#FFAD00"/>
<path d="M37.4413 18.4137L24.8047 12V24.8836L37.4413 31.3253L37.6083 31.241V31.4098L50.1054 37.7672L37.6083 44.1246V44.2934L50.1054 50.6508L50.4118 50.5102L62.7703 44.209L63.2153 43.984V31.5504L62.7703 31.3254L50.4118 25.0243L50.1054 24.8836L37.6083 18.5262L37.4413 18.4137Z" fill="black"/>
<path d="M63.2139 43.9838V31.5503L62.7686 31.3252L50.4256 37.5906V37.5884L50.1016 37.7686L50.4256 37.9445L62.7686 44.2088L63.2139 43.9838Z" fill="#132B7A"/>
<path d="M50.4051 25.0244V37.5986L50.099 37.7674L37.6016 31.41V31.2412L50.099 24.8838L50.4051 25.0244Z" fill="#132B7A"/>
<path d="M37.4413 31.3256L24.8047 37.7393V24.8838L37.4413 31.3256Z" fill="#D99913"/>
<path d="M24.7757 37.767L12.1113 44.2088H12.0835L12 44.1526V31.3815L12.1113 31.3252L24.7757 37.767Z" fill="#D99913"/>
<path d="M24.7938 37.7957V50.6511H24.7659L12.1016 44.2094L24.7659 37.7676L24.7938 37.7957Z" fill="#FFAD00"/>
<path d="M37.6083 44.2934V57.0083L37.4413 57.1207L24.8047 50.679V50.6508L37.4413 44.209L37.6083 44.2934Z" fill="#FFAD00"/>
<path d="M50.4051 50.8202V63.7038L37.6016 57.2057V57.0088L50.099 50.6514L50.4051 50.8202Z" fill="#FFAD00"/>
<path d="M37.4413 44.2105L24.8047 50.6524V37.7969L37.4413 44.2105Z" fill="#D99913"/>
<path d="M50.099 50.6515L37.6016 57.0089V44.2939L50.099 50.6515Z" fill="#D99913"/>
<path d="M50.4051 37.9363V50.5105L50.099 50.6511L37.6016 44.2937V44.125L50.099 37.7676L50.4051 37.9363Z" fill="#05164D"/>
<path d="M62.7724 44.2087L50.4141 50.5097V37.9355L62.7724 44.2087Z" fill="#132B7A"/>
<path d="M24.7938 24.8838V37.7393L24.7659 37.7674L12.1016 31.3256L24.7659 24.8838H24.7938Z" fill="#FFAD00"/>
<path d="M37.6083 18.5256V31.2405L37.4413 31.3249L24.8047 24.8831V24.8549L37.4413 18.4131L37.6083 18.5256Z" fill="#FFAD00"/>
<path d="M37.6083 18.5256V31.2405L37.4413 31.3249L24.8047 24.8831V24.8549L37.4413 18.4131L37.6083 18.5256Z" fill="#132B7A"/>
<path d="M62.7724 31.3246L50.4141 37.5978V25.0234L62.7724 31.3246Z" fill="#05164D"/>
<path d="M50.099 24.8828L37.6016 31.2402V18.5254L50.099 24.8828Z" fill="#05164D"/>
<path d="M37.4413 18.4137L24.8047 24.8555V12L37.4413 18.4137Z" fill="#05164D"/>
</svg>
