<svg width="70" height="11" viewBox="0 0 70 11" fill="none" xmlns="http://www.w3.org/2000/svg">
<g clip-path="url(#clip0_513_2761)">
<path d="M4.36123 3.72412C4.36123 3.72412 3.79019 3.66835 3.79019 4.16784V6.38645H7.56119V7.05227C7.56119 7.05227 7.57245 7.38494 7.21837 7.38494H3.79019V10.2694H7.90401C7.90401 10.2694 10.3948 9.892 10.4178 7.38494V3.72412H4.36123ZM10.3032 0.173859H2.87585C0.19011 0.794973 0.133301 2.9583 0.133301 2.9583V10.2694H2.99044V3.61307C2.99044 3.04724 3.56148 2.94772 3.56148 2.94772H10.3037V0.173859H10.3032ZM20.1088 8.1772C19.9129 8.30556 19.768 8.39978 19.6656 8.45988C19.2993 8.68246 18.9501 8.85408 18.6264 8.99109C18.1577 9.17954 17.7399 9.27377 17.3653 9.27377C16.0788 9.27377 15.0136 8.88821 14.1526 8.10845C13.2916 7.3287 12.8665 6.35232 12.8665 5.17018C12.8665 4.03083 13.25 3.04531 14.0253 2.20546C14.8005 1.36609 15.7379 0.954579 16.8457 0.954579C17.306 0.954579 17.7997 1.0315 18.311 1.19495C18.9756 1.40022 19.5123 1.70886 19.9384 2.11124L19.1969 2.91647C18.882 2.61697 18.4731 2.39391 17.9956 2.2569C17.6381 2.15402 17.2463 2.10306 16.8114 2.10306C16.0361 2.10306 15.3799 2.41074 14.8603 3.01935C14.3407 3.63614 14.0767 4.36446 14.0767 5.22114C14.0767 6.06964 14.3745 6.76335 14.971 7.32052C15.5675 7.87722 16.3256 8.15989 17.2458 8.15989C17.6293 8.15989 18.0215 8.03971 18.4217 7.80895C18.7542 7.56041 18.9246 7.44023 18.933 7.43157V5.67544H16.4451L16.8026 4.57887H20.1088V8.1772ZM27.6239 6.03503C27.6239 6.88305 27.3173 7.62002 26.7037 8.23681C26.09 8.8536 25.3319 9.17089 24.4288 9.17089C23.5938 9.17089 22.8612 8.86225 22.2304 8.25412C21.5996 7.64598 21.293 6.90901 21.293 6.04368C21.293 5.187 21.5918 4.45003 22.1878 3.81594C22.7838 3.18184 23.5169 2.87369 24.3774 2.87369C25.3319 2.87369 26.1072 3.17367 26.712 3.7818C27.3173 4.37311 27.6239 5.12691 27.6239 6.03503ZM26.4563 6.05233C26.4563 5.47833 26.2604 4.9899 25.8687 4.5957C25.4769 4.19284 24.991 3.99573 24.4117 3.99573C23.8666 3.99573 23.4062 4.20149 23.0228 4.613C22.6393 5.02403 22.4517 5.49516 22.4517 6.02637C22.4517 6.58355 22.6476 7.05468 23.0311 7.44888C23.4146 7.84309 23.8921 8.04836 24.4709 8.04836C25.0082 8.04836 25.468 7.85126 25.8603 7.45705C26.2604 7.06285 26.4568 6.59172 26.4568 6.05233H26.4563ZM35.0366 6.03503C35.0366 6.88305 34.73 7.62002 34.1164 8.23681C33.5027 8.8536 32.7446 9.17089 31.8415 9.17089C31.0065 9.17089 30.2739 8.86225 29.6431 8.25412C29.0128 7.64598 28.7057 6.90901 28.7057 6.04368C28.7057 5.187 29.0045 4.45003 29.6005 3.81594C30.197 3.18184 30.9296 2.87369 31.7901 2.87369C32.7446 2.87369 33.5199 3.17367 34.1247 3.7818C34.73 4.37311 35.0366 5.12691 35.0366 6.03503ZM33.869 6.05233C33.869 5.47833 33.6732 4.9899 33.2814 4.5957C32.8896 4.19284 32.4037 3.99573 31.8244 3.99573C31.2793 3.99573 30.8189 4.20149 30.4355 4.613C30.052 5.02403 29.8644 5.49516 29.8644 6.02637C29.8644 6.58355 30.0603 7.05468 30.4443 7.44888C30.8273 7.84309 31.3048 8.04836 31.8841 8.04836C32.4209 8.04836 32.8808 7.85126 33.273 7.45705C33.6732 7.06285 33.8695 6.59172 33.8695 6.05233H33.869ZM41.8959 8.99926L40.8224 9.16224V8.14259L40.5922 8.3993C40.3894 8.58575 40.1597 8.74176 39.9105 8.86225C39.5447 9.02788 39.1463 9.11273 38.7434 9.1108C37.9084 9.1108 37.1924 8.81081 36.6131 8.2022C36.0337 7.59358 35.7443 6.8744 35.7443 6.03503C35.7443 5.1697 36.0337 4.42455 36.6047 3.80728C37.1758 3.19001 37.8741 2.88186 38.7092 2.88186C39.1866 2.88186 39.6039 2.95878 39.9531 3.1131C40.2004 3.22463 40.4134 3.37029 40.5922 3.55057C40.652 3.62749 40.7117 3.71306 40.7714 3.78998V1.11707L41.9125 0.954098L41.8959 8.99926ZM40.8905 6.11195C40.8905 5.51247 40.6857 5.00673 40.2685 4.5957C39.8512 4.17553 39.3821 3.97025 38.8458 3.97025C38.2493 3.97025 37.7723 4.16736 37.406 4.56156C37.0646 4.93798 36.8858 5.40093 36.8858 5.9408C36.8858 6.54894 37.0646 7.05419 37.4226 7.4484C37.7801 7.84261 38.2321 8.03971 38.786 8.03971C39.3311 8.03971 39.8086 7.85991 40.2347 7.49167C40.6691 7.11429 40.8909 6.65182 40.8909 6.11195H40.8905ZM47.9197 2.23142H44.7246V4.36446H47.2037V5.46103H44.7246V8.99109L43.4807 9.17089V1.12572H47.6724L47.9197 2.23142ZM50.4845 1.6055L49.7175 2.5564L48.9849 1.6055L49.7601 0.663251L50.4845 1.6055ZM50.2543 8.99926L49.1127 9.15358V3.19915L50.2543 3.02801V8.99975V8.99926ZM55.4093 2.96791L54.8725 4.18418C54.802 4.17363 54.7308 4.16801 54.6595 4.16736C54.5488 4.16736 54.4381 4.17601 54.327 4.19284C54.2158 4.20966 54.0968 4.25293 53.9695 4.31302C53.731 4.4159 53.5262 4.63848 53.3475 4.9726C53.1497 5.35179 53.0472 5.77198 53.0487 6.198V8.99109L51.9076 9.17089V3.19915L52.964 3.0107V4.25293C53.1002 4.03852 53.2451 3.82459 53.3813 3.60201C53.5772 3.37895 53.8074 3.21646 54.063 3.12175C54.1991 3.07079 54.4465 3.02752 54.8211 2.99339C55.1791 2.96791 55.3838 2.95061 55.4093 2.96791ZM63.9122 8.99926L62.7706 9.16224V5.07547C62.7706 4.69809 62.6854 4.42407 62.5149 4.25293C62.3445 4.0813 62.0889 3.99573 61.7563 3.99573C61.3562 3.99573 61.0491 4.1587 60.8449 4.48416C60.7083 4.70675 60.6319 4.94664 60.6319 5.18652V8.99061L59.4903 9.19637V5.10095C59.4903 4.74136 59.4051 4.46686 59.243 4.27889C59.0725 4.08996 58.8512 3.99573 58.5613 3.99573H58.4506C58.05 3.99573 57.76 4.1587 57.5813 4.49282C57.4451 4.74136 57.3771 5.05817 57.3771 5.44372V8.99061L56.1929 9.19637V3.19915L57.2576 3.01935V3.7818C57.3771 3.60153 57.4961 3.45586 57.6072 3.35347C57.9138 3.07079 58.2718 2.9333 58.6719 2.9333C59.1235 2.9333 59.4555 3.00205 59.6857 3.14771C59.8816 3.26789 60.0692 3.5073 60.2567 3.85007C60.6485 3.24193 61.2024 2.9333 61.9356 2.9333C62.6339 2.9333 63.154 3.14771 63.4944 3.5847C63.776 3.94429 63.9122 4.47551 63.9122 5.1697V8.99926ZM69.1279 7.19169C69.1279 7.73973 68.932 8.19403 68.5402 8.54545C68.1484 8.90504 67.6538 9.07666 67.0573 9.07666C66.6057 9.07666 66.2051 8.97379 65.8388 8.76803C65.4725 8.56275 65.2002 8.33104 65.0209 8.05702L65.8221 7.35466C65.8814 7.44023 65.9328 7.50849 65.9838 7.55993C66.2825 7.85991 66.64 8.01423 67.0573 8.01423C67.3472 8.01423 67.5774 7.93731 67.739 7.79165C67.9094 7.64598 67.9863 7.44023 67.9863 7.17438C67.9863 6.87488 67.7904 6.66912 67.3986 6.55759C66.6229 6.32636 66.2051 6.198 66.1459 6.17204C65.7879 5.99224 65.5322 5.80379 65.3701 5.58938C65.1914 5.34084 65.0978 5.01538 65.0978 4.5957C65.0978 4.08131 65.2937 3.65345 65.6772 3.31068C66.0606 2.96791 66.5205 2.80494 67.0485 2.80494C67.4496 2.80494 67.8242 2.89051 68.1651 3.07079C68.5059 3.25059 68.7528 3.43904 68.8977 3.6621L68.216 4.38994C68.1136 4.28933 68.0025 4.19765 67.8839 4.11592C67.6112 3.92747 67.3472 3.83324 67.1004 3.83324C66.8614 3.83324 66.6655 3.88468 66.5122 3.98708C66.3329 4.11592 66.2394 4.30437 66.2394 4.55291C66.2394 4.7928 66.3246 4.97259 66.5039 5.08413C66.6572 5.17835 66.9809 5.28123 67.4922 5.39228C68.003 5.51246 68.3952 5.71822 68.6763 6.00955C68.9917 6.3177 69.1279 6.70326 69.1279 7.19169Z" fill="white"/>
</g>
<defs>
<clipPath id="clip0_513_2761">
<rect width="69.0533" height="10.0955" fill="white" transform="translate(0.147461 0.174805)"/>
</clipPath>
</defs>
</svg>
