<svg width="62" height="38" viewBox="0 0 62 38" fill="none" xmlns="http://www.w3.org/2000/svg">
<g opacity="0.9">
<path d="M53.676 22.6696H53.0349V23.7827H52.2882V22.6696H50.1254V22.0779L52.2811 18.7316H53.0349V22.0356H53.676V22.6696ZM52.2882 20.6689C52.2882 20.5562 52.2882 20.4482 52.2882 20.3449C52.2929 20.2415 52.2976 20.1429 52.3023 20.049C52.307 19.9504 52.3093 19.8611 52.3093 19.7813C52.314 19.6967 52.3187 19.6216 52.3234 19.5558H52.2952C52.2576 19.6498 52.213 19.7461 52.1614 19.8447C52.1144 19.9433 52.0674 20.0302 52.0205 20.1053L50.8369 22.0356H52.2882V20.6689ZM54.2259 23.3671C54.2259 23.1839 54.2705 23.0548 54.3598 22.9796C54.4537 22.9045 54.5688 22.8669 54.705 22.8669C54.8365 22.8669 54.9492 22.9045 55.0431 22.9796C55.1417 23.0548 55.1911 23.1839 55.1911 23.3671C55.1911 23.5502 55.1417 23.6817 55.0431 23.7616C54.9492 23.8414 54.8365 23.8813 54.705 23.8813C54.5688 23.8813 54.4537 23.8414 54.3598 23.7616C54.2705 23.6817 54.2259 23.5502 54.2259 23.3671ZM57.5214 18.6823C57.8032 18.6823 58.0521 18.7293 58.2681 18.8232C58.4889 18.9124 58.6603 19.0463 58.7824 19.2247C58.9092 19.4032 58.9726 19.6263 58.9726 19.894C58.9726 20.0959 58.9327 20.2721 58.8529 20.4224C58.7777 20.5726 58.672 20.7065 58.5358 20.8239C58.4043 20.9366 58.2587 21.0353 58.0991 21.1198C58.2822 21.2184 58.4513 21.3311 58.6063 21.4579C58.7613 21.58 58.8857 21.7233 58.9797 21.8877C59.0783 22.052 59.1276 22.2493 59.1276 22.4794C59.1276 22.7612 59.0619 23.0054 58.9303 23.2121C58.8035 23.414 58.6204 23.5714 58.3809 23.6841C58.1413 23.7968 57.8572 23.8532 57.5284 23.8532C57.1762 23.8532 56.878 23.7992 56.6338 23.6911C56.3942 23.5831 56.2134 23.4305 56.0913 23.2332C55.9692 23.0313 55.9081 22.7871 55.9081 22.5006C55.9081 22.2704 55.9504 22.0708 56.0349 21.9018C56.1242 21.7327 56.2392 21.5871 56.3801 21.465C56.5257 21.3429 56.6854 21.2396 56.8592 21.155C56.7089 21.0611 56.5727 20.9554 56.4506 20.838C56.3285 20.7159 56.2322 20.5773 56.1618 20.4224C56.096 20.2674 56.0631 20.0889 56.0631 19.887C56.0631 19.6239 56.1265 19.4056 56.2533 19.2318C56.3801 19.0533 56.5539 18.9171 56.7746 18.8232C56.9954 18.7293 57.2443 18.6823 57.5214 18.6823ZM56.6408 22.4865C56.6408 22.7166 56.7136 22.9068 56.8592 23.0571C57.0048 23.2027 57.2232 23.2755 57.5143 23.2755C57.7116 23.2755 57.8736 23.2426 58.0004 23.1769C58.1272 23.1064 58.2235 23.0125 58.2893 22.8951C58.3597 22.773 58.3949 22.6344 58.3949 22.4794C58.3949 22.3244 58.3574 22.1882 58.2822 22.0708C58.2071 21.9534 58.1038 21.8501 57.9723 21.7609C57.8455 21.6669 57.6999 21.5824 57.5355 21.5073L57.4439 21.465C57.2748 21.5448 57.1292 21.6341 57.0071 21.7327C56.8897 21.8313 56.7981 21.9417 56.7324 22.0638C56.6713 22.1859 56.6408 22.3268 56.6408 22.4865ZM57.5073 19.267C57.3007 19.267 57.1292 19.3234 56.993 19.4361C56.8615 19.5488 56.7958 19.7132 56.7958 19.9292C56.7958 20.0842 56.8287 20.2157 56.8944 20.3237C56.9649 20.4318 57.0541 20.5257 57.1621 20.6055C57.2748 20.6807 57.3969 20.7535 57.5284 20.8239C57.6599 20.7582 57.7774 20.6877 57.8807 20.6126C57.9887 20.5327 58.0732 20.4388 58.1343 20.3308C58.2 20.2181 58.2329 20.0842 58.2329 19.9292C58.2329 19.7132 58.1648 19.5488 58.0286 19.4361C57.8971 19.3234 57.7233 19.267 57.5073 19.267Z" fill="#16313B"/>
<path d="M12.4609 11.9045H14.5149V24.4969H12.4609V11.9045Z" fill="#16313B"/>
<path d="M21.6729 20.5065C21.6729 22.4574 20.0654 22.6348 19.5296 22.6348C18.2794 22.6348 18.1008 21.482 18.1008 20.8612V15.9839H16.0469V20.7725C16.0469 21.9254 16.4041 22.9895 17.1185 23.6102C17.7436 24.231 18.5473 24.497 19.5296 24.497C20.244 24.497 21.1371 24.3197 21.6729 23.7876V24.497H23.7268V15.9839H21.6729V20.5065Z" fill="#16313B"/>
<path d="M27.7361 12.8801H25.6822V15.9839H24.1641V17.9348H25.6822V24.497H27.7361V17.9348H29.2542V15.9839H27.7361V12.8801Z" fill="#16313B"/>
<path d="M35.6975 21.9252C35.251 22.2799 34.6259 22.546 34.0008 22.546C32.5719 22.546 31.5896 21.4818 31.5896 20.063C31.5896 18.6441 32.5719 17.6686 34.0008 17.6686C34.6259 17.6686 35.251 17.846 35.6975 18.2894L35.9654 18.5554L37.3942 17.2253L37.037 16.9592C36.2333 16.2498 35.1617 15.8064 34.0008 15.8064C31.5003 15.8064 29.625 17.6686 29.625 20.1516C29.625 22.6346 31.5003 24.4969 34.0008 24.4969C35.1617 24.4969 36.2333 24.0535 37.037 23.3441L37.3942 23.078L35.9654 21.6592L35.6975 21.9252Z" fill="#16313B"/>
<path d="M44.6183 16.6932C43.9932 16.0724 43.3681 15.8064 42.3857 15.8064C41.6713 15.8064 40.9569 15.9838 40.4211 16.5158V11.9045H38.3672V24.4969H40.4211V19.7969C40.4211 17.846 41.7606 17.6686 42.2964 17.6686C43.5467 17.6686 43.4574 18.8215 43.4574 19.4422V24.4082H45.5113V19.5309C45.5113 18.3781 45.2434 17.3139 44.6183 16.6932Z" fill="#16313B"/>
<path d="M33.9054 21.5701C34.6945 21.5701 35.3342 20.9349 35.3342 20.1513C35.3342 19.3677 34.6945 18.7324 33.9054 18.7324C33.1163 18.7324 32.4766 19.3677 32.4766 20.1513C32.4766 20.9349 33.1163 21.5701 33.9054 21.5701Z" fill="#16313B"/>
<path d="M9.61091 21.3933C8.8965 22.1027 7.82488 22.5461 6.66396 22.5461C4.43143 22.5461 2.82401 20.7726 2.82401 18.3782C2.82401 15.9839 4.43143 14.2104 6.75326 14.2104C7.82488 14.2104 8.8965 14.6537 9.70021 15.4519L9.96811 15.7179L11.3076 14.3877L11.0397 14.1217C9.87881 12.9689 8.36069 12.3481 6.75326 12.3481C3.35981 12.2594 0.859375 14.9198 0.859375 18.3782C0.859375 21.8367 3.35981 24.4971 6.66396 24.4971C8.27139 24.4971 9.87881 23.8763 10.9504 22.7235L11.2183 22.4575L9.87881 21.1273L9.61091 21.3933Z" fill="#16313B"/>
<path d="M17.6931 29.4485L16.8215 31.21C16.7771 31.2996 16.7116 31.3772 16.6305 31.4359C16.5495 31.4947 16.4553 31.5329 16.3561 31.5473L14.4078 31.8298C14.3165 31.843 14.2307 31.8814 14.1601 31.9408C14.0896 32.0001 14.0371 32.0779 14.0085 32.1654C13.98 32.253 13.9767 32.3467 13.9988 32.4361C14.021 32.5254 14.0678 32.6068 14.1339 32.671L15.5443 34.0423C15.6159 34.112 15.6695 34.1979 15.7004 34.2929C15.7314 34.3878 15.7388 34.4887 15.7219 34.5871L15.389 36.5235C15.3735 36.6141 15.3838 36.7073 15.4186 36.7924C15.4534 36.8776 15.5114 36.9513 15.5861 37.0053C15.6607 37.0592 15.749 37.0913 15.8409 37.0979C15.9329 37.1044 16.0248 37.0852 16.1064 37.0424L17.8492 36.1283C17.9379 36.0818 18.0366 36.0575 18.1368 36.0575C18.237 36.0575 18.3356 36.0818 18.4243 36.1283L20.1671 37.0424C20.2487 37.0852 20.3407 37.1044 20.4326 37.0979C20.5246 37.0913 20.6128 37.0592 20.6875 37.0053C20.7621 36.9513 20.8201 36.8776 20.8549 36.7924C20.8897 36.7073 20.9 36.6141 20.8845 36.5235L20.5516 34.5871C20.5348 34.4887 20.5421 34.3878 20.5731 34.2928C20.604 34.1979 20.6576 34.1119 20.7293 34.0423L22.1396 32.671C22.2058 32.6068 22.2525 32.5254 22.2747 32.4361C22.2969 32.3467 22.2935 32.253 22.265 32.1654C22.2365 32.0779 22.184 32.0001 22.1134 31.9408C22.0428 31.8814 21.957 31.843 21.8657 31.8298L19.9166 31.5473C19.8175 31.5329 19.7233 31.4947 19.6422 31.4359C19.5612 31.3772 19.4956 31.2996 19.4513 31.21L18.5796 29.4485C18.5388 29.366 18.4757 29.2965 18.3973 29.2479C18.319 29.1993 18.2286 29.1736 18.1364 29.1736C18.0441 29.1736 17.9537 29.1993 17.8754 29.2479C17.7971 29.2965 17.7339 29.366 17.6931 29.4485Z" fill="#16313B"/>
<path d="M30.7799 29.4477L29.9082 31.2092C29.8638 31.2988 29.7983 31.3764 29.7172 31.4351C29.6362 31.4939 29.542 31.5321 29.4428 31.5465L27.4937 31.829C27.4024 31.8422 27.3166 31.8807 27.2461 31.94C27.1755 31.9993 27.123 32.0771 27.0945 32.1646C27.066 32.2522 27.0626 32.3459 27.0848 32.4353C27.1069 32.5246 27.1537 32.606 27.2198 32.6702L28.6302 34.0415C28.7018 34.1112 28.7554 34.1972 28.7864 34.2921C28.8173 34.387 28.8247 34.488 28.8079 34.5863L28.4749 36.5227C28.4595 36.6133 28.4697 36.7065 28.5046 36.7916C28.5394 36.8768 28.5974 36.9505 28.672 37.0045C28.7466 37.0584 28.8349 37.0905 28.9269 37.0971C29.0188 37.1037 29.1108 37.0844 29.1923 37.0416L30.9351 36.1275C31.0238 36.081 31.1225 36.0567 31.2227 36.0567C31.3229 36.0567 31.4216 36.081 31.5103 36.1275L33.2531 37.0416C33.3346 37.0844 33.4266 37.1037 33.5185 37.0971C33.6105 37.0905 33.6988 37.0584 33.7734 37.0045C33.848 36.9505 33.906 36.8768 33.9409 36.7916C33.9757 36.7065 33.9859 36.6133 33.9705 36.5227L33.6375 34.5863C33.6207 34.488 33.6281 34.387 33.659 34.2921C33.69 34.1971 33.7436 34.1111 33.8152 34.0415L35.2256 32.6702C35.2917 32.606 35.3385 32.5246 35.3606 32.4353C35.3828 32.3459 35.3794 32.2522 35.3509 32.1646C35.3224 32.0771 35.2699 31.9993 35.1993 31.94C35.1288 31.8807 35.043 31.8422 34.9517 31.829L33.0026 31.5465C32.9034 31.5321 32.8092 31.4939 32.7282 31.4351C32.6471 31.3764 32.5816 31.2988 32.5372 31.2092L31.6656 29.4477C31.6247 29.3654 31.5616 29.2961 31.4833 29.2477C31.4051 29.1992 31.3148 29.1736 31.2227 29.1736C31.1306 29.1736 31.0404 29.1992 30.9621 29.2477C30.8839 29.2961 30.8207 29.3654 30.7799 29.4477Z" fill="#16313B"/>
<path d="M43.8655 29.4485L42.9939 31.21C42.9495 31.2996 42.884 31.3772 42.8029 31.4359C42.7219 31.4947 42.6277 31.5329 42.5285 31.5473L40.5797 31.8298C40.4884 31.843 40.4026 31.8814 40.332 31.9408C40.2614 32.0001 40.2089 32.0779 40.1804 32.1654C40.1519 32.253 40.1486 32.3467 40.1707 32.4361C40.1929 32.5254 40.2396 32.6068 40.3058 32.671L41.7161 34.0423C41.7878 34.112 41.8414 34.1979 41.8723 34.2929C41.9032 34.3878 41.9106 34.4887 41.8938 34.5871L41.5609 36.5235C41.5454 36.6141 41.5557 36.7073 41.5905 36.7924C41.6253 36.8776 41.6833 36.9513 41.758 37.0053C41.8326 37.0592 41.9208 37.0913 42.0128 37.0979C42.1047 37.1044 42.1967 37.0852 42.2783 37.0424L44.0211 36.1283C44.1098 36.0818 44.2085 36.0575 44.3086 36.0575C44.4088 36.0575 44.5075 36.0818 44.5962 36.1283L46.339 37.0424C46.4206 37.0852 46.5125 37.1044 46.6045 37.0979C46.6964 37.0913 46.7847 37.0592 46.8593 37.0053C46.934 36.9513 46.992 36.8776 47.0268 36.7924C47.0616 36.7073 47.0719 36.6141 47.0564 36.5235L46.7235 34.5871C46.7066 34.4887 46.714 34.3878 46.745 34.2928C46.7759 34.1979 46.8295 34.1119 46.9011 34.0423L48.3115 32.671C48.3776 32.6068 48.4244 32.5254 48.4466 32.4361C48.4687 32.3467 48.4654 32.253 48.4369 32.1654C48.4084 32.0779 48.3558 32.0001 48.2853 31.9408C48.2147 31.8814 48.1289 31.843 48.0376 31.8298L46.0885 31.5473C45.9893 31.5329 45.8952 31.4947 45.8141 31.4359C45.733 31.3772 45.6675 31.2996 45.6232 31.21L44.752 29.4485C44.7112 29.366 44.6481 29.2965 44.5697 29.2479C44.4914 29.1993 44.401 29.1736 44.3088 29.1736C44.2165 29.1736 44.1261 29.1993 44.0478 29.2479C43.9695 29.2965 43.9063 29.366 43.8655 29.4485Z" fill="#16313B"/>
<path d="M57.8688 29.4489L58.7405 31.2104C58.7849 31.3 58.8504 31.3775 58.9315 31.4363C59.0125 31.4951 59.1067 31.5333 59.2059 31.5477L61.1547 31.8302C61.246 31.8434 61.3318 31.8818 61.4024 31.9411C61.4729 32.0004 61.5254 32.0783 61.554 32.1658C61.5825 32.2534 61.5858 32.3471 61.5637 32.4365C61.5415 32.5258 61.4947 32.6072 61.4286 32.6714L60.0182 34.0426C59.9466 34.1123 59.893 34.1983 59.8621 34.2932C59.8311 34.3881 59.8237 34.4891 59.8406 34.5875L60.1735 36.5239C60.189 36.6145 60.1787 36.7077 60.1439 36.7928C60.1091 36.8779 60.0511 36.9517 59.9764 37.0056C59.9018 37.0596 59.8135 37.0917 59.7216 37.0983C59.6296 37.1048 59.5377 37.0856 59.4561 37.0428L57.7133 36.1287C57.6246 36.0822 57.5259 36.0579 57.4257 36.0579C57.3255 36.0579 57.2269 36.0822 57.1382 36.1287L55.3954 37.0428C55.3138 37.0856 55.2218 37.1048 55.1299 37.0983C55.0379 37.0917 54.9497 37.0596 54.875 37.0056C54.8004 36.9517 54.7424 36.8779 54.7076 36.7928C54.6728 36.7077 54.6625 36.6145 54.678 36.5239L55.0109 34.5875C55.0277 34.4891 55.0204 34.3881 54.9894 34.2932C54.9585 34.1983 54.9049 34.1123 54.8332 34.0426L53.4229 32.6714C53.3567 32.6072 53.31 32.5258 53.2878 32.4365C53.2656 32.3471 53.269 32.2534 53.2975 32.1658C53.326 32.0783 53.3785 32.0004 53.4491 31.9411C53.5197 31.8818 53.6055 31.8434 53.6968 31.8302L55.6459 31.5477C55.745 31.5333 55.8392 31.4951 55.9203 31.4363C56.0013 31.3775 56.0669 31.3 56.1112 31.2104L56.9805 29.4489C57.0211 29.3659 57.0843 29.2959 57.1628 29.247C57.2414 29.1981 57.3321 29.1721 57.4247 29.1721C57.5173 29.1721 57.608 29.1981 57.6865 29.247C57.7651 29.2959 57.8282 29.3659 57.8688 29.4489Z" fill="#16313B"/>
<path d="M59.4561 37.0443L58.2692 36.4215V30.2583L58.7403 31.2105C58.7846 31.3002 58.8501 31.3777 58.9312 31.4365C59.0123 31.4952 59.1064 31.5334 59.2056 31.5478L61.1547 31.8304C61.246 31.8436 61.3318 31.882 61.4024 31.9413C61.4729 32.0006 61.5254 32.0784 61.554 32.166C61.5825 32.2535 61.5858 32.3473 61.5637 32.4366C61.5415 32.526 61.4947 32.6074 61.4286 32.6716L60.0182 34.0428C59.9466 34.1125 59.893 34.1985 59.8621 34.2934C59.8311 34.3883 59.8237 34.4893 59.8406 34.5877L60.1735 36.524C60.1893 36.6148 60.1792 36.7081 60.1445 36.7935C60.1098 36.8788 60.0518 36.9527 59.9771 37.0069C59.9025 37.061 59.8141 37.0932 59.722 37.0998C59.6299 37.1065 59.5378 37.0872 59.4561 37.0443Z" fill="#16313B"/>
<path d="M4.61579 29.4485L3.74413 31.2103C3.69979 31.2999 3.63426 31.3774 3.55319 31.4362C3.47212 31.495 3.37794 31.5332 3.27877 31.5476L1.32968 31.8301C1.23836 31.8433 1.15256 31.8817 1.08199 31.941C1.01143 32.0003 0.958927 32.0782 0.930422 32.1657C0.901917 32.2533 0.898552 32.347 0.920706 32.4364C0.94286 32.5257 0.989655 32.6071 1.05578 32.6713L2.46616 34.0425C2.53777 34.1122 2.59135 34.1982 2.6223 34.2931C2.65325 34.388 2.66063 34.489 2.64381 34.5874L2.31086 36.5238C2.2954 36.6144 2.30567 36.7076 2.34049 36.7927C2.37532 36.8778 2.43332 36.9516 2.50795 37.0055C2.58258 37.0595 2.67085 37.0916 2.7628 37.0982C2.85475 37.1047 2.9467 37.0855 3.02827 37.0427L4.77108 36.1286C4.85977 36.0821 4.95845 36.0578 5.05864 36.0578C5.15883 36.0578 5.25752 36.0821 5.34621 36.1286L7.08902 37.0427C7.17059 37.0855 7.26254 37.1047 7.35449 37.0982C7.44644 37.0916 7.53471 37.0595 7.60934 37.0055C7.68396 36.9516 7.74197 36.8778 7.7768 36.7927C7.81162 36.7076 7.82189 36.6144 7.80643 36.5238L7.47348 34.5874C7.45664 34.489 7.46401 34.388 7.49496 34.2931C7.5259 34.1982 7.5795 34.1122 7.65113 34.0425L9.06151 32.6713C9.12763 32.6071 9.17443 32.5257 9.19658 32.4364C9.21874 32.347 9.21536 32.2533 9.18686 32.1657C9.15835 32.0782 9.10585 32.0003 9.03529 31.941C8.96472 31.8817 8.87893 31.8433 8.7876 31.8301L6.83956 31.5473C6.74039 31.5329 6.64621 31.4947 6.56514 31.4359C6.48407 31.3772 6.41854 31.2996 6.3742 31.21L5.50254 29.4485C5.46176 29.3659 5.39862 29.2964 5.32026 29.2477C5.2419 29.1991 5.15145 29.1733 5.05916 29.1733C4.96687 29.1733 4.87642 29.1991 4.79806 29.2477C4.7197 29.2964 4.65656 29.3659 4.61579 29.4485Z" fill="#16313B"/>
<path d="M5.48587 29.4494L6.35754 31.2109C6.40188 31.3005 6.46741 31.3781 6.54848 31.4368C6.62954 31.4956 6.72372 31.5338 6.82289 31.5482L8.77197 31.8308C8.86329 31.8439 8.9491 31.8824 9.01966 31.9417C9.09022 32.001 9.14273 32.0788 9.17123 32.1664C9.19974 32.2539 9.2031 32.3476 9.18095 32.437C9.15879 32.5264 9.11201 32.6077 9.04588 32.6719L7.63551 34.0432C7.56389 34.1129 7.51031 34.1989 7.47936 34.2938C7.44842 34.3887 7.44103 34.4897 7.45784 34.588L7.79079 36.5244C7.80625 36.6151 7.796 36.7082 7.76117 36.7933C7.72634 36.8785 7.66834 36.9522 7.59371 37.0062C7.51909 37.0602 7.43081 37.0922 7.33886 37.0988C7.24692 37.1054 7.15496 37.0862 7.07338 37.0433L5.33058 36.1292C5.2419 36.0827 5.14321 36.0585 5.04302 36.0585C4.94283 36.0585 4.84414 36.0827 4.75546 36.1292L3.01265 37.0433C2.93107 37.0862 2.83911 37.1054 2.74717 37.0988C2.65522 37.0922 2.56695 37.0602 2.49233 37.0062C2.4177 36.9522 2.3597 36.8785 2.32487 36.7933C2.29004 36.7082 2.27977 36.6151 2.29523 36.5244L2.62819 34.588C2.64503 34.4897 2.63765 34.3887 2.60671 34.2938C2.57576 34.1989 2.52216 34.1129 2.45052 34.0432L1.04015 32.6719C0.974022 32.6077 0.927235 32.5264 0.905081 32.437C0.882927 32.3476 0.886292 32.2539 0.914797 32.1664C0.943302 32.0788 0.995808 32.001 1.06637 31.9417C1.13693 31.8824 1.22273 31.8439 1.31406 31.8308L3.26314 31.5482C3.36231 31.5338 3.45649 31.4956 3.53756 31.4368C3.61863 31.3781 3.68416 31.3005 3.7285 31.2109L4.60016 29.4494C4.64104 29.3671 4.70417 29.2978 4.78242 29.2494C4.86067 29.201 4.95093 29.1753 5.04302 29.1753C5.13511 29.1753 5.22537 29.201 5.30362 29.2494C5.38186 29.2978 5.44499 29.3671 5.48587 29.4494Z" fill="#16313B"/>
<path d="M3.85305 2.11529C4.18534 2.11529 4.45967 2.15972 4.67604 2.24859C4.89241 2.33746 5.05276 2.47076 5.15708 2.64849C5.26527 2.82236 5.31936 3.0426 5.31936 3.3092C5.31936 3.52171 5.28266 3.70138 5.20924 3.8482C5.1397 3.99116 5.04697 4.10901 4.93105 4.20174C4.819 4.29061 4.69729 4.36209 4.56592 4.41618L5.66131 6.25342H4.93105L4.00953 4.57846H3.3778V6.25342H2.73448V2.11529H3.85305ZM3.82407 2.64849H3.3778V4.05685H3.83566C4.02499 4.05685 4.17954 4.0298 4.29932 3.97571C4.42296 3.92161 4.51376 3.84047 4.57172 3.73229C4.63354 3.6241 4.66445 3.4908 4.66445 3.33238C4.66445 3.16624 4.63354 3.03487 4.57172 2.93828C4.51376 2.83782 4.42103 2.76441 4.29352 2.71804C4.16988 2.67167 4.0134 2.64849 3.82407 2.64849ZM7.32821 3.07158C7.69527 3.07158 7.97153 3.15851 8.15699 3.33238C8.34632 3.50239 8.44098 3.77093 8.44098 4.13799V6.25342H7.99471L7.873 5.81874H7.84982C7.76095 5.93079 7.67209 6.02352 7.58322 6.09693C7.49822 6.17035 7.39776 6.22444 7.28184 6.25921C7.16979 6.29399 7.0307 6.31137 6.86455 6.31137C6.69068 6.31137 6.5342 6.27853 6.3951 6.21285C6.256 6.1433 6.14588 6.03898 6.06474 5.89988C5.98361 5.75692 5.94304 5.57918 5.94304 5.36668C5.94304 5.04984 6.05509 4.80836 6.27919 4.64221C6.50715 4.47607 6.85296 4.38527 7.31662 4.36981L7.81505 4.35243V4.17856C7.81505 3.94673 7.76675 3.78445 7.67015 3.69172C7.57742 3.59899 7.44605 3.55262 7.27605 3.55262C7.13309 3.55262 6.99206 3.5758 6.85296 3.62217C6.71386 3.66853 6.57863 3.72456 6.44726 3.79024L6.256 3.34398C6.39896 3.2667 6.56124 3.20295 6.74284 3.15272C6.9283 3.09862 7.12343 3.07158 7.32821 3.07158ZM7.43833 4.76392C7.12149 4.77938 6.90126 4.83927 6.77762 4.94359C6.65397 5.04405 6.59215 5.18701 6.59215 5.37247C6.59215 5.53475 6.63466 5.6526 6.71966 5.72601C6.80853 5.79942 6.92251 5.83613 7.06161 5.83613C7.27411 5.83613 7.45185 5.76851 7.59481 5.63328C7.74163 5.49804 7.81505 5.2952 7.81505 5.02473V4.75233L7.43833 4.76392ZM10.4111 5.81294C10.4922 5.81294 10.5714 5.80522 10.6487 5.78976C10.726 5.77431 10.7936 5.75692 10.8515 5.7376V6.20126C10.7859 6.23217 10.6989 6.25728 10.5907 6.2766C10.4864 6.29978 10.3763 6.31137 10.2604 6.31137C10.0981 6.31137 9.94934 6.2824 9.81411 6.22444C9.67888 6.16648 9.57069 6.06602 9.48955 5.92306C9.40841 5.7801 9.36784 5.58112 9.36784 5.32611V3.59899H8.96794V3.32079L9.39682 3.08896L9.61126 2.42825H9.99957V3.12953H10.8284V3.59899H9.99957V5.31451C9.99957 5.48452 10.0382 5.6101 10.1155 5.69123C10.1928 5.77237 10.2913 5.81294 10.4111 5.81294ZM12.6145 3.07158C12.8734 3.07158 13.0975 3.12953 13.2868 3.24545C13.4761 3.3575 13.621 3.51978 13.7215 3.73229C13.8258 3.9448 13.878 4.19594 13.878 4.48573V4.82188H11.9132C11.921 5.14258 11.9982 5.38793 12.1451 5.55793C12.2919 5.72794 12.4986 5.81294 12.7652 5.81294C12.9545 5.81294 13.1226 5.79556 13.2694 5.76078C13.4201 5.72215 13.5727 5.66612 13.7273 5.59271V6.10273C13.5805 6.17228 13.4298 6.22444 13.2752 6.25921C13.1245 6.29399 12.941 6.31137 12.7246 6.31137C12.4426 6.31137 12.1914 6.25149 11.9712 6.13171C11.751 6.01193 11.579 5.8342 11.4554 5.5985C11.3317 5.35895 11.2699 5.0653 11.2699 4.71756C11.2699 4.36595 11.3259 4.06844 11.438 3.82502C11.55 3.5816 11.7065 3.39614 11.9074 3.26863C12.1122 3.13726 12.3479 3.07158 12.6145 3.07158ZM12.6145 3.54683C12.4175 3.54683 12.2591 3.61831 12.1393 3.76127C12.0195 3.90423 11.9499 4.10708 11.9306 4.36981H13.2578C13.2578 4.20754 13.2347 4.06457 13.1883 3.94093C13.1419 3.81729 13.0705 3.7207 12.9739 3.65115C12.8811 3.5816 12.7613 3.54683 12.6145 3.54683ZM18.6195 4.68858C18.6195 4.94745 18.5867 5.17735 18.521 5.37827C18.4553 5.57918 18.3606 5.74919 18.237 5.88829C18.1172 6.02739 17.9704 6.13364 17.7965 6.20705C17.6226 6.2766 17.4275 6.31137 17.2111 6.31137C17.0141 6.31137 16.8306 6.2766 16.6606 6.20705C16.4905 6.13364 16.3437 6.02739 16.2201 5.88829C16.0964 5.74919 15.9998 5.57918 15.9303 5.37827C15.8646 5.17735 15.8318 4.94552 15.8318 4.68278C15.8318 4.3389 15.8878 4.04719 15.9998 3.80763C16.1119 3.56808 16.2722 3.38648 16.4809 3.26284C16.6934 3.13533 16.9445 3.07158 17.2343 3.07158C17.5048 3.07158 17.7444 3.13533 17.953 3.26284C18.1616 3.38648 18.3239 3.56808 18.4398 3.80763C18.5596 4.04719 18.6195 4.34084 18.6195 4.68858ZM16.4809 4.68858C16.4809 4.92041 16.506 5.12132 16.5562 5.29133C16.6103 5.45747 16.6915 5.58498 16.7997 5.67385C16.9117 5.76272 17.0527 5.80715 17.2227 5.80715C17.3966 5.80715 17.5376 5.76272 17.6458 5.67385C17.7579 5.58498 17.839 5.45747 17.8892 5.29133C17.9433 5.12132 17.9704 4.92041 17.9704 4.68858C17.9704 4.44902 17.9433 4.2481 17.8892 4.08583C17.8352 3.92355 17.754 3.7999 17.6458 3.7149C17.5376 3.62603 17.3947 3.5816 17.2169 3.5816C16.9581 3.5816 16.7707 3.67819 16.6548 3.87138C16.5388 4.06457 16.4809 4.33697 16.4809 4.68858ZM20.8634 3.07158C21.2035 3.07158 21.4643 3.16238 21.6459 3.34398C21.8313 3.52557 21.9241 3.81729 21.9241 4.21913V6.25342H21.2981V4.30606C21.2981 4.06264 21.2498 3.88104 21.1532 3.76127C21.0605 3.63762 20.9156 3.5758 20.7185 3.5758C20.4288 3.5758 20.2298 3.67047 20.1216 3.85979C20.0134 4.04912 19.9593 4.32152 19.9593 4.67699V6.25342H19.3334V3.12953H19.826L19.9129 3.54683H19.9477C20.0134 3.43864 20.0926 3.34977 20.1853 3.28022C20.2781 3.21067 20.3824 3.15851 20.4983 3.12374C20.6142 3.08896 20.7359 3.07158 20.8634 3.07158Z" fill="#16313B"/>
</g>
</svg>
