<svg width="96" height="54" viewBox="0 0 96 54" fill="none" xmlns="http://www.w3.org/2000/svg">
<g opacity="0.9">
<g opacity="0.5">
<rect x="1.60156" y="1.00195" width="93.3961" height="51.9981" rx="2" fill="#070D18"/>
<rect x="1.16514" y="0.565531" width="94.269" height="52.8709" rx="2.43642" stroke="white" stroke-opacity="0.3" stroke-width="0.872845"/>
</g>
</g>
<path d="M71.1684 29.0583H70.3617V30.459H69.422V29.0583H66.7004V28.3136L69.4131 24.1027H70.3617V28.2604H71.1684V29.0583ZM69.422 26.5406C69.422 26.3988 69.422 26.2629 69.422 26.1328C69.4279 26.0028 69.4338 25.8787 69.4397 25.7605C69.4456 25.6364 69.4486 25.5241 69.4486 25.4236C69.4545 25.3172 69.4604 25.2227 69.4663 25.1399H69.4308C69.3835 25.2581 69.3274 25.3793 69.2624 25.5034C69.2033 25.6275 69.1442 25.7369 69.0851 25.8314L67.5958 28.2604H69.422V26.5406ZM71.8604 29.9359C71.8604 29.7055 71.9166 29.5429 72.0288 29.4484C72.147 29.3538 72.2918 29.3065 72.4632 29.3065C72.6287 29.3065 72.7706 29.3538 72.8888 29.4484C73.0129 29.5429 73.0749 29.7055 73.0749 29.9359C73.0749 30.1664 73.0129 30.3319 72.8888 30.4324C72.7706 30.5329 72.6287 30.5831 72.4632 30.5831C72.2918 30.5831 72.147 30.5329 72.0288 30.4324C71.9166 30.3319 71.8604 30.1664 71.8604 29.9359ZM76.0074 24.0407C76.362 24.0407 76.6752 24.0998 76.9471 24.218C77.2249 24.3303 77.4406 24.4987 77.5942 24.7233C77.7538 24.9479 77.8336 25.2286 77.8336 25.5655C77.8336 25.8196 77.7834 26.0412 77.6829 26.2303C77.5883 26.4195 77.4553 26.5879 77.284 26.7357C77.1185 26.8775 76.9353 27.0016 76.7343 27.108C76.9648 27.2321 77.1776 27.3739 77.3726 27.5335C77.5676 27.6872 77.7243 27.8674 77.8425 28.0743C77.9666 28.2811 78.0286 28.5294 78.0286 28.8189C78.0286 29.1736 77.9459 29.4809 77.7804 29.7409C77.6208 29.995 77.3903 30.193 77.0889 30.3349C76.7875 30.4767 76.43 30.5476 76.0162 30.5476C75.573 30.5476 75.1977 30.4797 74.8904 30.3437C74.589 30.2078 74.3614 30.0157 74.2078 29.7675C74.0541 29.5134 73.9773 29.2061 73.9773 28.8455C73.9773 28.556 74.0305 28.3048 74.1369 28.092C74.2491 27.8793 74.3939 27.696 74.5712 27.5424C74.7545 27.3887 74.9554 27.2587 75.1741 27.1523C74.9849 27.0341 74.8136 26.9011 74.6599 26.7534C74.5062 26.5997 74.3851 26.4254 74.2964 26.2303C74.2137 26.0353 74.1723 25.8107 74.1723 25.5566C74.1723 25.2256 74.2521 24.9508 74.4117 24.7322C74.5712 24.5076 74.7899 24.3362 75.0677 24.218C75.3455 24.0998 75.6587 24.0407 76.0074 24.0407ZM74.8993 28.8278C74.8993 29.1174 74.9909 29.3568 75.1741 29.5459C75.3573 29.7291 75.6321 29.8207 75.9985 29.8207C76.2467 29.8207 76.4506 29.7793 76.6102 29.6966C76.7698 29.6079 76.8909 29.4897 76.9737 29.342C77.0623 29.1883 77.1067 29.014 77.1067 28.8189C77.1067 28.6239 77.0594 28.4525 76.9648 28.3048C76.8703 28.157 76.7402 28.027 76.5747 27.9147C76.4152 27.7965 76.232 27.6901 76.0251 27.5956L75.9099 27.5424C75.6971 27.6428 75.5139 27.7551 75.3602 27.8793C75.2125 28.0034 75.0972 28.1422 75.0145 28.2959C74.9377 28.4496 74.8993 28.6269 74.8993 28.8278ZM75.9897 24.7765C75.7296 24.7765 75.5139 24.8474 75.3425 24.9892C75.177 25.1311 75.0943 25.3379 75.0943 25.6098C75.0943 25.8048 75.1357 25.9703 75.2184 26.1062C75.307 26.2422 75.4193 26.3604 75.5553 26.4608C75.6971 26.5554 75.8508 26.647 76.0162 26.7357C76.1817 26.6529 76.3295 26.5643 76.4595 26.4697C76.5954 26.3692 76.7018 26.251 76.7786 26.1151C76.8614 25.9733 76.9028 25.8048 76.9028 25.6098C76.9028 25.3379 76.8171 25.1311 76.6457 24.9892C76.4802 24.8474 76.2615 24.7765 75.9897 24.7765Z" fill="#F0F0F0"/>
<path d="M15.8753 7.56131C16.2706 7.56131 16.597 7.61417 16.8544 7.7199C17.1118 7.82562 17.3026 7.98421 17.4267 8.19565C17.5554 8.40251 17.6197 8.66452 17.6197 8.98169C17.6197 9.23451 17.5761 9.44826 17.4887 9.62293C17.406 9.79301 17.2957 9.93321 17.1578 10.0435C17.0245 10.1493 16.8797 10.2343 16.7234 10.2986L18.0266 12.4844H17.1578L16.0615 10.4917H15.3099V12.4844H14.5446V7.56131H15.8753ZM15.8408 8.19565H15.3099V9.87115H15.8546C16.0798 9.87115 16.2637 9.83897 16.4062 9.77462C16.5533 9.71027 16.6613 9.61374 16.7303 9.48503C16.8038 9.35632 16.8406 9.19774 16.8406 9.00927C16.8406 8.81161 16.8038 8.65532 16.7303 8.54041C16.6613 8.42089 16.551 8.33356 16.3993 8.2784C16.2522 8.22324 16.0661 8.19565 15.8408 8.19565ZM20.0096 8.69899C20.4463 8.69899 20.775 8.80242 20.9956 9.00927C21.2209 9.21153 21.3335 9.531 21.3335 9.96768V12.4844H20.8026L20.6578 11.9672H20.6302C20.5245 12.1006 20.4187 12.2109 20.313 12.2982C20.2119 12.3855 20.0924 12.4499 19.9545 12.4913C19.8212 12.5326 19.6557 12.5533 19.458 12.5533C19.2512 12.5533 19.065 12.5143 18.8995 12.4361C18.734 12.3534 18.603 12.2293 18.5065 12.0638C18.41 11.8937 18.3617 11.6823 18.3617 11.4294C18.3617 11.0525 18.495 10.7652 18.7616 10.5676C19.0328 10.3699 19.4442 10.2619 19.9958 10.2435L20.5888 10.2228V10.0159C20.5888 9.74015 20.5314 9.54708 20.4164 9.43676C20.3061 9.32644 20.1498 9.27128 19.9476 9.27128C19.7775 9.27128 19.6097 9.29886 19.4442 9.35402C19.2788 9.40918 19.1179 9.47584 18.9616 9.55398L18.734 9.02306C18.9041 8.93113 19.0972 8.85528 19.3132 8.79552C19.5339 8.73117 19.766 8.69899 20.0096 8.69899ZM20.1406 10.7123C19.7637 10.7307 19.5017 10.802 19.3546 10.9261C19.2075 11.0456 19.134 11.2157 19.134 11.4363C19.134 11.6294 19.1845 11.7696 19.2857 11.8569C19.3914 11.9443 19.527 11.9879 19.6925 11.9879C19.9453 11.9879 20.1567 11.9075 20.3268 11.7466C20.5015 11.5857 20.5888 11.3444 20.5888 11.0226V10.6986L20.1406 10.7123ZM23.6773 11.9604C23.7738 11.9604 23.868 11.9512 23.96 11.9328C24.0519 11.9144 24.1323 11.8937 24.2013 11.8707V12.4223C24.1231 12.4591 24.0197 12.489 23.891 12.512C23.7669 12.5395 23.6359 12.5533 23.498 12.5533C23.3049 12.5533 23.128 12.5189 22.9671 12.4499C22.8062 12.3809 22.6775 12.2614 22.5809 12.0914C22.4844 11.9213 22.4362 11.6845 22.4362 11.3812V9.32644H21.9604V8.99548L22.4706 8.71968L22.7257 7.93364H23.1877V8.76794H24.1737V9.32644H23.1877V11.3674C23.1877 11.5696 23.2337 11.719 23.3256 11.8156C23.4175 11.9121 23.5348 11.9604 23.6773 11.9604ZM26.2987 8.69899C26.6066 8.69899 26.8733 8.76794 27.0985 8.90584C27.3237 9.03915 27.4961 9.23221 27.6156 9.48503C27.7397 9.73785 27.8018 10.0366 27.8018 10.3814V10.7813H25.4644C25.4736 11.1628 25.5655 11.4547 25.7402 11.657C25.9148 11.8592 26.1608 11.9604 26.4779 11.9604C26.7032 11.9604 26.9031 11.9397 27.0778 11.8983C27.2571 11.8523 27.4387 11.7857 27.6225 11.6983V12.3051C27.4478 12.3878 27.2686 12.4499 27.0847 12.4913C26.9054 12.5326 26.6871 12.5533 26.4297 12.5533C26.0941 12.5533 25.7953 12.4821 25.5333 12.3396C25.2713 12.1971 25.0668 11.9856 24.9197 11.7052C24.7726 11.4202 24.699 11.0709 24.699 10.6572C24.699 10.2389 24.7657 9.88494 24.899 9.59535C25.0323 9.30576 25.2184 9.08512 25.4575 8.93342C25.7011 8.77714 25.9815 8.69899 26.2987 8.69899ZM26.2987 9.26439C26.0642 9.26439 25.8758 9.34943 25.7333 9.5195C25.5908 9.68958 25.508 9.93091 25.4851 10.2435H27.064C27.064 10.0504 27.0364 9.88035 26.9813 9.73325C26.9261 9.58616 26.8411 9.47124 26.7262 9.3885C26.6158 9.30576 26.4733 9.26439 26.2987 9.26439ZM33.4427 10.6227C33.4427 10.9307 33.4036 11.2042 33.3255 11.4432C33.2473 11.6823 33.1347 11.8845 32.9876 12.05C32.8451 12.2155 32.6704 12.3419 32.4636 12.4292C32.2567 12.512 32.0246 12.5533 31.7672 12.5533C31.5328 12.5533 31.3144 12.512 31.1122 12.4292C30.9099 12.3419 30.7352 12.2155 30.5881 12.05C30.441 11.8845 30.3261 11.6823 30.2434 11.4432C30.1652 11.2042 30.1262 10.9284 30.1262 10.6158C30.1262 10.2067 30.1928 9.85966 30.3261 9.57466C30.4594 9.28967 30.6502 9.07362 30.8984 8.92653C31.1512 8.77484 31.45 8.69899 31.7948 8.69899C32.1165 8.69899 32.4015 8.77484 32.6498 8.92653C32.898 9.07362 33.091 9.28967 33.2289 9.57466C33.3714 9.85966 33.4427 10.209 33.4427 10.6227ZM30.8984 10.6227C30.8984 10.8985 30.9283 11.1375 30.9881 11.3398C31.0524 11.5375 31.1489 11.6891 31.2776 11.7949C31.411 11.9006 31.5787 11.9535 31.781 11.9535C31.9878 11.9535 32.1556 11.9006 32.2843 11.7949C32.4176 11.6891 32.5142 11.5375 32.5739 11.3398C32.6383 11.1375 32.6704 10.8985 32.6704 10.6227C32.6704 10.3377 32.6383 10.0987 32.5739 9.90563C32.5096 9.71257 32.413 9.56547 32.2843 9.46434C32.1556 9.35862 31.9855 9.30576 31.7741 9.30576C31.4661 9.30576 31.2432 9.42068 31.1053 9.65051C30.9674 9.88034 30.8984 10.2044 30.8984 10.6227ZM36.1123 8.69899C36.5168 8.69899 36.827 8.80702 37.0431 9.02306C37.2637 9.23911 37.3741 9.58616 37.3741 10.0642V12.4844H36.6294V10.1676C36.6294 9.87805 36.5719 9.662 36.457 9.5195C36.3467 9.37241 36.1743 9.29886 35.9399 9.29886C35.5951 9.29886 35.3584 9.41148 35.2297 9.63672C35.101 9.86196 35.0366 10.186 35.0366 10.6089V12.4844H34.292V8.76794H34.878L34.9815 9.26439H35.0228C35.101 9.13568 35.1952 9.02996 35.3055 8.94722C35.4159 8.86447 35.54 8.80242 35.6779 8.76105C35.8158 8.71968 35.9606 8.69899 36.1123 8.69899Z" fill="#F0F0F0"/>
<path d="M27.7031 17.2246H29.9364V30.9896H27.7031V17.2246Z" fill="white"/>
<path d="M37.7032 26.6278C37.7032 28.7606 35.9554 28.9545 35.3728 28.9545C34.0134 28.9545 33.8192 27.6942 33.8192 27.0156V21.6836H31.5859V26.9186C31.5859 28.1789 31.9743 29.3422 32.7511 30.0208C33.4308 30.6995 34.3047 30.9903 35.3728 30.9903C36.1496 30.9903 37.1206 30.7964 37.7032 30.2147V30.9903H39.9365V21.6836H37.7032V26.6278Z" fill="white"/>
<path d="M44.298 18.291H42.0647V21.6838H40.4141V23.8164H42.0647V30.9897H44.298V23.8164H45.9487V21.6838H44.298V18.291Z" fill="white"/>
<path d="M52.9465 28.1794C52.461 28.5672 51.7813 28.858 51.1016 28.858C49.548 28.858 48.4799 27.6947 48.4799 26.1436C48.4799 24.5925 49.548 23.5261 51.1016 23.5261C51.7813 23.5261 52.461 23.72 52.9465 24.2047L53.2378 24.4955L54.7914 23.0414L54.403 22.7505C53.5291 21.975 52.3639 21.4902 51.1016 21.4902C48.3828 21.4902 46.3438 23.5261 46.3438 26.2405C46.3438 28.955 48.3828 30.9908 51.1016 30.9908C52.3639 30.9908 53.5291 30.5061 54.403 29.7305L54.7914 29.4397L53.2378 27.8886L52.9465 28.1794Z" fill="white"/>
<path d="M62.6563 22.4592C61.9766 21.7806 61.2969 21.4898 60.2288 21.4898C59.452 21.4898 58.6753 21.6837 58.0927 22.2653V17.2246H55.8594V30.9896H58.0927V25.852C58.0927 23.7194 59.5491 23.5255 60.1317 23.5255C61.4911 23.5255 61.394 24.7857 61.394 25.4642V30.8927H63.6273V25.5612C63.6273 24.301 63.336 23.1377 62.6563 22.4592Z" fill="white"/>
<path d="M51.0067 27.7917C51.8647 27.7917 52.5603 27.0972 52.5603 26.2406C52.5603 25.3839 51.8647 24.6895 51.0067 24.6895C50.1487 24.6895 49.4531 25.3839 49.4531 26.2406C49.4531 27.0972 50.1487 27.7917 51.0067 27.7917Z" fill="#EF4335"/>
<path d="M24.5939 27.5969C23.8171 28.3724 22.6519 28.8571 21.3896 28.8571C18.9621 28.8571 17.2143 26.9184 17.2143 24.3011C17.2143 21.6838 18.9621 19.7451 21.4867 19.7451C22.6519 19.7451 23.8171 20.2297 24.6909 21.1022L24.9822 21.393L26.4387 19.9389L26.1474 19.6481C24.8851 18.3879 23.2345 17.7094 21.4867 17.7094C17.7969 17.6124 15.0781 20.5205 15.0781 24.3011C15.0781 28.0816 17.7969 30.9897 21.3896 30.9897C23.1374 30.9897 24.8851 30.3111 26.0503 29.051L26.3416 28.7602L24.8851 27.3061L24.5939 27.5969Z" fill="white"/>
<path d="M31.3593 36.5732L30.4633 38.3937C30.4177 38.4864 30.3503 38.5665 30.267 38.6273C30.1837 38.688 30.0869 38.7275 29.9849 38.7423L27.9821 39.0344C27.8883 39.048 27.8001 39.0877 27.7275 39.149C27.655 39.2103 27.601 39.2908 27.5717 39.3812C27.5424 39.4717 27.539 39.5686 27.5617 39.6609C27.5845 39.7533 27.6326 39.8374 27.7006 39.9037L29.1504 41.321C29.224 41.393 29.2791 41.4819 29.3109 41.58C29.3427 41.6781 29.3503 41.7824 29.333 41.8841L28.9907 43.8854C28.9749 43.9791 28.9854 44.0754 29.0212 44.1633C29.057 44.2513 29.1166 44.3275 29.1934 44.3833C29.2701 44.4391 29.3608 44.4723 29.4553 44.4791C29.5498 44.4858 29.6444 44.466 29.7282 44.4217L31.5197 43.477C31.6109 43.4289 31.7124 43.4038 31.8154 43.4038C31.9183 43.4038 32.0198 43.4289 32.111 43.477L33.9025 44.4217C33.9863 44.466 34.0809 44.4858 34.1754 44.4791C34.2699 44.4723 34.3606 44.4391 34.4373 44.3833C34.5141 44.3275 34.5737 44.2513 34.6095 44.1633C34.6453 44.0754 34.6558 43.9791 34.6399 43.8854L34.2977 41.8841C34.2804 41.7824 34.288 41.6781 34.3198 41.58C34.3516 41.4819 34.4067 41.393 34.4803 41.321L35.9301 39.9037C35.9981 39.8374 36.0462 39.7533 36.069 39.6609C36.0917 39.5686 36.0883 39.4717 36.059 39.3812C36.0297 39.2908 35.9757 39.2103 35.9032 39.149C35.8306 39.0877 35.7424 39.048 35.6486 39.0344L33.645 38.7423C33.543 38.7275 33.4462 38.688 33.3629 38.6273C33.2796 38.5665 33.2122 38.4864 33.1666 38.3937L32.2706 36.5732C32.2286 36.4879 32.1637 36.4161 32.0832 36.3659C32.0027 36.3157 31.9098 36.2891 31.8149 36.2891C31.7201 36.2891 31.6272 36.3157 31.5467 36.3659C31.4662 36.4161 31.4013 36.4879 31.3593 36.5732Z" fill="#FFAF00"/>
<path d="M43.8054 36.5724L42.9094 38.3929C42.8638 38.4856 42.7965 38.5657 42.7131 38.6264C42.6298 38.6872 42.533 38.7267 42.431 38.7415L40.4275 39.0336C40.3336 39.0472 40.2454 39.0869 40.1728 39.1482C40.1003 39.2095 40.0463 39.2899 40.017 39.3804C39.9877 39.4709 39.9843 39.5678 40.007 39.6601C40.0298 39.7525 40.0779 39.8366 40.1459 39.9029L41.5957 41.3202C41.6693 41.3922 41.7244 41.4811 41.7562 41.5792C41.788 41.6773 41.7956 41.7816 41.7783 41.8833L41.4361 43.8846C41.4202 43.9783 41.4307 44.0745 41.4665 44.1625C41.5023 44.2505 41.562 44.3267 41.6387 44.3825C41.7154 44.4383 41.8061 44.4715 41.9006 44.4782C41.9952 44.485 42.0897 44.4652 42.1735 44.4209L43.9651 43.4762C44.0562 43.4281 44.1577 43.403 44.2607 43.403C44.3637 43.403 44.4651 43.4281 44.5563 43.4762L46.3478 44.4209C46.4316 44.4652 46.5262 44.485 46.6207 44.4782C46.7152 44.4715 46.806 44.4383 46.8827 44.3825C46.9594 44.3267 47.019 44.2505 47.0548 44.1625C47.0906 44.0745 47.1012 43.9783 47.0853 43.8846L46.743 41.8833C46.7257 41.7816 46.7333 41.6772 46.7651 41.5792C46.7969 41.4811 46.852 41.3922 46.9256 41.3202L48.3754 39.9029C48.4434 39.8366 48.4915 39.7525 48.5143 39.6601C48.537 39.5678 48.5336 39.4709 48.5043 39.3804C48.475 39.2899 48.421 39.2095 48.3485 39.1482C48.2759 39.0869 48.1877 39.0472 48.0939 39.0336L46.0903 38.7415C45.9884 38.7267 45.8915 38.6872 45.8082 38.6264C45.7249 38.5657 45.6575 38.4856 45.6119 38.3929L44.7159 36.5724C44.6739 36.4873 44.609 36.4157 44.5285 36.3656C44.4481 36.3156 44.3553 36.2891 44.2607 36.2891C44.166 36.2891 44.0732 36.3156 43.9928 36.3656C43.9123 36.4157 43.8475 36.4873 43.8054 36.5724Z" fill="#FFAF00"/>
<path d="M56.2739 36.5712L55.3779 38.3918C55.3323 38.4844 55.2649 38.5646 55.1816 38.6253C55.0983 38.686 55.0015 38.7255 54.8995 38.7404L52.8962 39.0324C52.8023 39.046 52.7141 39.0858 52.6416 39.1471C52.5691 39.2084 52.5151 39.2888 52.4858 39.3793C52.4565 39.4697 52.453 39.5666 52.4758 39.659C52.4986 39.7513 52.5467 39.8354 52.6146 39.9018L54.0644 41.319C54.1381 41.3911 54.1932 41.4799 54.225 41.578C54.2568 41.6761 54.2644 41.7805 54.2471 41.8822L53.9048 43.8834C53.8889 43.9771 53.8995 44.0734 53.9353 44.1614C53.9711 44.2494 54.0307 44.3256 54.1074 44.3814C54.1841 44.4372 54.2749 44.4703 54.3694 44.4771C54.4639 44.4839 54.5584 44.464 54.6423 44.4198L56.4338 43.475C56.525 43.427 56.6264 43.4019 56.7294 43.4019C56.8324 43.4019 56.9339 43.427 57.025 43.475L58.8165 44.4198C58.9004 44.464 58.9949 44.4839 59.0894 44.4771C59.184 44.4703 59.2747 44.4372 59.3514 44.3814C59.4281 44.3256 59.4878 44.2494 59.5236 44.1614C59.5594 44.0734 59.5699 43.9771 59.554 43.8834L59.2117 41.8822C59.1944 41.7805 59.202 41.6761 59.2338 41.578C59.2656 41.4799 59.3207 41.391 59.3944 41.319L60.8442 39.9018C60.9122 39.8354 60.9602 39.7513 60.983 39.659C61.0058 39.5666 61.0023 39.4697 60.973 39.3793C60.9437 39.2888 60.8898 39.2084 60.8172 39.1471C60.7447 39.0858 60.6565 39.046 60.5626 39.0324L58.559 38.7404C58.4571 38.7255 58.3603 38.686 58.277 38.6253C58.1936 38.5646 58.1263 38.4844 58.0807 38.3918L57.1852 36.5712C57.1432 36.486 57.0783 36.4141 56.9978 36.3639C56.9173 36.3137 56.8244 36.2871 56.7295 36.2871C56.6347 36.2871 56.5418 36.3137 56.4613 36.3639C56.3808 36.4141 56.3158 36.486 56.2739 36.5712Z" fill="#FFAF00"/>
<path d="M69.6323 36.5731L70.5284 38.3937C70.574 38.4863 70.6413 38.5665 70.7246 38.6272C70.808 38.6879 70.9048 38.7274 71.0067 38.7423L73.01 39.0343C73.1039 39.048 73.1921 39.0877 73.2647 39.149C73.3372 39.2103 73.3912 39.2907 73.4205 39.3812C73.4498 39.4717 73.4532 39.5686 73.4305 39.6609C73.4077 39.7533 73.3596 39.8374 73.2916 39.9037L71.8418 41.3209C71.7682 41.393 71.7131 41.4818 71.6813 41.5799C71.6495 41.678 71.6419 41.7824 71.6592 41.8841L72.0014 43.8854C72.0173 43.979 72.0068 44.0753 71.971 44.1633C71.9352 44.2513 71.8756 44.3275 71.7988 44.3833C71.7221 44.4391 71.6314 44.4722 71.5369 44.479C71.4424 44.4858 71.3478 44.4659 71.264 44.4217L69.4724 43.4769C69.3813 43.4289 69.2798 43.4038 69.1768 43.4038C69.0738 43.4038 68.9724 43.4289 68.8812 43.4769L67.0897 44.4217C67.0059 44.4659 66.9113 44.4858 66.8168 44.479C66.7223 44.4722 66.6316 44.4391 66.5548 44.3833C66.4781 44.3275 66.4185 44.2513 66.3827 44.1633C66.3469 44.0753 66.3363 43.979 66.3522 43.8854L66.6945 41.8841C66.7118 41.7824 66.7042 41.678 66.6724 41.5799C66.6406 41.4818 66.5855 41.393 66.5119 41.3209L65.0621 39.9037C64.9941 39.8374 64.946 39.7533 64.9232 39.6609C64.9005 39.5686 64.9039 39.4717 64.9332 39.3812C64.9625 39.2907 65.0165 39.2103 65.089 39.149C65.1616 39.0877 65.2498 39.048 65.3436 39.0343L67.3472 38.7423C67.4492 38.7274 67.546 38.6879 67.6293 38.6272C67.7126 38.5665 67.78 38.4863 67.8256 38.3937L68.7192 36.5731C68.7609 36.4874 68.8259 36.4151 68.9066 36.3645C68.9873 36.3139 69.0806 36.2871 69.1758 36.2871C69.2709 36.2871 69.3642 36.3139 69.4449 36.3645C69.5257 36.4151 69.5906 36.4874 69.6323 36.5731Z" fill="#FFAF00"/>
<path d="M71.264 44.4236L70.0439 43.78V37.4102L70.5281 38.3943C70.5737 38.487 70.641 38.5671 70.7244 38.6278C70.8077 38.6886 70.9045 38.7281 71.0065 38.7429L73.01 39.0349C73.1039 39.0486 73.1921 39.0883 73.2647 39.1496C73.3372 39.2109 73.3912 39.2913 73.4205 39.3818C73.4498 39.4723 73.4532 39.5692 73.4305 39.6615C73.4077 39.7539 73.3596 39.838 73.2916 39.9043L71.8418 41.3216C71.7682 41.3936 71.7131 41.4825 71.6813 41.5805C71.6495 41.6786 71.6419 41.783 71.6592 41.8847L72.0014 43.886C72.0176 43.9798 72.0073 44.0762 71.9716 44.1644C71.9359 44.2526 71.8763 44.329 71.7996 44.385C71.7228 44.441 71.6319 44.4743 71.5373 44.4811C71.4426 44.4879 71.3479 44.468 71.264 44.4236Z" fill="#FDE3AC"/>
<path d="M18.8992 36.5715L18.0031 38.3923C17.9576 38.485 17.8902 38.5651 17.8069 38.6258C17.7235 38.6866 17.6267 38.7261 17.5248 38.7409L15.5212 39.033C15.4273 39.0466 15.3391 39.0863 15.2666 39.1476C15.1941 39.2089 15.1401 39.2893 15.1108 39.3798C15.0815 39.4703 15.078 39.5672 15.1008 39.6595C15.1236 39.7519 15.1717 39.836 15.2397 39.9023L16.6895 41.3196C16.7631 41.3916 16.8182 41.4805 16.85 41.5786C16.8818 41.6767 16.8894 41.781 16.8721 41.8827L16.5298 43.884C16.5139 43.9777 16.5245 44.0739 16.5603 44.1619C16.5961 44.2499 16.6557 44.3261 16.7324 44.3819C16.8091 44.4377 16.8999 44.4709 16.9944 44.4776C17.0889 44.4844 17.1834 44.4646 17.2673 44.4203L19.0588 43.4756C19.15 43.4275 19.2514 43.4024 19.3544 43.4024C19.4574 43.4024 19.5589 43.4275 19.65 43.4756L21.4415 44.4203C21.5254 44.4646 21.6199 44.4844 21.7144 44.4776C21.809 44.4709 21.8997 44.4377 21.9764 44.3819C22.0531 44.3261 22.1128 44.2499 22.1486 44.1619C22.1844 44.0739 22.1949 43.9777 22.179 43.884L21.8368 41.8827C21.8194 41.781 21.827 41.6766 21.8588 41.5786C21.8906 41.4805 21.9457 41.3916 22.0194 41.3196L23.4692 39.9023C23.5372 39.836 23.5853 39.7519 23.608 39.6595C23.6308 39.5672 23.6273 39.4703 23.598 39.3798C23.5687 39.2893 23.5148 39.2089 23.4422 39.1476C23.3697 39.0863 23.2815 39.0466 23.1876 39.033L21.1851 38.7407C21.0832 38.7258 20.9864 38.6863 20.903 38.6256C20.8197 38.5648 20.7523 38.4847 20.7067 38.3921L19.8107 36.5715C19.7688 36.4862 19.7039 36.4143 19.6233 36.364C19.5428 36.3137 19.4498 36.2871 19.3549 36.2871C19.2601 36.2871 19.1671 36.3137 19.0865 36.364C19.006 36.4143 18.9411 36.4862 18.8992 36.5715Z" fill="#E2E2E2"/>
<path d="M19.8018 36.5704L20.6979 38.391C20.7434 38.4836 20.8108 38.5638 20.8941 38.6245C20.9775 38.6852 21.0743 38.7247 21.1762 38.7396L23.1798 39.0316C23.2737 39.0452 23.3619 39.0849 23.4344 39.1462C23.5069 39.2075 23.5609 39.288 23.5902 39.3785C23.6195 39.4689 23.623 39.5658 23.6002 39.6582C23.5774 39.7505 23.5293 39.8346 23.4614 39.901L22.0116 41.3182C21.9379 41.3902 21.8829 41.4791 21.8511 41.5772C21.8192 41.6753 21.8116 41.7797 21.8289 41.8813L22.1712 43.8826C22.1871 43.9763 22.1765 44.0726 22.1407 44.1606C22.1049 44.2486 22.0453 44.3248 21.9686 44.3805C21.8919 44.4363 21.8011 44.4695 21.7066 44.4763C21.6121 44.4831 21.5176 44.4632 21.4337 44.419L19.6422 43.4742C19.551 43.4262 19.4496 43.4011 19.3466 43.4011C19.2436 43.4011 19.1422 43.4262 19.051 43.4742L17.2595 44.419C17.1756 44.4632 17.0811 44.4831 16.9866 44.4763C16.8921 44.4695 16.8013 44.4363 16.7246 44.3805C16.6479 44.3248 16.5883 44.2486 16.5525 44.1606C16.5167 44.0726 16.5061 43.9763 16.522 43.8826L16.8643 41.8813C16.8816 41.7797 16.874 41.6753 16.8422 41.5772C16.8104 41.4791 16.7553 41.3902 16.6816 41.3182L15.2318 39.901C15.1639 39.8346 15.1158 39.7505 15.093 39.6582C15.0702 39.5658 15.0737 39.4689 15.103 39.3785C15.1323 39.288 15.1862 39.2075 15.2588 39.1462C15.3313 39.0849 15.4195 39.0452 15.5134 39.0316L17.517 38.7396C17.6189 38.7247 17.7157 38.6852 17.7991 38.6245C17.8824 38.5638 17.9498 38.4836 17.9953 38.391L18.8914 36.5704C18.9334 36.4854 18.9983 36.4138 19.0787 36.3637C19.1592 36.3136 19.2519 36.2871 19.3466 36.2871C19.4413 36.2871 19.534 36.3136 19.6145 36.3637C19.6949 36.4138 19.7598 36.4854 19.8018 36.5704Z" fill="#FFAF00"/>
</svg>
