<svg width="97" height="54" viewBox="0 0 97 54" fill="none" xmlns="http://www.w3.org/2000/svg">
<g opacity="0.6">
<g opacity="0.5">
<rect x="1.75" y="1" width="93.3956" height="51.9981" rx="2" fill="#070D18"/>
<rect x="1.31358" y="0.563578" width="94.2684" height="52.8709" rx="2.43642" stroke="white" stroke-opacity="0.3" stroke-width="0.872845"/>
</g>
</g>
<path d="M1.75 17.5859H95.1456V3.2579C95.1456 2.01109 94.1349 1.00035 92.888 1.00035H4.00755C2.76074 1.00035 1.75 2.01109 1.75 3.2579V17.5859Z" fill="#4285F4"/>
<path d="M34.8179 5.99445C35.6267 5.99445 36.2144 6.1632 36.581 6.5007C36.9534 6.8382 37.1396 7.30372 37.1396 7.89725C37.1396 8.16492 37.0989 8.42096 37.0174 8.66536C36.936 8.90393 36.7992 9.11923 36.6072 9.31126C36.4152 9.50329 36.1621 9.65458 35.8478 9.76514C35.5394 9.8757 35.1554 9.93098 34.6957 9.93098H34.076V12.2266H32.9587V5.99445H34.8179ZM34.748 6.91967H34.076V9.00577H34.5822C34.8848 9.00577 35.1408 8.97085 35.3503 8.90102C35.5656 8.82538 35.7285 8.709 35.8391 8.55189C35.9497 8.39477 36.0049 8.19111 36.0049 7.94089C36.0049 7.59758 35.9031 7.34154 35.6994 7.17279C35.4958 7.00404 35.1786 6.91967 34.748 6.91967ZM40.1435 7.40846C40.7544 7.40846 41.217 7.5423 41.5313 7.80997C41.8513 8.07182 42.0113 8.48497 42.0113 9.04941V12.2266H41.2345L41.0163 11.5719H40.9814C40.8475 11.7407 40.7079 11.8832 40.5624 11.9996C40.4228 12.1102 40.2598 12.1887 40.0736 12.2353C39.8932 12.2877 39.6721 12.3138 39.4103 12.3138C39.131 12.3138 38.8778 12.2615 38.6509 12.1567C38.4298 12.052 38.2552 11.892 38.1272 11.6767C37.9992 11.4555 37.9352 11.1791 37.9352 10.8475C37.9352 10.3587 38.1126 9.99208 38.4676 9.74768C38.8284 9.49747 39.3724 9.36072 40.0998 9.33745L40.9203 9.31126V9.07559C40.9203 8.77301 40.8475 8.5577 40.7021 8.42969C40.5566 8.30167 40.3529 8.23766 40.0911 8.23766C39.8525 8.23766 39.6227 8.27258 39.4015 8.3424C39.1804 8.41223 38.9651 8.4937 38.7556 8.5868L38.4065 7.8187C38.6392 7.6965 38.904 7.59758 39.2008 7.52193C39.5034 7.44628 39.8176 7.40846 40.1435 7.40846ZM40.3442 10.0095C39.8612 10.027 39.5266 10.1114 39.3404 10.2627C39.1542 10.4081 39.0611 10.606 39.0611 10.8562C39.0611 11.0773 39.128 11.2373 39.2619 11.3363C39.3957 11.4352 39.5674 11.4846 39.7769 11.4846C40.0969 11.4846 40.3675 11.3945 40.5886 11.2141C40.8097 11.0279 40.9203 10.7544 40.9203 10.3936V9.99208L40.3442 10.0095ZM45.8684 7.40846C45.9382 7.40846 46.0197 7.41137 46.1128 7.41719C46.2059 7.42301 46.2844 7.43464 46.3484 7.4521L46.2524 8.47333C46.2 8.46169 46.1302 8.45296 46.0429 8.44714C45.9615 8.43551 45.8887 8.42969 45.8247 8.42969C45.6501 8.42969 45.4814 8.45878 45.3185 8.51697C45.1614 8.56934 45.0188 8.65081 44.8908 8.76137C44.7686 8.86611 44.6697 9.00286 44.594 9.17161C44.5242 9.34036 44.4893 9.54111 44.4893 9.77387V12.2266H43.3895V7.49574H44.2361L44.3933 8.31622H44.4456C44.5387 8.14747 44.6551 7.99617 44.7948 7.86234C44.9344 7.72268 45.0944 7.61212 45.2748 7.53066C45.461 7.44919 45.6589 7.40846 45.8684 7.40846ZM49.0582 11.4323C49.1979 11.4323 49.3317 11.4206 49.4597 11.3974C49.5877 11.3683 49.707 11.3363 49.8176 11.3013V12.1218C49.7012 12.1742 49.5499 12.2178 49.3637 12.2527C49.1775 12.2935 48.9825 12.3138 48.7789 12.3138C48.5112 12.3138 48.2668 12.2702 48.0457 12.1829C47.8304 12.0898 47.6558 11.9327 47.522 11.7116C47.394 11.4905 47.33 11.1821 47.33 10.7864V8.32495H46.6928V7.84488L47.3911 7.46083L47.7402 6.45706H48.4297V7.49574H49.7739V8.32495H48.4297V10.7776C48.4297 10.9988 48.4879 11.1646 48.6043 11.2752C48.7207 11.3799 48.872 11.4323 49.0582 11.4323ZM53.3024 7.40846C53.8319 7.40846 54.2451 7.5452 54.5418 7.8187C54.8444 8.09219 54.9957 8.53443 54.9957 9.14542V12.2266H53.8959V9.36363C53.8959 9.00867 53.8261 8.74391 53.6865 8.56934C53.5468 8.38895 53.3257 8.29876 53.0231 8.29876C52.5809 8.29876 52.2783 8.43842 52.1153 8.71773C51.9524 8.99122 51.8709 9.38982 51.8709 9.91352V12.2266H50.7712V7.49574H51.6178L51.7749 8.11546H51.836C51.9408 7.95253 52.0688 7.8187 52.2201 7.71395C52.3714 7.60921 52.5401 7.53357 52.7263 7.48701C52.9125 7.43464 53.1046 7.40846 53.3024 7.40846ZM58.2741 7.40846C58.6989 7.40846 59.0626 7.49574 59.3652 7.67031C59.6736 7.83906 59.9122 8.08346 60.0809 8.4035C60.2497 8.71773 60.3341 9.10178 60.3341 9.55566V10.1143H57.2093C57.2209 10.5449 57.3402 10.8795 57.5671 11.118C57.7941 11.3508 58.1083 11.4672 58.5098 11.4672C58.8182 11.4672 59.0917 11.4381 59.3303 11.3799C59.5747 11.3159 59.8249 11.2257 60.0809 11.1093V11.9909C59.8482 12.1015 59.6067 12.1829 59.3565 12.2353C59.1063 12.2877 58.8066 12.3138 58.4574 12.3138C57.9977 12.3138 57.5875 12.2266 57.2267 12.052C56.8718 11.8716 56.5925 11.601 56.3888 11.2402C56.191 10.8795 56.092 10.4314 56.092 9.89607C56.092 9.3549 56.1822 8.90102 56.3626 8.53443C56.5488 8.16202 56.8049 7.8827 57.1307 7.6965C57.4566 7.50447 57.8377 7.40846 58.2741 7.40846ZM58.2741 8.2202C57.9832 8.2202 57.7446 8.31622 57.5584 8.50824C57.378 8.69445 57.2704 8.97376 57.2355 9.34617H59.2692C59.2692 9.12505 59.2314 8.93012 59.1557 8.76137C59.0859 8.59262 58.9782 8.46169 58.8328 8.36859C58.6873 8.26967 58.5011 8.2202 58.2741 8.2202ZM63.9219 7.40846C63.9918 7.40846 64.0732 7.41137 64.1663 7.41719C64.2594 7.42301 64.338 7.43464 64.402 7.4521L64.306 8.47333C64.2536 8.46169 64.1838 8.45296 64.0965 8.44714C64.015 8.43551 63.9423 8.42969 63.8783 8.42969C63.7037 8.42969 63.535 8.45878 63.372 8.51697C63.2149 8.56934 63.0724 8.65081 62.9443 8.76137C62.8221 8.86611 62.7232 9.00286 62.6476 9.17161C62.5777 9.34036 62.5428 9.54111 62.5428 9.77387V12.2266H61.443V7.49574H62.2897L62.4468 8.31622H62.4992C62.5923 8.14747 62.7087 7.99617 62.8483 7.86234C62.988 7.72268 63.148 7.61212 63.3284 7.53066C63.5146 7.44919 63.7124 7.40846 63.9219 7.40846Z" fill="white"/>
<g clip-path="url(#clip0_1382_16997)">
<path d="M58.5563 36.0442C57.9979 36.057 57.4428 35.9572 56.9247 35.7509C56.4067 35.5446 55.9367 35.2362 55.5433 34.8444C55.15 34.4526 54.8416 33.9857 54.6371 33.4722C54.4325 32.9587 54.3361 32.4094 54.3536 31.8578C54.3391 31.3098 54.4376 30.7646 54.6429 30.2554C54.8482 29.7461 55.1562 29.2834 55.548 28.8953C55.9385 28.5007 56.4072 28.19 56.9249 27.9828C57.4425 27.7755 57.9979 27.6761 58.5563 27.6909C59.1154 27.6773 59.6705 27.7875 60.1809 28.0136C60.6912 28.2397 61.1439 28.5758 61.5056 28.9973L60.783 29.7112C60.518 29.3802 60.1791 29.1142 59.7929 28.9339C59.4066 28.7536 58.9834 28.6639 58.5563 28.6719C58.14 28.6619 57.726 28.7359 57.3398 28.8896C56.9535 29.0433 56.603 29.2733 56.3099 29.5655C56.0105 29.8672 55.7767 30.2261 55.6229 30.6203C55.469 31.0145 55.3984 31.4356 55.4153 31.8578C55.397 32.2816 55.467 32.7046 55.6209 33.1005C55.7748 33.4965 56.0093 33.857 56.3099 34.1598C56.6023 34.453 56.9527 34.6836 57.3391 34.8373C57.7255 34.9911 58.1399 35.0646 58.5563 35.0534C59.0288 35.0512 59.4947 34.9444 59.92 34.7411C60.3453 34.5377 60.7191 34.2428 61.014 33.8781L61.771 34.6066C61.3878 35.0592 60.9054 35.4196 60.3603 35.6605C59.7945 35.917 59.1788 36.048 58.5563 36.0442ZM63.6536 27.8706V35.8693H62.6115V27.8706H63.6536ZM64.5482 33.1302C64.5369 32.7469 64.6023 32.365 64.7406 32.0067C64.8789 31.6483 65.0875 31.3205 65.3544 31.0419C65.6185 30.7715 65.9367 30.5585 66.2888 30.4163C66.6408 30.2742 67.019 30.206 67.3992 30.2163C67.778 30.2056 68.1548 30.2736 68.5053 30.4158C68.8559 30.558 69.1723 30.7713 69.4342 31.0419C69.7037 31.3188 69.9144 31.6463 70.0537 32.0049C70.193 32.3636 70.2581 32.7463 70.2452 33.1302C70.2595 33.5144 70.195 33.8974 70.0557 34.2563C69.9163 34.6151 69.7049 34.9425 69.4342 35.2185C69.1731 35.4901 68.8568 35.7041 68.5061 35.8464C68.1553 35.9887 67.7781 36.0561 67.3992 36.0442C67.0188 36.0556 66.6403 35.9881 66.2881 35.8458C65.9358 35.7036 65.6177 35.4899 65.3544 35.2185C65.0875 34.94 64.8789 34.6122 64.7406 34.2538C64.6023 33.8954 64.5369 33.5136 64.5482 33.1302ZM65.5903 33.1302C65.5664 33.6555 65.7537 34.1687 66.1113 34.5581C66.2768 34.7315 66.4764 34.8697 66.6978 34.9642C66.9193 35.0586 67.158 35.1074 67.3992 35.1074C67.6404 35.1074 67.8791 35.0586 68.1006 34.9642C68.322 34.8697 68.5216 34.7315 68.687 34.5581C69.0447 34.1687 69.232 33.6555 69.2081 33.1302C69.231 32.6081 69.0436 32.0982 68.687 31.7121C68.5231 31.5361 68.3241 31.3956 68.1024 31.2995C67.8807 31.2033 67.6413 31.1537 67.3992 31.1537C67.1571 31.1537 66.9177 31.2033 66.696 31.2995C66.4743 31.3956 66.2752 31.5361 66.1113 31.7121C65.7547 32.0982 65.5674 32.6081 65.5903 33.1302ZM75.9963 35.8693H75.0132V35.1068H74.9641C74.7883 35.3919 74.5366 35.6237 74.2366 35.7771C73.9248 35.9517 73.5726 36.0437 73.2142 36.0442C72.9267 36.0626 72.6386 36.0211 72.3685 35.9223C72.0984 35.8236 71.8522 35.6699 71.6461 35.4711C71.2567 35.0159 71.0611 34.4292 71.1005 33.8344V30.4008H72.1377V33.7713C72.116 33.9538 72.1367 34.1387 72.1982 34.3121C72.2597 34.4855 72.3603 34.6428 72.4925 34.772C72.6247 34.9012 72.785 34.9989 72.9611 35.0578C73.1372 35.1167 73.3247 35.1351 73.5091 35.1117C73.7081 35.1151 73.9053 35.0731 74.0852 34.9888C74.2651 34.9046 74.4229 34.7804 74.5462 34.626C74.8266 34.2924 74.9751 33.8697 74.9641 33.4362V30.4008H76.0061L75.9963 35.8693ZM79.5158 36.0442C79.162 36.0441 78.8124 35.9685 78.4909 35.8227C78.1693 35.6769 77.8835 35.4642 77.6528 35.1991C77.1364 34.6319 76.8556 33.8931 76.8663 33.1302C76.8495 32.3713 77.1234 31.6341 77.6331 31.0662C77.8621 30.7988 78.1475 30.5841 78.4693 30.4373C78.7911 30.2904 79.1416 30.215 79.4961 30.2163C79.8838 30.2098 80.2672 30.2982 80.6119 30.4737C80.9277 30.6275 81.196 30.8623 81.3885 31.1536H81.4328L81.4082 30.4008V27.8706H82.4454V35.8693H81.4623V35.1068H81.418C81.2255 35.3981 80.9572 35.6329 80.6414 35.7868C80.2937 35.9638 79.9068 36.0523 79.5158 36.0442ZM79.6878 35.1068C79.9251 35.1144 80.161 35.069 80.378 34.974C80.595 34.879 80.7876 34.7368 80.9412 34.5581C81.285 34.1624 81.4611 33.6509 81.4328 33.1302C81.4566 32.6131 81.2809 32.1063 80.9412 31.7121C80.788 31.5321 80.5959 31.3885 80.3789 31.2918C80.1619 31.1952 79.9257 31.1479 79.6878 31.1536C79.4502 31.15 79.2147 31.1982 78.998 31.2947C78.7814 31.3912 78.5889 31.5337 78.4344 31.7121C78.0947 32.1063 77.9191 32.6131 77.9428 33.1302C77.9155 33.6479 78.0916 34.1559 78.4344 34.5483C78.5889 34.7267 78.7814 34.8692 78.998 34.9658C79.2147 35.0623 79.4502 35.1105 79.6878 35.1068Z" fill="white"/>
<path d="M19.1023 36.0435C17.8791 36.0475 16.7036 35.5752 15.8305 34.7288C14.9574 33.8825 14.4569 32.7304 14.4375 31.5221C14.4569 30.3137 14.9574 29.1616 15.8305 28.3153C16.7036 27.4689 17.8791 26.9966 19.1023 27.0006C19.6851 26.991 20.264 27.0965 20.805 27.3108C21.3461 27.5251 21.8384 27.844 22.2531 28.2487L21.3634 29.1181C20.7567 28.5409 19.9443 28.2234 19.1023 28.2342C18.6663 28.2328 18.2343 28.3172 17.8317 28.4823C17.429 28.6475 17.0635 28.8901 16.7566 29.196C16.4497 29.502 16.2074 29.8652 16.0439 30.2645C15.8803 30.6638 15.7988 31.0913 15.804 31.5221C15.7988 31.9528 15.8803 32.3803 16.0439 32.7796C16.2074 33.1789 16.4497 33.5421 16.7566 33.8481C17.0635 34.154 17.429 34.3966 17.8317 34.5618C18.2343 34.7269 18.6663 34.8113 19.1023 34.8099C19.5318 34.8274 19.9602 34.7555 20.3598 34.5991C20.7595 34.4427 21.1215 34.2051 21.4224 33.9018C21.8234 33.4743 22.0645 32.9243 22.1056 32.3428H19.1023V31.1141H23.3295C23.3757 31.3689 23.397 31.6275 23.3934 31.8863C23.4267 32.9521 23.0348 33.9881 22.3022 34.7711C21.8899 35.1943 21.3916 35.5264 20.8401 35.7457C20.2886 35.965 19.6963 36.0665 19.1023 36.0435Z" fill="#4285F4"/>
<path d="M29.9308 33.1301C29.947 33.5186 29.8835 33.9062 29.7442 34.2699C29.6048 34.6335 29.3925 34.9655 29.12 35.246C28.8476 35.5265 28.5205 35.7497 28.1585 35.9022C27.7965 36.0546 27.407 36.1332 27.0135 36.1332C26.62 36.1332 26.2306 36.0546 25.8686 35.9022C25.5066 35.7497 25.1795 35.5265 24.907 35.246C24.6345 34.9655 24.4222 34.6335 24.2829 34.2699C24.1436 33.9062 24.0801 33.5186 24.0962 33.1301C24.0801 32.7416 24.1436 32.3539 24.2829 31.9903C24.4222 31.6267 24.6345 31.2947 24.907 31.0142C25.1795 30.7337 25.5066 30.5105 25.8686 30.358C26.2306 30.2055 26.62 30.127 27.0135 30.127C27.407 30.127 27.7965 30.2055 28.1585 30.358C28.5205 30.5105 28.8476 30.7337 29.12 31.0142C29.3925 31.2947 29.6048 31.6267 29.7442 31.9903C29.8835 32.3539 29.947 32.7416 29.9308 33.1301ZM28.6528 33.1301C28.6745 32.9045 28.6482 32.6769 28.5757 32.4619C28.5032 32.2469 28.386 32.0492 28.2317 31.8816C28.0774 31.7139 27.8893 31.58 27.6795 31.4884C27.4697 31.3967 27.2429 31.3494 27.0135 31.3494C26.7842 31.3494 26.5573 31.3967 26.3475 31.4884C26.1378 31.58 25.9497 31.7139 25.7954 31.8816C25.641 32.0492 25.5238 32.2469 25.4513 32.4619C25.3788 32.6769 25.3525 32.9045 25.3742 33.1301C25.3525 33.3557 25.3788 33.5833 25.4513 33.7983C25.5238 34.0133 25.641 34.2109 25.7954 34.3786C25.9497 34.5462 26.1378 34.6802 26.3475 34.7718C26.5573 34.8635 26.7842 34.9108 27.0135 34.9108C27.2429 34.9108 27.4697 34.8635 27.6795 34.7718C27.8893 34.6802 28.0774 34.5462 28.2317 34.3786C28.386 34.2109 28.5032 34.0133 28.5757 33.7983C28.6482 33.5833 28.6745 33.3557 28.6528 33.1301Z" fill="#EA4335"/>
<path d="M36.4777 33.1301C36.4939 33.5186 36.4304 33.9062 36.291 34.2699C36.1517 34.6335 35.9394 34.9655 35.6669 35.246C35.3944 35.5265 35.0674 35.7497 34.7054 35.9022C34.3434 36.0546 33.9539 36.1332 33.5604 36.1332C33.1669 36.1332 32.7774 36.0546 32.4154 35.9022C32.0534 35.7497 31.7264 35.5265 31.4539 35.246C31.1814 34.9655 30.9691 34.6335 30.8298 34.2699C30.6904 33.9062 30.6269 33.5186 30.6431 33.1301C30.6269 32.7416 30.6904 32.3539 30.8298 31.9903C30.9691 31.6267 31.1814 31.2947 31.4539 31.0142C31.7264 30.7337 32.0534 30.5105 32.4154 30.358C32.7774 30.2055 33.1669 30.127 33.5604 30.127C33.9539 30.127 34.3434 30.2055 34.7054 30.358C35.0674 30.5105 35.3944 30.7337 35.6669 31.0142C35.9394 31.2947 36.1517 31.6267 36.291 31.9903C36.4304 32.3539 36.4939 32.7416 36.4777 33.1301ZM35.1997 33.1301C35.2172 32.9065 35.1878 32.6818 35.1132 32.47C35.0387 32.2582 34.9206 32.0639 34.7664 31.8994C34.6123 31.7348 34.4253 31.6035 34.2174 31.5137C34.0094 31.4239 33.7849 31.3775 33.5579 31.3775C33.331 31.3775 33.1065 31.4239 32.8985 31.5137C32.6905 31.6035 32.5036 31.7348 32.3495 31.8994C32.1953 32.0639 32.0772 32.2582 32.0027 32.47C31.9281 32.6818 31.8987 32.9065 31.9162 33.1301C31.8987 33.3537 31.9281 33.5784 32.0027 33.7902C32.0772 34.002 32.1953 34.1963 32.3495 34.3608C32.5036 34.5254 32.6905 34.6567 32.8985 34.7465C33.1065 34.8363 33.331 34.8826 33.5579 34.8826C33.7849 34.8826 34.0094 34.8363 34.2174 34.7465C34.4253 34.6567 34.6123 34.5254 34.7664 34.3608C34.9206 34.1963 35.0387 34.002 35.1132 33.7902C35.1878 33.5784 35.2172 33.3537 35.1997 33.1301Z" fill="#FBBC04"/>
<path d="M42.8471 30.3997V35.6254C42.8471 37.772 41.5543 38.6559 40.0306 38.6559C39.4698 38.6589 38.9207 38.4971 38.4533 38.1909C37.9859 37.8848 37.6212 37.4482 37.4057 36.9367L38.5412 36.451C38.6556 36.7488 38.8567 37.0064 39.1191 37.1914C39.3816 37.3763 39.6936 37.4804 40.0158 37.4903C40.9989 37.4903 41.5986 36.893 41.5986 35.7808V35.3631H41.5691C41.3725 35.5824 41.1299 35.7567 40.8583 35.8741C40.5867 35.9915 40.2925 36.0492 39.9961 36.0431C39.2139 36.0431 38.4638 35.7361 37.9107 35.1896C37.3576 34.6431 37.0469 33.902 37.0469 33.1291C37.0469 32.3563 37.3576 31.6151 37.9107 31.0687C38.4638 30.5222 39.2139 30.2152 39.9961 30.2152C40.2915 30.2098 40.5846 30.2668 40.8559 30.3824C41.1272 30.498 41.3703 30.6695 41.5691 30.8854H41.6133V30.3997H42.8471ZM41.7018 33.1486C41.7199 32.9284 41.6929 32.7068 41.6225 32.4972C41.5521 32.2875 41.4397 32.094 41.292 31.9281C41.1443 31.7623 40.9643 31.6275 40.7628 31.5318C40.5613 31.4361 40.3424 31.3814 40.119 31.3711C39.8922 31.3791 39.6692 31.4317 39.4632 31.5258C39.2571 31.6199 39.072 31.7535 38.9188 31.9189C38.7655 32.0844 38.6471 32.2783 38.5705 32.4894C38.4938 32.7005 38.4605 32.9246 38.4724 33.1486C38.4618 33.371 38.4963 33.5933 38.5737 33.8024C38.6511 34.0116 38.77 34.2034 38.9233 34.3666C39.0766 34.5299 39.2613 34.6613 39.4666 34.7531C39.6719 34.845 39.8937 34.8956 40.119 34.9018C40.3415 34.894 40.56 34.8417 40.7614 34.7481C40.9629 34.6545 41.143 34.5215 41.2909 34.3572C41.4389 34.1928 41.5516 34.0006 41.6222 33.792C41.6928 33.5834 41.7199 33.3629 41.7018 33.1437V33.1486Z" fill="#4285F4"/>
<path d="M45.1258 27.3105V35.8678H43.8281V27.3105H45.1258Z" fill="#34A853"/>
<path d="M50.2411 34.0908L51.2537 34.7707C50.9833 35.1693 50.6176 35.4958 50.1888 35.7212C49.7601 35.9466 49.2816 36.0638 48.796 36.0626C48.4096 36.068 48.0262 35.996 47.6689 35.8508C47.3116 35.7056 46.9878 35.4903 46.7171 35.2179C46.4464 34.9455 46.2345 34.6216 46.0942 34.2659C45.9539 33.9103 45.8881 33.5302 45.9008 33.1486C45.8432 32.4927 46.032 31.8388 46.4311 31.3116C46.8301 30.7844 47.4116 30.4207 48.0647 30.2898C48.7178 30.159 49.3967 30.2701 49.9721 30.6021C50.5476 30.9341 50.9792 31.4637 51.1849 32.0899L51.3176 32.425L47.3852 34.0325C47.5078 34.3047 47.71 34.5343 47.9658 34.6918C48.2216 34.8494 48.5193 34.9276 48.8205 34.9164C49.1089 34.91 49.3909 34.8307 49.6395 34.6862C49.8882 34.5417 50.0953 34.3367 50.2411 34.0908ZM47.1395 33.0418L49.784 31.9636C49.6781 31.7702 49.5178 31.6113 49.3223 31.5061C49.1269 31.401 48.9048 31.3541 48.6829 31.3711C48.4705 31.3805 48.262 31.4311 48.0694 31.5202C47.8768 31.6093 47.7038 31.735 47.5605 31.8902C47.4171 32.0454 47.3061 32.2269 47.2339 32.4246C47.1616 32.6222 47.1295 32.8319 47.1395 33.0418Z" fill="#EA4335"/>
</g>
<defs>
<clipPath id="clip0_1382_16997">
<rect width="68.0065" height="11.6547" fill="white" transform="translate(14.4453 27)"/>
</clipPath>
</defs>
</svg>
