<svg width="96" height="54" viewBox="0 0 96 54" fill="none" xmlns="http://www.w3.org/2000/svg">
<g opacity="0.5">
<path d="M0.867188 3.00195C0.867188 1.89738 1.76262 1.00195 2.86719 1.00195H92.2633C93.3679 1.00195 94.2633 1.89738 94.2633 3.00195V51C94.2633 52.1046 93.3679 53 92.2633 53H2.86719C1.76262 53 0.867188 52.1046 0.867188 51V3.00195Z" fill="#070D18"/>
<path d="M2.86719 0.565531C1.52159 0.565531 0.430765 1.65636 0.430765 3.00195V51C0.430765 52.3456 1.52159 53.4364 2.86719 53.4364H92.2633C93.6089 53.4364 94.6998 52.3456 94.6998 51V3.00195C94.6998 1.65635 93.6089 0.565531 92.2633 0.565531H2.86719Z" stroke="white" stroke-opacity="0.3" stroke-width="0.872845"/>
</g>
<path d="M37.0567 22.3038C37.3252 22.4752 37.7413 22.6214 38.2552 22.7192C38.7692 22.8653 39.3074 22.8895 39.8709 22.8895C40.4091 22.8895 40.8989 22.8169 41.3391 22.6939C41.7794 22.5477 42.1712 22.3532 42.5135 22.1082C42.8316 21.8642 43.1012 21.5719 43.2729 21.1807C43.4435 20.8148 43.5414 20.4246 43.5414 19.9609C43.5414 19.4236 43.3708 18.9356 43.0527 18.4961C42.7347 18.0807 42.1954 17.7389 41.4371 17.495L39.9689 17.0071C39.4306 16.8367 39.0146 16.6411 38.7934 16.4213C38.5986 16.2258 38.4754 15.9818 38.4754 15.6642C38.4754 15.2499 38.647 14.9081 38.9651 14.7367C39.3074 14.5422 39.7487 14.4202 40.3607 14.4202C41.119 14.4202 41.7551 14.5664 42.3913 14.8345C42.563 14.9081 42.7094 14.9818 42.8073 14.9818C42.979 14.9818 43.0527 14.884 43.0527 14.64V14.2246C43.0527 14.0785 43.0275 13.9565 42.9548 13.8829C42.8811 13.7851 42.7831 13.6873 42.6367 13.6147C42.5388 13.5411 42.3671 13.4675 42.1954 13.4433C42.0248 13.3708 41.8289 13.3455 41.6087 13.273C41.4128 13.2477 41.1674 13.1752 40.9231 13.1752C40.6787 13.1016 40.4333 13.1016 40.2132 13.1016C39.7235 13.1016 39.3327 13.1752 38.9167 13.273C38.5006 13.4191 38.1331 13.5895 37.815 13.8093C37.4969 14.0532 37.2768 14.3224 37.0567 14.6642C36.8607 15.0059 36.787 15.3719 36.787 15.8356C36.787 16.373 36.9587 16.8851 37.301 17.3488C37.6433 17.8368 38.1826 18.1785 38.9893 18.3983L40.5071 18.8862C41.021 19.0576 41.3633 19.228 41.5592 19.4236C41.7551 19.6191 41.8289 19.8631 41.8289 20.1313C41.8289 20.5466 41.6572 20.8884 41.2907 21.1323C40.9231 21.3763 40.4333 21.4741 39.7487 21.4741C39.3327 21.4741 38.9167 21.4499 38.5249 21.3279C38.1088 21.2543 37.7413 21.1323 37.3505 20.9609C37.2526 20.9368 37.1546 20.8884 37.0809 20.8642C37.0072 20.839 36.9334 20.839 36.885 20.839C36.7133 20.839 36.6406 20.9368 36.6406 21.1807V21.6939C36.6406 21.7917 36.6648 21.8884 36.7133 22.0114C36.787 22.1334 36.885 22.206 37.0567 22.3038Z" fill="white"/>
<path d="M19.337 17.2503C18.9694 17.1767 18.5778 17.1767 18.2352 17.1767C17.1828 17.1767 16.3262 17.4459 15.6655 18.0074C15.0047 18.5437 14.7109 19.2766 14.7109 20.1547C14.7109 21.0096 14.9557 21.6679 15.4697 22.1811C15.9836 22.6932 16.6689 22.9371 17.5499 22.9371C18.7736 22.9371 19.8014 22.4492 20.6335 21.4976C20.7315 21.7415 20.8294 21.9371 20.9516 22.1074C21.0738 22.2788 21.197 22.4492 21.3192 22.5954C21.4171 22.6932 21.5151 22.7426 21.6372 22.7426C21.7099 22.7426 21.8079 22.7184 21.9058 22.6448L22.5673 22.2052C22.7137 22.1074 22.7632 22.0096 22.7632 21.8877C22.7632 21.8151 22.7379 21.7415 22.6894 21.6437C22.543 21.3756 22.4198 21.1316 22.3471 20.8876C22.2734 20.6437 22.2492 20.3503 22.2492 19.9602V16.5426C22.2492 15.4195 21.9795 14.5656 21.3918 13.9799C20.8052 13.3942 19.9236 13.125 18.6512 13.125C18.0638 13.125 17.5254 13.1986 17.0115 13.3206C16.522 13.4668 16.0815 13.5887 15.7144 13.8085C15.5675 13.8821 15.4697 13.9547 15.4452 14.0041C15.3717 14.0777 15.3717 14.1997 15.3717 14.3701V14.8832C15.3717 15.0777 15.4452 15.2239 15.5675 15.2239C15.592 15.2239 15.6655 15.2239 15.7389 15.1997C15.8123 15.1756 15.9347 15.1272 16.106 15.0536C16.4731 14.9074 16.8646 14.7854 17.2318 14.7118C17.5988 14.614 17.9904 14.5656 18.3576 14.5656C19.1895 14.5656 19.7277 14.736 20.0711 15.0536C20.4134 15.3711 20.5598 15.9327 20.5598 16.7382V17.4942C20.1195 17.3964 19.753 17.3239 19.337 17.2503ZM20.5356 19.1052C20.5356 19.447 20.5113 19.7646 20.4376 19.9843C20.3639 20.2283 20.267 20.4723 20.0953 20.6437C19.8257 20.9602 19.4834 21.18 19.0918 21.302C18.7246 21.4492 18.333 21.4976 17.9904 21.4976C17.501 21.4976 17.1338 21.3514 16.8891 21.1316C16.6444 20.8876 16.522 20.5206 16.522 20.0327C16.522 19.5206 16.6933 19.1052 17.036 18.8371C17.3786 18.5689 17.8926 18.4217 18.5778 18.4217C18.896 18.4217 19.239 18.4459 19.5813 18.4953C19.9236 18.5195 20.2417 18.5931 20.5356 18.6657V19.1052Z" fill="white"/>
<path d="M25.8347 22.133C25.9074 22.3276 25.9811 22.4748 26.0306 22.5473C26.1033 22.621 26.2265 22.6451 26.4467 22.6451H27.3272C27.5231 22.6451 27.6695 22.621 27.7432 22.5473C27.8169 22.4748 27.8907 22.3528 27.9391 22.133L29.5548 15.3957L31.1947 22.133C31.2189 22.3276 31.2916 22.4748 31.3895 22.5473C31.4632 22.621 31.6349 22.6451 31.8055 22.6451H32.6871C32.8588 22.6451 33.0052 22.621 33.1031 22.5473C33.1769 22.4748 33.2748 22.3528 33.299 22.133L35.8437 14.0781C35.8689 13.9803 35.9174 13.8825 35.9174 13.8341C35.9174 13.7605 35.9416 13.7363 35.9416 13.6627C35.9416 13.4923 35.8689 13.4187 35.6973 13.4187H34.743C34.5471 13.4187 34.4007 13.4429 34.327 13.5165C34.2533 13.5901 34.1795 13.7121 34.1311 13.9308L32.3195 20.9363L30.6312 13.9066C30.607 13.7121 30.5332 13.5649 30.4353 13.4923C30.3616 13.4187 30.1909 13.3945 30.0193 13.3945H29.163C28.9671 13.3945 28.8207 13.4187 28.7469 13.4923C28.6732 13.5649 28.5995 13.6869 28.551 13.9066L26.9112 20.8144L25.1733 13.9066C25.1006 13.7121 25.0269 13.5649 24.9774 13.4923C24.9047 13.4187 24.7826 13.3945 24.5614 13.3945H23.5345C23.3628 13.3945 23.2891 13.4671 23.2891 13.6385C23.2891 13.7121 23.3133 13.8341 23.387 14.0539L25.8347 22.133Z" fill="white"/>
<path d="M41.3452 27.1867C37.502 28.8219 33.2932 29.6032 29.4995 29.6032C23.8457 29.6032 18.3641 28.0647 13.9344 25.4779C13.5673 25.2339 13.2492 25.6483 13.5918 25.9658C17.7033 29.6516 23.1116 31.8724 29.1572 31.8724C33.4396 31.8724 38.432 30.5307 41.9077 27.967C42.3974 27.5768 41.9319 26.9669 41.3452 27.1867Z" fill="#FF9900"/>
<path d="M39.1892 25.7688C38.8712 25.9643 38.9449 26.2819 39.263 26.2567C40.3636 26.1105 42.8598 25.8182 43.2769 26.4039C43.7171 26.9402 42.7871 29.2841 42.3953 30.3336C42.2489 30.6512 42.5417 30.7731 42.8356 30.5281C44.6956 28.9907 45.1611 25.7446 44.7935 25.305C44.4017 24.7677 41.1472 24.4017 39.1892 25.7688Z" fill="#FF9900"/>
<path d="M53.0292 20.4974C52.9565 20.4974 52.8828 20.4732 52.8828 20.3512V14.7127C52.8828 14.6391 52.907 14.5665 53.0292 14.5665H53.2009C53.2988 14.5665 53.3473 14.5907 53.3473 14.7127L53.3726 15.0545C53.6169 14.8589 53.8866 14.7127 54.1309 14.6149C54.3753 14.5171 54.6207 14.4688 54.8892 14.4688C55.4285 14.4688 55.8445 14.6643 56.1626 15.0545C56.4807 15.4204 56.6513 15.9819 56.6513 16.6171C56.6513 17.3006 56.4807 17.8369 56.1626 18.2523C55.8192 18.6666 55.4032 18.8622 54.8166 18.8622C54.3026 18.8622 53.8613 18.6666 53.421 18.2765V20.327C53.421 20.3996 53.3968 20.4732 53.2746 20.4732H53.0292V20.4974ZM54.7428 18.4479C55.1831 18.4479 55.5254 18.3007 55.7708 18.0083C56.0151 17.6908 56.1131 17.2512 56.1131 16.6655C56.1131 15.494 55.6728 14.9325 54.7671 14.9325C54.3268 14.9325 53.8371 15.1039 53.3968 15.4698V17.8863C53.6412 18.0809 53.8371 18.2281 54.0572 18.3248C54.2773 18.3743 54.5227 18.4479 54.7428 18.4479Z" fill="white"/>
<path d="M58.6629 18.8622C58.2964 18.8622 57.9773 18.7644 57.7329 18.5204C57.4886 18.3248 57.3906 18.0083 57.3906 17.6424C57.3906 17.227 57.537 16.9336 57.8067 16.6897C58.0752 16.4457 58.467 16.3479 58.9326 16.3479C59.2991 16.3479 59.6909 16.4215 60.1311 16.5435V15.86C60.1311 15.5182 60.0585 15.2743 59.8868 15.1523C59.7151 15.0061 59.4708 14.9567 59.1032 14.9567C58.7367 14.9567 58.3206 15.0303 57.9046 15.1523C57.8804 15.1523 57.8066 15.1765 57.7571 15.1765C57.6845 15.1765 57.6845 15.1523 57.6845 15.0787V14.9083C57.6845 14.8841 57.6845 14.8347 57.7087 14.8105C57.7329 14.7863 57.7329 14.7863 57.7824 14.7369C58.2227 14.5666 58.6629 14.4688 59.1769 14.4688C59.6667 14.4688 60.0332 14.5665 60.2786 14.7863C60.523 14.9809 60.6209 15.2984 60.6209 15.7138V18.6424C60.6209 18.716 60.5967 18.7896 60.4745 18.7896H60.3028C60.2291 18.7896 60.1564 18.7644 60.1564 18.6424L60.1311 18.3007C59.6909 18.6918 59.1769 18.8622 58.6629 18.8622ZM58.7367 18.4479C58.9326 18.4479 59.1769 18.4226 59.4213 18.3007C59.6667 18.2029 59.911 18.1061 60.1807 17.9347V16.9094C59.8131 16.8116 59.4708 16.7633 59.079 16.7633C58.2964 16.7633 57.9046 17.0808 57.9046 17.6424C57.9046 17.8863 57.9773 18.0809 58.1005 18.2281C58.2469 18.3743 58.467 18.4479 58.7367 18.4479Z" fill="white"/>
<path d="M62.0605 18.7914C61.9867 18.7914 61.9141 18.7662 61.9141 18.6442V14.7145C61.9141 14.642 61.9383 14.5684 62.0605 14.5684H62.2321C62.3301 14.5684 62.3785 14.5926 62.3785 14.7145L62.4028 15.2025C62.5987 14.9585 62.8188 14.7881 63.0147 14.7145C63.2106 14.6167 63.456 14.5684 63.7004 14.5684C63.7983 14.5684 63.872 14.5684 63.8962 14.5684C63.9689 14.5684 64.0427 14.5926 64.0427 14.7145V14.9101C64.0427 14.9343 64.0426 14.9343 64.0184 14.9827C64.0184 15.0079 63.9942 15.0079 63.9447 15.0079C63.9205 15.0079 63.8467 15.0079 63.7983 15.0079C63.7741 15.0079 63.7003 15.0079 63.6266 15.0079C63.3823 15.0079 63.1369 15.0321 62.942 15.1541C62.7461 15.2519 62.5744 15.398 62.3543 15.5936V18.6442C62.3543 18.7178 62.3301 18.7914 62.2069 18.7914H62.0605Z" fill="white"/>
<path d="M66.2186 18.8386C65.8752 18.8386 65.6309 18.7408 65.4592 18.5705C65.2886 18.3991 65.1906 18.1551 65.1906 17.8133V15.0551H64.5292C64.4565 15.0551 64.3828 15.0309 64.3828 14.9089V14.8353C64.3828 14.8111 64.3828 14.7628 64.407 14.7375C64.407 14.7133 64.4313 14.7133 64.505 14.7133L65.1906 14.6408L65.2633 13.5419C65.2633 13.5177 65.2886 13.4683 65.2886 13.4441C65.3128 13.4199 65.3128 13.4199 65.3866 13.4199H65.5329C65.6067 13.4199 65.6794 13.4441 65.6794 13.5661V14.665H66.879C66.9527 14.665 67.0254 14.6892 67.0254 14.8111V14.9825C67.0254 15.0551 67.0012 15.1287 66.879 15.1287H65.6794V17.8869C65.6794 18.1309 65.7046 18.2529 65.8268 18.3749C65.9248 18.4727 66.0954 18.5211 66.3166 18.5211C66.4872 18.5211 66.6346 18.521 66.7326 18.4969C66.8053 18.4969 66.8295 18.4727 66.879 18.4727C66.9032 18.4727 66.9527 18.4727 66.9527 18.4727C67.0254 18.4727 67.0507 18.4969 67.0507 18.5705V18.7166C67.0507 18.8144 67.0254 18.8628 66.9527 18.887C66.7326 18.7902 66.5114 18.8386 66.2186 18.8386Z" fill="white"/>
<path d="M68.0771 18.7884C68.0034 18.7884 67.9297 18.7632 67.9297 18.6412V14.7115C67.9297 14.639 67.955 14.5653 68.0771 14.5653H68.2488C68.3457 14.5653 68.3952 14.5895 68.3952 14.7115L68.4195 15.0533C68.6891 14.8577 68.9576 14.7115 69.2757 14.6137C69.5949 14.5159 69.8634 14.4434 70.1331 14.4434C70.5491 14.4434 70.843 14.5412 71.0631 14.7609C71.259 14.9555 71.3812 15.273 71.3812 15.7126V18.617C71.3812 18.6906 71.3569 18.7632 71.2337 18.7632H70.9893C70.9156 18.7632 70.843 18.739 70.843 18.617V15.9566C70.843 15.5906 70.7692 15.3467 70.647 15.1752C70.4996 15.0049 70.2795 14.9313 69.9856 14.9313C69.4474 14.9313 68.885 15.1027 68.371 15.4686V18.6906C68.371 18.7632 68.3457 18.8368 68.2235 18.8368H68.0529V18.7884H68.0771Z" fill="white"/>
<path d="M74.4431 18.8864C73.7827 18.8864 73.2688 18.716 72.9749 18.3501C72.6316 17.9841 72.4609 17.4226 72.4609 16.6655C72.4609 15.982 72.6316 15.4446 72.9749 15.0545C73.3172 14.6885 73.807 14.4688 74.3694 14.4688C74.8834 14.4688 75.251 14.6149 75.5448 14.9083C75.8134 15.1765 75.9608 15.5918 75.9608 16.1281C75.9608 16.3237 75.9608 16.4951 75.9356 16.6413C75.9356 16.7138 75.8629 16.7874 75.7892 16.7874H72.9749C72.9749 17.3732 73.1213 17.8127 73.3414 18.0809C73.5868 18.3501 74.0029 18.4962 74.5169 18.4962C74.9329 18.4962 75.2994 18.4226 75.6428 18.3007C75.7154 18.2765 75.7892 18.2765 75.7892 18.2765C75.8134 18.2765 75.8134 18.2765 75.8629 18.3007C75.8629 18.3248 75.8871 18.3248 75.8871 18.3743V18.5204C75.8871 18.6182 75.8629 18.6666 75.7892 18.6918C75.3489 18.7896 74.9329 18.8864 74.4431 18.8864ZM75.4711 16.3973C75.4711 16.3237 75.4711 16.2259 75.4711 16.1281C75.4711 15.7138 75.3731 15.4446 75.2015 15.2501C75.0055 15.0545 74.7127 14.9325 74.3452 14.9325C73.4636 14.9325 72.9991 15.4204 72.9507 16.3973H75.4711Z" fill="white"/>
<path d="M77.0839 18.7914C77.0102 18.7914 76.9375 18.7662 76.9375 18.6442V14.7145C76.9375 14.642 76.9617 14.5684 77.0839 14.5684H77.2556C77.3535 14.5684 77.402 14.5926 77.402 14.7145L77.4262 15.2025C77.6221 14.9585 77.8422 14.7881 78.0381 14.7145C78.234 14.6167 78.4794 14.5684 78.7238 14.5684C78.8217 14.5684 78.8955 14.5684 78.9197 14.5684C78.9934 14.5684 79.0661 14.5926 79.0661 14.7145V14.9101C79.0661 14.9343 79.0661 14.9343 79.0419 14.9827C79.0419 15.0079 79.0176 15.0079 78.9681 15.0079C78.9197 15.0079 78.8702 15.0079 78.8217 15.0079C78.7975 15.0079 78.7238 15.0079 78.6501 15.0079C78.4057 15.0079 78.1614 15.0321 77.9655 15.1541C77.7696 15.2519 77.5979 15.398 77.3778 15.5936V18.6442C77.3778 18.7178 77.3535 18.7914 77.2313 18.7914H77.0839Z" fill="white"/>
<path d="M53.0292 27.9897C52.9565 27.9897 52.8828 27.9656 52.8828 27.8436V23.9381C52.8828 23.8655 52.907 23.7919 53.0292 23.7919H53.2009C53.2988 23.7919 53.3473 23.8161 53.3473 23.9381L53.3726 24.2798C53.6412 24.0842 53.9108 23.9381 54.2289 23.8403C54.5469 23.7425 54.8166 23.6699 55.0851 23.6699C55.5012 23.6699 55.795 23.7677 56.0151 23.9875C56.211 24.182 56.3332 24.4996 56.3332 24.9392V27.8436C56.3332 27.9172 56.309 27.9897 56.1868 27.9897H55.9414C55.8687 27.9897 55.795 27.9656 55.795 27.8436V25.1348C55.795 24.7678 55.7213 24.5238 55.5991 24.3534C55.4527 24.182 55.2326 24.1095 54.9387 24.1095C54.4005 24.1095 53.837 24.2798 53.3231 24.6458V27.8678C53.3231 27.9414 53.2988 28.015 53.1767 28.015H53.005V27.9897H53.0292Z" fill="white"/>
<path d="M59.4119 28.1129C58.7505 28.1129 58.2375 27.9426 57.9437 27.5766C57.6003 27.2107 57.4297 26.6492 57.4297 25.892C57.4297 25.2085 57.6003 24.6722 57.9437 24.281C58.286 23.9151 58.7757 23.6953 59.3382 23.6953C59.8521 23.6953 60.2197 23.8415 60.5136 24.1349C60.7821 24.403 60.9296 24.8184 60.9296 25.3557C60.9296 25.5503 60.9296 25.7217 60.9043 25.8679C60.9043 25.9415 60.8316 26.014 60.7579 26.014H57.9437C57.9437 26.5997 58.0901 27.0393 58.3102 27.3074C58.5556 27.5766 58.9716 27.7228 59.4856 27.7228C59.9016 27.7228 60.2682 27.6492 60.6105 27.5272C60.6842 27.503 60.7579 27.503 60.7579 27.503C60.7821 27.503 60.7821 27.503 60.8316 27.5272C60.8316 27.5524 60.8559 27.5525 60.8559 27.6008V27.747C60.8559 27.8448 60.8316 27.8942 60.7579 27.9184C60.3419 28.0162 59.8764 28.1129 59.4119 28.1129ZM60.4398 25.5997C60.4398 25.5261 60.4398 25.4283 60.4398 25.3305C60.4398 24.9162 60.3419 24.647 60.1702 24.4524C59.9743 24.2568 59.6805 24.1349 59.3139 24.1349C58.4324 24.1349 57.9679 24.6228 57.9184 25.5997H60.4398Z" fill="white"/>
<path d="M63.2577 28.0647C62.9143 28.0647 62.67 27.9669 62.4983 27.7966C62.3277 27.6252 62.2297 27.3812 62.2297 27.0395V24.2328H61.5683C61.4956 24.2328 61.4219 24.2087 61.4219 24.0867V24.0131C61.4219 23.9889 61.4219 23.9394 61.4461 23.9153C61.4461 23.8911 61.4703 23.8911 61.544 23.8911L62.2297 23.8175L62.3024 22.7196C62.3024 22.6954 62.3277 22.646 62.3277 22.6218C62.3519 22.5977 62.3519 22.5977 62.4246 22.5977H62.572C62.6457 22.5977 62.7184 22.6218 62.7184 22.7438V23.8427H63.9181C63.9918 23.8427 64.0645 23.8669 64.0645 23.9889V24.1592C64.0645 24.2328 64.0402 24.3064 63.9181 24.3064H62.7437V27.0647C62.7437 27.3087 62.7679 27.4306 62.8901 27.5526C63.0123 27.6746 63.1597 27.6988 63.3799 27.6988C63.5505 27.6988 63.6979 27.6988 63.7959 27.6746C63.8685 27.6746 63.8938 27.6504 63.9423 27.6504C63.9665 27.6504 64.016 27.6504 64.016 27.6504C64.0897 27.6504 64.114 27.6746 64.114 27.7472V27.8944C64.114 27.9922 64.0897 28.0405 64.016 28.0647C63.7716 28.0164 63.5263 28.0647 63.2577 28.0647Z" fill="white"/>
<path d="M65.9534 27.9916C65.8797 27.9916 65.807 27.9674 65.7817 27.8948L64.4852 24.0377C64.4609 23.9641 64.4609 23.9399 64.4609 23.8915C64.4609 23.8421 64.4852 23.8179 64.5589 23.8179H64.8275C64.9012 23.8179 64.9254 23.8421 64.9749 23.9157L66.0998 27.4311L67.1035 23.9157C67.1277 23.8421 67.1772 23.8179 67.2752 23.8179H67.5933C67.667 23.8179 67.7397 23.8421 67.7649 23.9157L68.7676 27.4311L69.943 23.8673C69.9673 23.7937 70.0157 23.7695 70.0894 23.7695H70.3338C70.4075 23.7695 70.4318 23.7937 70.4318 23.8421C70.4318 23.8673 70.4317 23.9157 70.4075 23.9893L69.0373 27.8454C69.013 27.919 68.9635 27.9432 68.8656 27.9432H68.597C68.5233 27.9432 68.4496 27.919 68.4253 27.8454L67.4216 24.3311L66.4189 27.8454C66.3936 27.919 66.3452 27.9432 66.2472 27.9432H66.0029V27.9916H65.9534Z" fill="white"/>
<path d="M72.8564 28.1117C72.2445 28.1117 71.7558 27.9172 71.4124 27.526C71.0701 27.1601 70.8984 26.5985 70.8984 25.8908C70.8984 25.2073 71.0701 24.671 71.4124 24.2556C71.7558 23.8897 72.2445 23.6699 72.8564 23.6699C73.4683 23.6699 73.9581 23.8655 74.3004 24.2556C74.6437 24.6216 74.8144 25.1831 74.8144 25.8908C74.8144 26.5743 74.6437 27.1117 74.3004 27.526C73.9339 27.9172 73.4683 28.1117 72.8564 28.1117ZM72.8564 27.6732C73.8117 27.6732 74.3004 27.0875 74.3004 25.8908C74.3004 24.6952 73.8117 24.1095 72.8564 24.1095C71.9022 24.1095 71.4124 24.6952 71.4124 25.8908C71.4124 27.0875 71.8779 27.6732 72.8564 27.6732Z" fill="white"/>
<path d="M75.9834 27.9908C75.9097 27.9908 75.8359 27.9666 75.8359 27.8446V23.9391C75.8359 23.8666 75.8612 23.793 75.9834 23.793H76.154C76.252 23.793 76.3015 23.8172 76.3015 23.9391L76.3257 24.4271C76.5216 24.1831 76.7417 24.0128 76.9376 23.9391C77.1335 23.8413 77.3779 23.793 77.6233 23.793C77.7212 23.793 77.7939 23.793 77.8181 23.793C77.8919 23.793 77.9656 23.8172 77.9656 23.9391V24.1347C77.9656 24.1589 77.9656 24.1589 77.9414 24.2083C77.9161 24.2325 77.9161 24.2325 77.8676 24.2325C77.8434 24.2325 77.7697 24.2325 77.7212 24.2325C77.6959 24.2325 77.6233 24.2325 77.5496 24.2325C77.3052 24.2325 77.0598 24.2567 76.8639 24.3787C76.668 24.4765 76.4974 24.6227 76.2773 24.8182V27.8688C76.2773 27.9424 76.252 28.0161 76.1298 28.0161H75.9592V27.9908H75.9834Z" fill="white"/>
<path d="M78.8495 27.9912C78.7769 27.9912 78.7031 27.967 78.7031 27.845V21.9626C78.7031 21.889 78.7274 21.8164 78.8495 21.8164H79.0949C79.1687 21.8164 79.2413 21.8406 79.2413 21.9626V25.6725L81.2235 23.8911C81.2973 23.8175 81.371 23.8175 81.4194 23.8175H81.7375C81.8112 23.8175 81.8355 23.8417 81.8355 23.8911C81.8355 23.9395 81.8112 23.9637 81.7375 24.0373L79.7069 25.8197L81.9092 27.845C81.9334 27.8692 81.9829 27.9186 81.9829 27.9428C81.9829 28.0164 81.9587 28.0164 81.885 28.0164H81.5416C81.4689 28.0164 81.3952 27.9912 81.371 27.9428L79.2413 25.9659V27.8692C79.2413 27.9428 79.2171 28.0164 79.0949 28.0164H78.8495V27.9912Z" fill="white"/>
<path d="M15.1096 38.5621C14.6446 38.3907 14.3019 38.172 14.1061 37.927C13.9103 37.683 13.8125 37.3665 13.8125 36.9753C13.8125 36.4874 13.9838 36.0972 14.3509 35.8039C14.718 35.5105 15.2075 35.3643 15.8193 35.3643C16.3332 35.3643 16.8228 35.4621 17.3122 35.6577V36.5357C16.7982 36.3896 16.3332 36.2918 15.8927 36.2918C15.2809 36.2918 14.9627 36.4874 14.9627 36.8775C14.9627 37.0247 15.0117 37.1467 15.1096 37.2435C15.2075 37.3412 15.4277 37.4391 15.7214 37.5368L16.3088 37.7566C16.7982 37.927 17.1408 38.1468 17.3366 38.3665C17.5324 38.6105 17.6548 38.9039 17.6548 39.294C17.6548 39.8313 17.459 40.2467 17.0674 40.5632C16.6758 40.8808 16.162 41.027 15.4767 41.027C15.183 41.027 14.8893 41.0028 14.5956 40.9544C14.3019 40.905 14.0572 40.8324 13.8369 40.7347V39.8313C14.1061 39.905 14.3753 39.9775 14.6691 40.0269C14.9627 40.0753 15.2319 40.0995 15.4767 40.0995C15.7948 40.0995 16.0151 40.0511 16.1864 39.9291C16.3578 39.8072 16.4312 39.6599 16.4312 39.4412C16.4312 39.2698 16.3822 39.1478 16.2843 39.05C16.1864 38.9522 15.9662 38.8544 15.6724 38.7325L15.1096 38.5621ZM19.4168 39.2214C19.441 39.5632 19.5389 39.8072 19.7348 39.9775C19.9308 40.1237 20.2246 40.1973 20.6164 40.1973C20.9587 40.1973 21.3747 40.1237 21.8403 40.0017V40.7588C21.6686 40.8566 21.4485 40.9292 21.1788 40.9786C20.9345 41.027 20.6649 41.0522 20.3963 41.0522C19.7349 41.0522 19.2209 40.8808 18.8785 40.5149C18.5358 40.1489 18.3646 39.6358 18.3646 38.9281C18.3646 38.2687 18.5358 37.7566 18.8785 37.3665C19.2209 36.9995 19.7106 36.805 20.3226 36.805C20.8365 36.805 21.2283 36.9511 21.5211 37.2435C21.7908 37.5368 21.9372 37.927 21.9372 38.4643C21.9372 38.5863 21.9372 38.7083 21.9129 38.8544C21.8887 39.0017 21.8887 39.1236 21.8645 39.2214H19.4168ZM20.2488 37.6104C19.9803 37.6104 19.7844 37.683 19.6369 37.8302C19.4905 37.9764 19.4168 38.1962 19.3926 38.4885H20.9345V38.3665C20.9345 37.8544 20.7144 37.6104 20.2488 37.6104ZM24.5566 40.8566C24.3364 40.9544 24.091 40.9786 23.8467 40.9786C23.1368 40.9786 22.7945 40.5885 22.7945 39.8072V35.1445H23.9446V39.7094C23.9446 39.8555 23.9689 39.9533 24.0184 40.0269C24.0668 40.0753 24.1405 40.1237 24.2627 40.1237C24.3365 40.1237 24.4344 40.1237 24.5566 40.0995V40.8566ZM26.1965 39.2214C26.2207 39.5632 26.3186 39.8072 26.5145 39.9775C26.7104 40.1237 27.0032 40.1973 27.3951 40.1973C27.7384 40.1973 28.1544 40.1237 28.6189 40.0017V40.7588C28.4472 40.8566 28.2271 40.9292 27.9585 40.9786C27.7131 41.027 27.4446 41.0522 27.1749 41.0522C26.5145 41.0522 26.0006 40.8808 25.6572 40.5149C25.3149 40.1489 25.1432 39.6358 25.1432 38.9281C25.1432 38.2687 25.3149 37.7566 25.6572 37.3665C26.0006 36.9995 26.4893 36.805 27.1012 36.805C27.6152 36.805 28.007 36.9511 28.3008 37.2435C28.5705 37.5368 28.7169 37.927 28.7169 38.4643C28.7169 38.5863 28.7169 38.7083 28.6926 38.8544C28.6684 39.0017 28.6684 39.1236 28.6431 39.2214H26.1965ZM27.0528 37.6104C26.7831 37.6104 26.5872 37.683 26.4408 37.8302C26.2944 37.9764 26.2207 38.1962 26.1965 38.4885H27.7384V38.3665C27.7131 37.8544 27.493 37.6104 27.0528 37.6104ZM32.4611 40.7588C32.3147 40.8324 32.143 40.905 31.9471 40.9544C31.7512 41.0028 31.5311 41.027 31.3352 41.027C30.6991 41.027 30.2093 40.8566 29.867 40.4907C29.5247 40.1237 29.353 39.6116 29.353 38.9522C29.353 38.294 29.5247 37.7808 29.8912 37.4149C30.2588 37.0489 30.7486 36.8533 31.3605 36.8533C31.7512 36.8533 32.0946 36.9269 32.4127 37.0973V37.8544C32.0946 37.7566 31.825 37.7324 31.5553 37.7324C31.1888 37.7324 30.9192 37.8302 30.7486 38.0006C30.5769 38.1962 30.5032 38.4885 30.5032 38.8797V39.0017C30.5032 39.3918 30.5769 39.6852 30.7486 39.8797C30.9192 40.0753 31.1888 40.1489 31.5311 40.1489C31.7765 40.1489 32.0946 40.0995 32.4127 40.0017V40.7588H32.4611ZM35.643 40.8324C35.3491 40.9292 35.0553 41.0028 34.6887 41.0028C34.2474 41.0028 33.9051 40.905 33.7092 40.6852C33.4891 40.4654 33.3911 40.1489 33.3911 39.7094V37.7808H32.7792V37.0731L33.4154 36.9511L33.587 35.8522H34.517V36.9269H35.5935V37.7808H34.517V39.66C34.517 39.8314 34.5665 39.9533 34.6392 40.0269C34.7129 40.0995 34.8594 40.1237 35.0553 40.1237C35.2269 40.1237 35.3986 40.0995 35.6187 40.0753V40.8324H35.643Z" fill="white"/>
<path d="M38.5037 40.404C38.4574 40.404 38.4376 40.3849 38.4376 40.3406V37.6465H37.4724C37.4261 37.6465 37.4062 37.6274 37.4062 37.5829V37.4815C37.4062 37.4373 37.4261 37.4182 37.4724 37.4182H39.6674C39.7134 37.4182 39.7334 37.4373 39.7334 37.4815V37.5829C39.7334 37.6274 39.7134 37.6465 39.6674 37.6465H38.702V40.3406C38.702 40.3849 38.6822 40.404 38.6359 40.404H38.5037ZM41.1218 40.4673C40.7647 40.4673 40.5001 40.3723 40.3152 40.1757C40.1365 39.9793 40.044 39.6939 40.044 39.3135C40.044 38.9522 40.1365 38.6733 40.3152 38.4704C40.5001 38.2675 40.7513 38.1725 41.0754 38.1725C41.3465 38.1725 41.5579 38.2487 41.7033 38.3945C41.849 38.5466 41.9215 38.7558 41.9215 39.0347C41.9215 39.1488 41.915 39.2376 41.9016 39.2946C41.895 39.3389 41.8686 39.358 41.8225 39.358H40.3018C40.3018 39.6622 40.3746 39.884 40.5069 40.0235C40.6389 40.1694 40.8506 40.239 41.1348 40.239C41.3531 40.239 41.5579 40.2011 41.7497 40.1314C41.7892 40.1186 41.8157 40.1123 41.829 40.1123C41.8421 40.1123 41.849 40.1186 41.862 40.1249C41.8686 40.1377 41.8754 40.144 41.8754 40.1631V40.2265C41.8754 40.2707 41.862 40.3024 41.8225 40.3152C41.6174 40.4165 41.3795 40.4673 41.1218 40.4673ZM41.6768 39.1614C41.6768 39.1234 41.6837 39.0726 41.6837 39.0221C41.6837 38.8129 41.6307 38.6608 41.5249 38.5529C41.4191 38.445 41.2671 38.3945 41.062 38.3945C40.586 38.3945 40.3348 38.6542 40.3083 39.1677H41.6768V39.1614ZM43.4354 40.4545C43.0917 40.4545 42.8274 40.3595 42.6422 40.1694C42.4638 39.9793 42.371 39.6939 42.371 39.3263C42.371 38.9585 42.4638 38.6796 42.6422 38.4833C42.8274 38.2866 43.0917 38.1916 43.4354 38.1916C43.6007 38.1916 43.7594 38.217 43.9048 38.2741C43.9378 38.2866 43.9577 38.3183 43.9577 38.3628V38.4262C43.9577 38.4641 43.9378 38.4833 43.9048 38.4833C43.8983 38.4833 43.8849 38.4833 43.8718 38.4767C43.8584 38.4704 43.8388 38.4704 43.8058 38.4641C43.6866 38.4387 43.5677 38.4196 43.4488 38.4196C43.1645 38.4196 42.9594 38.4895 42.8339 38.6288C42.7082 38.7684 42.6422 38.9904 42.6422 39.3009V39.3517C42.6422 39.6497 42.7082 39.8714 42.8339 40.011C42.9594 40.1503 43.1645 40.2265 43.4422 40.2265C43.5611 40.2265 43.6866 40.2073 43.8323 40.1694C43.8653 40.1631 43.8849 40.1568 43.8983 40.1503C43.9114 40.144 43.9247 40.144 43.9313 40.144C43.9643 40.144 43.9842 40.1631 43.9842 40.2011V40.2644C43.9842 40.3089 43.9708 40.3406 43.9378 40.3532C43.7859 40.4165 43.614 40.4545 43.4354 40.4545ZM44.5925 40.404C44.5461 40.404 44.5262 40.3849 44.5262 40.3406V37.2786C44.5262 37.2344 44.5461 37.2153 44.5925 37.2153H44.7114C44.7578 37.2153 44.7774 37.2344 44.7774 37.2786V38.4833C44.9231 38.388 45.075 38.312 45.2403 38.255C45.3991 38.1979 45.5575 38.1725 45.7097 38.1725C45.9277 38.1725 46.093 38.2296 46.2122 38.3374C46.3311 38.445 46.384 38.61 46.384 38.8255V40.3406C46.384 40.3849 46.3641 40.404 46.3177 40.404H46.1988C46.1527 40.404 46.1328 40.3849 46.1328 40.3406V38.9333C46.1328 38.7493 46.093 38.61 46.0204 38.5275C45.9476 38.445 45.8287 38.4008 45.6634 38.4008C45.3658 38.4008 45.075 38.4895 44.7908 38.6733V40.3406C44.7908 40.3849 44.7709 40.404 44.7245 40.404H44.5925ZM47.1442 40.404C47.0978 40.404 47.0782 40.3849 47.0782 40.3406V38.2992C47.0782 38.255 47.0978 38.2358 47.1442 38.2358H47.2367C47.2831 38.2358 47.3095 38.255 47.3161 38.2992L47.336 38.4833C47.4814 38.3817 47.6401 38.3057 47.7986 38.2487C47.9573 38.1916 48.1161 38.1662 48.268 38.1662C48.4863 38.1662 48.6515 38.2233 48.7705 38.3309C48.8894 38.4387 48.9423 38.6037 48.9423 38.8192V40.3406C48.9423 40.3849 48.9227 40.404 48.8763 40.404H48.7574C48.711 40.404 48.6911 40.3849 48.6911 40.3406V38.9333C48.6911 38.7493 48.6516 38.61 48.5787 38.5275C48.5062 38.445 48.387 38.4008 48.2219 38.4008C47.9243 38.4008 47.6336 38.4895 47.3491 38.6733V40.3406C47.3491 40.3849 47.3294 40.404 47.2831 40.404H47.1442ZM50.5555 40.4673C50.2249 40.4673 49.9671 40.366 49.7887 40.1631C49.6035 39.9602 49.5176 39.6748 49.5176 39.3135C49.5176 38.9522 49.6101 38.6733 49.7887 38.4704C49.9737 38.2675 50.2314 38.1662 50.5555 38.1662C50.8861 38.1662 51.1438 38.2675 51.3222 38.4704C51.5074 38.6733 51.5999 38.9522 51.5999 39.3135C51.5999 39.6748 51.5074 39.9602 51.3222 40.1631C51.1438 40.366 50.8861 40.4673 50.5555 40.4673ZM50.5555 40.2453C51.071 40.2453 51.3356 39.9348 51.3356 39.32C51.3356 38.705 51.0778 38.4008 50.5555 38.4008C50.04 38.4008 49.7754 38.705 49.7754 39.32C49.7754 39.9348 50.0331 40.2453 50.5555 40.2453ZM52.5652 40.4165C52.4463 40.4165 52.3536 40.3849 52.2876 40.3152C52.2216 40.2456 52.1883 40.1568 52.1883 40.0298V37.2723C52.1883 37.2281 52.2082 37.209 52.2546 37.209H52.3735C52.4199 37.209 52.4395 37.2281 52.4395 37.2723V40.0235C52.4395 40.0869 52.4529 40.1314 52.4793 40.1568C52.5058 40.1819 52.5519 40.1948 52.6182 40.1948C52.6381 40.1948 52.6577 40.1948 52.6776 40.1885C52.6975 40.1885 52.7172 40.1819 52.7305 40.1819C52.7701 40.1819 52.7965 40.2011 52.7965 40.2453V40.3278C52.7965 40.366 52.7769 40.3849 52.7371 40.3911C52.6842 40.4103 52.6312 40.4165 52.5652 40.4165ZM54.2313 40.4673C53.9007 40.4673 53.6427 40.366 53.4643 40.1631C53.2791 39.9602 53.1932 39.6748 53.1932 39.3135C53.1932 38.9522 53.2859 38.6733 53.4643 38.4704C53.6495 38.2675 53.9073 38.1662 54.2313 38.1662C54.5616 38.1662 54.8197 38.2675 54.9981 38.4704C55.1833 38.6733 55.2758 38.9522 55.2758 39.3135C55.2758 39.6748 55.1833 39.9602 54.9981 40.1631C54.8197 40.366 54.5616 40.4673 54.2313 40.4673ZM54.2313 40.2453C54.7469 40.2453 55.0112 39.9348 55.0112 39.32C55.0112 38.705 54.7534 38.4008 54.2313 38.4008C53.7155 38.4008 53.4512 38.705 53.4512 39.32C53.4578 39.9348 53.7155 40.2453 54.2313 40.2453ZM56.6573 41.3421C56.5319 41.3421 56.4061 41.3295 56.2872 41.3041C56.1683 41.2787 56.0624 41.247 55.97 41.2028C55.937 41.19 55.917 41.1583 55.917 41.114V41.0504C55.917 41.0124 55.9301 40.9936 55.97 40.9936C55.9765 40.9936 55.9896 40.9936 55.9964 40.9999C56.0095 40.9999 56.0294 41.0062 56.0559 41.0187C56.2673 41.0821 56.4656 41.1203 56.6377 41.1203C56.9154 41.1203 57.1202 41.057 57.2525 40.9237C57.3845 40.7907 57.4508 40.5815 57.4508 40.2961V40.0869C57.3384 40.1757 57.2192 40.2453 57.0804 40.2961C56.9484 40.3469 56.8161 40.3723 56.6972 40.3723C56.4061 40.3723 56.1813 40.2707 56.003 40.0743C55.8311 39.8777 55.7452 39.618 55.7452 39.2946C55.7452 38.9459 55.8311 38.6733 56.003 38.4704C56.1748 38.2675 56.4129 38.1662 56.7102 38.1662C56.9945 38.1662 57.2391 38.2612 57.4574 38.4516L57.4773 38.2929C57.4838 38.2487 57.5103 38.2296 57.5564 38.2296H57.6491C57.6952 38.2296 57.7151 38.2487 57.7151 38.2929V40.2961C57.7151 40.632 57.6227 40.892 57.444 41.0695C57.2656 41.247 56.9945 41.3421 56.6573 41.3421ZM56.7566 40.1503C56.9814 40.1503 57.2127 40.0615 57.4508 39.8777V38.6796C57.3251 38.5846 57.2127 38.5084 57.0938 38.4641C56.9814 38.4196 56.8556 38.3945 56.7302 38.3945C56.492 38.3945 56.3071 38.4704 56.1882 38.6163C56.069 38.7684 56.0095 38.9839 56.0095 39.2818C56.0095 39.5609 56.0758 39.7764 56.2013 39.9285C56.327 40.0806 56.5119 40.1503 56.7566 40.1503ZM58.4887 41.3421C58.4159 41.3421 58.3499 41.3295 58.2839 41.3104C58.2375 41.2978 58.2176 41.2724 58.2176 41.2216V41.1583C58.2176 41.1203 58.2375 41.1012 58.2705 41.1012C58.2904 41.1012 58.3035 41.1012 58.3169 41.1075C58.33 41.1075 58.3499 41.114 58.3763 41.114C58.4028 41.114 58.4292 41.114 58.4688 41.114C58.5681 41.114 58.6475 41.0886 58.7069 41.0378C58.7664 40.987 58.8193 40.8983 58.8722 40.7716L59.0242 40.4103L58.1382 38.3246C58.1251 38.2992 58.1186 38.2804 58.1186 38.2675C58.1186 38.2358 58.1382 38.217 58.1712 38.217H58.3169C58.3564 38.217 58.3829 38.2358 58.3962 38.2741L59.1496 40.1249L59.9101 38.2741C59.9232 38.2358 59.9497 38.217 59.9895 38.217H60.1215C60.1545 38.217 60.1744 38.2296 60.1744 38.2675C60.1744 38.2741 60.1679 38.2929 60.1545 38.3246L59.097 40.8478C59.0242 41.0253 58.9382 41.1457 58.8458 41.2216C58.753 41.3104 58.6341 41.3421 58.4887 41.3421Z" fill="white"/>
<path d="M62.3265 41.2562C62.2675 41.2562 62.2422 41.2306 62.2422 41.1703V37.2949C62.2422 37.2349 62.2675 37.209 62.3265 37.209H63.6084C63.971 37.209 64.2577 37.3208 64.4773 37.5355C64.6965 37.7506 64.7978 38.0426 64.7978 38.4121C64.7978 38.773 64.6882 39.0651 64.4773 39.2798C64.2577 39.4949 63.971 39.6063 63.6084 39.6063H62.5711V41.1703C62.5711 41.2306 62.5458 41.2562 62.4868 41.2562H62.3265ZM63.6 39.2972C64.1651 39.2972 64.4519 39.0051 64.4519 38.4121C64.4519 37.819 64.1651 37.5185 63.6 37.5185H62.5711V39.2972H63.6ZM66.206 41.325C65.9447 41.325 65.7338 41.2477 65.5734 41.0929C65.4217 40.9382 65.3375 40.732 65.3375 40.4744C65.3375 40.1908 65.43 39.9672 65.6242 39.804C65.818 39.6407 66.0797 39.5548 66.4085 39.5548C66.6615 39.5548 66.9399 39.5978 67.2266 39.6925V39.2028C67.2266 38.9622 67.1675 38.7989 67.0579 38.6956C66.9483 38.5924 66.7628 38.5409 66.5098 38.5409C66.2481 38.5409 65.9697 38.5924 65.6747 38.6871C65.6409 38.6956 65.6071 38.7042 65.5905 38.7042C65.5567 38.7042 65.5313 38.6786 65.5313 38.6268V38.5324C65.5313 38.498 65.5396 38.4809 65.5484 38.4635C65.5567 38.4465 65.5821 38.4291 65.6071 38.4206C65.9109 38.3003 66.2314 38.2403 66.5686 38.2403C66.9062 38.2403 67.1508 38.3088 67.3192 38.455C67.488 38.6012 67.5638 38.8159 67.5638 39.108V41.1703C67.5638 41.2306 67.5384 41.2562 67.4796 41.2562H67.3613C67.3025 41.2562 67.2771 41.2306 67.2687 41.1703L67.2433 40.9212C66.9062 41.1873 66.5603 41.325 66.206 41.325ZM66.2481 41.0156C66.3915 41.0156 66.5519 40.99 66.7203 40.9297C66.8891 40.8697 67.0579 40.7838 67.235 40.672V39.9417C66.982 39.8728 66.729 39.8384 66.4927 39.8384C65.9614 39.8384 65.6917 40.0446 65.6917 40.4659C65.6917 40.6461 65.7422 40.7838 65.8351 40.8782C65.9193 40.9726 66.0627 41.0156 66.2481 41.0156ZM68.5253 41.2562C68.4661 41.2562 68.4411 41.2306 68.4411 41.1703V38.4036C68.4411 38.3432 68.4661 38.3177 68.5253 38.3177H68.6349C68.6941 38.3177 68.7278 38.3432 68.7362 38.4036L68.7616 38.7471C68.9049 38.5838 69.0483 38.4635 69.1917 38.4036C69.335 38.3347 69.4867 38.3003 69.6639 38.3003C69.723 38.3003 69.7735 38.3003 69.8156 38.3088C69.8747 38.3088 69.9001 38.3432 69.9001 38.4036V38.5494C69.9001 38.5668 69.8914 38.5838 69.8831 38.5924C69.8747 38.6098 69.8577 38.6098 69.841 38.6098C69.8072 38.6098 69.7818 38.6098 69.7568 38.6098C69.7314 38.6098 69.6893 38.6098 69.6385 38.6098C69.4613 38.6098 69.3096 38.6442 69.1746 38.7127C69.0399 38.7815 68.9049 38.8848 68.7866 39.0307V41.1788C68.7866 41.2392 68.7616 41.2647 68.7024 41.2647H68.5253V41.2562ZM71.3 41.2906C71.0725 41.2906 70.9037 41.2306 70.7854 41.1103C70.6674 40.99 70.6086 40.8094 70.6086 40.5773V38.6183H70.1531C70.094 38.6183 70.0686 38.5924 70.0686 38.5324V38.4724C70.0686 38.438 70.0773 38.4206 70.0856 38.4036C70.094 38.3862 70.1194 38.3776 70.1531 38.3776L70.617 38.3347L70.6591 37.5614C70.6591 37.527 70.6674 37.5099 70.6845 37.4925C70.7012 37.4755 70.7182 37.4755 70.7433 37.4755H70.8445C70.9037 37.4755 70.9291 37.5014 70.9291 37.5614V38.3262H71.7639C71.8231 38.3262 71.8481 38.3521 71.8481 38.4121V38.5324C71.8481 38.5924 71.8231 38.6183 71.7639 38.6183H70.9291V40.5602C70.9291 40.7235 70.9625 40.8353 71.03 40.8953C71.0975 40.9641 71.2071 40.9985 71.3676 40.9985C71.4772 40.9985 71.5784 40.99 71.6626 40.9726C71.7047 40.9641 71.7385 40.9556 71.7639 40.9556C71.7893 40.9471 71.806 40.9471 71.8231 40.9471C71.8652 40.9471 71.8902 40.9726 71.8902 41.0156V41.1015C71.8902 41.1703 71.8735 41.2047 71.8231 41.2218C71.671 41.2647 71.4939 41.2906 71.3 41.2906ZM72.5736 41.2562C72.5145 41.2562 72.4891 41.2306 72.4891 41.1703V38.4036C72.4891 38.3432 72.5145 38.3177 72.5736 38.3177H72.6916C72.7508 38.3177 72.7845 38.3432 72.7929 38.4036L72.8179 38.6527C73.0037 38.5154 73.2059 38.4121 73.4084 38.3347C73.611 38.2573 73.8131 38.2229 74.0073 38.2229C74.2857 38.2229 74.4966 38.3003 74.6483 38.4465C74.8 38.5924 74.8675 38.8159 74.8675 39.108V41.1703C74.8675 41.2306 74.8421 41.2562 74.7833 41.2562H74.6312C74.5724 41.2562 74.547 41.2306 74.547 41.1703V39.2628C74.547 39.0136 74.4966 38.8245 74.4036 38.7127C74.3107 38.6012 74.159 38.5409 73.9481 38.5409C73.5689 38.5409 73.1976 38.6612 72.835 38.9103V41.1703C72.835 41.2306 72.8096 41.2562 72.7508 41.2562H72.5736ZM76.9675 41.3421C76.512 41.3421 76.1748 41.2133 75.9386 40.9471C75.711 40.6806 75.5927 40.2937 75.5927 39.7784C75.5927 39.2887 75.711 38.9103 75.9386 38.6357C76.1748 38.3606 76.4953 38.2318 76.9084 38.2318C77.2543 38.2318 77.5239 38.3347 77.7098 38.5324C77.8952 38.7386 77.9878 39.0221 77.9878 39.4001C77.9878 39.5548 77.9794 39.6751 77.9627 39.7525C77.9544 39.8128 77.9206 39.8384 77.8615 39.8384H75.9219C75.9219 40.2508 76.0144 40.5517 76.1832 40.7405C76.352 40.9382 76.6216 41.033 76.9842 41.033C77.2626 41.033 77.5239 40.9811 77.7686 40.8867C77.8194 40.8697 77.8531 40.8608 77.8698 40.8608C77.8869 40.8608 77.8952 40.8697 77.9119 40.8782C77.9206 40.8953 77.929 40.9038 77.929 40.9297V41.0156C77.929 41.0759 77.9119 41.1189 77.8615 41.1359C77.6002 41.2736 77.2964 41.3421 76.9675 41.3421ZM77.676 39.5722C77.676 39.5204 77.6844 39.4519 77.6844 39.3831C77.6844 39.0995 77.6169 38.8933 77.4818 38.7471C77.3468 38.6012 77.153 38.5324 76.8917 38.5324C76.2845 38.5324 75.964 38.8848 75.9302 39.5807H77.676V39.5722ZM78.8059 41.2562C78.7471 41.2562 78.7217 41.2306 78.7217 41.1703V38.4036C78.7217 38.3432 78.7471 38.3177 78.8059 38.3177H78.9155C78.9747 38.3177 79.0084 38.3432 79.0168 38.4036L79.0422 38.7471C79.1855 38.5838 79.3289 38.4635 79.4723 38.4036C79.6156 38.3347 79.7673 38.3003 79.9445 38.3003C80.0036 38.3003 80.0541 38.3003 80.0965 38.3088C80.1553 38.3088 80.1807 38.3432 80.1807 38.4036V38.5494C80.1807 38.5668 80.1724 38.5838 80.1637 38.5924C80.1553 38.6098 80.1386 38.6098 80.1216 38.6098C80.0878 38.6098 80.0628 38.6098 80.0374 38.6098C80.012 38.6098 79.9699 38.6098 79.9194 38.6098C79.7423 38.6098 79.5902 38.6442 79.4556 38.7127C79.3205 38.7815 79.1855 38.8848 79.0676 39.0307V41.1788C79.0676 41.2392 79.0422 41.2647 78.983 41.2647H78.8059V41.2562Z" fill="white"/>
</svg>
