<svg width="19" height="20" viewBox="0 0 19 20" fill="none" xmlns="http://www.w3.org/2000/svg">
<path fill-rule="evenodd" clip-rule="evenodd" d="M8.62582 1.36304C9.15504 0.83381 10.0131 0.83381 10.5423 1.36303L18.4474 9.26817C18.7016 9.52231 18.8444 9.867 18.8444 10.2264C18.8444 10.5858 18.7016 10.9305 18.4474 11.1847L10.5423 19.0898C10.0131 19.619 9.15504 19.619 8.62582 19.0898C8.09659 18.5606 8.09659 17.7025 8.62582 17.1733L14.2175 11.5816H1.67893C0.930494 11.5816 0.323766 10.9749 0.323766 10.2264C0.323766 9.47798 0.930494 8.87125 1.67893 8.87125H14.2175L8.62582 3.27953C8.09659 2.7503 8.09659 1.89226 8.62582 1.36304Z" fill="#05164D"/>
</svg>
