<svg width="16" height="16" viewBox="0 0 16 16" fill="none" xmlns="http://www.w3.org/2000/svg">
<path d="M7.52739 0.460938C5.531 0.460938 3.61642 1.25531 2.2047 2.66935C0.793033 4.08339 0 6.00136 0 8.00101C0 10.0007 0.793033 11.9186 2.2047 13.3327C3.61636 14.7467 5.5311 15.5411 7.52739 15.5411C9.52368 15.5411 11.4384 14.7467 12.8501 13.3327C14.2617 11.9186 15.0548 10.0007 15.0548 8.00101C15.0548 6.67748 14.707 5.37719 14.0464 4.23081C13.3857 3.08463 12.4353 2.13273 11.2911 1.47091C10.1467 0.809197 8.84876 0.460938 7.52739 0.460938ZM11.8 6.67189L7.2835 10.8189C7.14047 10.9503 6.95231 11.0212 6.75839 11.0171C6.56445 11.0128 6.37959 10.9338 6.24248 10.7963L3.98423 8.53424C3.83893 8.39374 3.75614 8.20075 3.75437 7.99852C3.75261 7.79617 3.83213 7.60179 3.97478 7.45876C4.11756 7.31574 4.31174 7.23622 4.51363 7.23786C4.71551 7.23962 4.9083 7.32256 5.04857 7.4681L6.7972 9.21968L10.7824 5.56032C10.9806 5.37829 11.2606 5.31594 11.5172 5.39685C11.7737 5.47764 11.9677 5.68945 12.026 5.95251C12.0844 6.21544 11.9981 6.48973 11.8 6.67189Z" fill="#FFB81D"/>
</svg>
