<svg width="18" height="18" viewBox="0 0 18 18" fill="none" xmlns="http://www.w3.org/2000/svg">
<g clip-path="url(#clip0_2195_16083)">
<path opacity="0.2" d="M18 8.99639C18 4.02782 13.9706 0 9 0C4.02944 0 0 4.02782 0 8.99639C0 13.965 4.02944 17.9928 9 17.9928C13.9706 17.9928 18 13.965 18 8.99639Z" fill="#FFAD00"/>
<path d="M15 8.99662C15 5.68424 12.3137 2.99902 9 2.99902C5.68629 2.99902 3 5.68424 3 8.99662C3 12.309 5.68629 14.9942 9 14.9942C12.3137 14.9942 15 12.309 15 8.99662Z" fill="#FFAD00"/>
<path d="M6 8.99687L7.9998 10.9967L12 6.99707" stroke="white" stroke-width="2"/>
</g>
<defs>
<clipPath id="clip0_2195_16083">
<rect width="18" height="17.9928" fill="white"/>
</clipPath>
</defs>
</svg>
