<svg width="107" height="38" viewBox="0 0 107 38" fill="none" xmlns="http://www.w3.org/2000/svg">
<path d="M2.7022 24.3623H0.5625V30.2947H2.66684C4.66507 30.2947 5.99133 28.9392 5.99133 27.3021C5.99133 25.665 4.70044 24.3623 2.7022 24.3623ZM2.71989 29.1329H1.90645V25.5593H2.71989C3.83395 25.5593 4.6297 26.3163 4.6297 27.3549C4.6297 28.3935 3.85163 29.1329 2.71989 29.1329Z" fill="#008755"/>
<path d="M10.7296 27.8473C10.7296 28.6747 10.2168 29.15 9.5271 29.15C8.83745 29.15 8.30694 28.657 8.30694 27.8473V24.3794H6.94531V27.9001C6.94531 29.414 7.95327 30.3998 9.49174 30.3998C11.0302 30.3998 12.0735 29.3788 12.0735 27.8473V24.3794H10.7473V27.8473H10.7296Z" fill="#008755"/>
<path d="M17.2061 27.1965C17.6836 26.9324 17.9842 26.4395 17.9842 25.8938C17.9842 24.908 17.1177 24.3623 16.0921 24.3623H13.4219V30.2947H16.2512C17.3299 30.2947 18.2495 29.661 18.2495 28.64C18.2318 27.9886 17.8251 27.4077 17.2061 27.1965ZM15.8091 26.7564H14.7658V25.4185H15.8091C16.3397 25.4185 16.6226 25.7354 16.6226 26.0874C16.6226 26.4571 16.3397 26.7564 15.8091 26.7564ZM14.7658 27.7422H16.0037C16.5342 27.7422 16.8878 28.0414 16.8878 28.4815C16.8878 28.8864 16.5872 29.2385 16.0037 29.2385H14.7658V27.7422Z" fill="#008755"/>
<path d="M22.2645 24.3623H20.9383L18.5156 30.2947H19.9303L20.4078 29.0624H22.7243L23.2018 30.2947H24.6872L22.2822 24.3799L22.2645 24.3623ZM22.3529 27.9886H20.7968L21.5749 25.9642L22.3529 27.9886Z" fill="#008755"/>
<path d="M26.7856 24.3623H25.4062V30.2947H26.7856V24.3623Z" fill="#008755"/>
<path d="M32.9255 24.3623H30.3438V30.2947H31.7054V28.4287H32.8902C34.3049 28.4287 35.1713 27.4957 35.1713 26.3691C35.1537 25.1193 34.1987 24.3623 32.9255 24.3623ZM31.6877 25.5241H32.7841C33.4384 25.5241 33.8097 25.929 33.8097 26.4219C33.8097 26.9148 33.4384 27.3197 32.7841 27.3197H31.6877V25.5241Z" fill="#008755"/>
<path d="M39.007 24.2915C37.2387 24.2915 35.8594 25.6294 35.8594 27.3721C35.8594 29.0797 37.168 30.3999 38.9717 30.3999C40.74 30.3999 42.1193 29.0621 42.1193 27.3369C42.1193 25.6118 40.8108 24.2915 39.007 24.2915ZM38.9894 29.1501C37.946 29.1501 37.2033 28.3755 37.2033 27.3369C37.2033 26.3335 37.9283 25.5238 38.9894 25.5238C40.015 25.5238 40.7754 26.2983 40.7754 27.3369C40.7577 28.3579 40.015 29.1501 38.9894 29.1501Z" fill="#008755"/>
<path d="M55.2046 28.4975C54.8686 28.92 54.3558 29.1664 53.8253 29.1488C52.7996 29.1488 52.0393 28.3919 52.0393 27.3356C52.0393 26.2794 52.782 25.5225 53.8253 25.5225C54.3381 25.5049 54.8333 25.7337 55.1692 26.121L55.1869 26.1386L56.1772 25.2584L56.1595 25.2408C55.5583 24.5895 54.7272 24.2374 53.843 24.255C52.0746 24.255 50.6953 25.6105 50.6953 27.3356C50.6953 29.0608 52.0393 30.3634 53.8076 30.3634C54.7271 30.3811 55.5936 29.9938 56.1949 29.3072L56.2126 29.2896L55.2223 28.4447L55.2046 28.4975Z" fill="#008755"/>
<path d="M44.5569 24.3623H43.1953V30.3123H47.4217V29.0977H44.5569V24.3623Z" fill="#008755"/>
<path d="M49.5981 24.3623H48.2188V30.2947H49.5981V24.3623Z" fill="#008755"/>
<path d="M58.3908 29.1329V27.8126H61.0257V26.7036H58.3908V25.5417H61.4501V24.3623H57.0469V30.3123H61.5385V29.1329H58.3908Z" fill="#008755"/>
<path d="M33.3685 9.9618C33.8637 9.9618 34.2527 9.57435 34.2527 9.08124C34.2527 8.58813 33.8637 8.20068 33.3685 8.20068C32.8734 8.20068 32.4844 8.58813 32.4844 9.08124C32.4844 9.55674 32.8734 9.9618 33.3685 9.9618Z" fill="#008755"/>
<path d="M56.6889 8.62391C57.184 8.62391 57.573 8.23646 57.573 7.74335C57.573 7.25024 57.184 6.86279 56.6889 6.86279C56.1937 6.86279 55.8047 7.25024 55.8047 7.74335C55.8047 8.23646 56.2114 8.62391 56.6889 8.62391Z" fill="#008755"/>
<path d="M55.4701 10.6669C55.9652 10.6669 56.3543 10.2794 56.3543 9.78632C56.3543 9.29321 55.9652 8.90576 55.4701 8.90576C54.975 8.90576 54.5859 9.29321 54.5859 9.78632C54.5859 10.2618 54.975 10.6669 55.4701 10.6669Z" fill="#008755"/>
<path d="M57.0469 9.78687C57.0469 10.28 57.4359 10.6674 57.931 10.6674C58.4262 10.6674 58.8152 10.28 58.8152 9.78687C58.8152 9.29376 58.4262 8.90632 57.931 8.90632C57.4359 8.8887 57.0469 9.29376 57.0469 9.78687Z" fill="#008755"/>
<path d="M60.246 10.8779L58.7606 11.7757C59.1142 12.3566 60.1399 14.3458 59.6624 17.1624H57.5758V11.7757H55.8251V17.1624H54.4988V11.7757H52.7482V17.1624H50.2725V11.0716H48.5218V17.9193C48.5218 19.3276 47.3724 20.4542 45.9577 20.4719H45.5156V22.2146H45.9577C47.9559 22.2146 49.6712 20.8415 50.1487 18.9227H61.0594L61.2186 18.2538C62.1558 14.4162 60.7057 11.6349 60.246 10.8779Z" fill="#008755"/>
<path d="M22.4403 10.8594L21.6622 12.4085C23.9257 13.5351 24.0672 15.7708 23.8904 17.1614H20V18.9042H25.3404L25.4996 18.2176C26.5606 13.3415 23.4306 11.3523 22.4403 10.8594Z" fill="#008755"/>
<path d="M46.4887 18.9053L46.9485 17.3562C47.3552 15.9479 47.0899 14.434 46.2234 13.2546C44.685 11.195 41.7849 10.7725 39.7159 12.304C39.6275 12.3568 39.5568 12.4272 39.4684 12.4976L37.9299 13.8003V9.06494H36.1969V17.1626H34.234V11.0717H32.4303C30.0254 11.0717 28.0625 13.0257 28.0625 15.4198V18.9229H29.8132V15.4198C29.8132 13.9763 30.9803 12.8145 32.4303 12.8145H32.4834V18.9229L46.4887 18.9053ZM37.9476 16.0887L40.6178 13.8179C41.8379 12.7793 43.677 12.9201 44.7204 14.1524C44.7557 14.2052 44.8088 14.258 44.8441 14.3108C45.3923 15.0501 45.5692 16.0007 45.3039 16.8809L45.2155 17.1802H37.9653L37.9476 16.0887Z" fill="#008755"/>
<path d="M17.1185 20.0132C16.6234 20.0132 16.2344 20.4006 16.2344 20.8937C16.2344 21.3869 16.6234 21.7743 17.1185 21.7743C17.6137 21.7743 18.0027 21.3869 18.0027 20.8937C18.0204 20.4182 17.6137 20.0132 17.1185 20.0132Z" fill="#008755"/>
<path d="M7.81386 20.0132C7.31872 20.0132 6.92969 20.4006 6.92969 20.8937C6.92969 21.3869 7.31872 21.7743 7.81386 21.7743C8.309 21.7743 8.69804 21.3869 8.69804 20.8937C8.69804 20.4182 8.29132 20.0132 7.81386 20.0132Z" fill="#008755"/>
<path d="M5.57167 20.0132C5.07654 20.0132 4.6875 20.4006 4.6875 20.8937C4.6875 21.3869 5.07654 21.7743 5.57167 21.7743C6.06681 21.7743 6.45585 21.3869 6.45585 20.8937C6.47353 20.4182 6.06681 20.0132 5.57167 20.0132Z" fill="#008755"/>
<path d="M31.1889 9.9618C31.684 9.9618 32.073 9.57435 32.073 9.08124C32.073 8.58813 31.684 8.20068 31.1889 8.20068C30.6937 8.20068 30.3047 8.58813 30.3047 9.08124C30.3047 9.55674 30.6937 9.9618 31.1889 9.9618Z" fill="#008755"/>
<path d="M17.2006 16.1066C17.2006 16.6876 16.7232 17.1629 16.1396 17.1629H15.3438V11.072H13.5048C11.1529 11.072 9.29609 12.9732 9.29609 15.4201V17.1805H2.31111V16.9516C2.31111 15.1208 2.75319 13.3253 3.61969 11.7058L2.08122 10.896C1.09095 12.762 0.578125 14.8568 0.578125 16.9692V18.9408H11.0644V15.4377C11.0644 13.959 12.1254 12.8324 13.5224 12.8324H13.6109V18.9408H16.1396C17.6957 18.9408 18.9513 17.691 18.9513 16.1418V11.072H17.2006V16.1066Z" fill="#008755"/>
<path d="M106.332 21.0173C106.032 20.9997 105.714 21.0173 105.431 21.0701C105.66 20.8237 105.855 20.5772 106.032 20.2956C106.686 19.2746 106.845 18.0423 106.509 16.8981C106.209 16.9509 105.908 17.0213 105.643 17.1445C105.802 16.8629 105.943 16.5636 106.05 16.2644C106.456 15.1377 106.368 13.8879 105.784 12.8317C105.501 12.9373 105.236 13.0781 104.988 13.2541C105.095 12.9373 105.165 12.6204 105.201 12.3036C105.378 11.1065 105.024 9.90948 104.246 8.9941C103.998 9.17014 103.751 9.36377 103.556 9.57502C103.591 9.25815 103.591 8.92368 103.574 8.58922C103.485 7.39218 102.884 6.28316 101.912 5.57902C101.699 5.79026 101.505 6.03671 101.363 6.30076C101.328 5.98389 101.257 5.64943 101.169 5.35017C100.833 4.20594 100.002 3.25535 98.923 2.74485C98.7639 3.0089 98.6224 3.27295 98.534 3.55461C98.4279 3.23775 98.3041 2.93849 98.145 2.65683C97.5791 1.60062 96.5711 0.843666 95.3864 0.579614C95.1741 1.16053 95.1034 1.79426 95.1565 2.41038C95.0327 2.30476 94.8735 2.21674 94.7144 2.11112C93.6887 1.4774 92.4332 1.33657 91.2838 1.68864C91.496 2.86807 92.221 3.88908 93.2643 4.5052C93.4235 4.59322 93.5826 4.68124 93.7241 4.75165C93.1406 4.9805 92.61 5.33257 92.2033 5.79026C92.8399 6.54721 93.7418 7.04011 94.7321 7.19854C95.2095 8.06111 95.9699 8.71244 96.8894 9.06451C97.1724 9.9975 97.7736 10.8073 98.6047 11.353C98.6755 12.3212 99.0999 13.2541 99.7895 13.9407C99.6481 14.9089 99.878 15.8947 100.408 16.722C100.072 17.6374 100.072 18.6584 100.426 19.5738C99.8956 20.4012 99.7011 21.387 99.8426 22.3552C99.1529 23.0593 98.7462 23.9747 98.6755 24.9605C97.862 25.5062 97.2608 26.316 96.9779 27.249C96.0583 27.601 95.2979 28.27 94.8382 29.1325C93.8656 29.291 92.9814 29.7839 92.3448 30.5232C91.16 30.4704 89.9929 30.9105 89.1618 31.7731C88.5782 32.354 88.2599 32.8997 88.0831 33.4278C87.9239 33.9559 87.3757 34.2551 86.8452 34.0967C86.5269 34.0087 86.2794 33.7447 86.1733 33.4278C86.0141 32.8997 85.6781 32.3364 85.0946 31.7731C84.2634 30.9281 83.0963 30.4704 81.9115 30.5232C81.2749 29.7839 80.3908 29.2734 79.4358 29.1149C78.9761 28.2524 78.2157 27.5834 77.2961 27.2313C77.0309 26.2984 76.4297 25.471 75.5985 24.9429C75.5278 23.9747 75.1211 23.0417 74.4314 22.3376C74.5729 21.3694 74.3607 20.3836 73.8479 19.5562C74.1838 18.6408 74.2015 17.6198 73.8655 16.7044C74.3961 15.8771 74.6083 14.8913 74.4845 13.9231C75.1741 13.2365 75.5985 12.3036 75.6693 11.3354C76.5004 10.8073 77.1016 9.9975 77.3846 9.04691C78.3041 8.69484 79.0645 8.0259 79.5419 7.18093C80.5322 7.0225 81.4164 6.5296 82.0707 5.77265C81.6463 5.31496 81.1335 4.96289 80.5499 4.73405C80.7091 4.66363 80.8505 4.57562 81.0097 4.4876C82.053 3.87147 82.7603 2.85047 82.9902 1.67103C81.8408 1.31896 80.5853 1.47739 79.5596 2.09352C79.4005 2.18154 79.259 2.28716 79.1175 2.39278C79.1883 1.77665 79.1175 1.14293 78.9053 0.562012C77.7382 0.826065 76.7303 1.58302 76.1467 2.63923C75.9876 2.92088 75.8638 3.22014 75.7577 3.53701C75.6516 3.25535 75.5278 2.97369 75.3686 2.72725C74.2723 3.23775 73.4588 4.18834 73.1228 5.33256C73.0344 5.64943 72.9637 5.96629 72.9283 6.28315C72.7692 6.0191 72.5923 5.79026 72.3801 5.56141C71.4075 6.28316 70.8063 7.39218 70.7179 8.58922C70.6825 8.90608 70.7002 9.24055 70.7356 9.57502C70.5234 9.34617 70.2935 9.15253 70.0459 8.9941C69.2502 9.90948 68.8965 11.1065 69.0733 12.286C69.1087 12.6028 69.1794 12.9373 69.2855 13.2365C69.038 13.0605 68.7727 12.9197 68.4898 12.8141C67.9062 13.8703 67.8178 15.1201 68.2245 16.2467C68.3306 16.5636 68.4721 16.8453 68.6312 17.1269C68.3483 17.0037 68.0477 16.9333 67.7647 16.8805C67.4288 18.0247 67.5879 19.2746 68.2422 20.278C68.419 20.5596 68.6136 20.8237 68.8434 21.0525C68.5428 20.9997 68.2422 20.9821 67.9416 20.9997C67.8532 22.1967 68.2776 23.3762 69.1264 24.2211C69.3563 24.45 69.6038 24.6788 69.8691 24.8549C69.5685 24.8549 69.2678 24.9077 68.9672 24.9781C69.1264 26.1751 69.7983 27.2313 70.8063 27.8827C71.0716 28.0587 71.3722 28.2171 71.6728 28.358C71.3722 28.4284 71.0892 28.534 70.824 28.6748C71.2307 29.8015 72.1149 30.6992 73.2466 31.1393C73.5472 31.2626 73.8655 31.3506 74.1839 31.421C73.9186 31.5618 73.6533 31.7202 73.4235 31.9139C74.0601 32.9349 75.1211 33.6214 76.3059 33.8151C76.6242 33.8679 76.9602 33.9031 77.2785 33.8855C77.0486 34.0791 76.8187 34.2904 76.6419 34.5192C77.4907 35.3818 78.6578 35.8395 79.8602 35.7691C80.1962 35.7514 80.5145 35.7162 80.8328 35.6458C80.6383 35.8747 80.4792 36.1387 80.3377 36.4028C81.3457 37.0717 82.5835 37.2654 83.7506 36.9485C84.2634 36.8253 84.7409 36.614 85.183 36.3148C86.3855 35.4874 87.977 35.4874 89.1971 36.3148C89.6392 36.5964 90.1167 36.8253 90.6295 36.9485C91.7966 37.2654 93.0345 37.0717 94.0424 36.4028C93.9009 36.1387 93.7418 35.8747 93.5473 35.6458C93.8656 35.7162 94.1839 35.7691 94.5199 35.7691C95.7223 35.8395 96.8895 35.3818 97.7383 34.5192C97.5437 34.2904 97.3315 34.0615 97.1017 33.8855C97.4376 33.8855 97.7559 33.8679 98.0742 33.8151C99.259 33.6214 100.32 32.9349 100.957 31.9139C100.727 31.7202 100.462 31.5618 100.196 31.421C100.515 31.3506 100.833 31.2626 101.133 31.1393C102.265 30.6992 103.149 29.8015 103.556 28.6748C103.291 28.534 103.008 28.4284 102.707 28.358C103.008 28.2348 103.291 28.0763 103.574 27.8827C104.582 27.2313 105.254 26.1575 105.413 24.9781C105.112 24.9077 104.812 24.8549 104.511 24.8549C104.776 24.6612 105.024 24.45 105.254 24.2211C105.979 23.3762 106.421 22.2143 106.332 21.0173ZM79.8956 29.9951C80.603 30.2592 81.2219 30.7521 81.6286 31.3858C82.1414 32.1955 82.3183 32.8997 82.1945 33.5334C81.5579 33.3926 80.992 32.9349 80.4792 32.1251C80.0548 31.4914 79.8603 30.7344 79.8956 29.9951ZM77.5791 28.1819C78.2157 28.5868 78.7108 29.2029 78.9584 29.9071C79.2944 30.8049 79.3121 31.5266 79.0645 32.1251C78.4809 31.8435 78.0212 31.2802 77.6852 30.4C77.4022 29.6958 77.3669 28.9213 77.5791 28.1819ZM75.6693 25.9463C76.1998 26.492 76.5534 27.1785 76.6595 27.9355C76.801 28.8861 76.6595 29.5902 76.2882 30.1183C75.7754 29.7311 75.4394 29.0797 75.2979 28.1291C75.1918 27.3722 75.3156 26.6152 75.6693 25.9463ZM74.2899 23.3586C74.6967 23.9923 74.8912 24.7493 74.8381 25.5062C74.7674 26.4568 74.4845 27.1257 74.007 27.5658C73.5826 27.0729 73.3881 26.3688 73.4588 25.4182C73.5119 24.6612 73.7948 23.9395 74.2899 23.3586ZM71.7082 19.1337C72.0618 18.4648 72.6277 17.9191 73.3174 17.6022C73.4235 18.3592 73.282 19.1161 72.9283 19.7851C72.4686 20.63 71.938 21.1229 71.3191 21.3166C71.1423 20.6828 71.2484 19.9787 71.7082 19.1337ZM71.0185 17.9015C70.9831 17.2501 71.2484 16.5812 71.8673 15.8419C72.3625 15.261 73.0167 14.8561 73.7594 14.68C73.7064 15.437 73.4058 16.1587 72.9106 16.722C72.2917 17.4614 71.6551 17.8311 71.0185 17.9015ZM72.2563 22.3552C72.4685 21.6334 72.893 20.9821 73.4942 20.5244C73.7594 21.2285 73.7948 22.0031 73.5826 22.7424C73.3174 23.6578 72.893 24.2564 72.3448 24.5732C72.0265 24.0099 71.9911 23.2706 72.2563 22.3552ZM73.5296 13.7647C72.7692 14.3456 72.0795 14.5744 71.4252 14.504C71.5136 13.8703 71.9204 13.2542 72.6808 12.6732C73.282 12.2155 74.007 11.9515 74.7674 11.9339C74.5729 12.6732 74.1308 13.307 73.5296 13.7647ZM80.9566 5.80786C80.3554 6.26555 79.6127 6.52961 78.8523 6.52961C77.8974 6.54721 77.19 6.31836 76.7303 5.87827C77.19 5.42058 77.8797 5.17413 78.8346 5.15653C79.5773 5.15653 80.3377 5.36777 80.9566 5.80786ZM79.8426 2.70964C80.4969 2.32236 81.2572 2.14633 82 2.21674C81.717 2.92088 81.2042 3.5018 80.5499 3.88908C79.7188 4.38197 79.0114 4.54041 78.3748 4.38198C78.5517 3.76585 79.0291 3.20254 79.8426 2.70964ZM76.6949 2.9913C77.0663 2.32236 77.6321 1.79426 78.3218 1.47739C78.4279 2.23435 78.2687 2.9913 77.8974 3.64263C77.4376 4.4876 76.8894 4.96289 76.2705 5.15653C76.1114 4.54041 76.2351 3.81866 76.6949 2.9913ZM76.2528 7.21614C76.9955 7.04011 77.7736 7.11052 78.4633 7.40978C77.9681 7.9907 77.2961 8.39558 76.5711 8.55401C75.6339 8.76525 74.9089 8.69484 74.3607 8.37798C74.6967 7.83227 75.3156 7.44499 76.2528 7.21614ZM73.7241 5.5262C73.9363 4.80446 74.3784 4.17073 74.9973 3.71304C75.2625 4.41718 75.2802 5.20934 75.0503 5.93108C74.7674 6.84647 74.343 7.44499 73.7771 7.74425C73.4765 7.18094 73.4411 6.45919 73.7241 5.5262ZM74.1839 9.75105C74.8735 9.41658 75.6516 9.32856 76.3943 9.46939C76.0406 10.1383 75.4747 10.6664 74.7851 10.9833C73.9186 11.3882 73.1936 11.4762 72.5747 11.265C72.7869 10.684 73.3174 10.1735 74.1839 9.75105ZM71.3368 8.64203C71.3899 7.88508 71.6905 7.16333 72.1856 6.60002C72.5923 7.25135 72.7692 7.9907 72.6984 8.74765C72.6277 9.69824 72.3271 10.3672 71.8496 10.7897C71.4429 10.2968 71.2661 9.59262 71.3368 8.64203ZM70.0813 10.0151C70.6118 10.5608 70.9478 11.265 71.0362 12.0043C71.16 12.9549 71.0185 13.659 70.6295 14.1871C70.1166 13.7823 69.7983 13.1309 69.6746 12.1979C69.5685 11.441 69.7099 10.684 70.0813 10.0151ZM68.7373 13.7999C69.3739 14.2223 69.8514 14.8385 70.099 15.5426C70.4173 16.4404 70.435 17.1621 70.1697 17.7607C69.5861 17.479 69.1264 16.9157 68.8081 16.0179C68.5428 15.2962 68.5251 14.5216 68.7373 13.7999ZM68.2068 17.7607C68.9142 18.0423 69.5154 18.5352 69.9044 19.1865C70.4173 19.9963 70.5764 20.7004 70.435 21.3342C69.816 21.1757 69.2325 20.718 68.7373 19.9083C68.3483 19.2746 68.1538 18.5176 68.2068 17.7607ZM69.5331 23.7458C69.0026 23.2001 68.6666 22.5136 68.5605 21.7567C69.3032 21.8799 69.9929 22.2496 70.5234 22.7953C71.1953 23.4818 71.496 24.1331 71.496 24.7845C70.8417 24.7493 70.2051 24.4324 69.5331 23.7458ZM71.1069 27.3194C70.4703 26.8969 69.9929 26.2984 69.7276 25.5766C70.488 25.5414 71.2307 25.7526 71.8673 26.1751C72.6631 26.7032 73.1052 27.2842 73.2466 27.9179C72.61 28.0411 71.9027 27.8651 71.1069 27.3194ZM73.4058 30.5056C72.6984 30.2239 72.0972 29.731 71.6905 29.0973C72.4332 28.9037 73.2113 28.9565 73.9009 29.2382C74.8028 29.5902 75.351 30.0655 75.6162 30.6464C75.015 30.8753 74.2899 30.8577 73.4058 30.5056ZM76.3059 33.1285C75.5632 33.0053 74.8558 32.6532 74.3253 32.1075C74.9973 31.7555 75.7754 31.6498 76.5181 31.7731C77.473 31.9315 78.1096 32.2836 78.4986 32.7941C77.9858 33.1637 77.2608 33.287 76.3059 33.1285ZM79.7188 35.0649C78.9584 35.1001 78.2157 34.9065 77.5791 34.484C78.1626 34.0087 78.9053 33.727 79.6657 33.6918C80.6206 33.639 81.328 33.8503 81.8054 34.2728C81.3633 34.7481 80.6737 35.0297 79.7188 35.0649ZM83.4677 36.262C82.7427 36.4556 81.9469 36.4204 81.2396 36.1387C81.717 35.5402 82.3713 35.1177 83.114 34.9417C84.0512 34.6952 84.7763 34.7481 85.3421 35.0649C84.9885 35.6106 84.3872 36.0155 83.4677 36.262ZM83.5738 33.2341C83.0256 32.706 82.6719 32.0019 82.5658 31.2626C83.3262 31.3858 84.0159 31.7378 84.5464 32.266C85.2183 32.9525 85.5367 33.6038 85.5543 34.2376C84.9 34.2199 84.2458 33.9031 83.5738 33.2341ZM105.943 17.7607C105.996 18.5176 105.82 19.2746 105.413 19.9083C104.9 20.718 104.334 21.1757 103.715 21.3342C103.591 20.7004 103.733 19.9963 104.246 19.1865C104.635 18.5352 105.236 18.0423 105.943 17.7607ZM105.413 13.7823C105.625 14.504 105.607 15.2786 105.342 16.0003C105.024 16.8981 104.564 17.4614 103.981 17.743C103.715 17.1621 103.715 16.4228 104.051 15.525C104.317 14.8209 104.794 14.2047 105.413 13.7823ZM103.114 12.0043C103.202 11.2473 103.556 10.5608 104.069 10.0151C104.44 10.684 104.582 11.441 104.476 12.1803C104.352 13.1309 104.016 13.7823 103.521 14.1695C103.132 13.6766 102.99 12.9549 103.114 12.0043ZM101.24 19.7851C100.868 19.1161 100.744 18.3592 100.851 17.6022C101.54 17.9191 102.106 18.4648 102.46 19.1337C102.92 19.9787 103.026 20.7004 102.849 21.3166C102.23 21.1229 101.699 20.63 101.24 19.7851ZM101.841 24.5732C101.275 24.2564 100.868 23.6578 100.603 22.7424C100.391 22.0207 100.426 21.2462 100.691 20.5244C101.293 20.9821 101.735 21.6334 101.929 22.3552C102.177 23.2882 102.141 24.0099 101.841 24.5732ZM101.257 16.7397C100.762 16.1587 100.462 15.437 100.408 14.6976C101.151 14.8737 101.805 15.2786 102.301 15.8595C102.92 16.5812 103.185 17.2678 103.149 17.9191C102.513 17.8487 101.876 17.479 101.257 16.7397ZM101.965 6.61763C102.46 7.18094 102.76 7.90268 102.813 8.65963C102.884 9.61022 102.707 10.3144 102.301 10.8073C101.823 10.3848 101.523 9.71584 101.452 8.76525C101.381 8.0083 101.558 7.25135 101.965 6.61763ZM99.1883 3.71304C99.7895 4.17073 100.249 4.80446 100.462 5.5262C100.744 6.44159 100.709 7.16333 100.408 7.74425C99.8426 7.42739 99.4182 6.84647 99.1353 5.93108C98.9054 5.19174 98.923 4.41718 99.1883 3.71304ZM95.8461 1.47739C96.5358 1.79426 97.1017 2.32236 97.473 2.9913C97.9328 3.83627 98.0566 4.54041 97.8974 5.17413C97.2785 4.9805 96.7303 4.5052 96.2705 3.66023C95.8992 2.9913 95.74 2.21674 95.8461 1.47739ZM93.6003 3.88908C92.946 3.5018 92.4332 2.92088 92.1503 2.21674C92.9107 2.14633 93.6711 2.32236 94.3077 2.70964C95.1388 3.20254 95.5986 3.76585 95.7577 4.38198C95.1388 4.54041 94.4314 4.38197 93.6003 3.88908ZM95.3156 6.52961C94.5552 6.512 93.8125 6.26555 93.2113 5.80786C93.8302 5.36777 94.5729 5.13893 95.3333 5.15653C96.2882 5.17413 96.9779 5.42058 97.4376 5.87827C96.9779 6.33597 96.2705 6.54721 95.3156 6.52961ZM95.687 7.40978C96.3766 7.11052 97.1547 7.04011 97.8974 7.21614C98.8346 7.44499 99.4536 7.83227 99.8072 8.36037C99.259 8.69484 98.5163 8.76525 97.5968 8.53641C96.8541 8.37798 96.1821 7.9731 95.687 7.40978ZM97.7736 9.46939C98.5163 9.32856 99.2944 9.41658 99.9841 9.75105C100.851 10.1559 101.363 10.6664 101.593 11.2826C100.974 11.4938 100.249 11.4058 99.3828 11.0009C98.6932 10.684 98.1273 10.1383 97.7736 9.46939ZM99.3828 11.9339C100.143 11.9515 100.886 12.2155 101.469 12.6732C102.23 13.2542 102.637 13.8703 102.725 14.504C102.088 14.5744 101.381 14.3456 100.621 13.7647C100.019 13.307 99.5773 12.6556 99.3828 11.9339ZM99.878 23.3586C100.373 23.9395 100.656 24.6612 100.709 25.4182C100.78 26.3688 100.585 27.0729 100.161 27.5658C99.6834 27.1257 99.4005 26.4568 99.3298 25.5062C99.2767 24.7493 99.4536 23.9923 99.878 23.3586ZM97.5084 27.9355C97.6145 27.1785 97.9681 26.492 98.4987 25.9463C98.8523 26.6152 98.9938 27.3722 98.87 28.1291C98.7285 29.0797 98.3925 29.7134 97.8797 30.1183C97.4907 29.5902 97.3669 28.8685 97.5084 27.9355ZM95.2095 29.9247C95.4748 29.2205 95.9522 28.6044 96.5888 28.1995C96.801 28.9213 96.7657 29.6958 96.5004 30.4176C96.1644 31.3154 95.7047 31.8787 95.1211 32.1427C94.8382 31.5442 94.8735 30.8225 95.2095 29.9247ZM92.5393 31.3858C92.946 30.7521 93.5473 30.2592 94.2546 29.9775C94.3077 30.7344 94.1131 31.4914 93.6887 32.1251C93.1759 32.9349 92.5924 33.375 91.9734 33.5334C91.8497 32.8997 92.0265 32.1779 92.5393 31.3858ZM89.6215 32.2484C90.152 31.7026 90.8417 31.3506 91.6021 31.245C91.496 32.0019 91.1423 32.6884 90.5941 33.2165C89.9222 33.9031 89.2679 34.2199 88.6136 34.2199C88.6313 33.5862 88.9496 32.9349 89.6215 32.2484ZM90.7002 36.262C89.763 36.0155 89.1618 35.6106 88.8258 35.0649C89.3917 34.7481 90.1167 34.6952 91.0539 34.9417C91.7966 35.1353 92.4509 35.5578 92.9284 36.1387C92.221 36.4204 91.4429 36.4556 90.7002 36.262ZM94.4491 35.0649C93.4942 35.0121 92.8046 34.7481 92.3625 34.2728C92.8576 33.8503 93.5473 33.639 94.5022 33.6918C95.2626 33.727 95.9876 33.9911 96.5888 34.484C95.9699 34.9065 95.2095 35.1177 94.4491 35.0649ZM97.8444 33.1285C96.8895 33.287 96.1821 33.1637 95.6516 32.7941C96.0406 32.2836 96.6772 31.9315 97.6322 31.7731C98.3749 31.6498 99.1529 31.7555 99.8249 32.1075C99.2944 32.6356 98.6047 33.0053 97.8444 33.1285ZM100.762 30.5056C99.8603 30.8577 99.1353 30.8929 98.534 30.6464C98.7993 30.0655 99.3475 29.5902 100.249 29.2382C100.957 28.9565 101.735 28.9037 102.46 29.0973C102.071 29.731 101.469 30.2239 100.762 30.5056ZM104.44 25.5942C104.175 26.2984 103.698 26.9145 103.061 27.337C102.265 27.8651 101.558 28.0587 100.921 27.9355C101.063 27.3018 101.505 26.7208 102.301 26.1927C102.92 25.7703 103.68 25.559 104.44 25.5942ZM102.672 24.7845C102.672 24.1331 102.973 23.4818 103.645 22.7953C104.175 22.2496 104.865 21.8799 105.607 21.7567C105.501 22.5136 105.165 23.2001 104.635 23.7458C103.963 24.4324 103.309 24.7669 102.672 24.7845Z" fill="#008755"/>
<path d="M76.1953 20.3124V20.8053C76.8142 22.0023 77.5216 23.1642 78.2996 24.2732H76.549C76.549 24.2732 76.9027 24.9949 77.9637 24.9949H96.16C97.2387 24.9949 97.5747 24.2732 97.5747 24.2732H95.9831C96.7966 23.0762 97.5216 21.8439 98.1759 20.5589H99.0424V19.1858H94.3032C89.3165 15.1546 88.2555 8.2716 91.1555 3.11377C82.8797 4.7509 76.6551 11.9331 76.1953 20.3124ZM76.5667 20.33C79.0247 18.8161 81.8363 17.9359 84.7188 17.7775V20.33H76.5667ZM93.9142 19.7667L93.5075 20.3124H85.8682V17.7423C88.6622 17.7599 91.4208 18.464 93.9142 19.7667ZM92.3403 18.2704C87.3359 16.334 81.7302 16.6861 77.0264 19.2386C77.9106 12.1092 82.9681 6.19439 89.8823 4.16998C87.9018 8.94054 88.8744 14.4328 92.3403 18.2704Z" fill="#008755"/>
<path d="M86.2761 30.9999H87.8853C88.964 30.9999 89.3 30.2778 89.3 30.2778H84.8438C84.8437 30.2778 85.1974 30.9999 86.2761 30.9999Z" fill="#008755"/>
<path d="M92.5554 28.7812H81.6094C81.6094 28.7812 81.963 29.5033 83.0241 29.5033H91.1231C92.2018 29.4857 92.5554 28.7812 92.5554 28.7812Z" fill="#008755"/>
<path d="M95.0303 27.2661H79.1328C79.1328 27.2661 79.4865 27.9882 80.5475 27.9882H93.5979C94.6766 27.9882 95.0303 27.2661 95.0303 27.2661Z" fill="#008755"/>
<path d="M96.5286 25.7695H77.625C77.625 25.7695 77.9787 26.4916 79.0397 26.4916H95.114C96.1927 26.474 96.5286 25.7695 96.5286 25.7695Z" fill="#008755"/>
</svg>
