<svg width="84" height="20" viewBox="0 0 84 20" fill="none" xmlns="http://www.w3.org/2000/svg">
<mask id="mask0_6102_6843" style="mask-type:luminance" maskUnits="userSpaceOnUse" x="0" y="0" width="84" height="20">
<path d="M83.8906 0.32959H0.890625V19.3296H83.8906V0.32959Z" fill="white"/>
</mask>
<g mask="url(#mask0_6102_6843)">
<path d="M49.0426 17.1497C49.0426 17.303 49.0917 17.3919 49.1837 17.3919C49.2607 17.3919 49.3246 17.3516 49.3826 17.3111L75.2516 0.975779C75.6886 0.678579 76.2116 0.525679 76.7446 0.539679H82.4296C83.3016 0.539679 83.8906 1.10478 83.8906 1.95278V12.5146C83.8906 13.7903 83.6006 14.5334 82.4386 15.2115L75.5416 19.249C75.4726 19.2955 75.3916 19.3298 75.3096 19.3298C75.2276 19.3298 75.1436 19.2652 75.1436 19.0311V6.70898C75.1436 6.56348 75.1016 6.46668 75.0026 6.46668C74.9296 6.46668 74.8606 6.50298 74.8026 6.54748L55.8976 18.4984C55.4656 18.7809 54.9596 18.9345 54.4446 18.9264H41.9136C41.0336 18.9264 40.4526 18.3613 40.4526 17.5052V2.28418C40.4526 2.17118 40.4026 2.06628 40.3026 2.06628C40.2306 2.06628 40.1616 2.10318 40.1036 2.14708L27.6306 9.43018C27.5056 9.51098 27.4727 9.56758 27.4727 9.62408C27.4727 9.67248 27.4976 9.72088 27.5806 9.80978L36.4937 18.474C36.6107 18.5871 36.6936 18.676 36.6936 18.7728C36.6936 18.8537 36.5606 18.9183 36.4026 18.9183H28.3526C27.7216 18.9183 27.2316 18.8293 26.8916 18.4984L21.4896 13.2498C21.4476 13.2016 21.3886 13.1689 21.3236 13.1689C21.2646 13.1689 21.2077 13.1882 21.1577 13.2173L12.1276 18.4984C11.5806 18.8215 11.2066 18.9102 10.6676 18.9102H2.35962C1.47162 18.9183 0.890625 18.345 0.890625 17.4971V7.13698C0.890625 5.85318 1.18162 5.11828 2.35162 4.44008L9.28961 0.38658C9.34361 0.35088 9.40666 0.331278 9.47266 0.330078C9.57966 0.330078 9.63861 0.434978 9.63861 0.669178V14.5417C9.63861 14.6872 9.6716 14.7515 9.7796 14.7515C9.8526 14.7515 9.92063 14.7112 9.98663 14.6707L33.4236 0.951479C33.8716 0.652679 34.4197 0.507478 34.9677 0.531578H47.5826C48.4536 0.531578 49.0426 1.09668 49.0426 1.94468L49.0346 17.1497H49.0426Z" fill="#131E29"/>
</g>
</svg>
