<svg width="69" height="28" viewBox="0 0 69 28" fill="none" xmlns="http://www.w3.org/2000/svg">
<path fill-rule="evenodd" clip-rule="evenodd" d="M0.156797 3.08965L0.15625 3.05649V0.402269H2.79561V19.8698L2.7967 19.9304V22.5571H0.15625V19.9029L0.156797 19.8698V3.08965Z" fill="#3781C2"/>
<path fill-rule="evenodd" clip-rule="evenodd" d="M26.9922 14.4891C27.06 18.5157 29.5425 21.7359 32.5375 21.6819C35.5319 21.628 37.9041 18.3201 37.8363 14.2936C37.768 10.2664 35.2855 7.04631 32.2905 7.10082C29.2961 7.15477 26.9239 10.4626 26.9922 14.4891ZM48.8456 9.62074C48.9145 9.77415 48.751 9.39145 48.751 9.39145L48.8456 9.62074ZM50.6444 26.2907C50.7654 26.0828 50.9339 25.7647 51.1344 25.3674L50.6444 26.2907ZM50.7995 8.23152C50.8315 8.32088 50.8684 8.41417 50.9099 8.51251L51.7986 10.7093L50.7995 8.23152ZM39.7404 19.2901C41.3717 20.785 42.8406 21.5577 44.7189 21.5577C46.6414 21.5723 48.3506 20.6231 48.3506 18.7961C48.3506 17.2715 47.0116 16.3796 44.6192 15.3585C42.5919 14.4728 41.0833 13.8519 40.2948 12.57C40.3911 13.1269 40.4415 13.7024 40.4415 14.2913C40.4415 19.2362 36.8888 23.2453 32.5061 23.2453C28.1234 23.2453 24.5707 19.2362 24.5707 14.2913C24.5707 11.31 25.8621 8.6693 27.8473 7.04181H22.4774V19.8701L22.4779 19.9212V22.5575H20.0928V20.0072C20.0945 19.9623 20.095 19.9167 20.095 19.8701V7.04181H17.9922V5.42725H20.1258C20.4014 2.17002 22.4001 0.327858 25.1671 0.327858C26.9614 0.327858 27.9465 0.516685 28.5154 0.782501V2.99051C28.5065 3.15517 28.5065 3.25577 28.5065 3.25577C28.4818 3.25296 28.423 3.25183 28.423 3.25183C27.5595 2.44764 26.7077 1.84913 24.718 1.85138C23.1331 1.85138 22.0848 3.15124 22.451 5.42725H31.3777C31.7467 5.36824 32.123 5.33733 32.5061 5.33733C35.6853 5.33733 38.4283 7.44699 39.6945 10.494C39.6827 10.3249 39.6771 10.1484 39.6771 9.9641C39.6771 6.78499 42.7253 5.43287 45.8916 5.43962C46.0125 5.43905 46.1313 5.43961 46.2477 5.44242C47.3622 5.42444 48.9498 5.79141 49.9192 6.0488L51.7986 10.7093L54.4844 17.3226L54.7997 18.3848L55.1509 17.3226L58.5473 8.83396C59.174 6.49669 61.6543 5.48513 64.3939 5.49075C65.7559 5.48457 66.7617 5.65035 67.9679 6.07858V8.6457C66.4828 7.55603 65.4193 6.92267 63.7342 6.92267C62.2529 6.92267 60.4727 7.58469 60.4727 9.78539C60.4441 11.4393 61.4269 11.7416 64.311 13.1865C66.6816 14.2256 68.8684 15.3726 68.8813 18.029C68.8813 22.458 64.5591 23.2251 62.4551 23.2318C60.5768 23.2318 58.8553 22.7637 57.8977 21.9595V19.0355L58.0517 19.1642C59.7603 20.7749 61.2701 21.6094 63.2212 21.6094C65.1443 21.624 66.8529 20.6743 66.8529 18.8473C66.8529 17.3226 65.5139 16.4308 63.1215 15.4097C60.835 14.4105 59.3347 13.7485 58.7215 12.0934C57.7891 14.3891 53.4518 25.0526 52.4309 27.332H50.0922L51.1507 25.337C51.737 24.1715 52.5899 22.3428 53.3476 20.5934L48.8456 9.62074C48.8154 9.55386 48.7415 9.38526 48.5909 9.03964C48.2453 8.245 47.9239 7.51107 46.9517 7.14128C46.4309 6.96426 45.8765 6.87153 45.2319 6.87153C43.7507 6.87153 41.8561 7.53354 41.8561 9.73425C41.8276 11.3882 42.9241 11.6905 45.8087 13.1348C48.1792 14.1744 50.3661 15.3214 50.379 17.9779C50.379 22.4069 46.0562 23.1734 43.9522 23.1807C42.2823 23.1807 40.7355 22.8104 39.7404 22.163V19.2901Z" fill="#3781C2"/>
<path fill-rule="evenodd" clip-rule="evenodd" d="M7.71803 5.59233L7.74716 7.53004L7.74548 7.66041L7.77122 7.65984C7.80202 7.57892 7.84348 7.51036 7.88268 7.45922C8.85207 6.41001 10.074 5.36754 12.9783 5.36754C15.7582 5.36754 17.5575 7.75201 17.6297 9.25306L17.6325 19.8699V19.9228V22.5573H15.2502V19.3917L15.2497 10.3534C15.2497 8.48202 13.6228 7.12878 11.6314 7.12878C9.976 7.12878 7.85132 8.63263 7.78076 10.155V19.8728L7.78188 19.9441V22.5596H5.39844V7.82338L5.39902 5.59233H7.71803Z" fill="#3781C2"/>
</svg>
