<svg width="40" height="40" viewBox="0 0 40 40" fill="none" xmlns="http://www.w3.org/2000/svg">
<rect width="40" height="40" rx="20" fill="white" fill-opacity="0.1"/>
<path d="M25.8307 29.9405V27.6205C25.8307 26.3899 25.3391 25.2097 24.4639 24.3395C23.5887 23.4693 22.4017 22.9805 21.1641 22.9805H11.8307C10.5931 22.9805 9.40607 23.4693 8.5309 24.3395C7.65573 25.2097 7.16406 26.3899 7.16406 27.6205V29.9405" stroke="white" stroke-opacity="0.5" stroke-width="2" stroke-linecap="round" stroke-linejoin="round"/>
<path d="M16.5026 18.3396C17.7403 18.3396 18.9273 17.8507 19.8024 16.9805C20.6776 16.1104 21.1693 14.9302 21.1693 13.6996C21.1693 12.469 20.6776 11.2888 19.8024 10.4186C18.9273 9.54843 17.7403 9.05957 16.5026 9.05957C15.2649 9.05957 14.0779 9.54843 13.2028 10.4186C12.3276 11.2888 11.8359 12.469 11.8359 13.6996C11.8359 14.9302 12.3276 16.1104 13.2028 16.9805C14.0779 17.8507 15.2649 18.3396 16.5026 18.3396Z" stroke="white" stroke-opacity="0.5" stroke-width="2" stroke-linecap="round" stroke-linejoin="round"/>
<path d="M32.8307 29.9401V27.6201C32.83 26.5921 32.4858 25.5934 31.8523 24.7808C31.2188 23.9683 30.3319 23.388 29.3307 23.1309M24.6641 9.21094C25.6679 9.46649 26.5576 10.047 27.193 10.8608C27.8283 11.6747 28.1732 12.6757 28.1732 13.7059C28.1732 14.7362 27.8283 15.7372 27.193 16.5511C26.5576 17.3649 25.6679 17.9454 24.6641 18.2009" stroke="white" stroke-opacity="0.5" stroke-width="2" stroke-linecap="round" stroke-linejoin="round"/>
</svg>
