<svg width="78" height="22" viewBox="0 0 78 22" fill="none" xmlns="http://www.w3.org/2000/svg">
<path fill-rule="evenodd" clip-rule="evenodd" d="M35.9785 21.9019H0.195312V0.457031H35.9785V21.9019ZM13.0287 18.0308C12.6492 18.0308 12.4366 17.7186 12.4366 17.3835C12.4366 16.7936 13.0177 16.4776 14.2426 16.3258V17.5063C13.8415 17.8599 13.4398 18.0308 13.0287 18.0308ZM12.6282 18.9287C13.2179 18.9287 13.767 18.7658 14.2746 18.4319L14.3899 18.8707H15.5517C15.5498 18.8614 15.5505 15.2558 15.5505 15.2558C15.5505 14.3401 14.8223 13.7773 13.5248 13.7773C12.5747 13.7773 11.8678 14.1019 11.4026 14.7511L12.2894 15.2558C12.5845 14.8844 12.9967 14.6826 13.5044 14.6826C14.011 14.6826 14.2839 14.8936 14.2839 15.2558V15.5335C12.1735 15.7729 11.1494 16.3641 11.1494 17.4792C11.1494 18.3098 11.699 18.9287 12.6282 18.9287ZM17.6725 13.8655L16.5878 14.0155V18.8633H17.8863V15.2879C18.3305 14.914 18.7198 14.7331 19.1104 14.7331C19.5855 14.7331 19.7433 15.009 19.7433 15.6211V18.8633H21.0539V15.3909C21.0539 14.3135 20.5245 13.7699 19.501 13.7699C18.8884 13.7699 18.4043 14.0081 17.7917 14.4573L17.6725 13.8655ZM29.7095 14.656C30.3316 14.656 30.7127 15.0479 30.7127 15.7174H28.6962C28.7485 15.0399 29.1176 14.656 29.7095 14.656ZM27.3863 16.374C27.3863 18.0154 28.2627 18.9596 29.7303 18.9596C30.7543 18.9596 31.5134 18.5868 31.9361 17.8809L30.9764 17.3465C30.6692 17.7859 30.343 17.9864 29.8483 17.9864C29.0766 17.9864 28.686 17.51 28.6759 16.5647H31.9892C31.9892 16.5214 31.9921 16.4785 31.9949 16.4356C31.9977 16.3928 32.0006 16.3501 32.0006 16.3073C32.0006 14.6862 31.1449 13.7699 29.7095 13.7699C28.2741 13.7699 27.3863 14.7141 27.3863 16.374ZM3.48529 16.382C3.48529 15.7433 3.66518 14.8609 4.64375 14.8609C5.62226 14.8609 5.80341 15.7433 5.80341 16.382C5.80341 17.0225 5.62226 17.9044 4.64375 17.9044C3.66518 17.9044 3.48529 17.0225 3.48529 16.382ZM2.17969 16.382C2.17969 18.187 3.3485 19.0138 4.64375 19.0138C5.93901 19.0138 7.10725 18.187 7.10725 16.382C7.10725 14.5771 5.93901 13.7501 4.64375 13.7501C3.3485 13.7501 2.17969 14.5771 2.17969 16.382ZM9.24972 13.8822H8.0038V18.867H9.33471V15.5508C9.53498 15.1065 10.1586 15.0201 10.7285 15.0201H10.7914V13.7884C10.739 13.7797 10.6761 13.7797 10.6231 13.7797C10.0748 13.7797 9.48823 14.1525 9.24972 14.4684V13.8822ZM26.5982 18.5844V13.8637H25.4908L25.3879 14.4352C25.2862 14.1901 24.9071 13.7712 23.9518 13.773C22.8931 13.7736 21.9517 14.7066 21.9517 16.3752C21.9517 18.0605 22.8659 18.8651 24.0245 18.8651C24.786 18.8651 25.1028 18.5128 25.3109 18.14L25.3299 18.1598V18.7393C25.3299 19.5187 25.003 19.8432 24.3241 19.8432C23.591 19.8432 23.4401 19.5994 23.3878 19.3545L22.0943 19.5618C22.2767 20.419 23.1814 20.8095 24.1601 20.8046C26.5338 20.7892 26.5982 19.4192 26.5982 18.5844ZM25.3381 16.1148C25.3381 16.7776 25.2561 17.7889 24.2611 17.797C23.3007 17.8044 23.2553 16.7856 23.2553 16.1697C23.2553 15.0454 23.7802 14.7023 24.2529 14.7023C24.9577 14.7023 25.3381 15.336 25.3381 16.1148ZM34.3875 13.6391H34.66V11.9915H34.2437L33.7603 13.2429L33.2688 11.9915H32.8492V13.6391H33.1217V12.263H33.1294L33.6695 13.6391H33.8411L34.38 12.263H34.3875V13.6391ZM31.9993 12.2099H32.5141V11.9915H31.2131V12.2099H31.7286V13.6391H31.9993V12.2099Z" fill="white" fill-opacity="0.6"/>
<path d="M40.4642 11.72H42.5082C43.2125 11.72 43.6204 11.3435 43.6204 10.6824C43.6204 10.0401 43.2125 9.67223 42.5082 9.67223H40.4642V11.72ZM40.4642 8.84575H42.3515C42.9069 8.84575 43.3234 8.52305 43.3234 7.93686C43.3234 7.27503 42.981 7.03593 42.3515 7.03593H40.4642V8.84575ZM39.3066 6.09961H42.5181C43.7027 6.09961 44.4804 6.63273 44.4804 7.7252C44.4804 8.38703 44.1376 8.86339 43.5367 9.12143V9.13912C44.342 9.31421 44.7774 9.93882 44.7774 10.8294C44.7774 11.8584 44.0544 12.6562 42.3429 12.6562H39.3066M49.8588 12.6562H48.8218V11.995H48.8035C48.5445 12.4732 47.9703 12.7861 47.4423 12.7861C46.1924 12.7861 45.6563 12.1609 45.6563 10.9215V7.90818H46.7106V10.8202C46.7106 11.6552 47.0538 11.9584 47.6279 11.9584C48.5075 11.9584 48.8035 11.3997 48.8035 10.6634V7.90818H49.8588M51.7282 11.1325C51.7836 11.7388 52.2472 11.9584 52.8105 11.9584C53.2104 11.9584 53.9039 11.8767 53.8756 11.3356C53.848 10.7836 53.0798 10.7196 52.3114 10.5445C51.5334 10.3804 50.7745 10.1041 50.7745 9.13912C50.7745 8.10096 51.9047 7.78006 52.7743 7.78006C53.7551 7.78006 54.6435 8.18391 54.7737 9.23915H53.6728C53.579 8.74511 53.1634 8.606 52.6999 8.606C52.395 8.606 51.8291 8.6804 51.8291 9.09275C51.8291 9.60817 52.6074 9.68203 53.385 9.85522C54.1529 10.0303 54.9308 10.306 54.9308 11.2423C54.9308 12.3732 53.7834 12.7861 52.7918 12.7861C51.59 12.7861 50.6915 12.253 50.6727 11.1325M55.8293 7.90818H56.8836V12.6562H55.8293V7.90818ZM55.8293 6.09961H56.8836V7.09144H55.8293M58.0974 7.90818H59.0963V8.606L59.1145 8.62494C59.4287 8.10096 59.9758 7.78006 60.6053 7.78006C61.642 7.78006 62.2986 8.33032 62.2986 9.39651V12.6562H61.2434V9.67223C61.2249 8.9287 60.9286 8.606 60.3084 8.606C59.6057 8.606 59.1508 9.15805 59.1508 9.85522V12.6562H58.0974M66.6778 9.86496C66.6409 9.20318 66.1875 8.606 65.4741 8.606C64.7425 8.606 64.2434 9.15805 64.2151 9.86496H66.6778ZM64.2151 10.553C64.2151 11.2978 64.6221 11.9584 65.5012 11.9584C66.1125 11.9584 66.4822 11.6925 66.668 11.1691H67.6676C67.4352 12.2067 66.5475 12.7861 65.5012 12.7861C64.0024 12.7861 63.1589 11.748 63.1589 10.2871C63.1589 8.93724 64.0479 7.78006 65.4741 7.78006C66.9828 7.78006 67.9085 9.13057 67.7331 10.553M69.3987 11.1325C69.4539 11.7388 69.9163 11.9584 70.4819 11.9584C70.879 11.9584 71.5749 11.8767 71.547 11.3356C71.5183 10.7836 70.7498 10.7196 69.9814 10.5445C69.2045 10.3804 68.4446 10.1041 68.4446 9.13912C68.4446 8.10096 69.5746 7.78006 70.445 7.78006C71.4262 7.78006 72.315 8.18391 72.4441 9.23915H71.3425C71.2504 8.74511 70.8336 8.606 70.37 8.606C70.0651 8.606 69.5011 8.6804 69.5011 9.09275C69.5011 9.60817 70.2777 9.68203 71.056 9.85522C71.8245 10.0303 72.6015 10.306 72.6015 11.2423C72.6015 12.3732 71.4532 12.7861 70.4635 12.7861C69.2598 12.7861 68.3622 12.253 68.3438 11.1325M74.202 11.1325C74.259 11.7388 74.7211 11.9584 75.2852 11.9584C75.6839 11.9584 76.3785 11.8767 76.3503 11.3356C76.3217 10.7836 75.5533 10.7196 74.7851 10.5445C74.0084 10.3804 73.2494 10.1041 73.2494 9.13912C73.2494 8.10096 74.3782 7.78006 75.2483 7.78006C76.2298 7.78006 77.1187 8.18391 77.2475 9.23915H76.1462C76.0536 8.74511 75.6372 8.606 75.1748 8.606C74.8688 8.606 74.3044 8.6804 74.3044 9.09275C74.3044 9.60817 75.0814 9.68203 75.8593 9.85522C76.6282 10.0303 77.4049 10.306 77.4049 11.2423C77.4049 12.3732 76.2568 12.7861 75.2671 12.7861C74.0634 12.7861 73.1655 12.253 73.1474 11.1325M40.2423 18.995C40.2423 20.0051 40.9923 20.4017 41.9184 20.4017C42.9367 20.4017 43.316 19.9051 43.316 19.408C43.316 18.9035 43.0388 18.7017 42.7695 18.6016C42.3072 18.4259 41.706 18.3058 40.7974 18.0581C39.6681 17.755 39.3355 17.0755 39.3355 16.3966C39.3355 15.0821 40.557 14.4678 41.7515 14.4678C43.131 14.4678 44.2873 15.1931 44.2873 16.5612H43.131C43.0757 15.7171 42.5015 15.4035 41.706 15.4035C41.1681 15.4035 40.4925 15.5963 40.4925 16.2587C40.4925 16.7174 40.8073 16.9742 41.2799 17.1029C41.3814 17.1309 42.8439 17.5067 43.186 17.6086C44.0561 17.8654 44.4724 18.6016 44.4724 19.2793C44.4724 20.7493 43.1593 21.3367 41.8437 21.3367C40.3348 21.3367 39.113 20.6212 39.0859 18.995M48.6373 18.3887C48.601 17.7288 48.1467 17.1309 47.4355 17.1309C46.7039 17.1309 46.2035 17.6824 46.1758 18.3887H48.6373ZM46.1758 19.078C46.1758 19.8222 46.5834 20.4833 47.4622 20.4833C48.073 20.4833 48.443 20.2162 48.6293 19.6928H49.6289C49.3977 20.731 48.5088 21.3105 47.4622 21.3105C45.9635 21.3105 45.1216 20.2723 45.1216 18.812C45.1216 17.461 46.0092 16.3045 47.4355 16.3045C48.944 16.3045 49.8699 17.6543 49.6935 19.078M50.5077 16.4332H51.4984V17.3505H51.5168C51.6379 16.8461 52.2661 16.3045 52.9148 16.3045C53.1545 16.3045 53.2196 16.3221 53.3119 16.3319V17.3426C53.1646 17.3237 53.0069 17.2956 52.8591 17.2956C52.1371 17.2956 51.5623 17.8757 51.5623 18.9212V21.1812H50.5077M53.4508 16.4332H54.5998L55.8114 20.0796H55.8303L56.9967 16.4332H58.0886L56.3776 21.1812H55.1912M58.82 16.4332H59.8759V21.1812H58.82V16.4332ZM58.82 14.6234H59.8759V15.6152H58.82M64.2163 18.0215C64.1327 17.4432 63.7073 17.1309 63.1246 17.1309C62.5774 17.1309 61.8096 17.4158 61.8096 18.8572C61.8096 19.6471 62.1619 20.4833 63.0781 20.4833C63.6892 20.4833 64.1146 20.0795 64.2163 19.4001H65.2716C65.0773 20.631 64.3089 21.3105 63.0781 21.3105C61.5785 21.3105 60.7544 20.254 60.7544 18.8572C60.7544 17.425 61.5416 16.3045 63.115 16.3045C64.2262 16.3045 65.1705 16.8553 65.2716 18.0215M69.4368 18.3887C69.3999 17.7288 68.9463 17.1309 68.2343 17.1309C67.5031 17.1309 67.0027 17.6824 66.9753 18.3887H69.4368ZM66.9753 19.078C66.9753 19.8222 67.3823 20.4833 68.2614 20.4833C68.8725 20.4833 69.2422 20.2162 69.4282 19.6928H70.4278C70.1966 20.731 69.3077 21.3105 68.2614 21.3105C66.7627 21.3105 65.9205 20.2723 65.9205 18.812C65.9205 17.461 66.8085 16.3045 68.2343 16.3045C69.7426 16.3045 70.6684 17.6543 70.4929 19.078M72.1589 19.6569C72.2143 20.2625 72.6775 20.4833 73.2421 20.4833C73.6401 20.4833 74.3339 20.4016 74.3056 19.8587C74.2786 19.3073 73.5102 19.2427 72.7417 19.0682C71.9647 18.9035 71.2045 18.6278 71.2045 17.6641C71.2045 16.6259 72.3348 16.3045 73.2052 16.3045C74.1864 16.3045 75.074 16.7082 75.2044 17.7647H74.1028C74.0106 17.2676 73.5941 17.1309 73.1299 17.1309C72.825 17.1309 72.261 17.2035 72.261 17.6177C72.261 18.1326 73.038 18.2057 73.815 18.3802C74.5835 18.5546 75.3618 18.8309 75.3618 19.766C75.3618 20.8963 74.2131 21.3105 73.2237 21.3105C72.0197 21.3105 71.1212 20.7774 71.1039 19.6569" fill="white" fill-opacity="0.6"/>
</svg>
