<svg width="110" height="62" viewBox="0 0 110 62" fill="none" xmlns="http://www.w3.org/2000/svg">
<g opacity="0.6">
<rect x="1.38672" y="1" width="106.817" height="60" rx="10" fill="#071A59"/>
<rect x="0.886719" y="0.5" width="107.817" height="61" rx="10.5" stroke="white" stroke-opacity="0.09"/>
</g>
<path d="M1.38672 20.1377H108.204V3.58619C108.204 2.15775 107.046 0.999763 105.618 0.999763H3.97315C2.5447 0.999763 1.38672 2.15775 1.38672 3.58619V20.1377Z" fill="#4285F4"/>
<path d="M39.2816 7.42885C40.2083 7.42885 40.8816 7.62218 41.3016 8.00885C41.7283 8.39551 41.9416 8.92885 41.9416 9.60885C41.9416 9.91551 41.8949 10.2088 41.8016 10.4888C41.7083 10.7622 41.5516 11.0088 41.3316 11.2288C41.1116 11.4488 40.8216 11.6222 40.4616 11.7488C40.1083 11.8755 39.6683 11.9388 39.1416 11.9388H38.4316V14.5688H37.1516V7.42885H39.2816ZM39.2016 8.48885H38.4316V10.8788H39.0116C39.3583 10.8788 39.6516 10.8388 39.8916 10.7588C40.1383 10.6722 40.3249 10.5388 40.4516 10.3588C40.5783 10.1788 40.6416 9.94551 40.6416 9.65885C40.6416 9.26551 40.5249 8.97218 40.2916 8.77885C40.0583 8.58551 39.6949 8.48885 39.2016 8.48885ZM45.383 9.04885C46.083 9.04885 46.613 9.20218 46.973 9.50885C47.3397 9.80885 47.523 10.2822 47.523 10.9288V14.5688H46.633L46.383 13.8188H46.343C46.1897 14.0122 46.0297 14.1755 45.863 14.3088C45.703 14.4355 45.5163 14.5255 45.303 14.5788C45.0963 14.6388 44.843 14.6688 44.543 14.6688C44.223 14.6688 43.933 14.6088 43.673 14.4888C43.4197 14.3688 43.2197 14.1855 43.073 13.9388C42.9263 13.6855 42.853 13.3688 42.853 12.9888C42.853 12.4288 43.0563 12.0088 43.463 11.7288C43.8763 11.4422 44.4997 11.2855 45.333 11.2588L46.273 11.2288V10.9588C46.273 10.6122 46.1897 10.3655 46.023 10.2188C45.8563 10.0722 45.623 9.99885 45.323 9.99885C45.0497 9.99885 44.7863 10.0388 44.533 10.1188C44.2797 10.1988 44.033 10.2922 43.793 10.3988L43.393 9.51885C43.6597 9.37885 43.963 9.26551 44.303 9.17885C44.6497 9.09218 45.0097 9.04885 45.383 9.04885ZM45.613 12.0288C45.0597 12.0488 44.6763 12.1455 44.463 12.3188C44.2497 12.4855 44.143 12.7122 44.143 12.9988C44.143 13.2522 44.2197 13.4355 44.373 13.5488C44.5263 13.6622 44.723 13.7188 44.963 13.7188C45.3297 13.7188 45.6397 13.6155 45.893 13.4088C46.1463 13.1955 46.273 12.8822 46.273 12.4688V12.0088L45.613 12.0288ZM51.9419 9.04885C52.0219 9.04885 52.1152 9.05218 52.2219 9.05885C52.3286 9.06551 52.4186 9.07885 52.4919 9.09885L52.3819 10.2688C52.3219 10.2555 52.2419 10.2455 52.1419 10.2388C52.0486 10.2255 51.9652 10.2188 51.8919 10.2188C51.6919 10.2188 51.4986 10.2522 51.3119 10.3188C51.1319 10.3788 50.9686 10.4722 50.8219 10.5988C50.6819 10.7188 50.5686 10.8755 50.4819 11.0688C50.4019 11.2622 50.3619 11.4922 50.3619 11.7588V14.5688H49.1019V9.14885H50.0719L50.2519 10.0888H50.3119C50.4186 9.89551 50.5519 9.72218 50.7119 9.56885C50.8719 9.40885 51.0552 9.28218 51.2619 9.18885C51.4752 9.09551 51.7019 9.04885 51.9419 9.04885ZM55.5964 13.6588C55.7564 13.6588 55.9098 13.6455 56.0564 13.6188C56.2031 13.5855 56.3398 13.5488 56.4664 13.5088V14.4488C56.3331 14.5088 56.1598 14.5588 55.9464 14.5988C55.7331 14.6455 55.5098 14.6688 55.2764 14.6688C54.9698 14.6688 54.6898 14.6188 54.4364 14.5188C54.1898 14.4122 53.9898 14.2322 53.8364 13.9788C53.6898 13.7255 53.6164 13.3722 53.6164 12.9188V10.0988H52.8864V9.54885L53.6864 9.10885L54.0864 7.95885H54.8764V9.14885H56.4164V10.0988H54.8764V12.9088C54.8764 13.1622 54.9431 13.3522 55.0764 13.4788C55.2098 13.5988 55.3831 13.6588 55.5964 13.6588ZM60.4589 9.04885C61.0656 9.04885 61.5389 9.20551 61.8789 9.51885C62.2256 9.83218 62.3989 10.3388 62.3989 11.0388V14.5688H61.1389V11.2888C61.1389 10.8822 61.0589 10.5788 60.8989 10.3788C60.7389 10.1722 60.4856 10.0688 60.1389 10.0688C59.6323 10.0688 59.2856 10.2288 59.0989 10.5488C58.9123 10.8622 58.8189 11.3188 58.8189 11.9188V14.5688H57.5589V9.14885H58.5289L58.7089 9.85885H58.7789C58.8989 9.67218 59.0456 9.51885 59.2189 9.39885C59.3923 9.27885 59.5856 9.19218 59.7989 9.13885C60.0123 9.07885 60.2323 9.04885 60.4589 9.04885ZM66.155 9.04885C66.6416 9.04885 67.0583 9.14885 67.405 9.34885C67.7583 9.54218 68.0316 9.82218 68.225 10.1888C68.4183 10.5488 68.515 10.9888 68.515 11.5088V12.1488H64.935C64.9483 12.6422 65.085 13.0255 65.345 13.2988C65.605 13.5655 65.965 13.6988 66.425 13.6988C66.7783 13.6988 67.0916 13.6655 67.365 13.5988C67.645 13.5255 67.9316 13.4222 68.225 13.2888V14.2988C67.9583 14.4255 67.6816 14.5188 67.395 14.5788C67.1083 14.6388 66.765 14.6688 66.365 14.6688C65.8383 14.6688 65.3683 14.5688 64.955 14.3688C64.5483 14.1622 64.2283 13.8522 63.995 13.4388C63.7683 13.0255 63.655 12.5122 63.655 11.8988C63.655 11.2788 63.7583 10.7588 63.965 10.3388C64.1783 9.91218 64.4716 9.59218 64.845 9.37885C65.2183 9.15885 65.655 9.04885 66.155 9.04885ZM66.155 9.97885C65.8216 9.97885 65.5483 10.0888 65.335 10.3088C65.1283 10.5222 65.005 10.8422 64.965 11.2688H67.295C67.295 11.0155 67.2516 10.7922 67.165 10.5988C67.085 10.4055 66.9616 10.2555 66.795 10.1488C66.6283 10.0355 66.415 9.97885 66.155 9.97885ZM72.6255 9.04885C72.7055 9.04885 72.7988 9.05218 72.9055 9.05885C73.0122 9.06551 73.1022 9.07885 73.1755 9.09885L73.0655 10.2688C73.0055 10.2555 72.9255 10.2455 72.8255 10.2388C72.7322 10.2255 72.6488 10.2188 72.5755 10.2188C72.3755 10.2188 72.1822 10.2522 71.9955 10.3188C71.8155 10.3788 71.6522 10.4722 71.5055 10.5988C71.3655 10.7188 71.2522 10.8755 71.1655 11.0688C71.0855 11.2622 71.0455 11.4922 71.0455 11.7588V14.5688H69.7855V9.14885H70.7555L70.9355 10.0888H70.9955C71.1022 9.89551 71.2355 9.72218 71.3955 9.56885C71.5555 9.40885 71.7388 9.28218 71.9455 9.18885C72.1588 9.09551 72.3855 9.04885 72.6255 9.04885Z" fill="white"/>
<g clip-path="url(#clip0_1069_14208)">
<path d="M66.3638 41.4348C65.7251 41.4496 65.0902 41.3345 64.4977 41.0965C63.9052 40.8584 63.3676 40.5025 62.9178 40.0504C62.4679 39.5983 62.1152 39.0596 61.8813 38.467C61.6473 37.8745 61.537 37.2407 61.557 36.6043C61.5405 35.9719 61.6531 35.3429 61.8879 34.7552C62.1228 34.1676 62.475 33.6337 62.9231 33.1859C63.3697 32.7305 63.9058 32.372 64.4979 32.1329C65.0899 31.8937 65.7252 31.7791 66.3638 31.7961C67.0033 31.7804 67.6382 31.9076 68.2219 32.1685C68.8056 32.4293 69.3233 32.8172 69.7369 33.3035L68.9105 34.1273C68.6074 33.7454 68.2198 33.4384 67.7781 33.2304C67.3363 33.0223 66.8523 32.9189 66.3638 32.9281C65.8876 32.9165 65.4142 33.002 64.9724 33.1793C64.5306 33.3566 64.1298 33.622 63.7945 33.9592C63.4521 34.3073 63.1847 34.7215 63.0087 35.1763C62.8327 35.6312 62.752 36.1171 62.7713 36.6043C62.7504 37.0932 62.8304 37.5813 63.0064 38.0382C63.1824 38.4951 63.4507 38.9111 63.7945 39.2605C64.129 39.5988 64.5296 39.8649 64.9716 40.0423C65.4136 40.2197 65.8875 40.3046 66.3638 40.2916C66.9041 40.289 67.4371 40.1659 67.9235 39.9312C68.4099 39.6965 68.8374 39.3563 69.1747 38.9355L70.0405 39.7761C69.6023 40.2983 69.0505 40.7142 68.427 40.9921C67.78 41.2881 67.0757 41.4392 66.3638 41.4348ZM72.1937 32.0034V41.2331H71.0019V32.0034H72.1937ZM73.2169 38.0725C73.2039 37.6301 73.2787 37.1895 73.4369 36.776C73.5951 36.3625 73.8337 35.9842 74.1389 35.6628C74.441 35.3508 74.805 35.1049 75.2076 34.9409C75.6103 34.7769 76.0428 34.6983 76.4777 34.7101C76.9109 34.6978 77.3419 34.7762 77.7428 34.9403C78.1437 35.1044 78.5056 35.3505 78.8051 35.6628C79.1134 35.9823 79.3544 36.3602 79.5137 36.774C79.673 37.1879 79.7475 37.6294 79.7328 38.0725C79.7491 38.5157 79.6754 38.9577 79.5159 39.3718C79.3565 39.7859 79.1148 40.1636 78.8051 40.4822C78.5065 40.7956 78.1447 41.0425 77.7436 41.2066C77.3425 41.3708 76.9111 41.4486 76.4777 41.4348C76.0426 41.4481 75.6097 41.3701 75.2068 41.206C74.804 41.0419 74.4401 40.7953 74.1389 40.4822C73.8337 40.1608 73.5951 39.7825 73.4369 39.3689C73.2787 38.9554 73.2039 38.5149 73.2169 38.0725ZM74.4088 38.0725C74.3814 38.6786 74.5956 39.2708 75.0047 39.72C75.1939 39.9202 75.4222 40.0797 75.6755 40.1887C75.9288 40.2977 76.2018 40.3539 76.4777 40.3539C76.7535 40.3539 77.0265 40.2977 77.2798 40.1887C77.5331 40.0797 77.7614 39.9202 77.9506 39.72C78.3597 39.2708 78.5739 38.6786 78.5465 38.0725C78.5727 37.47 78.3585 36.8816 77.9506 36.4361C77.7632 36.233 77.5355 36.0709 77.2819 35.96C77.0284 35.8491 76.7545 35.7918 76.4777 35.7918C76.2008 35.7918 75.9269 35.8491 75.6734 35.96C75.4198 36.0709 75.1922 36.233 75.0047 36.4361C74.5968 36.8816 74.3826 37.47 74.4088 38.0725ZM86.3104 41.2331H85.1861V40.3533H85.1298C84.9288 40.6822 84.641 40.9497 84.2978 41.1266C83.9412 41.3281 83.5383 41.4343 83.1284 41.4348C82.7997 41.4561 82.4702 41.4082 82.1612 41.2943C81.8522 41.1803 81.5708 41.0029 81.335 40.7736C80.8896 40.2483 80.6659 39.5714 80.711 38.8851V34.9231H81.8972V38.8122C81.8724 39.0228 81.8961 39.2362 81.9664 39.4362C82.0367 39.6363 82.1519 39.8178 82.303 39.9669C82.4542 40.116 82.6375 40.2287 82.839 40.2967C83.0405 40.3646 83.2548 40.3859 83.4657 40.3589C83.6934 40.3628 83.9189 40.3143 84.1247 40.2171C84.3304 40.1199 84.5109 39.9766 84.652 39.7985C84.9727 39.4135 85.1424 38.9257 85.1298 38.4255V34.9231H86.3217L86.3104 41.2331ZM90.3358 41.4348C89.9311 41.4348 89.5313 41.3476 89.1635 41.1793C88.7958 41.011 88.4689 40.7656 88.205 40.4598C87.6144 39.8052 87.2932 38.9527 87.3055 38.0725C87.2862 37.1968 87.5995 36.3461 88.1826 35.6908C88.4444 35.3822 88.7708 35.1345 89.1389 34.9651C89.507 34.7957 89.9078 34.7087 90.3133 34.7101C90.7567 34.7026 91.1952 34.8047 91.5895 35.0071C91.9507 35.1846 92.2575 35.4556 92.4777 35.7917H92.5283L92.5002 34.9231V32.0034H93.6864V41.2331H92.5621V40.3533H92.5114C92.2912 40.6894 91.9844 40.9603 91.6232 41.1378C91.2255 41.3421 90.783 41.4442 90.3358 41.4348ZM90.5325 40.3533C90.8039 40.362 91.0737 40.3096 91.3219 40.2C91.5701 40.0903 91.7903 39.9263 91.9661 39.72C92.3593 39.2635 92.5607 38.6733 92.5283 38.0725C92.5555 37.4758 92.3546 36.891 91.9661 36.4361C91.7909 36.2285 91.5711 36.0627 91.3229 35.9512C91.0748 35.8396 90.8047 35.7851 90.5325 35.7917C90.2607 35.7875 89.9914 35.8431 89.7436 35.9545C89.4958 36.0659 89.2757 36.2303 89.0989 36.4361C88.7105 36.891 88.5096 37.4758 88.5367 38.0725C88.5055 38.6698 88.7069 39.256 89.0989 39.7088C89.2757 39.9147 89.4958 40.0791 89.7436 40.1905C89.9914 40.3019 90.2607 40.3575 90.5325 40.3533Z" fill="white"/>
<path d="M21.2415 41.4347C19.8425 41.4393 18.4981 40.8943 17.4995 39.9177C16.5008 38.9412 15.9284 37.6118 15.9062 36.2175C15.9284 34.8232 16.5008 33.4937 17.4995 32.5172C18.4981 31.5406 19.8425 30.9956 21.2415 31.0002C21.9081 30.9891 22.5702 31.1108 23.189 31.3581C23.8078 31.6054 24.3709 31.9734 24.8451 32.4404L23.8276 33.4435C23.1338 32.7776 22.2046 32.4111 21.2415 32.4236C20.7428 32.4221 20.2488 32.5194 19.7882 32.71C19.3277 32.9005 18.9097 33.1804 18.5587 33.5335C18.2076 33.8865 17.9305 34.3056 17.7435 34.7664C17.5564 35.2272 17.4632 35.7204 17.4692 36.2175C17.4632 36.7145 17.5564 37.2077 17.7435 37.6685C17.9305 38.1293 18.2076 38.5484 18.5587 38.9014C18.9097 39.2545 19.3277 39.5344 19.7882 39.725C20.2488 39.9155 20.7428 40.0128 21.2415 40.0113C21.7327 40.0314 22.2227 39.9485 22.6798 39.768C23.1369 39.5875 23.5509 39.3134 23.895 38.9634C24.3538 38.4702 24.6295 37.8355 24.6765 37.1645H21.2415V35.7467H26.0764C26.1291 36.0407 26.1536 36.3391 26.1494 36.6378C26.1875 37.8676 25.7393 39.063 24.9014 39.9665C24.4298 40.4548 23.8599 40.8381 23.2291 41.0911C22.5983 41.3442 21.9209 41.4613 21.2415 41.4347Z" fill="#4285F4"/>
<path d="M33.6253 38.0717C33.6437 38.52 33.5711 38.9673 33.4118 39.3869C33.2524 39.8065 33.0096 40.1896 32.6979 40.5133C32.3863 40.8369 32.0122 41.0945 31.5982 41.2704C31.1842 41.4463 30.7387 41.537 30.2887 41.537C29.8386 41.537 29.3932 41.4463 28.9791 41.2704C28.5651 41.0945 28.191 40.8369 27.8794 40.5133C27.5677 40.1896 27.3249 39.8065 27.1656 39.3869C27.0062 38.9673 26.9336 38.52 26.952 38.0717C26.9336 37.6235 27.0062 37.1761 27.1656 36.7566C27.3249 36.337 27.5677 35.9539 27.8794 35.6302C28.191 35.3065 28.5651 35.049 28.9791 34.8731C29.3932 34.6971 29.8386 34.6064 30.2887 34.6064C30.7387 34.6064 31.1842 34.6971 31.5982 34.8731C32.0122 35.049 32.3863 35.3065 32.6979 35.6302C33.0096 35.9539 33.2524 36.337 33.4118 36.7566C33.5711 37.1761 33.6437 37.6235 33.6253 38.0717ZM32.1636 38.0717C32.1884 37.8114 32.1583 37.5488 32.0754 37.3007C31.9924 37.0526 31.8584 36.8246 31.6819 36.6311C31.5054 36.4377 31.2903 36.2831 31.0504 36.1773C30.8104 36.0716 30.551 36.017 30.2887 36.017C30.0263 36.017 29.7669 36.0716 29.527 36.1773C29.287 36.2831 29.0719 36.4377 28.8954 36.6311C28.7189 36.8246 28.5849 37.0526 28.5019 37.3007C28.419 37.5488 28.3889 37.8114 28.4137 38.0717C28.3889 38.3321 28.419 38.5947 28.5019 38.8428C28.5849 39.0908 28.7189 39.3189 28.8954 39.5123C29.0719 39.7058 29.287 39.8604 29.527 39.9661C29.7669 40.0719 30.0263 40.1265 30.2887 40.1265C30.551 40.1265 30.8104 40.0719 31.0504 39.9661C31.2903 39.8604 31.5054 39.7058 31.6819 39.5123C31.8584 39.3189 31.9924 39.0908 32.0754 38.8428C32.1583 38.5947 32.1884 38.3321 32.1636 38.0717Z" fill="#EA4335"/>
<path d="M41.1097 38.0717C41.1281 38.52 41.0555 38.9673 40.8961 39.3869C40.7368 39.8065 40.494 40.1896 40.1823 40.5133C39.8707 40.8369 39.4966 41.0945 39.0826 41.2704C38.6685 41.4463 38.2231 41.537 37.773 41.537C37.323 41.537 36.8775 41.4463 36.4635 41.2704C36.0495 41.0945 35.6754 40.8369 35.3637 40.5133C35.0521 40.1896 34.8093 39.8065 34.6499 39.3869C34.4906 38.9673 34.4179 38.52 34.4364 38.0717C34.4179 37.6235 34.4906 37.1761 34.6499 36.7566C34.8093 36.337 35.0521 35.9539 35.3637 35.6302C35.6754 35.3065 36.0495 35.049 36.4635 34.8731C36.8775 34.6971 37.323 34.6064 37.773 34.6064C38.2231 34.6064 38.6685 34.6971 39.0826 34.8731C39.4966 35.049 39.8707 35.3065 40.1823 35.6302C40.494 35.9539 40.7368 36.337 40.8961 36.7566C41.0555 37.1761 41.1281 37.6235 41.1097 38.0717ZM39.648 38.0717C39.668 37.8138 39.6343 37.5544 39.549 37.3101C39.4638 37.0657 39.3287 36.8415 39.1524 36.6516C38.9761 36.4617 38.7623 36.3102 38.5244 36.2066C38.2866 36.103 38.0298 36.0495 37.7702 36.0495C37.5106 36.0495 37.2539 36.103 37.016 36.2066C36.7782 36.3102 36.5644 36.4617 36.388 36.6516C36.2117 36.8415 36.0767 37.0657 35.9914 37.3101C35.9061 37.5544 35.8724 37.8138 35.8925 38.0717C35.8724 38.3297 35.9061 38.589 35.9914 38.8334C36.0767 39.0778 36.2117 39.302 36.388 39.4919C36.5644 39.6818 36.7782 39.8333 37.016 39.9369C37.2539 40.0405 37.5106 40.094 37.7702 40.094C38.0298 40.094 38.2866 40.0405 38.5244 39.9369C38.7623 39.8333 38.9761 39.6818 39.1524 39.4919C39.3287 39.302 39.4638 39.0778 39.549 38.8334C39.6343 38.589 39.668 38.3297 39.648 38.0717Z" fill="#FBBC04"/>
<path d="M48.4034 34.9223V40.9522C48.4034 43.4291 46.9249 44.449 45.1821 44.449C44.5407 44.4525 43.9127 44.2658 43.3781 43.9125C42.8435 43.5593 42.4264 43.0555 42.1799 42.4652L43.4786 41.9048C43.6095 42.2484 43.8395 42.5457 44.1397 42.7591C44.4398 42.9725 44.7967 43.0926 45.1652 43.1041C46.2896 43.1041 46.9755 42.4148 46.9755 41.1315V40.6496H46.9417C46.7168 40.9025 46.4395 41.1037 46.1288 41.2392C45.8182 41.3746 45.4817 41.4411 45.1427 41.4341C44.2481 41.4341 43.3901 41.0799 42.7575 40.4493C42.1249 39.8187 41.7695 38.9635 41.7695 38.0717C41.7695 37.18 42.1249 36.3248 42.7575 35.6942C43.3901 35.0636 44.2481 34.7094 45.1427 34.7094C45.4805 34.7032 45.8158 34.7689 46.126 34.9023C46.4363 35.0357 46.7144 35.2336 46.9417 35.4827H46.9923V34.9223H48.4034ZM47.0935 38.0942C47.1142 37.8401 47.0833 37.5845 47.0028 37.3425C46.9223 37.1006 46.7937 36.8773 46.6248 36.6859C46.4559 36.4945 46.2501 36.339 46.0196 36.2286C45.7891 36.1181 45.5387 36.0551 45.2832 36.0431C45.0238 36.0524 44.7688 36.1131 44.5331 36.2217C44.2974 36.3302 44.0858 36.4844 43.9105 36.6753C43.7352 36.8662 43.5998 37.09 43.5121 37.3336C43.4244 37.5772 43.3863 37.8357 43.3999 38.0942C43.3878 38.3508 43.4272 38.6073 43.5158 38.8487C43.6043 39.09 43.7403 39.3113 43.9156 39.4997C44.091 39.688 44.3022 39.8397 44.5371 39.9457C44.7719 40.0517 45.0256 40.11 45.2832 40.1172C45.5377 40.1082 45.7876 40.0478 46.018 39.9398C46.2484 39.8318 46.4544 39.6784 46.6236 39.4887C46.7928 39.2991 46.9217 39.0773 47.0024 38.8366C47.0832 38.596 47.1142 38.3415 47.0935 38.0886V38.0942Z" fill="#4285F4"/>
<path d="M51.0037 31.3589V41.233H49.5195V31.3589H51.0037Z" fill="#34A853"/>
<path d="M56.8508 39.181L58.0089 39.9656C57.6997 40.4256 57.2813 40.8023 56.791 41.0623C56.3006 41.3224 55.7534 41.4577 55.1979 41.4562C54.7561 41.4625 54.3175 41.3794 53.9088 41.2119C53.5002 41.0443 53.1298 40.7959 52.8203 40.4816C52.5107 40.1672 52.2683 39.7935 52.1079 39.3831C51.9474 38.9727 51.8721 38.5341 51.8866 38.0939C51.8208 37.337 52.0367 36.5825 52.4931 35.9741C52.9496 35.3658 53.6146 34.9461 54.3615 34.7951C55.1085 34.6441 55.885 34.7724 56.5432 35.1555C57.2013 35.5385 57.695 36.1496 57.9302 36.8722L58.082 37.2589L53.5844 39.1138C53.7246 39.4278 53.9558 39.6928 54.2484 39.8745C54.541 40.0563 54.8815 40.1466 55.226 40.1337C55.5559 40.1263 55.8783 40.0348 56.1627 39.8681C56.4471 39.7013 56.684 39.4648 56.8508 39.181ZM53.3033 37.9706L56.3279 36.7265C56.2069 36.5033 56.0235 36.32 55.7999 36.1986C55.5764 36.0773 55.3224 36.0232 55.0686 36.0428C54.8256 36.0536 54.5872 36.1121 54.3669 36.2149C54.1466 36.3176 53.9488 36.4627 53.7848 36.6418C53.6209 36.8208 53.4939 37.0304 53.4113 37.2584C53.3287 37.4864 53.292 37.7284 53.3033 37.9706Z" fill="#EA4335"/>
</g>
<defs>
<clipPath id="clip0_1069_14208">
<rect width="77.7797" height="13.4483" fill="white" transform="translate(15.9062 31)"/>
</clipPath>
</defs>
</svg>
