<svg width="16" height="16" viewBox="0 0 16 16" fill="none" xmlns="http://www.w3.org/2000/svg">
<path d="M3.48016 8.90875L14.7419 9.02817C14.9954 9.03051 15.2101 8.94525 15.3861 8.77241C15.5618 8.59999 15.6508 8.38706 15.6531 8.13362C15.6554 7.88019 15.5702 7.66545 15.3973 7.4894C15.2249 7.31378 15.012 7.2248 14.7585 7.22247L3.49648 7.13472L8.35599 2.36379C8.53715 2.18593 8.62906 1.97556 8.63172 1.73269C8.63353 1.48981 8.54551 1.27779 8.36764 1.09663C8.18978 0.915462 7.97941 0.823551 7.73654 0.820894C7.49367 0.819083 7.28165 0.907109 7.10048 1.08497L0.706388 7.36251C0.525223 7.54037 0.433525 7.75053 0.431295 7.99298C0.429057 8.23628 0.51687 8.44851 0.694733 8.62967L6.97227 15.0238C7.15013 15.2049 7.3605 15.2964 7.60338 15.2982C7.84625 15.3009 8.05827 15.2133 8.23943 15.0354C8.4206 14.8576 8.51209 14.6472 8.5139 14.4043C8.51655 14.1614 8.42895 13.9494 8.25109 13.7683L3.48016 8.90875Z" fill="#D1D5DB"/>
</svg>
