<svg width="17" height="17" viewBox="0 0 17 17" fill="none" xmlns="http://www.w3.org/2000/svg">
<path fill-rule="evenodd" clip-rule="evenodd" d="M9.85738 8.57301L16.1919 2.23915C16.6353 1.79576 16.6326 1.08539 16.1919 0.64403C15.7505 0.200639 15.0402 0.206046 14.5995 0.64403L8.26562 6.97789L1.93176 0.64403C1.48837 0.200639 0.778001 0.203343 0.339342 0.64403C-0.104048 1.0881 -0.101344 1.79779 0.339342 2.23915L6.67387 8.57301L0.339342 14.9042C-0.104048 15.3476 -0.101344 16.0579 0.339342 16.4986C0.780705 16.9427 1.49107 16.94 1.93176 16.4986L8.26562 10.1648L14.5995 16.4986C15.0429 16.9427 15.7532 16.94 16.1919 16.4986C16.6353 16.0552 16.6326 15.3449 16.1919 14.9042L9.85738 8.57301Z" fill="#333957"/>
</svg>
