<svg width="56" height="52" viewBox="0 0 56 52" fill="none" xmlns="http://www.w3.org/2000/svg">
<g clip-path="url(#clip0_1117_3967)">
<mask id="mask0_1117_3967" style="mask-type:luminance" maskUnits="userSpaceOnUse" x="0" y="0" width="56" height="52">
<path d="M56 0H0V52H56V0Z" fill="white"/>
</mask>
<g mask="url(#mask0_1117_3967)">
<path d="M41.5705 44.9474L41.0224 51.2299C40.9732 51.7945 40.2974 52.0147 39.9514 51.5792L22.8104 29.9939C22.7594 29.9297 22.7209 29.8556 22.6973 29.7758C22.6736 29.6959 22.6652 29.6121 22.6725 29.5288C22.6797 29.4456 22.7026 29.3647 22.7397 29.2907C22.7768 29.2168 22.8274 29.1512 22.8886 29.0977L30.7491 22.2382C30.8103 22.1847 30.881 22.1444 30.9572 22.1196C31.0333 22.0948 31.1133 22.086 31.1927 22.0936C31.2721 22.1012 31.3493 22.1251 31.4198 22.164C31.4904 22.2029 31.553 22.256 31.6039 22.3203L48.745 43.9055C49.0909 44.341 48.7617 44.9977 48.2233 44.9461L42.2302 44.3716C42.1508 44.364 42.0708 44.3728 41.9947 44.3976C41.9185 44.4225 41.8478 44.4628 41.7865 44.5162C41.7253 44.5697 41.6747 44.6353 41.6376 44.7092C41.6005 44.7832 41.5777 44.8642 41.5705 44.9474Z" fill="#111827"/>
<path d="M15.7511 44.9474L16.2992 51.2299C16.3483 51.7945 17.0242 52.0147 17.3702 51.5792L34.5112 29.9939C34.5622 29.9297 34.6006 29.8556 34.6243 29.7758C34.648 29.6959 34.6564 29.6121 34.6491 29.5288C34.6419 29.4456 34.619 29.3647 34.5819 29.2907C34.5448 29.2168 34.4942 29.1512 34.4329 29.0977L26.5725 22.2382C26.5113 22.1847 26.4405 22.1444 26.3644 22.1196C26.2883 22.0948 26.2082 22.086 26.1288 22.0936C26.0495 22.1012 25.9723 22.1251 25.9017 22.164C25.8312 22.2029 25.7686 22.256 25.7176 22.3203L8.57662 43.9055C8.23065 44.341 8.55992 44.9977 9.0986 44.9461L15.0917 44.3716C15.2519 44.3563 15.4115 44.4084 15.5351 44.5163C15.6588 44.6243 15.7365 44.7794 15.7511 44.9474Z" fill="#111827"/>
<path d="M29.0125 46.0964L49.7983 33.9205C49.9632 33.8239 50.1007 33.6829 50.1963 33.5121C50.292 33.3412 50.3424 33.1467 50.3424 32.9486V1.11346C50.3424 0.818152 50.2305 0.53494 50.0313 0.326125C49.8321 0.117311 49.5619 0 49.2802 0H7.70865C7.42693 0 7.15673 0.117311 6.95755 0.326125C6.75838 0.53494 6.64643 0.818152 6.64648 1.11346V32.9486C6.64648 33.352 6.85465 33.7239 7.1906 33.9205L27.9764 46.0964C28.1347 46.1891 28.313 46.2378 28.4944 46.2378C28.6758 46.2378 28.8541 46.1891 29.0125 46.0964Z" fill="white"/>
<g filter="url(#filter0_d_1117_3967)">
<path d="M28.2626 43.6769L8.92477 33.0112C8.87583 32.9842 8.83485 32.9438 8.80626 32.8941C8.77772 32.8445 8.76264 32.7876 8.7627 32.7297V2.89363C8.7627 2.80926 8.79468 2.72834 8.8516 2.66868C8.90851 2.60902 8.98573 2.5755 9.06617 2.5755H47.7417C47.8222 2.5755 47.8994 2.60902 47.9563 2.66868C48.0132 2.72834 48.0451 2.80926 48.0451 2.89363V32.7297C48.0452 32.7876 48.0301 32.8446 48.0015 32.8942C47.9729 32.9438 47.9318 32.9843 47.8828 33.0112L28.5452 43.6769C28.4566 43.7256 28.351 43.7256 28.2626 43.6769Z" fill="#E7E7E7"/>
<path d="M28.2626 43.6769L8.92477 33.0112C8.87583 32.9842 8.83485 32.9438 8.80626 32.8941C8.77772 32.8445 8.76264 32.7876 8.7627 32.7297V2.89363C8.7627 2.80926 8.79468 2.72834 8.8516 2.66868C8.90851 2.60902 8.98573 2.5755 9.06617 2.5755H47.7417C47.8222 2.5755 47.8994 2.60902 47.9563 2.66868C48.0132 2.72834 48.0451 2.80926 48.0451 2.89363V32.7297C48.0452 32.7876 48.0301 32.8446 48.0015 32.8942C47.9729 32.9438 47.9318 32.9843 47.8828 33.0112L28.5452 43.6769C28.4566 43.7256 28.351 43.7256 28.2626 43.6769Z" stroke="#D1D5DB" stroke-width="0.659849"/>
</g>
<path d="M28.1862 33.3586C28.2059 33.3241 28.2341 33.2955 28.2681 33.2755C28.3021 33.2556 28.3405 33.2452 28.3797 33.2452C28.4189 33.2452 28.4574 33.2556 28.4914 33.2755C28.5253 33.2955 28.5535 33.3241 28.5733 33.3586L29.2857 34.6062C29.3171 34.6615 29.37 34.7008 29.4318 34.7145L30.8145 35.0199C30.8528 35.0283 30.8883 35.0469 30.9173 35.0737C30.9464 35.1005 30.9681 35.1346 30.9802 35.1727C30.9923 35.2107 30.9944 35.2513 30.9864 35.2905C30.9782 35.3296 30.9603 35.3659 30.9341 35.3957L29.9914 36.4722C29.9707 36.4959 29.955 36.5236 29.9454 36.5537C29.9357 36.5839 29.9323 36.6157 29.9354 36.6473L30.0779 38.0837C30.0818 38.1234 30.0755 38.1635 30.0595 38.2C30.0435 38.2365 30.0184 38.2681 29.9867 38.2916C29.955 38.3151 29.9178 38.3297 29.8789 38.3339C29.8399 38.3382 29.8005 38.332 29.7647 38.3159L28.4698 37.7339C28.4413 37.7211 28.4106 37.7144 28.3795 37.7144C28.3484 37.7144 28.3176 37.7211 28.2892 37.7339L26.9943 38.3159C26.9585 38.3318 26.9192 38.338 26.8803 38.3337C26.8414 38.3294 26.8043 38.3148 26.7726 38.2913C26.741 38.2678 26.716 38.2363 26.7 38.1999C26.684 38.1634 26.6777 38.1233 26.6816 38.0837L26.8241 36.6473C26.8271 36.6157 26.8237 36.5839 26.8141 36.5537C26.8045 36.5236 26.7888 36.4959 26.7681 36.4722L25.8253 35.3957C25.7992 35.3659 25.7812 35.3296 25.7731 35.2905C25.765 35.2513 25.7671 35.2107 25.7792 35.1727C25.7913 35.1346 25.813 35.1005 25.8421 35.0737C25.8712 35.0469 25.9066 35.0283 25.945 35.0199L27.3277 34.7145C27.3581 34.7078 27.3869 34.6947 27.4121 34.676C27.4373 34.6574 27.4584 34.6336 27.4742 34.6062L28.1862 33.3586ZM34.4389 34.4229C34.4586 34.3883 34.4869 34.3597 34.5208 34.3398C34.5548 34.3199 34.5933 34.3094 34.6325 34.3094C34.6716 34.3094 34.7101 34.3199 34.7441 34.3398C34.778 34.3597 34.8063 34.3883 34.826 34.4229L35.201 35.0798C35.2167 35.1071 35.2378 35.1309 35.2629 35.1495C35.2881 35.1682 35.3167 35.1813 35.3471 35.1881L36.0752 35.349C36.1135 35.3575 36.149 35.376 36.1781 35.4028C36.2071 35.4297 36.2288 35.4638 36.2409 35.5018C36.253 35.5398 36.2551 35.5805 36.247 35.6196C36.239 35.6587 36.221 35.695 36.1949 35.7248L35.6988 36.2916C35.678 36.3152 35.6623 36.343 35.6527 36.3731C35.643 36.4033 35.6396 36.4352 35.6428 36.4667L35.7177 37.2228C35.7216 37.2626 35.7152 37.3028 35.6993 37.3392C35.6833 37.3757 35.6582 37.4073 35.6265 37.4308C35.5948 37.4543 35.5576 37.4689 35.5187 37.4732C35.4797 37.4774 35.4403 37.4712 35.4044 37.4551L34.723 37.1488C34.6945 37.1359 34.6637 37.1292 34.6327 37.1292C34.6015 37.1292 34.5708 37.1359 34.5424 37.1488L33.8604 37.4551C33.8245 37.4712 33.7852 37.4774 33.7463 37.4732C33.7073 37.4689 33.6701 37.4543 33.6384 37.4308C33.6067 37.4073 33.5816 37.3757 33.5656 37.3392C33.5496 37.3028 33.5433 37.2626 33.5472 37.2228L33.6225 36.4667C33.6256 36.4352 33.6223 36.4033 33.6127 36.3731C33.603 36.343 33.5873 36.3152 33.5665 36.2916L33.0701 35.7248C33.0439 35.695 33.0259 35.6587 33.0178 35.6196C33.0097 35.5805 33.0118 35.5398 33.024 35.5018C33.0361 35.4638 33.0577 35.4297 33.0868 35.4028C33.1159 35.376 33.1514 35.3575 33.1897 35.349L33.9178 35.1881C33.9482 35.1813 33.9769 35.1682 34.0021 35.1496C34.0273 35.1309 34.0485 35.1072 34.0643 35.0798L34.4389 34.4229ZM21.9254 34.4229C21.9451 34.3883 21.9733 34.3597 22.0073 34.3398C22.0413 34.3199 22.0798 34.3094 22.1189 34.3094C22.1581 34.3094 22.1966 34.3199 22.2306 34.3398C22.2645 34.3597 22.2928 34.3883 22.3125 34.4229L22.6871 35.0798C22.7189 35.1351 22.7722 35.1744 22.8336 35.1881L23.5617 35.349C23.6 35.3575 23.6355 35.376 23.6645 35.4028C23.6936 35.4297 23.7153 35.4638 23.7274 35.5018C23.7395 35.5398 23.7416 35.5805 23.7336 35.6196C23.7255 35.6587 23.7074 35.695 23.6813 35.7248L23.1849 36.2916C23.1641 36.3152 23.1484 36.343 23.1387 36.3731C23.1291 36.4033 23.1257 36.4352 23.1289 36.4667L23.2041 37.2228C23.2081 37.2627 23.2018 37.3029 23.1858 37.3394C23.1698 37.376 23.1446 37.4076 23.1129 37.4311C23.0811 37.4546 23.0438 37.4692 23.0048 37.4734C22.9658 37.4776 22.9264 37.4713 22.8905 37.4551L22.2094 37.1488C22.181 37.1359 22.1501 37.1292 22.1189 37.1292C22.0878 37.1292 22.0569 37.1359 22.0284 37.1488L21.3469 37.4551C21.3111 37.4713 21.2716 37.4776 21.2326 37.4734C21.1936 37.4692 21.1563 37.4546 21.1246 37.4311C21.0928 37.4076 21.0676 37.376 21.0516 37.3394C21.0356 37.3029 21.0293 37.2627 21.0333 37.2228L21.1086 36.4667C21.1117 36.4352 21.1083 36.4033 21.0987 36.3731C21.0891 36.343 21.0733 36.3153 21.0526 36.2916L20.5565 35.7248C20.5304 35.695 20.5124 35.6587 20.5044 35.6196C20.4962 35.5805 20.4984 35.5398 20.5105 35.5018C20.5226 35.4638 20.5443 35.4297 20.5733 35.4028C20.6024 35.376 20.6379 35.3575 20.6762 35.349L21.4043 35.1881C21.4347 35.1813 21.4633 35.1682 21.4884 35.1496C21.5136 35.1309 21.5346 35.1072 21.5504 35.0798L21.9254 34.4229Z" fill="#D1D5DB"/>
<path d="M54.6275 8.76749H1.36565C0.611423 8.76749 0 9.40844 0 10.1991V21.4438C0 22.2344 0.611423 22.8754 1.36565 22.8754H54.6275C55.3818 22.8754 55.993 22.2344 55.993 21.4438V10.1991C55.993 9.40844 55.3818 8.76749 54.6275 8.76749Z" fill="#111827"/>
<path d="M13.44 30.6712C13.1385 30.6712 12.8998 30.6053 12.7239 30.4734C12.5516 30.3416 12.4277 30.1569 12.3523 29.9195C12.2805 29.6784 12.2446 29.4014 12.2446 29.0886V27.5512C12.2446 27.2272 12.2841 26.9465 12.3631 26.7091C12.4421 26.4717 12.5767 26.2889 12.7669 26.1608C12.9608 26.0289 13.2229 25.963 13.5531 25.963C13.8762 25.963 14.1292 26.0195 14.3123 26.1325C14.499 26.2456 14.6318 26.402 14.7108 26.6017C14.7898 26.8014 14.8292 27.035 14.8292 27.3025V27.5965H13.8869V27.2234C13.8869 27.1255 13.8798 27.035 13.8654 26.9521C13.8546 26.8693 13.8259 26.8033 13.7792 26.7543C13.7362 26.7016 13.6644 26.6752 13.5639 26.6752C13.4598 26.6752 13.3844 26.7053 13.3377 26.7656C13.291 26.8221 13.2605 26.8937 13.2462 26.9804C13.2354 27.0671 13.23 27.1575 13.23 27.2517V29.3712C13.23 29.473 13.239 29.5691 13.2569 29.6595C13.2785 29.7462 13.3144 29.8178 13.3646 29.8743C13.4185 29.9271 13.4939 29.9534 13.5908 29.9534C13.6913 29.9534 13.7685 29.9252 13.8223 29.8686C13.8762 29.8121 13.9139 29.7386 13.9354 29.6482C13.9569 29.5578 13.9677 29.4617 13.9677 29.3599V28.823H13.5746V28.2295H14.8346V30.6034H14.1992L14.1454 30.2247C14.0879 30.3529 14.0036 30.4602 13.8923 30.5469C13.781 30.6298 13.6303 30.6712 13.44 30.6712ZM17.1286 30.6712C16.7948 30.6712 16.5327 30.6147 16.3425 30.5017C16.1558 30.3849 16.0248 30.2172 15.9494 29.9986C15.874 29.7763 15.8363 29.505 15.8363 29.1847V26.0252H16.7894V29.3373C16.7894 29.4316 16.7966 29.5258 16.8109 29.6199C16.8253 29.7142 16.8558 29.7914 16.9025 29.8517C16.9527 29.912 17.0281 29.9421 17.1286 29.9421C17.2327 29.9421 17.3081 29.912 17.3548 29.8517C17.4015 29.7914 17.4302 29.7142 17.4409 29.6199C17.4553 29.5258 17.4625 29.4316 17.4625 29.3373V26.0252H18.4209V29.1847C18.4209 29.505 18.3815 29.7763 18.3025 29.9986C18.2271 30.2172 18.0961 30.3849 17.9094 30.5017C17.7227 30.6147 17.4625 30.6712 17.1286 30.6712ZM19.2129 30.6034L20.0368 26.0252H21.1352L21.9483 30.6034H21.0598L20.9145 29.6369H20.2737L20.1229 30.6034H19.2129ZM20.3598 29.0321H20.8229L20.5914 27.246L20.3598 29.0321ZM22.8194 30.6034V26.0252H24.0202C24.3146 26.0252 24.5694 26.0591 24.7848 26.1269C25.0002 26.1947 25.1671 26.3172 25.2856 26.4943C25.4076 26.6676 25.4687 26.9145 25.4687 27.2347C25.4687 27.4232 25.4543 27.5908 25.4256 27.7378C25.3969 27.8847 25.343 28.0129 25.264 28.1221C25.1887 28.2276 25.0792 28.3162 24.9356 28.3878L25.5333 30.6034H24.5371L24.0579 28.5517H23.7833V30.6034H22.8194ZM23.7833 27.9695H24.0525C24.1889 27.9695 24.2948 27.945 24.3702 27.896C24.4456 27.8433 24.4976 27.7698 24.5263 27.6756C24.5587 27.5776 24.5748 27.4608 24.5748 27.3252C24.5748 27.1293 24.5407 26.9766 24.4725 26.8673C24.4043 26.7581 24.2787 26.7034 24.0956 26.7034H23.7833V27.9695ZM26.2689 30.6034L27.0927 26.0252H28.1912L29.0042 30.6034H28.1158L27.9704 29.6369H27.3296L27.1789 30.6034H26.2689ZM27.4158 29.0321H27.8789L27.6473 27.246L27.4158 29.0321ZM29.8754 30.6034V26.0252H30.5538L31.4477 28.2295V26.0252H32.2446V30.6034H31.5931L30.6992 28.2295V30.6034H29.8754ZM33.7176 30.6034V26.7769H33.0606V26.0252H35.3383V26.7769H34.6868V30.6034H33.7176ZM36.1531 30.6034V26.0252H38.1131V26.7147H37.1169V27.8508H37.8762V28.5517H37.1169V29.9195H38.1238V30.6034H36.1531ZM38.9922 30.6034V26.0252H40.9522V26.7147H39.9561V27.8508H40.7153V28.5517H39.9561V29.9195H40.963V30.6034H38.9922ZM41.8313 30.6034V26.0252H42.9352C43.3157 26.0252 43.6118 26.076 43.8236 26.1778C44.0355 26.2758 44.1844 26.4321 44.2705 26.6469C44.3567 26.8579 44.3998 27.133 44.3998 27.4721V29.1338C44.3998 29.4768 44.3567 29.7575 44.2705 29.976C44.1844 30.1908 44.0355 30.3491 43.8236 30.4508C43.6155 30.5525 43.3229 30.6034 42.9459 30.6034H41.8313ZM42.7952 29.9025H42.9459C43.0931 29.9025 43.199 29.8799 43.2636 29.8347C43.3282 29.7895 43.3678 29.7217 43.3821 29.6312C43.4001 29.5408 43.409 29.4278 43.409 29.2921V27.2969C43.409 27.1612 43.3982 27.052 43.3767 26.9691C43.3588 26.8862 43.3175 26.8259 43.2529 26.7882C43.1882 26.7506 43.0842 26.7317 42.9405 26.7317H42.7952V29.9025Z" fill="#111827"/>
<path d="M5.49335 18.4273C5.22411 18.4273 4.99975 18.3765 4.82027 18.2747C4.64078 18.1692 4.50437 18.0129 4.41104 17.8056C4.32129 17.5946 4.26924 17.327 4.25488 17.003L5.0195 16.8673C5.02668 17.0557 5.04462 17.214 5.07334 17.3421C5.10565 17.4665 5.15232 17.5607 5.21334 17.6247C5.27796 17.685 5.35693 17.7152 5.45027 17.7152C5.56513 17.7152 5.64234 17.6775 5.68181 17.6021C5.72489 17.5268 5.74643 17.4401 5.74643 17.3421C5.74643 17.1499 5.70157 16.9898 5.61181 16.8617C5.52566 16.7298 5.4108 16.5979 5.26719 16.466L4.81488 16.0534C4.65334 15.9103 4.52052 15.7482 4.41642 15.5673C4.31591 15.3865 4.26565 15.1642 4.26565 14.9004C4.26565 14.5235 4.36975 14.2353 4.57796 14.0356C4.78975 13.8321 5.07873 13.7304 5.44489 13.7304C5.66388 13.7304 5.84335 13.7681 5.98335 13.8434C6.12335 13.9188 6.23104 14.0205 6.30643 14.1486C6.38542 14.273 6.43927 14.4105 6.46797 14.5612C6.50027 14.7082 6.52003 14.8552 6.5272 15.0021L5.76797 15.1208C5.7608 14.9814 5.7482 14.8589 5.73027 14.7534C5.7159 14.6479 5.68359 14.565 5.63335 14.5047C5.58667 14.4444 5.51489 14.4143 5.41796 14.4143C5.31385 14.4143 5.23668 14.4557 5.18642 14.5386C5.13616 14.6178 5.11104 14.7063 5.11104 14.8043C5.11104 14.9663 5.14514 15.1001 5.21334 15.2056C5.28514 15.3073 5.38206 15.4147 5.50412 15.5278L5.94566 15.9347C6.12873 16.1005 6.28489 16.2908 6.41412 16.5056C6.54696 16.7166 6.61335 16.9785 6.61335 17.2912C6.61335 17.506 6.56666 17.7001 6.47335 17.8734C6.38003 18.0468 6.24897 18.1824 6.08027 18.2804C5.91513 18.3783 5.7195 18.4273 5.49335 18.4273ZM6.99577 18.3652L7.84115 13.7869H8.82653L9.66653 18.3652H8.84269L8.68653 17.3591H7.9973L7.83038 18.3652H6.99577ZM8.07807 16.7882H8.60038L8.33653 14.9399L8.07807 16.7882ZM10.2539 18.3652L10.3293 13.7869H11.2716L11.8101 16.6752L12.3862 13.7869H13.2963L13.3716 18.3652H12.7255L12.6555 15.2621L12.1009 18.3652H11.5463L10.9647 15.2395L10.9055 18.3652H10.2539ZM14.1756 18.3652V13.7869H16.0764V14.4312H15.0641V15.6465H15.8448V16.2965H15.0641V17.7321H16.0871V18.3652H14.1756ZM18.2059 18.3652V13.7869H19.272C19.6417 13.7869 19.929 13.8378 20.1336 13.9395C20.3418 14.0375 20.489 14.1939 20.5751 14.4086C20.6613 14.6196 20.7043 14.8909 20.7043 15.2226V16.8899C20.7043 17.2291 20.6613 17.5079 20.5751 17.7265C20.489 17.945 20.3436 18.107 20.139 18.2126C19.9379 18.3143 19.6561 18.3652 19.2936 18.3652H18.2059ZM19.0943 17.7152H19.2828C19.4479 17.7152 19.5646 17.6888 19.6328 17.636C19.7046 17.5795 19.7494 17.4985 19.7674 17.393C19.7854 17.2837 19.7943 17.1499 19.7943 16.9917V15.1039C19.7943 14.9456 19.7817 14.8194 19.7567 14.7252C19.7351 14.6272 19.6884 14.5556 19.6167 14.5104C19.5484 14.4652 19.4354 14.4426 19.2774 14.4426H19.0943V17.7152ZM21.1861 18.3652L22.0315 13.7869H23.0169L23.8569 18.3652H23.033L22.8769 17.3591H22.1876L22.0207 18.3652H21.1861ZM22.2684 16.7882H22.7907L22.5269 14.9399L22.2684 16.7882ZM24.8314 18.3652V16.5508L23.9806 13.7869H24.8152L25.2837 15.3978L25.7199 13.7869H26.5275L25.6875 16.5508V18.3652H24.8314ZM28.5695 18.3652V13.7869H29.7003C29.9947 13.7869 30.246 13.8227 30.4542 13.8943C30.666 13.9621 30.8275 14.0846 30.9388 14.2617C31.0537 14.4388 31.1111 14.6837 31.1111 14.9965C31.1111 15.1849 31.0949 15.3526 31.0626 15.4995C31.0339 15.6427 30.9801 15.7689 30.9011 15.8782C30.8257 15.9837 30.718 16.0685 30.578 16.1326L31.1811 18.3652H30.2711L29.7703 16.2908H29.458V18.3652H28.5695ZM29.458 15.7369H29.7165C29.8601 15.7369 29.9732 15.7124 30.0557 15.6634C30.1383 15.6144 30.1957 15.5409 30.228 15.443C30.2639 15.3412 30.2819 15.2169 30.2819 15.0699C30.2819 14.8589 30.2442 14.6988 30.1688 14.5895C30.097 14.4765 29.9606 14.4199 29.7596 14.4199H29.458V15.7369ZM31.8704 18.3652V13.7869H33.7711V14.4312H32.7588V15.6465H33.5396V16.2965H32.7588V17.7321H33.7819V18.3652H31.8704ZM35.5237 18.4273C35.2545 18.4273 35.0301 18.3765 34.8507 18.2747C34.6712 18.1692 34.5347 18.0129 34.4414 17.8056C34.3517 17.5946 34.2996 17.327 34.2853 17.003L35.0499 16.8673C35.057 17.0557 35.075 17.214 35.1037 17.3421C35.136 17.4665 35.1827 17.5607 35.2437 17.6247C35.3083 17.685 35.3873 17.7152 35.4806 17.7152C35.5955 17.7152 35.6727 17.6775 35.7122 17.6021C35.7553 17.5268 35.7768 17.4401 35.7768 17.3421C35.7768 17.1499 35.732 16.9898 35.6422 16.8617C35.556 16.7298 35.4412 16.5979 35.2976 16.466L34.8453 16.0534C34.6837 15.9103 34.5509 15.7482 34.4468 15.5673C34.3463 15.3865 34.296 15.1642 34.296 14.9004C34.296 14.5235 34.4001 14.2353 34.6083 14.0356C34.8201 13.8321 35.1091 13.7304 35.4753 13.7304C35.6943 13.7304 35.8737 13.7681 36.0137 13.8434C36.1537 13.9188 36.2614 14.0205 36.3368 14.1486C36.4158 14.273 36.4696 14.4105 36.4983 14.5612C36.5307 14.7082 36.5504 14.8552 36.5576 15.0021L35.7983 15.1208C35.7912 14.9814 35.7786 14.8589 35.7607 14.7534C35.7463 14.6479 35.714 14.565 35.6637 14.5047C35.617 14.4444 35.5453 14.4143 35.4483 14.4143C35.3443 14.4143 35.267 14.4557 35.2168 14.5386C35.1666 14.6178 35.1414 14.7063 35.1414 14.8043C35.1414 14.9663 35.1755 15.1001 35.2437 15.2056C35.3155 15.3073 35.4124 15.4147 35.5345 15.5278L35.976 15.9347C36.1591 16.1005 36.3153 16.2908 36.4445 16.5056C36.5773 16.7166 36.6437 16.9785 36.6437 17.2912C36.6437 17.506 36.597 17.7001 36.5037 17.8734C36.4104 18.0468 36.2794 18.1824 36.1106 18.2804C35.9455 18.3783 35.7499 18.4273 35.5237 18.4273ZM37.2731 18.3652V13.7869H38.6569C38.919 13.7869 39.1326 13.8396 39.2977 13.9452C39.4628 14.0469 39.5849 14.1957 39.6638 14.3917C39.7464 14.5876 39.7877 14.825 39.7877 15.1039C39.7877 15.4317 39.7338 15.6879 39.6262 15.8726C39.5221 16.0572 39.3785 16.1891 39.1954 16.2682C39.0123 16.3435 38.8023 16.3812 38.5654 16.3812H38.1615V18.3652H37.2731ZM38.1615 15.7256H38.4739C38.6031 15.7256 38.7018 15.7049 38.77 15.6634C38.8418 15.6182 38.8903 15.5485 38.9154 15.4543C38.9405 15.3601 38.9531 15.2395 38.9531 15.0926C38.9531 14.9531 38.9423 14.8363 38.9208 14.7421C38.9028 14.6479 38.8598 14.5744 38.7915 14.5217C38.7234 14.4689 38.6157 14.4426 38.4685 14.4426H38.1615V15.7256ZM41.6226 18.4273C41.3031 18.4273 41.05 18.367 40.8633 18.2465C40.6766 18.1259 40.542 17.9544 40.4595 17.7321C40.3805 17.506 40.341 17.2366 40.341 16.9239V15.2169C40.341 14.9042 40.3805 14.6366 40.4595 14.4143C40.542 14.192 40.6766 14.0224 40.8633 13.9056C41.05 13.7888 41.3031 13.7304 41.6226 13.7304C41.9456 13.7304 42.2005 13.7907 42.3872 13.9112C42.5774 14.0281 42.712 14.1976 42.791 14.4199C42.8736 14.6385 42.9149 14.9042 42.9149 15.2169V16.9239C42.9149 17.2366 42.8736 17.506 42.791 17.7321C42.712 17.9544 42.5774 18.1259 42.3872 18.2465C42.2005 18.367 41.9456 18.4273 41.6226 18.4273ZM41.6226 17.7547C41.7374 17.7547 41.8218 17.7283 41.8756 17.6756C41.9295 17.6191 41.9654 17.5456 41.9833 17.4552C42.0013 17.3609 42.0103 17.2611 42.0103 17.1556V14.9908C42.0103 14.8853 42.0013 14.7873 41.9833 14.6969C41.9654 14.6065 41.9295 14.5349 41.8756 14.4821C41.8218 14.4256 41.7374 14.3973 41.6226 14.3973C41.5149 14.3973 41.4341 14.4256 41.3802 14.4821C41.3264 14.5349 41.2905 14.6065 41.2726 14.6969C41.2546 14.7873 41.2456 14.8853 41.2456 14.9908V17.1556C41.2456 17.2611 41.2528 17.3609 41.2672 17.4552C41.2851 17.5456 41.321 17.6191 41.3749 17.6756C41.4287 17.7283 41.5113 17.7547 41.6226 17.7547ZM43.6696 18.3652V13.7869H44.2889L45.2581 16.1721V13.7869H45.9904V18.3652H45.3981L44.4289 15.833V18.3652H43.6696ZM47.9435 18.4273C47.6742 18.4273 47.4499 18.3765 47.2704 18.2747C47.0909 18.1692 46.9545 18.0129 46.8611 17.8056C46.7714 17.5946 46.7194 17.327 46.705 17.003L47.4696 16.8673C47.4768 17.0557 47.4948 17.214 47.5235 17.3421C47.5558 17.4665 47.6024 17.5607 47.6634 17.6247C47.7281 17.685 47.8071 17.7152 47.9004 17.7152C48.0153 17.7152 48.0924 17.6775 48.1319 17.6021C48.175 17.5268 48.1965 17.4401 48.1965 17.3421C48.1965 17.1499 48.1517 16.9898 48.0619 16.8617C47.9758 16.7298 47.8609 16.5979 47.7173 16.466L47.265 16.0534C47.1035 15.9103 46.9707 15.7482 46.8665 15.5673C46.7661 15.3865 46.7158 15.1642 46.7158 14.9004C46.7158 14.5235 46.8199 14.2353 47.0281 14.0356C47.2399 13.8321 47.5288 13.7304 47.895 13.7304C48.114 13.7304 48.2934 13.7681 48.4334 13.8434C48.5734 13.9188 48.6811 14.0205 48.7565 14.1486C48.8355 14.273 48.8894 14.4105 48.9181 14.5612C48.9504 14.7082 48.9701 14.8552 48.9773 15.0021L48.2181 15.1208C48.2109 14.9814 48.1984 14.8589 48.1804 14.7534C48.1661 14.6479 48.1337 14.565 48.0835 14.5047C48.0368 14.4444 47.965 14.4143 47.8681 14.4143C47.764 14.4143 47.6868 14.4557 47.6365 14.5386C47.5863 14.6178 47.5611 14.7063 47.5611 14.8043C47.5611 14.9663 47.5953 15.1001 47.6634 15.2056C47.7353 15.3073 47.8322 15.4147 47.9542 15.5278L48.3958 15.9347C48.5788 16.1005 48.735 16.2908 48.8642 16.5056C48.9971 16.7166 49.0635 16.9785 49.0635 17.2912C49.0635 17.506 49.0168 17.7001 48.9235 17.8734C48.8301 18.0468 48.6991 18.1824 48.5304 18.2804C48.3653 18.3783 48.1696 18.4273 47.9435 18.4273ZM49.6929 18.3652V13.7869H51.5936V14.4312H50.5813V15.6465H51.3621V16.2965H50.5813V17.7321H51.6044V18.3652H49.6929Z" fill="white"/>
</g>
</g>
<defs>
<filter id="filter0_d_1117_3967" x="3.63058" y="2.24557" width="49.5465" height="51.4019" filterUnits="userSpaceOnUse" color-interpolation-filters="sRGB">
<feFlood flood-opacity="0" result="BackgroundImageFix"/>
<feColorMatrix in="SourceAlpha" type="matrix" values="0 0 0 0 0 0 0 0 0 0 0 0 0 0 0 0 0 0 127 0" result="hardAlpha"/>
<feOffset dy="4.80205"/>
<feGaussianBlur stdDeviation="2.40102"/>
<feComposite in2="hardAlpha" operator="out"/>
<feColorMatrix type="matrix" values="0 0 0 0 0 0 0 0 0 0 0 0 0 0 0 0 0 0 0.05 0"/>
<feBlend mode="normal" in2="BackgroundImageFix" result="effect1_dropShadow_1117_3967"/>
<feBlend mode="normal" in="SourceGraphic" in2="effect1_dropShadow_1117_3967" result="shape"/>
</filter>
<clipPath id="clip0_1117_3967">
<rect width="56" height="52" fill="white"/>
</clipPath>
</defs>
</svg>
