<svg width="54" height="52" viewBox="0 0 54 52" fill="none" xmlns="http://www.w3.org/2000/svg">
<g clip-path="url(#clip0_1117_3992)">
<path d="M49.4502 39.5514C49.9869 39.2465 50.3176 38.683 50.3176 38.0731V14.165C50.3176 13.555 49.9868 12.9915 49.45 12.6865L28.4078 0.734316C27.871 0.429422 27.2097 0.429423 26.6729 0.734316L5.63075 12.6865C5.0939 12.9915 4.76318 13.555 4.76318 14.165V38.0731C4.76318 38.683 5.09382 39.2465 5.63053 39.5514L26.6728 51.5072C27.2096 51.8122 27.8711 51.8122 28.408 51.5072L49.4502 39.5514Z" fill="#111827"/>
<path d="M53.4058 18.9778H0.556152L2.21668 25.5716L0.556152 32.1691H53.4058L51.7453 25.5716L53.4058 18.9778Z" fill="#D1D5DB" stroke="white" stroke-width="0.917969" stroke-miterlimit="10"/>
<path d="M15.5213 29.59C15.4397 29.59 15.373 29.5644 15.321 29.5134C15.2691 29.4623 15.2432 29.3966 15.2432 29.3163V22.2005C15.2432 22.1202 15.2691 22.0546 15.321 22.0035C15.373 21.9524 15.4397 21.9268 15.5213 21.9268H16.7007C16.8268 21.9268 16.9158 21.956 16.9677 22.0144C17.0271 22.0655 17.0641 22.1057 17.079 22.1348L19.7938 26.3496V22.2005C19.7938 22.1202 19.8198 22.0546 19.8717 22.0035C19.9236 21.9524 19.9903 21.9268 20.072 21.9268H21.4071C21.4887 21.9268 21.5555 21.9524 21.6074 22.0035C21.6593 22.0546 21.6853 22.1202 21.6853 22.2005V29.3163C21.6853 29.3893 21.6593 29.455 21.6074 29.5134C21.5555 29.5644 21.4887 29.59 21.4071 29.59H20.2166C20.0979 29.59 20.0089 29.5608 19.9496 29.5024C19.8977 29.444 19.8643 29.4039 19.8494 29.382L17.1346 25.3315V29.3163C17.1346 29.3966 17.1086 29.4623 17.0567 29.5134C17.0048 29.5644 16.9381 29.59 16.8565 29.59H15.5213ZM24.0746 29.59C23.993 29.59 23.9262 29.5644 23.8743 29.5134C23.8224 29.4623 23.7965 29.3966 23.7965 29.3163V22.2005C23.7965 22.1202 23.8224 22.0546 23.8743 22.0035C23.9262 21.9524 23.993 21.9268 24.0746 21.9268H26.9674C27.6944 21.9268 28.3137 22.0436 28.8255 22.2772C29.3373 22.5034 29.7305 22.8391 30.0049 23.2843C30.2793 23.7222 30.4277 24.2659 30.45 24.9155C30.4574 25.2366 30.4611 25.5176 30.4611 25.7584C30.4611 25.9993 30.4574 26.2766 30.45 26.5904C30.4203 27.2692 30.2719 27.8311 30.0049 28.2763C29.7453 28.7215 29.3633 29.0536 28.8589 29.2725C28.3619 29.4842 27.75 29.59 27.0231 29.59H24.0746ZM25.7881 28.0136H26.9674C27.2864 28.0136 27.5497 27.9661 27.7574 27.8713C27.9725 27.7691 28.132 27.6122 28.2358 27.4005C28.3471 27.1889 28.4065 26.9116 28.4139 26.5685C28.4287 26.3569 28.4361 26.1671 28.4361 25.9993C28.4435 25.8314 28.4435 25.6636 28.4361 25.4957C28.4361 25.3278 28.4287 25.1417 28.4139 24.9374C28.399 24.4411 28.2655 24.0798 28.0133 23.8536C27.7685 23.62 27.4014 23.5033 26.9118 23.5033H25.7881V28.0136ZM31.7091 29.59C31.6498 29.59 31.5942 29.5681 31.5422 29.5243C31.4977 29.4733 31.4755 29.4185 31.4755 29.3601C31.4755 29.3236 31.4792 29.2908 31.4866 29.2616L34.1012 22.2334C34.1235 22.1531 34.168 22.0838 34.2348 22.0254C34.309 21.9597 34.4091 21.9268 34.5352 21.9268H36.1819C36.308 21.9268 36.4044 21.9597 36.4711 22.0254C36.5454 22.0838 36.5935 22.1531 36.6158 22.2334L39.2193 29.2616C39.2342 29.2908 39.2416 29.3236 39.2416 29.3601C39.2416 29.4185 39.2156 29.4733 39.1637 29.5243C39.1192 29.5681 39.0635 29.59 38.9968 29.59H37.6283C37.517 29.59 37.4317 29.5644 37.3724 29.5134C37.3205 29.455 37.2871 29.4039 37.2722 29.3601L36.8383 28.2435H33.8676L33.4448 29.3601C33.43 29.4039 33.3966 29.455 33.3447 29.5134C33.2928 29.5644 33.2038 29.59 33.0776 29.59H31.7091ZM34.3238 26.6671H36.3933L35.3474 23.777L34.3238 26.6671Z" fill="#111827"/>
<path d="M18.7665 16.3681C18.722 16.3681 18.6864 16.3565 18.6597 16.3331C18.636 16.3068 18.6196 16.2747 18.6107 16.2367L18.0811 13.4298C18.0811 13.4211 18.0797 13.4138 18.0767 13.4079C18.0767 13.4021 18.0767 13.3978 18.0767 13.3948C18.0767 13.3685 18.0856 13.3466 18.1034 13.3291C18.1242 13.3116 18.1464 13.3029 18.1701 13.3029H18.5618C18.636 13.3029 18.6775 13.3321 18.6864 13.3904L19.0558 15.3741L19.4563 14.0911C19.4652 14.0677 19.4801 14.0444 19.5008 14.021C19.5246 13.9947 19.5587 13.9816 19.6032 13.9816H19.8435C19.891 13.9816 19.9251 13.9947 19.9459 14.021C19.9667 14.0444 19.98 14.0677 19.9859 14.0911L20.3909 15.3697L20.7603 13.3904C20.7692 13.3321 20.8108 13.3029 20.8849 13.3029H21.2766C21.3003 13.3029 21.3211 13.3116 21.3389 13.3291C21.3567 13.3466 21.3656 13.3685 21.3656 13.3948C21.3656 13.3978 21.3656 13.4021 21.3656 13.4079C21.3656 13.4138 21.3641 13.4211 21.3611 13.4298L20.8315 16.2367C20.8256 16.2747 20.8093 16.3068 20.7826 16.3331C20.7559 16.3565 20.7203 16.3681 20.6757 16.3681H20.3776C20.3331 16.3681 20.2975 16.3565 20.2708 16.3331C20.2471 16.3098 20.2307 16.2849 20.2218 16.2586L19.7233 14.7961L19.2249 16.2586C19.213 16.2849 19.1952 16.3098 19.1715 16.3331C19.1478 16.3565 19.1122 16.3681 19.0647 16.3681H18.7665ZM22.2175 16.3681C22.1878 16.3681 22.1625 16.3579 22.1418 16.3375C22.121 16.317 22.1106 16.2923 22.1106 16.263V13.4123C22.1106 13.3803 22.121 13.354 22.1418 13.3335C22.1625 13.3131 22.1878 13.3029 22.2175 13.3029H24.1757C24.2083 13.3029 24.235 13.3131 24.2558 13.3335C24.2765 13.354 24.2869 13.3803 24.2869 13.4123V13.7013C24.2869 13.7306 24.2765 13.7554 24.2558 13.7758C24.235 13.7963 24.2083 13.8064 24.1757 13.8064H22.7115V14.5815H24.0778C24.1104 14.5815 24.1371 14.5917 24.1579 14.6122C24.1786 14.6297 24.189 14.6545 24.189 14.6866V14.9581C24.189 14.9902 24.1786 15.0165 24.1579 15.0369C24.1371 15.0544 24.1104 15.0632 24.0778 15.0632H22.7115V15.8645H24.2113C24.2439 15.8645 24.2706 15.8748 24.2914 15.8952C24.3121 15.9157 24.3225 15.9419 24.3225 15.974V16.263C24.3225 16.2923 24.3121 16.317 24.2914 16.3375C24.2706 16.3579 24.2439 16.3681 24.2113 16.3681H22.2175ZM27.4227 16.4119C27.1468 16.4119 26.9153 16.3725 26.7284 16.2937C26.5445 16.212 26.4035 16.1069 26.3056 15.9784C26.2107 15.847 26.1602 15.7099 26.1543 15.5668C26.1543 15.5405 26.1632 15.5186 26.181 15.5011C26.1988 15.4836 26.2211 15.4748 26.2478 15.4748H26.6439C26.6824 15.4748 26.7106 15.4836 26.7284 15.5011C26.7492 15.5157 26.767 15.5347 26.7818 15.558C26.7996 15.6135 26.8337 15.669 26.8842 15.7244C26.9346 15.777 27.0029 15.8207 27.0889 15.8558C27.1779 15.8908 27.2892 15.9083 27.4227 15.9083C27.6363 15.9083 27.795 15.8733 27.8989 15.8032C28.0057 15.7332 28.0591 15.6383 28.0591 15.5186C28.0591 15.434 28.0309 15.3668 27.9746 15.3172C27.9182 15.2646 27.8306 15.2179 27.712 15.177C27.5963 15.1333 27.4419 15.088 27.2491 15.0413C27.0266 14.9887 26.8397 14.926 26.6884 14.853C26.54 14.7771 26.4272 14.6822 26.3501 14.5684C26.2759 14.4545 26.2389 14.31 26.2389 14.1349C26.2389 13.9656 26.2848 13.8152 26.3768 13.6838C26.4717 13.5525 26.6053 13.4488 26.7774 13.3729C26.9524 13.2971 27.1601 13.2591 27.4004 13.2591C27.5933 13.2591 27.7639 13.2853 27.9123 13.3379C28.0606 13.3875 28.1837 13.4547 28.2816 13.5393C28.3796 13.6211 28.4537 13.7101 28.5042 13.8064C28.5576 13.8999 28.5857 13.9918 28.5887 14.0823C28.5887 14.1057 28.5798 14.1276 28.562 14.148C28.5472 14.1655 28.5249 14.1743 28.4953 14.1743H28.0814C28.0576 14.1743 28.0339 14.1685 28.0102 14.1567C27.9864 14.1451 27.9671 14.1232 27.9523 14.0911C27.9345 14.0006 27.8767 13.9232 27.7787 13.859C27.6808 13.7948 27.5547 13.7626 27.4004 13.7626C27.2402 13.7626 27.1112 13.7919 27.0133 13.8502C26.9153 13.9086 26.8664 13.9991 26.8664 14.1217C26.8664 14.2035 26.8901 14.2721 26.9376 14.3275C26.988 14.3801 27.0667 14.4268 27.1735 14.4677C27.2832 14.5085 27.4272 14.5523 27.6052 14.599C27.8573 14.6545 28.0636 14.7187 28.2238 14.7917C28.384 14.8647 28.5012 14.9581 28.5754 15.0719C28.6495 15.1829 28.6866 15.3245 28.6866 15.4967C28.6866 15.6894 28.6332 15.8544 28.5264 15.9915C28.4226 16.1259 28.2757 16.2295 28.0858 16.3024C27.8959 16.3755 27.6749 16.4119 27.4227 16.4119ZM29.526 16.3681C29.4964 16.3681 29.4711 16.3579 29.4503 16.3375C29.4296 16.317 29.4192 16.2923 29.4192 16.263V13.4079C29.4192 13.3788 29.4296 13.354 29.4503 13.3335C29.4711 13.3131 29.4964 13.3029 29.526 13.3029H29.9444C29.977 13.3029 30.0022 13.3131 30.02 13.3335C30.0408 13.354 30.0512 13.3788 30.0512 13.4079V16.263C30.0512 16.2923 30.0408 16.317 30.02 16.3375C30.0022 16.3579 29.977 16.3681 29.9444 16.3681H29.526ZM32.1822 16.4119C31.9092 16.4119 31.6763 16.3652 31.4834 16.2718C31.2936 16.1784 31.1452 16.0441 31.0384 15.8689C30.9346 15.6909 30.8782 15.4792 30.8693 15.234C30.8663 15.1085 30.8648 14.9742 30.8648 14.8311C30.8648 14.6852 30.8663 14.548 30.8693 14.4195C30.8782 14.1772 30.9346 13.9699 31.0384 13.7977C31.1452 13.6255 31.2951 13.4926 31.4879 13.3992C31.6837 13.3058 31.9151 13.2591 32.1822 13.2591C32.3988 13.2591 32.5887 13.2883 32.7518 13.3466C32.9151 13.4021 33.05 13.4751 33.1568 13.5656C33.2666 13.6532 33.3482 13.7481 33.4016 13.8502C33.458 13.9524 33.4877 14.0473 33.4906 14.1349C33.4936 14.1611 33.4862 14.183 33.4684 14.2005C33.4506 14.2181 33.4269 14.2268 33.3972 14.2268H32.9388C32.9091 14.2268 32.8869 14.221 32.872 14.2093C32.8572 14.1976 32.8438 14.1801 32.8319 14.1567C32.8082 14.0954 32.7711 14.0356 32.7207 13.9772C32.6703 13.9159 32.602 13.8648 32.516 13.8239C32.43 13.7831 32.3187 13.7626 32.1822 13.7626C31.9805 13.7626 31.8187 13.8152 31.6971 13.9203C31.5784 14.0254 31.5146 14.1991 31.5057 14.4414C31.4968 14.6954 31.4968 14.9523 31.5057 15.2121C31.5146 15.4603 31.5799 15.6383 31.7015 15.7463C31.8261 15.8544 31.9894 15.9083 32.1911 15.9083C32.3246 15.9083 32.4433 15.885 32.5471 15.8383C32.6539 15.7916 32.737 15.7186 32.7963 15.6193C32.8586 15.5201 32.8898 15.3931 32.8898 15.2383V15.1026H32.3468C32.3172 15.1026 32.292 15.0924 32.2712 15.0719C32.2504 15.0515 32.24 15.0253 32.24 14.9931V14.761C32.24 14.729 32.2504 14.7027 32.2712 14.6822C32.292 14.6618 32.3172 14.6516 32.3468 14.6516H33.4105C33.4432 14.6516 33.4684 14.6618 33.4862 14.6822C33.507 14.7027 33.5173 14.729 33.5173 14.761V15.2208C33.5173 15.4661 33.4625 15.6777 33.3527 15.8558C33.2458 16.0339 33.0916 16.1711 32.8898 16.2674C32.691 16.3637 32.4552 16.4119 32.1822 16.4119ZM34.4172 16.3681C34.3875 16.3681 34.3623 16.3579 34.3416 16.3375C34.3207 16.317 34.3104 16.2923 34.3104 16.263V13.4123C34.3104 13.3803 34.3207 13.354 34.3416 13.3335C34.3623 13.3131 34.3875 13.3029 34.4172 13.3029H34.7599C34.8014 13.3029 34.8311 13.3131 34.8489 13.3335C34.8697 13.351 34.883 13.3642 34.889 13.3729L36.1707 15.3347V13.4123C36.1707 13.3803 36.1796 13.354 36.1974 13.3335C36.2182 13.3131 36.2449 13.3029 36.2775 13.3029H36.6514C36.684 13.3029 36.7107 13.3131 36.7315 13.3335C36.7522 13.354 36.7626 13.3803 36.7626 13.4123V16.2586C36.7626 16.2908 36.7522 16.317 36.7315 16.3375C36.7107 16.3579 36.6855 16.3681 36.6558 16.3681H36.3087C36.2671 16.3681 36.2375 16.3579 36.2197 16.3375C36.2019 16.317 36.1885 16.3039 36.1796 16.2981L34.9023 14.3801V16.263C34.9023 16.2923 34.8919 16.317 34.8712 16.3375C34.8504 16.3579 34.8237 16.3681 34.7911 16.3681H34.4172Z" fill="white"/>
<path d="M27.3802 6.9436C27.3967 6.91584 27.4203 6.89275 27.4487 6.87671C27.4771 6.86072 27.5093 6.85229 27.542 6.85229C27.5748 6.85229 27.607 6.86072 27.6354 6.87671C27.6638 6.89275 27.6874 6.91584 27.7039 6.9436L28.2996 7.94774C28.3258 7.9923 28.37 8.02394 28.4217 8.03494L29.5779 8.28076C29.6099 8.28755 29.6396 8.30249 29.6639 8.32406C29.6882 8.34568 29.7063 8.3731 29.7164 8.40376C29.7265 8.43435 29.7283 8.46703 29.7216 8.49851C29.7148 8.53003 29.6998 8.55921 29.6779 8.58324L28.8897 9.44972C28.8723 9.46877 28.8592 9.4911 28.8512 9.51535C28.8431 9.53965 28.8403 9.56527 28.8428 9.59067L28.9619 10.7468C28.9653 10.7788 28.96 10.8111 28.9466 10.8405C28.9332 10.8698 28.9122 10.8953 28.8857 10.9142C28.8592 10.9331 28.8281 10.9449 28.7955 10.9483C28.763 10.9517 28.7301 10.9467 28.7001 10.9337L27.6174 10.4653C27.5936 10.455 27.5679 10.4496 27.5419 10.4496C27.5158 10.4496 27.4901 10.455 27.4664 10.4653L26.3836 10.9337C26.3537 10.9466 26.3208 10.9515 26.2883 10.9481C26.2558 10.9446 26.2248 10.9328 26.1983 10.9139C26.1719 10.895 26.1509 10.8696 26.1376 10.8403C26.1242 10.811 26.1189 10.7787 26.1222 10.7468L26.2413 9.59067C26.2439 9.56527 26.2411 9.53965 26.233 9.51535C26.2249 9.4911 26.2118 9.46877 26.1945 9.44972L25.4062 8.58324C25.3844 8.55921 25.3693 8.53003 25.3626 8.49851C25.3558 8.46703 25.3576 8.43435 25.3677 8.40376C25.3778 8.3731 25.396 8.34568 25.4203 8.32406C25.4446 8.30249 25.4742 8.28755 25.5063 8.28076L26.6624 8.03494C26.6878 8.02957 26.7119 8.01901 26.7329 8.00401C26.7541 7.98896 26.7717 7.96986 26.7849 7.94774L27.3802 6.9436ZM32.6083 7.80023C32.6248 7.77242 32.6484 7.74938 32.6769 7.73334C32.7052 7.7173 32.7374 7.70887 32.7702 7.70887C32.8029 7.70887 32.8351 7.7173 32.8635 7.73334C32.8919 7.74938 32.9155 7.77242 32.932 7.80023L33.2456 8.32899C33.2587 8.35099 33.2763 8.37009 33.2974 8.38509C33.3184 8.40009 33.3424 8.41071 33.3677 8.41618L33.9765 8.54569C34.0086 8.55248 34.0382 8.56742 34.0625 8.58898C34.0868 8.61061 34.105 8.63803 34.1151 8.66868C34.1252 8.69928 34.127 8.73196 34.1202 8.76343C34.1135 8.79496 34.0984 8.82413 34.0765 8.84816L33.6618 9.3044C33.6445 9.32339 33.6313 9.34572 33.6232 9.36997C33.6151 9.39427 33.6124 9.41994 33.615 9.44534L33.6776 10.0539C33.6808 10.0859 33.6756 10.1182 33.6622 10.1476C33.6488 10.177 33.6278 10.2024 33.6013 10.2213C33.5748 10.2402 33.5437 10.252 33.5112 10.2554C33.4786 10.2588 33.4457 10.2538 33.4157 10.2408L32.8459 9.9943C32.8221 9.98395 32.7964 9.97859 32.7704 9.97859C32.7443 9.97859 32.7186 9.98395 32.6949 9.9943L32.1247 10.2408C32.0947 10.2538 32.0617 10.2588 32.0292 10.2554C31.9966 10.252 31.9656 10.2402 31.939 10.2213C31.9125 10.2024 31.8916 10.177 31.8782 10.1476C31.8648 10.1182 31.8595 10.0859 31.8628 10.0539L31.9257 9.44534C31.9284 9.41994 31.9256 9.39427 31.9175 9.36997C31.9094 9.34572 31.8963 9.32339 31.8789 9.3044L31.4638 8.84816C31.442 8.82413 31.4269 8.79496 31.4202 8.76343C31.4134 8.73196 31.4151 8.69928 31.4253 8.66868C31.4354 8.63803 31.4535 8.61061 31.4778 8.58898C31.5022 8.56742 31.5318 8.55248 31.5638 8.54569L32.1726 8.41618C32.198 8.41071 32.2221 8.40014 32.2432 8.38509C32.2642 8.37009 32.2819 8.35099 32.2951 8.32899L32.6083 7.80023ZM22.1453 7.80023C22.1618 7.77242 22.1854 7.74938 22.2139 7.73334C22.2422 7.7173 22.2744 7.70887 22.3072 7.70887C22.3399 7.70887 22.3721 7.7173 22.4005 7.73334C22.4289 7.74938 22.4525 7.77242 22.469 7.80023L22.7822 8.32899C22.8088 8.37349 22.8534 8.40512 22.9047 8.41618L23.5135 8.54569C23.5456 8.55248 23.5752 8.56742 23.5995 8.58898C23.6238 8.61061 23.642 8.63803 23.6521 8.66868C23.6622 8.69928 23.664 8.73196 23.6572 8.76343C23.6505 8.79496 23.6354 8.82413 23.6135 8.84816L23.1985 9.3044C23.1811 9.32339 23.1679 9.34572 23.1599 9.36997C23.1518 9.39427 23.149 9.41994 23.1516 9.44534L23.2146 10.0539C23.2179 10.086 23.2126 10.1183 23.1992 10.1478C23.1858 10.1772 23.1648 10.2026 23.1382 10.2216C23.1117 10.2405 23.0805 10.2522 23.0479 10.2556C23.0153 10.259 22.9823 10.2539 22.9523 10.2408L22.3829 9.9943C22.3591 9.9839 22.3332 9.97853 22.3072 9.97853C22.2811 9.97853 22.2554 9.9839 22.2315 9.9943L21.6617 10.2408C21.6317 10.2539 21.5987 10.259 21.5661 10.2556C21.5335 10.2522 21.5023 10.2405 21.4757 10.2216C21.4492 10.2026 21.4282 10.1772 21.4148 10.1478C21.4014 10.1183 21.3961 10.086 21.3994 10.0539L21.4624 9.44534C21.465 9.41994 21.4622 9.39427 21.4541 9.37002C21.446 9.34572 21.4329 9.32339 21.4155 9.3044L21.0008 8.84816C20.979 8.82413 20.9639 8.79496 20.9571 8.76343C20.9504 8.73196 20.9521 8.69928 20.9623 8.66868C20.9724 8.63803 20.9905 8.61061 21.0148 8.58898C21.0391 8.56742 21.0688 8.55248 21.1008 8.54569L21.7096 8.41618C21.735 8.41071 21.759 8.40014 21.78 8.38515C21.801 8.37009 21.8187 8.35099 21.8318 8.32899L22.1453 7.80023Z" fill="#D1D5DB"/>
<path d="M22.907 36.98C22.8792 36.98 22.8542 36.9704 22.8319 36.9512C22.8124 36.9321 22.8027 36.9075 22.8027 36.8774V34.9232L22.2311 35.3543C22.206 35.3735 22.1796 35.3803 22.1518 35.3748C22.1268 35.3694 22.1045 35.3543 22.085 35.3297L21.8389 35.0136C21.8222 34.9889 21.8152 34.9629 21.818 34.9356C21.8236 34.9055 21.8403 34.8822 21.8681 34.8658L22.8277 34.135C22.8444 34.1241 22.8597 34.1172 22.8736 34.1145C22.8903 34.109 22.9084 34.1063 22.9279 34.1063H23.4494C23.4772 34.1063 23.5009 34.1159 23.5203 34.135C23.5426 34.1542 23.5537 34.1788 23.5537 34.2089V36.8774C23.5537 36.9075 23.5426 36.9321 23.5203 36.9512C23.5009 36.9704 23.4772 36.98 23.4494 36.98H22.907ZM25.4482 37.021C25.248 37.021 25.0741 36.9937 24.9267 36.9389C24.7793 36.8815 24.6569 36.8035 24.5595 36.7049C24.465 36.6064 24.3926 36.4915 24.3426 36.3601C24.2925 36.2287 24.2633 36.0878 24.2549 35.9372C24.2522 35.8634 24.2494 35.7799 24.2466 35.6868C24.2466 35.591 24.2466 35.4952 24.2466 35.3995C24.2494 35.3009 24.2522 35.2134 24.2549 35.1367C24.2633 34.9862 24.2925 34.8466 24.3426 34.718C24.3954 34.5866 24.4705 34.473 24.5679 34.3772C24.668 34.2787 24.7904 34.2021 24.935 34.1474C25.0825 34.0926 25.2535 34.0652 25.4482 34.0652C25.6457 34.0652 25.8168 34.0926 25.9614 34.1474C26.1061 34.2021 26.2271 34.2787 26.3244 34.3772C26.4246 34.473 26.5011 34.5866 26.5539 34.718C26.6068 34.8466 26.636 34.9862 26.6415 35.1367C26.6471 35.2134 26.6499 35.3009 26.6499 35.3995C26.6526 35.4952 26.6526 35.591 26.6499 35.6868C26.6499 35.7799 26.6471 35.8634 26.6415 35.9372C26.636 36.0878 26.6068 36.2287 26.5539 36.3601C26.5038 36.4915 26.4301 36.6064 26.3328 36.7049C26.2382 36.8035 26.1172 36.8815 25.9698 36.9389C25.8251 36.9937 25.6513 37.021 25.4482 37.021ZM25.4482 36.4258C25.5929 36.4258 25.6972 36.3806 25.7612 36.2903C25.8279 36.1972 25.8627 36.0727 25.8655 35.9167C25.871 35.8374 25.8738 35.7539 25.8738 35.6663C25.8766 35.5787 25.8766 35.4911 25.8738 35.4036C25.8738 35.316 25.871 35.2352 25.8655 35.1614C25.8627 35.0108 25.8279 34.889 25.7612 34.796C25.6972 34.7029 25.5929 34.655 25.4482 34.6523C25.3036 34.655 25.1993 34.7029 25.1353 34.796C25.0713 34.889 25.0366 35.0108 25.031 35.1614C25.0282 35.2352 25.0254 35.316 25.0227 35.4036C25.0227 35.4911 25.0227 35.5787 25.0227 35.6663C25.0254 35.7539 25.0282 35.8374 25.031 35.9167C25.0366 36.0727 25.0727 36.1972 25.1395 36.2903C25.2062 36.3806 25.3092 36.4258 25.4482 36.4258ZM28.4927 37.021C28.2924 37.021 28.1186 36.9937 27.9712 36.9389C27.8237 36.8815 27.7014 36.8035 27.604 36.7049C27.5094 36.6064 27.4371 36.4915 27.387 36.3601C27.337 36.2287 27.3078 36.0878 27.2994 35.9372C27.2966 35.8634 27.2939 35.7799 27.2911 35.6868C27.2911 35.591 27.2911 35.4952 27.2911 35.3995C27.2939 35.3009 27.2966 35.2134 27.2994 35.1367C27.3078 34.9862 27.337 34.8466 27.387 34.718C27.4399 34.5866 27.515 34.473 27.6123 34.3772C27.7125 34.2787 27.8349 34.2021 27.9795 34.1474C28.1269 34.0926 28.298 34.0652 28.4927 34.0652C28.6902 34.0652 28.8613 34.0926 29.0059 34.1474C29.1505 34.2021 29.2715 34.2787 29.3689 34.3772C29.469 34.473 29.5455 34.5866 29.5984 34.718C29.6512 34.8466 29.6804 34.9862 29.686 35.1367C29.6916 35.2134 29.6943 35.3009 29.6943 35.3995C29.6971 35.4952 29.6971 35.591 29.6943 35.6868C29.6943 35.7799 29.6916 35.8634 29.686 35.9372C29.6804 36.0878 29.6512 36.2287 29.5984 36.3601C29.5483 36.4915 29.4746 36.6064 29.3772 36.7049C29.2827 36.8035 29.1617 36.8815 29.0142 36.9389C28.8696 36.9937 28.6958 37.021 28.4927 37.021ZM28.4927 36.4258C28.6373 36.4258 28.7417 36.3806 28.8056 36.2903C28.8724 36.1972 28.9072 36.0727 28.9099 35.9167C28.9155 35.8374 28.9183 35.7539 28.9183 35.6663C28.9211 35.5787 28.9211 35.4911 28.9183 35.4036C28.9183 35.316 28.9155 35.2352 28.9099 35.1614C28.9072 35.0108 28.8724 34.889 28.8056 34.796C28.7417 34.7029 28.6373 34.655 28.4927 34.6523C28.3481 34.655 28.2438 34.7029 28.1798 34.796C28.1158 34.889 28.081 35.0108 28.0755 35.1614C28.0727 35.2352 28.0699 35.316 28.0671 35.4036C28.0671 35.4911 28.0671 35.5787 28.0671 35.6663C28.0699 35.7539 28.0727 35.8374 28.0755 35.9167C28.081 36.0727 28.1172 36.1972 28.184 36.2903C28.2507 36.3806 28.3536 36.4258 28.4927 36.4258ZM30.5901 36.98C30.5261 36.98 30.4942 36.9526 30.4942 36.8979C30.4942 36.8815 30.4997 36.8664 30.5108 36.8527L32.572 34.1843C32.5914 34.1597 32.6109 34.1405 32.6304 34.1268C32.6499 34.1131 32.6791 34.1063 32.718 34.1063H33.0142C33.0782 34.1063 33.1102 34.1337 33.1102 34.1884C33.1102 34.2048 33.1046 34.2199 33.0935 34.2336L31.0324 36.902C31.0129 36.9266 30.9934 36.9458 30.974 36.9595C30.9545 36.9731 30.9253 36.98 30.8863 36.98H30.5901ZM32.6888 37.0005C32.4997 37.0005 32.3481 36.9512 32.234 36.8527C32.1228 36.7542 32.0602 36.6228 32.0463 36.4586C32.0435 36.3875 32.0421 36.3245 32.0421 36.2698C32.0421 36.215 32.0435 36.1494 32.0463 36.0727C32.0574 35.9058 32.1172 35.773 32.2257 35.6745C32.3369 35.5732 32.4913 35.5226 32.6888 35.5226C32.8891 35.5226 33.0435 35.5732 33.1519 35.6745C33.2604 35.773 33.3202 35.9058 33.3313 36.0727C33.3369 36.1494 33.3397 36.215 33.3397 36.2698C33.3397 36.3245 33.3369 36.3875 33.3313 36.4586C33.3202 36.6228 33.2576 36.7542 33.1436 36.8527C33.0295 36.9512 32.8779 37.0005 32.6888 37.0005ZM32.6888 36.6392C32.7361 36.6392 32.7722 36.6297 32.7973 36.6105C32.8251 36.5914 32.846 36.5667 32.8599 36.5366C32.8738 36.5038 32.8807 36.4696 32.8807 36.434C32.8863 36.371 32.8891 36.3136 32.8891 36.2616C32.8891 36.2096 32.8863 36.1535 32.8807 36.0932C32.8779 36.0412 32.8626 35.9947 32.8348 35.9537C32.807 35.9099 32.7583 35.888 32.6888 35.888C32.6193 35.888 32.5706 35.9099 32.5428 35.9537C32.515 35.9947 32.4997 36.0412 32.4969 36.0932C32.4941 36.1535 32.4927 36.2096 32.4927 36.2616C32.4927 36.3136 32.4941 36.371 32.4969 36.434C32.4997 36.4696 32.5066 36.5038 32.5177 36.5366C32.5316 36.5667 32.5525 36.5914 32.5803 36.6105C32.6081 36.6297 32.6443 36.6392 32.6888 36.6392ZM30.9239 35.5555C30.732 35.5555 30.579 35.5076 30.4649 35.4118C30.3537 35.3132 30.2925 35.1819 30.2814 35.0177C30.2758 34.9465 30.273 34.8849 30.273 34.8329C30.2758 34.7782 30.2786 34.7125 30.2814 34.6359C30.2897 34.4689 30.3481 34.3362 30.4566 34.2377C30.5679 34.1364 30.7236 34.0858 30.9239 34.0858C31.1242 34.0858 31.2786 34.1364 31.387 34.2377C31.4955 34.3362 31.5539 34.4689 31.5623 34.6359C31.5678 34.7125 31.5706 34.7782 31.5706 34.8329C31.5706 34.8849 31.5678 34.9465 31.5623 35.0177C31.5539 35.1819 31.4927 35.3132 31.3787 35.4118C31.2646 35.5076 31.113 35.5555 30.9239 35.5555ZM30.9239 35.2024C30.9684 35.2024 31.0046 35.1928 31.0324 35.1737C31.0602 35.1518 31.0811 35.1258 31.095 35.0957C31.1089 35.0628 31.1158 35.03 31.1158 34.9971C31.1214 34.9342 31.1242 34.8767 31.1242 34.8247C31.1242 34.7727 31.1214 34.7166 31.1158 34.6564C31.113 34.6044 31.0964 34.5579 31.0658 34.5168C31.0379 34.473 30.9907 34.4511 30.9239 34.4511C30.8544 34.4511 30.8043 34.473 30.7737 34.5168C30.7459 34.5579 30.7306 34.6044 30.7278 34.6564C30.725 34.7166 30.7236 34.7727 30.7236 34.8247C30.7236 34.8767 30.725 34.9342 30.7278 34.9971C30.7306 35.03 30.7375 35.0628 30.7487 35.0957C30.7626 35.1258 30.7834 35.1518 30.8112 35.1737C30.8391 35.1928 30.8766 35.2024 30.9239 35.2024ZM14.4576 41.3957C14.2261 41.3957 14.0294 41.3565 13.8676 41.2781C13.7083 41.1972 13.5863 41.0833 13.5016 40.9364C13.417 40.7869 13.3697 40.6082 13.3597 40.3999C13.3572 40.2995 13.356 40.1917 13.356 40.0766C13.356 39.9614 13.3572 39.8512 13.3597 39.7459C13.3697 39.5401 13.417 39.3626 13.5016 39.2131C13.5888 39.0637 13.712 38.9498 13.8713 38.8714C14.0332 38.7906 14.2286 38.7502 14.4576 38.7502C14.6269 38.7502 14.7788 38.7722 14.9132 38.8163C15.0476 38.8604 15.1621 38.9216 15.2568 39C15.3513 39.076 15.4248 39.1653 15.4771 39.2683C15.5294 39.3711 15.5567 39.4826 15.5592 39.6026C15.5617 39.6246 15.5543 39.643 15.5368 39.6577C15.5219 39.6724 15.5032 39.6798 15.4808 39.6798H15.126C15.0987 39.6798 15.0762 39.6736 15.0588 39.6614C15.0414 39.6467 15.029 39.6234 15.0215 39.5916C14.9817 39.4299 14.9132 39.3197 14.8161 39.2609C14.719 39.2021 14.5983 39.1727 14.4539 39.1727C14.2871 39.1727 14.1539 39.2193 14.0543 39.3123C13.9547 39.403 13.9012 39.5536 13.8937 39.7643C13.8862 39.9651 13.8862 40.1709 13.8937 40.3816C13.9012 40.5922 13.9547 40.7441 14.0543 40.8372C14.1539 40.9278 14.2871 40.9731 14.4539 40.9731C14.5983 40.9731 14.719 40.9437 14.8161 40.8849C14.9132 40.8237 14.9817 40.7135 15.0215 40.5542C15.029 40.5199 15.0414 40.4967 15.0588 40.4845C15.0762 40.4722 15.0987 40.4661 15.126 40.4661H15.4808C15.5032 40.4661 15.5219 40.4734 15.5368 40.4881C15.5543 40.5028 15.5617 40.5212 15.5592 40.5432C15.5567 40.6632 15.5294 40.7747 15.4771 40.8776C15.4248 40.9805 15.3513 41.0711 15.2568 41.1495C15.1621 41.2254 15.0476 41.2854 14.9132 41.3295C14.7788 41.3736 14.6269 41.3957 14.4576 41.3957ZM17.1933 41.3957C16.9718 41.3957 16.7813 41.3601 16.622 41.2891C16.4627 41.2156 16.3382 41.1042 16.2486 40.9548C16.1589 40.8029 16.1104 40.6142 16.1029 40.3889C16.1004 40.2836 16.0992 40.1795 16.0992 40.0766C16.0992 39.9737 16.1004 39.8684 16.1029 39.7606C16.1104 39.5377 16.1602 39.3515 16.2523 39.2021C16.3444 39.0527 16.4701 38.94 16.6295 38.8641C16.7913 38.7882 16.9793 38.7502 17.1933 38.7502C17.4075 38.7502 17.5954 38.7882 17.7572 38.8641C17.9191 38.94 18.046 39.0527 18.1381 39.2021C18.2303 39.3515 18.28 39.5377 18.2875 39.7606C18.2925 39.8684 18.295 39.9737 18.295 40.0766C18.295 40.1795 18.2925 40.2836 18.2875 40.3889C18.28 40.6142 18.2315 40.8029 18.1419 40.9548C18.0522 41.1042 17.9265 41.2156 17.7647 41.2891C17.6053 41.3601 17.4149 41.3957 17.1933 41.3957ZM17.1933 40.9731C17.3552 40.9731 17.4871 40.9266 17.5892 40.8335C17.6912 40.7379 17.746 40.5836 17.7535 40.3705C17.7585 40.2628 17.7609 40.1635 17.7609 40.0729C17.7609 39.9798 17.7585 39.8806 17.7535 39.7753C17.7485 39.6332 17.7211 39.5181 17.6713 39.4299C17.624 39.3393 17.5593 39.2744 17.4772 39.2352C17.395 39.1935 17.3004 39.1727 17.1933 39.1727C17.0888 39.1727 16.9954 39.1935 16.9133 39.2352C16.8311 39.2744 16.7651 39.3393 16.7154 39.4299C16.6681 39.5181 16.6419 39.6332 16.6369 39.7753C16.6345 39.8806 16.6332 39.9798 16.6332 40.0729C16.6332 40.1635 16.6345 40.2628 16.6369 40.3705C16.6444 40.5836 16.6992 40.7379 16.8013 40.8335C16.9033 40.9266 17.034 40.9731 17.1933 40.9731ZM19.0617 41.3589C19.0368 41.3589 19.0156 41.3503 18.9982 41.3332C18.9808 41.3161 18.972 41.2952 18.972 41.2707V38.8788C18.972 38.8518 18.9808 38.8298 18.9982 38.8126C19.0156 38.7955 19.0368 38.7869 19.0617 38.7869H19.3492C19.3841 38.7869 19.409 38.7955 19.4239 38.8126C19.4413 38.8274 19.4525 38.8384 19.4575 38.8457L20.533 40.4918V38.8788C20.533 38.8518 20.5404 38.8298 20.5554 38.8126C20.5728 38.7955 20.5952 38.7869 20.6226 38.7869H20.9363C20.9637 38.7869 20.9861 38.7955 21.0035 38.8126C21.0209 38.8298 21.0297 38.8518 21.0297 38.8788V41.2671C21.0297 41.294 21.0209 41.3161 21.0035 41.3332C20.9861 41.3503 20.9649 41.3589 20.94 41.3589H20.6488C20.6139 41.3589 20.589 41.3503 20.5741 41.3332C20.5591 41.3161 20.548 41.305 20.5404 41.3001L19.4687 39.6908V41.2707C19.4687 41.2952 19.46 41.3161 19.4426 41.3332C19.4252 41.3503 19.4027 41.3589 19.3754 41.3589H19.0617ZM21.8887 41.3589C21.8638 41.3589 21.8426 41.3503 21.8252 41.3332C21.8078 41.3161 21.799 41.2952 21.799 41.2707V38.8788C21.799 38.8518 21.8078 38.8298 21.8252 38.8126C21.8426 38.7955 21.8638 38.7869 21.8887 38.7869H23.5094C23.5367 38.7869 23.5592 38.7955 23.5766 38.8126C23.594 38.8298 23.6027 38.8518 23.6027 38.8788V39.136C23.6027 39.1629 23.594 39.1849 23.5766 39.2021C23.5592 39.2168 23.5367 39.2241 23.5094 39.2241H22.3106V39.9223H23.4347C23.4621 39.9223 23.4845 39.9308 23.5019 39.948C23.5193 39.9651 23.5281 39.9872 23.5281 40.0141V40.2713C23.5281 40.2958 23.5193 40.3166 23.5019 40.3338C23.4845 40.351 23.4621 40.3595 23.4347 40.3595H22.3106V41.2707C22.3106 41.2952 22.302 41.3161 22.2845 41.3332C22.2671 41.3503 22.2447 41.3589 22.2173 41.3589H21.8887ZM24.3182 41.3589C24.2933 41.3589 24.2721 41.3503 24.2547 41.3332C24.2373 41.3161 24.2286 41.2952 24.2286 41.2707V38.8751C24.2286 38.8506 24.2373 38.8298 24.2547 38.8126C24.2721 38.7955 24.2933 38.7869 24.3182 38.7869H24.6692C24.6966 38.7869 24.7177 38.7955 24.7327 38.8126C24.7501 38.8298 24.7589 38.8506 24.7589 38.8751V41.2707C24.7589 41.2952 24.7501 41.3161 24.7327 41.3332C24.7177 41.3503 24.6966 41.3589 24.6692 41.3589H24.3182ZM25.6208 41.3589C25.5959 41.3589 25.5747 41.3503 25.5573 41.3332C25.5399 41.3161 25.5312 41.2952 25.5312 41.2707V38.8788C25.5312 38.8518 25.5399 38.8298 25.5573 38.8126C25.5747 38.7955 25.5959 38.7869 25.6208 38.7869H26.532C26.7834 38.7869 26.9901 38.8249 27.1519 38.9008C27.3162 38.9767 27.4394 39.0894 27.5216 39.2389C27.6062 39.3883 27.6498 39.5708 27.6523 39.7863C27.6573 39.8941 27.6597 39.9896 27.6597 40.0729C27.6597 40.1562 27.6573 40.2505 27.6523 40.3558C27.6473 40.5836 27.605 40.7723 27.5253 40.9217C27.4457 41.0687 27.3249 41.1789 27.1631 41.2524C27.0037 41.3234 26.7996 41.3589 26.5507 41.3589H25.6208ZM26.0503 40.9364H26.532C26.6714 40.9364 26.7847 40.9168 26.8718 40.8776C26.959 40.8384 27.0224 40.7759 27.0623 40.6902C27.1046 40.602 27.127 40.4869 27.1295 40.3448C27.132 40.2713 27.1332 40.2077 27.1332 40.1537C27.1357 40.0974 27.1357 40.0423 27.1332 39.9884C27.1332 39.9321 27.132 39.8684 27.1295 39.7973C27.1245 39.5965 27.0734 39.4483 26.9764 39.3528C26.8793 39.2572 26.7249 39.2095 26.5133 39.2095H26.0503V40.9364ZM28.4332 41.3589C28.4083 41.3589 28.3872 41.3503 28.3698 41.3332C28.3523 41.3161 28.3436 41.2952 28.3436 41.2707V38.8788C28.3436 38.8518 28.3523 38.8298 28.3698 38.8126C28.3872 38.7955 28.4083 38.7869 28.4332 38.7869H30.0764C30.1037 38.7869 30.1262 38.7955 30.1436 38.8126C30.161 38.8298 30.1697 38.8518 30.1697 38.8788V39.1213C30.1697 39.1458 30.161 39.1666 30.1436 39.1837C30.1262 39.2009 30.1037 39.2095 30.0764 39.2095H28.8477V39.8598H29.9942C30.0216 39.8598 30.044 39.8684 30.0614 39.8855C30.0788 39.9002 30.0875 39.9211 30.0875 39.948V40.1758C30.0875 40.2027 30.0788 40.2248 30.0614 40.2419C30.044 40.2566 30.0216 40.264 29.9942 40.264H28.8477V40.9364H30.1062C30.1336 40.9364 30.156 40.945 30.1734 40.9621C30.1908 40.9792 30.1996 41.0013 30.1996 41.0282V41.2707C30.1996 41.2952 30.1908 41.3161 30.1734 41.3332C30.156 41.3503 30.1336 41.3589 30.1062 41.3589H28.4332ZM30.943 41.3589C30.9181 41.3589 30.8969 41.3503 30.8795 41.3332C30.862 41.3161 30.8534 41.2952 30.8534 41.2707V38.8788C30.8534 38.8518 30.862 38.8298 30.8795 38.8126C30.8969 38.7955 30.9181 38.7869 30.943 38.7869H31.2305C31.2654 38.7869 31.2902 38.7955 31.3052 38.8126C31.3226 38.8274 31.3338 38.8384 31.3388 38.8457L32.4143 40.4918V38.8788C32.4143 38.8518 32.4218 38.8298 32.4367 38.8126C32.4541 38.7955 32.4765 38.7869 32.5039 38.7869H32.8176C32.845 38.7869 32.8674 38.7955 32.8848 38.8126C32.9023 38.8298 32.9109 38.8518 32.9109 38.8788V41.2671C32.9109 41.294 32.9023 41.3161 32.8848 41.3332C32.8674 41.3503 32.8462 41.3589 32.8213 41.3589H32.53C32.4952 41.3589 32.4703 41.3503 32.4554 41.3332C32.4404 41.3161 32.4292 41.305 32.4218 41.3001L31.35 39.6908V41.2707C31.35 41.2952 31.3413 41.3161 31.3238 41.3332C31.3064 41.3503 31.284 41.3589 31.2566 41.3589H30.943ZM34.3451 41.3589C34.3201 41.3589 34.299 41.3503 34.2816 41.3332C34.2641 41.3161 34.2554 41.2952 34.2554 41.2707V39.2389H33.5645C33.5397 39.2389 33.5185 39.2303 33.5011 39.2131C33.4837 39.196 33.4749 39.1751 33.4749 39.1507V38.8788C33.4749 38.8518 33.4837 38.8298 33.5011 38.8126C33.5185 38.7955 33.5397 38.7869 33.5645 38.7869H35.4691C35.4965 38.7869 35.5189 38.7955 35.5363 38.8126C35.5537 38.8298 35.5624 38.8518 35.5624 38.8788V39.1507C35.5624 39.1751 35.5537 39.196 35.5363 39.2131C35.5189 39.2303 35.4965 39.2389 35.4691 39.2389H34.782V41.2707C34.782 41.2952 34.7732 41.3161 34.7558 41.3332C34.7384 41.3503 34.716 41.3589 34.6886 41.3589H34.3451ZM36.2177 41.3589C36.1928 41.3589 36.1716 41.3503 36.1542 41.3332C36.1368 41.3161 36.1281 41.2952 36.1281 41.2707V38.8751C36.1281 38.8506 36.1368 38.8298 36.1542 38.8126C36.1716 38.7955 36.1928 38.7869 36.2177 38.7869H36.5687C36.5961 38.7869 36.6173 38.7955 36.6322 38.8126C36.6496 38.8298 36.6584 38.8506 36.6584 38.8751V41.2707C36.6584 41.2952 36.6496 41.3161 36.6322 41.3332C36.6173 41.3503 36.5961 41.3589 36.5687 41.3589H36.2177ZM37.2701 41.3589C37.2502 41.3589 37.2315 41.3515 37.2141 41.3369C37.1992 41.3221 37.1917 41.3038 37.1917 41.2818C37.1917 41.272 37.1942 41.261 37.1992 41.2487L38.0992 38.8788C38.1066 38.8543 38.1203 38.8334 38.1402 38.8163C38.1626 38.7967 38.1925 38.7869 38.2298 38.7869H38.6369C38.6742 38.7869 38.7029 38.7967 38.7228 38.8163C38.7427 38.8334 38.7576 38.8543 38.7676 38.8788L39.6676 41.2487C39.6701 41.261 39.6713 41.272 39.6713 41.2818C39.6713 41.3038 39.6638 41.3221 39.6489 41.3369C39.634 41.3515 39.6166 41.3589 39.5966 41.3589H39.2718C39.2369 41.3589 39.2107 41.3515 39.1933 41.3369C39.1783 41.3197 39.1684 41.3038 39.1634 41.2891L38.9879 40.8408H37.8788L37.7033 41.2891C37.6983 41.3038 37.6872 41.3197 37.6697 41.3369C37.6548 41.3515 37.6299 41.3589 37.595 41.3589H37.2701ZM38.0095 40.4183H38.8572L38.4315 39.2829L38.0095 40.4183ZM40.2963 41.3589C40.2714 41.3589 40.2502 41.3503 40.2328 41.3332C40.2154 41.3161 40.2066 41.2952 40.2066 41.2707V38.8751C40.2066 38.8506 40.2154 38.8298 40.2328 38.8126C40.2502 38.7955 40.2714 38.7869 40.2963 38.7869H40.6436C40.6685 38.7869 40.6896 38.7955 40.707 38.8126C40.7245 38.8298 40.7332 38.8506 40.7332 38.8751V40.9217H41.917C41.9443 40.9217 41.9668 40.9302 41.9842 40.9474C42.0016 40.9646 42.0103 40.9866 42.0103 41.0135V41.2707C42.0103 41.2952 42.0016 41.3161 41.9842 41.3332C41.9668 41.3503 41.9443 41.3589 41.917 41.3589H40.2963Z" fill="white"/>
</g>
<defs>
<clipPath id="clip0_1117_3992">
<rect width="53.9623" height="52" fill="white"/>
</clipPath>
</defs>
</svg>
