<svg width="16" height="16" viewBox="0 0 16 16" fill="none" xmlns="http://www.w3.org/2000/svg">
<path d="M7.19977 4.19238C7.19977 4.08588 7.28602 4.00038 7.39176 4.00038H8.60822C8.71396 4.00038 8.80021 4.08588 8.80021 4.19238V5.40808C8.80021 5.51383 8.71396 5.60008 8.60822 5.60008H7.39176C7.28602 5.60008 7.19977 5.51383 7.19977 5.40808V4.19238ZM7.19977 7.39176C7.19977 7.28602 7.28602 7.19977 7.39176 7.19977H8.60822C8.71396 7.19977 8.80021 7.28602 8.80021 7.39176V11.8076C8.80021 11.9141 8.71396 11.9996 8.60822 11.9996H7.39176C7.28602 11.9996 7.19977 11.9141 7.19977 11.8076V7.39176ZM8 0C3.58414 0 0 3.58414 0 8C0 12.4159 3.58414 16 8 16C12.4159 16 16 12.4159 16 8C16 3.58414 12.4159 0 8 0ZM8 14.3995C4.47211 14.3995 1.60046 11.5279 1.60046 8C1.60046 4.47211 4.47211 1.60046 8 1.60046C11.5279 1.60046 14.3995 4.47211 14.3995 8C14.3995 11.5279 11.5279 14.3995 8 14.3995Z" fill="#B5B5B5"/>
</svg>
