<svg width="97" height="84" viewBox="0 0 97 84" fill="none" xmlns="http://www.w3.org/2000/svg">
<g opacity="0.8">
<path d="M83.9061 63.7991C84.8709 63.242 85.4652 62.2125 85.4652 61.0984V22.7649C85.4652 21.6506 84.8707 20.621 83.9057 20.0639L50.7098 0.900145C49.7449 0.343125 48.5562 0.343127 47.5913 0.900147L14.3954 20.0639C13.4304 20.621 12.8359 21.6506 12.8359 22.7649V61.0984C12.8359 62.2125 13.4303 63.242 14.3951 63.7991L47.591 82.9686C48.556 83.5259 49.7451 83.5259 50.7102 82.9686L83.9061 63.7991Z" fill="#ECECEC"/>
<path d="M96 36.7744H1L3.98488 45.4548L1 54.14H96L93.0151 45.4548L96 36.7744Z" fill="#C6C6C6" stroke="white" stroke-width="0.935622" stroke-miterlimit="10"/>
<path d="M29.5262 48.8389C29.453 48.8389 29.3932 48.8156 29.3466 48.769C29.3 48.7224 29.2767 48.6626 29.2767 48.5894V42.1024C29.2767 42.0292 29.3 41.9693 29.3466 41.9227C29.3932 41.8762 29.453 41.8529 29.5262 41.8529H32.3206C32.8728 41.8529 33.3519 41.9394 33.7577 42.1124C34.1702 42.2787 34.4896 42.5315 34.7158 42.8708C34.9487 43.2102 35.0651 43.6393 35.0651 44.1583C35.0651 44.6706 34.9487 45.0931 34.7158 45.4257C34.4896 45.7584 34.1702 46.0046 33.7577 46.1642C33.3519 46.3239 32.8728 46.4038 32.3206 46.4038H31.133V48.5894C31.133 48.6626 31.1064 48.7224 31.0532 48.769C31.0066 48.8156 30.9467 48.8389 30.8735 48.8389H29.5262ZM31.1031 45.0265H32.2707C32.5568 45.0265 32.783 44.9533 32.9494 44.807C33.1223 44.6606 33.2088 44.4377 33.2088 44.1383C33.2088 43.8855 33.1356 43.6726 32.9893 43.4996C32.8429 43.3266 32.6034 43.2401 32.2707 43.2401H31.1031V45.0265ZM39.3743 48.9387C38.7622 48.9387 38.2299 48.8389 37.7775 48.6393C37.3251 48.4397 36.9724 48.1403 36.7196 47.7411C36.4668 47.3352 36.3271 46.8296 36.3004 46.2241C36.2938 45.938 36.2905 45.6519 36.2905 45.3658C36.2905 45.0797 36.2938 44.7903 36.3004 44.4976C36.3271 43.8988 36.4668 43.3965 36.7196 42.9906C36.9791 42.5781 37.335 42.2687 37.7875 42.0625C38.2399 41.8562 38.7688 41.7531 39.3743 41.7531C39.9731 41.7531 40.4987 41.8562 40.9511 42.0625C41.4102 42.2687 41.7695 42.5781 42.0289 42.9906C42.2884 43.3965 42.4281 43.8988 42.4481 44.4976C42.4614 44.7903 42.4681 45.0797 42.4681 45.3658C42.4681 45.6519 42.4614 45.938 42.4481 46.2241C42.4215 46.8296 42.2818 47.3352 42.0289 47.7411C41.7761 48.1403 41.4235 48.4397 40.9711 48.6393C40.5186 48.8389 39.9864 48.9387 39.3743 48.9387ZM39.3743 47.5016C39.7269 47.5016 40.013 47.3951 40.2326 47.1822C40.4588 46.9693 40.5785 46.63 40.5918 46.1642C40.6051 45.8715 40.6118 45.5954 40.6118 45.3359C40.6118 45.0764 40.6051 44.807 40.5918 44.5275C40.5785 44.2148 40.5186 43.962 40.4122 43.769C40.3124 43.5694 40.1727 43.4231 39.993 43.3299C39.8134 43.2368 39.6071 43.1902 39.3743 43.1902C39.1481 43.1902 38.9451 43.2368 38.7655 43.3299C38.5859 43.4231 38.4428 43.5694 38.3364 43.769C38.2299 43.962 38.17 44.2148 38.1567 44.5275C38.1501 44.807 38.1467 45.0764 38.1467 45.3359C38.1467 45.5954 38.1501 45.8715 38.1567 46.1642C38.1767 46.63 38.2964 46.9693 38.516 47.1822C38.7356 47.3951 39.0216 47.5016 39.3743 47.5016ZM44.3734 48.8389C44.3002 48.8389 44.2403 48.8156 44.1937 48.769C44.1472 48.7224 44.1239 48.6626 44.1239 48.5894V42.1024C44.1239 42.0292 44.1472 41.9693 44.1937 41.9227C44.2403 41.8762 44.3002 41.8529 44.3734 41.8529H45.7107C45.7839 41.8529 45.8438 41.8762 45.8903 41.9227C45.9369 41.9693 45.9602 42.0292 45.9602 42.1024V48.5894C45.9602 48.6626 45.9369 48.7224 45.8903 48.769C45.8438 48.8156 45.7839 48.8389 45.7107 48.8389H44.3734ZM48.1081 48.8389C48.0349 48.8389 47.975 48.8156 47.9284 48.769C47.8819 48.7224 47.8586 48.6626 47.8586 48.5894V42.1024C47.8586 42.0292 47.8819 41.9693 47.9284 41.9227C47.975 41.8762 48.0349 41.8529 48.1081 41.8529H49.166C49.2791 41.8529 49.3589 41.8795 49.4055 41.9327C49.4587 41.9793 49.492 42.0159 49.5053 42.0425L51.9404 45.8848V42.1024C51.9404 42.0292 51.9637 41.9693 52.0102 41.9227C52.0568 41.8762 52.1167 41.8529 52.1899 41.8529H53.3875C53.4607 41.8529 53.5205 41.8762 53.5671 41.9227C53.6137 41.9693 53.637 42.0292 53.637 42.1024V48.5894C53.637 48.6559 53.6137 48.7158 53.5671 48.769C53.5205 48.8156 53.4607 48.8389 53.3875 48.8389H52.3196C52.2132 48.8389 52.1333 48.8123 52.0801 48.759C52.0335 48.7058 52.0036 48.6692 51.9903 48.6492L49.5552 44.9567V48.5894C49.5552 48.6626 49.5319 48.7224 49.4853 48.769C49.4387 48.8156 49.3789 48.8389 49.3057 48.8389H48.1081ZM57.3171 48.8389C57.2439 48.8389 57.184 48.8156 57.1375 48.769C57.0909 48.7224 57.0676 48.6626 57.0676 48.5894V43.4197H55.2912C55.218 43.4197 55.1581 43.3965 55.1115 43.3499C55.065 43.2967 55.0417 43.2368 55.0417 43.1702V42.1024C55.0417 42.0292 55.065 41.9693 55.1115 41.9227C55.1581 41.8762 55.218 41.8529 55.2912 41.8529H60.6604C60.7336 41.8529 60.7935 41.8762 60.84 41.9227C60.8866 41.9693 60.9099 42.0292 60.9099 42.1024V43.1702C60.9099 43.2368 60.8866 43.2967 60.84 43.3499C60.7935 43.3965 60.7336 43.4197 60.6604 43.4197H58.884V48.5894C58.884 48.6626 58.8607 48.7224 58.8141 48.769C58.7675 48.8156 58.7076 48.8389 58.6345 48.8389H57.3171ZM64.9012 48.9387C64.2358 48.9387 63.6836 48.8455 63.2445 48.6592C62.8054 48.4663 62.4727 48.2168 62.2465 47.9107C62.0203 47.6047 61.9005 47.2787 61.8872 46.9327C61.8872 46.8795 61.9072 46.8329 61.9471 46.793C61.9937 46.7464 62.0469 46.7231 62.1068 46.7231H63.3643C63.4574 46.7231 63.5273 46.7397 63.5738 46.773C63.6271 46.8063 63.6736 46.8495 63.7136 46.9028C63.7668 47.0026 63.84 47.099 63.9331 47.1922C64.0329 47.2853 64.1593 47.3618 64.3124 47.4217C64.472 47.4749 64.6683 47.5016 64.9012 47.5016C65.2871 47.5016 65.5765 47.4417 65.7694 47.3219C65.969 47.2022 66.0688 47.0391 66.0688 46.8329C66.0688 46.6865 66.0156 46.5668 65.9092 46.4736C65.8027 46.3738 65.6297 46.2873 65.3902 46.2141C65.1573 46.1343 64.8446 46.0545 64.4521 45.9746C63.9464 45.8682 63.514 45.7318 63.1547 45.5654C62.8021 45.3924 62.5326 45.1696 62.3463 44.8968C62.16 44.6173 62.0669 44.2714 62.0669 43.8589C62.0669 43.453 62.18 43.0904 62.4062 42.771C62.639 42.4517 62.9617 42.2022 63.3742 42.0225C63.7867 41.8429 64.2758 41.7531 64.8413 41.7531C65.3004 41.7531 65.7029 41.813 66.0489 41.9327C66.4015 42.0525 66.6976 42.2122 66.9371 42.4118C67.1766 42.6114 67.3563 42.8243 67.476 43.0505C67.6024 43.27 67.669 43.4863 67.6756 43.6992C67.6756 43.7524 67.6556 43.8023 67.6157 43.8489C67.5758 43.8888 67.5259 43.9088 67.466 43.9088H66.1487C66.0755 43.9088 66.0123 43.8955 65.9591 43.8688C65.9058 43.8422 65.8593 43.799 65.8193 43.7391C65.7794 43.5927 65.673 43.4663 65.5 43.3599C65.3336 43.2468 65.1141 43.1902 64.8413 43.1902C64.5486 43.1902 64.319 43.2434 64.1527 43.3499C63.993 43.4497 63.9132 43.606 63.9132 43.8189C63.9132 43.952 63.9564 44.0684 64.0429 44.1682C64.136 44.268 64.2857 44.3545 64.492 44.4277C64.7049 44.5009 64.9943 44.5774 65.3603 44.6573C65.9657 44.7704 66.4547 44.9134 66.8273 45.0864C67.1999 45.2527 67.4727 45.4723 67.6457 45.7451C67.8187 46.0112 67.9051 46.3472 67.9051 46.7531C67.9051 47.2055 67.7754 47.598 67.5159 47.9307C67.2631 48.2567 66.9105 48.5062 66.4581 48.6792C66.0056 48.8522 65.4867 48.9387 64.9012 48.9387Z" fill="#3F3F3F"/>
<path d="M29.3551 33.3438C29.2167 33.3438 29.1035 33.2997 29.0155 33.2117C28.9274 33.1236 28.8834 33.0104 28.8834 32.872V20.6068C28.8834 20.4684 28.9274 20.3552 29.0155 20.2672C29.1035 20.1791 29.2167 20.1351 29.3551 20.1351H31.3553C31.5691 20.1351 31.7201 20.1854 31.8081 20.286C31.9088 20.3741 31.9717 20.4433 31.9968 20.4936L36.601 27.7584V20.6068C36.601 20.4684 36.645 20.3552 36.7331 20.2672C36.8211 20.1791 36.9344 20.1351 37.0727 20.1351H39.3371C39.4755 20.1351 39.5887 20.1791 39.6767 20.2672C39.7648 20.3552 39.8088 20.4684 39.8088 20.6068V32.872C39.8088 32.9978 39.7648 33.111 39.6767 33.2117C39.5887 33.2997 39.4755 33.3438 39.3371 33.3438H37.318C37.1168 33.3438 36.9658 33.2934 36.8652 33.1928C36.7771 33.0922 36.7205 33.023 36.6954 32.9852L32.0912 26.0035V32.872C32.0912 33.0104 32.0472 33.1236 31.9591 33.2117C31.871 33.2997 31.7578 33.3438 31.6194 33.3438H29.3551ZM43.8611 33.3438C43.7227 33.3438 43.6095 33.2997 43.5214 33.2117C43.4333 33.1236 43.3893 33.0104 43.3893 32.872V20.6068C43.3893 20.4684 43.4333 20.3552 43.5214 20.2672C43.6095 20.1791 43.7227 20.1351 43.8611 20.1351H48.7671C49.9999 20.1351 51.0503 20.3364 51.9183 20.7389C52.7863 21.1289 53.4531 21.7075 53.9185 22.4749C54.384 23.2297 54.6356 24.1669 54.6733 25.2865C54.6859 25.84 54.6922 26.3243 54.6922 26.7394C54.6922 27.1545 54.6859 27.6326 54.6733 28.1735C54.623 29.3434 54.3714 30.312 53.9185 31.0794C53.4782 31.8468 52.8304 32.4191 51.975 32.7965C51.1321 33.1613 50.0943 33.3438 48.8615 33.3438H43.8611ZM46.767 30.6265H48.7671C49.3081 30.6265 49.7546 30.5448 50.1069 30.3812C50.4717 30.2051 50.7421 29.9347 50.9183 29.5698C51.107 29.205 51.2076 28.727 51.2202 28.1358C51.2453 27.7709 51.2579 27.4439 51.2579 27.1545C51.2705 26.8652 51.2705 26.5759 51.2579 26.2865C51.2579 25.9972 51.2453 25.6764 51.2202 25.3242C51.195 24.4688 50.9686 23.8461 50.5409 23.4561C50.1257 23.0536 49.503 22.8523 48.6728 22.8523H46.767V30.6265ZM56.8088 33.3438C56.7082 33.3438 56.6138 33.306 56.5258 33.2305C56.4503 33.1425 56.4125 33.0481 56.4125 32.9475C56.4125 32.8846 56.4188 32.828 56.4314 32.7777L60.8657 20.6634C60.9035 20.5251 60.979 20.4055 61.0922 20.3049C61.218 20.1917 61.3878 20.1351 61.6017 20.1351H64.3943C64.6082 20.1351 64.7717 20.1917 64.885 20.3049C65.0107 20.4055 65.0925 20.5251 65.1303 20.6634L69.5457 32.7777C69.5709 32.828 69.5835 32.8846 69.5835 32.9475C69.5835 33.0481 69.5394 33.1425 69.4514 33.2305C69.3759 33.306 69.2816 33.3438 69.1683 33.3438H66.8474C66.6587 33.3438 66.514 33.2997 66.4134 33.2117C66.3253 33.111 66.2687 33.023 66.2436 32.9475L65.5076 31.0228H60.4695L59.7524 32.9475C59.7273 33.023 59.6707 33.111 59.5826 33.2117C59.4946 33.2997 59.3436 33.3438 59.1297 33.3438H56.8088ZM61.2431 28.3056H64.7529L62.9791 23.324L61.2431 28.3056Z" fill="#9B9B9B"/>
<path d="M48.7093 9.12587C48.7389 9.07509 48.7814 9.03296 48.8324 9.00368C48.8835 8.97439 48.9413 8.95898 49.0002 8.95898C49.0591 8.95898 49.1169 8.97439 49.168 9.00368C49.219 9.03296 49.2615 9.07509 49.2911 9.12587L50.3619 10.9604C50.409 11.0417 50.4885 11.0995 50.5814 11.1197L52.6597 11.5687C52.7172 11.5812 52.7705 11.6084 52.8142 11.6479C52.858 11.6873 52.8905 11.7375 52.9087 11.7934C52.9269 11.8493 52.9301 11.909 52.918 11.9666C52.9058 12.0241 52.8787 12.0775 52.8395 12.1213L51.4226 13.7044C51.3914 13.7391 51.3678 13.7799 51.3533 13.8243C51.3389 13.8686 51.3338 13.9154 51.3384 13.9618L51.5525 16.074C51.5585 16.1324 51.5489 16.1914 51.5249 16.2451C51.5008 16.2988 51.4631 16.3452 51.4155 16.3797C51.3678 16.4143 51.312 16.4358 51.2534 16.4421C51.1949 16.4483 51.1357 16.4391 51.0818 16.4154L49.1356 15.5597C49.0928 15.5408 49.0466 15.531 48.9999 15.531C48.9531 15.531 48.9069 15.5408 48.8642 15.5597L46.9179 16.4154C46.8641 16.439 46.805 16.448 46.7465 16.4417C46.6881 16.4353 46.6323 16.4138 46.5848 16.3793C46.5372 16.3448 46.4996 16.2984 46.4756 16.2448C46.4515 16.1913 46.442 16.1324 46.4479 16.074L46.662 13.9618C46.6667 13.9154 46.6616 13.8686 46.6471 13.8243C46.6326 13.7799 46.609 13.7391 46.5778 13.7044L45.1609 12.1213C45.1217 12.0775 45.0946 12.0241 45.0825 11.9666C45.0703 11.909 45.0735 11.8493 45.0917 11.7934C45.1099 11.7375 45.1425 11.6873 45.1862 11.6479C45.2299 11.6084 45.2832 11.5812 45.3407 11.5687L47.419 11.1197C47.4647 11.1098 47.5079 11.0905 47.5458 11.0631C47.5837 11.0357 47.6155 11.0007 47.6392 10.9604L48.7093 9.12587ZM58.1071 10.6908C58.1368 10.64 58.1792 10.5979 58.2303 10.5686C58.2813 10.5393 58.3392 10.5239 58.398 10.5239C58.4569 10.5239 58.5148 10.5393 58.5658 10.5686C58.6168 10.5979 58.6593 10.64 58.689 10.6908L59.2526 11.6568C59.2762 11.697 59.3079 11.7319 59.3457 11.7594C59.3835 11.7868 59.4265 11.8061 59.4722 11.8161L60.5665 12.0527C60.6241 12.0652 60.6774 12.0924 60.7211 12.1319C60.7648 12.1713 60.7974 12.2215 60.8156 12.2774C60.8338 12.3333 60.8369 12.393 60.8248 12.4506C60.8126 12.5081 60.7856 12.5615 60.7463 12.6053L60.0008 13.4388C59.9696 13.4735 59.9459 13.5143 59.9314 13.5587C59.9169 13.603 59.9119 13.6499 59.9166 13.6963L60.0291 14.8082C60.035 14.8666 60.0255 14.9257 60.0015 14.9793C59.9774 15.033 59.9397 15.0794 59.8921 15.114C59.8444 15.1485 59.7885 15.17 59.73 15.1763C59.6714 15.1825 59.6123 15.1733 59.5584 15.1497L58.5341 14.6993C58.4913 14.6803 58.4451 14.6705 58.3984 14.6705C58.3516 14.6705 58.3054 14.6803 58.2627 14.6993L57.2377 15.1497C57.1838 15.1733 57.1246 15.1825 57.0661 15.1763C57.0075 15.17 56.9516 15.1485 56.904 15.114C56.8564 15.0794 56.8187 15.033 56.7946 14.9793C56.7706 14.9257 56.761 14.8666 56.767 14.8082L56.8801 13.6963C56.8849 13.6499 56.8798 13.603 56.8653 13.5587C56.8508 13.5143 56.8272 13.4735 56.7959 13.4388L56.0498 12.6053C56.0105 12.5615 55.9834 12.5081 55.9713 12.4506C55.9591 12.393 55.9623 12.3333 55.9805 12.2774C55.9987 12.2215 56.0313 12.1713 56.075 12.1319C56.1187 12.0924 56.172 12.0652 56.2296 12.0527L57.3239 11.8161C57.3696 11.8061 57.4128 11.7868 57.4507 11.7594C57.4885 11.732 57.5204 11.697 57.5441 11.6568L58.1071 10.6908ZM39.2993 10.6908C39.329 10.64 39.3714 10.5979 39.4225 10.5686C39.4735 10.5393 39.5314 10.5239 39.5903 10.5239C39.6491 10.5239 39.707 10.5393 39.758 10.5686C39.8091 10.5979 39.8515 10.64 39.8812 10.6908L40.4442 11.6568C40.492 11.7381 40.5721 11.7959 40.6644 11.8161L41.7587 12.0527C41.8163 12.0652 41.8696 12.0924 41.9133 12.1319C41.957 12.1713 41.9896 12.2215 42.0078 12.2774C42.026 12.3333 42.0292 12.393 42.017 12.4506C42.0049 12.5081 41.9778 12.5615 41.9385 12.6053L41.1924 13.4388C41.1611 13.4735 41.1375 13.5143 41.123 13.5587C41.1085 13.603 41.1034 13.6499 41.1082 13.6963L41.2213 14.8082C41.2273 14.8667 41.2178 14.9258 41.1937 14.9796C41.1696 15.0333 41.1319 15.0798 41.0841 15.1144C41.0364 15.149 40.9804 15.1704 40.9217 15.1766C40.8631 15.1828 40.8038 15.1735 40.7499 15.1497L39.7263 14.6993C39.6835 14.6802 39.6371 14.6704 39.5903 14.6704C39.5434 14.6704 39.497 14.6802 39.4542 14.6993L38.4299 15.1497C38.376 15.1735 38.3167 15.1828 38.2581 15.1766C38.1994 15.1704 38.1434 15.149 38.0957 15.1144C38.048 15.0798 38.0102 15.0333 37.9861 14.9796C37.962 14.9258 37.9525 14.8667 37.9585 14.8082L38.0717 13.6963C38.0764 13.6499 38.0713 13.603 38.0568 13.5587C38.0423 13.5144 38.0187 13.4735 37.9875 13.4388L37.242 12.6053C37.2027 12.5615 37.1756 12.5081 37.1635 12.4506C37.1513 12.393 37.1545 12.3333 37.1727 12.2774C37.1909 12.2215 37.2235 12.1713 37.2672 12.1319C37.3109 12.0924 37.3642 12.0652 37.4218 12.0527L38.5161 11.8161C38.5618 11.8061 38.6048 11.7868 38.6426 11.7594C38.6804 11.732 38.7121 11.697 38.7357 11.6568L39.2993 10.6908Z" fill="#9B9B9B"/>
</g>
<path d="M39.5284 63C39.4784 63 39.4334 62.9825 39.3934 62.9475C39.3584 62.9125 39.3409 62.8675 39.3409 62.8125V59.2425L38.3134 60.03C38.2684 60.065 38.2209 60.0775 38.1709 60.0675C38.1259 60.0575 38.0859 60.03 38.0509 59.985L37.6084 59.4075C37.5784 59.3625 37.5659 59.315 37.5709 59.265C37.5809 59.21 37.6109 59.1675 37.6609 59.1375L39.3859 57.8025C39.4159 57.7825 39.4434 57.77 39.4684 57.765C39.4984 57.755 39.5309 57.75 39.5659 57.75H40.5034C40.5534 57.75 40.5959 57.7675 40.6309 57.8025C40.6709 57.8375 40.6909 57.8825 40.6909 57.9375V62.8125C40.6909 62.8675 40.6709 62.9125 40.6309 62.9475C40.5959 62.9825 40.5534 63 40.5034 63H39.5284ZM44.0965 63.075C43.7365 63.075 43.424 63.025 43.159 62.925C42.894 62.82 42.674 62.6775 42.499 62.4975C42.329 62.3175 42.199 62.1075 42.109 61.8675C42.019 61.6275 41.9665 61.37 41.9515 61.095C41.9465 60.96 41.9415 60.8075 41.9365 60.6375C41.9365 60.4625 41.9365 60.2875 41.9365 60.1125C41.9415 59.9325 41.9465 59.7725 41.9515 59.6325C41.9665 59.3575 42.019 59.1025 42.109 58.8675C42.204 58.6275 42.339 58.42 42.514 58.245C42.694 58.065 42.914 57.925 43.174 57.825C43.439 57.725 43.7465 57.675 44.0965 57.675C44.4515 57.675 44.759 57.725 45.019 57.825C45.279 57.925 45.4965 58.065 45.6715 58.245C45.8515 58.42 45.989 58.6275 46.084 58.8675C46.179 59.1025 46.2315 59.3575 46.2415 59.6325C46.2515 59.7725 46.2565 59.9325 46.2565 60.1125C46.2615 60.2875 46.2615 60.4625 46.2565 60.6375C46.2565 60.8075 46.2515 60.96 46.2415 61.095C46.2315 61.37 46.179 61.6275 46.084 61.8675C45.994 62.1075 45.8615 62.3175 45.6865 62.4975C45.5165 62.6775 45.299 62.82 45.034 62.925C44.774 63.025 44.4615 63.075 44.0965 63.075ZM44.0965 61.9875C44.3565 61.9875 44.544 61.905 44.659 61.74C44.779 61.57 44.8415 61.3425 44.8465 61.0575C44.8565 60.9125 44.8615 60.76 44.8615 60.6C44.8665 60.44 44.8665 60.28 44.8615 60.12C44.8615 59.96 44.8565 59.8125 44.8465 59.6775C44.8415 59.4025 44.779 59.18 44.659 59.01C44.544 58.84 44.3565 58.7525 44.0965 58.7475C43.8365 58.7525 43.649 58.84 43.534 59.01C43.419 59.18 43.3565 59.4025 43.3465 59.6775C43.3415 59.8125 43.3365 59.96 43.3315 60.12C43.3315 60.28 43.3315 60.44 43.3315 60.6C43.3365 60.76 43.3415 60.9125 43.3465 61.0575C43.3565 61.3425 43.4215 61.57 43.5415 61.74C43.6615 61.905 43.8465 61.9875 44.0965 61.9875ZM49.5691 63.075C49.2091 63.075 48.8966 63.025 48.6316 62.925C48.3666 62.82 48.1466 62.6775 47.9716 62.4975C47.8016 62.3175 47.6716 62.1075 47.5816 61.8675C47.4916 61.6275 47.4391 61.37 47.4241 61.095C47.4191 60.96 47.4141 60.8075 47.4091 60.6375C47.4091 60.4625 47.4091 60.2875 47.4091 60.1125C47.4141 59.9325 47.4191 59.7725 47.4241 59.6325C47.4391 59.3575 47.4916 59.1025 47.5816 58.8675C47.6766 58.6275 47.8116 58.42 47.9866 58.245C48.1666 58.065 48.3866 57.925 48.6466 57.825C48.9116 57.725 49.2191 57.675 49.5691 57.675C49.9241 57.675 50.2316 57.725 50.4916 57.825C50.7516 57.925 50.9691 58.065 51.1441 58.245C51.3241 58.42 51.4616 58.6275 51.5566 58.8675C51.6516 59.1025 51.7041 59.3575 51.7141 59.6325C51.7241 59.7725 51.7291 59.9325 51.7291 60.1125C51.7341 60.2875 51.7341 60.4625 51.7291 60.6375C51.7291 60.8075 51.7241 60.96 51.7141 61.095C51.7041 61.37 51.6516 61.6275 51.5566 61.8675C51.4666 62.1075 51.3341 62.3175 51.1591 62.4975C50.9891 62.6775 50.7716 62.82 50.5066 62.925C50.2466 63.025 49.9341 63.075 49.5691 63.075ZM49.5691 61.9875C49.8291 61.9875 50.0166 61.905 50.1316 61.74C50.2516 61.57 50.3141 61.3425 50.3191 61.0575C50.3291 60.9125 50.3341 60.76 50.3341 60.6C50.3391 60.44 50.3391 60.28 50.3341 60.12C50.3341 59.96 50.3291 59.8125 50.3191 59.6775C50.3141 59.4025 50.2516 59.18 50.1316 59.01C50.0166 58.84 49.8291 58.7525 49.5691 58.7475C49.3091 58.7525 49.1216 58.84 49.0066 59.01C48.8916 59.18 48.8291 59.4025 48.8191 59.6775C48.8141 59.8125 48.8091 59.96 48.8041 60.12C48.8041 60.28 48.8041 60.44 48.8041 60.6C48.8091 60.76 48.8141 60.9125 48.8191 61.0575C48.8291 61.3425 48.8941 61.57 49.0141 61.74C49.1341 61.905 49.3191 61.9875 49.5691 61.9875ZM53.3393 63C53.2243 63 53.1668 62.95 53.1668 62.85C53.1668 62.82 53.1768 62.7925 53.1968 62.7675L56.9018 57.8925C56.9368 57.8475 56.9718 57.8125 57.0068 57.7875C57.0418 57.7625 57.0943 57.75 57.1643 57.75H57.6968C57.8118 57.75 57.8693 57.8 57.8693 57.9C57.8693 57.93 57.8593 57.9575 57.8393 57.9825L54.1343 62.8575C54.0993 62.9025 54.0643 62.9375 54.0293 62.9625C53.9943 62.9875 53.9418 63 53.8718 63H53.3393ZM57.1118 63.0375C56.7718 63.0375 56.4993 62.9475 56.2943 62.7675C56.0943 62.5875 55.9818 62.3475 55.9568 62.0475C55.9518 61.9175 55.9493 61.8025 55.9493 61.7025C55.9493 61.6025 55.9518 61.4825 55.9568 61.3425C55.9768 61.0375 56.0843 60.795 56.2793 60.615C56.4793 60.43 56.7568 60.3375 57.1118 60.3375C57.4718 60.3375 57.7493 60.43 57.9443 60.615C58.1393 60.795 58.2468 61.0375 58.2668 61.3425C58.2768 61.4825 58.2818 61.6025 58.2818 61.7025C58.2818 61.8025 58.2768 61.9175 58.2668 62.0475C58.2468 62.3475 58.1343 62.5875 57.9293 62.7675C57.7243 62.9475 57.4518 63.0375 57.1118 63.0375ZM57.1118 62.3775C57.1968 62.3775 57.2618 62.36 57.3068 62.325C57.3568 62.29 57.3943 62.245 57.4193 62.19C57.4443 62.13 57.4568 62.0675 57.4568 62.0025C57.4668 61.8875 57.4718 61.7825 57.4718 61.6875C57.4718 61.5925 57.4668 61.49 57.4568 61.38C57.4518 61.285 57.4243 61.2 57.3743 61.125C57.3243 61.045 57.2368 61.005 57.1118 61.005C56.9868 61.005 56.8993 61.045 56.8493 61.125C56.7993 61.2 56.7718 61.285 56.7668 61.38C56.7618 61.49 56.7593 61.5925 56.7593 61.6875C56.7593 61.7825 56.7618 61.8875 56.7668 62.0025C56.7718 62.0675 56.7843 62.13 56.8043 62.19C56.8293 62.245 56.8668 62.29 56.9168 62.325C56.9668 62.36 57.0318 62.3775 57.1118 62.3775ZM53.9393 60.3975C53.5943 60.3975 53.3193 60.31 53.1143 60.135C52.9143 59.955 52.8043 59.715 52.7843 59.415C52.7743 59.285 52.7693 59.1725 52.7693 59.0775C52.7743 58.9775 52.7793 58.8575 52.7843 58.7175C52.7993 58.4125 52.9043 58.17 53.0993 57.99C53.2993 57.805 53.5793 57.7125 53.9393 57.7125C54.2993 57.7125 54.5768 57.805 54.7718 57.99C54.9668 58.17 55.0718 58.4125 55.0868 58.7175C55.0968 58.8575 55.1018 58.9775 55.1018 59.0775C55.1018 59.1725 55.0968 59.285 55.0868 59.415C55.0718 59.715 54.9618 59.955 54.7568 60.135C54.5518 60.31 54.2793 60.3975 53.9393 60.3975ZM53.9393 59.7525C54.0193 59.7525 54.0843 59.735 54.1343 59.7C54.1843 59.66 54.2218 59.6125 54.2468 59.5575C54.2718 59.4975 54.2843 59.4375 54.2843 59.3775C54.2943 59.2625 54.2993 59.1575 54.2993 59.0625C54.2993 58.9675 54.2943 58.865 54.2843 58.755C54.2793 58.66 54.2493 58.575 54.1943 58.5C54.1443 58.42 54.0593 58.38 53.9393 58.38C53.8143 58.38 53.7243 58.42 53.6693 58.5C53.6193 58.575 53.5918 58.66 53.5868 58.755C53.5818 58.865 53.5793 58.9675 53.5793 59.0625C53.5793 59.1575 53.5818 59.2625 53.5868 59.3775C53.5918 59.4375 53.6043 59.4975 53.6243 59.5575C53.6493 59.6125 53.6868 59.66 53.7368 59.7C53.7868 59.735 53.8543 59.7525 53.9393 59.7525ZM24.3402 71.0671C23.9241 71.0671 23.5705 70.9955 23.2796 70.8523C22.9932 70.7046 22.774 70.4966 22.6218 70.228C22.4696 69.9551 22.3846 69.6284 22.3667 69.248C22.3622 69.0645 22.36 68.8676 22.36 68.6573C22.36 68.447 22.3622 68.2456 22.3667 68.0531C22.3846 67.6772 22.4696 67.3528 22.6218 67.0798C22.7784 66.8068 22.9999 66.5987 23.2864 66.4555C23.5772 66.3079 23.9285 66.234 24.3402 66.234C24.6445 66.234 24.9175 66.2743 25.1592 66.3549C25.4008 66.4354 25.6067 66.5473 25.7767 66.6905C25.9468 66.8292 26.0788 66.9926 26.1728 67.1805C26.2668 67.3685 26.316 67.5721 26.3205 67.7914C26.3249 67.8316 26.3115 67.8652 26.2802 67.892C26.2533 67.9189 26.2198 67.9323 26.1795 67.9323H25.5418C25.4926 67.9323 25.4523 67.9211 25.421 67.8988C25.3896 67.8719 25.3673 67.8294 25.3538 67.7712C25.2822 67.4759 25.1592 67.2745 24.9847 67.1671C24.8101 67.0597 24.5931 67.006 24.3335 67.006C24.0337 67.006 23.7943 67.091 23.6153 67.2611C23.4363 67.4266 23.3401 67.7019 23.3266 68.0867C23.3132 68.4537 23.3132 68.8296 23.3266 69.2144C23.3401 69.5993 23.4363 69.8768 23.6153 70.0468C23.7943 70.2124 24.0337 70.2952 24.3335 70.2952C24.5931 70.2952 24.8101 70.2415 24.9847 70.1341C25.1592 70.0222 25.2822 69.8208 25.3538 69.5299C25.3673 69.4673 25.3896 69.4248 25.421 69.4024C25.4523 69.38 25.4926 69.3688 25.5418 69.3688H26.1795C26.2198 69.3688 26.2533 69.3823 26.2802 69.4091C26.3115 69.436 26.3249 69.4695 26.3205 69.5098C26.316 69.7291 26.2668 69.9327 26.1728 70.1206C26.0788 70.3086 25.9468 70.4742 25.7767 70.6174C25.6067 70.7561 25.4008 70.8657 25.1592 70.9463C24.9175 71.0269 24.6445 71.0671 24.3402 71.0671ZM29.2579 71.0671C28.8596 71.0671 28.5173 71.0022 28.2308 70.8725C27.9444 70.7382 27.7207 70.5346 27.5596 70.2616C27.3985 69.9842 27.3112 69.6396 27.2978 69.2279C27.2933 69.0354 27.2911 68.8452 27.2911 68.6573C27.2911 68.4693 27.2933 68.2769 27.2978 68.08C27.3112 67.6728 27.4007 67.3327 27.5663 67.0597C27.7319 66.7867 27.9579 66.5808 28.2443 66.4421C28.5352 66.3034 28.873 66.234 29.2579 66.234C29.6427 66.234 29.9806 66.3034 30.2715 66.4421C30.5624 66.5808 30.7906 66.7867 30.9562 67.0597C31.1218 67.3327 31.2113 67.6728 31.2247 68.08C31.2336 68.2769 31.2381 68.4693 31.2381 68.6573C31.2381 68.8452 31.2336 69.0354 31.2247 69.2279C31.2113 69.6396 31.124 69.9842 30.9629 70.2616C30.8018 70.5346 30.5758 70.7382 30.2849 70.8725C29.9985 71.0022 29.6562 71.0671 29.2579 71.0671ZM29.2579 70.2952C29.5488 70.2952 29.7859 70.2101 29.9694 70.0401C30.1529 69.8656 30.2514 69.5836 30.2648 69.1943C30.2737 68.9974 30.2782 68.8162 30.2782 68.6506C30.2782 68.4805 30.2737 68.2993 30.2648 68.1069C30.2558 67.8473 30.2066 67.637 30.1171 67.4759C30.0321 67.3103 29.9157 67.1917 29.768 67.1201C29.6204 67.044 29.4503 67.006 29.2579 67.006C29.0699 67.006 28.9021 67.044 28.7544 67.1201C28.6068 67.1917 28.4882 67.3103 28.3987 67.4759C28.3136 67.637 28.2666 67.8473 28.2577 68.1069C28.2532 68.2993 28.251 68.4805 28.251 68.6506C28.251 68.8162 28.2532 68.9974 28.2577 69.1943C28.2711 69.5836 28.3696 69.8656 28.5531 70.0401C28.7365 70.2101 28.9715 70.2952 29.2579 70.2952ZM32.6163 71C32.5715 71 32.5335 70.9843 32.5022 70.953C32.4709 70.9217 32.4552 70.8836 32.4552 70.8389V66.469C32.4552 66.4197 32.4709 66.3795 32.5022 66.3481C32.5335 66.3168 32.5715 66.3011 32.6163 66.3011H33.1332C33.1958 66.3011 33.2406 66.3168 33.2674 66.3481C33.2988 66.375 33.3189 66.3951 33.3278 66.4086L35.2611 69.4158V66.469C35.2611 66.4197 35.2745 66.3795 35.3014 66.3481C35.3327 66.3168 35.373 66.3011 35.4222 66.3011H35.986C36.0353 66.3011 36.0755 66.3168 36.1069 66.3481C36.1382 66.3795 36.1539 66.4197 36.1539 66.469V70.8322C36.1539 70.8814 36.1382 70.9217 36.1069 70.953C36.0755 70.9843 36.0375 71 35.9928 71H35.4692C35.4065 71 35.3618 70.9843 35.3349 70.953C35.3081 70.9217 35.2879 70.9015 35.2745 70.8926L33.348 67.9525V70.8389C33.348 70.8836 33.3323 70.9217 33.301 70.953C33.2697 70.9843 33.2294 71 33.1802 71H32.6163ZM37.698 71C37.6532 71 37.6152 70.9843 37.5839 70.953C37.5525 70.9217 37.5369 70.8836 37.5369 70.8389V66.469C37.5369 66.4197 37.5525 66.3795 37.5839 66.3481C37.6152 66.3168 37.6532 66.3011 37.698 66.3011H40.6113C40.6605 66.3011 40.7008 66.3168 40.7321 66.3481C40.7634 66.3795 40.7791 66.4197 40.7791 66.469V66.9389C40.7791 66.9881 40.7634 67.0284 40.7321 67.0597C40.7008 67.0865 40.6605 67.1 40.6113 67.1H38.4565V68.3754H40.477C40.5262 68.3754 40.5665 68.391 40.5978 68.4223C40.6292 68.4537 40.6448 68.4939 40.6448 68.5432V69.0131C40.6448 69.0578 40.6292 69.0958 40.5978 69.1272C40.5665 69.1585 40.5262 69.1742 40.477 69.1742H38.4565V70.8389C38.4565 70.8836 38.4408 70.9217 38.4095 70.953C38.3782 70.9843 38.3379 71 38.2887 71H37.698ZM42.0651 71C42.0204 71 41.9823 70.9843 41.951 70.953C41.9197 70.9217 41.904 70.8836 41.904 70.8389V66.4623C41.904 66.4175 41.9197 66.3795 41.951 66.3481C41.9823 66.3168 42.0204 66.3011 42.0651 66.3011H42.6961C42.7453 66.3011 42.7834 66.3168 42.8102 66.3481C42.8416 66.3795 42.8572 66.4175 42.8572 66.4623V70.8389C42.8572 70.8836 42.8416 70.9217 42.8102 70.953C42.7834 70.9843 42.7453 71 42.6961 71H42.0651ZM44.4067 71C44.3619 71 44.3239 70.9843 44.2926 70.953C44.2612 70.9217 44.2456 70.8836 44.2456 70.8389V66.469C44.2456 66.4197 44.2612 66.3795 44.2926 66.3481C44.3239 66.3168 44.3619 66.3011 44.4067 66.3011H46.0446C46.4966 66.3011 46.868 66.3705 47.1589 66.5092C47.4542 66.648 47.6757 66.8538 47.8234 67.1268C47.9756 67.3998 48.0539 67.7332 48.0584 68.127C48.0673 68.3239 48.0718 68.4984 48.0718 68.6506C48.0718 68.8027 48.0673 68.975 48.0584 69.1674C48.0494 69.5836 47.9733 69.9282 47.8301 70.2012C47.6869 70.4697 47.4699 70.6711 47.179 70.8053C46.8926 70.9351 46.5256 71 46.0781 71H44.4067ZM45.1786 70.228H46.0446C46.2952 70.228 46.4988 70.1922 46.6554 70.1206C46.8121 70.049 46.9262 69.9349 46.9978 69.7783C47.0738 69.6172 47.1141 69.4069 47.1186 69.1473C47.1231 69.0131 47.1253 68.8967 47.1253 68.7983C47.1298 68.6953 47.1298 68.5946 47.1253 68.4962C47.1253 68.3933 47.1231 68.2769 47.1186 68.1471C47.1096 67.7802 47.0179 67.5094 46.8434 67.3349C46.6689 67.1604 46.3914 67.0731 46.011 67.0731H45.1786V70.228ZM49.4621 71C49.4174 71 49.3794 70.9843 49.348 70.953C49.3167 70.9217 49.301 70.8836 49.301 70.8389V66.469C49.301 66.4197 49.3167 66.3795 49.348 66.3481C49.3794 66.3168 49.4174 66.3011 49.4621 66.3011H52.4157C52.4649 66.3011 52.5052 66.3168 52.5365 66.3481C52.5679 66.3795 52.5835 66.4197 52.5835 66.469V66.912C52.5835 66.9568 52.5679 66.9948 52.5365 67.0261C52.5052 67.0574 52.4649 67.0731 52.4157 67.0731H50.2073V68.2612H52.268C52.3173 68.2612 52.3575 68.2769 52.3889 68.3082C52.4202 68.3351 52.4359 68.3731 52.4359 68.4223V68.8385C52.4359 68.8878 52.4202 68.928 52.3889 68.9594C52.3575 68.9862 52.3173 68.9996 52.268 68.9996H50.2073V70.228H52.4694C52.5186 70.228 52.5589 70.2437 52.5902 70.275C52.6216 70.3064 52.6372 70.3466 52.6372 70.3959V70.8389C52.6372 70.8836 52.6216 70.9217 52.5902 70.953C52.5589 70.9843 52.5186 71 52.4694 71H49.4621ZM53.9735 71C53.9288 71 53.8907 70.9843 53.8594 70.953C53.8281 70.9217 53.8124 70.8836 53.8124 70.8389V66.469C53.8124 66.4197 53.8281 66.3795 53.8594 66.3481C53.8907 66.3168 53.9288 66.3011 53.9735 66.3011H54.4904C54.553 66.3011 54.5978 66.3168 54.6246 66.3481C54.656 66.375 54.6761 66.3951 54.6851 66.4086L56.6183 69.4158V66.469C56.6183 66.4197 56.6317 66.3795 56.6586 66.3481C56.6899 66.3168 56.7302 66.3011 56.7794 66.3011H57.3433C57.3925 66.3011 57.4328 66.3168 57.4641 66.3481C57.4954 66.3795 57.5111 66.4197 57.5111 66.469V70.8322C57.5111 70.8814 57.4954 70.9217 57.4641 70.953C57.4328 70.9843 57.3947 71 57.35 71H56.8264C56.7637 71 56.719 70.9843 56.6921 70.953C56.6653 70.9217 56.6451 70.9015 56.6317 70.8926L54.7052 67.9525V70.8389C54.7052 70.8836 54.6895 70.9217 54.6582 70.953C54.6269 70.9843 54.5866 71 54.5374 71H53.9735ZM60.0889 71C60.0442 71 60.0062 70.9843 59.9748 70.953C59.9435 70.9217 59.9278 70.8836 59.9278 70.8389V67.1268H58.686C58.6413 67.1268 58.6032 67.1111 58.5719 67.0798C58.5406 67.0485 58.5249 67.0105 58.5249 66.9657V66.469C58.5249 66.4197 58.5406 66.3795 58.5719 66.3481C58.6032 66.3168 58.6413 66.3011 58.686 66.3011H62.1095C62.1587 66.3011 62.199 66.3168 62.2303 66.3481C62.2616 66.3795 62.2773 66.4197 62.2773 66.469V66.9657C62.2773 67.0105 62.2616 67.0485 62.2303 67.0798C62.199 67.1111 62.1587 67.1268 62.1095 67.1268H60.8743V70.8389C60.8743 70.8836 60.8587 70.9217 60.8273 70.953C60.796 70.9843 60.7557 71 60.7065 71H60.0889ZM63.4551 71C63.4104 71 63.3723 70.9843 63.341 70.953C63.3097 70.9217 63.294 70.8836 63.294 70.8389V66.4623C63.294 66.4175 63.3097 66.3795 63.341 66.3481C63.3723 66.3168 63.4104 66.3011 63.4551 66.3011H64.0861C64.1353 66.3011 64.1734 66.3168 64.2002 66.3481C64.2316 66.3795 64.2472 66.4175 64.2472 66.4623V70.8389C64.2472 70.8836 64.2316 70.9217 64.2002 70.953C64.1734 70.9843 64.1353 71 64.0861 71H63.4551ZM65.3469 71C65.3111 71 65.2776 70.9866 65.2462 70.9597C65.2194 70.9329 65.206 70.8993 65.206 70.859C65.206 70.8411 65.2104 70.821 65.2194 70.7986L66.8371 66.469C66.8506 66.4242 66.8752 66.3862 66.911 66.3549C66.9513 66.319 67.005 66.3011 67.0721 66.3011H67.8038C67.8709 66.3011 67.9224 66.319 67.9582 66.3549C67.994 66.3862 68.0208 66.4242 68.0387 66.469L69.6565 70.7986C69.6609 70.821 69.6632 70.8411 69.6632 70.859C69.6632 70.8993 69.6497 70.9329 69.6229 70.9597C69.596 70.9866 69.5647 71 69.5289 71H68.9449C68.8823 71 68.8353 70.9866 68.8039 70.9597C68.7771 70.9284 68.7592 70.8993 68.7502 70.8725L68.4348 70.0535H66.4411L66.1256 70.8725C66.1167 70.8993 66.0965 70.9284 66.0652 70.9597C66.0383 70.9866 65.9936 71 65.9309 71H65.3469ZM66.676 69.2816H68.1998L67.4346 67.2074L66.676 69.2816ZM70.7866 71C70.7418 71 70.7038 70.9843 70.6725 70.953C70.6412 70.9217 70.6255 70.8836 70.6255 70.8389V66.4623C70.6255 66.4175 70.6412 66.3795 70.6725 66.3481C70.7038 66.3168 70.7418 66.3011 70.7866 66.3011H71.4109C71.4556 66.3011 71.4937 66.3168 71.525 66.3481C71.5563 66.3795 71.572 66.4175 71.572 66.4623V70.2012H73.6999C73.7491 70.2012 73.7894 70.2169 73.8207 70.2482C73.852 70.2795 73.8677 70.3198 73.8677 70.369V70.8389C73.8677 70.8836 73.852 70.9217 73.8207 70.953C73.7894 70.9843 73.7491 71 73.6999 71H70.7866Z" fill="#3F3F3F" fill-opacity="0.6"/>
</svg>
