<svg width="110" height="62" viewBox="0 0 110 62" fill="none" xmlns="http://www.w3.org/2000/svg">
<g opacity="0.6">
<rect x="1.15625" y="1" width="106.999" height="60" rx="2.58643" fill="#0E1219" fill-opacity="0.51"/>
<rect x="0.65625" y="0.5" width="107.999" height="61" rx="3.08643" stroke="white" stroke-opacity="0.09"/>
</g>
<path d="M1.15625 20.1377H108.156V3.58619C108.156 2.15775 106.998 0.999763 105.569 0.999763H3.74268C2.31423 0.999763 1.15625 2.15775 1.15625 3.58619V20.1377Z" fill="#4285F4"/>
<path d="M39.142 7.42885C40.0687 7.42885 40.742 7.62218 41.162 8.00885C41.5887 8.39551 41.802 8.92885 41.802 9.60885C41.802 9.91551 41.7554 10.2088 41.662 10.4888C41.5687 10.7622 41.412 11.0088 41.192 11.2288C40.972 11.4488 40.682 11.6222 40.322 11.7488C39.9687 11.8755 39.5287 11.9388 39.002 11.9388H38.292V14.5688H37.012V7.42885H39.142ZM39.062 8.48885H38.292V10.8788H38.872C39.2187 10.8788 39.512 10.8388 39.752 10.7588C39.9987 10.6722 40.1854 10.5388 40.312 10.3588C40.4387 10.1788 40.502 9.94551 40.502 9.65885C40.502 9.26551 40.3854 8.97218 40.152 8.77885C39.9187 8.58551 39.5554 8.48885 39.062 8.48885ZM45.2434 9.04885C45.9434 9.04885 46.4734 9.20218 46.8334 9.50885C47.2001 9.80885 47.3834 10.2822 47.3834 10.9288V14.5688H46.4934L46.2434 13.8188H46.2034C46.0501 14.0122 45.8901 14.1755 45.7234 14.3088C45.5634 14.4355 45.3768 14.5255 45.1634 14.5788C44.9568 14.6388 44.7034 14.6688 44.4034 14.6688C44.0834 14.6688 43.7934 14.6088 43.5334 14.4888C43.2801 14.3688 43.0801 14.1855 42.9334 13.9388C42.7868 13.6855 42.7134 13.3688 42.7134 12.9888C42.7134 12.4288 42.9168 12.0088 43.3234 11.7288C43.7368 11.4422 44.3601 11.2855 45.1934 11.2588L46.1334 11.2288V10.9588C46.1334 10.6122 46.0501 10.3655 45.8834 10.2188C45.7168 10.0722 45.4834 9.99885 45.1834 9.99885C44.9101 9.99885 44.6468 10.0388 44.3934 10.1188C44.1401 10.1988 43.8934 10.2922 43.6534 10.3988L43.2534 9.51885C43.5201 9.37885 43.8234 9.26551 44.1634 9.17885C44.5101 9.09218 44.8701 9.04885 45.2434 9.04885ZM45.4734 12.0288C44.9201 12.0488 44.5368 12.1455 44.3234 12.3188C44.1101 12.4855 44.0034 12.7122 44.0034 12.9988C44.0034 13.2522 44.0801 13.4355 44.2334 13.5488C44.3868 13.6622 44.5834 13.7188 44.8234 13.7188C45.1901 13.7188 45.5001 13.6155 45.7534 13.4088C46.0068 13.1955 46.1334 12.8822 46.1334 12.4688V12.0088L45.4734 12.0288ZM51.8023 9.04885C51.8823 9.04885 51.9757 9.05218 52.0823 9.05885C52.189 9.06551 52.279 9.07885 52.3523 9.09885L52.2423 10.2688C52.1823 10.2555 52.1023 10.2455 52.0023 10.2388C51.909 10.2255 51.8257 10.2188 51.7523 10.2188C51.5523 10.2188 51.359 10.2522 51.1723 10.3188C50.9923 10.3788 50.829 10.4722 50.6823 10.5988C50.5423 10.7188 50.429 10.8755 50.3423 11.0688C50.2623 11.2622 50.2223 11.4922 50.2223 11.7588V14.5688H48.9623V9.14885H49.9323L50.1123 10.0888H50.1723C50.279 9.89551 50.4123 9.72218 50.5723 9.56885C50.7323 9.40885 50.9157 9.28218 51.1223 9.18885C51.3357 9.09551 51.5623 9.04885 51.8023 9.04885ZM55.4569 13.6588C55.6169 13.6588 55.7702 13.6455 55.9169 13.6188C56.0635 13.5855 56.2002 13.5488 56.3269 13.5088V14.4488C56.1935 14.5088 56.0202 14.5588 55.8069 14.5988C55.5935 14.6455 55.3702 14.6688 55.1369 14.6688C54.8302 14.6688 54.5502 14.6188 54.2969 14.5188C54.0502 14.4122 53.8502 14.2322 53.6969 13.9788C53.5502 13.7255 53.4769 13.3722 53.4769 12.9188V10.0988H52.7469V9.54885L53.5469 9.10885L53.9469 7.95885H54.7369V9.14885H56.2769V10.0988H54.7369V12.9088C54.7369 13.1622 54.8035 13.3522 54.9369 13.4788C55.0702 13.5988 55.2435 13.6588 55.4569 13.6588ZM60.3194 9.04885C60.926 9.04885 61.3994 9.20551 61.7394 9.51885C62.086 9.83218 62.2594 10.3388 62.2594 11.0388V14.5688H60.9994V11.2888C60.9994 10.8822 60.9194 10.5788 60.7594 10.3788C60.5994 10.1722 60.346 10.0688 59.9994 10.0688C59.4927 10.0688 59.146 10.2288 58.9594 10.5488C58.7727 10.8622 58.6794 11.3188 58.6794 11.9188V14.5688H57.4194V9.14885H58.3894L58.5694 9.85885H58.6394C58.7594 9.67218 58.906 9.51885 59.0794 9.39885C59.2527 9.27885 59.446 9.19218 59.6594 9.13885C59.8727 9.07885 60.0927 9.04885 60.3194 9.04885ZM66.0154 9.04885C66.5021 9.04885 66.9187 9.14885 67.2654 9.34885C67.6187 9.54218 67.8921 9.82218 68.0854 10.1888C68.2787 10.5488 68.3754 10.9888 68.3754 11.5088V12.1488H64.7954C64.8087 12.6422 64.9454 13.0255 65.2054 13.2988C65.4654 13.5655 65.8254 13.6988 66.2854 13.6988C66.6387 13.6988 66.9521 13.6655 67.2254 13.5988C67.5054 13.5255 67.7921 13.4222 68.0854 13.2888V14.2988C67.8187 14.4255 67.5421 14.5188 67.2554 14.5788C66.9687 14.6388 66.6254 14.6688 66.2254 14.6688C65.6987 14.6688 65.2287 14.5688 64.8154 14.3688C64.4087 14.1622 64.0887 13.8522 63.8554 13.4388C63.6287 13.0255 63.5154 12.5122 63.5154 11.8988C63.5154 11.2788 63.6187 10.7588 63.8254 10.3388C64.0387 9.91218 64.3321 9.59218 64.7054 9.37885C65.0787 9.15885 65.5154 9.04885 66.0154 9.04885ZM66.0154 9.97885C65.6821 9.97885 65.4087 10.0888 65.1954 10.3088C64.9887 10.5222 64.8654 10.8422 64.8254 11.2688H67.1554C67.1554 11.0155 67.1121 10.7922 67.0254 10.5988C66.9454 10.4055 66.8221 10.2555 66.6554 10.1488C66.4887 10.0355 66.2754 9.97885 66.0154 9.97885ZM72.4859 9.04885C72.5659 9.04885 72.6593 9.05218 72.7659 9.05885C72.8726 9.06551 72.9626 9.07885 73.0359 9.09885L72.9259 10.2688C72.8659 10.2555 72.7859 10.2455 72.6859 10.2388C72.5926 10.2255 72.5093 10.2188 72.4359 10.2188C72.2359 10.2188 72.0426 10.2522 71.8559 10.3188C71.6759 10.3788 71.5126 10.4722 71.3659 10.5988C71.2259 10.7188 71.1126 10.8755 71.0259 11.0688C70.9459 11.2622 70.9059 11.4922 70.9059 11.7588V14.5688H69.6459V9.14885H70.6159L70.7959 10.0888H70.8559C70.9626 9.89551 71.0959 9.72218 71.2559 9.56885C71.4159 9.40885 71.5993 9.28218 71.8059 9.18885C72.0193 9.09551 72.2459 9.04885 72.4859 9.04885Z" fill="white"/>
<g clip-path="url(#clip0_976_11963)">
<path d="M66.2431 41.4348C65.6033 41.4496 64.9673 41.3345 64.3738 41.0965C63.7803 40.8584 63.2418 40.5025 62.7912 40.0504C62.3405 39.5983 61.9873 39.0596 61.7529 38.467C61.5185 37.8745 61.408 37.2407 61.4281 36.6043C61.4116 35.9719 61.5243 35.3429 61.7596 34.7552C61.9948 34.1676 62.3476 33.6337 62.7966 33.1859C63.2439 32.7305 63.7809 32.372 64.374 32.1329C64.967 31.8937 65.6034 31.7791 66.2431 31.7961C66.8836 31.7804 67.5196 31.9076 68.1043 32.1685C68.689 32.4293 69.2076 32.8172 69.622 33.3035L68.7941 34.1273C68.4905 33.7454 68.1023 33.4384 67.6598 33.2304C67.2172 33.0223 66.7324 32.9189 66.2431 32.9281C65.7661 32.9165 65.2918 33.002 64.8493 33.1793C64.4067 33.3566 64.0053 33.622 63.6694 33.9592C63.3264 34.3073 63.0585 34.7215 62.8823 35.1763C62.706 35.6312 62.6251 36.1171 62.6445 36.6043C62.6235 37.0932 62.7037 37.5813 62.88 38.0382C63.0563 38.4951 63.325 38.9111 63.6694 39.2605C64.0044 39.5988 64.4058 39.8649 64.8485 40.0423C65.2913 40.2197 65.766 40.3046 66.2431 40.2916C66.7844 40.289 67.3182 40.1659 67.8054 39.9312C68.2927 39.6965 68.7209 39.3563 69.0588 38.9355L69.9261 39.7761C69.4871 40.2983 68.9344 40.7142 68.3098 40.9921C67.6617 41.2881 66.9562 41.4392 66.2431 41.4348ZM72.0829 32.0034V41.2331H70.8891V32.0034H72.0829ZM73.1079 38.0725C73.0949 37.6301 73.1698 37.1895 73.3283 36.776C73.4868 36.3625 73.7257 35.9842 74.0315 35.6628C74.334 35.3508 74.6986 35.1049 75.102 34.9409C75.5053 34.7769 75.9386 34.6983 76.3742 34.7101C76.8081 34.6978 77.2399 34.7762 77.6415 34.9403C78.0431 35.1044 78.4056 35.3505 78.7056 35.6628C79.0144 35.9823 79.2558 36.3602 79.4154 36.774C79.575 37.1879 79.6496 37.6294 79.6348 38.0725C79.6512 38.5157 79.5773 38.9577 79.4176 39.3718C79.258 39.7859 79.0158 40.1636 78.7056 40.4822C78.4065 40.7956 78.0441 41.0425 77.6423 41.2066C77.2405 41.3708 76.8083 41.4486 76.3742 41.4348C75.9384 41.4481 75.5047 41.3701 75.1012 41.206C74.6976 41.0419 74.3332 40.7953 74.0315 40.4822C73.7257 40.1608 73.4868 39.7825 73.3283 39.3689C73.1698 38.9554 73.0949 38.5149 73.1079 38.0725ZM74.3018 38.0725C74.2744 38.6786 74.4889 39.2708 74.8987 39.72C75.0882 39.9202 75.3169 40.0797 75.5706 40.1887C75.8244 40.2977 76.0978 40.3539 76.3742 40.3539C76.6505 40.3539 76.924 40.2977 77.1777 40.1887C77.4314 40.0797 77.6601 39.9202 77.8496 39.72C78.2594 39.2708 78.474 38.6786 78.4466 38.0725C78.4728 37.47 78.2582 36.8816 77.8496 36.4361C77.6619 36.233 77.4338 36.0709 77.1798 35.96C76.9258 35.8491 76.6515 35.7918 76.3742 35.7918C76.0968 35.7918 75.8225 35.8491 75.5685 35.96C75.3146 36.0709 75.0865 36.233 74.8987 36.4361C74.4901 36.8816 74.2755 37.47 74.3018 38.0725ZM86.2237 41.2331H85.0974V40.3533H85.0411C84.8397 40.6822 84.5514 40.9497 84.2076 41.1266C83.8504 41.3281 83.4469 41.4343 83.0363 41.4348C82.707 41.4561 82.3769 41.4082 82.0674 41.2943C81.7579 41.1803 81.4759 41.0029 81.2398 40.7736C80.7936 40.2483 80.5695 39.5714 80.6147 38.8851V34.9231H81.803V38.8122C81.7781 39.0228 81.8018 39.2362 81.8723 39.4362C81.9427 39.6363 82.058 39.8178 82.2095 39.9669C82.3609 40.116 82.5445 40.2287 82.7463 40.2967C82.9481 40.3646 83.1629 40.3859 83.3742 40.3589C83.6022 40.3628 83.8281 40.3143 84.0342 40.2171C84.2403 40.1199 84.4211 39.9766 84.5624 39.7985C84.8836 39.4135 85.0537 38.9257 85.0411 38.4255V34.9231H86.235L86.2237 41.2331ZM90.2559 41.4348C89.8506 41.4348 89.45 41.3476 89.0817 41.1793C88.7133 41.011 88.3858 40.7656 88.1215 40.4598C87.5299 39.8052 87.2081 38.9527 87.2205 38.0725C87.2012 37.1968 87.5149 36.3461 88.099 35.6908C88.3613 35.3822 88.6882 35.1345 89.057 34.9651C89.4257 34.7957 89.8272 34.7087 90.2334 34.7101C90.6776 34.7026 91.1167 34.8047 91.5117 35.0071C91.8735 35.1846 92.1808 35.4556 92.4015 35.7917H92.4522L92.424 34.9231V32.0034H93.6123V41.2331H92.486V40.3533H92.4353C92.2146 40.6894 91.9073 40.9603 91.5455 41.1378C91.1472 41.3421 90.7039 41.4442 90.2559 41.4348ZM90.453 40.3533C90.7248 40.362 90.9951 40.3096 91.2437 40.2C91.4924 40.0903 91.7129 39.9263 91.889 39.72C92.2829 39.2635 92.4846 38.6733 92.4522 38.0725C92.4794 37.4758 92.2781 36.891 91.889 36.4361C91.7135 36.2285 91.4933 36.0627 91.2447 35.9512C90.9962 35.8396 90.7256 35.7851 90.453 35.7917C90.1807 35.7875 89.9109 35.8431 89.6627 35.9545C89.4145 36.0659 89.194 36.2303 89.0169 36.4361C88.6278 36.891 88.4266 37.4758 88.4538 38.0725C88.4225 38.6698 88.6243 39.256 89.0169 39.7088C89.194 39.9147 89.4145 40.0791 89.6627 40.1905C89.9109 40.3019 90.1807 40.3575 90.453 40.3533Z" fill="white"/>
<path d="M21.0435 41.4347C19.6422 41.4393 18.2955 40.8943 17.2952 39.9177C16.2948 38.9412 15.7214 37.6118 15.6992 36.2175C15.7214 34.8232 16.2948 33.4937 17.2952 32.5172C18.2955 31.5406 19.6422 30.9956 21.0435 31.0002C21.7113 30.9891 22.3745 31.1108 22.9944 31.3581C23.6142 31.6054 24.1782 31.9734 24.6533 32.4404L23.634 33.4435C22.939 32.7776 22.0083 32.4111 21.0435 32.4236C20.544 32.4221 20.0492 32.5194 19.5878 32.71C19.1265 32.9005 18.7078 33.1804 18.3562 33.5335C18.0045 33.8865 17.7269 34.3056 17.5396 34.7664C17.3522 35.2272 17.2588 35.7204 17.2648 36.2175C17.2588 36.7145 17.3522 37.2077 17.5396 37.6685C17.7269 38.1293 18.0045 38.5484 18.3562 38.9014C18.7078 39.2545 19.1265 39.5344 19.5878 39.725C20.0492 39.9155 20.544 40.0128 21.0435 40.0113C21.5356 40.0314 22.0265 39.9485 22.4843 39.768C22.9422 39.5875 23.3569 39.3134 23.7016 38.9634C24.1611 38.4702 24.4373 37.8355 24.4844 37.1645H21.0435V35.7467H25.8866C25.9395 36.0407 25.964 36.3391 25.9599 36.6378C25.998 37.8676 25.549 39.063 24.7097 39.9665C24.2373 40.4548 23.6664 40.8381 23.0345 41.0911C22.4027 41.3442 21.7241 41.4613 21.0435 41.4347Z" fill="#4285F4"/>
<path d="M33.4492 38.0717C33.4676 38.52 33.3949 38.9673 33.2353 39.3869C33.0756 39.8065 32.8324 40.1896 32.5202 40.5133C32.208 40.8369 31.8333 41.0945 31.4186 41.2704C31.0039 41.4463 30.5577 41.537 30.1068 41.537C29.656 41.537 29.2098 41.4463 28.7951 41.2704C28.3804 41.0945 28.0056 40.8369 27.6935 40.5133C27.3813 40.1896 27.1381 39.8065 26.9784 39.3869C26.8188 38.9673 26.746 38.52 26.7645 38.0717C26.746 37.6235 26.8188 37.1761 26.9784 36.7566C27.1381 36.337 27.3813 35.9539 27.6935 35.6302C28.0056 35.3065 28.3804 35.049 28.7951 34.8731C29.2098 34.6971 29.656 34.6064 30.1068 34.6064C30.5577 34.6064 31.0039 34.6971 31.4186 34.8731C31.8333 35.049 32.208 35.3065 32.5202 35.6302C32.8324 35.9539 33.0756 36.337 33.2353 36.7566C33.3949 37.1761 33.4676 37.6235 33.4492 38.0717ZM31.985 38.0717C32.0098 37.8114 31.9797 37.5488 31.8966 37.3007C31.8135 37.0526 31.6793 36.8246 31.5025 36.6311C31.3257 36.4377 31.1102 36.2831 30.8698 36.1773C30.6295 36.0716 30.3696 36.017 30.1068 36.017C29.8441 36.017 29.5842 36.0716 29.3438 36.1773C29.1035 36.2831 28.888 36.4377 28.7112 36.6311C28.5344 36.8246 28.4002 37.0526 28.3171 37.3007C28.234 37.5488 28.2039 37.8114 28.2287 38.0717C28.2039 38.3321 28.234 38.5947 28.3171 38.8428C28.4002 39.0908 28.5344 39.3189 28.7112 39.5123C28.888 39.7058 29.1035 39.8604 29.3438 39.9661C29.5842 40.0719 29.8441 40.1265 30.1068 40.1265C30.3696 40.1265 30.6295 40.0719 30.8698 39.9661C31.1102 39.8604 31.3257 39.7058 31.5025 39.5123C31.6793 39.3189 31.8135 39.0908 31.8966 38.8428C31.9797 38.5947 32.0098 38.3321 31.985 38.0717Z" fill="#EA4335"/>
<path d="M40.9453 38.0717C40.9637 38.52 40.891 38.9673 40.7314 39.3869C40.5717 39.8065 40.3285 40.1896 40.0163 40.5133C39.7041 40.8369 39.3294 41.0945 38.9147 41.2704C38.5 41.4463 38.0538 41.537 37.6029 41.537C37.1521 41.537 36.7059 41.4463 36.2912 41.2704C35.8764 41.0945 35.5017 40.8369 35.1895 40.5133C34.8774 40.1896 34.6342 39.8065 34.4745 39.3869C34.3149 38.9673 34.2421 38.52 34.2606 38.0717C34.2421 37.6235 34.3149 37.1761 34.4745 36.7566C34.6342 36.337 34.8774 35.9539 35.1895 35.6302C35.5017 35.3065 35.8764 35.049 36.2912 34.8731C36.7059 34.6971 37.1521 34.6064 37.6029 34.6064C38.0538 34.6064 38.5 34.6971 38.9147 34.8731C39.3294 35.049 39.7041 35.3065 40.0163 35.6302C40.3285 35.9539 40.5717 36.337 40.7314 36.7566C40.891 37.1761 40.9637 37.6235 40.9453 38.0717ZM39.4811 38.0717C39.5011 37.8138 39.4674 37.5544 39.382 37.3101C39.2966 37.0657 39.1613 36.8415 38.9847 36.6516C38.808 36.4617 38.5939 36.3102 38.3556 36.2066C38.1174 36.103 37.8601 36.0495 37.6001 36.0495C37.3401 36.0495 37.0829 36.103 36.8446 36.2066C36.6064 36.3102 36.3922 36.4617 36.2156 36.6516C36.039 36.8415 35.9037 37.0657 35.8183 37.3101C35.7328 37.5544 35.6991 37.8138 35.7192 38.0717C35.6991 38.3297 35.7328 38.589 35.8183 38.8334C35.9037 39.0778 36.039 39.302 36.2156 39.4919C36.3922 39.6818 36.6064 39.8333 36.8446 39.9369C37.0829 40.0405 37.3401 40.094 37.6001 40.094C37.8601 40.094 38.1174 40.0405 38.3556 39.9369C38.5939 39.8333 38.808 39.6818 38.9847 39.4919C39.1613 39.302 39.2966 39.0778 39.382 38.8334C39.4674 38.589 39.5011 38.3297 39.4811 38.0717Z" fill="#FBBC04"/>
<path d="M48.2507 34.9223V40.9522C48.2507 43.4291 46.7696 44.449 45.0238 44.449C44.3813 44.4525 43.7523 44.2658 43.2168 43.9125C42.6813 43.5593 42.2635 43.0555 42.0166 42.4652L43.3175 41.9048C43.4485 42.2484 43.679 42.5457 43.9796 42.7591C44.2803 42.9725 44.6378 43.0926 45.0069 43.1041C46.1332 43.1041 46.8203 42.4148 46.8203 41.1315V40.6496H46.7865C46.5612 40.9025 46.2834 41.1037 45.9722 41.2392C45.661 41.3746 45.324 41.4411 44.9844 41.4341C44.0882 41.4341 43.2288 41.0799 42.5951 40.4493C41.9615 39.8187 41.6055 38.9635 41.6055 38.0717C41.6055 37.18 41.9615 36.3248 42.5951 35.6942C43.2288 35.0636 44.0882 34.7094 44.9844 34.7094C45.3228 34.7032 45.6586 34.7689 45.9694 34.9023C46.2802 35.0357 46.5588 35.2336 46.7865 35.4827H46.8372V34.9223H48.2507ZM46.9385 38.0942C46.9592 37.8401 46.9283 37.5845 46.8476 37.3425C46.767 37.1006 46.6382 36.8773 46.469 36.6859C46.2998 36.4945 46.0936 36.339 45.8628 36.2286C45.6319 36.1181 45.381 36.0551 45.1252 36.0431C44.8653 36.0524 44.6098 36.1131 44.3738 36.2217C44.1377 36.3302 43.9256 36.4844 43.7501 36.6753C43.5745 36.8662 43.4388 37.09 43.351 37.3336C43.2632 37.5772 43.225 37.8357 43.2386 38.0942C43.2265 38.3508 43.266 38.6073 43.3547 38.8487C43.4434 39.09 43.5796 39.3113 43.7552 39.4997C43.9309 39.688 44.1425 39.8397 44.3777 39.9457C44.6129 40.0517 44.867 40.11 45.1252 40.1172C45.38 40.1082 45.6304 40.0478 45.8612 39.9398C46.0919 39.8318 46.2983 39.6784 46.4678 39.4887C46.6373 39.2991 46.7664 39.0773 46.8473 38.8366C46.9282 38.596 46.9592 38.3415 46.9385 38.0886V38.0942Z" fill="#4285F4"/>
<path d="M50.8578 31.3589V41.233H49.3711V31.3589H50.8578Z" fill="#34A853"/>
<path d="M56.7147 39.181L57.8748 39.9656C57.5651 40.4256 57.146 40.8023 56.6548 41.0623C56.1636 41.3224 55.6154 41.4577 55.0591 41.4562C54.6164 41.4625 54.1772 41.3794 53.7678 41.2119C53.3584 41.0443 52.9874 40.7959 52.6773 40.4816C52.3672 40.1672 52.1245 39.7935 51.9637 39.3831C51.803 38.9727 51.7276 38.5341 51.7421 38.0939C51.6762 37.337 51.8924 36.5825 52.3496 35.9741C52.8069 35.3658 53.4731 34.9461 54.2213 34.7951C54.9694 34.6441 55.7473 34.7724 56.4066 35.1555C57.0658 35.5385 57.5604 36.1496 57.796 36.8722L57.948 37.2589L53.4428 39.1138C53.5832 39.4278 53.8148 39.6928 54.1079 39.8745C54.401 40.0563 54.7421 40.1466 55.0872 40.1337C55.4176 40.1263 55.7406 40.0348 56.0255 39.8681C56.3104 39.7013 56.5476 39.4648 56.7147 39.181ZM53.1612 37.9706L56.191 36.7265C56.0697 36.5033 55.886 36.32 55.6621 36.1986C55.4382 36.0773 55.1837 36.0232 54.9295 36.0428C54.6861 36.0536 54.4473 36.1121 54.2266 36.2149C54.006 36.3176 53.8078 36.4627 53.6436 36.6418C53.4793 36.8208 53.3522 37.0304 53.2694 37.2584C53.1866 37.4864 53.1499 37.7284 53.1612 37.9706Z" fill="#EA4335"/>
</g>
<defs>
<clipPath id="clip0_976_11963">
<rect width="77.9122" height="13.4483" fill="white" transform="translate(15.6992 31)"/>
</clipPath>
</defs>
</svg>
