<svg width="68" height="68" viewBox="0 0 68 68" fill="none" xmlns="http://www.w3.org/2000/svg">
<path d="M47.1855 0.5H21.627C10.1833 0.5 0.90625 9.77701 0.90625 21.2208V46.7792C0.90625 58.223 10.1833 67.5 21.627 67.5H47.1855C58.6292 67.5 67.9062 58.223 67.9062 46.7792V21.2208C67.9062 9.77701 58.6292 0.5 47.1855 0.5Z" fill="white"/>
<path d="M34.4086 15.8184C24.4086 15.8184 16.2266 24.0003 16.2266 34.0003C16.2266 44.0003 24.4086 52.1823 34.4086 52.1823C44.4086 52.1823 52.5906 44.0003 52.5906 34.0003C52.5906 24.0003 44.4086 15.8184 34.4086 15.8184ZM20.4086 37.6364C20.0446 36.3644 19.8626 35.2733 19.8626 34.0003C19.8626 32.7273 20.0446 31.6363 20.4086 30.3643H23.8626C23.4996 32.7748 23.4996 35.2259 23.8626 37.6364H20.4086ZM21.8626 41.2733H24.4086C24.7716 42.9093 25.3176 44.5463 26.2266 46.0003C24.4086 44.7273 22.9536 43.0913 21.8626 41.2733ZM24.4086 26.7274H21.8626C22.9536 24.9094 24.4086 23.2733 26.2266 22.0003C25.3176 23.4553 24.7716 25.0914 24.4086 26.7274ZM32.5906 48.0003C30.4086 46.3643 28.7716 44.0003 28.2266 41.2733H32.5906V48.0003ZM32.5906 37.6364H27.3176C27.1356 36.3644 27.1356 35.2733 27.1356 34.0003C27.1356 32.7273 27.1356 31.6363 27.3176 30.3643H32.5906V37.6364ZM32.5906 26.7274H28.2266C28.7716 24.0004 30.4086 21.6363 32.5906 20.0003V26.7274ZM46.9536 26.7274H44.4086C44.0446 25.0914 43.4996 23.4553 42.5906 22.0003C44.4086 23.2733 45.8626 24.9094 46.9536 26.7274ZM36.2266 20.0003C38.4086 21.6363 40.0446 24.0004 40.5906 26.7274H36.2266V20.0003ZM36.2266 48.0003V41.2733H40.5906C40.0446 44.0003 38.4086 46.3643 36.2266 48.0003ZM41.4996 37.6364H36.2266V30.3643H41.4996C41.6806 32.785 41.6806 35.2157 41.4996 37.6364ZM42.7716 46.0003C43.4996 44.5463 44.0446 42.9093 44.5906 41.2733H47.1356C45.8626 43.0913 44.4086 44.7273 42.7716 46.0003ZM45.1356 37.6364C45.4996 35.226 45.4996 32.7747 45.1356 30.3643H48.5906C49.3176 32.7338 49.3176 35.2669 48.5906 37.6364H45.1356Z" fill="#FFAD00"/>
</svg>
