<svg width="26" height="24" viewBox="0 0 26 24" fill="none" xmlns="http://www.w3.org/2000/svg">
<path d="M13.0001 8.39016C13.3046 8.39016 13.6024 8.29984 13.8556 8.13062C14.1089 7.9614 14.3063 7.72089 14.4228 7.43949C14.5394 7.15809 14.5699 6.84845 14.5105 6.54972C14.451 6.25099 14.3044 5.97659 14.089 5.76121C13.8736 5.54584 13.5992 5.39917 13.3005 5.33975C13.0018 5.28033 12.6921 5.31082 12.4107 5.42738C12.1293 5.54394 11.8888 5.74133 11.7196 5.99458C11.5504 6.24783 11.4601 6.54557 11.4601 6.85016C11.4601 7.25859 11.6223 7.6503 11.9111 7.9391C12.1999 8.22791 12.5916 8.39016 13.0001 8.39016ZM12.7341 6.58418C12.8051 6.51319 12.9007 6.47236 13.001 6.47016C13.0758 6.47035 13.149 6.49262 13.2112 6.5342C13.2737 6.57595 13.3224 6.6353 13.3511 6.70474C13.3799 6.77417 13.3874 6.85058 13.3728 6.92429C13.3581 6.998 13.3219 7.06571 13.2688 7.11886C13.2156 7.172 13.1479 7.20819 13.0742 7.22286C13.0005 7.23752 12.9241 7.22999 12.8546 7.20123C12.7852 7.17247 12.7259 7.12376 12.6841 7.06127C12.6425 6.99905 12.6203 6.92595 12.6201 6.85113C12.6223 6.75079 12.6631 6.65516 12.7341 6.58418Z" fill="#110302" stroke="#110302" stroke-width="0.2"/>
<path d="M7.3126 11.9852V11.9847C7.31701 11.0885 7.55267 10.2085 7.99678 9.43005C8.43145 8.66813 9.05139 8.02864 9.79876 7.57059C9.79766 6.41509 10.0213 5.2702 10.4573 4.19974C10.9005 3.11169 11.5545 2.12201 12.3816 1.28761L12.3834 1.28579L12.3834 1.28581L12.613 1.0658C12.6131 1.06566 12.6133 1.06553 12.6134 1.0654C12.7218 0.959377 12.8674 0.9 13.019 0.9C13.1706 0.9 13.3162 0.959377 13.4246 1.0654C13.4247 1.06553 13.4249 1.06566 13.425 1.0658L13.6546 1.28581L13.6566 1.28771L13.6565 1.28774C15.3101 2.96191 16.2373 5.21925 16.2391 7.57082C16.983 8.03117 17.5993 8.67172 18.0305 9.43357C18.4711 10.2119 18.7038 11.0906 18.7062 11.9849L18.7062 11.9852V14.2124V14.2126C18.706 14.3343 18.6681 14.453 18.5977 14.5524C18.5273 14.6518 18.4279 14.7269 18.3131 14.7675L18.297 14.7732H18.2798H18.1272C18.0366 14.7749 17.9468 14.7547 17.8657 14.7141C17.7847 14.6736 17.7147 14.614 17.6617 14.5406L16.5977 13.1314C16.5975 13.1312 16.5974 13.131 16.5972 13.1308C16.3172 12.7709 15.9941 12.4468 15.6354 12.1658L15.5081 12.961L15.5078 12.9629L15.5078 12.9629C15.4835 13.0986 15.4123 13.2216 15.3067 13.3103C15.2011 13.399 15.0677 13.4479 14.9298 13.4484L14.9294 13.4484H11.0894H11.089C10.9511 13.4479 10.8177 13.399 10.7121 13.3103C10.6065 13.2216 10.5353 13.0986 10.511 12.9629L10.5106 12.961L10.5107 12.961L10.3836 12.1672C10.0239 12.4536 9.70081 12.7836 9.42186 13.1497C9.42182 13.1497 9.42178 13.1498 9.42174 13.1498L8.3571 14.5597C8.3041 14.6332 8.23409 14.6928 8.15305 14.7333C8.07195 14.7739 7.98224 14.7941 7.8916 14.7924H7.739H7.72184L7.70566 14.7867C7.59087 14.7461 7.49145 14.671 7.42107 14.5716M7.3126 11.9852L7.42107 14.5716C7.42107 14.5716 7.42107 14.5716 7.42107 14.5716M7.3126 11.9852L7.3126 14.2316L7.3126 14.2318M7.3126 11.9852L7.3126 14.2318M7.42107 14.5716C7.35069 14.4722 7.3128 14.3535 7.3126 14.2318M7.42107 14.5716L7.3126 14.2318M16.1171 8.93583C16.5312 9.29083 16.8697 9.72656 17.1114 10.2171C17.3824 10.7673 17.5246 11.372 17.527 11.9854C17.527 11.9854 17.527 11.9855 17.527 11.9856L17.527 12.5002L17.5049 12.4717C17.0395 11.8513 16.4675 11.3188 15.8157 10.8991L16.1171 8.93583ZM12.9998 2.25261C13.7799 3.09177 14.3636 4.09451 14.708 5.18821C15.0629 6.31544 15.1541 7.50915 14.9746 8.67722L14.9745 8.67732L14.6098 11.0673L14.6097 11.0677L14.4119 12.3268H11.5877L11.3899 11.0677L11.3898 11.0673L11.0251 8.67732L11.025 8.67722C10.8455 7.50915 10.9367 6.31544 11.2916 5.18821C11.636 4.09451 12.2197 3.09177 12.9998 2.25261ZM9.86332 8.88782L10.1647 10.8511C9.51288 11.2708 8.94086 11.8033 8.47551 12.4237L8.4534 12.4522L8.4534 11.9852L8.45339 11.9844C8.44863 11.3631 8.58732 10.7491 8.85867 10.1902C9.10095 9.69107 9.44316 9.24794 9.86332 8.88782Z" fill="#110302" stroke="#110302" stroke-width="0.2"/>
<path d="M11.3543 15.614H11.3536L11.3551 15.6259C11.4703 16.5833 11.9065 17.4734 12.5924 18.151C12.6446 18.2062 12.7074 18.2503 12.7772 18.2805C12.8475 18.3109 12.9233 18.3266 12.9999 18.3266C13.0766 18.3266 13.1524 18.3109 13.2227 18.2805C13.2925 18.2503 13.3553 18.2062 13.4075 18.151C14.0934 17.4734 14.5296 16.5833 14.6448 15.6259L14.6455 15.626V15.614C14.6455 15.1775 14.4722 14.759 14.1636 14.4503C13.855 14.1417 13.4364 13.9684 12.9999 13.9684C12.5635 13.9684 12.1449 14.1417 11.8363 14.4503C11.5277 14.759 11.3543 15.1775 11.3543 15.614ZM13.3433 15.2706C13.4332 15.3605 13.4842 15.4819 13.4855 15.6089C13.4373 16.0575 13.2692 16.4841 12.9999 16.8443C12.7306 16.4841 12.5626 16.0575 12.5144 15.6089C12.5157 15.4819 12.5667 15.3605 12.6566 15.2706C12.7476 15.1795 12.8712 15.1284 12.9999 15.1284C13.1287 15.1284 13.2522 15.1795 13.3433 15.2706Z" fill="#110302" stroke="#110302" stroke-width="0.2"/>
<path d="M1.86 19.0852H1.48C1.32617 19.0852 1.17865 19.1463 1.06988 19.255C0.961107 19.3638 0.9 19.5113 0.9 19.6652V21.0092C0.9 21.5704 1.12294 22.1086 1.51976 22.5054C1.91659 22.9022 2.4548 23.1252 3.016 23.1252H22.984C23.5452 23.1252 24.0834 22.9022 24.4802 22.5054C24.8771 22.1086 25.1 21.5704 25.1 21.0092V19.6652C25.1 19.5113 25.0389 19.3638 24.9301 19.255C24.8214 19.1463 24.6738 19.0852 24.52 19.0852H24.14V6.63796L24.14 6.63744C24.1373 6.11874 23.9294 5.62219 23.5617 5.25635C23.1939 4.89051 22.6963 4.68515 22.1776 4.68516H17.8C17.6462 4.68516 17.4986 4.74626 17.3899 4.85503C17.2811 4.96381 17.22 5.11133 17.22 5.26516C17.22 5.41898 17.2811 5.56651 17.3899 5.67528C17.4986 5.78405 17.6462 5.84516 17.8 5.84516H22.1776C22.3889 5.84514 22.5918 5.92851 22.742 6.07715C22.8921 6.22566 22.9776 6.42736 22.98 6.6385V19.0852H3.02V6.6385C3.02238 6.42736 3.1079 6.22566 3.25801 6.07715C3.40824 5.92851 3.61106 5.84514 3.82239 5.84516H3.8224H8.2C8.35383 5.84516 8.50135 5.78405 8.61012 5.67528C8.71889 5.56651 8.78 5.41898 8.78 5.26516C8.78 5.11133 8.71889 4.96381 8.61012 4.85503C8.50135 4.74626 8.35383 4.68516 8.2 4.68516H3.8224C3.30369 4.68515 2.80607 4.89051 2.43834 5.25635C2.07061 5.62219 1.86268 6.11873 1.86 6.63744H1.86V6.63796V19.0852ZM23.94 21.0092C23.94 21.1347 23.9153 21.259 23.8672 21.375C23.8192 21.491 23.7488 21.5964 23.66 21.6852C23.5712 21.7739 23.4658 21.8443 23.3498 21.8924C23.2339 21.9404 23.1095 21.9652 22.984 21.9652H3.016C2.89046 21.9652 2.76614 21.9404 2.65016 21.8924C2.53417 21.8443 2.42878 21.7739 2.34001 21.6852C2.25123 21.5964 2.18081 21.491 2.13277 21.375C2.08473 21.259 2.06 21.1347 2.06 21.0092V20.2452H23.94V21.0092Z" fill="#110302" stroke="#110302" stroke-width="0.2"/>
</svg>
