<svg width="11" height="10" viewBox="0 0 11 10" fill="none" xmlns="http://www.w3.org/2000/svg">
<path fill-rule="evenodd" clip-rule="evenodd" d="M4.95927 0.395804C5.22854 0.126529 5.66512 0.126529 5.9344 0.395804L9.9566 4.41801C10.0859 4.54732 10.1586 4.7227 10.1586 4.90557C10.1586 5.08844 10.0859 5.26383 9.9566 5.39314L5.9344 9.41534C5.66512 9.68461 5.22854 9.68461 4.95927 9.41534C4.68999 9.14606 4.68999 8.70948 4.95927 8.44021L7.80438 5.59509H1.42463C1.04382 5.59509 0.735107 5.28638 0.735107 4.90557C0.735107 4.52476 1.04382 4.21605 1.42463 4.21605H7.80438L4.95927 1.37093C4.68999 1.10166 4.68999 0.665078 4.95927 0.395804Z" fill="white"/>
</svg>
