<svg width="24" height="36" viewBox="0 0 24 36" fill="none" xmlns="http://www.w3.org/2000/svg">
<path opacity="0.58" d="M7.01017 11.7108H16.9861C17.709 11.7108 18.215 11.1325 18.215 10.4819V10.3373C18.215 9.61442 17.6367 9.1084 16.9861 9.1084H7.01017C6.28727 9.1084 5.78125 9.68671 5.78125 10.3373V10.4819C5.78125 11.1325 6.28727 11.7108 7.01017 11.7108Z" fill="#FFAD00"/>
<path opacity="0.58" d="M11.3505 7.51786H12.6517H16.6999C17.9288 5.56605 18.3625 3.10822 17.6396 0.650391C15.0372 1.30099 13.0131 3.03593 12.0011 5.2769C10.989 3.03593 8.96491 1.30099 6.3625 0.650391C5.63961 3.10822 6.07334 5.56605 7.30226 7.51786H11.3505Z" fill="#FFAD00"/>
<path opacity="0.58" d="M10.4805 22.0482C10.4805 22.3373 10.5528 22.5542 10.7696 22.7711C10.9142 22.9157 11.2757 23.1325 11.7817 23.2771V21.0361C11.4202 21.0361 11.0588 21.1807 10.8419 21.3976C10.5528 21.4699 10.4805 21.759 10.4805 22.0482Z" fill="#FFAD00"/>
<path opacity="0.58" d="M12.5742 25.0122V27.3255C13.008 27.2532 13.2971 27.1809 13.5863 26.964C13.8031 26.7471 13.9477 26.5303 13.9477 26.2411C13.9477 25.952 13.8754 25.6628 13.6586 25.5182C13.4417 25.3014 13.0802 25.1568 12.5742 25.0122Z" fill="#FFAD00"/>
<path d="M16.3374 13.2285H7.66265C3.18072 17.2767 0 22.7707 0 27.9032C0 34.5538 5.3494 35.349 12 35.349C18.6506 35.349 24 34.5538 24 27.9032C24 22.7707 20.8193 17.2767 16.3374 13.2285ZM14.6747 27.9755C14.1687 28.4815 13.4458 28.6984 12.5783 28.7707V29.7104H11.7831V28.7707C10.6265 28.6261 9.54217 28.1924 8.60241 27.3249L9.54217 26.1683C10.2651 26.8189 10.988 27.1803 11.7831 27.3249V24.7948C10.7711 24.5779 10.1205 24.2888 9.61446 23.855C9.18072 23.4936 8.96386 22.9153 8.96386 22.1924C8.96386 21.4695 9.25301 20.8189 9.75904 20.3851C10.2651 19.8791 10.988 19.6623 11.7831 19.59V18.9394H12.5783V19.59C13.5181 19.6623 14.4578 19.9514 15.253 20.5297L14.3855 21.7586C13.8072 21.3249 13.2289 21.108 12.506 21.0357V23.4936H12.5783C13.5904 23.7104 14.3133 24.0719 14.747 24.4333C15.1807 24.8671 15.4699 25.3731 15.4699 26.1683C15.4699 26.8912 15.1807 27.4695 14.6747 27.9755Z" fill="#FFAD00"/>
</svg>
