<svg width="26" height="26" viewBox="0 0 26 26" fill="none" xmlns="http://www.w3.org/2000/svg">
<path d="M12.9989 19.2314C15.1477 19.2314 17.2427 17.781 18.6931 16.1157C17.2427 14.5041 15.1477 13 12.9989 13C10.8501 13 8.7551 14.4504 7.30469 16.1157C8.7551 17.781 10.8501 19.2314 12.9989 19.2314ZM12.9989 13.6446C14.3419 13.6446 15.47 14.7727 15.47 16.1157C15.47 17.4587 14.3419 18.5868 12.9989 18.5868C11.6559 18.5868 10.5278 17.4587 10.5278 16.1157C10.5278 14.7727 11.6559 13.6446 12.9989 13.6446Z" fill="#FFAD00"/>
<path opacity="0.7" d="M24.3347 6.07024H25.9463V2.73967C25.9463 1.23554 24.7107 0 23.2066 0H2.73967C1.23554 0 0 1.23554 0 2.73967V6.07024H1.61157H24.3347ZM15.0413 3.76033C14.8802 3.92148 14.6653 3.9752 14.4504 3.9752C14.3967 3.9752 14.2892 3.9752 14.2355 3.9752C13.6983 3.9752 13.1611 3.9752 12.624 3.9752C12.1942 3.9752 11.8182 3.59917 11.8182 3.16942C11.8182 2.95454 11.9256 2.73967 12.0331 2.57851C12.1942 2.41735 12.4091 2.36363 12.624 2.36363C12.6777 2.36363 12.7851 2.36363 12.8388 2.36363C13.376 2.36363 13.9132 2.36363 14.4504 2.36363C14.8802 2.36363 15.2562 2.73967 15.2562 3.16942C15.2562 3.38429 15.1488 3.65289 15.0413 3.76033ZM18.8016 3.76033C18.6405 3.92148 18.4256 3.9752 18.2107 3.9752C18.157 3.9752 18.0496 3.9752 17.9959 3.9752C17.4587 3.9752 16.9215 3.9752 16.3843 3.9752C15.9545 3.9752 15.5785 3.59917 15.5785 3.16942C15.5785 2.95454 15.6859 2.73967 15.7934 2.57851C15.9545 2.41735 16.1694 2.36363 16.3843 2.36363C16.438 2.36363 16.5454 2.36363 16.5992 2.36363C17.1364 2.36363 17.6735 2.36363 18.2107 2.36363C18.6405 2.36363 19.0165 2.73967 19.0165 3.16942C19.0165 3.38429 18.9091 3.65289 18.8016 3.76033ZM22.5082 3.76033C22.3471 3.92148 22.1322 3.9752 21.9173 3.9752C21.8636 3.9752 21.7562 3.9752 21.7025 3.9752C21.1653 3.9752 20.6281 3.9752 20.0909 3.9752C19.6611 3.9752 19.2851 3.59917 19.2851 3.16942C19.2851 2.95454 19.3925 2.73967 19.5 2.57851C19.6611 2.41735 19.876 2.36363 20.0909 2.36363C20.1446 2.36363 20.2521 2.36363 20.3058 2.36363C20.843 2.36363 21.3801 2.36363 21.9173 2.36363C22.3471 2.36363 22.7231 2.73967 22.7231 3.16942C22.7768 3.38429 22.6694 3.65289 22.5082 3.76033Z" fill="#FFAD00"/>
<path d="M1.66235 7.68213H0.0507812V23.2606C0.0507812 24.7648 1.28632 26.0003 2.79045 26.0003H23.2574C24.7615 26.0003 25.997 24.7648 25.997 23.2606V7.68213H24.3855H1.66235ZM5.69127 15.5788C7.41028 13.3763 10.1499 11.3887 12.9971 11.3887C15.8442 11.3887 18.5838 13.3763 20.3028 15.5251C20.5714 15.8474 20.5714 16.3309 20.3028 16.6532C18.6375 18.8557 15.8442 20.7896 12.9971 20.7896C10.1499 20.7896 7.41028 18.802 5.69127 16.6532C5.42268 16.3309 5.42268 15.9549 5.69127 15.5788Z" fill="#FFAD00" fill-opacity="0.58"/>
<path d="M12.9962 16.9749C13.4797 16.9749 13.8557 16.5988 13.8557 16.1154C13.8557 15.6319 13.4797 15.2559 12.9962 15.2559C12.5128 15.2559 12.1367 15.6319 12.1367 16.1154C12.1367 16.5988 12.5128 16.9749 12.9962 16.9749Z" fill="#FFAD00"/>
</svg>
