<svg width="24" height="39" viewBox="0 0 24 39" fill="none" xmlns="http://www.w3.org/2000/svg">
<path opacity="0.58" d="M20.15 0H3.25C2.38836 0.00103211 1.56231 0.343773 0.953043 0.953043C0.343773 1.56231 0.00103211 2.38836 0 3.25V35.75C0.00103211 36.6116 0.343773 37.4377 0.953043 38.047C1.56231 38.6562 2.38836 38.999 3.25 39H20.15C21.0116 38.999 21.8377 38.6562 22.447 38.047C23.0562 37.4377 23.399 36.6116 23.4 35.75V3.25C23.399 2.38836 23.0562 1.56231 22.447 0.953043C21.8377 0.343773 21.0116 0.00103211 20.15 0ZM22.1 31.85C22.099 32.7116 21.7562 33.5377 21.147 34.147C20.5377 34.7562 19.7116 35.099 18.85 35.1H4.55C3.68836 35.099 2.86231 34.7562 2.25304 34.147C1.64377 33.5377 1.30103 32.7116 1.3 31.85V3.25C1.3 2.73283 1.50545 2.23684 1.87114 1.87114C2.23684 1.50545 2.73283 1.3 3.25 1.3H6.6196C6.54262 1.50817 6.50215 1.72806 6.5 1.95C6.5 2.46717 6.70545 2.96316 7.07114 3.32886C7.43684 3.69455 7.93283 3.9 8.45 3.9H14.95C15.4672 3.9 15.9632 3.69455 16.3289 3.32886C16.6946 2.96316 16.9 2.46717 16.9 1.95C16.8978 1.72806 16.8574 1.50817 16.7804 1.3H20.15C20.6672 1.3 21.1632 1.50545 21.5289 1.87114C21.8946 2.23684 22.1 2.73283 22.1 3.25V31.85Z" fill="#FFAD00"/>
<path d="M18.5419 31.2972C18.4477 31.239 18.3402 31.2059 18.2297 31.2009C18.1191 31.1959 18.0091 31.2192 17.9101 31.2686L16.6101 31.9186C16.5019 31.9725 16.4109 32.0555 16.3473 32.1583C16.2837 32.261 16.25 32.3795 16.25 32.5003C16.25 32.6212 16.2837 32.7396 16.3473 32.8424C16.4109 32.9452 16.5019 33.0282 16.6101 33.0821L17.9101 33.7321C18.0092 33.7816 18.1193 33.805 18.23 33.8C18.3407 33.795 18.4483 33.7617 18.5425 33.7034C18.6368 33.6451 18.7145 33.5637 18.7685 33.4669C18.8224 33.3701 18.8507 33.2611 18.8506 33.1503V31.8503C18.8506 31.7395 18.8222 31.6304 18.7682 31.5336C18.7141 31.4368 18.6362 31.3554 18.5419 31.2972Z" fill="#FFAD00"/>
<path d="M6.78744 31.9183L5.48744 31.2683C5.38831 31.2187 5.27817 31.1954 5.16748 31.2004C5.05678 31.2054 4.9492 31.2386 4.85496 31.2969C4.76072 31.3552 4.68295 31.4366 4.62903 31.5334C4.57511 31.6302 4.54683 31.7392 4.54688 31.85V33.15C4.54628 33.2611 4.57415 33.3705 4.62784 33.4677C4.68153 33.565 4.75925 33.6468 4.85358 33.7055C4.94791 33.7642 5.0557 33.7977 5.16666 33.8029C5.27763 33.808 5.38807 33.7847 5.48744 33.735L6.78744 33.085C6.8956 33.0311 6.98659 32.9481 7.0502 32.8453C7.1138 32.7426 7.14749 32.6241 7.14749 32.5033C7.14749 32.3824 7.1138 32.2639 7.0502 32.1612C6.98659 32.0584 6.8956 31.9754 6.78744 31.9215V31.9183Z" fill="#FFAD00"/>
<path d="M12.3484 31.2002H11.0484C10.6895 31.2002 10.3984 31.4912 10.3984 31.8502V33.1502C10.3984 33.5092 10.6895 33.8002 11.0484 33.8002H12.3484C12.7074 33.8002 12.9984 33.5092 12.9984 33.1502V31.8502C12.9984 31.4912 12.7074 31.2002 12.3484 31.2002Z" fill="#FFAD00"/>
<path d="M17.5516 23.4H14.3016V22.1C15.1632 22.0989 15.9893 21.7562 16.5985 21.1469C17.2078 20.5377 17.5505 19.7116 17.5516 18.85H18.2016C18.7187 18.85 19.2147 18.6445 19.5804 18.2788C19.9461 17.9131 20.1516 17.4171 20.1516 16.9V15.6C20.1516 15.0828 19.9461 14.5868 19.5804 14.2211C19.2147 13.8554 18.7187 13.65 18.2016 13.65H17.5516C17.5505 12.7883 17.2078 11.9623 16.5985 11.353C15.9893 10.7437 15.1632 10.401 14.3016 10.4H12.3516V8.98037C12.7853 8.82704 13.1508 8.52533 13.3835 8.12856C13.6163 7.73179 13.7013 7.26552 13.6235 6.81215C13.5457 6.35877 13.3101 5.9475 12.9584 5.651C12.6067 5.35451 12.1616 5.19189 11.7016 5.19189C11.2416 5.19189 10.7964 5.35451 10.4447 5.651C10.093 5.9475 9.85743 6.35877 9.77965 6.81215C9.70186 7.26552 9.78685 7.73179 10.0196 8.12856C10.2524 8.52533 10.6179 8.82704 11.0516 8.98037V10.4H9.10156C8.23993 10.401 7.41387 10.7437 6.80461 11.353C6.19534 11.9623 5.85259 12.7883 5.85156 13.65H5.20156C4.68439 13.65 4.1884 13.8554 3.8227 14.2211C3.45701 14.5868 3.25156 15.0828 3.25156 15.6V16.9C3.25156 17.4171 3.45701 17.9131 3.8227 18.2788C4.1884 18.6445 4.68439 18.85 5.20156 18.85H5.85156C5.85259 19.7116 6.19534 20.5377 6.80461 21.1469C7.41387 21.7562 8.23993 22.0989 9.10156 22.1V23.4H5.85156C4.98993 23.401 4.16387 23.7437 3.5546 24.353C2.94534 24.9623 2.60259 25.7883 2.60156 26.65V29.25C2.60156 29.4224 2.67004 29.5877 2.79194 29.7096C2.91384 29.8315 3.07917 29.9 3.25156 29.9H20.1516C20.324 29.9 20.4893 29.8315 20.6112 29.7096C20.7331 29.5877 20.8016 29.4224 20.8016 29.25V26.65C20.8005 25.7883 20.4578 24.9623 19.8485 24.353C19.2393 23.7437 18.4132 23.401 17.5516 23.4ZM7.15156 18.85V13.65C7.15156 13.1328 7.35701 12.6368 7.7227 12.2711C8.0884 11.9054 8.58439 11.7 9.10156 11.7H14.3016C14.8187 11.7 15.3147 11.9054 15.6804 12.2711C16.0461 12.6368 16.2516 13.1328 16.2516 13.65V18.85C16.2516 19.3671 16.0461 19.8631 15.6804 20.2288C15.3147 20.5945 14.8187 20.8 14.3016 20.8H9.10156C8.58439 20.8 8.0884 20.5945 7.7227 20.2288C7.35701 19.8631 7.15156 19.3671 7.15156 18.85ZM10.4016 22.1H13.0016V23.4H10.4016V22.1ZM19.5016 28.6H16.9016V26.65C16.9016 26.4776 16.8331 26.3123 16.7112 26.1904C16.5893 26.0685 16.424 26 16.2516 26C16.0792 26 15.9138 26.0685 15.7919 26.1904C15.67 26.3123 15.6016 26.4776 15.6016 26.65V28.6H14.3016C14.3016 27.9104 14.0276 27.2491 13.54 26.7615C13.0524 26.2739 12.3911 26 11.7016 26C11.012 26 10.3507 26.2739 9.86309 26.7615C9.37549 27.2491 9.10156 27.9104 9.10156 28.6H7.80156V26.65C7.80156 26.4776 7.73308 26.3123 7.61118 26.1904C7.48928 26.0685 7.32395 26 7.15156 26C6.97917 26 6.81384 26.0685 6.69194 26.1904C6.57004 26.3123 6.50156 26.4776 6.50156 26.65V28.6H3.90156V26.65C3.90156 26.1328 4.10701 25.6368 4.4727 25.2711C4.8384 24.9054 5.33439 24.7 5.85156 24.7H17.5516C18.0687 24.7 18.5647 24.9054 18.9304 25.2711C19.2961 25.6368 19.5016 26.1328 19.5016 26.65V28.6Z" fill="#FFAD00"/>
<path d="M9.75312 15.6C10.4711 15.6 11.0531 15.018 11.0531 14.3C11.0531 13.582 10.4711 13 9.75312 13C9.03515 13 8.45312 13.582 8.45312 14.3C8.45312 15.018 9.03515 15.6 9.75312 15.6Z" fill="#FFAD00"/>
<path d="M13.6516 15.6C14.3695 15.6 14.9516 15.018 14.9516 14.3C14.9516 13.582 14.3695 13 13.6516 13C12.9336 13 12.3516 13.582 12.3516 14.3C12.3516 15.018 12.9336 15.6 13.6516 15.6Z" fill="#FFAD00"/>
<path d="M13.4609 17.7403C13.3391 17.6183 13.1738 17.5498 13.0014 17.5498H10.4014C10.229 17.5498 10.0637 17.6183 9.94184 17.7403L9.29184 18.3903C9.17343 18.5128 9.10792 18.677 9.1094 18.8475C9.11088 19.0179 9.17924 19.1809 9.29976 19.3014C9.42027 19.422 9.5833 19.4903 9.75373 19.4918C9.92416 19.4933 10.0883 19.4278 10.2109 19.3094L10.6705 18.8498H12.7323L13.1918 19.3094C13.3144 19.4278 13.4786 19.4933 13.649 19.4918C13.8195 19.4903 13.9825 19.422 14.103 19.3014C14.2235 19.1809 14.2919 19.0179 14.2934 18.8475C14.2949 18.677 14.2293 18.5128 14.1109 18.3903L13.4609 17.7403Z" fill="#FFAD00"/>
</svg>
