<svg width="30" height="28" viewBox="0 0 30 28" fill="none" xmlns="http://www.w3.org/2000/svg">
<path opacity="0.58" d="M5.575 13.8911C5.07667 13.8911 4.64062 14.296 4.64062 14.8255V20.8678C4.64062 21.3661 5.04552 21.8021 5.575 21.8021H12.7385C13.2368 21.8021 13.6729 21.3972 13.6729 20.8678V14.8255C13.6729 14.296 13.268 13.8911 12.7385 13.8911H9.9354V15.3238C9.9354 15.7599 9.59279 16.1025 9.15675 16.1025C8.72071 16.1025 8.37811 15.7599 8.37811 15.3238V13.8911H5.575Z" fill="#FFAD00"/>
<path opacity="0.58" d="M16.8523 13.8911C16.354 13.8911 15.918 14.296 15.918 14.8255V20.8678C15.918 21.3661 16.3229 21.8021 16.8523 21.8021H24.0159C24.5142 21.8021 24.9502 21.3972 24.9502 20.8678V14.8255C24.9502 14.296 24.5453 13.8911 24.0159 13.8911H21.2127V15.3238C21.2127 15.7599 20.8701 16.1025 20.4341 16.1025C19.9981 16.1025 19.6555 15.7599 19.6555 15.3238V13.8911H16.8523Z" fill="#FFAD00"/>
<path d="M27.1591 23.1724H2.39822C1.05895 23.1724 0 24.2625 0 25.5706C0 26.9098 1.0901 27.9999 2.39822 27.9999H27.1591C28.4983 27.9999 29.5884 26.9098 29.5884 25.5706C29.5884 24.2625 28.4983 23.1724 27.1591 23.1724ZM2.42937 26.6295C1.86874 26.6295 1.37041 26.1624 1.37041 25.6017C1.37041 25.01 1.8376 24.5428 2.42937 24.5428C3.02113 24.5428 3.48832 25.01 3.48832 25.6017C3.45717 26.1624 2.98999 26.6295 2.42937 26.6295ZM5.94883 26.6295C5.38821 26.6295 4.88988 26.1624 4.88988 25.6017C4.88988 25.01 5.35706 24.5428 5.94883 24.5428C6.50945 24.5428 7.00779 25.01 7.00779 25.6017C7.00779 26.1624 6.5406 26.6295 5.94883 26.6295ZM9.49944 26.6295C8.93882 26.6295 8.44049 26.1624 8.44049 25.6017C8.44049 25.01 8.90767 24.5428 9.49944 24.5428C10.0601 24.5428 10.5584 25.01 10.5584 25.6017C10.5273 26.1624 10.0601 26.6295 9.49944 26.6295ZM13.0189 26.6295C12.4583 26.6295 11.96 26.1624 11.96 25.6017C11.96 25.01 12.4271 24.5428 13.0189 24.5428C13.5795 24.5428 14.0779 25.01 14.0779 25.6017C14.0779 26.1624 13.6107 26.6295 13.0189 26.6295ZM16.5695 26.6295C16.0089 26.6295 15.5106 26.1624 15.5106 25.6017C15.5106 25.01 15.9778 24.5428 16.5695 24.5428C17.1301 24.5428 17.6285 25.01 17.6285 25.6017C17.5973 26.1624 17.1301 26.6295 16.5695 26.6295ZM20.089 26.6295C19.5284 26.6295 19.03 26.1624 19.03 25.6017C19.03 25.01 19.4972 24.5428 20.089 24.5428C20.6496 24.5428 21.1479 25.01 21.1479 25.6017C21.1479 26.1624 20.6808 26.6295 20.089 26.6295ZM23.6396 26.6295C23.079 26.6295 22.5806 26.1624 22.5806 25.6017C22.5806 25.01 23.0478 24.5428 23.6396 24.5428C24.2002 24.5428 24.6986 25.01 24.6986 25.6017C24.6986 26.1624 24.2002 26.6295 23.6396 26.6295ZM27.1591 26.6295C26.5984 26.6295 26.1001 26.1624 26.1001 25.6017C26.1001 25.01 26.5673 24.5428 27.1591 24.5428C27.7197 24.5428 28.218 25.01 28.218 25.6017C28.218 26.1624 27.7508 26.6295 27.1591 26.6295Z" fill="#FFAD00"/>
<path opacity="0.58" d="M3.11458 1.55729H8.37821V6.07341L5.48166 8.3782C5.20134 8.59622 5.10791 8.96997 5.26363 9.28142L6.35373 11.7108C6.47832 11.9911 6.75863 12.178 7.03894 12.178C7.13238 12.178 7.25696 12.1468 7.3504 12.1157C7.72415 11.9288 7.91102 11.4928 7.72415 11.0879L6.85207 9.18799L9.06341 7.41268L11.2748 9.18799L10.4027 11.0879C10.2158 11.4616 10.4027 11.9288 10.7764 12.1157C10.8699 12.1468 10.9944 12.178 11.0879 12.178C11.3682 12.178 11.6485 12.0222 11.7731 11.7108L12.8632 9.28142C13.0189 8.96997 12.9255 8.59622 12.6452 8.3782L9.74862 6.07341V1.55729H19.4661V6.07341L16.5695 8.3782C16.2892 8.59622 16.1958 8.96997 16.3515 9.28142L17.4416 11.7108C17.5662 11.9911 17.8465 12.178 18.1268 12.178C18.2203 12.178 18.3448 12.1468 18.4383 12.1157C18.812 11.9288 18.9989 11.4928 18.812 11.0879L17.9399 9.18799L20.1513 7.41268L22.3626 9.18799L21.4906 11.0879C21.3037 11.4616 21.4906 11.9288 21.8643 12.1157C21.9577 12.1468 22.0823 12.178 22.1758 12.178C22.4561 12.178 22.7364 12.0222 22.861 11.7108L23.9511 9.28142C24.1068 8.96997 24.0134 8.59622 23.733 8.3782L20.8365 6.07341V1.55729H26.1001C26.5362 1.55729 26.8788 1.21468 26.8788 0.778643C26.8788 0.342603 26.5362 0 26.1001 0H3.11458C2.67854 0 2.33594 0.342603 2.33594 0.778643C2.33594 1.21468 2.70969 1.55729 3.11458 1.55729Z" fill="#FFAD00"/>
</svg>
