<svg width="30" height="28" viewBox="0 0 30 28" fill="none" xmlns="http://www.w3.org/2000/svg">
<path opacity="0.58" d="M6.70013 13.9987C6.70013 9.9665 10.0086 6.69778 14.0899 6.69778V0C13.8146 0.000596996 13.5553 0.00118403 12.8747 0.00265672L12.4395 2.07893C11.4314 2.30834 11.3043 2.33728 10.2962 2.5667L8.98547 0.88765C7.8055 1.4515 8.03263 1.34294 6.85274 1.90669L7.37206 3.9675C6.56544 4.60596 6.46284 4.68726 5.65623 5.3257L3.72005 4.36877C2.90567 5.38249 3.06187 5.18812 2.24749 6.20184L3.6279 7.84447C3.18061 8.76597 3.12413 8.8823 2.67695 9.80382L0.536949 9.76897C0.247354 11.0322 0.303243 10.7886 0.0136575 12.0518L1.96198 12.9323C1.96438 13.9536 1.96467 14.0833 1.96697 15.1047L0 16.0043C0.293977 17.2653 0.237695 17.0238 0.531662 18.2849L2.69886 18.2436C3.14904 19.1631 3.20612 19.2798 3.6563 20.1993L2.29402 21.8333C3.11368 22.8441 2.95568 22.6492 3.77544 23.6599L5.68452 22.7037C6.49471 23.3389 6.59703 23.4191 7.40722 24.0545L6.89329 26.1281C8.07457 26.6878 7.84803 26.5805 9.0292 27.1401L10.3464 25.4429C11.3544 25.6683 11.4827 25.6971 12.4907 25.9226L12.9362 27.9999C13.5663 27.9985 13.835 27.9979 14.0899 27.9973V21.2996C10.0086 21.2996 6.70013 18.0309 6.70013 13.9987Z" fill="#FFAD00"/>
<path d="M19.2459 1.90875H21.1291C21.3226 2.32477 21.7471 2.61422 22.2408 2.61422C22.9115 2.61422 23.4562 2.08133 23.4648 1.42082C23.4737 0.746719 22.9305 0.199451 22.2482 0.195481C21.7512 0.192585 21.3236 0.482847 21.1291 0.900925H18.7147L17.4884 2.63194H16.0318V0H15.0117V3.63976H18.0196L19.2459 1.90875Z" fill="#FFAD00"/>
<path d="M21.756 25.2716C21.2623 25.2716 20.8379 25.5611 20.6443 25.9771H19.5368L17.6287 24.2461H15.0117V28H16.0318V25.2539H17.2314L19.1395 26.9849H20.6443C20.8379 27.4009 21.2622 27.6904 21.756 27.6904C22.4322 27.6904 22.9802 27.149 22.9802 26.481C22.9802 25.8131 22.4322 25.2716 21.756 25.2716Z" fill="#FFAD00"/>
<path d="M15.7042 8.32732H12.5859V10.7835H13.606V9.33514H16.7243V5.92824H23.5437C23.7372 6.34426 24.1616 6.63362 24.6554 6.63362C25.3314 6.63362 25.8795 6.09221 25.8795 5.42423C25.8795 4.75635 25.3314 4.21484 24.6554 4.21484C24.1616 4.21484 23.7371 4.5044 23.5436 4.92042H15.7042V8.32732Z" fill="#FFAD00"/>
<path d="M26.6706 16.3799C26.1769 16.3799 25.7525 16.6693 25.559 17.0854H23.4138L22.1897 18.9587H18.1836V19.9665H22.7452L23.9693 18.0932H25.5589C25.7525 18.5092 26.1768 18.7987 26.6706 18.7987C27.3468 18.7987 27.8948 18.2572 27.8948 17.5893C27.8948 16.9214 27.3468 16.3799 26.6706 16.3799Z" fill="#FFAD00"/>
<path d="M25.536 9.43091H22.985L21.4938 7.6001H18.3008V14.8391H19.3209V8.60792H21.0052L22.4965 10.4387H25.5361C25.7297 10.8548 26.1541 11.1441 26.6478 11.1441C27.3239 11.1441 27.8719 10.6027 27.8719 9.93473C27.8719 9.26685 27.3239 8.72534 26.6478 8.72534C26.1541 8.72534 25.7296 9.01489 25.536 9.43091Z" fill="#FFAD00"/>
<path d="M28.777 12.626C28.2827 12.626 27.8579 12.9162 27.6647 13.3329H20.3967V15.8701H17.3068V11.9282H10.7503V16.2908H9.46875V17.2986H11.7704V12.936H16.2867V16.878H21.4168V14.3407H27.666C27.8598 14.7559 28.2838 15.0448 28.777 15.0448C29.4531 15.0448 30.0011 14.5034 30.0011 13.8354C30.0011 13.1675 29.4531 12.626 28.777 12.626Z" fill="#FFAD00"/>
<path d="M24.3777 21.0516C23.8838 21.0516 23.4594 21.3411 23.2659 21.7571H17.0758L17.0788 18.6108L14.606 18.6078V14.1362H13.5859V19.6145L16.0579 19.6174L16.0549 22.7649H23.2659C23.4595 23.1809 23.8838 23.4704 24.3777 23.4704C25.0537 23.4704 25.6018 22.9289 25.6018 22.261C25.6018 21.593 25.0537 21.0516 24.3777 21.0516Z" fill="#FFAD00"/>
</svg>
