<svg width="33" height="30" viewBox="0 0 33 30" fill="none" xmlns="http://www.w3.org/2000/svg">
<path fill-rule="evenodd" clip-rule="evenodd" d="M8.95187 5.4845L9.51932 6.05196C9.6117 6.14434 9.64217 6.27198 9.60162 6.39627C9.56107 6.52032 9.46077 6.6055 9.33193 6.62518L5.67074 7.18783C5.56468 7.20439 5.46655 7.17392 5.38809 7.1005C5.30963 7.02707 5.27315 6.9311 5.28276 6.82385L5.62707 2.94454C5.63883 2.81041 5.72209 2.70268 5.84853 2.65685C5.97498 2.61102 6.10791 2.64029 6.20292 2.73579L6.69024 3.22311C10.3539 -0.440542 15.4647 0.251955 17.1692 3.16576C17.1997 3.21783 17.193 3.28045 17.1527 3.32484C17.1121 3.36971 17.0497 3.3817 16.995 3.35627C14.0347 1.96919 10.2424 4.19459 8.95187 5.4845ZM24.1181 21.7988L23.3426 21.591C23.2164 21.5574 23.1262 21.4617 23.0993 21.334C23.0725 21.2061 23.1169 21.0826 23.2186 21.0007L26.1079 18.683C26.1917 18.6155 26.2922 18.593 26.3963 18.6175C26.5009 18.6419 26.5806 18.7067 26.626 18.8041L28.2674 22.336C28.324 22.4579 28.306 22.593 28.2197 22.6962C28.1333 22.7991 28.0032 22.8401 27.8732 22.8053L27.2073 22.6268C25.8661 27.6317 21.0942 29.5868 18.1608 27.9158C18.1085 27.886 18.083 27.8284 18.0955 27.7696C18.1085 27.7106 18.156 27.6686 18.2162 27.6636C21.4741 27.3848 23.6461 23.5609 24.1181 21.7988Z" fill="#FFB81D" fill-opacity="0.58"/>
<path fill-rule="evenodd" clip-rule="evenodd" d="M25.4383 4.54183C27.1066 4.54183 28.4589 5.89415 28.4589 7.56243C28.4589 9.23071 27.1066 10.583 25.4383 10.583C23.77 10.583 22.4177 9.23071 22.4177 7.56243C22.4177 5.89415 23.77 4.54183 25.4383 4.54183ZM7.45881 18.3789V17.624C7.45881 17.2099 7.11809 16.8692 6.70396 16.8692C6.28983 16.8692 5.94912 17.2099 5.94912 17.624C5.94912 18.0382 6.28984 18.3789 6.70396 18.3789H7.45881ZM10.4672 18.3789H11.222C11.6362 18.3789 11.9769 18.0382 11.9769 17.624C11.9769 17.2099 11.6362 16.8692 11.222 16.8692C10.8079 16.8692 10.4672 17.2099 10.4672 17.624V18.3789ZM9.38507 24.5194V19.461H8.54098V24.5196L9.38507 24.5194ZM10.4672 19.461H11.222C12.2336 19.461 13.059 18.6354 13.059 17.624C13.059 16.6124 12.2334 15.7871 11.222 15.7871C10.2104 15.7871 9.38507 16.6127 9.38507 17.624V18.3789H8.54098V17.624C8.54098 16.6124 7.71538 15.7871 6.70403 15.7871C5.69243 15.7871 4.86707 16.6127 4.86707 17.624C4.86707 18.6356 5.69268 19.461 6.70403 19.461H7.45887V24.5196H5.59145C5.20514 20.5047 3.38595 20.5522 3.38595 17.5829C3.38595 14.5028 5.88272 12.0058 8.9626 12.0058C12.0427 12.0058 14.5397 14.5026 14.5397 17.5829C14.5397 20.5527 12.721 20.5049 12.3345 24.5196H10.4671L10.4672 19.461ZM16.5164 14.7934C16.2584 14.9416 15.929 14.8524 15.7807 14.5949C15.6324 14.337 15.7217 14.0076 15.9791 13.8592L17.1167 13.2026C17.3746 13.0543 17.7041 13.1435 17.8524 13.401C18.0007 13.6589 17.9114 13.9884 17.6539 14.1367L16.5164 14.7934ZM13.6359 11.5156C13.4876 11.7735 13.1582 11.8625 12.9002 11.714C12.6423 11.5657 12.5532 11.2363 12.7018 10.9783L13.3585 9.84075C13.5067 9.58282 13.8362 9.4938 14.0936 9.64232C14.3516 9.7906 14.4406 10.12 14.2921 10.378L13.6359 11.5156ZM1.94745 13.8593C2.20539 14.0088 2.29321 14.3392 2.1442 14.5966C1.99472 14.8545 1.66433 14.9424 1.40687 14.7934L0.269289 14.1367C0.0113561 13.9872 -0.0764623 13.6568 0.0725407 13.3993C0.222023 13.1414 0.552418 13.0536 0.809878 13.2026L1.94745 13.8593ZM5.22309 10.9788C5.37137 11.2367 5.28211 11.5662 5.02466 11.7145C4.76672 11.8628 4.43729 11.7735 4.28898 11.516L3.63229 10.3785C3.48401 10.1205 3.57327 9.79109 3.83072 9.64278C4.08866 9.4945 4.41809 9.58375 4.5664 9.84121L5.22309 10.9788ZM9.50362 10.1203C9.50362 10.419 9.26152 10.6613 8.96256 10.6613C8.66384 10.6613 8.4215 10.4192 8.4215 10.1203V8.80633C8.4215 8.50761 8.6636 8.26527 8.96256 8.26527C9.26128 8.26527 9.50362 8.50737 9.50362 8.80633V10.1203ZM10.4871 28.144V28.5094C10.4871 29.0078 10.0795 29.4157 9.58089 29.4157H8.40493C7.90657 29.4157 7.49867 29.008 7.49867 28.5094V28.144H7.4754C6.97704 28.144 6.56914 27.7363 6.56914 27.2377V26.8723H6.53867C6.04032 26.8723 5.63242 26.4646 5.63242 25.966V25.6006H12.2927V25.966C12.2927 26.4543 11.9013 26.8557 11.4166 26.8718V27.2377C11.4166 27.7361 11.009 28.144 10.5104 28.144L10.4871 28.144ZM26.8125 2.20145L26.4603 0H24.4162L24.064 2.20145C23.5503 2.33293 23.0654 2.53616 22.6208 2.79985L20.8145 1.49195L19.3692 2.93732L20.6771 4.74381C20.4134 5.18842 20.2102 5.67334 20.0787 6.18703L17.8772 6.5395V8.58352L20.0787 8.93599C20.2102 9.44946 20.4134 9.93413 20.6771 10.3792L19.3692 12.1857L20.8145 13.6311L22.621 12.3232C23.0656 12.5869 23.5506 12.7903 24.0643 12.9216L24.4165 15.123H26.4605L26.813 12.9216C27.3264 12.7901 27.8111 12.5869 28.2562 12.3232L30.0627 13.6311L31.5081 12.1857L30.2001 10.3792C30.4638 9.93461 30.6673 9.44968 30.7986 8.93599L33 8.58376V6.53974L30.7986 6.18751C30.6671 5.67404 30.4638 5.18937 30.2001 4.74429L31.5081 2.9378L30.0627 1.49243L28.2562 2.80033C27.8109 2.53592 27.3259 2.33245 26.8125 2.20145Z" fill="#FFB81D"/>
</svg>
