<svg width="29" height="29" viewBox="0 0 29 29" fill="none" xmlns="http://www.w3.org/2000/svg">
<g clip-path="url(#clip0_2844_3372)">
<mask id="mask0_2844_3372" style="mask-type:luminance" maskUnits="userSpaceOnUse" x="0" y="0" width="29" height="29">
<path d="M28.2342 0H0.769531V28.9147H28.2342V0Z" fill="white"/>
</mask>
<g mask="url(#mask0_2844_3372)">
<path d="M9.46907 23.2855C9.46907 24.2238 8.70142 25.0767 7.6779 25.0767C6.65437 25.0767 5.88672 24.309 5.88672 23.2855V15.609C5.88672 14.6708 6.65437 13.8179 7.6779 13.8179C8.70142 13.8179 9.46907 14.5855 9.46907 15.609V23.2855Z" fill="#FFAD00"/>
</g>
<mask id="mask1_2844_3372" style="mask-type:luminance" maskUnits="userSpaceOnUse" x="0" y="0" width="29" height="29">
<path d="M28.2342 0H0.769531V28.9147H28.2342V0Z" fill="white"/>
</mask>
<g mask="url(#mask1_2844_3372)">
<path d="M14.5869 25.3324C14.5869 26.2707 13.8193 27.1236 12.7957 27.1236C11.7722 27.1236 11.0898 26.356 11.0898 25.3324V13.6471C11.0898 12.7089 11.8575 11.856 12.881 11.856C13.9045 11.856 14.6722 12.6236 14.6722 13.6471V25.3324H14.5869Z" fill="#FFAD00"/>
</g>
<mask id="mask2_2844_3372" style="mask-type:luminance" maskUnits="userSpaceOnUse" x="0" y="0" width="29" height="29">
<path d="M28.2342 0H0.769531V28.9147H28.2342V0Z" fill="white"/>
</mask>
<g mask="url(#mask2_2844_3372)">
<path d="M4.26595 21.5795C4.26595 22.5177 3.4983 23.3707 2.47477 23.3707C1.45124 23.3707 0.683594 22.603 0.683594 21.5795V17.4001C0.683594 16.4618 1.45124 15.6089 2.47477 15.6089C3.4983 15.6089 4.26595 16.4618 4.26595 17.4001V21.5795Z" fill="#FFAD00"/>
</g>
<mask id="mask3_2844_3372" style="mask-type:luminance" maskUnits="userSpaceOnUse" x="0" y="0" width="29" height="29">
<path d="M28.2342 0H0.769531V28.9147H28.2342V0Z" fill="white"/>
</mask>
<g mask="url(#mask3_2844_3372)">
<path d="M19.7041 27.2087C19.7041 28.147 18.9364 28.9999 17.9129 28.9999C16.9747 28.9999 16.207 28.147 16.207 27.2087V11.6852C16.207 10.747 16.9747 9.89404 17.9982 9.89404C18.9364 9.89404 19.7894 10.6617 19.7894 11.6852V27.2087H19.7041Z" fill="#FFAD00"/>
</g>
<mask id="mask4_2844_3372" style="mask-type:luminance" maskUnits="userSpaceOnUse" x="0" y="0" width="29" height="29">
<path d="M28.2342 0H0.769531V28.9147H28.2342V0Z" fill="white"/>
</mask>
<g mask="url(#mask4_2844_3372)">
<path opacity="0.58" d="M25.3329 26.4414C24.9917 26.4414 24.7358 26.3561 24.3946 26.2708L22.2623 25.5885C21.9211 25.5032 21.6652 25.0767 21.8358 24.7355C21.9211 24.3944 22.3476 24.1385 22.6887 24.3091L24.9064 24.9914C25.3329 25.162 25.8446 25.0767 26.2711 24.7355C26.6976 24.4797 26.8682 23.9679 26.8682 23.5414V9.2973C26.8682 8.61495 26.4417 8.01789 25.8446 7.8473L4.94756 1.53554C4.52109 1.36495 4.00933 1.45024 3.58286 1.70613C3.24168 2.0473 2.9858 2.47377 2.9858 2.98554V12.7944C2.9858 13.2208 2.64462 13.4767 2.30345 13.4767C1.87698 13.4767 1.62109 13.1355 1.62109 12.7944V2.98554C1.62109 2.0473 2.04756 1.19436 2.81521 0.682595C3.58286 0.0855367 4.52109 0.000242554 5.37403 0.256125L26.1858 6.56789C27.3799 6.90907 28.2329 8.10318 28.2329 9.3826V23.6267C28.2329 24.5649 27.8064 25.4179 27.0387 26.0149C26.527 26.1855 25.9299 26.4414 25.3329 26.4414Z" fill="#FFAD00"/>
</g>
</g>
<defs>
<clipPath id="clip0_2844_3372">
<rect width="29" height="29" fill="white"/>
</clipPath>
</defs>
</svg>
