<svg width="29" height="31" viewBox="0 0 29 31" fill="none" xmlns="http://www.w3.org/2000/svg">
<path opacity="0.58" d="M19.5007 11.5518H18.6933C17.7927 12.3902 16.3332 12.9492 14.6874 12.9492C13.0416 12.9492 11.5821 12.3902 10.6816 11.5518H10.0915C7.17254 11.5518 4.8125 13.3528 4.8125 15.5576H24.5623C24.5623 13.3528 22.2955 11.5518 19.5007 11.5518Z" fill="#FFAD00"/>
<path opacity="0.58" d="M14.6929 0C11.4012 0 8.76172 2.67058 8.76172 5.93117C8.76172 9.22281 11.4323 11.8623 14.6929 11.8623C17.9845 11.8623 20.624 9.19175 20.624 5.93117C20.624 2.67058 17.9845 0 14.6929 0ZM14.6929 10.5581C12.1465 10.5581 10.097 8.47753 10.097 5.96222C10.097 5.55853 10.1591 5.18589 10.2523 4.8443C10.8112 5.12378 11.7739 5.49642 12.8918 5.49642C13.6992 5.49642 14.5687 5.3101 15.4071 4.72009C15.5003 4.65798 17.5187 3.19848 19.1335 4.65798C19.2577 5.06167 19.3198 5.52747 19.3198 5.96222C19.3198 8.47753 17.2392 10.5581 14.6929 10.5581Z" fill="#FFAD00"/>
<path d="M28.6311 29.4074H25.3705C25.5879 29.1279 25.7121 28.7863 25.7121 28.4137V17.7935C25.7121 16.8929 24.9978 16.1787 24.0973 16.1787H5.24799C4.34745 16.1787 3.63323 16.8929 3.63323 17.7935V28.4447C3.63323 28.8174 3.75744 29.159 3.97481 29.4384H0.310532C0.124213 29.4384 0 29.5937 0 29.749V29.78C0 29.9663 0.155266 30.0906 0.310532 30.0906H28.6621C28.8484 30.0906 28.9727 29.9353 28.9727 29.78V29.7179C28.9416 29.5626 28.8174 29.4074 28.6311 29.4074ZM16.5824 23.4141C16.3029 23.4141 16.0235 23.352 15.744 23.2278H15.7129L12.0486 26.7679C11.8934 26.9231 11.676 26.9852 11.4586 26.9852C11.2413 26.9852 11.0239 26.8921 10.8686 26.7368C10.7134 26.5815 10.6513 26.3642 10.6513 26.1468C10.6513 25.9294 10.7444 25.712 10.8997 25.5568L14.6261 21.9546V21.9236C14.564 21.7062 14.5329 21.4578 14.5329 21.2404C14.564 20.0914 15.5266 19.1598 16.6756 19.1598C17.0172 19.1598 17.3588 19.253 17.6693 19.4393L16.1477 20.8988L16.9861 21.7372L18.5077 20.2467C18.694 20.5883 18.7872 20.9299 18.7872 21.3025C18.7251 22.4825 17.7624 23.4141 16.5824 23.4141Z" fill="#FFAD00"/>
</svg>
