<svg width="37" height="37" viewBox="0 0 37 37" fill="none" xmlns="http://www.w3.org/2000/svg">
<path d="M27.3315 26.6259C26.92 26.6259 26.5967 26.9491 26.5967 27.3606V33.0913C26.5967 34.4725 25.4799 35.5599 24.1281 35.5599H18.4855C17.8096 35.5599 17.2218 35.1191 17.0161 34.502C19.3672 34.1199 21.1599 32.0627 21.1599 29.5941V27.243H22.7762V23.1287H21.6888V16.8395C21.6888 16.4281 21.3655 16.1048 20.9541 16.1048C20.5426 16.1048 20.2193 16.4281 20.2193 16.8395V23.1287H18.5148V16.8395C18.5148 16.4281 18.1915 16.1048 17.78 16.1048C17.3686 16.1048 17.0453 16.4281 17.0453 16.8395V23.1287H15.3408V16.8395C15.3408 16.4281 15.0175 16.1048 14.606 16.1048C14.1946 16.1048 13.8713 16.4281 13.8713 16.8395V23.1287H12.1668V16.8395C12.1668 16.4281 11.8435 16.1048 11.432 16.1048C11.0205 16.1048 10.6973 16.4281 10.6973 16.8395V23.1287H9.60986V27.2136H11.2262V29.5647C11.2262 32.0921 13.1071 34.1493 15.5169 34.502C15.7814 35.9126 17.0157 37 18.5145 37H24.1571C26.3318 37 28.0952 35.2367 28.0952 33.062V27.3606C28.0658 26.9492 27.7425 26.6259 27.3311 26.6259H27.3315Z" fill="#FFB81D"/>
<path d="M35.3251 12.5194C35.5896 11.6671 35.7659 10.7561 35.7659 9.78625C35.7659 4.99597 31.916 1.11683 27.1845 1.11683C25.6268 1.11683 24.1868 1.52827 22.9231 2.26294C21.3361 0.852298 19.2495 0 16.9573 0C11.8731 0 7.72899 4.17316 7.72899 9.3163V9.37508C3.46763 9.40446 0 12.9017 0 17.2512C0 21.6007 3.46783 25.1273 7.75854 25.1273H8.11121V21.6888H9.19861V16.8397C9.19861 15.6347 10.1978 14.6356 11.4027 14.6356C12.0199 14.6356 12.5782 14.9001 12.9897 15.3115C13.4011 14.9 13.9595 14.6356 14.5767 14.6356C15.1938 14.6356 15.7522 14.9001 16.1636 15.3115C16.5751 14.9 17.1335 14.6356 17.7506 14.6356C18.3677 14.6356 18.9261 14.9001 19.3376 15.3115C19.749 14.9 20.3074 14.6356 20.9246 14.6356C22.1295 14.6356 23.1287 15.6348 23.1287 16.8397V21.6594H24.2161V25.0979H29.1239C33.4146 25.0979 36.8824 21.5712 36.8824 17.2218C36.9118 15.4584 36.3241 13.8421 35.3248 12.5196L35.3251 12.5194Z" fill="#FFB81D" fill-opacity="0.58"/>
</svg>
