<svg width="42" height="37" viewBox="0 0 42 37" fill="none" xmlns="http://www.w3.org/2000/svg">
<path fill-rule="evenodd" clip-rule="evenodd" d="M11.2586 6.89843L11.9724 7.61219C12.0886 7.72839 12.1269 7.88894 12.0759 8.04528C12.0249 8.20131 11.8987 8.30845 11.7367 8.3332L7.13151 9.04094C6.99811 9.06176 6.87468 9.02343 6.77598 8.93108C6.6773 8.83873 6.63142 8.71801 6.64349 8.5831L7.07658 3.70357C7.09137 3.53486 7.1961 3.39935 7.35515 3.34171C7.5142 3.28407 7.6814 3.32089 7.80091 3.44101L8.41387 4.05397C13.0221 -0.554293 19.4507 0.316753 21.5947 3.98184C21.633 4.04733 21.6246 4.1261 21.5739 4.18193C21.5229 4.23837 21.4444 4.25346 21.3756 4.22147C17.652 2.47675 12.8819 5.27594 11.2586 6.89843ZM30.3353 27.4191L29.3598 27.1577C29.2011 27.1155 29.0876 26.995 29.0538 26.8345C29.02 26.6736 29.0758 26.5182 29.2038 26.4153L32.8381 23.4999C32.9434 23.4151 33.0699 23.3867 33.2009 23.4175C33.3325 23.4483 33.4327 23.5298 33.4897 23.6523L35.5544 28.0948C35.6256 28.2482 35.6029 28.4181 35.4943 28.5479C35.3857 28.6773 35.2221 28.7289 35.0585 28.6852L34.221 28.4606C32.5339 34.7559 26.5317 37.2151 22.8419 35.1132C22.7761 35.0758 22.7441 35.0034 22.7598 34.9294C22.7761 34.8552 22.8359 34.8024 22.9116 34.796C27.0095 34.4453 29.7416 29.6355 30.3353 27.4191Z" fill="#FFB81D" fill-opacity="0.58"/>
<path fill-rule="evenodd" clip-rule="evenodd" d="M31.9971 5.71287C34.0956 5.71287 35.7966 7.41386 35.7966 9.51228C35.7966 11.6107 34.0956 13.3117 31.9971 13.3117C29.8987 13.3117 28.1977 11.6107 28.1977 9.51228C28.1977 7.41386 29.8987 5.71287 31.9971 5.71287ZM9.38194 23.1176V22.1681C9.38194 21.6472 8.95338 21.2186 8.43247 21.2186C7.91156 21.2186 7.483 21.6472 7.483 22.1681C7.483 22.689 7.91157 23.1176 8.43247 23.1176H9.38194ZM13.166 23.1176H14.1154C14.6364 23.1176 15.0649 22.689 15.0649 22.1681C15.0649 21.6472 14.6363 21.2186 14.1154 21.2186C13.5945 21.2186 13.166 21.6472 13.166 22.1681V23.1176ZM11.8049 30.8413V24.4787H10.7431V30.8415L11.8049 30.8413ZM13.166 24.4787H14.1154C15.3879 24.4787 16.426 23.4402 16.426 22.1681C16.426 20.8957 15.3875 19.8575 14.1154 19.8575C12.843 19.8575 11.8049 20.896 11.8049 22.1681V23.1176H10.7431V22.1681C10.7431 20.8957 9.70466 19.8575 8.43255 19.8575C7.16013 19.8575 6.12197 20.896 6.12197 22.1681C6.12197 23.4405 7.16044 24.4787 8.43255 24.4787H9.38202V30.8415H7.03311C6.54721 25.7915 4.25896 25.8512 4.25896 22.1164C4.25896 18.2421 7.39949 15.1013 11.2735 15.1013C15.1477 15.1013 18.2886 18.2418 18.2886 22.1164C18.2886 25.8518 16.0009 25.7917 15.5147 30.8415H13.1658L13.166 24.4787ZM20.7748 18.6076C20.4504 18.7941 20.036 18.6818 19.8495 18.358C19.663 18.0336 19.7752 17.6192 20.0991 17.4326L21.53 16.6066C21.8544 16.4201 22.2688 16.5324 22.4553 16.8562C22.6418 17.1807 22.5296 17.595 22.2057 17.7816L20.7748 18.6076ZM17.1517 14.4847C16.9651 14.8091 16.5508 14.9211 16.2263 14.7343C15.9019 14.5478 15.7899 14.1334 15.9767 13.8089L16.8027 12.378C16.9892 12.0536 17.4036 11.9416 17.7275 12.1284C18.0519 12.3149 18.1639 12.7293 17.977 13.0538L17.1517 14.4847ZM2.44957 17.4327C2.77401 17.6207 2.88447 18.0363 2.69705 18.3601C2.50903 18.6845 2.09344 18.795 1.7696 18.6076L0.338721 17.7816C0.0142841 17.5936 -0.0961769 17.178 0.0912441 16.8541C0.279268 16.5297 0.69485 16.4192 1.01869 16.6067L2.44957 17.4327ZM6.56977 13.8095C6.75629 14.1339 6.64402 14.5483 6.32018 14.7348C5.99574 14.9214 5.58137 14.8091 5.39482 14.4853L4.56882 13.0544C4.3823 12.7299 4.49457 12.3156 4.81841 12.129C5.14285 11.9425 5.55722 12.0548 5.74377 12.3786L6.56977 13.8095ZM11.954 12.7296C11.954 13.1053 11.6495 13.4102 11.2734 13.4102C10.8977 13.4102 10.5928 13.1056 10.5928 12.7296V11.0769C10.5928 10.7012 10.8974 10.3963 11.2734 10.3963C11.6492 10.3963 11.954 10.7009 11.954 11.0769V12.7296ZM13.1911 35.4004V35.8601C13.1911 36.4869 12.6783 37 12.0512 37H10.572C9.94515 37 9.43208 36.4872 9.43208 35.8601V35.4004H9.40281C8.77596 35.4004 8.26289 34.8877 8.26289 34.2605V33.8009H8.22456C7.59771 33.8009 7.08465 33.2881 7.08465 32.661V32.2013H15.4621V32.661C15.4621 33.2751 14.9699 33.78 14.3602 33.8003V34.2605C14.3602 34.8874 13.8474 35.4004 13.2203 35.4004L13.1911 35.4004ZM33.7256 2.76905L33.2826 0H30.7116L30.2685 2.76905C29.6224 2.93444 29.0124 3.19007 28.4532 3.52175L26.1812 1.87662L24.3632 3.69466L26.0083 5.96692C25.6766 6.52616 25.421 7.13612 25.2556 7.78226L22.4866 8.22561V10.7966L25.2556 11.24C25.421 11.8858 25.6766 12.4955 26.0083 13.0553L24.3632 15.3276L26.1812 17.1456L28.4535 15.5005C29.0127 15.8322 29.6227 16.0881 30.2688 16.2532L30.7119 19.0222H33.2829L33.7262 16.2532C34.3721 16.0878 34.9817 15.8322 35.5416 15.5005L37.8138 17.1456L39.6319 15.3276L37.9868 13.0553C38.3184 12.4961 38.5744 11.8861 38.7395 11.24L41.5085 10.7969V8.22591L38.7395 7.78286C38.5741 7.137 38.3184 6.52736 37.9868 5.96752L39.6319 3.69526L37.8138 1.87722L35.5416 3.52235C34.9814 3.18976 34.3715 2.93383 33.7256 2.76905Z" fill="#FFB81D"/>
</svg>
