<svg width="36" height="36" viewBox="0 0 36 36" fill="none" xmlns="http://www.w3.org/2000/svg">
<path d="M23.5467 13.0566H22.6412C21.6599 14.0379 19.9995 14.6418 18.1127 14.6418C16.226 14.6418 14.6409 14.0379 13.5843 13.0566H12.9052C9.58439 13.0566 6.94336 15.0945 6.94336 17.5851H29.2824C29.2824 15.0941 26.716 13.0566 23.5464 13.0566H23.5467Z" fill="#FFB81D" fill-opacity="0.58"/>
<path d="M18.1133 0C14.4151 0 11.3965 3.01852 11.3965 6.7168C11.3965 10.4149 14.415 13.4336 18.1133 13.4336C21.8114 13.4336 24.8301 10.4151 24.8301 6.7168C24.8301 3.01906 21.8116 0 18.1133 0ZM18.1133 11.9242C15.2453 11.9242 12.9057 9.58478 12.9057 6.71666C12.9057 6.26393 12.981 5.88647 13.0568 5.43375C13.6607 5.7354 14.7925 6.18866 16.0753 6.18866C16.9808 6.18866 17.9621 5.96229 18.8676 5.28319C18.9429 5.20791 21.2829 3.54752 23.0938 5.20791C23.2448 5.66064 23.3201 6.18917 23.3201 6.71716C23.3207 9.58461 20.9812 11.9242 18.1131 11.9242L18.1133 11.9242Z" fill="#FFB81D" fill-opacity="0.58"/>
<path d="M30.5655 32.0751V20.0756C30.5655 19.0943 29.7353 18.2642 28.7541 18.2642L7.47163 18.2647C6.49036 18.2647 5.66023 19.0949 5.66023 20.0761V32.0756H0V36.0002L35.9236 35.9997V32.0751H30.5655ZM18.1127 23.9248C19.2445 23.9248 20.1505 24.8303 20.1505 25.9626C20.1505 27.0944 19.2451 28.0004 18.1127 28.0004C16.9809 28.0004 16.0749 27.0949 16.0749 25.9626C16.0754 24.8303 16.9809 23.9248 18.1127 23.9248Z" fill="#FFB81D"/>
</svg>
