<svg width="39" height="32" viewBox="0 0 39 32" fill="none" xmlns="http://www.w3.org/2000/svg">
<path d="M35.707 17.107H26.6954C26.4747 17.107 26.2953 16.9279 26.2953 16.7069V9.50659C26.2953 9.2859 26.4744 9.1065 26.6954 9.1065H35.7077L35.7075 2.08541C35.7075 1.19097 34.9804 0.463867 34.0859 0.463867H1.62069C0.727029 0.463867 0 1.19097 0 2.08541V24.1291C0 25.0236 0.7271 25.7507 1.62069 25.7507H34.0859C34.9804 25.7507 35.7075 25.0236 35.7075 24.1291L35.7072 17.107L35.707 17.107ZM3.26323 12.7066H18.6752C18.8959 12.7066 19.0753 12.8857 19.0753 13.1067C19.0753 13.3274 18.8962 13.5068 18.6752 13.5068L3.26323 13.5065C3.04254 13.5065 2.86314 13.3274 2.86314 13.1064C2.86314 12.8857 3.04142 12.7066 3.26323 12.7066V12.7066ZM2.86314 9.15965C2.86314 8.93897 3.04226 8.75956 3.26323 8.75956H15.0125C15.2332 8.75956 15.4126 8.93868 15.4126 9.15965C15.4126 9.38034 15.2335 9.55974 15.0125 9.55974L3.26323 9.55947C3.04142 9.55947 2.86314 9.38035 2.86314 9.15965ZM8.37874 21.4018H3.26326C3.04257 21.4018 2.86317 21.2227 2.86317 21.0017C2.86317 20.781 3.04229 20.6016 3.26326 20.6016H8.37989C8.60057 20.6016 8.77998 20.7807 8.77998 21.0017C8.7797 21.2227 8.6003 21.4018 8.37877 21.4018H8.37874ZM12.6106 17.4542H3.26333C3.04264 17.4542 2.86324 17.275 2.86324 17.0541C2.86324 16.8334 3.04236 16.654 3.26333 16.654H12.6114C12.832 16.654 13.0114 16.8331 13.0114 17.0541C13.0112 17.2748 12.832 17.4542 12.6105 17.4542H12.6106ZM17.8533 24.4705C17.0445 24.4705 16.3869 23.8129 16.3869 23.0041C16.3869 22.1952 17.0445 21.5376 17.8533 21.5376C18.6621 21.5376 19.3197 22.1952 19.3197 23.0041C19.3197 23.8129 18.6621 24.4705 17.8533 24.4705ZM21.958 5.61158H3.2634C3.04271 5.61158 2.86331 5.43246 2.86331 5.21149C2.86331 4.9908 3.04243 4.8114 3.2634 4.8114H21.958C22.1787 4.8114 22.3581 4.99051 22.3581 5.21149C22.3581 5.43217 22.1787 5.61158 21.958 5.61158Z" fill="#FFB81D"/>
<path d="M26.0106 30.3391H9.6958V31.8125H26.0106V30.3391Z" fill="#FFB81D"/>
<path d="M18.5198 23.0044C18.5198 23.3724 18.2213 23.6709 17.8533 23.6709C17.4853 23.6709 17.187 23.3724 17.187 23.0044C17.187 22.6364 17.4853 22.3381 17.8533 22.3381C18.2213 22.3381 18.5198 22.6364 18.5198 23.0044Z" fill="#FFB81D"/>
<path d="M12.5684 26.5508H23.137V29.5395H12.5684V26.5508Z" fill="#FFB81D"/>
<path d="M38.1688 9.90674H36.108H36.1064H36.1047H27.0952V16.307H38.1696V9.90674H38.1688ZM31.0113 14.5454C31.157 14.7117 31.1394 14.9645 30.9728 15.1101C30.8969 15.1765 30.8032 15.2086 30.7097 15.2086C30.5979 15.2086 30.4874 15.1623 30.4081 15.0719L28.9241 13.3702C28.9121 13.3566 28.9082 13.3407 28.8993 13.3262C28.8834 13.303 28.8689 13.2807 28.8586 13.255C28.8491 13.2319 28.8441 13.2079 28.8393 13.183C28.8346 13.1574 28.8298 13.1325 28.8298 13.1072C28.8298 13.0815 28.8346 13.0567 28.8393 13.0313C28.8449 13.0064 28.8496 12.9833 28.8586 12.9593C28.8689 12.9336 28.8834 12.9113 28.8993 12.8881C28.9088 12.8736 28.913 12.8569 28.9241 12.8441L30.4081 11.1433C30.5538 10.9762 30.8065 10.96 30.9728 11.1048C31.1391 11.2504 31.1561 11.5032 31.0113 11.6695L29.757 13.1078L31.0113 14.5454ZM33.7087 10.9825L32.3202 15.4672C32.2675 15.6385 32.109 15.7487 31.9377 15.7487C31.8986 15.7487 31.8584 15.7431 31.8202 15.7311C31.6082 15.6656 31.4907 15.4415 31.5563 15.2312L32.9448 10.7465C33.0096 10.5353 33.2319 10.417 33.4448 10.4826C33.6569 10.5473 33.7743 10.7722 33.7087 10.9825V10.9825ZM36.4262 13.1825C36.4206 13.2073 36.4159 13.2313 36.407 13.2545C36.3967 13.2801 36.3821 13.3024 36.3662 13.3256C36.3568 13.3401 36.3526 13.3568 36.3414 13.3697L34.8574 15.0713C34.7782 15.1617 34.6677 15.208 34.5558 15.208C34.4624 15.208 34.3694 15.1751 34.2927 15.1095C34.1264 14.9639 34.1094 14.7111 34.2542 14.5448L35.5086 13.1058L34.2542 11.6675C34.1086 11.5012 34.1262 11.2484 34.2927 11.1028C34.4584 10.958 34.7118 10.9739 34.8574 11.1413L36.3414 12.8421C36.3534 12.8557 36.3573 12.8716 36.3662 12.8861C36.3821 12.9093 36.3966 12.9316 36.407 12.9573C36.4165 12.9813 36.4215 13.0044 36.4262 13.0293C36.431 13.0549 36.4357 13.0798 36.4357 13.1052C36.4357 13.1303 36.431 13.1559 36.4262 13.1824L36.4262 13.1825Z" fill="#FFB81D" fill-opacity="0.58"/>
</svg>
