<svg width="36" height="36" viewBox="0 0 36 36" fill="none" xmlns="http://www.w3.org/2000/svg">
<path d="M9.64293 28.7808V27.2959C10.459 26.5659 10.9263 25.5236 10.9285 24.4285V23.143C10.9285 21.7649 10.1934 20.4915 8.99989 19.8024C7.80665 19.1134 6.33625 19.1134 5.14273 19.8024C3.94949 20.4915 3.21415 21.7649 3.21415 23.143V24.4288V24.4285C3.21658 25.5236 3.68392 26.5659 4.49997 27.2959V28.7808C3.59161 29.1357 2.76487 29.6717 2.06989 30.3558C0.739169 31.6793 -0.00643269 33.4803 4.18169e-05 35.3573C4.18169e-05 35.5278 0.0675744 35.6912 0.188113 35.812C0.308917 35.9325 0.472234 36 0.642816 36H13.5002C13.6705 36 13.8341 35.9325 13.9547 35.812C14.0752 35.6912 14.143 35.5278 14.143 35.3573C14.1492 33.4803 13.4039 31.6793 12.0729 30.3558C11.3782 29.6716 10.5514 29.1357 9.64308 28.7808L9.64293 28.7808ZM8.35712 28.9288C8.35712 29.388 8.11201 29.8123 7.71435 30.0421C7.31643 30.2719 6.82645 30.2719 6.42854 30.0421C6.03062 29.8123 5.78578 29.388 5.78578 28.9288V28.0608C6.61658 28.3608 7.52632 28.3608 8.35712 28.0608V28.9288ZM7.07131 27.0002C6.38953 27.0002 5.73543 26.7293 5.25308 26.2468C4.77093 25.7647 4.49997 25.1106 4.49997 24.4286C5.24013 24.2281 5.92567 23.8633 6.50576 23.3615C7.45902 23.9553 8.52876 24.3368 9.64293 24.48C9.62948 25.1531 9.35263 25.794 8.87185 26.2651C8.39104 26.7365 7.74452 27.0002 7.07131 27.0002Z" fill="#FFB81D"/>
<path d="M33.9299 11.0702C33.235 10.386 32.4082 9.85 31.4999 9.49515V8.01021C32.3159 7.28024 32.7833 6.23799 32.7857 5.1429V3.85736C32.7857 2.47926 32.0503 1.20584 30.8571 0.51679C29.6636 -0.172263 28.1932 -0.172263 26.9999 0.51679C25.8064 1.20584 25.0714 2.47926 25.0714 3.85736V5.14317V5.1429C25.0735 6.23792 25.5409 7.28025 26.3569 8.01022V9.49515C25.4485 9.85003 24.6218 10.386 23.9271 11.0702C22.5961 12.3937 21.8508 14.1947 21.857 16.0716C21.857 16.2422 21.9248 16.4055 22.0453 16.5263C22.1658 16.6468 22.3294 16.7144 22.4997 16.7144H35.3572C35.5277 16.7144 35.6911 16.6468 35.8119 16.5263C35.9324 16.4055 35.9999 16.2422 35.9999 16.0716C36.0064 14.1947 35.2609 12.3937 33.9301 11.0702L33.9299 11.0702ZM30.2141 9.6431C30.2141 10.1024 29.9692 10.5267 29.5713 10.7564C29.1734 10.9862 28.6834 10.9862 28.2855 10.7564C27.8878 10.5267 27.6427 10.1024 27.6427 9.6431V8.7751C28.4735 9.0751 29.3832 9.0751 30.2141 8.7751V9.6431ZM26.3569 5.14317V5.1429C27.0973 4.94246 27.7829 4.57762 28.3627 4.07585C29.316 4.66965 30.386 5.05116 31.4999 5.19429C31.4907 6.11312 30.9922 6.95714 30.192 7.40857C29.3916 7.85977 28.4114 7.85009 27.6204 7.38274C26.8294 6.91539 26.3477 6.06166 26.3569 5.14283V5.14317Z" fill="#FFB81D"/>
<path d="M29.3848 18.1866C29.264 18.0649 29.0998 17.9963 28.9285 17.9963C28.7571 17.9963 28.5927 18.0649 28.4719 18.1866L26.5433 20.1151C26.2912 20.3672 26.2912 20.7759 26.5433 21.028C26.7954 21.2801 27.2041 21.2801 27.4562 21.028L28.2854 20.1923V25.0716C28.2854 25.5831 28.0823 26.0736 27.7207 26.4352C27.3591 26.7968 26.8683 27.0002 26.3568 27.0002H15.4287C15.0735 27.0002 14.7856 27.2879 14.7856 27.643C14.7856 27.9982 15.0735 28.2858 15.4287 28.2858H26.3568C27.2095 28.2858 28.0268 27.9473 28.6298 27.3443C29.2325 26.7417 29.5712 25.924 29.5712 25.0717V20.1924L30.4004 21.028C30.5212 21.1497 30.6856 21.2183 30.857 21.2183C31.0284 21.2183 31.1925 21.1497 31.3133 21.028C31.4349 20.9072 31.5036 20.7429 31.5036 20.5715C31.5036 20.4001 31.4349 20.236 31.3133 20.1151L29.3848 18.1866Z" fill="#FFB81D" fill-opacity="0.58"/>
<path d="M6.61472 17.8133C6.73553 17.9349 6.89965 18.0035 7.07104 18.0035C7.24243 18.0035 7.40682 17.9349 7.52762 17.8133L9.4562 15.8847C9.7083 15.6326 9.7083 15.2239 9.4562 14.9718C9.20409 14.7197 8.7954 14.7197 8.54329 14.9718L7.71407 15.8075V10.9282C7.71407 10.4168 7.91721 9.92627 8.27882 9.56466C8.64042 9.20305 9.13118 8.99965 9.64266 8.99965H20.5708C20.926 8.99965 21.2139 8.71203 21.2139 8.35688C21.2139 8.00173 20.926 7.71411 20.5708 7.71411H9.64266C8.79003 7.71411 7.97265 8.05258 7.3697 8.65553C6.76702 9.25821 6.42828 10.0759 6.42828 10.9282V15.8075L5.59906 14.9718C5.34695 14.7197 4.93826 14.7197 4.68615 14.9718C4.43404 15.2239 4.43404 15.6326 4.68615 15.8847L6.61472 17.8133Z" fill="#FFB81D" fill-opacity="0.58"/>
</svg>
