<svg width="30" height="30" viewBox="0 0 30 30" fill="none" xmlns="http://www.w3.org/2000/svg">
<path d="M27.7909 24.735H1.41858C1.16747 24.735 1 24.9025 1 25.1536V27.5814C1 27.8325 1.16747 28 1.41858 28H27.7909C28.042 28 28.2095 27.8325 28.2095 27.5814V25.1536C28.2095 24.9443 28.042 24.735 27.7909 24.735V24.735Z" fill="#FFB81D"/>
<path d="M11.0459 18.9165H13.139V21.3444H11.0459V18.9165Z" fill="#FFB81D" fill-opacity="0.58"/>
<path d="M11.0459 13.8927H13.139V16.3206H11.0459V13.8927Z" fill="#FFB81D" fill-opacity="0.58"/>
<path d="M16.0688 18.9165H18.162V21.3444H16.0688V18.9165Z" fill="#FFB81D" fill-opacity="0.58"/>
<path d="M11.0459 8.9118H13.139V11.3397H11.0459V8.9118Z" fill="#FFB81D" fill-opacity="0.58"/>
<path d="M11.0459 3.93005H13.139V6.35791H11.0459V3.93005Z" fill="#FFB81D" fill-opacity="0.58"/>
<path d="M16.0688 13.8927H18.162V16.3206H16.0688V13.8927Z" fill="#FFB81D" fill-opacity="0.58"/>
<path d="M16.0688 3.93005H18.162V6.35791H16.0688V3.93005Z" fill="#FFB81D" fill-opacity="0.58"/>
<path d="M16.0688 8.9118H18.162V11.3397H16.0688V8.9118Z" fill="#FFB81D" fill-opacity="0.58"/>
<path d="M21.052 1.41878C21.052 1.16767 20.8427 1.00019 20.6334 1.00019L8.57727 1C8.32617 1 8.15869 1.16747 8.15869 1.41858V23.8978H21.0516L21.052 1.41878ZM13.9778 21.7209C13.9778 21.9301 13.7685 22.1394 13.5592 22.1394H10.6289C10.3778 22.1394 10.2103 21.9301 10.2103 21.7209V18.4556C10.2103 18.2045 10.3778 18.037 10.6289 18.037H13.5592C13.7685 18.037 13.9778 18.2045 13.9778 18.4556V21.7209ZM13.9778 16.7394C13.9778 16.9906 13.7685 17.158 13.5592 17.158H10.6289C10.3778 17.158 10.2103 16.9906 10.2103 16.7394V13.4742C10.2103 13.2231 10.3778 13.0556 10.6289 13.0556H13.5592C13.7685 13.0556 13.9778 13.2231 13.9778 13.4742V16.7394ZM13.9778 11.758C13.9778 11.9673 13.7685 12.1766 13.5592 12.1766H10.6289C10.3778 12.1766 10.2103 11.9673 10.2103 11.758V8.49281C10.2103 8.2417 10.3778 8.07422 10.6289 8.07422H13.5592C13.7685 8.07422 13.9778 8.24169 13.9778 8.49281V11.758ZM13.9778 6.73468C13.9778 6.98579 13.7685 7.15327 13.5592 7.15327H10.6289C10.3778 7.15327 10.2103 6.9858 10.2103 6.73468V3.51129C10.2103 3.302 10.3778 3.09271 10.6289 3.09271H13.5592C13.7685 3.09271 13.9778 3.302 13.9778 3.51129V6.73468ZM19.0011 21.7204C19.0011 21.9297 18.7918 22.1389 18.5825 22.1389H15.6522C15.4011 22.1389 15.2337 21.9297 15.2337 21.7204V18.4551C15.2337 18.204 15.4011 18.0366 15.6522 18.0366H18.5825C18.7918 18.0366 19.0011 18.204 19.0011 18.4551V21.7204ZM19.0011 16.739C19.0011 16.9901 18.7918 17.1575 18.5825 17.1575H15.6522C15.4011 17.1575 15.2337 16.9901 15.2337 16.739V13.4737C15.2337 13.2226 15.4011 13.0551 15.6522 13.0551H18.5825C18.7918 13.0551 19.0011 13.2226 19.0011 13.4737V16.739ZM19.0011 11.7575C19.0011 11.9668 18.7918 12.1761 18.5825 12.1761H15.6522C15.4011 12.1761 15.2337 11.9668 15.2337 11.7575V8.49231C15.2337 8.2412 15.4011 8.07373 15.6522 8.07373H18.5825C18.7918 8.07373 19.0011 8.2412 19.0011 8.49231V11.7575ZM19.0011 6.73419C19.0011 6.9853 18.7918 7.15277 18.5825 7.15277H15.6522C15.4011 7.15277 15.2337 6.9853 15.2337 6.73419V3.5108C15.2337 3.30151 15.4011 3.09222 15.6522 3.09222H18.5825C18.7918 3.09222 19.0011 3.30151 19.0011 3.5108V6.73419Z" fill="#FFB81D" fill-opacity="0.58"/>
<path d="M27.2889 9.95842C27.2889 9.83276 27.2471 9.70731 27.1215 9.62347L22.7262 5.89785C22.6005 5.77219 22.4332 5.77219 22.2658 5.85603C22.0983 5.93967 22.0146 6.06532 22.0146 6.23279V23.8979H27.2472L27.247 9.95812L27.2889 9.95842ZM25.3215 22.1399H24.0237C23.8144 22.1399 23.6051 21.9306 23.6051 21.7213C23.6051 21.4702 23.8144 21.3027 24.0237 21.3027H25.3215C25.5308 21.3027 25.7401 21.4702 25.7401 21.7213C25.7401 21.9724 25.5728 22.1399 25.3215 22.1399ZM25.3215 18.8328H24.0237C23.8144 18.8328 23.6051 18.6236 23.6051 18.4143C23.6051 18.205 23.8144 17.9957 24.0237 17.9957H25.3215C25.5308 17.9957 25.7401 18.205 25.7401 18.4143C25.7401 18.6236 25.5728 18.8328 25.3215 18.8328ZM25.3215 15.484H24.0237C23.8144 15.484 23.6051 15.3165 23.6051 15.0654C23.6051 14.8143 23.8144 14.6468 24.0237 14.6468H25.3215C25.5308 14.6468 25.7401 14.8143 25.7401 15.0654C25.7401 15.2747 25.5728 15.484 25.3215 15.484ZM25.3215 12.1352H24.0237C23.8144 12.1352 23.6051 11.9677 23.6051 11.7166C23.6051 11.4655 23.8144 11.298 24.0237 11.298H25.3215C25.5308 11.298 25.7401 11.4655 25.7401 11.7166C25.7401 11.9677 25.5728 12.1352 25.3215 12.1352Z" fill="#FFB81D"/>
<path d="M7.15552 6.23272C7.15552 6.06525 7.07188 5.93978 6.90441 5.85595C6.73694 5.77232 6.56946 5.81413 6.44401 5.89777L2.0485 9.6234C1.96487 9.70704 1.92285 9.83269 1.92285 9.95834V23.9396H7.15538L7.15552 6.23272ZM5.18806 22.14H3.89049C3.63938 22.14 3.4719 21.9307 3.4719 21.7214C3.4719 21.4703 3.63937 21.3028 3.89049 21.3028H5.18826C5.43937 21.3028 5.60684 21.4703 5.60684 21.7214C5.60665 21.9725 5.43937 22.14 5.18807 22.14H5.18806ZM5.18806 18.833H3.89049C3.63938 18.833 3.4719 18.6237 3.4719 18.4144C3.4719 18.2051 3.63937 17.9958 3.89049 17.9958H5.18826C5.43937 17.9958 5.60684 18.2051 5.60684 18.4144C5.60665 18.6237 5.43937 18.833 5.18807 18.833H5.18806ZM5.18806 15.4841H3.89049C3.63938 15.4841 3.4719 15.3167 3.4719 15.0655C3.4719 14.8144 3.63937 14.647 3.89049 14.647H5.18826C5.43937 14.647 5.60684 14.8144 5.60684 15.0655C5.60665 15.2748 5.43937 15.4841 5.18807 15.4841H5.18806ZM5.18806 12.1353H3.89049C3.63938 12.1353 3.4719 11.9678 3.4719 11.7167C3.4719 11.4656 3.63937 11.2981 3.89049 11.2981H5.18826C5.43937 11.2981 5.60684 11.4656 5.60684 11.7167C5.60665 11.9678 5.43937 12.1353 5.18807 12.1353H5.18806Z" fill="#FFB81D"/>
</svg>
