<svg width="34" height="39" viewBox="0 0 34 39" fill="none" xmlns="http://www.w3.org/2000/svg">
<path d="M2.1355 21.6669H10.08V8.66675L2.1355 12.2779V21.6669Z" fill="#FFB81D" fill-opacity="0.58"/>
<path d="M31.0251 12.2779L23.0806 8.66675V21.6669H31.0251V12.2779Z" fill="#FFB81D" fill-opacity="0.58"/>
<path d="M19.4692 4.33337L16.5803 0L13.6913 4.33337H11.5247V21.6669H21.6359V4.33337H19.4692ZM19.4692 18.0557H13.6913V16.6113H19.4692V18.0557ZM19.4692 13.7223H13.6913V12.2779H19.4692V13.7223ZM19.4692 9.38897H13.6913V7.94452H19.4692V9.38897Z" fill="#FFB81D" fill-opacity="0.58"/>
<path d="M8.98477 29.0087C14.0317 28.2632 19.1603 28.2632 24.2069 29.0087C24.6299 27.0703 24.8611 25.0951 24.8969 23.1116H8.29468C8.33047 25.0951 8.56133 27.0703 8.98435 29.0087H8.98477Z" fill="#FFB81D"/>
<path d="M16.5949 29.8936C14.1629 29.8891 11.7334 30.0642 9.32715 30.4173C9.81175 32.2206 10.5614 33.9423 11.5515 35.5254C14.9031 35.1424 18.2872 35.1424 21.6388 35.5254C22.6293 33.9423 23.3789 32.2209 23.8632 30.4173C21.4566 30.0642 19.0271 29.8891 16.5948 29.8936H16.5949Z" fill="#FFB81D"/>
<path d="M7.50159 36.2833C8.28024 36.0789 9.1108 35.8983 9.992 35.7481C9.07506 34.147 8.37115 32.4333 7.89754 30.6499C6.24252 30.9436 4.61845 31.3902 3.04639 31.9838C4.25131 33.6813 5.76246 35.1393 7.50167 36.2833L7.50159 36.2833Z" fill="#FFB81D"/>
<path d="M2.24536 30.7479C3.96229 30.0718 5.74202 29.5678 7.55824 29.2434C7.12394 27.2273 6.88664 25.1734 6.85052 23.1116H0C0.114137 25.8022 0.885081 28.4238 2.24535 30.7479H2.24536Z" fill="#FFB81D"/>
<path d="M33.1913 23.1113H26.3411C26.3047 25.1732 26.0677 27.227 25.6331 29.2432C27.4496 29.5679 29.229 30.0718 30.9459 30.7476C32.3065 28.4236 33.0771 25.802 33.1913 23.1113H33.1913Z" fill="#FFB81D"/>
<path d="M25.2971 30.6499C24.8235 32.4332 24.1192 34.1476 23.2026 35.749C24.0845 35.8993 24.9144 36.0792 25.693 36.2836L25.6927 36.2833C27.4332 35.1397 28.945 33.6816 30.1512 31.9838C28.5778 31.3902 26.9528 30.9436 25.2971 30.6499L25.2971 30.6499Z" fill="#FFB81D"/>
<path d="M11.2869 37.0088C10.6182 37.1013 9.97491 37.2097 9.35718 37.3338C11.6125 38.4303 14.0877 39.0001 16.5956 39.0001C19.1034 39.0001 21.5786 38.4304 23.8343 37.3338C23.2172 37.21 22.5723 37.1016 21.9 37.0088C18.376 36.5677 14.8109 36.5677 11.287 37.0088H11.2869Z" fill="#FFB81D"/>
</svg>
