<svg width="32" height="32" viewBox="0 0 32 32" fill="none" xmlns="http://www.w3.org/2000/svg">
<path d="M13.3334 22.6668C13.3334 17.7894 17.0964 13.7813 21.8682 13.3727C21.6043 12.5111 21.3018 11.6774 20.9218 10.9224C16.38 14.1227 10.2863 14.1202 5.7471 10.9193C5.34337 11.7268 5.02304 12.6201 4.7499 13.5446L1.02091 12.0002L0 14.4639L4.17963 16.1927C4.07277 16.9974 4.00134 17.8179 4.00134 18.667H0.00142176V21.3332H4.18884C4.29961 22.1173 4.4659 22.8748 4.6693 23.6016L0.00139288 25.5363L1.02087 28L5.58885 26.1069C7.26546 29.6612 10.1083 31.9999 13.3344 31.9999C14.8796 31.9999 16.3327 31.453 17.6167 30.5027C15.0437 28.8412 13.3327 25.9504 13.3327 22.6671L13.3334 22.6668Z" fill="#FFB81D"/>
<path d="M17.0754 6.46861L19.3335 1.02063L16.8701 0L14.6045 5.47149C14.1876 5.38778 13.7658 5.3331 13.335 5.3331C12.9025 5.3331 12.4795 5.38778 12.0627 5.47149L9.79715 0L7.33349 1.02091L9.59151 6.47168C8.70875 7.02887 7.89398 7.76324 7.17749 8.66415C10.8415 11.3098 15.8273 11.3098 19.4922 8.66415C18.7758 7.76266 17.9593 7.02575 17.0751 6.46861H17.0754Z" fill="#FFB81D"/>
<path d="M28.2251 26.3383C28.9216 25.2836 29.3331 24.0231 29.3331 22.6665C29.3331 18.9841 26.3488 15.9998 22.667 15.9998C18.9845 15.9998 16.0002 18.9841 16.0002 22.6665C16.0002 26.3484 18.9845 29.3327 22.667 29.3327C24.0249 29.3327 25.2852 28.9214 26.3402 28.2236L30.1144 31.9995L31.9999 30.114L28.2251 26.3383ZM22.667 26.6664C20.4574 26.6664 18.667 24.8749 18.667 22.6665C18.667 20.4556 20.4574 18.6666 22.667 18.6666C24.8762 18.6666 26.6669 20.4556 26.6669 22.6665C26.6669 24.8749 24.8762 26.6664 22.667 26.6664Z" fill="#FFB81D" fill-opacity="0.58"/>
</svg>
