<svg width="37" height="36" viewBox="0 0 37 36" fill="none" xmlns="http://www.w3.org/2000/svg">
<path d="M12.4197 35.9996C10.9342 35.9996 9.45455 35.4322 8.32894 34.3173C8.00809 33.999 7.63013 33.7556 7.20598 33.5946C6.1708 33.2003 4.8926 33.5275 3.95272 34.4266L2.68391 35.6391C2.16963 36.131 1.35604 36.1127 0.86645 35.5969C0.376276 35.0824 0.394929 34.2668 0.908637 33.7763L2.17744 32.5632C3.82989 30.9833 6.16083 30.443 8.11803 31.186C8.88144 31.4764 9.56073 31.9138 10.1375 32.4866C11.2995 33.6374 13.1414 33.7407 14.4208 32.7274L14.9004 32.3468C17.0249 30.6625 19.9956 30.6614 22.1198 32.3468L22.6008 32.7285C23.879 33.7424 25.7221 33.638 26.8835 32.4857C27.4624 31.912 28.1417 31.4749 28.9024 31.1857C30.8585 30.443 33.1903 30.9839 34.8425 32.5623L36.1118 33.7754C36.6253 34.2668 36.6442 35.0818 36.1546 35.597C35.6661 36.1115 34.8499 36.1316 34.3365 35.6397L33.0672 34.4266C32.1257 33.526 30.8463 33.2009 29.814 33.5946C29.3909 33.7556 29.013 33.9984 28.6916 34.3173C26.6072 36.3853 23.3002 36.5689 21.0038 34.7475L20.5228 34.3658C19.3402 33.4268 17.6823 33.4268 16.4961 34.3669L16.0166 34.7475C14.959 35.5857 13.688 35.999 12.4198 35.9996L12.4197 35.9996Z" fill="#FFB81D"/>
<path d="M34.8425 28.7099C33.8523 27.7646 32.6181 27.2012 31.367 27.0537V26.1058L33.3409 23.1439H35.2241C35.9347 23.1439 36.5098 22.5679 36.5098 21.8576C36.5098 21.1473 35.9347 20.5713 35.2241 20.5713H1.79595C1.08595 20.5713 0.510254 21.1473 0.510254 21.8576C0.510254 22.5679 1.08595 23.1439 1.79595 23.1439H3.67947L5.65305 26.1058V27.0532C4.40181 27.2007 3.16717 27.7646 2.17711 28.7106L0.908306 29.9222C0.394886 30.4121 0.375946 31.2269 0.866119 31.7406C1.35572 32.2557 2.1693 32.2738 2.68358 31.7827L3.95238 30.572C4.89227 29.6732 6.17025 29.3486 7.20564 29.7411C7.63009 29.9018 8.00807 30.1449 8.32861 30.4629C9.45415 31.5764 10.9339 32.1429 12.4193 32.1429C13.6876 32.1423 14.9586 31.7296 16.0164 30.8925L16.496 30.5125C17.6818 29.5735 19.3397 29.5735 20.5227 30.5114L21.0037 30.8925C23.3002 32.7108 26.6074 32.5286 28.6915 30.4628C29.0129 30.1443 29.3908 29.9021 29.8138 29.7411C30.8458 29.3479 32.1252 29.6739 33.0671 30.5719L34.3364 31.7836C34.8498 32.2735 35.666 32.2545 36.1545 31.7408C36.6441 31.2265 36.6254 30.4124 36.1117 29.9219L34.8425 28.7099ZM26.2246 29.1226C25.0994 29.7752 23.6592 29.7138 22.6011 28.8755L22.1201 28.4944C19.9956 26.8112 17.025 26.8123 14.9007 28.4944L14.4211 28.8744C13.3616 29.7126 11.9215 29.7738 10.7962 29.122V26.1061L12.7701 23.1441H24.251L26.2246 26.1058L26.2246 29.1226Z" fill="#FFB81D"/>
<path d="M27.5103 3.85693H30.08L27.5103 7.71403V3.85693Z" fill="#FFB81D" fill-opacity="0.58"/>
<path d="M35.2194 3.85693H32.6497L35.2194 7.71403V3.85693Z" fill="#FFB81D"/>
<path d="M31.3643 12.857L28.7949 8.99992L31.3643 5.14282L33.934 8.99992L31.3643 12.857Z" fill="#FFB81D" fill-opacity="0.58"/>
<path d="M27.5103 10.2856L30.08 14.1427L27.5103 17.9998V10.2856Z" fill="#FFB81D" fill-opacity="0.58"/>
<path d="M35.2194 10.2856L32.6497 14.1427L35.2194 17.9998V10.2856Z" fill="#FFB81D" fill-opacity="0.58"/>
<path d="M28.7952 19.2853L31.3646 15.4282L33.9343 19.2853H28.7952Z" fill="#FFB81D" fill-opacity="0.58"/>
<path d="M27.5103 2.5714L31.3674 0L35.2244 2.5714H27.5103Z" fill="#FFB81D" fill-opacity="0.58"/>
<path d="M22.3674 6.42847H13.3675C12.6575 6.42847 12.0818 7.00416 12.0818 7.71417V10.2856H23.6531V7.71417C23.6531 7.00416 23.0774 6.42847 22.3674 6.42847ZM14.6532 8.99986H13.3675V7.71417H14.6532V8.99986ZM17.2246 8.99986H15.9389V7.71417H17.2246V8.99986ZM19.796 8.99986H18.5103V7.71417H19.796V8.99986ZM22.3674 8.99986H21.0817V7.71417H22.3674V8.99986Z" fill="#FFB81D" fill-opacity="0.58"/>
<path d="M23.6531 11.5713H12.0818C11.3718 11.5713 10.7961 12.147 10.7961 12.857V19.2855H24.9388V12.857C24.9388 12.147 24.3631 11.5713 23.6531 11.5713ZM14.6532 15.4284H12.0818V12.857H14.6532V15.4284ZM19.796 15.4284H15.9389V12.857H19.796V15.4284ZM23.6531 15.4284H21.0817V12.857H23.6531V15.4284Z" fill="#FFB81D" fill-opacity="0.58"/>
<path d="M6.93901 11.5714C6.229 11.5714 5.65331 12.1471 5.65331 12.8571C5.65331 13.5659 5.07646 14.1428 4.36761 14.1428C3.65876 14.1428 3.08191 13.5659 3.08191 12.8571C3.08191 12.1482 3.65876 11.5714 4.36761 11.5714C5.07762 11.5714 5.65331 10.9957 5.65331 10.2857V3.7843L10.8202 7.47492C10.9083 6.53988 11.4886 5.75039 12.3079 5.37732L5.11464 0.239074C4.7229 -0.0390196 4.20693 -0.0771864 3.77927 0.142646C3.35109 0.362765 3.0819 0.804149 3.0819 1.28574V9.22034C1.58527 9.7507 0.510498 11.1808 0.510498 12.857C0.510498 14.9839 2.24076 16.7141 4.3676 16.7141C6.49444 16.7141 8.22469 14.9839 8.22469 12.857C8.22469 12.147 7.649 11.5713 6.93899 11.5713L6.93901 11.5714Z" fill="#FFB81D"/>
</svg>
