<svg width="33" height="32" viewBox="0 0 33 32" fill="none" xmlns="http://www.w3.org/2000/svg">
<path d="M27.1407 14.0417C30.3422 14.0417 32.604 15.4224 32.1932 17.1283L30.3274 24.8473C29.9172 26.5502 28.1709 27.933 26.4289 27.933H24.8531C24.4873 27.933 24.123 27.8692 23.7693 27.7551L26.3256 17.1768C26.5775 16.1423 26.3425 15.1251 25.6464 14.2442C25.5915 14.1774 25.5314 14.1096 25.4701 14.0415L27.1407 14.0417Z" fill="#FFB81D" fill-opacity="0.58"/>
<path d="M25.6806 4.78247C27.8137 4.78247 29.5424 6.50987 29.5424 8.63923C29.5424 10.7702 27.814 12.4995 25.6806 12.4995C23.5496 12.4995 21.8225 10.7705 21.8225 8.63923C21.822 6.50938 23.5491 4.78247 25.6806 4.78247Z" fill="#FFB81D" fill-opacity="0.58"/>
<path d="M18.3707 12.6965C22.762 12.6965 25.8616 14.5914 25.2965 16.9296L22.741 27.5093C22.1757 29.8459 19.7826 31.7416 17.3957 31.7416H15.2329C12.846 31.7416 10.4677 29.8459 9.92009 27.5093L7.43947 16.9296C6.89139 14.5914 10.0081 12.6965 14.397 12.6965H18.3707Z" fill="#FFB81D"/>
<path d="M21.66 5.29024C21.66 8.21184 19.2917 10.5805 16.3701 10.5805C13.4483 10.5805 11.0798 8.21184 11.0798 5.29024C11.0798 2.36864 13.4482 0 16.3701 0C19.2917 0 21.66 2.36864 21.66 5.29024Z" fill="#FFB81D"/>
<path d="M7.06059 4.78247C9.19155 4.78247 10.9182 6.50987 10.9182 8.63923C10.9182 10.7702 9.19155 12.4995 7.06059 12.4995C4.92695 12.4995 3.20142 10.7705 3.20142 8.63923C3.20142 6.50938 4.92695 4.78247 7.06059 4.78247Z" fill="#FFB81D" fill-opacity="0.58"/>
<path d="M8.88955 27.7506V27.7552C8.5361 27.8693 8.17402 27.9331 7.80822 27.9331H6.23182C4.49202 27.9331 2.7525 26.5503 2.35486 24.8474L0.545599 17.1283C0.145843 15.4224 2.41895 14.0417 5.61993 14.0417H7.28062C7.22193 14.1101 7.16109 14.1718 7.10591 14.2445C6.40705 15.1247 6.16854 16.1355 6.41002 17.1717L8.88955 27.7506Z" fill="#FFB81D" fill-opacity="0.58"/>
</svg>
