<svg width="39" height="39" viewBox="0 0 39 39" fill="none" xmlns="http://www.w3.org/2000/svg">
<path d="M25.8821 20.123C25.5405 20.123 25.261 19.8355 25.261 19.4842C25.261 16.2262 22.6835 13.5751 19.516 13.5751C19.2365 13.5751 18.926 13.607 18.6465 13.6389C18.3049 13.7028 17.9943 13.4473 17.9323 13.0959C17.8702 12.7446 18.1186 12.4252 18.4602 12.3613C18.8018 12.2975 19.1744 12.2655 19.516 12.2655C23.3667 12.2655 26.5032 15.4916 26.5032 19.4523C26.5032 19.8356 26.2237 20.1231 25.8821 20.1231L25.8821 20.123Z" fill="#FFB81D" fill-opacity="0.58"/>
<path d="M19.4853 26.7033C15.6346 26.7033 12.4982 23.4772 12.4982 19.5165C12.4982 17.6001 13.2124 15.7794 14.5477 14.4379C14.7962 14.1824 15.1688 14.1824 15.4172 14.4379C15.6657 14.6935 15.6657 15.0767 15.4172 15.3323C14.3304 16.4502 13.7403 17.9514 13.7403 19.5165C13.7403 22.7745 16.3178 25.4257 19.4853 25.4257C20.0443 25.4257 20.6033 25.3298 21.1622 25.1701C21.5038 25.0743 21.8454 25.266 21.9386 25.5854C22.0318 25.9367 21.8455 26.2881 21.5349 26.3839C20.8517 26.5756 20.1996 26.7034 19.4854 26.7034L19.4853 26.7033Z" fill="#FFB81D" fill-opacity="0.58"/>
<path d="M27.8077 19.0375L27.3729 19.4847C26.7518 20.1235 25.9134 20.4748 25.0749 20.4748H21.8142C21.1932 20.4748 20.6963 20.9858 20.6963 21.6247V23.1898H21.5969L22.7769 28.4282H24.6402L22.9943 23.1898H25.1059C25.9444 23.1898 26.7518 23.5092 27.3729 24.1161L27.8077 24.5633V19.0375Z" fill="#FFB81D" fill-opacity="0.58"/>
<path d="M28.2115 20.4422V22.8377C28.8016 22.7738 29.2364 22.2628 29.2364 21.6558C29.2364 21.017 28.8016 20.5379 28.2115 20.4421V20.4422Z" fill="#FFB81D" fill-opacity="0.58"/>
<path d="M15.6034 16.9611C15.5724 16.9611 15.5724 16.9611 15.6034 16.9611C15.2308 16.9611 14.9823 16.6417 14.9823 16.2903L15.0134 15.0127L13.6159 14.9808C13.2744 14.9808 12.9949 14.6613 13.0259 14.31C13.0259 13.9586 13.3365 13.6712 13.6781 13.7031L16.3177 13.7989L16.2556 16.3542C16.1934 16.6736 15.914 16.9611 15.6034 16.9611Z" fill="#FFB81D" fill-opacity="0.58"/>
<path d="M20.1063 20.123H17.5599C17.2183 20.123 16.9388 19.8355 16.9388 19.4842C16.9388 19.1328 17.2183 18.8454 17.5599 18.8454H18.8642V15.236C18.8642 14.8846 19.1437 14.5972 19.4853 14.5972C19.8269 14.5972 20.1063 14.8846 20.1063 15.236V20.123Z" fill="#FFB81D" fill-opacity="0.58"/>
<path d="M38.4285 22.9017V16.0663H34.702C34.2983 14.1819 33.5841 12.4251 32.6215 10.828L35.2611 8.11297L30.5409 3.2899L27.9013 6.03684C26.3796 5.01472 24.6406 4.28011 22.8084 3.89682V0H16.1629V3.83293C14.3308 4.24817 12.6228 4.98281 11.0701 5.97295L8.43046 3.25792L3.74136 8.11297L6.38097 10.828C5.38725 12.3932 4.67305 14.1819 4.3004 16.0663H0.542847V22.9337H4.26931C4.67301 24.8181 5.38725 26.5749 6.34988 28.172L3.71027 30.887L8.43046 35.7421L11.0701 33.027C12.5917 34.0492 14.3308 34.7838 16.1629 35.1671V39H22.8395V35.1671C24.6716 34.7518 26.3796 34.0172 27.9323 33.027L30.5719 35.7421L35.2921 30.887L32.6525 28.172C33.6462 26.6068 34.3604 24.8181 34.7331 22.9337H38.4284L38.4285 22.9017ZM19.4853 31.0466C13.2745 31.0466 8.24343 25.8721 8.24343 19.4835C8.24343 13.0949 13.2742 7.92045 19.4853 7.92045C25.6964 7.92045 30.7271 13.0949 30.7271 19.4835C30.7271 25.8721 25.6964 31.0466 19.4853 31.0466Z" fill="#FFB81D"/>
</svg>
