<svg width="20" height="20" viewBox="0 0 20 20" fill="none" xmlns="http://www.w3.org/2000/svg">
<path d="M1.0293 7.83882L1.0295 7.83871C1.57738 7.51584 2.24017 7.50585 2.79882 7.81696L2.79895 7.81704L9.59282 11.5915L9.66566 11.632L9.73851 11.5915L16.5333 7.81704L16.5334 7.81697C17.092 7.5059 17.7531 7.51577 18.3029 7.83881L18.303 7.83882C18.8542 8.16253 19.1823 8.73674 19.1823 9.37601V14.4988C19.1823 17.0811 17.0809 19.1826 14.4985 19.1826H4.83284C2.25059 19.1826 0.15 17.0812 0.15 14.4998V9.37601C0.15 8.73674 0.478071 8.16253 1.0293 7.83882ZM2.00579 9.24396L1.78295 9.12016V9.37508V14.4988C1.78295 16.1812 3.15054 17.5487 4.83284 17.5487H14.4995C16.1818 17.5487 17.5494 16.1812 17.5494 14.4988V9.37508V9.12016L17.3265 9.24396L10.0624 13.2794L10.0622 13.2796C9.81663 13.4165 9.51494 13.4164 9.27053 13.2797L9.27014 13.2794L2.00579 9.24396Z" fill="#363636" stroke="#FFEDE0" stroke-width="0.3"/>
<path d="M16.8287 9.52009L16.8288 9.52004C17.0884 9.37607 17.2491 9.10365 17.2491 8.80663V4.83284C17.2491 2.25141 15.1485 0.15 12.5662 0.15H6.76644C4.18501 0.15 2.08359 2.25059 2.08359 4.83284V8.80663C2.08359 9.10361 2.24426 9.37624 2.50331 9.52114C2.50334 9.52116 2.50337 9.52118 2.5034 9.5212L9.26949 13.2798L16.8287 9.52009ZM16.8287 9.52009L10.062 13.279L10.0613 13.2794M16.8287 9.52009L10.0613 13.2794M10.0613 13.2794C9.93931 13.3481 9.80252 13.3825 9.66633 13.3825C9.53028 13.3825 9.39317 13.3481 9.26976 13.2799L10.0613 13.2794ZM3.71655 8.23754V8.3258L3.79371 8.36866L9.59349 11.5903L9.66633 11.6308L9.73917 11.5903L15.539 8.36866L15.6161 8.3258V8.23754V4.83283C15.6161 3.15052 14.2485 1.78294 12.5662 1.78294H6.76644C5.08413 1.78294 3.71655 3.15052 3.71655 4.83283V8.23754Z" fill="#363636" stroke="#FFEDE0" stroke-width="0.3"/>
<path d="M11.5985 5.6487H7.73166C7.28074 5.6487 6.91563 5.28359 6.91563 4.83266C6.91563 4.38165 7.28083 4.01572 7.73256 4.01572H11.5994C12.0511 4.01572 12.4163 4.38165 12.4163 4.83266C12.4154 5.28363 12.0503 5.6487 11.5985 5.6487Z" fill="#363636" stroke="#FFEDE0" stroke-width="0.3"/>
<path d="M9.66552 8.54853H7.73256C7.28083 8.54853 6.91563 8.1826 6.91563 7.73159C6.91563 7.28057 7.28083 6.91465 7.73256 6.91465H9.66552C10.1173 6.91465 10.4825 7.28057 10.4825 7.73159C10.4825 8.18342 10.1173 8.54853 9.66552 8.54853Z" fill="#363636" stroke="#FFEDE0" stroke-width="0.3"/>
</svg>
