<svg width="30" height="30" viewBox="0 0 30 30" fill="none" xmlns="http://www.w3.org/2000/svg">
<path d="M28.5246 11H24.5901V28H22.6229V17H18.6885V28H16.7213V21H12.7869V28H10.8197V24H6.88524V28H1.96721V0H0V30H29.5082V28H28.5246V11Z" fill="#FFB81D"/>
<path d="M29.5077 5H26.5569V6H28.3206L26.8452 7.5H25.0117C24.7919 6.63949 24.0281 6 23.1143 6C22.0294 6 21.1471 6.89709 21.1471 8C21.1471 8.5625 21.3783 9.06943 21.7471 9.43349L20.3775 11.5226C20.3066 11.5141 20.2368 11.5 20.1635 11.5C19.2497 11.5 18.4858 12.1395 18.2661 13H16.1593C15.9395 12.1395 15.1756 11.5 14.2618 11.5C13.177 11.5 12.2946 12.3971 12.2946 13.5C12.2946 13.8931 12.4108 14.2576 12.604 14.5665L9.78598 18.2505C9.50649 18.096 9.19189 18 8.85201 18C7.93821 18 7.17437 18.6395 6.9546 19.5H4.42578V20.5H6.9546C7.17438 21.3606 7.93821 22 8.85201 22C9.93684 22 10.8192 21.103 10.8192 20C10.8192 19.607 10.7031 19.2424 10.5099 18.9335L13.3279 15.2496C13.6074 15.404 13.922 15.5 14.2618 15.5C15.1756 15.5 15.9395 14.8605 16.1593 14H18.2661C18.4859 14.8605 19.2497 15.5 20.1635 15.5C21.2483 15.5 22.1307 14.6029 22.1307 13.5C22.1307 12.8375 21.8086 12.2536 21.3188 11.8895L22.6074 9.92454C22.7701 9.96851 22.9378 9.99999 23.1143 9.99999C24.0281 9.99999 24.792 9.3605 25.0117 8.49999H27.0488C27.1792 8.49999 27.3045 8.44753 27.3965 8.35356L29.0159 6.70693V8.50002H29.9995V5.50002C29.9995 5.22346 29.7791 5.00002 29.5077 5.00002L29.5077 5ZM8.85199 21C8.30947 21 7.86839 20.5516 7.86839 20C7.86839 19.4484 8.30947 19 8.85199 19C9.39451 19 9.8356 19.4484 9.8356 20C9.8356 20.5516 9.39451 21 8.85199 21ZM14.2618 14.5C13.7193 14.5 13.2782 14.0516 13.2782 13.5C13.2782 12.9484 13.7193 12.5 14.2618 12.5C14.8043 12.5 15.2454 12.9484 15.2454 13.5C15.2454 14.0516 14.8043 14.5 14.2618 14.5ZM20.1635 14.5C19.6209 14.5 19.1799 14.0516 19.1799 13.5C19.1799 12.9484 19.6209 12.5 20.1635 12.5C20.706 12.5 21.1471 12.9484 21.1471 13.5C21.1471 14.0516 20.706 14.5 20.1635 14.5ZM23.1143 9C22.5718 9 22.1307 8.55156 22.1307 8C22.1307 7.44844 22.5718 7 23.1143 7C23.6568 7 24.0979 7.44844 24.0979 8C24.0979 8.55156 23.6568 9 23.1143 9Z" fill="#FFB81D" fill-opacity="0.58"/>
<path d="M9.34384 6.50017C9.21848 6.50017 9.10672 6.44861 9.02022 6.37026L9.01737 6.37384L5.1591 2.88721C4.69716 3.64858 4.42578 4.54166 4.42578 5.50018C4.42578 8.25709 6.63209 10.5002 9.34381 10.5002C11.7187 10.5002 13.7057 8.77966 14.1626 6.50018L9.34384 6.50017Z" fill="#FFB81D" fill-opacity="0.58"/>
<path d="M5.75586 2.08991L8.85068 4.88653V0.525391C7.63303 0.649053 6.54865 1.22853 5.75586 2.08991Z" fill="#FFB81D" fill-opacity="0.58"/>
<path d="M9.83594 0.525391V5.49996H14.2622C14.2622 2.91202 12.3175 0.776991 9.83594 0.525391Z" fill="#FFB81D" fill-opacity="0.58"/>
</svg>
