<svg width="29" height="29" viewBox="0 0 29 29" fill="none" xmlns="http://www.w3.org/2000/svg">
<path d="M27.5726 10.6329H23.7695V27.0655H21.8679V16.4326H18.0648V27.0655H16.1632V20.2992H12.3601V27.0655H10.4586V23.199H6.65546V27.0655H1.90156V0H0V28.9988H28.5234V27.0655H27.5726V10.6329Z" fill="#FFB81D"/>
<path d="M28.5261 4.8335H25.6738V5.80012H27.3786L25.9524 7.25006H24.1801C23.9677 6.41827 23.2293 5.80012 22.346 5.80012C21.2974 5.80012 20.4445 6.66727 20.4445 7.73338C20.4445 8.27711 20.668 8.76711 21.0245 9.11902L19.7006 11.1384C19.6321 11.1302 19.5646 11.1166 19.4937 11.1166C18.6104 11.1166 17.8721 11.7347 17.6596 12.5665H15.6231C15.4107 11.7347 14.6724 11.1166 13.7891 11.1166C12.7404 11.1166 11.8875 11.9837 11.8875 13.0498C11.8875 13.4298 11.9998 13.7822 12.1865 14.0808L9.46256 17.6418C9.1924 17.4925 8.88829 17.3997 8.55976 17.3997C7.67646 17.3997 6.93811 18.0178 6.72568 18.8496H4.28125V19.8162H6.72568C6.93812 20.648 7.67646 21.2662 8.55976 21.2662C9.60839 21.2662 10.4613 20.399 10.4613 19.3329C10.4613 18.953 10.349 18.6006 10.1623 18.302L12.8862 14.741C13.1564 14.8903 13.4605 14.9831 13.7891 14.9831C14.6724 14.9831 15.4107 14.365 15.6231 13.5332H17.6596C17.8721 14.365 18.6104 14.9831 19.4937 14.9831C20.5424 14.9831 21.3953 14.116 21.3953 13.0498C21.3953 12.4094 21.0839 11.845 20.6105 11.4931L21.8561 9.59369C22.0133 9.63619 22.1755 9.66662 22.3461 9.66662C23.2294 9.66662 23.9677 9.04847 24.1802 8.21668H26.1492C26.2753 8.21668 26.3965 8.16597 26.4854 8.07513L28.0507 6.48346V8.2167H29.0015V5.31682C29.0015 5.04949 28.7884 4.83351 28.5261 4.83351L28.5261 4.8335ZM8.55974 20.2995C8.03533 20.2995 7.60896 19.866 7.60896 19.3329C7.60896 18.7997 8.03533 18.3663 8.55974 18.3663C9.08415 18.3663 9.51052 18.7997 9.51052 19.3329C9.51052 19.866 9.08415 20.2995 8.55974 20.2995ZM13.789 14.0164C13.2646 14.0164 12.8382 13.583 12.8382 13.0498C12.8382 12.5167 13.2646 12.0832 13.789 12.0832C14.3134 12.0832 14.7398 12.5167 14.7398 13.0498C14.7398 13.583 14.3134 14.0164 13.789 14.0164ZM19.4937 14.0164C18.9693 14.0164 18.5429 13.583 18.5429 13.0498C18.5429 12.5167 18.9693 12.0832 19.4937 12.0832C20.0181 12.0832 20.4445 12.5167 20.4445 13.0498C20.4445 13.583 20.0181 14.0164 19.4937 14.0164ZM22.346 8.7C21.8216 8.7 21.3953 8.26653 21.3953 7.73338C21.3953 7.20022 21.8216 6.76675 22.346 6.76675C22.8705 6.76675 23.2968 7.20022 23.2968 7.73338C23.2968 8.26653 22.8705 8.7 22.346 8.7Z" fill="#FFB81D" fill-opacity="0.58"/>
<path d="M9.03127 6.28292C8.91009 6.28292 8.80206 6.23307 8.71845 6.15734L8.71569 6.16079L4.98619 2.79053C4.53966 3.52649 4.27734 4.38977 4.27734 5.31629C4.27734 7.9812 6.41002 10.1494 9.03124 10.1494C11.3269 10.1494 13.2475 8.48633 13.6892 6.28292L9.03127 6.28292Z" fill="#FFB81D" fill-opacity="0.58"/>
<path d="M5.56641 2.02011L8.55794 4.72341V0.507812C7.38093 0.627348 6.33273 1.18749 5.56641 2.02011Z" fill="#FFB81D" fill-opacity="0.58"/>
<path d="M9.50781 0.507812V5.31636H13.7863C13.7863 2.81479 11.9066 0.751016 9.50781 0.507812Z" fill="#FFB81D" fill-opacity="0.58"/>
</svg>
