<svg width="30" height="31" viewBox="0 0 30 31" fill="none" xmlns="http://www.w3.org/2000/svg">
<path d="M19.6663 10.9038H18.9101C18.0907 11.7233 16.704 12.2276 15.1284 12.2276C13.5528 12.2276 12.229 11.7233 11.3467 10.9038H10.7795C8.00633 10.9038 5.80078 12.6056 5.80078 14.6855H24.4562C24.4562 12.6053 22.313 10.9038 19.6661 10.9038H19.6663Z" fill="#FFB81D" fill-opacity="0.58"/>
<path d="M15.1288 0C12.0404 0 9.51953 2.52078 9.51953 5.60924C9.51953 8.69759 12.0403 11.2185 15.1288 11.2185C18.2171 11.2185 20.738 8.6977 20.738 5.60924C20.738 2.52123 18.2172 0 15.1288 0ZM15.1288 9.95798C12.7337 9.95798 10.7799 8.00431 10.7799 5.60913C10.7799 5.23105 10.8428 4.91583 10.9061 4.53776C11.4104 4.78967 12.3556 5.16819 13.4269 5.16819C14.183 5.16819 15.0025 4.97915 15.7587 4.41202C15.8216 4.34916 17.7757 2.96256 19.288 4.34916C19.4142 4.72724 19.477 5.16862 19.477 5.60955C19.4775 8.00417 17.5238 9.95795 15.1286 9.95795L15.1288 9.95798Z" fill="#FFB81D" fill-opacity="0.58"/>
<path d="M25.5254 26.7861V16.7652C25.5254 15.9457 24.8321 15.2524 24.0127 15.2524L6.23961 15.2529C5.42015 15.2529 4.72689 15.9462 4.72689 16.7656V26.7865H0V30.0639L30 30.0635V26.7861H25.5254ZM15.1261 19.9797C16.0713 19.9797 16.8278 20.7358 16.8278 21.6815C16.8278 22.6267 16.0717 23.3833 15.1261 23.3833C14.1809 23.3833 13.4243 22.6271 13.4243 21.6815C13.4247 20.7358 14.1809 19.9797 15.1261 19.9797Z" fill="#FFB81D"/>
</svg>
