<svg width="33" height="32" viewBox="0 0 33 32" fill="none" xmlns="http://www.w3.org/2000/svg">
<path d="M30.1925 27.2503L28.0651 24.6871C28.0128 24.6241 27.9843 24.5447 27.9843 24.4628V20.5815H25.2316V24.4677C25.2317 24.5498 25.203 24.6293 25.1505 24.6924L23.0234 27.2503H30.1925Z" fill="#FFAD00"/>
<path d="M24.5912 19.8793H28.6238C28.7402 19.8792 28.8517 19.8329 28.934 19.7507C29.0163 19.6684 29.0626 19.5568 29.0627 19.4404V18.4531C29.0633 18.3953 29.0524 18.3379 29.0305 18.2844C29.0087 18.2309 28.9764 18.1822 28.9355 18.1414C28.8946 18.1005 28.846 18.0682 28.7925 18.0463C28.7389 18.0245 28.6816 18.0136 28.6238 18.0142H24.5912C24.4749 18.0143 24.3633 18.0605 24.281 18.1428C24.1987 18.2251 24.1524 18.3367 24.1523 18.4531V19.4404C24.1524 19.5568 24.1987 19.6684 24.281 19.7507C24.3633 19.8329 24.4749 19.8792 24.5912 19.8793Z" fill="#FFAD00"/>
<path opacity="0.58" d="M0 29.626V31.7678H13.5348V26.2448L11.6816 22.938L9.55032 25.0587C9.45865 25.1498 9.34151 25.211 9.21436 25.2341C9.08722 25.2573 8.95604 25.2413 8.83815 25.1884C8.72025 25.1354 8.62118 25.048 8.554 24.9376C8.48682 24.8272 8.4547 24.699 8.46186 24.57L8.69746 20.062C6.31781 20.2886 4.10806 21.3941 2.4998 23.1626C0.891531 24.9311 0.000242541 27.2356 0 29.626Z" fill="#FFAD00"/>
<path opacity="0.58" d="M21.2852 11.5584C21.2187 11.4836 21.145 11.4154 21.0654 11.3548C21.0461 11.3397 21.0258 11.3263 21.0061 11.3126C20.9415 11.2673 20.8736 11.227 20.8028 11.1922C20.7824 11.182 20.7624 11.1708 20.7417 11.1616C20.6574 11.1247 20.57 11.0955 20.4805 11.0742V14.0401C20.8145 13.9605 21.112 13.7708 21.325 13.5014C21.538 13.2321 21.6541 12.8989 21.6546 12.5556C21.6529 12.19 21.5221 11.8368 21.2852 11.5584Z" fill="#FFAD00"/>
<path opacity="0.58" d="M6.97544 11.1706C6.90352 11.2029 6.83415 11.2406 6.76793 11.2833H6.76582C6.69923 11.3283 6.6362 11.3783 6.57727 11.4329C6.56323 11.4456 6.54954 11.4589 6.53584 11.4722C6.34201 11.6633 6.20292 11.9027 6.13306 12.1658C6.06319 12.4288 6.0651 12.7057 6.1386 12.9678C6.21209 13.2298 6.35448 13.4673 6.55093 13.6556C6.74739 13.844 6.99073 13.9762 7.25563 14.0385V11.0737C7.17854 11.0929 7.10306 11.118 7.02986 11.1489C7.0109 11.1548 6.993 11.1629 6.97544 11.1706Z" fill="#FFAD00"/>
<path opacity="0.58" d="M7.25349 8.98503C7.25349 8.89191 7.29048 8.8026 7.35633 8.73676C7.42218 8.67091 7.51149 8.63392 7.60461 8.63392H12.6993C13.2873 8.6343 13.8593 8.44299 14.3288 8.08899C14.3541 8.07003 14.3804 8.05388 14.405 8.03281C14.5624 7.90588 14.7054 7.76199 14.8313 7.60375L15.8263 6.34325C15.8591 6.2984 15.9028 6.26264 15.9532 6.23936C16.0036 6.21608 16.0592 6.20603 16.1146 6.21017C16.1703 6.21223 16.2247 6.22752 16.2733 6.25476C16.3194 6.28072 16.3591 6.31672 16.3895 6.3601L16.3934 6.36396C17.3245 7.73822 20.1327 7.97698 20.1612 7.97909C20.2494 7.98608 20.3317 8.02614 20.3917 8.09124C20.4517 8.15635 20.4848 8.24169 20.4845 8.3302V10.3565C20.5025 10.3593 20.5197 10.3649 20.5372 10.3681C20.5867 10.3772 20.6355 10.3881 20.684 10.4007C20.7191 10.4092 20.7507 10.4179 20.7841 10.4281C20.8315 10.4425 20.8781 10.4594 20.9245 10.4773C20.9564 10.4896 20.9888 10.5011 21.02 10.5148C21.067 10.5352 21.1127 10.5584 21.158 10.5819C21.1868 10.597 21.2163 10.6107 21.2444 10.6272C21.2935 10.6553 21.3402 10.6865 21.3873 10.7185C21.4066 10.7318 21.4273 10.7427 21.4466 10.7568C21.7764 10.0156 21.947 9.21343 21.9473 8.40218V6.46017C21.9486 5.91015 21.7587 5.37677 21.4102 4.95129C21.0616 4.52582 20.576 4.23468 20.0365 4.12771C19.976 4.11576 19.9197 4.08809 19.8733 4.04747C19.8269 4.00685 19.792 3.95472 19.7721 3.89633C19.4049 3.04353 18.855 2.28172 18.1612 1.66467C17.4674 1.04761 16.6466 0.590343 15.7568 0.325138C15.0605 0.108717 14.3354 -0.000905422 13.6062 5.63217e-06C11.5739 0.0185883 9.62566 0.813763 8.16077 2.22256C6.17101 4.10383 4.25743 7.10306 6.16714 10.8547C6.18119 10.8428 6.19699 10.8337 6.21138 10.8224C6.26961 10.775 6.3302 10.7306 6.39291 10.6893C6.42205 10.6707 6.45295 10.6542 6.4828 10.637C6.53476 10.6068 6.58813 10.577 6.6415 10.551C6.67661 10.5349 6.70926 10.5208 6.74367 10.5064C6.79704 10.4836 6.85111 10.4629 6.90659 10.4443C6.9417 10.4327 6.97681 10.4218 7.01438 10.4116C7.07056 10.3958 7.12744 10.3832 7.18467 10.3719C7.20785 10.3674 7.23032 10.3596 7.2549 10.3558L7.25349 8.98503Z" fill="#FFAD00"/>
<path opacity="0.58" d="M24.5302 24.3407V22.4401C23.0079 21.0946 21.099 20.2652 19.0766 20.0708L19.3126 24.5696C19.32 24.6988 19.288 24.8271 19.2208 24.9376C19.1536 25.0481 19.0545 25.1357 18.9365 25.1886C18.8185 25.2415 18.6872 25.2573 18.5599 25.2339C18.4327 25.2106 18.3156 25.1491 18.2241 25.0577L16.0936 22.9373L14.2383 26.249V31.7671H19.7575C19.7201 31.7096 19.6866 31.6496 19.657 31.5877C19.5311 31.324 19.4837 31.0297 19.5203 30.7398C19.5569 30.45 19.676 30.1767 19.8635 29.9526L24.5302 24.3407ZM16.095 29.9982C16.095 30.0913 16.058 30.1806 15.9921 30.2465C15.9263 30.3123 15.837 30.3493 15.7439 30.3493C15.6507 30.3493 15.5614 30.3123 15.4956 30.2465C15.4297 30.1806 15.3927 30.0913 15.3927 29.9982V29.3543C15.3927 29.2612 15.4297 29.1718 15.4956 29.106C15.5614 29.0402 15.6507 29.0032 15.7439 29.0032C15.837 29.0032 15.9263 29.0402 15.9921 29.106C16.058 29.1718 16.095 29.2612 16.095 29.3543V29.9982ZM16.095 27.2244C16.095 27.3175 16.058 27.4068 15.9921 27.4727C15.9263 27.5385 15.837 27.5755 15.7439 27.5755C15.6507 27.5755 15.5614 27.5385 15.4956 27.4727C15.4297 27.4068 15.3927 27.3175 15.3927 27.2244V26.5808C15.3927 26.4877 15.4297 26.3984 15.4956 26.3325C15.5614 26.2667 15.6507 26.2297 15.7439 26.2297C15.837 26.2297 15.9263 26.2667 15.9921 26.3325C16.058 26.3984 16.095 26.4877 16.095 26.5808V27.2244Z" fill="#FFAD00"/>
<path opacity="0.58" d="M16.4492 22.3015L18.6019 24.4451L18.3168 19.0137L18.2638 19.0614L16.4492 22.3015Z" fill="#FFAD00"/>
<path opacity="0.58" d="M9.45272 19.0488L9.16797 24.4462L11.3238 22.3023L9.54471 19.1282C9.51382 19.1029 9.48397 19.0766 9.45272 19.0488Z" fill="#FFAD00"/>
<path opacity="0.58" d="M19.8769 7.94875C18.9166 7.83375 17.9884 7.5307 17.1452 7.05692C16.9529 6.93591 16.775 6.79338 16.615 6.63207L16.0603 6.05273L14.8384 7.60115C14.7998 7.6468 14.7576 7.68893 14.719 7.73106L14.6909 7.76266C14.5168 7.9488 14.3184 8.1106 14.101 8.24369C13.6797 8.49914 13.1963 8.63395 12.7036 8.63343H7.25781V14.1354C7.26091 15.8462 7.92808 17.489 9.11872 18.7174C9.1433 18.7455 9.16788 18.7701 9.19245 18.7982L9.23108 18.8333C9.35046 18.9527 9.47686 19.065 9.59975 19.1704C9.71913 19.2687 9.84202 19.36 9.9614 19.4513C9.9614 19.4513 10.0597 19.525 10.0913 19.5461C10.2072 19.6268 10.3301 19.7041 10.453 19.7813L10.6004 19.8656C10.7233 19.9358 10.8497 20.0025 10.9761 20.0657C11.0288 20.0903 11.0815 20.1149 11.1376 20.1395C11.264 20.1992 11.3904 20.2518 11.5203 20.301C11.5835 20.3256 11.6432 20.3466 11.7029 20.3677C11.8258 20.4098 11.9522 20.4484 12.0821 20.4871C12.1453 20.5046 12.205 20.5187 12.2682 20.5327L12.3244 20.5468C12.4332 20.5748 12.5456 20.5994 12.658 20.6205C12.7633 20.6416 12.8721 20.6556 12.9985 20.6732L13.0653 20.6837C13.1285 20.6907 13.1881 20.7012 13.2513 20.7048C13.4655 20.7258 13.6692 20.7364 13.8693 20.7364C14.0694 20.7364 14.2801 20.7258 14.5118 20.7048L14.6698 20.6837L14.7366 20.6732C14.8665 20.6556 14.9999 20.638 15.1298 20.6135C15.2035 20.5994 15.2773 20.5784 15.3545 20.5608L15.4037 20.5503C15.516 20.5222 15.6249 20.4976 15.7302 20.466C15.8215 20.4379 15.9128 20.4098 16.0146 20.3747C16.1164 20.3396 16.2183 20.301 16.3201 20.2624C16.4079 20.2272 16.4956 20.1886 16.5869 20.1465C16.6888 20.1008 16.7906 20.0517 16.8889 20.0025C16.9696 19.9604 17.0504 19.9183 17.1276 19.8726C17.233 19.8129 17.3348 19.7497 17.4366 19.6865C17.5069 19.6409 17.5806 19.5917 17.6473 19.5461C17.7491 19.4759 17.8439 19.4021 17.9422 19.3249L17.9844 19.2933L18.1424 19.1669C18.2723 19.0545 18.3987 18.9422 18.5146 18.8263L18.5532 18.7912C19.1671 18.1799 19.6542 17.4532 19.9862 16.653C20.3182 15.8528 20.4887 14.9948 20.4878 14.1284V8.03021L19.8769 7.94875ZM19.7856 14.1284C19.7835 15.6921 19.1609 17.191 18.0546 18.2961L18.03 18.3207C17.9177 18.4295 17.8053 18.5314 17.6859 18.6297C17.6297 18.6788 17.5701 18.728 17.5069 18.7736C17.4226 18.8403 17.3348 18.907 17.247 18.9702L17.0574 19.0966C16.9661 19.1528 16.8748 19.209 16.7836 19.2617C16.7133 19.3003 16.6396 19.3389 16.5694 19.3775C16.4781 19.4232 16.3868 19.4653 16.2955 19.5075C16.2183 19.5426 16.1375 19.5777 16.0603 19.6093C15.969 19.6444 15.8777 19.6795 15.7829 19.7111C15.6986 19.7392 15.6179 19.7673 15.5336 19.7919C15.4353 19.8199 15.337 19.8445 15.2387 19.8656C15.1579 19.8867 15.0771 19.9077 14.9929 19.9218C14.8805 19.9463 14.7611 19.9604 14.6453 19.9779C14.5786 19.985 14.5083 19.999 14.4416 20.006C14.252 20.0236 14.0624 20.0341 13.8693 20.0341C13.6832 20.0341 13.5006 20.0236 13.3145 20.006C13.2408 19.999 13.1636 19.985 13.0898 19.9744C12.988 19.9639 12.8862 19.9499 12.7844 19.9323C12.6825 19.9112 12.5807 19.8867 12.4789 19.8621C12.4087 19.8445 12.3384 19.8305 12.2717 19.8094C12.1559 19.7778 12.047 19.7427 11.9347 19.7041C11.8785 19.683 11.8258 19.6655 11.7696 19.6444C11.6538 19.5987 11.5414 19.5531 11.4291 19.5004C11.3799 19.4794 11.3307 19.4583 11.2851 19.4337C11.1692 19.3775 11.0604 19.3214 10.948 19.2582C10.9024 19.2301 10.8603 19.2055 10.8146 19.1774C10.7058 19.1107 10.5969 19.044 10.4916 18.9702C10.453 18.9422 10.4178 18.9141 10.3792 18.886C10.2704 18.8052 10.1615 18.7245 10.0562 18.6332C9.94384 18.5384 9.83148 18.4401 9.72615 18.3347C9.71358 18.3239 9.70185 18.3122 9.69104 18.2996C9.65944 18.2715 9.63486 18.2399 9.60326 18.2083C8.5489 17.1146 7.95986 15.6546 7.96004 14.1354V9.33636H12.7036C13.3251 9.33748 13.935 9.16741 14.4662 8.8448C14.7387 8.67858 14.9869 8.47533 15.2035 8.24088C15.268 8.17636 15.329 8.10838 15.3861 8.03724L16.1094 7.12083C16.3086 7.322 16.5301 7.49987 16.7695 7.65101C17.6984 8.18041 18.7239 8.51828 19.7856 8.64466V14.1284ZM15.6881 12.2043C15.6877 12.3518 15.7312 12.4962 15.8128 12.6191C15.8945 12.742 16.0108 12.8379 16.147 12.8947C16.2832 12.9515 16.4332 12.9666 16.578 12.9381C16.7228 12.9097 16.8559 12.8389 16.9605 12.7348C17.0651 12.6307 17.1365 12.498 17.1656 12.3533C17.1948 12.2086 17.1803 12.0586 17.1242 11.9221C17.068 11.7856 16.9727 11.6689 16.8502 11.5866C16.7277 11.5043 16.5835 11.4603 16.436 11.4599C16.2383 11.4606 16.0489 11.5393 15.9089 11.6788C15.7689 11.8183 15.6896 12.0073 15.6881 12.205V12.2043ZM16.4781 12.2043C16.4781 12.2159 16.4735 12.2271 16.4652 12.2353C16.457 12.2435 16.4458 12.2482 16.4342 12.2482C16.4226 12.2482 16.4114 12.2435 16.4032 12.2353C16.3949 12.2271 16.3903 12.2159 16.3903 12.2043C16.3905 12.1985 16.3918 12.1928 16.3942 12.1875C16.3966 12.1823 16.4 12.1775 16.4043 12.1736C16.4085 12.1697 16.4135 12.1667 16.419 12.1647C16.4244 12.1627 16.4302 12.1618 16.436 12.1621C16.4416 12.1619 16.4472 12.1629 16.4525 12.165C16.4577 12.1671 16.4625 12.1702 16.4664 12.1743C16.4704 12.1783 16.4735 12.1831 16.4755 12.1884C16.4775 12.1937 16.4784 12.1993 16.4781 12.205V12.2043ZM15.0736 16.5686C14.6991 16.9413 14.1923 17.1505 13.6639 17.1505C13.1355 17.1505 12.6287 16.9413 12.2542 16.5686C12.1884 16.5032 12.0994 16.4665 12.0066 16.4665C11.9139 16.4665 11.8249 16.5032 11.7591 16.5686C11.7258 16.6007 11.6993 16.6391 11.6812 16.6816C11.663 16.7242 11.6537 16.7699 11.6537 16.8162C11.6537 16.8624 11.663 16.9081 11.6812 16.9507C11.6993 16.9932 11.7258 17.0317 11.7591 17.0637C12.0091 17.3141 12.306 17.5128 12.6328 17.6484C12.9597 17.7839 13.3101 17.8537 13.6639 17.8537C14.0177 17.8537 14.3681 17.7839 14.695 17.6484C15.0218 17.5128 15.3187 17.3141 15.5687 17.0637C15.6055 17.0322 15.6353 16.9935 15.6564 16.9499C15.6775 16.9064 15.6893 16.8589 15.6912 16.8106C15.693 16.7622 15.6849 16.714 15.6672 16.6689C15.6496 16.6239 15.6228 16.5829 15.5886 16.5487C15.5544 16.5145 15.5134 16.4877 15.4684 16.4701C15.4233 16.4524 15.3751 16.4443 15.3268 16.4462C15.2784 16.448 15.231 16.4599 15.1874 16.4809C15.1438 16.502 15.1051 16.5319 15.0736 16.5686ZM13.6621 15.2695C13.7553 15.2695 13.8446 15.2325 13.9104 15.1667C13.9763 15.1008 14.0133 15.0115 14.0133 14.9184V13.4472C14.0133 13.3541 13.9763 13.2648 13.9104 13.1989C13.8446 13.1331 13.7553 13.0961 13.6621 13.0961C13.569 13.0961 13.4797 13.1331 13.4139 13.1989C13.348 13.2648 13.311 13.3541 13.311 13.4472V14.9184C13.3109 14.9646 13.32 15.0103 13.3376 15.053C13.3552 15.0956 13.381 15.1344 13.4136 15.1671C13.4462 15.1998 13.485 15.2257 13.5276 15.2434C13.5703 15.2611 13.616 15.2702 13.6621 15.2702V15.2695ZM10.8918 11.4564C10.7443 11.456 10.5999 11.4995 10.477 11.5812C10.3541 11.6629 10.2582 11.7792 10.2014 11.9154C10.1447 12.0516 10.1295 12.2015 10.158 12.3463C10.1864 12.4911 10.2572 12.6243 10.3613 12.7289C10.4654 12.8334 10.5981 12.9048 10.7428 12.9339C10.8875 12.9631 11.0375 12.9487 11.174 12.8925C11.3105 12.8364 11.4272 12.741 11.5095 12.6185C11.5918 12.496 11.6359 12.3518 11.6362 12.2043C11.6365 12.0065 11.5582 11.8167 11.4187 11.6766C11.2791 11.5365 11.0896 11.4576 10.8918 11.4571V11.4564ZM10.8918 12.2464C10.8861 12.2467 10.8803 12.2458 10.8749 12.2438C10.8694 12.2419 10.8644 12.2388 10.8602 12.2349C10.8559 12.231 10.8525 12.2263 10.8501 12.221C10.8477 12.2157 10.8464 12.21 10.8462 12.2043C10.8464 12.1922 10.8513 12.1807 10.8598 12.1722C10.8683 12.1637 10.8798 12.1588 10.8918 12.1586C10.8976 12.1588 10.9033 12.1601 10.9086 12.1625C10.9138 12.1649 10.9186 12.1684 10.9225 12.1726C10.9264 12.1769 10.9294 12.1818 10.9314 12.1873C10.9334 12.1927 10.9343 12.1985 10.934 12.2043C10.9343 12.2099 10.9334 12.2156 10.9314 12.2208C10.9294 12.2261 10.9263 12.2309 10.9223 12.235C10.9184 12.239 10.9136 12.2421 10.9084 12.2442C10.9031 12.2463 10.8975 12.2473 10.8918 12.2471V12.2464Z" fill="#FFAD00"/>
<path opacity="0.58" d="M16.9447 19.9746C16.7969 20.0526 16.6452 20.1228 16.4921 20.1891C16.4503 20.2074 16.4078 20.2243 16.3657 20.2418C16.1954 20.312 16.0233 20.3766 15.8478 20.4318C15.8267 20.4384 15.8053 20.4437 15.7842 20.45C15.6171 20.5006 15.4479 20.5431 15.2769 20.5806C15.2326 20.5905 15.1884 20.6006 15.1438 20.6094C14.9591 20.6457 14.773 20.6741 14.5855 20.6947C14.548 20.699 14.5104 20.7018 14.4728 20.7053C14.2709 20.7239 14.0676 20.7362 13.8633 20.7362C13.6677 20.7362 13.4732 20.7246 13.2797 20.7074C13.2383 20.7039 13.1969 20.7007 13.1554 20.6962C12.9799 20.6772 12.8043 20.6519 12.6326 20.6189C12.5701 20.6073 12.509 20.5929 12.4472 20.5796C12.3254 20.5529 12.2043 20.5223 12.0842 20.489C11.9789 20.4598 11.8777 20.4282 11.7756 20.3942C11.6734 20.3601 11.5747 20.324 11.4757 20.2889C11.3907 20.2559 11.3065 20.2221 11.2226 20.1856C11.0933 20.1291 10.9652 20.0694 10.8398 20.0045L13.8851 25.4387L16.9447 19.9746Z" fill="#FFAD00"/>
<path d="M21.0447 31.7675H32.1684C32.3267 31.7675 32.4817 31.7224 32.6153 31.6375C32.7488 31.5526 32.8554 31.4313 32.9225 31.288C32.9896 31.1446 33.0145 30.9851 32.9942 30.8281C32.9738 30.6711 32.9092 30.5232 32.8078 30.4017L30.7741 27.9526H22.4383L20.4018 30.4017C20.3011 30.5237 20.2372 30.6718 20.2175 30.8288C20.1977 30.9858 20.223 31.1452 20.2904 31.2883C20.3578 31.4315 20.4645 31.5525 20.598 31.6374C20.7316 31.7222 20.8865 31.7673 21.0447 31.7675ZM29.3454 29.0197C29.4133 28.957 29.5023 28.9222 29.5947 28.9222C29.6871 28.9222 29.7761 28.957 29.844 29.0197C29.9093 29.0862 29.9459 29.1757 29.9458 29.269C29.9464 29.3146 29.9379 29.36 29.9209 29.4024C29.902 29.445 29.876 29.4842 29.844 29.5183C29.8113 29.5509 29.7724 29.5767 29.7296 29.5942C29.6868 29.6117 29.641 29.6205 29.5947 29.6201C29.5487 29.6215 29.5029 29.6118 29.4613 29.592C29.418 29.5756 29.3786 29.5505 29.3454 29.5183C29.3145 29.4841 29.2895 29.4449 29.2717 29.4024C29.2535 29.3602 29.244 29.3149 29.2436 29.269C29.2449 29.176 29.2812 29.0869 29.3454 29.0197ZM27.5337 30.3399C27.5648 30.3059 27.6032 30.2795 27.646 30.2626C27.71 30.2347 27.7811 30.2274 27.8493 30.2419C27.8725 30.2453 27.895 30.2523 27.916 30.2626C27.9376 30.2697 27.9578 30.2804 27.9757 30.2942C27.9957 30.3065 28.0136 30.3219 28.0288 30.3399C28.0624 30.3711 28.0887 30.4095 28.1057 30.4522C28.131 30.5167 28.1372 30.587 28.1235 30.6549C28.1099 30.7228 28.077 30.7853 28.0288 30.8349C27.9973 30.8678 27.9588 30.8931 27.916 30.9087C27.8627 30.9312 27.8046 30.9402 27.747 30.9348C27.6893 30.9295 27.6339 30.9099 27.5856 30.8779C27.5373 30.846 27.4977 30.8025 27.4702 30.7515C27.4428 30.7005 27.4284 30.6436 27.4284 30.5856C27.4285 30.5397 27.4379 30.4943 27.456 30.452C27.4741 30.4098 27.5005 30.3717 27.5337 30.3399ZM25.3954 29.0197C25.4633 28.957 25.5523 28.9222 25.6447 28.9222C25.7371 28.9222 25.8261 28.957 25.894 29.0197C25.9593 29.0862 25.9958 29.1757 25.9958 29.269C25.9964 29.3146 25.9879 29.36 25.9709 29.4024C25.9519 29.445 25.9259 29.4842 25.894 29.5183C25.8613 29.5509 25.8224 29.5767 25.7796 29.5942C25.7368 29.6117 25.6909 29.6205 25.6447 29.6201C25.5986 29.6215 25.5529 29.6118 25.5113 29.592C25.468 29.5756 25.4286 29.5505 25.3954 29.5183C25.3644 29.4841 25.3395 29.4449 25.3217 29.4024C25.3035 29.3602 25.2939 29.3149 25.2936 29.269C25.2948 29.176 25.3312 29.0869 25.3954 29.0197ZM22.6427 29.6341C22.66 29.5905 22.6863 29.551 22.7199 29.5183C22.7529 29.4866 22.7909 29.4605 22.8323 29.441C22.8967 29.4155 22.9671 29.4093 23.0351 29.423C23.103 29.4367 23.1655 29.4698 23.215 29.5183C23.2496 29.5501 23.2759 29.5899 23.2919 29.6341C23.3198 29.6975 23.3274 29.768 23.3136 29.8359C23.2999 29.9038 23.2654 29.9658 23.215 30.0133C23.1837 30.0473 23.1452 30.0737 23.1023 30.0906C23.0602 30.1087 23.015 30.1183 22.9692 30.1187C22.9227 30.1186 22.8767 30.1093 22.8339 30.0912C22.7911 30.0731 22.7523 30.0466 22.7199 30.0133C22.6869 29.9816 22.6609 29.9434 22.6433 29.9011C22.6258 29.8588 22.6172 29.8133 22.6181 29.7675C22.6172 29.7219 22.6256 29.6765 22.6427 29.6341Z" fill="#FFAD00"/>
</svg>
