<svg width="50" height="36" viewBox="0 0 50 36" fill="none" xmlns="http://www.w3.org/2000/svg">
<path d="M16.3365 14.6923C16.2913 16.1064 17.0026 16.7326 17.0202 17.1303C17.0118 17.2112 16.984 17.289 16.9392 17.3571C16.8944 17.4252 16.8338 17.4817 16.7625 17.5217L15.9582 18.0811C15.8541 18.1536 15.7314 18.1952 15.6044 18.201C15.5774 18.1997 15.0898 18.3152 14.3176 16.6021C13.8464 17.1865 13.2469 17.6559 12.565 17.9746C11.8831 18.2933 11.1368 18.4527 10.3834 18.4407C9.36037 18.4963 6.58801 17.8639 6.73065 14.9314C6.63074 12.5416 8.87088 11.0569 11.1877 11.1824C11.6338 11.1837 12.5449 11.2055 14.1404 11.5739V10.5987C14.3094 8.94672 13.2167 7.665 11.3246 7.85729C11.1738 7.85791 10.1056 7.82607 8.44421 8.48847C7.98173 8.69949 7.92267 8.66453 7.76872 8.66453C7.3031 8.66453 7.49475 7.32349 7.58398 7.15368C7.91136 6.75411 9.83731 6.00805 11.7274 6.01867C12.9912 5.90762 14.2483 6.29515 15.2268 7.09749C15.6246 7.53956 15.928 8.05714 16.1189 8.61899C16.3097 9.18083 16.384 9.77528 16.3371 10.3664L16.3365 14.6923ZM10.9062 16.7145C12.944 16.6851 13.8067 15.4677 14.0034 14.8122C14.158 14.1848 14.1322 13.7877 14.1322 13.1016C13.5246 12.9567 12.6499 12.7988 11.6464 12.7975C10.6944 12.7264 8.9557 13.149 9.02357 14.8116C8.94565 15.8598 9.72231 16.7719 10.9062 16.7145ZM21.6462 18.1535C21.1523 18.1985 20.9223 17.8501 20.8494 17.5061L17.7202 7.22672C17.6592 7.05316 17.619 6.87398 17.5995 6.69106C17.588 6.61564 17.607 6.53876 17.6525 6.4773C17.698 6.41584 17.7662 6.37484 17.8421 6.36329C17.8571 6.36079 17.7082 6.36329 19.2402 6.36329C19.7919 6.30835 19.9716 6.73976 20.0288 7.01071L22.2733 15.803L24.357 7.01071C24.3903 6.80968 24.5417 6.31959 25.1613 6.37141H26.2396C26.3759 6.36017 26.9377 6.34019 27.0363 7.01883L29.1363 15.9235L31.4531 7.01883C31.4833 6.88272 31.6241 6.30898 32.2499 6.37141H33.4891C33.5425 6.36329 33.8755 6.32084 33.8189 6.90707C33.7919 7.02257 34.0332 6.24155 30.5043 17.5142C30.432 17.8582 30.2014 18.2066 29.7075 18.1617H28.5331C27.8457 18.2335 27.747 17.5586 27.7363 17.4905L25.6527 8.92924L23.5929 17.4818C23.5828 17.5498 23.4842 18.2247 22.7961 18.1529L21.6462 18.1535ZM38.8308 18.505C38.4613 18.5057 36.6994 18.4863 35.2265 17.7377C35.0798 17.676 34.9548 17.5724 34.8674 17.44C34.7801 17.3077 34.7342 17.1525 34.7357 16.9942V16.323C34.7357 15.7955 35.1253 15.8923 35.2906 15.9553C35.9215 16.2088 36.3261 16.4011 37.1009 16.5547C39.4039 17.0248 40.4168 16.4111 40.665 16.275C41.4913 15.7874 41.5567 14.6717 40.9949 14.093C40.3364 13.5442 40.0222 13.5236 37.6564 12.7819C37.3648 12.7014 34.9104 11.9322 34.9048 9.51298C34.8664 7.7499 36.4788 6.00556 39.2732 6.01992C40.0693 6.01929 42.1907 6.27776 42.765 6.9951C42.8499 7.12558 42.892 7.27917 42.8857 7.43462V8.06581C42.8857 8.34301 42.7839 8.4816 42.5797 8.4816C42.0952 8.42791 41.2356 7.78424 39.4906 7.81046C39.0577 7.78799 36.984 7.86727 37.077 9.36939C37.05 10.5531 38.7491 10.997 38.9433 11.0482C41.2343 11.7331 42.0003 11.8467 42.9095 12.8949C43.9866 14.284 43.406 15.9104 43.1829 16.3561C41.984 18.6967 38.8836 18.5063 38.8308 18.505ZM41.3569 25.0516C36.9564 28.2806 30.5684 29.9994 25.1142 29.9994C17.7548 30.0476 10.6434 27.3589 5.17795 22.462C4.76763 22.0942 5.12957 21.5904 5.6285 21.8707C11.6913 25.3164 18.5556 27.1269 25.5402 27.1225C30.7561 27.0947 35.9151 26.0434 40.7209 24.029C41.4612 23.7168 42.0889 24.516 41.3569 25.0516ZM43.1911 22.9733C42.628 22.2541 39.4661 22.6374 38.0504 22.8053C37.6237 22.8534 37.5515 22.4857 37.9379 22.2141C40.4558 20.4554 44.5911 20.9592 45.0661 21.5505C45.5405 22.1417 44.9373 26.2584 42.5803 28.225C42.2183 28.5291 41.8721 28.3686 42.033 27.9691C42.5633 26.6424 43.7541 23.6931 43.1911 22.9733Z" fill="#FFB81D"/>
</svg>
