<svg width="43" height="37" viewBox="0 0 43 37" fill="none" xmlns="http://www.w3.org/2000/svg">
<path fill-rule="evenodd" clip-rule="evenodd" d="M11.8858 6.89861L12.5996 7.61238C12.7158 7.72857 12.7541 7.88913 12.7031 8.04547C12.6521 8.2015 12.5259 8.30863 12.3639 8.33339L7.75871 9.04112C7.62531 9.06194 7.50187 9.02361 7.40318 8.93126C7.30449 8.83891 7.25862 8.71819 7.27069 8.58328L7.70378 3.70376C7.71857 3.53505 7.8233 3.39954 7.98235 3.34189C8.1414 3.28425 8.3086 3.32107 8.42811 3.44119L9.04107 4.05415C13.6493 -0.55411 20.0779 0.316936 22.2219 3.98202C22.2602 4.04751 22.2518 4.12628 22.2011 4.18211C22.15 4.23855 22.0716 4.25364 22.0028 4.22165C18.2792 2.47693 13.5091 5.27612 11.8858 6.89861ZM30.9625 27.4193L29.987 27.1579C29.8283 27.1156 29.7148 26.9952 29.681 26.8347C29.6472 26.6738 29.703 26.5184 29.831 26.4155L33.4653 23.5001C33.5706 23.4153 33.6971 23.3869 33.8281 23.4177C33.9597 23.4485 34.0598 23.53 34.1169 23.6525L36.1816 28.095C36.2528 28.2483 36.2301 28.4183 36.1215 28.548C36.0129 28.6775 35.8493 28.7291 35.6857 28.6854L34.8482 28.4608C33.1611 34.7561 27.1589 37.2153 23.4691 35.1134C23.4033 35.076 23.3713 35.0036 23.387 34.9296C23.4033 34.8554 23.4631 34.8026 23.5388 34.7962C27.6367 34.4455 30.3688 29.6357 30.9625 27.4193Z" fill="#FFB81D" fill-opacity="0.58"/>
<path fill-rule="evenodd" clip-rule="evenodd" d="M32.6243 5.71287C34.7228 5.71287 36.4238 7.41386 36.4238 9.51228C36.4238 11.6107 34.7228 13.3117 32.6243 13.3117C30.5259 13.3117 28.8249 11.6107 28.8249 9.51228C28.8249 7.41386 30.5259 5.71287 32.6243 5.71287ZM10.0091 23.1176V22.1681C10.0091 21.6472 9.58057 21.2186 9.05967 21.2186C8.53876 21.2186 8.1102 21.6472 8.1102 22.1681C8.1102 22.689 8.53876 23.1176 9.05967 23.1176H10.0091ZM13.7932 23.1176H14.7426C15.2635 23.1176 15.6921 22.689 15.6921 22.1681C15.6921 21.6472 15.2635 21.2186 14.7426 21.2186C14.2217 21.2186 13.7932 21.6472 13.7932 22.1681V23.1176ZM12.4321 30.8413V24.4787H11.3703V30.8415L12.4321 30.8413ZM13.7932 24.4787H14.7426C16.0151 24.4787 17.0532 23.4402 17.0532 22.1681C17.0532 20.8957 16.0147 19.8575 14.7426 19.8575C13.4702 19.8575 12.4321 20.896 12.4321 22.1681V23.1176H11.3703V22.1681C11.3703 20.8957 10.3319 19.8575 9.05975 19.8575C7.78733 19.8575 6.74916 20.896 6.74916 22.1681C6.74916 23.4405 7.78764 24.4787 9.05975 24.4787H10.0092V30.8415H7.66031C7.1744 25.7915 4.88616 25.8512 4.88616 22.1164C4.88616 18.2421 8.02668 15.1013 11.9007 15.1013C15.7749 15.1013 18.9158 18.2418 18.9158 22.1164C18.9158 25.8518 16.6281 25.7917 16.1419 30.8415H13.793L13.7932 24.4787ZM21.402 18.6076C21.0776 18.7941 20.6632 18.6818 20.4767 18.358C20.2902 18.0336 20.4024 17.6192 20.7263 17.4326L22.1572 16.6066C22.4816 16.4201 22.896 16.5324 23.0825 16.8562C23.269 17.1807 23.1568 17.595 22.8329 17.7816L21.402 18.6076ZM17.7789 14.4847C17.5923 14.8091 17.178 14.9211 16.8535 14.7343C16.5291 14.5478 16.4171 14.1334 16.6039 13.8089L17.4299 12.378C17.6164 12.0536 18.0308 11.9416 18.3547 12.1284C18.6791 12.3149 18.7911 12.7293 18.6042 13.0538L17.7789 14.4847ZM3.07677 17.4327C3.40121 17.6207 3.51167 18.0363 3.32425 18.3601C3.13622 18.6845 2.72064 18.795 2.3968 18.6076L0.965918 17.7816C0.641481 17.5936 0.53102 17.178 0.718441 16.8541C0.906465 16.5297 1.32205 16.4192 1.64589 16.6067L3.07677 17.4327ZM7.19697 13.8095C7.38349 14.1339 7.27122 14.5483 6.94738 14.7348C6.62294 14.9214 6.20857 14.8091 6.02202 14.4853L5.19602 13.0544C5.0095 12.7299 5.12177 12.3156 5.44561 12.129C5.77005 11.9425 6.18442 12.0548 6.37097 12.3786L7.19697 13.8095ZM12.5812 12.7296C12.5812 13.1053 12.2767 13.4102 11.9006 13.4102C11.5249 13.4102 11.22 13.1056 11.22 12.7296V11.0769C11.22 10.7012 11.5246 10.3963 11.9006 10.3963C12.2764 10.3963 12.5812 10.7009 12.5812 11.0769V12.7296ZM13.8183 35.4004V35.8601C13.8183 36.4869 13.3055 37 12.6784 37H11.1992C10.5723 37 10.0593 36.4872 10.0593 35.8601V35.4004H10.03C9.40316 35.4004 8.89009 34.8877 8.89009 34.2605V33.8009H8.85176C8.22491 33.8009 7.71184 33.2881 7.71184 32.661V32.2013H16.0893V32.661C16.0893 33.2751 15.5971 33.78 14.9874 33.8003V34.2605C14.9874 34.8874 14.4746 35.4004 13.8475 35.4004L13.8183 35.4004ZM34.3528 2.76905L33.9098 0H31.3388L30.8957 2.76905C30.2496 2.93444 29.6396 3.19007 29.0804 3.52175L26.8084 1.87662L24.9904 3.69466L26.6355 5.96692C26.3038 6.52616 26.0482 7.13612 25.8828 7.78226L23.1138 8.22561V10.7966L25.8828 11.24C26.0482 11.8858 26.3038 12.4955 26.6355 13.0553L24.9904 15.3276L26.8084 17.1456L29.0807 15.5005C29.6399 15.8322 30.2499 16.0881 30.896 16.2532L31.3391 19.0222H33.9101L34.3534 16.2532C34.9993 16.0878 35.6089 15.8322 36.1688 15.5005L38.441 17.1456L40.2591 15.3276L38.614 13.0553C38.9456 12.4961 39.2016 11.8861 39.3666 11.24L42.1357 10.7969V8.22591L39.3666 7.78286C39.2013 7.137 38.9456 6.52736 38.614 5.96752L40.2591 3.69526L38.441 1.87722L36.1688 3.52235C35.6086 3.18976 34.9987 2.93383 34.3528 2.76905Z" fill="#FFB81D"/>
</svg>
