<svg width="32" height="32" viewBox="0 0 32 32" fill="none" xmlns="http://www.w3.org/2000/svg">
<path fill-rule="evenodd" clip-rule="evenodd" d="M15.2326 15.1443C19.3366 15.1443 22.6635 11.7541 22.6635 7.57214C22.6635 3.39032 19.3365 0 15.2326 0C11.1287 0 7.80176 3.3902 7.80176 7.57214C7.80176 11.7542 11.1287 15.1443 15.2326 15.1443ZM15.2326 11.4506C17.1986 11.4506 18.9481 9.80055 18.9481 7.57203C18.9481 5.34373 17.1986 3.69368 15.2326 3.69368C13.2666 3.69368 11.5172 5.34373 11.5172 7.57203C11.5172 9.80055 13.2667 11.4506 15.2326 11.4506Z" fill="#FFB81D"/>
<path d="M3.71729 30.6276C3.71795 30.9371 3.71862 31.255 3.71862 31.5814H0.00317952C0.00317952 31.2788 0.00251203 30.9762 0.00162205 30.6745C-0.00305042 28.951 -0.00772262 27.255 0.142687 25.7318C0.321573 23.9216 0.734549 22.1258 1.7814 20.577C3.95074 17.3674 8.19955 16.0679 15.2306 16.0679C21.5559 16.0679 26.2151 17.9931 27.4324 19.7618C25.7234 19.7618 23.7732 20.9526 23.222 21.2525C21.8052 19.9647 18.7103 19.7618 15.2307 19.7618C8.33465 19.7618 5.89909 21.1074 4.86528 22.6371C4.31059 23.4579 3.99244 24.5552 3.84047 26.0929C3.70986 27.4147 3.7132 28.8923 3.71743 30.6276H3.71729Z" fill="#FFB81D"/>
<path fill-rule="evenodd" clip-rule="evenodd" d="M13.8757 24.945C13.5944 25.3019 13.3993 25.8479 13.3993 26.4735C13.3993 27.0992 13.5944 27.6452 13.8757 28.0023C14.1353 28.3318 14.4653 28.5098 14.8972 28.5098C14.8972 28.5098 14.9052 28.5098 14.9223 28.5078C14.9394 28.5061 14.9635 28.5027 14.9948 28.4967C15.0587 28.4847 15.1423 28.4636 15.2471 28.43C15.4596 28.3621 15.7184 28.2555 16.0176 28.11C16.617 27.8188 17.289 27.4162 17.936 26.9924C18.2491 26.7875 18.5499 26.5817 18.8258 26.3877C18.3187 25.9801 17.8157 25.6121 17.3183 25.3057C16.3589 24.7143 15.5568 24.4375 14.8971 24.4375C14.4653 24.4375 14.1353 24.6155 13.8757 24.945ZM23.6487 26.4735C23.8857 26.6473 24.1402 26.8291 24.4043 27.0104C25.0193 27.4323 25.6581 27.8314 26.2304 28.1191C26.5158 28.2626 26.7623 28.367 26.9642 28.4331C27.0638 28.4658 27.143 28.4858 27.2031 28.4976C27.2325 28.5032 27.255 28.5063 27.271 28.5081C27.287 28.5098 27.2943 28.5098 27.2943 28.5098C27.6281 28.5098 27.8995 28.3648 28.1476 27.9979C28.4206 27.5943 28.5837 27.0122 28.5837 26.4735C28.5837 25.9349 28.4206 25.3528 28.1476 24.9494C27.8995 24.5823 27.6281 24.4375 27.2943 24.4375C27.2943 24.4375 27.287 24.4375 27.271 24.439C27.255 24.4408 27.2325 24.4439 27.2031 24.4497C27.143 24.4613 27.0638 24.4815 26.9642 24.514C26.7624 24.5803 26.5158 24.6844 26.2304 24.8279C25.6581 25.1158 25.0193 25.5148 24.4043 25.9366C24.1402 26.118 23.8857 26.2998 23.6487 26.4735ZM21.1936 28.363C20.7549 28.6843 20.1942 29.0814 19.5848 29.4806C18.8857 29.9383 18.0947 30.417 17.3334 30.7869C16.6318 31.1277 15.7351 31.4893 14.8972 31.4893C11.8748 31.4893 10.4023 28.7617 10.4023 26.4735C10.4023 24.1856 11.8748 21.458 14.8972 21.458C16.3563 21.458 17.7225 22.0492 18.8974 22.7734C19.7207 23.2807 20.5177 23.8964 21.2652 24.5291C21.6668 24.2216 22.1637 23.8539 22.7021 23.4845C23.3721 23.025 24.1352 22.5427 24.8779 22.1693C25.5637 21.8244 26.4485 21.458 27.2942 21.458C28.835 21.458 29.9575 22.2859 30.6346 23.2869C31.287 24.2512 31.5802 25.432 31.5802 26.4735C31.5802 27.515 31.287 28.696 30.6346 29.6603C29.9575 30.6611 28.835 31.4892 27.2942 31.4892C26.4485 31.4892 25.5637 31.1225 24.8779 30.7779C24.1352 30.4045 23.372 29.9222 22.7021 29.4625C22.1312 29.0709 21.6072 28.6813 21.1936 28.3629V28.363Z" fill="#FFB81D" fill-opacity="0.5"/>
</svg>
