<svg width="32" height="32" viewBox="0 0 32 32" fill="none" xmlns="http://www.w3.org/2000/svg">
<path d="M11.5909 7.81418L19.1883 3.42709C19.1935 3.42709 19.1935 3.42193 19.1987 3.42193C18.8993 2.82322 18.5071 2.28129 18.0374 1.81161C16.9174 0.691612 15.369 0 13.6555 0C10.2387 0 7.46708 2.76645 7.46191 6.18322C7.46191 6.18838 7.46191 6.18838 7.46191 6.19354V14.9677L11.5755 17.3522L11.5909 7.81418Z" fill="#FFAD00"/>
<path opacity="0.45" d="M3.09828 18.2481L10.6967 22.6352L14.8185 20.2652L6.56615 15.4827L6.56563 6.70956C6.56821 6.70492 6.56357 6.70234 6.56615 6.69821C5.89776 6.65795 5.23247 6.72659 4.59093 6.89898C3.06112 7.30879 1.68771 8.30388 0.830933 9.78827C-0.877451 12.7472 0.132611 16.531 3.08899 18.2435C3.09364 18.2455 3.09364 18.2455 3.09828 18.2481Z" fill="#FFAD00"/>
<path d="M18.9624 18.9131L10.6946 23.6687L3.09665 19.2826C3.09407 19.278 3.08943 19.2806 3.08685 19.2764C2.71782 19.8349 2.44478 20.446 2.27291 21.0875C1.86311 22.6173 2.03807 24.304 2.89485 25.7884C4.60323 28.7474 8.3849 29.7647 11.3464 28.0604C11.3511 28.0578 11.3511 28.0578 11.3552 28.0553L18.9537 23.6682L18.9624 18.9131Z" fill="#FFAD00"/>
<path opacity="0.45" d="M19.8489 24.1855L12.2515 28.5726C12.2464 28.5726 12.2464 28.5778 12.2412 28.5778C12.5406 29.1765 12.9328 29.7184 13.4025 30.1881C14.5225 31.3081 16.0709 31.9997 17.7844 31.9997C21.2012 31.9997 23.9728 29.2332 23.978 25.8165C23.978 25.8113 23.978 25.8113 23.978 25.8062V17.032L19.8644 14.6475L19.8489 24.1855Z" fill="#FFAD00"/>
<path d="M28.3501 13.757C28.3455 13.7544 28.3455 13.7544 28.3413 13.7518L20.7429 9.36475L16.6211 11.7348L24.8735 16.5173V25.2904C24.8709 25.295 24.8755 25.2976 24.8729 25.3018C25.5413 25.342 26.2066 25.2734 26.8482 25.101C28.378 24.6912 29.7514 23.6961 30.6082 22.2117C32.3165 19.2532 31.3065 15.4695 28.3501 13.757Z" fill="#FFAD00"/>
<path opacity="0.45" d="M28.3418 12.7172C28.3444 12.7218 28.3491 12.7193 28.3516 12.7234C28.7207 12.1649 28.9937 11.5544 29.1656 10.9123C29.5754 9.38249 29.4004 7.69579 28.5436 6.2114C26.8352 3.25244 23.0536 2.23515 20.092 3.93941C20.0874 3.94199 20.0874 3.94199 20.0833 3.94457L12.4848 8.33166L12.4766 13.0862L20.7444 8.33063L28.3418 12.7172Z" fill="#FFAD00"/>
</svg>
