<svg width="35" height="35" viewBox="0 0 35 35" fill="none" xmlns="http://www.w3.org/2000/svg">
<path d="M22.3691 9.31003L21.3987 11.2509L22.0237 12.5009H25.4782L26.1032 11.2509L25.1328 9.31003C24.8239 8.69236 25.0742 7.94285 25.6919 7.6328C26.3095 7.32396 27.0603 7.5742 27.3691 8.19187L28.6191 10.6919C28.7949 11.0434 28.7949 11.4585 28.6191 11.81L27.3691 14.31C27.1573 14.7336 26.7246 15.0009 26.2509 15.0009H25.0009V17.7312C24.608 17.5912 24.1914 17.5009 23.751 17.5009C23.3105 17.5009 22.8939 17.5912 22.501 17.7312V15.0009H21.251C20.7773 15.0009 20.3446 14.7336 20.1328 14.31L18.8828 11.81C18.7949 11.6342 18.751 11.4426 18.751 11.2509C18.751 11.0593 18.7949 10.8676 18.8828 10.6919L20.1328 8.19187C20.4416 7.5742 21.1924 7.32396 21.81 7.6328C22.4277 7.94285 22.6774 8.69236 22.3691 9.31003Z" fill="#FFAD00"/>
<path d="M23.75 23.7495C25.1307 23.7495 26.25 22.6302 26.25 21.2495C26.25 19.8688 25.1307 18.7495 23.75 18.7495C22.3693 18.7495 21.25 19.8688 21.25 21.2495C21.25 22.6302 22.3693 23.7495 23.75 23.7495Z" fill="#FFAD00"/>
<path d="M14.7246 24.2508L21.0963 23.8968C20.4189 23.218 19.9992 22.2819 19.9992 21.2494C19.9992 20.217 20.4189 19.2808 21.0963 18.602L14.7246 18.248C15.6445 18.932 16.2493 20.0176 16.2493 21.2494C16.2493 22.4813 15.6445 23.5669 14.7246 24.2508Z" fill="#FFAD00"/>
<path d="M12.501 23.7495C13.8817 23.7495 15.001 22.6302 15.001 21.2495C15.001 19.8688 13.8817 18.7495 12.501 18.7495C11.1203 18.7495 10.001 19.8688 10.001 21.2495C10.001 22.6302 11.1203 23.7495 12.501 23.7495Z" fill="#FFAD00"/>
<path opacity="0.45" d="M17.4999 0C13.9177 0 10.4199 1.10694 7.49999 3.13933V2.49999C7.49999 1.80968 6.9403 1.24999 6.24999 1.24999C5.55969 1.24999 5 1.80968 5 2.49999V6.24997C5 6.94028 5.55969 7.49997 6.24999 7.49997H9.99998C10.6903 7.49997 11.25 6.94028 11.25 6.24997C11.25 5.55967 10.6903 4.99998 9.99998 4.99998H9.22674C11.6682 3.38477 14.5481 2.49999 17.4999 2.49999C25.7708 2.49999 32.4999 9.22908 32.4999 17.4999C32.4999 18.1902 33.0596 18.7499 33.7499 18.7499C34.4402 18.7499 34.9999 18.1902 34.9999 17.4999C34.9999 7.85031 27.1496 0 17.4999 0Z" fill="#FFAD00"/>
<path d="M12.4997 25.0003C10.4319 25.0003 8.74974 23.3182 8.74974 21.2503C8.74974 20.8247 8.83633 20.4221 8.96756 20.0405L5.5625 24.2969C6.96806 26.7555 9.10908 28.7337 11.6856 29.9427L13.3705 24.8879C13.0898 24.9552 12.8008 25.0003 12.4997 25.0003Z" fill="#FFAD00"/>
<path opacity="0.45" d="M28.7499 27.4999H24.9999C24.3096 27.4999 23.7499 28.0596 23.7499 28.7499C23.7499 29.4402 24.3096 29.9999 24.9999 29.9999H25.7731C23.3317 31.6152 20.4517 32.4999 17.4999 32.4999C9.22908 32.4999 2.49999 25.7708 2.49999 17.5C2.49999 16.8097 1.9403 16.25 1.24999 16.25C0.55969 16.25 0 16.8097 0 17.5C0 27.1496 7.85031 34.9999 17.4999 34.9999C21.0822 34.9999 24.58 33.893 27.4999 31.8606V32.4999C27.4999 33.1902 28.0596 33.7499 28.7499 33.7499C29.4402 33.7499 29.9999 33.1902 29.9999 32.4999V28.7499C29.9999 28.0596 29.4402 27.4999 28.7499 27.4999Z" fill="#FFAD00"/>
</svg>
