<svg width="35" height="36" viewBox="0 0 35 36" fill="none" xmlns="http://www.w3.org/2000/svg">
<path d="M30.937 0H3.67837C1.64906 0 0 1.64877 0 3.67837V26.9395C0 28.9688 1.64877 30.6178 3.67837 30.6178H7.42849C7.56088 30.8164 7.68772 31.015 7.8312 31.2078C8.23916 30.9926 8.68593 30.7998 9.15481 30.6178H9.17697C9.29274 30.6178 9.39743 30.5682 9.4747 30.491C10.0923 30.265 10.754 30.0664 11.4544 29.901C11.0739 28.3515 10.8479 26.6199 10.8147 24.778H5.59225C5.66398 26.5814 6.14368 28.2852 6.9433 29.7908H3.67872C2.10695 29.7908 0.827648 28.5115 0.827648 26.9397V6.75581H9.37498L10.8033 8.67486C10.8806 8.77956 11.0019 8.84021 11.1343 8.84021H33.7828V26.9396C33.7828 28.5113 32.509 29.7906 30.9372 29.7906H27.6671C28.4667 28.2851 28.9464 26.5812 29.0182 24.7779H23.7958C23.7628 26.6197 23.5365 28.3512 23.156 29.9009C23.8564 30.0662 24.5181 30.2648 25.1357 30.4908C25.213 30.5681 25.3177 30.6177 25.4335 30.6177H25.4556C25.9242 30.7996 26.371 30.9927 26.7792 31.2076C26.9227 31.0146 27.0496 30.816 27.1819 30.6177H30.9373C32.9611 30.6177 34.6101 28.9689 34.6101 26.9393L34.6096 3.67893C34.6096 1.64962 32.9608 0.000567317 30.9368 0.000567317L30.937 0ZM19.2734 5.96137C18.3911 5.96137 17.6798 5.24461 17.6798 4.36215C17.6798 3.4853 18.3913 2.76847 19.2734 2.76847C20.1558 2.76847 20.8727 3.48523 20.8727 4.36215C20.8727 5.24454 20.1559 5.96137 19.2734 5.96137ZM24.1486 5.96137C23.2662 5.96137 22.5494 5.24461 22.5494 4.36215C22.5494 3.4853 23.2661 2.76847 24.1486 2.76847C25.031 2.76847 25.7478 3.48523 25.7478 4.36215C25.7478 5.24454 25.0308 5.96137 24.1486 5.96137ZM29.0179 5.96137C28.141 5.96137 27.4242 5.24461 27.4242 4.36215C27.4242 3.4853 28.141 2.76847 29.0179 2.76847C29.9003 2.76847 30.6171 3.48523 30.6171 4.36215C30.6171 5.24454 29.9004 5.96137 29.0179 5.96137Z" fill="#FFB81D"/>
<path d="M12.3852 29.7019C13.7806 29.4316 15.2803 29.2773 16.841 29.2551V24.7827H11.751C11.7787 26.5364 12.0047 28.2074 12.3852 29.7019L12.3852 29.7019Z" fill="#FFB81D" fill-opacity="0.58"/>
<path d="M17.7686 30.1875V35.9999C19.5112 35.68 21.0497 33.5845 21.9707 30.601C20.6581 30.3528 19.2465 30.2094 17.7686 30.1875Z" fill="#FFB81D" fill-opacity="0.58"/>
<path d="M12.6338 18.022C13.9463 18.2701 15.3636 18.4136 16.8359 18.4355L16.8362 12.6287C15.0991 12.9483 13.5603 15.044 12.6338 18.022H12.6338Z" fill="#FFB81D" fill-opacity="0.58"/>
<path d="M11.7456 23.8457H16.8357V19.3733C15.275 19.3456 13.7749 19.1913 12.3799 18.9265C12.0046 20.4155 11.7786 22.0864 11.7456 23.8457L11.7456 23.8457Z" fill="#FFB81D" fill-opacity="0.58"/>
<path d="M14.3923 12.9592C12.0321 13.5658 9.95844 14.8783 8.41992 16.6706C9.363 17.1447 10.4714 17.5364 11.7011 17.8285C12.3298 15.7278 13.2618 14.0347 14.3923 12.9592Z" fill="#FFB81D" fill-opacity="0.58"/>
<path d="M8.41455 31.9578C9.9586 33.75 12.0322 35.0626 14.387 35.6692C13.2564 34.5882 12.3244 32.9009 11.6957 30.7996C10.4715 31.092 9.36316 31.4781 8.41455 31.9578Z" fill="#FFB81D" fill-opacity="0.58"/>
<path d="M5.59135 23.8461H10.8138C10.8467 22.0042 11.073 20.2727 11.4536 18.723C10.0914 18.3976 8.8617 17.9564 7.83028 17.416C6.50113 19.2357 5.6849 21.447 5.59131 23.8461H5.59135Z" fill="#FFB81D" fill-opacity="0.58"/>
<path d="M16.8359 36.0001V30.1877C15.3635 30.2099 13.9463 30.3531 12.6338 30.6012C13.5599 33.5847 15.0988 35.6747 16.8359 36.0001Z" fill="#FFB81D" fill-opacity="0.58"/>
<path d="M20.2163 12.9592C21.3469 14.0402 22.2789 15.7275 22.9076 17.8288C24.1373 17.5366 25.2457 17.145 26.1887 16.6708C24.6502 14.8784 22.5766 13.5606 20.2163 12.9592Z" fill="#FFB81D" fill-opacity="0.58"/>
<path d="M17.7686 12.6292V18.4415C19.2409 18.4139 20.6581 18.2762 21.9707 18.028C21.0498 15.0446 19.511 12.9488 17.7686 12.6292Z" fill="#FFB81D" fill-opacity="0.58"/>
<path d="M17.7686 29.2558C19.3293 29.2835 20.8293 29.4377 22.2244 29.7025C22.5994 28.208 22.8254 26.5371 22.8586 24.7778H17.7686L17.7686 29.2558Z" fill="#FFB81D" fill-opacity="0.58"/>
<path d="M20.2163 35.6689C22.5766 35.0623 24.6502 33.7498 26.1887 31.9575C25.2457 31.4834 24.1372 31.0918 22.9076 30.7996C22.2789 32.9006 21.3469 34.5882 20.2163 35.6689Z" fill="#FFB81D" fill-opacity="0.58"/>
<path d="M17.7686 23.8458H22.8586C22.8257 22.0866 22.5994 20.4156 22.2244 18.9211C20.829 19.1915 19.3293 19.3457 17.7686 19.3679L17.7686 23.8458Z" fill="#FFB81D" fill-opacity="0.58"/>
<path d="M23.7948 23.8461H29.0172C28.9236 21.4473 28.1074 19.2357 26.7782 17.416C25.7416 17.9564 24.5171 18.3976 23.1494 18.723C23.5358 20.2724 23.7618 22.0039 23.7947 23.8461H23.7948Z" fill="#FFB81D" fill-opacity="0.58"/>
<path d="M29.7343 24.5902C29.7288 24.9156 29.7066 25.2518 29.6792 25.5994C29.657 25.8254 29.8282 26.0295 30.0542 26.0461H30.0872C30.2968 26.0461 30.4788 25.8808 30.5007 25.6656C30.5336 25.3016 30.5502 24.9488 30.5558 24.6067C30.5613 24.3807 30.3793 24.1877 30.1531 24.1821C29.9492 24.1874 29.7398 24.3638 29.7343 24.5901L29.7343 24.5902Z" fill="#FFB81D" fill-opacity="0.58"/>
<path d="M26.514 14.6583C26.3321 14.5204 26.0728 14.5591 25.9349 14.7411C25.797 14.9231 25.8358 15.1823 26.0177 15.3202C26.0507 15.3424 29.2768 17.824 29.6906 23.0905C29.7072 23.3057 29.8891 23.471 30.1041 23.471H30.137C30.363 23.4544 30.5342 23.2558 30.5176 23.0243C30.0708 17.3714 26.6628 14.7684 26.514 14.6585L26.514 14.6583Z" fill="#FFB81D" fill-opacity="0.58"/>
</svg>
