<svg width="30" height="36" viewBox="0 0 30 36" fill="none" xmlns="http://www.w3.org/2000/svg">
<path d="M19.7453 35.9739L30 33.6288C30 33.6288 26.301 7.20603 26.2705 7.03106C26.24 6.8581 26.1066 6.74145 25.9694 6.74145C25.8322 6.74145 23.227 6.53832 23.227 6.53832C23.227 6.53832 21.4185 4.62972 21.1993 4.42659C21.1479 4.36827 21.0907 4.34011 21.0354 4.30994L19.7453 35.9739ZM20.5952 4.25363C20.5647 4.25363 20.5133 4.28179 20.4866 4.28179C20.4561 4.28179 20.073 4.40045 19.4708 4.59955C18.8648 2.75128 17.7957 1.0438 15.9052 1.0438C15.85 1.0438 15.7966 1.0438 15.7413 1.0438C15.1906 0.317765 14.535 0 13.9576 0C9.54389 0 7.42853 5.81631 6.77296 8.7667C5.07305 9.31978 3.84195 9.72402 3.69902 9.78235C2.73853 10.1001 2.71376 10.1283 2.60513 11.0856C2.49651 11.7774 0 32.1808 0 32.1808L19.2803 36L20.5952 4.25363ZM15.5736 5.6695C15.5736 5.72983 15.5736 5.81631 15.5736 5.87464C14.5083 6.22257 13.3287 6.59866 12.1757 6.97475C12.8351 4.31397 14.0662 3.00872 15.1353 2.51598C15.4135 3.27017 15.5736 4.28179 15.5736 5.6695ZM13.8204 1.24492C14.0109 1.24492 14.2034 1.30123 14.3978 1.45006C13.0028 2.1419 11.4649 3.90771 10.8322 7.43933C9.90027 7.75508 8.99314 8.04469 8.14318 8.30816C8.88451 5.6152 10.6683 1.24492 13.8204 1.24492ZM14.5865 16.9562C14.5865 16.9562 13.4354 16.3227 12.0671 16.3227C10.0089 16.3227 9.92695 17.6822 9.92695 18.0302C9.92695 19.8825 14.535 20.6045 14.535 24.9747C14.535 28.4179 12.4768 30.6181 9.68111 30.6181C6.33464 30.6181 4.63473 28.4179 4.63473 28.4179L5.53996 25.2925C5.53996 25.2925 7.29704 26.8854 8.77398 26.8854C9.73828 26.8854 10.148 26.0769 10.148 25.4977C10.148 23.0661 6.36323 22.9475 6.36323 18.9573C6.36323 15.6007 8.64058 12.3305 13.2753 12.3305C15.0591 12.3305 15.9338 12.8775 15.9338 12.8775L14.5865 16.9562ZM16.3435 2.31285C17.3307 2.43352 17.9634 3.61609 18.3712 4.9495C17.8796 5.12447 17.3288 5.29743 16.7266 5.49855C16.7266 5.3819 16.7266 5.26525 16.7266 5.12246C16.7266 3.99419 16.5894 3.06704 16.3435 2.31285Z" fill="#FFB81D"/>
</svg>
