<svg width="32" height="32" viewBox="0 0 32 32" fill="none" xmlns="http://www.w3.org/2000/svg">
<path d="M30.4262 11.7333H26.2295V29.8667H24.1311V18.1333H19.9344V29.8667H17.8361V22.4H13.6393V29.8667H11.541V25.6H7.34426V29.8667H2.09836V0H0V32H31.4754V29.8667H30.4262V11.7333Z" fill="#FFB81D"/>
<path d="M31.4755 5.33325H28.328V6.39992H30.2092L28.6355 7.99992H26.6797C26.4453 7.08204 25.6306 6.39992 24.6558 6.39992C23.4987 6.39992 22.5575 7.35681 22.5575 8.53325C22.5575 9.13326 22.8041 9.67398 23.1975 10.0623L21.7367 12.2907C21.661 12.2816 21.5865 12.2666 21.5083 12.2666C20.5336 12.2666 19.7188 12.9487 19.4844 13.8666H17.2371C17.0027 12.9487 16.188 12.2666 15.2132 12.2666C14.0561 12.2666 13.1149 13.2235 13.1149 14.3999C13.1149 14.8192 13.2388 15.2081 13.4449 15.5376L10.439 19.4671C10.1409 19.3023 9.80528 19.2 9.44274 19.2C8.46803 19.2 7.65326 19.8821 7.41885 20.8H4.72144V21.8666H7.41885C7.65327 22.7845 8.46803 23.4666 9.44274 23.4666C10.5999 23.4666 11.5411 22.5097 11.5411 21.3333C11.5411 20.914 11.4172 20.5252 11.2111 20.1957L14.217 16.2661C14.5151 16.4309 14.8507 16.5333 15.2132 16.5333C16.188 16.5333 17.0027 15.8512 17.2371 14.9333H19.4844C19.7188 15.8512 20.5336 16.5333 21.5083 16.5333C22.6655 16.5333 23.6067 15.5764 23.6067 14.3999C23.6067 13.6933 23.2631 13.0705 22.7407 12.6821L24.1151 10.5861C24.2887 10.633 24.4676 10.6666 24.6559 10.6666C25.6306 10.6666 26.4454 9.98445 26.6798 9.06657H28.8526C28.9917 9.06657 29.1254 9.01062 29.2236 8.91038L30.9509 7.15398V9.0666H32.0001V5.8666C32.0001 5.5716 31.765 5.33327 31.4755 5.33327L31.4755 5.33325ZM9.44273 22.3999C8.86404 22.3999 8.39355 21.9216 8.39355 21.3333C8.39355 20.7449 8.86404 20.2666 9.44273 20.2666C10.0214 20.2666 10.4919 20.7449 10.4919 21.3333C10.4919 21.9216 10.0214 22.3999 9.44273 22.3999ZM15.2132 15.4666C14.6345 15.4666 14.164 14.9882 14.164 14.3999C14.164 13.8116 14.6345 13.3333 15.2132 13.3333C15.7919 13.3333 16.2624 13.8116 16.2624 14.3999C16.2624 14.9882 15.7919 15.4666 15.2132 15.4666ZM21.5083 15.4666C20.9296 15.4666 20.4591 14.9882 20.4591 14.3999C20.4591 13.8116 20.9296 13.3333 21.5083 13.3333C22.087 13.3333 22.5575 13.8116 22.5575 14.3999C22.5575 14.9882 22.087 15.4666 21.5083 15.4666ZM24.6558 9.59992C24.0771 9.59992 23.6067 9.12158 23.6067 8.53325C23.6067 7.94492 24.0771 7.46659 24.6558 7.46659C25.2345 7.46659 25.705 7.94492 25.705 8.53325C25.705 9.12158 25.2345 9.59992 24.6558 9.59992Z" fill="#FFB81D" fill-opacity="0.58"/>
<path d="M9.96712 6.93342C9.8334 6.93342 9.71419 6.87842 9.62193 6.79485L9.61888 6.79866L5.5034 3.07959C5.01066 3.89172 4.72119 4.84434 4.72119 5.86676C4.72119 8.80747 7.07459 11.2001 9.96709 11.2001C12.5003 11.2001 14.6198 9.36488 15.1071 6.93343L9.96712 6.93342Z" fill="#FFB81D" fill-opacity="0.58"/>
<path d="M6.1416 2.22936L9.44274 5.21243V0.560547C8.14392 0.692454 6.98724 1.31057 6.1416 2.22936Z" fill="#FFB81D" fill-opacity="0.58"/>
<path d="M10.4917 0.560547V5.86676H15.213C15.213 3.10628 13.1387 0.82892 10.4917 0.560547Z" fill="#FFB81D" fill-opacity="0.58"/>
</svg>
