<svg width="42" height="32" viewBox="0 0 42 32" fill="none" xmlns="http://www.w3.org/2000/svg">
<path d="M37.7275 8.95342C37.776 8.60988 37.7989 8.26012 37.7989 7.91063C37.7989 3.55 34.2515 0 29.8883 0C27.358 0 25.0344 1.19538 23.5633 3.15612C23.0449 3.03036 22.5154 2.96683 21.978 2.96683C18.1613 2.96683 15.0557 6.07214 15.0557 9.88875C15.0557 9.94737 15.058 10.0053 15.0593 10.063C14.7397 9.97127 14.403 9.91986 14.0542 9.91986C12.0339 9.91986 10.3958 11.5573 10.3958 13.5783C10.3958 14.044 10.4865 14.4872 10.6447 14.8971H12.0536C12.8455 14.8971 13.5663 14.9915 14.1967 15.1778C14.9699 15.4074 15.6337 15.805 16.1691 16.3588C16.7223 16.9306 17.1316 17.6687 17.3848 18.5504C17.5974 19.2886 17.7051 20.1725 17.7051 21.1776V21.8067C18.5186 22.0061 19.1343 22.7951 19.2037 23.7566H33.8437C38.2066 23.7566 41.7547 20.1967 41.7547 15.8338C41.754 12.9496 40.1683 10.3322 37.7275 8.95342Z" fill="#FFB81D"/>
<path d="M0 24.2691V25.5784C0 25.7936 0.174225 25.9675 0.389063 25.9675C0.679222 25.9675 0.911095 25.9943 1.07582 26.0458C1.19962 26.0851 1.28575 26.1388 1.33782 26.2102C1.40201 26.2976 1.44523 26.423 1.46816 26.5825C1.49764 26.7885 1.51238 27.0404 1.51238 27.3322V28.0942C1.52351 28.797 1.61489 29.401 1.78387 29.8876C1.95941 30.3989 2.22861 30.8197 2.58329 31.137C2.93437 31.4511 3.37681 31.678 3.89688 31.8113C4.38748 31.9368 4.97204 32 5.63462 32H6.06855C6.28372 32 6.45761 31.8257 6.45761 31.6109V30.0183C6.45761 29.8031 6.28339 29.6292 6.06855 29.6292H5.5701C5.02187 29.6292 4.63152 29.531 4.44222 29.3456C4.25587 29.1635 4.1573 28.7892 4.1573 28.2643V28.0403C4.14452 27.2133 4.15533 26.4633 3.84781 25.8084C3.43091 24.9251 2.52542 24.9169 2.29419 24.8154C2.51755 24.7178 3.43943 24.7024 3.85016 23.8097C4.15539 23.1412 4.14392 22.3837 4.15735 21.5453L4.15703 21.3478C4.15703 21.3259 4.15998 21.3085 4.1603 21.2873C4.16816 20.7944 4.26445 20.4361 4.44522 20.2556C4.56869 20.1318 4.78615 20.0509 5.06976 20.0067C5.21909 19.9838 5.38087 19.9674 5.56984 19.9674H6.06829C6.28345 19.9674 6.45735 19.7932 6.45735 19.5784V17.9854C6.45735 17.7797 6.29687 17.616 6.09449 17.6019C6.08564 17.6016 6.07746 17.5967 6.06829 17.5967H5.63435C4.97249 17.5967 4.38138 17.6635 3.87834 17.7945C3.34747 17.9333 2.89977 18.1662 2.54874 18.4865C2.19341 18.8104 1.92715 19.2401 1.75718 19.7634C1.59474 20.2615 1.51254 20.8811 1.51254 21.6056V22.3136C1.51254 22.6047 1.49813 23.0888 1.46833 23.2889C1.44802 23.4284 1.40905 23.5355 1.35534 23.6161C1.35075 23.6236 1.34748 23.6337 1.34224 23.641C1.29049 23.7084 1.20174 23.7634 1.07795 23.8024C0.928619 23.8489 0.719675 23.8718 0.470446 23.8771C0.441955 23.8774 0.419684 23.8813 0.389227 23.8813C0.32078 23.8813 0.260191 23.9033 0.204195 23.9344C0.0843299 23.9996 0 24.1224 0 24.2691ZM16.5012 24.2691V25.5784C16.5012 25.7936 16.327 25.9675 16.1121 25.9675C15.822 25.9675 15.5901 25.9943 15.4254 26.0458C15.3016 26.0851 15.2155 26.1388 15.1634 26.2102C15.0995 26.2976 15.0563 26.4227 15.0334 26.5825C15.0039 26.7885 14.9892 27.0404 14.9892 27.3322V28.0942C14.978 28.797 14.8866 29.401 14.7177 29.8876C14.5421 30.3989 14.2729 30.8197 13.9182 31.137C13.5672 31.4511 13.1247 31.678 12.6046 31.8113C12.1141 31.9368 11.5295 32 10.8669 32H10.433C10.2178 32 10.0439 31.8257 10.0439 31.6109V30.0183C10.0439 29.8031 10.2181 29.6292 10.433 29.6292H10.9314C11.4797 29.6292 11.87 29.531 12.0593 29.3456C12.2457 29.1635 12.3442 28.7892 12.3442 28.2643V28.0403C12.357 27.2133 12.3462 26.4633 12.6537 25.8084C13.0706 24.9251 13.9761 24.9169 14.2073 24.8154C13.984 24.7178 13.0621 24.7024 12.6514 23.8097C12.3461 23.1412 12.3576 22.3837 12.3442 21.5453V21.3478C12.3442 21.3259 12.3412 21.3085 12.3409 21.2873C12.333 20.7944 12.2368 20.4361 12.056 20.2556C11.9325 20.1318 11.7151 20.0509 11.4314 20.0067C11.2821 19.9838 11.1203 19.9674 10.9314 19.9674H10.4329C10.2178 19.9674 10.0439 19.7932 10.0439 19.5784V17.9854C10.0439 17.7797 10.2043 17.616 10.4067 17.6019C10.4156 17.6016 10.4237 17.5967 10.4329 17.5967H10.8668C11.5287 17.5967 12.1198 17.6635 12.6229 17.7945C13.1537 17.9333 13.6014 18.1662 13.9525 18.4865C14.3078 18.8104 14.5741 19.2401 14.744 19.7634C14.9065 20.2615 14.9887 20.8811 14.9887 21.6056V22.3136C14.9887 22.6047 15.0031 23.0888 15.0329 23.2889C15.0532 23.4284 15.0921 23.5355 15.1459 23.6161C15.1504 23.6236 15.1537 23.6337 15.159 23.641C15.2107 23.7084 15.2995 23.7634 15.4232 23.8024C15.5726 23.8489 15.7815 23.8718 16.0308 23.8771C16.0592 23.8774 16.0815 23.8813 16.112 23.8813C16.1804 23.8813 16.241 23.9033 16.297 23.9344C16.4165 23.9996 16.5012 24.1224 16.5012 24.2691Z" fill="#FFB81D" fill-opacity="0.58"/>
</svg>
