<svg width="37" height="36" viewBox="0 0 37 36" fill="none" xmlns="http://www.w3.org/2000/svg">
<path fill-rule="evenodd" clip-rule="evenodd" d="M1.9567 17.9999C1.9567 10.9317 6.72349 4.73505 13.5502 2.93072C13.8487 2.85188 14.1574 3.03039 14.2368 3.33072C14.3164 3.63184 14.1371 3.93903 13.8355 4.01816C7.50271 5.69255 3.08106 11.442 3.08106 17.9999C3.08106 22.3234 4.99508 26.3863 8.3288 29.1458C8.5677 29.3438 8.60092 29.6982 8.40158 29.9376C8.29215 30.0718 8.12946 30.1417 7.96677 30.1417C7.84073 30.1417 7.71469 30.0995 7.61212 30.0125C4.01608 27.0384 1.95646 22.6602 1.95646 17.9998L1.9567 17.9999ZM9.35762 22.9892L17.4005 27.6324V18.3461L9.35762 13.7038V22.9892ZM9.95934 12.6641L18.0015 17.3067L26.041 12.6641L18.0015 8.02044L9.95934 12.6641ZM26.6431 22.9892L18.6003 27.6324V18.3461L26.6431 13.7038V22.9892ZM35.7856 32.5799L32.6942 30.1654C32.449 29.9739 32.0938 30.0177 31.9048 30.2621C31.7123 30.5071 31.7556 30.8607 32.0008 31.0516L33.8054 32.4601H27.6255C27.3136 32.4601 27.0646 32.7117 27.0646 33.0228C27.0646 33.3334 27.3136 33.5855 27.6255 33.5855H33.8051L32.0005 34.9941C31.7553 35.1855 31.7118 35.5391 31.9045 35.7835C32.014 35.9256 32.1798 36 32.3457 36C32.4685 36 32.5909 35.9615 32.6943 35.8811L35.7856 33.4665C35.9214 33.3595 36.0013 33.1957 36.0013 33.0228C36.0011 32.8498 35.9217 32.686 35.7856 32.5798L35.7856 32.5799ZM33.1285 18.0001C33.1285 13.8904 31.5428 10.0126 28.6636 7.08034C26.0764 4.44803 22.7129 2.84432 19.0804 2.48966L20.9809 1.00644C21.2262 0.815008 21.2697 0.461412 21.0769 0.21646C20.8844 -0.0287613 20.5327 -0.0717398 20.2875 0.118899L17.1961 2.53345C17.0603 2.64024 16.9804 2.80398 16.9804 2.97669C16.9804 3.14967 17.06 3.31341 17.1961 3.41968L20.2875 5.83422C20.3903 5.91491 20.5132 5.95393 20.6324 5.95393C20.8017 5.95393 20.9675 5.87905 21.0769 5.73745C21.2694 5.49302 21.2262 5.13943 20.981 4.94802L19.3158 3.64941C26.4346 4.5343 32.0035 10.6825 32.0035 17.9997C32.0035 25.973 25.5151 32.46 17.5405 32.46H0.56375C0.251816 32.46 0 32.7115 0 33.0227C0 33.3333 0.25208 33.5853 0.56375 33.5853H17.5405C21.7035 33.5853 25.6178 31.9637 28.5602 29.0208C31.5061 26.0763 33.1282 22.1626 33.1282 17.9997L33.1285 18.0001Z" fill="#FFB81D"/>
</svg>
