<svg width="33" height="33" viewBox="0 0 33 33" fill="none" xmlns="http://www.w3.org/2000/svg">
<path d="M6.875 15.325H7.075V15.125V5.5C7.075 2.57721 9.45221 0.2 12.375 0.2H20.625C23.5478 0.2 25.925 2.57721 25.925 5.5V15.125V15.325H26.125H27.5C30.4228 15.325 32.8 17.7022 32.8 20.625V27.5C32.8 30.4228 30.4228 32.8 27.5 32.8H5.5C2.57721 32.8 0.2 30.4228 0.2 27.5V20.625C0.2 17.7022 2.57721 15.325 5.5 15.325H6.875ZM9.425 15.125V15.325H9.625H23.375H23.575V15.125V5.5C23.575 3.87292 22.2521 2.55 20.625 2.55H12.375C10.7479 2.55 9.425 3.87292 9.425 5.5V15.125ZM15.125 30.45H15.325V30.25V17.875V17.675H15.125H5.5C3.87292 17.675 2.55 18.9979 2.55 20.625V27.5C2.55 29.1271 3.87292 30.45 5.5 30.45H15.125ZM17.875 17.675H17.675V17.875V30.25V30.45H17.875H27.5C29.1271 30.45 30.45 29.1271 30.45 27.5V20.625C30.45 18.9979 29.1271 17.675 27.5 17.675H17.875ZM26.6125 22C26.6125 22.6499 26.0874 23.175 25.4375 23.175H22.6875C22.0376 23.175 21.5125 22.6499 21.5125 22C21.5125 21.3501 22.0376 20.825 22.6875 20.825H25.4375C26.0874 20.825 26.6125 21.3501 26.6125 22ZM7.5625 20.825H10.3125C10.9624 20.825 11.4875 21.3501 11.4875 22C11.4875 22.6499 10.9624 23.175 10.3125 23.175H7.5625C6.91258 23.175 6.3875 22.6499 6.3875 22C6.3875 21.3501 6.91258 20.825 7.5625 20.825ZM17.875 5.7C18.5249 5.7 19.05 6.22508 19.05 6.875C19.05 7.52492 18.5249 8.05 17.875 8.05H15.125C14.4751 8.05 13.95 7.52492 13.95 6.875C13.95 6.22508 14.4751 5.7 15.125 5.7H17.875Z" fill="#FFB81D" stroke="white" stroke-width="0.4"/>
</svg>
