<svg width="277" height="49" viewBox="0 0 277 49" fill="none" xmlns="http://www.w3.org/2000/svg">
<path fill-rule="evenodd" clip-rule="evenodd" d="M0 3.65412C0.0520727 3.55783 0.00578577 3.00151 0.0347151 2.89452C0.0925737 2.63241 0.231434 2.39704 0.410796 2.18842C0.711661 1.83536 1.08774 1.5786 1.5159 1.37532C1.95562 1.1667 2.42428 1.07576 2.91029 1.02227C3.13015 1.00087 3.3558 1.00087 3.57566 1.02762C3.63352 1.03832 3.69138 1.04367 3.74924 1.05437C4.45511 1.19345 4.94112 1.5786 5.21885 2.18307C5.28249 2.3275 5.34035 2.47728 5.38664 2.62171C6.59588 6.23248 7.82827 9.83255 9.00858 13.454C10.0038 16.5192 11.0683 19.5683 12.0982 22.6227C12.1329 22.719 12.1503 22.8153 12.214 22.9062C12.295 22.8046 12.3123 22.6815 12.3528 22.5692C12.9661 20.7184 13.5736 18.8675 14.1869 17.0166C15.4656 13.1652 16.7501 9.31902 18.0345 5.47288C18.3527 4.51536 18.671 3.56318 18.9892 2.60566C19.076 2.34355 19.1859 2.08678 19.3537 1.85676C19.6083 1.49836 19.9496 1.24159 20.3894 1.10786C20.5224 1.07041 20.6613 1.04902 20.7944 1.02227C21.0374 0.990175 21.2746 1.01692 21.5176 1.02762C21.9631 1.08646 22.3971 1.156 22.8194 1.31113C23.0335 1.39137 23.236 1.48231 23.4269 1.59464C24.2196 2.07608 24.5089 2.76079 24.3816 3.61133C24.3527 3.7825 24.3064 3.95368 24.2485 4.11951C21.8243 11.3892 19.4 18.6535 16.9815 25.9232C16.5128 27.3247 16.05 28.7316 15.5813 30.1331C15.5408 30.2454 15.5061 30.3631 15.454 30.4701C15.1995 30.9729 14.7829 31.3046 14.2159 31.4704C13.8456 31.5774 13.4637 31.6362 13.076 31.679C12.1677 31.7807 11.2709 31.7058 10.3914 31.4651C9.87646 31.3206 9.43095 31.0799 9.08959 30.6841C8.95651 30.5343 8.85815 30.3685 8.80029 30.1759C7.53898 26.196 6.20244 22.2375 4.88327 18.2737C3.64509 14.556 2.3722 10.8489 1.12246 7.13651C0.775305 6.10944 0.439725 5.08773 0.0983597 4.06067C0.0636445 3.92159 0.0347152 3.78785 0 3.65412Z" fill="white"/>
<path fill-rule="evenodd" clip-rule="evenodd" d="M201.03 16.278C201.03 19.2254 201.03 22.1782 201.03 25.1257C201.03 25.8104 200.943 26.4791 200.746 27.137C200.399 28.2764 199.722 29.2018 198.698 29.9026C197.853 30.4803 196.933 30.9297 195.927 31.2078C195.331 31.3737 194.729 31.4593 194.11 31.4593C191.911 31.4593 189.718 31.4593 187.52 31.4593C187.3 31.4593 187.08 31.4432 186.872 31.379C186.496 31.2667 186.212 31.0474 186.004 30.7424C185.755 30.384 185.639 29.9882 185.605 29.5709C185.576 29.2232 185.576 28.8755 185.651 28.5278C185.72 28.2069 185.836 27.9073 186.056 27.6506C186.334 27.3242 186.698 27.137 187.132 27.0568C187.335 27.0193 187.543 27.0033 187.751 27.0033C189.528 27.0033 191.31 27.0033 193.086 27.0033C193.364 27.0033 193.641 26.9979 193.913 26.9444C194.11 26.9017 194.295 26.8482 194.474 26.7572C194.642 26.6716 194.798 26.57 194.914 26.4309C195.244 26.0244 195.452 25.575 195.493 25.0668C195.504 24.9385 195.504 24.8101 195.504 24.6817C195.504 19.0703 195.504 13.4535 195.51 7.84213C195.51 7.29116 195.383 6.78833 195.065 6.32294C194.839 5.99663 194.532 5.77731 194.139 5.67032C193.89 5.60613 193.635 5.56334 193.375 5.55264C193.236 5.54729 193.097 5.54729 192.959 5.54729C190.129 5.54729 187.294 5.54729 184.465 5.54729C184.06 5.54729 184.1 5.50985 184.1 5.88964C184.095 9.48437 184.089 13.0737 184.083 16.6685C184.077 20.9211 184.066 25.1738 184.054 29.4319C184.054 29.6244 184.054 29.817 184.008 30.0096C183.898 30.4696 183.638 30.8334 183.232 31.1222C182.897 31.363 182.521 31.5181 182.104 31.5983C181.358 31.7428 180.623 31.7053 179.906 31.4699C179.437 31.3148 179.078 31.042 178.835 30.6355C178.656 30.3305 178.592 29.9989 178.569 29.6565C178.563 29.5656 178.569 29.4747 178.569 29.3784C178.569 20.8623 178.569 12.3462 178.569 3.83017C178.569 3.46107 178.592 3.09732 178.685 2.73891C178.801 2.30562 179.02 1.93117 179.414 1.66371C179.645 1.50323 179.911 1.39624 180.183 1.3053C180.6 1.16622 181.034 1.12878 181.474 1.11273C181.56 1.10738 181.653 1.11273 181.74 1.11273C185.796 1.11273 189.852 1.11808 193.902 1.11273C194.868 1.11273 195.794 1.27856 196.685 1.62626C197.315 1.87233 197.934 2.15049 198.507 2.4982C199.034 2.81915 199.479 3.22035 199.855 3.69644C200.417 4.40789 200.758 5.20494 200.92 6.06617C201.007 6.53691 201.041 7.013 201.041 7.49443C201.03 10.4151 201.03 13.3466 201.03 16.278Z" fill="#FFB81D"/>
<path fill-rule="evenodd" clip-rule="evenodd" d="M265.264 31.4647C263.875 31.4647 262.481 31.4593 261.092 31.4647C260.224 31.47 259.397 31.3256 258.587 31.0421C257.736 30.7425 256.949 30.3307 256.232 29.8171C255.248 29.111 254.618 28.1856 254.288 27.0783C254.132 26.5434 254.039 26.0031 254.039 25.4467C254.033 24.4839 254.033 23.5157 254.033 22.5528C254.033 22.3228 254.074 22.0981 254.155 21.8788C254.311 21.4508 254.606 21.1299 255.028 20.9052C255.289 20.7661 255.572 20.6805 255.867 20.6324C256.538 20.5201 257.21 20.5254 257.881 20.6752C258.211 20.7501 258.523 20.8678 258.795 21.0657C259.24 21.392 259.472 21.8253 259.53 22.3442C259.547 22.4725 259.541 22.6009 259.541 22.7293C259.541 23.398 259.541 24.072 259.541 24.7406C259.541 24.9921 259.576 25.2328 259.634 25.4788C259.692 25.7142 259.802 25.9282 259.917 26.1422C260.184 26.6075 260.606 26.8643 261.156 26.9606C261.399 27.0034 261.647 27.0194 261.896 27.0194C262.752 27.0194 263.603 27.0194 264.459 27.0194C265.842 27.0194 267.225 27.0194 268.602 27.0194C268.868 27.0194 269.134 27.0087 269.4 26.9606C269.927 26.859 270.338 26.6236 270.604 26.1849C270.818 25.8265 270.963 25.4521 270.986 25.0402C270.992 24.96 270.992 24.8744 270.992 24.7941C270.992 23.307 270.992 21.8146 270.992 20.3275C270.992 20.06 270.963 19.7979 270.876 19.5411C270.783 19.2683 270.644 19.0116 270.471 18.7762C270.28 18.5141 270.014 18.3482 269.696 18.2466C269.354 18.1343 268.995 18.1022 268.642 18.0968C267.647 18.0915 266.652 18.0968 265.663 18.0968C264.112 18.0968 262.562 18.0861 261.011 18.1022C259.935 18.1129 258.922 17.8882 257.956 17.4763C257.429 17.257 256.926 17.0002 256.457 16.6846C255.624 16.1336 254.999 15.4168 254.589 14.5449C254.328 13.9939 254.172 13.4162 254.091 12.8224C254.051 12.5122 254.033 12.2019 254.033 11.8863C254.033 10.3725 254.033 8.85326 254.033 7.33941C254.033 6.53167 254.16 5.74532 254.461 4.99107C254.82 4.10309 255.393 3.35419 256.191 2.75507C256.44 2.56784 256.706 2.41271 256.984 2.26828C257.632 1.92593 258.303 1.63707 259.015 1.41775C259.663 1.21982 260.328 1.12354 261.005 1.12354C263.846 1.12354 266.693 1.12354 269.534 1.12354C270.349 1.12354 271.13 1.26262 271.894 1.53008C272.565 1.76545 273.208 2.05431 273.815 2.40202C274.845 2.99044 275.58 3.81423 276.037 4.85199C276.268 5.38157 276.407 5.93789 276.477 6.50492C276.523 6.85262 276.529 7.20033 276.529 7.54803C276.529 8.23809 276.529 8.92815 276.529 9.61285C276.529 9.78938 276.511 9.96056 276.477 10.1317C276.349 10.6881 276.014 11.1 275.476 11.3674C275.238 11.4851 274.984 11.5653 274.718 11.6081C274.029 11.7258 273.335 11.7258 272.646 11.576C272.444 11.5332 272.247 11.4637 272.062 11.3728C271.454 11.0732 271.119 10.5971 271.038 9.97126C271.009 9.76264 271.003 9.54866 271.003 9.34004C270.997 8.79976 270.997 8.25414 271.003 7.71386C271.003 7.25382 270.864 6.83123 270.627 6.42468C270.349 5.95929 269.921 5.71857 269.377 5.62229C269.14 5.57949 268.909 5.56344 268.666 5.56344C266.409 5.56344 264.153 5.56344 261.896 5.56344C261.584 5.56344 261.283 5.59554 260.982 5.67043C260.56 5.77207 260.23 5.99139 259.998 6.33374C259.709 6.75634 259.553 7.21637 259.553 7.71386C259.547 8.99234 259.547 10.2708 259.553 11.5439C259.559 12.0789 259.721 12.5764 260.056 13.0204C260.23 13.245 260.45 13.4055 260.722 13.5071C260.965 13.5981 261.213 13.6569 261.474 13.6676C261.699 13.6783 261.931 13.6837 262.157 13.6837C264.569 13.6837 266.988 13.689 269.4 13.6837C270.338 13.6837 271.235 13.8334 272.102 14.1651C272.803 14.4326 273.474 14.7535 274.093 15.1547C275.047 15.7699 275.724 16.599 276.112 17.6154C276.372 18.2948 276.517 19.0009 276.523 19.7177C276.534 20.5789 276.529 21.4455 276.529 22.3067C276.529 23.3017 276.529 24.2913 276.529 25.2863C276.529 25.8747 276.448 26.4578 276.286 27.0301C276.025 27.9556 275.545 28.7687 274.799 29.4427C274.405 29.8011 273.96 30.0846 273.491 30.352C272.698 30.8014 271.859 31.1491 270.945 31.3363C270.529 31.4219 270.106 31.47 269.678 31.47C268.209 31.4647 266.733 31.4647 265.264 31.4647Z" fill="#FFB81D"/>
<path fill-rule="evenodd" clip-rule="evenodd" d="M227.766 16.5615C227.766 12.3249 227.766 8.08822 227.766 3.85158C227.766 3.50388 227.789 3.15618 227.87 2.80847C227.916 2.59985 227.991 2.40193 228.101 2.2147C228.252 1.95794 228.454 1.74931 228.72 1.59419C229.166 1.33742 229.652 1.18764 230.173 1.1395C230.491 1.1074 230.809 1.10205 231.127 1.10205C234.807 1.10205 238.481 1.1074 242.161 1.10205C243.127 1.10205 244.053 1.27323 244.944 1.62093C245.447 1.81886 245.939 2.04353 246.408 2.29494C247.536 2.89941 248.323 3.766 248.803 4.87865C249.035 5.41892 249.168 5.9806 249.231 6.56367C249.266 6.89533 249.278 7.22163 249.278 7.55329C249.278 9.3346 249.278 11.1159 249.278 12.9026C249.278 13.6301 249.173 14.3469 248.93 15.0476C248.543 16.171 247.82 17.0697 246.767 17.7383C246.379 17.9844 245.974 18.1984 245.563 18.4016C245.494 18.4391 245.424 18.4712 245.355 18.5086C245.303 18.5354 245.285 18.5728 245.314 18.621C245.343 18.6691 245.372 18.7173 245.407 18.7654C247.05 21.2742 248.687 23.7777 250.331 26.2865C250.689 26.8375 251.054 27.3884 251.413 27.9341C251.592 28.2015 251.737 28.4797 251.846 28.7793C251.997 29.1965 251.956 29.5924 251.754 29.9828C251.644 30.1915 251.499 30.3787 251.332 30.5445C251.123 30.7531 250.898 30.9564 250.631 31.1008C250.117 31.379 249.602 31.6572 249 31.7535C248.213 31.8818 247.577 31.6411 247.067 31.0848C246.929 30.935 246.842 30.7638 246.732 30.598C246.379 30.047 246.02 29.4907 245.661 28.9397C243.631 25.789 241.606 22.6436 239.575 19.4929C239.517 19.4073 239.459 19.3217 239.407 19.2308C239.361 19.1612 239.303 19.1238 239.21 19.1291C239.141 19.1291 239.071 19.1291 239.002 19.1291C238.169 19.1291 237.33 19.1291 236.497 19.1291C236.317 19.1291 236.144 19.1238 235.964 19.081C235.629 18.9954 235.351 18.8242 235.137 18.5675C234.871 18.2572 234.732 17.8935 234.668 17.5083C234.593 17.0429 234.599 16.5722 234.72 16.1121C234.749 15.9945 234.784 15.8821 234.836 15.7698C235.131 15.0958 235.687 14.7534 236.462 14.7053C236.601 14.6946 236.74 14.6999 236.878 14.6999C238.36 14.6999 239.841 14.6999 241.322 14.6999C241.64 14.6999 241.958 14.6732 242.265 14.6037C242.745 14.4967 243.104 14.2452 243.353 13.8494C243.59 13.4589 243.741 13.047 243.741 12.5923C243.741 10.9501 243.741 9.30251 243.741 7.66028C243.741 7.20559 243.59 6.79369 243.353 6.40319C243.075 5.95385 242.653 5.71314 242.12 5.6222C241.883 5.58475 241.652 5.56336 241.409 5.56336C238.788 5.56336 236.161 5.56336 233.54 5.56336C233.488 5.56336 233.442 5.56336 233.39 5.56336C233.291 5.56871 233.262 5.5901 233.257 5.67569C233.251 5.75593 233.257 5.84152 233.257 5.92176C233.257 8.64989 233.257 11.378 233.257 14.1115C233.257 19.2094 233.257 24.3126 233.257 29.4105C233.257 29.6565 233.257 29.9026 233.199 30.1487C233.037 30.8013 232.609 31.2346 231.943 31.4806C231.642 31.593 231.33 31.6465 231.017 31.6732C230.421 31.7214 229.826 31.6946 229.247 31.5288C228.362 31.272 227.876 30.6462 227.806 29.8812C227.789 29.6779 227.777 29.48 227.777 29.2767C227.766 25.0348 227.766 20.7981 227.766 16.5615Z" fill="#FFB81D"/>
<path fill-rule="evenodd" clip-rule="evenodd" d="M174.138 16.2835C174.138 19.2256 174.138 22.1623 174.138 25.1044C174.138 25.7945 174.051 26.4792 173.848 27.1479C173.507 28.2766 172.836 29.1966 171.818 29.892C170.973 30.4698 170.059 30.9245 169.046 31.208C168.444 31.3738 167.831 31.4647 167.201 31.4647C164.389 31.4647 161.577 31.4594 158.765 31.4701C157.741 31.4754 156.774 31.2936 155.843 30.9138C155.073 30.6035 154.35 30.2184 153.714 29.7155C152.759 28.9666 152.14 28.0198 151.845 26.8965C151.729 26.4578 151.66 26.0138 151.654 25.5591C151.648 25.3398 151.642 25.1205 151.642 24.8958C151.642 19.1346 151.642 13.3734 151.642 7.61226C151.642 7.30735 151.642 7.00244 151.665 6.70288C151.764 5.55279 152.14 4.49363 152.915 3.5682C153.158 3.27399 153.448 3.02257 153.748 2.78185C153.991 2.58393 154.258 2.4288 154.529 2.28437C155.328 1.86713 156.15 1.50337 157.041 1.2894C157.532 1.17172 158.036 1.10753 158.545 1.10753C161.438 1.10218 164.331 1.10218 167.224 1.10753C168.109 1.10753 168.954 1.29475 169.769 1.61036C170.412 1.86178 171.037 2.13994 171.621 2.49834C172.136 2.81395 172.581 3.2098 172.952 3.67519C173.524 4.39199 173.866 5.19438 174.028 6.07167C174.115 6.54241 174.149 7.01849 174.149 7.49993C174.132 10.426 174.138 13.3574 174.138 16.2835ZM168.606 16.2781C168.606 13.5286 168.606 10.7844 168.606 8.03486C168.606 7.90647 168.606 7.77809 168.606 7.64971C168.601 7.17897 168.444 6.75103 168.184 6.34983C167.953 6.00213 167.634 5.77746 167.212 5.67047C166.905 5.59023 166.587 5.55814 166.269 5.55814C164.013 5.55814 161.756 5.55814 159.5 5.55814C159.262 5.55814 159.025 5.57953 158.788 5.61698C158.227 5.70792 157.793 5.96468 157.521 6.44612C157.365 6.72428 157.237 7.01314 157.185 7.3234C157.15 7.52667 157.145 7.7246 157.145 7.92787C157.145 13.4858 157.145 19.0437 157.145 24.607C157.145 24.6979 157.145 24.7888 157.145 24.8851C157.162 25.3452 157.295 25.7677 157.538 26.1689C157.804 26.6076 158.215 26.8483 158.736 26.9553C159.019 27.0141 159.309 27.0141 159.598 27.0141C161.415 27.0141 163.237 27.0141 165.054 27.0141C165.494 27.0141 165.928 27.0141 166.367 27.0141C166.599 27.0141 166.824 26.9981 167.05 26.9499C167.426 26.8697 167.773 26.7306 168.016 26.4418C168.265 26.1529 168.433 25.8212 168.531 25.4575C168.601 25.1954 168.606 24.9279 168.606 24.6658C168.606 21.8681 168.606 19.0758 168.606 16.2781Z" fill="#FFB81D"/>
<path fill-rule="evenodd" clip-rule="evenodd" d="M77.8895 0.930493C78.1267 0.930493 78.3639 0.925144 78.6012 0.930493C78.9714 0.935842 79.336 0.983986 79.6831 1.09097C79.7873 1.12307 79.8914 1.15516 79.9898 1.19796C80.6956 1.49217 81.0717 2.01105 81.1643 2.71181C81.1874 2.90438 81.1816 3.09695 81.1816 3.28953C81.1816 10.3827 81.1816 17.4705 81.1816 24.5636C81.1816 24.7669 81.1874 24.9648 81.2106 25.1681C81.2684 25.6175 81.4478 26.0187 81.7313 26.3824C81.9859 26.7087 82.3446 26.8638 82.7554 26.9494C83.0389 27.0083 83.3282 27.0136 83.6175 27.0136C85.2549 27.0136 86.8981 27.0136 88.5355 27.0136C89.1488 27.0136 89.7679 27.0136 90.3812 27.0136C90.682 27.0136 90.9771 26.9815 91.2606 26.9013C91.6714 26.7889 91.9838 26.575 92.2095 26.2326C92.4988 25.7993 92.6377 25.3286 92.6492 24.8204C92.655 24.692 92.6492 24.5636 92.6492 24.4353C92.6492 17.3635 92.6492 10.2864 92.6492 3.21464C92.6492 2.94717 92.6492 2.68506 92.7244 2.42294C92.8807 1.85057 93.2452 1.44402 93.818 1.19261C94.2288 1.01608 94.6685 0.946541 95.1198 0.925144C95.357 0.914445 95.5942 0.919794 95.8314 0.919794C96.034 0.957239 96.2422 0.983986 96.4447 1.02678C96.5778 1.05353 96.7109 1.09097 96.844 1.13912C97.6598 1.43333 98.0764 2.00035 98.1574 2.79205C98.1689 2.89903 98.1631 3.01137 98.1631 3.1237C98.1631 10.4576 98.1631 17.7861 98.1631 25.12C98.1631 25.8956 98.0648 26.6606 97.7986 27.3988C97.4226 28.4419 96.7572 29.2924 95.7909 29.9343C94.8999 30.5281 93.9337 30.9988 92.8691 31.261C92.3368 31.3947 91.7987 31.4589 91.249 31.4589C88.4198 31.4589 85.5847 31.4535 82.7554 31.4642C81.7139 31.4696 80.7304 31.2663 79.7815 30.8705C79.174 30.619 78.5954 30.3141 78.0573 29.945C76.9117 29.1587 76.1769 28.1156 75.8587 26.8317C75.7372 26.3557 75.6735 25.8742 75.6735 25.3874C75.6735 25.2484 75.6677 25.1093 75.6677 24.9755C75.6677 17.7273 75.6677 10.479 75.6677 3.23069C75.6677 2.97392 75.6677 2.71715 75.7314 2.46574C75.876 1.89336 76.229 1.47612 76.8018 1.21401C77.0621 1.09632 77.3398 1.02143 77.6233 0.983986C77.7159 0.967938 77.8085 0.973287 77.8895 0.930493Z" fill="white"/>
<path fill-rule="evenodd" clip-rule="evenodd" d="M124.952 16.2786C124.952 13.3205 124.952 10.3623 124.952 7.40415C124.952 6.73014 125.033 6.06683 125.235 5.41956C125.565 4.36575 126.161 3.47777 127.081 2.77702C127.405 2.53095 127.758 2.33302 128.128 2.1458C128.927 1.7446 129.748 1.4076 130.639 1.23107C131.05 1.15083 131.467 1.11339 131.883 1.11339C134.765 1.10804 137.646 1.10804 140.527 1.11339C141.372 1.11339 142.182 1.27387 142.963 1.56808C143.553 1.79275 144.126 2.04416 144.67 2.34907C145.515 2.81446 146.18 3.45103 146.654 4.24272C147.025 4.85789 147.256 5.5212 147.366 6.21661C147.436 6.64455 147.464 7.07249 147.464 7.50579C147.464 8.31353 147.464 9.12127 147.464 9.92901C147.464 10.1858 147.43 10.4425 147.349 10.6886C147.193 11.1593 146.88 11.5124 146.411 11.7478C146.209 11.8494 145.995 11.9296 145.775 11.9724C145.005 12.1276 144.236 12.1329 143.478 11.9403C143.328 11.9029 143.177 11.8441 143.038 11.7799C142.471 11.5124 142.13 11.0845 141.997 10.5067C141.956 10.3195 141.933 10.1269 141.939 9.93436C141.939 9.18011 141.939 8.42586 141.939 7.67161C141.939 7.22227 141.794 6.80503 141.557 6.41453C141.279 5.95449 140.857 5.70308 140.307 5.60679C140.093 5.56934 139.873 5.54795 139.654 5.54795C137.357 5.54795 135.06 5.54795 132.768 5.54795C132.468 5.54795 132.172 5.58539 131.883 5.66028C131.472 5.76192 131.154 5.98124 130.923 6.31289C130.633 6.73549 130.477 7.19018 130.477 7.69301C130.477 7.7679 130.477 7.83744 130.477 7.91233C130.477 13.4809 130.477 19.0495 130.477 24.6182C130.477 24.8589 130.477 25.0942 130.529 25.3296C130.61 25.6987 130.766 26.0304 130.992 26.3353C131.183 26.5974 131.455 26.7632 131.773 26.8649C132.01 26.9397 132.253 26.9879 132.502 26.9932C132.583 26.9932 132.658 26.9986 132.739 26.9986C135.042 26.9986 137.351 26.9986 139.654 26.9986C139.943 26.9986 140.226 26.9665 140.51 26.897C140.932 26.79 141.256 26.5706 141.488 26.2283C141.771 25.8057 141.927 25.3457 141.927 24.8482C141.927 24.1153 141.933 23.3771 141.927 22.6443C141.927 22.4303 141.951 22.2217 142.008 22.0184C142.159 21.4674 142.518 21.0716 143.073 20.8255C143.299 20.7239 143.536 20.6597 143.779 20.6169C144.444 20.5099 145.104 20.5153 145.763 20.6543C145.995 20.7025 146.221 20.7774 146.429 20.8844C146.967 21.1572 147.291 21.5851 147.401 22.1361C147.436 22.3073 147.459 22.4784 147.459 22.655C147.453 23.5002 147.464 24.3453 147.453 25.1905C147.441 25.9555 147.331 26.7097 147.059 27.4372C146.695 28.4001 146.087 29.2025 145.214 29.8177C144.392 30.3954 143.501 30.8501 142.518 31.1443C141.864 31.3422 141.187 31.4438 140.498 31.4438C137.675 31.4438 134.851 31.4385 132.034 31.4438C131.044 31.4492 130.101 31.262 129.199 30.9036C128.568 30.6522 127.972 30.3419 127.411 29.9674C126.173 29.1383 125.409 28.0257 125.108 26.6402C124.992 26.1053 124.946 25.5703 124.946 25.0247C124.952 22.1254 124.952 19.2047 124.952 16.2786Z" fill="#FFB81D"/>
<path fill-rule="evenodd" clip-rule="evenodd" d="M37.4985 6.26941C37.406 6.29616 37.406 6.3657 37.3886 6.42989C37.0935 7.25903 36.8042 8.08817 36.5092 8.91731C34.5709 14.4217 32.6326 19.9261 30.6944 25.4306C30.1447 26.9819 29.6008 28.5385 29.0512 30.0898C28.9007 30.5124 28.6635 30.8922 28.3279 31.2185C27.9461 31.5822 27.489 31.7641 26.9393 31.7588C26.1178 31.7481 25.354 31.5501 24.6424 31.1703C24.5382 31.1169 24.4399 31.0527 24.3473 30.9831C23.6703 30.491 23.4331 29.8491 23.6009 29.0788C23.6761 28.7257 23.8208 28.3941 23.9423 28.0517C26.6153 20.5199 29.2942 12.9988 31.9673 5.47772C32.2739 4.62183 32.5748 3.77129 32.8756 2.91541C33.0261 2.48747 33.2633 2.11302 33.6162 1.80276C33.9807 1.48715 34.4031 1.27853 34.8949 1.19294C35.5892 1.0699 36.2893 0.989665 36.9894 0.941521C37.377 0.914775 37.7647 0.920124 38.1523 0.957569C38.6441 1.00571 39.1417 1.05386 39.6335 1.09665C40.1485 1.13944 40.594 1.31597 40.9816 1.62088C41.2651 1.8402 41.5139 2.09162 41.7338 2.36443C41.9305 2.60515 42.0809 2.86726 42.1851 3.16148C44.4531 9.56992 46.727 15.9784 48.995 22.3868C49.7356 24.473 50.4646 26.5539 51.2052 28.6401C51.3152 28.9504 51.3788 29.2607 51.3672 29.587C51.3557 30.0416 51.1705 30.4268 50.8407 30.7531C50.7077 30.8868 50.5514 31.0045 50.3836 31.1062C49.672 31.5234 48.8851 31.732 48.0462 31.7534C47.6007 31.7641 47.2072 31.625 46.8543 31.3843C46.5361 31.165 46.293 30.8868 46.131 30.5605C46.05 30.4054 45.9806 30.2396 45.9228 30.0737C43.1455 22.2263 40.3683 14.3789 37.5853 6.53688C37.5622 6.44059 37.5275 6.355 37.4985 6.26941Z" fill="white"/>
<path fill-rule="evenodd" clip-rule="evenodd" d="M205.509 16.2722C205.509 12.1104 205.509 7.94867 205.509 3.78693C205.509 3.40713 205.561 3.03803 205.694 2.67428C205.775 2.45495 205.891 2.25168 206.018 2.05911C206.249 1.70605 206.585 1.47069 206.996 1.32625C207.285 1.22462 207.586 1.16578 207.892 1.13903C208.24 1.11228 208.587 1.10693 208.934 1.10693C213.354 1.10693 217.78 1.10693 222.201 1.10693C222.392 1.10693 222.577 1.11228 222.768 1.13368C223.318 1.20322 223.734 1.44929 224.012 1.89328C224.162 2.134 224.255 2.39611 224.313 2.66893C224.423 3.21455 224.44 3.76553 224.29 4.30581C224.22 4.55722 224.104 4.79259 223.925 4.99052C223.589 5.35962 223.15 5.51475 222.641 5.54684C222.49 5.55754 222.34 5.55219 222.195 5.55219C218.596 5.55219 214.997 5.55219 211.404 5.55219C211.318 5.55219 211.225 5.55219 211.138 5.55219C211.028 5.55754 211.005 5.57894 211.005 5.69127C210.999 5.76616 211.005 5.8357 211.005 5.91059C211.005 12.8219 211.005 19.7278 211.005 26.6391C211.005 27.0563 210.947 27.0028 211.404 27.0028C215.281 27.0028 219.158 27.0028 223.034 27.0028C223.225 27.0028 223.41 27.0082 223.595 27.0403C224.18 27.1366 224.585 27.4468 224.833 27.939C224.961 28.1904 225.03 28.4578 225.059 28.736C225.105 29.1853 225.123 29.6347 225.019 30.0787C224.961 30.3408 224.862 30.5922 224.689 30.8115C224.457 31.1111 224.151 31.2983 223.775 31.3893C223.595 31.432 223.404 31.4641 223.213 31.4588C223.161 31.4588 223.115 31.4588 223.063 31.4588C218.203 31.4588 213.343 31.4588 208.483 31.4588C208.054 31.4588 207.632 31.4214 207.215 31.309C206.677 31.1592 206.267 30.8704 205.983 30.4157C205.688 29.945 205.538 29.4368 205.52 28.8965C205.514 28.7681 205.52 28.6397 205.52 28.5113C205.509 24.4298 205.509 20.3537 205.509 16.2722Z" fill="#FFB81D"/>
<path fill-rule="evenodd" clip-rule="evenodd" d="M102.739 16.2567C102.739 12.1323 102.739 8.00805 102.739 3.8784C102.739 3.60558 102.739 3.32742 102.803 3.05461C102.878 2.7283 103.011 2.42339 103.19 2.13453C103.445 1.72798 103.815 1.45517 104.295 1.30004C104.706 1.16631 105.129 1.13421 105.557 1.11816C105.626 1.11816 105.696 1.11816 105.765 1.11816C110.336 1.11816 114.907 1.11816 119.478 1.11816C119.645 1.11816 119.813 1.12351 119.981 1.13956C120.484 1.19305 120.878 1.41772 121.167 1.80287C121.312 1.99545 121.41 2.20407 121.468 2.42874C121.624 3.00646 121.653 3.58954 121.537 4.17796C121.526 4.2475 121.503 4.32239 121.479 4.39193C121.3 4.95895 120.855 5.48318 119.888 5.55807C119.749 5.56877 119.611 5.56342 119.472 5.56342C115.856 5.56342 112.239 5.56342 108.617 5.56342C108.531 5.56342 108.438 5.56342 108.351 5.56342C108.241 5.56877 108.218 5.58482 108.218 5.69716C108.218 5.77205 108.218 5.84159 108.218 5.91648C108.218 12.8278 108.218 19.7337 108.218 26.645C108.218 26.7627 108.166 26.9017 108.259 26.9873C108.34 27.0622 108.484 27.0141 108.606 27.0141C112.482 27.0141 116.359 27.0141 120.235 27.0141C120.426 27.0141 120.612 27.0194 120.797 27.0515C121.317 27.1371 121.711 27.3939 121.965 27.8218C122.122 28.0839 122.208 28.3621 122.249 28.6563C122.307 29.0682 122.324 29.4801 122.261 29.892C122.22 30.1381 122.156 30.3788 122.035 30.6034C121.792 31.0528 121.404 31.3256 120.872 31.4219C120.698 31.454 120.519 31.47 120.34 31.47C115.439 31.47 110.538 31.47 105.644 31.47C105.227 31.47 104.81 31.4272 104.411 31.3149C103.873 31.1651 103.462 30.8656 103.185 30.4109C102.918 29.9722 102.756 29.5015 102.745 28.9987C102.739 28.8596 102.739 28.7205 102.739 28.5868C102.739 24.4678 102.739 20.3596 102.739 16.2567Z" fill="white"/>
<path fill-rule="evenodd" clip-rule="evenodd" d="M53.2473 15.9517C53.2473 11.7097 53.2473 7.46238 53.2473 3.22039C53.2473 2.97433 53.2473 2.72826 53.3052 2.48219C53.4614 1.82423 53.878 1.38559 54.5433 1.13417C54.8442 1.02184 55.1509 0.968343 55.4691 0.941597C56.0072 0.893453 56.5395 0.914851 57.066 1.04323C57.2396 1.08603 57.4073 1.13952 57.5694 1.20906C58.2174 1.49792 58.5877 1.98471 58.686 2.63732C58.7207 2.84594 58.7265 3.05992 58.7265 3.26854C58.7265 11.0518 58.7265 18.8296 58.7265 26.6128C58.7265 26.7038 58.7265 26.7947 58.7265 26.891C58.7323 27.0033 58.7381 27.0087 58.8712 27.0087C58.958 27.0087 59.0505 27.0087 59.1373 27.0087C63.3089 27.0087 67.4863 27.0087 71.6579 27.0087C71.8489 27.0087 72.034 27.014 72.2191 27.0461C72.6878 27.1264 73.0407 27.3457 73.2895 27.7201C73.3821 27.8646 73.4573 28.0143 73.5036 28.1748C73.6945 28.8702 73.7061 29.571 73.5268 30.2717C73.5152 30.3092 73.5036 30.3413 73.492 30.3787C73.2895 30.9404 72.8556 31.4004 71.9646 31.4539C71.8778 31.4593 71.7852 31.4593 71.6984 31.4593C66.5316 31.4593 61.3649 31.4593 56.1981 31.4593C55.8278 31.4593 55.4633 31.4325 55.1046 31.3523C54.8789 31.3042 54.6649 31.2346 54.4681 31.1276C54.2193 30.9993 54.011 30.8388 53.849 30.6248C53.4903 30.1487 53.282 29.6191 53.2531 29.0361C53.2473 28.8916 53.2473 28.7419 53.2473 28.5974C53.2473 24.3822 53.2473 20.1669 53.2473 15.9517Z" fill="white"/>
<path fill-rule="evenodd" clip-rule="evenodd" d="M114.797 19.1131C112.847 19.1345 111.111 17.6474 111.117 15.6628C111.123 13.7156 112.818 12.2339 114.797 12.2339C116.839 12.2339 118.558 13.7424 118.552 15.6895C118.54 17.642 116.81 19.1345 114.797 19.1131Z" fill="white"/>
<path fill-rule="evenodd" clip-rule="evenodd" d="M221.315 15.6784C221.373 17.4865 219.718 19.1234 217.554 19.1127C215.5 19.1073 213.891 17.5079 213.897 15.6624C213.903 13.8222 215.517 12.2121 217.6 12.2281C219.735 12.2442 221.378 13.865 221.315 15.6784Z" fill="#FFB81D"/>
<path fill-rule="evenodd" clip-rule="evenodd" d="M37.3797 18.9256C39.3239 18.8989 40.8573 20.4022 40.8689 22.1089C40.8805 23.853 39.3413 25.3296 37.4318 25.3456C35.5223 25.367 33.9716 23.9332 33.96 22.157C33.9426 20.3701 35.4876 18.9096 37.3797 18.9256Z" fill="white"/>
<path d="M85.7392 43.8782V44.3631C85.7392 45.0297 85.6453 45.6277 85.4574 46.157C85.2694 46.6863 85.0007 47.1368 84.6511 47.5085C84.3059 47.8802 83.8907 48.1651 83.4057 48.363C82.9206 48.557 82.3831 48.6539 81.7932 48.6539C81.2076 48.6539 80.6723 48.557 80.1872 48.363C79.7065 48.1651 79.2892 47.8802 78.9353 47.5085C78.5813 47.1368 78.306 46.6863 78.1093 46.157C77.9171 45.6277 77.8209 45.0297 77.8209 44.3631V43.8782C77.8209 43.2116 77.9171 42.6156 78.1093 42.0904C78.3016 41.5611 78.5725 41.1106 78.9221 40.7389C79.2761 40.3631 79.6934 40.0783 80.1741 39.8844C80.6592 39.6864 81.1945 39.5874 81.7801 39.5874C82.37 39.5874 82.9075 39.6864 83.3926 39.8844C83.8776 40.0783 84.295 40.3631 84.6445 40.7389C84.9941 41.1106 85.2629 41.5611 85.4508 42.0904C85.6431 42.6156 85.7392 43.2116 85.7392 43.8782ZM84.0939 44.3631V43.8661C84.0939 43.3732 84.0415 42.9389 83.9366 42.5631C83.8361 42.1833 83.6854 41.8662 83.4843 41.6116C83.2877 41.353 83.0452 41.1591 82.7567 41.0298C82.4683 40.8965 82.1428 40.8298 81.7801 40.8298C81.4174 40.8298 81.094 40.8965 80.8099 41.0298C80.5259 41.1591 80.2834 41.353 80.0824 41.6116C79.8857 41.8662 79.7349 42.1833 79.6301 42.5631C79.5252 42.9389 79.4728 43.3732 79.4728 43.8661V44.3631C79.4728 44.856 79.5252 45.2924 79.6301 45.6722C79.7349 46.052 79.8879 46.3732 80.0889 46.6358C80.2943 46.8944 80.539 47.0903 80.8231 47.2237C81.1071 47.3529 81.4305 47.4176 81.7932 47.4176C82.1603 47.4176 82.4858 47.3529 82.7699 47.2237C83.0539 47.0903 83.2942 46.8944 83.4909 46.6358C83.6875 46.3732 83.8361 46.052 83.9366 45.6722C84.0415 45.2924 84.0939 44.856 84.0939 44.3631Z" fill="white"/>
<path d="M94.9554 39.7086V48.5327H93.3101L89.0298 42.2116V48.5327H87.3845V39.7086H89.0298L93.3232 46.0419V39.7086H94.9554Z" fill="white"/>
<path d="M99.9371 44.1813V45.3449H96.4695V44.1813H99.9371Z" fill="white"/>
<path d="M104.25 48.5327H102.212L102.225 47.3267H104.25C104.84 47.3267 105.334 47.2075 105.732 46.9691C106.134 46.7307 106.435 46.3893 106.636 45.9449C106.842 45.5004 106.944 44.9712 106.944 44.357V43.8782C106.944 43.4015 106.885 42.9793 106.767 42.6116C106.654 42.2439 106.483 41.9348 106.256 41.6843C106.033 41.4338 105.758 41.2439 105.43 41.1147C105.107 40.9854 104.733 40.9207 104.309 40.9207H102.172V39.7086H104.309C104.943 39.7086 105.522 39.8076 106.046 40.0056C106.571 40.1995 107.023 40.4803 107.403 40.848C107.788 41.2157 108.083 41.6561 108.288 42.1692C108.493 42.6823 108.596 43.256 108.596 43.8904V44.357C108.596 44.9914 108.493 45.5651 108.288 46.0782C108.083 46.5913 107.788 47.0317 107.403 47.3994C107.019 47.763 106.56 48.0438 106.027 48.2418C105.498 48.4358 104.906 48.5327 104.25 48.5327ZM103.123 39.7086V48.5327H101.477V39.7086H103.123Z" fill="white"/>
<path d="M116.495 47.3267V48.5327H111.428V47.3267H116.495ZM111.893 39.7086V48.5327H110.248V39.7086H111.893ZM115.833 43.3934V44.5813H111.428V43.3934H115.833ZM116.462 39.7086V40.9207H111.428V39.7086H116.462Z" fill="white"/>
<path d="M118.507 39.7086H119.975L122.735 46.5146L125.488 39.7086H126.956L123.312 48.5327H122.145L118.507 39.7086ZM117.838 39.7086H119.235L119.477 45.5994V48.5327H117.838V39.7086ZM126.229 39.7086H127.631V48.5327H125.986V45.5994L126.229 39.7086Z" fill="white"/>
<path d="M133.419 40.8844L130.568 48.5327H128.844L132.436 39.7086H133.537L133.419 40.8844ZM135.805 48.5327L132.947 40.8844L132.823 39.7086H133.931L137.536 48.5327H135.805ZM135.668 45.26V46.4661H130.476V45.26H135.668Z" fill="white"/>
<path d="M146.175 39.7086V48.5327H144.53L140.25 42.2116V48.5327H138.604V39.7086H140.25L144.543 46.0419V39.7086H146.175Z" fill="white"/>
<path d="M150.908 48.5327H148.869L148.882 47.3267H150.908C151.498 47.3267 151.992 47.2075 152.389 46.9691C152.791 46.7307 153.093 46.3893 153.294 45.9449C153.499 45.5004 153.602 44.9712 153.602 44.357V43.8782C153.602 43.4015 153.543 42.9793 153.425 42.6116C153.311 42.2439 153.141 41.9348 152.914 41.6843C152.691 41.4338 152.415 41.2439 152.088 41.1147C151.764 40.9854 151.391 40.9207 150.967 40.9207H148.83V39.7086H150.967C151.6 39.7086 152.179 39.8076 152.704 40.0056C153.228 40.1995 153.681 40.4803 154.061 40.848C154.445 41.2157 154.74 41.6561 154.946 42.1692C155.151 42.6823 155.254 43.256 155.254 43.8904V44.357C155.254 44.9914 155.151 45.5651 154.946 46.0782C154.74 46.5913 154.445 47.0317 154.061 47.3994C153.676 47.763 153.217 48.0438 152.684 48.2418C152.155 48.4358 151.563 48.5327 150.908 48.5327ZM149.78 39.7086V48.5327H148.135V39.7086H149.78Z" fill="white"/>
<path d="M165.27 46.26C165.27 46.0782 165.239 45.9166 165.178 45.7752C165.121 45.6338 165.018 45.5045 164.87 45.3873C164.721 45.2701 164.511 45.157 164.24 45.0479C163.974 44.9348 163.633 44.8196 163.218 44.7025C162.763 44.5732 162.344 44.4298 161.959 44.2722C161.579 44.1106 161.247 43.9247 160.963 43.7146C160.679 43.5005 160.458 43.256 160.301 42.9813C160.144 42.7025 160.065 42.3813 160.065 42.0177C160.065 41.6581 160.146 41.3308 160.307 41.0359C160.474 40.7409 160.707 40.4864 161.009 40.2722C161.315 40.0541 161.675 39.8864 162.09 39.7692C162.506 39.648 162.964 39.5874 163.467 39.5874C164.175 39.5874 164.784 39.7086 165.296 39.951C165.811 40.1935 166.207 40.5187 166.482 40.9268C166.762 41.3349 166.902 41.7853 166.902 42.2783H165.27C165.27 41.9874 165.202 41.7308 165.066 41.5086C164.935 41.2823 164.734 41.1046 164.463 40.9753C164.197 40.846 163.858 40.7813 163.447 40.7813C163.058 40.7813 162.735 40.8359 162.477 40.945C162.219 41.054 162.027 41.2015 161.9 41.3874C161.774 41.5732 161.71 41.7833 161.71 42.0177C161.71 42.1833 161.752 42.3348 161.835 42.4722C161.918 42.6055 162.045 42.7308 162.215 42.848C162.385 42.9611 162.6 43.0682 162.857 43.1692C163.115 43.2702 163.419 43.3671 163.768 43.4601C164.297 43.6055 164.758 43.7671 165.152 43.9449C165.545 44.1186 165.873 44.3166 166.135 44.5388C166.397 44.7611 166.594 45.0136 166.725 45.2964C166.856 45.5752 166.921 45.8924 166.921 46.2479C166.921 46.6196 166.841 46.955 166.679 47.254C166.517 47.5489 166.286 47.8014 165.984 48.0115C165.687 48.2176 165.329 48.3772 164.909 48.4903C164.494 48.5994 164.031 48.6539 163.519 48.6539C163.061 48.6539 162.608 48.5974 162.163 48.4842C161.721 48.3711 161.319 48.1994 160.956 47.9691C160.594 47.7348 160.305 47.4439 160.091 47.0964C159.877 46.7449 159.77 46.3348 159.77 45.8661H161.415C161.415 46.153 161.468 46.3974 161.573 46.5994C161.682 46.8014 161.833 46.9671 162.025 47.0964C162.217 47.2216 162.44 47.3146 162.693 47.3752C162.951 47.4358 163.227 47.4661 163.519 47.4661C163.904 47.4661 164.225 47.4156 164.483 47.3146C164.745 47.2136 164.942 47.0721 165.073 46.8903C165.204 46.7085 165.27 46.4984 165.27 46.26Z" fill="white"/>
<path d="M175.987 43.8782V44.3631C175.987 45.0297 175.893 45.6277 175.705 46.157C175.517 46.6863 175.248 47.1368 174.899 47.5085C174.553 47.8802 174.138 48.1651 173.653 48.363C173.168 48.557 172.631 48.6539 172.041 48.6539C171.455 48.6539 170.92 48.557 170.435 48.363C169.954 48.1651 169.537 47.8802 169.183 47.5085C168.829 47.1368 168.554 46.6863 168.357 46.157C168.165 45.6277 168.068 45.0297 168.068 44.3631V43.8782C168.068 43.2116 168.165 42.6156 168.357 42.0904C168.549 41.5611 168.82 41.1106 169.17 40.7389C169.524 40.3631 169.941 40.0783 170.422 39.8844C170.907 39.6864 171.442 39.5874 172.028 39.5874C172.618 39.5874 173.155 39.6864 173.64 39.8844C174.125 40.0783 174.542 40.3631 174.892 40.7389C175.242 41.1106 175.51 41.5611 175.698 42.0904C175.891 42.6156 175.987 43.2116 175.987 43.8782ZM174.341 44.3631V43.8661C174.341 43.3732 174.289 42.9389 174.184 42.5631C174.084 42.1833 173.933 41.8662 173.732 41.6116C173.535 41.353 173.293 41.1591 173.004 41.0298C172.716 40.8965 172.39 40.8298 172.028 40.8298C171.665 40.8298 171.342 40.8965 171.057 41.0298C170.773 41.1591 170.531 41.353 170.33 41.6116C170.133 41.8662 169.982 42.1833 169.878 42.5631C169.773 42.9389 169.72 43.3732 169.72 43.8661V44.3631C169.72 44.856 169.773 45.2924 169.878 45.6722C169.982 46.052 170.135 46.3732 170.336 46.6358C170.542 46.8944 170.787 47.0903 171.071 47.2237C171.355 47.3529 171.678 47.4176 172.041 47.4176C172.408 47.4176 172.733 47.3529 173.017 47.2237C173.301 47.0903 173.542 46.8944 173.738 46.6358C173.935 46.3732 174.084 46.052 174.184 45.6722C174.289 45.2924 174.341 44.856 174.341 44.3631Z" fill="white"/>
<path d="M179.277 39.7086V48.5327H177.632V39.7086H179.277ZM183.171 43.5692V44.7752H178.858V43.5692H183.171ZM183.715 39.7086V40.9207H178.858V39.7086H183.715Z" fill="white"/>
<path d="M189.083 39.7086V48.5327H187.451V39.7086H189.083ZM192.079 39.7086V40.9207H184.482V39.7086H192.079Z" fill="white"/>
<path d="M195.835 46.5509L197.736 39.7086H198.732L198.621 41.4722L196.589 48.5327H195.553L195.835 46.5509ZM194.413 39.7086L195.953 46.4964L196.091 48.5327H194.989L192.78 39.7086H194.413ZM200.889 46.4782L202.409 39.7086H204.048L201.839 48.5327H200.738L200.889 46.4782ZM199.119 39.7086L201 46.5691L201.275 48.5327H200.24L198.241 41.4722L198.136 39.7086H199.119Z" fill="white"/>
<path d="M208.696 40.8844L205.844 48.5327H204.12L207.712 39.7086H208.814L208.696 40.8844ZM211.082 48.5327L208.224 40.8844L208.099 39.7086H209.207L212.812 48.5327H211.082ZM210.944 45.26V46.4661H205.752V45.26H210.944Z" fill="white"/>
<path d="M213.88 39.7086H217.256C217.982 39.7086 218.6 39.8096 219.111 40.0116C219.623 40.2137 220.014 40.5126 220.285 40.9086C220.56 41.3005 220.698 41.7853 220.698 42.3631C220.698 42.8035 220.61 43.1914 220.435 43.5267C220.261 43.8621 220.014 44.1449 219.695 44.3752C219.376 44.6015 218.995 44.7772 218.554 44.9025L218.056 45.1267H215.021L215.008 43.9207H217.282C217.676 43.9207 218.004 43.856 218.266 43.7267C218.528 43.5974 218.725 43.4217 218.856 43.1995C218.991 42.9732 219.059 42.7187 219.059 42.4358C219.059 42.1288 218.993 41.8621 218.862 41.6359C218.735 41.4056 218.539 41.2298 218.272 41.1086C218.006 40.9833 217.667 40.9207 217.256 40.9207H215.526V48.5327H213.88V39.7086ZM219.328 48.5327L217.086 44.5691L218.81 44.5631L221.084 48.4539V48.5327H219.328Z" fill="white"/>
<path d="M228.583 47.3267V48.5327H223.516V47.3267H228.583ZM223.982 39.7086V48.5327H222.336V39.7086H223.982ZM227.921 43.3934V44.5813H223.516V43.3934H227.921ZM228.55 39.7086V40.9207H223.516V39.7086H228.55Z" fill="white"/>
<path d="M236.882 39.7086V48.5327H235.249V39.7086H236.882ZM239.877 39.7086V40.9207H232.28V39.7086H239.877Z" fill="white"/>
<path d="M247.382 47.3267V48.5327H242.316V47.3267H247.382ZM242.781 39.7086V48.5327H241.136V39.7086H242.781ZM246.72 43.3934V44.5813H242.316V43.3934H246.72ZM247.35 39.7086V40.9207H242.316V39.7086H247.35Z" fill="white"/>
<path d="M252.443 40.8844L249.591 48.5327H247.868L251.46 39.7086H252.561L252.443 40.8844ZM254.829 48.5327L251.971 40.8844L251.846 39.7086H252.954L256.559 48.5327H254.829ZM254.691 45.26V46.4661H249.5V45.26H254.691Z" fill="white"/>
<path d="M258.296 39.7086H259.765L262.524 46.5146L265.277 39.7086H266.746L263.101 48.5327H261.934L258.296 39.7086ZM257.628 39.7086H259.024L259.266 45.5994V48.5327H257.628V39.7086ZM266.018 39.7086H267.421V48.5327H265.775V45.5994L266.018 39.7086Z" fill="white"/>
<path d="M274.395 46.26C274.395 46.0782 274.365 45.9166 274.303 45.7752C274.247 45.6338 274.144 45.5045 273.995 45.3873C273.847 45.2701 273.637 45.157 273.366 45.0479C273.099 44.9348 272.759 44.8196 272.343 44.7025C271.889 44.5732 271.469 44.4298 271.085 44.2722C270.705 44.1106 270.373 43.9247 270.089 43.7146C269.805 43.5005 269.584 43.256 269.427 42.9813C269.269 42.7025 269.191 42.3813 269.191 42.0177C269.191 41.6581 269.271 41.3308 269.433 41.0359C269.599 40.7409 269.833 40.4864 270.134 40.2722C270.44 40.0541 270.801 39.8864 271.216 39.7692C271.631 39.648 272.09 39.5874 272.593 39.5874C273.3 39.5874 273.91 39.7086 274.421 39.951C274.937 40.1935 275.332 40.5187 275.608 40.9268C275.887 41.3349 276.027 41.7853 276.027 42.2783H274.395C274.395 41.9874 274.327 41.7308 274.192 41.5086C274.061 41.2823 273.86 41.1046 273.589 40.9753C273.322 40.846 272.984 40.7813 272.573 40.7813C272.184 40.7813 271.861 40.8359 271.603 40.945C271.345 41.054 271.153 41.2015 271.026 41.3874C270.899 41.5732 270.836 41.7833 270.836 42.0177C270.836 42.1833 270.877 42.3348 270.96 42.4722C271.043 42.6055 271.17 42.7308 271.341 42.848C271.511 42.9611 271.725 43.0682 271.983 43.1692C272.241 43.2702 272.544 43.3671 272.894 43.4601C273.423 43.6055 273.884 43.7671 274.277 43.9449C274.67 44.1186 274.998 44.3166 275.26 44.5388C275.523 44.7611 275.719 45.0136 275.85 45.2964C275.981 45.5752 276.047 45.8924 276.047 46.2479C276.047 46.6196 275.966 46.955 275.804 47.254C275.643 47.5489 275.411 47.8014 275.11 48.0115C274.812 48.2176 274.454 48.3772 274.035 48.4903C273.619 48.5994 273.156 48.6539 272.645 48.6539C272.186 48.6539 271.734 48.5974 271.288 48.4842C270.847 48.3711 270.445 48.1994 270.082 47.9691C269.719 47.7348 269.431 47.4439 269.217 47.0964C269.003 46.7449 268.896 46.3348 268.896 45.8661H270.541C270.541 46.153 270.593 46.3974 270.698 46.5994C270.807 46.8014 270.958 46.9671 271.15 47.0964C271.343 47.2216 271.566 47.3146 271.819 47.3752C272.077 47.4358 272.352 47.4661 272.645 47.4661C273.03 47.4661 273.351 47.4156 273.609 47.3146C273.871 47.2136 274.067 47.0721 274.198 46.8903C274.33 46.7085 274.395 46.4984 274.395 46.26Z" fill="white"/>
</svg>
