<svg width="36" height="36" viewBox="0 0 36 36" fill="none" xmlns="http://www.w3.org/2000/svg">
<path d="M18.0128 10.9951L12.1591 13.5844L18.0128 16.0233L23.8666 13.5844L18.0128 10.9951Z" fill="#FFB81D" fill-opacity="0.58"/>
<path d="M11.4084 22.0272L17.4499 24.5413V16.9238L11.4084 14.4097V22.0272Z" fill="#FFB81D" fill-opacity="0.58"/>
<path d="M18.5756 24.5413L24.617 22.0272V14.4097L18.5756 16.9238V24.5413Z" fill="#FFB81D" fill-opacity="0.58"/>
<path d="M35.8369 19.6259V16.2111L33.2477 15.3855C32.91 14.1097 32.7974 13.7344 32.4595 12.4586L34.2606 10.4698C33.3976 8.96895 33.4351 9.0438 32.5343 7.50549L29.9077 8.06825L27.7687 5.92922L28.3314 3.30256C26.8306 2.43957 26.9054 2.47702 25.3671 1.5763L23.3783 3.37741C22.1025 3.03975 21.7272 2.9272 20.4514 2.58926L19.6259 0H16.2111L15.3855 2.58926C14.1097 2.92692 13.7344 3.03948 12.4586 3.37741L10.4698 1.5763C8.96895 2.4393 9.0438 2.40184 7.50549 3.30256L8.06825 5.92922L5.92922 8.06825L3.30256 7.50549C2.43957 9.00634 2.47702 8.93149 1.5763 10.4698L3.37741 12.4586C3.03975 13.7344 2.9272 14.1097 2.58926 15.3855L0 16.2111V19.6259L2.58926 20.4514C2.92692 21.7272 3.03948 22.1025 3.37741 23.3783L1.5763 25.3671C2.4393 26.868 2.40184 26.7931 3.30256 28.3314L5.92922 27.7687L8.06825 29.9077L7.50549 32.5343C9.00634 33.3973 8.93149 33.3599 10.4698 34.2606L12.4586 32.4595C13.7344 32.7972 14.1097 32.9097 15.3855 33.2477L16.2111 35.8369H19.6259L20.4514 33.2477C21.7272 32.91 22.1025 32.7974 23.3783 32.4595L25.3671 34.2606C26.868 33.3976 26.7931 33.4351 28.3314 32.5343L27.7687 29.9077L29.9077 27.7687L32.5343 28.3314C33.3973 26.8306 33.3599 26.9054 34.2606 25.3671L32.4595 23.3783C32.7972 22.1025 32.9097 21.7272 33.2477 20.4514L35.8369 19.6259ZM18.0127 28.4817C12.159 28.4817 7.43082 23.7536 7.43082 17.8997C7.43082 12.046 12.159 7.3178 18.0127 7.3178C23.8664 7.3178 28.5947 12.046 28.5947 17.8997C28.5947 23.7534 23.8664 28.4817 18.0127 28.4817Z" fill="#FFB81D"/>
</svg>
