<svg width="39" height="36" viewBox="0 0 39 36" fill="none" xmlns="http://www.w3.org/2000/svg">
<path d="M31.2413 21.6561C29.3898 21.6561 27.7073 22.3668 26.4331 23.5216C26.4323 23.5216 26.4323 23.5225 26.4323 23.5225C26.4314 23.5233 26.4314 23.5233 26.4305 23.5233C24.9842 24.8359 24.0691 26.725 24.0691 28.8283C24.0691 32.7823 27.2865 36 31.2413 36C35.1952 36 38.4129 32.7826 38.4129 28.8283C38.4129 24.8729 35.1953 21.6562 31.2413 21.6562L31.2413 21.6561ZM35.1929 26.8971L31.1781 31.8157C31.1705 31.825 31.1606 31.8273 31.153 31.8349C31.0779 31.9208 30.9911 31.9901 30.8923 32.037C30.8807 32.042 30.8705 32.0446 30.8589 32.0495C30.7546 32.0947 30.6433 32.122 30.5297 32.122C30.4429 32.122 30.3562 32.1054 30.2708 32.0778C30.244 32.0685 30.2199 32.0536 30.1939 32.0411C30.1497 32.0219 30.1037 32.0067 30.062 31.9785L27.4682 30.2214C27.0858 29.9625 26.9865 29.4432 27.2445 29.0613C27.5043 28.6781 28.0236 28.5802 28.4046 28.8377L30.367 30.1672L33.8983 25.8399C34.1889 25.4843 34.7132 25.4298 35.0732 25.7214C35.4317 26.0138 35.4841 26.5398 35.1929 26.8971L35.1929 26.8971Z" fill="#FFB81D" fill-opacity="0.58"/>
<path d="M12.3458 18.4158C10.7474 17.2668 9.70128 15.3971 9.70128 13.2835C9.70128 9.79695 12.538 6.96051 16.0242 6.96051C19.5114 6.96051 22.348 9.79725 22.348 13.2835C22.348 15.3994 21.2993 17.2709 19.6983 18.4199C21.9939 19.0143 24.104 20.1676 25.8793 21.8135C27.369 20.6727 29.2237 19.9865 31.2403 19.9865C31.3413 19.9865 31.4389 19.9982 31.5391 20.0023C31.8696 18.708 32.0476 17.3753 32.0476 16.0242C32.0476 7.18821 24.8594 0 16.0227 0C7.18672 0.000291301 0 7.18821 0 16.0242C0 19.6216 1.20576 22.9343 3.21594 25.6117C5.14254 22.0093 8.46272 19.4274 12.3457 18.4162L12.3458 18.4158Z" fill="#FFB81D"/>
<path d="M16.0252 32.0481C18.3208 32.0481 20.5238 31.5714 22.5879 30.6411C22.4658 30.0557 22.3991 29.4497 22.3991 28.8282C22.3991 26.5701 23.2569 24.5143 24.6545 22.9494C22.2838 20.7956 19.256 19.6058 16.0251 19.6058C11.009 19.6058 6.50396 22.4953 4.38574 27.0043C7.30956 30.1023 11.4397 32.0481 16.0251 32.0481L16.0252 32.0481Z" fill="#FFB81D"/>
<path d="M20.6793 13.2832C20.6793 10.717 18.5916 8.63025 16.0255 8.63025C13.4593 8.63025 11.3726 10.7179 11.3726 13.2832C11.3726 15.8484 13.4602 17.9361 16.0255 17.9361C18.5916 17.9361 20.6793 15.8484 20.6793 13.2832Z" fill="#FFB81D"/>
</svg>
