<svg width="33" height="40" viewBox="0 0 33 40" fill="none" xmlns="http://www.w3.org/2000/svg">
<path d="M31.9343 30.1303H31.934L31.5175 30.132C31.4683 30.1323 31.4153 30.1389 31.362 30.1513C31.1823 30.1928 30.9922 30.1597 30.8369 30.0595C30.6814 29.9592 30.5728 29.7994 30.5357 29.6168C30.3441 28.6758 29.9694 27.7976 29.4233 27.0068C29.2116 26.7009 29.2793 26.2815 29.5765 26.0586C29.6071 26.0356 29.6376 26.012 29.6653 25.9835L29.9602 25.6825C30.2462 25.391 30.2494 24.9201 29.9662 24.6333C29.8335 24.4982 29.6563 24.4236 29.468 24.4236H29.4674C29.2756 24.4239 29.0938 24.5011 28.9564 24.641L28.6615 24.942C28.6304 24.9734 28.6048 25.0071 28.5812 25.0414C28.3657 25.3516 27.9423 25.4296 27.6318 25.2165C27.2499 24.9541 26.8464 24.7361 26.4253 24.5584C26.3787 24.5388 26.3309 24.5212 26.2836 24.5025C26.1028 24.4308 25.9196 24.3642 25.7324 24.3084C25.7038 24.3 25.6756 24.2931 25.6471 24.285C25.4377 24.2254 25.2254 24.173 25.0092 24.133C24.6632 24.069 24.421 23.7531 24.4481 23.3997C24.4498 23.3804 24.4515 23.3616 24.4515 23.3415L24.4524 22.9224C24.4527 22.7234 24.3769 22.5373 24.2393 22.3988C24.1091 22.268 23.9374 22.1963 23.7551 22.1934C23.7514 22.1934 23.7479 22.1926 23.7445 22.1926H23.7413C23.4423 22.1937 23.1848 22.3824 23.0742 22.6494C23.0374 22.7384 23.0169 22.836 23.0169 22.9385L23.0161 23.3628L23.0184 23.4074C23.0423 23.7559 22.8044 24.0788 22.4636 24.1442C21.4895 24.332 20.5817 24.7214 19.7651 25.3011C19.5604 25.4472 19.2986 25.465 19.0808 25.3636C19.0748 25.3608 19.0693 25.3564 19.063 25.3533C19.0333 25.3383 19.0036 25.3227 18.976 25.3029C18.9429 25.2792 18.9112 25.2528 18.8815 25.2228L18.6174 24.9547C18.4846 24.8196 18.3075 24.745 18.1194 24.745H18.1188C17.9264 24.7453 17.745 24.8224 17.6076 24.9624C17.3222 25.2536 17.3196 25.7248 17.6021 26.0119L17.876 26.2899C18.1064 26.5238 18.141 26.8884 17.9587 27.1614C17.3844 28.0217 17.0094 28.9786 16.8435 30.0045C16.7896 30.3377 16.5042 30.5828 16.1687 30.5843L15.8852 30.5851C15.4875 30.5871 15.1623 30.9221 15.1614 31.3317C15.1609 31.5307 15.2366 31.7168 15.3743 31.8553C15.5079 31.9892 15.6773 32.0656 15.8726 32.0621L16.2185 32.0604H16.2216C16.5474 32.0604 16.8285 32.2911 16.8942 32.6125C16.9388 32.8311 16.9973 33.0448 17.0612 33.2559C17.0817 33.3231 17.1024 33.3899 17.1249 33.4558C17.1839 33.6324 17.2496 33.8061 17.3222 33.9769C17.3573 34.0592 17.3956 34.1399 17.4339 34.2208C17.6269 34.6304 17.8536 35.0244 18.1255 35.3945C18.3268 35.6681 18.2997 36.0483 18.0621 36.2905L17.8466 36.5103C17.5612 36.8014 17.5586 37.2721 17.8412 37.5593C17.974 37.6946 18.1511 37.7689 18.3392 37.7689H18.3397C18.5316 37.7689 18.713 37.6917 18.8504 37.5518L19.1456 37.2505C19.3723 37.0192 19.7317 36.976 20.0036 37.1483C20.8455 37.6831 21.7724 38.0204 22.7591 38.1509C23.101 38.1961 23.3562 38.4893 23.3562 38.8361C23.3562 38.8453 23.3559 38.8557 23.3556 38.866L23.3548 39.2696C23.3545 39.4689 23.4299 39.6546 23.5679 39.7932C23.7004 39.9268 23.8766 40 24.063 40H24.0659C24.4642 39.9983 24.7891 39.6636 24.79 39.2543L24.7911 38.8292C24.7911 38.8039 24.7894 38.7762 24.7865 38.7491C24.754 38.4073 24.9754 38.093 25.3069 38.0115C26.2479 37.7805 27.1169 37.3606 27.8902 36.7638C28.1857 36.5357 28.61 36.5867 28.8436 36.8799C28.8597 36.9006 28.8767 36.9202 28.8954 36.9395L29.1889 37.2373C29.3223 37.3727 29.4991 37.447 29.6872 37.447H29.6877C29.8796 37.447 30.0613 37.3698 30.199 37.2295C30.4844 36.9383 30.487 36.4677 30.2047 36.1805L29.9107 35.8819C29.8793 35.8502 29.8433 35.8202 29.805 35.7937C29.4988 35.5861 29.4107 35.1719 29.6059 34.8559C30.116 34.0308 30.4493 33.1281 30.5959 32.173C30.6238 31.9907 30.7238 31.8271 30.8721 31.7191C31.0207 31.6111 31.2065 31.5667 31.3874 31.5978C31.4257 31.6042 31.4672 31.605 31.5055 31.609L31.9219 31.607C32.3206 31.6053 32.6454 31.2703 32.6466 30.8608C32.6472 30.6615 32.5714 30.4757 32.4337 30.3372C32.2998 30.2032 32.1235 30.1416 31.9343 30.1304L31.9343 30.1303ZM23.8974 35.4503H23.8769C22.6903 35.4503 21.5805 34.9918 20.7505 34.1577C19.938 33.3415 19.4919 32.2593 19.4947 31.1113C19.5005 28.7133 21.481 26.7533 23.9092 26.7426C25.1057 26.7533 26.2206 27.1963 27.0556 28.0347C27.8681 28.8509 28.3145 29.933 28.3119 31.0813C28.3064 33.4793 26.3257 35.4396 23.8974 35.4503H23.8974Z" fill="#FFB81D" fill-opacity="0.58"/>
<path d="M23.9298 28.1248H23.9148C22.2377 28.1323 20.8708 29.4739 20.8667 31.1156C20.8647 31.8929 21.1677 32.6265 21.7192 33.1807C22.2901 33.7541 23.0556 34.0695 23.8762 34.0695H23.8903C25.5672 34.0621 26.9344 32.7202 26.9387 31.0785C26.9405 30.3011 26.6375 29.5676 26.0856 29.0134C25.5151 28.4399 24.7501 28.1248 23.9298 28.1248H23.9298Z" fill="#FFB81D" fill-opacity="0.58"/>
<path d="M15.6776 33.4358C15.4625 33.4162 15.2557 33.3583 15.0601 33.2748C15.037 33.265 15.0126 33.2595 14.9901 33.2489C14.9576 33.2333 14.9282 33.2114 14.8962 33.1944C14.7182 33.0985 14.55 32.9819 14.4034 32.8341C14.0048 32.4338 13.7859 31.8995 13.7876 31.3292C13.7902 30.2598 14.5791 29.3698 15.5967 29.225C15.787 28.3946 16.0967 27.606 16.5215 26.8698C15.819 26.0418 15.8556 24.7828 16.6301 23.9928C17.0275 23.5875 17.5555 23.3646 18.1174 23.364H18.1192C18.6134 23.364 19.0812 23.5368 19.4547 23.8548C20.1393 23.4349 20.8723 23.1209 21.6439 22.9162C21.6514 22.2834 21.9348 21.7166 22.3766 21.3303C22.7424 21.0104 23.2165 20.8139 23.7346 20.8116C24.2724 20.7958 24.7929 21.0178 25.1839 21.3995C25.192 21.4072 25.2006 21.4139 25.2087 21.4219L25.209 21.4222L25.2093 21.4225C25.6016 21.8165 25.8196 22.3401 25.8248 22.9C25.8709 22.9119 25.9158 22.9277 25.9616 22.9404C26.0512 22.9654 26.1413 22.9893 26.2306 23.0178C26.4964 21.8108 26.6261 20.5265 26.6261 19.1166L26.6263 4.0441L26.1128 3.97613C22.6214 3.49917 19.2648 2.55102 16.1338 1.15783L13.5122 0L11.5038 0.922844C8.40071 2.34508 5.12106 3.32581 1.75485 3.83729L0.387024 4.05129V19.1371C0.387024 27.4505 4.77732 31.3104 13.4238 35.918C13.4745 35.9465 13.5387 35.9454 13.5793 35.9235C14.4995 35.4333 15.3175 34.9802 16.0669 34.5467C16.0663 34.5456 16.0661 34.5441 16.0652 34.5424C15.9114 34.1841 15.78 33.8154 15.6769 33.4358L15.6776 33.4358ZM11.2133 23.4132C11.0808 23.546 10.9057 23.6146 10.7288 23.6146C10.5972 23.6146 10.465 23.5768 10.3492 23.4991L5.96182 20.5656C5.64615 20.3542 5.56032 19.9256 5.76999 19.608C5.97968 19.2903 6.40479 19.2036 6.72159 19.4147L10.6415 22.036L20.187 12.4603C20.4555 12.1915 20.8898 12.1918 21.1579 12.462C21.4252 12.7324 21.4247 13.1697 21.1562 13.439L11.2133 23.4132Z" fill="#FFB81D"/>
</svg>
