<svg width="26" height="27" viewBox="0 0 26 27" fill="none" xmlns="http://www.w3.org/2000/svg">
<path d="M7.42902 2.39286C7.42902 3.16203 6.80534 3.78571 6.03617 3.78571C5.26699 3.78571 4.64331 3.16203 4.64331 2.39286C4.64331 1.62368 5.26699 1 6.03617 1C6.80534 1 7.42902 1.62368 7.42902 2.39286Z" fill="#FFB81D"/>
<path d="M13.5123 3.35704H14.1248L14.0021 2.75694C13.953 2.51664 13.953 2.26884 14.0021 2.02857L14.1248 1.42847H13.5123H8.31226H7.69976L7.82238 2.02857C7.87148 2.26886 7.87148 2.51667 7.82238 2.75693L7.69975 3.35704H8.31226H13.5123Z" fill="#FFB81D" stroke="#FFB81D"/>
<path d="M24.1428 23.2856H1.85712C1.19364 23.2856 0.580516 23.6397 0.248724 24.2142C-0.0829082 24.7888 -0.0829082 25.4968 0.248724 26.0714C0.580564 26.6459 1.19369 26.9999 1.85712 26.9999H24.1428C24.8063 26.9999 25.4194 26.6459 25.7512 26.0714C26.0829 25.4968 26.0829 24.7888 25.7512 24.2142C25.4194 23.6397 24.8063 23.2856 24.1428 23.2856ZM2.3214 26.5356C1.95205 26.5356 1.59759 26.3889 1.33648 26.1277C1.07537 25.8666 0.928571 25.5121 0.928571 25.1428C0.928571 24.7735 1.07532 24.419 1.33648 24.1579C1.59764 23.8968 1.9521 23.75 2.3214 23.75C2.69071 23.75 3.04521 23.8967 3.30632 24.1579C3.56744 24.4191 3.71423 24.7735 3.71423 25.1428C3.71423 25.5121 3.56749 25.8666 3.30632 26.1277C3.04516 26.3889 2.69071 26.5356 2.3214 26.5356ZM5.5714 25.6071H4.17854V24.6785H5.5714V25.6071ZM7.42854 26.5356C7.05919 26.5356 6.70474 26.3889 6.44362 26.1277C6.18251 25.8666 6.03571 25.5121 6.03571 25.1428C6.03571 24.7735 6.18246 24.419 6.44362 24.1579C6.70478 23.8968 7.05924 23.75 7.42854 23.75C7.79785 23.75 8.15235 23.8967 8.41347 24.1579C8.67458 24.4191 8.82137 24.7735 8.82137 25.1428C8.82137 25.5121 8.67463 25.8666 8.41347 26.1277C8.15231 26.3889 7.79785 26.5356 7.42854 26.5356ZM11.1428 25.6071H9.28569V24.6785H11.1428V25.6071ZM13 26.5356C12.6306 26.5356 12.2762 26.3889 12.015 26.1277C11.7539 25.8666 11.6071 25.5121 11.6071 25.1428C11.6071 24.7735 11.7539 24.419 12.015 24.1579C12.2762 23.8968 12.6307 23.75 13 23.75C13.3693 23.75 13.7238 23.8967 13.9849 24.1579C14.246 24.4191 14.3928 24.7735 14.3928 25.1428C14.3928 25.5121 14.2461 25.8666 13.9849 26.1277C13.7237 26.3889 13.3693 26.5356 13 26.5356ZM16.7143 25.6071H14.8571V24.6785H16.7143V25.6071ZM18.5714 26.5356C18.202 26.5356 17.8476 26.3889 17.5865 26.1277C17.3254 25.8666 17.1786 25.5121 17.1786 25.1428C17.1786 24.7735 17.3253 24.419 17.5865 24.1579C17.8476 23.8968 18.2021 23.75 18.5714 23.75C18.9407 23.75 19.2952 23.8967 19.5563 24.1579C19.8174 24.4191 19.9642 24.7735 19.9642 25.1428C19.9642 25.5121 19.8175 25.8666 19.5563 26.1277C19.2952 26.3889 18.9407 26.5356 18.5714 26.5356ZM21.8214 25.6071H20.4285V24.6785H21.8214V25.6071ZM23.6785 26.5356C23.3092 26.5356 22.9547 26.3889 22.6936 26.1277C22.4325 25.8666 22.2857 25.5121 22.2857 25.1428C22.2857 24.7735 22.4325 24.419 22.6936 24.1579C22.9548 23.8968 23.3092 23.75 23.6785 23.75C24.0478 23.75 24.4024 23.8967 24.6635 24.1579C24.9246 24.4191 25.0714 24.7735 25.0714 25.1428C25.0714 25.5121 24.9246 25.8666 24.6635 26.1277C24.4023 26.3889 24.0478 26.5356 23.6785 26.5356Z" fill="#FFB81D"/>
<path d="M17.179 2.39286C17.179 3.16203 16.5553 3.78571 15.7862 3.78571C15.017 3.78571 14.3933 3.16203 14.3933 2.39286C14.3933 1.62368 15.017 1 15.7862 1C16.5553 1 17.179 1.62368 17.179 2.39286Z" fill="#FFB81D"/>
<path d="M2.78662 16.7856V22.3571H9.28662V16.7856H7.42948V19.5714C7.43031 19.7326 7.3474 19.8829 7.21039 19.9681C7.07339 20.0533 6.90198 20.0613 6.75772 19.9892L6.03662 19.6261L5.31551 19.9867V19.9869C5.17167 20.0589 5.00067 20.0512 4.86387 19.9664C4.72687 19.8818 4.64375 19.7322 4.64375 19.5714V16.7856L2.78662 16.7856Z" fill="#FFB81D" fill-opacity="0.58"/>
<path d="M2.78526 25.1428C2.78526 25.3991 2.57737 25.607 2.32098 25.607C2.06458 25.607 1.85669 25.3991 1.85669 25.1428C1.85669 24.8864 2.06458 24.6785 2.32098 24.6785C2.57737 24.6785 2.78526 24.8864 2.78526 25.1428Z" fill="#FFB81D"/>
<path d="M6.24183 18.6917L6.49864 18.8203V16.7859H5.57007V18.8205L5.82687 18.692V18.6918C5.95745 18.6265 6.11125 18.6265 6.24183 18.6918L6.24183 18.6917Z" fill="#FFB81D" fill-opacity="0.58"/>
<path d="M7.89195 25.1428C7.89195 25.3991 7.68406 25.607 7.42766 25.607C7.17127 25.607 6.96338 25.3991 6.96338 25.1428C6.96338 24.8864 7.17127 24.6785 7.42766 24.6785C7.68406 24.6785 7.89195 24.8864 7.89195 25.1428Z" fill="#FFB81D"/>
<path d="M19.0353 25.1428C19.0353 25.3991 18.8274 25.607 18.571 25.607C18.3146 25.607 18.1067 25.3991 18.1067 25.1428C18.1067 24.8864 18.3146 24.6785 18.571 24.6785C18.8274 24.6785 19.0353 24.8864 19.0353 25.1428Z" fill="#FFB81D"/>
<path d="M13.4652 25.1428C13.4652 25.3991 13.2573 25.607 13.0009 25.607C12.7445 25.607 12.5366 25.3991 12.5366 25.1428C12.5366 24.8864 12.7445 24.6785 13.0009 24.6785C13.2573 24.6785 13.4652 24.8864 13.4652 25.1428Z" fill="#FFB81D"/>
<path d="M24.142 25.1428C24.142 25.3991 23.9341 25.607 23.6777 25.607C23.4213 25.607 23.2134 25.3991 23.2134 25.1428C23.2134 24.8864 23.4213 24.6785 23.6777 24.6785C23.9341 24.6785 24.142 24.8864 24.142 25.1428Z" fill="#FFB81D"/>
<path d="M6.96383 9.35704C6.96383 9.86983 6.54805 10.2856 6.03526 10.2856C5.52247 10.2856 5.10669 9.86983 5.10669 9.35704C5.10669 8.84425 5.52247 8.42847 6.03526 8.42847C6.54805 8.42847 6.96383 8.84425 6.96383 9.35704Z" fill="#FFB81D" fill-opacity="0.58"/>
<path d="M23.6781 8.42847C23.0625 8.42847 22.472 8.67305 22.0365 9.10829C21.6012 9.54376 21.3567 10.1343 21.3567 10.7499C21.3567 11.3655 21.6013 11.956 22.0365 12.3915C22.472 12.8268 23.0625 13.0713 23.6781 13.0713C24.2937 13.0713 24.8842 12.8267 25.3197 12.3915C25.755 11.956 25.9995 11.3655 25.9995 10.7499C25.9987 10.1345 25.7539 9.5444 25.3189 9.10914C24.8836 8.67408 24.2935 8.42932 23.6781 8.42847ZM23.6781 12.1428C23.3088 12.1428 22.9543 11.996 22.6932 11.7348C22.4321 11.4737 22.2853 11.1192 22.2853 10.7499C22.2853 10.3806 22.432 10.0261 22.6932 9.765C22.9544 9.50389 23.3088 9.35709 23.6781 9.35709C24.0474 9.35709 24.4019 9.50384 24.663 9.765C24.9242 10.0262 25.0709 10.3806 25.0709 10.7499C25.0709 11.1192 24.9242 11.4737 24.663 11.7348C24.4019 11.996 24.0474 12.1428 23.6781 12.1428Z" fill="#FFB81D"/>
<path d="M16.7482 3.9302L16.2122 4.26263L16.6581 4.70865L20.8981 8.94898L21.2737 9.32462L21.6259 8.92699C21.8016 8.72865 22.005 8.55649 22.2299 8.41549L22.7616 8.0821L22.3178 7.63832L18.0422 3.36276L17.622 2.94253L17.2799 3.42845C17.1379 3.62999 16.9572 3.80055 16.7482 3.9302Z" fill="#FFB81D" stroke="#FFB81D"/>
<path d="M19.5014 19.1071C19.5014 18.984 19.4524 18.8658 19.3654 18.7788C19.2783 18.6917 19.1602 18.6428 19.0371 18.6428H14.3942C14.1378 18.6428 13.9299 18.8507 13.9299 19.1071V22.3571H19.5014V19.1071ZM16.7156 21.8928C16.3463 21.8928 15.9918 21.7461 15.7307 21.4849C15.4696 21.2238 15.3228 20.8693 15.3228 20.5C15.3228 20.1307 15.4696 19.7762 15.7307 19.5151C15.9919 19.254 16.3463 19.1072 16.7156 19.1072C17.085 19.1072 17.4395 19.2539 17.7006 19.5151C17.9617 19.7762 18.1085 20.1307 18.1085 20.5C18.1085 20.8693 17.9617 21.2238 17.7006 21.4849C17.4394 21.746 17.085 21.8928 16.7156 21.8928Z" fill="#FFB81D"/>
<path d="M24.142 10.7499C24.142 11.0063 23.9341 11.2142 23.6777 11.2142C23.4213 11.2142 23.2134 11.0063 23.2134 10.7499C23.2134 10.4935 23.4213 10.2856 23.6777 10.2856C23.9341 10.2856 24.142 10.4935 24.142 10.7499Z" fill="#FFB81D"/>
<path d="M6.49864 7.56577V4.66772C6.1923 4.73032 5.87639 4.73032 5.57007 4.66772V7.56619C5.8733 7.47831 6.19539 7.47831 6.49864 7.56619V7.56577Z" fill="#FFB81D"/>
<path d="M20.8254 12.5008L15.6842 17.6435L15.5135 17.8142H15.7549H18.3789H18.4203L18.4496 17.7849L22.4425 13.792L22.3894 13.7389L22.4124 13.6298C21.8749 13.3924 21.4145 13.0102 21.0822 12.5268L21.1948 12.4142H20.9535H20.9534H20.7691L20.8254 12.5008Z" fill="#FFB81D" stroke="#FFB81D" stroke-width="0.2"/>
<path d="M17.1786 20.4999C17.1786 20.7563 16.9707 20.9642 16.7143 20.9642C16.4579 20.9642 16.25 20.7563 16.25 20.4999C16.25 20.2435 16.4579 20.0356 16.7143 20.0356C16.9707 20.0356 17.1786 20.2435 17.1786 20.4999Z" fill="#FFB81D"/>
<path d="M11.0404 11.3884L9.18322 9.06693C9.09513 8.95687 8.96165 8.89282 8.82071 8.89282H7.82666C7.91392 9.19627 7.91392 9.51794 7.82666 9.82139H8.59791L10.1035 11.7036L8.43209 14.2066C8.2899 14.4199 8.34731 14.7082 8.5608 14.8506C8.77408 14.9928 9.0624 14.9352 9.2046 14.7219L11.0617 11.9362C11.1749 11.7685 11.1662 11.547 11.0404 11.3884L11.0404 11.3884Z" fill="#FFB81D" fill-opacity="0.58"/>
<path d="M4.24554 8.89288H3.25149C3.11055 8.89288 2.97706 8.95692 2.88898 9.06698L1.03183 11.3884C0.905398 11.5464 0.895656 11.7679 1.008 11.9362L2.86514 14.7219C3.00753 14.9352 3.29585 14.9928 3.50914 14.8506C3.72242 14.7082 3.78005 14.4199 3.63786 14.2066L1.96643 11.7036L3.47432 9.82139H4.24557C4.15831 9.51795 4.15831 9.19628 4.24557 8.89282L4.24554 8.89288Z" fill="#FFB81D" fill-opacity="0.58"/>
</svg>
