<svg width="27" height="26" viewBox="0 0 27 26" fill="none" xmlns="http://www.w3.org/2000/svg">
<path d="M24.1155 0H2.88454C1.26909 0 0 1.30771 0 2.88454V18.1538C0 19.7692 1.30771 21.0383 2.88454 21.0383H11.3074C11.4612 21.0383 11.5767 21.1537 11.5767 21.3076V22.6922C11.5767 22.8075 11.4998 22.9231 11.3458 22.9231C9.61508 23.1923 8.38422 23.7307 8.38422 24.3846C8.38422 25.2693 10.6535 26 13.4999 26C16.346 26 18.6155 25.2693 18.6155 24.3846C18.6155 23.7307 17.4233 23.1924 15.6539 22.9231C15.5385 22.9231 15.423 22.8077 15.423 22.6922V21.3076C15.423 21.1539 15.5383 21.0383 15.6923 21.0383H24.1152C25.7306 21.0383 26.9997 19.7306 26.9997 18.1538L27.0001 2.88503C27.0001 1.30801 25.6924 0.000296728 24.1156 0.000296728L24.1155 0ZM25.154 18.1537C25.154 18.7307 24.6925 19.1922 24.1155 19.1922H2.88454C2.30755 19.1922 1.84608 18.7307 1.84608 18.1537V2.88444C1.84608 2.30745 2.30774 1.84598 2.88454 1.84598H24.115C24.692 1.84598 25.1535 2.30745 25.1535 2.88444L25.154 18.1537Z" fill="#FFB81D"/>
<path d="M5.3077 5.5769H5.19238V5.65378C5.23082 5.61535 5.26926 5.61534 5.3077 5.5769Z" fill="#FFB81D"/>
<path d="M11.9226 13.5C10.8073 13.2692 9.96105 12.4231 9.69199 11.3462C9.69199 11.3078 9.65355 11.2693 9.61511 11.2309L8.38425 10.577C8.34581 10.5386 8.26893 10.5386 8.23049 10.577C7.99965 10.6923 7.76902 10.7694 7.49976 10.8463C7.30737 10.8847 7.11517 10.8847 6.92277 10.8847C6.42288 10.8847 5.92274 10.731 5.49974 10.5001C5.38442 10.4233 5.23047 10.5001 5.23047 10.6539V17.2308C5.23047 17.3845 5.34579 17.5001 5.49974 17.5001H12.4614C12.6151 17.5001 12.7306 17.3847 12.7306 17.2308V13.7693C12.7306 13.6539 12.6537 13.5769 12.5382 13.5769C12.3076 13.5386 12.0383 13.5386 11.9228 13.5L11.9226 13.5Z" fill="#FFB81D" fill-opacity="0.58"/>
<path d="M20.1167 8.80762H20.0399C19.7706 8.80762 19.5013 8.76918 19.2707 8.6923C19.1553 8.65386 19.0014 8.65386 18.9245 8.73074L15.5399 10.9614C15.463 11.0383 15.3861 11.1152 15.3475 11.2307C15.2706 11.6537 15.0782 12.0383 14.8089 12.4229C14.732 12.4997 14.6936 12.5766 14.6165 12.6537C14.5397 12.7306 14.5012 12.8075 14.5012 12.923V17.2692C14.5012 17.423 14.6165 17.5385 14.7705 17.5385H21.5397C21.6935 17.5385 21.809 17.4232 21.809 17.2692V8.6154C21.809 8.46164 21.6553 8.38457 21.5013 8.46164C21.0783 8.69247 20.6168 8.80779 20.1167 8.80779L20.1167 8.80762Z" fill="#FFB81D" fill-opacity="0.58"/>
<path d="M20.1545 4.23091C19.5006 4.19247 18.8852 4.57707 18.5775 5.15405C18.3851 5.5002 18.3467 5.88478 18.4237 6.23093C18.4237 6.30781 18.4237 6.38469 18.3469 6.42332L13.8085 9.42337C13.7316 9.46181 13.6547 9.46181 13.5776 9.42337C13.4623 9.30806 13.3084 9.23098 13.1162 9.1541C12.4623 8.88483 11.77 9.03878 11.2701 9.50026C11.2316 9.53869 11.1163 9.57714 11.0777 9.53869L8.65462 8.30783C8.57774 8.26939 8.5393 8.19251 8.57774 8.15407C8.57774 7.76948 8.46242 7.34644 8.19315 7.00029C7.80856 6.5004 7.1547 6.30799 6.53929 6.4233C5.30842 6.69258 4.80853 8.11564 5.57773 9.1541C5.96231 9.65399 6.61618 9.88483 7.23159 9.76951C7.57774 9.69263 7.847 9.53867 8.07764 9.34648C8.11608 9.30804 8.2314 9.2696 8.27003 9.30804L10.6931 10.5773C10.77 10.6158 10.77 10.6542 10.77 10.7311C10.77 11.5003 11.2699 12.2694 12.1162 12.4234C12.7316 12.5387 13.4239 12.3081 13.8085 11.808C14.0778 11.4619 14.1931 11.0388 14.1546 10.6542C14.1546 10.5774 14.1931 10.5389 14.2315 10.5005L18.8853 7.42353C18.9621 7.38509 19.039 7.38509 19.0776 7.42353C19.3469 7.61593 19.6546 7.73125 20.0392 7.73125C20.6931 7.76969 21.3085 7.3851 21.5776 6.80811C22.1545 5.57704 21.4238 4.26933 20.1545 4.23091L20.1545 4.23091ZM7.1931 8.57695C6.88539 8.73071 6.5008 8.57695 6.34706 8.26924C6.1933 7.96152 6.34706 7.57693 6.65477 7.42319C6.96249 7.26945 7.34708 7.42319 7.50082 7.73091C7.65458 8.03862 7.50082 8.42321 7.1931 8.57695ZM13.0777 10.9231C12.9239 11.2693 12.5778 11.423 12.2316 11.2693C11.8855 11.1155 11.7318 10.7694 11.8855 10.4232C12.0393 10.0771 12.3854 9.92334 12.7315 10.0771C13.0777 10.1924 13.2314 10.577 13.0777 10.9231ZM20.7316 6.07699C20.6547 6.42314 20.2701 6.61556 19.924 6.53846C19.5778 6.46158 19.3854 6.07699 19.4625 5.73084C19.5394 5.38469 19.924 5.19228 20.2701 5.26937C20.6163 5.38469 20.8085 5.73084 20.7316 6.07699Z" fill="#FFB81D" fill-opacity="0.58"/>
</svg>
