<svg width="33" height="32" viewBox="0 0 33 32" fill="none" xmlns="http://www.w3.org/2000/svg">
<path d="M31.7522 28.1304H0.496098C0.198488 28.1304 0 28.3289 0 28.6265V31.5039C0 31.8015 0.198482 32 0.496098 32H31.7522C32.0498 32 32.2483 31.8015 32.2483 31.5039V28.6265C32.2483 28.3784 32.0498 28.1304 31.7522 28.1304Z" fill="#FFB81D"/>
<path d="M11.9062 21.2344H14.387V24.1118H11.9062V21.2344Z" fill="#FFB81D" fill-opacity="0.58"/>
<path d="M11.9062 15.2803H14.387V18.1577H11.9062V15.2803Z" fill="#FFB81D" fill-opacity="0.58"/>
<path d="M17.8594 21.2344H20.3401V24.1118H17.8594V21.2344Z" fill="#FFB81D" fill-opacity="0.58"/>
<path d="M11.9062 9.37695H14.387V12.2544H11.9062V9.37695Z" fill="#FFB81D" fill-opacity="0.58"/>
<path d="M11.9062 3.47266H14.387V6.35011H11.9062V3.47266Z" fill="#FFB81D" fill-opacity="0.58"/>
<path d="M17.8594 15.2803H20.3401V18.1577H17.8594V15.2803Z" fill="#FFB81D" fill-opacity="0.58"/>
<path d="M17.8594 3.47266H20.3401V6.35011H17.8594V3.47266Z" fill="#FFB81D" fill-opacity="0.58"/>
<path d="M17.8594 9.37695H20.3401V12.2544H17.8594V9.37695Z" fill="#FFB81D" fill-opacity="0.58"/>
<path d="M23.7653 0.496326C23.7653 0.198717 23.5173 0.000228378 23.2692 0.000228378L8.98047 0C8.68286 0 8.48438 0.198482 8.48438 0.496098V27.1382H23.7648L23.7653 0.496326ZM15.3811 24.5581C15.3811 24.8061 15.133 25.0542 14.885 25.0542H11.412C11.1144 25.0542 10.9159 24.8061 10.9159 24.5581V20.6882C10.9159 20.3905 11.1144 20.1921 11.412 20.1921H14.885C15.133 20.1921 15.3811 20.3905 15.3811 20.6882V24.5581ZM15.3811 18.6542C15.3811 18.9518 15.133 19.1503 14.885 19.1503H11.412C11.1144 19.1503 10.9159 18.9518 10.9159 18.6542V14.7843C10.9159 14.4867 11.1144 14.2882 11.412 14.2882H14.885C15.133 14.2882 15.3811 14.4866 15.3811 14.7843V18.6542ZM15.3811 12.7503C15.3811 12.9983 15.133 13.2464 14.885 13.2464H11.412C11.1144 13.2464 10.9159 12.9983 10.9159 12.7503V8.88036C10.9159 8.58275 11.1144 8.38426 11.412 8.38426H14.885C15.133 8.38426 15.3811 8.58275 15.3811 8.88036V12.7503ZM15.3811 6.79666C15.3811 7.09427 15.133 7.29276 14.885 7.29276H11.412C11.1144 7.29276 10.9159 7.09428 10.9159 6.79666V2.97635C10.9159 2.7283 11.1144 2.48025 11.412 2.48025H14.885C15.133 2.48025 15.3811 2.7283 15.3811 2.97635V6.79666ZM21.3347 24.5575C21.3347 24.8055 21.0866 25.0536 20.8386 25.0536H17.3656C17.068 25.0536 16.8695 24.8055 16.8695 24.5575V20.6876C16.8695 20.39 17.068 20.1915 17.3656 20.1915H20.8386C21.0866 20.1915 21.3347 20.39 21.3347 20.6876V24.5575ZM21.3347 18.6536C21.3347 18.9512 21.0866 19.1497 20.8386 19.1497H17.3656C17.068 19.1497 16.8695 18.9512 16.8695 18.6536V14.7837C16.8695 14.4861 17.068 14.2876 17.3656 14.2876H20.8386C21.0866 14.2876 21.3347 14.4861 21.3347 14.7837V18.6536ZM21.3347 12.7497C21.3347 12.9977 21.0866 13.2458 20.8386 13.2458H17.3656C17.068 13.2458 16.8695 12.9977 16.8695 12.7497V8.87978C16.8695 8.58217 17.068 8.38368 17.3656 8.38368H20.8386C21.0866 8.38368 21.3347 8.58216 21.3347 8.87978V12.7497ZM21.3347 6.79608C21.3347 7.09369 21.0866 7.29218 20.8386 7.29218H17.3656C17.068 7.29218 16.8695 7.09369 16.8695 6.79608V2.97576C16.8695 2.72772 17.068 2.47967 17.3656 2.47967H20.8386C21.0866 2.47967 21.3347 2.72772 21.3347 2.97576V6.79608Z" fill="#FFB81D" fill-opacity="0.58"/>
<path d="M31.1573 10.6174C31.1573 10.4685 31.1077 10.3198 30.9588 10.2204L25.7495 5.80486C25.6006 5.65593 25.4023 5.65593 25.2039 5.75529C25.0054 5.85442 24.9062 6.00334 24.9062 6.20182V27.1382H31.1078L31.1075 10.617L31.1573 10.6174ZM28.8255 25.0547H27.2874C27.0393 25.0547 26.7913 24.8066 26.7913 24.5586C26.7913 24.2609 27.0393 24.0625 27.2874 24.0625H28.8255C29.0735 24.0625 29.3216 24.2609 29.3216 24.5586C29.3216 24.8562 29.1233 25.0547 28.8255 25.0547ZM28.8255 21.1352H27.2874C27.0393 21.1352 26.7913 20.8872 26.7913 20.6391C26.7913 20.3911 27.0393 20.143 27.2874 20.143H28.8255C29.0735 20.143 29.3216 20.3911 29.3216 20.6391C29.3216 20.8872 29.1233 21.1352 28.8255 21.1352ZM28.8255 17.1662H27.2874C27.0393 17.1662 26.7913 16.9677 26.7913 16.6701C26.7913 16.3725 27.0393 16.174 27.2874 16.174H28.8255C29.0735 16.174 29.3216 16.3725 29.3216 16.6701C29.3216 16.9182 29.1233 17.1662 28.8255 17.1662ZM28.8255 13.1972H27.2874C27.0393 13.1972 26.7913 12.9987 26.7913 12.7011C26.7913 12.4035 27.0393 12.205 27.2874 12.205H28.8255C29.0735 12.205 29.3216 12.4035 29.3216 12.7011C29.3216 12.9987 29.1233 13.1972 28.8255 13.1972Z" fill="#FFB81D"/>
<path d="M7.29543 6.20174C7.29543 6.00325 7.1963 5.85456 6.99782 5.7552C6.79933 5.65608 6.60085 5.70564 6.45216 5.80477L1.24267 10.2203C1.14354 10.3195 1.09375 10.4684 1.09375 10.6173V27.1876H7.29527L7.29543 6.20174ZM4.96363 25.0548H3.42576C3.12815 25.0548 2.92966 24.8067 2.92966 24.5587C2.92966 24.2611 3.12815 24.0626 3.42576 24.0626H4.96386C5.26147 24.0626 5.45996 24.2611 5.45996 24.5587C5.45973 24.8563 5.26148 25.0548 4.96363 25.0548H4.96363ZM4.96363 21.1354H3.42576C3.12815 21.1354 2.92966 20.8873 2.92966 20.6393C2.92966 20.3912 3.12815 20.1432 3.42576 20.1432H4.96386C5.26147 20.1432 5.45996 20.3912 5.45996 20.6393C5.45973 20.8873 5.26148 21.1354 4.96363 21.1354H4.96363ZM4.96363 17.1664H3.42576C3.12815 17.1664 2.92966 16.9679 2.92966 16.6703C2.92966 16.3727 3.12815 16.1742 3.42576 16.1742H4.96386C5.26147 16.1742 5.45996 16.3727 5.45996 16.6703C5.45973 16.9183 5.26148 17.1664 4.96363 17.1664H4.96363ZM4.96363 13.1974H3.42576C3.12815 13.1974 2.92966 12.9989 2.92966 12.7013C2.92966 12.4036 3.12815 12.2052 3.42576 12.2052H4.96386C5.26147 12.2052 5.45996 12.4036 5.45996 12.7013C5.45973 12.9989 5.26148 13.1974 4.96363 13.1974H4.96363Z" fill="#FFB81D"/>
</svg>
