<svg width="97" height="34" viewBox="0 0 97 34" fill="none" xmlns="http://www.w3.org/2000/svg">
<path d="M15.0471 1.4035C11.4563 0.957774 4.19979 3.63212 1.02039 5.02502C-1.89717 21.0711 9.1559 30.4685 15.0471 33.1614C28.5128 28.0356 30.009 12.6395 29.0739 5.58219C24.0242 2.51783 19.5357 1.96066 15.0471 1.4035Z" fill="#61BE7D"/>
<path d="M29.0774 5.5825C24.0277 2.51814 19.5392 1.96096 15.0506 1.40381V33.1617C28.5163 28.0359 30.0125 12.6398 29.0774 5.5825Z" fill="#56AA6F"/>
<path d="M17.853 31.7688L7.75375 21.74L13.0839 11.4326H21.7805L28.5133 16.1684C26.7179 25.9744 20.6583 30.6545 17.853 31.7688Z" fill="#4C9964"/>
<path fill-rule="evenodd" clip-rule="evenodd" d="M15.053 9.8661C15.9824 9.8661 16.7535 10.544 16.8987 11.4324H13.2074C13.3526 10.544 14.1236 9.8661 15.053 9.8661ZM10.1454 11.4324H11.4186C11.573 9.56042 13.1412 8.08936 15.053 8.08936C16.9648 8.08936 18.5331 9.56042 18.6875 11.4324H19.9641C21.436 11.4324 22.6292 12.6256 22.6292 14.0975V19.9104C22.6292 21.3823 21.436 22.5755 19.9641 22.5755H10.1454C8.67353 22.5755 7.48031 21.3823 7.48031 19.9104V14.0975C7.48031 12.6256 8.67353 11.4324 10.1454 11.4324ZM15.3368 18.1185C15.9566 18.1185 16.459 17.6196 16.459 17.0042C16.459 16.3888 15.9566 15.8899 15.3368 15.8899C14.7171 15.8899 14.2147 16.3888 14.2147 17.0042C14.2147 17.6196 14.7171 18.1185 15.3368 18.1185Z" fill="white"/>
<path d="M33.8724 5.52392C34.5239 5.52392 35.0214 5.66606 35.3649 5.95034C35.7143 6.2287 35.889 6.65808 35.889 7.23848V10.4722H34.9651L34.7075 9.81477H34.6719C34.5357 9.98652 34.3936 10.1287 34.2455 10.2412C34.1034 10.3537 33.9376 10.4337 33.748 10.4811C33.5644 10.5344 33.3364 10.561 33.064 10.561C32.7797 10.561 32.5221 10.5077 32.2911 10.4011C32.066 10.2886 31.8884 10.1198 31.7581 9.89472C31.6278 9.66375 31.5626 9.37354 31.5626 9.02412C31.5626 8.50886 31.7433 8.12982 32.1045 7.887C32.4658 7.63825 33.0077 7.50204 33.7303 7.47835L34.5742 7.45169V7.23848C34.5742 6.98382 34.5061 6.79726 34.3699 6.67881C34.2396 6.56036 34.056 6.50113 33.8191 6.50113C33.5822 6.50113 33.3512 6.53667 33.1262 6.60774C32.9011 6.67289 32.6761 6.7558 32.451 6.85648L32.0157 5.95922C32.2763 5.82301 32.5635 5.7164 32.8774 5.63941C33.1972 5.56242 33.5289 5.52392 33.8724 5.52392ZM34.059 8.24235C33.6326 8.25419 33.3364 8.33119 33.1706 8.47333C33.0048 8.61546 32.9219 8.80202 32.9219 9.033C32.9219 9.23437 32.9811 9.37947 33.0995 9.4683C33.218 9.55122 33.372 9.59268 33.5615 9.59268C33.8458 9.59268 34.0856 9.50976 34.2811 9.34393C34.4765 9.17218 34.5742 8.93232 34.5742 8.62435V8.22458L34.059 8.24235ZM39.9979 5.5328C40.5191 5.5328 40.9366 5.67494 41.2505 5.95922C41.5644 6.23758 41.7213 6.68769 41.7213 7.30955V10.4722H40.3977V7.63825C40.3977 7.28883 40.3355 7.02824 40.2111 6.85648C40.0867 6.67881 39.8883 6.58997 39.6159 6.58997C39.2132 6.58997 38.9378 6.72915 38.7897 7.00751C38.6416 7.27994 38.5676 7.67379 38.5676 8.18905V10.4722H37.2439V5.62164H38.2567L38.4344 6.2435H38.5054C38.612 6.07767 38.7423 5.94442 38.8963 5.84374C39.0503 5.73713 39.222 5.66014 39.4116 5.61276C39.6011 5.55946 39.7965 5.5328 39.9979 5.5328ZM44.6195 10.561C44.0805 10.561 43.6393 10.3508 43.2958 9.93026C42.9582 9.50384 42.7894 8.87902 42.7894 8.05579C42.7894 7.22664 42.9612 6.59885 43.3047 6.17243C43.6482 5.74601 44.0983 5.5328 44.655 5.5328C44.886 5.5328 45.0903 5.56538 45.268 5.63053C45.4456 5.68975 45.5967 5.77267 45.721 5.87927C45.8513 5.98588 45.9609 6.10729 46.0497 6.2435H46.0942C46.0764 6.14874 46.0557 6.01253 46.032 5.83485C46.0083 5.65125 45.9964 5.4647 45.9964 5.27518V3.72052H47.3201V10.4722H46.3074L46.0497 9.84142H45.9964C45.9135 9.97172 45.8069 10.0931 45.6766 10.2057C45.5522 10.3123 45.4042 10.3981 45.2324 10.4633C45.0607 10.5284 44.8564 10.561 44.6195 10.561ZM45.0814 9.50384C45.4486 9.50384 45.7062 9.39723 45.8543 9.18402C46.0024 8.96489 46.0793 8.63915 46.0853 8.20681V8.06467C46.0853 7.59087 46.0112 7.2296 45.8632 6.98086C45.721 6.73211 45.4545 6.60774 45.0636 6.60774C44.7734 6.60774 44.5454 6.73507 44.3796 6.98974C44.2138 7.23848 44.1308 7.59976 44.1308 8.07356C44.1308 8.54736 44.2138 8.90567 44.3796 9.14849C44.5454 9.38539 44.7794 9.50384 45.0814 9.50384ZM51.4139 5.5328C51.479 5.5328 51.556 5.53577 51.6448 5.54169C51.7337 5.54761 51.8047 5.55649 51.858 5.56834L51.7603 6.81206C51.7189 6.80022 51.6567 6.79134 51.5738 6.78541C51.4968 6.77357 51.4287 6.76765 51.3694 6.76765C51.1977 6.76765 51.0319 6.79134 50.8719 6.83872C50.712 6.88017 50.5669 6.94828 50.4366 7.04304C50.3123 7.1378 50.2116 7.26514 50.1346 7.42504C50.0635 7.57903 50.028 7.77151 50.028 8.00249V10.4722H48.7043V5.62164H49.7082L49.9036 6.43895H49.9658C50.0606 6.27312 50.179 6.12209 50.3212 5.98588C50.4633 5.84966 50.6262 5.74009 50.8098 5.65718C50.9993 5.57426 51.2006 5.5328 51.4139 5.5328ZM56.9713 8.03802C56.9713 8.44075 56.915 8.79906 56.8025 9.11295C56.6959 9.42685 56.5389 9.69336 56.3316 9.91249C56.1303 10.1257 55.8845 10.2886 55.5943 10.4011C55.3041 10.5077 54.9754 10.561 54.6082 10.561C54.2706 10.561 53.9567 10.5077 53.6665 10.4011C53.3822 10.2886 53.1364 10.1257 52.9292 9.91249C52.7219 9.69336 52.559 9.42685 52.4406 9.11295C52.328 8.79906 52.2718 8.44075 52.2718 8.03802C52.2718 7.49907 52.3665 7.046 52.556 6.67881C52.7456 6.30569 53.018 6.02141 53.3733 5.82597C53.7287 5.63053 54.1492 5.5328 54.6348 5.5328C55.0909 5.5328 55.4936 5.63053 55.843 5.82597C56.1925 6.02141 56.4679 6.30569 56.6692 6.67881C56.8706 7.046 56.9713 7.49907 56.9713 8.03802ZM53.6221 8.03802C53.6221 8.35784 53.6547 8.62731 53.7198 8.84644C53.7909 9.05965 53.9004 9.22252 54.0485 9.33505C54.1966 9.44165 54.3891 9.49496 54.626 9.49496C54.8629 9.49496 55.0524 9.44165 55.1945 9.33505C55.3426 9.22252 55.4492 9.05965 55.5143 8.84644C55.5854 8.62731 55.6209 8.35784 55.6209 8.03802C55.6209 7.71821 55.5854 7.45169 55.5143 7.23848C55.4492 7.02527 55.3426 6.86537 55.1945 6.75876C55.0465 6.65216 54.854 6.59885 54.6171 6.59885C54.2676 6.59885 54.013 6.72027 53.8531 6.96309C53.6991 7.19999 53.6221 7.5583 53.6221 8.03802ZM59.3889 5.62164V10.4722H58.0652V5.62164H59.3889ZM58.7315 3.72052C58.9269 3.72052 59.0957 3.7679 59.2379 3.86266C59.38 3.9515 59.4511 4.12029 59.4511 4.36903C59.4511 4.61186 59.38 4.78065 59.2379 4.87541C59.0957 4.97017 58.9269 5.01755 58.7315 5.01755C58.5301 5.01755 58.3584 4.97017 58.2162 4.87541C58.08 4.78065 58.0119 4.61186 58.0119 4.36903C58.0119 4.12029 58.08 3.9515 58.2162 3.86266C58.3584 3.7679 58.5301 3.72052 58.7315 3.72052ZM62.3089 10.561C61.7699 10.561 61.3287 10.3508 60.9852 9.93026C60.6476 9.50384 60.4788 8.87902 60.4788 8.05579C60.4788 7.22664 60.6506 6.59885 60.9941 6.17243C61.3376 5.74601 61.7877 5.5328 62.3444 5.5328C62.5754 5.5328 62.7797 5.56538 62.9574 5.63053C63.1351 5.68975 63.2861 5.77267 63.4105 5.87927C63.5407 5.98588 63.6503 6.10729 63.7391 6.2435H63.7836C63.7658 6.14874 63.7451 6.01253 63.7214 5.83485C63.6977 5.65125 63.6858 5.4647 63.6858 5.27518V3.72052H65.0095V10.4722H63.9968L63.7391 9.84142H63.6858C63.6029 9.97172 63.4963 10.0931 63.366 10.2057C63.2417 10.3123 63.0936 10.3981 62.9218 10.4633C62.7501 10.5284 62.5458 10.561 62.3089 10.561ZM62.7708 9.50384C63.138 9.50384 63.3956 9.39723 63.5437 9.18402C63.6918 8.96489 63.7688 8.63915 63.7747 8.20681V8.06467C63.7747 7.59087 63.7007 7.2296 63.5526 6.98086C63.4105 6.73211 63.1439 6.60774 62.7531 6.60774C62.4629 6.60774 62.2348 6.73507 62.069 6.98974C61.9032 7.23848 61.8203 7.59976 61.8203 8.07356C61.8203 8.54736 61.9032 8.90567 62.069 9.14849C62.2348 9.38539 62.4688 9.50384 62.7708 9.50384Z" fill="black"/>
<path d="M33.6178 15.0516C34.0679 15.0516 34.4528 15.1375 34.7727 15.3092C35.0984 15.481 35.3501 15.7297 35.5278 16.0555C35.7054 16.3812 35.7943 16.781 35.7943 17.2548V17.8944H32.6672C32.6791 18.2675 32.7886 18.5607 32.9959 18.7739C33.2091 18.9871 33.5023 19.0937 33.8754 19.0937C34.1893 19.0937 34.4736 19.0641 34.7282 19.0049C34.9829 18.9397 35.2465 18.842 35.5189 18.7117V19.7333C35.282 19.8518 35.0303 19.9377 34.7638 19.991C34.5032 20.0502 34.1863 20.0798 33.8132 20.0798C33.3276 20.0798 32.8982 19.991 32.5251 19.8133C32.1519 19.6297 31.8588 19.3543 31.6456 18.9871C31.4324 18.6199 31.3258 18.158 31.3258 17.6012C31.3258 17.0327 31.4205 16.5618 31.61 16.1887C31.8055 15.8097 32.075 15.5254 32.4185 15.3359C32.762 15.1464 33.1617 15.0516 33.6178 15.0516ZM33.6267 15.9933C33.372 15.9933 33.1588 16.0762 32.987 16.242C32.8212 16.4079 32.7235 16.6655 32.6939 17.0149H34.5506C34.5506 16.8195 34.515 16.6448 34.444 16.4908C34.3788 16.3368 34.2781 16.2154 34.1419 16.1265C34.0057 16.0377 33.8339 15.9933 33.6267 15.9933ZM39.6216 15.0516C40.1428 15.0516 40.5603 15.1937 40.8742 15.478C41.1881 15.7564 41.345 16.2065 41.345 16.8284V19.991H40.0214V17.1571C40.0214 16.8076 39.9592 16.547 39.8348 16.3753C39.7104 16.1976 39.512 16.1088 39.2396 16.1088C38.8369 16.1088 38.5615 16.2479 38.4134 16.5263C38.2653 16.7987 38.1913 17.1926 38.1913 17.7078V19.991H36.8676V15.1404H37.8804L38.058 15.7623H38.1291C38.2357 15.5965 38.366 15.4632 38.52 15.3625C38.674 15.2559 38.8457 15.1789 39.0353 15.1316C39.2248 15.0783 39.4202 15.0516 39.6216 15.0516ZM44.7495 19.0226C44.8976 19.0226 45.0397 19.0078 45.1759 18.9782C45.3122 18.9486 45.4484 18.9131 45.5846 18.8716V19.8577C45.4424 19.9169 45.2648 19.9673 45.0516 20.0087C44.8443 20.0561 44.6163 20.0798 44.3675 20.0798C44.0773 20.0798 43.8167 20.0324 43.5857 19.9377C43.3607 19.8429 43.1801 19.68 43.0438 19.4491C42.9135 19.2122 42.8484 18.8864 42.8484 18.4718V16.1354H42.2176V15.5757L42.9461 15.1316L43.3281 14.1099H44.1721V15.1404H45.5313V16.1354H44.1721V18.4718C44.1721 18.6554 44.2254 18.7946 44.332 18.8894C44.4386 18.9782 44.5778 19.0226 44.7495 19.0226ZM48.557 15.0516C49.0071 15.0516 49.3921 15.1375 49.7119 15.3092C50.0377 15.481 50.2894 15.7297 50.467 16.0555C50.6447 16.3812 50.7336 16.781 50.7336 17.2548V17.8944H47.6065C47.6183 18.2675 47.7279 18.5607 47.9352 18.7739C48.1484 18.9871 48.4415 19.0937 48.8147 19.0937C49.1286 19.0937 49.4128 19.0641 49.6675 19.0049C49.9222 18.9397 50.1857 18.842 50.4582 18.7117V19.7333C50.2213 19.8518 49.9696 19.9377 49.703 19.991C49.4424 20.0502 49.1256 20.0798 48.7525 20.0798C48.2668 20.0798 47.8375 19.991 47.4643 19.8133C47.0912 19.6297 46.7981 19.3543 46.5848 18.9871C46.3716 18.6199 46.265 18.158 46.265 17.6012C46.265 17.0327 46.3598 16.5618 46.5493 16.1887C46.7448 15.8097 47.0142 15.5254 47.3577 15.3359C47.7012 15.1464 48.101 15.0516 48.557 15.0516ZM48.5659 15.9933C48.3113 15.9933 48.098 16.0762 47.9263 16.242C47.7605 16.4079 47.6627 16.6655 47.6331 17.0149H49.4898C49.4898 16.8195 49.4543 16.6448 49.3832 16.4908C49.3181 16.3368 49.2174 16.2154 49.0812 16.1265C48.945 16.0377 48.7732 15.9933 48.5659 15.9933ZM54.5164 15.0516C54.5816 15.0516 54.6586 15.0546 54.7474 15.0605C54.8362 15.0664 54.9073 15.0753 54.9606 15.0871L54.8629 16.3309C54.8214 16.319 54.7593 16.3101 54.6763 16.3042C54.5993 16.2924 54.5312 16.2864 54.472 16.2864C54.3003 16.2864 54.1344 16.3101 53.9745 16.3575C53.8146 16.399 53.6695 16.4671 53.5392 16.5618C53.4148 16.6566 53.3142 16.7839 53.2372 16.9438C53.1661 17.0978 53.1306 17.2903 53.1306 17.5213V19.991H51.8069V15.1404H52.8108L53.0062 15.9577H53.0684C53.1631 15.7919 53.2816 15.6409 53.4237 15.5047C53.5659 15.3685 53.7287 15.2589 53.9123 15.176C54.1019 15.0931 54.3032 15.0516 54.5164 15.0516ZM58.5417 15.0516C59.0865 15.0516 59.5278 15.2648 59.8654 15.6912C60.2029 16.1117 60.3717 16.7336 60.3717 17.5568C60.3717 18.1076 60.2918 18.5725 60.1319 18.9516C59.972 19.3247 59.7528 19.606 59.4745 19.7955C59.1961 19.985 58.8733 20.0798 58.5061 20.0798C58.2752 20.0798 58.0738 20.0502 57.902 19.991C57.7362 19.9317 57.5941 19.8547 57.4756 19.76C57.3572 19.6652 57.2535 19.5645 57.1647 19.4579H57.0936C57.1173 19.5705 57.1351 19.6889 57.1469 19.8133C57.1588 19.9317 57.1647 20.0502 57.1647 20.1686V22.1231H55.841V15.1404H56.9159L57.1025 15.7712H57.1647C57.2535 15.6409 57.3601 15.5224 57.4845 15.4158C57.6089 15.3033 57.7569 15.2145 57.9287 15.1493C58.1064 15.0842 58.3107 15.0516 58.5417 15.0516ZM58.1153 16.1088C57.8843 16.1088 57.7007 16.1561 57.5645 16.2509C57.4282 16.3457 57.3276 16.4908 57.2624 16.6862C57.2032 16.8757 57.1706 17.1156 57.1647 17.4058V17.5479C57.1647 17.8618 57.1943 18.1283 57.2535 18.3475C57.3128 18.5607 57.4134 18.7236 57.5556 18.8361C57.6977 18.9486 57.8902 19.0049 58.133 19.0049C58.3344 19.0049 58.5002 18.9486 58.6305 18.8361C58.7608 18.7236 58.8585 18.5577 58.9237 18.3386C58.9888 18.1195 59.0214 17.8529 59.0214 17.5391C59.0214 17.0653 58.9474 16.7099 58.7993 16.473C58.6572 16.2302 58.4291 16.1088 58.1153 16.1088ZM64.1723 15.0516C64.2374 15.0516 64.3144 15.0546 64.4033 15.0605C64.4921 15.0664 64.5632 15.0753 64.6165 15.0871L64.5188 16.3309C64.4773 16.319 64.4151 16.3101 64.3322 16.3042C64.2552 16.2924 64.1871 16.2864 64.1279 16.2864C63.9561 16.2864 63.7903 16.3101 63.6304 16.3575C63.4705 16.399 63.3254 16.4671 63.1951 16.5618C63.0707 16.6566 62.97 16.7839 62.893 16.9438C62.822 17.0978 62.7864 17.2903 62.7864 17.5213V19.991H61.4628V15.1404H62.4666L62.6621 15.9577H62.7242C62.819 15.7919 62.9375 15.6409 63.0796 15.5047C63.2217 15.3685 63.3846 15.2589 63.5682 15.176C63.7577 15.0931 63.9591 15.0516 64.1723 15.0516ZM66.8206 15.1404V19.991H65.4969V15.1404H66.8206ZM66.1632 13.2393C66.3586 13.2393 66.5274 13.2867 66.6695 13.3815C66.8117 13.4703 66.8827 13.6391 66.8827 13.8878C66.8827 14.1307 66.8117 14.2994 66.6695 14.3942C66.5274 14.489 66.3586 14.5363 66.1632 14.5363C65.9618 14.5363 65.79 14.489 65.6479 14.3942C65.5117 14.2994 65.4436 14.1307 65.4436 13.8878C65.4436 13.6391 65.5117 13.4703 65.6479 13.3815C65.79 13.2867 65.9618 13.2393 66.1632 13.2393ZM71.5884 18.5518C71.5884 18.8775 71.5114 19.1559 71.3574 19.3869C71.2034 19.6119 70.9724 19.7837 70.6644 19.9021C70.3565 20.0206 69.9745 20.0798 69.5184 20.0798C69.1809 20.0798 68.8907 20.0561 68.6478 20.0087C68.405 19.9673 68.1622 19.8962 67.9194 19.7955V18.7028C68.18 18.8213 68.4613 18.919 68.7633 18.996C69.0654 19.073 69.3319 19.1115 69.5629 19.1115C69.8235 19.1115 70.007 19.073 70.1137 18.996C70.2262 18.919 70.2824 18.8183 70.2824 18.6939C70.2824 18.611 70.2588 18.537 70.2114 18.4718C70.1699 18.4067 70.0752 18.3327 69.9271 18.2498C69.779 18.1668 69.5481 18.0602 69.2342 17.9299C68.9321 17.7996 68.6834 17.6723 68.4879 17.5479C68.2925 17.4176 68.1474 17.2637 68.0526 17.086C67.9579 16.9024 67.9105 16.6744 67.9105 16.4019C67.9105 15.9518 68.0852 15.6142 68.4346 15.3892C68.7841 15.1641 69.249 15.0516 69.8294 15.0516C70.1314 15.0516 70.4187 15.0812 70.6911 15.1404C70.9635 15.1997 71.2449 15.2974 71.5351 15.4336L71.1353 16.3842C70.9754 16.3131 70.8214 16.2509 70.6733 16.1976C70.5253 16.1443 70.3802 16.1028 70.238 16.0732C70.1018 16.0436 69.9597 16.0288 69.8116 16.0288C69.6162 16.0288 69.4681 16.0555 69.3674 16.1088C69.2727 16.1621 69.2253 16.242 69.2253 16.3486C69.2253 16.4256 69.249 16.4967 69.2963 16.5618C69.3497 16.6211 69.4474 16.6862 69.5895 16.7573C69.7376 16.8284 69.9537 16.9231 70.238 17.0416C70.5164 17.1541 70.7562 17.2725 70.9576 17.3969C71.159 17.5154 71.313 17.6664 71.4196 17.85C71.5321 18.0277 71.5884 18.2616 71.5884 18.5518ZM74.6183 15.0516C75.0684 15.0516 75.4534 15.1375 75.7732 15.3092C76.099 15.481 76.3507 15.7297 76.5283 16.0555C76.706 16.3812 76.7949 16.781 76.7949 17.2548V17.8944H73.6678C73.6796 18.2675 73.7892 18.5607 73.9965 18.7739C74.2097 18.9871 74.5028 19.0937 74.876 19.0937C75.1899 19.0937 75.4741 19.0641 75.7288 19.0049C75.9835 18.9397 76.247 18.842 76.5195 18.7117V19.7333C76.2826 19.8518 76.0309 19.9377 75.7643 19.991C75.5038 20.0502 75.1869 20.0798 74.8138 20.0798C74.3281 20.0798 73.8988 19.991 73.5256 19.8133C73.1525 19.6297 72.8594 19.3543 72.6461 18.9871C72.4329 18.6199 72.3263 18.158 72.3263 17.6012C72.3263 17.0327 72.4211 16.5618 72.6106 16.1887C72.8061 15.8097 73.0755 15.5254 73.419 15.3359C73.7625 15.1464 74.1623 15.0516 74.6183 15.0516ZM74.6272 15.9933C74.3726 15.9933 74.1593 16.0762 73.9876 16.242C73.8218 16.4079 73.724 16.6655 73.6944 17.0149H75.5511C75.5511 16.8195 75.5156 16.6448 75.4445 16.4908C75.3794 16.3368 75.2787 16.2154 75.1425 16.1265C75.0063 16.0377 74.8345 15.9933 74.6272 15.9933Z" fill="black"/>
<path d="M35.2946 24.5702C35.3597 24.5702 35.4367 24.5731 35.5256 24.579C35.6144 24.585 35.6855 24.5938 35.7388 24.6057L35.6411 25.8494C35.5996 25.8376 35.5374 25.8287 35.4545 25.8228C35.3775 25.8109 35.3094 25.805 35.2502 25.805C35.0784 25.805 34.9126 25.8287 34.7527 25.8761C34.5928 25.9175 34.4477 25.9856 34.3174 26.0804C34.193 26.1752 34.0923 26.3025 34.0153 26.4624C33.9443 26.6164 33.9087 26.8089 33.9087 27.0398V29.5095H32.5851V24.659H33.5889L33.7844 25.4763H33.8465C33.9413 25.3105 34.0598 25.1594 34.2019 25.0232C34.344 24.887 34.5069 24.7774 34.6905 24.6945C34.88 24.6116 35.0814 24.5702 35.2946 24.5702ZM38.4445 24.5702C38.8946 24.5702 39.2796 24.656 39.5994 24.8278C39.9251 24.9995 40.1768 25.2483 40.3545 25.574C40.5322 25.8998 40.621 26.2995 40.621 26.7733V27.413H37.494C37.5058 27.7861 37.6154 28.0792 37.8226 28.2924C38.0359 28.5057 38.329 28.6123 38.7021 28.6123C39.016 28.6123 39.3003 28.5827 39.555 28.5234C39.8096 28.4583 40.0732 28.3606 40.3456 28.2303V29.2519C40.1087 29.3703 39.857 29.4562 39.5905 29.5095C39.3299 29.5687 39.0131 29.5984 38.64 29.5984C38.1543 29.5984 37.7249 29.5095 37.3518 29.3318C36.9787 29.1482 36.6855 28.8729 36.4723 28.5057C36.2591 28.1385 36.1525 27.6765 36.1525 27.1198C36.1525 26.5512 36.2473 26.0804 36.4368 25.7073C36.6322 25.3282 36.9017 25.044 37.2452 24.8544C37.5887 24.6649 37.9885 24.5702 38.4445 24.5702ZM38.4534 25.5118C38.1987 25.5118 37.9855 25.5948 37.8138 25.7606C37.6479 25.9264 37.5502 26.184 37.5206 26.5335H39.3773C39.3773 26.338 39.3418 26.1633 39.2707 26.0093C39.2056 25.8553 39.1049 25.7339 38.9687 25.6451C38.8324 25.5563 38.6607 25.5118 38.4534 25.5118ZM43.6666 29.5984C43.1868 29.5984 42.7782 29.5125 42.4406 29.3407C42.103 29.1631 41.8454 28.8906 41.6677 28.5234C41.49 28.1562 41.4012 27.6854 41.4012 27.1109C41.4012 26.5187 41.5019 26.036 41.7033 25.6629C41.9046 25.2897 42.183 25.0143 42.5383 24.8367C42.8996 24.659 43.3142 24.5702 43.782 24.5702C44.1137 24.5702 44.4009 24.6027 44.6438 24.6679C44.8925 24.733 45.1087 24.81 45.2923 24.8989L44.9014 25.9205C44.6941 25.8376 44.4987 25.7695 44.3151 25.7162C44.1374 25.6629 43.9597 25.6362 43.782 25.6362C43.5511 25.6362 43.3586 25.6925 43.2046 25.805C43.0506 25.9116 42.9351 26.0745 42.8581 26.2936C42.7871 26.5068 42.7515 26.7763 42.7515 27.102C42.7515 27.4218 42.79 27.6884 42.867 27.9016C42.9499 28.1089 43.0684 28.2658 43.2224 28.3724C43.3764 28.4731 43.5629 28.5234 43.782 28.5234C44.0604 28.5234 44.3062 28.4879 44.5194 28.4168C44.7326 28.3398 44.9399 28.2362 45.1413 28.1059V29.2341C44.9399 29.3644 44.7267 29.4562 44.5016 29.5095C44.2825 29.5687 44.0041 29.5984 43.6666 29.5984ZM50.664 27.0754C50.664 27.4781 50.6078 27.8364 50.4952 28.1503C50.3886 28.4642 50.2317 28.7307 50.0244 28.9498C49.823 29.1631 49.5773 29.3259 49.2871 29.4385C48.9969 29.5451 48.6682 29.5984 48.301 29.5984C47.9634 29.5984 47.6495 29.5451 47.3593 29.4385C47.075 29.3259 46.8292 29.1631 46.6219 28.9498C46.4146 28.7307 46.2518 28.4642 46.1333 28.1503C46.0208 27.8364 45.9645 27.4781 45.9645 27.0754C45.9645 26.5364 46.0593 26.0834 46.2488 25.7162C46.4383 25.343 46.7108 25.0588 47.0661 24.8633C47.4215 24.6679 47.842 24.5702 48.3276 24.5702C48.7836 24.5702 49.1864 24.6679 49.5358 24.8633C49.8852 25.0588 50.1606 25.343 50.362 25.7162C50.5634 26.0834 50.664 26.5364 50.664 27.0754ZM47.3149 27.0754C47.3149 27.3952 47.3474 27.6647 47.4126 27.8838C47.4837 28.097 47.5932 28.2599 47.7413 28.3724C47.8893 28.479 48.0818 28.5323 48.3187 28.5323C48.5556 28.5323 48.7451 28.479 48.8873 28.3724C49.0353 28.2599 49.142 28.097 49.2071 27.8838C49.2782 27.6647 49.3137 27.3952 49.3137 27.0754C49.3137 26.7556 49.2782 26.489 49.2071 26.2758C49.142 26.0626 49.0353 25.9027 48.8873 25.7961C48.7392 25.6895 48.5467 25.6362 48.3098 25.6362C47.9604 25.6362 47.7057 25.7576 47.5458 26.0004C47.3919 26.2373 47.3149 26.5957 47.3149 27.0754ZM57.4525 24.5702C58.0033 24.5702 58.4178 24.7123 58.6962 24.9966C58.9805 25.2749 59.1226 25.725 59.1226 26.3469V29.5095H57.7989V26.6756C57.7989 26.3262 57.7397 26.0656 57.6213 25.8938C57.5028 25.7162 57.3192 25.6273 57.0705 25.6273C56.721 25.6273 56.4723 25.7517 56.3242 26.0004C56.1762 26.2492 56.1021 26.6075 56.1021 27.0754V29.5095H54.7785V26.6756C54.7785 26.4446 54.7518 26.2521 54.6985 26.0982C54.6452 25.9442 54.5652 25.8287 54.4586 25.7517C54.352 25.6688 54.2158 25.6273 54.05 25.6273C53.8072 25.6273 53.6147 25.6895 53.4725 25.8139C53.3304 25.9383 53.2297 26.1189 53.1705 26.3558C53.1113 26.5927 53.0817 26.8829 53.0817 27.2264V29.5095H51.758V24.659H52.7707L52.9484 25.2809H53.0195C53.1202 25.115 53.2445 24.9818 53.3926 24.8811C53.5407 24.7745 53.7035 24.6975 53.8812 24.6501C54.0648 24.5968 54.2484 24.5702 54.432 24.5702C54.7873 24.5702 55.0894 24.6294 55.3381 24.7478C55.5869 24.8604 55.7764 25.038 55.9067 25.2809H56.0222C56.1702 25.0321 56.3746 24.8515 56.6352 24.7389C56.9017 24.6264 57.1741 24.5702 57.4525 24.5702ZM66.1801 24.5702C66.7308 24.5702 67.1454 24.7123 67.4238 24.9966C67.7081 25.2749 67.8502 25.725 67.8502 26.3469V29.5095H66.5265V26.6756C66.5265 26.3262 66.4673 26.0656 66.3488 25.8938C66.2304 25.7162 66.0468 25.6273 65.7981 25.6273C65.4486 25.6273 65.1999 25.7517 65.0518 26.0004C64.9038 26.2492 64.8297 26.6075 64.8297 27.0754V29.5095H63.506V26.6756C63.506 26.4446 63.4794 26.2521 63.4261 26.0982C63.3728 25.9442 63.2928 25.8287 63.1862 25.7517C63.0796 25.6688 62.9434 25.6273 62.7776 25.6273C62.5348 25.6273 62.3423 25.6895 62.2001 25.8139C62.058 25.9383 61.9573 26.1189 61.8981 26.3558C61.8389 26.5927 61.8093 26.8829 61.8093 27.2264V29.5095H60.4856V24.659H61.4983L61.676 25.2809H61.7471C61.8477 25.115 61.9721 24.9818 62.1202 24.8811C62.2682 24.7745 62.4311 24.6975 62.6088 24.6501C62.7924 24.5968 62.976 24.5702 63.1596 24.5702C63.5149 24.5702 63.817 24.6294 64.0657 24.7478C64.3145 24.8604 64.504 25.038 64.6343 25.2809H64.7498C64.8978 25.0321 65.1022 24.8515 65.3627 24.7389C65.6293 24.6264 65.9017 24.5702 66.1801 24.5702ZM71.212 24.5702C71.6621 24.5702 72.0471 24.656 72.3669 24.8278C72.6926 24.9995 72.9443 25.2483 73.122 25.574C73.2997 25.8998 73.3885 26.2995 73.3885 26.7733V27.413H70.2614C70.2733 27.7861 70.3829 28.0792 70.5901 28.2924C70.8033 28.5057 71.0965 28.6123 71.4696 28.6123C71.7835 28.6123 72.0678 28.5827 72.3225 28.5234C72.5771 28.4583 72.8407 28.3606 73.1131 28.2303V29.2519C72.8762 29.3703 72.6245 29.4562 72.358 29.5095C72.0974 29.5687 71.7806 29.5984 71.4074 29.5984C70.9218 29.5984 70.4924 29.5095 70.1193 29.3318C69.7462 29.1482 69.453 28.8729 69.2398 28.5057C69.0266 28.1385 68.92 27.6765 68.92 27.1198C68.92 26.5512 69.0148 26.0804 69.2043 25.7073C69.3997 25.3282 69.6692 25.044 70.0127 24.8544C70.3562 24.6649 70.756 24.5702 71.212 24.5702ZM71.2209 25.5118C70.9662 25.5118 70.753 25.5948 70.5813 25.7606C70.4154 25.9264 70.3177 26.184 70.2881 26.5335H72.1448C72.1448 26.338 72.1093 26.1633 72.0382 26.0093C71.973 25.8553 71.8724 25.7339 71.7361 25.6451C71.5999 25.5563 71.4282 25.5118 71.2209 25.5118ZM77.2158 24.5702C77.737 24.5702 78.1545 24.7123 78.4684 24.9966C78.7823 25.2749 78.9393 25.725 78.9393 26.3469V29.5095H77.6156V26.6756C77.6156 26.3262 77.5534 26.0656 77.429 25.8938C77.3047 25.7162 77.1063 25.6273 76.8338 25.6273C76.4311 25.6273 76.1557 25.7665 76.0076 26.0449C75.8596 26.3173 75.7855 26.7111 75.7855 27.2264V29.5095H74.4619V24.659H75.4746L75.6523 25.2809H75.7233C75.83 25.115 75.9602 24.9818 76.1142 24.8811C76.2682 24.7745 76.44 24.6975 76.6295 24.6501C76.819 24.5968 77.0145 24.5702 77.2158 24.5702ZM81.8374 29.5984C81.2984 29.5984 80.8572 29.3881 80.5137 28.9676C80.1761 28.5412 80.0073 27.9164 80.0073 27.0931C80.0073 26.264 80.1791 25.6362 80.5226 25.2098C80.8661 24.7834 81.3162 24.5702 81.8729 24.5702C82.1039 24.5702 82.3082 24.6027 82.4859 24.6679C82.6636 24.7271 82.8146 24.81 82.939 24.9166C83.0693 25.0232 83.1788 25.1446 83.2677 25.2809H83.3121C83.2943 25.1861 83.2736 25.0499 83.2499 24.8722C83.2262 24.6886 83.2144 24.502 83.2144 24.3125V22.7579H84.538V29.5095H83.5253L83.2677 28.8788H83.2144C83.1314 29.0091 83.0248 29.1305 82.8945 29.243C82.7702 29.3496 82.6221 29.4355 82.4504 29.5006C82.2786 29.5658 82.0743 29.5984 81.8374 29.5984ZM82.2993 28.5412C82.6665 28.5412 82.9242 28.4346 83.0722 28.2214C83.2203 28.0022 83.2973 27.6765 83.3032 27.2442V27.102C83.3032 26.6282 83.2292 26.267 83.0811 26.0182C82.939 25.7695 82.6725 25.6451 82.2816 25.6451C81.9914 25.6451 81.7633 25.7724 81.5975 26.0271C81.4317 26.2758 81.3488 26.6371 81.3488 27.1109C81.3488 27.5847 81.4317 27.943 81.5975 28.1858C81.7633 28.4227 81.9973 28.5412 82.2993 28.5412ZM87.9211 24.5702C88.3712 24.5702 88.7562 24.656 89.076 24.8278C89.4017 24.9995 89.6534 25.2483 89.8311 25.574C90.0088 25.8998 90.0976 26.2995 90.0976 26.7733V27.413H86.9705C86.9824 27.7861 87.0919 28.0792 87.2992 28.2924C87.5124 28.5057 87.8056 28.6123 88.1787 28.6123C88.4926 28.6123 88.7769 28.5827 89.0315 28.5234C89.2862 28.4583 89.5498 28.3606 89.8222 28.2303V29.2519C89.5853 29.3703 89.3336 29.4562 89.0671 29.5095C88.8065 29.5687 88.4896 29.5984 88.1165 29.5984C87.6309 29.5984 87.2015 29.5095 86.8284 29.3318C86.4553 29.1482 86.1621 28.8729 85.9489 28.5057C85.7357 28.1385 85.6291 27.6765 85.6291 27.1198C85.6291 26.5512 85.7238 26.0804 85.9134 25.7073C86.1088 25.3282 86.3783 25.044 86.7218 24.8544C87.0653 24.6649 87.465 24.5702 87.9211 24.5702ZM87.93 25.5118C87.6753 25.5118 87.4621 25.5948 87.2903 25.7606C87.1245 25.9264 87.0268 26.184 86.9972 26.5335H88.8539C88.8539 26.338 88.8183 26.1633 88.7473 26.0093C88.6821 25.8553 88.5814 25.7339 88.4452 25.6451C88.309 25.5563 88.1373 25.5118 87.93 25.5118ZM92.7078 29.5984C92.1689 29.5984 91.7276 29.3881 91.3841 28.9676C91.0466 28.5412 90.8778 27.9164 90.8778 27.0931C90.8778 26.264 91.0495 25.6362 91.393 25.2098C91.7365 24.7834 92.1866 24.5702 92.7434 24.5702C92.9743 24.5702 93.1787 24.6027 93.3563 24.6679C93.534 24.7271 93.685 24.81 93.8094 24.9166C93.9397 25.0232 94.0493 25.1446 94.1381 25.2809H94.1825C94.1648 25.1861 94.144 25.0499 94.1203 24.8722C94.0966 24.6886 94.0848 24.502 94.0848 24.3125V22.7579H95.4085V29.5095H94.3957L94.1381 28.8788H94.0848C94.0019 29.0091 93.8953 29.1305 93.765 29.243C93.6406 29.3496 93.4926 29.4355 93.3208 29.5006C93.149 29.5658 92.9447 29.5984 92.7078 29.5984ZM93.1698 28.5412C93.537 28.5412 93.7946 28.4346 93.9427 28.2214C94.0907 28.0022 94.1677 27.6765 94.1736 27.2442V27.102C94.1736 26.6282 94.0996 26.267 93.9515 26.0182C93.8094 25.7695 93.5429 25.6451 93.152 25.6451C92.8618 25.6451 92.6338 25.7724 92.468 26.0271C92.3021 26.2758 92.2192 26.6371 92.2192 27.1109C92.2192 27.5847 92.3021 27.943 92.468 28.1858C92.6338 28.4227 92.8677 28.5412 93.1698 28.5412Z" fill="black"/>
</svg>
