<svg width="98" height="15" viewBox="0 0 98 15" fill="none" xmlns="http://www.w3.org/2000/svg">
<g opacity="0.9" clip-path="url(#clip0_5257_18496)">
<path d="M6.72542 5.59331C6.72542 5.59331 5.92574 5.51576 5.92574 6.21036V9.2956H11.2066V10.2215C11.2066 10.2215 11.2224 10.6841 10.7265 10.6841H5.92574V14.6953H11.6867C11.6867 14.6953 15.1748 14.1705 15.207 10.6841V5.59331H6.72542ZM15.0465 0.65625H4.64531C0.884243 1.51998 0.804688 4.52835 0.804688 4.52835V14.6953H4.80579V5.43888C4.80579 4.65202 5.60546 4.51364 5.60546 4.51364H15.0472V0.65625H15.0465ZM28.7781 11.7859C28.5038 11.9644 28.3008 12.0954 28.1575 12.1789C27.6445 12.4885 27.1555 12.7271 26.7021 12.9177C26.0458 13.1797 25.4608 13.3108 24.9361 13.3108C23.1345 13.3108 21.6428 12.7746 20.4371 11.6903C19.2314 10.6059 18.6361 9.24814 18.6361 7.60423C18.6361 6.01983 19.1731 4.64935 20.2588 3.48144C21.3445 2.31419 22.6571 1.74193 24.2085 1.74193C24.8531 1.74193 25.5445 1.8489 26.2605 2.0762C27.1911 2.36166 27.9428 2.79085 28.5395 3.35041L27.5011 4.47019C27.0601 4.05369 26.4875 3.7435 25.8188 3.55297C25.3181 3.40991 24.7695 3.33904 24.1605 3.33904C23.0748 3.33904 22.1558 3.7669 21.4281 4.61325C20.7005 5.47097 20.3308 6.48378 20.3308 7.6751C20.3308 8.85504 20.7478 9.81972 21.5831 10.5945C22.4185 11.3687 23.4801 11.7618 24.7688 11.7618C25.3058 11.7618 25.8551 11.5947 26.4155 11.2738C26.8811 10.9281 27.1198 10.761 27.1315 10.749V8.30685H23.6475L24.1481 6.78195H28.7781V11.7859ZM39.3021 8.80691C39.3021 9.98619 38.8728 11.011 38.0135 11.8688C37.1541 12.7265 36.0925 13.1677 34.8278 13.1677C33.6585 13.1677 32.6325 12.7385 31.7491 11.8928C30.8658 11.0471 30.4365 10.0223 30.4365 8.81894C30.4365 7.62763 30.8548 6.60278 31.6895 5.721C32.5241 4.83921 33.5508 4.41069 34.7558 4.41069C36.0925 4.41069 37.1781 4.82785 38.0251 5.67353C38.8728 6.49582 39.3021 7.54406 39.3021 8.80691ZM37.6671 8.83098C37.6671 8.03276 37.3928 7.35354 36.8441 6.80534C36.2955 6.24512 35.6151 5.97102 34.8038 5.97102C34.0405 5.97102 33.3958 6.25715 32.8588 6.82941C32.3218 7.401 32.0591 8.05615 32.0591 8.79488C32.0591 9.5697 32.3334 10.2249 32.8704 10.773C33.4074 11.3212 34.0761 11.6067 34.8868 11.6067C35.6391 11.6067 36.2831 11.3326 36.8325 10.7844C37.3928 10.2362 37.6678 9.58106 37.6678 8.83098H37.6671ZM49.6828 8.80691C49.6828 9.98619 49.2534 11.011 48.3941 11.8688C47.5348 12.7265 46.4731 13.1677 45.2084 13.1677C44.0391 13.1677 43.0131 12.7385 42.1298 11.8928C41.2471 11.0471 40.8171 10.0223 40.8171 8.81894C40.8171 7.62763 41.2355 6.60278 42.0701 5.721C42.9054 4.83921 43.9314 4.41069 45.1364 4.41069C46.4731 4.41069 47.5588 4.82785 48.4058 5.67353C49.2534 6.49582 49.6828 7.54406 49.6828 8.80691ZM48.0478 8.83098C48.0478 8.03276 47.7734 7.35354 47.2248 6.80534C46.6761 6.24512 45.9958 5.97102 45.1844 5.97102C44.4211 5.97102 43.7764 6.25715 43.2394 6.82941C42.7024 7.401 42.4398 8.05615 42.4398 8.79488C42.4398 9.5697 42.7141 10.2249 43.2518 10.773C43.7881 11.3212 44.4568 11.6067 45.2681 11.6067C46.0198 11.6067 46.6638 11.3326 47.2131 10.7844C47.7734 10.2362 48.0484 9.58106 48.0484 8.83098H48.0478ZM59.2884 12.929L57.7851 13.1557V11.7377L57.4628 12.0947C57.1788 12.354 56.8571 12.5709 56.5081 12.7385C55.9958 12.9688 55.4379 13.0868 54.8738 13.0841C53.7044 13.0841 52.7018 12.667 51.8904 11.8206C51.0791 10.9743 50.6738 9.97415 50.6738 8.80691C50.6738 7.60356 51.0791 6.56735 51.8788 5.70896C52.6785 4.85058 53.6564 4.42205 54.8258 4.42205C55.4944 4.42205 56.0788 4.52902 56.5678 4.74361C56.9141 4.89871 57.2124 5.10127 57.4628 5.35197C57.5464 5.45893 57.6301 5.57793 57.7138 5.6849V1.9679L59.3118 1.74127L59.2884 12.929ZM57.8804 8.91387C57.8804 8.08022 57.5938 7.37693 57.0094 6.80534C56.4251 6.22105 55.7681 5.93559 55.0171 5.93559C54.1818 5.93559 53.5138 6.20969 53.0008 6.75788C52.5228 7.28133 52.2724 7.92512 52.2724 8.67588C52.2724 9.52156 52.5228 10.2242 53.0241 10.7724C53.5248 11.3206 54.1578 11.5947 54.9334 11.5947C55.6968 11.5947 56.3654 11.3446 56.9621 10.8325C57.5704 10.3077 57.8811 9.66463 57.8811 8.91387H57.8804ZM67.7241 3.51754H63.2498V6.48378H66.7214V8.00869H63.2498V12.9177L61.5078 13.1677V1.97993H67.3777L67.7241 3.51754ZM71.3158 2.64712L70.2418 3.96946L69.2158 2.64712L70.3014 1.33681L71.3158 2.64712ZM70.9934 12.929L69.3948 13.1436V4.86328L70.9934 4.62528V12.9297V12.929ZM78.2124 4.54172L77.4607 6.23309C77.362 6.21841 77.2623 6.21059 77.1624 6.20969C77.0074 6.20969 76.8524 6.22172 76.6967 6.24512C76.5411 6.26852 76.3744 6.32869 76.1961 6.41225C75.8621 6.55532 75.5754 6.86484 75.3251 7.32947C75.0481 7.85679 74.9046 8.4411 74.9067 9.03354V12.9177L73.3088 13.1677V4.86328L74.7881 4.60122V6.32869C74.9787 6.03052 75.1817 5.73303 75.3724 5.4235C75.6467 5.11331 75.9691 4.88735 76.3271 4.75565C76.5177 4.68478 76.8641 4.62462 77.3887 4.57715C77.8901 4.54172 78.1767 4.51765 78.2124 4.54172ZM90.1197 12.929L88.521 13.1557V7.47253C88.521 6.94774 88.4017 6.56668 88.163 6.32869C87.9244 6.09002 87.5664 5.97102 87.1007 5.97102C86.5404 5.97102 86.1104 6.19765 85.8244 6.65025C85.633 6.95977 85.526 7.29337 85.526 7.62696V12.917L83.9274 13.2031V7.50796C83.9274 7.00791 83.8081 6.62618 83.581 6.36479C83.3424 6.10206 83.0324 5.97102 82.6264 5.97102H82.4714C81.9104 5.97102 81.5044 6.19766 81.254 6.66228C81.0634 7.00791 80.9681 7.44847 80.9681 7.98462V12.917L79.3097 13.2031V4.86328L80.8007 4.61325V5.67353C80.9681 5.42283 81.1347 5.22027 81.2904 5.07788C81.7197 4.68478 82.2211 4.49358 82.7814 4.49358C83.4137 4.49358 83.8787 4.58918 84.201 4.79175C84.4754 4.95888 84.738 5.2918 85.0007 5.76846C85.5494 4.92278 86.325 4.49358 87.3517 4.49358C88.3297 4.49358 89.0581 4.79175 89.5347 5.39944C89.929 5.89949 90.1197 6.63821 90.1197 7.60356V12.929ZM97.4238 10.4154C97.4238 11.1775 97.1494 11.8093 96.6008 12.2979C96.0521 12.798 95.3594 13.0367 94.5241 13.0367C93.8917 13.0367 93.3307 12.8936 92.8177 12.6075C92.3047 12.322 91.9234 11.9998 91.6724 11.6187L92.7944 10.642C92.8774 10.761 92.9494 10.8559 93.0208 10.9275C93.4391 11.3446 93.9398 11.5592 94.5241 11.5592C94.9301 11.5592 95.2524 11.4523 95.4788 11.2497C95.7174 11.0471 95.8251 10.761 95.8251 10.3913C95.8251 9.97482 95.5508 9.68869 95.0021 9.5336C93.9157 9.21204 93.3307 9.03354 93.2478 8.99744C92.7464 8.74741 92.3884 8.48535 92.1614 8.18719C91.9111 7.84156 91.7801 7.38897 91.7801 6.80534C91.7801 6.09002 92.0544 5.49504 92.5914 5.01838C93.1284 4.54172 93.7724 4.31509 94.5117 4.31509C95.0734 4.31509 95.5981 4.43409 96.0754 4.68478C96.5527 4.93481 96.8984 5.19687 97.1014 5.50707L96.1467 6.51922C96.0034 6.37931 95.8478 6.25181 95.6817 6.13816C95.2997 5.87609 94.9301 5.74506 94.5844 5.74506C94.2497 5.74506 93.9754 5.8166 93.7608 5.95899C93.5097 6.13816 93.3787 6.40022 93.3787 6.74585C93.3787 7.07944 93.4981 7.32947 93.7491 7.48457C93.9638 7.6156 94.4171 7.75866 95.1331 7.91309C95.8484 8.08022 96.3977 8.36635 96.7914 8.77148C97.2331 9.2 97.4238 9.73616 97.4238 10.4154Z" fill="#3F545D"/>
</g>
<defs>
<clipPath id="clip0_5257_18496">
<rect width="96.7013" height="14.039" fill="white" transform="translate(0.828125 0.657715)"/>
</clipPath>
</defs>
</svg>
