<svg width="76" height="64" viewBox="0 0 76 64" fill="none" xmlns="http://www.w3.org/2000/svg">
<ellipse cx="38.2633" cy="25.4139" rx="24.857" ry="24.8045" fill="#E7E7E7"/>
<rect x="7.625" y="43.8691" width="60.8109" height="11.664" fill="#24B8EB"/>
<path d="M63.1158 49.6289H75.9881L72.2892 55.6824L62.6719 56.1253L63.1158 49.6289Z" fill="#24B8EB"/>
<path d="M62.6719 61.5879H75.9881L72.2892 55.5344L62.6719 55.0915V61.5879Z" fill="#24B8EB"/>
<path d="M13.2592 49.6279H0.386867L4.08583 55.6814L13.7031 56.1244L13.2592 49.6279Z" fill="#24B8EB"/>
<path d="M13.7031 61.5869H0.386867L4.08583 55.5334L13.7031 55.0905V61.5869Z" fill="#24B8EB"/>
<path d="M68.4375 55.5342H62.6671V61.1447L68.4375 55.5342Z" fill="#008BB8"/>
<path d="M7.625 55.5342H13.3954V61.1447L7.625 55.5342Z" fill="#008BB8"/>
<path d="M13.1239 51.9365L12.7573 50.9427H11.4257L11.059 51.9365H10.5187L11.8261 48.4774H12.3665L13.6691 51.9365H13.1239ZM12.2652 49.5195C12.2555 49.4841 12.2378 49.431 12.2121 49.3603C12.1896 49.2863 12.1671 49.2123 12.1446 49.1383C12.122 49.0611 12.1043 48.9984 12.0915 48.9502C12.0754 49.0145 12.0561 49.0853 12.0336 49.1624C12.0143 49.2364 11.995 49.3056 11.9757 49.3699C11.9564 49.431 11.9403 49.4809 11.9275 49.5195L11.5801 50.4892H12.6125L12.2652 49.5195ZM16.8064 50.7208C16.8064 50.9588 16.7566 51.1743 16.6569 51.3672C16.5604 51.557 16.4108 51.7082 16.2082 51.8207C16.0056 51.9301 15.7499 51.9848 15.4411 51.9848C15.0037 51.9848 14.6708 51.869 14.4424 51.6374C14.2173 51.4026 14.1047 51.0938 14.1047 50.7111V48.4918H14.6258V50.687C14.6258 50.97 14.6949 51.1839 14.8332 51.3286C14.9715 51.4702 15.1822 51.5409 15.4652 51.5409C15.6582 51.5409 15.8158 51.5055 15.938 51.4348C16.0602 51.364 16.1487 51.2659 16.2034 51.1405C16.2613 51.0118 16.2902 50.8591 16.2902 50.6822V48.4918H16.8064V50.7208ZM18.8534 51.9365H18.3323V48.9405H17.2999V48.4918H19.8858V48.9405H18.8534V51.9365ZM23.1012 51.9365H22.5802V50.3637H20.935V51.9365H20.414V48.4918H20.935V49.9199H22.5802V48.4918H23.1012V51.9365ZM27.0623 50.2094C27.0623 50.4763 27.0286 50.7191 26.961 50.9379C26.8967 51.1533 26.797 51.3399 26.6619 51.4975C26.53 51.6551 26.3628 51.7757 26.1602 51.8593C25.9608 51.943 25.7276 51.9848 25.4606 51.9848C25.1872 51.9848 24.9492 51.943 24.7466 51.8593C24.5472 51.7725 24.3799 51.6519 24.2448 51.4975C24.113 51.3399 24.0149 51.1517 23.9505 50.933C23.8862 50.7143 23.8541 50.4715 23.8541 50.2045C23.8541 49.8507 23.912 49.542 24.0277 49.2782C24.1435 49.0145 24.3204 48.8087 24.5584 48.6607C24.7997 48.5127 25.102 48.4388 25.4654 48.4388C25.8192 48.4388 26.1135 48.5127 26.3483 48.6607C26.5863 48.8054 26.7648 49.0113 26.8838 49.2782C27.0028 49.542 27.0623 49.8523 27.0623 50.2094ZM24.4041 50.2094C24.4041 50.486 24.441 50.724 24.515 50.9234C24.589 51.1196 24.7048 51.2724 24.8624 51.3817C25.02 51.4878 25.2194 51.5409 25.4606 51.5409C25.7051 51.5409 25.9045 51.4878 26.0588 51.3817C26.2132 51.2724 26.3274 51.1196 26.4014 50.9234C26.4754 50.724 26.5123 50.486 26.5123 50.2094C26.5123 49.7945 26.4287 49.4712 26.2615 49.2396C26.0974 49.0048 25.8321 48.8875 25.4654 48.8875C25.221 48.8875 25.02 48.9405 24.8624 49.0467C24.7048 49.1528 24.589 49.304 24.515 49.5002C24.441 49.6964 24.4041 49.9328 24.4041 50.2094ZM28.7758 48.4918C29.0717 48.4918 29.3145 48.5288 29.5043 48.6028C29.694 48.6768 29.8356 48.7877 29.9288 48.9357C30.0221 49.0804 30.0687 49.2638 30.0687 49.4857C30.0687 49.6626 30.035 49.8121 29.9674 49.9344C29.9031 50.0534 29.8195 50.1515 29.7166 50.2287C29.6136 50.3026 29.5059 50.3621 29.3933 50.4072L30.3582 51.9365H29.76L28.9302 50.5422H28.3319V51.9365H27.8109V48.4918H28.7758ZM28.742 48.9357H28.3319V50.108H28.7661C29.0331 50.108 29.2277 50.0582 29.3499 49.9585C29.4721 49.8556 29.5332 49.7044 29.5332 49.505C29.5332 49.3667 29.5043 49.2573 29.4464 49.1769C29.3917 49.0933 29.3049 49.0322 29.1859 48.9936C29.0701 48.955 28.9221 48.9357 28.742 48.9357ZM31.9253 51.9365H30.5889V51.6374L30.999 51.5168V48.9164L30.5889 48.791V48.4918H31.9253V48.791L31.52 48.9164V51.5168L31.9253 51.6374V51.9365ZM34.7115 51.9365H32.2751V51.565L34.0409 48.9405H32.3282V48.4918H34.6681V48.8633L32.9023 51.4878H34.7115V51.9365ZM37.2792 51.9365H35.3397V48.4918H37.2792V48.9357H35.8608V49.9199H37.1923V50.3589H35.8608V51.4878H37.2792V51.9365ZM40.8138 50.1804C40.8138 50.5664 40.7414 50.8896 40.5967 51.1501C40.4519 51.4107 40.2429 51.6069 39.9695 51.7387C39.6993 51.8706 39.3729 51.9365 38.9901 51.9365H38.0252V48.4918H39.0914C39.442 48.4918 39.746 48.5562 40.0033 48.6848C40.2606 48.8135 40.46 49.0032 40.6015 49.2541C40.743 49.5018 40.8138 49.8105 40.8138 50.1804ZM40.2686 50.1949C40.2686 49.9054 40.222 49.6674 40.1287 49.4809C40.0354 49.2943 39.8971 49.156 39.7138 49.066C39.5337 48.9759 39.315 48.9309 39.0577 48.9309H38.5463V51.4975H38.966C39.4002 51.4975 39.725 51.3881 39.9405 51.1694C40.1592 50.9507 40.2686 50.6259 40.2686 50.1949ZM43.7816 48.4918C44.2319 48.4918 44.56 48.5835 44.7658 48.7668C44.9717 48.947 45.0746 49.1994 45.0746 49.5243C45.0746 49.669 45.0505 49.8073 45.0022 49.9392C44.9572 50.0711 44.8816 50.1901 44.7755 50.2962C44.6693 50.3991 44.5278 50.4811 44.3509 50.5422C44.1772 50.6001 43.9633 50.6291 43.7093 50.6291H43.3378V51.9365H42.8167V48.4918H43.7816ZM43.743 48.9309H43.3378V50.1901H43.6514C43.8476 50.1901 44.0116 50.1692 44.1435 50.1273C44.2753 50.0823 44.3734 50.0132 44.4378 49.9199C44.5053 49.8234 44.5391 49.698 44.5391 49.5436C44.5391 49.3377 44.4747 49.185 44.3461 49.0853C44.2206 48.9823 44.0196 48.9309 43.743 48.9309ZM47.6774 51.9365L47.3107 50.9427H45.9792L45.6125 51.9365H45.0722L46.3796 48.4774H46.9199L48.2226 51.9365H47.6774ZM46.8186 49.5195C46.809 49.4841 46.7913 49.431 46.7656 49.3603C46.743 49.2863 46.7205 49.2123 46.698 49.1383C46.6755 49.0611 46.6578 48.9984 46.6449 48.9502C46.6289 49.0145 46.6096 49.0853 46.5871 49.1624C46.5678 49.2364 46.5485 49.3056 46.5292 49.3699C46.5099 49.431 46.4938 49.4809 46.4809 49.5195L46.1336 50.4892H47.166L46.8186 49.5195ZM49.652 48.4918C49.9479 48.4918 50.1908 48.5288 50.3805 48.6028C50.5703 48.6768 50.7118 48.7877 50.8051 48.9357C50.8984 49.0804 50.945 49.2638 50.945 49.4857C50.945 49.6626 50.9112 49.8121 50.8437 49.9344C50.7794 50.0534 50.6957 50.1515 50.5928 50.2287C50.4899 50.3026 50.3821 50.3621 50.2696 50.4072L51.2345 51.9365H50.6362L49.8064 50.5422H49.2082V51.9365H48.6871V48.4918H49.652ZM49.6183 48.9357H49.2082V50.108H49.6424C49.9093 50.108 50.1039 50.0582 50.2261 49.9585C50.3484 49.8556 50.4095 49.7044 50.4095 49.505C50.4095 49.3667 50.3805 49.2573 50.3226 49.1769C50.268 49.0933 50.1811 49.0322 50.0621 48.9936C49.9463 48.955 49.7984 48.9357 49.6183 48.9357ZM52.898 51.9365H52.377V48.9405H51.3445V48.4918H53.9304V48.9405H52.898V51.9365ZM57.2858 51.9365H56.6538L54.9121 49.1528H54.8928C54.8992 49.2364 54.9041 49.3297 54.9073 49.4326C54.9137 49.5355 54.9185 49.6433 54.9218 49.7559C54.9282 49.8684 54.9314 49.9842 54.9314 50.1032V51.9365H54.4586V48.4918H55.0858L56.8226 51.2611H56.8371C56.8339 51.1936 56.8306 51.1083 56.8274 51.0054C56.8242 50.9025 56.8194 50.7931 56.813 50.6773C56.8097 50.5583 56.8065 50.4474 56.8033 50.3444V48.4918H57.2858V51.9365ZM60.1436 51.9365H58.2042V48.4918H60.1436V48.9357H58.7252V49.9199H60.0568V50.3589H58.7252V51.4878H60.1436V51.9365ZM61.8546 48.4918C62.1505 48.4918 62.3933 48.5288 62.5831 48.6028C62.7728 48.6768 62.9144 48.7877 63.0076 48.9357C63.1009 49.0804 63.1475 49.2638 63.1475 49.4857C63.1475 49.6626 63.1138 49.8121 63.0462 49.9344C62.9819 50.0534 62.8983 50.1515 62.7954 50.2287C62.6924 50.3026 62.5847 50.3621 62.4721 50.4072L63.437 51.9365H62.8388L62.009 50.5422H61.4107V51.9365H60.8897V48.4918H61.8546ZM61.8208 48.9357H61.4107V50.108H61.8449C62.1119 50.108 62.3065 50.0582 62.4287 49.9585C62.5509 49.8556 62.612 49.7044 62.612 49.505C62.612 49.3667 62.5831 49.2573 62.5252 49.1769C62.4705 49.0933 62.3837 49.0322 62.2647 48.9936C62.1489 48.955 62.0009 48.9357 61.8208 48.9357Z" fill="white"/>
<path d="M21.2394 62.6084H20.757V59.2045H19.5616V58.781H22.4295V59.2045H21.2394V62.6084ZM25.1454 62.6084H23.0066V58.781H25.1454V59.2045H23.489V60.3999H25.049V60.818H23.489V62.1849H25.1454V62.6084ZM27.6256 59.1509C27.4219 59.1509 27.2378 59.1866 27.0734 59.2581C26.909 59.326 26.7697 59.4278 26.6553 59.5636C26.541 59.6958 26.4534 59.8584 26.3927 60.0514C26.3319 60.2408 26.3015 60.4553 26.3015 60.6947C26.3015 61.0092 26.3498 61.2826 26.4463 61.5148C26.5463 61.7471 26.6928 61.9258 26.8858 62.0509C27.0824 62.176 27.3272 62.2385 27.6202 62.2385C27.7882 62.2385 27.9472 62.2242 28.0973 62.1956C28.2474 62.167 28.3939 62.1313 28.5369 62.0884V62.5065C28.3939 62.5602 28.2456 62.5995 28.0919 62.6245C27.9418 62.6495 27.7614 62.662 27.5505 62.662C27.161 62.662 26.8358 62.5816 26.5749 62.4208C26.314 62.26 26.1175 62.0312 25.9853 61.7346C25.8566 61.438 25.7923 61.0896 25.7923 60.6893C25.7923 60.3999 25.8316 60.1354 25.9102 59.896C25.9924 59.6565 26.1103 59.4493 26.264 59.2741C26.4212 59.099 26.6142 58.965 26.8429 58.8721C27.0717 58.7756 27.3343 58.7274 27.6309 58.7274C27.8275 58.7274 28.0169 58.747 28.1992 58.7863C28.3814 58.8256 28.544 58.881 28.687 58.9525L28.494 59.3599C28.376 59.3063 28.2438 59.2581 28.0973 59.2152C27.9544 59.1723 27.7971 59.1509 27.6256 59.1509ZM32.2991 62.6084H31.8166V60.8233H29.8547V62.6084H29.3722V58.781H29.8547V60.3999H31.8166V58.781H32.2991V62.6084ZM36.3796 62.6084H35.8167L33.769 59.4296H33.7476C33.7547 59.5118 33.7601 59.6101 33.7636 59.7244C33.7708 59.8352 33.7761 59.9549 33.7797 60.0836C33.7869 60.2087 33.7904 60.3373 33.7904 60.4695V62.6084H33.3455V58.781H33.903L35.9454 61.9491H35.9668C35.9632 61.8919 35.9579 61.8061 35.9507 61.6917C35.9472 61.5774 35.9418 61.4523 35.9347 61.3165C35.9311 61.1807 35.9293 61.0556 35.9293 60.9413V58.781H36.3796V62.6084ZM40.7579 60.6893C40.7579 60.9859 40.7204 61.2558 40.6453 61.4988C40.5703 61.7382 40.4577 61.9455 40.3076 62.1206C40.1611 62.2957 39.977 62.4297 39.7555 62.5226C39.5375 62.6155 39.2837 62.662 38.9943 62.662C38.6941 62.662 38.4332 62.6155 38.2116 62.5226C37.9901 62.4261 37.806 62.2921 37.6595 62.1206C37.513 61.9455 37.404 61.7364 37.3325 61.4934C37.261 61.2504 37.2253 60.9806 37.2253 60.684C37.2253 60.2909 37.2896 59.9478 37.4183 59.6547C37.5469 59.3617 37.7417 59.133 38.0026 58.9686C38.267 58.8042 38.5994 58.722 38.9996 58.722C39.382 58.722 39.7036 58.8042 39.9645 58.9686C40.2254 59.1294 40.422 59.3581 40.5542 59.6547C40.69 59.9478 40.7579 60.2926 40.7579 60.6893ZM37.7345 60.6893C37.7345 61.011 37.7792 61.2879 37.8685 61.5202C37.9579 61.7525 38.0955 61.9312 38.2813 62.0563C38.4707 62.1813 38.7084 62.2439 38.9943 62.2439C39.2837 62.2439 39.5196 62.1813 39.7019 62.0563C39.8877 61.9312 40.0253 61.7525 40.1146 61.5202C40.204 61.2879 40.2486 61.011 40.2486 60.6893C40.2486 60.2069 40.1486 59.8299 39.9484 59.5583C39.7483 59.2831 39.432 59.1455 38.9996 59.1455C38.7102 59.1455 38.4707 59.208 38.2813 59.3331C38.0955 59.4546 37.9579 59.6315 37.8685 59.8638C37.7792 60.0925 37.7345 60.3677 37.7345 60.6893ZM41.6062 62.6084V58.781H42.0886V62.1796H43.7611V62.6084H41.6062ZM47.6522 60.6893C47.6522 60.9859 47.6147 61.2558 47.5397 61.4988C47.4646 61.7382 47.352 61.9455 47.202 62.1206C47.0554 62.2957 46.8714 62.4297 46.6498 62.5226C46.4318 62.6155 46.1781 62.662 45.8886 62.662C45.5884 62.662 45.3276 62.6155 45.106 62.5226C44.8844 62.4261 44.7004 62.2921 44.5538 62.1206C44.4073 61.9455 44.2983 61.7364 44.2269 61.4934C44.1554 61.2504 44.1196 60.9806 44.1196 60.684C44.1196 60.2909 44.184 59.9478 44.3126 59.6547C44.4413 59.3617 44.636 59.133 44.8969 58.9686C45.1614 58.8042 45.4937 58.722 45.894 58.722C46.2764 58.722 46.598 58.8042 46.8589 58.9686C47.1198 59.1294 47.3163 59.3581 47.4485 59.6547C47.5843 59.9478 47.6522 60.2926 47.6522 60.6893ZM44.6289 60.6893C44.6289 61.011 44.6736 61.2879 44.7629 61.5202C44.8523 61.7525 44.9898 61.9312 45.1757 62.0563C45.3651 62.1813 45.6027 62.2439 45.8886 62.2439C46.1781 62.2439 46.414 62.1813 46.5962 62.0563C46.782 61.9312 46.9196 61.7525 47.009 61.5202C47.0983 61.2879 47.143 61.011 47.143 60.6893C47.143 60.2069 47.0429 59.8299 46.8428 59.5583C46.6427 59.2831 46.3264 59.1455 45.894 59.1455C45.6045 59.1455 45.3651 59.208 45.1757 59.3331C44.9898 59.4546 44.8523 59.6315 44.7629 59.8638C44.6736 60.0925 44.6289 60.3677 44.6289 60.6893ZM50.1623 60.5875H51.4864V62.4637C51.2791 62.5316 51.07 62.5816 50.8592 62.6138C50.6483 62.6459 50.4089 62.662 50.1409 62.662C49.7442 62.662 49.41 62.5834 49.1384 62.4261C48.8668 62.2653 48.6596 62.0384 48.5166 61.7454C48.3773 61.4487 48.3076 61.0985 48.3076 60.6947C48.3076 60.2944 48.3862 59.9478 48.5434 59.6547C48.7007 59.3617 48.9258 59.1348 49.2189 58.974C49.5155 58.8096 49.8728 58.7274 50.291 58.7274C50.5054 58.7274 50.7073 58.747 50.8967 58.7863C51.0897 58.8256 51.2684 58.881 51.4328 58.9525L51.2505 59.3706C51.1147 59.3099 50.961 59.2581 50.7895 59.2152C50.6215 59.1723 50.4464 59.1509 50.2642 59.1509C49.9604 59.1509 49.6995 59.2134 49.4815 59.3385C49.2635 59.4636 49.0973 59.6422 48.983 59.8745C48.8686 60.1032 48.8115 60.3766 48.8115 60.6947C48.8115 60.9985 48.8597 61.2683 48.9562 61.5041C49.0563 61.7364 49.2117 61.9187 49.4226 62.0509C49.6334 62.1796 49.9104 62.2439 50.2534 62.2439C50.4214 62.2439 50.5643 62.2349 50.6823 62.2171C50.8002 62.1992 50.9074 62.1778 51.0039 62.1528V61.0163H50.1623V60.5875ZM53.3976 60.6625L54.3947 58.781H54.9146L53.6388 61.1235V62.6084H53.1564V61.145L51.8806 58.781H52.4059L53.3976 60.6625Z" fill="black"/>
<path fill-rule="evenodd" clip-rule="evenodd" d="M26.157 34.4157V32.2084C26.157 31.9183 26.3384 31.6853 26.6388 31.6853H26.722C27.0223 31.6853 27.2029 31.9186 27.2029 32.2084V36.8555C27.2029 37.9887 26.6427 38.8904 25.6667 39.4648C25.2195 39.7296 24.7092 39.8687 24.1895 39.8675H23.982C22.848 39.8675 21.9471 39.3072 21.3715 38.3323C21.1062 37.8854 20.9671 37.3751 20.9688 36.8555V36.6484C20.9688 35.5148 21.5291 34.6136 22.5044 34.0381C22.9514 33.7728 23.4621 33.6336 23.982 33.6354H24.1895C24.9569 33.6354 25.608 33.9327 26.157 34.4157ZM22.0145 36.7517C22.0145 37.5703 22.4114 38.1858 23.129 38.5783C23.4192 38.737 23.7342 38.8222 24.0653 38.8222C24.8692 38.8222 25.4654 38.4432 25.8767 37.7623C26.0679 37.4455 26.157 37.099 26.157 36.7305C26.157 36.0209 25.8209 35.4671 25.2488 35.0558C24.9019 34.8065 24.5115 34.6815 24.0857 34.6815C23.2095 34.6815 22.5789 35.1239 22.2005 35.9099C22.0728 36.1757 22.0145 36.4578 22.0145 36.7517ZM30.831 33.6354H30.976C32.1877 33.6354 33.1092 34.2229 33.6932 35.2802C33.9267 35.7031 34.0517 36.1647 34.0517 36.6484V36.8555C34.0517 37.9887 33.4927 38.8916 32.5151 39.4649C32.0626 39.7303 31.5627 39.8675 31.0382 39.8675H30.831C29.697 39.8675 28.7959 39.3072 28.2205 38.3323C27.9551 37.8854 27.8158 37.3751 27.8174 36.8555V36.6484C27.8174 35.5146 28.38 34.6164 29.3529 34.0384C29.8051 33.7698 30.3055 33.6354 30.831 33.6354ZM28.8632 36.7517C28.8632 37.5463 29.2533 38.1308 29.9247 38.5419C30.24 38.7348 30.5873 38.8222 30.9556 38.8222C31.7411 38.8222 32.3217 38.4241 32.7258 37.7615C32.9185 37.4455 33.0057 37.0984 33.0057 36.7305C33.0057 35.9917 32.6497 35.4272 32.041 35.0182C31.7075 34.7938 31.3362 34.6815 30.9345 34.6815C30.0583 34.6815 29.4278 35.1239 29.0495 35.9099C28.9215 36.1757 28.8632 36.4578 28.8632 36.7517ZM38.3994 34.765C38.2415 34.691 37.9459 34.6665 37.7753 34.66C36.9015 34.6271 36.2693 35.119 35.8984 35.8894C35.7704 36.1552 35.7119 36.4364 35.7119 36.7305C35.7119 37.6259 36.1823 38.2528 36.9818 38.635C37.2739 38.7745 37.651 38.8009 37.9702 38.8009C38.2509 38.8009 38.6477 38.6291 38.8969 38.5107L38.94 38.4902H39.1334L39.1548 38.4946C39.3926 38.5441 39.5721 38.6947 39.5721 38.9505V39.054C39.5721 39.6905 38.4084 39.8362 37.9644 39.8672C36.3974 39.9755 35.2255 39.1154 34.7788 37.6214C34.7012 37.362 34.6662 37.1044 34.6662 36.834V36.6272C34.6662 35.4936 35.229 34.5957 36.2017 34.0181C36.654 33.7497 37.1542 33.6148 37.6796 33.6148H37.8869C38.4443 33.6148 38.9577 33.773 39.418 34.0872L39.4557 34.1134L39.4796 34.1528C39.5293 34.2351 39.5721 34.3303 39.5721 34.4282V34.5317C39.5721 34.7986 39.3723 34.9421 39.1313 34.9885L39.1113 34.992H39.0495C38.8935 34.992 38.5387 34.8305 38.3994 34.765ZM41.7916 35.4728C42.1979 35.0662 42.6055 34.6604 43.0178 34.2605C43.1326 34.149 43.5676 33.6768 43.7389 33.6768H43.9262L43.9476 33.6813C44.1862 33.7308 44.3649 33.8817 44.3649 34.1381V34.2414C44.3649 34.4162 44.16 34.6194 44.047 34.7391C43.8068 34.9936 43.5539 35.2398 43.308 35.4891L42.0444 36.7713C42.5884 37.3163 43.132 37.8617 43.6716 38.4109C43.8212 38.5625 43.9697 38.7152 44.1171 38.869C44.169 38.9237 44.2457 38.9917 44.2893 39.0674C44.3361 39.1383 44.3649 39.2183 44.3649 39.3037V39.4116L44.3588 39.4366C44.3001 39.6751 44.1487 39.8675 43.8843 39.8675H43.801C43.628 39.8675 43.4325 39.6719 43.314 39.56C43.0697 39.3299 42.834 39.0879 42.5945 38.8527L41.7916 38.0649V39.3241C41.7916 39.6141 41.6099 39.8472 41.3099 39.8472H41.2276C40.9272 39.8472 40.7458 39.6141 40.7458 39.3241V32.2286C40.7458 31.9386 40.9273 31.7065 41.2276 31.7065H41.3099C41.6099 31.7065 41.7916 31.9386 41.7916 32.2286V35.4728ZM54.8262 33.6768H54.9302C55.2438 33.6768 55.4531 33.8881 55.4531 34.1998C55.4531 34.6326 55.0392 34.7434 54.6811 34.7434C54.2115 34.7434 53.763 35.0276 53.4392 35.3464C53.0355 35.7442 52.8588 36.2538 52.8588 36.8139V39.3446C52.8588 39.6346 52.6776 39.8675 52.377 39.8675H52.2944C51.9938 39.8675 51.8127 39.6348 51.8127 39.3446V36.6686C51.8127 35.641 52.3132 34.8022 53.1475 34.2139C53.6457 33.8624 54.2163 33.6769 54.8262 33.6769V33.6768ZM47.3931 38.6921C47.7737 38.8249 48.2076 38.8059 48.5981 38.7379C48.7978 38.6531 49.3085 38.4303 49.4964 38.463L49.5257 38.468L49.5527 38.4812C49.6674 38.5368 49.7769 38.6154 49.8355 38.7321C49.9723 39.0056 49.9066 39.2805 49.6377 39.4358L49.5482 39.4875C48.5562 40.0597 47.5011 39.9804 46.5122 39.4459C46.0394 39.1904 45.6777 38.8112 45.4109 38.3489L45.3485 38.2408C44.7116 37.1383 44.7976 35.9787 45.5159 34.9304C45.7638 34.568 46.0878 34.2881 46.4667 34.0691L46.61 33.9864C47.5443 33.4473 48.5456 33.4843 49.5051 33.9574C50.021 34.2118 50.439 34.5911 50.727 35.0898L50.7789 35.1797C50.9881 35.542 50.7171 35.8577 50.4373 36.0735C50.1125 36.3239 49.7847 36.6253 49.4735 36.8938C48.7795 37.4926 48.0866 38.0928 47.3931 38.6921ZM46.4949 38.0615C47.271 37.3964 48.0473 36.7307 48.8213 36.0627C49.0859 35.8348 49.3759 35.5981 49.6383 35.3584C49.4277 35.0932 49.076 34.902 48.7772 34.788C48.1739 34.5583 47.5791 34.6355 47.0259 34.9546C46.3018 35.3726 45.9934 36.0381 46.0204 36.8662C46.0312 37.1924 46.1189 37.5068 46.2921 37.7843C46.3531 37.8821 46.4212 37.974 46.4949 38.0615ZM40.8509 17.1138H43.937V20.2672H45.4974C46.2181 20.2672 46.9592 20.1389 47.6416 19.9078C47.977 19.7941 48.3533 19.636 48.6841 19.437C48.2484 18.8685 48.026 18.1507 47.9606 17.4431C47.8716 16.4806 48.0659 15.2278 48.7175 14.4745L49.042 14.0995L49.4285 14.4102C50.4018 15.1917 51.2203 16.2839 51.3646 17.5289C52.5365 17.1844 53.9125 17.2659 54.9454 17.8617L55.3692 18.1062L55.1462 18.5414C54.2726 20.2455 52.4461 20.7735 50.6605 20.68C47.9886 27.3321 42.1714 30.4813 35.1182 30.4813C31.4741 30.4813 28.131 29.1197 26.2272 25.8882L26.196 25.8356L25.9186 25.2714C25.2751 23.849 25.0613 22.2907 25.2063 20.7336L25.2499 20.2672H27.889V17.1138H30.975V14.0291H37.1474V10.9443H40.8509V17.1138Z" fill="#364548"/>
<path fill-rule="evenodd" clip-rule="evenodd" d="M50.8518 18.2802C51.0587 16.6726 49.8552 15.4101 49.1089 14.8105C48.2487 15.8045 48.1151 18.4096 49.4645 19.5063C48.7114 20.1749 47.1246 20.7809 45.4997 20.7809H25.7211C25.5632 22.4763 25.8609 24.0375 26.541 25.3738L26.766 25.7852C26.9085 26.0267 27.0642 26.2602 27.2323 26.4846C28.0455 26.5368 28.7952 26.5547 29.4811 26.5396H29.4814C30.8293 26.5099 31.9292 26.3507 32.7627 26.0621C32.8216 26.0437 32.8854 26.049 32.9405 26.0769C32.9956 26.1047 33.0377 26.1528 33.0579 26.2111C33.0781 26.2694 33.0748 26.3332 33.0488 26.3892C33.0227 26.4451 32.976 26.4887 32.9183 26.5107C32.8074 26.5493 32.6919 26.5852 32.5725 26.6193H32.5721C31.9158 26.8067 31.2119 26.9327 30.3039 26.9887C30.3579 26.9897 30.2478 26.9968 30.2475 26.9968C30.2166 26.9988 30.1777 27.0033 30.1467 27.0049C29.7893 27.025 29.4035 27.0292 29.0092 27.0292C28.5778 27.0292 28.1531 27.0211 27.6781 26.9968L27.666 27.0049C29.3139 28.8563 31.8907 29.9668 35.1207 29.9668C41.9565 29.9668 47.7546 26.9379 50.3222 20.138C52.1437 20.3248 53.8944 19.8605 54.6907 18.3066C53.4222 17.575 51.791 17.8083 50.8518 18.2802Z" fill="#22A0C8"/>
<path fill-rule="evenodd" clip-rule="evenodd" d="M50.8626 18.2802C51.0695 16.6726 49.866 15.4101 49.1196 14.8105C48.2595 15.8045 48.1259 18.4095 49.4753 19.5063C48.7222 20.1749 47.1354 20.7809 45.5105 20.7809H26.9031C26.8224 23.3773 27.7864 25.3481 29.4918 26.5396H29.4922C30.8401 26.5099 31.9399 26.3507 32.7735 26.0621C32.8324 26.0437 32.8962 26.049 32.9512 26.0768C33.0063 26.1047 33.0484 26.1528 33.0686 26.2111C33.0889 26.2694 33.0856 26.3332 33.0596 26.3891C33.0335 26.4451 32.9867 26.4887 32.9291 26.5107C32.8182 26.5493 32.7026 26.5852 32.5833 26.6193H32.5829C31.9266 26.8067 31.1623 26.9489 30.2542 27.0049C30.2539 27.0049 30.2322 26.984 30.2319 26.984C32.5583 28.1768 35.9316 28.1725 39.799 26.6876C44.1355 25.0223 48.1708 21.8499 50.9864 18.2214C50.944 18.2405 50.9027 18.2601 50.8626 18.2802Z" fill="#37B1D9"/>
<path fill-rule="evenodd" clip-rule="evenodd" d="M25.7578 22.8408C25.8806 23.749 26.1465 24.5993 26.5406 25.3738L26.7656 25.7853C26.908 26.0268 27.0637 26.2603 27.2319 26.4846C28.0452 26.5368 28.795 26.5548 29.481 26.5397C30.8289 26.51 31.9287 26.3508 32.7623 26.0621C32.8212 26.0438 32.885 26.0491 32.94 26.0769C32.9951 26.1047 33.0372 26.1528 33.0574 26.2111C33.0777 26.2694 33.0744 26.3333 33.0484 26.3892C33.0223 26.4451 32.9755 26.4887 32.9179 26.5108C32.807 26.5494 32.6914 26.5853 32.5721 26.6194H32.5717C31.9154 26.8068 31.1551 26.9409 30.2471 26.997C30.2159 26.9989 30.1615 26.9993 30.13 27.001C29.7729 27.021 29.3911 27.0333 28.9966 27.0333C28.5654 27.0333 28.1243 27.025 27.6496 27.0009C29.2976 28.8523 31.8903 29.9668 35.1203 29.9668C40.9724 29.9668 46.0639 27.7465 49.019 22.8408H25.7578Z" fill="#1B81A5"/>
<path fill-rule="evenodd" clip-rule="evenodd" d="M27.0703 22.8408C27.4201 24.4351 28.2608 25.6867 29.4813 26.539C30.8293 26.5093 31.9291 26.3501 32.7626 26.0615C32.8216 26.0432 32.8853 26.0485 32.9404 26.0763C32.9955 26.1041 33.0376 26.1522 33.0578 26.2105C33.078 26.2688 33.0748 26.3326 33.0487 26.3885C33.0227 26.4445 32.9759 26.4881 32.9183 26.5101C32.8073 26.5487 32.6918 26.5846 32.5725 26.6187H32.5721C31.9157 26.806 31.1394 26.9401 30.2312 26.9962C32.5575 28.1886 35.921 28.1714 39.7882 26.6869C42.1277 25.7886 44.3793 24.4514 46.3993 22.8408H27.0703Z" fill="#1D91B4"/>
<path fill-rule="evenodd" clip-rule="evenodd" d="M28.3984 17.6277H31.0732V20.3013H28.3984V17.6277ZM28.6213 17.8506H28.8324V20.0785H28.6213V17.8506ZM29.0181 17.8506H29.2377V20.0785H29.0182V17.8506H29.0181ZM29.4232 17.8506H29.6428V20.0785H29.4232V17.8506ZM29.8287 17.8506H30.0481V20.0785H29.8287V17.8506ZM30.234 17.8506H30.4534V20.0785H30.234V17.8506ZM30.6391 17.8506H30.8504V20.0785H30.6391V17.8506ZM31.4846 14.543H34.1595V17.2164H31.4844V14.543H31.4846ZM31.7075 14.7658H31.9185V16.9937H31.7075V14.7658ZM32.1043 14.7658H32.3238V16.9937H32.1045V14.7658H32.1043ZM32.5095 14.7658H32.729V16.9937H32.5095V14.7658ZM32.9148 14.7658H33.1343V16.9937H32.9148V14.7658ZM33.3201 14.7658H33.5397V16.9937H33.3201V14.7658ZM33.7253 14.7658H33.9366V16.9937H33.7253V14.7658Z" fill="#23A3C2"/>
<path fill-rule="evenodd" clip-rule="evenodd" d="M31.4923 17.627H34.1672V20.3H31.4922V17.627H31.4923ZM31.7153 17.8498H31.9262V20.0773H31.7153V17.8498ZM32.1121 17.8498H32.3315V20.0773H32.1122V17.8498H32.1121ZM32.5173 17.8498H32.7367V20.0773H32.5173V17.8498ZM32.9226 17.8498H33.142V20.0773H32.9226V17.8498ZM33.3279 17.8498H33.5475V20.0773H33.3279V17.8498ZM33.733 17.8498H33.9444V20.0773H33.733V17.8498Z" fill="#34BBDE"/>
<path fill-rule="evenodd" clip-rule="evenodd" d="M34.5781 17.627H37.2529V20.3H34.5781V17.627ZM34.801 17.8498H35.0119V20.0773H34.801V17.8498ZM35.1978 17.8498H35.4172V20.0773H35.1978V17.8498ZM35.6031 17.8498H35.8225V20.0773H35.6031V17.8498ZM36.0084 17.8498H36.2278V20.0773H36.0084V17.8498ZM36.4135 17.8498H36.6333V20.0773H36.4135V17.8498ZM36.8188 17.8498H37.0299V20.0773H36.8188V17.8498Z" fill="#23A3C2"/>
<path fill-rule="evenodd" clip-rule="evenodd" d="M34.5781 14.543H37.2529V17.2164H34.5781V14.543ZM34.801 14.7658H35.0119V16.9937H34.801V14.7658ZM35.1978 14.7658H35.4172V16.9937H35.1978V14.7658ZM35.6031 14.7658H35.8225V16.9937H35.6031V14.7658ZM36.0084 14.7658H36.2278V16.9937H36.0084V14.7658ZM36.4135 14.7658H36.6333V16.9937H36.4135V14.7658ZM36.8188 14.7658H37.0299V16.9937H36.8188V14.7658ZM37.6643 17.6277H40.339V20.3013H37.6643V17.6277ZM37.8872 17.8506H38.0982V20.0785H37.8872V17.8506ZM38.284 17.8506H38.5035V20.0785H38.284V17.8506ZM38.6892 17.8506H38.9086V20.0785H38.6892V17.8506ZM39.0945 17.8506H39.3141V20.0785H39.0945V17.8506ZM39.4998 17.8506H39.7194V20.0785H39.4998V17.8506ZM39.9051 17.8506H40.1162V20.0785H39.9051V17.8506Z" fill="#34BBDE"/>
<path fill-rule="evenodd" clip-rule="evenodd" d="M37.6641 14.543H40.3388V17.2159H37.6641V14.543ZM37.887 14.7658H38.098V16.9932H37.887V14.7658ZM38.2838 14.7658H38.5033V16.9932H38.2838V14.7658ZM38.689 14.7658H38.9084V16.9932H38.689V14.7658ZM39.0943 14.7658H39.3139V16.9932H39.0943V14.7658ZM39.4996 14.7658H39.7192V16.9932H39.4996V14.7658ZM39.9049 14.7658H40.116V16.9932H39.9049V14.7658Z" fill="#23A3C2"/>
<path fill-rule="evenodd" clip-rule="evenodd" d="M37.6641 11.459H40.3388V14.1323H37.6641V11.459ZM37.887 11.6817H38.098V13.9094H37.887V11.6815V11.6817ZM38.2838 11.6817H38.5033V13.9094H38.2838V11.6815V11.6817ZM38.689 11.6817H38.9084V13.9094H38.689V11.6815V11.6817ZM39.0943 11.6817H39.3139V13.9094H39.0943V11.6815V11.6817ZM39.4996 11.6817H39.7192V13.9094H39.4996V11.6815V11.6817ZM39.9049 11.6817H40.116V13.9094H39.9049V11.6815V11.6817Z" fill="#34BBDE"/>
<path fill-rule="evenodd" clip-rule="evenodd" d="M40.75 17.6279H43.4248V20.301H40.75V17.6279ZM40.9727 17.8508H41.1839V20.0783H40.9728V17.8508H40.9727ZM41.3695 17.8508H41.5891V20.0783H41.3696V17.8508H41.3695ZM41.7749 17.8508H41.9945V20.0783H41.7749V17.8508ZM42.1801 17.8508H42.3997V20.0783H42.1801V17.8508ZM42.5855 17.8508H42.805V20.0783H42.5855V17.8508ZM42.9907 17.8508H43.2018V20.0783H42.9907V17.8508Z" fill="#23A3C2"/>
<path fill-rule="evenodd" clip-rule="evenodd" d="M33.9945 24.6358C34.0923 24.6345 34.1895 24.6526 34.2802 24.6891C34.371 24.7256 34.4536 24.7798 34.5233 24.8485C34.5929 24.9171 34.6482 24.9989 34.6859 25.0891C34.7237 25.1793 34.7431 25.276 34.7431 25.3738C34.7431 25.4715 34.7236 25.5683 34.6858 25.6585C34.6481 25.7486 34.5927 25.8304 34.5231 25.8991C34.4534 25.9677 34.3708 26.0218 34.28 26.0583C34.1892 26.0948 34.0921 26.1128 33.9942 26.1115C33.8001 26.1088 33.6147 26.0299 33.4784 25.8918C33.342 25.7537 33.2656 25.5675 33.2656 25.3735C33.2657 25.1795 33.3422 24.9934 33.4786 24.8553C33.615 24.7173 33.8003 24.6384 33.9945 24.6358Z" fill="#D3ECEC"/>
<path fill-rule="evenodd" clip-rule="evenodd" d="M33.9971 24.8453C34.0646 24.8453 34.1289 24.858 34.1883 24.8811C34.1473 24.9049 34.1153 24.9414 34.0973 24.9852C34.0792 25.029 34.076 25.0775 34.0883 25.1232C34.1005 25.169 34.1275 25.2094 34.1651 25.2383C34.2026 25.2672 34.2486 25.2829 34.296 25.283C34.3777 25.283 34.4485 25.2378 34.4853 25.1709C34.5287 25.2756 34.5374 25.3914 34.5099 25.5013C34.4824 25.6113 34.4203 25.7094 34.3327 25.7814C34.2451 25.8533 34.1367 25.8952 34.0235 25.9008C33.9102 25.9064 33.7982 25.8755 33.7039 25.8126C33.6096 25.7497 33.5381 25.6582 33.4998 25.5515C33.4616 25.4449 33.4587 25.3287 33.4915 25.2203C33.5244 25.1119 33.5913 25.0169 33.6823 24.9494C33.7734 24.8818 33.8837 24.8454 33.9971 24.8453ZM20.9453 23.1079H55.2708C54.5235 22.9186 52.9062 22.6626 53.1729 21.6836C51.8138 23.2552 48.5364 22.7862 47.7092 22.0114C46.7882 23.3464 41.426 22.8388 41.052 21.7988C39.8973 23.1531 36.3192 23.1531 35.1644 21.7988C34.7901 22.8388 29.4281 23.3464 28.5069 22.0112C27.6799 22.7862 24.4026 23.2552 23.0435 21.6837C23.3102 22.6626 21.6929 22.9186 20.9453 23.1081" fill="#364548"/>
<path fill-rule="evenodd" clip-rule="evenodd" d="M35.9651 29.9509C34.1376 29.0843 33.1347 27.9061 32.5766 26.6201C31.8977 26.8137 31.0819 26.9375 30.1337 26.9906C29.7766 27.0106 29.4009 27.0208 29.0068 27.0208C28.5522 27.0208 28.0732 27.0074 27.5703 26.9808C29.2462 28.6547 31.3078 29.9433 35.1252 29.9668C35.407 29.9668 35.6866 29.9614 35.9651 29.9509Z" fill="#BDD9D7"/>
<path fill-rule="evenodd" clip-rule="evenodd" d="M33.2544 27.8061C33.0017 27.4631 32.7564 27.032 32.5761 26.6191C31.8972 26.813 31.0811 26.9368 30.1328 26.9901C30.7842 27.3433 31.7156 27.6707 33.2546 27.8061" fill="#D3ECEC"/>
</svg>
