<svg width="95" height="54" viewBox="0 0 95 54" fill="none" xmlns="http://www.w3.org/2000/svg">
<g opacity="0.5">
<rect x="1" y="1.00195" width="93" height="51.9981" rx="2" fill="#070D18"/>
<rect x="0.563578" y="0.565531" width="93.8728" height="52.8709" rx="2.43642" stroke="white" stroke-opacity="0.3" stroke-width="0.872845"/>
</g>
<path d="M34.148 28.7363L31.7845 21.6819H31.7363C31.7443 21.8426 31.7563 22.0718 31.7724 22.3692C31.7885 22.6586 31.8006 22.9762 31.8086 23.3219C31.8247 23.6595 31.8327 23.9771 31.8327 24.2745V28.7363H30.4459V20.1263H32.5924L34.8595 26.8913H34.9077L37.2713 20.1263H39.4178V28.7363H37.9466V24.2022C37.9466 23.9288 37.9506 23.6314 37.9587 23.3098C37.9747 22.9802 37.9868 22.6707 37.9948 22.3813C38.0109 22.0838 38.023 21.8547 38.031 21.6939H37.9828L35.5228 28.7363H34.148ZM43.0199 22.2004V28.7363H41.5005V22.2004H43.0199ZM42.2602 19.6801C42.4853 19.6801 42.6823 19.7404 42.8511 19.861C43.0199 19.9735 43.1043 20.1785 43.1043 20.476C43.1043 20.7654 43.0199 20.9744 42.8511 21.103C42.6823 21.2236 42.4853 21.2839 42.2602 21.2839C42.0271 21.2839 41.8261 21.2236 41.6573 21.103C41.4965 20.9744 41.4161 20.7654 41.4161 20.476C41.4161 20.1785 41.4965 19.9735 41.6573 19.861C41.8261 19.7404 42.0271 19.6801 42.2602 19.6801ZM47.6036 28.8569C46.9846 28.8569 46.446 28.7403 45.9877 28.5072C45.5375 28.266 45.1878 27.9002 44.9386 27.4098C44.6974 26.9114 44.5768 26.2763 44.5768 25.5045C44.5768 24.7006 44.7095 24.0494 44.9748 23.551C45.2481 23.0445 45.6219 22.6747 46.0963 22.4416C46.5706 22.2004 47.1132 22.0798 47.7242 22.0798C48.1342 22.0798 48.5 22.12 48.8216 22.2004C49.1431 22.2808 49.4165 22.3773 49.6416 22.4898L49.1954 23.6836C48.9462 23.5872 48.697 23.5068 48.4477 23.4425C48.1985 23.3701 47.9573 23.3339 47.7242 23.3339C47.3624 23.3339 47.061 23.4143 46.8198 23.5751C46.5866 23.7359 46.4138 23.9771 46.3013 24.2986C46.1887 24.6122 46.1324 25.0101 46.1324 25.4925C46.1324 25.9588 46.1887 26.3487 46.3013 26.6622C46.4218 26.9757 46.5987 27.2129 46.8318 27.3737C47.065 27.5264 47.3544 27.6028 47.7001 27.6028C48.0699 27.6028 48.3955 27.5586 48.6769 27.4701C48.9582 27.3817 49.2235 27.2611 49.4727 27.1084V28.4228C49.2235 28.5755 48.9542 28.6841 48.6648 28.7484C48.3834 28.8207 48.0297 28.8569 47.6036 28.8569ZM54.4287 22.0798C54.5251 22.0798 54.6377 22.0838 54.7663 22.0919C54.895 22.0999 55.0035 22.116 55.0919 22.1401L54.9593 23.551C54.8869 23.5349 54.7904 23.5229 54.6699 23.5148C54.5573 23.4987 54.4568 23.4907 54.3684 23.4907C54.1272 23.4907 53.8941 23.5309 53.669 23.6113C53.4519 23.6836 53.2549 23.7962 53.0781 23.9489C52.9093 24.0936 52.7726 24.2826 52.6681 24.5157C52.5716 24.7488 52.5234 25.0262 52.5234 25.3478V28.7363H51.0039V22.2004H52.1737L52.3907 23.3339H52.4631C52.5917 23.1008 52.7525 22.8918 52.9454 22.7069C53.1384 22.5139 53.3595 22.3612 53.6087 22.2486C53.8659 22.1361 54.1393 22.0798 54.4287 22.0798ZM61.9043 25.4563C61.9043 26.003 61.8319 26.4853 61.6872 26.9034C61.5425 27.3214 61.3335 27.6792 61.0601 27.9766C60.7948 28.266 60.4652 28.4871 60.0713 28.6399C59.6854 28.7846 59.2553 28.8569 58.781 28.8569C58.3308 28.8569 57.9168 28.7846 57.5389 28.6399C57.1611 28.4871 56.8315 28.266 56.5501 27.9766C56.2768 27.6792 56.0637 27.3214 55.911 26.9034C55.7582 26.4853 55.6819 26.003 55.6819 25.4563C55.6819 24.7328 55.8065 24.1218 56.0557 23.6233C56.3049 23.1169 56.6627 22.735 57.1289 22.4778C57.6033 22.2125 58.162 22.0798 58.8051 22.0798C59.4161 22.0798 59.9507 22.2125 60.409 22.4778C60.8752 22.735 61.241 23.1169 61.5063 23.6233C61.7716 24.1218 61.9043 24.7328 61.9043 25.4563ZM57.2375 25.4563C57.2375 25.9145 57.2897 26.3085 57.3942 26.6381C57.5068 26.9596 57.6756 27.2048 57.9007 27.3737C58.1338 27.5425 58.4313 27.6269 58.7931 27.6269C59.1629 27.6269 59.4603 27.5425 59.6854 27.3737C59.9186 27.2048 60.0874 26.9596 60.1919 26.6381C60.2964 26.3085 60.3487 25.9145 60.3487 25.4563C60.3487 24.99 60.2924 24.6001 60.1798 24.2866C60.0753 23.965 59.9065 23.7238 59.6734 23.5631C59.4483 23.3942 59.1548 23.3098 58.7931 23.3098C58.2464 23.3098 57.8484 23.4947 57.5992 23.8645C57.3581 24.2343 57.2375 24.7649 57.2375 25.4563ZM67.9248 26.8431C67.9248 27.2772 67.8203 27.647 67.6112 27.9525C67.4022 28.25 67.0927 28.4751 66.6827 28.6278C66.2807 28.7805 65.7863 28.8569 65.1995 28.8569C64.7412 28.8569 64.3473 28.8248 64.0177 28.7604C63.6881 28.6961 63.3745 28.5956 63.0771 28.459V27.1687C63.3987 27.3214 63.7564 27.45 64.1503 27.5546C64.5443 27.6591 64.91 27.7113 65.2477 27.7113C65.6657 27.7113 65.9672 27.647 66.1521 27.5184C66.337 27.3897 66.4295 27.2169 66.4295 26.9998C66.4295 26.8712 66.3933 26.7546 66.3209 26.6501C66.2486 26.5456 66.1079 26.4371 65.8989 26.3245C65.6899 26.204 65.3723 26.0552 64.9462 25.8784C64.5282 25.7095 64.1785 25.5407 63.8971 25.3719C63.6238 25.2031 63.4147 25.0021 63.27 24.7689C63.1334 24.5278 63.065 24.2263 63.065 23.8645C63.065 23.2777 63.2982 22.8355 63.7644 22.538C64.2307 22.2326 64.8457 22.0798 65.6095 22.0798C66.0114 22.0798 66.3893 22.12 66.743 22.2004C67.1048 22.2727 67.4665 22.3933 67.8283 22.5622L67.3459 23.6836C67.0485 23.555 66.751 23.4465 66.4536 23.3581C66.1642 23.2696 65.8667 23.2254 65.5612 23.2254C65.2316 23.2254 64.9824 23.2777 64.8136 23.3822C64.6447 23.4786 64.5603 23.6153 64.5603 23.7922C64.5603 23.9288 64.6005 24.0494 64.6809 24.1539C64.7694 24.2504 64.9181 24.3509 65.1271 24.4554C65.3442 24.5519 65.6497 24.6805 66.0436 24.8413C66.4375 24.994 66.7711 25.1548 67.0445 25.3237C67.3258 25.4844 67.5429 25.6854 67.6957 25.9266C67.8484 26.1678 67.9248 26.4733 67.9248 26.8431ZM75.2232 25.4563C75.2232 26.003 75.1509 26.4853 75.0062 26.9034C74.8615 27.3214 74.6524 27.6792 74.3791 27.9766C74.1138 28.266 73.7842 28.4871 73.3903 28.6399C73.0044 28.7846 72.5743 28.8569 72.1 28.8569C71.6498 28.8569 71.2358 28.7846 70.8579 28.6399C70.4801 28.4871 70.1505 28.266 69.8691 27.9766C69.5957 27.6792 69.3827 27.3214 69.23 26.9034C69.0772 26.4853 69.0008 26.003 69.0008 25.4563C69.0008 24.7328 69.1254 24.1218 69.3747 23.6233C69.6239 23.1169 69.9816 22.735 70.4479 22.4778C70.9222 22.2125 71.481 22.0798 72.1241 22.0798C72.7351 22.0798 73.2697 22.2125 73.7279 22.4778C74.1942 22.735 74.56 23.1169 74.8253 23.6233C75.0906 24.1218 75.2232 24.7328 75.2232 25.4563ZM70.5564 25.4563C70.5564 25.9145 70.6087 26.3085 70.7132 26.6381C70.8258 26.9596 70.9946 27.2048 71.2197 27.3737C71.4528 27.5425 71.7503 27.6269 72.112 27.6269C72.4818 27.6269 72.7793 27.5425 73.0044 27.3737C73.2375 27.2048 73.4064 26.9596 73.5109 26.6381C73.6154 26.3085 73.6676 25.9145 73.6676 25.4563C73.6676 24.99 73.6114 24.6001 73.4988 24.2866C73.3943 23.965 73.2255 23.7238 72.9923 23.5631C72.7672 23.3942 72.4738 23.3098 72.112 23.3098C71.5654 23.3098 71.1674 23.4947 70.9182 23.8645C70.677 24.2343 70.5564 24.7649 70.5564 25.4563ZM80.1826 23.346H78.6028V28.7363H77.0834V23.346H76.0343V22.6225L77.0834 22.1883V21.7422C77.0834 21.1794 77.1719 20.7372 77.3487 20.4157C77.5256 20.0941 77.7828 19.865 78.1205 19.7283C78.4581 19.5836 78.8561 19.5113 79.3143 19.5113C79.6359 19.5113 79.9253 19.5394 80.1826 19.5957C80.4398 19.6439 80.6529 19.7002 80.8217 19.7645L80.4358 20.898C80.2991 20.8578 80.1464 20.8217 79.9776 20.7895C79.8168 20.7493 79.6399 20.7292 79.447 20.7292C79.1576 20.7292 78.9445 20.8217 78.8078 21.0066C78.6712 21.1915 78.6028 21.4487 78.6028 21.7783V22.2004H80.1826V23.346ZM83.8014 27.639C83.9943 27.639 84.1792 27.6229 84.3561 27.5907C84.5329 27.5505 84.6977 27.5063 84.8505 27.4581V28.5916C84.6897 28.664 84.4807 28.7243 84.2234 28.7725C83.9662 28.8288 83.6969 28.8569 83.4155 28.8569C83.0457 28.8569 82.708 28.7966 82.4025 28.676C82.1051 28.5474 81.8639 28.3303 81.679 28.0249C81.5021 27.7194 81.4137 27.2933 81.4137 26.7466V23.346H80.5334V22.6828L81.4981 22.1522L81.9805 20.7654H82.9331V22.2004H84.7902V23.346H82.9331V26.7345C82.9331 27.04 83.0135 27.2692 83.1743 27.4219C83.3351 27.5666 83.5441 27.639 83.8014 27.639Z" fill="#E8E8E8"/>
<path d="M33.8784 34.5707C33.8784 34.9498 33.7866 35.2725 33.603 35.539C33.4195 35.8055 33.1559 36.0127 32.8125 36.1608C32.469 36.3029 32.0604 36.374 31.5866 36.374C31.3556 36.374 31.1336 36.3592 30.9204 36.3296C30.7072 36.3059 30.5088 36.2704 30.3252 36.223C30.1416 36.1756 29.9788 36.1164 29.8367 36.0453V35.1393C30.0735 35.2458 30.3519 35.3436 30.6717 35.4324C30.9914 35.5153 31.3172 35.5568 31.6488 35.5568C31.933 35.5568 32.1699 35.5183 32.3594 35.4413C32.5489 35.3643 32.6911 35.2577 32.7858 35.1215C32.8806 34.9853 32.9279 34.8254 32.9279 34.6418C32.9279 34.4464 32.8776 34.2835 32.7769 34.1532C32.6822 34.017 32.5312 33.8927 32.3239 33.7802C32.1225 33.6617 31.8501 33.5374 31.5067 33.4071C31.2698 33.3182 31.0536 33.2205 30.8582 33.1139C30.6687 33.0014 30.4999 32.8711 30.3519 32.7231C30.2097 32.575 30.1002 32.4033 30.0232 32.2079C29.9462 32.0124 29.9077 31.7845 29.9077 31.5239C29.9077 31.1745 29.9936 30.8754 30.1653 30.6267C30.343 30.378 30.5858 30.1885 30.8937 30.0582C31.2017 29.922 31.56 29.8539 31.9686 29.8539C32.312 29.8539 32.6289 29.8894 32.9191 29.9605C33.2151 30.0256 33.4964 30.1174 33.7629 30.2359L33.4609 31.0264C33.2181 30.9258 32.9723 30.8429 32.7236 30.7777C32.4749 30.7126 32.2143 30.68 31.9419 30.68C31.705 30.68 31.5067 30.7155 31.3468 30.7866C31.1869 30.8577 31.0655 30.9554 30.9826 31.0797C30.9056 31.2041 30.8671 31.3492 30.8671 31.515C30.8671 31.7104 30.9115 31.8733 31.0003 32.0036C31.0892 32.1339 31.2313 32.2553 31.4267 32.3678C31.6221 32.4744 31.8797 32.5928 32.1995 32.7231C32.5548 32.8593 32.8569 33.0073 33.1056 33.1672C33.3602 33.3271 33.5527 33.5196 33.683 33.7446C33.8133 33.9637 33.8784 34.2391 33.8784 34.5707ZM35.9553 31.4972V36.2852H35.0137V31.4972H35.9553ZM35.4934 29.6762C35.6355 29.6762 35.7599 29.7177 35.8665 29.8006C35.9731 29.8835 36.0264 30.0227 36.0264 30.2181C36.0264 30.4076 35.9731 30.5468 35.8665 30.6356C35.7599 30.7185 35.6355 30.76 35.4934 30.76C35.3394 30.76 35.2091 30.7185 35.1025 30.6356C35.0019 30.5468 34.9515 30.4076 34.9515 30.2181C34.9515 30.0227 35.0019 29.8835 35.1025 29.8006C35.2091 29.7177 35.3394 29.6762 35.4934 29.6762ZM38.3756 36.2852H37.434V29.5341H38.3756V36.2852ZM40.9291 36.2852L39.1169 31.4972H40.1118L41.1067 34.2954C41.1482 34.4138 41.1896 34.5471 41.2311 34.6951C41.2785 34.8432 41.3199 34.9853 41.3554 35.1215C41.391 35.2577 41.4147 35.3761 41.4265 35.4768H41.462C41.4798 35.3761 41.5064 35.2577 41.542 35.1215C41.5834 34.9794 41.6278 34.8372 41.6752 34.6951C41.7226 34.5471 41.7641 34.4138 41.7996 34.2954L42.7945 31.4972H43.7894L41.9684 36.2852H40.9291ZM46.4131 31.4084C46.8336 31.4084 47.1948 31.4972 47.4968 31.6749C47.7988 31.8466 48.0298 32.0954 48.1897 32.4211C48.3555 32.7468 48.4384 33.1317 48.4384 33.5759V34.0911H45.2228C45.2346 34.5826 45.362 34.9586 45.6048 35.2192C45.8535 35.4798 46.1999 35.6101 46.6441 35.6101C46.952 35.6101 47.2244 35.5834 47.4613 35.5301C47.7041 35.4709 47.9528 35.385 48.2075 35.2725V36.0542C47.9706 36.1608 47.7278 36.2407 47.4791 36.294C47.2363 36.3473 46.9461 36.374 46.6085 36.374C46.1466 36.374 45.738 36.2822 45.3827 36.0986C45.0274 35.915 44.749 35.6426 44.5477 35.2814C44.3523 34.9142 44.2545 34.4641 44.2545 33.9312C44.2545 33.3923 44.3434 32.9363 44.521 32.5632C44.7046 32.1901 44.9563 31.9059 45.2761 31.7104C45.6018 31.5091 45.9808 31.4084 46.4131 31.4084ZM46.4131 32.1368C46.0756 32.1368 45.8031 32.2464 45.5959 32.4655C45.3945 32.6846 45.2761 32.9955 45.2406 33.3982H47.4968C47.4968 33.1495 47.4583 32.9304 47.3814 32.7409C47.3044 32.5513 47.1859 32.4033 47.026 32.2967C46.8661 32.1901 46.6618 32.1368 46.4131 32.1368ZM51.9762 31.4084C52.0591 31.4084 52.1509 31.4143 52.2516 31.4262C52.3522 31.4321 52.4352 31.441 52.5003 31.4528L52.4026 32.3322C52.3374 32.3145 52.2605 32.2997 52.1716 32.2878C52.0828 32.276 51.9999 32.2701 51.9229 32.2701C51.7452 32.2701 51.5735 32.3056 51.4077 32.3767C51.2478 32.4418 51.1027 32.5395 50.9724 32.6698C50.8421 32.7942 50.7385 32.9481 50.6615 33.1317C50.5905 33.3153 50.5549 33.5255 50.5549 33.7624V36.2852H49.6133V31.4972H50.3595L50.4839 32.35H50.5194C50.6201 32.1783 50.7415 32.0213 50.8836 31.8792C51.0257 31.7371 51.1886 31.6246 51.3722 31.5417C51.5557 31.4528 51.7571 31.4084 51.9762 31.4084Z" fill="#C4C4C4"/>
<path d="M57.5775 29.9427C58.4066 29.9427 59.0107 30.1115 59.3897 30.449C59.7687 30.7807 59.9582 31.2456 59.9582 31.8437C59.9582 32.1102 59.9138 32.3648 59.8249 32.6076C59.742 32.8504 59.6029 33.0695 59.4074 33.2649C59.212 33.4545 58.9514 33.6055 58.6257 33.718C58.3059 33.8246 57.9121 33.8779 57.4443 33.8779H56.7603V36.2852H55.8009V29.9427H57.5775ZM57.5065 30.7511H56.7603V33.0695H57.3377C57.6989 33.0695 58.001 33.031 58.2438 32.954C58.4866 32.8711 58.6672 32.7438 58.7856 32.5721C58.91 32.3944 58.9722 32.1635 58.9722 31.8792C58.9722 31.5002 58.8537 31.2189 58.6168 31.0353C58.3859 30.8458 58.0158 30.7511 57.5065 30.7511ZM62.99 31.4084C63.594 31.4084 64.0441 31.5417 64.3402 31.8081C64.6363 32.0687 64.7843 32.4803 64.7843 33.0429V36.2852H64.1181L63.9316 35.6189H63.896C63.7598 35.7907 63.6177 35.9328 63.4696 36.0453C63.3275 36.1578 63.1617 36.2407 62.9722 36.294C62.7886 36.3473 62.5636 36.374 62.2971 36.374C62.0128 36.374 61.7552 36.3236 61.5243 36.223C61.2992 36.1164 61.1216 35.9565 60.9913 35.7433C60.861 35.5242 60.7959 35.2518 60.7959 34.9261C60.7959 34.4405 60.9795 34.0703 61.3466 33.8157C61.7197 33.561 62.2853 33.4219 63.0433 33.3982L63.8605 33.3715V33.1051C63.8605 32.7497 63.7806 32.501 63.6207 32.3589C63.4608 32.2168 63.2357 32.1457 62.9456 32.1457C62.6968 32.1457 62.46 32.1812 62.2349 32.2523C62.0099 32.3234 61.7967 32.4092 61.5953 32.5099L61.2933 31.8259C61.5184 31.7075 61.776 31.6098 62.0661 31.5328C62.3622 31.4499 62.6702 31.4084 62.99 31.4084ZM63.212 34.0022C62.6672 34.0259 62.2882 34.1177 62.075 34.2776C61.8678 34.4316 61.7641 34.6507 61.7641 34.9349C61.7641 35.1837 61.8381 35.3643 61.9862 35.4768C62.1402 35.5893 62.3326 35.6456 62.5636 35.6456C62.9367 35.6456 63.2446 35.5419 63.4874 35.3347C63.7302 35.1274 63.8516 34.8165 63.8516 34.402V33.9845L63.212 34.0022ZM68.5971 31.4084C68.68 31.4084 68.7718 31.4143 68.8724 31.4262C68.9731 31.4321 69.056 31.441 69.1212 31.4528L69.0234 32.3322C68.9583 32.3145 68.8813 32.2997 68.7925 32.2878C68.7037 32.276 68.6207 32.2701 68.5438 32.2701C68.3661 32.2701 68.1944 32.3056 68.0286 32.3767C67.8687 32.4418 67.7236 32.5395 67.5933 32.6698C67.463 32.7942 67.3594 32.9481 67.2824 33.1317C67.2113 33.3153 67.1758 33.5255 67.1758 33.7624V36.2852H66.2342V31.4972H66.9804L67.1047 32.35H67.1403C67.2409 32.1783 67.3623 32.0213 67.5045 31.8792C67.6466 31.7371 67.8094 31.6246 67.993 31.5417C68.1766 31.4528 68.3779 31.4084 68.5971 31.4084ZM71.731 35.6101C71.8554 35.6101 71.9827 35.5982 72.113 35.5745C72.2433 35.5508 72.3558 35.5242 72.4505 35.4946V36.2052C72.3499 36.2526 72.2137 36.2911 72.0419 36.3207C71.8702 36.3562 71.6984 36.374 71.5267 36.374C71.2661 36.374 71.0263 36.3296 70.8072 36.2407C70.594 36.1519 70.4223 35.9979 70.292 35.7788C70.1617 35.5597 70.0966 35.2547 70.0966 34.8639V32.2168H69.4303V31.7904L70.1321 31.4351L70.4608 30.4224H71.0381V31.4972H72.4061V32.2168H71.0381V34.8461C71.0381 35.1067 71.1003 35.2991 71.2247 35.4235C71.355 35.5479 71.5237 35.6101 71.731 35.6101ZM75.8333 31.4084C76.3899 31.4084 76.8163 31.5476 77.1124 31.8259C77.4085 32.1042 77.5566 32.5513 77.5566 33.1672V36.2852H76.6239V33.3005C76.6239 32.9274 76.5439 32.6491 76.384 32.4655C76.2301 32.276 75.9813 32.1812 75.6379 32.1812C75.1523 32.1812 74.8147 32.3263 74.6252 32.6165C74.4416 32.9067 74.3498 33.3242 74.3498 33.869V36.2852H73.4082V31.4972H74.1544L74.2876 32.1368H74.3409C74.4475 31.971 74.5778 31.8348 74.7318 31.7282C74.8858 31.6216 75.0575 31.5417 75.247 31.4884C75.4365 31.4351 75.6319 31.4084 75.8333 31.4084ZM80.8866 31.4084C81.3071 31.4084 81.6683 31.4972 81.9704 31.6749C82.2724 31.8466 82.5033 32.0954 82.6632 32.4211C82.8291 32.7468 82.912 33.1317 82.912 33.5759V34.0911H79.6963C79.7082 34.5826 79.8355 34.9586 80.0783 35.2192C80.327 35.4798 80.6735 35.6101 81.1176 35.6101C81.4255 35.6101 81.698 35.5834 81.9348 35.5301C82.1776 35.4709 82.4264 35.385 82.681 35.2725V36.0542C82.4441 36.1608 82.2013 36.2407 81.9526 36.294C81.7098 36.3473 81.4196 36.374 81.0821 36.374C80.6202 36.374 80.2115 36.2822 79.8562 36.0986C79.5009 35.915 79.2226 35.6426 79.0212 35.2814C78.8258 34.9142 78.7281 34.4641 78.7281 33.9312C78.7281 33.3923 78.8169 32.9363 78.9946 32.5632C79.1782 32.1901 79.4298 31.9059 79.7496 31.7104C80.0753 31.5091 80.4543 31.4084 80.8866 31.4084ZM80.8866 32.1368C80.5491 32.1368 80.2767 32.2464 80.0694 32.4655C79.8681 32.6846 79.7496 32.9955 79.7141 33.3982H81.9704C81.9704 33.1495 81.9319 32.9304 81.8549 32.7409C81.7779 32.5513 81.6595 32.4033 81.4996 32.2967C81.3397 32.1901 81.1354 32.1368 80.8866 32.1368ZM86.4497 31.4084C86.5326 31.4084 86.6244 31.4143 86.7251 31.4262C86.8258 31.4321 86.9087 31.441 86.9738 31.4528L86.8761 32.3322C86.811 32.3145 86.734 32.2997 86.6452 32.2878C86.5563 32.276 86.4734 32.2701 86.3964 32.2701C86.2188 32.2701 86.047 32.3056 85.8812 32.3767C85.7213 32.4418 85.5762 32.5395 85.446 32.6698C85.3157 32.7942 85.212 32.9481 85.1351 33.1317C85.064 33.3153 85.0285 33.5255 85.0285 33.7624V36.2852H84.0869V31.4972H84.833L84.9574 32.35H84.9929C85.0936 32.1783 85.215 32.0213 85.3571 31.8792C85.4993 31.7371 85.6621 31.6246 85.8457 31.5417C86.0293 31.4528 86.2306 31.4084 86.4497 31.4084Z" fill="#A2A2A2"/>
<rect x="7.92969" y="18.6758" width="8.82242" height="8.82242" fill="#EB5321"/>
<rect x="18.2188" y="18.6758" width="8.82242" height="8.82242" fill="#7FBA00"/>
<rect x="18.2188" y="28.9688" width="8.82242" height="8.82242" fill="#FCBB01"/>
<rect x="7.92969" y="28.9688" width="8.82242" height="8.82242" fill="#08A1EF"/>
</svg>
