<svg width="68" height="25" viewBox="0 0 68 25" fill="none" xmlns="http://www.w3.org/2000/svg">
<path d="M8.61304 6.36328C5.19024 6.36328 2.58594 9.15398 2.58594 12.9004V12.9386C2.58594 16.6851 5.26465 19.4375 8.94788 19.4375C11.0313 19.4375 12.5195 18.6347 13.7472 17.1056L13.8961 16.9144L11.6266 15.0412L11.2546 15.4235C10.3989 16.2645 9.80358 16.4174 8.76186 16.4174C7.60853 16.4174 6.34358 15.5382 5.97153 14.3531H14.2681H14.5285V14.0855C14.5657 13.7797 14.5657 13.4356 14.5657 13.168C14.5657 11.333 14.0449 9.65096 13.1148 8.46586C12.0358 7.0514 10.5105 6.36328 8.61304 6.36328ZM5.78551 11.6771L5.85992 11.4095C6.15756 10.1097 7.31089 9.3069 8.61304 9.3069C9.9896 9.3069 11.1057 10.1479 11.3662 11.4095L11.4034 11.6771H5.78551Z" fill="white" fill-opacity="0.6"/>
<path d="M34.0602 15.7665C33.2045 15.7665 32.4976 15.1166 32.4976 14.2756C32.4976 14.2374 32.4604 13.7786 32.4604 13.2434V9.80284H35.846V6.51516H32.4604V2.19531H28.8516V14.1991C28.8516 14.2374 28.8516 14.2756 28.8516 14.2756C28.8516 16.9898 31.1954 19.2071 34.0974 19.2071C34.1718 19.2071 34.209 19.2071 36.0692 19.2071V15.7665C34.1718 15.7665 34.0974 15.7665 34.0602 15.7665Z" fill="white" fill-opacity="0.6"/>
<path d="M22.0092 6.40176C21.786 6.40176 21.5255 6.36353 21.2651 6.40176C17.7679 6.51644 14.9776 9.61297 15.0892 13.2447C15.2008 16.8 18.0283 19.476 21.4883 19.476C22.6789 19.476 23.5346 19.0555 24.5763 18.2909V19.2084H27.7387V12.9389C27.7387 9.57475 25.246 6.66936 22.0092 6.40176ZM21.4883 16.1883C19.7769 16.1883 18.4004 14.7739 18.4004 13.0153C18.4004 11.2568 19.7769 9.84235 21.4883 9.84235C23.1997 9.84235 24.5763 11.2568 24.5763 13.0153C24.5763 14.7739 23.1997 16.1883 21.4883 16.1883Z" fill="white" fill-opacity="0.6"/>
<path d="M49.2422 6.5162C49.1678 6.5162 49.0562 6.47797 48.9818 6.47797C48.6098 6.40151 48.2005 6.36328 47.8285 6.36328C44.3685 6.36328 41.5781 9.26867 41.5781 12.8622C41.5781 13.2062 41.6153 13.5885 41.6525 13.9326C42.0618 17.1056 44.6661 19.3993 47.9029 19.3993C48.3865 19.3993 48.8702 19.3228 49.3166 19.1699C49.8747 19.017 50.3956 18.8259 50.8792 18.52V19.2846C50.8792 19.7816 50.7304 20.2786 50.47 20.6608C50.0979 21.196 49.391 21.693 48.1633 21.693C48.1633 21.693 46.0799 21.693 45.559 20.5844H42.1362C42.1362 20.5844 42.6943 24.866 48.5353 24.866C48.5353 24.866 49.7259 24.7895 51.028 24.2926C52.9999 23.528 54.302 21.5401 54.302 19.3611V12.9386C54.2648 9.8421 52.1814 7.12786 49.2422 6.5162ZM50.842 13.2827C50.7676 14.009 50.4328 14.6972 49.9491 15.1941C49.391 15.7293 48.6842 16.0352 47.8657 16.0352C46.1915 16.0352 44.8521 14.6589 44.8521 12.9386C44.8521 12.7475 44.8893 12.5563 44.9265 12.3652C45.2242 10.989 46.4147 9.91856 47.8657 9.91856C49.4282 9.91856 50.6932 11.1419 50.842 12.7093V13.2827Z" fill="white" fill-opacity="0.6"/>
<path d="M61.2191 6.36328C57.7591 6.36328 54.9688 9.26867 54.9688 12.8622C54.9688 16.4557 57.7591 19.3611 61.2191 19.3611C64.6791 19.3611 67.4694 16.4557 67.4694 12.8622C67.4694 9.26867 64.6791 6.36328 61.2191 6.36328ZM61.2935 16.0734C59.6193 16.0734 58.2799 14.6972 58.2799 12.9769C58.2799 11.2566 59.6193 9.88033 61.2935 9.88033C62.9677 9.88033 64.307 11.2566 64.307 12.9769C64.307 14.6589 62.9677 16.0734 61.2935 16.0734Z" fill="white" fill-opacity="0.6"/>
<path d="M40.4604 6.51562H36.8516V19.2076H40.4604V6.51562Z" fill="white" fill-opacity="0.6"/>
<path d="M38.6459 1.73633C37.4926 1.73633 36.5625 2.69205 36.5625 3.87714C36.5625 5.06223 37.4926 6.01795 38.6459 6.01795C39.7993 6.01795 40.7294 5.06223 40.7294 3.87714C40.6922 2.69205 39.7621 1.73633 38.6459 1.73633Z" fill="white" fill-opacity="0.6"/>
<path fill-rule="evenodd" clip-rule="evenodd" d="M2.7072 9.14832C3.68074 7.13613 5.5235 5.68287 7.71395 5.42203C8.37456 5.16119 8.82656 4.4532 8.82656 3.67068C8.82656 2.62732 8.06164 1.80754 7.08811 1.80754C7.05334 1.80754 6.9838 1.80754 6.94903 1.80754C6.70565 0.875963 5.90596 0.167969 4.96719 0.167969C3.99366 0.167969 3.19397 0.875963 2.95059 1.80754C2.88105 1.80754 2.81151 1.77027 2.7072 1.77027C1.73367 1.77027 0.96875 2.62732 0.96875 3.63342C0.96875 4.67678 1.73367 5.49656 2.7072 5.49656V9.14832Z" fill="white" fill-opacity="0.6"/>
</svg>
