<svg width="82" height="21" viewBox="0 0 82 21" fill="none" xmlns="http://www.w3.org/2000/svg">
<g clip-path="url(#clip0_7969_30168)">
<path d="M22.985 1.19008C22.9803 1.0597 23.0014 0.929677 23.0472 0.80779C23.093 0.685904 23.1625 0.574655 23.2516 0.480697C23.3407 0.386739 23.4475 0.312002 23.5656 0.260953C23.6838 0.209905 23.8108 0.183594 23.9392 0.183594C24.0676 0.183594 24.1946 0.209905 24.3128 0.260953C24.4309 0.312002 24.5377 0.386739 24.6268 0.480697C24.7159 0.574655 24.7854 0.685904 24.8312 0.80779C24.877 0.929677 24.8982 1.0597 24.8934 1.19008V3.93129H28.8888V1.19008C28.884 1.0597 28.9052 0.929677 28.951 0.80779C28.9968 0.685904 29.0663 0.574655 29.1554 0.480697C29.2444 0.386739 29.3512 0.312002 29.4694 0.260953C29.5875 0.209905 29.7146 0.183594 29.843 0.183594C29.9713 0.183594 30.0984 0.209905 30.2165 0.260953C30.3347 0.312002 30.4415 0.386739 30.5306 0.480697C30.6196 0.574655 30.6892 0.685904 30.735 0.80779C30.7808 0.929677 30.8019 1.0597 30.7971 1.19008V8.53411C30.8019 8.66449 30.7808 8.79451 30.735 8.9164C30.6892 9.03829 30.6196 9.14954 30.5306 9.24349C30.4415 9.33745 30.3347 9.41219 30.2165 9.46324C30.0984 9.51429 29.9713 9.5406 29.843 9.5406C29.7146 9.5406 29.5875 9.51429 29.4694 9.46324C29.3512 9.41219 29.2444 9.33745 29.1554 9.24349C29.0663 9.14954 28.9968 9.03829 28.951 8.9164C28.9052 8.79451 28.884 8.66449 28.8888 8.53411V5.71551H24.8934V8.53411C24.8982 8.66449 24.877 8.79451 24.8312 8.9164C24.7854 9.03829 24.7159 9.14954 24.6268 9.24349C24.5377 9.33745 24.4309 9.41219 24.3128 9.46324C24.1946 9.51429 24.0676 9.5406 23.9392 9.5406C23.8108 9.5406 23.6838 9.51429 23.5656 9.46324C23.4475 9.41219 23.3407 9.33745 23.2516 9.24349C23.1625 9.14954 23.093 9.03829 23.0472 8.9164C23.0014 8.79451 22.9803 8.66449 22.985 8.53411V1.19008Z" fill="white" fill-opacity="0.6"/>
<path d="M34.801 7.91554C35.7554 7.91554 36.2132 6.93126 36.2132 6.04049C36.2132 5.14973 35.7694 4.13995 34.801 4.13995C33.796 4.13995 33.3505 5.14794 33.3505 6.04049C33.3505 6.93305 33.8083 7.91554 34.801 7.91554ZM38.0454 8.32938C38.0454 8.80765 38.0454 9.54496 37.1649 9.54496C36.631 9.54496 36.4144 9.24744 36.2876 8.75575C36.082 9.02649 35.8178 9.24545 35.5154 9.39566C35.2131 9.54587 34.8808 9.62329 34.5443 9.62191C32.8275 9.62191 31.5156 8.13521 31.5156 6.04049C31.5156 3.99768 32.8645 2.43268 34.5443 2.43268C34.881 2.42197 35.2153 2.49398 35.5188 2.64259C35.8223 2.7912 36.086 3.01202 36.2876 3.28632C36.3138 3.06976 36.418 2.87073 36.5799 2.72752C36.7419 2.5843 36.9503 2.50701 37.1649 2.51053C38.0454 2.51053 38.0454 3.24695 38.0454 3.72611V8.32938Z" fill="white" fill-opacity="0.6"/>
<path d="M42.2985 7.91579C43.2529 7.91579 43.724 6.90691 43.724 6.04075C43.724 5.16162 43.2525 4.14021 42.2985 4.14021C41.3195 4.14021 40.8608 5.0708 40.8608 5.97454C40.8608 6.87828 41.2926 7.914 42.2985 7.914M39.0282 3.54338C39.0151 3.41302 39.0291 3.28133 39.0691 3.15677C39.1092 3.03222 39.1744 2.91755 39.2606 2.82014C39.3469 2.72273 39.4522 2.64473 39.5698 2.59114C39.6875 2.53756 39.8149 2.50958 39.9438 2.509C40.1646 2.49701 40.3817 2.57031 40.5515 2.71419C40.7213 2.85808 40.8313 3.06191 40.8595 3.28478C41.0573 3.00653 41.3204 2.78282 41.6248 2.63393C41.9292 2.48503 42.2653 2.41564 42.6027 2.43205C44.5745 2.43205 45.5544 4.30709 45.5544 6.11681C45.5544 7.87553 44.3834 9.62127 42.5393 9.62127C41.9219 9.61453 41.327 9.38528 40.8603 8.97434V11.2502C40.8739 11.3807 40.8602 11.5126 40.8204 11.6374C40.7805 11.7621 40.7153 11.877 40.6289 11.9745C40.5426 12.072 40.437 12.1499 40.3191 12.2033C40.2012 12.2566 40.0735 12.2842 39.9445 12.2842C39.8154 12.2842 39.6878 12.2566 39.5699 12.2033C39.4519 12.1499 39.3464 12.072 39.26 11.9745C39.1737 11.877 39.1084 11.7621 39.0686 11.6374C39.0287 11.5126 39.0151 11.3807 39.0286 11.2502V3.54517L39.0282 3.54338Z" fill="white" fill-opacity="0.6"/>
<path d="M49.4951 7.91579C50.4495 7.91579 50.9205 6.90691 50.9205 6.04075C50.9205 5.16162 50.4495 4.14021 49.4951 4.14021C48.516 4.14021 48.0573 5.0708 48.0573 5.97454C48.0573 6.87828 48.4901 7.914 49.4951 7.914M46.2256 3.54338C46.2126 3.41302 46.2265 3.28133 46.2665 3.15677C46.3066 3.03222 46.3718 2.91755 46.458 2.82014C46.5443 2.72273 46.6496 2.64473 46.7673 2.59114C46.8849 2.53756 47.0123 2.50958 47.1412 2.509C47.362 2.49701 47.5791 2.57031 47.7489 2.71419C47.9187 2.85808 48.0287 3.06191 48.0569 3.28478C48.2548 3.00653 48.5178 2.78282 48.8222 2.63393C49.1266 2.48503 49.4627 2.41564 49.8001 2.43205C51.7728 2.43205 52.7496 4.30709 52.7496 6.11681C52.7496 7.87553 51.5795 9.62127 49.7345 9.62127C49.1172 9.61453 48.5222 9.38528 48.0556 8.97434V11.2502C48.0691 11.3807 48.0555 11.5126 48.0156 11.6374C47.9757 11.7621 47.9105 11.877 47.8241 11.9745C47.7378 12.072 47.6322 12.1499 47.5143 12.2033C47.3964 12.2566 47.2688 12.2842 47.1397 12.2842C47.0106 12.2842 46.883 12.2566 46.7651 12.2033C46.6472 12.1499 46.5416 12.072 46.4552 11.9745C46.3689 11.877 46.3037 11.7621 46.2638 11.6374C46.2239 11.5126 46.2103 11.3807 46.2238 11.2502L46.2256 3.54338Z" fill="white" fill-opacity="0.6"/>
<path d="M52.7677 3.78825C52.7093 3.6358 52.6794 3.47359 52.6797 3.30998C52.7021 3.09182 52.8026 2.88963 52.9621 2.74183C53.1216 2.59402 53.3289 2.5109 53.5447 2.50825C53.7471 2.502 53.9461 2.56301 54.1113 2.68202C54.2765 2.80102 54.3991 2.97154 54.4604 3.16771L55.7198 6.67218L57.0687 3.16771C57.1302 2.9717 57.2528 2.80135 57.418 2.68238C57.5832 2.56342 57.7819 2.5023 57.9843 2.50825C58.2003 2.51068 58.4078 2.59371 58.5675 2.74153C58.7271 2.88936 58.8278 3.09167 58.8502 3.30998C58.8566 3.47411 58.8265 3.63759 58.7622 3.78825L55.6961 11.5461C55.6432 11.7442 55.5319 11.9211 55.377 12.053C55.2222 12.1848 55.0313 12.2652 54.8301 12.2834C54.7151 12.2981 54.5983 12.2886 54.4869 12.2557C54.3756 12.2228 54.272 12.1671 54.1826 12.092C54.0932 12.0169 54.0199 11.924 53.9671 11.8191C53.9144 11.7141 53.8833 11.5993 53.8758 11.4817C53.882 11.2952 53.9208 11.1113 53.9902 10.9386L54.7919 8.92124L52.7677 3.78825Z" fill="white" fill-opacity="0.6"/>
<path d="M62.0632 1.19008C62.0584 1.0597 62.0795 0.929677 62.1253 0.80779C62.1711 0.685904 62.2407 0.574655 62.3297 0.480697C62.4188 0.386739 62.5256 0.312002 62.6437 0.260953C62.7619 0.209905 62.889 0.183594 63.0173 0.183594C63.1457 0.183594 63.2728 0.209905 63.3909 0.260953C63.5091 0.312002 63.6159 0.386739 63.7049 0.480697C63.794 0.574655 63.8635 0.685904 63.9093 0.80779C63.9551 0.929677 63.9763 1.0597 63.9715 1.19008V3.93129H67.9669V1.19008C67.9621 1.0597 67.9833 0.929677 68.0291 0.80779C68.0749 0.685904 68.1444 0.574655 68.2335 0.480697C68.3226 0.386739 68.4294 0.312002 68.5475 0.260953C68.6656 0.209905 68.7927 0.183594 68.9211 0.183594C69.0495 0.183594 69.1765 0.209905 69.2947 0.260953C69.4128 0.312002 69.5196 0.386739 69.6087 0.480697C69.6978 0.574655 69.7673 0.685904 69.8131 0.80779C69.8589 0.929677 69.88 1.0597 69.8753 1.19008V8.53411C69.88 8.66449 69.8589 8.79451 69.8131 8.9164C69.7673 9.03829 69.6978 9.14954 69.6087 9.24349C69.5196 9.33745 69.4128 9.41219 69.2947 9.46324C69.1765 9.51429 69.0495 9.5406 68.9211 9.5406C68.7927 9.5406 68.6656 9.51429 68.5475 9.46324C68.4294 9.41219 68.3226 9.33745 68.2335 9.24349C68.1444 9.14954 68.0749 9.03829 68.0291 8.9164C67.9833 8.79451 67.9621 8.66449 67.9669 8.53411V5.71551H63.9715V8.53411C63.9763 8.66449 63.9551 8.79451 63.9093 8.9164C63.8635 9.03829 63.794 9.14954 63.7049 9.24349C63.6159 9.33745 63.5091 9.41219 63.3909 9.46324C63.2728 9.51429 63.1457 9.5406 63.0173 9.5406C62.889 9.5406 62.7619 9.51429 62.6437 9.46324C62.5256 9.41219 62.4188 9.33745 62.3297 9.24349C62.2407 9.14954 62.1711 9.03829 62.1253 8.9164C62.0795 8.79451 62.0584 8.66449 62.0632 8.53411V1.19008Z" fill="white" fill-opacity="0.6"/>
<path d="M72.8891 4.33343H74.2001C74.3547 4.3482 74.5107 4.32898 74.6574 4.27707C74.8041 4.22516 74.9381 4.14177 75.0503 4.03258C75.1626 3.92339 75.2503 3.79094 75.3077 3.64422C75.3651 3.49751 75.3908 3.33996 75.3829 3.18228C75.3916 3.02497 75.3663 2.86764 75.309 2.72124C75.2517 2.57485 75.1637 2.44291 75.0511 2.33461C74.9385 2.22631 74.8041 2.14426 74.6571 2.09416C74.5101 2.04407 74.3541 2.02714 74.2001 2.04455H72.8891V4.33343ZM70.9816 1.26831C70.9675 1.13344 70.983 0.997065 71.0271 0.869036C71.0711 0.741008 71.1426 0.624529 71.2364 0.528024C71.3302 0.43152 71.4439 0.3574 71.5693 0.311026C71.6947 0.264652 71.8287 0.247182 71.9616 0.259879H74.2001C76.1586 0.259879 77.3696 1.15467 77.3696 3.18183C77.3696 4.60411 76.3131 5.41882 75.0158 5.62551L77.1786 7.97883C77.3322 8.12804 77.4234 8.33171 77.433 8.54747C77.4358 8.74829 77.3779 8.94514 77.2671 9.11143C77.1562 9.27773 76.9979 9.40545 76.8134 9.47736C76.6289 9.54927 76.4271 9.5619 76.2353 9.51354C76.0435 9.46517 75.8709 9.35815 75.7408 9.20693L72.9168 5.72886H72.8909V8.53449C72.8956 8.66488 72.8745 8.7949 72.8287 8.91678C72.7829 9.03867 72.7134 9.14992 72.6243 9.24388C72.5352 9.33784 72.4284 9.41257 72.3103 9.46362C72.1921 9.51467 72.0651 9.54098 71.9367 9.54098C71.8083 9.54098 71.6813 9.51467 71.5631 9.46362C71.445 9.41257 71.3382 9.33784 71.2491 9.24388C71.16 9.14992 71.0905 9.03867 71.0447 8.91678C70.9989 8.7949 70.9777 8.66488 70.9825 8.53449V1.26831H70.9816Z" fill="white" fill-opacity="0.6"/>
<path d="M23.5694 18.445C23.5716 18.4853 23.5657 18.5258 23.552 18.5637C23.5383 18.6017 23.5171 18.6364 23.4897 18.6658C23.4624 18.6952 23.4294 18.7186 23.3928 18.7346C23.3563 18.7505 23.3169 18.7588 23.2771 18.7588C23.2373 18.7588 23.1979 18.7505 23.1614 18.7346C23.1248 18.7186 23.0919 18.6952 23.0645 18.6658C23.0372 18.6364 23.016 18.6017 23.0023 18.5637C22.9886 18.5258 22.9826 18.4853 22.9848 18.445V14.1947C22.9826 14.1543 22.9886 14.1139 23.0023 14.0759C23.016 14.038 23.0372 14.0032 23.0645 13.9738C23.0919 13.9445 23.1248 13.9211 23.1614 13.9051C23.1979 13.8891 23.2373 13.8809 23.2771 13.8809C23.3169 13.8809 23.3563 13.8891 23.3928 13.9051C23.4294 13.9211 23.4624 13.9445 23.4897 13.9738C23.5171 14.0032 23.5383 14.038 23.552 14.0759C23.5657 14.1139 23.5716 14.1543 23.5694 14.1947V18.445Z" fill="white" fill-opacity="0.6"/>
<path d="M24.5769 14.3607C24.5747 14.3203 24.5807 14.2799 24.5944 14.2419C24.6081 14.204 24.6292 14.1692 24.6566 14.1399C24.684 14.1105 24.7169 14.0871 24.7535 14.0711C24.79 14.0551 24.8294 14.0469 24.8692 14.0469C24.909 14.0469 24.9484 14.0551 24.9849 14.0711C25.0215 14.0871 25.0544 14.1105 25.0818 14.1399C25.1092 14.1692 25.1303 14.204 25.144 14.2419C25.1577 14.2799 25.1637 14.3203 25.1615 14.3607V15.136H25.401C25.5938 15.136 25.6937 15.2309 25.6937 15.3928C25.6937 15.5548 25.5938 15.6497 25.401 15.6497H25.1637V18.4495C25.1659 18.4899 25.1599 18.5303 25.1462 18.5682C25.1325 18.6062 25.1114 18.6409 25.084 18.6703C25.0566 18.6997 25.0237 18.7231 24.9871 18.7391C24.9506 18.7551 24.9112 18.7633 24.8714 18.7633C24.8316 18.7633 24.7922 18.7551 24.7557 18.7391C24.7191 18.7231 24.6862 18.6997 24.6588 18.6703C24.6314 18.6409 24.6103 18.6062 24.5966 18.5682C24.5829 18.5303 24.5769 18.4899 24.5791 18.4495V15.6497H24.3396C24.1468 15.6497 24.0469 15.5557 24.0469 15.3928C24.0469 15.23 24.1468 15.136 24.3396 15.136H24.5791L24.5769 14.3607Z" fill="white" fill-opacity="0.6"/>
<path d="M26.6082 14.129C26.6752 14.0011 26.7474 13.8789 26.9204 13.8789C26.9888 13.8777 27.0549 13.904 27.1044 13.9521C27.1539 14.0002 27.1826 14.0662 27.1845 14.1358C27.1805 14.2239 27.1556 14.3097 27.1119 14.3858L26.7403 15.1276C26.6734 15.2556 26.6012 15.3768 26.4282 15.3768C26.3599 15.378 26.2939 15.3519 26.2445 15.304C26.195 15.2561 26.1661 15.1903 26.1641 15.1209C26.1678 15.0329 26.1931 14.9473 26.2376 14.8717L26.6082 14.129Z" fill="white" fill-opacity="0.6"/>
<path d="M28.5558 15.0928C29.0401 15.0928 29.7312 15.3554 29.7312 15.7268C29.7315 15.761 29.7247 15.7949 29.7112 15.8263C29.6977 15.8576 29.6779 15.8857 29.6529 15.9087C29.628 15.9317 29.5985 15.9491 29.5665 15.9597C29.5345 15.9702 29.5006 15.9738 29.4671 15.9702C29.2153 15.9702 29.1149 15.6055 28.558 15.6055C28.2261 15.6055 27.9417 15.7541 27.9417 16.0574C27.9417 16.6838 29.8268 16.6175 29.8268 17.6569C29.8268 18.4053 29.1964 18.7633 28.5391 18.7633C27.796 18.7633 27.2114 18.3852 27.2114 18.0819C27.2093 18.0482 27.2139 18.0144 27.2249 17.9825C27.2359 17.9506 27.2531 17.9213 27.2754 17.8963C27.2977 17.8713 27.3248 17.851 27.3549 17.8368C27.385 17.8226 27.4177 17.8146 27.4509 17.8134C27.7093 17.8134 27.9219 18.2519 28.5594 18.2519C28.9846 18.2519 29.2435 18.0085 29.2435 17.766C29.2435 17.0641 27.3576 17.1039 27.3576 16.1062C27.3693 15.9588 27.4099 15.8153 27.477 15.6842C27.5441 15.553 27.6364 15.4369 27.7484 15.3425C27.8605 15.2482 27.9899 15.1777 28.1292 15.135C28.2685 15.0923 28.4147 15.0785 28.5594 15.0942" fill="white" fill-opacity="0.6"/>
<path d="M32.7565 18.4066C32.7565 18.6423 32.6438 18.7645 32.4637 18.7645C32.2837 18.7645 32.1719 18.6423 32.1719 18.4066V14.2368C32.1719 14.0002 32.2846 13.8789 32.4637 13.8789C32.6429 13.8789 32.7565 14.0002 32.7565 14.2368V16.0586H35.2464V14.2368C35.2464 14.0002 35.359 13.8789 35.5391 13.8789C35.7191 13.8789 35.831 14.0002 35.831 14.2368V18.4066C35.831 18.6423 35.7183 18.7645 35.5391 18.7645C35.3599 18.7645 35.2464 18.6423 35.2464 18.4066V16.5722H32.7565V18.4066Z" fill="white" fill-opacity="0.6"/>
<path d="M37.2661 16.1393H38.0624C38.673 16.1393 38.938 15.8767 38.938 15.2552C38.9363 15.1407 38.9115 15.0277 38.8652 14.9233C38.8189 14.8189 38.752 14.7252 38.6687 14.6481C38.5854 14.5709 38.4874 14.512 38.3807 14.4748C38.2741 14.4376 38.1612 14.4231 38.0488 14.432H37.2652V16.1393H37.2661ZM37.2661 18.4465C37.2683 18.4869 37.2623 18.5273 37.2486 18.5653C37.2349 18.6032 37.2137 18.638 37.1864 18.6674C37.159 18.6967 37.1261 18.7201 37.0895 18.7361C37.0529 18.7521 37.0136 18.7603 36.9738 18.7603C36.934 18.7603 36.8946 18.7521 36.858 18.7361C36.8215 18.7201 36.7885 18.6967 36.7612 18.6674C36.7338 18.638 36.7126 18.6032 36.6989 18.5653C36.6852 18.5273 36.6793 18.4869 36.6815 18.4465V14.241C36.6767 14.1978 36.6815 14.1542 36.6954 14.1132C36.7093 14.0721 36.732 14.0347 36.7619 14.0037C36.7918 13.9727 36.8281 13.9489 36.8681 13.9339C36.9082 13.9189 36.9511 13.9131 36.9936 13.9171H38.0752C38.2542 13.9051 38.4337 13.9292 38.6035 13.988C38.7732 14.0468 38.9299 14.1391 39.0644 14.2597C39.1989 14.3803 39.3086 14.5268 39.3871 14.6906C39.4657 14.8545 39.5116 15.0325 39.5222 15.2145C39.5412 15.3936 39.5215 15.5747 39.4642 15.7452C39.407 15.9156 39.3138 16.0713 39.1911 16.2012C39.0684 16.3311 38.9191 16.4322 38.7539 16.4972C38.5886 16.5623 38.4114 16.5897 38.2346 16.5777L37.9819 16.5844L39.4887 18.2658C39.5247 18.3002 39.5532 18.3419 39.5726 18.388C39.592 18.4342 39.6018 18.484 39.6014 18.5342C39.5959 18.6 39.5651 18.661 39.5157 18.7039C39.4662 18.7468 39.4021 18.7681 39.3373 18.7633C39.2862 18.7623 39.236 18.7498 39.1903 18.7266C39.1446 18.7034 39.1046 18.67 39.0732 18.6291L37.2683 16.6184V18.4447L37.2661 18.4465Z" fill="white" fill-opacity="0.6"/>
<path d="M44.0142 16.438C44.0222 16.3324 44.0086 16.2264 43.9743 16.1265C43.94 16.0266 43.8858 15.9349 43.815 15.8573C43.7443 15.7797 43.6585 15.7178 43.5631 15.6754C43.4677 15.633 43.3647 15.6112 43.2606 15.6112C43.1565 15.6112 43.0535 15.633 42.9581 15.6754C42.8626 15.7178 42.7769 15.7797 42.7061 15.8573C42.6353 15.9349 42.5811 16.0266 42.5469 16.1265C42.5126 16.2264 42.499 16.3324 42.5069 16.438V18.4463C42.5091 18.4867 42.5032 18.5271 42.4895 18.5651C42.4758 18.6031 42.4546 18.6378 42.4272 18.6672C42.3999 18.6965 42.3669 18.7199 42.3303 18.7359C42.2938 18.7519 42.2544 18.7601 42.2146 18.7601C42.1748 18.7601 42.1354 18.7519 42.0989 18.7359C42.0623 18.7199 42.0294 18.6965 42.002 18.6672C41.9747 18.6378 41.9535 18.6031 41.9398 18.5651C41.9261 18.5271 41.9201 18.4867 41.9223 18.4463V15.4121C41.9201 15.3717 41.9261 15.3313 41.9398 15.2933C41.9535 15.2553 41.9747 15.2206 42.002 15.1912C42.0294 15.1619 42.0623 15.1385 42.0989 15.1225C42.1354 15.1065 42.1748 15.0982 42.2146 15.0982C42.2544 15.0982 42.2938 15.1065 42.3303 15.1225C42.3669 15.1385 42.3999 15.1619 42.4272 15.1912C42.4546 15.2206 42.4758 15.2553 42.4895 15.2933C42.5032 15.3313 42.5091 15.3717 42.5069 15.4121V15.5208L42.5201 15.5342C42.6188 15.3894 42.7525 15.2729 42.9085 15.1961C43.0645 15.1193 43.2373 15.0847 43.4103 15.0958C43.6112 15.0958 43.8082 15.1525 43.9792 15.2598C44.1502 15.367 44.2885 15.5204 44.3787 15.7029C44.5248 15.46 44.747 15.274 45.0096 15.175C45.2723 15.0759 45.56 15.0695 45.8267 15.1568C46.0933 15.2441 46.3233 15.4199 46.4797 15.6561C46.6361 15.8923 46.7098 16.1751 46.689 16.459V18.4494C46.6912 18.4898 46.6852 18.5302 46.6715 18.5682C46.6578 18.6062 46.6366 18.6409 46.6093 18.6703C46.5819 18.6997 46.549 18.7231 46.5124 18.739C46.4759 18.755 46.4365 18.7633 46.3967 18.7633C46.3569 18.7633 46.3175 18.755 46.281 18.739C46.2444 18.7231 46.2114 18.6997 46.1841 18.6703C46.1567 18.6409 46.1355 18.6062 46.1218 18.5682C46.1081 18.5302 46.1022 18.4898 46.1044 18.4494V16.4384C46.1123 16.3329 46.0987 16.2269 46.0645 16.1269C46.0302 16.027 45.976 15.9354 45.9052 15.8578C45.8344 15.7801 45.7487 15.7182 45.6533 15.6758C45.5578 15.6335 45.4548 15.6116 45.3507 15.6116C45.2466 15.6116 45.1436 15.6335 45.0482 15.6758C44.9528 15.7182 44.867 15.7801 44.7963 15.8578C44.7255 15.9354 44.6713 16.027 44.637 16.1269C44.6027 16.2269 44.5891 16.3329 44.5971 16.4384V18.449C44.5993 18.4894 44.5933 18.5298 44.5796 18.5678C44.5659 18.6057 44.5447 18.6405 44.5174 18.6698C44.49 18.6992 44.4571 18.7226 44.4205 18.7386C44.3839 18.7546 44.3446 18.7628 44.3048 18.7628C44.265 18.7628 44.2256 18.7546 44.189 18.7386C44.1525 18.7226 44.1195 18.6992 44.0922 18.6698C44.0648 18.6405 44.0436 18.6057 44.0299 18.5678C44.0162 18.5298 44.0103 18.4894 44.0125 18.449V16.4357L44.0142 16.438Z" fill="white" fill-opacity="0.6"/>
<path d="M48.8899 18.2502C49.607 18.2502 49.8584 17.5344 49.8584 16.9277C49.8584 16.321 49.6057 15.6052 48.8899 15.6052C48.1741 15.6052 47.9214 16.321 47.9214 16.9277C47.9214 17.5344 48.1732 18.2502 48.8899 18.2502ZM50.4104 18.4739C50.4124 18.5114 50.4068 18.549 50.3939 18.5842C50.3811 18.6195 50.3613 18.6517 50.3357 18.6789C50.3101 18.706 50.2793 18.7276 50.2452 18.7422C50.2111 18.7568 50.1745 18.7642 50.1375 18.7638C50.1004 18.7646 50.0635 18.7576 50.0293 18.7432C49.995 18.7287 49.9641 18.7071 49.9385 18.6799C49.9129 18.6526 49.8932 18.6202 49.8806 18.5847C49.868 18.5492 49.8628 18.5115 49.8654 18.4739V18.2247H49.8522C49.7494 18.3896 49.6073 18.5254 49.4391 18.6197C49.2709 18.7139 49.082 18.7635 48.8899 18.7638C47.8941 18.7638 47.3359 17.8797 47.3359 16.9295C47.3359 15.9792 47.8941 15.0951 48.8899 15.0951C49.0754 15.0962 49.2583 15.1398 49.4249 15.2227C49.5915 15.3056 49.7376 15.4256 49.8522 15.5739H49.8654V15.3846C49.8629 15.347 49.868 15.3092 49.8806 15.2737C49.8932 15.2382 49.9129 15.2057 49.9385 15.1783C49.964 15.151 49.995 15.1293 50.0292 15.1148C50.0635 15.1002 50.1004 15.0931 50.1375 15.0938C50.1745 15.0936 50.2112 15.1011 50.2452 15.1159C50.2793 15.1306 50.31 15.1522 50.3356 15.1795C50.3611 15.2067 50.381 15.2389 50.3938 15.2742C50.4067 15.3095 50.4123 15.347 50.4104 15.3846V18.4739Z" fill="white" fill-opacity="0.6"/>
<path d="M52.6156 15.6067C51.8985 15.6067 51.6471 16.3225 51.6471 16.9292C51.6471 17.5359 51.8989 18.2526 52.6156 18.2526C53.3323 18.2526 53.5841 17.5368 53.5841 16.9292C53.5841 16.3216 53.3323 15.6067 52.6156 15.6067ZM53.5255 18.2718H53.5123C53.4195 18.4385 53.2807 18.5739 53.1131 18.6613C52.9454 18.7488 52.7563 18.7845 52.5689 18.764C51.6132 18.764 51.0625 17.8799 51.0625 16.9296C51.0625 15.9794 51.6128 15.0953 52.5689 15.0953C52.7529 15.0941 52.9344 15.1376 53.0985 15.2221C53.2626 15.3066 53.4045 15.4297 53.5123 15.5812H53.5255V13.8314C53.5233 13.791 53.5293 13.7506 53.543 13.7126C53.5567 13.6747 53.5779 13.6399 53.6052 13.6106C53.6326 13.5812 53.6655 13.5578 53.7021 13.5418C53.7386 13.5258 53.778 13.5176 53.8178 13.5176C53.8576 13.5176 53.897 13.5258 53.9335 13.5418C53.9701 13.5578 54.0031 13.5812 54.0304 13.6106C54.0578 13.6399 54.079 13.6747 54.0927 13.7126C54.1064 13.7506 54.1123 13.791 54.1101 13.8314V18.445C54.1123 18.4854 54.1064 18.5258 54.0927 18.5637C54.079 18.6017 54.0578 18.6364 54.0304 18.6658C54.0031 18.6952 53.9701 18.7186 53.9335 18.7346C53.897 18.7506 53.8576 18.7588 53.8178 18.7588C53.778 18.7588 53.7386 18.7506 53.7021 18.7346C53.6655 18.7186 53.6326 18.6952 53.6052 18.6658C53.5779 18.6364 53.5567 18.6017 53.543 18.5637C53.5293 18.5258 53.5233 18.4854 53.5255 18.445V18.2718Z" fill="white" fill-opacity="0.6"/>
<path d="M57.2807 16.7128C57.2937 16.5771 57.2795 16.4401 57.239 16.3102C57.1985 16.1802 57.1325 16.0599 57.0451 15.9565C56.9577 15.8532 56.8505 15.7689 56.7302 15.7087C56.6098 15.6485 56.4787 15.6137 56.3448 15.6063C55.6206 15.5791 55.3622 16.1665 55.3424 16.7128H57.2807ZM55.3415 17.1602C55.3316 17.3035 55.3515 17.4473 55.3999 17.5822C55.4483 17.7172 55.5242 17.8403 55.6225 17.9434C55.7209 18.0466 55.8395 18.1275 55.9707 18.181C56.1019 18.2344 56.2427 18.2592 56.384 18.2536C57.1605 18.2536 57.3591 17.7677 57.5792 17.7677C57.6103 17.7702 57.6406 17.7791 57.6682 17.7937C57.6959 17.8084 57.7203 17.8286 57.7401 17.8532C57.7599 17.8777 57.7746 17.906 57.7833 17.9365C57.792 17.9669 57.7946 17.9989 57.7909 18.0303C57.7909 18.3212 57.0676 18.7663 56.3774 18.7663C55.2487 18.7663 54.7578 17.8823 54.7578 16.932C54.7578 15.9607 55.3552 15.0977 56.3452 15.0977C56.5587 15.1091 56.7677 15.1636 56.9602 15.258C57.1526 15.3524 57.3247 15.4848 57.4662 15.6476C57.6078 15.8103 57.716 16 57.7846 16.2057C57.8532 16.4114 57.8808 16.629 57.8657 16.8456C57.8657 17.0541 57.7922 17.1628 57.5404 17.1628H55.342L55.3415 17.1602Z" fill="white" fill-opacity="0.6"/>
<path d="M62.4214 16.4918C62.4287 16.3782 62.4131 16.2643 62.3753 16.1572C62.3376 16.05 62.2787 15.9518 62.2021 15.8688C62.1256 15.7857 62.0331 15.7195 61.9303 15.6742C61.8276 15.6289 61.7168 15.6056 61.6048 15.6056C61.4928 15.6056 61.382 15.6289 61.2792 15.6742C61.1765 15.7195 61.084 15.7857 61.0074 15.8688C60.9309 15.9518 60.8719 16.05 60.8342 16.1572C60.7965 16.2643 60.7808 16.3782 60.7882 16.4918V18.4492C60.7904 18.4895 60.7844 18.53 60.7707 18.5679C60.757 18.6059 60.7358 18.6406 60.7085 18.67C60.6811 18.6994 60.6481 18.7228 60.6116 18.7388C60.575 18.7547 60.5357 18.763 60.4959 18.763C60.4561 18.763 60.4167 18.7547 60.3801 18.7388C60.3436 18.7228 60.3106 18.6994 60.2833 18.67C60.2559 18.6406 60.2347 18.6059 60.221 18.5679C60.2073 18.53 60.2014 18.4895 60.2036 18.4492V13.8334C60.2014 13.793 60.2073 13.7526 60.221 13.7146C60.2347 13.6766 60.2559 13.6419 60.2833 13.6125C60.3106 13.5831 60.3436 13.5598 60.3801 13.5438C60.4167 13.5278 60.4561 13.5195 60.4959 13.5195C60.5357 13.5195 60.575 13.5278 60.6116 13.5438C60.6481 13.5598 60.6811 13.5831 60.7085 13.6125C60.7358 13.6419 60.757 13.6766 60.7707 13.7146C60.7844 13.7526 60.7904 13.793 60.7882 13.8334V15.5541L60.8014 15.5684C60.9674 15.3578 61.1955 15.2069 61.4522 15.1379C61.7089 15.0689 61.9806 15.0854 62.2274 15.185C62.4742 15.2846 62.683 15.462 62.8231 15.6912C62.9633 15.9204 63.0274 16.1893 63.006 16.4582V18.4496C63.0082 18.49 63.0022 18.5304 62.9885 18.5684C62.9748 18.6063 62.9536 18.6411 62.9263 18.6704C62.8989 18.6998 62.866 18.7232 62.8294 18.7392C62.7929 18.7552 62.7535 18.7634 62.7137 18.7634C62.6739 18.7634 62.6345 18.7552 62.598 18.7392C62.5614 18.7232 62.5284 18.6998 62.5011 18.6704C62.4737 18.6411 62.4526 18.6063 62.4388 18.5684C62.4251 18.5304 62.4192 18.49 62.4214 18.4496V16.4918Z" fill="white" fill-opacity="0.6"/>
<path d="M65.2024 18.2502C65.9195 18.2502 66.1709 17.5344 66.1709 16.9277C66.1709 16.321 65.9182 15.6052 65.2024 15.6052C64.4866 15.6052 64.2339 16.321 64.2339 16.9277C64.2339 17.5344 64.4857 18.2502 65.2024 18.2502ZM66.7229 18.4739C66.7249 18.5114 66.7193 18.549 66.7064 18.5843C66.6936 18.6195 66.6738 18.6517 66.6482 18.6789C66.6226 18.7061 66.5918 18.7276 66.5577 18.7422C66.5236 18.7568 66.487 18.7642 66.45 18.7638C66.4129 18.7646 66.376 18.7576 66.3417 18.7432C66.3074 18.7287 66.2764 18.7072 66.2507 18.6799C66.2251 18.6526 66.2052 18.6202 66.1926 18.5848C66.1799 18.5493 66.1746 18.5115 66.177 18.4739V18.2247H66.1647C66.0617 18.3894 65.9195 18.5251 65.7514 18.6193C65.5832 18.7135 65.3944 18.7632 65.2024 18.7638C64.2066 18.7638 63.6484 17.8797 63.6484 16.9295C63.6484 15.9792 64.2058 15.0951 65.2024 15.0951C65.3879 15.0962 65.5708 15.1398 65.7374 15.2227C65.904 15.3056 66.0501 15.4256 66.1647 15.5739H66.177V15.3846C66.1745 15.3469 66.1798 15.3091 66.1924 15.2735C66.2051 15.238 66.2249 15.2055 66.2505 15.1782C66.2762 15.1508 66.3072 15.1292 66.3415 15.1147C66.3759 15.1001 66.4128 15.093 66.45 15.0938C66.487 15.0935 66.5238 15.1009 66.5579 15.1156C66.592 15.1303 66.6228 15.1519 66.6484 15.1792C66.674 15.2064 66.6938 15.2387 66.7066 15.274C66.7194 15.3094 66.725 15.347 66.7229 15.3846V18.4739Z" fill="white" fill-opacity="0.6"/>
<path d="M69.0566 18.2508C69.7737 18.2508 70.0251 17.535 70.0251 16.9283C70.0251 16.3216 69.7724 15.6058 69.0566 15.6058C68.3408 15.6058 68.0881 16.3216 68.0881 16.9283C68.0881 17.535 68.3408 18.2508 69.0566 18.2508ZM67.5629 15.4103C67.5608 15.3699 67.5667 15.3295 67.5804 15.2915C67.5941 15.2535 67.6153 15.2188 67.6426 15.1894C67.67 15.1601 67.703 15.1367 67.7395 15.1207C67.7761 15.1047 67.8154 15.0964 67.8552 15.0964C67.895 15.0964 67.9344 15.1047 67.971 15.1207C68.0075 15.1367 68.0405 15.1601 68.0678 15.1894C68.0952 15.2188 68.1164 15.2535 68.1301 15.2915C68.1438 15.3295 68.1497 15.3699 68.1475 15.4103V15.5857H68.1607C68.2536 15.419 68.3924 15.2836 68.56 15.1962C68.7276 15.1087 68.9168 15.073 69.1041 15.0935C70.0598 15.0935 70.6106 15.9776 70.6106 16.9279C70.6106 17.8781 70.0594 18.7622 69.1041 18.7622C68.9202 18.7635 68.7386 18.72 68.5745 18.6355C68.4104 18.551 68.2685 18.4278 68.1607 18.2763H68.1475V19.8614C68.1497 19.9018 68.1438 19.9422 68.1301 19.9802C68.1164 20.0182 68.0952 20.0529 68.0678 20.0823C68.0405 20.1116 68.0075 20.135 67.971 20.151C67.9344 20.167 67.895 20.1753 67.8552 20.1753C67.8154 20.1753 67.7761 20.167 67.7395 20.151C67.703 20.135 67.67 20.1116 67.6426 20.0823C67.6153 20.0529 67.5941 20.0182 67.5804 19.9802C67.5667 19.9422 67.5608 19.9018 67.5629 19.8614V15.4103Z" fill="white" fill-opacity="0.6"/>
<path d="M72.7675 18.2508C73.4846 18.2508 73.736 17.535 73.736 16.9283C73.736 16.3216 73.4833 15.6058 72.7675 15.6058C72.0517 15.6058 71.7991 16.3216 71.7991 16.9283C71.7991 17.535 72.0509 18.2508 72.7675 18.2508ZM71.2739 15.4103C71.2717 15.3699 71.2776 15.3295 71.2913 15.2915C71.305 15.2535 71.3262 15.2188 71.3536 15.1894C71.3809 15.1601 71.4139 15.1367 71.4505 15.1207C71.487 15.1047 71.5264 15.0964 71.5662 15.0964C71.606 15.0964 71.6454 15.1047 71.6819 15.1207C71.7185 15.1367 71.7514 15.1601 71.7788 15.1894C71.8061 15.2188 71.8273 15.2535 71.841 15.2915C71.8547 15.3295 71.8607 15.3699 71.8585 15.4103V15.5857H71.8717C71.9645 15.419 72.1033 15.2836 72.2709 15.1962C72.4386 15.1087 72.6277 15.073 72.8151 15.0935C73.7708 15.0935 74.3215 15.9776 74.3215 16.9279C74.3215 17.8781 73.7703 18.7622 72.8151 18.7622C72.6311 18.7635 72.4495 18.72 72.2854 18.6355C72.1213 18.551 71.9795 18.4278 71.8717 18.2763H71.8585V19.8614C71.8607 19.9018 71.8547 19.9422 71.841 19.9802C71.8273 20.0182 71.8061 20.0529 71.7788 20.0823C71.7514 20.1116 71.7185 20.135 71.6819 20.151C71.6454 20.167 71.606 20.1753 71.5662 20.1753C71.5264 20.1753 71.487 20.167 71.4505 20.151C71.4139 20.135 71.3809 20.1116 71.3536 20.0823C71.3262 20.0529 71.305 20.0182 71.2913 19.9802C71.2776 19.9422 71.2717 19.9018 71.2739 19.8614V15.4103Z" fill="white" fill-opacity="0.6"/>
<path d="M74.6582 15.6737C74.6138 15.5687 74.5867 15.457 74.5781 15.343C74.5814 15.2747 74.6109 15.2104 74.6603 15.1638C74.7096 15.1172 74.7749 15.0921 74.8423 15.0938C74.9085 15.0932 74.973 15.1148 75.0259 15.1553C75.0789 15.1957 75.1172 15.2527 75.135 15.3175L75.945 17.7782H75.9582L76.7546 15.3175C76.7694 15.2538 76.8049 15.197 76.8555 15.1564C76.9061 15.1157 76.9687 15.0937 77.0332 15.0938C77.1006 15.092 77.1659 15.1171 77.2153 15.1637C77.2647 15.2102 77.2941 15.2746 77.2973 15.343C77.2888 15.457 77.2617 15.5687 77.2172 15.6737L75.7434 19.9588C75.7263 20.0226 75.6892 20.079 75.6377 20.1194C75.5862 20.1598 75.5232 20.1819 75.4581 20.1825C75.3908 20.1843 75.3255 20.1592 75.2761 20.1126C75.2268 20.066 75.1973 20.0017 75.194 19.9333C75.2034 19.8186 75.2333 19.7066 75.282 19.6027L75.654 18.5974L74.6582 15.6737Z" fill="white" fill-opacity="0.6"/>
<path d="M77.8307 18.0762C77.8977 18.0762 77.9631 18.0964 78.0188 18.1342C78.0745 18.172 78.1179 18.2257 78.1435 18.2886C78.1691 18.3514 78.1758 18.4206 78.1627 18.4873C78.1497 18.5541 78.1174 18.6154 78.0701 18.6635C78.0227 18.7116 77.9624 18.7444 77.8968 18.7577C77.8311 18.7709 77.763 18.7641 77.7012 18.7381C77.6393 18.712 77.5864 18.6679 77.5492 18.6114C77.512 18.5548 77.4922 18.4883 77.4922 18.4202C77.4925 18.3291 77.5283 18.2418 77.5917 18.1773C77.6551 18.1129 77.741 18.0765 77.8307 18.0762" fill="white" fill-opacity="0.6"/>
<path d="M19.3046 0.181641H0.914062V18.8721H19.3046V0.181641Z" fill="white" fill-opacity="0.6"/>
<path d="M10.0745 13.8389C7.8201 13.8389 5.70398 13.2488 4.26843 12.2207C4.15045 12.1344 4.07076 12.0042 4.04668 11.8585C4.02261 11.7128 4.05609 11.5634 4.13985 11.4426C4.22362 11.3219 4.35089 11.2396 4.494 11.2138C4.63711 11.1879 4.78449 11.2204 4.9041 11.3044C6.15784 12.2019 8.04197 12.7173 10.0745 12.7173C12.1796 12.7173 14.084 12.2054 15.2972 11.3129C15.4159 11.2302 15.5618 11.1979 15.7036 11.2229C15.8454 11.248 15.972 11.3283 16.0564 11.4468C16.1408 11.5653 16.1763 11.7126 16.1554 11.8573C16.1344 12.0021 16.0587 12.1327 15.9443 12.2216C14.5466 13.2506 12.4072 13.8389 10.074 13.8389" fill="#2A2949"/>
<path d="M79.05 0.772046H78.4844V0.564453H79.8605V0.772046H79.2926V2.45471H79.05V0.772046Z" fill="white" fill-opacity="0.6"/>
<path d="M81.6356 1.62267C81.6215 1.35915 81.6057 1.04105 81.6079 0.807063H81.5978C81.5344 1.02852 81.4569 1.26386 81.3627 1.5229L81.0347 2.44006H80.852L80.5509 1.5399C80.4629 1.2737 80.3885 1.02897 80.3357 0.804826H80.3299C80.3251 1.0406 80.3106 1.35647 80.2943 1.64056L80.2441 2.4508H80.0156L80.145 0.560547H80.4532L80.771 1.47503C80.8476 1.70723 80.9119 1.91482 80.9586 2.11167H80.9669C81.0136 1.92108 81.0805 1.71304 81.1628 1.47503L81.4939 0.560547H81.802L81.9178 2.4508H81.6827L81.6356 1.62267Z" fill="white" fill-opacity="0.6"/>
</g>
<defs>
<clipPath id="clip0_7969_30168">
<rect width="81" height="20" fill="white" transform="translate(0.914062 0.179688)"/>
</clipPath>
</defs>
</svg>
