<svg width="78" height="20" viewBox="0 0 78 20" fill="none" xmlns="http://www.w3.org/2000/svg">
<path d="M39.6293 13.0323V17.0156H37.5V3.76917H39.6293V4.41078C40.1489 3.87611 40.846 3.58204 41.5684 3.58204C44.4455 3.58204 45.8904 5.25288 45.8904 8.59457C45.8904 10.1451 45.4975 11.3615 44.699 12.2036C43.9132 13.0323 42.8232 13.4601 41.429 13.4601C40.7953 13.4868 40.1743 13.3398 39.6293 13.0323ZM39.6293 6.08162V11.0942C39.9968 11.4283 40.4785 11.6021 40.9601 11.5887C41.936 11.5887 42.6204 11.3615 43.0513 10.8669C43.4823 10.3723 43.6977 9.61045 43.6977 8.55447C43.6977 7.4183 43.4823 6.61629 43.0513 6.16182C42.6204 5.70736 41.936 5.48012 40.9601 5.48012C40.4531 5.48012 39.9715 5.70735 39.6293 6.08162ZM55.0285 9.19608H48.59C48.59 9.87778 48.8688 10.5194 49.3504 10.9739C49.8701 11.415 50.5165 11.6422 51.1882 11.6155C52.1641 11.6155 52.8739 11.3481 53.3809 10.8135L54.2047 12.5244C53.4442 13.166 52.3669 13.4734 50.8967 13.4734C49.5279 13.4734 48.4125 13.0591 47.6267 12.1769C46.7902 11.2011 46.3466 9.91788 46.3973 8.60794C46.3973 7.08413 46.8283 5.86776 47.7281 4.95882C48.5646 4.06324 49.7053 3.55531 50.8967 3.55531C52.0754 3.50184 53.2161 3.95631 54.0653 4.81178C54.8638 5.64052 55.2947 6.79006 55.2567 7.96634C55.206 8.39407 55.1299 8.79507 55.0285 9.19608ZM48.666 7.52523H53.0894C52.9499 6.12172 52.2275 5.44002 50.8967 5.44002C49.7053 5.44002 48.9449 6.12172 48.666 7.52523ZM56.4734 5.56032H55.4341V3.78254H56.4734V1.84436L58.6027 1.01562V3.78254H61.0868V5.56032H58.6027V9.73075C58.5646 10.2253 58.666 10.7333 58.8942 11.1744C59.0716 11.4417 59.4392 11.5887 59.9715 11.5887C60.4658 11.5887 60.9474 11.4417 61.3783 11.1744V13.1794C60.7066 13.3932 59.9968 13.4734 59.2871 13.4467C58.5139 13.5002 57.7662 13.2061 57.1958 12.6447C56.6888 12.11 56.4734 11.3481 56.4734 10.3724V5.56032ZM70.2503 9.19608H63.8118C63.8118 9.87778 64.0906 10.5194 64.5722 10.9739C65.0919 11.415 65.7383 11.6422 66.41 11.6155C67.3859 11.6155 68.0957 11.3481 68.6027 10.8135L69.4265 12.5244C68.666 13.166 67.5887 13.4734 66.1185 13.4734C64.7497 13.4734 63.6343 13.0591 62.8485 12.1769C62.0627 11.308 61.6572 10.1317 61.6572 8.60794C61.6572 7.08413 62.0881 5.86776 62.988 4.95882C63.8245 4.06324 64.9651 3.55531 66.1565 3.55531C67.3352 3.50184 68.4759 3.95631 69.3251 4.81178C70.1236 5.64052 70.5545 6.79006 70.5165 7.96634C70.4278 8.24704 70.4024 8.67477 70.2503 9.19608ZM63.8878 7.52523H68.3492C68.2098 6.12172 67.4873 5.44002 66.1565 5.44002C64.9271 5.44002 64.1667 6.12172 63.8878 7.52523ZM76.5875 5.82766C76.2199 5.57369 75.8017 5.44002 75.3581 5.45338C74.8384 5.45338 74.3568 5.72072 74.0653 6.17519C73.685 6.65639 73.4823 7.2579 73.4949 7.88614V13.313H71.3657V3.78254H73.4949V4.65138C74.0906 3.95631 74.9398 3.55531 75.8397 3.58204C76.41 3.55531 76.9804 3.66224 77.5 3.92958L76.5875 5.82766Z" fill="white" fill-opacity="0.6"/>
<path d="M6.46991 13.1102V7.46157C6.4957 6.94806 6.2894 6.46022 5.91547 6.1136C5.54155 5.76698 5.03868 5.58725 4.52292 5.60008C4.149 5.61292 3.78797 5.71562 3.46562 5.89535C3.15616 6.03657 2.88539 6.26765 2.69198 6.55008V13.1102H0.5V0.529139L2.69198 0.015625V4.53454C3.33668 3.99535 4.16189 3.71292 5 3.76427C5.97994 3.71292 6.94699 4.04671 7.66905 4.71427C8.28797 5.33049 8.62321 6.24198 8.62321 7.44873V13.0974H6.46991V13.1102ZM18.3324 9.169H11.7822C11.7822 9.82373 12.0659 10.4399 12.5559 10.8764C13.0845 11.3001 13.7421 11.5183 14.4255 11.4927C15.4183 11.4927 16.1404 11.2359 16.6562 10.7224L17.4943 12.3656C16.7206 12.9818 15.6246 13.2771 14.1289 13.2771C12.7364 13.2771 11.6017 12.8791 10.8023 12.0318C9.95129 11.0947 9.5 9.86225 9.55157 8.60414C9.55157 7.14062 9.98997 5.97238 10.9054 5.09941C11.7564 4.23927 12.9169 3.75144 14.1289 3.75144C15.3281 3.70009 16.4885 4.13657 17.3524 4.95819C18.1648 5.75414 18.6032 6.85819 18.5645 7.98792C18.5129 8.39873 18.4355 8.78387 18.3324 9.169ZM11.8467 7.56427H16.3596C16.2178 6.2163 15.4828 5.56157 14.1289 5.56157C12.9169 5.56157 12.1433 6.2163 11.8467 7.56427ZM19.8281 0.529139L21.9943 0.015625V10.2987C21.9943 11.4285 22.3295 12.0832 23.0129 12.3014C22.6905 12.9176 22.0329 13.29 21.3238 13.2514C20.3309 13.2514 19.8539 12.5967 19.8539 11.2487V0.529139H19.8281ZM24.1862 0.529139L26.3524 0.015625V10.2987C26.3524 11.4285 26.6877 12.0832 27.384 12.3014C27.0616 12.9176 26.404 13.29 25.6948 13.2514C24.702 13.2514 24.2249 12.5967 24.2249 11.2487V0.529139H24.1862ZM27.6289 8.51427C27.5774 7.25616 28.0158 6.03657 28.841 5.08657C29.6404 4.17508 30.7106 3.77711 32.0645 3.77711C33.457 3.77711 34.553 4.2136 35.3266 5.04806C36.1003 5.88251 36.5 7.05076 36.5 8.51427C36.5 9.97778 36.1003 11.146 35.3266 11.9805C34.4885 12.8535 33.3152 13.3156 32.1032 13.2514C30.7106 13.2514 29.6146 12.8149 28.841 11.942C28.0158 10.992 27.5903 9.77238 27.6289 8.51427ZM29.8596 8.51427C29.8596 10.517 30.5946 11.544 32.0516 11.544C32.6834 11.5697 33.2765 11.2616 33.6246 10.7481C34.0372 10.0805 34.2435 9.31022 34.2049 8.52711C34.2049 6.52441 33.4699 5.5359 32.0129 5.5359C31.3682 5.51022 30.7751 5.81833 30.4011 6.33184C30.0143 6.87103 29.8596 7.56427 29.8596 8.51427ZM23.7865 19.0156C21.1175 19.0156 18.6289 17.6548 17.1977 15.4082L18.5129 14.5737C20.3567 17.4751 24.212 18.3224 27.1261 16.4866C27.8868 16.0116 28.5315 15.3697 29.0215 14.6122L30.3367 15.4467C28.9183 17.6677 26.4427 19.0156 23.7865 19.0156Z" fill="white" fill-opacity="0.6"/>
</svg>
