<svg width="478" height="327" viewBox="0 0 478 327" fill="none" xmlns="http://www.w3.org/2000/svg">
<path d="M399 147.494C399 236.139 327.029 308 238.249 308C149.468 308 89 256.868 89 168.223C89 79.5779 120.573 15 209.353 15C298.133 15 399 58.8495 399 147.494Z" fill="#F1F1FE"/>
<path d="M426.641 156.851C426.641 246.161 343.734 318.641 241.358 318.641C190.151 318.641 147.148 305.74 116.955 281.697C86.7723 257.661 69.3594 222.465 69.3594 177.792C69.3594 133.055 78.4681 94.4515 100.327 67.0377C122.175 39.6391 156.806 23.3594 207.988 23.3594C259.208 23.3594 313.9 34.4258 355.773 56.6607C397.647 78.8956 426.641 112.259 426.641 156.851Z" stroke="#F1F1FE" stroke-width="0.71885"/>
<path d="M443.641 150.06C443.641 247.538 352.842 326.641 240.728 326.641C184.651 326.641 137.556 312.562 104.488 286.319C71.4299 260.084 52.3594 221.668 52.3594 172.911C52.3594 124.09 62.3337 81.9572 86.2757 52.0346C110.206 22.1271 148.137 4.35943 204.188 4.35943C260.277 4.35943 320.169 16.4361 366.025 40.7024C411.882 64.9689 443.641 101.385 443.641 150.06Z" stroke="#F1F1FE" stroke-width="0.71885"/>
<g filter="url(#filter0_d_3727_13836)">
<rect x="29" y="26" width="223" height="123" rx="7.18851" fill="#F8F9FA"/>
<rect x="29.3594" y="26.3594" width="222.281" height="122.281" rx="6.82908" stroke="#D1D1E1" stroke-opacity="0.3" stroke-width="0.71885"/>
</g>
<g filter="url(#filter1_d_3727_13836)">
<rect x="29" y="149" width="223" height="124" rx="7.18851" fill="white"/>
<rect x="29.3594" y="149.359" width="222.281" height="123.281" rx="6.82908" stroke="#D1D1E1" stroke-opacity="0.3" stroke-width="0.71885"/>
</g>
<g clip-path="url(#clip0_3727_13836)">
<path d="M422.746 26.7751L422.968 30.1142L439.072 28.4738L431.433 40.263L434.165 42.0407L442.159 29.6831L450.197 44.2723L453.08 42.5683L445.961 29.6558L458.224 34.2843L459.457 31.14L448.865 27.1468L464.61 24.7113L464.218 21.403L448.721 23.7947L459.438 15.9194L457.571 13.2214L447.604 20.5409L452.911 11.3482L450.093 9.72097L443.532 21.0855L442.549 8.59131L439.27 8.96303L440.261 21.5625L434.916 15.4234L432.431 17.6869L438.921 25.1325L422.746 26.7751Z" fill="#FFB81D"/>
</g>
<g clip-path="url(#clip1_3727_13836)">
<path d="M15.0469 35.7167C27.9047 26.1918 28.0211 25.5665 19.397 12.0884C28.9219 24.9462 29.5368 25.0655 43.0253 16.4385C30.1675 25.9634 30.0481 26.5783 38.6752 40.0668C29.1474 27.1986 28.525 27.0926 15.0469 35.7167Z" fill="#001F0E"/>
</g>
<path d="M94.2824 88V68.4703L96.6977 68.6083L88.2096 78.9942L87.623 78.1316H103.288V82.5137H85.1041L82.9648 78.4422L95.145 63.7086H99.2856V88H94.2824ZM107.547 94.6594L106.029 92.8307C106.926 92.3936 107.639 91.8645 108.168 91.2435C108.721 90.6224 108.997 90.0818 108.997 89.6217C108.997 89.4147 108.939 89.1962 108.824 88.9661C108.709 88.7361 108.456 88.4486 108.065 88.1035C107.559 87.7125 107.214 87.3444 107.03 86.9994C106.869 86.6313 106.788 86.2403 106.788 85.8262C106.788 85.1591 107.03 84.63 107.513 84.239C107.996 83.8479 108.617 83.6524 109.376 83.6524C109.997 83.6524 110.561 83.8364 111.067 84.2045C111.596 84.5495 112.01 85.0441 112.309 85.6882C112.608 86.3093 112.758 87.0339 112.758 87.862C112.758 88.5981 112.631 89.3112 112.378 90.0013C112.125 90.7144 111.757 91.37 111.274 91.9681C110.814 92.5891 110.262 93.1297 109.618 93.5898C108.997 94.0498 108.306 94.4064 107.547 94.6594ZM116.7 88L115.561 85.1706L122.704 77.269C123.095 76.8549 123.509 76.3719 123.946 75.8198C124.406 75.2677 124.843 74.7041 125.257 74.1291C125.694 73.531 126.039 72.9559 126.292 72.4038C126.545 71.8287 126.672 71.3112 126.672 70.8511C126.672 70.322 126.557 69.862 126.327 69.4709C126.097 69.0569 125.763 68.7348 125.326 68.5048C124.889 68.2747 124.348 68.1597 123.704 68.1597C123.106 68.1597 122.543 68.3207 122.014 68.6428C121.484 68.9418 120.99 69.3904 120.53 69.9885C120.07 70.5866 119.667 71.3112 119.322 72.1623L115.458 69.9885C115.918 68.6543 116.573 67.4926 117.424 66.5035C118.275 65.5144 119.288 64.7437 120.461 64.1917C121.634 63.6396 122.888 63.3636 124.222 63.3636C125.625 63.3866 126.89 63.6856 128.017 64.2607C129.144 64.8358 130.03 65.6409 130.674 66.676C131.318 67.7112 131.64 68.9073 131.64 70.2645C131.64 70.7706 131.583 71.2882 131.468 71.8172C131.376 72.3463 131.203 72.8984 130.95 73.4735C130.72 74.0485 130.41 74.6581 130.019 75.3022C129.651 75.9233 129.191 76.5904 128.638 77.3035C128.109 77.9936 127.5 78.7182 126.81 79.4773L121.323 85.4466L120.633 83.3418H132.641V88H116.7ZM144.437 88.345C142.366 88.345 140.595 87.8505 139.123 86.8613C137.674 85.8722 136.558 84.4575 135.776 82.6172C135.017 80.754 134.637 78.5227 134.637 75.9233C134.637 73.3239 135.017 71.1041 135.776 69.2639C136.558 67.4006 137.674 65.9744 139.123 64.9853C140.595 63.9961 142.366 63.5016 144.437 63.5016C146.507 63.5016 148.278 63.9961 149.75 64.9853C151.222 65.9744 152.338 67.4006 153.097 69.2639C153.879 71.1041 154.27 73.3239 154.27 75.9233C154.27 78.5227 153.879 80.754 153.097 82.6172C152.338 84.4575 151.222 85.8722 149.75 86.8613C148.278 87.8505 146.507 88.345 144.437 88.345ZM144.437 83.8939C145.978 83.8939 147.174 83.2038 148.025 81.8236C148.876 80.4434 149.302 78.4767 149.302 75.9233C149.302 73.3239 148.876 71.3227 148.025 69.9195C147.174 68.5163 145.978 67.8147 144.437 67.8147C142.872 67.8147 141.665 68.5163 140.814 69.9195C139.985 71.3227 139.571 73.3239 139.571 75.9233C139.571 78.4767 139.985 80.4434 140.814 81.8236C141.665 83.2038 142.872 83.8939 144.437 83.8939ZM166.979 88.345C164.909 88.345 163.138 87.8505 161.665 86.8613C160.216 85.8722 159.101 84.4575 158.319 82.6172C157.559 80.754 157.18 78.5227 157.18 75.9233C157.18 73.3239 157.559 71.1041 158.319 69.2639C159.101 67.4006 160.216 65.9744 161.665 64.9853C163.138 63.9961 164.909 63.5016 166.979 63.5016C169.05 63.5016 170.821 63.9961 172.293 64.9853C173.765 65.9744 174.881 67.4006 175.64 69.2639C176.422 71.1041 176.813 73.3239 176.813 75.9233C176.813 78.5227 176.422 80.754 175.64 82.6172C174.881 84.4575 173.765 85.8722 172.293 86.8613C170.821 87.8505 169.05 88.345 166.979 88.345ZM166.979 83.8939C168.52 83.8939 169.717 83.2038 170.568 81.8236C171.419 80.4434 171.844 78.4767 171.844 75.9233C171.844 73.3239 171.419 71.3227 170.568 69.9195C169.717 68.5163 168.52 67.8147 166.979 67.8147C165.415 67.8147 164.207 68.5163 163.356 69.9195C162.528 71.3227 162.114 73.3239 162.114 75.9233C162.114 78.4767 162.528 80.4434 163.356 81.8236C164.207 83.2038 165.415 83.8939 166.979 83.8939ZM179.895 80.2709V76.2339H197.182V80.2709H179.895ZM186.278 86.6198V69.816H190.764V86.6198H186.278Z" fill="#212121"/>
<path d="M85.4987 117.757V108.699H89.0829C89.5573 108.699 89.9843 108.816 90.3639 109.049C90.7434 109.282 91.0453 109.605 91.2696 110.019C91.4939 110.425 91.606 110.882 91.606 111.391C91.606 111.926 91.4939 112.404 91.2696 112.827C91.0453 113.241 90.7434 113.573 90.3639 113.823C89.9843 114.065 89.5573 114.186 89.0829 114.186H86.508V117.757H85.4987ZM86.508 113.202H89.1346C89.402 113.202 89.6393 113.125 89.8463 112.969C90.062 112.805 90.2345 112.59 90.3639 112.322C90.4933 112.046 90.558 111.731 90.558 111.378C90.558 111.059 90.4933 110.774 90.3639 110.524C90.2345 110.265 90.062 110.062 89.8463 109.916C89.6393 109.76 89.402 109.683 89.1346 109.683H86.508V113.202ZM93.1597 117.757V111.003H94.1301L94.156 112.801L94.0525 112.555C94.1474 112.253 94.2983 111.973 94.5054 111.714C94.721 111.455 94.9755 111.248 95.2688 111.093C95.5621 110.938 95.8856 110.86 96.2392 110.86C96.3859 110.86 96.5239 110.873 96.6533 110.899C96.7827 110.916 96.8905 110.942 96.9768 110.977L96.705 112.064C96.5929 112.012 96.4764 111.977 96.3557 111.96C96.2435 111.934 96.1357 111.921 96.0322 111.921C95.7389 111.921 95.4758 111.973 95.2429 112.076C95.01 112.18 94.8116 112.327 94.6477 112.516C94.4838 112.698 94.3587 112.909 94.2724 113.15C94.1862 113.392 94.1431 113.651 94.1431 113.927V117.757H93.1597ZM100.685 117.886C100.012 117.886 99.4126 117.735 98.8864 117.433C98.3689 117.131 97.9591 116.713 97.6572 116.178C97.3639 115.643 97.2173 115.035 97.2173 114.354C97.2173 113.681 97.3639 113.081 97.6572 112.555C97.9591 112.029 98.3689 111.615 98.8864 111.313C99.4126 111.011 100.012 110.86 100.685 110.86C101.349 110.86 101.94 111.011 102.458 111.313C102.984 111.615 103.394 112.029 103.687 112.555C103.989 113.081 104.14 113.681 104.14 114.354C104.14 115.035 103.989 115.643 103.687 116.178C103.394 116.713 102.984 117.131 102.458 117.433C101.94 117.735 101.349 117.886 100.685 117.886ZM100.685 116.968C101.159 116.968 101.582 116.855 101.953 116.631C102.324 116.398 102.613 116.088 102.82 115.699C103.027 115.303 103.131 114.854 103.131 114.354C103.131 113.853 103.027 113.409 102.82 113.021C102.613 112.633 102.324 112.331 101.953 112.115C101.582 111.891 101.159 111.779 100.685 111.779C100.211 111.779 99.7836 111.891 99.404 112.115C99.0331 112.331 98.7398 112.637 98.5241 113.034C98.3171 113.422 98.2179 113.862 98.2265 114.354C98.2179 114.854 98.3171 115.303 98.5241 115.699C98.7398 116.088 99.0331 116.398 99.404 116.631C99.7836 116.855 100.211 116.968 100.685 116.968ZM104.611 120.293L104.223 119.517C104.577 119.517 104.861 119.456 105.077 119.335C105.301 119.223 105.461 119.046 105.556 118.805C105.659 118.572 105.711 118.283 105.711 117.938V111.003H106.694V118.223C106.694 118.637 106.608 118.999 106.436 119.31C106.263 119.62 106.021 119.862 105.711 120.034C105.4 120.207 105.034 120.293 104.611 120.293ZM106.216 109.54C105.983 109.54 105.801 109.48 105.672 109.359C105.543 109.23 105.478 109.057 105.478 108.842C105.478 108.626 105.543 108.453 105.672 108.324C105.801 108.195 105.983 108.13 106.216 108.13C106.448 108.13 106.63 108.195 106.759 108.324C106.888 108.445 106.953 108.617 106.953 108.842C106.953 109.049 106.888 109.217 106.759 109.346C106.63 109.476 106.448 109.54 106.216 109.54ZM111.59 117.886C110.917 117.886 110.317 117.74 109.791 117.446C109.273 117.153 108.868 116.743 108.575 116.217C108.281 115.691 108.135 115.087 108.135 114.406C108.135 113.879 108.217 113.405 108.381 112.982C108.545 112.551 108.773 112.176 109.066 111.857C109.368 111.537 109.726 111.291 110.14 111.119C110.554 110.938 111.003 110.847 111.486 110.847C111.943 110.847 112.357 110.929 112.728 111.093C113.108 111.257 113.431 111.486 113.699 111.779C113.975 112.064 114.182 112.404 114.32 112.801C114.458 113.198 114.518 113.634 114.501 114.108L114.488 114.561H108.859L108.717 113.746H113.75L113.518 113.966V113.655C113.5 113.345 113.41 113.047 113.246 112.762C113.082 112.469 112.849 112.232 112.547 112.051C112.254 111.869 111.9 111.779 111.486 111.779C111.003 111.779 110.585 111.878 110.231 112.076C109.877 112.266 109.606 112.551 109.416 112.93C109.226 113.31 109.131 113.78 109.131 114.341C109.131 114.876 109.235 115.341 109.442 115.738C109.649 116.126 109.942 116.428 110.322 116.644C110.71 116.86 111.176 116.968 111.719 116.968C112.038 116.968 112.353 116.916 112.664 116.812C112.983 116.7 113.332 116.484 113.712 116.165L114.216 116.864C114.018 117.062 113.781 117.239 113.505 117.395C113.229 117.541 112.927 117.662 112.599 117.757C112.271 117.843 111.935 117.886 111.59 117.886ZM118.726 117.886C118.088 117.886 117.518 117.735 117.018 117.433C116.518 117.123 116.121 116.704 115.828 116.178C115.543 115.643 115.401 115.04 115.401 114.367C115.401 113.694 115.543 113.094 115.828 112.568C116.121 112.033 116.518 111.615 117.018 111.313C117.518 111.011 118.092 110.86 118.739 110.86C119.317 110.86 119.843 110.977 120.317 111.21C120.792 111.434 121.171 111.749 121.456 112.154L120.887 112.853C120.723 112.637 120.524 112.447 120.292 112.284C120.067 112.12 119.821 111.995 119.554 111.908C119.295 111.813 119.036 111.766 118.778 111.766C118.32 111.766 117.911 111.882 117.548 112.115C117.186 112.34 116.897 112.646 116.682 113.034C116.474 113.422 116.371 113.866 116.371 114.367C116.371 114.867 116.474 115.316 116.682 115.712C116.897 116.101 117.186 116.407 117.548 116.631C117.911 116.855 118.316 116.968 118.765 116.968C119.024 116.968 119.278 116.929 119.528 116.851C119.778 116.765 120.016 116.644 120.24 116.489C120.464 116.334 120.671 116.139 120.861 115.907L121.43 116.605C121.137 116.993 120.744 117.304 120.253 117.537C119.761 117.77 119.252 117.886 118.726 117.886ZM123.622 117.757V109.23H124.592V117.757H123.622ZM122.095 111.934V111.003H126.3V111.934H122.095ZM129.957 117.886C129.379 117.886 128.862 117.778 128.404 117.563C127.947 117.347 127.585 117.062 127.318 116.709L128.003 116.114C128.253 116.415 128.547 116.644 128.883 116.799C129.228 116.955 129.612 117.032 130.035 117.032C130.25 117.032 130.445 117.011 130.617 116.968C130.79 116.916 130.941 116.842 131.07 116.748C131.199 116.653 131.299 116.541 131.368 116.411C131.437 116.282 131.471 116.139 131.471 115.984C131.471 115.699 131.346 115.462 131.096 115.272C130.984 115.195 130.824 115.117 130.617 115.04C130.41 114.953 130.16 114.871 129.867 114.794C129.384 114.656 128.982 114.518 128.663 114.38C128.344 114.233 128.094 114.065 127.913 113.875C127.783 113.72 127.684 113.552 127.615 113.37C127.555 113.189 127.525 112.991 127.525 112.775C127.525 112.499 127.581 112.245 127.693 112.012C127.814 111.779 127.977 111.576 128.184 111.404C128.4 111.222 128.65 111.089 128.935 111.003C129.228 110.908 129.543 110.86 129.88 110.86C130.199 110.86 130.514 110.903 130.824 110.99C131.135 111.076 131.424 111.201 131.691 111.365C131.958 111.529 132.187 111.723 132.377 111.947L131.782 112.594C131.618 112.422 131.437 112.266 131.238 112.128C131.04 111.99 130.828 111.882 130.604 111.805C130.388 111.727 130.164 111.688 129.931 111.688C129.724 111.688 129.53 111.714 129.349 111.766C129.176 111.818 129.026 111.891 128.896 111.986C128.775 112.072 128.68 112.18 128.611 112.309C128.551 112.439 128.521 112.581 128.521 112.736C128.521 112.866 128.547 112.982 128.599 113.086C128.65 113.189 128.724 113.28 128.818 113.357C128.939 113.452 129.107 113.543 129.323 113.629C129.547 113.707 129.823 113.789 130.151 113.875C130.531 113.979 130.85 114.086 131.109 114.199C131.376 114.302 131.596 114.427 131.769 114.574C132.002 114.746 132.165 114.945 132.26 115.169C132.364 115.393 132.416 115.648 132.416 115.932C132.416 116.312 132.308 116.648 132.092 116.942C131.885 117.235 131.596 117.468 131.225 117.64C130.854 117.804 130.432 117.886 129.957 117.886ZM137.951 117.757V108.699H138.96V116.773H143.308V117.757H137.951ZM147.279 117.886C146.692 117.886 146.161 117.735 145.687 117.433C145.213 117.123 144.837 116.704 144.561 116.178C144.285 115.643 144.147 115.04 144.147 114.367C144.147 113.685 144.29 113.081 144.574 112.555C144.859 112.029 145.238 111.615 145.713 111.313C146.196 111.011 146.735 110.86 147.33 110.86C147.684 110.86 148.012 110.912 148.314 111.015C148.616 111.119 148.883 111.266 149.116 111.455C149.357 111.637 149.556 111.852 149.711 112.102C149.875 112.344 149.987 112.607 150.048 112.892L149.763 112.749L149.802 111.003H150.772V117.757H149.789V116.101L150.048 115.932C149.987 116.191 149.871 116.441 149.698 116.683C149.526 116.916 149.314 117.123 149.064 117.304C148.823 117.485 148.547 117.627 148.236 117.731C147.934 117.834 147.615 117.886 147.279 117.886ZM147.499 116.955C147.947 116.955 148.348 116.847 148.702 116.631C149.056 116.407 149.332 116.101 149.53 115.712C149.737 115.316 149.841 114.867 149.841 114.367C149.841 113.866 149.737 113.422 149.53 113.034C149.332 112.646 149.056 112.34 148.702 112.115C148.348 111.891 147.947 111.779 147.499 111.779C147.041 111.779 146.636 111.891 146.282 112.115C145.937 112.34 145.661 112.646 145.454 113.034C145.256 113.422 145.156 113.866 145.156 114.367C145.156 114.858 145.256 115.303 145.454 115.699C145.652 116.088 145.929 116.394 146.282 116.618C146.636 116.842 147.041 116.955 147.499 116.955ZM154.93 117.886C154.413 117.886 153.973 117.783 153.61 117.576C153.257 117.36 152.985 117.049 152.795 116.644C152.614 116.239 152.524 115.734 152.524 115.13V111.003H153.507V114.936C153.507 115.393 153.567 115.777 153.688 116.088C153.817 116.39 154.007 116.618 154.257 116.773C154.516 116.929 154.831 117.006 155.202 117.006C155.487 117.006 155.75 116.959 155.991 116.864C156.233 116.761 156.444 116.622 156.625 116.45C156.806 116.277 156.949 116.075 157.052 115.842C157.156 115.609 157.208 115.363 157.208 115.104V111.003H158.178V117.757H157.22L157.182 116.334L157.337 116.256C157.233 116.558 157.061 116.834 156.819 117.084C156.578 117.326 156.289 117.52 155.952 117.666C155.625 117.813 155.284 117.886 154.93 117.886ZM160.068 117.757V111.003H161.025L161.064 112.413L160.909 112.478C160.995 112.184 161.163 111.917 161.413 111.675C161.663 111.434 161.961 111.24 162.306 111.093C162.66 110.938 163.022 110.86 163.393 110.86C163.893 110.86 164.312 110.959 164.648 111.158C164.984 111.356 165.239 111.662 165.411 112.076C165.584 112.491 165.67 113.017 165.67 113.655V117.757H164.687V113.707C164.687 113.258 164.626 112.892 164.506 112.607C164.394 112.314 164.217 112.098 163.975 111.96C163.734 111.822 163.436 111.757 163.082 111.766C162.789 111.766 162.517 111.818 162.267 111.921C162.017 112.016 161.801 112.15 161.62 112.322C161.439 112.495 161.297 112.693 161.193 112.918C161.09 113.142 161.038 113.383 161.038 113.642V117.757H160.559C160.499 117.757 160.43 117.757 160.352 117.757C160.275 117.757 160.18 117.757 160.068 117.757ZM170.369 117.886C169.731 117.886 169.162 117.735 168.661 117.433C168.161 117.123 167.764 116.704 167.471 116.178C167.186 115.643 167.044 115.04 167.044 114.367C167.044 113.694 167.186 113.094 167.471 112.568C167.764 112.033 168.161 111.615 168.661 111.313C169.162 111.011 169.735 110.86 170.382 110.86C170.96 110.86 171.487 110.977 171.961 111.21C172.435 111.434 172.815 111.749 173.1 112.154L172.53 112.853C172.366 112.637 172.168 112.447 171.935 112.284C171.711 112.12 171.465 111.995 171.198 111.908C170.939 111.813 170.68 111.766 170.421 111.766C169.964 111.766 169.554 111.882 169.192 112.115C168.83 112.34 168.541 112.646 168.325 113.034C168.118 113.422 168.014 113.866 168.014 114.367C168.014 114.867 168.118 115.316 168.325 115.712C168.541 116.101 168.83 116.407 169.192 116.631C169.554 116.855 169.96 116.968 170.408 116.968C170.667 116.968 170.922 116.929 171.172 116.851C171.422 116.765 171.659 116.644 171.883 116.489C172.108 116.334 172.315 116.139 172.504 115.907L173.074 116.605C172.78 116.993 172.388 117.304 171.896 117.537C171.405 117.77 170.896 117.886 170.369 117.886ZM174.334 117.757V108.182H175.304V112.478L175.11 112.672C175.205 112.318 175.382 112.007 175.64 111.74C175.899 111.464 176.201 111.248 176.546 111.093C176.9 110.938 177.258 110.86 177.62 110.86C178.138 110.86 178.569 110.959 178.914 111.158C179.259 111.356 179.514 111.662 179.678 112.076C179.85 112.491 179.936 113.017 179.936 113.655V117.757H178.953V113.707C178.953 113.258 178.893 112.892 178.772 112.607C178.66 112.314 178.483 112.098 178.241 111.96C178 111.822 177.698 111.757 177.336 111.766C177.051 111.766 176.783 111.818 176.533 111.921C176.283 112.016 176.067 112.15 175.886 112.322C175.705 112.495 175.563 112.693 175.459 112.918C175.356 113.142 175.304 113.383 175.304 113.642V117.757H174.825C174.765 117.757 174.696 117.757 174.618 117.757C174.541 117.757 174.446 117.757 174.334 117.757ZM184.765 117.886C184.092 117.886 183.493 117.74 182.966 117.446C182.449 117.153 182.043 116.743 181.75 116.217C181.457 115.691 181.31 115.087 181.31 114.406C181.31 113.879 181.392 113.405 181.556 112.982C181.72 112.551 181.948 112.176 182.242 111.857C182.544 111.537 182.902 111.291 183.316 111.119C183.73 110.938 184.178 110.847 184.661 110.847C185.119 110.847 185.533 110.929 185.904 111.093C186.283 111.257 186.607 111.486 186.874 111.779C187.15 112.064 187.357 112.404 187.495 112.801C187.633 113.198 187.694 113.634 187.676 114.108L187.663 114.561H182.035L181.892 113.746H186.926L186.693 113.966V113.655C186.676 113.345 186.585 113.047 186.421 112.762C186.257 112.469 186.024 112.232 185.722 112.051C185.429 111.869 185.075 111.779 184.661 111.779C184.178 111.779 183.76 111.878 183.406 112.076C183.053 112.266 182.781 112.551 182.591 112.93C182.401 113.31 182.306 113.78 182.306 114.341C182.306 114.876 182.41 115.341 182.617 115.738C182.824 116.126 183.117 116.428 183.497 116.644C183.885 116.86 184.351 116.968 184.894 116.968C185.213 116.968 185.528 116.916 185.839 116.812C186.158 116.7 186.507 116.484 186.887 116.165L187.392 116.864C187.193 117.062 186.956 117.239 186.68 117.395C186.404 117.541 186.102 117.662 185.774 117.757C185.446 117.843 185.11 117.886 184.765 117.886ZM191.798 117.886C191.185 117.886 190.633 117.735 190.142 117.433C189.658 117.131 189.275 116.717 188.99 116.191C188.714 115.656 188.576 115.053 188.576 114.38C188.576 113.698 188.718 113.094 189.003 112.568C189.288 112.033 189.671 111.615 190.154 111.313C190.638 111.011 191.181 110.86 191.785 110.86C192.121 110.86 192.445 110.912 192.755 111.015C193.074 111.119 193.359 111.266 193.609 111.455C193.859 111.637 194.066 111.848 194.23 112.089C194.394 112.322 194.493 112.568 194.528 112.827L194.23 112.723V108.182H195.201V117.757H194.243L194.217 116.075L194.463 115.984C194.429 116.226 194.33 116.463 194.166 116.696C194.01 116.92 193.812 117.123 193.57 117.304C193.329 117.485 193.053 117.627 192.742 117.731C192.44 117.834 192.126 117.886 191.798 117.886ZM191.94 116.993C192.389 116.993 192.79 116.881 193.143 116.657C193.497 116.433 193.773 116.122 193.972 115.725C194.179 115.329 194.282 114.876 194.282 114.367C194.282 113.858 194.179 113.409 193.972 113.021C193.773 112.624 193.497 112.314 193.143 112.089C192.79 111.857 192.389 111.74 191.94 111.74C191.474 111.74 191.065 111.857 190.711 112.089C190.366 112.314 190.09 112.624 189.883 113.021C189.684 113.409 189.585 113.858 189.585 114.367C189.585 114.867 189.684 115.316 189.883 115.712C190.081 116.109 190.357 116.424 190.711 116.657C191.065 116.881 191.474 116.993 191.94 116.993Z" fill="#656565"/>
<path d="M85.2762 212L84.1376 209.171L91.2801 201.269C91.6711 200.855 92.0852 200.372 92.5222 199.82C92.9823 199.268 93.4194 198.704 93.8334 198.129C94.2705 197.531 94.6155 196.956 94.8686 196.404C95.1216 195.829 95.2481 195.311 95.2481 194.851C95.2481 194.322 95.1331 193.862 94.9031 193.471C94.673 193.057 94.3395 192.735 93.9024 192.505C93.4654 192.275 92.9248 192.16 92.2807 192.16C91.6826 192.16 91.1191 192.321 90.59 192.643C90.0609 192.942 89.5663 193.39 89.1063 193.988C88.6462 194.587 88.2436 195.311 87.8986 196.162L84.0341 193.988C84.4941 192.654 85.1497 191.493 86.0008 190.503C86.852 189.514 87.8641 188.744 89.0373 188.192C90.2104 187.64 91.4641 187.364 92.7983 187.364C94.2015 187.387 95.4667 187.686 96.5938 188.261C97.721 188.836 98.6066 189.641 99.2507 190.676C99.8948 191.711 100.217 192.907 100.217 194.265C100.217 194.771 100.159 195.288 100.044 195.817C99.9523 196.346 99.7798 196.898 99.5267 197.473C99.2967 198.049 98.9862 198.658 98.5951 199.302C98.227 199.923 97.767 200.59 97.2149 201.304C96.6858 201.994 96.0762 202.718 95.3861 203.477L89.8999 209.447L89.2098 207.342H101.217V212H85.2762ZM104.732 218.659L103.214 216.831C104.111 216.394 104.824 215.865 105.353 215.243C105.905 214.622 106.181 214.082 106.181 213.622C106.181 213.415 106.124 213.196 106.009 212.966C105.893 212.736 105.64 212.449 105.249 212.104C104.743 211.712 104.398 211.344 104.214 210.999C104.053 210.631 103.973 210.24 103.973 209.826C103.973 209.159 104.214 208.63 104.697 208.239C105.18 207.848 105.801 207.652 106.561 207.652C107.182 207.652 107.745 207.836 108.251 208.204C108.78 208.55 109.194 209.044 109.493 209.688C109.793 210.309 109.942 211.034 109.942 211.862C109.942 212.598 109.816 213.311 109.563 214.001C109.309 214.714 108.941 215.37 108.458 215.968C107.998 216.589 107.446 217.13 106.802 217.59C106.181 218.05 105.491 218.406 104.732 218.659ZM120.923 212.242C119.175 212.242 117.588 211.885 116.162 211.172C114.758 210.436 113.585 209.378 112.642 207.997L115.437 204.892C116.426 205.996 117.323 206.755 118.128 207.169C118.933 207.56 119.819 207.756 120.785 207.756C121.59 207.756 122.315 207.583 122.959 207.238C123.603 206.893 124.109 206.422 124.477 205.824C124.845 205.226 125.029 204.558 125.029 203.822C125.029 203.063 124.845 202.385 124.477 201.787C124.109 201.188 123.615 200.717 122.994 200.372C122.395 200.004 121.705 199.82 120.923 199.82C120.417 199.82 119.946 199.866 119.509 199.958C119.071 200.027 118.588 200.176 118.059 200.406C117.53 200.613 116.886 200.924 116.127 201.338L113.781 198.233L115.264 187.709H128.859V192.16H117.887L119.163 190.642L118.025 198.302L116.369 197.508C116.714 197.186 117.185 196.887 117.783 196.611C118.404 196.335 119.071 196.105 119.785 195.921C120.521 195.737 121.234 195.645 121.924 195.645C123.442 195.645 124.788 195.99 125.961 196.68C127.157 197.37 128.1 198.336 128.79 199.578C129.503 200.797 129.86 202.201 129.86 203.788C129.86 205.375 129.469 206.813 128.687 208.101C127.905 209.366 126.835 210.378 125.478 211.137C124.121 211.873 122.602 212.242 120.923 212.242ZM142.969 212.345C140.899 212.345 139.127 211.85 137.655 210.861C136.206 209.872 135.09 208.458 134.308 206.617C133.549 204.754 133.169 202.523 133.169 199.923C133.169 197.324 133.549 195.104 134.308 193.264C135.09 191.401 136.206 189.974 137.655 188.985C139.127 187.996 140.899 187.502 142.969 187.502C145.039 187.502 146.81 187.996 148.283 188.985C149.755 189.974 150.87 191.401 151.63 193.264C152.412 195.104 152.803 197.324 152.803 199.923C152.803 202.523 152.412 204.754 151.63 206.617C150.87 208.458 149.755 209.872 148.283 210.861C146.81 211.85 145.039 212.345 142.969 212.345ZM142.969 207.894C144.51 207.894 145.706 207.204 146.557 205.824C147.408 204.443 147.834 202.477 147.834 199.923C147.834 197.324 147.408 195.323 146.557 193.919C145.706 192.516 144.51 191.815 142.969 191.815C141.405 191.815 140.197 192.516 139.346 193.919C138.518 195.323 138.104 197.324 138.104 199.923C138.104 202.477 138.518 204.443 139.346 205.824C140.197 207.204 141.405 207.894 142.969 207.894ZM165.512 212.345C163.441 212.345 161.67 211.85 160.198 210.861C158.749 209.872 157.633 208.458 156.851 206.617C156.092 204.754 155.712 202.523 155.712 199.923C155.712 197.324 156.092 195.104 156.851 193.264C157.633 191.401 158.749 189.974 160.198 188.985C161.67 187.996 163.441 187.502 165.512 187.502C167.582 187.502 169.353 187.996 170.825 188.985C172.297 189.974 173.413 191.401 174.172 193.264C174.954 195.104 175.345 197.324 175.345 199.923C175.345 202.523 174.954 204.754 174.172 206.617C173.413 208.458 172.297 209.872 170.825 210.861C169.353 211.85 167.582 212.345 165.512 212.345ZM165.512 207.894C167.053 207.894 168.249 207.204 169.1 205.824C169.951 204.443 170.377 202.477 170.377 199.923C170.377 197.324 169.951 195.323 169.1 193.919C168.249 192.516 167.053 191.815 165.512 191.815C163.947 191.815 162.74 192.516 161.889 193.919C161.06 195.323 160.646 197.324 160.646 199.923C160.646 202.477 161.06 204.443 161.889 205.824C162.74 207.204 163.947 207.894 165.512 207.894ZM178.427 204.271V200.234H195.714V204.271H178.427ZM184.811 210.62V193.816H189.296V210.62H184.811Z" fill="#212121"/>
<path d="M83.2002 241.887C82.743 241.887 82.3117 241.822 81.9063 241.693C81.5008 241.563 81.1299 241.369 80.7935 241.11C80.4571 240.852 80.1595 240.532 79.9007 240.153L80.5994 239.376C81.0048 239.954 81.4189 240.36 81.8416 240.593C82.2729 240.826 82.7559 240.942 83.2908 240.942C83.6789 240.942 84.0326 240.877 84.3518 240.748C84.671 240.619 84.9211 240.438 85.1023 240.205C85.2834 239.972 85.374 239.704 85.374 239.402C85.374 239.204 85.3395 239.027 85.2705 238.872C85.2101 238.717 85.1152 238.579 84.9858 238.458C84.8564 238.337 84.6968 238.229 84.5071 238.134C84.3173 238.039 84.0973 237.953 83.8472 237.876C83.6056 237.798 83.3339 237.72 83.032 237.643C82.592 237.539 82.2039 237.418 81.8674 237.28C81.5396 237.134 81.2593 236.957 81.0264 236.75C80.8021 236.543 80.6296 236.306 80.5088 236.038C80.3967 235.762 80.3406 235.439 80.3406 235.068C80.3406 234.714 80.4139 234.386 80.5606 234.084C80.7158 233.782 80.9272 233.524 81.1946 233.308C81.462 233.084 81.7769 232.911 82.1392 232.79C82.5015 232.67 82.8896 232.609 83.3037 232.609C83.7695 232.609 84.1836 232.674 84.5459 232.803C84.9168 232.924 85.2446 233.105 85.5293 233.347C85.8139 233.588 86.0598 233.877 86.2668 234.214L85.5551 234.912C85.374 234.628 85.167 234.382 84.9341 234.175C84.7098 233.968 84.4596 233.813 84.1836 233.709C83.9162 233.597 83.6186 233.541 83.2908 233.541C82.9112 233.541 82.5748 233.606 82.2815 233.735C81.9968 233.864 81.7726 234.045 81.6087 234.278C81.4448 234.503 81.3628 234.761 81.3628 235.055C81.3628 235.27 81.4016 235.465 81.4793 235.637C81.5569 235.801 81.6777 235.948 81.8416 236.077C82.0141 236.198 82.2341 236.31 82.5015 236.413C82.7775 236.508 83.1053 236.599 83.4849 236.685C83.9334 236.789 84.3345 236.914 84.6882 237.06C85.0505 237.207 85.3567 237.384 85.6069 237.591C85.8657 237.789 86.0598 238.022 86.1892 238.29C86.3272 238.557 86.3962 238.863 86.3962 239.208C86.3962 239.743 86.2625 240.213 85.9951 240.619C85.7277 241.015 85.3524 241.326 84.8694 241.55C84.3949 241.775 83.8385 241.887 83.2002 241.887ZM90.6843 241.887C90.0977 241.887 89.5672 241.736 89.0927 241.434C88.6183 241.123 88.2431 240.705 87.967 240.179C87.691 239.644 87.553 239.04 87.553 238.367C87.553 237.686 87.6953 237.082 87.98 236.556C88.2646 236.03 88.6442 235.615 89.1186 235.314C89.6017 235.012 90.1408 234.861 90.736 234.861C91.0897 234.861 91.4175 234.912 91.7194 235.016C92.0213 235.119 92.2887 235.266 92.5217 235.456C92.7632 235.637 92.9616 235.853 93.1169 236.103C93.2808 236.344 93.3929 236.607 93.4533 236.892L93.1686 236.75L93.2074 235.003H94.1779V241.757H93.1945V240.101L93.4533 239.933C93.3929 240.192 93.2764 240.442 93.1039 240.683C92.9314 240.916 92.7201 241.123 92.4699 241.304C92.2284 241.486 91.9523 241.628 91.6418 241.731C91.3399 241.835 91.0207 241.887 90.6843 241.887ZM90.9042 240.955C91.3528 240.955 91.7539 240.847 92.1076 240.632C92.4613 240.407 92.7373 240.101 92.9357 239.713C93.1427 239.316 93.2463 238.868 93.2463 238.367C93.2463 237.867 93.1427 237.423 92.9357 237.034C92.7373 236.646 92.4613 236.34 92.1076 236.116C91.7539 235.892 91.3528 235.779 90.9042 235.779C90.447 235.779 90.0416 235.892 89.6879 236.116C89.3429 236.34 89.0669 236.646 88.8598 237.034C88.6614 237.423 88.5622 237.867 88.5622 238.367C88.5622 238.859 88.6614 239.303 88.8598 239.7C89.0582 240.088 89.3343 240.394 89.6879 240.619C90.0416 240.843 90.447 240.955 90.9042 240.955ZM97.0002 241.757V233.23H97.9706V241.757H97.0002ZM95.4733 235.935V235.003H99.6786V235.935H95.4733ZM101.129 241.757V235.003H102.099V241.757H101.129ZM101.608 233.541C101.366 233.541 101.181 233.48 101.051 233.36C100.931 233.23 100.87 233.058 100.87 232.842C100.87 232.626 100.935 232.454 101.064 232.325C101.194 232.195 101.375 232.13 101.608 232.13C101.841 232.13 102.022 232.195 102.151 232.325C102.281 232.445 102.345 232.618 102.345 232.842C102.345 233.049 102.281 233.217 102.151 233.347C102.022 233.476 101.841 233.541 101.608 233.541ZM106.431 241.887C105.853 241.887 105.336 241.779 104.879 241.563C104.422 241.348 104.059 241.063 103.792 240.709L104.478 240.114C104.728 240.416 105.021 240.645 105.357 240.8C105.702 240.955 106.086 241.033 106.509 241.033C106.725 241.033 106.919 241.011 107.091 240.968C107.264 240.916 107.415 240.843 107.544 240.748C107.674 240.653 107.773 240.541 107.842 240.412C107.911 240.282 107.945 240.14 107.945 239.985C107.945 239.7 107.82 239.463 107.57 239.273C107.458 239.195 107.298 239.118 107.091 239.04C106.884 238.954 106.634 238.872 106.341 238.794C105.858 238.656 105.457 238.518 105.137 238.38C104.818 238.234 104.568 238.065 104.387 237.876C104.258 237.72 104.158 237.552 104.089 237.371C104.029 237.19 103.999 236.991 103.999 236.776C103.999 236.5 104.055 236.245 104.167 236.012C104.288 235.779 104.452 235.577 104.659 235.404C104.874 235.223 105.125 235.089 105.409 235.003C105.702 234.908 106.017 234.861 106.354 234.861C106.673 234.861 106.988 234.904 107.298 234.99C107.609 235.076 107.898 235.201 108.165 235.365C108.433 235.529 108.661 235.723 108.851 235.948L108.256 236.595C108.092 236.422 107.911 236.267 107.712 236.129C107.514 235.991 107.303 235.883 107.078 235.805C106.863 235.728 106.638 235.689 106.406 235.689C106.198 235.689 106.004 235.715 105.823 235.766C105.651 235.818 105.5 235.892 105.37 235.986C105.25 236.073 105.155 236.18 105.086 236.31C105.025 236.439 104.995 236.582 104.995 236.737C104.995 236.866 105.021 236.983 105.073 237.086C105.125 237.19 105.198 237.28 105.293 237.358C105.414 237.453 105.582 237.543 105.797 237.63C106.022 237.707 106.298 237.789 106.625 237.876C107.005 237.979 107.324 238.087 107.583 238.199C107.85 238.303 108.07 238.428 108.243 238.574C108.476 238.747 108.64 238.945 108.735 239.169C108.838 239.394 108.89 239.648 108.89 239.933C108.89 240.312 108.782 240.649 108.566 240.942C108.359 241.235 108.07 241.468 107.699 241.641C107.329 241.805 106.906 241.887 106.431 241.887ZM111.187 241.757V233.955C111.187 233.618 111.26 233.321 111.407 233.062C111.553 232.803 111.76 232.601 112.028 232.454C112.304 232.299 112.623 232.221 112.985 232.221C113.261 232.221 113.507 232.273 113.723 232.376C113.947 232.471 114.133 232.605 114.279 232.777L113.943 233.541C113.805 233.394 113.654 233.291 113.49 233.23C113.335 233.161 113.184 233.127 113.037 233.127C112.847 233.127 112.688 233.161 112.558 233.23C112.429 233.291 112.33 233.386 112.261 233.515C112.2 233.636 112.17 233.782 112.17 233.955V241.757H111.717C111.622 241.757 111.532 241.757 111.446 241.757C111.359 241.757 111.273 241.757 111.187 241.757ZM109.983 235.961V235.055H113.891V235.961H109.983ZM115.56 241.757V235.003H116.531V241.757H115.56ZM116.039 233.541C115.798 233.541 115.612 233.48 115.483 233.36C115.362 233.23 115.302 233.058 115.302 232.842C115.302 232.626 115.366 232.454 115.496 232.325C115.625 232.195 115.806 232.13 116.039 232.13C116.272 232.13 116.453 232.195 116.582 232.325C116.712 232.445 116.777 232.618 116.777 232.842C116.777 233.049 116.712 233.217 116.582 233.347C116.453 233.476 116.272 233.541 116.039 233.541ZM121.625 241.887C120.952 241.887 120.353 241.74 119.827 241.447C119.309 241.153 118.904 240.744 118.61 240.218C118.317 239.691 118.17 239.088 118.17 238.406C118.17 237.88 118.252 237.405 118.416 236.983C118.58 236.551 118.809 236.176 119.102 235.857C119.404 235.538 119.762 235.292 120.176 235.119C120.59 234.938 121.039 234.848 121.522 234.848C121.979 234.848 122.393 234.93 122.764 235.094C123.143 235.257 123.467 235.486 123.734 235.779C124.01 236.064 124.217 236.405 124.355 236.802C124.493 237.198 124.554 237.634 124.537 238.108L124.524 238.561H118.895L118.753 237.746H123.786L123.553 237.966V237.656C123.536 237.345 123.445 237.047 123.281 236.763C123.118 236.469 122.885 236.232 122.583 236.051C122.289 235.87 121.936 235.779 121.522 235.779C121.039 235.779 120.62 235.879 120.267 236.077C119.913 236.267 119.641 236.551 119.451 236.931C119.262 237.311 119.167 237.781 119.167 238.341C119.167 238.876 119.27 239.342 119.477 239.739C119.684 240.127 119.978 240.429 120.357 240.645C120.745 240.86 121.211 240.968 121.755 240.968C122.074 240.968 122.389 240.916 122.699 240.813C123.018 240.701 123.368 240.485 123.747 240.166L124.252 240.865C124.053 241.063 123.816 241.24 123.54 241.395C123.264 241.542 122.962 241.662 122.634 241.757C122.307 241.844 121.97 241.887 121.625 241.887ZM128.658 241.887C128.046 241.887 127.493 241.736 127.002 241.434C126.519 241.132 126.135 240.718 125.85 240.192C125.574 239.657 125.436 239.053 125.436 238.38C125.436 237.699 125.578 237.095 125.863 236.569C126.148 236.034 126.532 235.615 127.015 235.314C127.498 235.012 128.041 234.861 128.645 234.861C128.981 234.861 129.305 234.912 129.616 235.016C129.935 235.119 130.219 235.266 130.47 235.456C130.72 235.637 130.927 235.848 131.091 236.09C131.254 236.323 131.354 236.569 131.388 236.827L131.091 236.724V232.182H132.061V241.757H131.104L131.078 240.075L131.324 239.985C131.289 240.226 131.19 240.463 131.026 240.696C130.871 240.921 130.672 241.123 130.431 241.304C130.189 241.486 129.913 241.628 129.603 241.731C129.301 241.835 128.986 241.887 128.658 241.887ZM128.8 240.994C129.249 240.994 129.65 240.882 130.004 240.657C130.357 240.433 130.633 240.123 130.832 239.726C131.039 239.329 131.142 238.876 131.142 238.367C131.142 237.858 131.039 237.41 130.832 237.022C130.633 236.625 130.357 236.314 130.004 236.09C129.65 235.857 129.249 235.741 128.8 235.741C128.335 235.741 127.925 235.857 127.571 236.09C127.226 236.314 126.95 236.625 126.743 237.022C126.545 237.41 126.445 237.858 126.445 238.367C126.445 238.868 126.545 239.316 126.743 239.713C126.941 240.11 127.217 240.425 127.571 240.657C127.925 240.882 128.335 240.994 128.8 240.994ZM141.719 241.887C141.072 241.887 140.476 241.775 139.933 241.55C139.389 241.317 138.919 240.994 138.523 240.58C138.126 240.157 137.815 239.661 137.591 239.092C137.375 238.522 137.267 237.901 137.267 237.229C137.267 236.564 137.375 235.956 137.591 235.404C137.815 234.843 138.13 234.356 138.535 233.942C138.941 233.519 139.411 233.196 139.946 232.972C140.481 232.747 141.067 232.635 141.706 232.635C142.128 232.635 142.547 232.704 142.961 232.842C143.375 232.972 143.754 233.153 144.099 233.386C144.453 233.618 144.742 233.886 144.966 234.188L144.268 234.912C144.052 234.654 143.802 234.429 143.517 234.24C143.241 234.05 142.948 233.903 142.637 233.8C142.327 233.696 142.016 233.644 141.706 233.644C141.223 233.644 140.77 233.735 140.347 233.916C139.933 234.089 139.575 234.334 139.273 234.654C138.971 234.973 138.734 235.352 138.561 235.792C138.397 236.232 138.315 236.711 138.315 237.229C138.315 237.763 138.397 238.255 138.561 238.704C138.734 239.152 138.975 239.54 139.286 239.868C139.605 240.187 139.976 240.438 140.399 240.619C140.83 240.791 141.309 240.877 141.835 240.877C142.146 240.877 142.456 240.834 142.767 240.748C143.077 240.653 143.362 240.524 143.621 240.36C143.879 240.196 144.099 240.011 144.281 239.803L144.798 240.645C144.6 240.886 144.332 241.102 143.996 241.292C143.668 241.473 143.306 241.619 142.909 241.731C142.512 241.835 142.115 241.887 141.719 241.887ZM148.716 241.887C148.198 241.887 147.758 241.783 147.396 241.576C147.042 241.361 146.771 241.05 146.581 240.645C146.4 240.239 146.309 239.734 146.309 239.131V235.003H147.293V238.937C147.293 239.394 147.353 239.778 147.474 240.088C147.603 240.39 147.793 240.619 148.043 240.774C148.302 240.929 148.617 241.007 148.988 241.007C149.272 241.007 149.535 240.959 149.777 240.865C150.018 240.761 150.23 240.623 150.411 240.45C150.592 240.278 150.734 240.075 150.838 239.842C150.941 239.609 150.993 239.364 150.993 239.105V235.003H151.964V241.757H151.006L150.967 240.334L151.123 240.256C151.019 240.558 150.847 240.834 150.605 241.084C150.363 241.326 150.074 241.52 149.738 241.667C149.41 241.813 149.07 241.887 148.716 241.887ZM156.066 241.887C155.488 241.887 154.97 241.779 154.513 241.563C154.056 241.348 153.694 241.063 153.426 240.709L154.112 240.114C154.362 240.416 154.655 240.645 154.992 240.8C155.337 240.955 155.721 241.033 156.143 241.033C156.359 241.033 156.553 241.011 156.726 240.968C156.898 240.916 157.049 240.843 157.179 240.748C157.308 240.653 157.407 240.541 157.476 240.412C157.545 240.282 157.58 240.14 157.58 239.985C157.58 239.7 157.455 239.463 157.204 239.273C157.092 239.195 156.933 239.118 156.726 239.04C156.519 238.954 156.269 238.872 155.975 238.794C155.492 238.656 155.091 238.518 154.772 238.38C154.453 238.234 154.203 238.065 154.021 237.876C153.892 237.72 153.793 237.552 153.724 237.371C153.663 237.19 153.633 236.991 153.633 236.776C153.633 236.5 153.689 236.245 153.801 236.012C153.922 235.779 154.086 235.577 154.293 235.404C154.509 235.223 154.759 235.089 155.044 235.003C155.337 234.908 155.652 234.861 155.988 234.861C156.307 234.861 156.622 234.904 156.933 234.99C157.243 235.076 157.532 235.201 157.8 235.365C158.067 235.529 158.296 235.723 158.485 235.948L157.89 236.595C157.726 236.422 157.545 236.267 157.347 236.129C157.148 235.991 156.937 235.883 156.713 235.805C156.497 235.728 156.273 235.689 156.04 235.689C155.833 235.689 155.639 235.715 155.458 235.766C155.285 235.818 155.134 235.892 155.005 235.986C154.884 236.073 154.789 236.18 154.72 236.31C154.66 236.439 154.63 236.582 154.63 236.737C154.63 236.866 154.655 236.983 154.707 237.086C154.759 237.19 154.832 237.28 154.927 237.358C155.048 237.453 155.216 237.543 155.432 237.63C155.656 237.707 155.932 237.789 156.26 237.876C156.639 237.979 156.959 238.087 157.217 238.199C157.485 238.303 157.705 238.428 157.877 238.574C158.11 238.747 158.274 238.945 158.369 239.169C158.473 239.394 158.524 239.648 158.524 239.933C158.524 240.312 158.416 240.649 158.201 240.942C157.994 241.235 157.705 241.468 157.334 241.641C156.963 241.805 156.54 241.887 156.066 241.887ZM160.976 241.757V233.23H161.947V241.757H160.976ZM159.45 235.935V235.003H163.655V235.935H159.45ZM167.772 241.887C167.099 241.887 166.5 241.736 165.974 241.434C165.456 241.132 165.046 240.714 164.745 240.179C164.451 239.644 164.305 239.036 164.305 238.354C164.305 237.681 164.451 237.082 164.745 236.556C165.046 236.03 165.456 235.615 165.974 235.314C166.5 235.012 167.099 234.861 167.772 234.861C168.437 234.861 169.027 235.012 169.545 235.314C170.071 235.615 170.481 236.03 170.774 236.556C171.076 237.082 171.227 237.681 171.227 238.354C171.227 239.036 171.076 239.644 170.774 240.179C170.481 240.714 170.071 241.132 169.545 241.434C169.027 241.736 168.437 241.887 167.772 241.887ZM167.772 240.968C168.247 240.968 168.669 240.856 169.04 240.632C169.411 240.399 169.7 240.088 169.907 239.7C170.114 239.303 170.218 238.855 170.218 238.354C170.218 237.854 170.114 237.41 169.907 237.022C169.7 236.633 169.411 236.331 169.04 236.116C168.669 235.892 168.247 235.779 167.772 235.779C167.298 235.779 166.871 235.892 166.491 236.116C166.12 236.331 165.827 236.638 165.611 237.034C165.404 237.423 165.305 237.863 165.314 238.354C165.305 238.855 165.404 239.303 165.611 239.7C165.827 240.088 166.12 240.399 166.491 240.632C166.871 240.856 167.298 240.968 167.772 240.968ZM172.63 241.757V235.003H173.6L173.626 236.543L173.432 236.607C173.501 236.349 173.613 236.116 173.769 235.909C173.933 235.693 174.127 235.508 174.351 235.352C174.575 235.197 174.821 235.081 175.088 235.003C175.356 234.917 175.636 234.874 175.93 234.874C176.283 234.874 176.598 234.934 176.874 235.055C177.159 235.167 177.396 235.365 177.586 235.65C177.784 235.926 177.935 236.293 178.039 236.75L177.806 236.633L177.896 236.413C177.983 236.215 178.108 236.025 178.272 235.844C178.444 235.654 178.638 235.486 178.854 235.339C179.078 235.193 179.32 235.081 179.578 235.003C179.846 234.917 180.118 234.874 180.394 234.874C180.868 234.874 181.269 234.977 181.597 235.184C181.925 235.383 182.171 235.689 182.335 236.103C182.507 236.517 182.593 237.043 182.593 237.681V241.757H181.597V237.733C181.597 237.285 181.541 236.918 181.429 236.633C181.317 236.349 181.148 236.137 180.924 235.999C180.708 235.853 180.432 235.779 180.096 235.779C179.803 235.779 179.531 235.831 179.281 235.935C179.039 236.03 178.828 236.168 178.647 236.349C178.474 236.521 178.336 236.72 178.233 236.944C178.138 237.168 178.09 237.41 178.09 237.669V241.757H177.107V237.72C177.107 237.289 177.047 236.931 176.926 236.646C176.814 236.362 176.646 236.146 176.421 235.999C176.197 235.853 175.921 235.779 175.593 235.779C175.308 235.779 175.045 235.831 174.804 235.935C174.562 236.03 174.351 236.163 174.17 236.336C173.997 236.508 173.859 236.707 173.756 236.931C173.661 237.155 173.613 237.397 173.613 237.656V241.757H172.63ZM187.408 241.887C186.736 241.887 186.136 241.74 185.61 241.447C185.092 241.153 184.687 240.744 184.394 240.218C184.1 239.691 183.954 239.088 183.954 238.406C183.954 237.88 184.036 237.405 184.199 236.983C184.363 236.551 184.592 236.176 184.885 235.857C185.187 235.538 185.545 235.292 185.959 235.119C186.373 234.938 186.822 234.848 187.305 234.848C187.762 234.848 188.176 234.93 188.547 235.094C188.927 235.257 189.25 235.486 189.518 235.779C189.794 236.064 190.001 236.405 190.139 236.802C190.277 237.198 190.337 237.634 190.32 238.108L190.307 238.561H184.678L184.536 237.746H189.569L189.336 237.966V237.656C189.319 237.345 189.229 237.047 189.065 236.763C188.901 236.469 188.668 236.232 188.366 236.051C188.073 235.87 187.719 235.779 187.305 235.779C186.822 235.779 186.403 235.879 186.05 236.077C185.696 236.267 185.424 236.551 185.235 236.931C185.045 237.311 184.95 237.781 184.95 238.341C184.95 238.876 185.053 239.342 185.261 239.739C185.468 240.127 185.761 240.429 186.14 240.645C186.529 240.86 186.994 240.968 187.538 240.968C187.857 240.968 188.172 240.916 188.482 240.813C188.802 240.701 189.151 240.485 189.53 240.166L190.035 240.865C189.837 241.063 189.599 241.24 189.323 241.395C189.047 241.542 188.745 241.662 188.418 241.757C188.09 241.844 187.753 241.887 187.408 241.887ZM191.698 241.757V235.003H192.669L192.694 236.802L192.591 236.556C192.686 236.254 192.837 235.973 193.044 235.715C193.259 235.456 193.514 235.249 193.807 235.094C194.101 234.938 194.424 234.861 194.778 234.861C194.924 234.861 195.062 234.874 195.192 234.899C195.321 234.917 195.429 234.943 195.515 234.977L195.243 236.064C195.131 236.012 195.015 235.978 194.894 235.961C194.782 235.935 194.674 235.922 194.571 235.922C194.277 235.922 194.014 235.973 193.781 236.077C193.548 236.18 193.35 236.327 193.186 236.517C193.022 236.698 192.897 236.909 192.811 237.151C192.725 237.392 192.682 237.651 192.682 237.927V241.757H191.698ZM198.738 241.887C198.16 241.887 197.642 241.779 197.185 241.563C196.728 241.348 196.366 241.063 196.098 240.709L196.784 240.114C197.034 240.416 197.327 240.645 197.664 240.8C198.009 240.955 198.393 241.033 198.815 241.033C199.031 241.033 199.225 241.011 199.398 240.968C199.57 240.916 199.721 240.843 199.85 240.748C199.98 240.653 200.079 240.541 200.148 240.412C200.217 240.282 200.252 240.14 200.252 239.985C200.252 239.7 200.127 239.463 199.876 239.273C199.764 239.195 199.605 239.118 199.398 239.04C199.191 238.954 198.94 238.872 198.647 238.794C198.164 238.656 197.763 238.518 197.444 238.38C197.125 238.234 196.874 238.065 196.693 237.876C196.564 237.72 196.465 237.552 196.396 237.371C196.335 237.19 196.305 236.991 196.305 236.776C196.305 236.5 196.361 236.245 196.473 236.012C196.594 235.779 196.758 235.577 196.965 235.404C197.181 235.223 197.431 235.089 197.716 235.003C198.009 234.908 198.324 234.861 198.66 234.861C198.979 234.861 199.294 234.904 199.605 234.99C199.915 235.076 200.204 235.201 200.472 235.365C200.739 235.529 200.968 235.723 201.157 235.948L200.562 236.595C200.398 236.422 200.217 236.267 200.019 236.129C199.82 235.991 199.609 235.883 199.385 235.805C199.169 235.728 198.945 235.689 198.712 235.689C198.505 235.689 198.311 235.715 198.13 235.766C197.957 235.818 197.806 235.892 197.677 235.986C197.556 236.073 197.461 236.18 197.392 236.31C197.332 236.439 197.301 236.582 197.301 236.737C197.301 236.866 197.327 236.983 197.379 237.086C197.431 237.19 197.504 237.28 197.599 237.358C197.72 237.453 197.888 237.543 198.104 237.63C198.328 237.707 198.604 237.789 198.932 237.876C199.311 237.979 199.631 238.087 199.889 238.199C200.157 238.303 200.377 238.428 200.549 238.574C200.782 238.747 200.946 238.945 201.041 239.169C201.144 239.394 201.196 239.648 201.196 239.933C201.196 240.312 201.088 240.649 200.873 240.942C200.666 241.235 200.377 241.468 200.006 241.641C199.635 241.805 199.212 241.887 198.738 241.887Z" fill="#656565"/>
<g filter="url(#filter2_d_3727_13836)">
<rect x="252" y="26" width="197" height="123" rx="7.18851" fill="white"/>
<rect x="252.359" y="26.3594" width="196.281" height="122.281" rx="6.82908" stroke="#D1D1E1" stroke-opacity="0.3" stroke-width="0.71885"/>
</g>
<g filter="url(#filter3_d_3727_13836)">
<rect x="252" y="149" width="197" height="124" rx="7.18851" fill="#F8F9FA"/>
<rect x="252.359" y="149.359" width="196.281" height="123.281" rx="6.82908" stroke="#D1D1E1" stroke-opacity="0.3" stroke-width="0.71885"/>
</g>
<path d="M328.605 86.3093V66.7105L329.881 69.0223L324.844 71.4722L323.843 66.883L330.571 63.5016H333.711V86.3093H328.605ZM324.361 88V83.3418H338.059V88H324.361ZM347.341 88L347.203 87.655L354.656 72.4038L355.38 74.7156C355.081 75.4978 354.679 76.2109 354.172 76.8549C353.666 77.476 353.08 78.0166 352.413 78.4767C351.769 78.9137 351.09 79.2588 350.377 79.5118C349.664 79.7648 348.962 79.8914 348.272 79.8914C346.961 79.8914 345.753 79.5348 344.649 78.8217C343.545 78.1086 342.659 77.1655 341.992 75.9923C341.325 74.7962 340.992 73.508 340.992 72.1278C340.992 70.4716 341.371 68.9763 342.13 67.6422C342.912 66.308 343.971 65.2613 345.305 64.5022C346.639 63.7201 348.146 63.3291 349.825 63.3291C351.021 63.3291 352.148 63.5476 353.206 63.9846C354.265 64.3987 355.196 64.9968 356.001 65.7789C356.806 66.538 357.427 67.4121 357.865 68.4013C358.325 69.3904 358.555 70.4485 358.555 71.5757C358.555 72.3118 358.486 73.0594 358.348 73.8185C358.21 74.5776 358.003 75.3712 357.726 76.1994C357.45 77.0045 357.094 77.8901 356.657 78.8562C356.243 79.7994 355.76 80.846 355.208 81.9962L352.206 88H347.341ZM349.48 75.6128C350.262 75.6128 350.952 75.4402 351.55 75.0952C352.148 74.7501 352.62 74.2901 352.965 73.715C353.31 73.1169 353.482 72.4613 353.482 71.7482C353.482 70.9661 353.31 70.276 352.965 69.6779C352.643 69.0569 352.183 68.5738 351.585 68.2287C350.987 67.8607 350.296 67.6767 349.514 67.6767C348.801 67.6767 348.157 67.8492 347.582 68.1942C347.03 68.5393 346.581 69.0108 346.236 69.6089C345.914 70.207 345.753 70.9086 345.753 71.7137C345.753 72.4038 345.914 73.0479 346.236 73.646C346.581 74.2441 347.03 74.7271 347.582 75.0952C348.157 75.4402 348.79 75.6128 349.48 75.6128ZM361.189 80.2709V76.2339H378.476V80.2709H361.189ZM367.573 86.6198V69.816H372.058V86.6198H367.573Z" fill="#212121"/>
<path d="M302.187 117.757V113.241L302.277 113.875L298.616 108.699H299.845L302.847 112.995L302.575 112.969L305.331 108.699H306.496L302.989 114.017L303.183 113.138V117.757H302.187ZM309.607 117.886C308.934 117.886 308.335 117.74 307.808 117.446C307.291 117.153 306.885 116.743 306.592 116.217C306.299 115.691 306.152 115.087 306.152 114.406C306.152 113.879 306.234 113.405 306.398 112.982C306.562 112.551 306.79 112.176 307.084 111.857C307.386 111.537 307.744 111.291 308.158 111.119C308.572 110.938 309.02 110.847 309.503 110.847C309.961 110.847 310.375 110.929 310.746 111.093C311.125 111.257 311.449 111.486 311.716 111.779C311.992 112.064 312.199 112.404 312.337 112.801C312.475 113.198 312.535 113.634 312.518 114.108L312.505 114.561H306.877L306.734 113.746H311.768L311.535 113.966V113.655C311.518 113.345 311.427 113.047 311.263 112.762C311.099 112.469 310.866 112.232 310.564 112.051C310.271 111.869 309.917 111.779 309.503 111.779C309.02 111.779 308.602 111.878 308.248 112.076C307.895 112.266 307.623 112.551 307.433 112.93C307.243 113.31 307.148 113.78 307.148 114.341C307.148 114.876 307.252 115.341 307.459 115.738C307.666 116.126 307.959 116.428 308.339 116.644C308.727 116.86 309.193 116.968 309.736 116.968C310.055 116.968 310.37 116.916 310.681 116.812C311 116.7 311.349 116.484 311.729 116.165L312.234 116.864C312.035 117.062 311.798 117.239 311.522 117.395C311.246 117.541 310.944 117.662 310.616 117.757C310.288 117.843 309.952 117.886 309.607 117.886ZM316.536 117.886C315.95 117.886 315.419 117.735 314.945 117.433C314.47 117.123 314.095 116.704 313.819 116.178C313.543 115.643 313.405 115.04 313.405 114.367C313.405 113.685 313.547 113.081 313.832 112.555C314.117 112.029 314.496 111.615 314.971 111.313C315.454 111.011 315.993 110.86 316.588 110.86C316.942 110.86 317.269 110.912 317.571 111.015C317.873 111.119 318.141 111.266 318.374 111.455C318.615 111.637 318.814 111.852 318.969 112.102C319.133 112.344 319.245 112.607 319.305 112.892L319.021 112.749L319.059 111.003H320.03V117.757H319.046V116.101L319.305 115.932C319.245 116.191 319.128 116.441 318.956 116.683C318.783 116.916 318.572 117.123 318.322 117.304C318.08 117.485 317.804 117.627 317.494 117.731C317.192 117.834 316.873 117.886 316.536 117.886ZM316.756 116.955C317.205 116.955 317.606 116.847 317.96 116.631C318.313 116.407 318.589 116.101 318.788 115.712C318.995 115.316 319.098 114.867 319.098 114.367C319.098 113.866 318.995 113.422 318.788 113.034C318.589 112.646 318.313 112.34 317.96 112.115C317.606 111.891 317.205 111.779 316.756 111.779C316.299 111.779 315.894 111.891 315.54 112.115C315.195 112.34 314.919 112.646 314.712 113.034C314.513 113.422 314.414 113.866 314.414 114.367C314.414 114.858 314.513 115.303 314.712 115.699C314.91 116.088 315.186 116.394 315.54 116.618C315.894 116.842 316.299 116.955 316.756 116.955ZM321.92 117.757V111.003H322.891L322.917 112.801L322.813 112.555C322.908 112.253 323.059 111.973 323.266 111.714C323.482 111.455 323.736 111.248 324.03 111.093C324.323 110.938 324.646 110.86 325 110.86C325.147 110.86 325.285 110.873 325.414 110.899C325.543 110.916 325.651 110.942 325.738 110.977L325.466 112.064C325.354 112.012 325.237 111.977 325.116 111.96C325.004 111.934 324.896 111.921 324.793 111.921C324.5 111.921 324.237 111.973 324.004 112.076C323.771 112.18 323.572 112.327 323.408 112.516C323.245 112.698 323.119 112.909 323.033 113.15C322.947 113.392 322.904 113.651 322.904 113.927V117.757H321.92ZM328.96 117.886C328.382 117.886 327.865 117.778 327.407 117.563C326.95 117.347 326.588 117.062 326.32 116.709L327.006 116.114C327.256 116.415 327.55 116.644 327.886 116.799C328.231 116.955 328.615 117.032 329.038 117.032C329.253 117.032 329.447 117.011 329.62 116.968C329.792 116.916 329.943 116.842 330.073 116.748C330.202 116.653 330.301 116.541 330.37 116.411C330.439 116.282 330.474 116.139 330.474 115.984C330.474 115.699 330.349 115.462 330.099 115.272C329.987 115.195 329.827 115.117 329.62 115.04C329.413 114.953 329.163 114.871 328.869 114.794C328.386 114.656 327.985 114.518 327.666 114.38C327.347 114.233 327.097 114.065 326.916 113.875C326.786 113.72 326.687 113.552 326.618 113.37C326.558 113.189 326.527 112.991 326.527 112.775C326.527 112.499 326.584 112.245 326.696 112.012C326.816 111.779 326.98 111.576 327.187 111.404C327.403 111.222 327.653 111.089 327.938 111.003C328.231 110.908 328.546 110.86 328.882 110.86C329.202 110.86 329.516 110.903 329.827 110.99C330.138 111.076 330.426 111.201 330.694 111.365C330.961 111.529 331.19 111.723 331.38 111.947L330.784 112.594C330.621 112.422 330.439 112.266 330.241 112.128C330.043 111.99 329.831 111.882 329.607 111.805C329.391 111.727 329.167 111.688 328.934 111.688C328.727 111.688 328.533 111.714 328.352 111.766C328.179 111.818 328.028 111.891 327.899 111.986C327.778 112.072 327.683 112.18 327.614 112.309C327.554 112.439 327.524 112.581 327.524 112.736C327.524 112.866 327.55 112.982 327.601 113.086C327.653 113.189 327.726 113.28 327.821 113.357C327.942 113.452 328.11 113.543 328.326 113.629C328.55 113.707 328.826 113.789 329.154 113.875C329.534 113.979 329.853 114.086 330.112 114.199C330.379 114.302 330.599 114.427 330.772 114.574C331.004 114.746 331.168 114.945 331.263 115.169C331.367 115.393 331.419 115.648 331.419 115.932C331.419 116.312 331.311 116.648 331.095 116.942C330.888 117.235 330.599 117.468 330.228 117.64C329.857 117.804 329.434 117.886 328.96 117.886ZM336.954 117.757V108.699H342.44V109.683H337.963V116.773H342.414V117.757H336.954ZM337.42 113.59V112.607H341.715V113.59H337.42ZM348.905 117.757L346.563 114.742L346.447 114.6L343.639 111.003H344.868L347.171 113.966L347.301 114.134L350.121 117.757H348.905ZM343.587 117.757L346.343 114.199L346.925 114.897L344.751 117.757H343.587ZM347.365 114.444L346.809 113.759L348.776 111.003H349.953L347.365 114.444ZM351.274 120.603V111.003H352.244L352.27 112.646L352.089 112.672C352.167 112.344 352.335 112.046 352.594 111.779C352.853 111.503 353.167 111.283 353.538 111.119C353.909 110.955 354.302 110.873 354.716 110.873C355.32 110.873 355.859 111.024 356.333 111.326C356.816 111.628 357.2 112.042 357.485 112.568C357.77 113.094 357.912 113.698 357.912 114.38C357.912 115.053 357.774 115.652 357.498 116.178C357.222 116.704 356.842 117.123 356.359 117.433C355.876 117.735 355.333 117.886 354.729 117.886C354.306 117.886 353.905 117.8 353.525 117.627C353.146 117.455 352.822 117.231 352.555 116.955C352.288 116.67 352.111 116.364 352.024 116.036H352.257V120.603H351.274ZM354.574 116.955C355.031 116.955 355.436 116.842 355.79 116.618C356.143 116.394 356.424 116.088 356.631 115.699C356.838 115.311 356.941 114.871 356.941 114.38C356.941 113.879 356.838 113.435 356.631 113.047C356.424 112.659 356.143 112.353 355.79 112.128C355.436 111.904 355.031 111.792 354.574 111.792C354.116 111.792 353.707 111.904 353.344 112.128C352.991 112.344 352.71 112.646 352.503 113.034C352.296 113.422 352.193 113.866 352.193 114.367C352.193 114.867 352.296 115.311 352.503 115.699C352.71 116.088 352.991 116.394 353.344 116.618C353.707 116.842 354.116 116.955 354.574 116.955ZM362.299 117.886C361.626 117.886 361.027 117.74 360.501 117.446C359.983 117.153 359.578 116.743 359.284 116.217C358.991 115.691 358.844 115.087 358.844 114.406C358.844 113.879 358.926 113.405 359.09 112.982C359.254 112.551 359.483 112.176 359.776 111.857C360.078 111.537 360.436 111.291 360.85 111.119C361.264 110.938 361.713 110.847 362.196 110.847C362.653 110.847 363.067 110.929 363.438 111.093C363.817 111.257 364.141 111.486 364.408 111.779C364.684 112.064 364.891 112.404 365.029 112.801C365.167 113.198 365.228 113.634 365.211 114.108L365.198 114.561H359.569L359.427 113.746H364.46L364.227 113.966V113.655C364.21 113.345 364.119 113.047 363.955 112.762C363.792 112.469 363.559 112.232 363.257 112.051C362.963 111.869 362.61 111.779 362.196 111.779C361.713 111.779 361.294 111.878 360.941 112.076C360.587 112.266 360.315 112.551 360.125 112.93C359.936 113.31 359.841 113.78 359.841 114.341C359.841 114.876 359.944 115.341 360.151 115.738C360.358 116.126 360.652 116.428 361.031 116.644C361.419 116.86 361.885 116.968 362.429 116.968C362.748 116.968 363.063 116.916 363.373 116.812C363.692 116.7 364.042 116.484 364.421 116.165L364.926 116.864C364.727 117.062 364.49 117.239 364.214 117.395C363.938 117.541 363.636 117.662 363.308 117.757C362.981 117.843 362.644 117.886 362.299 117.886ZM366.589 117.757V111.003H367.559L367.585 112.801L367.482 112.555C367.577 112.253 367.728 111.973 367.935 111.714C368.15 111.455 368.405 111.248 368.698 111.093C368.991 110.938 369.315 110.86 369.668 110.86C369.815 110.86 369.953 110.873 370.082 110.899C370.212 110.916 370.32 110.942 370.406 110.977L370.134 112.064C370.022 112.012 369.906 111.977 369.785 111.96C369.673 111.934 369.565 111.921 369.461 111.921C369.168 111.921 368.905 111.973 368.672 112.076C368.439 112.18 368.241 112.327 368.077 112.516C367.913 112.698 367.788 112.909 367.702 113.15C367.615 113.392 367.572 113.651 367.572 113.927V117.757H366.589ZM371.675 117.757V111.003H372.645V117.757H371.675ZM372.153 109.54C371.912 109.54 371.726 109.48 371.597 109.359C371.476 109.23 371.416 109.057 371.416 108.842C371.416 108.626 371.481 108.453 371.61 108.324C371.739 108.195 371.92 108.13 372.153 108.13C372.386 108.13 372.567 108.195 372.697 108.324C372.826 108.445 372.891 108.617 372.891 108.842C372.891 109.049 372.826 109.217 372.697 109.346C372.567 109.476 372.386 109.54 372.153 109.54ZM377.74 117.886C377.068 117.886 376.468 117.74 375.942 117.446C375.424 117.153 375.019 116.743 374.726 116.217C374.432 115.691 374.286 115.087 374.286 114.406C374.286 113.879 374.368 113.405 374.531 112.982C374.695 112.551 374.924 112.176 375.217 111.857C375.519 111.537 375.877 111.291 376.291 111.119C376.705 110.938 377.154 110.847 377.637 110.847C378.094 110.847 378.508 110.929 378.879 111.093C379.259 111.257 379.582 111.486 379.85 111.779C380.126 112.064 380.333 112.404 380.471 112.801C380.609 113.198 380.669 113.634 380.652 114.108L380.639 114.561H375.01L374.868 113.746H379.901L379.668 113.966V113.655C379.651 113.345 379.561 113.047 379.397 112.762C379.233 112.469 379 112.232 378.698 112.051C378.405 111.869 378.051 111.779 377.637 111.779C377.154 111.779 376.735 111.878 376.382 112.076C376.028 112.266 375.756 112.551 375.567 112.93C375.377 113.31 375.282 113.78 375.282 114.341C375.282 114.876 375.385 115.341 375.593 115.738C375.8 116.126 376.093 116.428 376.472 116.644C376.861 116.86 377.326 116.968 377.87 116.968C378.189 116.968 378.504 116.916 378.814 116.812C379.134 116.7 379.483 116.484 379.862 116.165L380.367 116.864C380.169 117.062 379.931 117.239 379.655 117.395C379.379 117.541 379.077 117.662 378.75 117.757C378.422 117.843 378.085 117.886 377.74 117.886ZM382.03 117.757V111.003H382.988L383.026 112.413L382.871 112.478C382.957 112.184 383.126 111.917 383.376 111.675C383.626 111.434 383.924 111.24 384.269 111.093C384.622 110.938 384.985 110.86 385.356 110.86C385.856 110.86 386.274 110.959 386.611 111.158C386.947 111.356 387.202 111.662 387.374 112.076C387.547 112.491 387.633 113.017 387.633 113.655V117.757H386.649V113.707C386.649 113.258 386.589 112.892 386.468 112.607C386.356 112.314 386.179 112.098 385.938 111.96C385.696 111.822 385.399 111.757 385.045 111.766C384.752 111.766 384.48 111.818 384.23 111.921C383.98 112.016 383.764 112.15 383.583 112.322C383.402 112.495 383.259 112.693 383.156 112.918C383.052 113.142 383.001 113.383 383.001 113.642V117.757H382.522C382.461 117.757 382.392 117.757 382.315 117.757C382.237 117.757 382.142 117.757 382.03 117.757ZM392.332 117.886C391.694 117.886 391.124 117.735 390.624 117.433C390.124 117.123 389.727 116.704 389.434 116.178C389.149 115.643 389.007 115.04 389.007 114.367C389.007 113.694 389.149 113.094 389.434 112.568C389.727 112.033 390.124 111.615 390.624 111.313C391.124 111.011 391.698 110.86 392.345 110.86C392.923 110.86 393.449 110.977 393.924 111.21C394.398 111.434 394.778 111.749 395.062 112.154L394.493 112.853C394.329 112.637 394.131 112.447 393.898 112.284C393.673 112.12 393.428 111.995 393.16 111.908C392.901 111.813 392.643 111.766 392.384 111.766C391.927 111.766 391.517 111.882 391.155 112.115C390.792 112.34 390.503 112.646 390.288 113.034C390.081 113.422 389.977 113.866 389.977 114.367C389.977 114.867 390.081 115.316 390.288 115.712C390.503 116.101 390.792 116.407 391.155 116.631C391.517 116.855 391.922 116.968 392.371 116.968C392.63 116.968 392.884 116.929 393.134 116.851C393.384 116.765 393.622 116.644 393.846 116.489C394.07 116.334 394.277 116.139 394.467 115.907L395.036 116.605C394.743 116.993 394.351 117.304 393.859 117.537C393.367 117.77 392.858 117.886 392.332 117.886ZM399.272 117.886C398.599 117.886 398 117.74 397.474 117.446C396.956 117.153 396.551 116.743 396.257 116.217C395.964 115.691 395.817 115.087 395.817 114.406C395.817 113.879 395.899 113.405 396.063 112.982C396.227 112.551 396.456 112.176 396.749 111.857C397.051 111.537 397.409 111.291 397.823 111.119C398.237 110.938 398.686 110.847 399.169 110.847C399.626 110.847 400.04 110.929 400.411 111.093C400.79 111.257 401.114 111.486 401.381 111.779C401.657 112.064 401.864 112.404 402.002 112.801C402.14 113.198 402.201 113.634 402.184 114.108L402.171 114.561H396.542L396.4 113.746H401.433L401.2 113.966V113.655C401.183 113.345 401.092 113.047 400.928 112.762C400.765 112.469 400.532 112.232 400.23 112.051C399.936 111.869 399.583 111.779 399.169 111.779C398.686 111.779 398.267 111.878 397.914 112.076C397.56 112.266 397.288 112.551 397.098 112.93C396.909 113.31 396.814 113.78 396.814 114.341C396.814 114.876 396.917 115.341 397.124 115.738C397.331 116.126 397.625 116.428 398.004 116.644C398.392 116.86 398.858 116.968 399.402 116.968C399.721 116.968 400.036 116.916 400.346 116.812C400.665 116.7 401.015 116.484 401.394 116.165L401.899 116.864C401.701 117.062 401.463 117.239 401.187 117.395C400.911 117.541 400.609 117.662 400.282 117.757C399.954 117.843 399.617 117.886 399.272 117.886Z" fill="#656565"/>
<path d="M312.752 212L312.614 211.655L320.067 196.404L320.792 198.716C320.493 199.498 320.09 200.211 319.584 200.855C319.078 201.476 318.492 202.017 317.825 202.477C317.181 202.914 316.502 203.259 315.789 203.512C315.076 203.765 314.374 203.891 313.684 203.891C312.373 203.891 311.165 203.535 310.061 202.822C308.957 202.109 308.071 201.165 307.404 199.992C306.737 198.796 306.404 197.508 306.404 196.128C306.404 194.472 306.783 192.976 307.542 191.642C308.324 190.308 309.382 189.261 310.717 188.502C312.051 187.72 313.558 187.329 315.237 187.329C316.433 187.329 317.56 187.548 318.618 187.985C319.676 188.399 320.608 188.997 321.413 189.779C322.218 190.538 322.839 191.412 323.276 192.401C323.736 193.39 323.966 194.449 323.966 195.576C323.966 196.312 323.897 197.059 323.759 197.819C323.621 198.578 323.414 199.371 323.138 200.199C322.862 201.004 322.506 201.89 322.069 202.856C321.655 203.799 321.172 204.846 320.62 205.996L317.618 212H312.752ZM314.892 199.613C315.674 199.613 316.364 199.44 316.962 199.095C317.56 198.75 318.032 198.29 318.377 197.715C318.722 197.117 318.894 196.461 318.894 195.748C318.894 194.966 318.722 194.276 318.377 193.678C318.055 193.057 317.595 192.574 316.997 192.229C316.398 191.861 315.708 191.677 314.926 191.677C314.213 191.677 313.569 191.849 312.994 192.194C312.442 192.539 311.993 193.011 311.648 193.609C311.326 194.207 311.165 194.909 311.165 195.714C311.165 196.404 311.326 197.048 311.648 197.646C311.993 198.244 312.442 198.727 312.994 199.095C313.569 199.44 314.202 199.613 314.892 199.613ZM328.188 212L337.953 190.055L339.196 192.298H326.705V187.709H342.197L342.715 190.365L333.468 212H328.188ZM349.334 212L365.31 187.847H369.933L353.785 212H349.334ZM351.128 200.648C350.001 200.648 348.989 200.36 348.092 199.785C347.218 199.21 346.528 198.428 346.022 197.439C345.538 196.427 345.297 195.277 345.297 193.988C345.297 192.7 345.538 191.55 346.022 190.538C346.528 189.503 347.218 188.709 348.092 188.157C348.966 187.582 349.978 187.295 351.128 187.295C352.278 187.295 353.279 187.582 354.13 188.157C355.004 188.709 355.683 189.503 356.166 190.538C356.672 191.55 356.925 192.7 356.925 193.988C356.925 195.254 356.672 196.392 356.166 197.404C355.66 198.394 354.97 199.187 354.096 199.785C353.222 200.36 352.232 200.648 351.128 200.648ZM351.128 197.404C351.542 197.404 351.899 197.266 352.198 196.99C352.497 196.714 352.715 196.323 352.854 195.817C353.015 195.288 353.095 194.679 353.095 193.988C353.095 193.298 353.015 192.689 352.854 192.16C352.715 191.631 352.497 191.228 352.198 190.952C351.899 190.676 351.542 190.538 351.128 190.538C350.714 190.538 350.346 190.688 350.024 190.987C349.725 191.263 349.495 191.665 349.334 192.194C349.173 192.7 349.092 193.298 349.092 193.988C349.092 194.679 349.173 195.288 349.334 195.817C349.495 196.323 349.725 196.714 350.024 196.99C350.346 197.266 350.714 197.404 351.128 197.404ZM368.519 212.311C367.392 212.311 366.379 212.023 365.482 211.448C364.608 210.873 363.918 210.091 363.412 209.102C362.906 208.089 362.653 206.951 362.653 205.686C362.653 204.374 362.894 203.213 363.377 202.201C363.884 201.188 364.574 200.395 365.448 199.82C366.345 199.245 367.369 198.957 368.519 198.957C369.646 198.957 370.646 199.245 371.521 199.82C372.395 200.395 373.073 201.188 373.556 202.201C374.039 203.213 374.281 204.374 374.281 205.686C374.281 206.928 374.028 208.055 373.522 209.067C373.016 210.079 372.326 210.873 371.452 211.448C370.6 212.023 369.623 212.311 368.519 212.311ZM368.519 209.102C368.91 209.102 369.255 208.964 369.554 208.688C369.876 208.388 370.117 207.986 370.278 207.48C370.439 206.974 370.52 206.376 370.52 205.686C370.52 204.973 370.439 204.363 370.278 203.857C370.117 203.328 369.876 202.925 369.554 202.649C369.255 202.35 368.91 202.201 368.519 202.201C368.082 202.201 367.714 202.35 367.415 202.649C367.115 202.925 366.874 203.328 366.69 203.857C366.529 204.363 366.448 204.973 366.448 205.686C366.448 206.376 366.529 206.974 366.69 207.48C366.851 207.986 367.081 208.388 367.38 208.688C367.702 208.964 368.082 209.102 368.519 209.102ZM377.482 204.271V200.234H394.769V204.271H377.482ZM383.866 210.62V193.816H388.351V210.62H383.866Z" fill="#212121"/>
<path d="M307.271 241.887C306.624 241.887 306.029 241.775 305.486 241.55C304.942 241.317 304.472 240.994 304.075 240.58C303.678 240.157 303.368 239.661 303.144 239.092C302.928 238.522 302.82 237.901 302.82 237.229C302.82 236.564 302.928 235.956 303.144 235.404C303.368 234.843 303.683 234.356 304.088 233.942C304.494 233.519 304.964 233.196 305.499 232.972C306.033 232.747 306.62 232.635 307.258 232.635C307.681 232.635 308.099 232.704 308.513 232.842C308.927 232.972 309.307 233.153 309.652 233.386C310.006 233.618 310.295 233.886 310.519 234.188L309.82 234.912C309.605 234.654 309.354 234.429 309.07 234.24C308.794 234.05 308.5 233.903 308.19 233.8C307.879 233.696 307.569 233.644 307.258 233.644C306.775 233.644 306.322 233.735 305.9 233.916C305.486 234.089 305.128 234.334 304.826 234.654C304.524 234.973 304.287 235.352 304.114 235.792C303.95 236.232 303.868 236.711 303.868 237.229C303.868 237.763 303.95 238.255 304.114 238.704C304.287 239.152 304.528 239.54 304.839 239.868C305.158 240.187 305.529 240.438 305.951 240.619C306.383 240.791 306.861 240.877 307.388 240.877C307.698 240.877 308.009 240.834 308.319 240.748C308.63 240.653 308.915 240.524 309.173 240.36C309.432 240.196 309.652 240.011 309.833 239.803L310.351 240.645C310.152 240.886 309.885 241.102 309.549 241.292C309.221 241.473 308.858 241.619 308.462 241.731C308.065 241.835 307.668 241.887 307.271 241.887ZM311.901 241.757V232.182H312.871V241.757H311.901ZM315.04 241.757V235.003H316.01V241.757H315.04ZM315.519 233.541C315.277 233.541 315.092 233.48 314.962 233.36C314.841 233.23 314.781 233.058 314.781 232.842C314.781 232.626 314.846 232.454 314.975 232.325C315.105 232.195 315.286 232.13 315.519 232.13C315.752 232.13 315.933 232.195 316.062 232.325C316.191 232.445 316.256 232.618 316.256 232.842C316.256 233.049 316.191 233.217 316.062 233.347C315.933 233.476 315.752 233.541 315.519 233.541ZM321.106 241.887C320.433 241.887 319.833 241.74 319.307 241.447C318.79 241.153 318.384 240.744 318.091 240.218C317.798 239.691 317.651 239.088 317.651 238.406C317.651 237.88 317.733 237.405 317.897 236.983C318.061 236.551 318.289 236.176 318.583 235.857C318.884 235.538 319.242 235.292 319.656 235.119C320.071 234.938 320.519 234.848 321.002 234.848C321.459 234.848 321.873 234.93 322.244 235.094C322.624 235.257 322.947 235.486 323.215 235.779C323.491 236.064 323.698 236.405 323.836 236.802C323.974 237.198 324.034 237.634 324.017 238.108L324.004 238.561H318.375L318.233 237.746H323.267L323.034 237.966V237.656C323.016 237.345 322.926 237.047 322.762 236.763C322.598 236.469 322.365 236.232 322.063 236.051C321.77 235.87 321.416 235.779 321.002 235.779C320.519 235.779 320.101 235.879 319.747 236.077C319.393 236.267 319.122 236.551 318.932 236.931C318.742 237.311 318.647 237.781 318.647 238.341C318.647 238.876 318.751 239.342 318.958 239.739C319.165 240.127 319.458 240.429 319.838 240.645C320.226 240.86 320.692 240.968 321.235 240.968C321.554 240.968 321.869 240.916 322.18 240.813C322.499 240.701 322.848 240.485 323.228 240.166L323.732 240.865C323.534 241.063 323.297 241.24 323.021 241.395C322.745 241.542 322.443 241.662 322.115 241.757C321.787 241.844 321.451 241.887 321.106 241.887ZM325.395 241.757V235.003H326.353L326.392 236.413L326.236 236.478C326.323 236.185 326.491 235.917 326.741 235.676C326.991 235.434 327.289 235.24 327.634 235.094C327.988 234.938 328.35 234.861 328.721 234.861C329.221 234.861 329.639 234.96 329.976 235.158C330.312 235.357 330.567 235.663 330.739 236.077C330.912 236.491 330.998 237.017 330.998 237.656V241.757H330.015V237.707C330.015 237.259 329.954 236.892 329.834 236.607C329.721 236.314 329.545 236.099 329.303 235.961C329.062 235.822 328.764 235.758 328.41 235.766C328.117 235.766 327.845 235.818 327.595 235.922C327.345 236.017 327.129 236.15 326.948 236.323C326.767 236.495 326.625 236.694 326.521 236.918C326.418 237.142 326.366 237.384 326.366 237.643V241.757H325.887C325.827 241.757 325.758 241.757 325.68 241.757C325.602 241.757 325.508 241.757 325.395 241.757ZM333.782 241.757V233.23H334.753V241.757H333.782ZM332.255 235.935V235.003H336.461V235.935H332.255ZM341.667 241.757V232.7H345.212C345.739 232.7 346.213 232.825 346.636 233.075C347.067 233.317 347.408 233.649 347.658 234.071C347.908 234.494 348.033 234.973 348.033 235.508C348.033 236.008 347.912 236.461 347.671 236.866C347.429 237.272 347.102 237.595 346.688 237.837C346.273 238.07 345.808 238.186 345.29 238.186H342.676V241.757H341.667ZM347.192 241.757L344.915 237.772L345.885 237.436L348.395 241.757H347.192ZM342.676 237.203H345.381C345.7 237.203 345.98 237.129 346.222 236.983C346.463 236.836 346.653 236.638 346.791 236.388C346.929 236.129 346.998 235.835 346.998 235.508C346.998 235.154 346.916 234.839 346.752 234.563C346.588 234.287 346.36 234.071 346.066 233.916C345.782 233.761 345.454 233.683 345.083 233.683H342.676V237.203ZM352.544 241.887C351.871 241.887 351.272 241.74 350.746 241.447C350.228 241.153 349.823 240.744 349.529 240.218C349.236 239.691 349.089 239.088 349.089 238.406C349.089 237.88 349.171 237.405 349.335 236.983C349.499 236.551 349.728 236.176 350.021 235.857C350.323 235.538 350.681 235.292 351.095 235.119C351.509 234.938 351.958 234.848 352.441 234.848C352.898 234.848 353.312 234.93 353.683 235.094C354.062 235.257 354.386 235.486 354.653 235.779C354.929 236.064 355.136 236.405 355.274 236.802C355.412 237.198 355.473 237.634 355.456 238.108L355.443 238.561H349.814L349.672 237.746H354.705L354.472 237.966V237.656C354.455 237.345 354.364 237.047 354.2 236.763C354.036 236.469 353.804 236.232 353.502 236.051C353.208 235.87 352.855 235.779 352.441 235.779C351.958 235.779 351.539 235.879 351.186 236.077C350.832 236.267 350.56 236.551 350.37 236.931C350.181 237.311 350.086 237.781 350.086 238.341C350.086 238.876 350.189 239.342 350.396 239.739C350.603 240.127 350.897 240.429 351.276 240.645C351.664 240.86 352.13 240.968 352.674 240.968C352.993 240.968 353.308 240.916 353.618 240.813C353.937 240.701 354.287 240.485 354.666 240.166L355.171 240.865C354.972 241.063 354.735 241.24 354.459 241.395C354.183 241.542 353.881 241.662 353.553 241.757C353.226 241.844 352.889 241.887 352.544 241.887ZM357.765 241.757V233.23H358.736V241.757H357.765ZM356.239 235.935V235.003H360.444V235.935H356.239ZM364.548 241.887C363.876 241.887 363.276 241.74 362.75 241.447C362.232 241.153 361.827 240.744 361.534 240.218C361.24 239.691 361.094 239.088 361.094 238.406C361.094 237.88 361.176 237.405 361.339 236.983C361.503 236.551 361.732 236.176 362.025 235.857C362.327 235.538 362.685 235.292 363.099 235.119C363.513 234.938 363.962 234.848 364.445 234.848C364.902 234.848 365.316 234.93 365.687 235.094C366.067 235.257 366.39 235.486 366.658 235.779C366.934 236.064 367.141 236.405 367.279 236.802C367.417 237.198 367.477 237.634 367.46 238.108L367.447 238.561H361.818L361.676 237.746H366.709L366.476 237.966V237.656C366.459 237.345 366.369 237.047 366.205 236.763C366.041 236.469 365.808 236.232 365.506 236.051C365.213 235.87 364.859 235.779 364.445 235.779C363.962 235.779 363.543 235.879 363.19 236.077C362.836 236.267 362.564 236.551 362.375 236.931C362.185 237.311 362.09 237.781 362.09 238.341C362.09 238.876 362.193 239.342 362.4 239.739C362.608 240.127 362.901 240.429 363.28 240.645C363.669 240.86 364.134 240.968 364.678 240.968C364.997 240.968 365.312 240.916 365.622 240.813C365.942 240.701 366.291 240.485 366.67 240.166L367.175 240.865C366.977 241.063 366.739 241.24 366.463 241.395C366.187 241.542 365.885 241.662 365.558 241.757C365.23 241.844 364.893 241.887 364.548 241.887ZM368.838 241.757V235.003H369.796L369.834 236.413L369.679 236.478C369.765 236.185 369.934 235.917 370.184 235.676C370.434 235.434 370.732 235.24 371.077 235.094C371.43 234.938 371.793 234.861 372.163 234.861C372.664 234.861 373.082 234.96 373.419 235.158C373.755 235.357 374.009 235.663 374.182 236.077C374.355 236.491 374.441 237.017 374.441 237.656V241.757H373.457V237.707C373.457 237.259 373.397 236.892 373.276 236.607C373.164 236.314 372.987 236.099 372.746 235.961C372.504 235.822 372.207 235.758 371.853 235.766C371.56 235.766 371.288 235.818 371.038 235.922C370.788 236.017 370.572 236.15 370.391 236.323C370.21 236.495 370.067 236.694 369.964 236.918C369.86 237.142 369.809 237.384 369.809 237.643V241.757H369.33C369.269 241.757 369.2 241.757 369.123 241.757C369.045 241.757 368.95 241.757 368.838 241.757ZM377.225 241.757V233.23H378.195V241.757H377.225ZM375.698 235.935V235.003H379.903V235.935H375.698ZM381.354 241.757V235.003H382.324V241.757H381.354ZM381.833 233.541C381.591 233.541 381.406 233.48 381.276 233.36C381.155 233.23 381.095 233.058 381.095 232.842C381.095 232.626 381.16 232.454 381.289 232.325C381.419 232.195 381.6 232.13 381.833 232.13C382.066 232.13 382.247 232.195 382.376 232.325C382.505 232.445 382.57 232.618 382.57 232.842C382.57 233.049 382.505 233.217 382.376 233.347C382.247 233.476 382.066 233.541 381.833 233.541ZM387.433 241.887C386.76 241.887 386.16 241.736 385.634 241.434C385.116 241.132 384.707 240.714 384.405 240.179C384.111 239.644 383.965 239.036 383.965 238.354C383.965 237.681 384.111 237.082 384.405 236.556C384.707 236.03 385.116 235.615 385.634 235.314C386.16 235.012 386.76 234.861 387.433 234.861C388.097 234.861 388.688 235.012 389.205 235.314C389.731 235.615 390.141 236.03 390.434 236.556C390.736 237.082 390.887 237.681 390.887 238.354C390.887 239.036 390.736 239.644 390.434 240.179C390.141 240.714 389.731 241.132 389.205 241.434C388.688 241.736 388.097 241.887 387.433 241.887ZM387.433 240.968C387.907 240.968 388.33 240.856 388.701 240.632C389.072 240.399 389.361 240.088 389.568 239.7C389.775 239.303 389.878 238.855 389.878 238.354C389.878 237.854 389.775 237.41 389.568 237.022C389.361 236.633 389.072 236.331 388.701 236.116C388.33 235.892 387.907 235.779 387.433 235.779C386.958 235.779 386.531 235.892 386.152 236.116C385.781 236.331 385.487 236.638 385.272 237.034C385.065 237.423 384.965 237.863 384.974 238.354C384.965 238.855 385.065 239.303 385.272 239.7C385.487 240.088 385.781 240.399 386.152 240.632C386.531 240.856 386.958 240.968 387.433 240.968ZM392.303 241.757V235.003H393.261L393.3 236.413L393.144 236.478C393.231 236.185 393.399 235.917 393.649 235.676C393.899 235.434 394.197 235.24 394.542 235.094C394.895 234.938 395.258 234.861 395.629 234.861C396.129 234.861 396.547 234.96 396.884 235.158C397.22 235.357 397.475 235.663 397.647 236.077C397.82 236.491 397.906 237.017 397.906 237.656V241.757H396.923V237.707C396.923 237.259 396.862 236.892 396.741 236.607C396.629 236.314 396.452 236.099 396.211 235.961C395.969 235.822 395.672 235.758 395.318 235.766C395.025 235.766 394.753 235.818 394.503 235.922C394.253 236.017 394.037 236.15 393.856 236.323C393.675 236.495 393.532 236.694 393.429 236.918C393.325 237.142 393.274 237.384 393.274 237.643V241.757H392.795C392.735 241.757 392.666 241.757 392.588 241.757C392.51 241.757 392.415 241.757 392.303 241.757Z" fill="#656565"/>
<g clip-path="url(#clip2_3727_13836)">
<path d="M412.992 314.007C422.867 308.141 422.995 307.703 417.818 297.451C423.684 307.325 424.114 307.455 434.374 302.276C424.499 308.142 424.369 308.573 429.548 318.832C423.681 308.95 423.244 308.829 412.992 314.007Z" fill="black"/>
</g>
<defs>
<filter id="filter0_d_3727_13836" x="0.245977" y="0.121379" width="280.508" height="180.508" filterUnits="userSpaceOnUse" color-interpolation-filters="sRGB">
<feFlood flood-opacity="0" result="BackgroundImageFix"/>
<feColorMatrix in="SourceAlpha" type="matrix" values="0 0 0 0 0 0 0 0 0 0 0 0 0 0 0 0 0 0 127 0" result="hardAlpha"/>
<feOffset dy="2.8754"/>
<feGaussianBlur stdDeviation="14.377"/>
<feComposite in2="hardAlpha" operator="out"/>
<feColorMatrix type="matrix" values="0 0 0 0 0.966667 0 0 0 0 0.966667 0 0 0 0 0.966667 0 0 0 1 0"/>
<feBlend mode="normal" in2="BackgroundImageFix" result="effect1_dropShadow_3727_13836"/>
<feBlend mode="normal" in="SourceGraphic" in2="effect1_dropShadow_3727_13836" result="shape"/>
</filter>
<filter id="filter1_d_3727_13836" x="0.245977" y="123.121" width="280.508" height="181.508" filterUnits="userSpaceOnUse" color-interpolation-filters="sRGB">
<feFlood flood-opacity="0" result="BackgroundImageFix"/>
<feColorMatrix in="SourceAlpha" type="matrix" values="0 0 0 0 0 0 0 0 0 0 0 0 0 0 0 0 0 0 127 0" result="hardAlpha"/>
<feOffset dy="2.8754"/>
<feGaussianBlur stdDeviation="14.377"/>
<feComposite in2="hardAlpha" operator="out"/>
<feColorMatrix type="matrix" values="0 0 0 0 0.966667 0 0 0 0 0.966667 0 0 0 0 0.966667 0 0 0 1 0"/>
<feBlend mode="normal" in2="BackgroundImageFix" result="effect1_dropShadow_3727_13836"/>
<feBlend mode="normal" in="SourceGraphic" in2="effect1_dropShadow_3727_13836" result="shape"/>
</filter>
<filter id="filter2_d_3727_13836" x="223.246" y="0.121379" width="254.508" height="180.508" filterUnits="userSpaceOnUse" color-interpolation-filters="sRGB">
<feFlood flood-opacity="0" result="BackgroundImageFix"/>
<feColorMatrix in="SourceAlpha" type="matrix" values="0 0 0 0 0 0 0 0 0 0 0 0 0 0 0 0 0 0 127 0" result="hardAlpha"/>
<feOffset dy="2.8754"/>
<feGaussianBlur stdDeviation="14.377"/>
<feComposite in2="hardAlpha" operator="out"/>
<feColorMatrix type="matrix" values="0 0 0 0 0.966667 0 0 0 0 0.966667 0 0 0 0 0.966667 0 0 0 1 0"/>
<feBlend mode="normal" in2="BackgroundImageFix" result="effect1_dropShadow_3727_13836"/>
<feBlend mode="normal" in="SourceGraphic" in2="effect1_dropShadow_3727_13836" result="shape"/>
</filter>
<filter id="filter3_d_3727_13836" x="223.246" y="123.121" width="254.508" height="181.508" filterUnits="userSpaceOnUse" color-interpolation-filters="sRGB">
<feFlood flood-opacity="0" result="BackgroundImageFix"/>
<feColorMatrix in="SourceAlpha" type="matrix" values="0 0 0 0 0 0 0 0 0 0 0 0 0 0 0 0 0 0 127 0" result="hardAlpha"/>
<feOffset dy="2.8754"/>
<feGaussianBlur stdDeviation="14.377"/>
<feComposite in2="hardAlpha" operator="out"/>
<feColorMatrix type="matrix" values="0 0 0 0 0.966667 0 0 0 0 0.966667 0 0 0 0 0.966667 0 0 0 1 0"/>
<feBlend mode="normal" in2="BackgroundImageFix" result="effect1_dropShadow_3727_13836"/>
<feBlend mode="normal" in="SourceGraphic" in2="effect1_dropShadow_3727_13836" result="shape"/>
</filter>
<clipPath id="clip0_3727_13836">
<rect width="42.4122" height="36.6614" fill="white" transform="translate(422.586 8)"/>
</clipPath>
<clipPath id="clip1_3727_13836">
<rect width="28.0352" height="28.754" fill="white" transform="translate(15 11.5947)"/>
</clipPath>
<clipPath id="clip2_3727_13836">
<rect width="22.2844" height="22.2844" fill="white" transform="translate(412.523 296.979)"/>
</clipPath>
</defs>
</svg>
