<svg width="109" height="62" viewBox="0 0 109 62" fill="none" xmlns="http://www.w3.org/2000/svg">
<rect x="1" y="1.00098" width="106.818" height="60" rx="10" fill="#071A59"/>
<rect x="0.5" y="0.500977" width="107.818" height="61" rx="10.5" stroke="white" stroke-opacity="0.09"/>
<path d="M39.7033 32.6489L36.9954 24.5668H36.9402C36.9494 24.751 36.9632 25.0135 36.9816 25.3543C37 25.6858 37.0139 26.0497 37.0231 26.4457C37.0415 26.8325 37.0507 27.1964 37.0507 27.5371V32.6489H35.4619V22.7846H37.9211L40.5184 30.5351H40.5737L43.2816 22.7846H45.7407V32.6489H44.0552V27.4542C44.0552 27.1411 44.0598 26.8003 44.069 26.4319C44.0875 26.0543 44.1013 25.6997 44.1105 25.3681C44.1289 25.0273 44.1427 24.7648 44.1519 24.5806H44.0967L41.2783 32.6489H39.7033ZM49.8676 25.1608V32.6489H48.1268V25.1608H49.8676ZM48.9972 22.2734C49.2551 22.2734 49.4808 22.3425 49.6742 22.4806C49.8676 22.6096 49.9643 22.8444 49.9643 23.1852C49.9643 23.5168 49.8676 23.7563 49.6742 23.9036C49.4808 24.0418 49.2551 24.1109 48.9972 24.1109C48.7301 24.1109 48.4999 24.0418 48.3065 23.9036C48.1222 23.7563 48.0301 23.5168 48.0301 23.1852C48.0301 22.8444 48.1222 22.6096 48.3065 22.4806C48.4999 22.3425 48.7301 22.2734 48.9972 22.2734ZM55.1191 32.7871C54.4099 32.7871 53.7928 32.6535 53.2678 32.3864C52.752 32.1101 52.3513 31.691 52.0658 31.1292C51.7895 30.5582 51.6513 29.8305 51.6513 28.9463C51.6513 28.0253 51.8033 27.2792 52.1073 26.7082C52.4204 26.1279 52.8487 25.7043 53.3921 25.4372C53.9355 25.1608 54.5572 25.0227 55.2572 25.0227C55.727 25.0227 56.146 25.0687 56.5145 25.1608C56.8829 25.253 57.196 25.3635 57.4539 25.4924L56.9427 26.8602C56.6572 26.7496 56.3717 26.6575 56.0862 26.5839C55.8006 26.501 55.5243 26.4595 55.2572 26.4595C54.8428 26.4595 54.4974 26.5516 54.2211 26.7358C53.954 26.92 53.7559 27.1964 53.627 27.5648C53.498 27.924 53.4336 28.3799 53.4336 28.9325C53.4336 29.4667 53.498 29.9134 53.627 30.2726C53.7651 30.6318 53.9678 30.9035 54.2349 31.0878C54.502 31.2628 54.8336 31.3503 55.2296 31.3503C55.6533 31.3503 56.0263 31.2996 56.3487 31.1983C56.671 31.097 56.975 30.9588 57.2605 30.7838V32.2897C56.975 32.4647 56.6664 32.5891 56.3349 32.6627C56.0125 32.7456 55.6072 32.7871 55.1191 32.7871ZM62.9384 25.0227C63.0489 25.0227 63.1779 25.0273 63.3252 25.0365C63.4726 25.0457 63.597 25.0641 63.6983 25.0918L63.5463 26.7082C63.4634 26.6898 63.3529 26.676 63.2147 26.6668C63.0858 26.6483 62.9706 26.6391 62.8693 26.6391C62.593 26.6391 62.3259 26.6852 62.068 26.7773C61.8193 26.8602 61.5937 26.9891 61.3911 27.1641C61.1976 27.3299 61.0411 27.5463 60.9213 27.8134C60.8108 28.0806 60.7555 28.3983 60.7555 28.7667V32.6489H59.0148V25.1608H60.3549L60.6036 26.4595H60.6865C60.8338 26.1924 61.018 25.9529 61.2391 25.7411C61.4601 25.5201 61.7134 25.3451 61.9989 25.2161C62.2937 25.0872 62.6068 25.0227 62.9384 25.0227ZM71.503 28.8911C71.503 29.5174 71.4201 30.07 71.2543 30.5489C71.0886 31.0279 70.8491 31.4378 70.5359 31.7785C70.232 32.1101 69.8544 32.3634 69.4031 32.5384C68.961 32.7042 68.4682 32.7871 67.9248 32.7871C67.409 32.7871 66.9347 32.7042 66.5018 32.5384C66.0689 32.3634 65.6912 32.1101 65.3689 31.7785C65.0557 31.4378 64.8117 31.0279 64.6367 30.5489C64.4617 30.07 64.3742 29.5174 64.3742 28.8911C64.3742 28.0621 64.5169 27.3621 64.8024 26.7911C65.088 26.2108 65.4978 25.7733 66.032 25.4786C66.5754 25.1747 67.2156 25.0227 67.9524 25.0227C68.6524 25.0227 69.2649 25.1747 69.7899 25.4786C70.3241 25.7733 70.7432 26.2108 71.0471 26.7911C71.3511 27.3621 71.503 28.0621 71.503 28.8911ZM66.1564 28.8911C66.1564 29.4161 66.2162 29.8674 66.336 30.245C66.4649 30.6134 66.6583 30.8943 66.9162 31.0878C67.1833 31.2812 67.5241 31.3779 67.9386 31.3779C68.3623 31.3779 68.7031 31.2812 68.961 31.0878C69.2281 30.8943 69.4215 30.6134 69.5412 30.245C69.6609 29.8674 69.7208 29.4161 69.7208 28.8911C69.7208 28.3569 69.6563 27.9102 69.5274 27.551C69.4077 27.1825 69.2142 26.9062 68.9471 26.722C68.6892 26.5286 68.3531 26.4319 67.9386 26.4319C67.3123 26.4319 66.8564 26.6437 66.5708 27.0674C66.2945 27.4911 66.1564 28.099 66.1564 28.8911ZM78.4006 30.4799C78.4006 30.9772 78.2809 31.4009 78.0414 31.7509C77.8019 32.0917 77.4473 32.3496 76.9776 32.5246C76.5171 32.6996 75.9506 32.7871 75.2783 32.7871C74.7533 32.7871 74.302 32.7502 73.9243 32.6766C73.5467 32.6029 73.1875 32.4877 72.8467 32.3312V30.8529C73.2151 31.0279 73.625 31.1753 74.0763 31.295C74.5276 31.4147 74.9467 31.4746 75.3335 31.4746C75.8125 31.4746 76.1579 31.4009 76.3697 31.2535C76.5815 31.1062 76.6875 30.9082 76.6875 30.6595C76.6875 30.5121 76.646 30.3786 76.5631 30.2588C76.4802 30.1391 76.319 30.0147 76.0796 29.8858C75.8401 29.7476 75.4763 29.5772 74.9881 29.3746C74.5092 29.1812 74.1085 28.9878 73.7862 28.7944C73.473 28.6009 73.2335 28.3707 73.0678 28.1036C72.9112 27.8273 72.8329 27.4819 72.8329 27.0674C72.8329 26.395 73.1 25.8885 73.6342 25.5477C74.1684 25.1977 74.873 25.0227 75.748 25.0227C76.2085 25.0227 76.6414 25.0687 77.0467 25.1608C77.4611 25.2437 77.8756 25.3819 78.2901 25.5753L77.7374 26.8602C77.5072 26.7589 77.2769 26.6714 77.0467 26.5977C76.8256 26.5148 76.6 26.4503 76.3697 26.4043C76.1486 26.3582 75.923 26.3352 75.6927 26.3352C75.3151 26.3352 75.0296 26.395 74.8362 26.5148C74.6427 26.6253 74.546 26.7819 74.546 26.9845C74.546 27.1411 74.5921 27.2792 74.6842 27.399C74.7855 27.5095 74.9559 27.6246 75.1954 27.7444C75.444 27.8549 75.794 28.0023 76.2454 28.1865C76.6967 28.3615 77.0789 28.5457 77.3921 28.7391C77.7144 28.9233 77.9631 29.1536 78.1381 29.4299C78.3131 29.7062 78.4006 30.0562 78.4006 30.4799ZM86.7623 28.8911C86.7623 29.5174 86.6794 30.07 86.5136 30.5489C86.3478 31.0279 86.1084 31.4378 85.7952 31.7785C85.4913 32.1101 85.1136 32.3634 84.6623 32.5384C84.2202 32.7042 83.7275 32.7871 83.184 32.7871C82.6683 32.7871 82.1939 32.7042 81.761 32.5384C81.3281 32.3634 80.9505 32.1101 80.6282 31.7785C80.315 31.4378 80.0709 31.0279 79.8959 30.5489C79.7209 30.07 79.6334 29.5174 79.6334 28.8911C79.6334 28.0621 79.7762 27.3621 80.0617 26.7911C80.3472 26.2108 80.7571 25.7733 81.2913 25.4786C81.8347 25.1747 82.4748 25.0227 83.2117 25.0227C83.9117 25.0227 84.5242 25.1747 85.0492 25.4786C85.5834 25.7733 86.0024 26.2108 86.3064 26.7911C86.6103 27.3621 86.7623 28.0621 86.7623 28.8911ZM81.4156 28.8911C81.4156 29.4161 81.4755 29.8674 81.5952 30.245C81.7242 30.6134 81.9176 30.8943 82.1755 31.0878C82.4426 31.2812 82.7834 31.3779 83.1979 31.3779C83.6215 31.3779 83.9623 31.2812 84.2202 31.0878C84.4873 30.8943 84.6807 30.6134 84.8005 30.245C84.9202 29.8674 84.9801 29.4161 84.9801 28.8911C84.9801 28.3569 84.9156 27.9102 84.7867 27.551C84.6669 27.1825 84.4735 26.9062 84.2064 26.722C83.9485 26.5286 83.6123 26.4319 83.1979 26.4319C82.5716 26.4319 82.1156 26.6437 81.8301 27.0674C81.5538 27.4911 81.4156 28.099 81.4156 28.8911ZM92.4441 26.4733H90.6342V32.6489H88.8935V26.4733H87.6915V25.6444L88.8935 25.147V24.6359C88.8935 23.9911 88.9948 23.4845 89.1974 23.1161C89.4 22.7477 89.6948 22.4852 90.0816 22.3286C90.4685 22.1629 90.9244 22.08 91.4494 22.08C91.8178 22.08 92.1494 22.1122 92.4441 22.1767C92.7388 22.2319 92.9829 22.2964 93.1763 22.3701L92.7342 23.6688C92.5776 23.6227 92.4026 23.5813 92.2092 23.5444C92.025 23.4984 91.8224 23.4753 91.6013 23.4753C91.2698 23.4753 91.0257 23.5813 90.8691 23.7931C90.7125 24.0049 90.6342 24.2997 90.6342 24.6773V25.1608H92.4441V26.4733ZM96.5901 31.3917C96.8111 31.3917 97.023 31.3733 97.2256 31.3364C97.4282 31.2904 97.617 31.2397 97.792 31.1845V32.4831C97.6078 32.566 97.3684 32.6351 97.0736 32.6904C96.7789 32.7548 96.4703 32.7871 96.148 32.7871C95.7243 32.7871 95.3375 32.718 94.9875 32.5798C94.6467 32.4325 94.3704 32.1838 94.1585 31.8338C93.9559 31.4838 93.8546 30.9957 93.8546 30.3693V26.4733H92.846V25.7135L93.9513 25.1056L94.5039 23.5168H95.5954V25.1608H97.723V26.4733H95.5954V30.3555C95.5954 30.7055 95.6875 30.968 95.8717 31.143C96.0559 31.3088 96.2953 31.3917 96.5901 31.3917Z" fill="#E8E8E8"/>
<path d="M39.2487 39.9147C39.2487 40.349 39.1436 40.7187 38.9332 41.024C38.7229 41.3293 38.421 41.5668 38.0275 41.7364C37.634 41.8993 37.1658 41.9807 36.623 41.9807C36.3584 41.9807 36.104 41.9637 35.8598 41.9298C35.6155 41.9027 35.3882 41.8619 35.1779 41.8077C34.9676 41.7534 34.781 41.6855 34.6182 41.6041V40.5661C34.8896 40.6882 35.2084 40.8001 35.5748 40.9019C35.9412 40.9969 36.3143 41.0444 36.6943 41.0444C37.0199 41.0444 37.2913 41.0003 37.5084 40.9121C37.7256 40.8239 37.8884 40.7018 37.9969 40.5457C38.1055 40.3897 38.1598 40.2065 38.1598 39.9962C38.1598 39.7723 38.1021 39.5857 37.9868 39.4364C37.8782 39.2804 37.7052 39.1379 37.4677 39.009C37.2371 38.8733 36.925 38.7308 36.5315 38.5815C36.2601 38.4798 36.0124 38.3678 35.7885 38.2457C35.5714 38.1168 35.3781 37.9675 35.2084 37.7979C35.0456 37.6283 34.9201 37.4315 34.8319 37.2077C34.7437 36.9838 34.6996 36.7225 34.6996 36.424C34.6996 36.0237 34.798 35.6811 34.9947 35.3961C35.1983 35.1112 35.4764 34.8941 35.8292 34.7448C36.182 34.5888 36.5925 34.5107 37.0607 34.5107C37.4542 34.5107 37.8171 34.5514 38.1496 34.6329C38.4888 34.7075 38.8111 34.8127 39.1164 34.9484L38.7704 35.8541C38.4922 35.7388 38.2107 35.6438 37.9257 35.5691C37.6407 35.4945 37.3422 35.4572 37.0301 35.4572C36.7587 35.4572 36.5315 35.4979 36.3483 35.5793C36.1651 35.6607 36.026 35.7727 35.931 35.9152C35.8428 36.0576 35.7987 36.2239 35.7987 36.4138C35.7987 36.6377 35.8496 36.8243 35.9514 36.9736C36.0531 37.1228 36.216 37.2619 36.4399 37.3908C36.6638 37.513 36.9589 37.6487 37.3253 37.7979C37.7323 37.954 38.0784 38.1236 38.3633 38.3068C38.6551 38.49 38.8756 38.7105 39.0248 38.9683C39.1741 39.2193 39.2487 39.5348 39.2487 39.9147ZM41.6282 36.3935V41.8789H40.5494V36.3935H41.6282ZM41.0989 34.3072C41.2618 34.3072 41.4043 34.3547 41.5264 34.4497C41.6485 34.5447 41.7096 34.7041 41.7096 34.928C41.7096 35.1451 41.6485 35.3045 41.5264 35.4063C41.4043 35.5013 41.2618 35.5488 41.0989 35.5488C40.9225 35.5488 40.7733 35.5013 40.6512 35.4063C40.5358 35.3045 40.4781 35.1451 40.4781 34.928C40.4781 34.7041 40.5358 34.5447 40.6512 34.4497C40.7733 34.3547 40.9225 34.3072 41.0989 34.3072ZM44.401 41.8789H43.3222V34.1444H44.401V41.8789ZM47.3265 41.8789L45.2504 36.3935H46.3902L47.53 39.5993C47.5775 39.7349 47.625 39.8876 47.6725 40.0572C47.7268 40.2268 47.7743 40.3897 47.815 40.5457C47.8557 40.7018 47.8828 40.8375 47.8964 40.9528H47.9371C47.9575 40.8375 47.988 40.7018 48.0287 40.5457C48.0762 40.3829 48.1271 40.2201 48.1814 40.0572C48.2356 39.8876 48.2831 39.7349 48.3238 39.5993L49.4637 36.3935H50.6035L48.5172 41.8789H47.3265ZM53.6095 36.2917C54.0912 36.2917 54.505 36.3935 54.8511 36.597C55.1971 36.7938 55.4617 37.0787 55.6449 37.4519C55.8348 37.8251 55.9298 38.2661 55.9298 38.7749V39.3652H52.2457C52.2593 39.9283 52.4052 40.3591 52.6833 40.6577C52.9683 40.9562 53.3652 41.1055 53.8741 41.1055C54.2269 41.1055 54.539 41.0749 54.8103 41.0139C55.0885 40.946 55.3735 40.8476 55.6652 40.7187V41.6143C55.3938 41.7364 55.1157 41.828 54.8307 41.8891C54.5525 41.9501 54.2201 41.9807 53.8333 41.9807C53.3041 41.9807 52.836 41.8755 52.4289 41.6652C52.0218 41.4549 51.703 41.1428 51.4723 40.7289C51.2484 40.3083 51.1364 39.7926 51.1364 39.182C51.1364 38.5646 51.2382 38.0422 51.4417 37.6147C51.6521 37.1873 51.9404 36.8616 52.3068 36.6377C52.68 36.4071 53.1142 36.2917 53.6095 36.2917ZM53.6095 37.1262C53.2227 37.1262 52.9106 37.2518 52.6732 37.5028C52.4425 37.7538 52.3068 38.11 52.2661 38.5714H54.8511C54.8511 38.2864 54.807 38.0354 54.7188 37.8183C54.6305 37.6012 54.4949 37.4315 54.3117 37.3094C54.1285 37.1873 53.8944 37.1262 53.6095 37.1262ZM59.983 36.2917C60.078 36.2917 60.1831 36.2985 60.2985 36.3121C60.4138 36.3189 60.5088 36.329 60.5834 36.3426L60.4715 37.3501C60.3968 37.3298 60.3086 37.3128 60.2069 37.2992C60.1051 37.2857 60.0101 37.2789 59.9219 37.2789C59.7184 37.2789 59.5216 37.3196 59.3316 37.401C59.1485 37.4756 58.9822 37.5876 58.833 37.7369C58.6837 37.8793 58.565 38.0557 58.4768 38.2661C58.3954 38.4764 58.3547 38.7172 58.3547 38.9886V41.8789H57.2759V36.3935H58.1308L58.2732 37.3705H58.3139C58.4293 37.1737 58.5684 36.9939 58.7312 36.8311C58.894 36.6683 59.0806 36.5394 59.2909 36.4444C59.5013 36.3426 59.7319 36.2917 59.983 36.2917Z" fill="#C4C4C4"/>
<path d="M66.4003 34.6125C67.3502 34.6125 68.0422 34.8059 68.4764 35.1926C68.9106 35.5725 69.1278 36.1051 69.1278 36.7904C69.1278 37.0957 69.0769 37.3874 68.9751 37.6656C68.8801 37.9438 68.7207 38.1948 68.4968 38.4187C68.2729 38.6358 67.9744 38.8088 67.6012 38.9377C67.2348 39.0599 66.7836 39.1209 66.2477 39.1209H65.464V41.8789H64.3649V34.6125H66.4003ZM66.3189 35.5386H65.464V38.1948H66.1255C66.5394 38.1948 66.8854 38.1507 67.1636 38.0625C67.4418 37.9675 67.6487 37.8217 67.7844 37.6249C67.9269 37.4214 67.9981 37.1568 67.9981 36.8311C67.9981 36.3969 67.8624 36.0746 67.591 35.8643C67.3264 35.6472 66.9024 35.5386 66.3189 35.5386ZM72.6012 36.2917C73.2933 36.2917 73.8089 36.4444 74.1481 36.7497C74.4874 37.0482 74.657 37.5197 74.657 38.1643V41.8789H73.8937L73.68 41.1156H73.6393C73.4832 41.3124 73.3204 41.4752 73.1508 41.6041C72.9879 41.733 72.798 41.828 72.5809 41.8891C72.3705 41.9501 72.1127 41.9807 71.8074 41.9807C71.4817 41.9807 71.1866 41.923 70.922 41.8077C70.6642 41.6855 70.4607 41.5024 70.3114 41.2581C70.1621 41.0071 70.0875 40.695 70.0875 40.3218C70.0875 39.7655 70.2978 39.3414 70.7185 39.0497C71.1459 38.758 71.7938 38.5985 72.6623 38.5714L73.5986 38.5408V38.2355C73.5986 37.8284 73.507 37.5435 73.3238 37.3807C73.1406 37.2178 72.8828 37.1364 72.5503 37.1364C72.2654 37.1364 71.994 37.1771 71.7362 37.2585C71.4784 37.34 71.2341 37.4383 71.0034 37.5537L70.6574 36.77C70.9152 36.6343 71.2104 36.5224 71.5428 36.4342C71.882 36.3392 72.2348 36.2917 72.6012 36.2917ZM72.8556 39.2634C72.2315 39.2905 71.7972 39.3957 71.553 39.5789C71.3155 39.7553 71.1968 40.0063 71.1968 40.332C71.1968 40.617 71.2816 40.8239 71.4512 40.9528C71.6276 41.0817 71.8481 41.1462 72.1127 41.1462C72.5402 41.1462 72.893 41.0274 73.1711 40.79C73.4493 40.5525 73.5884 40.1963 73.5884 39.7214V39.2431L72.8556 39.2634ZM79.0251 36.2917C79.1201 36.2917 79.2253 36.2985 79.3406 36.3121C79.456 36.3189 79.551 36.329 79.6256 36.3426L79.5136 37.3501C79.439 37.3298 79.3508 37.3128 79.249 37.2992C79.1473 37.2857 79.0523 37.2789 78.9641 37.2789C78.7605 37.2789 78.5638 37.3196 78.3738 37.401C78.1906 37.4756 78.0244 37.5876 77.8751 37.7369C77.7259 37.8793 77.6071 38.0557 77.5189 38.2661C77.4375 38.4764 77.3968 38.7172 77.3968 38.9886V41.8789H76.3181V36.3935H77.1729L77.3154 37.3705H77.3561C77.4715 37.1737 77.6105 36.9939 77.7734 36.8311C77.9362 36.6683 78.1228 36.5394 78.3331 36.4444C78.5434 36.3426 78.7741 36.2917 79.0251 36.2917ZM82.6157 41.1055C82.7581 41.1055 82.904 41.0919 83.0533 41.0647C83.2025 41.0376 83.3314 41.0071 83.44 40.9732V41.7873C83.3247 41.8416 83.1686 41.8857 82.9718 41.9196C82.7751 41.9603 82.5783 41.9807 82.3816 41.9807C82.0831 41.9807 81.8083 41.9298 81.5572 41.828C81.313 41.7263 81.1162 41.5498 80.967 41.2988C80.8177 41.0478 80.7431 40.6984 80.7431 40.2506V37.2178H79.9798V36.7293L80.7838 36.3222L81.1603 35.1621H81.8218V36.3935H83.3891V37.2178H81.8218V40.2302C81.8218 40.5288 81.8931 40.7493 82.0356 40.8917C82.1848 41.0342 82.3782 41.1055 82.6157 41.1055ZM87.3155 36.2917C87.9533 36.2917 88.4418 36.4512 88.781 36.77C89.1203 37.0889 89.2899 37.6012 89.2899 38.3068V41.8789H88.2213V38.4594C88.2213 38.032 88.1297 37.7131 87.9465 37.5028C87.7701 37.2857 87.4851 37.1771 87.0916 37.1771C86.5353 37.1771 86.1486 37.3433 85.9315 37.6758C85.7211 38.0082 85.616 38.4866 85.616 39.1108V41.8789H84.5372V36.3935H85.3921L85.5447 37.1262H85.6058C85.7279 36.9363 85.8772 36.7802 86.0536 36.6581C86.23 36.536 86.4267 36.4444 86.6438 36.3833C86.861 36.3222 87.0849 36.2917 87.3155 36.2917ZM93.1051 36.2917C93.5868 36.2917 94.0006 36.3935 94.3467 36.597C94.6927 36.7938 94.9573 37.0787 95.1405 37.4519C95.3304 37.8251 95.4254 38.2661 95.4254 38.7749V39.3652H91.7413C91.7549 39.9283 91.9008 40.3591 92.179 40.6577C92.4639 40.9562 92.8608 41.1055 93.3697 41.1055C93.7225 41.1055 94.0346 41.0749 94.306 41.0139C94.5841 40.946 94.8691 40.8476 95.1608 40.7187V41.6143C94.8894 41.7364 94.6113 41.828 94.3263 41.8891C94.0481 41.9501 93.7157 41.9807 93.329 41.9807C92.7998 41.9807 92.3316 41.8755 91.9245 41.6652C91.5174 41.4549 91.1986 41.1428 90.9679 40.7289C90.744 40.3083 90.632 39.7926 90.632 39.182C90.632 38.5646 90.7338 38.0422 90.9374 37.6147C91.1477 37.1873 91.436 36.8616 91.8024 36.6377C92.1756 36.4071 92.6098 36.2917 93.1051 36.2917ZM93.1051 37.1262C92.7183 37.1262 92.4062 37.2518 92.1688 37.5028C91.9381 37.7538 91.8024 38.11 91.7617 38.5714H94.3467C94.3467 38.2864 94.3026 38.0354 94.2144 37.8183C94.1262 37.6012 93.9905 37.4315 93.8073 37.3094C93.6241 37.1873 93.39 37.1262 93.1051 37.1262ZM99.4786 36.2917C99.5736 36.2917 99.6787 36.2985 99.7941 36.3121C99.9094 36.3189 100.004 36.329 100.079 36.3426L99.9671 37.3501C99.8925 37.3298 99.8043 37.3128 99.7025 37.2992C99.6007 37.2857 99.5057 37.2789 99.4175 37.2789C99.214 37.2789 99.0172 37.3196 98.8273 37.401C98.6441 37.4756 98.4778 37.5876 98.3286 37.7369C98.1793 37.8793 98.0606 38.0557 97.9724 38.2661C97.891 38.4764 97.8503 38.7172 97.8503 38.9886V41.8789H96.7715V36.3935H97.6264L97.7688 37.3705H97.8096C97.9249 37.1737 98.064 36.9939 98.2268 36.8311C98.3896 36.6683 98.5762 36.5394 98.7865 36.4444C98.9969 36.3426 99.2276 36.2917 99.4786 36.2917Z" fill="#A2A2A2"/>
<rect x="9.25391" y="21.0181" width="10.1077" height="10.1077" fill="#EB5321"/>
<rect x="21.0469" y="21.0181" width="10.1077" height="10.1077" fill="#7FBA00"/>
<rect x="21.0469" y="32.8105" width="10.1077" height="10.1077" fill="#FCBB01"/>
<rect x="9.25391" y="32.8105" width="10.1077" height="10.1077" fill="#08A1EF"/>
</svg>
