<svg width="8" height="8" viewBox="0 0 8 8" fill="none" xmlns="http://www.w3.org/2000/svg">
<path fill-rule="evenodd" clip-rule="evenodd" d="M3.58608 0.17145C3.81468 -0.0571499 4.18532 -0.0571499 4.41392 0.17145L7.82855 3.58608C7.93833 3.69586 8 3.84475 8 4C8 4.15525 7.93833 4.30414 7.82855 4.41392L4.41392 7.82855C4.18532 8.05715 3.81468 8.05715 3.58608 7.82855C3.35748 7.59995 3.35748 7.22932 3.58608 7.00072L6.00144 4.58537H0.585366C0.262077 4.58537 0 4.32329 0 4C0 3.67671 0.262077 3.41463 0.585366 3.41463H6.00144L3.58608 0.999282C3.35748 0.770682 3.35748 0.400049 3.58608 0.17145Z" fill="#05164D"/>
</svg>
