<svg width="95" height="84" viewBox="0 0 95 84" fill="none" xmlns="http://www.w3.org/2000/svg">
<g opacity="0.8" clip-path="url(#clip0_7751_12014)">
<path d="M69.7822 71.3927L68.8775 81.2667C68.7964 82.1542 67.6809 82.5001 67.1098 81.8157L38.8178 47.8907C38.7336 47.7897 38.6702 47.6732 38.6311 47.5478C38.592 47.4224 38.5781 47.2905 38.5901 47.1597C38.6021 47.0289 38.6398 46.9017 38.701 46.7855C38.7623 46.6692 38.8459 46.5662 38.947 46.4822L51.9209 35.7012C52.0221 35.6171 52.1388 35.5538 52.2644 35.5148C52.3901 35.4758 52.5222 35.4619 52.6532 35.4739C52.7843 35.4859 52.9116 35.5235 53.0281 35.5846C53.1446 35.6458 53.2478 35.7292 53.332 35.8302L81.624 69.7551C82.1951 70.4397 81.6516 71.4717 80.763 71.3907L70.8711 70.4877C70.7401 70.4757 70.608 70.4896 70.4823 70.5286C70.3567 70.5676 70.24 70.6309 70.1388 70.715C70.0377 70.799 69.9542 70.9021 69.893 71.0184C69.8318 71.1347 69.7941 71.2619 69.7822 71.3927Z" fill="#D1D1D1"/>
<path d="M27.1623 71.3927L28.0669 81.2667C28.148 82.1542 29.2636 82.5001 29.8346 81.8157L58.1266 47.8907C58.2108 47.7897 58.2743 47.6732 58.3133 47.5478C58.3524 47.4224 58.3663 47.2905 58.3543 47.1597C58.3423 47.0289 58.3046 46.9017 58.2434 46.7855C58.1821 46.6692 58.0986 46.5662 57.9974 46.4822L45.0235 35.7012C44.9224 35.6171 44.8056 35.5538 44.68 35.5148C44.5544 35.4758 44.4222 35.4619 44.2912 35.4739C44.1602 35.4859 44.0328 35.5235 43.9163 35.5846C43.7999 35.6458 43.6966 35.7292 43.6125 35.8302L15.3204 69.7551C14.7494 70.4397 15.2928 71.4717 16.1819 71.3907L26.0738 70.4877C26.3384 70.4636 26.6017 70.5455 26.8058 70.7152C27.0099 70.8849 27.1381 71.1286 27.1623 71.3927Z" fill="#D1D1D1"/>
<path d="M49.0489 73.1975L83.3569 54.061C83.6292 53.9092 83.856 53.6876 84.0139 53.4191C84.1718 53.1506 84.255 52.8449 84.255 52.5335V2.49902C84.255 2.03489 84.0703 1.58978 83.7415 1.26159C83.4127 0.933398 82.9668 0.749023 82.5018 0.749023H13.886C13.421 0.749023 12.9751 0.933398 12.6463 1.26159C12.3175 1.58978 12.1328 2.03489 12.1328 2.49902V52.5335C12.1328 53.1675 12.4764 53.752 13.0309 54.061L47.3389 73.1975C47.6002 73.3433 47.8946 73.4198 48.1939 73.4198C48.4933 73.4198 48.7876 73.3433 49.0489 73.1975Z" fill="white"/>
<path d="M49.0489 73.1975L48.6828 72.5425M49.0489 73.1975L83.3569 54.061C83.6292 53.9092 83.856 53.6876 84.0139 53.4191C84.1718 53.1506 84.255 52.8449 84.255 52.5335V2.49902C84.255 2.03489 84.0703 1.58978 83.7415 1.26159C83.4127 0.933398 82.9668 0.749023 82.5018 0.749023H13.886C13.421 0.749023 12.9751 0.933398 12.6463 1.26159C12.3175 1.58978 12.1328 2.03489 12.1328 2.49902V52.5335C12.1328 53.1675 12.4764 53.752 13.0309 54.061L47.3389 73.1975C47.6002 73.3433 47.8946 73.4198 48.1939 73.4198C48.4932 73.4198 48.7876 73.3433 49.0489 73.1975Z" stroke="#E6E6E6" stroke-width="2.19895"/>
<g filter="url(#filter0_d_7751_12014)">
<path d="M47.8106 69.3949L15.8925 52.6319C15.8117 52.5895 15.744 52.5259 15.6969 52.4479C15.6497 52.3699 15.6249 52.2805 15.625 52.1894V5.29688C15.625 5.16427 15.6778 5.03709 15.7717 4.94332C15.8657 4.84955 15.9931 4.79688 16.1259 4.79688H79.9616C80.0945 4.79688 80.2219 4.84955 80.3158 4.94332C80.4098 5.03709 80.4625 5.16427 80.4625 5.29688V52.1894C80.4626 52.2805 80.4377 52.37 80.3904 52.448C80.3432 52.526 80.2754 52.5896 80.1945 52.6319L48.2769 69.3949C48.1307 69.4714 47.9564 69.4714 47.8106 69.3949Z" fill="#E7E7E7"/>
<path d="M47.8106 69.3949L15.8925 52.6319C15.8117 52.5895 15.744 52.5259 15.6969 52.4479C15.6497 52.3699 15.6249 52.2805 15.625 52.1894V5.29688C15.625 5.16427 15.6778 5.03709 15.7717 4.94332C15.8657 4.84955 15.9931 4.79688 16.1259 4.79688H79.9616C80.0945 4.79688 80.2219 4.84955 80.3158 4.94332C80.4098 5.03709 80.4625 5.16427 80.4625 5.29688V52.1894C80.4626 52.2805 80.4377 52.37 80.3904 52.448C80.3432 52.526 80.2754 52.5896 80.1945 52.6319L48.2769 69.3949C48.1307 69.4714 47.9564 69.4714 47.8106 69.3949Z" stroke="#D5D5C6" stroke-width="0.604317"/>
</g>
<path d="M47.6872 53.1784C47.7197 53.1241 47.7664 53.0791 47.8224 53.0478C47.8785 53.0165 47.942 53 48.0067 53C48.0713 53 48.1348 53.0165 48.1909 53.0478C48.247 53.0791 48.2936 53.1241 48.3261 53.1784L49.502 55.1391C49.5538 55.226 49.6411 55.2878 49.7431 55.3094L52.0254 55.7893C52.0886 55.8026 52.1471 55.8318 52.1951 55.8739C52.2431 55.916 52.2789 55.9697 52.2989 56.0294C52.3189 56.0892 52.3223 56.153 52.309 56.2145C52.2957 56.276 52.2659 56.333 52.2228 56.3799L50.6668 58.0719C50.6326 58.109 50.6067 58.1527 50.5908 58.2C50.5749 58.2474 50.5693 58.2975 50.5744 58.3471L50.8095 60.6045C50.8161 60.667 50.8056 60.7301 50.7792 60.7875C50.7528 60.8448 50.7114 60.8944 50.659 60.9314C50.6067 60.9683 50.5454 60.9913 50.4811 60.998C50.4168 61.0047 50.3518 60.9948 50.2926 60.9695L48.1553 60.0549C48.1084 60.0347 48.0576 60.0242 48.0063 60.0242C47.955 60.0242 47.9042 60.0347 47.8573 60.0549L45.72 60.9695C45.6608 60.9947 45.5959 61.0043 45.5317 60.9976C45.4675 60.9908 45.4063 60.9678 45.3541 60.9309C45.3019 60.894 45.2605 60.8444 45.2342 60.7872C45.2078 60.7299 45.1973 60.6669 45.2038 60.6045L45.4389 58.3471C45.444 58.2975 45.4384 58.2474 45.4225 58.2C45.4066 58.1527 45.3807 58.109 45.3465 58.0719L43.7905 56.3799C43.7474 56.333 43.7177 56.276 43.7043 56.2145C43.691 56.153 43.6945 56.0892 43.7144 56.0294C43.7344 55.9697 43.7702 55.916 43.8182 55.8739C43.8662 55.8318 43.9247 55.8026 43.988 55.7893L46.2702 55.3094C46.3204 55.2988 46.3679 55.2782 46.4095 55.2489C46.4511 55.2196 46.486 55.1822 46.512 55.1391L47.6872 53.1784ZM58.0076 54.851C58.0401 54.7967 58.0868 54.7517 58.1428 54.7204C58.1989 54.6891 58.2624 54.6726 58.3271 54.6726C58.3917 54.6726 58.4552 54.6891 58.5113 54.7204C58.5674 54.7517 58.614 54.7967 58.6465 54.851L59.2655 55.8834C59.2915 55.9264 59.3263 55.9637 59.3678 55.9931C59.4092 56.0224 59.4565 56.043 59.5066 56.0537L60.7084 56.3066C60.7716 56.3199 60.8302 56.3491 60.8782 56.3912C60.9261 56.4333 60.9619 56.487 60.9819 56.5467C61.0019 56.6065 61.0054 56.6703 60.992 56.7318C60.9787 56.7933 60.949 56.8503 60.9059 56.8972L60.0872 57.7881C60.0528 57.8252 60.0269 57.8688 60.011 57.9162C59.995 57.9636 59.9895 58.0137 59.9947 58.0633L60.1182 59.2516C60.1248 59.3141 60.1143 59.3772 60.0879 59.4346C60.0615 59.4919 60.0201 59.5415 59.9677 59.5785C59.9154 59.6154 59.8541 59.6384 59.7898 59.6451C59.7255 59.6518 59.6605 59.642 59.6013 59.6166L58.4764 59.1353C58.4295 59.115 58.3788 59.1045 58.3274 59.1045C58.2761 59.1045 58.2253 59.115 58.1784 59.1353L57.0528 59.6166C56.9936 59.642 56.9286 59.6518 56.8643 59.6451C56.8 59.6384 56.7387 59.6154 56.6864 59.5785C56.6341 59.5415 56.5926 59.4919 56.5662 59.4346C56.5398 59.3772 56.5293 59.3141 56.5359 59.2516L56.6601 58.0633C56.6653 58.0137 56.6598 57.9636 56.6439 57.9162C56.628 57.8688 56.602 57.8252 56.5677 57.7881L55.7482 56.8972C55.7051 56.8503 55.6754 56.7933 55.6621 56.7318C55.6487 56.6703 55.6522 56.6065 55.6722 56.5467C55.6922 56.487 55.728 56.4333 55.7759 56.3912C55.8239 56.3491 55.8825 56.3199 55.9457 56.3066L57.1475 56.0537C57.1977 56.043 57.2451 56.0224 57.2867 55.9931C57.3283 55.9638 57.3632 55.9264 57.3893 55.8834L58.0076 54.851ZM37.3535 54.851C37.386 54.7967 37.4326 54.7517 37.4887 54.7204C37.5448 54.6891 37.6083 54.6726 37.6729 54.6726C37.7376 54.6726 37.8011 54.6891 37.8572 54.7204C37.9132 54.7517 37.9599 54.7967 37.9924 54.851L38.6107 55.8834C38.6632 55.9704 38.7512 56.0322 38.8525 56.0537L40.0543 56.3066C40.1175 56.3199 40.1761 56.3491 40.224 56.3912C40.272 56.4333 40.3078 56.487 40.3278 56.5467C40.3478 56.6065 40.3513 56.6703 40.3379 56.7318C40.3246 56.7933 40.2949 56.8503 40.2517 56.8972L39.4323 57.7881C39.398 57.8252 39.372 57.8688 39.3561 57.9162C39.3402 57.9636 39.3347 58.0137 39.3399 58.0633L39.4641 59.2516C39.4707 59.3142 39.4603 59.3774 39.4338 59.4349C39.4074 59.4923 39.3659 59.542 39.3135 59.5789C39.261 59.6159 39.1995 59.6388 39.1351 59.6455C39.0707 59.6521 39.0057 59.6421 38.9464 59.6166L37.8223 59.1353C37.7753 59.1149 37.7244 59.1044 37.6729 59.1044C37.6215 59.1044 37.5706 59.1149 37.5236 59.1353L36.3987 59.6166C36.3395 59.6421 36.2744 59.6521 36.21 59.6455C36.1456 59.6388 36.0841 59.6159 36.0317 59.5789C35.9793 59.542 35.9378 59.4923 35.9113 59.4349C35.8849 59.3774 35.8744 59.3142 35.881 59.2516L36.0053 58.0633C36.0104 58.0137 36.0049 57.9636 35.989 57.9162C35.973 57.8688 35.9471 57.8252 35.9128 57.7881L35.0941 56.8972C35.051 56.8503 35.0213 56.7933 35.008 56.7318C34.9946 56.6703 34.9981 56.6065 35.0181 56.5467C35.0381 56.487 35.0738 56.4333 35.1218 56.3912C35.1698 56.3491 35.2284 56.3199 35.2916 56.3066L36.4934 56.0537C36.5435 56.043 36.5908 56.0224 36.6323 55.9931C36.6738 55.9638 36.7086 55.9265 36.7345 55.8834L37.3535 54.851Z" fill="#646464"/>
<path d="M91.3293 14.5283H3.41813C2.17324 14.5283 1.16406 15.5357 1.16406 16.7783V34.4513C1.16406 35.694 2.17324 36.7013 3.41813 36.7013H91.3293C92.5742 36.7013 93.5834 35.694 93.5834 34.4513V16.7783C93.5834 15.5357 92.5742 14.5283 91.3293 14.5283Z" fill="white"/>
<path d="M10.2033 29.6758C9.85656 29.678 9.51614 29.5833 9.22053 29.4023C8.92597 29.2224 8.68059 28.9724 8.50624 28.6748C8.33023 28.3689 8.23911 28.0216 8.24227 27.6688V27.2098C8.24227 27.1738 8.2583 27.1558 8.29136 27.1558H9.41639C9.44243 27.1558 9.45546 27.1738 9.45546 27.2098V27.6688C9.45546 27.8868 9.52859 28.0758 9.67585 28.2353C9.82212 28.3913 9.99844 28.4693 10.2038 28.4693C10.3047 28.4704 10.4046 28.4496 10.4966 28.4083C10.5886 28.3671 10.6706 28.3063 10.7368 28.2303C10.8835 28.0673 10.9572 27.8803 10.9572 27.6688C10.9572 27.4248 10.7969 27.2113 10.4778 27.0288C10.4106 26.9877 10.3421 26.9487 10.2724 26.9118C10.1758 26.8544 10.0779 26.7991 9.9789 26.7458L9.6463 26.5653C9.5425 26.5057 9.43814 26.447 9.33324 26.3893C8.96758 26.1743 8.69559 25.9058 8.51626 25.5838C8.33994 25.2583 8.25178 24.8938 8.25178 24.4898C8.25178 24.1188 8.34345 23.7838 8.52578 23.4843C8.70182 23.1944 8.94727 22.9527 9.24007 22.7808C9.53113 22.6067 9.86446 22.5156 10.2038 22.5173C10.5594 22.5173 10.885 22.6053 11.1821 22.7808C11.4745 22.9556 11.7184 23.2007 11.8914 23.4938C12.0707 23.7903 12.1603 24.1223 12.1603 24.4898V25.3103C12.1603 25.3363 12.1473 25.3493 12.1213 25.3493H10.9962C10.9702 25.3493 10.9572 25.3363 10.9572 25.3103L10.9471 24.4903C10.9471 24.2553 10.874 24.0653 10.7268 23.9188C10.6592 23.8485 10.578 23.7927 10.4881 23.7549C10.3981 23.717 10.3014 23.698 10.2038 23.6988C9.99844 23.6988 9.82212 23.7773 9.67535 23.9338C9.53128 24.0829 9.45206 24.2827 9.45496 24.4898C9.45496 24.7083 9.50104 24.8903 9.5922 25.0368C9.68687 25.1833 9.85768 25.3233 10.1061 25.4568C10.2718 25.5461 10.4364 25.6373 10.6 25.7303C10.7172 25.7923 10.8234 25.8493 10.9181 25.9013L11.0889 25.9893C11.422 26.1743 11.6845 26.4023 11.8768 26.6728C12.0722 26.9428 12.1704 27.2748 12.1704 27.6688C12.1704 28.0498 12.0822 28.3913 11.9059 28.6938C11.7332 28.99 11.4875 29.2372 11.1921 29.4118C10.893 29.5884 10.5507 29.6797 10.2033 29.6758ZM12.9282 29.5293L14.1705 22.6593C14.177 22.6328 14.1935 22.6198 14.2196 22.6198H15.6722C15.6982 22.6198 15.7148 22.6328 15.7213 22.6588L16.9149 29.5288C16.9179 29.5618 16.9049 29.5778 16.8753 29.5778H15.7653C15.7323 29.5778 15.7148 29.5618 15.7112 29.5293L15.6036 28.7968H14.2391L14.1314 29.5293C14.1279 29.5618 14.1114 29.5778 14.0823 29.5778H12.9673C12.9412 29.5778 12.9282 29.5618 12.9282 29.5293ZM14.9919 24.9193L14.9338 24.5488L14.8898 24.9198L14.4395 27.7273H15.4032L14.9924 24.9198L14.9919 24.9193ZM19.1154 29.5778H17.9808C17.9548 29.5778 17.9418 29.5618 17.9418 29.5293L17.9613 22.6593C17.9613 22.6328 17.9743 22.6198 18.0004 22.6198H19.2231C19.2491 22.6198 19.2722 22.6328 19.2917 22.6588L20.2064 23.9773L21.116 22.6588C21.1241 22.6468 21.1351 22.637 21.1479 22.6302C21.1608 22.6234 21.1751 22.6198 21.1896 22.6198H22.4173C22.4469 22.6198 22.4614 22.6328 22.4614 22.6588L22.481 29.5288C22.481 29.5618 22.4679 29.5778 22.4419 29.5778H21.3068C21.2808 29.5778 21.2678 29.5618 21.2678 29.5293L21.2578 24.4268L20.2064 25.9498L19.1645 24.4268L19.1545 29.5293C19.1545 29.5618 19.1414 29.5778 19.1154 29.5778ZM27.0006 29.5778H23.7623C23.7362 29.5778 23.7232 29.5618 23.7232 29.5293L23.7332 22.6593C23.7332 22.6328 23.7457 22.6198 23.7718 22.6198H26.9906C27.0166 22.6198 27.0297 22.6363 27.0297 22.6688V23.7868C27.0297 23.8128 27.0166 23.8258 26.9906 23.8258H24.9364V25.3883H26.9906C27.0166 25.3883 27.0297 25.4013 27.0297 25.4273L27.0397 26.5603C27.0397 26.5863 27.0267 26.5993 27.0006 26.5993H24.9364V28.3473H27.0001C27.0267 28.3473 27.0397 28.3638 27.0397 28.3963V29.5388C27.0397 29.5648 27.0267 29.5778 27.0006 29.5778ZM33.1778 29.5678L31.3825 29.5778C31.35 29.5778 31.3339 29.5618 31.3339 29.5293L31.353 22.6593C31.353 22.6328 31.3665 22.6198 31.3925 22.6198L33.2659 22.6098C33.6195 22.5955 33.9696 22.684 34.2737 22.8643C34.5739 23.0403 34.8233 23.291 34.9976 23.5918C35.1799 23.8943 35.2715 24.2298 35.2715 24.5973V27.4683C35.2752 27.8387 35.1789 28.2031 34.9925 28.5233C34.8083 28.8342 34.5494 29.0944 34.2392 29.2803C33.9261 29.4653 33.5725 29.5613 33.1778 29.5678ZM33.2659 23.8063L32.5662 23.8163L32.5561 28.3473H33.1778C33.4257 28.3473 33.6346 28.2613 33.8039 28.0888C33.9737 27.9163 34.0584 27.7093 34.0584 27.4688V24.5878C34.0591 24.4847 34.0386 24.3825 33.9982 24.2876C33.9578 24.1926 33.8983 24.107 33.8234 24.0358C33.7526 23.9597 33.6661 23.8998 33.5699 23.8601C33.4736 23.8205 33.3699 23.8022 33.2659 23.8063ZM36.1221 29.5293L37.3643 22.6593C37.3713 22.6328 37.3874 22.6198 37.4134 22.6198H38.866C38.8926 22.6198 38.9086 22.6328 38.9151 22.6588L40.1088 29.5288C40.1123 29.5618 40.0988 29.5778 40.0697 29.5778H38.9592C38.9266 29.5778 38.9091 29.5618 38.9056 29.5293L38.7979 28.7968H37.4329L37.3258 29.5293C37.3223 29.5618 37.3057 29.5778 37.2767 29.5778H36.1612C36.1351 29.5778 36.1221 29.5618 36.1221 29.5293ZM38.1863 24.9193L38.1277 24.5488L38.0836 24.9198L37.6338 27.7273H38.5975L38.1868 24.9198L38.1863 24.9193ZM43.019 29.5778H41.8695C41.8469 29.5778 41.8354 29.5648 41.8354 29.5388L41.8454 26.6973L40.505 22.6588C40.498 22.6328 40.508 22.6198 40.534 22.6198H41.6501C41.6826 22.6198 41.7022 22.6328 41.7087 22.6588L42.447 25.3493L43.2004 22.6593C43.2069 22.6328 43.2234 22.6198 43.2494 22.6198H44.3745C44.4005 22.6198 44.4105 22.6328 44.404 22.6588L43.0491 26.6578L43.0591 29.5388C43.0591 29.5648 43.0451 29.5778 43.019 29.5778ZM49.5288 29.5778H48.3942C48.3682 29.5778 48.3552 29.5618 48.3552 29.5293L48.3747 22.6593C48.3747 22.6328 48.3877 22.6198 48.4138 22.6198H50.4389C50.7893 22.6167 51.1339 22.7079 51.4367 22.8838C51.7346 23.0543 51.9838 23.298 52.1605 23.5918C52.3434 23.8878 52.4345 24.2233 52.4345 24.5973C52.4345 24.8418 52.397 25.0628 52.3223 25.2618C52.2576 25.4406 52.1686 25.6097 52.0578 25.7643C51.9821 25.8769 51.8917 25.9788 51.7889 26.0673C52.1444 26.4508 52.3388 26.9559 52.3318 27.4783L52.3419 29.5293C52.3419 29.5618 52.3253 29.5778 52.2928 29.5778H51.1577C51.1317 29.5778 51.1186 29.5678 51.1186 29.5488V27.4788C51.1201 27.363 51.0983 27.248 51.0546 27.1407C51.0109 27.0334 50.9462 26.9359 50.8642 26.8538C50.7842 26.7684 50.6872 26.7008 50.5793 26.6553C50.4714 26.6098 50.3551 26.5875 50.2381 26.5898H49.5779L49.5679 29.5293C49.5679 29.5618 49.5553 29.5778 49.5288 29.5778ZM50.4389 23.8163H49.5779V25.3883H50.4389C50.6443 25.3883 50.8271 25.3118 50.9869 25.1588C51.1497 25.0058 51.2314 24.8188 51.2314 24.5973C51.2314 24.3858 51.1532 24.2038 50.9964 24.0508C50.9245 23.9757 50.838 23.9161 50.7421 23.8756C50.6462 23.8352 50.543 23.8154 50.4389 23.8163ZM56.866 29.5778H53.6277C53.6016 29.5778 53.5886 29.5618 53.5886 29.5293L53.5986 22.6593C53.5986 22.6328 53.6116 22.6198 53.6377 22.6198H56.8565C56.8826 22.6198 56.8956 22.6363 56.8956 22.6688V23.7868C56.8956 23.8128 56.8826 23.8258 56.8565 23.8258H54.8018V25.3883H56.8565C56.8826 25.3883 56.8956 25.4013 56.8956 25.4273L56.9051 26.5603C56.9051 26.5863 56.8921 26.5993 56.866 26.5993H54.8018V28.3473H56.866C56.8921 28.3473 56.9051 28.3638 56.9051 28.3963V29.5388C56.9051 29.5648 56.8921 29.5778 56.866 29.5778ZM59.8985 29.6758C59.5516 29.6781 59.211 29.5833 58.9152 29.4023C58.6207 29.2223 58.3753 28.9724 58.2009 28.6748C58.025 28.3689 57.9339 28.0216 57.937 27.6688V27.2098C57.937 27.1738 57.9535 27.1558 57.986 27.1558H59.1111C59.1371 27.1558 59.1501 27.1738 59.1501 27.2098V27.6688C59.1501 27.8868 59.2233 28.0758 59.37 28.2353C59.5168 28.3913 59.6931 28.4693 59.8985 28.4693C60.1074 28.4693 60.2852 28.3898 60.432 28.2303C60.5782 28.0673 60.6519 27.8803 60.6519 27.6688C60.6519 27.4248 60.4921 27.2113 60.1725 27.0288C60.1053 26.9877 60.0368 26.9487 59.9671 26.9118C59.8705 26.8545 59.7726 26.7991 59.6736 26.7458L59.341 26.5653C59.2372 26.5056 59.1329 26.4469 59.0279 26.3893C58.6628 26.1743 58.3903 25.9058 58.211 25.5838C58.0346 25.2583 57.947 24.8938 57.947 24.4898C57.947 24.1188 58.0381 23.7838 58.2205 23.4843C58.3966 23.1945 58.642 22.9527 58.9348 22.7808C59.2258 22.6068 59.5592 22.5156 59.8985 22.5173C60.2541 22.5173 60.5802 22.6053 60.8768 22.7808C61.1693 22.9554 61.4132 23.2006 61.586 23.4938C61.7654 23.7903 61.855 24.1223 61.855 24.4898V25.3103C61.855 25.3363 61.842 25.3493 61.816 25.3493H60.6909C60.6649 25.3493 60.6519 25.3363 60.6519 25.3103L60.6418 24.4903C60.6418 24.2553 60.5687 24.0653 60.4219 23.9188C60.3544 23.8484 60.2731 23.7926 60.183 23.7547C60.093 23.7169 59.9962 23.6979 59.8985 23.6988C59.6931 23.6988 59.5168 23.7773 59.37 23.9338C59.2262 24.083 59.1472 24.2828 59.1501 24.4898C59.1501 24.7083 59.1957 24.8903 59.2869 25.0368C59.3816 25.1833 59.5529 25.3233 59.8008 25.4568C59.9665 25.5461 60.1312 25.6373 60.2947 25.7303C60.4119 25.7923 60.5181 25.8493 60.6128 25.9013L60.7841 25.9893C61.1167 26.1743 61.3792 26.4023 61.5715 26.6728C61.7674 26.9428 61.865 27.2748 61.865 27.6688C61.865 28.0498 61.7769 28.3913 61.6006 28.6938C61.4279 28.99 61.1822 29.2372 60.8868 29.4118C60.5877 29.5883 60.2459 29.6796 59.8985 29.6758ZM64.1341 29.5778H63.0091C62.9766 29.5778 62.9605 29.5618 62.9605 29.5293L62.9801 22.6593C62.9801 22.6328 62.9931 22.6198 63.0191 22.6198H64.9461C65.5592 22.6198 66.0436 22.8073 66.3992 23.1813C66.7579 23.5523 66.9372 24.0588 66.9372 24.6998C66.9372 25.1688 66.844 25.5773 66.6582 25.9258C66.4694 26.2708 66.2244 26.5378 65.9249 26.7263C65.6328 26.913 65.2929 27.0114 64.9461 27.0098H64.1832V29.5293C64.1832 29.5618 64.1667 29.5778 64.1341 29.5778ZM64.9461 23.8063L64.1832 23.8163V25.7988H64.9461C65.1585 25.7988 65.3423 25.6978 65.4991 25.4958C65.6554 25.2908 65.734 25.0258 65.734 24.6998C65.734 24.4398 65.6639 24.2263 65.5237 24.0603C65.3834 23.8913 65.191 23.8063 64.9461 23.8063ZM69.872 29.6758C69.5251 29.6781 69.1845 29.5833 68.8887 29.4023C68.5934 29.2217 68.3465 28.972 68.1694 28.6748C67.9904 28.3699 67.8974 28.0223 67.9004 27.6688L67.9105 24.4998C67.9105 24.1288 68.0001 23.7948 68.1794 23.4988C68.3521 23.2027 68.5979 22.9555 68.8932 22.7808C69.1875 22.6003 69.5266 22.5058 69.872 22.5078C70.2372 22.5078 70.5648 22.5973 70.8548 22.7763C71.147 22.954 71.3894 23.2025 71.5595 23.4988C71.7389 23.7988 71.8285 24.1318 71.8285 24.4998L71.838 27.6688C71.8418 28.0201 71.7506 28.3659 71.5741 28.6698C71.4009 28.9697 71.1554 29.2215 70.8598 29.4023C70.563 29.5847 70.2205 29.6795 69.872 29.6758ZM69.872 28.4693C70.0739 28.4693 70.2502 28.3883 70.4 28.2253C70.5502 28.0593 70.6254 27.8738 70.6254 27.6688L70.6153 24.4998C70.6153 24.2783 70.5452 24.0913 70.405 23.9383C70.3381 23.8638 70.2558 23.8047 70.1638 23.7651C70.0717 23.7254 69.9722 23.7062 69.872 23.7088C69.6661 23.7088 69.4903 23.7838 69.3435 23.9338C69.1968 24.0833 69.1231 24.2718 69.1231 24.4998V27.6688C69.1231 27.8868 69.1968 28.0758 69.3435 28.2353C69.4903 28.3913 69.6661 28.4693 69.872 28.4693ZM74.0881 29.5778H73.0853C73.0332 29.5778 73.0072 29.5553 73.0072 29.5098L72.9971 22.6983C72.9971 22.6458 73.0232 22.6198 73.0753 22.6198H73.9804L75.673 26.5603L75.6239 22.6983C75.6239 22.6458 75.6534 22.6198 75.712 22.6198H76.7048C76.7444 22.6198 76.7639 22.6458 76.7639 22.6983L76.7735 29.5193C76.7735 29.5583 76.7574 29.5778 76.7244 29.5778H75.8443L74.1076 25.8963L74.1808 29.4998C74.1808 29.5518 74.1497 29.5778 74.0881 29.5778ZM79.7473 29.6758C79.4004 29.6781 79.0598 29.5833 78.764 29.4023C78.4694 29.2224 78.224 28.9725 78.0498 28.6748C77.8738 28.3689 77.7827 28.0216 77.7858 27.6688V27.2098C77.7858 27.1738 77.8018 27.1558 77.8344 27.1558H78.9599C78.9859 27.1558 78.999 27.1738 78.999 27.2098V27.6688C78.999 27.8868 79.0721 28.0758 79.2189 28.2353C79.3656 28.3913 79.5419 28.4693 79.7473 28.4693C79.9557 28.4693 80.1335 28.3898 80.2803 28.2303C80.427 28.0673 80.5007 27.8803 80.5007 27.6688C80.5007 27.4248 80.3409 27.2113 80.0213 27.0288C79.9541 26.9877 79.8856 26.9487 79.8159 26.9118C79.7192 26.8546 79.6213 26.7992 79.5224 26.7458L79.1898 26.5653C79.086 26.5057 78.9817 26.447 78.8767 26.3893C78.5111 26.1743 78.2391 25.9058 78.0598 25.5838C77.8834 25.2583 77.7953 24.8938 77.7953 24.4898C77.7953 24.1188 77.887 23.7838 78.0693 23.4843C78.2454 23.1945 78.4908 22.9527 78.7836 22.7808C79.0746 22.6067 79.408 22.5156 79.7473 22.5173C80.1025 22.5173 80.429 22.6053 80.7256 22.7808C81.0179 22.9557 81.2618 23.2008 81.4349 23.4938C81.6142 23.7903 81.7038 24.1223 81.7038 24.4898V25.3103C81.7038 25.3363 81.6908 25.3493 81.6648 25.3493H80.5397C80.5137 25.3493 80.5007 25.3363 80.5007 25.3103L80.4907 24.4903C80.4907 24.2553 80.4175 24.0653 80.2708 23.9188C80.2032 23.8485 80.1219 23.7926 80.0318 23.7548C79.9418 23.717 79.845 23.6979 79.7473 23.6988C79.5419 23.6988 79.3656 23.7773 79.2189 23.9338C79.0751 24.083 78.996 24.2828 78.999 24.4898C78.999 24.7083 79.0445 24.8903 79.1357 25.0368C79.2304 25.1833 79.4017 25.3233 79.6496 25.4568C79.8153 25.5461 79.98 25.6373 80.1435 25.7303C80.2607 25.7923 80.3669 25.8493 80.4616 25.9013L80.6324 25.9893C80.965 26.1743 81.228 26.4023 81.4203 26.6728C81.6157 26.9428 81.7139 27.2748 81.7139 27.6688C81.7139 28.0498 81.6257 28.3913 81.4494 28.6938C81.2766 28.9902 81.0307 29.2374 80.7351 29.4118C80.4362 29.5883 80.0946 29.6796 79.7473 29.6758ZM86.0863 29.5778H82.8479C82.8219 29.5778 82.8088 29.5618 82.8088 29.5293L82.8189 22.6593C82.8189 22.6328 82.8319 22.6198 82.8579 22.6198H86.0767C86.1028 22.6198 86.1158 22.6363 86.1158 22.6688V23.7868C86.1158 23.8128 86.1028 23.8258 86.0767 23.8258H84.022V25.3883H86.0767C86.1028 25.3883 86.1158 25.4013 86.1158 25.4273L86.1253 26.5603C86.1253 26.5863 86.1123 26.5993 86.0863 26.5993H84.022V28.3473H86.0863C86.1123 28.3473 86.1253 28.3638 86.1253 28.3963V29.5388C86.1253 29.5648 86.1123 29.5778 86.0863 29.5778Z" fill="#666666"/>
<path d="M28.585 48.9962C28.24 49.0009 27.9008 48.9078 27.6067 48.7277C27.3139 48.5493 27.0702 48.301 26.8975 48.0052C26.7197 47.6965 26.6283 47.3457 26.633 46.9897V43.8207C26.633 43.4557 26.7231 43.1237 26.9025 42.8242C27.0733 42.5269 27.3175 42.2782 27.6118 42.1017C27.9038 41.9207 28.2412 41.8259 28.585 41.8282C28.9537 41.8282 29.2863 41.9162 29.5828 42.0922C29.8754 42.267 30.118 42.5141 30.2871 42.8097C30.4634 43.1097 30.5516 43.4462 30.5516 43.8207V44.2797C30.5516 44.3057 30.535 44.3187 30.5025 44.3187H29.3774C29.3514 44.3187 29.3384 44.3057 29.3384 44.2797V43.8987C29.3384 43.6447 29.2667 43.4347 29.123 43.2687C29.0579 43.1894 28.9757 43.1258 28.8826 43.0827C28.7894 43.0396 28.6877 43.018 28.585 43.0197C28.3927 43.0197 28.2214 43.0997 28.0711 43.2592C27.9249 43.4094 27.8441 43.6112 27.8462 43.8207V46.9897C27.8462 47.2077 27.9198 47.3962 28.0666 47.5557C28.2133 47.7122 28.3861 47.7907 28.585 47.7907C28.8004 47.7907 28.9797 47.7137 29.123 47.5607C29.2661 47.4054 29.3433 47.2007 29.3384 46.9897V46.4962H28.6386C28.603 46.4962 28.585 46.4802 28.585 46.4477V45.3292C28.585 45.2967 28.603 45.2802 28.6386 45.2802H30.512C30.5385 45.2802 30.5516 45.2967 30.5516 45.3292V46.9892C30.5563 47.3454 30.465 47.6963 30.2871 48.0052C30.1144 48.301 29.8706 48.5493 29.5778 48.7277C29.2786 48.9082 28.9346 49.0013 28.585 48.9962ZM33.1047 48.9962C32.7594 48.9981 32.4205 48.9033 32.1264 48.7227C31.8289 48.5428 31.5816 48.2908 31.4076 47.9902C31.2318 47.6825 31.1405 47.3339 31.1431 46.9797L31.1632 41.9797C31.1632 41.9537 31.1757 41.9407 31.2022 41.9407H32.3273C32.3533 41.9407 32.3663 41.9537 32.3663 41.9797V46.9797C32.3663 47.2047 32.438 47.3962 32.5817 47.5557C32.725 47.7122 32.8993 47.7907 33.1047 47.7907C33.3201 47.7907 33.4994 47.7122 33.6431 47.5557C33.7864 47.3962 33.8585 47.2042 33.8585 46.9797V41.9797C33.8585 41.9537 33.871 41.9407 33.8971 41.9407H35.0221C35.0482 41.9407 35.0617 41.9537 35.0617 41.9797L35.0812 46.9797C35.0842 47.3355 34.993 47.6858 34.8168 47.9952C34.6436 48.2949 34.3983 48.5466 34.103 48.7277C33.8016 48.908 33.456 49.0009 33.1047 48.9962ZM35.3257 48.8497L36.5679 41.9797C36.5744 41.9537 36.591 41.9407 36.617 41.9407H38.0696C38.0957 41.9407 38.1122 41.9537 38.1187 41.9797L39.3129 48.8497C39.3159 48.8822 39.3029 48.8987 39.2738 48.8987H38.1633C38.1307 48.8987 38.1132 48.8822 38.1097 48.8497L38.002 48.1172H36.637L36.5293 48.8497C36.5263 48.8822 36.5098 48.8987 36.4808 48.8987H35.3652C35.3392 48.8987 35.3257 48.8822 35.3257 48.8497ZM37.3899 44.2402L37.3313 43.8692L37.2872 44.2402L36.8374 47.0482H37.8001L37.3899 44.2402ZM41.1126 48.8987H39.9776C39.9515 48.8987 39.9385 48.8822 39.9385 48.8497L39.958 41.9797C39.958 41.9537 39.9711 41.9407 39.9971 41.9407H42.0223C42.3725 41.9376 42.7171 42.0286 43.0201 42.2042C43.3181 42.3746 43.5674 42.6183 43.7444 42.9122C43.9267 43.2087 44.0179 43.5437 44.0179 43.9182C44.0179 44.1622 43.9808 44.3832 43.9057 44.5822C43.8305 44.7807 43.7424 44.9482 43.6412 45.0852C43.5653 45.1974 43.4749 45.2992 43.3722 45.3877C43.7278 45.7713 43.9221 46.2766 43.9152 46.7992L43.9252 48.8497C43.9252 48.8822 43.9087 48.8987 43.8761 48.8987H42.7416C42.7155 48.8987 42.702 48.8887 42.702 48.8692V46.7997C42.702 46.5587 42.6173 46.3502 42.448 46.1747C42.368 46.0893 42.271 46.0217 42.1631 45.9762C42.0552 45.9307 41.939 45.9084 41.8219 45.9107H41.1612L41.1512 48.8507C41.1512 48.8827 41.1387 48.8992 41.1126 48.8992V48.8987ZM42.0223 43.1367H41.1612V44.7092H42.0228C42.2281 44.7092 42.4105 44.6327 42.5702 44.4797C42.733 44.3267 42.8147 44.1397 42.8147 43.9182C42.8147 43.7067 42.7365 43.5242 42.5798 43.3712C42.5078 43.2961 42.4212 43.2366 42.3253 43.1963C42.2295 43.1559 42.1263 43.1357 42.0223 43.1367ZM44.4341 48.8497L45.6764 41.9797C45.6829 41.9537 45.6994 41.9407 45.7254 41.9407H47.1781C47.2041 41.9407 47.2206 41.9537 47.2272 41.9797L48.4208 48.8497C48.4238 48.8822 48.4108 48.8987 48.3812 48.8987H47.2712C47.2382 48.8987 47.2206 48.8822 47.2171 48.8497L47.1094 48.1172H45.745L45.6373 48.8497C45.6338 48.8822 45.6172 48.8987 45.5882 48.8987H44.4732C44.4471 48.8987 44.4341 48.8822 44.4341 48.8497ZM46.4978 44.2402L46.4392 43.8692L46.3952 44.2402L45.9453 47.0482H46.9091L46.4978 44.2402ZM50.1374 48.8987H49.1346C49.0825 48.8987 49.0565 48.8757 49.0565 48.8302L49.0464 42.0187C49.0464 41.9667 49.073 41.9407 49.1251 41.9407H50.0297L51.7223 45.8807L51.6737 42.0187C51.6737 41.9667 51.7027 41.9407 51.7613 41.9407H52.7546C52.7937 41.9407 52.8132 41.9667 52.8132 42.0187L52.8233 48.8402C52.8233 48.8792 52.8067 48.8987 52.7742 48.8987H51.8936L50.1569 45.2172L50.2306 48.8207C50.2306 48.8727 50.1995 48.8987 50.1374 48.8987ZM55.8312 48.8987H54.7016C54.6721 48.8987 54.6576 48.8822 54.6576 48.8497V43.1467H53.3562C53.3237 43.1467 53.3071 43.1302 53.3071 43.0977L53.3171 41.9797C53.3171 41.9537 53.3302 41.9407 53.3562 41.9407H57.1621C57.1976 41.9407 57.2157 41.9537 57.2157 41.9797V43.0977C57.2157 43.1302 57.2027 43.1467 57.1766 43.1467H55.8607L55.8708 48.8497C55.8708 48.8822 55.8572 48.8987 55.8312 48.8987ZM60.9825 48.8987H57.7441C57.7181 48.8987 57.7051 48.8822 57.7051 48.8497L57.7146 41.9797C57.7146 41.9537 57.7276 41.9407 57.7537 41.9407H60.9725C60.9985 41.9407 61.0115 41.9567 61.0115 41.9892V43.1077C61.0115 43.1337 60.9985 43.1467 60.9725 43.1467H58.9183V44.7092H60.9725C60.9985 44.7092 61.0115 44.7222 61.0115 44.7482L61.0216 45.8812C61.0216 45.9072 61.0085 45.9202 60.9825 45.9202H58.9183V47.6682H60.9825C61.0085 47.6682 61.0216 47.6842 61.0216 47.7172V48.8597C61.0216 48.8857 61.0085 48.8987 60.9825 48.8987ZM65.1891 48.8987H61.9507C61.9247 48.8987 61.9117 48.8822 61.9117 48.8497L61.9217 41.9797C61.9217 41.9537 61.9347 41.9407 61.9607 41.9407H65.1796C65.2056 41.9407 65.2186 41.9567 65.2186 41.9892V43.1077C65.2186 43.1337 65.2056 43.1467 65.1796 43.1467H63.1248V44.7092H65.1796C65.2056 44.7092 65.2186 44.7222 65.2186 44.7482L65.2281 45.8812C65.2281 45.9072 65.2151 45.9202 65.1891 45.9202H63.1248V47.6682H65.1891C65.2151 47.6682 65.2281 47.6842 65.2281 47.7172V48.8597C65.2281 48.8857 65.2151 48.8987 65.1891 48.8987ZM67.9626 48.8887L66.1673 48.8987C66.1348 48.8987 66.1188 48.8822 66.1188 48.8497L66.1383 41.9797C66.1383 41.9537 66.1513 41.9407 66.1774 41.9407L68.0507 41.9307C68.4042 41.9162 68.7543 42.0045 69.0586 42.1847C69.3587 42.3607 69.6081 42.6113 69.7824 42.9122C69.9652 43.2152 70.0564 43.5502 70.0564 43.9182V46.7892C70.0564 47.1732 69.9632 47.5252 69.7774 47.8442C69.5932 48.1549 69.3342 48.4149 69.024 48.6007C68.7109 48.7862 68.3573 48.8822 67.9626 48.8887ZM68.0507 43.1272L67.351 43.1372L67.3415 47.6682H67.9626C68.2105 47.6682 68.4194 47.5817 68.5887 47.4092C68.7585 47.2367 68.8432 47.0302 68.8432 46.7892V43.9082C68.8432 43.6967 68.765 43.5132 68.6082 43.3567C68.5375 43.2804 68.451 43.2204 68.3548 43.1807C68.2585 43.1409 68.1548 43.123 68.0507 43.1272Z" fill="#3F3F3F" fill-opacity="0.6"/>
</g>
<defs>
<filter id="filter0_d_7751_12014" x="10.9224" y="4.49512" width="74.2411" height="74.0556" filterUnits="userSpaceOnUse" color-interpolation-filters="sRGB">
<feFlood flood-opacity="0" result="BackgroundImageFix"/>
<feColorMatrix in="SourceAlpha" type="matrix" values="0 0 0 0 0 0 0 0 0 0 0 0 0 0 0 0 0 0 127 0" result="hardAlpha"/>
<feOffset dy="4.39791"/>
<feGaussianBlur stdDeviation="2.19895"/>
<feComposite in2="hardAlpha" operator="out"/>
<feColorMatrix type="matrix" values="0 0 0 0 0 0 0 0 0 0 0 0 0 0 0 0 0 0 0.05 0"/>
<feBlend mode="normal" in2="BackgroundImageFix" result="effect1_dropShadow_7751_12014"/>
<feBlend mode="normal" in="SourceGraphic" in2="effect1_dropShadow_7751_12014" result="shape"/>
</filter>
<clipPath id="clip0_7751_12014">
<rect width="93.6691" height="84" fill="white" transform="translate(0.523438)"/>
</clipPath>
</defs>
</svg>
