<svg width="12" height="13" viewBox="0 0 12 13" fill="none" xmlns="http://www.w3.org/2000/svg">
<path d="M6 0.987407C4.4087 0.987407 2.88261 1.6179 1.75734 2.74024C0.632117 3.86257 0 5.38487 0 6.97201C0 8.55915 0.632117 10.0814 1.75734 11.2038C2.88256 12.3261 4.40878 12.9566 6 12.9566C7.59122 12.9566 9.11739 12.3261 10.2427 11.2038C11.3679 10.0814 12 8.55915 12 6.97201C12 5.92152 11.7228 4.88947 11.1962 3.97958C10.6696 3.06985 9.91207 2.31432 9.00002 1.78903C8.08785 1.26382 7.05314 0.987305 5.9999 0.987305L6 0.987407ZM9.40565 5.91708L5.8056 9.20857C5.69159 9.31287 5.54161 9.36918 5.38704 9.36587C5.23245 9.36247 5.0851 9.29975 4.97581 9.19064L3.17579 7.39523C3.05997 7.28372 2.99397 7.13054 2.99257 6.97003C2.99116 6.80943 3.05455 6.65514 3.16825 6.54162C3.28206 6.4281 3.43684 6.36499 3.59776 6.36629C3.75868 6.36769 3.91236 6.43352 4.02416 6.54904L5.41797 7.93927L8.59451 5.03482C8.75251 4.89034 8.9757 4.84085 9.18021 4.90507C9.38472 4.96919 9.53931 5.13731 9.5858 5.3461C9.63231 5.55479 9.56361 5.7724 9.4057 5.91699L9.40565 5.91708Z" fill="#FFAD00"/>
</svg>
