<svg width="110" height="62" viewBox="0 0 110 62" fill="none" xmlns="http://www.w3.org/2000/svg">
<path d="M1.15625 3.58741C1.15625 2.15896 2.31423 1.00098 3.74268 1.00098H105.57C106.998 1.00098 108.156 2.15896 108.156 3.5874V58.4146C108.156 59.843 106.998 61.001 105.57 61.001H3.74267C2.31423 61.001 1.15625 59.843 1.15625 58.4146V3.58741Z" fill="#0E1219" fill-opacity="0.51"/>
<path d="M3.74268 0.500977C2.03809 0.500977 0.65625 1.88282 0.65625 3.58741V58.4146C0.65625 60.1191 2.03809 61.501 3.74267 61.501H105.57C107.274 61.501 108.656 60.1191 108.656 58.4146V3.5874C108.656 1.88282 107.274 0.500977 105.57 0.500977H3.74268Z" stroke="white" stroke-opacity="0.09"/>
<path d="M42.6134 25.5851C42.9211 25.7829 43.3977 25.9516 43.9865 26.0644C44.5754 26.2331 45.192 26.261 45.8376 26.261C46.4542 26.261 47.0153 26.1773 47.5197 26.0353C48.0241 25.8666 48.473 25.6422 48.8651 25.3594C49.2295 25.0779 49.5384 24.7406 49.7351 24.2893C49.9306 23.867 50.0428 23.4168 50.0428 22.8817C50.0428 22.2617 49.8474 21.6987 49.4829 21.1915C49.1185 20.7122 48.5007 20.3178 47.6319 20.0363L45.9498 19.4733C45.3332 19.2767 44.8566 19.0511 44.6032 18.7975C44.3799 18.5718 44.2387 18.2903 44.2387 17.9238C44.2387 17.4457 44.4354 17.0514 44.7998 16.8536C45.192 16.6291 45.6976 16.4884 46.3987 16.4884C47.2675 16.4884 47.9963 16.657 48.7252 16.9665C48.9218 17.0514 49.0896 17.1363 49.2018 17.1363C49.3985 17.1363 49.4829 17.0235 49.4829 16.742V16.2627C49.4829 16.094 49.454 15.9533 49.3707 15.8683C49.2862 15.7555 49.174 15.6426 49.0063 15.5589C48.8941 15.474 48.6974 15.3891 48.5007 15.3611C48.3052 15.2774 48.0808 15.2483 47.8286 15.1646C47.6041 15.1355 47.323 15.0517 47.043 15.0517C46.7631 14.9668 46.4819 14.9668 46.2298 14.9668C45.6686 14.9668 45.221 15.0517 44.7443 15.1646C44.2677 15.3332 43.8466 15.5298 43.4822 15.7834C43.1177 16.0649 42.8655 16.3755 42.6134 16.7699C42.3889 17.1642 42.3044 17.5865 42.3044 18.1216C42.3044 18.7416 42.5011 19.3326 42.8933 19.8677C43.2855 20.4307 43.9033 20.825 44.8276 21.0786L46.5664 21.6416C47.1553 21.8394 47.5474 22.036 47.7719 22.2617C47.9963 22.4874 48.0808 22.7689 48.0808 23.0783C48.0808 23.5576 47.8841 23.9519 47.4642 24.2334C47.043 24.5149 46.4819 24.6278 45.6976 24.6278C45.221 24.6278 44.7443 24.5999 44.2954 24.4591C43.8188 24.3742 43.3977 24.2334 42.95 24.0357C42.8378 24.0077 42.7256 23.9519 42.6411 23.924C42.5566 23.8949 42.4722 23.8949 42.4167 23.8949C42.22 23.8949 42.1367 24.0077 42.1367 24.2893V24.8814C42.1367 24.9942 42.1645 25.1059 42.22 25.2478C42.3044 25.3886 42.4167 25.4723 42.6134 25.5851Z" fill="white"/>
<path d="M22.3156 19.7543C21.8944 19.6693 21.4458 19.6693 21.0533 19.6693C19.8476 19.6693 18.8662 19.98 18.1092 20.6279C17.3522 21.2467 17.0156 22.0925 17.0156 23.1056C17.0156 24.0921 17.2961 24.8517 17.8849 25.4438C18.4737 26.0348 19.2588 26.3162 20.2682 26.3162C21.6701 26.3162 22.8477 25.7533 23.801 24.6551C23.9132 24.9366 24.0254 25.1623 24.1654 25.3589C24.3054 25.5567 24.4466 25.7532 24.5865 25.9219C24.6988 26.0347 24.811 26.0918 24.9509 26.0918C25.0342 26.0918 25.1464 26.0639 25.2586 25.9789L26.0164 25.4717C26.1842 25.3589 26.2409 25.246 26.2409 25.1053C26.2409 25.0216 26.2119 24.9366 26.1564 24.8238C25.9887 24.5144 25.8475 24.2329 25.7642 23.9514C25.6798 23.6699 25.652 23.3313 25.652 22.8812V18.9376C25.652 17.6418 25.3431 16.6565 24.6698 15.9806C23.9977 15.3048 22.9877 14.9941 21.5299 14.9941C20.857 14.9941 20.2401 15.0791 19.6514 15.2198C19.0905 15.3885 18.5859 15.5292 18.1652 15.7828C17.997 15.8678 17.8849 15.9515 17.8568 16.0085C17.7727 16.0935 17.7727 16.2342 17.7727 16.4308V17.0229C17.7727 17.2474 17.8568 17.4161 17.997 17.4161C18.025 17.4161 18.1092 17.4161 18.1933 17.3882C18.2774 17.3603 18.4177 17.3044 18.6139 17.2195C19.0345 17.0508 19.483 16.9101 19.9037 16.8251C20.3242 16.7123 20.7728 16.6565 21.1935 16.6565C22.1466 16.6565 22.7633 16.853 23.1566 17.2195C23.5488 17.5859 23.7165 18.2339 23.7165 19.1633V20.0358C23.2121 19.9229 22.7922 19.8392 22.3156 19.7543ZM23.6888 21.8947C23.6888 22.289 23.661 22.6555 23.5765 22.9091C23.4921 23.1906 23.3811 23.4721 23.1844 23.6699C22.8755 24.0351 22.4833 24.2887 22.0347 24.4294C21.614 24.5993 21.1654 24.6551 20.7728 24.6551C20.2121 24.6551 19.7915 24.4865 19.5111 24.2329C19.2307 23.9514 19.0905 23.5279 19.0905 22.9649C19.0905 22.374 19.2868 21.8947 19.6794 21.5853C20.0719 21.2759 20.6607 21.106 21.4458 21.106C21.8103 21.106 22.2034 21.1339 22.5955 21.1909C22.9877 21.2188 23.3521 21.3038 23.6888 21.3875V21.8947Z" fill="white"/>
<path d="M29.7447 25.3879C29.8279 25.6124 29.9124 25.7823 29.9691 25.866C30.0523 25.951 30.1935 25.9789 30.4457 25.9789H31.4545C31.6789 25.9789 31.8467 25.951 31.9311 25.866C32.0156 25.7823 32.1001 25.6415 32.1556 25.3879L34.0066 17.6138L35.8854 25.3879C35.9132 25.6124 35.9964 25.7823 36.1086 25.866C36.1931 25.951 36.3898 25.9789 36.5853 25.9789H37.5953C37.792 25.9789 37.9597 25.951 38.0719 25.866C38.1564 25.7823 38.2686 25.6415 38.2963 25.3879L41.2117 16.0934C41.2406 15.9806 41.2961 15.8677 41.2961 15.8119C41.2961 15.7269 41.3239 15.699 41.3239 15.6141C41.3239 15.4175 41.2406 15.3326 41.0439 15.3326H39.9507C39.7262 15.3326 39.5585 15.3605 39.4741 15.4454C39.3896 15.5304 39.3051 15.6711 39.2496 15.9235L37.1741 24.0071L35.2398 15.8956C35.2121 15.6711 35.1276 15.5013 35.0154 15.4175C34.9309 15.3326 34.7354 15.3047 34.5388 15.3047H33.5577C33.3333 15.3047 33.1656 15.3326 33.0811 15.4175C32.9966 15.5013 32.9122 15.642 32.8567 15.8956L30.9779 23.8663L28.9869 15.8956C28.9036 15.6711 28.8191 15.5013 28.7624 15.4175C28.6792 15.3326 28.5392 15.3047 28.2858 15.3047H27.1093C26.9126 15.3047 26.8281 15.3884 26.8281 15.5862C26.8281 15.6711 26.8559 15.8119 26.9403 16.0655L29.7447 25.3879Z" fill="white"/>
<path d="M47.5229 31.2178C43.1198 33.1046 38.2979 34.0062 33.9515 34.0062C27.4741 34.0062 21.194 32.231 16.1189 29.2461C15.6984 28.9646 15.3339 29.4426 15.7264 29.8091C20.4369 34.062 26.633 36.6247 33.5593 36.6247C38.4657 36.6247 44.1853 35.0764 48.1673 32.1182C48.7284 31.668 48.1951 30.9642 47.5229 31.2178Z" fill="#FF9900"/>
<path d="M45.055 29.5834C44.6906 29.809 44.7751 30.1755 45.1395 30.1464C46.4005 29.9777 49.2603 29.6404 49.7381 30.3162C50.2425 30.9351 49.177 33.6397 48.7281 34.8507C48.5604 35.2171 48.8959 35.3579 49.2325 35.0752C51.3635 33.3012 51.8969 29.5554 51.4757 29.0482C51.0269 28.4282 47.2982 28.006 45.055 29.5834Z" fill="#FF9900"/>
<path d="M60.8943 23.4993C60.811 23.4993 60.7266 23.4714 60.7266 23.3307V16.8245C60.7266 16.7395 60.7543 16.6558 60.8943 16.6558H61.091C61.2032 16.6558 61.2587 16.6837 61.2587 16.8245L61.2877 17.2188C61.5676 16.9931 61.8765 16.8245 62.1565 16.7116C62.4364 16.5988 62.7176 16.543 63.0253 16.543C63.6431 16.543 64.1197 16.7687 64.4841 17.2188C64.8486 17.6411 65.044 18.289 65.044 19.0219C65.044 19.8106 64.8486 20.4295 64.4841 20.9087C64.0908 21.3868 63.6141 21.6125 62.942 21.6125C62.3532 21.6125 61.8476 21.3868 61.3432 20.9366V23.3028C61.3432 23.3865 61.3154 23.4714 61.1755 23.4714H60.8943V23.4993ZM62.8576 21.1344C63.3619 21.1344 63.7541 20.9646 64.0353 20.6272C64.3152 20.2608 64.4274 19.7536 64.4274 19.0777C64.4274 17.726 63.923 17.0781 62.8853 17.0781C62.3809 17.0781 61.8198 17.2759 61.3154 17.6981V20.4865C61.5954 20.711 61.8198 20.8808 62.072 20.9925C62.3242 21.0495 62.6054 21.1344 62.8576 21.1344Z" fill="white"/>
<path d="M67.3444 21.6125C66.9244 21.6125 66.5588 21.4997 66.2789 21.2182C65.9989 20.9925 65.8867 20.6272 65.8867 20.205C65.8867 19.7257 66.0545 19.3871 66.3634 19.1056C66.6711 18.8241 67.1199 18.7113 67.6533 18.7113C68.0732 18.7113 68.5221 18.7962 69.0265 18.937V18.1483C69.0265 17.7539 68.9432 17.4724 68.7465 17.3317C68.5498 17.163 68.2699 17.106 67.8488 17.106C67.4288 17.106 66.9522 17.1909 66.4756 17.3317C66.4478 17.3317 66.3633 17.3596 66.3066 17.3596C66.2234 17.3596 66.2234 17.3317 66.2234 17.2467V17.0502C66.2234 17.0223 66.2234 16.9652 66.2511 16.9373C66.2789 16.9094 66.2789 16.9094 66.3356 16.8524C66.84 16.6558 67.3444 16.543 67.9332 16.543C68.4943 16.543 68.9143 16.6558 69.1954 16.9094C69.4754 17.1339 69.5876 17.5003 69.5876 17.9796V21.3589C69.5876 21.4439 69.5598 21.5288 69.4198 21.5288H69.2232C69.1387 21.5288 69.0554 21.4997 69.0554 21.3589L69.0265 20.9646C68.5221 21.4159 67.9332 21.6125 67.3444 21.6125ZM67.4288 21.1344C67.6533 21.1344 67.9332 21.1053 68.2132 20.9646C68.4943 20.8517 68.7743 20.7401 69.0832 20.5423V19.3593C68.6621 19.2464 68.2699 19.1906 67.821 19.1906C66.9245 19.1906 66.4756 19.557 66.4756 20.205C66.4756 20.4865 66.5588 20.711 66.7 20.8808C66.8677 21.0495 67.1199 21.1344 67.4288 21.1344Z" fill="white"/>
<path d="M71.2419 21.5292C71.1575 21.5292 71.0742 21.5001 71.0742 21.3593V16.8249C71.0742 16.7412 71.102 16.6562 71.2419 16.6562H71.4386C71.5508 16.6562 71.6064 16.6842 71.6064 16.8249L71.6341 17.3879C71.8585 17.1064 72.1107 16.9099 72.3352 16.8249C72.5596 16.7121 72.8408 16.6562 73.1207 16.6562C73.233 16.6562 73.3174 16.6562 73.3452 16.6562C73.4284 16.6562 73.5129 16.6842 73.5129 16.8249V17.0506C73.5129 17.0785 73.5129 17.0785 73.4851 17.1343C73.4851 17.1634 73.4574 17.1634 73.4007 17.1634C73.3729 17.1634 73.2884 17.1634 73.2329 17.1634C73.2052 17.1634 73.1207 17.1634 73.0363 17.1634C72.7563 17.1634 72.4752 17.1914 72.2519 17.3321C72.0275 17.445 71.8308 17.6136 71.5786 17.8393V21.3593C71.5786 21.4443 71.5509 21.5292 71.4097 21.5292H71.2419Z" fill="white"/>
<path d="M76.0095 21.5846C75.6161 21.5846 75.3362 21.4718 75.1395 21.2752C74.944 21.0774 74.8318 20.7959 74.8318 20.4016V17.2188H74.074C73.9907 17.2188 73.9063 17.1909 73.9063 17.0502V16.9652C73.9063 16.9373 73.9062 16.8815 73.934 16.8524C73.934 16.8245 73.9618 16.8245 74.0462 16.8245L74.8318 16.7408L74.915 15.4728C74.915 15.4449 74.944 15.3878 74.944 15.3599C74.9717 15.332 74.9717 15.332 75.0562 15.332H75.2239C75.3084 15.332 75.3917 15.3599 75.3917 15.5007V16.7687H76.7661C76.8505 16.7687 76.9338 16.7966 76.9338 16.9373V17.1351C76.9338 17.2188 76.906 17.3038 76.7661 17.3038H75.3917V20.4865C75.3917 20.768 75.4206 20.9087 75.5606 21.0495C75.6728 21.1623 75.8683 21.2182 76.1217 21.2182C76.3172 21.2182 76.4861 21.2182 76.5983 21.1902C76.6816 21.1902 76.7093 21.1623 76.7661 21.1623C76.7938 21.1623 76.8505 21.1623 76.8505 21.1623C76.9338 21.1623 76.9628 21.1903 76.9628 21.2752V21.4438C76.9628 21.5567 76.9338 21.6125 76.8505 21.6404C76.5983 21.5288 76.3449 21.5846 76.0095 21.5846Z" fill="white"/>
<path d="M78.1416 21.5284C78.0571 21.5284 77.9727 21.4992 77.9727 21.3585V16.8241C77.9727 16.7403 78.0016 16.6554 78.1416 16.6554H78.3383C78.4493 16.6554 78.506 16.6833 78.506 16.8241L78.5338 17.2184C78.8427 16.9927 79.1504 16.8241 79.5148 16.7112C79.8804 16.5984 80.1881 16.5146 80.497 16.5146C80.9737 16.5146 81.3103 16.6275 81.5625 16.8811C81.787 17.1056 81.9269 17.472 81.9269 17.9792V21.3306C81.9269 21.4155 81.8992 21.4992 81.758 21.4992H81.478C81.3936 21.4992 81.3103 21.4713 81.3103 21.3306V18.2607C81.3103 17.8384 81.2258 17.5569 81.0859 17.3592C80.9169 17.1626 80.6648 17.0777 80.3281 17.0777C79.7115 17.0777 79.0671 17.2754 78.4783 17.6977V21.4155C78.4783 21.4992 78.4493 21.5842 78.3093 21.5842H78.1138V21.5284H78.1416Z" fill="white"/>
<path d="M85.4311 21.6404C84.6745 21.6404 84.0857 21.4439 83.749 21.0216C83.3556 20.5993 83.1602 19.9514 83.1602 19.0777C83.1602 18.289 83.3556 17.669 83.749 17.2188C84.1412 16.7966 84.7023 16.543 85.3466 16.543C85.9355 16.543 86.3566 16.7116 86.6933 17.0502C87.001 17.3596 87.1699 17.8389 87.1699 18.4577C87.1699 18.6834 87.1699 18.8812 87.141 19.0498C87.141 19.1336 87.0577 19.2185 86.9732 19.2185H83.749C83.749 19.8943 83.9167 20.4016 84.1689 20.711C84.4501 21.0216 84.9267 21.1902 85.5156 21.1902C85.9922 21.1902 86.4121 21.1053 86.8055 20.9646C86.8888 20.9367 86.9732 20.9366 86.9732 20.9366C87.001 20.9366 87.001 20.9367 87.0577 20.9646C87.0577 20.9925 87.0855 20.9925 87.0855 21.0495V21.2182C87.0855 21.331 87.0577 21.3868 86.9732 21.4159C86.4688 21.5288 85.9922 21.6404 85.4311 21.6404ZM86.6088 18.7683C86.6088 18.6834 86.6088 18.5705 86.6088 18.4577C86.6088 17.9796 86.4966 17.669 86.2999 17.4445C86.0755 17.2188 85.74 17.0781 85.3189 17.0781C84.3089 17.0781 83.7768 17.6411 83.7213 18.7683H86.6088Z" fill="white"/>
<path d="M88.4607 21.5292C88.3762 21.5292 88.293 21.5001 88.293 21.3593V16.8249C88.293 16.7412 88.3207 16.6562 88.4607 16.6562H88.6574C88.7696 16.6562 88.8251 16.6842 88.8251 16.8249L88.8529 17.3879C89.0773 17.1064 89.3295 16.9099 89.5539 16.8249C89.7784 16.7121 90.0595 16.6562 90.3395 16.6562C90.4517 16.6562 90.5362 16.6562 90.5639 16.6562C90.6484 16.6562 90.7316 16.6842 90.7316 16.8249V17.0506C90.7316 17.0785 90.7317 17.0785 90.7039 17.1343C90.7039 17.1634 90.6761 17.1634 90.6194 17.1634C90.5639 17.1634 90.5072 17.1634 90.4517 17.1634C90.424 17.1634 90.3395 17.1634 90.255 17.1634C89.9751 17.1634 89.6951 17.1914 89.4707 17.3321C89.2462 17.445 89.0496 17.6136 88.7974 17.8393V21.3593C88.7974 21.4443 88.7696 21.5292 88.6296 21.5292H88.4607Z" fill="white"/>
<path d="M60.8943 32.1448C60.811 32.1448 60.7266 32.1168 60.7266 31.9761V27.4696C60.7266 27.3859 60.7543 27.3009 60.8943 27.3009H61.091C61.2032 27.3009 61.2587 27.3288 61.2587 27.4696L61.2877 27.8639C61.5954 27.6382 61.9043 27.4696 62.2687 27.3567C62.6331 27.2439 62.942 27.1602 63.2497 27.1602C63.7264 27.1602 64.063 27.273 64.3152 27.5266C64.5396 27.7511 64.6796 28.1175 64.6796 28.6247V31.9761C64.6796 32.061 64.6519 32.1448 64.5119 32.1448H64.2307C64.1475 32.1448 64.063 32.1168 64.063 31.9761V28.8504C64.063 28.4269 63.9786 28.1454 63.8386 27.9489C63.6709 27.7511 63.4187 27.6674 63.082 27.6674C62.4654 27.6674 61.8198 27.8639 61.231 28.2862V32.004C61.231 32.0889 61.2032 32.1739 61.0632 32.1739H60.8666V32.1448H60.8943Z" fill="white"/>
<path d="M68.2124 32.2859C67.4546 32.2859 66.8669 32.0894 66.5303 31.6671C66.1369 31.2448 65.9414 30.5969 65.9414 29.7232C65.9414 28.9345 66.1369 28.3157 66.5303 27.8643C66.9224 27.4421 67.4835 27.1885 68.1279 27.1885C68.7167 27.1885 69.1379 27.3571 69.4745 27.6957C69.7822 28.0051 69.9512 28.4844 69.9512 29.1044C69.9512 29.3289 69.9512 29.5267 69.9222 29.6953C69.9222 29.7803 69.839 29.864 69.7545 29.864H66.5303C66.5303 30.5399 66.698 31.047 66.9502 31.3565C67.2313 31.6671 67.708 31.8358 68.2968 31.8358C68.7735 31.8358 69.1934 31.7508 69.5856 31.6101C69.67 31.5821 69.7545 31.5822 69.7545 31.5822C69.7822 31.5822 69.7822 31.5821 69.839 31.6101C69.839 31.6392 69.8667 31.6392 69.8667 31.695V31.8637C69.8667 31.9765 69.839 32.0335 69.7545 32.0614C69.2779 32.1743 68.7445 32.2859 68.2124 32.2859ZM69.3901 29.3859C69.3901 29.301 69.3901 29.1881 69.3901 29.0753C69.3901 28.5972 69.2779 28.2866 69.0812 28.0621C68.8567 27.8364 68.5201 27.6957 68.1001 27.6957C67.0902 27.6957 66.558 28.2587 66.5013 29.3859H69.3901Z" fill="white"/>
<path d="M72.615 32.2303C72.2216 32.2303 71.9416 32.1174 71.7449 31.9209C71.5495 31.7231 71.4372 31.4416 71.4372 31.0472V27.8087H70.6795C70.5962 27.8087 70.5117 27.7808 70.5117 27.64V27.5551C70.5117 27.5272 70.5117 27.4701 70.5395 27.4422C70.5395 27.4143 70.5672 27.4143 70.6517 27.4143L71.4372 27.3294L71.5205 26.0626C71.5205 26.0347 71.5495 25.9777 71.5495 25.9498C71.5772 25.9219 71.5772 25.9219 71.6605 25.9219H71.8294C71.9139 25.9219 71.9971 25.9498 71.9971 26.0905V27.3585H73.3715C73.456 27.3585 73.5393 27.3864 73.5393 27.5272V27.7238C73.5393 27.8087 73.5115 27.8936 73.3715 27.8936H72.0261V31.0763C72.0261 31.3579 72.0538 31.4986 72.1938 31.6393C72.3338 31.7801 72.5027 31.808 72.7549 31.808C72.9504 31.808 73.1193 31.808 73.2316 31.7801C73.3148 31.7801 73.3438 31.7522 73.3993 31.7522C73.427 31.7522 73.4837 31.7522 73.4837 31.7522C73.5682 31.7522 73.596 31.7801 73.596 31.8638V32.0337C73.596 32.1466 73.5682 32.2024 73.4837 32.2303C73.2038 32.1744 72.9227 32.2303 72.615 32.2303Z" fill="white"/>
<path d="M75.6981 32.1452C75.6137 32.1452 75.5304 32.1173 75.5014 32.0336L74.016 27.5829C73.9883 27.4979 73.9883 27.47 73.9883 27.4142C73.9883 27.3572 74.016 27.3292 74.1005 27.3292H74.4082C74.4927 27.3292 74.5204 27.3572 74.5771 27.4421L75.8659 31.4984L77.0158 27.4421C77.0436 27.3572 77.1003 27.3292 77.2125 27.3292H77.5769C77.6614 27.3292 77.7446 27.3572 77.7736 27.4421L78.9224 31.4984L80.269 27.3863C80.2968 27.3013 80.3523 27.2734 80.4367 27.2734H80.7167C80.8012 27.2734 80.8289 27.3013 80.8289 27.3572C80.8289 27.3863 80.8289 27.4421 80.8012 27.527L79.2313 31.9765C79.2035 32.0615 79.1468 32.0894 79.0346 32.0894H78.7269C78.6424 32.0894 78.558 32.0615 78.5302 31.9765L77.3802 27.9214L76.2315 31.9765C76.2025 32.0615 76.147 32.0894 76.0348 32.0894H75.7549V32.1452H75.6981Z" fill="white"/>
<path d="M83.6065 32.2855C82.9054 32.2855 82.3455 32.061 81.9521 31.6096C81.56 31.1874 81.3633 30.5394 81.3633 29.7228C81.3633 28.9341 81.56 28.3153 81.9521 27.836C82.3455 27.4138 82.9054 27.1602 83.6065 27.1602C84.3076 27.1602 84.8687 27.3859 85.2608 27.836C85.6542 28.2583 85.8497 28.9062 85.8497 29.7228C85.8497 30.5115 85.6542 31.1316 85.2608 31.6096C84.8409 32.061 84.3076 32.2855 83.6065 32.2855ZM83.6065 31.7795C84.7009 31.7795 85.2608 31.1037 85.2608 29.7228C85.2608 28.3432 84.7009 27.6674 83.6065 27.6674C82.5132 27.6674 81.9521 28.3432 81.9521 29.7228C81.9521 31.1037 82.4855 31.7795 83.6065 31.7795Z" fill="white"/>
<path d="M87.1963 32.1446C87.1118 32.1446 87.0273 32.1167 87.0273 31.976V27.4695C87.0273 27.3857 87.0563 27.3008 87.1963 27.3008H87.3918C87.504 27.3008 87.5607 27.3287 87.5607 27.4695L87.5884 28.0325C87.8129 27.7509 88.0651 27.5544 88.2895 27.4695C88.514 27.3566 88.7939 27.3008 89.0751 27.3008C89.1873 27.3008 89.2706 27.3008 89.2983 27.3008C89.3828 27.3008 89.4672 27.3287 89.4672 27.4695V27.6951C89.4672 27.723 89.4672 27.723 89.4395 27.7801C89.4105 27.808 89.4105 27.808 89.355 27.808C89.3273 27.808 89.2428 27.808 89.1873 27.808C89.1583 27.808 89.0751 27.808 88.9906 27.808C88.7107 27.808 88.4295 27.8359 88.2051 27.9766C87.9806 28.0895 87.7851 28.2582 87.5329 28.4838V32.0039C87.5329 32.0888 87.504 32.1738 87.364 32.1738H87.1685V32.1446H87.1963Z" fill="white"/>
<path d="M90.4763 32.1455C90.3931 32.1455 90.3086 32.1176 90.3086 31.9769V25.1892C90.3086 25.1042 90.3364 25.0205 90.4763 25.0205H90.7575C90.842 25.0205 90.9252 25.0484 90.9252 25.1892V29.47L93.1962 27.4145C93.2806 27.3296 93.3651 27.3296 93.4206 27.3296H93.785C93.8695 27.3296 93.8972 27.3575 93.8972 27.4145C93.8972 27.4703 93.8695 27.4983 93.785 27.5832L91.4586 29.6399L93.9817 31.9769C94.0095 32.0048 94.0662 32.0618 94.0662 32.0897C94.0662 32.1746 94.0384 32.1747 93.954 32.1747H93.5606C93.4773 32.1747 93.3929 32.1455 93.3651 32.0897L90.9252 29.8086V32.0048C90.9252 32.0897 90.8975 32.1747 90.7575 32.1747H90.4763V32.1455Z" fill="white"/>
<path d="M17.4626 44.3439C16.9298 44.1461 16.5373 43.8937 16.313 43.611C16.0887 43.3295 15.9766 42.9643 15.9766 42.5129C15.9766 41.9499 16.1728 41.4997 16.5934 41.1612C17.0139 40.8226 17.5748 40.654 18.2758 40.654C18.8645 40.654 19.4254 40.7668 19.9861 40.9925V42.0057C19.3972 41.837 18.8645 41.7242 18.3599 41.7242C17.6589 41.7242 17.2944 41.9499 17.2944 42.4001C17.2944 42.5699 17.3505 42.7107 17.4626 42.8223C17.5748 42.9352 17.8271 43.048 18.1635 43.1609L18.8365 43.4145C19.3972 43.611 19.7898 43.8646 20.0141 44.1182C20.2384 44.3997 20.3786 44.7382 20.3786 45.1884C20.3786 45.8085 20.1543 46.2877 19.7057 46.653C19.257 47.0194 18.6683 47.1881 17.8832 47.1881C17.5467 47.1881 17.2103 47.1602 16.8737 47.1044C16.5373 47.0473 16.2569 46.9636 16.0045 46.8508V45.8085C16.313 45.8934 16.6214 45.9771 16.9579 46.0342C17.2944 46.09 17.6028 46.1179 17.8832 46.1179C18.2476 46.1179 18.5001 46.0621 18.6963 45.9213C18.8926 45.7806 18.9767 45.6107 18.9767 45.3583C18.9767 45.1605 18.9206 45.0198 18.8085 44.9069C18.6963 44.7941 18.444 44.6812 18.1074 44.5405L17.4626 44.3439ZM22.3973 45.1047C22.425 45.499 22.5372 45.7806 22.7617 45.9771C22.9861 46.1458 23.3228 46.2307 23.7717 46.2307C24.1638 46.2307 24.6405 46.1458 25.1738 46.005V46.8787C24.9771 46.9915 24.7249 47.0752 24.416 47.1323C24.1361 47.1881 23.8272 47.2172 23.5195 47.2172C22.7617 47.2172 22.1728 47.0194 21.7805 46.5972C21.388 46.1749 21.1918 45.5828 21.1918 44.7662C21.1918 44.0054 21.388 43.4145 21.7805 42.9643C22.1728 42.5408 22.7339 42.3163 23.435 42.3163C24.0239 42.3163 24.4727 42.485 24.8082 42.8223C25.1171 43.1608 25.2848 43.611 25.2848 44.2311C25.2848 44.3718 25.2848 44.5126 25.2571 44.6812C25.2293 44.8511 25.2293 44.9918 25.2016 45.1047H22.3973ZM23.3505 43.2458C23.0428 43.2458 22.8184 43.3295 22.6495 43.4994C22.4817 43.668 22.3973 43.9217 22.3695 44.259H24.1361V44.1182C24.1361 43.5273 23.8839 43.2458 23.3505 43.2458ZM28.2858 46.9915C28.0336 47.1044 27.7525 47.1323 27.4725 47.1323C26.6592 47.1323 26.2671 46.6821 26.2671 45.7806V40.4004H27.5847V45.6677C27.5847 45.8364 27.6125 45.9492 27.6692 46.0342C27.7247 46.09 27.8092 46.1458 27.9492 46.1458C28.0336 46.1458 28.1459 46.1458 28.2858 46.1179V46.9915ZM30.1646 45.1047C30.1924 45.499 30.3046 45.7806 30.529 45.9771C30.7535 46.1458 31.0889 46.2307 31.5378 46.2307C31.9312 46.2307 32.4078 46.1458 32.94 46.005V46.8787C32.7433 46.9915 32.4911 47.0752 32.1834 47.1323C31.9022 47.1881 31.5945 47.2172 31.2856 47.2172C30.529 47.2172 29.9402 47.0194 29.5468 46.5972C29.1546 46.1749 28.9579 45.5828 28.9579 44.7662C28.9579 44.0054 29.1546 43.4145 29.5468 42.9643C29.9402 42.5408 30.5001 42.3163 31.2011 42.3163C31.79 42.3163 32.2389 42.485 32.5755 42.8223C32.8845 43.1608 33.0522 43.611 33.0522 44.2311C33.0522 44.3718 33.0522 44.5126 33.0244 44.6812C32.9967 44.8511 32.9967 44.9918 32.9677 45.1047H30.1646ZM31.1456 43.2458C30.8367 43.2458 30.6123 43.3295 30.4446 43.4994C30.2768 43.668 30.1924 43.9217 30.1646 44.259H31.9312V44.1182C31.9022 43.5273 31.65 43.2458 31.1456 43.2458ZM37.3419 46.8787C37.1742 46.9636 36.9775 47.0473 36.753 47.1044C36.5286 47.1602 36.2764 47.1881 36.052 47.1881C35.3231 47.1881 34.762 46.9915 34.3699 46.5693C33.9777 46.1458 33.781 45.5549 33.781 44.7941C33.781 44.0345 33.9777 43.4423 34.3976 43.0201C34.8188 42.5978 35.3799 42.3721 36.0809 42.3721C36.5286 42.3721 36.922 42.4571 37.2864 42.6537V43.5273C36.922 43.4144 36.6131 43.3865 36.3042 43.3865C35.8842 43.3865 35.5753 43.4994 35.3799 43.696C35.1832 43.9216 35.0987 44.259 35.0987 44.7103V44.8511C35.0987 45.3013 35.1832 45.6398 35.3799 45.8643C35.5753 46.09 35.8842 46.1749 36.2764 46.1749C36.5576 46.1749 36.922 46.1179 37.2864 46.005V46.8787H37.3419ZM40.9873 46.9636C40.6506 47.0752 40.3139 47.1602 39.894 47.1602C39.3884 47.1602 38.9963 47.0473 38.7718 46.7937C38.5196 46.5401 38.4074 46.1749 38.4074 45.6677V43.4424H37.7063V42.6257L38.4352 42.485L38.6318 41.217H39.6973V42.4571H40.9306V43.4424H39.6973V45.6107C39.6973 45.8085 39.754 45.9492 39.8373 46.0342C39.9218 46.1179 40.0895 46.1458 40.3139 46.1458C40.5106 46.1458 40.7073 46.1179 40.9595 46.09V46.9636H40.9873Z" fill="white"/>
<path d="M44.2612 46.4699C44.2082 46.4699 44.1855 46.4478 44.1855 46.3968V43.288H43.0797C43.0266 43.288 43.0039 43.266 43.0039 43.2146V43.0977C43.0039 43.0466 43.0266 43.0246 43.0797 43.0246H45.5944C45.6472 43.0246 45.67 43.0466 45.67 43.0977V43.2146C45.67 43.266 45.6472 43.288 45.5944 43.288H44.4884V46.3968C44.4884 46.4478 44.4657 46.4699 44.4127 46.4699H44.2612ZM47.2607 46.543C46.8516 46.543 46.5485 46.4333 46.3366 46.2064C46.1319 45.9798 46.026 45.6505 46.026 45.2116C46.026 44.7947 46.1319 44.4729 46.3366 44.2388C46.5485 44.0046 46.8363 43.895 47.2076 43.895C47.5182 43.895 47.7604 43.9829 47.9269 44.1512C48.0938 44.3267 48.1769 44.5681 48.1769 44.8898C48.1769 45.0215 48.1694 45.124 48.1541 45.1898C48.1466 45.2409 48.1163 45.2629 48.0635 45.2629H46.3213C46.3213 45.614 46.4047 45.8699 46.5563 46.0309C46.7075 46.1992 46.95 46.2795 47.2757 46.2795C47.5257 46.2795 47.7604 46.2357 47.9801 46.1554C48.0254 46.1406 48.0557 46.1333 48.071 46.1333C48.086 46.1333 48.0938 46.1406 48.1088 46.1478C48.1163 46.1626 48.1241 46.1699 48.1241 46.1919V46.265C48.1241 46.3161 48.1088 46.3526 48.0635 46.3675C47.8285 46.4844 47.556 46.543 47.2607 46.543ZM47.8966 45.036C47.8966 44.9922 47.9044 44.9336 47.9044 44.8753C47.9044 44.6339 47.8438 44.4584 47.7226 44.3339C47.6013 44.2095 47.4272 44.1512 47.1922 44.1512C46.6469 44.1512 46.3591 44.4509 46.3288 45.0433H47.8966V45.036ZM49.9113 46.5282C49.5176 46.5282 49.2148 46.4185 49.0026 46.1992C48.7982 45.9798 48.692 45.6505 48.692 45.2264C48.692 44.8019 48.7982 44.4802 49.0026 44.2536C49.2148 44.0267 49.5176 43.917 49.9113 43.917C50.1007 43.917 50.2826 43.9463 50.4492 44.0122C50.487 44.0267 50.5098 44.0632 50.5098 44.1146V44.1877C50.5098 44.2315 50.487 44.2536 50.4492 44.2536C50.4417 44.2536 50.4264 44.2536 50.4114 44.246C50.396 44.2388 50.3736 44.2388 50.3357 44.2315C50.1992 44.2022 50.0629 44.1802 49.9267 44.1802C49.601 44.1802 49.366 44.2608 49.2223 44.4215C49.0782 44.5826 49.0026 44.8388 49.0026 45.1971V45.2557C49.0026 45.5995 49.0782 45.8554 49.2223 46.0164C49.366 46.1771 49.601 46.265 49.9192 46.265C50.0554 46.265 50.1992 46.243 50.3661 46.1992C50.4039 46.1919 50.4264 46.1847 50.4417 46.1771C50.4567 46.1699 50.472 46.1699 50.4795 46.1699C50.5173 46.1699 50.5401 46.1919 50.5401 46.2357V46.3088C50.5401 46.3602 50.5248 46.3968 50.487 46.4113C50.3129 46.4844 50.116 46.5282 49.9113 46.5282ZM51.237 46.4699C51.1839 46.4699 51.1611 46.4478 51.1611 46.3968V42.8636C51.1611 42.8125 51.1839 42.7904 51.237 42.7904H51.3733C51.4264 42.7904 51.4489 42.8125 51.4489 42.8636V44.2536C51.6158 44.1436 51.7898 44.056 51.9792 43.9901C52.1611 43.9243 52.3426 43.895 52.517 43.895C52.7667 43.895 52.9561 43.9608 53.0927 44.0853C53.2289 44.2095 53.2895 44.3998 53.2895 44.6484V46.3968C53.2895 46.4478 53.2667 46.4699 53.2136 46.4699H53.0774C53.0245 46.4699 53.0017 46.4478 53.0017 46.3968V44.7729C53.0017 44.5605 52.9561 44.3998 52.873 44.3046C52.7895 44.2095 52.6533 44.1584 52.4639 44.1584C52.123 44.1584 51.7898 44.2608 51.4642 44.4729V46.3968C51.4642 46.4478 51.4414 46.4699 51.3883 46.4699H51.237ZM54.1605 46.4699C54.1074 46.4699 54.0849 46.4478 54.0849 46.3968V44.0412C54.0849 43.9901 54.1074 43.9681 54.1605 43.9681H54.2664C54.3196 43.9681 54.3499 43.9901 54.3574 44.0412L54.3802 44.2536C54.5468 44.1364 54.7286 44.0487 54.9102 43.9829C55.0921 43.917 55.274 43.8877 55.448 43.8877C55.698 43.8877 55.8874 43.9536 56.0237 44.0777C56.1599 44.2022 56.2205 44.3926 56.2205 44.6412V46.3968C56.2205 46.4478 56.198 46.4699 56.1449 46.4699H56.0087C55.9555 46.4699 55.9327 46.4478 55.9327 46.3968V44.7729C55.9327 44.5605 55.8874 44.3998 55.804 44.3046C55.7208 44.2095 55.5843 44.1584 55.3952 44.1584C55.0543 44.1584 54.7211 44.2608 54.3952 44.4729V46.3968C54.3952 46.4478 54.3727 46.4699 54.3196 46.4699H54.1605ZM58.0687 46.543C57.6899 46.543 57.3946 46.4261 57.1903 46.1919C56.9781 45.9578 56.8796 45.6285 56.8796 45.2116C56.8796 44.7947 56.9856 44.4729 57.1903 44.2388C57.4021 44.0046 57.6974 43.8877 58.0687 43.8877C58.4475 43.8877 58.7428 44.0046 58.9472 44.2388C59.1593 44.4729 59.2653 44.7947 59.2653 45.2116C59.2653 45.6285 59.1593 45.9578 58.9472 46.1919C58.7428 46.4261 58.4475 46.543 58.0687 46.543ZM58.0687 46.2868C58.6593 46.2868 58.9625 45.9285 58.9625 45.2191C58.9625 44.5095 58.6672 44.1584 58.0687 44.1584C57.4781 44.1584 57.1749 44.5095 57.1749 45.2191C57.1749 45.9285 57.4702 46.2868 58.0687 46.2868ZM60.3712 46.4844C60.235 46.4844 60.1287 46.4478 60.0531 46.3675C59.9775 46.2871 59.9394 46.1847 59.9394 46.0381V42.8563C59.9394 42.8053 59.9622 42.7832 60.0153 42.7832H60.1516C60.2047 42.7832 60.2272 42.8053 60.2272 42.8563V46.0309C60.2272 46.104 60.2425 46.1554 60.2728 46.1847C60.3031 46.2137 60.3559 46.2285 60.4319 46.2285C60.4547 46.2285 60.4772 46.2285 60.5 46.2212C60.5228 46.2212 60.5453 46.2137 60.5606 46.2137C60.6059 46.2137 60.6362 46.2357 60.6362 46.2868V46.3819C60.6362 46.4261 60.6138 46.4478 60.5681 46.4551C60.5075 46.4771 60.4469 46.4844 60.3712 46.4844ZM62.28 46.543C61.9013 46.543 61.6056 46.4261 61.4013 46.1919C61.1891 45.9578 61.0906 45.6285 61.0906 45.2116C61.0906 44.7947 61.1969 44.4729 61.4013 44.2388C61.6135 44.0046 61.9088 43.8877 62.28 43.8877C62.6585 43.8877 62.9541 44.0046 63.1585 44.2388C63.3707 44.4729 63.4766 44.7947 63.4766 45.2116C63.4766 45.6285 63.3707 45.9578 63.1585 46.1919C62.9541 46.4261 62.6585 46.543 62.28 46.543ZM62.28 46.2868C62.8707 46.2868 63.1735 45.9285 63.1735 45.2191C63.1735 44.5095 62.8782 44.1584 62.28 44.1584C61.6891 44.1584 61.3863 44.5095 61.3863 45.2191C61.3938 45.9285 61.6891 46.2868 62.28 46.2868ZM65.0595 47.5523C64.9157 47.5523 64.7716 47.5378 64.6354 47.5085C64.4991 47.4792 64.3779 47.4427 64.272 47.3916C64.2341 47.3768 64.2113 47.3402 64.2113 47.2892V47.2158C64.2113 47.172 64.2263 47.1502 64.272 47.1502C64.2795 47.1502 64.2944 47.1502 64.3023 47.1575C64.3173 47.1575 64.3401 47.1647 64.3704 47.1792C64.6126 47.2523 64.8398 47.2964 65.037 47.2964C65.3551 47.2964 65.5898 47.2233 65.7414 47.0696C65.8926 46.9161 65.9686 46.6747 65.9686 46.3454V46.104C65.8398 46.2064 65.7032 46.2868 65.5442 46.3454C65.3929 46.404 65.2413 46.4333 65.1051 46.4333C64.7716 46.4333 64.5141 46.3161 64.3098 46.0895C64.1129 45.8626 64.0144 45.5629 64.0144 45.1898C64.0144 44.7874 64.1129 44.4729 64.3098 44.2388C64.5066 44.0046 64.7795 43.8877 65.1201 43.8877C65.4457 43.8877 65.726 43.9974 65.976 44.217L65.9989 44.0339C66.0064 43.9829 66.0367 43.9608 66.0895 43.9608H66.1957C66.2485 43.9608 66.2714 43.9829 66.2714 44.0339V46.3454C66.2714 46.733 66.1654 47.033 65.9607 47.2378C65.7564 47.4427 65.4457 47.5523 65.0595 47.5523ZM65.1732 46.1771C65.4307 46.1771 65.6957 46.0747 65.9686 45.8626V44.4802C65.8245 44.3705 65.6957 44.2826 65.5595 44.2315C65.4307 44.1802 65.2867 44.1512 65.1429 44.1512C64.8701 44.1512 64.6582 44.2388 64.522 44.4071C64.3854 44.5826 64.3173 44.8312 64.3173 45.175C64.3173 45.4971 64.3932 45.7457 64.537 45.9212C64.681 46.0968 64.8929 46.1771 65.1732 46.1771ZM67.1576 47.5523C67.0742 47.5523 66.9986 47.5378 66.9229 47.5158C66.8698 47.5013 66.847 47.472 66.847 47.4134V47.3402C66.847 47.2964 66.8698 47.2744 66.9076 47.2744C66.9304 47.2744 66.9454 47.2744 66.9608 47.2816C66.9757 47.2816 66.9986 47.2892 67.0289 47.2892C67.0592 47.2892 67.0895 47.2892 67.1348 47.2892C67.2486 47.2892 67.3395 47.2599 67.4076 47.2013C67.4758 47.1427 67.5364 47.0402 67.597 46.894L67.7711 46.4771L66.7561 44.0705C66.7411 44.0412 66.7336 44.0194 66.7336 44.0046C66.7336 43.9681 66.7561 43.9463 66.7939 43.9463H66.9608C67.0061 43.9463 67.0364 43.9681 67.0517 44.0122L67.9148 46.1478L68.7861 44.0122C68.8011 43.9681 68.8314 43.9463 68.877 43.9463H69.0283C69.0661 43.9463 69.0889 43.9608 69.0889 44.0046C69.0889 44.0122 69.0814 44.0339 69.0661 44.0705L67.8545 46.9819C67.7711 47.1868 67.6726 47.3258 67.5667 47.4134C67.4604 47.5158 67.3242 47.5523 67.1576 47.5523Z" fill="white"/>
<path d="M71.5537 47.4532C71.486 47.4532 71.457 47.4238 71.457 47.3541V42.8823C71.457 42.8131 71.486 42.7832 71.5537 42.7832H73.0223C73.4377 42.7832 73.7662 42.9122 74.0177 43.16C74.2689 43.4081 74.3849 43.7451 74.3849 44.1714C74.3849 44.5879 74.2593 44.9249 74.0177 45.1727C73.7662 45.4208 73.4377 45.5494 73.0223 45.5494H71.8339V47.3541C71.8339 47.4238 71.8049 47.4532 71.7373 47.4532H71.5537ZM73.0127 45.1928C73.6601 45.1928 73.9886 44.8557 73.9886 44.1714C73.9886 43.4871 73.6601 43.1403 73.0127 43.1403H71.8339V45.1928H73.0127ZM75.9983 47.5327C75.6989 47.5327 75.4573 47.4434 75.2735 47.2649C75.0997 47.0863 75.0032 46.8484 75.0032 46.5511C75.0032 46.2239 75.1093 45.9659 75.3317 45.7775C75.5538 45.5891 75.8536 45.4901 76.2303 45.4901C76.5202 45.4901 76.8391 45.5396 77.1676 45.6489V45.0838C77.1676 44.8062 77.0998 44.6178 76.9743 44.4986C76.8487 44.3795 76.6362 44.3201 76.3464 44.3201C76.0465 44.3201 75.7276 44.3795 75.3895 44.4888C75.3509 44.4986 75.3122 44.5085 75.2931 44.5085C75.2544 44.5085 75.2253 44.479 75.2253 44.4192V44.3103C75.2253 44.2705 75.2349 44.2509 75.2448 44.2308C75.2544 44.2112 75.2835 44.1911 75.3122 44.1813C75.6602 44.0424 76.0274 43.9732 76.4137 43.9732C76.8004 43.9732 77.0807 44.0523 77.2736 44.221C77.467 44.3897 77.5539 44.6375 77.5539 44.9745V47.3541C77.5539 47.4238 77.5248 47.4532 77.4574 47.4532H77.3219C77.2545 47.4532 77.2254 47.4238 77.2158 47.3541L77.1867 47.0667C76.8004 47.3738 76.4042 47.5327 75.9983 47.5327ZM76.0465 47.1756C76.2108 47.1756 76.3946 47.1461 76.5875 47.0765C76.7809 47.0073 76.9743 46.9082 77.1772 46.7792V45.9364C76.8873 45.857 76.5975 45.8172 76.3268 45.8172C75.718 45.8172 75.4091 46.0552 75.4091 46.5413C75.4091 46.7493 75.4669 46.9082 75.5733 47.0171C75.6698 47.126 75.8341 47.1756 76.0465 47.1756ZM78.6554 47.4532C78.5877 47.4532 78.559 47.4238 78.559 47.3541V44.1616C78.559 44.092 78.5877 44.0625 78.6554 44.0625H78.781C78.8488 44.0625 78.8875 44.092 78.897 44.1616L78.9261 44.558C79.0904 44.3696 79.2546 44.2308 79.4189 44.1616C79.5831 44.0822 79.757 44.0424 79.9599 44.0424C80.0277 44.0424 80.0855 44.0424 80.1337 44.0523C80.2015 44.0523 80.2306 44.092 80.2306 44.1616V44.3299C80.2306 44.35 80.2206 44.3696 80.211 44.3795C80.2015 44.3995 80.1819 44.3995 80.1628 44.3995C80.1241 44.3995 80.095 44.3995 80.0663 44.3995C80.0372 44.3995 79.989 44.3995 79.9308 44.3995C79.7279 44.3995 79.554 44.4393 79.3993 44.5183C79.2451 44.5977 79.0904 44.7169 78.9548 44.8852V47.364C78.9548 47.4336 78.9261 47.4631 78.8584 47.4631H78.6554V47.4532ZM81.8344 47.493C81.5737 47.493 81.3803 47.4238 81.2448 47.2849C81.1096 47.1461 81.0423 46.9377 81.0423 46.6698V44.4094H80.5204C80.4526 44.4094 80.4235 44.3795 80.4235 44.3103V44.2411C80.4235 44.2013 80.4335 44.1813 80.4431 44.1616C80.4526 44.1415 80.4817 44.1317 80.5204 44.1317L81.0518 44.0822L81.1001 43.1898C81.1001 43.1501 81.1096 43.1305 81.1292 43.1104C81.1483 43.0908 81.1679 43.0908 81.1966 43.0908H81.3126C81.3803 43.0908 81.4095 43.1206 81.4095 43.1898V44.0723H82.3659C82.4336 44.0723 82.4623 44.1022 82.4623 44.1714V44.3103C82.4623 44.3795 82.4336 44.4094 82.3659 44.4094H81.4095V46.6502C81.4095 46.8386 81.4477 46.9676 81.5251 47.0368C81.6024 47.1162 81.728 47.1559 81.9118 47.1559C82.0373 47.1559 82.1534 47.1461 82.2498 47.126C82.2981 47.1162 82.3367 47.1064 82.3659 47.1064C82.395 47.0966 82.4141 47.0966 82.4336 47.0966C82.4819 47.0966 82.5106 47.126 82.5106 47.1756V47.2747C82.5106 47.3541 82.4914 47.3939 82.4336 47.4135C82.2594 47.4631 82.0565 47.493 81.8344 47.493ZM83.2936 47.4532C83.2258 47.4532 83.1967 47.4238 83.1967 47.3541V44.1616C83.1967 44.092 83.2258 44.0625 83.2936 44.0625H83.4287C83.4965 44.0625 83.5352 44.092 83.5447 44.1616L83.5734 44.4491C83.7863 44.2906 84.0179 44.1714 84.25 44.0822C84.482 43.9929 84.7136 43.9532 84.9361 43.9532C85.255 43.9532 85.4966 44.0424 85.6704 44.2112C85.8442 44.3795 85.9216 44.6375 85.9216 44.9745V47.3541C85.9216 47.4238 85.8925 47.4532 85.8251 47.4532H85.6509C85.5835 47.4532 85.5544 47.4238 85.5544 47.3541V45.153C85.5544 44.8656 85.4966 44.6473 85.3902 44.5183C85.2837 44.3897 85.1099 44.3201 84.8683 44.3201C84.4338 44.3201 84.0084 44.4589 83.593 44.7464V47.3541C83.593 47.4238 83.5638 47.4532 83.4965 47.4532H83.2936ZM88.3276 47.5523C87.8057 47.5523 87.4194 47.4037 87.1487 47.0966C86.888 46.789 86.7524 46.3426 86.7524 45.748C86.7524 45.1829 86.888 44.7464 87.1487 44.4294C87.4194 44.1121 87.7866 43.9634 88.2598 43.9634C88.6561 43.9634 88.965 44.0822 89.1779 44.3103C89.3904 44.5482 89.4964 44.8754 89.4964 45.3115C89.4964 45.4901 89.4869 45.6289 89.4677 45.7181C89.4582 45.7878 89.4195 45.8172 89.3517 45.8172H87.1296C87.1296 46.2931 87.2356 46.6404 87.429 46.8582C87.6223 47.0863 87.9313 47.1957 88.3467 47.1957C88.6656 47.1957 88.965 47.1359 89.2453 47.0269C89.3035 47.0073 89.3422 46.997 89.3613 46.997C89.3808 46.997 89.3904 47.0073 89.4095 47.0171C89.4195 47.0368 89.4291 47.0466 89.4291 47.0765V47.1756C89.4291 47.2452 89.4095 47.2948 89.3517 47.3144C89.0523 47.4733 88.7043 47.5523 88.3276 47.5523ZM89.1392 45.5101C89.1392 45.4503 89.1488 45.3713 89.1488 45.2919C89.1488 44.9647 89.0715 44.7267 88.9168 44.558C88.7621 44.3897 88.54 44.3103 88.2406 44.3103C87.545 44.3103 87.1778 44.7169 87.1391 45.5199H89.1392V45.5101ZM90.4337 47.4532C90.3663 47.4532 90.3372 47.4238 90.3372 47.3541V44.1616C90.3372 44.092 90.3663 44.0625 90.4337 44.0625H90.5593C90.6271 44.0625 90.6657 44.092 90.6753 44.1616L90.7044 44.558C90.8687 44.3696 91.0329 44.2308 91.1972 44.1616C91.3614 44.0822 91.5352 44.0424 91.7382 44.0424C91.8059 44.0424 91.8637 44.0424 91.9124 44.0523C91.9798 44.0523 92.0089 44.092 92.0089 44.1616V44.3299C92.0089 44.35 91.9993 44.3696 91.9893 44.3795C91.9798 44.3995 91.9606 44.3995 91.9411 44.3995C91.9024 44.3995 91.8737 44.3995 91.8446 44.3995C91.8155 44.3995 91.7673 44.3995 91.7095 44.3995C91.5065 44.3995 91.3323 44.4393 91.178 44.5183C91.0233 44.5977 90.8687 44.7169 90.7335 44.8852V47.364C90.7335 47.4336 90.7044 47.4631 90.6366 47.4631H90.4337V47.4532Z" fill="white"/>
</svg>
