<svg width="28" height="28" viewBox="0 0 28 28" fill="none" xmlns="http://www.w3.org/2000/svg">
<path d="M18.3325 21C17.8052 21 17.2814 20.909 16.7849 20.7313C14.3726 19.8494 12.1845 18.4473 10.3747 16.6245C8.552 14.8148 7.15061 12.626 6.26783 10.2137C5.97478 9.39053 5.92106 8.50214 6.11235 7.64964C6.30366 6.79707 6.7321 6.01614 7.34827 5.39716L7.95297 4.79247C8.5326 4.22145 9.33505 3.93559 10.1453 4.01225C10.955 4.0882 11.6901 4.51807 12.1536 5.18723L12.9159 6.30633L12.9152 6.30562C13.2741 6.83293 13.4382 7.46915 13.378 8.10392C13.3185 8.7394 13.0391 9.33335 12.5884 9.78472C12.3255 10.0426 12.2144 10.4181 12.2954 10.7777C12.5512 12.2543 14.7752 14.0799 15.854 14.6094V14.6087C16.3018 14.848 16.8535 14.7677 17.2146 14.4109C17.666 13.9596 18.2599 13.6802 18.8955 13.6207C19.5303 13.5612 20.1665 13.7246 20.6938 14.0842L21.8129 14.8465H21.8122C22.4814 15.3093 22.912 16.0444 22.988 16.8547C23.0639 17.6643 22.778 18.4667 22.207 19.0463C21.272 20.2428 19.8506 20.9593 18.3325 21ZM9.88819 5.13631C9.17028 5.08258 8.61216 5.74601 8.15863 6.20813C7.6958 6.67312 7.3741 7.25989 7.23008 7.89969C7.08607 8.5402 7.12691 9.20793 7.34687 9.82625C8.71103 14.0102 12.997 18.2933 17.1732 19.6516C17.7915 19.8723 18.4593 19.9131 19.0998 19.7698C19.7403 19.6258 20.3271 19.3034 20.7914 18.8406L21.3968 18.2359C21.7285 17.8985 21.8948 17.4321 21.8504 16.9606C21.8059 16.4899 21.5559 16.0622 21.1668 15.7935L20.0477 15.0312C19.4151 14.6013 18.5668 14.6809 18.0252 15.2211C17.313 15.9311 16.2218 16.0966 15.3306 15.6288C13.7021 14.8335 9.53722 11.3694 11.7732 8.97862C12.317 8.4377 12.3994 7.58655 11.9681 6.95173L11.2058 5.83262C10.9092 5.3963 10.4155 5.1356 9.88819 5.13631Z" fill="black"/>
</svg>
