<svg width="173" height="172" viewBox="0 0 173 172" fill="none" xmlns="http://www.w3.org/2000/svg">
<path d="M60.8712 161.326L57.3849 164.502L55.662 163.848L60.6297 159.506L61.9105 156.022L63.5086 156.628L62.2507 160.05L63.1777 166.701L61.4424 166.042L60.8712 161.326Z" fill="#9B9B9B" fill-opacity="0.29"/>
<path d="M45.7892 156.14C45.2408 155.791 44.8413 155.379 44.5907 154.903C44.3279 154.43 44.2159 153.916 44.2548 153.36C44.289 152.812 44.4882 152.243 44.8523 151.651L45.3004 150.924L49.3345 153.489C49.6649 152.918 49.7793 152.385 49.6777 151.888C49.5714 151.398 49.2591 150.988 48.7408 150.659C48.3426 150.406 47.9662 150.219 47.6115 150.099C47.2447 149.982 46.8493 149.894 46.4254 149.835L47.1326 148.687C47.5217 148.734 47.8989 148.826 48.2639 148.963C48.6289 149.1 49.0368 149.312 49.4876 149.599C50.081 149.976 50.5406 150.427 50.8664 150.95C51.1799 151.477 51.3234 152.059 51.297 152.696C51.263 153.328 51.0313 153.993 50.6018 154.691C50.1677 155.396 49.6872 155.913 49.1602 156.242C48.6211 156.575 48.0665 156.728 47.4964 156.703C46.9217 156.686 46.3526 156.498 45.7892 156.14ZM46.4403 155.082C46.816 155.321 47.201 155.392 47.5954 155.295C47.9777 155.2 48.3407 154.925 48.6845 154.468L46.059 152.799C45.8816 153.087 45.774 153.372 45.7363 153.654C45.6911 153.931 45.7251 154.19 45.8382 154.43C45.9466 154.679 46.1474 154.896 46.4403 155.082Z" fill="#9B9B9B" fill-opacity="0.29"/>
<path d="M33.1329 146.263C32.461 145.613 32.0923 144.971 32.0267 144.338C31.9487 143.705 32.2049 143.074 32.7952 142.443L36.1183 138.896L36.9725 139.722L36.5277 140.685L36.5661 140.723C36.8898 140.676 37.1925 140.666 37.4741 140.691C37.7433 140.716 38.0047 140.801 38.2581 140.947C38.5112 141.081 38.7818 141.287 39.0697 141.565C39.3768 141.862 39.6004 142.19 39.7404 142.549C39.874 142.901 39.8986 143.265 39.8142 143.642C39.7237 144.025 39.505 144.402 39.158 144.772C38.6468 145.318 38.0682 145.538 37.4223 145.433C36.7639 145.329 36.0226 144.903 35.1984 144.155L34.2688 143.312L34.0223 143.575C33.7059 143.913 33.5606 144.23 33.5867 144.528C33.6128 144.826 33.7698 145.114 34.0577 145.393C34.3201 145.646 34.6093 145.852 34.9255 146.009C35.2417 146.166 35.5636 146.304 35.8914 146.423L35.4719 147.652C35.0882 147.541 34.6936 147.37 34.2881 147.139C33.8763 146.901 33.4912 146.609 33.1329 146.263ZM35.6326 143.145C36.182 143.639 36.6381 143.901 37.0011 143.93C37.358 143.966 37.6673 143.844 37.929 143.564C38.1603 143.317 38.2541 143.068 38.2104 142.815C38.1667 142.562 38.0297 142.324 37.7993 142.101C37.4474 141.761 37.0555 141.574 36.6237 141.54C36.1858 141.513 35.7782 141.7 35.4009 142.103L34.9809 142.552L35.6326 143.145Z" fill="#9B9B9B" fill-opacity="0.29"/>
<path d="M22.166 133.339C22.1043 133.252 22.0358 133.148 21.9607 133.026C21.8855 132.905 21.8304 132.796 21.7954 132.7L23.1413 131.898C23.1733 131.974 23.2242 132.069 23.2942 132.183C23.3519 132.295 23.409 132.391 23.4656 132.471C23.62 132.689 23.8052 132.874 24.0211 133.024C24.2247 133.173 24.4514 133.278 24.7011 133.338C24.9385 133.396 25.1948 133.396 25.4701 133.338C25.7402 133.272 26.019 133.135 26.3064 132.924L29.3351 130.709L30.3076 132.082L24.4659 136.355L23.7172 135.298L24.5914 134.361L24.5451 134.295C24.2544 134.332 23.9646 134.323 23.6759 134.27C23.3799 134.221 23.1019 134.121 22.8418 133.97C22.5765 133.811 22.3513 133.601 22.166 133.339Z" fill="#9B9B9B" fill-opacity="0.29"/>
<path d="M19.7085 118.013C20.141 117.804 20.5586 117.73 20.9614 117.791C21.3562 117.857 21.7262 118.058 22.0715 118.395C22.413 118.724 22.722 119.183 22.9984 119.771C23.2142 120.231 23.3677 120.641 23.4588 121.002C23.55 121.364 23.5976 121.727 23.6015 122.091L22.316 122.715C22.3167 122.318 22.2764 121.898 22.195 121.452C22.1136 121.007 21.9933 120.615 21.8343 120.277C21.6374 119.858 21.4314 119.587 21.2161 119.464C21.0009 119.34 20.7852 119.331 20.5689 119.436C20.4408 119.499 20.3417 119.591 20.2716 119.714C20.2016 119.837 20.1597 120.031 20.146 120.295C20.1243 120.562 20.1257 120.953 20.1502 121.465C20.1789 121.966 20.1754 122.398 20.1397 122.762C20.1003 123.117 19.9985 123.424 19.8344 123.682C19.6585 123.935 19.3903 124.149 19.0299 124.324C18.4452 124.608 17.8949 124.588 17.3789 124.265C16.855 123.945 16.4131 123.402 16.0534 122.637C15.8641 122.234 15.7262 121.836 15.6397 121.443C15.5414 121.045 15.4912 120.624 15.489 120.18L16.8334 120.121C16.84 120.365 16.8586 120.604 16.8892 120.836C16.9079 121.065 16.9446 121.289 16.9993 121.51C17.0501 121.723 17.1228 121.93 17.2175 122.131C17.3727 122.462 17.5422 122.686 17.7258 122.805C17.9014 122.928 18.0773 122.946 18.2535 122.861C18.3897 122.795 18.4909 122.696 18.5572 122.565C18.6116 122.43 18.6417 122.232 18.6474 121.972C18.6412 121.708 18.6255 121.339 18.6002 120.867C18.5668 120.398 18.5699 119.986 18.6093 119.63C18.637 119.271 18.735 118.956 18.9033 118.686C19.0717 118.417 19.3401 118.192 19.7085 118.013Z" fill="#9B9B9B" fill-opacity="0.29"/>
<path d="M11.964 92.9877C12.5655 92.9189 13.105 92.9379 13.5826 93.0445C14.0602 93.1512 14.4792 93.3363 14.8398 93.5997C15.1906 93.8553 15.474 94.1902 15.6901 94.6046C15.8963 95.0111 16.0283 95.4754 16.0861 95.9975C16.141 96.493 16.1119 96.9578 15.9987 97.3919C15.8767 97.827 15.6736 98.2176 15.3895 98.5637C15.0956 98.902 14.7279 99.1815 14.2866 99.4022C13.8453 99.6229 13.3239 99.7677 12.7224 99.8365C11.9264 99.9275 11.239 99.8672 10.6602 99.6556C10.0726 99.4451 9.60886 99.0993 9.26899 98.6185C8.91929 98.1298 8.70525 97.5315 8.62686 96.8236C8.5524 96.1512 8.63318 95.546 8.86921 95.0083C9.09542 94.4627 9.47098 94.012 9.99588 93.6563C10.5119 93.3016 11.168 93.0787 11.964 92.9877ZM12.5328 98.1243C13.037 98.0666 13.464 97.9595 13.8139 97.803C14.154 97.6387 14.4032 97.422 14.5615 97.153C14.7189 96.8752 14.7755 96.5372 14.7314 96.139C14.6863 95.7319 14.5572 95.4152 14.344 95.1886C14.1298 94.9533 13.8395 94.7983 13.473 94.7237C13.0976 94.6502 12.6578 94.6422 12.1536 94.6999C11.6406 94.7586 11.2185 94.8696 10.8873 95.0329C10.5462 95.1884 10.3014 95.4045 10.1529 95.6814C9.99463 95.9504 9.93753 96.284 9.98162 96.6822C10.0482 97.2839 10.3002 97.6986 10.7374 97.9264C11.1737 98.1453 11.7722 98.2113 12.5328 98.1243Z" fill="#9B9B9B" fill-opacity="0.29"/>
<path d="M9.77089 80.1045L9.65682 81.8502L15.6125 82.2521L15.5028 83.9311L9.54711 83.5292L9.47136 84.6885L8.67194 84.6346L8.26804 83.4429L7.77507 83.4096C7.1533 83.3677 6.67115 83.237 6.32862 83.0176C5.98609 82.7981 5.75152 82.4968 5.6249 82.1135C5.48939 81.7296 5.43819 81.2844 5.47127 80.7781C5.49449 80.4227 5.54648 80.105 5.62723 79.8249C5.6991 79.5442 5.77666 79.313 5.85991 79.1312L7.08447 79.6422C7.03019 79.7902 6.97919 79.9563 6.93147 80.1405C6.87545 80.3151 6.84047 80.5091 6.82654 80.7223C6.80564 81.0421 6.89241 81.2844 7.08684 81.4492C7.28127 81.614 7.56057 81.7087 7.92475 81.7333L8.39108 81.7648L8.50514 80.0191L9.77089 80.1045Z" fill="#9B9B9B" fill-opacity="0.29"/>
<path d="M21.431 57.8959L19.4652 62.9487L10.6179 59.3939L12.5837 54.3411L13.9096 54.8738L12.5635 58.3336L14.8187 59.2397L16.0776 56.004L17.4035 56.5367L16.1446 59.7724L18.7467 60.818L20.0928 57.3582L21.431 57.8959Z" fill="#9B9B9B" fill-opacity="0.29"/>
<path d="M22.673 47.3598L18.4332 47.4815L19.44 45.8589L22.3397 45.8458L21.1018 43.181L22.1087 41.5584L23.8137 45.5216L28.2659 45.3617L27.259 46.9842L24.1498 47.0058L25.4705 49.8663L24.4636 51.4889L22.673 47.3598Z" fill="#9B9B9B" fill-opacity="0.29"/>
<path d="M29.9455 31.6124C30.521 30.9927 31.2126 30.7124 32.0202 30.7716C32.8213 30.8247 33.6684 31.2795 34.5615 32.1361C35.1526 32.703 35.5687 33.2687 35.8099 33.8331C36.0511 34.3974 36.1291 34.9348 36.0439 35.4451C35.9587 35.9554 35.7222 36.4193 35.3345 36.8368C35.0982 37.0912 34.857 37.2854 34.611 37.4195C34.3586 37.5474 34.1174 37.6306 33.8874 37.6689C33.6509 37.7012 33.4262 37.7077 33.2133 37.6884L33.1406 37.7667C33.2804 37.8515 33.4303 37.9583 33.5902 38.087C33.7437 38.2095 33.8847 38.3324 34.0132 38.4557L36.1334 40.4893L34.9883 41.7222L27.4519 34.4935L28.3788 33.4955L29.2363 33.9849L29.2908 33.9262C29.2339 33.6866 29.2113 33.4428 29.2228 33.1949C29.2341 32.9343 29.2952 32.6723 29.4063 32.4088C29.5234 32.1388 29.7032 31.8733 29.9455 31.6124ZM30.6014 32.9075C30.3348 33.1945 30.1775 33.4816 30.1296 33.7686C30.0753 34.0495 30.1274 34.34 30.286 34.6402C30.4446 34.9403 30.6943 35.26 31.0352 35.5993L31.1894 35.7472C31.562 36.1046 31.9102 36.3707 32.2338 36.5455C32.5635 36.7137 32.8776 36.7745 33.1761 36.7277C33.4807 36.6745 33.7753 36.4946 34.0601 36.188C34.3024 35.9271 34.4286 35.6473 34.4388 35.3486C34.4549 35.0434 34.3709 34.7285 34.1866 34.4037C34.0019 34.0662 33.7297 33.7249 33.3699 33.3798C32.8302 32.8622 32.3247 32.5562 31.8535 32.4619C31.3883 32.3611 30.9709 32.5096 30.6014 32.9075Z" fill="#9B9B9B" fill-opacity="0.29"/>
<path d="M41.3632 21.5126C41.892 21.1348 42.4207 20.9212 42.9494 20.8718C43.4802 20.8099 43.9899 20.9053 44.4785 21.1579C44.9621 21.4032 45.4013 21.8114 45.7963 22.3826L46.2825 23.0855L42.3923 25.8642C42.7815 26.3957 43.2212 26.7106 43.7114 26.809C44.1965 26.9001 44.689 26.7671 45.1888 26.4101C45.5728 26.1358 45.8879 25.856 46.1343 25.5706C46.3829 25.2727 46.6159 24.9367 46.8333 24.5626L47.6006 25.6719C47.407 26.018 47.1773 26.3352 46.9113 26.6237C46.6454 26.9121 46.2951 27.2115 45.8605 27.522C45.2882 27.9308 44.7015 28.1857 44.1004 28.2869C43.5015 28.3756 42.9183 28.2835 42.3507 28.0106C41.7905 27.7326 41.2774 27.2568 40.8115 26.5832C40.3405 25.9022 40.0578 25.2509 39.9633 24.6292C39.871 23.995 39.9467 23.4159 40.1903 22.8918C40.4289 22.3604 40.8198 21.9006 41.3632 21.5126ZM42.0696 22.534C41.7074 22.7927 41.4939 23.1257 41.4292 23.5329C41.3667 23.9276 41.4758 24.3748 41.7564 24.8744L44.2883 23.0659C44.0959 22.7877 43.8791 22.576 43.6381 22.431C43.4043 22.2807 43.1563 22.2117 42.8942 22.2239C42.627 22.2288 42.3521 22.3322 42.0696 22.534Z" fill="#9B9B9B" fill-opacity="0.29"/>
<path d="M55.9745 13.1021C56.0714 13.0573 56.1864 13.0091 56.3194 12.9575C56.4523 12.906 56.5687 12.8718 56.6685 12.8551L57.173 14.343C57.0929 14.3604 56.9905 14.393 56.8656 14.4408C56.7452 14.4768 56.6405 14.5154 56.5516 14.5564C56.3092 14.6684 56.0929 14.8173 55.903 15.0031C55.7175 15.177 55.5703 15.3822 55.4616 15.6187C55.3572 15.8434 55.3052 16.0979 55.3056 16.3821C55.314 16.6625 55.3909 16.9653 55.5362 17.2904L57.068 20.716L55.5404 21.4214L52.5859 14.8141L53.7619 14.271L54.4925 15.3161L54.5652 15.2826C54.5892 14.9871 54.6563 14.7012 54.7667 14.4247C54.8735 14.1401 55.0267 13.883 55.2264 13.6535C55.4341 13.4203 55.6835 13.2365 55.9745 13.1021Z" fill="#9B9B9B" fill-opacity="0.29"/>
<path d="M66.7219 9.42108L68.6336 16.4019L67.0145 16.8598L65.1028 9.87899L66.7219 9.42108ZM65.1752 6.95817C65.4151 6.89033 65.6426 6.89537 65.8578 6.97329C66.0706 7.04262 66.2205 7.23614 66.3075 7.55384C66.3922 7.86295 66.3633 8.11164 66.2211 8.2999C66.0764 8.47958 65.8842 8.60334 65.6443 8.67118C65.3959 8.74144 65.1641 8.73761 64.9489 8.65969C64.74 8.57076 64.5932 8.37174 64.5085 8.06262C64.4215 7.74492 64.4472 7.50174 64.5856 7.33307C64.7303 7.1534 64.9268 7.02843 65.1752 6.95817Z" fill="#9B9B9B" fill-opacity="0.29"/>
<path d="M79.0172 6.92697C79.6637 6.86051 80.2304 6.93649 80.7174 7.15491C81.2123 7.36357 81.6124 7.69831 81.9178 8.15915C82.2222 8.61113 82.4088 9.18261 82.4776 9.8736L82.5623 10.7241L77.8066 11.2129C77.8896 11.8667 78.1218 12.3574 78.5034 12.6851C78.884 13.004 79.3799 13.132 79.9909 13.0692C80.4603 13.0209 80.8721 12.9338 81.2264 12.8079C81.5887 12.6722 81.9558 12.4958 82.3278 12.2785L82.4614 13.6206C82.1239 13.8254 81.7688 13.9872 81.3959 14.1061C81.023 14.2249 80.5709 14.3117 80.0395 14.3663C79.3399 14.4382 78.7023 14.3695 78.1268 14.1602C77.5593 13.9411 77.0932 13.5729 76.7285 13.0555C76.3728 12.5372 76.1543 11.8706 76.0732 11.0555C75.9912 10.2317 76.0597 9.52656 76.2786 8.94023C76.5056 8.34413 76.8529 7.87884 77.3206 7.54438C77.7875 7.20105 78.353 6.99525 79.0172 6.92697ZM79.1402 8.16278C78.6974 8.2083 78.3489 8.3918 78.0946 8.71327C77.8483 9.02498 77.7268 9.46705 77.7301 10.0395L80.8252 9.72129C80.7917 9.38465 80.7046 9.0938 80.5639 8.84872C80.4321 8.60274 80.2484 8.42026 80.0129 8.30128C79.7765 8.17344 79.4856 8.12727 79.1402 8.16278Z" fill="#9B9B9B" fill-opacity="0.29"/>
<path d="M95.9848 6.91956C96.7907 7.00241 97.3988 7.27523 97.809 7.73803C98.2281 8.20174 98.3913 8.89868 98.2987 9.82886L97.8318 14.5196L96.158 14.3476L96.5918 9.989C96.6456 9.44861 96.5795 9.03461 96.3934 8.74699C96.2082 8.45052 95.8853 8.27861 95.4248 8.23127C94.7518 8.16208 94.2701 8.32735 93.9798 8.72708C93.6904 9.11796 93.506 9.71204 93.4266 10.5093L93.0761 14.0307L91.4023 13.8587L92.1193 6.65642L93.4078 6.78888L93.553 7.75693L93.646 7.76649C93.8301 7.53483 94.0452 7.35111 94.2913 7.21532C94.5375 7.07953 94.8057 6.99076 95.0962 6.94903C95.3875 6.89843 95.6837 6.88861 95.9848 6.91956Z" fill="#9B9B9B" fill-opacity="0.29"/>
<path d="M108.552 17.1642C107.897 16.9622 107.364 16.6627 106.953 16.2657C106.553 15.8628 106.299 15.3606 106.19 14.7589C106.093 14.1513 106.167 13.438 106.411 12.6191C106.666 11.7661 107.013 11.1184 107.452 10.6761C107.901 10.228 108.414 9.95759 108.99 9.86504C109.568 9.76395 110.181 9.81313 110.827 10.0126C111.261 10.1464 111.635 10.3084 111.95 10.4987C112.265 10.689 112.524 10.8806 112.726 11.0735L111.876 12.1946C111.643 12.0109 111.404 11.8442 111.161 11.6946C110.92 11.5365 110.676 11.4194 110.43 11.3433C110.047 11.2252 109.702 11.2121 109.396 11.304C109.099 11.3985 108.839 11.598 108.618 11.9024C108.4 12.1984 108.214 12.6023 108.061 13.1141C107.914 13.6088 107.849 14.0409 107.869 14.4103C107.897 14.7824 108.009 15.0918 108.205 15.3385C108.403 15.5766 108.686 15.7521 109.051 15.865C109.443 15.9857 109.801 16.0451 110.127 16.0431C110.453 16.0411 110.772 15.9997 111.084 15.919L110.667 17.3137C110.355 17.3944 110.036 17.4217 109.709 17.3954C109.388 17.3804 109.003 17.3033 108.552 17.1642Z" fill="#9B9B9B" fill-opacity="0.29"/>
<path d="M124.399 15.6907C124.97 15.9996 125.398 16.3824 125.682 16.8391C125.977 17.2921 126.125 17.7969 126.125 18.3535C126.129 18.9022 125.971 19.4842 125.649 20.0995L125.253 20.8568L121.046 18.5846C120.757 19.1769 120.68 19.7172 120.816 20.2057C120.957 20.6862 121.297 21.0725 121.838 21.3644C122.253 21.5887 122.642 21.7481 123.004 21.8427C123.378 21.9336 123.779 21.9933 124.206 22.0217L123.581 23.2168C123.19 23.1975 122.807 23.1323 122.433 23.0214C122.059 22.9104 121.637 22.728 121.167 22.4742C120.548 22.1399 120.058 21.7233 119.696 21.2243C119.346 20.7216 119.162 20.1517 119.144 19.5145C119.133 18.8815 119.318 18.2022 119.697 17.4764C120.081 16.7428 120.524 16.193 121.027 15.8272C121.542 15.4577 122.084 15.2653 122.655 15.2498C123.23 15.2264 123.811 15.3734 124.399 15.6907ZM123.823 16.7912C123.431 16.5796 123.042 16.5363 122.655 16.6612C122.28 16.7825 121.937 17.0829 121.626 17.5624L124.364 19.0412C124.521 18.7414 124.608 18.4496 124.626 18.1659C124.652 17.8863 124.599 17.6305 124.47 17.3986C124.344 17.1587 124.128 16.9562 123.823 16.7912Z" fill="#9B9B9B" fill-opacity="0.29"/>
<path d="M144.759 31.4036L139.614 36.4943L138.45 35.2793L143.595 30.1886L144.759 31.4036ZM146.161 28.8332C146.334 29.0132 146.437 29.2176 146.471 29.4465C146.512 29.6692 146.415 29.8964 146.181 30.128C145.953 30.3535 145.724 30.4488 145.494 30.4139C145.269 30.3729 145.071 30.2623 144.899 30.0823C144.72 29.8959 144.613 29.6882 144.579 29.4593C144.557 29.2305 144.66 29.0035 144.888 28.778C145.122 28.5464 145.345 28.451 145.557 28.4919C145.781 28.533 145.982 28.6467 146.161 28.8332Z" fill="#9B9B9B" fill-opacity="0.29"/>
<path d="M153.319 41.9422C153.773 42.6136 153.955 43.2571 153.866 43.8727C153.781 44.4957 153.356 45.0746 152.589 45.6093L148.723 48.3057L147.781 46.9112L151.374 44.4058C151.819 44.0951 152.092 43.7749 152.191 43.445C152.298 43.1101 152.222 42.7508 151.963 42.3671C151.584 41.8064 151.15 41.545 150.66 41.5828C150.177 41.6156 149.607 41.8611 148.95 42.3194L146.047 44.3436L145.106 42.9491L151.043 38.8091L151.767 39.8826L151.124 40.6241L151.177 40.7016C151.471 40.6918 151.748 40.737 152.009 40.8372C152.27 40.9374 152.51 41.0851 152.727 41.2805C152.953 41.4708 153.15 41.6913 153.319 41.9422Z" fill="#9B9B9B" fill-opacity="0.29"/>
<path d="M158.222 67.4792C158.279 67.6851 158.351 67.8774 158.438 68.0563C158.533 68.2326 158.629 68.3949 158.726 68.5431L157.52 68.89C157.395 68.7406 157.269 68.536 157.141 68.2763C157.004 68.0191 156.895 67.7404 156.811 67.4402C156.701 67.0457 156.665 66.667 156.703 66.3042C156.751 65.9476 156.911 65.6238 157.181 65.3331C157.453 65.051 157.881 64.8262 158.462 64.659L162.082 63.6185L161.82 62.6793L162.526 62.4764L163.377 63.3432L164.997 63.4335L165.279 64.4498L163.752 64.8889L164.304 66.8701L163.084 67.2206L162.533 65.2394L158.927 66.2762C158.601 66.3697 158.381 66.5256 158.267 66.7439C158.16 66.9597 158.145 67.2048 158.222 67.4792Z" fill="#9B9B9B" fill-opacity="0.29"/>
<path d="M166.889 78.2599C166.605 78.2858 166.325 78.298 166.048 78.2965C165.78 78.303 165.579 78.3035 165.445 78.2979L165.454 78.4043C165.716 78.5324 165.932 78.7004 166.102 78.9084C166.281 79.1155 166.422 79.3485 166.526 79.6072C166.63 79.8749 166.695 80.155 166.721 80.4476C166.768 80.9886 166.716 81.4627 166.565 81.8698C166.413 82.277 166.151 82.6004 165.779 82.84C165.417 83.0876 164.925 83.2397 164.305 83.2964L159.61 83.7249L159.462 82.0488L163.824 81.6507C164.374 81.6005 164.772 81.4569 165.019 81.2198C165.266 80.9826 165.37 80.6335 165.329 80.1724C165.29 79.729 165.161 79.3876 164.943 79.1482C164.734 78.908 164.439 78.7517 164.057 78.6793C163.684 78.6061 163.232 78.5937 162.7 78.6423L159.189 78.9627L159.041 77.2866L169.148 76.3642L169.296 78.0402L166.889 78.2599Z" fill="#9B9B9B" fill-opacity="0.29"/>
<path d="M166.567 94.3254L159.354 93.7301L159.488 92.0528L166.701 92.6482L166.567 94.3254ZM169.416 93.7164C169.396 93.9649 169.312 94.1768 169.164 94.3522C169.025 94.5283 168.791 94.6028 168.463 94.5757C168.144 94.5493 167.92 94.4371 167.793 94.239C167.675 94.0417 167.626 93.8188 167.646 93.5703C167.666 93.3129 167.751 93.0966 167.899 92.9212C168.055 92.7554 168.293 92.6857 168.612 92.7121C168.94 92.7392 169.159 92.8466 169.269 93.0343C169.388 93.2317 169.436 93.459 169.416 93.7164Z" fill="#9B9B9B" fill-opacity="0.29"/>
<path d="M159.07 107.483C158.603 107.365 158.234 107.152 157.961 106.845C157.697 106.539 157.537 106.145 157.481 105.663C157.423 105.189 157.471 104.636 157.625 104.005C157.746 103.512 157.884 103.097 158.04 102.76C158.196 102.423 158.386 102.113 158.612 101.83L159.997 102.18C159.748 102.485 159.516 102.835 159.3 103.23C159.084 103.625 158.931 104.005 158.843 104.368C158.732 104.817 158.722 105.159 158.811 105.393C158.901 105.627 159.062 105.773 159.295 105.832C159.433 105.867 159.568 105.86 159.699 105.81C159.83 105.761 159.984 105.639 160.16 105.445C160.344 105.253 160.588 104.951 160.89 104.541C161.181 104.137 161.454 103.807 161.71 103.55C161.963 103.302 162.234 103.132 162.522 103.039C162.817 102.958 163.159 102.966 163.547 103.065C164.177 103.224 164.591 103.595 164.787 104.177C164.992 104.761 164.994 105.464 164.793 106.286C164.687 106.718 164.545 107.114 164.365 107.472C164.192 107.842 163.967 108.198 163.691 108.542L162.614 107.718C162.762 107.526 162.897 107.331 163.019 107.132C163.147 106.944 163.26 106.747 163.356 106.542C163.45 106.346 163.523 106.139 163.576 105.923C163.663 105.568 163.672 105.286 163.605 105.076C163.546 104.868 163.421 104.741 163.231 104.693C163.084 104.655 162.944 104.666 162.811 104.724C162.684 104.793 162.537 104.926 162.37 105.122C162.209 105.329 161.991 105.623 161.714 106.003C161.446 106.385 161.186 106.701 160.933 106.949C160.686 107.208 160.413 107.387 160.114 107.485C159.815 107.584 159.467 107.583 159.07 107.483Z" fill="#9B9B9B" fill-opacity="0.29"/>
<path d="M152.917 130.783L153.827 129.289L148.774 126.111L149.649 124.674L154.702 127.852L155.306 126.859L155.984 127.286L155.787 128.534L156.205 128.797C156.733 129.129 157.096 129.473 157.296 129.83C157.496 130.187 157.562 130.565 157.496 130.965C157.437 131.37 157.276 131.789 157.012 132.222C156.827 132.526 156.634 132.784 156.433 132.994C156.239 133.209 156.064 133.377 155.906 133.499L155.066 132.465C155.182 132.36 155.304 132.237 155.432 132.096C155.562 131.968 155.683 131.812 155.794 131.63C155.96 131.356 155.996 131.1 155.902 130.862C155.807 130.623 155.605 130.407 155.296 130.213L154.901 129.964L153.991 131.458L152.917 130.783Z" fill="#9B9B9B" fill-opacity="0.29"/>
<path d="M147.033 140.945C146.602 141.432 146.135 141.759 145.631 141.925C145.127 142.104 144.609 142.125 144.077 141.988C143.551 141.857 143.032 141.558 142.519 141.089L141.888 140.513L145.057 136.933C144.559 136.501 144.06 136.293 143.56 136.307C143.067 136.326 142.617 136.566 142.21 137.026C141.897 137.38 141.653 137.723 141.477 138.056C141.301 138.402 141.149 138.782 141.021 139.196L140.026 138.286C140.137 137.905 140.29 137.544 140.484 137.203C140.679 136.863 140.953 136.492 141.307 136.092C141.773 135.566 142.288 135.186 142.851 134.953C143.414 134.732 144.003 134.691 144.617 134.83C145.225 134.976 145.831 135.325 146.436 135.878C147.047 136.436 147.468 137.008 147.699 137.593C147.931 138.191 147.987 138.773 147.867 139.338C147.753 139.91 147.475 140.445 147.033 140.945ZM146.116 140.108C146.411 139.774 146.544 139.402 146.516 138.99C146.489 138.591 146.283 138.18 145.898 137.755L143.835 140.085C144.085 140.314 144.344 140.472 144.611 140.559C144.872 140.653 145.129 140.665 145.382 140.594C145.641 140.53 145.886 140.368 146.116 140.108Z" fill="#9B9B9B" fill-opacity="0.29"/>
<path d="M136.316 150.998L131.879 145.279L133.192 144.227L137.629 149.945L136.316 150.998ZM138.684 152.677C138.489 152.832 138.278 152.916 138.05 152.927C137.828 152.946 137.616 152.825 137.414 152.565C137.217 152.312 137.148 152.07 137.207 151.841C137.271 151.618 137.4 151.429 137.595 151.273C137.796 151.112 138.011 151.025 138.239 151.014C138.465 151.015 138.676 151.142 138.873 151.396C139.075 151.656 139.144 151.891 139.082 152.101C139.018 152.323 138.885 152.515 138.684 152.677Z" fill="#9B9B9B" fill-opacity="0.29"/>
<path d="M123.52 151.013L124.967 150.155L130.02 158.957L128.573 159.815L123.52 151.013Z" fill="#9B9B9B" fill-opacity="0.29"/>
<path d="M113.776 155.651C114.558 155.354 115.303 155.405 116.009 155.803C116.709 156.213 117.273 156.999 117.7 158.161C118.127 159.322 118.204 160.293 117.931 161.072C117.661 161.861 117.127 162.406 116.328 162.71C115.995 162.836 115.687 162.901 115.403 162.903C115.115 162.918 114.851 162.885 114.613 162.804C114.374 162.723 114.159 162.614 113.966 162.478L113.891 162.506C113.959 162.614 114.05 162.784 114.164 163.017C114.279 163.249 114.374 163.47 114.451 163.679L115.326 166.061L113.753 166.658L110.251 157.132L111.475 156.668L112.089 157.449L112.152 157.425C112.209 157.194 112.3 156.964 112.425 156.736C112.552 156.516 112.724 156.312 112.94 156.126C113.156 155.939 113.435 155.781 113.776 155.651ZM113.772 157.11C113.189 157.331 112.838 157.655 112.72 158.08C112.601 158.506 112.666 159.058 112.915 159.734L112.989 159.935C113.259 160.67 113.582 161.186 113.956 161.482C114.322 161.781 114.817 161.812 115.441 161.575C115.916 161.395 116.208 161.055 116.319 160.556C116.432 160.066 116.357 159.461 116.093 158.742C115.829 158.024 115.499 157.525 115.102 157.247C114.706 156.969 114.263 156.923 113.772 157.11Z" fill="#9B9B9B" fill-opacity="0.29"/>
</svg>
