<svg width="56" height="55" viewBox="0 0 56 55" fill="none" xmlns="http://www.w3.org/2000/svg">
<path d="M17.1713 0.530847H38.1491C47.253 0.530847 54.6332 7.91105 54.6332 17.015V37.9928C54.6332 47.0968 47.253 54.477 38.1491 54.477H17.1713C8.0673 54.477 0.687097 47.0968 0.687097 37.9928V17.015C0.687097 7.91105 8.0673 0.530847 17.1713 0.530847Z" fill="#FFF8E8" stroke="#EFEEEE" stroke-width="1.04607"/>
<path d="M24.2505 37.6046L7.20065 35.3398L6.17969 31.7131L19.5547 20.9166L20.7556 25.1846L11.2772 32.1849L23.0612 33.3774L24.2505 37.6046ZM26.4682 40.0869L25.5707 15.8254L28.7675 14.9258L29.6033 39.2051L26.4682 40.0869ZM35.7615 34.3816L34.569 30.1429L44.0286 23.0182L32.254 21.9167L31.0699 17.7094L48.1281 19.9427L49.1397 23.5391L35.7615 34.3816Z" fill="#FFAD00"/>
</svg>
