<svg width="20" height="20" viewBox="0 0 20 20" fill="none" xmlns="http://www.w3.org/2000/svg">
<path fill-rule="evenodd" clip-rule="evenodd" d="M10.7078 2.01017C12.754 2.11073 14.6607 2.95454 16.1171 4.41182C17.6705 5.96619 18.5255 8.03236 18.5246 10.2296C18.5228 14.7639 14.8315 18.4532 10.2969 18.4532C8.59171 18.4532 7.23664 17.9293 6.36167 17.4523L2 18.5959L3.16728 14.3344C2.44727 13.0872 2.0684 11.6726 2.06899 10.2231C2.07081 5.68894 5.76178 2 10.2968 2L10.7078 2.01017ZM6.56373 15.9635L6.81349 16.1116C7.86346 16.7344 9.067 17.0639 10.2941 17.0644H10.2969C14.0662 17.0644 17.1339 13.9981 17.1354 10.2292C17.1361 8.40282 16.4255 6.6855 15.1344 5.39354C13.8432 4.1015 12.1262 3.38956 10.2996 3.38896C6.52748 3.38896 3.45967 6.45497 3.45817 10.2236C3.45765 11.5152 3.81918 12.773 4.50374 13.8612L4.66634 14.1198L3.97549 16.6421L6.56373 15.9635ZM14.442 12.1852C14.3906 12.0994 14.2536 12.048 14.048 11.9452C13.8424 11.8423 12.8317 11.3452 12.6432 11.2766C12.4548 11.2081 12.3177 11.1739 12.1807 11.3795C12.0436 11.5852 11.6497 12.048 11.5297 12.1852C11.4098 12.3223 11.2899 12.3395 11.0843 12.2366C10.8787 12.1338 10.2163 11.9168 9.43106 11.2167C8.81989 10.6719 8.4073 9.999 8.28737 9.79328C8.16748 9.5876 8.27458 9.47635 8.37749 9.37393C8.47 9.28183 8.58312 9.13391 8.68591 9.01392C8.7887 8.89397 8.82294 8.8082 8.89149 8.67112C8.96001 8.53396 8.92573 8.41401 8.87436 8.31115C8.82294 8.20825 8.41181 7.19683 8.2405 6.78539C8.07359 6.38475 7.9041 6.43899 7.77792 6.43266C7.65815 6.42672 7.52096 6.42542 7.38393 6.42542C7.24686 6.42542 7.02414 6.47681 6.83569 6.68257C6.64725 6.88825 6.11615 7.38542 6.11615 8.39676C6.11615 9.40823 6.85283 10.3852 6.95563 10.5224C7.05842 10.6596 8.40528 12.735 10.4676 13.6251C10.9581 13.8369 11.341 13.9632 11.6396 14.058C12.1321 14.2143 12.5802 14.1923 12.9345 14.1394C13.3294 14.0804 14.1508 13.6423 14.3221 13.1624C14.4934 12.6823 14.4934 12.2709 14.442 12.1852Z" fill="white"/>
<mask id="mask0_7792_5783" style="mask-type:alpha" maskUnits="userSpaceOnUse" x="3" y="3" width="15" height="15">
<path fill-rule="evenodd" clip-rule="evenodd" d="M6.56651 15.9632L6.81626 16.1113C7.86623 16.7341 9.06977 17.0636 10.2969 17.0641H10.2997C14.0689 17.0641 17.1367 13.9978 17.1382 10.2289C17.1389 8.40253 16.4283 6.68521 15.1371 5.39325C13.846 4.10121 12.129 3.38927 10.3024 3.38867C6.53025 3.38867 3.46244 6.45468 3.46094 10.2233C3.46042 11.5149 3.82196 12.7727 4.50651 13.8609L4.66911 14.1195L3.97826 16.6418L6.56651 15.9632ZM14.4448 12.1849C14.3934 12.0991 14.2563 12.0478 14.0508 11.9449C13.8452 11.842 12.8344 11.3449 12.646 11.2763C12.4576 11.2078 12.3205 11.1736 12.1835 11.3792C12.0464 11.5849 11.6524 12.0478 11.5325 12.1849C11.4126 12.322 11.2926 12.3392 11.0871 12.2363C10.8815 12.1335 10.2191 11.9165 9.43384 11.2164C8.82267 10.6716 8.41007 9.99871 8.29014 9.79299C8.17025 9.58731 8.27736 9.47606 8.38027 9.37364C8.47277 9.28154 8.58589 9.13362 8.68868 9.01363C8.79147 8.89368 8.82571 8.80791 8.89427 8.67083C8.96278 8.53367 8.92851 8.41372 8.87713 8.31086C8.82571 8.20796 8.41458 7.19654 8.24328 6.7851C8.07636 6.38446 7.90688 6.4387 7.78069 6.43237C7.66092 6.42643 7.52373 6.42513 7.3867 6.42513C7.24963 6.42513 7.02691 6.47652 6.83847 6.68228C6.65002 6.88796 6.11892 7.38513 6.11892 8.39647C6.11892 9.40794 6.85561 10.3849 6.9584 10.5221C7.06119 10.6593 8.40805 12.7347 10.4703 13.6248C10.9608 13.8366 11.3438 13.963 11.6423 14.0577C12.1348 14.2141 12.583 14.192 12.9372 14.1391C13.3322 14.0801 14.1536 13.642 14.3249 13.1621C14.4962 12.682 14.4962 12.2706 14.4448 12.1849Z" fill="black"/>
</mask>
<g mask="url(#mask0_7792_5783)">
<path d="M21.6016 -1.16504H-1.51562V21.9522H21.6016V-1.16504Z" fill="url(#paint0_linear_7792_5783)"/>
</g>
<defs>
<linearGradient id="paint0_linear_7792_5783" x1="10.043" y1="21.9522" x2="10.043" y2="-1.16504" gradientUnits="userSpaceOnUse">
<stop stop-color="#25CF43"/>
<stop offset="1" stop-color="#61FD7D"/>
</linearGradient>
</defs>
</svg>
