<svg width="51" height="41" viewBox="0 0 51 41" fill="none" xmlns="http://www.w3.org/2000/svg">
<path d="M11.3648 19.9237H8.19246C8.21529 19.6904 8.20007 19.4801 8.14682 19.2928C8.09357 19.1055 8.00228 18.9445 7.87295 18.8098C7.74363 18.6718 7.57436 18.5666 7.36516 18.4943C7.15595 18.4221 6.90681 18.3859 6.61773 18.3859C6.06239 18.3859 5.56601 18.5058 5.12858 18.7457C4.69115 18.9823 4.3279 19.3224 4.03882 19.766C3.74974 20.2063 3.54434 20.7321 3.42262 21.3433C3.31612 21.9347 3.31231 22.426 3.41121 22.817C3.51391 23.208 3.7136 23.5005 4.01029 23.6944C4.31078 23.8882 4.70066 23.9852 5.17993 23.9852C5.49944 23.9852 5.79233 23.9523 6.05859 23.8866C6.32865 23.8209 6.56828 23.7272 6.77749 23.6056C6.99049 23.4808 7.17117 23.3329 7.31951 23.162C7.47166 22.9879 7.58768 22.7957 7.66755 22.5854H10.8627C10.7409 23.0125 10.5241 23.4496 10.2122 23.8964C9.90033 24.34 9.49713 24.7491 9.00265 25.1237C8.50817 25.4951 7.9262 25.7957 7.25675 26.0257C6.5873 26.2558 5.83417 26.3708 4.99735 26.3708C3.90189 26.3708 2.95666 26.1637 2.16169 25.7497C1.37052 25.3357 0.79616 24.7311 0.438612 23.9359C0.0848677 23.1407 0.0144992 22.1713 0.227507 21.0278C0.440514 19.9237 0.860823 18.9987 1.48843 18.2528C2.11605 17.5069 2.87869 16.945 3.77636 16.5671C4.67404 16.1893 5.62877 16.0003 6.64055 16.0003C7.4051 16.0003 8.08976 16.0874 8.69455 16.2615C9.30315 16.4357 9.81474 16.6904 10.2293 17.0255C10.6478 17.3574 10.9559 17.7665 11.1536 18.2528C11.3514 18.7391 11.4218 19.2961 11.3648 19.9237Z" fill="white"/>
<path d="M13.5457 16.1383H17.4939L19.1143 21.8559H19.2513L23.0626 16.1383H27.0108L25.0709 26.2328H21.9671L23.0854 20.3969H22.9941L19.2969 26.1539H17.4255L15.942 20.3575H15.8507L14.7096 26.2328H11.6058L13.5457 16.1383Z" fill="white"/>
<path d="M28.5142 16.1383H32.4625L34.0829 21.8559H34.2198L38.0311 16.1383H41.9793L40.0395 26.2328H36.9356L38.0539 20.3969H37.9626L34.2654 26.1539H32.394L30.9106 20.3575H30.8193L29.6782 26.2328H26.5743L28.5142 16.1383Z" fill="white"/>
<path d="M46.655 16.1383L44.7152 26.2328H41.5429L43.4828 16.1383H46.655Z" fill="white"/>
<path d="M47.6669 12.7006C47.6669 14.0023 46.5343 15.0575 45.1372 15.0575C43.74 15.0575 42.6074 14.0023 42.6074 12.7006C42.6074 11.3989 43.74 10.3437 45.1372 10.3437C46.5343 10.3437 47.6669 11.3989 47.6669 12.7006Z" fill="white"/>
<path d="M9.21457 14.432C17.3098 7.51837 35.9289 -3.00921 45.6431 10.1895C42.7761 2.33299 31.4765 -7.81769 9.21457 14.432Z" fill="white"/>
<path d="M39.5717 29.1991C31.5973 35.5152 15.7481 42.5497 6.17885 30.4916C9.00312 37.6691 17.6421 49.5259 39.5717 29.1991Z" fill="white"/>
<path d="M34.8193 27.3135L34.2338 31.0302H33.5003L34.0858 27.3135H34.8193Z" fill="white"/>
<path d="M36.02 31.0846C35.7491 31.0846 35.5246 31.0265 35.3467 30.9104C35.1687 30.793 35.0436 30.6273 34.9713 30.4131C34.9001 30.1978 34.8881 29.9431 34.9351 29.6491C34.9811 29.3624 35.0735 29.1108 35.2124 28.8942C35.3524 28.6776 35.5281 28.5089 35.7393 28.3879C35.9505 28.2669 36.1859 28.2064 36.4453 28.2064C36.6198 28.2064 36.7777 28.236 36.9189 28.2953C37.0612 28.3534 37.1795 28.4417 37.2736 28.5603C37.3677 28.6776 37.432 28.8246 37.4665 29.0013C37.502 29.1779 37.5015 29.3848 37.4647 29.6219L37.432 29.8342H35.2003L35.2709 29.3551H36.8138C36.831 29.2438 36.8242 29.1452 36.7932 29.0593C36.7622 28.9734 36.7105 28.9063 36.6382 28.8579C36.5659 28.8083 36.4769 28.7835 36.3713 28.7835C36.2634 28.7835 36.1623 28.8113 36.0682 28.867C35.9741 28.9226 35.8949 28.9958 35.8306 29.0866C35.7674 29.1761 35.7267 29.2735 35.7083 29.3787L35.6274 29.8542C35.6044 30.0006 35.609 30.1222 35.6411 30.219C35.6744 30.3158 35.7318 30.3883 35.8133 30.4367C35.8949 30.4839 35.9982 30.5075 36.1233 30.5075C36.2048 30.5075 36.2812 30.4954 36.3523 30.4712C36.4247 30.447 36.4889 30.4113 36.5452 30.3641C36.6014 30.3158 36.6474 30.2559 36.683 30.1845L37.3528 30.2317C37.2908 30.4035 37.1967 30.5535 37.0704 30.6817C36.9441 30.8088 36.792 30.908 36.6141 30.9794C36.4373 31.0495 36.2393 31.0846 36.02 31.0846Z" fill="white"/>
<path d="M40.56 28.2427L39.1945 31.0302H38.3679L37.884 28.2427H38.6314L38.8656 30.2371H38.8931L39.7558 28.2427H40.56Z" fill="white"/>
<path d="M41.6078 31.0846C41.3369 31.0846 41.1125 31.0265 40.9345 30.9104C40.7566 30.793 40.6315 30.6273 40.5592 30.4131C40.488 30.1978 40.4759 29.9431 40.523 29.6491C40.5689 29.3624 40.6613 29.1108 40.8002 28.8942C40.9403 28.6776 41.1159 28.5089 41.3272 28.3879C41.5384 28.2669 41.7737 28.2064 42.0332 28.2064C42.2077 28.2064 42.3655 28.236 42.5067 28.2953C42.6491 28.3534 42.7673 28.4417 42.8615 28.5603C42.9556 28.6776 43.0199 28.8246 43.0543 29.0013C43.0899 29.1779 43.0893 29.3848 43.0526 29.6219L43.0199 29.8342H40.7882L40.8588 29.3551H42.4017C42.4189 29.2438 42.412 29.1452 42.381 29.0593C42.35 28.9734 42.2984 28.9063 42.226 28.8579C42.1537 28.8083 42.0648 28.7835 41.9591 28.7835C41.8512 28.7835 41.7502 28.8113 41.6561 28.867C41.5619 28.9226 41.4827 28.9958 41.4184 29.0866C41.3553 29.1761 41.3145 29.2735 41.2962 29.3787L41.2152 29.8542C41.1923 30.0006 41.1969 30.1222 41.229 30.219C41.2623 30.3158 41.3197 30.3883 41.4012 30.4367C41.4827 30.4839 41.586 30.5075 41.7112 30.5075C41.7927 30.5075 41.869 30.4954 41.9402 30.4712C42.0125 30.447 42.0768 30.4113 42.1331 30.3641C42.1893 30.3158 42.2352 30.2559 42.2708 30.1845L42.9407 30.2317C42.8787 30.4035 42.7845 30.5535 42.6583 30.6817C42.532 30.8088 42.3799 30.908 42.2019 30.9794C42.0251 31.0495 41.8271 31.0846 41.6078 31.0846Z" fill="white"/>
<path d="M44.6312 27.3135L44.0458 31.0302H43.3122L43.8977 27.3135H44.6312Z" fill="white"/>
<path d="M48.1428 30.1418C47.6581 30.1418 47.2275 30.0551 46.8509 29.8815C46.4764 29.7059 46.1819 29.4643 45.9676 29.157C45.7533 28.8496 45.6451 28.4962 45.6431 28.0968H47.3256C47.3276 28.2202 47.3637 28.331 47.4338 28.4293C47.5059 28.5255 47.604 28.6007 47.7282 28.6551C47.8524 28.7095 47.9946 28.7366 48.1548 28.7366C48.3091 28.7366 48.4453 28.7084 48.5634 28.652C48.6816 28.5934 48.7737 28.5129 48.8398 28.4104C48.9059 28.308 48.938 28.1909 48.936 28.0591C48.938 27.9295 48.8999 27.8145 48.8218 27.7141C48.7457 27.6137 48.6385 27.5353 48.5003 27.4789C48.3621 27.4224 48.2029 27.3942 48.0226 27.3942H47.3977V26.1897H48.0226C48.1889 26.1897 48.3351 26.1615 48.4613 26.1051C48.5895 26.0486 48.6886 25.9702 48.7587 25.8698C48.8308 25.7694 48.8659 25.6544 48.8639 25.5248C48.8659 25.3993 48.8368 25.2885 48.7767 25.1923C48.7167 25.0961 48.6325 25.0208 48.5244 24.9665C48.4182 24.9121 48.295 24.8849 48.1548 24.8849C48.0026 24.8849 47.8664 24.9131 47.7462 24.9696C47.6281 25.0261 47.5349 25.1045 47.4668 25.2048C47.3987 25.3052 47.3637 25.4202 47.3617 25.5499H45.7633C45.7653 25.1568 45.8685 24.8096 46.0728 24.5085C46.2791 24.2074 46.5615 23.9711 46.92 23.7997C47.2785 23.6282 47.6901 23.5425 48.1548 23.5425C48.6095 23.5425 49.0111 23.623 49.3596 23.784C49.7101 23.945 49.9835 24.1666 50.1798 24.4489C50.3781 24.7291 50.4762 25.0501 50.4742 25.4119C50.4782 25.7715 50.3601 26.0664 50.1197 26.2964C49.8814 26.5264 49.5789 26.6623 49.2124 26.7041V26.7543C49.7091 26.8108 50.0827 26.9697 50.333 27.2311C50.5834 27.4904 50.7066 27.8166 50.7026 28.2097C50.7046 28.5861 50.5964 28.9196 50.3781 29.2103C50.1618 29.5009 49.8603 29.7289 49.4738 29.894C49.0892 30.0592 48.6456 30.1418 48.1428 30.1418Z" fill="white"/>
</svg>
