<svg width="33" height="32" viewBox="0 0 33 32" fill="none" xmlns="http://www.w3.org/2000/svg">
<path d="M7.41306 10.1906V7.35504H0V10.1906H1.70073V16.2561H0V19.0917H7.41306V16.2561H5.71233V10.1906H7.41306Z" fill="white"/>
<path d="M15.5962 11.8584C15.138 11.7253 12.7805 11.0517 12.3723 10.9186C11.964 10.7855 11.6308 10.5942 11.6308 10.353C11.6308 10.1118 12.0057 9.85399 12.7638 9.85399C15.1547 9.85399 16.3033 11.3261 16.3033 11.3261C16.3033 11.3261 16.4327 11.4982 16.4761 11.56H18.7828V7.54363H16.3065V8.27434C16.1173 8.14393 14.721 7.2341 12.5555 7.2341C9.6981 7.2341 8.10693 8.71455 8.10693 10.9269C8.10693 13.1392 10.1146 14.0541 10.6728 14.287C11.2309 14.5199 13.4136 15.1354 14.3466 15.4264C15.2797 15.7175 15.6212 15.9255 15.6212 16.0752C15.6212 16.2249 15.213 16.6158 14.0467 16.6158C12.0152 16.6158 10.969 15.4197 10.7854 15.1881V15.1863C10.727 15.1082 10.6585 15.0158 10.6352 14.981C10.6083 14.9407 10.5458 14.8514 10.5025 14.7896H8.19577V19.0787H10.7854V18.183C11.0867 18.3832 12.629 19.3438 14.4799 19.3438C16.5459 19.3438 19.1784 18.4456 19.1784 15.6427C19.1784 12.8398 16.0544 11.9915 15.5962 11.8584Z" fill="white"/>
<path d="M25.7551 7.19455C22.311 7.19455 19.4863 8.91373 19.4863 13.3023C19.4863 17.6909 22.5528 19.3347 25.7702 19.3347C28.9877 19.3347 32.0239 17.7059 32.0239 13.3476C32.0239 8.98931 28.9878 7.19455 25.7551 7.19455ZM25.7854 16.409C24.6071 16.409 23.8518 16.1375 23.8518 13.2873C23.8518 10.437 24.4108 10.1353 25.8307 10.1353C26.6917 10.1353 27.734 10.1956 27.734 13.1968C27.734 16.1979 26.9637 16.409 25.7854 16.409Z" fill="white"/>
<path d="M4.93033 6.0607C5.70456 4.91933 6.65666 3.90757 7.74811 3.06734C8.18944 3.39311 8.65856 3.6886 9.15174 3.95195C8.32546 4.87149 7.58516 5.89023 7.46254 6.0607H7.95831C8.25588 5.66028 8.87142 4.85479 9.52049 4.14065C10.2299 4.48883 10.9839 4.77361 11.7706 4.99052C11.5612 5.43406 11.4029 5.8219 11.31 6.0607H11.7407C11.8397 5.81478 11.9847 5.47178 12.1657 5.09279C13.1692 5.33758 14.2207 5.47478 15.2965 5.49567V6.06077H15.6963V5.4976C16.7642 5.48981 17.8099 5.36832 18.81 5.14003C18.9804 5.50006 19.1177 5.82509 19.2125 6.0607H19.6432C19.5539 5.83135 19.4045 5.46473 19.2072 5.04295C20.0079 4.83496 20.7763 4.55763 21.4999 4.2149C22.1241 4.91008 22.7077 5.67419 22.995 6.0607H23.4907C23.3718 5.89549 22.6699 4.92917 21.8722 4.03099C22.4206 3.74801 22.9406 3.42604 23.4266 3.06734C24.5181 3.90757 25.4703 4.91933 26.2444 6.0607H26.7254C24.3603 2.41641 20.2513 6.10352e-05 15.5873 6.10352e-05C10.9233 6.10352e-05 6.81434 2.41641 4.44922 6.0607H4.93033ZM11.949 4.62543C11.2007 4.42363 10.4827 4.15908 9.80586 3.83544C9.89783 3.74003 9.98974 3.64761 10.0806 3.56011C11.0074 2.66779 12.5319 1.68797 12.866 1.47704C13.1372 1.62575 13.4331 1.75151 13.7479 1.85131C13.5034 2.17136 13.0234 2.82102 12.5007 3.64508C12.2973 3.96579 12.1119 4.30286 11.949 4.62543ZM15.2965 5.09631C14.2837 5.07609 13.2935 4.9502 12.347 4.7261C12.495 4.4372 12.6602 4.13991 12.8386 3.85873C13.4408 2.90945 13.9841 2.19671 14.1651 1.96483C14.5262 2.04953 14.9058 2.10309 15.2965 2.12059V5.09631ZM15.6963 5.09831V2.12511C16.0817 2.11859 16.4588 2.07787 16.8197 2.00541C17.0266 2.27256 17.5443 2.95948 18.1147 3.85873C18.3024 4.15462 18.4755 4.46827 18.6293 4.77135C17.6862 4.97961 16.7017 5.09086 15.6963 5.09831ZM19.0302 4.6768C18.8611 4.33879 18.6667 3.98282 18.4525 3.64508C17.9568 2.86354 17.4993 2.23876 17.2449 1.90328C17.5797 1.8094 17.8957 1.68737 18.1859 1.53972C18.655 1.83994 20.0175 2.73685 20.8726 3.56011C20.9861 3.66943 21.1012 3.7862 21.2161 3.9073C20.5251 4.22581 19.7926 4.48364 19.0302 4.6768ZM23.0918 2.81776C22.6227 3.15584 22.1214 3.45871 21.5937 3.72499C21.4462 3.56703 21.2974 3.41446 21.1502 3.27274C20.3504 2.50271 19.1595 1.69489 18.576 1.31556C18.7742 1.18728 18.9555 1.04542 19.1171 0.890989C20.5614 1.30298 21.9022 1.96177 23.0918 2.81776ZM15.5874 0.399282C16.6434 0.399282 17.6696 0.527897 18.6523 0.768628C17.9066 1.37338 16.7891 1.72816 15.5874 1.72816C14.3803 1.72816 13.2659 1.37451 12.5211 0.76896C13.5042 0.528031 14.5309 0.399282 15.5874 0.399282ZM12.0576 0.890989C12.1891 1.01688 12.3331 1.13465 12.4891 1.24323C11.9605 1.58284 10.6585 2.44921 9.80306 3.27267C9.6799 3.39124 9.55574 3.51753 9.43205 3.64807C8.95893 3.40076 8.50774 3.12376 8.08314 2.81776C9.2725 1.96177 10.6133 1.30305 12.0576 0.890989Z" fill="white"/>
<path d="M26.2447 20.4217C25.487 21.539 24.5586 22.532 23.4961 23.3616C22.99 22.9817 22.4469 22.6421 21.8724 22.3454C22.5644 21.5662 23.1844 20.7357 23.414 20.4217H22.916C22.609 20.8309 22.0716 21.5251 21.5001 22.1617C20.7765 21.8188 20.0082 21.5413 19.2073 21.3334C19.3766 20.9713 19.5104 20.6505 19.6014 20.4217H19.1694C19.0779 20.6448 18.9561 20.9277 18.8098 21.2367C17.8104 21.0087 16.7648 20.8873 15.6961 20.8796V20.4217H15.2962V20.8814C14.2196 20.9022 13.1681 21.0393 12.1652 21.2837C12.009 20.9566 11.8795 20.656 11.7833 20.4217H11.3512C11.4466 20.6615 11.589 21.0025 11.77 21.3859C10.9831 21.6028 10.2289 21.8872 9.51948 22.2356C8.9234 21.5796 8.35578 20.8468 8.03675 20.4217H7.53878C7.7759 20.746 8.43083 21.6231 9.1514 22.4249C8.63243 22.7023 8.13965 23.015 7.67813 23.3615C6.61553 22.5319 5.68716 21.539 4.92947 20.4216H4.44922C6.8144 24.0659 10.9232 26.4822 15.5872 26.4822C20.251 26.4822 24.3599 24.066 26.7251 20.4216H26.2447V20.4217ZM19.0301 21.6997C19.7928 21.8928 20.5252 22.1506 21.2163 22.4692C21.1012 22.5904 20.9861 22.7074 20.8724 22.8169C20.0199 23.6375 18.6617 24.5324 18.1891 24.835C17.8989 24.6867 17.5825 24.5647 17.2466 24.4708C17.5015 24.1348 17.9577 23.5112 18.4521 22.7318C18.6665 22.394 18.8609 22.0378 19.0301 21.6997ZM15.696 21.2787C16.7021 21.2862 17.6866 21.3971 18.6292 21.6051C18.4753 21.9084 18.3022 22.2221 18.1143 22.5182C17.5447 23.4162 17.0278 24.1024 16.8203 24.3704C16.4604 24.2988 16.0833 24.2584 15.6959 24.252V21.2787H15.696ZM15.2961 21.2807V24.2561C14.904 24.2735 14.524 24.3264 14.1633 24.4105C13.9811 24.1769 13.4395 23.4661 12.8382 22.5182C12.6597 22.2369 12.4944 21.9394 12.3463 21.6502C13.2923 21.4264 14.2825 21.3009 15.2961 21.2807ZM11.9484 21.7512C12.1115 22.074 12.2969 22.4111 12.5004 22.7319C13.0227 23.5553 13.5024 24.2046 13.747 24.5249C13.4318 24.6246 13.1362 24.7505 12.8652 24.8996C12.5297 24.6877 11.0066 23.7087 10.0803 22.8169C9.98933 22.7294 9.89743 22.6368 9.80533 22.5413C10.482 22.2176 11.2 21.9529 11.9484 21.7512ZM8.01036 23.6118C8.45602 23.2847 8.9312 22.9899 9.43111 22.7284C9.55494 22.8591 9.67937 22.9856 9.80266 23.1043C10.6579 23.9276 11.9595 24.7937 12.4883 25.1335C12.2999 25.2651 12.1282 25.4099 11.9756 25.5671C10.5332 25.1451 9.19532 24.4771 8.01036 23.6118ZM15.5871 26.0831C14.4966 26.0831 13.4374 25.9464 12.4256 25.6901C13.1645 25.0419 14.3377 24.6489 15.5871 24.6489C16.835 24.6489 18.0093 25.0422 18.7482 25.6902C17.7365 25.9464 16.6775 26.0831 15.5871 26.0831ZM19.1984 25.5671C19.0169 25.3805 18.8096 25.2103 18.5783 25.0597C19.1628 24.6797 20.3513 23.8731 21.1499 23.1042C21.2972 22.9624 21.4459 22.8098 21.5935 22.6517C22.1482 22.9318 22.6739 23.2523 23.1638 23.6118C21.9787 24.4772 20.6408 25.1452 19.1984 25.5671Z" fill="white"/>
<path d="M0.767638 30.7165C0.785432 31.0468 0.913058 31.2751 1.15065 31.4014C1.27274 31.4679 1.41037 31.5011 1.56359 31.5011C1.84996 31.5011 2.09415 31.382 2.29622 31.1438C2.49822 30.9055 2.64145 30.4217 2.72582 29.6925C2.59259 29.903 2.42778 30.051 2.23131 30.1363C2.03484 30.2217 1.82337 30.2643 1.59691 30.2643C1.13732 30.2643 0.773769 30.1216 0.506254 29.836C0.238672 29.5503 0.10498 29.1828 0.10498 28.7333C0.10498 28.3016 0.237072 27.9218 0.501255 27.5941C0.765439 27.2664 1.15512 27.1025 1.67015 27.1025C2.365 27.1025 2.84458 27.4148 3.10877 28.0395C3.25532 28.3828 3.32856 28.8125 3.32856 29.3286C3.32856 29.9112 3.24086 30.4272 3.06551 30.8769C2.7746 31.6256 2.28176 31.9999 1.58691 31.9999C1.12066 31.9999 0.766505 31.878 0.524581 31.6342C0.282591 31.3904 0.161563 31.0845 0.161563 30.7166H0.767638V30.7165ZM2.32788 29.505C2.52435 29.349 2.62259 29.0763 2.62259 28.6868C2.62259 28.3371 2.53435 28.0765 2.3578 27.905C2.18132 27.7335 1.95653 27.6478 1.68348 27.6478C1.39044 27.6478 1.15785 27.7457 0.985769 27.9415C0.81369 28.1374 0.72765 28.3991 0.72765 28.7266C0.72765 29.0364 0.803093 29.2827 0.954112 29.4652C1.10506 29.6478 1.34592 29.739 1.67675 29.739C1.91434 29.739 2.13141 29.661 2.32788 29.505Z" fill="white"/>
<path d="M6.8382 27.8701C7.05134 28.2624 7.1579 28.7999 7.1579 29.4826C7.1579 30.1298 7.06133 30.665 6.86819 31.0885C6.58848 31.6958 6.13103 31.9994 5.49616 31.9994C4.92334 31.9994 4.49708 31.7512 4.21737 31.2547C3.98424 30.8402 3.86768 30.2838 3.86768 29.5857C3.86768 29.0449 3.93765 28.5805 4.07748 28.1925C4.33939 27.47 4.81344 27.1087 5.49943 27.1087C6.11663 27.1087 6.56289 27.3625 6.8382 27.8701ZM6.23499 31.0418C6.41954 30.767 6.51184 30.255 6.51184 29.5058C6.51184 28.965 6.44506 28.52 6.3117 28.171C6.17828 27.8218 5.91916 27.6473 5.53448 27.6473C5.18086 27.6473 4.92234 27.813 4.75893 28.1444C4.59545 28.4758 4.51374 28.9639 4.51374 29.609C4.51374 30.0943 4.56599 30.4845 4.67049 30.7793C4.83057 31.2293 5.10415 31.4542 5.49103 31.4542C5.8024 31.4542 6.05032 31.3167 6.23499 31.0418Z" fill="white"/>
<path d="M10.6361 27.8701C10.8492 28.2624 10.9558 28.7999 10.9558 29.4826C10.9558 30.1298 10.8592 30.665 10.666 31.0885C10.3863 31.6958 9.92888 31.9994 9.29401 31.9994C8.72119 31.9994 8.29493 31.7512 8.01522 31.2547C7.78209 30.8402 7.66553 30.2838 7.66553 29.5857C7.66553 29.0449 7.73551 28.5805 7.87533 28.1925C8.13725 27.47 8.6113 27.1087 9.29728 27.1087C9.91455 27.1087 10.3607 27.3625 10.6361 27.8701ZM10.0328 31.0418C10.2174 30.767 10.3097 30.255 10.3097 29.5058C10.3097 28.965 10.2429 28.52 10.1096 28.171C9.97613 27.8218 9.71701 27.6473 9.33233 27.6473C8.97871 27.6473 8.72019 27.813 8.55678 28.1444C8.3933 28.4758 8.31159 28.9639 8.31159 29.609C8.31159 30.0943 8.36384 30.4845 8.46834 30.7793C8.62842 31.2293 8.902 31.4542 9.28888 31.4542C9.60025 31.4542 9.84817 31.3167 10.0328 31.0418Z" fill="white"/>
<path d="M11.8975 28.4989V28.04C12.3304 27.9979 12.6323 27.9276 12.8032 27.8289C12.9742 27.7303 13.1018 27.497 13.1863 27.129H13.6591V31.8701H13.0197V28.4988H11.8975V28.4989Z" fill="white"/>
<path d="M15.7866 28.3557H16.4835V29.0805H15.7866V28.3557ZM15.7866 31.1451H16.4835V31.87H15.7866V31.1451Z" fill="white"/>
<path d="M17.4007 30.7994C17.5483 30.4958 17.8364 30.2198 18.2649 29.9715L18.9043 29.6025C19.1908 29.4362 19.3916 29.2943 19.5071 29.1766C19.6891 28.9922 19.7802 28.7813 19.7802 28.5436C19.7802 28.2661 19.6969 28.0456 19.5304 27.8824C19.3639 27.7192 19.1419 27.6375 18.8644 27.6375C18.4536 27.6375 18.1695 27.7932 18.0119 28.1044C17.9275 28.2712 17.8808 28.5023 17.872 28.798H17.2626C17.2692 28.3835 17.3458 28.0454 17.4923 27.7839C17.752 27.3229 18.2105 27.0923 18.8677 27.0923C19.4138 27.0923 19.8129 27.2398 20.0649 27.5345C20.3168 27.8294 20.4429 28.1574 20.4429 28.5187C20.4429 28.8999 20.3085 29.2258 20.0399 29.4961C19.8845 29.6535 19.6058 29.8441 19.204 30.068L18.7478 30.3207C18.5302 30.4404 18.3593 30.5546 18.235 30.6631C18.0129 30.8559 17.873 31.0699 17.8153 31.3048H20.4196V31.87H17.146C17.1681 31.46 17.2531 31.1031 17.4007 30.7994Z" fill="white"/>
<path d="M23.9001 27.8701C24.1133 28.2624 24.2198 28.7999 24.2198 29.4826C24.2198 30.1298 24.1233 30.665 23.9301 31.0885C23.6504 31.6958 23.193 31.9994 22.5581 31.9994C21.9853 31.9994 21.559 31.7512 21.2793 31.2547C21.0463 30.8402 20.9297 30.2838 20.9297 29.5857C20.9297 29.0449 20.9996 28.5805 21.1394 28.1925C21.4014 27.47 21.8754 27.1087 22.5614 27.1087C23.1786 27.1087 23.6248 27.3625 23.9001 27.8701ZM23.2969 31.0418C23.4815 30.767 23.5738 30.255 23.5738 29.5058C23.5738 28.965 23.507 28.52 23.3736 28.171C23.2402 27.8218 22.9811 27.6473 22.5964 27.6473C22.2428 27.6473 21.9843 27.813 21.8209 28.1444C21.6573 28.4758 21.5756 28.9639 21.5756 29.609C21.5756 30.0943 21.6279 30.4845 21.7324 30.7793C21.8925 31.2293 22.1661 31.4542 22.553 31.4542C22.8644 31.4542 23.1123 31.3167 23.2969 31.0418Z" fill="white"/>
<path d="M25.1689 28.4987V28.0398C25.6019 27.9977 25.9037 27.9274 26.0748 27.8287C26.2457 27.7301 26.3733 27.4968 26.4577 27.1288H26.9307V31.8699H26.2912V28.4986H25.1689V28.4987Z" fill="white"/>
<path d="M29.1477 30.6563C29.1877 30.9977 29.3464 31.2337 29.624 31.3645C29.766 31.431 29.9304 31.4643 30.1169 31.4643C30.4721 31.4643 30.7351 31.3512 30.9061 31.1251C31.077 30.8991 31.1626 30.6486 31.1626 30.3737C31.1626 30.0413 31.061 29.7842 30.8579 29.6024C30.6548 29.4206 30.4111 29.3297 30.1269 29.3297C29.9204 29.3297 29.7434 29.3696 29.5958 29.4494C29.4481 29.5292 29.3221 29.64 29.2177 29.7819L28.6982 29.752L29.0613 27.1886H31.5389V27.7671H29.5108L29.3076 29.0904C29.4186 29.0061 29.5241 28.943 29.624 28.9008C29.8016 28.8277 30.007 28.7912 30.24 28.7912C30.6774 28.7912 31.0482 28.9319 31.3523 29.2134C31.6564 29.4949 31.8085 29.8518 31.8085 30.284C31.8085 30.734 31.6692 31.1307 31.3906 31.4743C31.112 31.8179 30.6674 31.9896 30.0568 31.9896C29.6683 31.9896 29.3247 31.8803 29.0261 31.6621C28.7276 31.4439 28.5604 31.1086 28.5249 30.6564H29.1477V30.6563Z" fill="white"/>
</svg>
