<svg width="16" height="15" viewBox="0 0 16 15" fill="none" xmlns="http://www.w3.org/2000/svg">
<g clip-path="url(#clip0_1356_225)">
<path d="M15.2602 7.91667L9.84322 2.49952C9.68858 2.34489 9.48249 2.26001 9.26273 2.26001C9.04274 2.26001 8.83676 2.34501 8.68213 2.49952L8.1903 2.99147C8.03579 3.14586 7.95067 3.35207 7.95067 3.57195C7.95067 3.7917 8.03579 4.00487 8.1903 4.15926L11.3505 7.32643H1.31036C0.85768 7.32643 0.5 7.68082 0.5 8.13362V8.8291C0.5 9.2819 0.85768 9.67202 1.31036 9.67202H11.3864L8.19043 12.8569C8.03591 13.0115 7.95079 13.2121 7.95079 13.432C7.95079 13.6516 8.03591 13.8552 8.19043 14.0097L8.68225 14.5C8.83688 14.6547 9.04286 14.7389 9.26286 14.7389C9.48261 14.7389 9.68871 14.6536 9.84334 14.4989L15.2604 9.0819C15.4154 8.92678 15.5006 8.71971 15.5 8.49959C15.5005 8.27874 15.4154 8.07155 15.2602 7.91667Z" fill="#111827"/>
</g>
<defs>
<clipPath id="clip0_1356_225">
<rect width="15" height="15" fill="white" transform="translate(0.5)"/>
</clipPath>
</defs>
</svg>
