<svg width="61" height="60" viewBox="0 0 61 60" fill="none" xmlns="http://www.w3.org/2000/svg">
<rect x="0.5" width="60" height="60" rx="6.66667" fill="#E5E7EB"/>
<path d="M14.5319 29.3715L13.1229 28.1382C12.9874 28.0195 12.9097 27.8481 12.9097 27.6678C12.9097 27.4876 12.9874 27.3163 13.1229 27.1976L14.5318 25.9642C14.7914 25.7368 15.1863 25.763 15.4137 26.0228C15.6411 26.2825 15.6148 26.6773 15.3551 26.9047L15.1973 27.0428H18.3204C18.6655 27.0428 18.9454 27.3227 18.9454 27.6678C18.9454 28.013 18.6655 28.2928 18.3204 28.2928H15.1975L15.3553 28.431C15.615 28.6583 15.6412 29.0532 15.4139 29.3129C15.2903 29.4541 15.1172 29.5262 14.9434 29.5262C14.7972 29.5262 14.6504 29.4753 14.5319 29.3715ZM42.0115 38.3284C42.7156 39.5485 42.2962 41.1139 41.0764 41.818L30.7762 47.7646C30.1494 48.1266 29.4694 48.3082 28.7459 48.3082C28.3975 48.3082 28.039 48.2662 27.6713 48.1819L23.5524 47.2377C22.4733 46.9902 21.6112 47.1764 20.6479 47.8779L20.7187 48.1418C20.7912 48.4121 20.7537 48.695 20.6133 48.9382C20.4729 49.1813 20.2467 49.3551 19.9763 49.4276L18.2653 49.8861C18.1747 49.9104 18.0835 49.922 17.9938 49.922C17.5301 49.922 17.1049 49.6122 16.9794 49.1437L14.4988 39.886C14.349 39.3268 14.6821 38.75 15.2412 38.6001L16.9522 38.1416C17.2226 38.0691 17.5055 38.1066 17.7487 38.247C17.9705 38.3751 18.1337 38.5752 18.2158 38.8146L19.9004 37.5246C20.9396 36.7288 22.0215 36.4532 23.0297 36.7275L30.2206 38.6847C31.3364 38.9885 32.1056 39.9392 32.2356 41.0224L38.5218 37.3932C39.1108 37.0531 39.7991 36.9633 40.4597 37.1403C41.1203 37.3174 41.6715 37.7393 42.0115 38.3284ZM40.9289 38.9533C40.7558 38.6534 40.4743 38.4383 40.1362 38.3478C39.7978 38.2571 39.4467 38.3026 39.1469 38.4758L31.934 42.64C31.456 43.542 30.5102 44.1074 29.4952 44.1075C29.2559 44.1075 29.0129 44.0762 28.7712 44.0103L24.9301 42.9649C24.5969 42.8742 24.4004 42.5307 24.4912 42.1977C24.5818 41.8647 24.9254 41.6682 25.2583 41.7588L29.0994 42.8043C29.9022 43.0228 30.7339 42.5473 30.9526 41.7442C31.1712 40.941 30.6956 40.1096 29.8924 39.891L22.7016 37.9338C22.0751 37.7633 21.3885 37.9596 20.6605 38.5171L18.569 40.1189L20.306 46.6014C21.4297 45.9034 22.5454 45.7243 23.8319 46.0193L27.9508 46.9636C28.776 47.1528 29.4958 47.0607 30.1514 46.6822L40.4515 40.7356C41.0744 40.3759 41.2886 39.5764 40.9289 38.9533ZM47.8759 27.1975L46.467 25.9641C46.2074 25.7368 45.8125 25.7629 45.5851 26.0227C45.3577 26.2825 45.384 26.6773 45.6437 26.9046L45.8015 27.0428H42.6785C42.3333 27.0428 42.0535 27.3226 42.0535 27.6678C42.0535 28.0129 42.3333 28.2928 42.6785 28.2928H45.8015L45.6437 28.4309C45.384 28.6582 45.3578 29.0531 45.5851 29.3128C45.7087 29.454 45.8818 29.5261 46.0556 29.5261C46.2017 29.5261 46.3485 29.4752 46.4671 29.3714L47.8759 28.1379C48.0115 28.0193 48.0892 27.8478 48.0892 27.6677C48.0892 27.4875 48.0115 27.3161 47.8759 27.1975ZM20.9521 27.6678C20.9521 22.4034 25.235 18.1204 30.4994 18.1204C35.7638 18.1204 40.0467 22.4033 40.0467 27.6678C40.0467 32.9322 35.7638 37.2151 30.4994 37.2151C25.235 37.2151 20.9521 32.9322 20.9521 27.6678ZM22.2021 27.6678C22.2021 32.2429 25.9243 35.9651 30.4994 35.9651C35.0746 35.9651 38.7967 32.2429 38.7967 27.6678C38.7967 23.0926 35.0746 19.3705 30.4994 19.3705C25.9243 19.3705 22.2021 23.0926 22.2021 27.6678ZM39.1112 19.6809C39.2712 19.6809 39.4311 19.6199 39.5532 19.4978L41.7615 17.2896L41.7476 17.4988C41.7247 17.8432 41.9854 18.141 42.3297 18.1639C42.3439 18.1648 42.3579 18.1653 42.3718 18.1653C42.6981 18.1653 42.9728 17.912 42.9948 17.5817L43.119 15.7133C43.1308 15.5335 43.0647 15.3574 42.9373 15.23C42.8098 15.1025 42.6329 15.0363 42.4539 15.0482L40.5855 15.1724C40.2411 15.1953 39.9804 15.493 40.0033 15.8375C40.0262 16.1818 40.3213 16.4413 40.6684 16.4196L40.8776 16.4057L38.6693 18.614C38.4252 18.8581 38.4252 19.2538 38.6693 19.4978C38.7914 19.6199 38.9514 19.6809 39.1112 19.6809ZM23.6468 27.6678C23.6468 23.8892 26.7209 20.8151 30.4994 20.8151C34.2779 20.8151 37.3521 23.8892 37.3521 27.6678C37.3521 31.4463 34.2779 34.5203 30.4994 34.5203C26.7209 34.5203 23.6468 31.4464 23.6468 27.6678ZM28.4327 26.371C28.4327 27.4307 29.2948 28.2928 30.3545 28.2928H30.6444C31.0148 28.2928 31.3162 28.5941 31.3162 28.9646C31.3162 29.335 31.0149 29.6364 30.6444 29.6364H30.2362C30.0223 29.6364 29.8185 29.5312 29.6912 29.3551C29.4889 29.0754 29.0982 29.0127 28.8184 29.215C28.5387 29.4173 28.476 29.808 28.6783 30.0877C28.9679 30.4881 29.399 30.7593 29.8744 30.8515V31.3693C29.8744 31.7144 30.1543 31.9943 30.4994 31.9943C30.8446 31.9943 31.1244 31.7144 31.1244 31.3693V30.8257C31.9526 30.6119 32.5662 29.8585 32.5662 28.9646C32.5662 27.905 31.704 27.0428 30.6444 27.0428H30.3544C29.984 27.0428 29.6826 26.7414 29.6826 26.371C29.6826 26.0006 29.984 25.6992 30.3544 25.6992H30.7627C30.9766 25.6992 31.1803 25.8043 31.3076 25.9803C31.5098 26.26 31.9005 26.3228 32.1803 26.1206C32.46 25.9184 32.5228 25.5277 32.3206 25.2479C32.0311 24.8475 31.5999 24.5762 31.1244 24.4839V23.9663C31.1244 23.6211 30.8446 23.3413 30.4994 23.3413C30.1543 23.3413 29.8744 23.6211 29.8744 23.9663V24.5099C29.0463 24.7236 28.4327 25.477 28.4327 26.371ZM18.004 17.5817C18.0259 17.912 18.3007 18.1653 18.627 18.1653C18.6409 18.1653 18.6549 18.1648 18.669 18.1639C19.0134 18.141 19.2741 17.8432 19.2512 17.4989L19.2373 17.2896L21.4456 19.4978C21.5676 19.6199 21.7276 19.6809 21.8876 19.6809C22.0475 19.6809 22.2075 19.6199 22.3295 19.4978C22.5736 19.2538 22.5736 18.8581 22.3295 18.614L20.1212 16.4057L20.3304 16.4196C20.6743 16.4423 20.9726 16.1819 20.9955 15.8374C21.0184 15.493 20.7577 15.1953 20.4133 15.1724L18.545 15.0483C18.3637 15.0361 18.189 15.1026 18.0615 15.23C17.9342 15.3574 17.8679 15.5336 17.8799 15.7134L18.004 17.5817ZM28.8544 12.5821C29.114 12.8095 29.5089 12.7833 29.7363 12.5235L29.8744 12.3658V15.4888C29.8744 15.8339 30.1543 16.1138 30.4994 16.1138C30.8446 16.1138 31.1244 15.8339 31.1244 15.4888V12.3658L31.2626 12.5235C31.3862 12.6647 31.5592 12.7368 31.733 12.7368C31.8791 12.7368 32.0259 12.6859 32.1445 12.5821C32.4042 12.3547 32.4304 11.9599 32.2031 11.7001L30.9697 10.2913C30.8509 10.1557 30.6795 10.078 30.4994 10.078C30.3191 10.078 30.1478 10.1558 30.029 10.2914L28.7958 11.7003C28.5684 11.96 28.5947 12.3548 28.8544 12.5821Z" fill="#111827"/>
</svg>
