<svg width="16" height="16" viewBox="0 0 16 16" fill="none" xmlns="http://www.w3.org/2000/svg">
<path d="M3.48016 8.90899L14.7419 9.02842C14.9954 9.03075 15.2101 8.94549 15.3861 8.77265C15.5618 8.60023 15.6508 8.3873 15.6531 8.13387C15.6554 7.88044 15.5702 7.6657 15.3973 7.48964C15.2249 7.31402 15.012 7.22504 14.7585 7.22271L3.49648 7.13496L8.35599 2.36403C8.53715 2.18617 8.62906 1.9758 8.63172 1.73294C8.63353 1.49006 8.54551 1.27804 8.36764 1.09687C8.18978 0.915706 7.97941 0.823795 7.73654 0.821139C7.49367 0.819327 7.28165 0.907353 7.10048 1.08522L0.706388 7.36275C0.525223 7.54062 0.433525 7.75077 0.431295 7.99322C0.429057 8.23652 0.51687 8.44875 0.694733 8.62992L6.97227 15.024C7.15013 15.2052 7.3605 15.2967 7.60338 15.2985C7.84625 15.3011 8.05827 15.2135 8.23943 15.0357C8.4206 14.8578 8.51209 14.6474 8.5139 14.4046C8.51655 14.1617 8.42895 13.9497 8.25109 13.7685L3.48016 8.90899Z" fill="#D1D5DB"/>
</svg>
