<svg width="134" height="35" viewBox="0 0 134 35" fill="none" xmlns="http://www.w3.org/2000/svg">
<g clip-path="url(#clip0_3246_24015)">
<path d="M0 32.4478V27.0859H0.869584V32.4478H0Z" fill="white" fill-opacity="0.5"/>
<path d="M2.85611 32.4452H2.0022V28.5314H2.84828V28.774C3.22954 28.5549 3.58991 28.4453 3.92939 28.4453C4.45166 28.4453 4.80681 28.594 4.99482 28.8914C5.18806 29.1837 5.28469 29.669 5.28469 30.3474V32.4452H4.4386V30.3709C4.4386 29.9482 4.3916 29.6481 4.29759 29.4707C4.2088 29.2933 4.0234 29.2046 3.74137 29.2046C3.47501 29.2046 3.2191 29.2568 2.97362 29.3611L2.85611 29.4081V32.4452Z" fill="white" fill-opacity="0.5"/>
<path d="M5.87207 28.5352H6.76517L7.51724 31.721H7.76794L8.55136 28.5352H9.42093L8.40251 32.449H6.88267L5.87207 28.5352Z" fill="white" fill-opacity="0.5"/>
<path d="M10.2389 28.9541C10.5105 28.6149 10.9596 28.4453 11.5864 28.4453C12.2131 28.4453 12.6597 28.6149 12.926 28.9541C13.1976 29.2933 13.3334 29.802 13.3334 30.4804C13.3334 31.1588 13.2028 31.6702 12.9417 32.0146C12.6806 32.3591 12.2288 32.5313 11.5864 32.5313C10.944 32.5313 10.4922 32.3591 10.2311 32.0146C9.96993 31.6702 9.83936 31.1588 9.83936 30.4804C9.83936 29.802 9.97256 29.2933 10.2389 28.9541ZM10.8813 31.498C11.0014 31.7068 11.2364 31.8111 11.5864 31.8111C11.9363 31.8111 12.1713 31.7068 12.2915 31.498C12.4116 31.2893 12.4717 30.9475 12.4717 30.4726C12.4717 29.9977 12.4063 29.6612 12.2758 29.4629C12.1504 29.2646 11.9206 29.1654 11.5864 29.1654C11.2521 29.1654 11.0197 29.2646 10.8891 29.4629C10.7638 29.6612 10.7011 29.9977 10.7011 30.4726C10.7011 30.9475 10.7612 31.2893 10.8813 31.498Z" fill="white" fill-opacity="0.5"/>
<path d="M14.1816 32.448V28.5342H15.0356V32.448H14.1816ZM14.1816 27.8689V26.9688H15.0356V27.8689H14.1816Z" fill="white" fill-opacity="0.5"/>
<path d="M17.5365 28.4453C17.8133 28.4453 18.1397 28.4818 18.5158 28.5549L18.7116 28.594L18.6803 29.2672C18.2677 29.2254 17.9622 29.2046 17.7637 29.2046C17.3668 29.2046 17.1004 29.2933 16.9646 29.4707C16.8288 29.6481 16.7609 29.9821 16.7609 30.4726C16.7609 30.9632 16.8262 31.3023 16.9568 31.4902C17.0873 31.678 17.3589 31.772 17.7715 31.772L18.6881 31.7094L18.7116 32.3904C18.1841 32.4843 17.7872 32.5313 17.5208 32.5313C16.9254 32.5313 16.505 32.3721 16.2596 32.0538C16.0193 31.7302 15.8992 31.2032 15.8992 30.4726C15.8992 29.742 16.0271 29.2228 16.283 28.915C16.5389 28.6018 16.9568 28.4453 17.5365 28.4453Z" fill="white" fill-opacity="0.5"/>
<path d="M19.5371 32.448V28.5342H20.391V32.448H19.5371ZM19.5371 27.8689V26.9688H20.391V27.8689H19.5371Z" fill="white" fill-opacity="0.5"/>
<path d="M22.2804 32.4452H21.4265V28.5314H22.2726V28.774C22.6539 28.5549 23.0142 28.4453 23.3537 28.4453C23.876 28.4453 24.2311 28.594 24.4191 28.8914C24.6124 29.1837 24.709 29.669 24.709 30.3474V32.4452H23.8629V30.3709C23.8629 29.9482 23.8159 29.6481 23.7219 29.4707C23.6332 29.2933 23.4477 29.2046 23.1657 29.2046C22.8994 29.2046 22.6434 29.2568 22.3979 29.3611L22.2804 29.4081V32.4452Z" fill="white" fill-opacity="0.5"/>
<path d="M29.1266 32.9813C29.1266 33.8371 28.5078 34.265 27.27 34.265C26.6746 34.265 26.2332 34.1841 25.946 34.0224C25.6587 33.8606 25.5151 33.5658 25.5151 33.1379C25.5151 32.9448 25.5621 32.7778 25.6561 32.6369C25.7501 32.5013 25.9016 32.3525 26.1105 32.1907C25.9382 32.0759 25.852 31.8855 25.852 31.6194C25.852 31.515 25.9225 31.3454 26.0635 31.1105L26.134 30.9931C25.758 30.7687 25.57 30.3774 25.57 29.819C25.57 29.3493 25.711 29.005 25.993 28.7858C26.275 28.5666 26.6563 28.457 27.1368 28.457C27.3666 28.457 27.5938 28.4831 27.8183 28.5353L27.9358 28.5588L29.1502 28.5274V29.2163L28.4999 29.1772C28.6409 29.3598 28.7114 29.5737 28.7114 29.819C28.7114 30.3304 28.5809 30.6853 28.3198 30.8835C28.0638 31.0766 27.6617 31.1732 27.1133 31.1732C26.9775 31.1732 26.8626 31.1627 26.7686 31.1418C26.6955 31.3193 26.6589 31.4575 26.6589 31.5567C26.6589 31.6506 26.7059 31.7159 26.7999 31.7524C26.8991 31.7889 27.1342 31.8098 27.505 31.815C28.1265 31.8202 28.5521 31.9037 28.7819 32.0655C29.0118 32.2273 29.1266 32.5325 29.1266 32.9813ZM26.3534 33.0596C26.3534 33.2422 26.4265 33.3727 26.5727 33.451C26.719 33.5293 26.9697 33.5684 27.3248 33.5684C27.9567 33.5684 28.2727 33.3883 28.2727 33.0283C28.2727 32.8248 28.2153 32.6943 28.1004 32.6369C27.9907 32.5847 27.7687 32.556 27.4345 32.5508L26.6667 32.5038C26.5518 32.5978 26.4709 32.6839 26.4239 32.7621C26.3769 32.8456 26.3534 32.9448 26.3534 33.0596ZM26.4161 29.819C26.4161 30.0591 26.4735 30.2365 26.5884 30.3513C26.7033 30.4609 26.8887 30.5156 27.1446 30.5156C27.4005 30.5156 27.5833 30.4609 27.693 30.3513C27.8079 30.2365 27.8653 30.0591 27.8653 29.819C27.8653 29.579 27.8079 29.4041 27.693 29.2946C27.5781 29.1797 27.3927 29.1224 27.1368 29.1224C26.6563 29.1224 26.4161 29.3546 26.4161 29.819Z" fill="white" fill-opacity="0.5"/>
<path d="M33.2171 27.7593C32.5538 27.7593 32.2221 27.9915 32.2221 28.456C32.2221 28.696 32.3004 28.8682 32.4571 28.9726C32.6138 29.0717 32.9585 29.197 33.4912 29.3483C34.0292 29.4944 34.4078 29.6718 34.6272 29.8805C34.8465 30.0841 34.9562 30.4076 34.9562 30.8512C34.9562 31.4147 34.7943 31.8375 34.4705 32.1192C34.1519 32.3958 33.7158 32.5341 33.1622 32.5341C32.7183 32.5341 32.2273 32.4819 31.6894 32.3776L31.4074 32.3227L31.4936 31.6261C32.1986 31.7201 32.7365 31.767 33.1074 31.767C33.755 31.767 34.0788 31.48 34.0788 30.906C34.0788 30.6816 34.0057 30.5172 33.8595 30.4128C33.7132 30.3033 33.3842 30.1859 32.8723 30.0606C32.3605 29.9302 31.9793 29.7527 31.7286 29.5283C31.4779 29.304 31.3525 28.9491 31.3525 28.4638C31.3525 27.9785 31.5092 27.6132 31.8226 27.368C32.1412 27.1175 32.5799 26.9922 33.1387 26.9922C33.5409 26.9922 34.0161 27.0392 34.5645 27.1331L34.8387 27.1801L34.7682 27.8845C34.037 27.8011 33.52 27.7593 33.2171 27.7593Z" fill="white" fill-opacity="0.5"/>
<path d="M35.7942 32.448V28.5342H36.6481V32.448H35.7942ZM35.7942 27.8689V26.9688H36.6481V27.8689H35.7942Z" fill="white" fill-opacity="0.5"/>
<path d="M38.5378 32.4452H37.6838V28.5314H38.5299V28.774C38.9007 28.5549 39.2402 28.4453 39.5484 28.4453C40.0027 28.4453 40.3344 28.5732 40.5433 28.8288C41.0186 28.5732 41.4912 28.4453 41.9612 28.4453C42.4313 28.4453 42.7629 28.5914 42.9562 28.8836C43.1494 29.1706 43.2461 29.6586 43.2461 30.3474V32.4452H42.4V30.3709C42.4 29.9482 42.3556 29.6481 42.2668 29.4707C42.1832 29.2933 42.0057 29.2046 41.7341 29.2046C41.4991 29.2046 41.2458 29.2568 40.9742 29.3611L40.841 29.4159C40.8828 29.5203 40.9037 29.8542 40.9037 30.4178V32.4452H40.0576V30.4335C40.0576 29.9691 40.0158 29.6481 39.9322 29.4707C39.8487 29.2933 39.6659 29.2046 39.3839 29.2046C39.1227 29.2046 38.8798 29.2568 38.6553 29.3611L38.5378 29.4081V32.4452Z" fill="white" fill-opacity="0.5"/>
<path d="M44.248 34.1281V28.5314H45.0941V28.774C45.4545 28.5549 45.7914 28.4453 46.1047 28.4453C46.6218 28.4453 47.0004 28.6045 47.2407 28.9228C47.4809 29.2359 47.601 29.7655 47.601 30.5117C47.601 31.2528 47.4626 31.7746 47.1858 32.0773C46.9142 32.3799 46.4677 32.5313 45.8462 32.5313C45.6321 32.5313 45.384 32.5078 45.1019 32.4608V34.1281H44.248ZM45.9558 29.2046C45.7104 29.2046 45.4649 29.2594 45.2195 29.3689L45.1019 29.4237V31.7329C45.3108 31.7746 45.5406 31.7955 45.7914 31.7955C46.1465 31.7955 46.3919 31.6937 46.5277 31.4902C46.6636 31.2867 46.7314 30.9396 46.7314 30.4492C46.7314 29.6194 46.4729 29.2046 45.9558 29.2046Z" fill="white" fill-opacity="0.5"/>
<path d="M48.5029 32.4443V26.9023H49.3569V32.4443H48.5029Z" fill="white" fill-opacity="0.5"/>
<path d="M50.4373 32.448V28.5342H51.2911V32.448H50.4373ZM50.4373 27.8689V26.9688H51.2911V27.8689H50.4373Z" fill="white" fill-opacity="0.5"/>
<path d="M53.3532 29.2625V32.4483H52.5071V29.2625H52.0527V28.5345H52.5071V28.2841C52.5071 27.7257 52.5881 27.3421 52.7499 27.1334C52.9119 26.9246 53.1991 26.8203 53.6119 26.8203L54.458 26.8985L54.4499 27.5952C54.1938 27.5848 53.98 27.5796 53.8075 27.5796C53.6403 27.5796 53.5229 27.6318 53.455 27.7361C53.3871 27.8353 53.3532 28.0205 53.3532 28.2919V28.5345H54.3872V29.2625H53.3532Z" fill="white" fill-opacity="0.5"/>
<path d="M55.0354 32.448V28.5342H55.8895V32.448H55.0354ZM55.0354 27.8689V26.9688H55.8895V27.8689H55.0354Z" fill="white" fill-opacity="0.5"/>
<path d="M59.7138 31.7407L59.9329 31.7172L59.949 32.3512C59.3537 32.4713 58.826 32.5313 58.3662 32.5313C57.7865 32.5313 57.3691 32.3721 57.113 32.0538C56.8622 31.7355 56.7368 31.2267 56.7368 30.5274C56.7368 29.1394 57.3037 28.4453 58.437 28.4453C59.5338 28.4453 60.0819 29.0428 60.0819 30.2378L60.0273 30.8483H57.5984C57.6038 31.1719 57.6745 31.4093 57.8101 31.5606C57.9461 31.712 58.1991 31.7876 58.5698 31.7876C58.9406 31.7876 59.3221 31.772 59.7138 31.7407ZM59.2439 30.1908C59.2439 29.8047 59.1812 29.5359 59.0558 29.3846C58.9358 29.228 58.7295 29.1497 58.437 29.1497C58.1444 29.1497 57.9301 29.2307 57.7945 29.3924C57.6638 29.5542 57.5963 29.8203 57.5909 30.1908H59.2439Z" fill="white" fill-opacity="0.5"/>
<path d="M64.0994 26.9023V32.4443H63.2533V32.2408C62.8718 32.4338 62.5219 32.5304 62.2036 32.5304C61.6919 32.5304 61.3158 32.3764 61.0752 32.0686C60.8405 31.7607 60.7227 31.244 60.7227 30.5187C60.7227 29.7933 60.8534 29.2663 61.1143 28.9375C61.3812 28.6088 61.7937 28.4444 62.3526 28.4444C62.5401 28.4444 62.8381 28.4783 63.2453 28.5462V26.9023H64.0994ZM63.1124 31.6302L63.2453 31.5754V29.2585C62.9324 29.2063 62.6425 29.1802 62.3756 29.1802C61.8484 29.1802 61.5848 29.6185 61.5848 30.4952C61.5848 30.9753 61.6448 31.3093 61.7648 31.4971C61.8902 31.6798 62.0858 31.7711 62.3526 31.7711C62.6189 31.7711 62.8718 31.7241 63.1124 31.6302Z" fill="white" fill-opacity="0.5"/>
<path d="M0.0336914 1.20956V0.03125H4.79683V5.06002L0.0336914 1.20956Z" fill="white" fill-opacity="0.5"/>
<path d="M0.0336914 10.9447V21.9502H4.79683V5.0625L0.0336914 10.9447Z" fill="white" fill-opacity="0.5"/>
<path d="M9.08032 7.45261C9.47725 7.24391 9.99951 7.03515 10.6472 6.82645C11.2947 6.5968 12.0051 6.39855 12.778 6.23154C13.551 6.06452 14.324 5.92886 15.0969 5.82448C15.8908 5.72016 16.622 5.66797 17.2904 5.66797C18.7111 5.66797 19.9227 5.85583 20.9255 6.23154C21.9282 6.58641 22.6908 7.17082 23.2131 7.98488C23.7562 8.79895 24.0278 9.90524 24.0278 11.3038V21.9492H19.3587V12.2431C19.3587 11.8465 19.296 11.4812 19.1707 11.1472C19.0662 10.8132 18.8991 10.5314 18.6693 10.3019C18.4394 10.0514 18.1261 9.8635 17.7292 9.73828C17.3322 9.59217 16.8518 9.51908 16.2877 9.51908C15.8072 9.51908 15.3267 9.58172 14.8462 9.70694C14.3658 9.81131 14.0001 9.92614 13.7495 10.0514V21.9492H9.08032V7.45261Z" fill="white" fill-opacity="0.5"/>
<path d="M32.7988 21.9523L26.1868 6.10938H31.2633L36.0578 18.3203L34.9297 18.3516L39.1914 6.10938H44.1112L37.4992 21.9523H32.7988Z" fill="white" fill-opacity="0.5"/>
<path d="M53.1311 22.4191C50.4571 22.4191 48.441 21.7094 47.0831 20.29C45.7461 18.8497 45.0776 16.7415 45.0776 13.9653C45.0776 10.9804 45.7566 8.84092 47.1145 7.54677C48.4933 6.23172 50.4988 5.57422 53.1311 5.57422C54.907 5.57422 56.3902 5.87685 57.5808 6.48221C58.7928 7.06668 59.7015 7.97467 60.307 9.20618C60.9339 10.4377 61.2473 12.0241 61.2473 13.9653C61.2473 16.7415 60.5476 18.8497 59.1475 20.29C57.7479 21.7094 55.7424 22.4191 53.1311 22.4191ZM53.1311 18.6932C53.904 18.6932 54.5411 18.5157 55.0426 18.1609C55.565 17.7852 55.9513 17.2529 56.2021 16.564C56.4738 15.8544 56.6093 14.9881 56.6093 13.9653C56.6093 12.7964 56.4738 11.878 56.2021 11.21C55.9513 10.5212 55.565 10.0307 55.0426 9.73846C54.5202 9.42533 53.8831 9.26882 53.1311 9.26882C52.3372 9.26882 51.6896 9.42533 51.1882 9.73846C50.6868 10.0515 50.3108 10.5525 50.0601 11.2413C49.8303 11.9093 49.7154 12.8173 49.7154 13.9653C49.7154 15.5517 49.987 16.7415 50.5301 17.5347C51.0942 18.307 51.9612 18.6932 53.1311 18.6932Z" fill="white" fill-opacity="0.5"/>
<path d="M64.564 21.948V6.32422H69.2331L69.2641 21.948H64.564Z" fill="white" fill-opacity="0.5"/>
<path d="M80.863 22.3562C79.7351 22.3562 78.6693 22.1893 77.6668 21.8553C76.6638 21.5213 75.7759 21.0203 75.0033 20.3524C74.2301 19.6844 73.6241 18.8391 73.1858 17.8163C72.747 16.7935 72.5278 15.6037 72.5278 14.2469C72.5278 12.8067 72.7363 11.5543 73.1542 10.4897C73.5721 9.40431 74.1465 8.50671 74.8779 7.79703C75.6297 7.08734 76.5073 6.55506 77.5098 6.20025C78.5129 5.84538 79.6199 5.66797 80.8319 5.66797C81.6881 5.66797 82.5658 5.7619 83.4638 5.94975C84.3833 6.11671 85.1875 6.35676 85.8771 6.66989V10.6776C85.1457 10.3436 84.4251 10.0723 83.7146 9.8635C83.0255 9.63391 82.315 9.51908 81.5836 9.51908C80.2677 9.51908 79.2025 9.85305 78.3875 10.521C77.5934 11.1681 77.1969 12.2327 77.1969 13.7147C77.1969 15.2802 77.5516 16.4595 78.2621 17.2527C78.9726 18.0459 80.153 18.4425 81.8033 18.4425C82.576 18.4425 83.3175 18.3068 84.028 18.0355C84.7594 17.7641 85.3858 17.4823 85.9082 17.1901V21.1665C85.1768 21.5422 84.4143 21.8344 83.6208 22.0432C82.8267 22.2519 81.9078 22.3562 80.863 22.3562Z" fill="white" fill-opacity="0.5"/>
<path d="M96.3414 22.4191C94.7538 22.4191 93.3436 22.0955 92.1112 21.4484C90.8997 20.7805 89.9492 19.8412 89.2596 18.6305C88.5909 17.399 88.2571 15.9378 88.2571 14.2471C88.2571 11.4918 88.936 9.36275 90.2937 7.85984C91.6724 6.33609 93.6361 5.57422 96.185 5.57422C97.9398 5.57422 99.35 5.94993 100.415 6.70136C101.502 7.45278 102.295 8.54869 102.797 9.98895C103.298 11.4292 103.539 13.1826 103.518 15.249H91.4532L90.9517 12.2746H99.6635L98.9739 13.7461C98.953 12.0554 98.713 10.8656 98.2532 10.1768C97.7935 9.48797 97.0418 9.14355 95.9969 9.14355C95.4118 9.14355 94.8792 9.28966 94.3986 9.5819C93.9394 9.87413 93.5734 10.3647 93.3018 11.0535C93.0515 11.7214 92.9262 12.6503 92.9262 13.8401C92.9262 15.343 93.2814 16.5015 93.9914 17.3155C94.7228 18.1296 95.8823 18.5366 97.4699 18.5366C98.055 18.5366 98.6294 18.474 99.1931 18.3487C99.7782 18.2026 100.321 18.0357 100.823 17.8478C101.324 17.6599 101.753 17.4929 102.107 17.3468V21.3545C101.356 21.6676 100.51 21.9181 99.5692 22.106C98.6503 22.3147 97.5744 22.4191 96.3414 22.4191Z" fill="white" fill-opacity="0.5"/>
<path d="M106.762 21.9493V7.76583C107.054 7.51534 107.576 7.23355 108.329 6.92048C109.08 6.5865 109.937 6.29427 110.898 6.04378C111.88 5.77244 112.862 5.63672 113.844 5.63672C114.825 5.63672 115.599 5.7098 116.163 5.85592C116.727 6.00204 117.155 6.18989 117.448 6.41949V9.83231C117.092 9.74883 116.643 9.68619 116.1 9.64445C115.557 9.60271 114.993 9.58181 114.408 9.58181C113.823 9.56092 113.269 9.56092 112.747 9.58181C112.225 9.60271 111.786 9.64445 111.431 9.70703V21.9493H106.762Z" fill="white" fill-opacity="0.5"/>
<path d="M126.276 22.419C125.315 22.419 124.406 22.325 123.55 22.1372C122.714 21.9702 121.973 21.6884 121.325 21.2918C120.698 20.8743 120.207 20.3212 119.852 19.6324C119.497 18.9227 119.319 18.046 119.319 17.0023C119.319 16.0213 119.518 15.1654 119.915 14.4349C120.333 13.7043 120.959 13.1407 121.795 12.7441C122.631 12.3475 123.686 12.1492 124.96 12.1492C125.67 12.1492 126.359 12.2223 127.028 12.3684C127.697 12.5145 128.292 12.7128 128.814 12.9633C129.357 13.2138 129.786 13.4852 130.099 13.7773L130.287 16.0317C129.87 15.7812 129.368 15.5829 128.783 15.4368C128.198 15.2907 127.571 15.2176 126.903 15.2176C125.879 15.2176 125.127 15.3742 124.646 15.6873C124.187 15.9795 123.957 16.4492 123.957 17.0962C123.957 17.4928 124.072 17.8477 124.302 18.1608C124.532 18.4739 124.834 18.7139 125.211 18.8809C125.608 19.0479 126.015 19.1314 126.433 19.1314C127.498 19.1314 128.24 19.0583 128.658 18.9122C129.096 18.7661 129.315 18.4739 129.315 18.0356V12.2119C129.315 11.2517 129.003 10.5629 128.376 10.1454C127.77 9.70703 126.903 9.48788 125.775 9.48788C124.855 9.48788 123.926 9.6549 122.986 9.98887C122.066 10.3019 121.315 10.6881 120.73 11.1473V7.0144C121.273 6.68043 122.108 6.3673 123.237 6.07507C124.385 5.78284 125.67 5.63672 127.091 5.63672C127.592 5.63672 128.146 5.67851 128.752 5.76199C129.357 5.84547 129.963 6.00204 130.569 6.23163C131.175 6.44039 131.729 6.75346 132.23 7.17092C132.752 7.58842 133.17 8.1207 133.484 8.76775C133.797 9.41485 133.953 10.2185 133.953 11.1786L133.922 18.6617C133.922 19.5593 133.619 20.2899 133.013 20.8535C132.408 21.3961 131.53 21.7928 130.381 22.0432C129.253 22.2937 127.885 22.419 126.276 22.419Z" fill="white" fill-opacity="0.5"/>
</g>
<defs>
<clipPath id="clip0_3246_24015">
<rect width="133.954" height="34.2921" fill="white"/>
</clipPath>
</defs>
</svg>
