<svg width="185" height="25" viewBox="0 0 185 25" fill="none" xmlns="http://www.w3.org/2000/svg">
<g clip-path="url(#clip0_3246_24001)">
<path d="M107.153 22.5159C106.017 22.5159 105.05 22.3899 104.25 22.1379C103.45 21.9068 102.682 21.6232 101.946 21.2871V17.6951C102.43 18.0102 102.935 18.3147 103.461 18.6088C104.008 18.8819 104.587 19.1025 105.197 19.2705C105.828 19.4386 106.501 19.5226 107.217 19.5226C108.058 19.5226 108.679 19.3651 109.079 19.05C109.499 18.7139 109.71 18.3147 109.71 17.8526C109.71 17.4115 109.552 17.0754 109.236 16.8443C108.92 16.5922 108.51 16.3822 108.005 16.2142C107.501 16.0461 106.964 15.8781 106.396 15.71C105.87 15.584 105.333 15.4159 104.786 15.2059C104.26 14.9958 103.777 14.7122 103.335 14.3551C102.893 13.998 102.535 13.5464 102.262 13.0002C102.009 12.4331 101.883 11.7504 101.883 10.9521C101.883 10.0069 102.072 9.20861 102.451 8.55741C102.83 7.90621 103.324 7.38111 103.934 6.98198C104.545 6.58287 105.218 6.29929 105.954 6.13124C106.69 5.94219 107.406 5.84766 108.1 5.84766C109.3 5.88967 110.267 6.03671 111.003 6.28878C111.74 6.51985 112.434 6.82444 113.086 7.20255L113.118 10.448C112.382 10.0488 111.666 9.69173 110.972 9.37668C110.277 9.04061 109.489 8.87253 108.605 8.87253C107.784 8.87253 107.143 9.01958 106.68 9.31368C106.238 9.58674 106.017 9.97531 106.017 10.4795C106.017 10.9206 106.154 11.2777 106.427 11.5508C106.701 11.8238 107.058 12.034 107.501 12.1809C107.943 12.328 108.426 12.475 108.952 12.6221C109.479 12.7691 110.025 12.9372 110.593 13.1262C111.161 13.2943 111.687 13.5464 112.171 13.8825C112.655 14.2186 113.044 14.6702 113.339 15.2374C113.655 15.7835 113.812 16.5188 113.812 17.443C113.791 18.6613 113.465 19.6487 112.834 20.4049C112.203 21.1401 111.372 21.6757 110.341 22.0118C109.331 22.3479 108.268 22.5159 107.153 22.5159Z" fill="white" fill-opacity="0.5"/>
<path d="M122.416 22.5496C120.775 22.5496 119.523 22.1505 118.661 21.3523C117.798 20.533 117.366 19.3567 117.366 17.8233V9.31585H114.905V6.16492H117.366V1.78516H121.501V6.16492H125.193V9.31585H121.501V17.1931C121.501 17.8443 121.627 18.3274 121.88 18.6425C122.133 18.9576 122.574 19.1151 123.205 19.1151C123.542 19.1151 123.889 19.0626 124.247 18.9576C124.626 18.8316 124.941 18.6845 125.193 18.5164V21.9825C124.773 22.1925 124.31 22.3396 123.805 22.4236C123.321 22.5076 122.858 22.5496 122.416 22.5496Z" fill="white" fill-opacity="0.5"/>
<path d="M133.729 22.5206C132.845 22.5206 132.003 22.4366 131.205 22.2686C130.405 22.1005 129.689 21.8274 129.058 21.4493C128.427 21.0502 127.922 20.5145 127.544 19.8424C127.186 19.1492 127.007 18.2879 127.007 17.2586C127.007 16.1873 127.228 15.2841 127.67 14.5488C128.111 13.7926 128.753 13.2255 129.595 12.8473C130.457 12.4483 131.509 12.2487 132.751 12.2487C133.508 12.2487 134.213 12.3222 134.865 12.4692C135.517 12.5953 136.106 12.7738 136.633 13.0049C137.158 13.236 137.59 13.488 137.926 13.7611L138.21 15.9983C137.769 15.7042 137.2 15.4731 136.506 15.3051C135.833 15.116 135.097 15.0215 134.297 15.0215C133.182 15.0215 132.351 15.2 131.804 15.5571C131.257 15.9142 130.983 16.4709 130.983 17.2271C130.983 17.7523 131.131 18.1934 131.425 18.5505C131.72 18.8866 132.098 19.1492 132.562 19.3382C133.024 19.5063 133.508 19.5903 134.013 19.5903C135.17 19.5903 136.001 19.5167 136.506 19.3698C137.032 19.2017 137.295 18.8551 137.295 18.3299V12.0596C137.295 11.0304 136.969 10.2846 136.317 9.82251C135.664 9.33931 134.749 9.09779 133.571 9.09779C132.666 9.09779 131.741 9.25535 130.794 9.5704C129.847 9.86449 129.08 10.2531 128.49 10.7363V7.1127C129.058 6.7556 129.91 6.44051 131.046 6.16743C132.182 5.89435 133.403 5.75781 134.707 5.75781C135.254 5.75781 135.833 5.81033 136.443 5.91536C137.053 6.02039 137.632 6.18844 138.179 6.4195C138.746 6.65057 139.262 6.97616 139.725 7.39631C140.188 7.79539 140.556 8.31006 140.829 8.94023C141.103 9.54937 141.24 10.2951 141.24 11.1774V18.7081C141.24 19.6953 140.924 20.4726 140.293 21.0397C139.662 21.5858 138.789 21.964 137.674 22.174C136.559 22.4051 135.244 22.5206 133.729 22.5206Z" fill="white" fill-opacity="0.5"/>
<path d="M150.657 22.5496C149.016 22.5496 147.764 22.1505 146.901 21.3523C146.039 20.533 145.608 19.3567 145.608 17.8233V9.31585H143.146V6.16492H145.608V1.78516H149.742V6.16492H153.434V9.31585H149.742V17.1931C149.742 17.8443 149.868 18.3274 150.121 18.6425C150.373 18.9576 150.815 19.1151 151.446 19.1151C151.782 19.1151 152.13 19.0626 152.488 18.9576C152.866 18.8316 153.182 18.6845 153.434 18.5164V21.9825C153.013 22.1925 152.55 22.3396 152.046 22.4236C151.561 22.5076 151.099 22.5496 150.657 22.5496Z" fill="white" fill-opacity="0.5"/>
<path d="M163.294 22.5212C161.822 22.5212 160.538 22.2901 159.444 21.828C158.371 21.3449 157.53 20.6306 156.919 19.6854C156.33 18.7401 156.036 17.5322 156.036 16.0618V6.16797H160.043V15.6522C160.043 16.8285 160.306 17.7003 160.833 18.2674C161.358 18.8346 162.179 19.1182 163.294 19.1182C164.452 19.1182 165.282 18.8346 165.787 18.2674C166.313 17.7003 166.577 16.8285 166.577 15.6522V6.16797H170.363V16.0618C170.363 18.2464 169.732 19.8744 168.47 20.9457C167.228 21.996 165.503 22.5212 163.294 22.5212Z" fill="white" fill-opacity="0.5"/>
<path d="M178.34 22.5159C177.204 22.5159 176.237 22.3899 175.437 22.1379C174.637 21.9068 173.869 21.6232 173.133 21.2871V17.6951C173.617 18.0102 174.122 18.3147 174.648 18.6088C175.195 18.8819 175.774 19.1025 176.384 19.2705C177.015 19.4386 177.688 19.5226 178.404 19.5226C179.245 19.5226 179.866 19.3651 180.266 19.05C180.686 18.7139 180.897 18.3147 180.897 17.8526C180.897 17.4115 180.739 17.0754 180.423 16.8443C180.107 16.5922 179.697 16.3822 179.192 16.2142C178.688 16.0461 178.151 15.8781 177.583 15.71C177.057 15.584 176.52 15.4159 175.974 15.2059C175.447 14.9958 174.964 14.7122 174.522 14.3551C174.08 13.998 173.722 13.5464 173.449 13.0002C173.196 12.4331 173.07 11.7504 173.07 10.9521C173.07 10.0069 173.259 9.20861 173.638 8.55741C174.017 7.90621 174.512 7.38111 175.121 6.98198C175.732 6.58287 176.405 6.29929 177.141 6.13124C177.878 5.94219 178.593 5.84766 179.287 5.84766C180.487 5.88967 181.454 6.03671 182.19 6.28878C182.927 6.51985 183.621 6.82444 184.273 7.20255L184.305 10.448C183.569 10.0488 182.853 9.69173 182.159 9.37668C181.464 9.04061 180.676 8.87253 179.792 8.87253C178.971 8.87253 178.33 9.01958 177.867 9.31368C177.425 9.58674 177.204 9.97531 177.204 10.4795C177.204 10.9206 177.341 11.2777 177.614 11.5508C177.888 11.8238 178.246 12.034 178.688 12.1809C179.13 12.328 179.613 12.475 180.139 12.6221C180.666 12.7691 181.213 12.9372 181.78 13.1262C182.349 13.2943 182.874 13.5464 183.358 13.8825C183.842 14.2186 184.231 14.6702 184.526 15.2374C184.842 15.7835 184.999 16.5188 184.999 17.443C184.978 18.6613 184.652 19.6487 184.021 20.4049C183.39 21.1401 182.559 21.6757 181.528 22.0118C180.518 22.3479 179.456 22.5159 178.34 22.5159Z" fill="white" fill-opacity="0.5"/>
<path d="M36.664 22.0486L31.3621 6.16797H35.6541L39.4412 19.3703L38.2104 19.4963L41.8397 6.16797H44.9325L48.4987 19.1182H47.5204L51.2443 6.16797H55.4101L50.1082 22.0486H46.4473L42.9758 10.7053L43.6701 10.8943L40.3564 22.0486H36.664Z" fill="white" fill-opacity="0.5"/>
<path d="M63.4289 22.5209C60.82 22.5209 58.8634 21.7962 57.5589 20.3468C56.2545 18.8974 55.6023 16.8072 55.6023 14.0765C55.6023 11.1567 56.265 9.03498 57.5905 7.71163C58.937 6.38825 60.8726 5.72656 63.3974 5.72656C65.1647 5.72656 66.6374 6.04165 67.8157 6.67183C68.9938 7.28101 69.867 8.20527 70.4351 9.44466C71.0242 10.684 71.3187 12.228 71.3187 14.0765C71.3187 16.8072 70.6349 18.8974 69.2674 20.3468C67.9208 21.7962 65.9747 22.5209 63.4289 22.5209ZM63.4289 19.244C64.3547 19.244 65.1016 19.0339 65.6696 18.6138C66.2588 18.1937 66.69 17.6055 66.9636 16.8493C67.2371 16.0721 67.3738 15.1478 67.3738 14.0765C67.3738 12.8791 67.2266 11.9023 66.932 11.1461C66.6585 10.3899 66.2272 9.83323 65.6381 9.47612C65.07 9.11902 64.3336 8.94051 63.4289 8.94051C62.5032 8.94051 61.7563 9.12953 61.1883 9.50767C60.6202 9.8858 60.1994 10.453 59.9259 11.2091C59.6734 11.9653 59.5472 12.9211 59.5472 14.0765C59.5472 15.7569 59.8522 17.0383 60.4624 17.9206C61.0725 18.8028 62.0614 19.244 63.4289 19.244Z" fill="white" fill-opacity="0.5"/>
<path d="M73.7798 22.048V7.71137C74.0744 7.52234 74.5902 7.27024 75.3265 6.95516C76.0834 6.64007 76.9566 6.36699 77.9455 6.13592C78.9344 5.88385 79.9335 5.75781 80.9437 5.75781C81.7014 5.75781 82.3008 5.82083 82.7425 5.94686C83.2057 6.05189 83.5628 6.18843 83.8153 6.35649V9.38139C83.3949 9.3183 82.9111 9.26581 82.3641 9.22382C81.8376 9.18177 81.2905 9.17133 80.7228 9.19228C80.1758 9.19228 79.639 9.21331 79.1133 9.25529C78.6082 9.29735 78.1664 9.34984 77.7879 9.41285V22.048H73.7798Z" fill="white" fill-opacity="0.5"/>
<path d="M88.8365 13.063L94.9906 6.1625H99.8826L90.8879 15.1741L88.8365 13.063ZM89.6885 22.0431H85.7124V0.175781H89.7201L89.6885 22.0431ZM91.7081 11.519L100.482 22.0431H95.4007L88.8682 14.1973L91.7081 11.519Z" fill="white" fill-opacity="0.5"/>
<path fill-rule="evenodd" clip-rule="evenodd" d="M3.79408 11.8569C3.53925 13.9805 4.0331 16.1263 5.19077 17.9258C6.34843 19.7253 8.09762 21.066 10.1378 21.7176C12.178 22.3692 14.3817 22.291 16.3704 21.4963C18.359 20.7017 20.0084 19.2403 21.0352 17.3633C22.062 15.4863 22.4019 13.3108 21.9967 11.2106C21.5915 9.11049 20.4663 7.21686 18.8147 5.85508C17.527 4.7934 15.982 4.10669 14.3485 3.85557V5.54906C14.3485 6.32253 13.7205 6.94956 12.9459 6.94956C12.1712 6.94956 11.5433 6.32253 11.5433 5.54906V2.54797C11.5433 1.6708 12.2602 0.93233 13.1727 0.949513C15.886 1.00061 18.5048 1.96709 20.6009 3.69521C22.7552 5.47146 24.2228 7.94146 24.7513 10.6807C25.2799 13.4201 24.8364 16.2576 23.4972 18.706C22.1579 21.1542 20.0065 23.0604 17.4126 24.0969C14.8187 25.1333 11.9442 25.2354 9.28313 24.3854C6.62206 23.5356 4.3405 21.7868 2.83051 19.4397C1.32051 17.0925 0.676362 14.2935 1.00874 11.5236C1.34112 8.75375 2.62928 6.18596 4.65187 4.26143C5.21266 3.72782 6.1005 3.74917 6.63491 4.30912C7.16932 4.86907 7.14793 5.75556 6.58714 6.28917C5.03649 7.76464 4.0489 9.73331 3.79408 11.8569Z" fill="white" fill-opacity="0.5"/>
<path fill-rule="evenodd" clip-rule="evenodd" d="M7.94647 7.76176C8.4942 7.21483 9.38233 7.21483 9.93007 7.76176L14.3383 12.1634C14.8861 12.7103 14.8861 13.597 14.3383 14.144C13.7906 14.6909 12.9025 14.6909 12.3547 14.144L7.94647 9.74242C7.3987 9.19547 7.3987 8.30871 7.94647 7.76176Z" fill="white" fill-opacity="0.5"/>
</g>
<defs>
<clipPath id="clip0_3246_24001">
<rect width="184.076" height="24.998" fill="white" transform="translate(0.923828)"/>
</clipPath>
</defs>
</svg>
