<svg width="32" height="32" viewBox="0 0 32 32" fill="none" xmlns="http://www.w3.org/2000/svg">
<path fill-rule="evenodd" clip-rule="evenodd" d="M22.2984 26.1833H21.3167C20.4317 26.1833 19.5827 26.5347 18.957 27.1607C18.638 27.4797 18.39 27.8567 18.224 28.267H11.7347C11.327 28.2667 10.9604 28.0193 10.8077 27.6413C10.3387 26.4607 9.18336 25.6303 7.83503 25.6303C6.48703 25.6303 5.33136 26.4607 4.85236 27.6373C4.70136 28.0107 4.3387 28.2553 3.9357 28.2553C3.59936 28.267 3.1957 28.267 2.83203 28.267C2.2797 28.267 1.83203 27.8193 1.83203 27.267C1.83203 26.6117 1.83203 25.8763 1.83203 25.8763C1.83203 23.742 3.56236 22.0117 5.6967 22.0117H7.25036C7.5347 22.0117 7.8057 21.8907 7.99536 21.6787C8.71036 20.8803 10.5324 18.8447 11.482 17.7837C11.8614 17.36 12.4034 17.1177 12.9724 17.1177H22.2984V19.281H18.607V22.529L22.2984 22.5403V26.1833ZM15.324 24.813H16.3884C16.6644 24.813 16.8884 24.589 16.8884 24.313C16.8884 24.037 16.6644 23.813 16.3884 23.813H15.324C15.048 23.813 14.824 24.037 14.824 24.313C14.824 24.589 15.048 24.813 15.324 24.813ZM17.607 19.281V22.5257L11.2204 22.5053C11.089 22.505 10.9704 22.4277 10.917 22.3077C10.8634 22.1877 10.8854 22.0477 10.973 21.95C11.47 21.3947 12.2357 20.5393 12.7657 19.947C13.145 19.5233 13.687 19.281 14.256 19.281H17.607Z" fill="#FFAD00"/>
<path opacity="0.58" fill-rule="evenodd" clip-rule="evenodd" d="M23.2969 9.10352V26.1835H25.8452V9.10352C25.4392 9.21518 25.0119 9.27452 24.5709 9.27452C24.1299 9.27452 23.7025 9.21518 23.2969 9.10352Z" fill="#FFAD00"/>
<path opacity="0.58" fill-rule="evenodd" clip-rule="evenodd" d="M20.0245 2.91016H12.1172C11.8522 2.91016 11.5979 3.01549 11.4102 3.20316C11.2229 3.39049 11.1172 3.64482 11.1172 3.91016C11.1172 4.26616 11.1172 4.66682 11.1172 5.02282C11.1172 5.28816 11.2229 5.54249 11.4102 5.73016C11.5979 5.91749 11.8522 6.02282 12.1172 6.02282H20.0245C19.8572 5.53449 19.7665 5.01116 19.7665 4.46649C19.7665 3.92216 19.8572 3.39849 20.0245 2.91016Z" fill="#FFAD00"/>
<path opacity="0.58" fill-rule="evenodd" clip-rule="evenodd" d="M24.5736 0.658691C26.6753 0.658691 28.3816 2.36502 28.3816 4.46669C28.3816 6.56836 26.6753 8.27469 24.5736 8.27469C22.472 8.27469 20.7656 6.56836 20.7656 4.46669C20.7656 2.36502 22.472 0.658691 24.5736 0.658691ZM24.5736 2.32969C23.3943 2.32969 22.4366 3.28736 22.4366 4.46669C22.4366 5.64636 23.3943 6.60402 24.5736 6.60402C25.7533 6.60402 26.711 5.64636 26.711 4.46669C26.711 3.28736 25.7533 2.32969 24.5736 2.32969ZM24.5736 3.32969C25.2013 3.32969 25.711 3.83902 25.711 4.46669C25.711 5.09436 25.2013 5.60402 24.5736 5.60402C23.946 5.60402 23.4366 5.09436 23.4366 4.46669C23.4366 3.83902 23.946 3.32969 24.5736 3.32969Z" fill="#FFAD00"/>
<path fill-rule="evenodd" clip-rule="evenodd" d="M13.5027 7.02246V11.4631H9.59375C8.76542 11.4631 8.09375 12.1348 8.09375 12.9631V14.5511C8.09375 14.8271 8.31775 15.0511 8.59375 15.0511C8.86975 15.0511 9.09375 14.8271 9.09375 14.5511V12.9631C9.09375 12.6871 9.31775 12.4631 9.59375 12.4631H18.4118C18.6878 12.4631 18.9118 12.6871 18.9118 12.9631V14.5511C18.9118 14.8271 19.1358 15.0511 19.4118 15.0511C19.6878 15.0511 19.9118 14.8271 19.9118 14.5511C19.9118 14.5511 19.9118 13.6915 19.9118 12.9631C19.9118 12.1348 19.2401 11.4631 18.4118 11.4631H14.5027V7.02246H13.5027Z" fill="#FFAD00"/>
<path opacity="0.58" fill-rule="evenodd" clip-rule="evenodd" d="M30.1661 29.5201C30.1661 28.9001 29.9198 28.3058 29.4815 27.8674C29.0435 27.4291 28.4488 27.1831 27.8291 27.1831C25.9178 27.1831 23.2285 27.1831 21.3175 27.1831C20.6975 27.1831 20.1031 27.4291 19.6648 27.8674C19.2265 28.3058 18.9805 28.9001 18.9805 29.5201C18.9805 29.8081 18.9805 30.0894 18.9805 30.3414C18.9805 30.6068 19.0858 30.8611 19.2731 31.0484C19.4608 31.2361 19.7151 31.3414 19.9805 31.3414C22.1038 31.3414 27.0425 31.3414 29.1661 31.3414C29.4315 31.3414 29.6858 31.2361 29.8731 31.0484C30.0608 30.8611 30.1661 30.6068 30.1661 30.3414C30.1661 30.0894 30.1661 29.8081 30.1661 29.5201Z" fill="#FFAD00"/>
</svg>
