<svg width="31" height="32" viewBox="0 0 31 32" fill="none" xmlns="http://www.w3.org/2000/svg">
<path opacity="0.58" d="M8.88718 17.7776H21.3421C21.8104 17.7762 22.2591 17.5883 22.5902 17.255C22.9214 16.9217 23.108 16.4701 23.1094 15.9987V10.6728C23.1094 10.2005 22.9233 9.74751 22.5921 9.41308C22.2608 9.07865 21.8113 8.89006 21.3421 8.88867H8.88718C8.41659 8.88867 7.9652 9.07647 7.63195 9.4109C7.2987 9.74533 7.11079 10.1991 7.10941 10.6728V15.9829C7.10802 16.2186 7.15303 16.4521 7.24181 16.6701C7.3306 16.8881 7.46141 17.0863 7.6267 17.2532C7.79199 17.42 7.98848 17.5523 8.20482 17.6423C8.42117 17.7323 8.65308 17.7783 8.88718 17.7776ZM22.0845 15.9829C22.0818 16.1798 22.0025 16.3677 21.8637 16.5065C21.7249 16.6452 21.5377 16.7236 21.3421 16.725H8.88718C8.78855 16.7257 8.69076 16.7067 8.59944 16.6692C8.50812 16.6317 8.42507 16.5764 8.35509 16.5064C8.2851 16.4365 8.22956 16.3533 8.19165 16.2616C8.15375 16.17 8.13424 16.0717 8.13424 15.9724V10.6728C8.13695 10.4726 8.21714 10.2814 8.35776 10.1399C8.49839 9.99836 8.68833 9.91764 8.88718 9.91492H21.3421C21.4402 9.91561 21.5373 9.93576 21.6278 9.97422C21.7183 10.0127 21.8003 10.0687 21.8692 10.1391C21.9382 10.2094 21.9927 10.2928 22.0296 10.3844C22.0666 10.4759 22.0852 10.5739 22.0845 10.6728V15.9829Z" fill="#FFAD00"/>
<path opacity="0.58" d="M17.2437 18.6665C17.0989 18.6665 16.96 18.7412 16.8577 18.8742C16.7553 19.0072 16.6978 19.1876 16.6978 19.3757C16.6978 19.5261 16.6518 19.6704 16.5699 19.7768C16.488 19.8832 16.3769 19.943 16.2611 19.943H13.9738C13.858 19.943 13.7469 19.8832 13.665 19.7768C13.5831 19.6704 13.5371 19.5261 13.5371 19.3757C13.5371 19.1876 13.4796 19.0072 13.3772 18.8742C13.2748 18.7412 13.136 18.6665 12.9912 18.6665C12.8464 18.6665 12.7076 18.7412 12.6052 18.8742C12.5028 19.0072 12.4453 19.1876 12.4453 19.3757C12.4453 19.8936 12.6033 20.3903 12.8847 20.7572C13.166 21.124 13.5479 21.3311 13.9465 21.333H16.2447C16.4446 21.3367 16.6432 21.2889 16.8288 21.1923C17.0144 21.0957 17.1835 20.9523 17.3261 20.7702C17.4688 20.5882 17.5822 20.3712 17.6599 20.1318C17.7376 19.8925 17.7779 19.6354 17.7786 19.3757C17.7787 19.19 17.7227 19.0118 17.6226 18.8792C17.5226 18.7466 17.3866 18.6702 17.2437 18.6665Z" fill="#FFAD00"/>
<path d="M27.1087 26.5706H26.8129V26.5106C26.8116 26.0178 26.6147 25.5455 26.2652 25.197C25.9157 24.8485 25.4421 24.6521 24.9478 24.6508H18.8212V22.911H19.9793C21.1863 22.9097 22.3434 22.431 23.1969 21.58C24.0503 20.7289 24.5304 19.5751 24.5317 18.3715V17.1367H26.1411C26.2771 17.1373 26.412 17.1112 26.5379 17.0597C26.6637 17.0082 26.7782 16.9325 26.8746 16.8368C26.9711 16.7411 27.0476 16.6273 27.0998 16.5021C27.152 16.3768 27.1789 16.2424 27.1789 16.1068V12.1072C27.1789 11.9716 27.152 11.8372 27.0998 11.7119C27.0476 11.5867 26.9711 11.4729 26.8746 11.3772C26.7782 11.2815 26.6637 11.2058 26.5379 11.1543C26.412 11.1028 26.2771 11.0767 26.1411 11.0773H24.5317V9.30753C24.5304 8.10445 24.0502 6.9511 23.1966 6.10086C22.343 5.25062 21.1858 4.77304 19.9793 4.77304H10.0072C8.80075 4.77304 7.64359 5.25062 6.79 6.10086C5.93641 6.9511 5.4562 8.10445 5.45487 9.30753V11.0773H4.70784V3.76315C5.15717 3.64196 5.54705 3.36215 5.80497 2.97577C6.06289 2.58938 6.17128 2.12273 6.10997 1.66262C6.04867 1.20251 5.82186 0.780262 5.47172 0.474429C5.12158 0.168597 4.67195 0 4.20648 0C3.74101 0 3.29139 0.168597 2.94125 0.474429C2.59111 0.780262 2.36429 1.20251 2.30299 1.66262C2.24169 2.12273 2.35008 2.58938 2.608 2.97577C2.86591 3.36215 3.2558 3.64196 3.70512 3.76315V11.0873C3.45153 11.1051 3.21416 11.2182 3.04104 11.4038C2.86792 11.5895 2.77196 11.8337 2.77259 12.0872V16.0868C2.76845 16.2227 2.79217 16.3581 2.84229 16.4846C2.89241 16.611 2.96789 16.726 3.06409 16.8224C3.1603 16.9188 3.27522 16.9946 3.40182 17.0452C3.52842 17.0958 3.66403 17.1201 3.80038 17.1167H5.43482V18.3515C5.43615 19.5551 5.9162 20.7089 6.76964 21.56C7.62309 22.411 8.78023 22.8897 9.98719 22.891H11.401V24.6208H5.27438C5.0271 24.6215 4.7824 24.671 4.55444 24.7666C4.32648 24.8621 4.1198 25.0018 3.94635 25.1776C3.77289 25.3533 3.63612 25.5617 3.54394 25.7905C3.45176 26.0193 3.406 26.264 3.40932 26.5106V26.5806H3.11351C2.28731 26.5819 1.4954 26.9101 0.91166 27.4932C0.327916 28.0762 5.22849e-05 28.8664 5.33526e-05 29.6903V31.5101C-0.000630011 31.5424 0.00525738 31.5746 0.0173614 31.6046C0.0294654 31.6346 0.0475359 31.6619 0.0704859 31.6848C0.0934358 31.7077 0.120791 31.7257 0.150906 31.7378C0.18102 31.7498 0.213272 31.7557 0.245721 31.755H3.48452C3.52711 31.8268 3.58704 31.8868 3.65885 31.9296C3.73066 31.9724 3.81206 31.9966 3.89564 32H26.3266C26.4102 31.9966 26.4916 31.9724 26.5634 31.9296C26.6352 31.8868 26.6951 31.8268 26.7377 31.755H29.9765C30.0089 31.7557 30.0412 31.7498 30.0713 31.7378C30.1014 31.7257 30.1288 31.7077 30.1517 31.6848C30.1747 31.6619 30.1928 31.6346 30.2049 31.6046C30.217 31.5746 30.2229 31.5424 30.2222 31.5101V29.6803C30.2222 28.8564 29.8943 28.0662 29.3106 27.4832C28.7268 26.9001 27.9349 26.5719 27.1087 26.5706ZM15.1111 27.7655C14.1982 27.7675 13.3172 28.1003 12.6319 28.7017C11.9467 29.3032 11.5039 30.1324 11.386 31.0351H4.36692V26.5106C4.36692 26.3944 4.38987 26.2793 4.43447 26.172C4.47906 26.0646 4.54443 25.9671 4.62683 25.8849C4.70924 25.8027 4.80707 25.7375 4.91473 25.6931C5.0224 25.6486 5.13779 25.6257 5.25433 25.6257H24.9478C25.0644 25.6257 25.1798 25.6486 25.2874 25.6931C25.3951 25.7375 25.4929 25.8027 25.5753 25.8849C25.6577 25.9671 25.7231 26.0646 25.7677 26.172C25.8123 26.2793 25.8352 26.3944 25.8352 26.5106V31.0451H18.8162C18.702 30.1436 18.2634 29.3141 17.5819 28.7108C16.9004 28.1076 16.0224 27.7716 15.1111 27.7655ZM9.64626 5.76793C9.75208 6.35407 10.0611 6.8845 10.5193 7.26649C10.9775 7.64848 11.5558 7.85774 12.1531 7.8577H17.7733C18.3708 7.85557 18.9486 7.6449 19.4065 7.26225C19.8645 6.8796 20.1736 6.34913 20.2802 5.76293C21.1669 5.84702 21.9909 6.25595 22.5928 6.91066C23.1947 7.56536 23.5318 8.41935 23.539 9.30753V18.3715C23.5377 19.316 23.1605 20.2214 22.4902 20.8888C21.82 21.5563 20.9115 21.9311 19.9643 21.9311H10.0072C9.53846 21.9311 9.07427 21.8391 8.64118 21.6602C8.20808 21.4813 7.81456 21.2191 7.48308 20.8885C6.81364 20.221 6.43754 19.3156 6.43754 18.3715V9.30753C6.43573 8.42545 6.76333 7.57429 7.35652 6.91993C7.94971 6.26557 8.76598 5.85489 9.64626 5.76793Z" fill="#FFAD00"/>
<path opacity="0.58" d="M11.5551 11.5557C11.2035 11.5557 10.8598 11.6599 10.5674 11.8553C10.2751 12.0506 10.0472 12.3283 9.91267 12.6531C9.77811 12.978 9.74291 13.3354 9.8115 13.6803C9.8801 14.0251 10.0494 14.3419 10.298 14.5905C10.5467 14.8391 10.8634 15.0085 11.2083 15.0771C11.5531 15.1457 11.9106 15.1104 12.2354 14.9759C12.5603 14.8413 12.8379 14.6135 13.0333 14.3211C13.2286 14.0288 13.3329 13.6851 13.3329 13.3334C13.3316 12.8624 13.1439 12.4109 12.8107 12.0778C12.4776 11.7447 12.0262 11.557 11.5551 11.5557Z" fill="#FFAD00"/>
<path opacity="0.58" d="M18.6684 11.5557C18.3168 11.5557 17.9731 11.6599 17.6807 11.8553C17.3884 12.0506 17.1605 12.3283 17.026 12.6531C16.8914 12.978 16.8562 13.3354 16.9248 13.6803C16.9934 14.0251 17.1627 14.3419 17.4113 14.5905C17.66 14.8391 17.9767 15.0085 18.3216 15.0771C18.6664 15.1457 19.0239 15.1104 19.3487 14.9759C19.6736 14.8413 19.9512 14.6135 20.1466 14.3211C20.3419 14.0288 20.4462 13.6851 20.4462 13.3334C20.4449 12.8624 20.2571 12.4109 19.924 12.0778C19.5909 11.7447 19.1395 11.557 18.6684 11.5557Z" fill="#FFAD00"/>
</svg>
