<svg width="31" height="26" viewBox="0 0 31 26" fill="none" xmlns="http://www.w3.org/2000/svg">
<path opacity="0.58" d="M18.5038 8.71795C18.3406 9.17507 18.0467 9.73014 17.459 10.4485C17.0672 10.8729 17.5243 11.526 18.0794 11.3301C19.2222 10.9056 20.4956 10.3179 21.7037 9.73014C22.0629 9.76279 22.422 9.79544 22.8138 9.79544C26.6014 9.79544 29.6707 7.60779 29.6707 4.89772C29.6707 2.18765 26.6014 0 22.8138 0C19.0263 0 15.957 2.18765 15.957 4.89772C15.957 6.43234 16.9366 7.8037 18.5038 8.71795ZM26.1769 3.82022C26.7647 3.82022 27.2544 4.31 27.2544 4.89772C27.2544 5.48545 26.7647 5.97522 26.1769 5.97522C25.5892 5.97522 25.0994 5.48545 25.0994 4.89772C25.1321 4.31 25.5892 3.82022 26.1769 3.82022ZM22.7812 3.82022C23.3689 3.82022 23.8587 4.31 23.8587 4.89772C23.8587 5.48545 23.3689 5.97522 22.7812 5.97522C22.1935 5.97522 21.7037 5.48545 21.7037 4.89772C21.7363 4.31 22.1935 3.82022 22.7812 3.82022ZM19.4181 3.82022C20.0058 3.82022 20.4956 4.31 20.4956 4.89772C20.4956 5.48545 20.0058 5.97522 19.4181 5.97522C18.8304 5.97522 18.3406 5.48545 18.3406 4.89772C18.3406 4.31 18.8304 3.82022 19.4181 3.82022Z" fill="#FFAD00"/>
<path d="M15.9916 12.7668C15.5344 12.1464 14.9141 11.624 14.1631 11.3628H14.0978C13.3794 11.8852 12.5305 12.1791 11.5836 12.1791C10.6367 12.1791 9.75513 11.8852 9.06945 11.3628L8.97149 11.3954C7.66543 11.8526 6.68589 13.028 6.52263 14.4973L6.35938 15.9993H14.3916C14.4243 14.6932 15.0447 13.5504 15.9916 12.7668Z" fill="#FFAD00"/>
<path d="M11.5818 11.036C13.345 11.036 14.749 9.59938 14.749 7.86885C14.749 6.10567 13.3123 4.70166 11.5818 4.70166C9.81862 4.70166 8.41461 6.13832 8.41461 7.86885C8.38196 9.63203 9.81862 11.036 11.5818 11.036Z" fill="#FFAD00"/>
<path opacity="0.58" d="M15.2713 18.7415C14.9121 18.2843 14.6509 17.7293 14.4877 17.1089H6.03094C5.90033 17.1089 5.76972 17.1742 5.67177 17.2721L0.153671 23.0188C-0.172844 23.3453 0.0557168 23.9004 0.512837 23.9004H12.3653L12.4959 22.5943C12.6918 20.8965 13.7367 19.4598 15.2713 18.7415Z" fill="#FFAD00"/>
<path opacity="0.58" d="M30.8443 23.0188L25.3589 17.2721C25.2609 17.1742 25.1303 17.1089 24.9997 17.1089H22.8774C22.7468 17.6966 22.4529 18.2517 22.0938 18.7415C23.6284 19.4598 24.6732 20.8965 24.8691 22.5943L24.9997 23.8677H30.4852C30.9423 23.9004 31.1709 23.3453 30.8443 23.0188Z" fill="#FFAD00"/>
<path d="M21.2789 19.6235L21.2136 19.5908C20.4953 20.1132 19.6463 20.4071 18.6994 20.4071C17.7525 20.4071 16.871 20.1132 16.1853 19.5908L16.0873 19.6235C14.7813 20.0806 13.8017 21.256 13.6385 22.7254L13.3773 25.1742C13.3446 25.5987 13.6711 25.9905 14.0956 25.9905H23.2706C23.6951 25.9905 24.0543 25.6313 23.989 25.1742L23.7604 22.7254C23.5645 21.2887 22.585 20.1132 21.2789 19.6235Z" fill="#FFAD00"/>
<path d="M18.6672 12.9629C16.904 12.9629 15.5 14.3996 15.5 16.1301C15.5 17.8933 16.904 19.2973 18.6672 19.2973C20.4304 19.2973 21.8344 17.8606 21.8344 16.1301C21.8344 14.3996 20.4304 12.9629 18.6672 12.9629Z" fill="#FFAD00"/>
</svg>
