<svg width="31" height="34" viewBox="0 0 31 34" fill="none" xmlns="http://www.w3.org/2000/svg">
<path d="M29.8496 24.8514L28.8752 24.62C28.3985 24.5079 28.111 24.0312 28.2232 23.5545C28.2442 23.4633 28.2793 23.3792 28.3284 23.3021L28.8541 22.4398C28.9873 22.2155 28.9593 21.9351 28.77 21.7528L27.5222 20.505C27.3399 20.3227 27.0525 20.2877 26.8352 20.4209L25.9729 20.9467C25.5593 21.199 25.0125 21.0728 24.7601 20.6522C24.7111 20.5751 24.676 20.484 24.655 20.3999L24.4237 19.4254C24.3606 19.1731 24.1362 18.9978 23.8769 18.9978H22.9725C23.3511 18.437 23.5544 17.778 23.5544 17.098V3.36492C23.5544 1.50721 22.0472 0 20.1895 0C19.9581 0 19.7338 0.0210308 19.5095 0.0701026L5.88852 2.87421C4.41637 3.18266 3.32277 4.43048 3.2106 5.93068L2.81102 11.5599L0.0489768 17.6378C-0.0772078 17.9182 0.0489768 18.2547 0.329387 18.3809C0.39949 18.416 0.483613 18.43 0.560726 18.43H2.80401V25.1879C2.80401 26.1202 3.55411 26.8703 4.48647 26.8703C4.70379 26.8703 4.9141 26.8283 5.11038 26.7512L9.53386 24.9846V33.5721H10.6555V24.5289L14.7916 22.8745L14.3779 21.8299L4.68977 25.7066C4.40235 25.8188 4.07287 25.6786 3.9607 25.3912C3.93266 25.3281 3.91864 25.251 3.91864 25.1809V17.8692C3.91864 17.5607 3.66627 17.3083 3.35782 17.3083H1.42299L3.86957 11.9315C3.89761 11.8684 3.91163 11.8053 3.91864 11.7422L4.32524 6.00779C4.40235 5.00533 5.12441 4.17811 6.11285 3.96781L19.7338 1.1637C20.9466 0.911334 22.1313 1.69648 22.3837 2.90926C22.4117 3.05647 22.4327 3.2107 22.4327 3.36492V17.091C22.4327 18.0094 21.8789 18.8366 21.0237 19.1731L21.4022 20.1124L21.3321 20.3928C21.22 20.8695 20.7433 21.157 20.2666 21.0448C20.1754 21.0238 20.0913 20.9887 20.0142 20.9396L19.1519 20.4139C18.9276 20.2807 18.6472 20.3087 18.4649 20.498L17.2171 21.7458C17.0348 21.9281 16.9998 22.2155 17.133 22.4328L17.6588 23.2951C17.9111 23.7087 17.7849 24.2555 17.3643 24.5079C17.2872 24.5569 17.1961 24.592 17.1119 24.613L16.1375 24.8444C15.8852 24.9075 15.7099 25.1318 15.7099 25.3912V27.1577C15.7099 27.4171 15.8852 27.6415 16.1375 27.7045L17.1119 27.9359C17.5886 28.048 17.8761 28.5247 17.7639 29.0014C17.7429 29.0926 17.7078 29.1767 17.6588 29.2538L17.133 30.1161C16.9998 30.3404 17.0278 30.6208 17.2171 30.8031L18.4649 32.0509C18.6472 32.2332 18.9346 32.2682 19.1519 32.135L20.0142 31.6093C20.4278 31.3569 20.9746 31.4831 21.227 31.9037C21.276 31.9808 21.3111 32.0719 21.3321 32.1561L21.5635 33.1305C21.6266 33.3829 21.8509 33.5581 22.1103 33.5581H23.8769C24.1362 33.5581 24.3606 33.3829 24.4237 33.1305L24.655 32.1561C24.7672 31.6794 25.2439 31.3919 25.7206 31.5041C25.8117 31.5251 25.8958 31.5602 25.9729 31.6093L26.8352 32.135C27.0595 32.2682 27.3399 32.2402 27.5222 32.0509L28.77 30.8031C28.9523 30.6208 28.9873 30.3334 28.8541 30.1161L28.3284 29.2538C28.076 28.8402 28.2022 28.2934 28.6228 28.041C28.6999 27.992 28.791 27.9569 28.8752 27.9359L29.8496 27.7045C30.102 27.6415 30.2772 27.4171 30.2772 27.1577V25.3912C30.2772 25.1388 30.102 24.9145 29.8496 24.8514ZM24.669 26.2815C24.669 27.2138 23.9189 27.9639 22.9865 27.9639C22.0542 27.9639 21.3041 27.2138 21.3041 26.2815C21.3041 25.3491 22.0542 24.599 22.9865 24.599C23.9119 24.599 24.669 25.3561 24.669 26.2815Z" fill="#FFAD00"/>
<path opacity="0.58" d="M6.71902 19.552C6.71902 20.4844 7.46912 21.2345 8.40148 21.2345C9.33385 21.2345 10.0839 20.4844 10.0839 19.552C10.0839 18.837 9.63529 18.2061 8.9623 17.9677V10.5789C8.9623 10.4317 8.90622 10.2845 8.80107 10.1793L6.55778 7.93604L5.76562 8.72819L7.84767 10.8102V17.9677C7.16768 18.2061 6.71902 18.837 6.71902 19.552Z" fill="#FFAD00"/>
<path opacity="0.58" d="M15.6955 17.8693C15.6955 18.8017 16.4456 19.5518 17.378 19.5518C18.3104 19.5518 19.0605 18.8017 19.0605 17.8693C19.0605 16.937 18.3104 16.1869 17.378 16.1869C17.1256 16.1869 16.8803 16.2429 16.6489 16.3481L14.0131 13.7122V6.32343L16.0951 4.24138L15.303 3.44922L13.0597 5.6925C12.9545 5.79766 12.8984 5.93786 12.8984 6.09209V13.9436C12.8984 14.0908 12.9545 14.238 13.0597 14.3432L15.8638 17.1473C15.7516 17.3716 15.6955 17.617 15.6955 17.8693Z" fill="#FFAD00"/>
<path opacity="0.58" d="M20.5805 3.68767L19.7884 2.89551L16.9843 5.69961C16.8791 5.80477 16.823 5.94497 16.823 6.0992V11.8055C15.9468 12.114 15.4911 13.0744 15.7995 13.9507C16.108 14.827 17.0684 15.2826 17.9447 14.9742C18.821 14.6657 19.2766 13.7053 18.9682 12.829C18.7999 12.3523 18.4214 11.9738 17.9447 11.8055V6.33053L20.5805 3.68767Z" fill="#FFAD00"/>
<path opacity="0.58" d="M12.3292 19.5519C13.2616 19.5519 14.0117 18.8018 14.0117 17.8695C14.0117 16.9371 13.2616 16.187 12.3292 16.187C12.0769 16.187 11.8315 16.2431 11.6002 16.3483L11.2006 15.9487V7.7747C11.2006 7.62749 11.1445 7.48027 11.0393 7.37512L8.79607 5.13184L8.00391 5.92399L10.086 8.00604V16.187C10.086 16.3342 10.142 16.4814 10.2472 16.5866L10.808 17.1474C10.4084 17.9887 10.7589 18.9911 11.6002 19.3907C11.8315 19.4959 12.0769 19.5519 12.3292 19.5519Z" fill="#FFAD00"/>
<path opacity="0.58" d="M29.8305 20.4772L30.6857 19.7482C30.3282 19.3276 29.9427 18.942 29.522 18.5845L28.793 19.4397C29.1645 19.7552 29.515 20.1057 29.8305 20.4772Z" fill="#FFAD00"/>
<path opacity="0.58" d="M28.3278 17.7153C27.2412 17.0353 26.0284 16.5656 24.7666 16.3413L24.5703 17.4489C25.692 17.6452 26.7715 18.0658 27.7389 18.6687L28.3278 17.7153Z" fill="#FFAD00"/>
<path opacity="0.58" d="M14.1502 24.6973L13.0425 24.501C12.9724 24.8936 12.9234 25.2931 12.9023 25.6857L14.024 25.7488C14.045 25.3983 14.0871 25.0478 14.1502 24.6973Z" fill="#FFAD00"/>
<path opacity="0.58" d="M14.024 26.8076L12.9023 26.8707C13.0706 29.6328 14.3605 32.2125 16.4776 34.0001L17.1996 33.1449C15.3209 31.5536 14.1712 29.2682 14.024 26.8076Z" fill="#FFAD00"/>
</svg>
