<svg width="32" height="26" viewBox="0 0 32 26" fill="none" xmlns="http://www.w3.org/2000/svg">
<path opacity="0.58" d="M18.5087 8.72103C18.3453 9.17831 18.0514 9.73359 17.4634 10.4522C17.0715 10.8768 17.5288 11.5301 18.084 11.3341C19.2272 10.9095 20.5011 10.3215 21.7096 9.73359C22.0689 9.76625 22.4282 9.79891 22.8202 9.79891C26.6091 9.79891 29.6794 7.61049 29.6794 4.89946C29.6794 2.18842 26.6091 0 22.8202 0C19.0313 0 15.9609 2.18842 15.9609 4.89946C15.9609 6.43462 16.9408 7.80647 18.5087 8.72103ZM26.1845 3.82158C26.7724 3.82158 27.2623 4.31152 27.2623 4.89946C27.2623 5.48739 26.7724 5.97734 26.1845 5.97734C25.5965 5.97734 25.1066 5.48739 25.1066 4.89946C25.1393 4.31152 25.5965 3.82158 26.1845 3.82158ZM22.7875 3.82158C23.3754 3.82158 23.8654 4.31152 23.8654 4.89946C23.8654 5.48739 23.3754 5.97734 22.7875 5.97734C22.1996 5.97734 21.7096 5.48739 21.7096 4.89946C21.7423 4.31152 22.1996 3.82158 22.7875 3.82158ZM19.4232 3.82158C20.0112 3.82158 20.5011 4.31152 20.5011 4.89946C20.5011 5.48739 20.0112 5.97734 19.4232 5.97734C18.8353 5.97734 18.3453 5.48739 18.3453 4.89946C18.3453 4.31152 18.8353 3.82158 19.4232 3.82158Z" fill="#FFAD00"/>
<path d="M15.995 12.7717C15.5377 12.1511 14.9171 11.6285 14.1658 11.3672H14.1005C13.3819 11.8898 12.5327 12.1838 11.5855 12.1838C10.6382 12.1838 9.75633 11.8898 9.07041 11.3672L8.97242 11.3999C7.6659 11.8571 6.68601 13.033 6.52269 14.5028L6.35938 16.0053H14.3945C14.4271 14.6988 15.0477 13.5556 15.995 12.7717Z" fill="#FFAD00"/>
<path d="M11.5868 11.0398C13.3506 11.0398 14.7551 9.60258 14.7551 7.87144C14.7551 6.10764 13.318 4.70312 11.5868 4.70312C9.82303 4.70312 8.41851 6.1403 8.41851 7.87144C8.38585 9.63524 9.82303 11.0398 11.5868 11.0398Z" fill="#FFAD00"/>
<path opacity="0.58" d="M15.2767 18.7484C14.9174 18.2911 14.6561 17.7358 14.4928 17.1152H6.03307C5.90242 17.1152 5.77177 17.1806 5.67378 17.2785L0.153726 23.0272C-0.172905 23.3539 0.0557365 23.9091 0.513019 23.9091H12.3697L12.5004 22.6026C12.6963 20.9041 13.7415 19.467 15.2767 18.7484Z" fill="#FFAD00"/>
<path opacity="0.58" d="M30.8553 23.0272L25.3679 17.2785C25.2699 17.1806 25.1392 17.1152 25.0086 17.1152H22.8855C22.7548 17.7032 22.4609 18.2584 22.1016 18.7484C23.6367 19.467 24.6819 20.9041 24.8779 22.6026L25.0086 23.8765H30.496C30.9532 23.9091 31.1819 23.3539 30.8553 23.0272Z" fill="#FFAD00"/>
<path d="M21.2856 19.6303L21.2203 19.5977C20.5017 20.1203 19.6525 20.4142 18.7052 20.4142C17.758 20.4142 16.8761 20.1203 16.1902 19.5977L16.0922 19.6303C14.7857 20.0876 13.8058 21.2635 13.6425 22.7333L13.3812 25.183C13.3485 25.6077 13.6751 25.9996 14.0997 25.9996H23.2781C23.7027 25.9996 24.062 25.6403 23.9966 25.183L23.768 22.7333C23.572 21.2961 22.5921 20.1203 21.2856 19.6303Z" fill="#FFAD00"/>
<path d="M18.6722 12.9673C16.9084 12.9673 15.5039 14.4045 15.5039 16.1356C15.5039 17.8994 16.9084 19.3039 18.6722 19.3039C20.436 19.3039 21.8405 17.8667 21.8405 16.1356C21.8405 14.4045 20.436 12.9673 18.6722 12.9673Z" fill="#FFAD00"/>
</svg>
