<svg width="32" height="32" viewBox="0 0 32 32" fill="none" xmlns="http://www.w3.org/2000/svg">
<path d="M18.3719 11.0676C18.4447 11.1672 18.5606 11.2259 18.6839 11.2259H19.4422C19.5864 11.6146 19.9087 11.9105 20.3083 12.0211C20.7081 12.1317 21.1367 12.0434 21.4601 11.7842C21.7839 11.5248 21.9631 11.1257 21.9422 10.7114C21.9212 10.2973 21.7025 9.91828 21.3544 9.6929C21.0065 9.46732 20.5712 9.42285 20.1846 9.57309C19.7982 9.72355 19.5074 10.0503 19.403 10.4517H18.8799L17.8604 9.06162C17.7876 8.96208 17.6717 8.90332 17.5484 8.90332H16V9.67751H17.3523L18.3719 11.0676Z" fill="#FFB81D" fill-opacity="0.5"/>
<path d="M22.704 13.0313C22.4065 13.0313 22.1181 13.1341 21.8876 13.3226C21.6572 13.5108 21.4989 13.7728 21.4397 14.0645H19.5925L18.4706 12.6613C18.3971 12.5696 18.2858 12.5161 18.168 12.5161H16.1035V13.2903H17.9821L19.104 14.6935H19.1043C19.1778 14.7852 19.289 14.8387 19.4066 14.8387H21.5232C21.6483 15.1239 21.8722 15.3544 22.1538 15.4873C22.4356 15.6203 22.7556 15.647 23.0554 15.5622C23.3552 15.4774 23.6139 15.2871 23.7844 15.0265C23.9547 14.7656 24.025 14.452 23.9821 14.1437C23.9392 13.8352 23.7862 13.5525 23.5515 13.3481C23.3164 13.1438 23.0155 13.0311 22.704 13.0313Z" fill="#FFB81D" fill-opacity="0.5"/>
<path d="M20.7578 19.9346C20.4951 19.9349 20.2391 20.0157 20.0237 20.1657C19.8083 20.316 19.644 20.5284 19.5527 20.7747H18.6839C18.5606 20.7747 18.4447 20.8335 18.3719 20.933L17.3523 22.3231H16V23.0973H17.5484C17.6717 23.0973 17.7876 23.0385 17.8604 22.939L18.88 21.5489H19.5136C19.5954 21.8611 19.7912 22.1314 20.0627 22.306C20.3341 22.4807 20.6613 22.5473 20.9792 22.4922C21.2975 22.4371 21.5831 22.2648 21.7802 22.0093C21.9774 21.7535 22.0712 21.4332 22.0433 21.1116C22.0154 20.7901 21.8679 20.4906 21.6299 20.2726C21.3919 20.0546 21.0806 19.9339 20.7578 19.9346Z" fill="#FFB81D" fill-opacity="0.5"/>
<path d="M22.536 16.2583C22.2622 16.259 21.9961 16.3468 21.7758 16.5092C21.5555 16.6717 21.3929 16.9003 21.3113 17.1616H19.3039C19.1864 17.1616 19.0751 17.215 19.0014 17.3067L17.8791 18.71H16.0005V19.4842H18.065C18.1825 19.4842 18.2938 19.4307 18.3675 19.339L19.4899 17.9358H21.3113C21.4079 18.2397 21.6136 18.4971 21.889 18.6579C22.1643 18.8187 22.4894 18.8717 22.8017 18.8065C23.1139 18.7415 23.3906 18.5629 23.5786 18.3053C23.7666 18.0477 23.8526 17.7298 23.8194 17.4125C23.7865 17.0954 23.6369 16.8018 23.3998 16.5885C23.1627 16.3754 22.8549 16.2576 22.536 16.2583Z" fill="#FFB81D" fill-opacity="0.5"/>
<path d="M30.6582 12.9197C30.3287 12.9142 30.0095 12.8031 29.7478 12.6029C29.4858 12.4029 29.295 12.1241 29.2033 11.8078C28.9648 11.0582 28.6625 10.3306 28.2996 9.63266C28.1402 9.34349 28.0777 9.011 28.1213 8.68357C28.1648 8.35638 28.3123 8.05177 28.5418 7.81447L29.2805 7.07578V7.07555C28.1226 5.3564 26.6436 3.87738 24.9245 2.71954L24.1855 3.45846C23.9482 3.68795 23.6436 3.83518 23.3164 3.87873C22.989 3.92228 22.6565 3.85984 22.3673 3.70039C21.6697 3.33749 20.9418 3.03521 20.1925 2.79696C19.8759 2.70503 19.5971 2.51424 19.3971 2.25226C19.1969 1.99051 19.0858 1.67138 19.0803 1.34186V0.30294C17.0466 -0.10098 14.9535 -0.10098 12.9197 0.30294V1.34186C12.9142 1.67136 12.8032 1.99048 12.6029 2.25226C12.4029 2.51424 12.1241 2.70503 11.8076 2.79696C11.0582 3.03521 10.3304 3.33752 9.63267 3.70039C9.3435 3.85984 9.01101 3.92228 8.68358 3.87873C8.35639 3.83519 8.05178 3.68772 7.81448 3.45846L7.07556 2.71954C5.3564 3.87738 3.87738 5.3564 2.71954 7.07555L3.45823 7.81424V7.81447C3.68772 8.05179 3.83518 8.3564 3.87873 8.68357C3.92228 9.01099 3.85984 9.34351 3.70039 9.63266C3.33749 10.3306 3.03521 11.0582 2.79696 11.8078C2.70502 12.1241 2.51424 12.4029 2.25226 12.6029C1.99051 12.8031 1.67138 12.9142 1.34186 12.9197H0.30294C-0.10098 14.9534 -0.10098 17.0465 0.30294 19.0803H1.34186C1.67136 19.0858 1.99048 19.1968 2.25226 19.3968C2.51424 19.5971 2.70502 19.8759 2.79696 20.1922C3.03521 20.9418 3.33752 21.6694 3.70039 22.3673C3.85984 22.6565 3.92228 22.989 3.87873 23.3162C3.83519 23.6436 3.68795 23.9482 3.45846 24.1855L2.71954 24.9242C3.87738 26.6434 5.3564 28.1226 7.07555 29.2805L7.81447 28.5415C8.0518 28.312 8.35641 28.1648 8.68358 28.1213C9.011 28.0777 9.34351 28.1402 9.63266 28.2996C10.3304 28.6625 11.0582 28.9648 11.8075 29.203C12.1241 29.295 12.403 29.4858 12.6029 29.7477C12.8031 30.0095 12.9142 30.3286 12.9197 30.6581V31.6971C14.9534 32.101 17.0465 32.101 19.0803 31.6971V30.6581C19.0858 30.3286 19.1969 30.0095 19.3971 29.7477C19.5971 29.4858 19.8759 29.295 20.1925 29.203C20.9418 28.9648 21.6696 28.6625 22.3673 28.2996C22.6565 28.1402 22.989 28.0777 23.3164 28.1213C23.6436 28.1648 23.9482 28.312 24.1855 28.5415L24.9244 29.2805C26.6436 28.1226 28.1226 26.6434 29.2805 24.9242L28.5418 24.1855C28.3123 23.9482 28.1648 23.6436 28.1213 23.3162C28.0777 22.989 28.1402 22.6565 28.2996 22.3673C28.6625 21.6694 28.9648 20.9418 29.2033 20.1925C29.295 19.8759 29.4858 19.597 29.7478 19.3971C30.0095 19.1969 30.3286 19.0858 30.6581 19.0803H31.6971C32.101 17.0466 32.101 14.9535 31.6971 12.9197L30.6582 12.9197ZM16.0001 27.1997C13.0296 27.1997 10.181 26.0197 8.08058 23.9193C5.98019 21.8189 4.80017 18.9702 4.80017 15.9998C4.80017 13.0294 5.98014 10.1807 8.08058 8.08032C10.181 5.97994 13.0296 4.79992 16.0001 4.79992C18.9705 4.79992 21.8192 5.97988 23.9196 8.08032C26.0199 10.1808 27.2 13.0294 27.2 15.9998C27.2 17.9657 26.6825 19.8973 25.6995 21.5999C24.7165 23.3024 23.3024 24.7164 21.5999 25.6994C19.8974 26.6823 17.9658 27.1999 15.9999 27.1999L16.0001 27.1997Z" fill="#FFB81D"/>
<path d="M16.061 14.3218H17.0933V15.354H16.061V14.3218Z" fill="#FFB81D" fill-opacity="0.5"/>
<path d="M17.0205 16.3291H18.0528V17.3614H17.0205V16.3291Z" fill="#FFB81D" fill-opacity="0.5"/>
<path d="M12.5594 8.77451C10.8966 8.77451 9.54861 9.92981 9.54861 11.3552C9.54861 11.4102 9.55944 11.4625 9.56451 11.5164C9.96451 11.6499 10.3041 11.9213 10.5226 12.2821C10.741 12.6429 10.8242 13.0694 10.7571 13.486L10.1654 13.3752C10.2044 13.1203 10.1576 12.8597 10.0325 12.6346C9.90714 12.4093 9.7106 12.2318 9.47373 12.1304C8.98571 12.2993 8.55968 12.6109 8.25094 13.0249C7.94219 13.4387 7.765 13.936 7.74219 14.4519C7.75302 15.1511 8.06869 15.8111 8.60645 16.2583C8.06866 16.7055 7.75298 17.3655 7.74219 18.0648C7.76131 18.5585 7.92329 19.0362 8.20831 19.4398C8.49334 19.8435 8.88919 20.156 9.34816 20.3394C9.58895 20.2159 9.7795 20.0129 9.88756 19.7647C9.99586 19.5168 10.0147 19.2389 9.94148 18.9786L10.515 18.7954V18.7951C10.6334 19.2021 10.6028 19.638 10.4283 20.0242C10.2539 20.4104 9.94724 20.7216 9.56384 20.9018C9.71408 22.2067 10.9977 23.226 12.5595 23.226C13.4756 23.2403 14.3532 22.859 14.968 22.1795V15.5819C14.6104 15.5814 14.2615 15.6939 13.9714 15.9028C13.6811 16.1121 13.4643 16.4075 13.3514 16.7469L13.3269 16.8211L12.7553 16.6314L12.7799 16.557L12.7802 16.5568C12.9327 16.0973 13.2262 15.6976 13.6191 15.4144C14.0117 15.1314 14.4839 14.9791 14.968 14.9796V9.82085C14.3532 9.14133 13.4755 8.76004 12.5594 8.77431L12.5594 8.77451Z" fill="#FFB81D" fill-opacity="0.5"/>
</svg>
