<svg width="28" height="26" viewBox="0 0 28 26" fill="none" xmlns="http://www.w3.org/2000/svg">
<path d="M25.3956 0H2.41847C1.77711 0 1.16186 0.254887 0.708375 0.708375C0.254684 1.16207 0 1.77711 0 2.41868V16.9303H27.8136V2.41868C27.8136 1.77711 27.5589 1.16207 27.1053 0.708375C26.6518 0.254887 26.0365 0 25.3952 0H25.3956ZM11.4882 15.1165C11.1544 15.1165 10.8837 14.8456 10.8837 14.5117C10.8837 14.1779 11.1544 13.907 11.4882 13.907C11.8223 13.907 12.093 14.1779 12.093 14.5117C12.093 14.8456 11.8223 15.1165 11.4882 15.1165ZM15.1162 15.1165C14.7823 15.1165 14.5116 14.8456 14.5116 14.5117C14.5116 14.1779 14.7823 13.907 15.1162 13.907C15.4502 13.907 15.7209 14.1779 15.7209 14.5117C15.7209 14.8456 15.4502 15.1165 15.1162 15.1165ZM19.3488 10.4123V10.4121C19.2854 10.6935 19.0324 10.8909 18.7441 10.8838H10.2791C9.94527 10.8838 9.67439 11.1545 9.67439 11.4885C9.67439 11.8224 9.94527 12.0931 10.2791 12.0931H16.9301C17.2641 12.0931 17.5348 12.3639 17.5348 12.6978C17.5348 13.0316 17.2641 13.3025 16.9301 13.3025H10.2791C9.79465 13.2944 9.33347 13.0928 8.99861 12.7427C8.66356 12.3925 8.48257 11.923 8.49593 11.4385C8.5095 10.9543 8.71599 10.4953 9.06987 10.1643C8.07825 3.90615 8.31998 5.44195 7.94506 3.02302H6.65119C6.31735 3.02302 6.04647 2.75234 6.04647 2.4185C6.04647 2.08446 6.31735 1.81378 6.65119 1.81378H8.46515C8.76659 1.81034 9.02452 2.0296 9.06987 2.32781L9.35998 4.23246C20.8485 4.23246 20.1592 4.1116 20.4251 4.43208C20.6911 4.75235 20.6186 4.63149 19.3489 10.4119L19.3488 10.4123ZM22.5594 13.1272L21.7675 12.3411V12.6978C21.7675 13.0316 21.4966 13.3025 21.1627 13.3025C20.8289 13.3025 20.558 13.0316 20.558 12.6978C20.558 9.92237 20.2254 10.2791 22.9767 10.2791C23.3105 10.2791 23.5814 10.55 23.5814 10.8838C23.5814 11.2177 23.3105 11.4885 22.9767 11.4885H22.62L23.4061 12.2686V12.2684C23.6432 12.5057 23.6432 12.8899 23.4061 13.1272C23.1688 13.3642 22.7846 13.3642 22.5473 13.1272L22.5594 13.1272Z" fill="#FFB81D"/>
<path d="M10.1941 9.67452H18.26L19.1971 5.44189L9.54688 5.46599L10.1941 9.67452Z" fill="#FFB81D"/>
<path d="M2.41805 20.5583H25.3952C26.0365 20.5583 26.6518 20.3034 27.1053 19.8499C27.5589 19.3963 27.8136 18.781 27.8136 18.1396H0C0 18.781 0.254684 19.3963 0.708375 19.8499C1.16186 20.3034 1.77711 20.5583 2.41847 20.5583H2.41805Z" fill="#FFB81D" fill-opacity="0.58"/>
<path d="M20.5562 24.7908H17.9865L17.2308 21.7676H10.5798L9.82404 24.7908H7.25413C6.92009 24.7908 6.64941 25.0616 6.64941 25.3955C6.64941 25.7293 6.92009 26.0002 7.25413 26.0002H20.5561C20.8902 26.0002 21.1608 25.7293 21.1608 25.3955C21.1608 25.0616 20.8902 24.7908 20.5561 24.7908H20.5562Z" fill="#FFB81D" fill-opacity="0.58"/>
</svg>
