<svg width="36" height="41" viewBox="0 0 36 41" fill="none" xmlns="http://www.w3.org/2000/svg">
<path opacity="0.58" d="M10.748 14.0371L17.9266 14.9205L25.4054 13.0719L18.1387 11.8516L10.748 14.0371Z" fill="#FFAD00"/>
<path opacity="0.58" d="M6.41665 16.2878L6.40662 14.3383C6.40596 14.196 6.45665 14.0706 6.52615 13.9576C6.53977 13.9353 6.5513 13.9171 6.56728 13.8962C6.65532 13.7808 6.7705 13.6935 6.91064 13.646C6.92067 13.6425 6.92483 13.6312 6.93504 13.6282L17.8863 10.3912C17.9941 10.3589 18.1073 10.3543 18.2169 10.3714L29.1538 12.2083C29.1704 12.2112 29.1791 12.2276 29.1954 12.2315C29.3417 12.2657 29.4722 12.3333 29.5704 12.4406C29.5817 12.4528 29.5864 12.467 29.5968 12.4799C29.6883 12.5935 29.7471 12.731 29.7582 12.8854C29.7588 12.8933 29.7664 12.8985 29.7666 12.9067C29.7667 12.9097 29.7639 12.9117 29.7641 12.9148C29.7643 12.9224 29.7684 12.9287 29.7684 12.9364L29.7619 15.8775C31.5511 15.4006 32.8617 13.8176 32.8617 11.9873C32.8617 10.4165 31.8893 8.97684 30.385 8.31897C30.0543 8.17428 29.8781 7.81211 29.9662 7.46251C30.0434 7.16142 30.0794 6.89097 30.0794 6.63575C30.0794 4.57513 28.1832 2.8991 25.8502 2.8991C25.5501 2.8991 25.2571 2.927 24.9732 2.97995C24.6227 3.05003 24.265 2.84426 24.1446 2.50099C23.6162 1.00558 22.2071 0 20.6362 0C19.8849 0 19.1516 0.235461 18.5172 0.680284C18.5154 0.682081 18.5154 0.683027 18.5136 0.683878L18.3392 0.813239C18.0966 1.01182 17.7533 1.03158 17.4855 0.863547C16.7629 0.408795 15.9164 0.167943 15.0393 0.167943C13.3103 0.167943 11.7718 1.08549 11.1193 2.50449C10.9918 2.78128 10.7294 2.95565 10.3986 2.93135C10.386 2.9304 10.226 2.91423 10.2134 2.91244C10.2044 2.91244 10.1937 2.91244 10.1847 2.91244C7.72416 2.91244 5.84227 4.58308 5.84227 6.63565C5.84227 7.014 5.92133 7.40577 6.08672 7.83357C6.22695 8.19575 6.06156 8.60369 5.70932 8.76644C4.23187 9.45211 3.31348 10.8406 3.31348 12.3917C3.31338 14.2263 4.62563 15.8115 6.41665 16.2878Z" fill="#FFAD00"/>
<path d="M32.6251 34.4255C31.723 34.4255 30.9262 34.8837 30.4555 35.5795L25.3046 34.4633V25.7823L28.2683 24.6328L28.2915 13.8755L18.1476 16.3829C18.0901 16.3973 18.0308 16.4045 17.9714 16.4045C17.9409 16.4045 17.9121 16.4027 17.8816 16.3991L7.88366 15.1678L7.94229 26.6466L10.5197 27.1483V34.5512L5.36725 35.6678C4.8968 34.9719 4.1002 34.5135 3.19912 34.5135C1.7577 34.5135 0.583984 35.6863 0.583984 37.1286C0.583984 38.571 1.7576 39.7438 3.19912 39.7438C4.64063 39.7438 5.81425 38.571 5.81425 37.1286C5.81425 37.1118 5.80961 37.0963 5.80933 37.0796L11.413 35.8651C11.7509 35.7914 11.9935 35.4921 11.9935 35.1453V27.4354L17.341 28.4765L17.3496 29.3723L17.3561 35.4717C16.2734 35.7922 15.4768 36.7834 15.4768 37.9681C15.4768 39.4104 16.6504 40.5832 18.0937 40.5832C19.5351 40.5832 20.7088 39.4104 20.7088 37.9681C20.7088 36.782 19.9101 35.7896 18.8265 35.4705L18.7795 28.3131L23.8308 26.3539V35.0573C23.8308 35.4041 24.0735 35.7034 24.4113 35.7771L30.0133 36.9911C30.0129 37.0079 30.0083 37.0237 30.0083 37.0406C30.0083 38.483 31.1819 39.6557 32.6252 39.6557C34.0667 39.6557 35.2404 38.483 35.2404 37.0406C35.2403 35.5982 34.0666 34.4255 32.6251 34.4255ZM3.19912 38.2718C2.57009 38.2718 2.05784 37.7587 2.05784 37.1287C2.05784 36.4988 2.57009 35.9857 3.19912 35.9857C3.82815 35.9857 4.34039 36.4988 4.34039 37.1287C4.34039 37.7587 3.82815 38.2718 3.19912 38.2718ZM19.235 37.968C19.235 38.598 18.7227 39.1111 18.0937 39.1111C17.4629 39.1111 16.9506 38.598 16.9506 37.968C16.9506 37.338 17.4629 36.8249 18.0937 36.8249C18.7227 36.8249 19.235 37.3381 19.235 37.968ZM32.6251 38.1837C31.9943 38.1837 31.4821 37.6706 31.4821 37.0406C31.4821 36.4106 31.9943 35.8975 32.6251 35.8975C33.2542 35.8975 33.7664 36.4106 33.7664 37.0406C33.7664 37.6706 33.2542 38.1837 32.6251 38.1837Z" fill="#FFAD00"/>
</svg>
