<svg width="33" height="32" viewBox="0 0 33 32" fill="none" xmlns="http://www.w3.org/2000/svg">
<path d="M21.7176 2.28711H10.2832V9.14772H21.7176V2.28711ZM20.5199 7.67486C20.4262 7.87588 20.224 8.00429 20.0024 8.00429H18.289H18.2857H14.6727C14.6705 8.00429 14.6683 8.00429 14.666 8.00429C14.6637 8.00429 14.6615 8.00429 14.6592 8.00429H11.9984C11.7768 8.00429 11.5746 7.87588 11.4808 7.67486C11.3865 7.47442 11.4171 7.23716 11.559 7.06633L14.4176 3.63602C14.5209 3.51264 14.6706 3.43832 14.8313 3.43112C14.9865 3.41774 15.1479 3.48417 15.2613 3.59806L16.0004 4.57398L16.6804 3.66724C16.7836 3.52431 16.9473 3.43718 17.1243 3.43112C17.285 3.4222 17.4704 3.50029 17.5832 3.63602L20.4418 7.06633C20.5836 7.23716 20.6144 7.47442 20.5199 7.67486Z" fill="#FFAD00"/>
<path d="M7.99597 12.5779H24.0041C24.6355 12.5779 25.1475 12.0659 25.1475 11.4345C25.1475 10.803 24.6355 10.291 24.0041 10.291H7.99597C7.36457 10.291 6.85254 10.803 6.85254 11.4345C6.85254 12.0659 7.36457 12.5779 7.99597 12.5779Z" fill="#FFAD00"/>
<path d="M9.13953 1.71515C9.13953 1.39911 9.3952 1.14344 9.71125 1.14344H22.289C22.6051 1.14344 22.8608 1.39911 22.8608 1.71515V9.14748H24.0042V1.14344C24.0042 0.51203 23.4922 0 22.8608 0H9.13953C8.50812 0 7.99609 0.51203 7.99609 1.14344V9.14748H9.13953V1.71515Z" fill="#FFAD00"/>
<path opacity="0.45" d="M26.8561 25.0264C26.5401 25.0264 26.2844 24.7707 26.2844 24.4547C26.2844 24.1386 26.5401 23.883 26.8561 23.883C29.7385 23.883 32.0016 21.6199 32.0016 18.1658C32.0016 15.6093 30.6107 13.3335 28.4064 12.1423C27.7643 14.933 25.2651 17.0224 22.2824 17.0224C21.9663 17.0224 21.7106 16.7667 21.7106 16.4506C21.7106 16.1346 21.9663 15.8789 22.2824 15.8789C24.0045 15.8789 25.5237 15.0252 26.4535 13.7211H26.2917H25.1483H20.5672V19.3092H25.2463C25.4831 18.6452 26.1117 18.1658 26.8561 18.1658C27.8018 18.1658 28.5713 18.9352 28.5713 19.8809C28.5713 20.8267 27.8018 21.5961 26.8561 21.5961C26.1117 21.5961 25.4831 21.1167 25.2463 20.4527H19.9955C19.6798 20.4527 19.4238 20.1966 19.4238 19.8809V13.7211H18.2803V20.7877L22.6909 25.1983C22.9146 25.0912 23.1618 25.0264 23.4258 25.0264C24.3718 25.0264 25.1409 25.7956 25.1409 26.7416C25.1409 27.6875 24.3718 28.4567 23.4258 28.4567C22.4798 28.4567 21.7106 27.6875 21.7106 26.7416C21.7106 26.4775 21.7755 26.2303 21.8825 26.0067L17.3043 21.4285C17.1972 21.3213 17.1369 21.1759 17.1369 21.0244V13.7211H14.85V21.7014C15.514 21.9382 15.9935 22.5669 15.9935 23.3112C15.9935 24.257 15.224 25.0264 14.2783 25.0264C13.3326 25.0264 12.5632 24.257 12.5632 23.3112C12.5632 22.5669 13.0426 21.9382 13.7066 21.7014V13.7211H12.5632V16.4506C12.5632 16.7663 12.3071 17.0224 11.9914 17.0224H9.02754C8.79073 17.6863 8.16207 18.1658 7.41769 18.1658C6.47196 18.1658 5.70254 17.3964 5.70254 16.4506C5.70254 15.5049 6.47196 14.7355 7.41769 14.7355C8.16207 14.7355 8.79073 15.2149 9.02754 15.8789H11.4197V13.7211H6.87113C6.22978 13.7211 5.70986 13.2012 5.70986 12.5599V10.2285C2.59583 10.5617 0.142015 13.0614 0 16.168C0.149676 19.7334 3.02656 22.5981 6.59728 22.7271C7.09113 22.7121 7.58246 22.6509 8.0587 22.5252C9.42431 22.1712 10.6599 21.3522 11.5398 20.2171C11.734 19.9669 12.0937 19.9223 12.3416 20.1155C12.5912 20.3086 12.6369 20.6676 12.4432 20.9172C11.4092 22.2516 9.95475 23.2153 8.34799 23.6312C8.28591 23.6475 8.2213 23.6534 8.15887 23.6681C9.60326 25.904 12.0851 27.3133 14.8501 27.3133C15.471 27.3133 16.0817 27.2435 16.6753 27.1045C17.926 29.9703 20.7879 31.887 23.9976 31.887C26.5202 31.887 28.836 30.7352 30.3619 28.7247C30.3797 28.7046 30.3965 28.684 30.4121 28.6628C31.4522 27.2765 32.0016 25.6238 32.0016 23.883C32.0016 23.4214 31.9546 22.9673 31.8748 22.5198C30.6918 24.0836 28.8449 25.0264 26.8561 25.0264Z" fill="#FFAD00"/>
</svg>
