<svg width="35" height="32" viewBox="0 0 35 32" fill="none" xmlns="http://www.w3.org/2000/svg">
<path d="M16.0958 25.4615C15.1998 27.2001 14.1331 28.1601 13.0771 28.1601C12.0211 28.1601 11.1997 27.2801 10.6024 26.4055C10.8313 26.1645 10.9844 25.8615 11.0425 25.5343C11.1007 25.207 11.0614 24.8699 10.9296 24.5648C10.7978 24.2597 10.5792 24 10.3011 23.8181C10.0229 23.6361 9.69743 23.54 9.36506 23.5414H9.24773C9.18906 23.3708 9.13039 23.2054 9.08239 23.0401C10.4481 22.6572 11.7819 22.1686 13.0717 21.5788C13.6051 21.8188 14.1384 22.0374 14.6184 22.2294C14.5316 21.829 14.4763 21.4225 14.4531 21.0134L14.3411 20.9654L14.4478 20.9121C14.428 20.519 14.4387 20.1249 14.4798 19.7334C14.0371 19.9681 13.5624 20.2028 13.0717 20.4374C12.1811 20.0161 11.3384 19.5788 10.4957 19.0881C9.65306 18.5974 8.81572 18.0694 8.04772 17.5308C7.96239 16.5814 7.91972 15.6054 7.91972 14.6241C7.91972 13.6427 7.96239 12.6721 8.04772 11.7281C8.80506 11.2001 9.59973 10.6667 10.4957 10.1334C11.3917 9.60005 12.2184 9.18404 13.0771 8.78938C13.9624 9.20004 14.8211 9.65338 15.6424 10.1334C16.4638 10.6134 17.3544 11.1681 18.0958 11.6854C18.1491 12.3254 18.1811 12.9707 18.2024 13.6107C18.5418 13.3916 18.8985 13.2007 19.2691 13.0401C19.2691 12.8641 19.2691 12.6881 19.2424 12.5067C19.3971 12.6241 19.5464 12.7414 19.6904 12.8641C20.0892 12.7044 20.5015 12.5813 20.9225 12.4961C20.3891 12.0267 19.7704 11.5574 19.1304 11.0987C18.9882 9.69324 18.7386 8.30072 18.3838 6.93337C19.2746 6.73292 20.1811 6.60979 21.0931 6.56537C21.1904 6.92516 21.4035 7.24289 21.6994 7.46944C21.9954 7.69598 22.3577 7.81873 22.7305 7.8187C22.9966 7.81808 23.259 7.75561 23.4969 7.63621C23.7347 7.51681 23.9416 7.34375 24.1011 7.1307C24.3908 7.303 24.6328 7.54501 24.8051 7.8347C25.3971 8.86404 24.9491 10.5014 23.5678 12.4001C23.9584 12.4418 24.3453 12.5131 24.7251 12.6134C26.1491 10.5121 26.5065 8.64004 25.7278 7.28004C25.4216 6.75859 24.9717 6.33642 24.4318 6.06403C24.4264 5.66961 24.2842 5.2893 24.0294 4.98818C23.7746 4.68706 23.4231 4.48383 23.035 4.41327C22.6469 4.3427 22.2463 4.40919 21.9018 4.60135C21.5573 4.79351 21.2903 5.0994 21.1465 5.46669C20.117 5.50521 19.0936 5.64273 18.0904 5.87736C16.9384 2.13334 15.1198 0 13.0771 0C11.0344 0 9.19973 2.13334 8.04239 5.8667C7.03049 5.62978 5.9982 5.49047 4.95971 5.45069C4.8129 5.08522 4.54385 4.78199 4.19843 4.59275C3.85302 4.40351 3.45265 4.33997 3.06562 4.41297C2.67858 4.48597 2.32887 4.69099 2.07612 4.99306C1.82338 5.29512 1.68327 5.67552 1.67969 6.06936C1.14646 6.34334 0.703796 6.76563 0.405016 7.28537C-0.624323 9.06671 0.330349 11.7334 3.01836 14.6027C0.335682 17.4934 -0.618989 20.1388 0.405016 21.9148C1.09302 23.1148 2.58636 23.7334 4.6717 23.7334C5.80948 23.7183 6.94195 23.5752 8.04772 23.3068C8.11172 23.5148 8.18105 23.7334 8.26105 23.9521C7.99773 24.1783 7.80988 24.4795 7.72271 24.8155C7.63554 25.1515 7.65322 25.5061 7.77338 25.8317C7.89353 26.1574 8.11042 26.4385 8.39493 26.6373C8.67944 26.8362 9.01796 26.9432 9.36506 26.9441C9.46548 26.9443 9.56563 26.9336 9.66373 26.9121C10.6611 28.4321 11.8344 29.2268 13.0771 29.2268C14.4851 29.2268 15.7811 28.2241 16.8424 26.3255C16.5715 26.0573 16.3218 25.7684 16.0958 25.4615ZM9.9624 19.9841C10.5651 20.3361 11.1731 20.6614 11.7971 20.9761C10.817 21.3923 9.81243 21.7485 8.78906 22.0428C8.53064 21.0117 8.33296 19.9663 8.19705 18.9121C8.76239 19.2694 9.35439 19.6321 9.9624 19.9841ZM6.93305 16.6774C6.08733 16.0364 5.28223 15.3435 4.52237 14.6027C5.28078 13.862 6.08599 13.1708 6.93305 12.5334C6.89038 13.2107 6.86905 13.9041 6.86905 14.5974C6.86905 15.2907 6.87438 16.0001 6.93305 16.6774ZM9.9784 9.21071C9.36506 9.56805 8.77306 9.93071 8.21305 10.304C8.34391 9.24901 8.54165 8.20334 8.80506 7.17337C9.82963 7.46386 10.8344 7.82016 11.8131 8.24004C11.1997 8.53337 10.5704 8.86938 9.9624 9.22138L9.9784 9.21071ZM16.1971 9.21071C15.6051 8.86404 14.9918 8.53337 14.3624 8.21871C15.3407 7.80251 16.3435 7.4463 17.3651 7.15203C17.63 8.17988 17.8277 9.22387 17.9571 10.2774C17.3864 9.94138 16.7944 9.60005 16.1811 9.22138L16.1971 9.21071ZM13.0771 1.06667C14.5651 1.06667 16.0744 2.98668 17.0664 6.1547C15.7054 6.54328 14.3754 7.03355 13.0877 7.62137C11.7864 7.03133 10.4421 6.54103 9.06639 6.1547C10.0637 2.98668 11.5784 1.06667 13.0771 1.06667ZM1.34369 7.84537C1.51387 7.56045 1.7521 7.32221 2.03702 7.15203C2.22793 7.40873 2.48755 7.6062 2.78591 7.72165C3.08426 7.83709 3.40918 7.86579 3.72315 7.80445C4.03712 7.74311 4.32734 7.59421 4.5603 7.37496C4.79326 7.15571 4.95946 6.87504 5.03971 6.56537C5.95913 6.61279 6.87275 6.73948 7.77039 6.94403C7.42264 8.32252 7.18192 9.72581 7.05038 11.1414C5.8942 11.9651 4.80136 12.8744 3.78103 13.8614C1.50902 11.3974 0.581017 9.12004 1.32769 7.8187L1.34369 7.84537ZM1.34369 21.4134C0.597017 20.1121 1.52502 17.8401 3.7757 15.4027C4.79761 16.388 5.89032 17.2971 7.04505 18.1228C7.18018 19.5326 7.42085 20.9303 7.76505 22.3041C4.5117 23.0081 2.07436 22.6774 1.33302 21.3868L1.34369 21.4134Z" fill="#FFAD00"/>
<path d="M10.7988 14.6025C10.7999 15.0517 10.934 15.4904 11.1843 15.8633C11.4346 16.2363 11.7898 16.5267 12.2051 16.6978C12.6203 16.8689 13.077 16.9132 13.5174 16.8249C13.9577 16.7366 14.3621 16.5198 14.6793 16.2019C14.9965 15.8839 15.2123 15.4791 15.2996 15.0385C15.3868 14.5979 15.3415 14.1414 15.1694 13.7265C14.9973 13.3117 14.7061 12.9571 14.3326 12.7077C13.959 12.4583 13.52 12.3252 13.0708 12.3252C12.772 12.3252 12.4762 12.3841 12.2002 12.4986C11.9241 12.6132 11.6734 12.781 11.4624 12.9925C11.2514 13.2041 11.0841 13.4552 10.9702 13.7314C10.8564 14.0077 10.7981 14.3037 10.7988 14.6025Z" fill="#FFAD00"/>
<path opacity="0.45" d="M27.6691 15.4667C27.0078 14.8042 26.2222 14.2789 25.3572 13.921C24.4923 13.5632 23.5651 13.3798 22.6291 13.3814C22.056 13.3817 21.4849 13.4497 20.9278 13.584H20.8638C20.2259 13.7451 19.6138 13.9947 19.0451 14.3254L18.9544 14.3787C17.9686 14.9718 17.1412 15.7949 16.5431 16.7776C15.9449 17.7603 15.5938 18.8733 15.5197 20.0214C15.5171 20.0426 15.5171 20.0641 15.5197 20.0854C15.4834 20.6381 15.5138 21.1933 15.6104 21.7387C15.6636 22.0494 15.7385 22.3559 15.8344 22.6561C15.8771 22.7983 15.9251 22.937 15.9784 23.0721C16.0424 23.2427 16.1171 23.4081 16.1917 23.5734C16.2664 23.7387 16.3091 23.8081 16.3731 23.9201C16.4371 24.0321 16.5277 24.1974 16.6131 24.3307C16.6984 24.4641 16.7517 24.5441 16.8317 24.6507C16.9117 24.7574 16.9437 24.8107 17.0077 24.8907L17.0824 24.9867L17.1784 25.1041C17.3117 25.2534 17.4451 25.4028 17.5837 25.5414C18.9326 26.8152 20.7247 27.5131 22.5797 27.487C24.4347 27.461 26.2065 26.713 27.519 25.4019C28.8316 24.0907 29.5814 22.3197 29.6094 20.4647C29.6375 18.6097 28.9414 16.8169 27.6691 15.4667ZM22.6291 26.6081C21.22 26.6069 19.855 26.1172 18.7665 25.2224C17.678 24.3276 16.9335 23.0831 16.6597 21.7009C16.3859 20.3187 16.5998 18.8844 17.2649 17.6422C17.9301 16.4 19.0053 15.4269 20.3075 14.8886C21.6097 14.3504 23.0582 14.2802 24.4063 14.6902C25.7544 15.1001 26.9187 15.9648 27.7007 17.1369C28.4828 18.309 28.8342 19.716 28.6953 21.1182C28.5563 22.5204 27.9354 23.831 26.9385 24.8267C26.3734 25.3936 25.7017 25.8429 24.962 26.1486C24.2224 26.4544 23.4295 26.6105 22.6291 26.6081Z" fill="#FFAD00"/>
<path opacity="0.45" d="M26.181 16.9654C25.4778 16.2616 24.5817 15.7821 23.606 15.5877C22.6302 15.3933 21.6188 15.4926 20.6995 15.8731C19.7802 16.2537 18.9945 16.8983 18.4417 17.7254C17.8888 18.5526 17.5938 19.5252 17.5938 20.5201C17.5938 21.515 17.8888 22.4875 18.4417 23.3147C18.9945 24.1419 19.7802 24.7865 20.6995 25.167C21.6188 25.5476 22.6302 25.6469 23.606 25.4525C24.5817 25.258 25.4778 24.7786 26.181 24.0748C26.6501 23.6092 27.0224 23.0555 27.2765 22.4454C27.5305 21.8353 27.6614 21.181 27.6614 20.5201C27.6614 19.8592 27.5305 19.2049 27.2765 18.5948C27.0224 17.9847 26.6501 17.4309 26.181 16.9654Z" fill="#FFAD00"/>
<path opacity="0.45" d="M33.4124 29.4082L29.0977 25.5415C28.8909 25.8153 28.6645 26.0738 28.4203 26.3148C28.1798 26.556 27.9232 26.7805 27.6523 26.9868L31.519 31.2962C31.8495 31.6965 32.3251 31.9497 32.8417 32.0002C33.0101 32.0024 33.1771 31.9689 33.3315 31.9018C33.486 31.8347 33.6244 31.7355 33.7377 31.6109C33.8618 31.498 33.9611 31.3605 34.029 31.2072C34.097 31.0538 34.1322 30.8879 34.1324 30.7202C34.1046 30.4649 34.0267 30.2176 33.9031 29.9924C33.7796 29.7673 33.6128 29.5688 33.4124 29.4082Z" fill="#FFAD00"/>
</svg>
