<svg width="37" height="36" viewBox="0 0 37 36" fill="none" xmlns="http://www.w3.org/2000/svg">
<path d="M25.3379 22.2596V26.2638C25.3395 26.4187 25.387 26.5698 25.4743 26.6976C25.9987 27.3324 26.7994 27.6717 27.6202 27.6071C28.4372 27.6714 29.2347 27.3359 29.7598 26.7067C29.8504 26.576 29.9003 26.4216 29.9027 26.2625V22.2596C29.9027 21.624 28.9651 20.9163 27.6218 20.9163C26.2785 20.9163 25.3379 21.6239 25.3379 22.2596L25.3379 22.2596Z" fill="#FFB81D"/>
<path d="M19.819 36H35.4218C35.5965 35.9997 35.7624 35.9236 35.8763 35.791C35.9904 35.6586 36.0408 35.4831 36.0148 35.3103C35.682 32.1437 33.7409 29.3722 30.8785 27.977C30.6652 27.8891 30.4211 27.9264 30.2434 28.0738C29.48 28.6236 28.5627 28.9197 27.6216 28.9197C26.6805 28.9197 25.7633 28.6236 24.9998 28.0738C24.8224 27.9259 24.5778 27.8886 24.3648 27.977C21.5026 29.3718 19.5612 32.143 19.2284 35.3096C19.2024 35.4821 19.2525 35.6574 19.3659 35.7898C19.4792 35.9224 19.6446 35.999 19.819 35.9998L19.819 36Z" fill="#FFB81D"/>
<path d="M26.2698 1.82284C26.1203 1.54229 25.8657 1.33274 25.5621 1.23975C25.2583 1.1465 24.93 1.17785 24.6491 1.3263L21.2621 3.12703C20.9708 3.28191 20.7564 3.54988 20.6688 3.86769C20.5809 4.1855 20.6281 4.52554 20.7985 4.8077L22.9851 8.40915H22.9854C23.2078 8.776 23.6092 8.99599 24.0379 8.98661C24.4669 8.97724 24.8582 8.73955 25.0645 8.3636C25.2709 7.98737 25.2607 7.52971 25.038 7.16312L24.4978 6.27188C28.3779 8.32875 30.0117 11.1499 30.0117 15.5917C30.0117 16.0207 30.2405 16.417 30.6119 16.6314C30.9833 16.8458 31.441 16.8458 31.8124 16.6314C32.1838 16.417 32.4127 16.0207 32.4127 15.5917C32.4127 10.0245 30.1066 6.34185 25.0129 3.85034L25.7728 3.44625V3.44651C26.0542 3.29699 26.2645 3.04216 26.3578 2.73748C26.451 2.43307 26.4194 2.10401 26.2699 1.82291L26.2698 1.82284Z" fill="#FFB81D" fill-opacity="0.58"/>
<path d="M9.74491 34.1622C9.89443 34.4428 10.149 34.6523 10.4526 34.7453C10.7564 34.8386 11.0847 34.8072 11.3656 34.6588L14.7526 32.858C15.0439 32.7032 15.2583 32.4352 15.3459 32.1174C15.4338 31.7996 15.3866 31.4595 15.2162 31.1774L13.0296 27.5759H13.0294C12.8069 27.2091 12.4055 26.9891 11.9768 26.9985C11.5478 27.0078 11.1565 27.2455 10.9502 27.6215C10.7439 27.9977 10.754 28.4554 10.9767 28.822L11.5169 29.7132C7.63684 27.6563 6.00301 24.8352 6.00301 20.3933C6.00301 19.9643 5.77418 19.568 5.40277 19.3536C5.03137 19.1393 4.57369 19.1393 4.20229 19.3536C3.8309 19.568 3.60205 19.9643 3.60205 20.3933C3.60205 25.9606 5.90814 29.6432 11.0018 32.1347L10.2419 32.5388V32.5386C9.96052 32.6881 9.75016 32.9429 9.65692 33.2476C9.56366 33.552 9.59529 33.8811 9.74481 34.1622L9.74491 34.1622Z" fill="#FFB81D" fill-opacity="0.58"/>
<path d="M1.80078 17.4344H16.2066C16.6838 17.4327 17.141 17.2428 17.4783 16.9054C17.8157 16.568 18.0059 16.1106 18.0073 15.6336V4.70308C18.0059 4.2261 17.8157 3.76897 17.4783 3.4316C17.141 3.09396 16.6838 2.90398 16.2066 2.90237H13.3734V1.53389C13.3391 1.09818 13.1346 0.693552 12.8045 0.407357C12.4743 0.120902 12.0448 -0.0240684 11.6088 0.0032683H6.39849C5.96251 -0.0240643 5.53298 0.120902 5.20281 0.407357C4.87268 0.693545 4.66822 1.09815 4.63392 1.53389V2.90237H1.80072C1.32347 2.90398 0.866329 3.09397 0.52896 3.4316C0.19159 3.76897 0.00133768 4.22611 0 4.70308V15.6336C0.00133981 16.1106 0.191597 16.568 0.52896 16.9054C0.866329 17.2428 1.32347 17.4327 1.80072 17.4344H1.80078ZM5.83447 1.5338C5.83447 1.38374 6.08046 1.20367 6.39881 1.20367H11.6088C11.9269 1.20367 12.1732 1.38374 12.1732 1.5338L12.1729 2.90228H5.83449L5.83447 1.5338ZM1.20054 11.0176H3.36141V10.4594C3.36141 10.128 3.63018 9.8592 3.96165 9.8592H6.20052C6.35969 9.8592 6.51243 9.92244 6.62497 10.035C6.73752 10.1475 6.80076 10.3003 6.80076 10.4594V11.0176H11.2067V10.4594C11.2067 10.128 11.4754 9.8592 11.8069 9.8592H14.0458C14.2049 9.8592 14.3577 9.92244 14.4702 10.035C14.5828 10.1475 14.646 10.3003 14.646 10.4594V11.0176H16.8069V12.2181H14.646V12.3502C14.646 12.9646 14.3183 13.5322 13.7861 13.8395C13.2542 14.1466 12.5985 14.1466 12.0666 13.8395C11.5344 13.5322 11.2067 12.9646 11.2067 12.3502V12.2181H6.80083V12.3502C6.80083 12.9646 6.47311 13.5322 5.94094 13.8395C5.40903 14.1466 4.75335 14.1466 4.22144 13.8395C3.68926 13.5322 3.36155 12.9646 3.36155 12.3502V12.2181H1.20068L1.20054 11.0176Z" fill="#FFB81D"/>
<path d="M12.9233 12.8726C13.2117 12.8723 13.4453 12.6386 13.4456 12.3503V11.0598H12.4072V12.3503C12.407 12.6365 12.6371 12.8696 12.9233 12.8726H12.9233Z" fill="#FFB81D"/>
<path d="M5.08381 12.8726C5.37 12.8696 5.60017 12.6365 5.59991 12.3503V11.0598H4.56152V12.3503C4.56179 12.6386 4.79546 12.8723 5.08379 12.8726H5.08381Z" fill="#FFB81D"/>
</svg>
