<svg width="37" height="37" viewBox="0 0 37 37" fill="none" xmlns="http://www.w3.org/2000/svg">
<path d="M33.9891 32.8171H2.344C1.37134 32.8171 0.585938 33.6025 0.585938 34.5752C0.585938 35.5479 1.37134 36.3333 2.344 36.3333H33.9891C34.9618 36.3333 35.7472 35.5479 35.7472 34.5752C35.7472 33.6025 34.9618 32.8171 33.9891 32.8171ZM2.93002 35.1612C2.60771 35.1612 2.344 34.8975 2.344 34.5752C2.344 34.2529 2.60771 33.9892 2.93002 33.9892C3.25233 33.9892 3.51604 34.2529 3.51604 34.5752C3.51604 34.8975 3.25233 35.1612 2.93002 35.1612ZM33.4031 35.1612C33.0808 35.1612 32.8171 34.8975 32.8171 34.5752C32.8171 34.2529 33.0808 33.9892 33.4031 33.9892C33.7254 33.9892 33.9891 34.2529 33.9891 34.5752C33.9891 34.8975 33.7254 35.1612 33.4031 35.1612Z" fill="#FFB81D"/>
<path d="M14.0645 31.6451H22.2688C22.5911 31.6451 22.8548 31.3814 22.8548 31.0591V22.8548C22.8548 22.5325 22.5911 22.2688 22.2688 22.2688H19.3387V24.6129H16.9946V22.2688H14.0645C13.7422 22.2688 13.4785 22.5325 13.4785 22.8548V31.0591C13.4785 31.3814 13.7422 31.6451 14.0645 31.6451Z" fill="#FFB81D"/>
<path d="M31.6452 5.86035C29.0549 5.86035 26.957 7.95824 26.957 10.5485C26.957 13.1388 29.0549 15.2367 31.6452 15.2367C34.2355 15.2367 36.3334 13.1388 36.3334 10.5485C36.3334 7.95824 34.2355 5.86035 31.6452 5.86035ZM33.7313 13.3735C33.1453 13.8072 32.4245 14.0649 31.6452 14.0649C30.8659 14.0649 30.1451 13.8069 29.5591 13.3735V11.4278C29.5591 10.7832 30.0865 10.2558 30.7311 10.2558H31.6452C30.9184 10.2558 30.3266 9.664 30.3266 8.93719C30.3266 8.21039 30.9184 7.61861 31.6452 7.61861C32.372 7.61861 32.9638 8.21039 32.9638 8.93719C32.9638 9.664 32.372 10.2558 31.6452 10.2558H32.5593C33.2039 10.2558 33.7313 10.7832 33.7313 11.4278V13.3735Z" fill="#FFB81D" fill-opacity="0.58"/>
<path d="M18.1667 0C15.5764 0 13.4785 2.09789 13.4785 4.68816C13.4785 7.27844 15.5764 9.37632 18.1667 9.37632C20.757 9.37632 22.8548 7.27844 22.8548 4.68816C22.8548 2.09789 20.757 0 18.1667 0ZM20.2528 7.51311C19.6668 7.94688 18.946 8.20455 18.1667 8.20455C17.3874 8.20455 16.6666 7.9466 16.0806 7.51311V5.56746C16.0806 4.92284 16.608 4.39542 17.2526 4.39542H18.1667C17.4399 4.39542 16.8481 3.80365 16.8481 3.07684C16.8481 2.35004 17.4399 1.75826 18.1667 1.75826C18.8935 1.75826 19.4853 2.35004 19.4853 3.07684C19.4853 3.80365 18.8935 4.39542 18.1667 4.39542H19.0807C19.7254 4.39542 20.2528 4.92284 20.2528 5.56746V7.51311Z" fill="#FFB81D" fill-opacity="0.58"/>
<path d="M4.68816 15.2367C7.27844 15.2367 9.37632 13.1388 9.37632 10.5485C9.37632 7.95824 7.27844 5.86035 4.68816 5.86035C2.09789 5.86035 0 7.95824 0 10.5485C0 13.1388 2.09789 15.2367 4.68816 15.2367ZM2.60206 11.4275C2.60206 10.7829 3.12948 10.2555 3.7741 10.2555H4.68816C3.96136 10.2555 3.36958 9.66373 3.36958 8.93692C3.36958 8.21012 3.96136 7.61835 4.68816 7.61835C5.41497 7.61835 6.00674 8.21012 6.00674 8.93692C6.00674 9.66373 5.41497 10.2555 4.68816 10.2555H5.60222C6.24684 10.2555 6.77426 10.7829 6.77426 11.4275V13.3732C6.18824 13.807 5.46747 14.0646 4.68816 14.0646C3.90886 14.0646 3.18808 13.8067 2.60206 13.3732V11.4275Z" fill="#FFB81D" fill-opacity="0.58"/>
<path d="M18.7529 20.5108V14.3576H20.5109L18.1668 11.2341L15.8228 14.3576H17.5808V20.5108H18.7529Z" fill="#FFB81D"/>
<path d="M26.5586 18.8992L27.9064 20.0302L28.1173 16.1274L24.3142 17.0122L25.662 18.1432L23.5757 20.6281L24.4783 21.3781L26.5586 18.8992Z" fill="#FFB81D"/>
<path d="M8.42665 20.0298L9.7745 18.8988L11.8548 21.3776L12.7574 20.6276L10.6711 18.1427L12.0189 17.0117L8.21582 16.127L8.42665 20.0298Z" fill="#FFB81D"/>
</svg>
