<svg width="36" height="36" viewBox="0 0 36 36" fill="none" xmlns="http://www.w3.org/2000/svg">
<path d="M25.8262 14.8696H28.174V19.5653H25.8262V14.8696Z" fill="#FFB81D"/>
<path d="M29.7393 14.8696H32.0871V19.5653H29.7393V14.8696Z" fill="#FFB81D"/>
<path d="M21.9131 0V20.3478H24.2609V14.087C24.2609 13.6548 24.6113 13.3043 25.0435 13.3043H32.8696C33.0771 13.3043 33.2763 13.3868 33.423 13.5335C33.5698 13.6803 33.6522 13.8794 33.6522 14.087V20.3478H36V0H21.9131ZM27.3913 10.9565H25.0435C24.6113 10.9565 24.2609 10.6061 24.2609 10.1739C24.2609 9.74174 24.6113 9.3913 25.0435 9.3913H27.3913C27.8235 9.3913 28.174 9.74174 28.174 10.1739C28.174 10.6061 27.8235 10.9565 27.3913 10.9565ZM27.3913 7.82609H25.0435C24.6113 7.82609 24.2609 7.47566 24.2609 7.04348C24.2609 6.6113 24.6113 6.26087 25.0435 6.26087H27.3913C27.8235 6.26087 28.174 6.6113 28.174 7.04348C28.174 7.47566 27.8235 7.82609 27.3913 7.82609ZM27.3913 4.69565H25.0435C24.6113 4.69565 24.2609 4.34522 24.2609 3.91304C24.2609 3.48087 24.6113 3.13043 25.0435 3.13043H27.3913C27.8235 3.13043 28.174 3.48087 28.174 3.91304C28.174 4.34522 27.8235 4.69565 27.3913 4.69565ZM32.8696 10.9565H30.5218C30.0896 10.9565 29.7392 10.6061 29.7392 10.1739C29.7392 9.74174 30.0896 9.3913 30.5218 9.3913H32.8696C33.3018 9.3913 33.6522 9.74174 33.6522 10.1739C33.6522 10.6061 33.3018 10.9565 32.8696 10.9565ZM32.8696 7.82609H30.5218C30.0896 7.82609 29.7392 7.47566 29.7392 7.04348C29.7392 6.6113 30.0896 6.26087 30.5218 6.26087H32.8696C33.3018 6.26087 33.6522 6.6113 33.6522 7.04348C33.6522 7.47566 33.3018 7.82609 32.8696 7.82609ZM32.8696 4.69565H30.5218C30.0896 4.69565 29.7392 4.34522 29.7392 3.91304C29.7392 3.48087 30.0896 3.13043 30.5218 3.13043H32.8696C33.3018 3.13043 33.6522 3.48087 33.6522 3.91304C33.6522 4.34522 33.3018 4.69565 32.8696 4.69565Z" fill="#FFB81D"/>
<path d="M7.82617 28.9565H9.39139V35.2174H7.82617V28.9565Z" fill="#FFB81D"/>
<path d="M4.6958 28.9565H6.26102V35.2174H4.6958V28.9565Z" fill="#FFB81D"/>
<path d="M0 15.6521V35.9999H3.13043V28.1738C3.13043 27.7417 3.48086 27.3912 3.91304 27.3912H10.1739C10.3814 27.3912 10.5806 27.4737 10.7273 27.6204C10.8741 27.7672 10.9565 27.9663 10.9565 28.1738V35.9999H14.087V15.6521H0ZM4.69565 24.2608C4.69565 24.693 4.34522 25.0434 3.91304 25.0434C3.48086 25.0434 3.13043 24.693 3.13043 24.2608V22.6956C3.13043 22.2634 3.48086 21.913 3.91304 21.913C4.34522 21.913 4.69565 22.2634 4.69565 22.6956V24.2608ZM4.69565 19.5651C4.69565 19.9973 4.34522 20.3478 3.91304 20.3478C3.48086 20.3478 3.13043 19.9973 3.13043 19.5651V17.9999C3.13043 17.5677 3.48086 17.2173 3.91304 17.2173C4.34522 17.2173 4.69565 17.5677 4.69565 17.9999V19.5651ZM7.82609 24.2608C7.82609 24.693 7.47566 25.0434 7.04348 25.0434C6.6113 25.0434 6.26087 24.693 6.26087 24.2608V22.6956C6.26087 22.2634 6.6113 21.913 7.04348 21.913C7.47566 21.913 7.82609 22.2634 7.82609 22.6956V24.2608ZM7.82609 19.5651C7.82609 19.9973 7.47566 20.3478 7.04348 20.3478C6.6113 20.3478 6.26087 19.9973 6.26087 19.5651V17.9999C6.26087 17.5677 6.6113 17.2173 7.04348 17.2173C7.47566 17.2173 7.82609 17.5677 7.82609 17.9999V19.5651ZM10.9565 24.2608C10.9565 24.693 10.6061 25.0434 10.1739 25.0434C9.74173 25.0434 9.3913 24.693 9.3913 24.2608V22.6956C9.3913 22.2634 9.74173 21.913 10.1739 21.913C10.6061 21.913 10.9565 22.2634 10.9565 22.6956V24.2608ZM10.9565 19.5651C10.9565 19.9973 10.6061 20.3478 10.1739 20.3478C9.74173 20.3478 9.3913 19.9973 9.3913 19.5651V17.9999C9.3913 17.5677 9.74173 17.2173 10.1739 17.2173C10.6061 17.2173 10.9565 17.5677 10.9565 17.9999V19.5651Z" fill="#FFB81D"/>
<path d="M16.9886 6.81454L19.3365 4.46671C19.6418 4.161 19.6418 3.66559 19.3365 3.35988L16.9886 1.01205C16.6815 0.715431 16.1935 0.719974 15.8916 1.02184C15.5897 1.3237 15.5851 1.81178 15.8818 2.11892L16.8939 3.13068H10.1743C9.13694 3.13207 8.14226 3.54469 7.40858 4.27803C6.67524 5.01172 6.26266 6.00638 6.26123 7.04372V12.522C6.26123 12.9542 6.61166 13.3046 7.04384 13.3046C7.47602 13.3046 7.82645 12.9542 7.82645 12.522V7.04372C7.82645 6.42113 8.07381 5.82366 8.51403 5.38352C8.95425 4.94338 9.55172 4.69594 10.1742 4.69594H16.8938L15.8821 5.7077H15.8817C15.7308 5.85373 15.6449 6.05393 15.6431 6.26391C15.641 6.47389 15.7238 6.67583 15.8723 6.82396C16.0204 6.97245 16.2224 7.05525 16.4324 7.05316C16.6423 7.05141 16.8425 6.96546 16.9886 6.81453L16.9886 6.81454Z" fill="#FFB81D" fill-opacity="0.58"/>
<path d="M28.9567 22.6956C28.5245 22.6956 28.1741 23.046 28.1741 23.4782V28.9565C28.1741 29.579 27.9267 30.1765 27.4865 30.6167C27.0463 31.0568 26.4488 31.3042 25.8263 31.3042H19.1067L20.1184 30.2925H20.1188C20.4154 29.9854 20.4109 29.4973 20.109 29.1954C19.8071 28.8935 19.319 28.889 19.0119 29.1856L16.6641 31.5334C16.3587 31.8391 16.3587 32.3346 16.6641 32.6403L19.0119 34.9881C19.319 35.2847 19.8071 35.2802 20.109 34.9783C20.4109 34.6764 20.4154 34.1884 20.1188 33.8812L19.1067 32.8695H25.8263C26.8636 32.8681 27.8583 32.4555 28.592 31.7221C29.3253 30.9884 29.7379 29.9938 29.7393 28.9564V23.4782C29.7393 23.2706 29.6569 23.0715 29.5101 22.9247C29.3634 22.778 29.1642 22.6956 28.9567 22.6956L28.9567 22.6956Z" fill="#FFB81D" fill-opacity="0.58"/>
</svg>
