<svg width="44" height="36" viewBox="0 0 44 36" fill="none" xmlns="http://www.w3.org/2000/svg">
<path d="M27.5913 5.8181C21.4094 5.8181 16.1366 9.81822 14.2275 15.3636H14.6822C15.2276 15.3636 15.7732 15.5 16.2276 15.7727C16.773 14.2273 17.6366 12.8183 18.773 11.6362C18.864 11.6815 18.9547 11.7272 19.0457 11.8179C19.1367 11.9089 19.1367 12.4996 19.091 13.0906V13.1813C19.091 13.1813 19.5911 14.4087 19.1364 15.4087C18.6363 16.454 18.7273 18.1814 19 18.5451C19.2274 18.8635 20.4091 20.3632 20.5454 20.5452C20.6818 20.6816 21.0908 21.7726 21.0908 21.909C21.1364 22.0907 21.9095 23 22.6821 23C23.1368 23 23.6821 23.2273 24.0458 23.409C24.2275 23.5 24.3642 23.5453 24.4549 23.5907C24.5002 23.5907 24.5459 23.6817 24.5912 23.7724C24.7275 23.954 24.8639 24.2724 25.3186 24.4997C25.4096 24.5451 25.5459 24.6361 25.6822 24.6814C26.0913 24.9087 26.6822 25.2268 26.7276 25.3177C26.7276 25.3631 26.6366 25.4541 26.5913 25.5451C26.3186 25.8178 25.9096 26.3178 26.0459 26.9998C26.2276 27.9088 27.5006 28.9999 27.9097 29.2726C28.1823 29.4542 28.046 31.318 27.9097 31.6363C27.8643 31.7273 27.8643 31.8636 27.8643 32.0453H27.728C23.6372 32.0453 20.046 29.9999 17.8642 26.9088V30.0453C20.4096 32.5454 23.9098 34.0454 27.728 34.0454C35.5009 34.0454 41.819 27.7272 41.819 19.9544C41.682 12.1364 35.3638 5.81787 27.5908 5.81787L27.5913 5.8181ZM38.2278 16.1818C38.2278 16.2728 38.9095 16.6819 38.9095 16.6819C38.9095 16.6819 38.6368 17.2729 38.4548 17.2729C38.3185 17.2729 38.1821 17.8639 38.1821 18.0909C38.1821 18.3182 38.4548 18.7273 38.7731 18.9546C39.0458 19.1363 39.4095 18.7273 39.5458 18.5909C39.5912 18.9546 39.5912 19.3183 39.5912 19.6819C39.2728 19.6819 38.8185 19.9093 38.6364 20.0456C38.4548 20.2273 38.0001 21.6367 37.8184 21.773C37.6367 21.9093 37.2274 23.8641 37.1821 24.0457C37.1367 24.2274 37.7274 25.7275 38.0458 25.8638C36.364 28.8182 33.5003 31.0003 30.1365 31.7273C30.2275 31.6363 30.3182 31.5456 30.3182 31.5C30.3182 31.5 30.4546 31.409 30.5456 31.3636C30.7272 31.2726 30.9546 31.1363 31.0456 31C31.1819 30.7726 31.5909 30.3636 31.7729 30.2726C32.0003 30.1816 33.4547 28.8636 33.5457 28.6362C33.773 28.0909 34.091 27.4999 34.273 27.3635C34.5914 27.0908 34.273 26.6361 34.182 26.4545V26.4091C34.0457 26.2274 33.2273 26.1364 33.091 26.1364C32.9547 26.1364 32.2273 25.7274 32.182 25.6364C32.182 25.4091 31.5003 24.7727 31.3183 24.7727C31.2273 24.7727 30.8183 24.6817 30.5909 24.409C30.3183 24.0907 29.3636 23.8637 29.0909 23.8637C28.8183 23.8637 28.4546 23.8183 28.1819 23.682C27.9546 23.591 27.5455 23.7273 27.0909 23.9093C26.9999 23.9547 26.9546 24.0003 26.9092 24.0003C26.7729 24.0457 26.0002 23.864 25.7728 23.8186C25.7275 23.7733 25.6818 23.4549 25.6818 23.3186C25.6818 23.0913 25.6365 23.0003 25.6365 22.9096C25.5912 22.8186 25.4092 22.7732 25.0001 22.6369C24.9091 22.6369 24.7728 22.5916 24.7275 22.5459C24.7275 22.5006 24.7728 22.4096 24.8185 22.3186C24.9548 22.0459 25.0001 21.8185 24.9548 21.6822C24.9095 21.6369 24.8638 21.5912 24.8185 21.5912C24.6368 21.5459 24.3638 21.7276 24.1368 21.9549C24.0004 22.0459 23.8641 22.1822 23.7731 22.1822C23.6367 22.1822 23.3184 22.0459 22.9094 21.8186C22.682 21.6822 22.9547 21.0005 23.0457 20.6368C23.091 20.4551 23.1367 20.3185 23.1367 20.2731C23.1367 20.1821 23.5457 20.0914 24.1367 20.0914C24.2731 20.0914 24.5004 20.0461 24.7277 20.0004C24.9094 19.9551 25.0914 19.9551 25.2277 19.9551C25.3187 19.9551 25.4551 20.1824 25.5461 20.3188C25.6824 20.5461 25.8188 20.7278 26.0008 20.6825C26.2281 20.6371 26.2281 20.3641 26.1824 20.1371V19.9554C26.1824 19.8191 26.5008 19.3191 26.7278 19.1827C27.0005 19.001 27.4095 18.4554 27.3188 18.1827C27.3188 18.0464 27.8188 17.728 28.0005 17.5917C28.0915 17.5464 28.1369 17.5007 28.1822 17.4554C28.2275 17.41 28.3185 17.3644 28.3639 17.3644C28.5456 17.2734 28.7729 17.137 28.7729 16.8643C28.7729 16.6827 29.3183 16.5917 29.6819 16.546C29.7729 16.546 29.8183 16.546 29.9093 16.5007C30.1366 16.4553 30.2729 16.4097 30.3183 16.319C30.4093 16.1826 30.3183 16.0916 30.2729 15.91C30.2729 15.8646 30.2276 15.819 30.2276 15.7736C30.1366 15.5009 30.1823 15.3189 30.4093 15.1373C30.5003 15.0463 30.7276 15.0463 30.9546 15.0009C31.182 14.9556 31.4547 14.9556 31.682 14.8646C31.8637 14.8192 31.9547 14.7282 31.9547 14.6372C32 14.5009 31.9093 14.3646 31.8183 14.2736C31.773 14.2282 31.7273 14.1826 31.7273 14.1372C31.591 13.9099 31.3637 13.7282 31.2273 13.5919C31.1363 13.5465 31.091 13.1828 31.0456 13.0008C31.0003 12.8645 31.0003 12.7735 30.9546 12.6825C30.9093 12.5915 30.8636 12.5462 30.773 12.5462C30.5913 12.4552 30.2729 12.5915 30.1366 12.6372C30.1366 12.5918 30.0913 12.5462 30.0913 12.5008C30.0459 12.3645 30.0459 12.2735 30.0003 12.1825C29.9549 12.1371 29.8639 12.0461 29.7276 11.9551C29.5459 11.8188 29.3186 11.5915 29.1822 11.4551C29.0912 11.3641 29.0005 11.3641 28.9549 11.3641C28.7275 11.4095 28.5912 11.6368 28.4095 11.9095C28.4095 11.9548 28.3642 11.9548 28.3642 12.0005C28.0915 12.4095 28.0915 12.6822 28.2732 12.8185C28.2732 12.8185 28.2732 12.9095 28.2278 13.0459C28.1368 13.2275 28.0005 13.4095 27.9552 13.4095C27.7278 13.4095 27.6825 13.7279 27.5915 14.0459C27.5915 14.1369 27.5461 14.3186 27.5005 14.4096C27.4551 14.3642 27.3641 14.1822 27.4095 13.6369V13.5915C27.4095 13.5005 27.3641 13.4552 27.3641 13.4098C27.2731 13.3645 27.1825 13.3645 27.0915 13.3645C26.9551 13.3645 26.9098 13.3645 26.9098 13.3192C26.7734 13.0918 26.1371 12.8645 25.8644 12.7738V12.0011C25.9554 11.9101 26.9554 11.1831 27.1824 11.1374C27.5008 11.0464 28.3188 10.501 28.4552 10.3647C28.5915 10.2737 28.6368 10.183 28.5915 10.092C28.5462 9.86467 28.0915 9.63733 27.9098 9.59199C27.7732 8.9087 27.5458 8.9087 27.2731 8.9087C27.1368 8.9087 26.9548 8.9087 26.7731 8.86336C26.0004 8.72702 25.3641 8.72702 24.864 8.77236C24.5003 8.8177 24.046 8.72702 23.7276 8.63602C23.5913 8.59068 23.4549 8.59068 23.3639 8.59068C24.682 8.09066 26.0914 7.81799 27.6368 7.81799C29.3185 7.81799 30.8643 8.13633 32.3187 8.7727C32.364 8.8637 32.4097 9.00004 32.455 9.09104C32.5913 9.45472 32.864 10.0458 32.864 10.5001C32.864 10.9547 32.9094 11.4548 32.864 11.5911C32.8187 11.7274 33.773 12.8184 34.0004 12.8184C34.2277 12.8638 34.3641 12.7274 34.5004 12.5001C34.6368 12.2728 34.8188 12.0454 35.1821 11.7727C35.4548 11.5454 36.1368 11.5911 36.4095 11.6364C36.8185 12.0911 37.1822 12.5454 37.5459 13.0001L37.4095 13.1365C37.2278 13.3182 36.7278 13.8182 36.8185 14.1819C36.8638 14.5455 37.2732 15.0456 37.7732 15.2729C38.2732 15.4996 38.2279 16.0906 38.2279 16.1816L38.2278 16.1818Z" fill="#FFB81D"/>
<path d="M42.1824 2.95449C41.6371 2.95449 41.1824 3.40917 41.1824 3.9545V5.31824C37.5006 1.90911 32.7278 0 27.6368 0C22.3186 0 17.3185 2.09109 13.5458 5.81824C10.9094 8.45463 9.04565 11.7728 8.22754 15.3638H10.3186C11.1367 12.3183 12.7277 9.54555 15.0005 7.2728C18.3642 3.90905 22.8641 2.04564 27.637 2.04564C32.1371 2.04564 36.3643 3.72739 39.6826 6.7275L38.4098 6.72718C37.8645 6.72718 37.4098 7.18186 37.4098 7.72719C37.4098 8.27252 37.8645 8.72721 38.4098 8.72721H42.1373C42.6827 8.72721 43.1373 8.27252 43.1373 7.72719V3.99972C43.1826 3.40871 42.728 2.95434 42.1826 2.95434L42.1824 2.95449Z" fill="#FFB81D" fill-opacity="0.58"/>
<path d="M16.8185 33.7731H15.8638L15.8641 18.4093C15.8641 17.7729 15.3187 17.2275 14.6824 17.2275H2.63678C2.00043 17.2275 1.45503 17.7729 1.45503 18.4093V33.7731H0.545362C0.272681 33.7731 0 34.0004 0 34.3184V35.4548C0 35.7275 0.22734 36.0002 0.545362 36.0002H16.8183C17.0909 36.0002 17.3636 35.7728 17.3636 35.4548V34.3184C17.3639 34.0458 17.0909 33.7731 16.8183 33.7731H16.8185ZM5.81839 32.0457C5.81839 32.3184 5.59105 32.5911 5.27303 32.5911H4.54568C4.273 32.5911 4.00032 32.3637 4.00032 32.0457V30.5003C4.00032 30.2276 4.22766 29.955 4.54568 29.955H5.27303C5.54571 29.955 5.81839 30.1823 5.81839 30.5003V32.0457ZM5.81839 27.2276C5.81839 27.5002 5.59105 27.7729 5.27303 27.7729H4.54568C4.273 27.7729 4.00032 27.5456 4.00032 27.2276V25.6822C4.00032 25.4095 4.22766 25.1368 4.54568 25.1368H5.27303C5.54571 25.1368 5.81839 25.3641 5.81839 25.6822V27.2276ZM5.81839 22.364C5.81839 22.6367 5.59105 22.9094 5.27303 22.9094H4.54568C4.273 22.9094 4.00032 22.6821 4.00032 22.364V20.8186C4.00032 20.546 4.22766 20.2733 4.54568 20.2733H5.27303C5.54571 20.2733 5.81839 20.5006 5.81839 20.8186V22.364ZM9.54587 32.046C9.54587 32.3186 9.31853 32.5913 9.0005 32.5913H8.27315C8.00047 32.5913 7.72779 32.364 7.72779 32.046V30.5006C7.72779 30.2279 7.95513 29.9552 8.27315 29.9552H9.0005C9.27318 29.9552 9.54587 30.1825 9.54587 30.5006V32.046ZM9.54587 27.2278C9.54587 27.5005 9.31853 27.7732 9.0005 27.7732H8.27315C8.00047 27.7732 7.72779 27.5458 7.72779 27.2278V25.6824C7.72779 25.4097 7.95513 25.1371 8.27315 25.1371H9.0005C9.27318 25.1371 9.54587 25.3644 9.54587 25.6824V27.2278ZM9.54587 22.3643C9.54587 22.637 9.31853 22.9096 9.0005 22.9096H8.27315C8.00047 22.9096 7.72779 22.6823 7.72779 22.3643V20.8189C7.72779 20.5462 7.95513 20.2735 8.27315 20.2735H9.0005C9.27318 20.2735 9.54587 20.5009 9.54587 20.8189V22.3643ZM13.3184 32.0462C13.3184 32.3189 13.091 32.5916 12.773 32.5916L12.0457 32.5919C11.773 32.5919 11.5003 32.3645 11.5003 32.0465V30.5011C11.5003 30.2284 11.7277 29.9558 12.0457 29.9558H12.773C13.0457 29.9558 13.3184 30.1831 13.3184 30.5011V32.0462ZM13.3184 27.228C13.3184 27.5007 13.091 27.7734 12.773 27.7734H12.0457C11.773 27.7734 11.5003 27.5461 11.5003 27.228V25.6827C11.5003 25.41 11.7277 25.1373 12.0457 25.1373H12.773C13.0457 25.1373 13.3184 25.3646 13.3184 25.6827V27.228ZM13.3184 22.3645C13.3184 22.6372 13.091 22.9099 12.773 22.9099H12.0457C11.773 22.9099 11.5003 22.6825 11.5003 22.3645V20.8191C11.5003 20.5465 11.7277 20.2738 12.0457 20.2738H12.773C13.0457 20.2738 13.3184 20.5011 13.3184 20.8191V22.3645Z" fill="#FFB81D" fill-opacity="0.58"/>
</svg>
