<svg width="38" height="36" viewBox="0 0 38 36" fill="none" xmlns="http://www.w3.org/2000/svg">
<path d="M24 17.2532L25.6882 15.5656C25.8298 15.4247 26.0213 15.3467 26.2185 15.3467C26.2567 15.3467 26.2949 15.3497 26.3334 15.3557C26.5687 15.3925 26.7743 15.5395 26.8838 15.7518L28.6935 19.2393L28.9269 19.1195L27.1982 15.7856C27.0773 15.5533 27.087 15.274 27.223 15.0507C27.3586 14.827 27.6017 14.6908 27.8635 14.6908H29.9434L24 9.23547L24 17.2532Z" fill="#FFB81D" fill-opacity="0.58"/>
<path d="M6 18H12V19.5H6V18Z" fill="#FFB81D" fill-opacity="0.58"/>
<path d="M36.75 0H0.75C0.336163 0 0 0.336163 0 0.75V26.25C0 26.6648 0.336163 27 0.75 27H18V34.5H11.25C10.8362 34.5 10.5 34.8352 10.5 35.25C10.5 35.6648 10.8362 36 11.25 36H26.25C26.6648 36 27 35.6648 27 35.25C27 34.8352 26.6648 34.5 26.25 34.5H19.5V27H36.75C37.1648 27 37.5 26.6648 37.5 26.25V0.75C37.5 0.336163 37.1648 0 36.75 0ZM13.5 20.25C13.5 20.6648 13.1638 21 12.75 21H5.25C4.83616 21 4.5 20.6648 4.5 20.25V17.25C4.5 16.8362 4.83616 16.5 5.25 16.5H12.75C13.1638 16.5 13.5 16.8362 13.5 17.25V20.25ZM12.75 13.5H5.25C4.83616 13.5 4.5 13.1638 4.5 12.75C4.5 12.3362 4.83616 12 5.25 12H12.75C13.1638 12 13.5 12.3362 13.5 12.75C13.5 13.1638 13.1638 13.5 12.75 13.5ZM18.75 10.5H5.25C4.83616 10.5 4.5 10.1638 4.5 9.75C4.5 9.33616 4.83616 9 5.25 9H18.75C19.1638 9 19.5 9.33616 19.5 9.75C19.5 10.1638 19.1638 10.5 18.75 10.5ZM18.75 7.5H5.25C4.83616 7.5 4.5 7.16384 4.5 6.75C4.5 6.33616 4.83616 6 5.25 6H18.75C19.1638 6 19.5 6.33616 19.5 6.75C19.5 7.16384 19.1638 7.5 18.75 7.5ZM32.5697 15.7119C32.4579 15.9998 32.1797 16.1896 31.8706 16.1896H29.097L30.6037 19.0952C30.6951 19.2713 30.7132 19.4776 30.6526 19.6674C30.592 19.8572 30.459 20.0153 30.2829 20.106L28.7176 20.916C28.6078 20.9729 28.4893 21 28.3737 21C28.1029 21 27.8404 20.853 27.7071 20.5959L26.0239 17.3514L23.7799 19.593C23.5647 19.8076 23.2429 19.8729 22.9623 19.7557C22.6817 19.6395 22.4996 19.3657 22.4996 19.0627V7.52893C22.4996 7.23195 22.675 6.96208 22.9482 6.84188C23.2191 6.72269 23.5385 6.77525 23.7568 6.97615L32.378 14.8873C32.606 15.0959 32.6817 15.4237 32.5698 15.7116L32.5697 15.7119Z" fill="#FFB81D"/>
</svg>
