<svg width="34" height="37" viewBox="0 0 34 37" fill="none" xmlns="http://www.w3.org/2000/svg">
<path d="M14.719 20.5385H15.3752C16.3019 20.5385 17.3056 20.577 18.4251 20.6158C19.5445 20.6543 20.7028 20.7316 21.7452 20.7316C22.4015 20.7316 22.942 20.6931 23.4052 20.6543C23.5595 20.6158 23.6756 20.6158 23.7914 20.6158C24.6407 20.6158 25.3743 20.8862 25.9921 21.4267L25.7217 16.292C25.4128 13.8597 23.6371 11.9681 21.3205 11.3888L19.0428 17.1026L18.5408 12.9715H18.8497C19.0428 12.9715 19.1971 12.8172 19.1971 12.6241V11.5046C19.1971 11.3115 19.0428 11.1572 18.8497 11.1572H17.0352C16.8421 11.1572 16.6878 11.3115 16.6878 11.5046V12.6241C16.6878 12.8172 16.8421 12.9715 17.0352 12.9715H17.3441L16.8421 17.1026L14.5644 11.3888C12.2866 11.9293 10.4721 13.8597 10.1632 16.292L9.89282 21.2336C10.7422 20.9633 11.5143 20.7704 12.1706 20.6931C12.9044 20.6156 13.7538 20.5771 14.719 20.5386L14.719 20.5385Z" fill="#FFB81D" fill-opacity="0.58"/>
<path d="M23.0968 5.09624C23.0968 7.91069 20.8152 10.1922 18.0005 10.1922C15.1861 10.1922 12.9045 7.91069 12.9045 5.09624C12.9045 2.28153 15.1861 0 18.0005 0C20.8152 0 23.0968 2.28153 23.0968 5.09624Z" fill="#FFB81D" fill-opacity="0.58"/>
<path d="M33.7522 26.4457C33.3275 25.6736 32.3238 25.0943 31.0498 25.5963C30.1619 25.9437 28.772 26.3299 26.8417 26.8319C26.3397 27.6812 25.2975 28.6849 23.2126 29.1096C22.7879 29.1869 22.3247 29.2639 21.7842 29.2639C20.5486 29.3024 19.043 29.2254 17.4603 29.1096L17.1129 29.0711C16.5724 29.0326 16.1092 28.6079 16.0704 28.1059C16.0319 27.797 16.1477 27.4882 16.3793 27.2566C16.6109 27.025 16.9198 26.9092 17.2287 26.9092L17.6148 26.9477C19.661 27.102 21.6298 27.2181 22.8269 26.9862C24.9115 26.5615 25.4909 25.2874 25.3362 24.2838C25.2204 23.5117 24.6414 22.6623 23.6763 22.7781C22.0548 22.9324 20.163 22.8166 18.3099 22.7396C16.9585 22.6623 15.7618 22.6238 14.7581 22.6623C13.8702 22.6623 13.1366 22.7396 12.5189 22.8166C10.7816 23.0482 7.34563 24.3996 4.45004 26.4457C3.02166 27.4495 1.40024 28.6465 0.318969 29.4956C0.125611 29.6114 0.00981086 29.8044 0.00981086 30.036C-0.0286988 30.2676 0.0483203 30.4992 0.2029 30.6538L4.75837 36.3676C4.91268 36.5606 5.10577 36.6379 5.33737 36.6764C5.56896 36.715 5.76206 36.6379 5.95514 36.4834L7.57663 35.1708C8.03983 34.7846 8.65762 34.6688 9.19811 34.8619C12.0936 35.7113 15.298 36.329 17.4214 36.406C21.8226 36.5218 30.3547 31.1555 32.9799 29.2638C34.1382 28.4532 34.1767 27.2564 33.752 26.4458L33.7522 26.4457Z" fill="#FFB81D"/>
</svg>
