<svg width="37" height="37" viewBox="0 0 37 37" fill="none" xmlns="http://www.w3.org/2000/svg">
<path d="M36.0319 9.0369L34.9597 8.92204C34.5385 8.88385 34.1555 8.57749 34.0407 8.15629C33.9258 7.73508 34.0789 7.27567 34.4237 7.04599L35.3043 6.39508C35.4958 6.28023 35.534 6.01206 35.4192 5.85902L34.6149 4.44232C34.5001 4.25081 34.2704 4.17416 34.0789 4.28928L33.0834 4.74869C32.6622 4.90173 32.2028 4.82534 31.9346 4.51898C31.6282 4.21262 31.5516 3.75323 31.7049 3.33203L32.1643 2.33653C32.2409 2.14502 32.1643 1.91532 32.0112 1.80047L30.5564 0.957527C30.3649 0.842674 30.1352 0.88087 30.0203 1.07238L29.3694 1.953C29.1397 2.29756 28.6803 2.45087 28.2591 2.37422C27.8379 2.25936 27.5315 1.91481 27.4934 1.45517L27.3785 0.383019C27.3785 0.153314 27.187 0 26.9573 0H25.3491C25.1194 0 24.9279 0.153048 24.9279 0.383019L24.813 1.45517C24.7748 1.87638 24.4685 2.25941 24.0473 2.37422C23.6261 2.48902 23.1666 2.33602 22.937 1.953L22.2861 1.07238C22.1712 0.88087 21.903 0.842674 21.75 0.957527L20.3333 1.76177C20.1413 1.87663 20.0646 2.10633 20.1413 2.29783L20.6007 3.29333C20.7922 3.71454 20.7155 4.17395 20.4092 4.48028C20.1028 4.78661 19.6434 4.8633 19.2604 4.70999L18.2649 4.25058C18.0734 4.17392 17.8436 4.25058 17.7288 4.40362L16.9246 5.82032C16.8097 6.01183 16.8479 6.24153 17.0394 6.35638L17.92 7.00729C18.2646 7.237 18.4179 7.69639 18.303 8.11759C18.1882 8.53881 17.8436 8.84519 17.384 8.88334L16.3119 8.9982C16.0821 8.9982 15.9288 9.1897 15.9288 9.41941V11.0276C15.9288 11.2573 16.0819 11.4488 16.3119 11.4488L17.384 11.5637C17.8052 11.6019 18.1882 11.9083 18.303 12.3294C18.4179 12.7507 18.2649 13.2101 17.92 13.4397L17.0394 14.0907C16.8479 14.2055 16.8097 14.4737 16.9246 14.6649L17.7288 16.0816C17.8437 16.2731 18.0734 16.3498 18.2649 16.2347L19.2604 15.7752C19.6816 15.5837 20.141 15.6604 20.4092 15.9668C20.7155 16.2731 20.7922 16.7325 20.6007 17.1156L20.1413 18.1885C20.0646 18.38 20.1413 18.6097 20.2943 18.7245L21.711 19.5669C21.9025 19.6818 22.1322 19.6051 22.2471 19.4521L22.898 18.5714C23.1277 18.2269 23.5871 18.0736 24.0083 18.1884C24.4295 18.3033 24.7359 18.6478 24.774 19.1075L24.8889 20.1796C24.8889 20.4093 25.0804 20.5626 25.3101 20.5626H26.9183C27.148 20.5626 27.3395 20.4096 27.3395 20.1796L27.4544 19.1075C27.4926 18.6863 27.7989 18.3032 28.2201 18.1884C28.6413 18.0736 29.1007 18.2266 29.3304 18.5714L29.9813 19.4521C30.0962 19.6436 30.3644 19.6818 30.5174 19.5669L31.9341 18.7245C32.1256 18.6097 32.2023 18.38 32.0871 18.1885L31.6277 17.193C31.4747 16.8099 31.5511 16.3123 31.8574 16.0442C32.1638 15.7378 32.6232 15.6611 33.0062 15.8527L34.0017 16.3121C34.1932 16.3887 34.4229 16.3503 34.5378 16.159L35.342 14.7423C35.4569 14.5508 35.4187 14.3211 35.2272 14.1681L34.3466 13.5172C34.002 13.2874 33.8487 12.828 33.9635 12.4068C34.0784 11.9856 34.4229 11.6793 34.8826 11.6411L35.9547 11.5262C36.1844 11.5262 36.3378 11.3347 36.3378 11.105V9.49681C36.4149 9.22838 36.2619 9.03687 36.0319 9.03687L36.0319 9.0369ZM26.1528 14.436C23.8171 14.436 21.9407 12.5597 21.9407 10.2238C21.9407 7.8881 23.817 6.01171 26.1528 6.01171C28.4504 6.01171 30.365 7.88803 30.365 10.2238C30.3647 12.5596 28.4501 14.436 26.1528 14.436Z" fill="#FFB81D"/>
<path d="M20.1794 24.8895L19.1073 24.7747C18.6861 24.7365 18.303 24.4301 18.1882 24.0089C18.0734 23.5877 18.2264 23.1283 18.5712 22.8986L19.4519 22.2477C19.6434 22.1328 19.6816 21.8647 19.5667 21.7116L18.7625 20.2949C18.6476 20.1034 18.4179 20.0268 18.2264 20.1419L17.2309 20.6013C16.8097 20.7543 16.3503 20.6779 16.0821 20.3716C15.7757 20.0652 15.6991 19.6058 15.8524 19.1846L16.3118 18.1891C16.3885 17.9976 16.3118 17.7679 16.1588 17.6531L14.7421 16.8488C14.5506 16.734 14.3209 16.7722 14.206 16.9637L13.5551 17.8055C13.3254 18.1501 12.866 18.3034 12.4448 18.2268C12.0236 18.1119 11.7172 17.7673 11.679 17.3077L11.5642 16.2356C11.5642 16.0059 11.3727 15.8525 11.143 15.8525H9.53476C9.30506 15.8525 9.11355 16.0056 9.11355 16.2356L8.9987 17.3077C8.9605 17.7289 8.65414 18.112 8.23294 18.2268C7.81173 18.3416 7.35232 18.1886 7.12264 17.8055L6.47173 16.9249C6.35688 16.7334 6.08871 16.6952 5.93567 16.8101L4.51897 17.6143C4.32747 17.7292 4.25081 17.9589 4.36593 18.1504L4.82534 19.1459C5.01685 19.5671 4.94019 20.0265 4.63383 20.3328C4.32747 20.6391 3.86808 20.7158 3.48503 20.5625L2.37418 20.1031C2.18267 20.0265 1.95297 20.1031 1.83812 20.2562L0.995722 21.6731C0.88087 21.8646 0.919065 22.0943 1.11057 22.2092L1.9912 22.8601C2.33575 23.0898 2.48906 23.5492 2.37422 23.9704C2.25936 24.3916 1.91481 24.698 1.45517 24.7362L0.383019 24.851C0.153314 24.851 0 25.0425 0 25.2722V26.8804C0 27.1101 0.153048 27.3017 0.383019 27.3017L1.45517 27.4165C1.87638 27.4547 2.25941 27.7611 2.37422 28.1823C2.48907 28.6035 2.33602 29.0629 1.9912 29.2926L1.11057 29.9435C0.919065 30.0583 0.88087 30.3265 0.995722 30.5177L1.79997 31.9344C1.91482 32.1259 2.14453 32.2026 2.33603 32.0875L3.33152 31.6281C3.75274 31.4366 4.21215 31.5132 4.48032 31.8196C4.78668 32.1259 4.86334 32.5853 4.67183 32.9684L4.21242 33.9639C4.13577 34.1554 4.21242 34.3851 4.36547 34.4999L5.78217 35.3423C5.97368 35.4572 6.20338 35.3805 6.31823 35.2275L6.96914 34.3468C7.19884 34.0023 7.65824 33.849 8.07944 33.9638C8.50065 34.0787 8.80703 34.4232 8.84519 34.8829L8.96004 35.955C8.96004 36.1847 9.15155 36.338 9.38126 36.338H10.9895C11.2192 36.338 11.4107 36.185 11.4107 35.955L11.5255 34.8829C11.5637 34.4617 11.8701 34.0786 12.2913 33.9638C12.7125 33.849 13.1719 34.002 13.4016 34.3468L14.0525 35.2275C14.1674 35.419 14.4355 35.4572 14.5886 35.3423L16.0053 34.4999C16.1968 34.3851 16.2734 34.1554 16.1583 33.9639L15.6989 32.9684C15.5459 32.5853 15.6222 32.0877 15.9286 31.8196C16.235 31.5132 16.6944 31.4366 17.0774 31.6281L18.0729 32.0875C18.2644 32.1641 18.4941 32.1257 18.609 31.9344L19.4132 30.5177C19.5281 30.3262 19.4899 30.0965 19.2984 29.9435L18.4177 29.2926C18.0732 29.0629 17.9199 28.6035 18.0347 28.1823C18.1496 27.761 18.4941 27.4547 18.9538 27.4165L20.0259 27.3017C20.2556 27.3017 20.4089 27.1101 20.4089 26.8804V25.2722C20.5625 25.081 20.4095 24.8895 20.1795 24.8895L20.1794 24.8895ZM10.3003 30.2886C7.9646 30.2886 6.08821 28.4123 6.08821 26.0765C6.08821 23.7406 7.96453 21.8643 10.3003 21.8643C12.6362 21.8643 14.5125 23.7406 14.5125 26.0765C14.5125 28.4123 12.6362 30.2886 10.3003 30.2886Z" fill="#FFB81D"/>
<path d="M12.6361 26.1146C12.6361 27.4043 11.5904 28.45 10.3003 28.45C9.01053 28.45 7.96484 27.4043 7.96484 26.1146C7.96484 24.8245 9.01053 23.7788 10.3003 23.7788C11.5904 23.7788 12.6361 24.8245 12.6361 26.1146Z" fill="#FFB81D"/>
<path d="M28.4886 10.2622C28.4886 11.5523 27.4429 12.598 26.1531 12.598C24.8631 12.598 23.8174 11.5523 23.8174 10.2622C23.8174 8.97244 24.8631 7.92676 26.1531 7.92676C27.4429 7.92676 28.4886 8.97244 28.4886 10.2622Z" fill="#FFB81D"/>
<path d="M4.13547 14.5889C4.70972 14.5889 5.16939 14.1295 5.16939 13.555L5.16912 8.27107C5.16912 7.62015 5.70518 7.08412 6.35607 7.08412H10.3767L9.45764 8.00317C9.07462 8.42438 9.07462 9.07531 9.45764 9.45829C9.64915 9.6498 9.91705 9.76465 10.1852 9.76465C10.4534 9.76465 10.7213 9.6498 10.9128 9.45829L13.5931 6.77799C13.9761 6.35678 13.9761 5.70585 13.5931 5.32287L10.9128 2.64257C10.4916 2.22136 9.84069 2.22136 9.45771 2.64257C9.07469 3.06378 9.07469 3.71472 9.45771 4.0977L10.3768 5.01675L6.39464 5.01621C4.59496 5.01621 3.13977 6.47134 3.13977 8.27108V13.5169C3.13977 14.1296 3.59918 14.589 4.13547 14.589L4.13547 14.5889Z" fill="#FFB81D" fill-opacity="0.58"/>
<path d="M32.3176 21.7876C31.7434 21.7876 31.2837 22.247 31.2837 22.8215V28.0673C31.2837 28.7182 30.7476 29.2543 30.0967 29.2543H26.0764L26.9954 28.3352C27.3785 27.914 27.3785 27.2631 26.9954 26.8801C26.5742 26.4589 25.9233 26.4589 25.5403 26.8801L22.86 29.5604C22.477 29.9816 22.477 30.6325 22.86 31.0155L25.5403 33.6958C25.7318 33.8873 25.9997 34.0022 26.2679 34.0022C26.5361 34.0022 26.804 33.8873 26.9955 33.6958C27.3785 33.2746 27.3785 32.6237 26.9955 32.2407L26.0765 31.3216H30.0971C31.8968 31.3216 33.3519 29.8665 33.3519 28.0668L33.3517 22.8215C33.3135 22.247 32.8541 21.7876 32.3178 21.7876H32.3176Z" fill="#FFB81D" fill-opacity="0.58"/>
</svg>
