<svg width="39" height="39" viewBox="0 0 39 39" fill="none" xmlns="http://www.w3.org/2000/svg">
<path d="M26.4643 1.39282H12.5357C10.2316 1.39282 8.35718 3.26729 8.35718 5.57139V33.4285C8.35718 35.7326 10.2316 37.6071 12.5357 37.6071H26.4643C28.7684 37.6071 30.6429 35.7326 30.6429 33.4285V5.57139C30.6429 3.26729 28.7684 1.39282 26.4643 1.39282ZM29.25 33.4285C29.25 34.9651 28.0008 36.2142 26.4643 36.2142H12.5357C10.9992 36.2142 9.75003 34.9651 9.75003 33.4285V5.57139C9.75003 4.03487 10.9992 2.78568 12.5357 2.78568H26.4643C28.0008 2.78568 29.25 4.03487 29.25 5.57139V33.4285Z" fill="#FFB81D"/>
<path d="M18.8037 15.0778L13.9287 12.9114V18.3514L18.8037 20.5178V15.0778Z" fill="#FFB81D"/>
<path d="M19.5002 13.8625L24.0531 11.8388L19.5002 9.81573L14.9473 11.8388L19.5002 13.8625Z" fill="#FFB81D"/>
<path d="M20.1963 15.0778V20.5178L25.0713 18.3514V12.9114L20.1963 15.0778Z" fill="#FFB81D"/>
<path d="M26.4643 4.17859H22.2857C22.2857 5.71694 21.0383 6.9643 19.5 6.9643C17.9616 6.9643 16.7143 5.71694 16.7143 4.17859H12.5357C11.7665 4.17859 11.1428 4.80226 11.1428 5.57145V33.4286C11.1428 34.1978 11.7665 34.8215 12.5357 34.8215H26.4643C27.2334 34.8215 27.8571 34.1978 27.8571 33.4286V5.57145C27.8571 4.80226 27.2334 4.17859 26.4643 4.17859ZM16.5105 29.4538C16.7825 29.7258 16.7825 30.1667 16.5105 30.4387C16.3743 30.5746 16.1962 30.6427 16.018 30.6427C15.8399 30.6427 15.6617 30.5746 15.5255 30.4387L12.7398 27.653C12.4678 27.381 12.4678 26.9401 12.7398 26.6681L15.5255 23.8823C15.7976 23.6103 16.2385 23.6103 16.5105 23.8823C16.7825 24.1544 16.7825 24.5953 16.5105 24.8673L14.2173 27.1605L16.5105 29.4538ZM20.8719 24.5437L19.479 30.1151C19.4004 30.4319 19.1168 30.6427 18.8044 30.6427C18.7487 30.6427 18.6915 30.6359 18.6349 30.6216C18.2615 30.5283 18.0343 30.1502 18.1281 29.7775L19.521 24.2061C19.6137 23.8321 19.9923 23.6007 20.3651 23.6993C20.7388 23.7929 20.9657 24.1709 20.8719 24.5437L20.8719 24.5437ZM26.2605 27.653L23.4748 30.4387C23.3386 30.5746 23.1605 30.6427 22.9823 30.6427C22.8042 30.6427 22.626 30.5746 22.4898 30.4387C22.2178 30.1667 22.2178 29.7258 22.4898 29.4538L24.7834 27.1606L22.4902 24.8674C22.2181 24.5953 22.2181 24.1545 22.4902 23.8824C22.7622 23.6104 23.2031 23.6104 23.4751 23.8824L26.2608 26.6681C26.5325 26.9402 26.5325 27.381 26.2605 27.6531L26.2605 27.653ZM26.4645 18.8032C26.4645 19.0787 26.3025 19.3277 26.0509 19.4399L19.7831 22.2256C19.6932 22.2657 19.5969 22.2853 19.5002 22.2853C19.4035 22.2853 19.3071 22.2657 19.2172 22.2253L12.9494 19.4396C12.6979 19.3277 12.5359 19.0787 12.5359 18.8032V11.8389C12.5359 11.5634 12.6979 11.3144 12.9494 11.2022L19.2172 8.41646C19.3969 8.33624 19.6037 8.33624 19.7831 8.41646L26.0509 11.2022C26.3025 11.3144 26.4645 11.5634 26.4645 11.8389V18.8032Z" fill="#FFB81D"/>
<path d="M37.6072 0H34.8215C34.0517 0 33.4287 0.623053 33.4287 1.39286C33.4287 1.9926 33.8108 2.4925 34.3415 2.68901L32.4437 4.5868C31.8996 5.13088 31.8996 6.01229 32.4437 6.55638C32.7161 6.82842 33.0724 6.96429 33.4287 6.96429C33.785 6.96429 34.1416 6.82811 34.4136 6.55607L36.3114 4.65828C36.5076 5.18931 37.0075 5.57144 37.6072 5.57144C38.377 5.57144 39.0001 4.94838 39.0001 4.17858V1.39286C39.0001 0.623061 38.377 7.89409e-06 37.6072 7.89409e-06V0Z" fill="#FFB81D" fill-opacity="0.58"/>
<path d="M1.39286 0H4.17857C4.94838 0 5.57143 0.623053 5.57143 1.39286C5.57143 1.9926 5.18932 2.4925 4.65859 2.68901L6.55638 4.5868C7.10046 5.13088 7.10046 6.01229 6.55638 6.55638C6.28433 6.82842 5.92773 6.96429 5.57143 6.96429C5.21513 6.96429 4.85883 6.82842 4.5868 6.55638L2.68901 4.65859C2.49251 5.18931 1.99258 5.57143 1.39286 5.57143C0.623053 5.57143 0 4.94838 0 4.17857V1.39286C0 0.623053 0.623053 0 1.39286 0Z" fill="#FFB81D" fill-opacity="0.58"/>
<path d="M37.6072 39H34.8215C34.0517 39 33.4287 38.3769 33.4287 37.6071C33.4287 37.0074 33.8108 36.5075 34.3415 36.311L32.4437 34.4132C31.8996 33.8691 31.8996 32.9877 32.4437 32.4436C32.7161 32.1719 33.0724 32.0357 33.4287 32.0357C33.785 32.0357 34.1416 32.1719 34.4136 32.4439L36.3114 34.3417C36.5076 33.8107 37.0075 33.4286 37.6072 33.4286C38.377 33.4286 39.0001 34.0516 39.0001 34.8214V37.6071C39.0001 38.3769 38.377 39 37.6072 39V39Z" fill="#FFB81D" fill-opacity="0.58"/>
<path d="M1.39286 39H4.17857C4.94838 39 5.57143 38.3769 5.57143 37.6071C5.57143 37.0074 5.18932 36.5075 4.65859 36.311L6.55638 34.4132C7.10046 33.8691 7.10046 32.9877 6.55638 32.4436C6.28433 32.1719 5.92773 32.0357 5.57143 32.0357C5.21513 32.0357 4.85852 32.1719 4.58648 32.4439L2.68901 34.3414C2.49251 33.8107 1.99258 33.4286 1.39286 33.4286C0.623053 33.4286 0 34.0516 0 34.8214V37.6071C0 38.3769 0.623053 39 1.39286 39V39Z" fill="#FFB81D" fill-opacity="0.58"/>
</svg>
