<svg width="37" height="37" viewBox="0 0 37 37" fill="none" xmlns="http://www.w3.org/2000/svg">
<path d="M35.7922 29.9595L30.0056 24.173C29.4894 23.6568 28.6532 23.6568 28.137 24.173L27.75 24.5602L27.4014 24.2116C29.272 21.6861 30.3929 18.5737 30.3929 15.1964C30.3929 6.81781 23.5754 0 15.1964 0C6.81744 0 0 6.81744 0 15.1964C0 23.5754 6.81744 30.3929 15.1964 30.3929C18.5735 30.3929 21.6859 29.272 24.2116 27.4014L24.5602 27.75L24.173 28.1373C23.6568 28.6535 23.6568 29.4897 24.173 30.0059L29.9595 35.7924C30.7377 36.5717 31.7738 37 32.8761 37C33.9769 37 35.0131 36.5714 35.7927 35.7921C37.4002 34.1829 37.4002 31.5659 35.7924 29.9593L35.7922 29.9595ZM15.1967 27.7502C8.2637 27.7502 2.64317 22.1297 2.64317 15.1967C2.64317 8.26363 8.2637 2.64311 15.1967 2.64311C22.1298 2.64311 27.7503 8.26363 27.7503 15.1967C27.7503 22.1297 22.1298 27.7502 15.1967 27.7502Z" fill="#FFB81D"/>
<path d="M10.1852 21.1429L10.3787 21.3364C10.6368 21.5945 10.6368 22.0128 10.3787 22.2709C10.2495 22.3998 10.0805 22.4643 9.91145 22.4643C9.74244 22.4643 9.57342 22.3998 9.44423 22.2709L8.1228 20.9494C7.86471 20.6913 7.86471 20.2731 8.1228 20.015L9.44423 18.6936C9.70232 18.4355 10.1206 18.4355 10.3787 18.6936C10.6368 18.9517 10.6368 19.3699 10.3787 19.628L10.1852 19.8215H25.4246C26.0641 18.4098 26.429 16.8471 26.429 15.1965C26.429 8.99318 21.4002 3.96436 15.1969 3.96436C11.1801 3.96436 7.66563 6.07955 5.68031 9.25007H20.2092L20.0157 9.05657C19.7576 8.79848 19.7576 8.38023 20.0157 8.12213C20.2738 7.86404 20.6921 7.86404 20.9502 8.12213L22.2716 9.44356C22.5297 9.70166 22.5297 10.1199 22.2716 10.378L20.9502 11.6994C20.821 11.8283 20.652 11.8929 20.483 11.8929C20.3139 11.8929 20.1449 11.8283 20.0157 11.6994C19.7576 11.4413 19.7576 11.0231 20.0157 10.765L20.2095 10.5715H4.97006C4.33028 11.9832 3.96539 13.5459 3.96539 15.1965C3.96539 21.3998 8.99422 26.4286 15.1975 26.4286C19.2143 26.4286 22.7288 24.3134 24.7141 21.1429H10.1852ZM17.3728 13.021C17.1147 12.763 17.1147 12.3447 17.3728 12.0866C17.6309 11.8285 18.0492 11.8285 18.3073 12.0866L20.9501 14.7295C21.2082 14.9876 21.2082 15.4058 20.9501 15.6639L18.3073 18.3068C18.1781 18.4357 18.0091 18.5003 17.8401 18.5003C17.671 18.5003 17.502 18.4357 17.3728 18.3068C17.1147 18.0487 17.1147 17.6304 17.3728 17.3723L19.5487 15.1967L17.3728 13.021ZM9.44427 14.7295L12.0871 12.0866C12.3452 11.8285 12.7635 11.8285 13.0216 12.0866C13.2797 12.3447 13.2797 12.763 13.0216 13.021L10.846 15.1966L13.0216 17.3722C13.2797 17.6303 13.2797 18.0486 13.0216 18.3067C12.8924 18.4356 12.7234 18.5002 12.5543 18.5002C12.3853 18.5002 12.2163 18.4356 12.0871 18.3067L9.44427 15.6638C9.18617 15.4057 9.18617 14.9875 9.44427 14.7294V14.7295Z" fill="#FFB81D" fill-opacity="0.58"/>
</svg>
