<svg width="36" height="36" viewBox="0 0 36 36" fill="none" xmlns="http://www.w3.org/2000/svg">
<path d="M17.9997 10.4512C13.8378 10.4512 10.4514 13.8376 10.4514 17.9996C10.4514 22.1615 13.8378 25.5479 17.9997 25.5479C22.1617 25.5479 25.5481 22.1615 25.5481 17.9996C25.5481 13.8376 22.1617 10.4512 17.9997 10.4512ZM21.8882 16.0205L17.1327 20.7983C17.0192 20.9121 16.8704 20.9694 16.7213 20.9694C16.5762 20.9694 16.4313 20.9155 16.3188 20.8071L14.1206 18.6922C13.8894 18.4698 13.8827 18.1022 14.1046 17.8713C14.3267 17.64 14.6943 17.6328 14.9255 17.8552L16.712 19.5743L21.0653 15.2008C21.2913 14.9735 21.6589 14.9727 21.8865 15.199C22.1135 15.4253 22.1146 15.7929 21.8883 16.0205L21.8882 16.0205Z" fill="#FFB81D" fill-opacity="0.58"/>
<path d="M32.825 14.4766H32.0553C32.0159 14.4766 31.9763 14.4774 31.9366 14.4789C31.5429 12.8886 30.8891 11.3893 29.9884 10.0088L30.4817 9.5155C31.7197 8.2775 31.7197 6.26338 30.4817 5.02539C29.2437 3.78766 27.2298 3.78813 25.9916 5.02539L25.4617 5.55548C24.0335 4.65884 22.4784 4.02379 20.8264 3.66167V3.17461C20.8262 1.42439 19.4023 0 17.6515 0C15.9008 0 14.4767 1.42439 14.4767 3.17487V3.66193C12.7588 4.03883 11.145 4.71253 9.66718 5.67009L9.51554 5.51871C8.27755 4.28045 6.26369 4.28098 5.02543 5.51871C3.78771 6.7567 3.78771 8.77082 5.02543 10.0088L5.19936 10.1827C4.22913 11.7168 3.56216 13.3915 3.21271 15.1737H3.17461C1.42439 15.1737 0 16.5975 0 18.3483C0 20.099 1.42439 21.5231 3.17487 21.5231H3.3501C3.7791 23.2923 4.52279 24.9412 5.56589 26.4366L5.51819 26.4843C4.2802 27.7222 4.2802 29.7364 5.51819 30.9744C6.75619 32.2121 8.77031 32.2121 10.0083 30.9744L10.2359 30.7468C11.7673 31.6426 13.4242 32.2448 15.1734 32.5402V32.8251C15.1734 34.5759 16.5978 36 18.3483 36C20.099 36 21.5231 34.5756 21.5231 32.8251V32.2331C23.1668 31.7872 24.6998 31.0684 26.0931 30.0902L26.4842 30.4813C27.7222 31.7198 29.7363 31.7193 30.9743 30.4813C32.2121 29.2433 32.2121 27.2292 30.9743 25.9912L30.43 25.4471C30.4165 25.4334 30.403 25.4201 30.389 25.4067C31.2196 23.9774 31.7952 22.4408 32.105 20.8261H32.8251C34.5759 20.8261 36 19.4017 36 17.6512C35.9997 15.9008 34.5753 14.4766 32.8249 14.4766L32.825 14.4766ZM17.9997 26.7092C13.1973 26.7092 9.29012 22.802 9.29012 17.9996C9.29012 13.1971 13.1973 9.28997 17.9997 9.28997C22.8022 9.28997 26.7093 13.1971 26.7093 17.9996C26.7093 22.802 22.8022 26.7092 17.9997 26.7092Z" fill="#FFB81D"/>
</svg>
