<svg width="37" height="37" viewBox="0 0 37 37" fill="none" xmlns="http://www.w3.org/2000/svg">
<path d="M36.2539 10.513L25.6825 5.41633C25.3185 5.242 24.8979 5.242 24.5339 5.41633L13.9625 10.513C13.5056 10.7336 13.2153 11.1964 13.2153 11.7035C13.2153 18.5843 16.3549 25.0537 21.8303 29.4529L24.2808 31.422C24.5221 31.6164 24.815 31.7138 25.1079 31.7138C25.4008 31.7138 25.6937 31.6164 25.935 31.422L28.3855 29.4529C33.8612 25.0538 37.0004 18.5839 37.0004 11.7035C37.0004 11.1964 36.7102 10.7336 36.2533 10.513H36.2539ZM25.1486 25.1068C24.4183 25.1068 23.8207 24.5151 23.8207 23.7854C23.8207 23.0557 24.4053 22.464 25.1344 22.464H25.1486C25.8777 22.464 26.47 23.0557 26.47 23.7854C26.47 24.5151 25.8777 25.1068 25.1486 25.1068H25.1486ZM27.452 17.7336C27.07 18.0138 26.43 18.6111 26.43 19.4739V19.8211C26.43 20.5508 25.8389 21.1425 25.1085 21.1425C24.3782 21.1425 23.7871 20.5508 23.7871 19.8211V19.4739C23.7871 17.9917 24.5537 16.5807 25.8893 15.6025C26.2326 15.3503 26.43 14.9613 26.43 14.5353C26.43 13.8068 25.8377 13.2139 25.1085 13.2139C24.3794 13.2139 23.7871 13.8068 23.7871 14.5353C23.7871 15.2651 23.196 15.8567 22.4657 15.8567C21.7354 15.8567 21.1443 15.2651 21.1443 14.5353C21.1443 12.3494 22.9226 10.571 25.1085 10.571C27.2945 10.571 29.0728 12.3494 29.0728 14.5353C29.0728 15.7927 28.4664 16.9885 27.452 17.7336L27.452 17.7336Z" fill="#FFB81D" fill-opacity="0.58"/>
<path d="M23.4518 32.4517L21.0024 30.4831C15.2135 25.8325 11.8929 18.9882 11.8929 11.7038C11.8929 10.6958 12.4787 9.76171 13.3871 9.32345L23.9586 4.22621C24.3175 4.05454 24.7137 3.96488 25.1072 3.96488C25.5006 3.96488 25.8971 4.05454 26.2519 4.22503L26.4286 4.31027V1.32143C26.4286 0.59169 25.8375 0 25.1071 0H1.32143C0.591102 0 0 0.59169 0 1.32143V35.6786C0 36.4083 0.591102 37 1.32143 37H25.1071C25.8375 37 26.4286 36.4083 26.4286 35.6786V32.6767C26.0289 32.9083 25.5723 33.0357 25.1071 33.0357C24.5072 33.0357 23.9188 32.8286 23.4515 32.4517L23.4518 32.4517ZM8.86325 31.3273L6.2204 33.9701C5.9623 34.2282 5.62399 34.3571 5.28596 34.3571C4.94793 34.3571 4.60961 34.2279 4.35152 33.9698L3.03009 32.6484C2.51391 32.1322 2.51391 31.296 3.03009 30.7798C3.54627 30.2636 4.38248 30.2637 4.89866 30.7798L5.28595 31.1671L6.99467 29.4584C7.51085 28.9422 8.34706 28.9422 8.86325 29.4584C9.37943 29.9746 9.37943 30.8111 8.86325 31.3273H8.86325ZM8.86325 24.173C9.37943 24.6892 9.37943 25.5254 8.86325 26.0416C8.60516 26.2997 8.26684 26.4286 7.92881 26.4286C7.59078 26.4286 7.25247 26.2994 6.99437 26.0413L5.94667 24.9936L4.89866 26.0416C4.64086 26.2997 4.30255 26.4286 3.96453 26.4286C3.62651 26.4286 3.28818 26.2994 3.03009 26.0413C2.51391 25.5251 2.51391 24.6889 3.03009 24.1727L4.07809 23.125L3.03009 22.077C2.51391 21.5608 2.51391 20.7246 3.03009 20.2084C3.54627 19.6922 4.38248 19.6922 4.89866 20.2084L5.94667 21.2564L6.99468 20.2084C7.51086 19.6922 8.34706 19.6922 8.86325 20.2084C9.37944 20.7246 9.37943 21.5608 8.86325 22.077L7.81525 23.125L8.86325 24.173ZM8.86325 12.8276L6.2204 15.4704C5.9623 15.7285 5.62399 15.8574 5.28596 15.8574C4.94793 15.8574 4.60961 15.7282 4.35152 15.4701L3.03009 14.1487C2.51391 13.6325 2.51391 12.7963 3.03009 12.2801C3.54627 11.7639 4.38248 11.764 4.89866 12.2801L5.28595 12.6674L6.99467 10.9587C7.51085 10.4425 8.34706 10.4425 8.86325 10.9587C9.37943 11.4749 9.37943 12.3114 8.86325 12.8276H8.86325ZM8.86325 4.899L6.2204 7.54186C5.9623 7.79995 5.62399 7.92885 5.28596 7.92885C4.94793 7.92885 4.60991 7.79995 4.35182 7.54186L3.03039 6.22043C2.51421 5.70425 2.51421 4.86805 3.03039 4.35186C3.54657 3.83568 4.38278 3.83568 4.89897 4.35186L5.28596 4.73885L6.99468 3.03013C7.51086 2.51395 8.34706 2.51395 8.86325 3.03013C9.37944 3.54631 9.37943 4.38282 8.86325 4.899Z" fill="#FFB81D"/>
</svg>
