<svg width="30" height="30" viewBox="0 0 30 30" fill="none" xmlns="http://www.w3.org/2000/svg">
<path d="M28.2123 2H26.4041C22.4671 2.0058 18.6992 3.55045 15.9172 6.2999L9.32607 12.8134C9.24548 12.893 9.24548 13.022 9.32607 13.1016L17.2003 20.8831C17.2809 20.9627 17.4114 20.9627 17.492 20.8831L24.0771 14.3755C26.8593 11.6261 28.4282 7.8853 28.4224 3.99483V2.20777C28.4224 2.09332 28.3285 2.00034 28.2125 2.00034L28.2123 2ZM20.8108 12.9454C19.8427 13.9021 18.2794 13.9021 17.3112 12.9454C16.3431 11.9886 16.3431 10.444 17.3112 9.48701C18.2794 8.53025 19.8427 8.53025 20.8108 9.48701C21.779 10.444 21.779 11.9886 20.8108 12.9454Z" fill="#FFB81D"/>
<path d="M8.83165 14.8243C8.73677 14.7306 8.57772 14.7499 8.50886 14.8638L6.9804 17.3882C6.93188 17.4684 6.94479 17.5709 7.0115 17.6368L12.6105 23.1699C12.6774 23.236 12.7811 23.2486 12.8623 23.2006L15.4168 21.6902C15.532 21.6221 15.5516 21.4649 15.4567 21.3712L8.83165 14.8243Z" fill="#FFB81D" fill-opacity="0.58"/>
<path d="M25.3955 15.4002L20.3068 20.4393C20.2658 20.4801 20.2419 20.5342 20.2407 20.5899L20.0997 25.9141C20.0956 26.098 20.3178 26.1819 20.4536 26.0475L25.4757 21.0846C25.5158 21.045 25.5394 20.9926 25.5418 20.9382L25.7497 15.5373C25.7579 15.3511 25.5332 15.2636 25.3958 15.3997L25.3955 15.4002Z" fill="#FFB81D" fill-opacity="0.58"/>
<path d="M9.18251 4.90549L4.12335 9.90504C3.98641 10.0404 4.07386 10.2633 4.26244 10.26L9.61557 10.1444C9.6725 10.1434 9.72787 10.1198 9.76934 10.079L14.8961 5.02356C15.0346 4.88688 14.944 4.66166 14.7533 4.66861L9.33255 4.84029C9.27699 4.84241 9.2232 4.866 9.1827 4.90582L9.18251 4.90549Z" fill="#FFB81D" fill-opacity="0.58"/>
<path d="M8.32256 21.7515C8.00036 21.4331 7.47844 21.4331 7.15622 21.7515L2.24165 26.6086C1.91945 26.927 1.91945 27.4427 2.24165 27.7612C2.56385 28.0796 3.08576 28.0796 3.40798 27.7612L8.32256 22.9041C8.64475 22.5859 8.64475 22.0701 8.32256 21.7515Z" fill="#FFB81D"/>
<path d="M9.65394 23.4073L7.2397 25.7935C6.9175 26.1119 6.9175 26.628 7.2397 26.946C7.5619 27.2644 8.08381 27.2644 8.40603 26.946L10.8203 24.5598C11.1425 24.2414 11.1425 23.7253 10.8203 23.4073C10.4981 23.0889 9.97616 23.0889 9.65394 23.4073Z" fill="#FFB81D"/>
<path d="M3.11665 22.8962C3.43885 23.2146 3.96076 23.2146 4.28298 22.8962L6.69722 20.51C7.01942 20.1916 7.01942 19.6755 6.69722 19.3575C6.37502 19.0391 5.85311 19.0391 5.53089 19.3575L3.11665 21.7437C2.79445 22.0619 2.79445 22.5782 3.11665 22.8962Z" fill="#FFB81D"/>
</svg>
