<svg width="19" height="18" viewBox="0 0 19 18" fill="none" xmlns="http://www.w3.org/2000/svg">
<g clip-path="url(#clip0_5257_18331)">
<path opacity="0.2" d="M18.0343 9.0003C18.0343 4.03173 13.9972 0.00390625 9.01714 0.00390625C4.03711 0.00390625 0 4.03173 0 9.0003C0 13.9689 4.03711 17.9967 9.01714 17.9967C13.9972 17.9967 18.0343 13.9689 18.0343 9.0003Z" fill="#FFAD00"/>
<path d="M15.0307 9.00052C15.0307 5.68814 12.3393 3.00293 9.01924 3.00293C5.69922 3.00293 3.00781 5.68814 3.00781 9.00052C3.00781 12.3129 5.69922 14.9981 9.01924 14.9981C12.3393 14.9981 15.0307 12.3129 15.0307 9.00052Z" fill="#FFAD00"/>
<path d="M6.00781 9.00126L8.01142 11.0011L12.0192 7.00146" stroke="white" stroke-width="2"/>
</g>
<defs>
<clipPath id="clip0_5257_18331">
<rect width="18.0343" height="17.9928" fill="white" transform="translate(0 0.00390625)"/>
</clipPath>
</defs>
</svg>
