<svg width="116" height="48" viewBox="0 0 116 48" fill="none" xmlns="http://www.w3.org/2000/svg">
<path d="M39.9514 15.8927C40.4042 16.1815 41.1057 16.4279 41.9723 16.5927C42.8388 16.839 43.7462 16.8797 44.6963 16.8797C45.6037 16.8797 46.4294 16.7575 47.1717 16.5501C47.914 16.3038 48.5746 15.976 49.1517 15.5631C49.688 15.152 50.1426 14.6594 50.432 14.0002C50.7197 13.3835 50.8849 12.7261 50.8849 11.9446C50.8849 11.0391 50.5972 10.2169 50.0609 9.4762C49.5246 8.77625 48.6154 8.20035 47.3369 7.78924L44.8614 6.96702C43.954 6.67995 43.2526 6.35037 42.8797 5.98001C42.5512 5.65042 42.3434 5.23931 42.3434 4.70416C42.3434 4.00598 42.6328 3.43006 43.1691 3.14123C43.7462 2.8134 44.4903 2.60786 45.522 2.60786C46.8006 2.60786 47.8732 2.85416 48.9457 3.30603C49.2352 3.43007 49.482 3.55411 49.6471 3.55411C49.9366 3.55411 50.0609 3.38932 50.0609 2.97821V2.27825C50.0609 2.03194 50.0183 1.82639 49.8957 1.70235C49.7714 1.53755 49.6063 1.37274 49.3595 1.25047C49.1943 1.12643 48.9049 1.0024 48.6154 0.961644C48.3277 0.839375 47.9974 0.796842 47.6263 0.674572C47.296 0.632043 46.8823 0.50977 46.4703 0.50977C46.0583 0.385728 45.6446 0.385742 45.2734 0.385742C44.4477 0.385742 43.7889 0.509774 43.0874 0.674572C42.386 0.920883 41.7663 1.20794 41.23 1.57829C40.6937 1.9894 40.3226 2.44305 39.9514 3.01895C39.6211 3.59486 39.4968 4.21152 39.4968 4.99299C39.4968 5.89849 39.7863 6.76148 40.3634 7.54295C40.9405 8.36516 41.8497 8.94105 43.21 9.3114L45.7689 10.1336C46.6354 10.4225 47.2126 10.7095 47.5429 11.0391C47.8731 11.3687 47.9974 11.7798 47.9974 12.2317C47.9974 12.9317 47.708 13.5076 47.09 13.9187C46.4703 14.3298 45.6446 14.4946 44.4903 14.4946C43.7889 14.4946 43.0874 14.4538 42.4268 14.2483C41.7254 14.1242 41.1057 13.9187 40.4469 13.6298C40.2817 13.5891 40.1166 13.5076 39.9923 13.4668C39.868 13.4243 39.7437 13.4243 39.662 13.4243C39.3725 13.4243 39.25 13.5891 39.25 14.0002V14.8649C39.25 15.0297 39.2908 15.1928 39.3725 15.4001C39.4968 15.6056 39.662 15.7279 39.9514 15.8927Z" fill="black"/>
<path d="M10.073 7.37939C9.45325 7.25534 8.79301 7.25533 8.21535 7.25533C6.441 7.25533 4.99677 7.70898 3.88283 8.65524C2.76871 9.55898 2.27344 10.7941 2.27344 12.2737C2.27344 13.7144 2.68614 14.8236 3.55271 15.6884C4.41911 16.5514 5.57461 16.9625 7.06004 16.9625C9.12313 16.9625 10.8561 16.1403 12.259 14.5366C12.4241 14.9477 12.5893 15.2773 12.7952 15.5643C13.0012 15.8532 13.209 16.1403 13.415 16.3866C13.5801 16.5514 13.7453 16.6346 13.9513 16.6346C14.0738 16.6346 14.2389 16.5939 14.4041 16.4698L15.5193 15.7291C15.7661 15.5643 15.8496 15.3995 15.8496 15.194C15.8496 15.0717 15.807 14.9477 15.7253 14.7829C15.4784 14.331 15.2707 13.9199 15.1482 13.5088C15.0239 13.0977 14.983 12.6033 14.983 11.9459V6.18681C14.983 4.29429 14.5284 2.85541 13.5375 1.86839C12.5484 0.881378 11.0621 0.427734 8.91679 0.427734C7.92644 0.427734 7.01866 0.551784 6.15226 0.757339C5.32688 1.00365 4.58426 1.20919 3.96523 1.57954C3.71768 1.70358 3.55271 1.82586 3.51134 1.90914C3.38757 2.03318 3.38756 2.23875 3.38756 2.52582V3.39055C3.38756 3.71837 3.51133 3.9647 3.71768 3.9647C3.75887 3.9647 3.88283 3.9647 4.0066 3.92395C4.13037 3.88319 4.33671 3.80166 4.62545 3.67762C5.24449 3.43131 5.90454 3.22576 6.52358 3.10172C7.14243 2.93692 7.80267 2.8554 8.4217 2.8554C9.82438 2.8554 10.7318 3.14247 11.3107 3.67762C11.8878 4.21277 12.1347 5.15904 12.1347 6.51641V7.79049C11.3924 7.62569 10.7744 7.50343 10.073 7.37939ZM12.0938 10.5052C12.0938 11.0811 12.053 11.6163 11.9287 11.9866C11.8044 12.3977 11.641 12.8088 11.3516 13.0977C10.897 13.6311 10.3198 14.0014 9.65959 14.207C9.04055 14.4551 8.38032 14.5366 7.80266 14.5366C6.97746 14.5366 6.35843 14.2903 5.94591 13.9199C5.53322 13.5088 5.32689 12.8904 5.32689 12.0682C5.32689 11.2052 5.6158 10.5052 6.19346 10.0534C6.77112 9.60151 7.6377 9.35342 8.79301 9.35342C9.32947 9.35342 9.90784 9.39416 10.485 9.47744C11.0621 9.5182 11.5984 9.64225 12.0938 9.76452V10.5052Z" fill="black"/>
<path d="M21.0108 15.6054C21.1333 15.9332 21.2576 16.1813 21.3411 16.3036C21.4636 16.4276 21.6714 16.4684 22.0425 16.4684H23.5271C23.8574 16.4684 24.1042 16.4276 24.2285 16.3036C24.3528 16.1813 24.4771 15.9757 24.5588 15.6054L27.2828 4.25204L30.0477 15.6054C30.0885 15.9332 30.2111 16.1813 30.3762 16.3036C30.5005 16.4276 30.79 16.4684 31.0776 16.4684H32.564C32.8534 16.4684 33.1003 16.4276 33.2654 16.3036C33.3897 16.1813 33.5548 15.9757 33.5957 15.6054L37.886 2.03171C37.9286 1.86692 38.0103 1.7021 38.0103 1.62059C38.0103 1.49655 38.0511 1.4558 38.0511 1.33176C38.0511 1.04469 37.9286 0.920658 37.6391 0.920658H36.0303C35.7 0.920658 35.4532 0.961391 35.3289 1.08543C35.2045 1.20947 35.0802 1.41505 34.9986 1.78363L31.9442 13.5888L29.0977 1.74286C29.0568 1.41503 28.9325 1.16695 28.7674 1.04469C28.6431 0.920643 28.3554 0.879883 28.0659 0.879883H26.6222C26.2919 0.879883 26.0451 0.920643 25.9208 1.04469C25.7965 1.16695 25.6722 1.3725 25.5905 1.74286L22.8256 13.3833L19.8956 1.74286C19.7731 1.41503 19.6488 1.16695 19.5653 1.04469C19.4428 0.920643 19.2368 0.879883 18.8639 0.879883H17.1325C16.8431 0.879883 16.7188 1.00217 16.7188 1.29101C16.7188 1.41505 16.7596 1.62059 16.8839 1.99094L21.0108 15.6054Z" fill="black"/>
<path d="M47.1724 24.1188C40.6926 26.8743 33.5966 28.1909 27.2003 28.1909C17.668 28.1909 8.42596 25.5984 0.957415 21.2393C0.338559 20.8281 -0.197906 21.5263 0.379753 22.0615C7.31184 28.2724 16.4303 32.0149 26.6232 32.0149C33.8435 32.0149 42.2606 29.7538 48.1207 25.4336C48.9464 24.7762 48.1615 23.7484 47.1724 24.1188Z" fill="#FF9900"/>
<path d="M43.5407 21.7346C43.0044 22.0642 43.1287 22.5994 43.665 22.5568C45.5207 22.3105 49.7293 21.8179 50.4325 22.8049C51.1748 23.7087 49.6068 27.6585 48.9462 29.427C48.6993 29.9621 49.193 30.1677 49.6885 29.7548C52.8245 27.1641 53.6094 21.6938 52.9896 20.9531C52.329 20.0476 46.8419 19.431 43.5407 21.7346Z" fill="#FF9900"/>
<path d="M66.8406 12.8465C66.7181 12.8465 66.5938 12.8058 66.5938 12.6002V3.09863C66.5938 2.97459 66.6346 2.8523 66.8406 2.8523H67.13C67.2952 2.8523 67.3769 2.89307 67.3769 3.09863L67.4195 3.67453C67.8315 3.34493 68.2861 3.09862 68.6981 2.93382C69.11 2.76903 69.5238 2.6875 69.9766 2.6875C70.8858 2.6875 71.5872 3.01711 72.1235 3.67453C72.6598 4.29119 72.9475 5.23744 72.9475 6.30774C72.9475 7.45956 72.6598 8.3633 72.1235 9.06325C71.5446 9.76143 70.8432 10.091 69.8541 10.091C68.9875 10.091 68.2434 9.76142 67.5012 9.104V12.5595C67.5012 12.6817 67.4603 12.8058 67.2544 12.8058H66.8406V12.8465ZM69.7298 9.39285C70.472 9.39285 71.0492 9.14477 71.4629 8.65215C71.8749 8.117 72.04 7.37628 72.04 6.38926C72.04 4.41523 71.2978 3.46898 69.7706 3.46898C69.0283 3.46898 68.2026 3.75782 67.4603 4.37449V8.44657C67.8723 8.7744 68.2026 9.02249 68.5737 9.18552C68.9449 9.2688 69.3586 9.39285 69.7298 9.39285Z" fill="black"/>
<path d="M76.3326 10.091C75.7147 10.091 75.1766 9.92623 74.7646 9.51512C74.3526 9.18553 74.1875 8.65214 74.1875 8.03547C74.1875 7.33553 74.4343 6.84112 74.8889 6.43001C75.3418 6.0189 76.0023 5.85411 76.7872 5.85411C77.4052 5.85411 78.0658 5.97816 78.808 6.18371V5.03191C78.808 4.456 78.6855 4.04489 78.3961 3.83933C78.1066 3.59302 77.6946 3.50973 77.0749 3.50973C76.4569 3.50973 75.7555 3.63378 75.0541 3.83933C75.0132 3.83933 74.8889 3.88008 74.8055 3.88008C74.6829 3.88008 74.6829 3.83932 74.6829 3.71528V3.4282C74.6829 3.38745 74.6829 3.30419 74.7238 3.26343C74.7646 3.22267 74.7646 3.22266 74.8481 3.13937C75.5904 2.85231 76.3326 2.6875 77.1992 2.6875C78.0249 2.6875 78.6429 2.8523 79.0567 3.22265C79.4687 3.55048 79.6338 4.08564 79.6338 4.78559V9.72067C79.6338 9.84472 79.5929 9.96876 79.387 9.96876H79.0975C78.9732 9.96876 78.8507 9.92623 78.8507 9.72067L78.808 9.14477C78.0658 9.80397 77.1992 10.091 76.3326 10.091ZM76.4569 9.39286C76.7872 9.39286 77.1992 9.35033 77.6112 9.14477C78.0249 8.97997 78.4369 8.81694 78.8915 8.5281V6.80039C78.2718 6.63559 77.6946 6.55407 77.0341 6.55407C75.7147 6.55407 75.0541 7.08921 75.0541 8.03547C75.0541 8.44658 75.1766 8.77442 75.3844 9.0225C75.6312 9.26881 76.0023 9.39286 76.4569 9.39286Z" fill="black"/>
<path d="M82.0671 9.96997C81.9428 9.96997 81.8203 9.92744 81.8203 9.72189V3.09984C81.8203 2.97757 81.8611 2.85352 82.0671 2.85352H82.3566C82.5217 2.85352 82.6034 2.89429 82.6034 3.09984L82.6443 3.92207C82.9745 3.51096 83.3457 3.22388 83.676 3.09984C84.0063 2.93504 84.42 2.85352 84.832 2.85352C84.9972 2.85352 85.1215 2.85352 85.1623 2.85352C85.2848 2.85352 85.4091 2.89429 85.4091 3.09984V3.42942C85.4091 3.47017 85.4091 3.47017 85.3683 3.55169C85.3683 3.59422 85.3275 3.59422 85.244 3.59422C85.2031 3.59422 85.0788 3.59422 84.9971 3.59422C84.9563 3.59422 84.832 3.59422 84.7077 3.59422C84.2957 3.59422 83.882 3.63499 83.5535 3.84054C83.2232 4.00534 82.9337 4.25165 82.5626 4.58125V9.72189C82.5626 9.84593 82.5217 9.96997 82.314 9.96997H82.0671Z" fill="black"/>
<path d="M89.0795 10.0512C88.5006 10.0512 88.0887 9.88635 87.7992 9.59928C87.5115 9.31044 87.3464 8.89933 87.3464 8.32342V3.6754H86.2312C86.1087 3.6754 85.9844 3.63463 85.9844 3.42908V3.30505C85.9844 3.2643 85.9844 3.18278 86.0252 3.14025C86.0252 3.09949 86.0661 3.0995 86.1904 3.0995L87.3464 2.97723L87.4689 1.12547C87.4689 1.08472 87.5115 1.00143 87.5115 0.96067C87.5524 0.919913 87.5524 0.919922 87.6767 0.919922H87.9235C88.0478 0.919922 88.1704 0.960665 88.1704 1.16622V3.01798H90.1929C90.3173 3.01798 90.4398 3.05875 90.4398 3.2643V3.55313C90.4398 3.6754 90.3989 3.79946 90.1929 3.79946H88.1704V8.44745C88.1704 8.85856 88.213 9.06412 88.419 9.26967C88.5841 9.43447 88.8718 9.516 89.2447 9.516C89.5324 9.516 89.781 9.51598 89.9461 9.47522C90.0687 9.47522 90.1095 9.43448 90.1929 9.43448C90.2338 9.43448 90.3173 9.43448 90.3173 9.43448C90.4398 9.43448 90.4824 9.47524 90.4824 9.59928V9.84558C90.4824 10.0104 90.4398 10.0919 90.3173 10.1326C89.9461 9.96962 89.5732 10.0512 89.0795 10.0512Z" fill="black"/>
<path d="M92.2252 9.96947C92.1009 9.96947 91.9766 9.92694 91.9766 9.72138V3.09934C91.9766 2.97707 92.0192 2.85301 92.2252 2.85301H92.5146C92.678 2.85301 92.7615 2.89378 92.7615 3.09934L92.8023 3.67524C93.2569 3.34564 93.7097 3.09933 94.246 2.93453C94.7841 2.76974 95.2369 2.64746 95.6915 2.64746C96.3929 2.64746 96.8884 2.81226 97.2595 3.18262C97.5898 3.51044 97.7958 4.04559 97.7958 4.78629V9.68064C97.7958 9.80468 97.7549 9.92693 97.5472 9.92693H97.1352C97.0109 9.92693 96.8884 9.88619 96.8884 9.68064V5.19739C96.8884 4.58073 96.7641 4.16963 96.5581 3.88079C96.3095 3.59372 95.9383 3.46969 95.4429 3.46969C94.5355 3.46969 93.5872 3.75853 92.7206 4.37519V9.80466C92.7206 9.92693 92.678 10.051 92.472 10.051H92.1843V9.96947H92.2252Z" fill="black"/>
<path d="M102.951 10.1318C101.838 10.1318 100.971 9.84472 100.476 9.22805C99.897 8.61139 99.6094 7.66512 99.6094 6.38926C99.6094 5.23745 99.897 4.33195 100.476 3.67453C101.053 3.05786 101.879 2.6875 102.827 2.6875C103.694 2.6875 104.313 2.93381 104.809 3.4282C105.262 3.88007 105.51 4.58003 105.51 5.48376C105.51 5.81335 105.51 6.1022 105.468 6.34852C105.468 6.47079 105.345 6.59481 105.221 6.59481H100.476C100.476 7.58183 100.723 8.32256 101.094 8.77442C101.508 9.22806 102.209 9.47435 103.076 9.47435C103.777 9.47435 104.395 9.35033 104.974 9.14477C105.097 9.10402 105.221 9.104 105.221 9.104C105.262 9.104 105.262 9.10402 105.345 9.14477C105.345 9.18553 105.386 9.18552 105.386 9.2688V9.51512C105.386 9.67992 105.345 9.76143 105.221 9.80395C104.479 9.96875 103.777 10.1318 102.951 10.1318ZM104.685 5.93739C104.685 5.81335 104.685 5.64856 104.685 5.48376C104.685 4.78558 104.519 4.33196 104.23 4.00413C103.9 3.67454 103.406 3.46898 102.786 3.46898C101.3 3.46898 100.517 4.29118 100.435 5.93739H104.685Z" fill="black"/>
<path d="M107.411 9.96997C107.287 9.96997 107.164 9.92744 107.164 9.72189V3.09984C107.164 2.97757 107.205 2.85352 107.411 2.85352H107.7C107.865 2.85352 107.947 2.89429 107.947 3.09984L107.988 3.92207C108.318 3.51096 108.689 3.22388 109.02 3.09984C109.35 2.93504 109.764 2.85352 110.176 2.85352C110.341 2.85352 110.465 2.85352 110.506 2.85352C110.63 2.85352 110.753 2.89429 110.753 3.09984V3.42942C110.753 3.47017 110.753 3.47017 110.712 3.55169C110.712 3.59422 110.671 3.59422 110.588 3.59422C110.506 3.59422 110.423 3.59422 110.341 3.59422C110.3 3.59422 110.176 3.59422 110.051 3.59422C109.639 3.59422 109.228 3.63499 108.897 3.84054C108.567 4.00534 108.277 4.25165 107.906 4.58125V9.72189C107.906 9.84593 107.865 9.96997 107.659 9.96997H107.411Z" fill="black"/>
<path d="M66.8406 25.4748C66.7181 25.4748 66.5938 25.434 66.5938 25.2285V18.6472C66.5938 18.5249 66.6346 18.4009 66.8406 18.4009H67.13C67.2952 18.4009 67.3769 18.4416 67.3769 18.6472L67.4195 19.2231C67.8723 18.8935 68.3269 18.6472 68.8632 18.4824C69.3995 18.3176 69.8541 18.1953 70.3069 18.1953C71.0083 18.1953 71.5038 18.3601 71.8749 18.7305C72.2052 19.0583 72.4112 19.5934 72.4112 20.3341V25.2285C72.4112 25.3525 72.3704 25.4748 72.1644 25.4748H71.7506C71.6281 25.4748 71.5038 25.434 71.5038 25.2285V20.6638C71.5038 20.0453 71.3795 19.6342 71.1735 19.3471C70.9267 19.0583 70.5555 18.936 70.0601 18.936C69.1527 18.936 68.2026 19.2231 67.336 19.8397V25.2692C67.336 25.3933 67.2952 25.5173 67.0892 25.5173H66.7998V25.4748H66.8406Z" fill="black"/>
<path d="M77.6076 25.6796C76.4925 25.6796 75.6277 25.3926 75.1322 24.7759C74.5533 24.1592 74.2656 23.213 74.2656 21.9371C74.2656 20.7853 74.5533 19.8816 75.1322 19.2224C75.7093 18.6057 76.5351 18.2354 77.4833 18.2354C78.3499 18.2354 78.9696 18.4817 79.4651 18.9761C79.9179 19.4279 80.1665 20.1279 80.1665 21.0334C80.1665 21.3612 80.1665 21.6501 80.1239 21.8964C80.1239 22.0204 80.0014 22.1427 79.8771 22.1427H75.1322C75.1322 23.1297 75.379 23.8704 75.7502 24.3222C76.1639 24.7759 76.8653 25.0222 77.7319 25.0222C78.4334 25.0222 79.0513 24.8982 79.6285 24.6926C79.7528 24.6518 79.8771 24.6518 79.8771 24.6518C79.9179 24.6518 79.9179 24.6518 80.0014 24.6926C80.0014 24.7351 80.0422 24.7351 80.0422 24.8167V25.063C80.0422 25.2278 80.0014 25.311 79.8771 25.3518C79.1756 25.5166 78.3908 25.6796 77.6076 25.6796ZM79.3408 21.4445C79.3408 21.3205 79.3408 21.1557 79.3408 20.9909C79.3408 20.2927 79.1756 19.839 78.8862 19.5112C78.5559 19.1816 78.0605 18.9761 77.4425 18.9761C75.9562 18.9761 75.1731 19.7983 75.0896 21.4445H79.3408Z" fill="black"/>
<path d="M84.0874 25.5994C83.5085 25.5994 83.0965 25.4347 82.807 25.1476C82.5194 24.8588 82.3542 24.4476 82.3542 23.8717V19.1422H81.239C81.1165 19.1422 80.9922 19.1015 80.9922 18.8959V18.7718C80.9922 18.7311 80.9922 18.6478 81.033 18.607C81.033 18.5663 81.0739 18.5663 81.1982 18.5663L82.3542 18.4422L82.4767 16.5923C82.4767 16.5515 82.5194 16.4682 82.5194 16.4275C82.5602 16.3867 82.5602 16.3867 82.6827 16.3867H82.9313C83.0557 16.3867 83.1782 16.4275 83.1782 16.633V18.4848H85.2008C85.3251 18.4848 85.4476 18.5255 85.4476 18.7311V19.0182C85.4476 19.1422 85.4068 19.2663 85.2008 19.2663H83.2208V23.9143C83.2208 24.3254 83.2616 24.5309 83.4676 24.7365C83.6736 24.942 83.9222 24.9828 84.2934 24.9828C84.581 24.9828 84.8296 24.9828 84.9948 24.942C85.1173 24.942 85.1599 24.9013 85.2416 24.9013C85.2825 24.9013 85.3659 24.9013 85.3659 24.9013C85.4902 24.9013 85.5311 24.942 85.5311 25.0643V25.3124C85.5311 25.4772 85.4902 25.5587 85.3659 25.5994C84.9539 25.5179 84.5402 25.5994 84.0874 25.5994Z" fill="black"/>
<path d="M88.6257 25.476C88.5014 25.476 88.3788 25.4353 88.3362 25.313L86.1502 18.8132C86.1094 18.6892 86.1094 18.6484 86.1094 18.5669C86.1094 18.4836 86.1502 18.4428 86.2745 18.4428H86.7274C86.8517 18.4428 86.8925 18.4836 86.976 18.6076L88.8725 24.5315L90.5648 18.6076C90.6056 18.4836 90.6891 18.4428 90.8542 18.4428H91.3905C91.5148 18.4428 91.6373 18.4836 91.68 18.6076L93.3705 24.5315L95.3523 18.5261C95.3931 18.4021 95.4748 18.3613 95.5991 18.3613H96.0111C96.1354 18.3613 96.1762 18.4021 96.1762 18.4836C96.1762 18.5261 96.1762 18.6076 96.1354 18.7317L93.8251 25.2297C93.7843 25.3537 93.7008 25.3945 93.5357 25.3945H93.0828C92.9585 25.3945 92.8342 25.3537 92.7934 25.2297L91.1011 19.3076L89.4105 25.2297C89.3679 25.3537 89.2862 25.3945 89.1211 25.3945H88.7091V25.476H88.6257Z" fill="black"/>
<path d="M100.262 25.6803C99.2304 25.6803 98.4064 25.3525 97.8275 24.6933C97.2504 24.0766 96.9609 23.1304 96.9609 21.9378C96.9609 20.786 97.2504 19.8823 97.8275 19.1823C98.4064 18.5657 99.2304 18.1953 100.262 18.1953C101.294 18.1953 102.12 18.5249 102.697 19.1823C103.276 19.799 103.563 20.7453 103.563 21.9378C103.563 23.0896 103.276 23.9951 102.697 24.6933C102.079 25.3525 101.294 25.6803 100.262 25.6803ZM100.262 24.9414C101.873 24.9414 102.697 23.9544 102.697 21.9378C102.697 19.923 101.873 18.936 100.262 18.936C98.6532 18.936 97.8275 19.923 97.8275 21.9378C97.8275 23.9544 98.6124 24.9414 100.262 24.9414Z" fill="black"/>
<path d="M105.545 25.4743C105.421 25.4743 105.297 25.4335 105.297 25.228V18.6467C105.297 18.5244 105.339 18.4004 105.545 18.4004H105.833C105.998 18.4004 106.082 18.4412 106.082 18.6467L106.123 19.4689C106.453 19.0578 106.824 18.7708 107.154 18.6467C107.485 18.4819 107.897 18.4004 108.31 18.4004C108.476 18.4004 108.598 18.4004 108.639 18.4004C108.763 18.4004 108.887 18.4412 108.887 18.6467V18.9763C108.887 19.017 108.887 19.0171 108.847 19.1003C108.804 19.1411 108.804 19.1411 108.722 19.1411C108.681 19.1411 108.557 19.1411 108.475 19.1411C108.433 19.1411 108.31 19.1411 108.186 19.1411C107.774 19.1411 107.36 19.1819 107.03 19.3874C106.7 19.5522 106.412 19.7985 106.041 20.1281V25.2688C106.041 25.3928 105.998 25.5168 105.792 25.5168H105.505V25.4743H105.545Z" fill="black"/>
<path d="M110.372 25.4747C110.249 25.4747 110.125 25.4339 110.125 25.2283V15.3157C110.125 15.1916 110.166 15.0693 110.372 15.0693H110.786C110.91 15.0693 111.032 15.1101 111.032 15.3157V21.5674L114.374 18.5656C114.499 18.4415 114.623 18.4415 114.705 18.4415H115.241C115.365 18.4415 115.406 18.4823 115.406 18.5656C115.406 18.6471 115.365 18.6878 115.241 18.8119L111.817 21.8154L115.53 25.2283C115.571 25.2691 115.655 25.3524 115.655 25.3931C115.655 25.5172 115.614 25.5172 115.49 25.5172H114.911C114.788 25.5172 114.664 25.4747 114.623 25.3931L111.032 22.0618V25.2691C111.032 25.3932 110.992 25.5172 110.786 25.5172H110.372V25.4747Z" fill="black"/>
<path d="M2.93686 43.2913C2.15286 43.0025 1.57519 42.6339 1.24507 42.221C0.914957 41.8099 0.75 41.2765 0.75 40.6173C0.75 39.7951 1.03874 39.1377 1.65777 38.6433C2.27663 38.1489 3.102 37.9026 4.13355 37.9026C4.99995 37.9026 5.82534 38.0674 6.65054 38.397V39.8766C5.78396 39.6303 4.99995 39.4655 4.25732 39.4655C3.22578 39.4655 2.68931 39.7951 2.68931 40.4525C2.68931 40.7006 2.77189 40.9062 2.93686 41.0692C3.10201 41.234 3.47331 41.3988 3.9684 41.5636L4.95875 41.9339C5.78395 42.221 6.36161 42.5914 6.69172 42.9617C7.02184 43.3728 7.22819 43.8672 7.22819 44.5246C7.22819 45.4301 6.89807 46.1301 6.23784 46.6635C5.5776 47.1986 4.7112 47.4449 3.55589 47.4449C3.06062 47.4449 2.56555 47.4042 2.07029 47.3227C1.5752 47.2394 1.1625 47.1171 0.791186 46.9523V45.4301C1.24507 45.5542 1.69896 45.6765 2.19422 45.7597C2.68931 45.8413 3.1432 45.882 3.55589 45.882C4.09217 45.882 4.46367 45.8005 4.75241 45.5949C5.04133 45.3894 5.1651 45.1413 5.1651 44.7727C5.1651 44.4839 5.08252 44.2783 4.91755 44.1135C4.7524 43.9487 4.3811 43.7839 3.88584 43.5784L2.93686 43.2913ZM10.1989 44.4024C10.2397 44.9783 10.4049 45.3894 10.7352 45.6765C11.0655 45.9228 11.5609 46.0468 12.2215 46.0468C12.7986 46.0468 13.5 45.9228 14.2849 45.7172V46.9931C13.9955 47.1579 13.6243 47.2801 13.1697 47.3634C12.7578 47.4449 12.3032 47.4874 11.8504 47.4874C10.7352 47.4874 9.86859 47.1986 9.29129 46.582C8.71363 45.9653 8.42489 45.1005 8.42489 43.908C8.42489 42.7969 8.71363 41.9339 9.29129 41.2765C9.86859 40.6581 10.6943 40.3303 11.7261 40.3303C12.5926 40.3303 13.2532 40.5766 13.7469 41.0692C14.2015 41.5636 14.4483 42.221 14.4483 43.1265C14.4483 43.3321 14.4483 43.5376 14.4075 43.7839C14.3666 44.032 14.3666 44.2376 14.3258 44.4024H10.1989ZM11.6017 41.6876C11.1489 41.6876 10.8186 41.8099 10.57 42.058C10.3232 42.3043 10.1989 42.6747 10.158 43.1673H12.7578V42.9617C12.7578 42.0987 12.3866 41.6876 11.6017 41.6876ZM18.8647 47.1579C18.4935 47.3227 18.0798 47.3634 17.6678 47.3634C16.4709 47.3634 15.8938 46.706 15.8938 45.3894V37.5322H17.8329V45.2246C17.8329 45.4709 17.8738 45.6357 17.9572 45.7597C18.0389 45.8413 18.1632 45.9228 18.3692 45.9228C18.4935 45.9228 18.6587 45.9228 18.8647 45.882V47.1579ZM21.6295 44.4024C21.6704 44.9783 21.8355 45.3894 22.1658 45.6765C22.4961 45.9228 22.9898 46.0468 23.6504 46.0468C24.2293 46.0468 24.9307 45.9228 25.7138 45.7172V46.9931C25.4244 47.1579 25.0532 47.2801 24.6004 47.3634C24.1866 47.4449 23.7338 47.4874 23.2792 47.4874C22.1658 47.4874 21.2992 47.1986 20.7203 46.582C20.1432 45.9653 19.8538 45.1005 19.8538 43.908C19.8538 42.7969 20.1432 41.9339 20.7203 41.2765C21.2992 40.6581 22.1232 40.3303 23.1549 40.3303C24.0215 40.3303 24.6821 40.5766 25.1775 41.0692C25.6321 41.5636 25.879 42.221 25.879 43.1265C25.879 43.3321 25.879 43.5376 25.8381 43.7839C25.7973 44.032 25.7973 44.2376 25.7546 44.4024H21.6295ZM23.0732 41.6876C22.6186 41.6876 22.2883 41.8099 22.0415 42.058C21.7947 42.3043 21.6704 42.6747 21.6295 43.1673H24.2293V42.9617C24.1866 42.0987 23.8155 41.6876 23.0732 41.6876ZM32.1918 46.9931C31.945 47.1171 31.6555 47.2394 31.3252 47.3227C30.995 47.4042 30.6238 47.4449 30.2935 47.4449C29.221 47.4449 28.3952 47.1579 27.8181 46.5412C27.241 45.9228 26.9515 45.0598 26.9515 43.9487C26.9515 42.8394 27.241 41.9747 27.8589 41.358C28.4787 40.7414 29.3044 40.4118 30.3361 40.4118C30.995 40.4118 31.5739 40.5358 32.1101 40.8229V42.0987C31.5739 41.9339 31.1193 41.8932 30.6647 41.8932C30.0467 41.8932 29.5921 42.058 29.3044 42.345C29.015 42.6746 28.8907 43.1673 28.8907 43.8265V44.032C28.8907 44.6894 29.015 45.1838 29.3044 45.5117C29.5921 45.8413 30.0467 45.9653 30.6238 45.9653C31.0376 45.9653 31.5739 45.882 32.1101 45.7172V46.9931H32.1918ZM37.5564 47.1171C37.061 47.2801 36.5656 47.4042 35.9476 47.4042C35.2035 47.4042 34.6264 47.2394 34.2961 46.869C33.925 46.4987 33.7598 45.9653 33.7598 45.2246V41.9747H32.7281V40.7821L33.8007 40.5766L34.0901 38.7248H35.6581V40.5358H37.473V41.9747H35.6581V45.1413C35.6581 45.4301 35.7416 45.6357 35.8641 45.7597C35.9884 45.882 36.2353 45.9228 36.5656 45.9228C36.855 45.9228 37.1445 45.882 37.5156 45.8413V47.1171H37.5564Z" fill="black"/>
<path d="M42.3659 46.3996C42.2879 46.3996 42.2544 46.3674 42.2544 46.2928V41.7529H40.6271C40.5491 41.7529 40.5156 41.7207 40.5156 41.6456V41.4749C40.5156 41.4004 40.5491 41.3681 40.6271 41.3681H44.3279C44.4056 41.3681 44.4392 41.4004 44.4392 41.4749V41.6456C44.4392 41.7207 44.4056 41.7529 44.3279 41.7529H42.7003V46.2928C42.7003 46.3674 42.6669 46.3996 42.5888 46.3996H42.3659ZM46.78 46.5064C46.178 46.5064 45.7319 46.3462 45.4201 46.0149C45.1189 45.684 44.963 45.2031 44.963 44.562C44.963 43.9531 45.1189 43.4833 45.4201 43.1413C45.7319 42.7994 46.1555 42.6392 46.7018 42.6392C47.159 42.6392 47.5154 42.7676 47.7605 43.0134C48.0061 43.2697 48.1284 43.6222 48.1284 44.0921C48.1284 44.2845 48.1174 44.4341 48.0948 44.5302C48.0838 44.6048 48.0392 44.637 47.9615 44.637H45.3976C45.3976 45.1497 45.5204 45.5234 45.7434 45.7585C45.966 46.0043 46.3229 46.1216 46.8021 46.1216C47.17 46.1216 47.5154 46.0577 47.8387 45.9403C47.9054 45.9187 47.95 45.9081 47.9725 45.9081C47.9946 45.9081 48.0061 45.9187 48.0282 45.9293C48.0392 45.9509 48.0507 45.9615 48.0507 45.9937V46.1005C48.0507 46.175 48.0282 46.2284 47.9615 46.25C47.6156 46.4208 47.2146 46.5064 46.78 46.5064ZM47.7159 44.3057C47.7159 44.2417 47.7274 44.1561 47.7274 44.0709C47.7274 43.7184 47.6382 43.4621 47.4597 43.2803C47.2813 43.0985 47.0251 43.0134 46.6793 43.0134C45.8768 43.0134 45.4532 43.451 45.4086 44.3162H47.7159V44.3057ZM50.6808 46.4847C50.1014 46.4847 49.6557 46.3246 49.3435 46.0043C49.0427 45.684 48.8863 45.2031 48.8863 44.5836C48.8863 43.9637 49.0427 43.4938 49.3435 43.163C49.6557 42.8316 50.1014 42.6715 50.6808 42.6715C50.9595 42.6715 51.2272 42.7143 51.4723 42.8104C51.5279 42.8316 51.5615 42.885 51.5615 42.96V43.0668C51.5615 43.1307 51.5279 43.163 51.4723 43.163C51.4613 43.163 51.4387 43.163 51.4166 43.1519C51.3941 43.1413 51.361 43.1413 51.3054 43.1307C51.1044 43.0879 50.9039 43.0557 50.7034 43.0557C50.2242 43.0557 49.8783 43.1735 49.6668 43.4082C49.4547 43.6434 49.3435 44.0176 49.3435 44.5408V44.6264C49.3435 45.1285 49.4547 45.5022 49.6668 45.7374C49.8783 45.9721 50.2242 46.1005 50.6923 46.1005C50.8928 46.1005 51.1044 46.0683 51.35 46.0043C51.4056 45.9937 51.4387 45.9831 51.4613 45.9721C51.4833 45.9615 51.5059 45.9615 51.5169 45.9615C51.5725 45.9615 51.6061 45.9937 51.6061 46.0577V46.1644C51.6061 46.2394 51.5836 46.2928 51.5279 46.314C51.2718 46.4208 50.9821 46.4847 50.6808 46.4847ZM52.6317 46.3996C52.5535 46.3996 52.5199 46.3674 52.5199 46.2928V41.133C52.5199 41.0584 52.5535 41.0262 52.6317 41.0262H52.8322C52.9104 41.0262 52.9435 41.0584 52.9435 41.133V43.163C53.1891 43.0023 53.4452 42.8744 53.7239 42.7782C53.9916 42.682 54.2588 42.6392 54.5154 42.6392C54.8828 42.6392 55.1615 42.7354 55.3625 42.9172C55.563 43.0985 55.6523 43.3765 55.6523 43.7396V46.2928C55.6523 46.3674 55.6187 46.3996 55.5405 46.3996H55.34C55.2623 46.3996 55.2287 46.3674 55.2287 46.2928V43.9214C55.2287 43.6112 55.1615 43.3765 55.0392 43.2375C54.9164 43.0985 54.7159 43.024 54.4372 43.024C53.9355 43.024 53.4452 43.1735 52.966 43.4833V46.2928C52.966 46.3674 52.9325 46.3996 52.8543 46.3996H52.6317ZM56.934 46.3996C56.8558 46.3996 56.8227 46.3674 56.8227 46.2928V42.8528C56.8227 42.7782 56.8558 42.746 56.934 42.746H57.0899C57.1681 42.746 57.2127 42.7782 57.2237 42.8528L57.2573 43.163C57.5024 42.9918 57.7701 42.8638 58.0373 42.7676C58.3049 42.6715 58.5726 42.6287 58.8287 42.6287C59.1967 42.6287 59.4753 42.7248 59.6759 42.9062C59.8764 43.0879 59.9656 43.3659 59.9656 43.729V46.2928C59.9656 46.3674 59.9325 46.3996 59.8543 46.3996H59.6538C59.5756 46.3996 59.542 46.3674 59.542 46.2928V43.9214C59.542 43.6112 59.4753 43.3765 59.3525 43.2375C59.2302 43.0985 59.0292 43.024 58.751 43.024C58.2493 43.024 57.759 43.1735 57.2793 43.4833V46.2928C57.2793 46.3674 57.2463 46.3996 57.1681 46.3996H56.934ZM62.6854 46.5064C62.128 46.5064 61.6934 46.3356 61.3926 45.9937C61.0804 45.6518 60.9355 45.1708 60.9355 44.562C60.9355 43.9531 61.0914 43.4833 61.3926 43.1413C61.7044 42.7994 62.139 42.6287 62.6854 42.6287C63.2428 42.6287 63.6774 42.7994 63.9781 43.1413C64.2904 43.4833 64.4463 43.9531 64.4463 44.562C64.4463 45.1708 64.2904 45.6518 63.9781 45.9937C63.6774 46.3356 63.2428 46.5064 62.6854 46.5064ZM62.6854 46.1322C63.5546 46.1322 64.0007 45.609 64.0007 44.573C64.0007 43.5366 63.5661 43.024 62.6854 43.024C61.8162 43.024 61.3701 43.5366 61.3701 44.573C61.3701 45.609 61.8047 46.1322 62.6854 46.1322ZM66.0739 46.4208C65.8734 46.4208 65.717 46.3674 65.6057 46.25C65.4944 46.1327 65.4383 45.9831 65.4383 45.7691V41.1224C65.4383 41.0478 65.4719 41.0156 65.5501 41.0156H65.7506C65.8288 41.0156 65.8619 41.0478 65.8619 41.1224V45.7585C65.8619 45.8653 65.8844 45.9403 65.929 45.9831C65.9736 46.0255 66.0513 46.0471 66.1631 46.0471C66.1967 46.0471 66.2298 46.0471 66.2634 46.0365C66.2969 46.0365 66.33 46.0255 66.3526 46.0255C66.4193 46.0255 66.4639 46.0577 66.4639 46.1322V46.2712C66.4639 46.3356 66.4308 46.3674 66.3636 46.378C66.2744 46.4102 66.1852 46.4208 66.0739 46.4208ZM68.8829 46.5064C68.3255 46.5064 67.8904 46.3356 67.5897 45.9937C67.2774 45.6518 67.1325 45.1708 67.1325 44.562C67.1325 43.9531 67.2889 43.4833 67.5897 43.1413C67.902 42.7994 68.3366 42.6287 68.8829 42.6287C69.4398 42.6287 69.8749 42.7994 70.1757 43.1413C70.4879 43.4833 70.6438 43.9531 70.6438 44.562C70.6438 45.1708 70.4879 45.6518 70.1757 45.9937C69.8749 46.3356 69.4398 46.5064 68.8829 46.5064ZM68.8829 46.1322C69.7521 46.1322 70.1977 45.609 70.1977 44.573C70.1977 43.5366 69.7631 43.024 68.8829 43.024C68.0132 43.024 67.5676 43.5366 67.5676 44.573C67.5787 45.609 68.0132 46.1322 68.8829 46.1322ZM72.9732 47.9804C72.7617 47.9804 72.5496 47.9593 72.3491 47.9165C72.1486 47.8737 71.9702 47.8203 71.8143 47.7457C71.7586 47.7241 71.725 47.6707 71.725 47.5961V47.4889C71.725 47.4249 71.7471 47.3932 71.8143 47.3932C71.8253 47.3932 71.8474 47.3932 71.8589 47.4038C71.8809 47.4038 71.9145 47.4144 71.9591 47.4355C72.3155 47.5423 72.6499 47.6067 72.9401 47.6067C73.4083 47.6067 73.7536 47.5 73.9767 47.2754C74.1993 47.0513 74.311 46.6987 74.311 46.2178V45.8653C74.1216 46.0149 73.9206 46.1322 73.6865 46.2178C73.4639 46.3034 73.2409 46.3462 73.0403 46.3462C72.5496 46.3462 72.1707 46.175 71.8699 45.8441C71.5802 45.5128 71.4353 45.0751 71.4353 44.5302C71.4353 43.9425 71.5802 43.4833 71.8699 43.1413C72.1596 42.7994 72.5611 42.6287 73.0624 42.6287C73.5416 42.6287 73.9541 42.7888 74.3221 43.1096L74.3556 42.8422C74.3667 42.7676 74.4113 42.7354 74.489 42.7354H74.6454C74.7231 42.7354 74.7567 42.7676 74.7567 42.8422V46.2178C74.7567 46.7839 74.6008 47.222 74.2995 47.5211C73.9988 47.8203 73.5416 47.9804 72.9732 47.9804ZM73.1406 45.9721C73.5196 45.9721 73.9095 45.8225 74.311 45.5128V43.4938C74.099 43.3337 73.9095 43.2053 73.709 43.1307C73.5196 43.0557 73.3075 43.0134 73.096 43.0134C72.6945 43.0134 72.3827 43.1413 72.1822 43.3871C71.9812 43.6434 71.8809 44.0065 71.8809 44.5086C71.8809 44.9789 71.9927 45.342 72.2043 45.5984C72.4163 45.8547 72.7281 45.9721 73.1406 45.9721ZM76.0609 47.9804C75.9381 47.9804 75.8268 47.9592 75.7155 47.927C75.6374 47.9059 75.6038 47.8631 75.6038 47.7775V47.6707C75.6038 47.6067 75.6374 47.5745 75.693 47.5745C75.7266 47.5745 75.7486 47.5745 75.7712 47.5851C75.7933 47.5851 75.8268 47.5961 75.8714 47.5961C75.916 47.5961 75.9607 47.5961 76.0273 47.5961C76.1947 47.5961 76.3286 47.5533 76.4288 47.4677C76.5291 47.3821 76.6183 47.2326 76.7075 47.019L76.9637 46.4102L75.4699 42.8956C75.4479 42.8528 75.4369 42.821 75.4369 42.7994C75.4369 42.746 75.4699 42.7143 75.5256 42.7143H75.7712C75.8379 42.7143 75.8825 42.746 75.905 42.8104L77.1752 45.9293L78.4574 42.8104C78.4795 42.746 78.5241 42.7143 78.5913 42.7143H78.8138C78.8695 42.7143 78.903 42.7354 78.903 42.7994C78.903 42.8104 78.892 42.8422 78.8695 42.8956L77.0865 47.1474C76.9637 47.4466 76.8188 47.6495 76.6629 47.7775C76.5065 47.927 76.306 47.9804 76.0609 47.9804Z" fill="black"/>
<path d="M82.5328 47.8357C82.4333 47.8357 82.3906 47.7927 82.3906 47.691V41.1603C82.3906 41.0593 82.4333 41.0156 82.5328 41.0156H84.6942C85.3054 41.0156 85.7888 41.204 86.159 41.5658C86.5286 41.9283 86.6994 42.4204 86.6994 43.043C86.6994 43.6512 86.5146 44.1434 86.159 44.5052C85.7888 44.8676 85.3054 45.0554 84.6942 45.0554H82.9452V47.691C82.9452 47.7927 82.9025 47.8357 82.803 47.8357H82.5328ZM84.68 44.5345C85.6328 44.5345 86.1162 44.0423 86.1162 43.043C86.1162 42.0437 85.6328 41.5371 84.68 41.5371H82.9452V44.5345H84.68ZM89.0737 47.9517C88.6331 47.9517 88.2776 47.8214 88.0071 47.5606C87.7513 47.2999 87.6093 46.9524 87.6093 46.5182C87.6093 46.0404 87.7654 45.6636 88.0928 45.3885C88.4195 45.1134 88.8607 44.9687 89.4152 44.9687C89.8417 44.9687 90.311 45.041 90.7945 45.2007V44.3754C90.7945 43.97 90.6947 43.6949 90.5099 43.5208C90.3251 43.3468 90.0124 43.2601 89.5859 43.2601C89.1447 43.2601 88.6753 43.3468 88.1778 43.5065C88.1209 43.5208 88.064 43.5352 88.0358 43.5352C87.9789 43.5352 87.9361 43.4921 87.9361 43.4048V43.2457C87.9361 43.1877 87.9502 43.159 87.9649 43.1297C87.9789 43.101 88.0218 43.0717 88.064 43.0573C88.5762 42.8546 89.1165 42.7535 89.685 42.7535C90.2541 42.7535 90.6666 42.869 90.9505 43.1154C91.2351 43.3618 91.363 43.7236 91.363 44.2158V47.691C91.363 47.7927 91.3201 47.8357 91.221 47.8357H91.0215C90.9224 47.8357 90.8795 47.7927 90.8655 47.691L90.8226 47.2712C90.2541 47.7197 89.671 47.9517 89.0737 47.9517ZM89.1447 47.4302C89.3864 47.4302 89.6569 47.3872 89.9408 47.2855C90.2254 47.1844 90.5099 47.0397 90.8085 46.8513V45.6206C90.382 45.5045 89.9555 45.4465 89.5571 45.4465C88.6612 45.4465 88.2066 45.794 88.2066 46.5039C88.2066 46.8077 88.2916 47.0397 88.4483 47.1988C88.5903 47.3579 88.832 47.4302 89.1447 47.4302ZM92.984 47.8357C92.8843 47.8357 92.842 47.7927 92.842 47.691V43.0287C92.842 42.927 92.8843 42.8839 92.984 42.8839H93.1688C93.2685 42.8839 93.3255 42.927 93.3395 43.0287L93.3824 43.6075C93.6241 43.3324 93.8658 43.1297 94.1075 43.0287C94.3492 42.9126 94.605 42.8546 94.9037 42.8546C95.0034 42.8546 95.0885 42.8546 95.1595 42.8689C95.2592 42.8689 95.302 42.927 95.302 43.0287V43.2744C95.302 43.3037 95.2873 43.3324 95.2733 43.3468C95.2592 43.3761 95.2304 43.3761 95.2023 43.3761C95.1454 43.3761 95.1025 43.3761 95.0603 43.3761C95.0175 43.3761 94.9465 43.3761 94.8608 43.3761C94.5622 43.3761 94.3064 43.4341 94.0788 43.5495C93.8517 43.6656 93.6241 43.8396 93.4246 44.0854V47.7053C93.4246 47.807 93.3824 47.85 93.2826 47.85H92.984V47.8357ZM97.6623 47.8937C97.2786 47.8937 96.994 47.7927 96.7946 47.5899C96.5957 47.3872 96.4965 47.0828 96.4965 46.6916V43.3905H95.7286C95.6288 43.3905 95.586 43.3468 95.586 43.2457V43.1447C95.586 43.0867 95.6007 43.0573 95.6147 43.0287C95.6288 42.9993 95.6716 42.985 95.7286 42.985L96.5106 42.9126L96.5816 41.6095C96.5816 41.5515 96.5957 41.5228 96.6244 41.4935C96.6526 41.4648 96.6813 41.4648 96.7236 41.4648H96.8943C96.9941 41.4648 97.0369 41.5084 97.0369 41.6095V42.8983H98.4443C98.5441 42.8983 98.5863 42.9419 98.5863 43.043V43.2457C98.5863 43.3468 98.5441 43.3905 98.4443 43.3905H97.0369V46.6629C97.0369 46.938 97.0932 47.1264 97.207 47.2275C97.3208 47.3435 97.5056 47.4015 97.7761 47.4015C97.9609 47.4015 98.1316 47.3872 98.2736 47.3579C98.3446 47.3435 98.4015 47.3292 98.4443 47.3292C98.4872 47.3148 98.5153 47.3148 98.5441 47.3148C98.6151 47.3148 98.6573 47.3579 98.6573 47.4302V47.5749C98.6573 47.691 98.6292 47.749 98.5441 47.7777C98.2877 47.85 97.9891 47.8937 97.6623 47.8937ZM99.8096 47.8357C99.7098 47.8357 99.667 47.7927 99.667 47.691V43.0287C99.667 42.927 99.7098 42.8839 99.8096 42.8839H100.008C100.108 42.8839 100.165 42.927 100.179 43.0287L100.221 43.4485C100.535 43.217 100.876 43.043 101.217 42.9126C101.559 42.7822 101.899 42.7242 102.227 42.7242C102.696 42.7242 103.052 42.8546 103.307 43.101C103.563 43.3468 103.677 43.7236 103.677 44.2158V47.691C103.677 47.7927 103.634 47.8357 103.535 47.8357H103.279C103.18 47.8357 103.137 47.7927 103.137 47.691V44.4765C103.137 44.0567 103.052 43.7379 102.895 43.5495C102.738 43.3618 102.483 43.2601 102.127 43.2601C101.488 43.2601 100.862 43.4628 100.25 43.8826V47.691C100.25 47.7927 100.207 47.8357 100.108 47.8357H99.8096ZM107.218 47.9804C106.45 47.9804 105.881 47.7633 105.483 47.3148C105.099 46.8657 104.9 46.2138 104.9 45.3455C104.9 44.5202 105.099 43.8826 105.483 43.4198C105.881 42.9563 106.422 42.7392 107.118 42.7392C107.701 42.7392 108.156 42.9126 108.469 43.2457C108.782 43.5932 108.938 44.071 108.938 44.7079C108.938 44.9687 108.924 45.1714 108.896 45.3018C108.882 45.4035 108.825 45.4465 108.725 45.4465H105.455C105.455 46.1414 105.611 46.6486 105.895 46.9667C106.18 47.2998 106.635 47.4595 107.246 47.4595C107.715 47.4595 108.156 47.3722 108.568 47.2131C108.654 47.1844 108.711 47.1695 108.739 47.1695C108.768 47.1695 108.782 47.1844 108.81 47.1988C108.825 47.2275 108.839 47.2418 108.839 47.2855V47.4302C108.839 47.5319 108.81 47.6043 108.725 47.633C108.284 47.865 107.772 47.9804 107.218 47.9804ZM108.412 44.998C108.412 44.9107 108.426 44.7953 108.426 44.6792C108.426 44.2014 108.313 43.8539 108.085 43.6075C107.857 43.3618 107.53 43.2457 107.09 43.2457C106.066 43.2457 105.526 43.8396 105.469 45.0124H108.412V44.998ZM110.317 47.8357C110.218 47.8357 110.175 47.7927 110.175 47.691V43.0287C110.175 42.927 110.218 42.8839 110.317 42.8839H110.502C110.602 42.8839 110.659 42.927 110.673 43.0287L110.716 43.6075C110.957 43.3324 111.199 43.1297 111.441 43.0287C111.682 42.9126 111.938 42.8546 112.237 42.8546C112.337 42.8546 112.422 42.8546 112.493 42.8689C112.592 42.8689 112.635 42.927 112.635 43.0287V43.2744C112.635 43.3037 112.621 43.3324 112.607 43.3468C112.592 43.3761 112.564 43.3761 112.536 43.3761C112.479 43.3761 112.436 43.3761 112.394 43.3761C112.351 43.3761 112.28 43.3761 112.195 43.3761C111.896 43.3761 111.64 43.4341 111.413 43.5495C111.185 43.6656 110.957 43.8396 110.758 44.0854V47.7053C110.758 47.807 110.716 47.85 110.616 47.85H110.317V47.8357Z" fill="black"/>
</svg>
