<svg width="110" height="18" viewBox="0 0 110 18" fill="none" xmlns="http://www.w3.org/2000/svg">
<g clip-path="url(#clip0_6079_6675)">
<path d="M107.547 15.2242C106.68 16.1415 105.698 16.6884 104.465 16.9382C103.633 17.1075 102.904 17.1431 102.059 17.0548C100.938 16.9388 100.013 16.5764 99.111 15.897C98.3733 15.3435 97.8451 14.7445 97.3836 13.9419C97.0275 13.3205 96.82 12.7394 96.7048 12.0316C96.5431 11.0498 96.5856 10.1859 96.8422 9.22585C97.4287 7.0421 99.0606 5.49424 101.26 5.03363C102.516 4.77071 103.633 4.79773 104.875 5.12061C105.759 5.35058 106.461 5.73805 107.13 6.3647C107.553 6.75875 107.852 7.15478 108.118 7.66744C108.433 8.27367 108.56 8.86277 108.524 9.54544H104.601C104.516 9.01631 104.264 8.59458 103.84 8.27038C103.292 7.84931 102.584 7.8157 101.998 8.18076C101.597 8.43182 101.334 8.77315 101.192 9.22585C100.854 10.3045 100.839 11.3081 101.14 12.3974C101.269 12.8553 101.484 13.2145 101.828 13.5413C102.22 13.9182 102.709 14.0731 103.246 13.9933C103.579 13.9446 103.849 13.7983 104.073 13.5446C104.308 13.283 104.442 13.0023 104.504 12.655C104.547 12.4105 104.571 12.2036 104.584 11.9559H108.72C108.802 13.2112 108.407 14.3136 107.547 15.2242Z" fill="#0056A8"/>
<path d="M91.7344 3.60547H96.0247V0.554514H91.7344V3.60547Z" fill="#0056A8"/>
<path d="M91.7344 16.7231H96.0247V5.17369H91.7344V16.7231Z" fill="#0056A8"/>
<path d="M82.8452 6.3922C83.4095 5.89536 83.9475 5.5448 84.6283 5.22784C85.7365 4.71255 86.8448 4.62886 88.0171 4.97349C89.2746 5.34448 90.1805 6.23471 90.5772 7.49264C90.7677 8.0969 90.8502 8.63328 90.8502 9.26719V16.7212H86.2936V10.0177C86.2936 9.79368 86.2668 9.60391 86.2 9.38909C86.0835 9.00427 85.8308 8.72092 85.4616 8.56409C84.6538 8.2188 83.7355 8.52455 83.2923 9.2863C83.1071 9.60391 83.0226 9.91691 83.0226 10.2859V16.7212H78.6094V5.17117H82.7496L82.8452 6.3922Z" fill="#0056A8"/>
<path d="M32.103 6.39269C32.6673 5.89584 33.2054 5.54529 33.8848 5.22833C34.9937 4.71304 36.1026 4.62935 37.2743 4.97398C38.5324 5.34496 39.4383 6.2352 39.835 7.49313C40.0255 8.09739 40.108 8.63377 40.108 9.26767V16.7217H35.5514V10.0182C35.5514 9.79417 35.5233 9.6044 35.4585 9.38958C35.3406 9.00475 35.088 8.72141 34.7181 8.56458C33.911 8.21929 32.9926 8.52504 32.5501 9.28678C32.3642 9.6044 32.2798 9.9174 32.2798 10.2864V16.7217H27.8672V5.17166H32.0068L32.103 6.39269Z" fill="#0056A8"/>
<path d="M59.1485 12.4766C59.4771 12.5326 59.752 12.6018 60.0675 12.7079C60.3313 12.7948 60.5127 13.0004 60.5703 13.2726C60.6331 13.5698 60.55 13.8518 60.3379 14.0659C60.1225 14.2854 59.8771 14.4119 59.5746 14.4593C59.1701 14.5246 58.8114 14.491 58.4258 14.35C58.2393 14.2827 58.0913 14.1977 57.9382 14.0706C57.7411 13.9032 57.6141 13.7114 57.5376 13.4637C57.4734 13.2535 57.4479 13.0676 57.4518 12.8476H53.25V13.094C53.25 13.492 53.3115 13.8294 53.4503 14.2017C53.6611 14.7618 53.9498 15.1947 54.3857 15.6033C54.9545 16.139 55.5483 16.4731 56.2965 16.6886C57.8498 17.134 59.2486 17.2223 60.8452 16.9759C61.594 16.8605 62.212 16.6576 62.8855 16.3064C63.1821 16.1515 63.4197 15.9914 63.6756 15.7753C64.8107 14.8158 65.2316 13.3517 64.778 11.9316C64.6065 11.3966 64.3355 10.9841 63.9132 10.615C63.3346 10.1103 62.7487 9.78872 62.013 9.57259C61.8519 9.5258 61.7145 9.48627 61.5521 9.44146C60.6521 9.18974 59.879 9.02369 58.9547 8.88531C58.7073 8.84841 58.4991 8.80821 58.255 8.75088C58.1424 8.72387 58.0488 8.69224 57.9441 8.64413C57.6855 8.52684 57.5709 8.22043 57.6875 7.96081C57.694 7.94697 57.6999 7.93445 57.7071 7.92127C57.8459 7.67153 58.0514 7.50877 58.3224 7.42904C58.8022 7.28934 59.2441 7.3012 59.7147 7.46264C60.1664 7.6175 60.4498 8.03461 60.4302 8.51498H64.4788C64.4749 8.01418 64.399 7.59114 64.2314 7.12065C64.0599 6.64357 63.7993 6.28049 63.4033 5.96617C63.059 5.69073 62.7324 5.50359 62.3219 5.34347C61.9226 5.1873 61.5705 5.08978 61.1483 5.01532C60.1448 4.84135 59.2814 4.79061 58.2655 4.85124C57.6848 4.88484 57.1952 4.95733 56.627 5.09109C55.8625 5.2723 55.2465 5.56949 54.6286 6.05711C54.1036 6.47159 53.7599 6.95591 53.54 7.58982C53.4398 7.87712 53.392 8.13213 53.379 8.43459C53.356 8.94132 53.4287 9.37293 53.6153 9.84408C53.9491 10.6875 54.5422 11.2852 55.3813 11.6219C55.8062 11.7926 56.1786 11.9046 56.627 11.9969C57.5107 12.1807 58.2589 12.3237 59.1485 12.4766Z" fill="#0056A8"/>
<path d="M8.91997 11.7418H5.97563V7.95225H7.88899C8.25229 7.95225 8.55994 7.94368 8.92324 7.92325C9.42662 7.89558 9.8449 7.6689 10.1447 7.26101C10.3038 7.04422 10.3934 6.82545 10.4314 6.55791C10.4628 6.33255 10.4674 6.14014 10.4452 5.91478C10.3633 5.07133 9.66947 4.43874 8.82833 4.43874H5.97563V16.7222H1.10156V0.552933H9.06856C9.38538 0.552933 9.65311 0.558863 9.96927 0.576654C12.0829 0.690651 13.8241 1.87214 14.7196 3.80286C15.1857 4.80775 15.3441 5.77377 15.2243 6.87684C14.9716 9.19897 13.3581 11.0051 11.0912 11.5053C10.3398 11.6713 9.68911 11.7418 8.91997 11.7418Z" fill="#0056A8"/>
<path d="M72.9101 4.95183C72.4565 4.87934 72.0689 4.84969 71.6101 4.84969C71.1505 4.84969 70.7637 4.87934 70.3094 4.95183C68.9924 5.15939 67.9254 5.69248 66.9638 6.6216C65.9348 7.61727 65.3712 8.79546 65.2422 10.226C65.1637 11.1044 65.2311 11.8615 65.4661 12.7109C65.8261 14.0143 66.5023 15.0212 67.5693 15.8436C68.2717 16.3872 68.9701 16.7127 69.8355 16.9025C70.4501 17.0382 70.981 17.0942 71.6101 17.0942C72.2385 17.0942 72.77 17.0382 73.3853 16.9025C74.25 16.7127 74.9485 16.3872 75.6508 15.8436L73.1857 13.1392C72.7936 14.0156 71.7724 14.4064 70.9011 14.0117C70.4999 13.8298 70.2151 13.5438 70.0338 13.1392C69.8669 12.7656 69.7694 12.4309 69.7091 12.025C69.5874 11.2138 69.6011 10.5094 69.7589 9.70349C69.8394 9.28506 69.9782 8.94373 70.2099 8.58724C70.7166 7.80902 71.7534 7.59157 72.5278 8.10093C72.7301 8.2347 72.878 8.38362 73.0096 8.58724C73.242 8.94373 73.3807 9.28506 73.4612 9.70349C73.617 10.5094 73.6327 11.2138 73.511 12.025C73.4501 12.4309 73.3526 12.7656 73.1857 13.1392L75.6508 15.8436C76.7185 15.0212 77.3947 14.0143 77.754 12.7109C77.989 11.8615 78.0558 11.1044 77.9779 10.226C77.849 8.79546 77.2867 7.61727 76.257 6.6216C75.2947 5.69116 74.2284 5.15939 72.9101 4.95183Z" fill="#0056A8"/>
<path d="M52.7728 15.8176C52.7087 14.8661 52.6727 14.0602 52.6537 13.1054C52.6288 11.8508 52.6137 10.7925 52.6052 9.53851C52.6 8.86177 52.526 8.29046 52.3578 7.63547C52.1372 6.77686 51.6378 6.1245 50.8686 5.69092C50.4039 5.42932 49.9777 5.26853 49.458 5.15519C47.8032 4.7987 46.3428 4.76905 44.6755 5.0603C44.2069 5.14201 43.8193 5.25535 43.3795 5.43854C42.3635 5.86158 41.6638 6.63255 41.3378 7.68884C41.2128 8.09278 41.1794 8.45915 41.2272 8.88022C41.2363 8.95732 41.2553 9.02255 41.29 9.09306L45.1508 9.18795C45.141 8.94018 45.173 8.73064 45.2562 8.49803C45.3825 8.14352 45.6312 7.8918 45.9834 7.76265C46.5012 7.57089 47 7.56364 47.525 7.73629C47.8699 7.85029 48.1148 8.10069 48.2221 8.44927C48.2895 8.66738 48.2561 8.8822 48.1252 9.06868C48.0113 9.23342 47.8706 9.34412 47.684 9.41594C47.5688 9.46009 47.4706 9.49238 47.3528 9.52401C46.8161 9.66964 46.3578 9.7698 45.81 9.86139C45.376 9.93322 45.0107 10.0011 44.5806 10.0894C43.9961 10.206 43.5078 10.3352 42.9415 10.5197C42.4231 10.6884 42.0146 10.9282 41.614 11.2992C41.093 11.7789 40.7951 12.3476 40.6957 13.0533C40.6302 13.5238 40.6452 13.9337 40.7487 14.3969C41.019 15.6015 41.8497 16.4924 43.0286 16.8377C44.3352 17.2192 45.5612 17.1566 46.8226 16.6439C47.4366 16.3955 47.904 16.0509 48.3262 15.5382L48.0539 13.5528C47.8595 13.8559 47.6179 14.0628 47.2913 14.2078C46.9849 14.3442 46.708 14.416 46.3749 14.4503C46.0973 14.478 45.8564 14.4575 45.5874 14.3818C45.3688 14.3211 45.1979 14.2183 45.0428 14.0523C44.9119 13.91 44.834 13.7571 44.794 13.5673C44.7332 13.2761 44.8281 12.996 45.0539 12.8029C45.2051 12.6731 45.353 12.5861 45.5383 12.5176C45.9867 12.3516 46.3696 12.227 46.8285 12.0959C47.3836 11.9384 47.8431 11.7677 48.3668 11.5252C48.4185 11.9476 48.4159 12.3094 48.3576 12.7298C48.3151 13.0382 48.2221 13.2919 48.0539 13.5528L48.3262 15.5382C48.4106 15.8202 48.4885 16.0561 48.5841 16.3322C48.6384 16.4871 48.7091 16.607 48.8165 16.7276H53.0693C52.888 16.441 52.7957 16.1576 52.7728 15.8176Z" fill="#0056A8"/>
<path d="M27.0152 15.8176C26.9511 14.8661 26.9151 14.0602 26.8961 13.1054C26.8706 11.8508 26.8562 10.7925 26.8477 9.53851C26.8431 8.86177 26.7691 8.29046 26.6002 7.63547C26.3796 6.77686 25.8808 6.1245 25.111 5.69092C24.6463 5.42932 24.2201 5.26853 23.7004 5.15519C22.0456 4.7987 20.5852 4.76905 18.9173 5.0603C18.4499 5.14201 18.0611 5.25535 17.6219 5.43854C16.606 5.86158 15.9062 6.63255 15.5802 7.68884C15.4559 8.09278 15.4218 8.45915 15.4703 8.88022C15.4788 8.95732 15.4978 9.02255 15.5324 9.09306L19.3932 9.18795C19.384 8.94018 19.4155 8.73064 19.4986 8.49803C19.6249 8.14352 19.8737 7.8918 20.2258 7.76265C20.7443 7.57089 21.2424 7.56364 21.7667 7.73629C22.1124 7.85029 22.3578 8.10069 22.4658 8.44927C22.532 8.66738 22.4986 8.8822 22.3677 9.06868C22.2531 9.23342 22.1124 9.34412 21.9265 9.41594C21.8113 9.46009 21.7131 9.49238 21.5946 9.52401C21.0585 9.66964 20.5996 9.7698 20.0524 9.86139C19.619 9.93322 19.2531 10.0011 18.8224 10.0894C18.2385 10.206 17.7508 10.3352 17.1833 10.5197C16.6662 10.6884 16.2577 10.9282 15.8565 11.2992C15.3354 11.7789 15.0382 12.3476 14.9381 13.0533C14.872 13.5238 14.8877 13.9337 14.9918 14.3969C15.2608 15.6015 16.0928 16.4924 17.2704 16.8377C18.5782 17.2192 19.803 17.1566 21.065 16.6439C21.6784 16.3955 22.1471 16.0509 22.5693 15.5382L22.297 13.5528C22.1026 13.8559 21.8604 14.0628 21.5331 14.2078C21.2274 14.3442 20.9498 14.416 20.6179 14.4503C20.3391 14.478 20.0995 14.4575 19.8298 14.3818C19.6112 14.3211 19.4403 14.2183 19.2859 14.0523C19.1543 13.91 19.0764 13.7571 19.0365 13.5673C18.9762 13.2761 19.0705 12.996 19.2963 12.8029C19.4469 12.6731 19.5948 12.5861 19.7807 12.5176C20.2291 12.3516 20.6127 12.227 21.0716 12.0959C21.6267 11.9384 22.0855 11.7677 22.6099 11.5252C22.6609 11.9476 22.6583 12.3094 22.6 12.7298C22.5575 13.0382 22.4639 13.2919 22.297 13.5528L22.5693 15.5382C22.6531 15.8202 22.731 16.0561 22.8272 16.3322C22.8809 16.4871 22.9516 16.607 23.0589 16.7276H27.3118C27.1304 16.441 27.0388 16.1576 27.0152 15.8176Z" fill="#0056A8"/>
</g>
<defs>
<clipPath id="clip0_6079_6675">
<rect width="108.488" height="17.4215" fill="white" transform="translate(0.671875 0.119141)"/>
</clipPath>
</defs>
</svg>
