<svg width="82" height="29" viewBox="0 0 82 29" fill="none" xmlns="http://www.w3.org/2000/svg">
<g opacity="0.8">
<path d="M1.64484 18.7871H-0.0078125V23.3555H1.61752C3.16091 23.3555 4.18528 22.3117 4.18528 21.051C4.18528 19.7903 3.18823 18.7871 1.64484 18.7871ZM1.6585 22.4608H1.03022V19.7089H1.6585C2.51897 19.7089 3.13359 20.2918 3.13359 21.0917C3.13359 21.8915 2.53263 22.4608 1.6585 22.4608Z" fill="white" fill-opacity="0.6"/>
<path d="M7.84475 21.4713C7.84475 22.1085 7.44866 22.4745 6.91598 22.4745C6.38331 22.4745 5.97356 22.0949 5.97356 21.4713V18.8008H4.92188V21.512C4.92188 22.6779 5.7004 23.437 6.88867 23.437C8.07694 23.437 8.88278 22.6507 8.88278 21.4713V18.8008H7.85841V21.4713H7.84475Z" fill="white" fill-opacity="0.6"/>
<path d="M12.8447 20.9697C13.2135 20.7663 13.4457 20.3867 13.4457 19.9665C13.4457 19.2074 12.7765 18.7871 11.9843 18.7871H9.92188V23.3555H12.1072C12.9404 23.3555 13.6506 22.8675 13.6506 22.0813C13.6369 21.5797 13.3228 21.1323 12.8447 20.9697ZM11.7657 20.6308H10.9599V19.6005H11.7657C12.1755 19.6005 12.394 19.8445 12.394 20.1156C12.394 20.4003 12.1755 20.6308 11.7657 20.6308ZM10.9599 21.3899H11.916C12.3257 21.3899 12.5989 21.6204 12.5989 21.9593C12.5989 22.2711 12.3667 22.5422 11.916 22.5422H10.9599V21.3899Z" fill="white" fill-opacity="0.6"/>
<path d="M16.7471 18.7871H15.7228L13.8516 23.3555H14.9442L15.313 22.4066H17.1022L17.471 23.3555H18.6183L16.7608 18.8007L16.7471 18.7871ZM16.8154 21.5797H15.6135L16.2144 20.0207L16.8154 21.5797Z" fill="white" fill-opacity="0.6"/>
<path d="M20.2528 18.7871H19.1875V23.3555H20.2528V18.7871Z" fill="white" fill-opacity="0.6"/>
<path d="M24.9785 18.7871H22.9844V23.3555H24.0361V21.9186H24.9512C26.0438 21.9186 26.7131 21.2001 26.7131 20.3325C26.6994 19.37 25.9619 18.7871 24.9785 18.7871ZM24.0224 19.6818H24.8692C25.3746 19.6818 25.6614 19.9936 25.6614 20.3732C25.6614 20.7528 25.3746 21.0645 24.8692 21.0645H24.0224V19.6818Z" fill="white" fill-opacity="0.6"/>
<path d="M29.689 18.7324C28.3232 18.7324 27.2578 19.7627 27.2578 21.1048C27.2578 22.4197 28.2685 23.4364 29.6617 23.4364C31.0275 23.4364 32.0928 22.4061 32.0928 21.0776C32.0928 19.7491 31.0821 18.7324 29.689 18.7324ZM29.6753 22.4739C28.8695 22.4739 28.2958 21.8775 28.2958 21.0776C28.2958 20.3049 28.8558 19.6814 29.6753 19.6814C30.4675 19.6814 31.0548 20.2778 31.0548 21.0776C31.0412 21.8639 30.4675 22.4739 29.6753 22.4739Z" fill="white" fill-opacity="0.6"/>
<path d="M42.2016 21.9707C41.9421 22.296 41.546 22.4858 41.1363 22.4722C40.3441 22.4722 39.7568 21.8893 39.7568 21.0759C39.7568 20.2626 40.3304 19.6797 41.1363 19.6797C41.5324 19.6661 41.9148 19.8423 42.1743 20.1406L42.188 20.1541L42.9528 19.4763L42.9392 19.4628C42.4748 18.9612 41.8328 18.6901 41.1499 18.7036C39.7841 18.7036 38.7188 19.7474 38.7188 21.0759C38.7188 22.4045 39.7568 23.4076 41.1226 23.4076C41.8328 23.4212 42.5021 23.1229 42.9665 22.5942L42.9801 22.5807L42.2153 21.93L42.2016 21.9707Z" fill="white" fill-opacity="0.6"/>
<path d="M33.9658 18.7871H32.9141V23.3691H36.1784V22.4337H33.9658V18.7871Z" fill="white" fill-opacity="0.6"/>
<path d="M37.8622 18.7871H36.7969V23.3555H37.8622V18.7871Z" fill="white" fill-opacity="0.6"/>
<path d="M44.6474 22.4608V21.4441H46.6825V20.5901H44.6474V19.6954H47.0103V18.7871H43.6094V23.3691H47.0786V22.4608H44.6474Z" fill="white" fill-opacity="0.6"/>
<path d="M25.3314 7.69742C25.7138 7.69742 26.0143 7.39918 26.0143 7.01961C26.0143 6.64003 25.7138 6.3418 25.3314 6.3418C24.9489 6.3418 24.6484 6.64003 24.6484 7.01961C24.6484 7.38562 24.9489 7.69742 25.3314 7.69742Z" fill="white" fill-opacity="0.6"/>
<path d="M43.3548 6.66812C43.7372 6.66812 44.0377 6.36988 44.0377 5.99031C44.0377 5.61074 43.7372 5.3125 43.3548 5.3125C42.9724 5.3125 42.6719 5.61074 42.6719 5.99031C42.6719 6.36988 42.986 6.66812 43.3548 6.66812Z" fill="white" fill-opacity="0.6"/>
<path d="M42.4017 8.24039C42.7841 8.24039 43.0846 7.94215 43.0846 7.56258C43.0846 7.183 42.7841 6.88477 42.4017 6.88477C42.0192 6.88477 41.7188 7.183 41.7188 7.56258C41.7188 7.92859 42.0192 8.24039 42.4017 8.24039Z" fill="white" fill-opacity="0.6"/>
<path d="M43.6094 7.563C43.6094 7.94257 43.9099 8.24081 44.2923 8.24081C44.6747 8.24081 44.9752 7.94257 44.9752 7.563C44.9752 7.18343 44.6747 6.88519 44.2923 6.88519C43.9099 6.87164 43.6094 7.18343 43.6094 7.563Z" fill="white" fill-opacity="0.6"/>
<path d="M46.0961 8.40234L44.9488 9.09371C45.222 9.54106 46.0142 11.0729 45.6454 13.2419H44.0337V9.09371H42.6815V13.2419H41.6572V9.09371H40.305V13.2419H38.3928V8.55146H37.0407V13.8248C37.0407 14.9093 36.1529 15.7769 35.0602 15.7905H34.7188V17.1325H35.0602C36.6036 17.1325 37.9284 16.0752 38.2972 14.5975H46.7244L46.8473 14.0824C47.5712 11.1271 46.4512 8.98526 46.0961 8.40234Z" fill="white" fill-opacity="0.6"/>
<path d="M16.8848 8.38867L16.2839 9.58162C18.0321 10.4492 18.1414 12.1709 18.0048 13.2418H15V14.5839H19.1248L19.2477 14.0552C20.0672 10.3001 17.6497 8.76825 16.8848 8.38867Z" fill="white" fill-opacity="0.6"/>
<path d="M35.4663 14.5857L35.8214 13.3928C36.1356 12.3083 35.9307 11.1425 35.2614 10.2342C34.0732 8.64811 31.8332 8.32276 30.2352 9.50215C30.1669 9.54282 30.1123 9.59705 30.044 9.65127L28.8557 10.6544V7.00781H27.5172V13.2437H26.0011V8.55322H24.608C22.7504 8.55322 21.2344 10.058 21.2344 11.9016V14.5993H22.5865V11.9016C22.5865 10.79 23.488 9.89528 24.608 9.89528H24.6489V14.5993L35.4663 14.5857ZM28.8694 12.4167L30.9318 10.668C31.8742 9.86817 33.2946 9.97662 34.1005 10.9256C34.1278 10.9662 34.1688 11.0069 34.1961 11.0476C34.6195 11.6169 34.7561 12.349 34.5512 13.0268L34.4829 13.2572H28.883L28.8694 12.4167Z" fill="white" fill-opacity="0.6"/>
<path d="M12.7767 15.4375C12.3942 15.4375 12.0938 15.7357 12.0938 16.1153C12.0938 16.4949 12.3942 16.7931 12.7767 16.7931C13.1591 16.7931 13.4596 16.4949 13.4596 16.1153C13.4732 15.7493 13.1591 15.4375 12.7767 15.4375Z" fill="white" fill-opacity="0.6"/>
<path d="M5.59698 15.4375C5.21454 15.4375 4.91406 15.7357 4.91406 16.1153C4.91406 16.4949 5.21454 16.7931 5.59698 16.7931C5.97941 16.7931 6.27989 16.4949 6.27989 16.1153C6.27989 15.7493 5.96575 15.4375 5.59698 15.4375Z" fill="white" fill-opacity="0.6"/>
<path d="M3.85479 15.4375C3.47236 15.4375 3.17188 15.7357 3.17188 16.1153C3.17188 16.4949 3.47236 16.7931 3.85479 16.7931C4.23722 16.7931 4.5377 16.4949 4.5377 16.1153C4.55136 15.7493 4.23722 15.4375 3.85479 15.4375Z" fill="white" fill-opacity="0.6"/>
<path d="M23.6439 7.69742C24.0263 7.69742 24.3268 7.39918 24.3268 7.01961C24.3268 6.64003 24.0263 6.3418 23.6439 6.3418C23.2614 6.3418 22.9609 6.64003 22.9609 7.01961C22.9609 7.38562 23.2614 7.69742 23.6439 7.69742Z" fill="white" fill-opacity="0.6"/>
<path d="M12.8466 12.4306C12.8466 12.878 12.4778 13.244 12.0271 13.244H11.4125V8.55353H9.99202C8.17547 8.55353 6.74135 10.0176 6.74135 11.9019V13.2575H1.34632V13.0813C1.34632 11.6715 1.68778 10.2887 2.35704 9.04155L1.16877 8.41797C0.403903 9.85493 0.0078125 11.4681 0.0078125 13.0949V14.6132H8.10718V11.9155C8.10718 10.7767 8.92667 9.90915 10.0057 9.90915H10.074V14.6132H12.0271C13.229 14.6132 14.1988 13.6507 14.1988 12.4577V8.55353H12.8466V12.4306Z" fill="white" fill-opacity="0.6"/>
<path d="M81.7255 16.2113C81.4933 16.1977 81.2475 16.2113 81.0289 16.252C81.2065 16.0622 81.3567 15.8724 81.4933 15.6555C81.9987 14.8692 82.1216 13.9203 81.8621 13.0391C81.6299 13.0798 81.3977 13.134 81.1928 13.2289C81.3157 13.012 81.425 12.7816 81.507 12.5511C81.8211 11.6835 81.7528 10.721 81.3021 9.90765C81.0836 9.98899 80.8787 10.0974 80.6875 10.233C80.7694 9.98899 80.824 9.74498 80.8514 9.50097C80.9879 8.57915 80.7148 7.65733 80.1138 6.9524C79.9226 7.08797 79.7314 7.23708 79.5811 7.39976C79.6085 7.15574 79.6085 6.89818 79.5948 6.64061C79.5265 5.71879 79.0621 4.86475 78.3109 4.3225C78.147 4.48517 77.9968 4.67496 77.8875 4.8783C77.8602 4.63429 77.8056 4.37672 77.7373 4.14627C77.4778 3.26512 76.8358 2.53308 76.0027 2.13995C75.8797 2.34329 75.7705 2.54664 75.7022 2.76354C75.6202 2.51953 75.5246 2.28907 75.4017 2.07217C74.9646 1.2588 74.1861 0.675882 73.271 0.472539C73.1071 0.919894 73.0525 1.40792 73.0934 1.88238C72.9978 1.80105 72.8749 1.73327 72.752 1.65193C71.9598 1.16391 70.9901 1.05546 70.1023 1.32658C70.2662 2.23485 70.8262 3.0211 71.632 3.49557C71.7549 3.56335 71.8779 3.63113 71.9871 3.68536C71.5364 3.86159 71.1267 4.13271 70.8125 4.48517C71.3042 5.06809 72.0008 5.44766 72.7657 5.56967C73.1344 6.23392 73.7217 6.7355 74.432 7.00663C74.6505 7.72511 75.1149 8.34869 75.7568 8.76893C75.8114 9.51452 76.1392 10.233 76.6719 10.7617C76.5627 11.5073 76.7402 12.2664 77.15 12.9036C76.8905 13.6085 76.8905 14.3948 77.1636 15.0997C76.7539 15.7368 76.6036 16.496 76.7129 17.2416C76.1802 17.7838 75.8661 18.4887 75.8115 19.2479C75.1832 19.6681 74.7188 20.2917 74.5002 21.0102C73.79 21.2813 73.2027 21.7964 72.8476 22.4607C72.0964 22.5827 71.4135 22.9623 70.9218 23.5316C70.0067 23.491 69.1052 23.8299 68.4633 24.4941C68.0126 24.9415 67.7667 25.3617 67.6301 25.7684C67.5072 26.1751 67.0838 26.4055 66.6741 26.2835C66.4282 26.2158 66.237 26.0124 66.155 25.7684C66.0321 25.3617 65.7726 24.9279 65.3219 24.4941C64.6799 23.8434 63.7785 23.491 62.8634 23.5316C62.3717 22.9623 61.6888 22.5691 60.9512 22.4471C60.5961 21.7829 60.0088 21.2677 59.2986 20.9966C59.0937 20.2781 58.6293 19.641 57.9874 19.2343C57.9327 18.4887 57.6186 17.7702 57.0859 17.228C57.1952 16.4824 57.0313 15.7233 56.6352 15.0861C56.8947 14.3812 56.9084 13.5949 56.6489 12.89C57.0586 12.2529 57.2225 11.4937 57.1269 10.7481C57.6596 10.2194 57.9874 9.50097 58.042 8.75538C58.684 8.34869 59.1483 7.7251 59.3669 6.99307C60.0771 6.72195 60.6644 6.20681 61.0332 5.55611C61.798 5.43411 62.481 5.05453 62.9863 4.47162C62.6585 4.11916 62.2624 3.84803 61.8117 3.6718C61.9346 3.61758 62.0439 3.5498 62.1668 3.48202C62.9727 3.00755 63.519 2.22129 63.6965 1.31303C62.8088 1.0419 61.839 1.16391 61.0468 1.63837C60.9239 1.70615 60.8146 1.78749 60.7054 1.86883C60.76 1.39436 60.7054 0.906339 60.5415 0.458984C59.64 0.662327 58.8615 1.24524 58.4108 2.05862C58.2879 2.27552 58.1923 2.50597 58.1103 2.74998C58.0284 2.53308 57.9327 2.31618 57.8098 2.1264C56.963 2.51953 56.3347 3.25156 56.0752 4.13271C56.0069 4.37672 55.9523 4.62073 55.925 4.86475C55.8021 4.6614 55.6655 4.48517 55.5016 4.30894C54.7504 4.86475 54.286 5.71879 54.2177 6.64061C54.1904 6.88462 54.204 7.14219 54.2314 7.39976C54.0675 7.22353 53.8899 7.07441 53.6987 6.9524C53.0841 7.65733 52.8109 8.57914 52.9475 9.48741C52.9748 9.73142 53.0294 9.98899 53.1114 10.2194C52.9202 10.0839 52.7153 9.97543 52.4967 9.8941C52.046 10.7075 51.9777 11.67 52.2919 12.5376C52.3738 12.7816 52.4831 12.9985 52.606 13.2154C52.3875 13.1205 52.1553 13.0662 51.9368 13.0256C51.6773 13.9067 51.8002 14.8692 52.3055 15.6419C52.4421 15.8588 52.5924 16.0622 52.7699 16.2384C52.5377 16.1977 52.3055 16.1842 52.0733 16.1977C52.005 17.1195 52.3328 18.0278 52.9884 18.6785C53.166 18.8547 53.3572 19.031 53.5621 19.1665C53.3299 19.1665 53.0977 19.2072 52.8655 19.2614C52.9884 20.1832 53.5075 20.9966 54.286 21.4982C54.4909 21.6338 54.723 21.7558 54.9552 21.8642C54.723 21.9184 54.5045 21.9998 54.2996 22.1082C54.6138 22.9758 55.2967 23.6672 56.1708 24.0061C56.403 24.101 56.6489 24.1688 56.8947 24.223C56.6898 24.3314 56.485 24.4534 56.3074 24.6026C56.7991 25.3888 57.6186 25.9175 58.5337 26.0666C58.7796 26.1073 59.0391 26.1344 59.2849 26.1209C59.1074 26.27 58.9298 26.4327 58.7932 26.6089C59.4488 27.2731 60.3503 27.6256 61.279 27.5714C61.5385 27.5578 61.7844 27.5307 62.0302 27.4765C61.88 27.6527 61.7571 27.8561 61.6478 28.0594C62.4263 28.5745 63.3824 28.7237 64.2839 28.4796C64.6799 28.3847 65.0487 28.2221 65.3902 27.9916C66.3189 27.3545 67.5482 27.3545 68.4906 27.9916C68.8321 28.2085 69.2008 28.3847 69.5969 28.4796C70.4984 28.7237 71.4545 28.5745 72.233 28.0594C72.1237 27.8561 72.0008 27.6527 71.8505 27.4765C72.0964 27.5307 72.3422 27.5714 72.6018 27.5714C73.5305 27.6256 74.432 27.2731 75.0876 26.6089C74.9373 26.4327 74.7734 26.2564 74.5959 26.1209C74.8554 26.1209 75.1012 26.1073 75.3471 26.0666C76.2622 25.9175 77.0817 25.3888 77.5734 24.6026C77.3958 24.4534 77.1909 24.3314 76.9861 24.223C77.2319 24.1688 77.4778 24.101 77.7099 24.0061C78.5841 23.6672 79.267 22.9758 79.5811 22.1082C79.3763 21.9998 79.1577 21.9184 78.9255 21.8642C79.1577 21.7693 79.3763 21.6473 79.5948 21.4982C80.3733 20.9966 80.8923 20.1697 81.0153 19.2614C80.7831 19.2072 80.5509 19.1665 80.3187 19.1665C80.5236 19.0174 80.7148 18.8547 80.8923 18.6785C81.4523 18.0278 81.7938 17.1331 81.7255 16.2113ZM61.3063 23.1249C61.8527 23.3283 62.3307 23.7079 62.6449 24.1959C63.0409 24.8195 63.1775 25.3617 63.0819 25.8497C62.5902 25.7413 62.1532 25.3888 61.7571 24.7652C61.4293 24.2772 61.279 23.6943 61.3063 23.1249ZM59.5171 21.7287C60.0088 22.0404 60.3912 22.5149 60.5825 23.0572C60.842 23.7485 60.8556 24.3043 60.6644 24.7652C60.2137 24.5483 59.8586 24.1145 59.5991 23.4367C59.3805 22.8945 59.3532 22.298 59.5171 21.7287ZM58.042 20.007C58.4518 20.4273 58.7249 20.9559 58.8069 21.5389C58.9161 22.2709 58.8069 22.8132 58.5201 23.2198C58.124 22.9216 57.8645 22.42 57.7552 21.688C57.6732 21.1051 57.7688 20.5222 58.042 20.007ZM56.9767 18.0143C57.2908 18.5023 57.441 19.0852 57.4001 19.6681C57.3454 20.4001 57.1269 20.9153 56.7581 21.2542C56.4303 20.8746 56.2801 20.3324 56.3347 19.6003C56.3757 19.0174 56.5942 18.4616 56.9767 18.0143ZM54.9826 14.7608C55.2557 14.2456 55.6928 13.8254 56.2255 13.5814C56.3074 14.1643 56.1981 14.7472 55.925 15.2624C55.5699 15.913 55.1601 16.2926 54.6821 16.4417C54.5455 15.9537 54.6274 15.4115 54.9826 14.7608ZM54.4499 13.8118C54.4226 13.3103 54.6274 12.7951 55.1055 12.2258C55.4879 11.7784 55.9933 11.4666 56.5669 11.3311C56.5259 11.914 56.2938 12.4698 55.9113 12.9036C55.4333 13.4729 54.9416 13.7576 54.4499 13.8118ZM55.406 17.2416C55.5699 16.6858 55.8977 16.1842 56.362 15.8317C56.5669 16.374 56.5942 16.9704 56.4303 17.5398C56.2255 18.2447 55.8977 18.7056 55.4743 18.9496C55.2284 18.5158 55.2011 17.9465 55.406 17.2416ZM56.3894 10.6261C55.8021 11.0735 55.2694 11.2497 54.764 11.1955C54.8323 10.7075 55.1465 10.233 55.7338 9.78565C56.1981 9.43319 56.7581 9.22984 57.3454 9.21629C57.1952 9.78565 56.8537 10.2737 56.3894 10.6261ZM62.1258 4.49873C61.6615 4.85119 61.0878 5.05454 60.5005 5.05454C59.763 5.06809 59.2166 4.89186 58.8615 4.55296C59.2166 4.20049 59.7493 4.01071 60.4868 3.99715C61.0605 3.99715 61.6478 4.15983 62.1258 4.49873ZM61.2654 2.11284C61.7707 1.8146 62.358 1.67904 62.9317 1.73327C62.7131 2.27551 62.3171 2.72287 61.8117 3.0211C61.1698 3.40068 60.6234 3.52268 60.1317 3.40068C60.2683 2.92621 60.6371 2.49241 61.2654 2.11284ZM58.8342 2.32974C59.121 1.8146 59.5581 1.40792 60.0908 1.16391C60.1727 1.74682 60.0498 2.32974 59.763 2.83132C59.4078 3.48202 58.9844 3.84803 58.5064 3.99715C58.3835 3.52268 58.4791 2.96688 58.8342 2.32974ZM58.4927 5.58323C59.0664 5.44766 59.6673 5.50189 60.2 5.73235C59.8176 6.1797 59.2986 6.49149 58.7386 6.6135C58.0147 6.77617 57.4547 6.72195 57.0313 6.47794C57.2908 6.05769 57.7688 5.75946 58.4927 5.58323ZM56.5396 4.28183C56.7035 3.72603 57.045 3.238 57.523 2.88554C57.7279 3.42779 57.7415 4.03782 57.564 4.59362C57.3454 5.29854 57.0176 5.75946 56.5806 5.98991C56.3484 5.55611 56.3211 5.00031 56.5396 4.28183ZM56.8947 7.53532C57.4274 7.27775 58.0284 7.20997 58.602 7.31842C58.3288 7.83355 57.8918 8.24024 57.3591 8.48425C56.6898 8.79604 56.1299 8.86383 55.6518 8.70115C55.8157 8.2538 56.2255 7.86067 56.8947 7.53532ZM54.6957 6.68128C54.7367 6.09836 54.9689 5.54256 55.3513 5.10876C55.6655 5.61034 55.8021 6.1797 55.7474 6.76261C55.6928 7.49465 55.4606 8.00978 55.0918 8.33513C54.7777 7.95556 54.6411 7.41331 54.6957 6.68128ZM53.726 7.73866C54.1357 8.1589 54.3952 8.70115 54.4635 9.27051C54.5591 10.0025 54.4499 10.5448 54.1494 10.9515C53.7533 10.6397 53.5075 10.1381 53.4119 9.41963C53.3299 8.83671 53.4392 8.2538 53.726 7.73866ZM52.688 10.6532C53.1797 10.9786 53.5484 11.4531 53.7397 11.9953C53.9855 12.6867 53.9992 13.2425 53.7943 13.7034C53.3436 13.4865 52.9884 13.0527 52.7426 12.3613C52.5377 11.8055 52.5241 11.209 52.688 10.6532ZM52.2782 13.7034C52.8245 13.9203 53.2889 14.2999 53.5894 14.8014C53.9855 15.425 54.1084 15.9673 53.9992 16.4553C53.5211 16.3333 53.0704 15.9808 52.688 15.3572C52.3875 14.8692 52.2372 14.2863 52.2782 13.7034ZM53.3026 18.3125C52.8928 17.8923 52.6333 17.3636 52.5514 16.7806C53.125 16.8755 53.6577 17.1602 54.0675 17.5805C54.5865 18.1092 54.8187 18.6107 54.8187 19.1123C54.3133 19.0852 53.8216 18.8412 53.3026 18.3125ZM54.5182 21.0644C54.0265 20.7391 53.6577 20.2781 53.4528 19.7223C54.0401 19.6952 54.6138 19.8579 55.1055 20.1832C55.7201 20.5899 56.0616 21.0373 56.1708 21.5253C55.6791 21.6202 55.1328 21.4846 54.5182 21.0644ZM56.2938 23.5181C55.7474 23.3012 55.283 22.9216 54.9689 22.4336C55.5425 22.2845 56.1435 22.3251 56.6762 22.542C57.3728 22.8132 57.7962 23.1792 58.001 23.6265C57.5367 23.8028 56.9767 23.7892 56.2938 23.5181ZM58.5337 25.5379C57.9601 25.4431 57.4137 25.1719 57.004 24.7517C57.523 24.4806 58.124 24.3992 58.6976 24.4941C59.4352 24.6161 59.9269 24.8872 60.2273 25.2804C59.8313 25.5651 59.2713 25.66 58.5337 25.5379ZM61.1698 27.0291C60.5825 27.0562 60.0088 26.9071 59.5171 26.5818C59.9678 26.2158 60.5415 25.9989 61.1288 25.9717C61.8663 25.9311 62.4127 26.0937 62.7814 26.4191C62.44 26.7851 61.9073 27.002 61.1698 27.0291ZM64.0653 27.951C63.5053 28.1001 62.8907 28.073 62.3444 27.8561C62.7132 27.3951 63.2185 27.0698 63.7922 26.9342C64.516 26.7444 65.076 26.7851 65.5131 27.0291C65.2399 27.4494 64.7756 27.7612 64.0653 27.951ZM64.1473 25.6193C63.7239 25.2126 63.4507 24.6704 63.3687 24.101C63.9561 24.1959 64.4887 24.467 64.8985 24.8737C65.4175 25.4024 65.6633 25.904 65.677 26.392C65.1716 26.3784 64.6663 26.1344 64.1473 25.6193ZM81.425 13.7034C81.466 14.2863 81.3294 14.8692 81.0153 15.3572C80.6192 15.9808 80.1821 16.3333 79.7041 16.4553C79.6085 15.9673 79.7177 15.425 80.1138 14.8014C80.4143 14.2999 80.8787 13.9203 81.425 13.7034ZM81.0153 10.6397C81.1792 11.1955 81.1655 11.792 80.9606 12.3478C80.7148 13.0391 80.3597 13.4729 79.9089 13.6898C79.7041 13.2425 79.7041 12.6731 79.9636 11.9817C80.1684 11.4395 80.5372 10.965 81.0153 10.6397ZM79.2397 9.27051C79.308 8.68759 79.5811 8.1589 79.9772 7.73866C80.2641 8.2538 80.3733 8.83671 80.2914 9.40607C80.1958 10.1381 79.9362 10.6397 79.5538 10.9379C79.2533 10.5584 79.1441 10.0025 79.2397 9.27051ZM77.7919 15.2624C77.5051 14.7472 77.4095 14.1643 77.4914 13.5814C78.0241 13.8254 78.4612 14.2456 78.7343 14.7608C79.0894 15.4115 79.1714 15.9673 79.0348 16.4417C78.5568 16.2926 78.147 15.913 77.7919 15.2624ZM78.2563 18.9496C77.8192 18.7056 77.5051 18.2447 77.3002 17.5398C77.1363 16.984 77.1636 16.3875 77.3685 15.8317C77.8329 16.1842 78.1743 16.6858 78.3246 17.2416C78.5158 17.96 78.4885 18.5158 78.2563 18.9496ZM77.8056 12.9171C77.4231 12.4698 77.1909 11.914 77.15 11.3446C77.7236 11.4802 78.229 11.792 78.6114 12.2393C79.0894 12.7951 79.2943 13.3238 79.267 13.8254C78.7753 13.7712 78.2836 13.4865 77.8056 12.9171ZM78.3519 5.12232C78.7343 5.55612 78.9665 6.11192 79.0075 6.69483C79.0621 7.42687 78.9255 7.96912 78.6114 8.34869C78.2426 8.02334 78.0104 7.5082 77.9558 6.77617C77.9012 6.19325 78.0377 5.61034 78.3519 5.12232ZM76.2075 2.88554C76.6719 3.238 77.027 3.72603 77.1909 4.28183C77.4095 4.98675 77.3822 5.54256 77.15 5.98991C76.7129 5.7459 76.3851 5.29854 76.1666 4.59362C75.989 4.02426 76.0027 3.42779 76.2075 2.88554ZM73.6261 1.16391C74.1588 1.40792 74.5959 1.8146 74.8827 2.32974C75.2378 2.98044 75.3334 3.52268 75.2105 4.01071C74.7324 3.86159 74.309 3.49557 73.9539 2.84487C73.6671 2.32974 73.5442 1.73327 73.6261 1.16391ZM71.8915 3.0211C71.3862 2.72287 70.9901 2.27551 70.7715 1.73327C71.3588 1.67904 71.9462 1.8146 72.4379 2.11284C73.0798 2.49241 73.4349 2.92621 73.5578 3.40068C73.0798 3.52268 72.5335 3.40068 71.8915 3.0211ZM73.2164 5.05454C72.6291 5.04098 72.0554 4.85119 71.591 4.49873C72.0691 4.15983 72.6427 3.98359 73.23 3.99715C73.9676 4.01071 74.5003 4.20049 74.8554 4.55296C74.5003 4.90542 73.9539 5.06809 73.2164 5.05454ZM73.5032 5.73235C74.0359 5.50189 74.6368 5.44766 75.2105 5.58323C75.9344 5.75946 76.4124 6.05769 76.6856 6.46438C76.2622 6.72195 75.6885 6.77617 74.9783 6.59994C74.4046 6.47794 73.8856 6.16614 73.5032 5.73235ZM75.1149 7.31842C75.6885 7.20997 76.2895 7.27775 76.8222 7.53532C77.4914 7.84711 77.8875 8.24024 78.0651 8.71471C77.587 8.87738 77.027 8.8096 76.3578 8.49781C75.8251 8.2538 75.388 7.83355 75.1149 7.31842ZM76.3578 9.21629C76.9451 9.22984 77.5187 9.43319 77.9695 9.78565C78.5568 10.233 78.8709 10.7075 78.9392 11.1955C78.4475 11.2497 77.9012 11.0735 77.3139 10.6261C76.8495 10.2737 76.508 9.77209 76.3578 9.21629ZM76.7402 18.0143C77.1226 18.4616 77.3412 19.0174 77.3822 19.6003C77.4368 20.3324 77.2865 20.8746 76.9587 21.2542C76.59 20.9153 76.3714 20.4001 76.3168 19.6681C76.2758 19.0852 76.4124 18.5023 76.7402 18.0143ZM74.91 21.5389C74.9919 20.9559 75.2651 20.4273 75.6749 20.007C75.948 20.5222 76.0573 21.1051 75.9617 21.688C75.8524 22.42 75.5929 22.908 75.1968 23.2198C74.8963 22.8132 74.8007 22.2573 74.91 21.5389ZM73.1344 23.0707C73.3393 22.5285 73.7081 22.054 74.1998 21.7422C74.3637 22.298 74.3364 22.8945 74.1315 23.4503C73.872 24.1417 73.5169 24.5755 73.0661 24.7788C72.8476 24.3179 72.8749 23.7621 73.1344 23.0707ZM71.072 24.1959C71.3862 23.7079 71.8505 23.3283 72.3969 23.1114C72.4379 23.6943 72.2876 24.2772 71.9598 24.7652C71.5637 25.3888 71.113 25.7277 70.635 25.8497C70.5393 25.3617 70.6759 24.8059 71.072 24.1959ZM68.8184 24.8601C69.2282 24.4399 69.7608 24.1688 70.3481 24.0874C70.2662 24.6704 69.993 25.199 69.5696 25.6057C69.0506 26.1344 68.5452 26.3784 68.0399 26.3784C68.0535 25.8904 68.2994 25.3888 68.8184 24.8601ZM69.6516 27.951C68.9277 27.7612 68.4633 27.4494 68.2038 27.0291C68.6408 26.7851 69.2008 26.7444 69.9247 26.9342C70.4984 27.0834 71.0037 27.4087 71.3725 27.8561C70.8262 28.073 70.2252 28.1001 69.6516 27.951ZM72.5471 27.0291C71.8096 26.9885 71.2769 26.7851 70.9354 26.4191C71.3179 26.0937 71.8505 25.9311 72.5881 25.9717C73.1754 25.9989 73.7354 26.2022 74.1998 26.5818C73.7217 26.9071 73.1344 27.0698 72.5471 27.0291ZM75.1695 25.5379C74.432 25.66 73.8856 25.5651 73.4759 25.2804C73.7764 24.8872 74.2681 24.6161 75.0056 24.4941C75.5793 24.3992 76.1802 24.4806 76.6992 24.7517C76.2895 25.1584 75.7568 25.4431 75.1695 25.5379ZM77.4231 23.5181C76.7266 23.7892 76.1666 23.8163 75.7022 23.6265C75.9071 23.1792 76.3305 22.8132 77.027 22.542C77.5734 22.3251 78.1743 22.2845 78.7343 22.4336C78.4338 22.9216 77.9695 23.3012 77.4231 23.5181ZM80.264 19.7359C80.0592 20.2781 79.6904 20.7526 79.1987 21.078C78.5841 21.4846 78.0378 21.6338 77.5461 21.5389C77.6553 21.0508 77.9968 20.6035 78.6114 20.1968C79.0894 19.8715 79.6767 19.7088 80.264 19.7359ZM78.8982 19.1123C78.8982 18.6107 79.1304 18.1092 79.6494 17.5805C80.0592 17.1602 80.5919 16.8755 81.1655 16.7806C81.0836 17.3636 80.824 17.8923 80.4143 18.3125C79.8953 18.8412 79.3899 19.0988 78.8982 19.1123Z" fill="white" fill-opacity="0.6"/>
<path d="M58.4062 15.6682V16.0478C58.8843 16.9696 59.4306 17.8643 60.0316 18.7184H58.6794C58.6794 18.7184 58.9526 19.2742 59.7721 19.2742H73.8265C74.6596 19.2742 74.9191 18.7184 74.9191 18.7184H73.6899C74.3182 17.7966 74.8781 16.8476 75.3835 15.858H76.0528V14.8006H72.3923C68.5407 11.6963 67.7212 6.39579 69.9612 2.42383C63.5691 3.68455 58.7614 9.21548 58.4062 15.6682ZM58.6931 15.6818C60.5916 14.516 62.7632 13.8381 64.9895 13.7161V15.6818H58.6931ZM72.0919 15.248L71.7777 15.6682H65.8773V13.689C68.0353 13.7026 70.166 14.2448 72.0919 15.248ZM70.8763 14.0957C67.011 12.6045 62.6813 12.8757 59.0482 14.8413C59.7311 9.35104 63.6374 4.79616 68.9778 3.2372C67.448 6.91093 68.1992 11.1405 70.8763 14.0957Z" fill="white" fill-opacity="0.6"/>
<path d="M66.1923 23.8976H67.4352C68.2683 23.8976 68.5278 23.3418 68.5278 23.3418H65.0859C65.0859 23.3418 65.3591 23.8976 66.1923 23.8976Z" fill="white" fill-opacity="0.6"/>
<path d="M71.0404 22.1914H62.5859C62.5859 22.1914 62.8591 22.7472 63.6786 22.7472H69.9341C70.7673 22.7337 71.0404 22.1914 71.0404 22.1914Z" fill="white" fill-opacity="0.6"/>
<path d="M72.9585 21.0234H60.6797C60.6797 21.0234 60.9529 21.5792 61.7724 21.5792H71.8522C72.6853 21.5792 72.9585 21.0234 72.9585 21.0234Z" fill="white" fill-opacity="0.6"/>
<path d="M74.1163 19.8711H59.5156C59.5156 19.8711 59.7888 20.4269 60.6083 20.4269H73.0237C73.8568 20.4133 74.1163 19.8711 74.1163 19.8711Z" fill="white" fill-opacity="0.6"/>
</g>
</svg>
