<svg width="11" height="12" viewBox="0 0 11 12" fill="none" xmlns="http://www.w3.org/2000/svg">
<g clip-path="url(#clip0_6004_10282)">
<path d="M9.97603 5.66851L6.4129 2.10909L6.41167 2.10787L6.41169 2.10786C6.28844 1.98039 6.28845 1.77826 6.41168 1.65078L6.41169 1.65076C6.53798 1.52017 6.74631 1.51652 6.87707 1.6427L6.87831 1.6439L6.8783 1.64391L11.0032 5.76452L9.97603 5.66851ZM9.97603 5.66851H0.229174H0.229157C0.0474786 5.66854 -0.1 5.8157 -0.1 5.99746C-0.1 6.17922 0.0474793 6.3264 0.229174 6.3264H9.97603L6.41393 9.88478C6.28381 10.0111 6.28039 10.2188 6.40653 10.3493L6.40653 10.3493C6.53284 10.4799 6.74114 10.4835 6.87189 10.3574L6.87191 10.3574L6.87877 10.3505L6.87997 10.3493L11.0038 6.22984L11.004 6.22966C11.0343 6.19917 11.0585 6.163 11.075 6.12314C11.1259 6.00012 11.0976 5.8586 11.0033 5.76461L9.97603 5.66851Z" fill="#05164D" stroke="#05164D" stroke-width="0.2"/>
</g>
<defs>
<clipPath id="clip0_6004_10282">
<rect width="11" height="10.9885" fill="white" transform="translate(0 0.505859)"/>
</clipPath>
</defs>
</svg>
