<svg width="56" height="56" viewBox="0 0 56 56" fill="none" xmlns="http://www.w3.org/2000/svg">
<path d="M28.6648 1.8245L31.1085 0.624169C31.6656 0.350248 32.3304 0.445658 32.789 0.864235L34.7957 2.70473C35.1404 3.01867 35.6082 3.15716 36.0668 3.07714L38.7506 2.61548C39.36 2.51083 39.9756 2.79091 40.2957 3.32029L41.7022 5.65016C41.9423 6.05027 42.3547 6.31496 42.8195 6.36728L45.5248 6.68122C46.1404 6.752 46.6482 7.19212 46.8082 7.79229L47.5038 10.4238C47.6238 10.8731 47.9439 11.2455 48.3717 11.4271L50.8801 12.489C51.4495 12.7321 51.8158 13.2984 51.7973 13.917L51.7204 16.6378C51.7081 17.1025 51.9112 17.5488 52.2713 17.8443L54.3765 19.5709C54.8566 19.9649 55.0443 20.6112 54.8535 21.199L54.0133 23.7905C53.8686 24.2337 53.9394 24.72 54.201 25.1047L55.7368 27.3546C56.0877 27.8655 56.0877 28.5395 55.7368 29.0535L54.201 31.3034C53.9394 31.6881 53.8686 32.1744 54.0133 32.6176L54.8535 35.2091C55.0443 35.8 54.8535 36.4463 54.3765 36.8372L52.2713 38.5638C51.9112 38.8593 51.7081 39.3056 51.7204 39.7703L51.7973 42.4911C51.8158 43.1097 51.4495 43.676 50.8801 43.9191L48.3717 44.981C47.9439 45.1626 47.6208 45.5319 47.5038 45.9843L46.8082 48.6158C46.6513 49.216 46.1404 49.6561 45.5248 49.7269L42.8195 50.0408C42.3578 50.0931 41.9454 50.3578 41.7022 50.7579L40.2957 53.0878C39.9756 53.6172 39.3631 53.8973 38.7506 53.7926L36.0668 53.331C35.6082 53.2509 35.1373 53.3894 34.7957 53.7034L32.789 55.5439C32.3335 55.9624 31.6656 56.0579 31.1085 55.7839L28.6648 54.5836C28.2462 54.3774 27.7569 54.3774 27.3383 54.5836L24.8945 55.7839C24.3375 56.0579 23.6727 55.9624 23.2141 55.5439L21.2074 53.7034C20.8627 53.3894 20.3948 53.2509 19.9332 53.331L17.2494 53.7926C16.64 53.8973 16.0244 53.6172 15.7043 53.0878L14.2978 50.7579C14.0577 50.3578 13.6453 50.0931 13.1805 50.0408L10.4752 49.7269C9.85963 49.6561 9.35179 49.216 9.19175 48.6158L8.49618 45.9843C8.37615 45.535 8.05606 45.1626 7.62825 44.981L5.11987 43.9191C4.55048 43.676 4.18422 43.1097 4.20269 42.4911L4.27963 39.7703C4.29194 39.3056 4.08881 38.8593 3.72871 38.5638L1.62352 36.8372C1.14339 36.4432 0.955646 35.7969 1.14647 35.2091L1.9867 32.6176C2.13136 32.1744 2.06056 31.6881 1.79895 31.3034L0.263149 29.0535C-0.0877164 28.5426 -0.0877164 27.8686 0.263149 27.3546L1.79895 25.1047C2.06056 24.72 2.13136 24.2337 1.9867 23.7905L1.14647 21.199C0.955646 20.6081 1.14646 19.9618 1.62352 19.5709L3.72871 17.8443C4.08881 17.5488 4.29194 17.1025 4.27963 16.6378L4.20269 13.917C4.18422 13.2984 4.55048 12.7321 5.11987 12.489L7.62825 11.4271C8.05606 11.2455 8.37922 10.8762 8.49618 10.4238L9.19175 7.79229C9.34872 7.19212 9.85963 6.752 10.4752 6.68122L13.1805 6.36728C13.6422 6.31496 14.0546 6.05027 14.2978 5.65016L15.7043 3.32029C16.0244 2.79091 16.6369 2.51083 17.2494 2.61548L19.9332 3.07714C20.3918 3.15716 20.8627 3.01867 21.2074 2.70473L23.2141 0.864235C23.6696 0.445658 24.3375 0.350248 24.8945 0.624169L27.3383 1.8245C27.7569 2.03071 28.2462 2.03071 28.6648 1.8245Z" fill="#111827"/>
<path style="mix-blend-mode:multiply" d="M52.3176 33.8456C49.1106 47.6401 35.1067 56.0024 21.4383 52.2845C8.55787 48.782 0.663393 35.5568 3.68576 22.5563C6.8928 8.76178 20.8966 0.399477 34.565 4.11742C47.4455 7.61992 55.34 20.842 52.3176 33.8456Z" fill="#9CA3AF"/>
<path d="M52.0465 28.1178C52.0496 29.1058 51.9942 30.0815 51.8834 31.0386C51.7572 32.1159 51.5572 33.1715 51.2925 34.1995C51.1817 34.6427 51.0555 35.0767 50.917 35.5106C50.6615 36.3139 50.3661 37.0988 50.0306 37.8621C49.3042 39.521 48.3932 41.0783 47.3314 42.5157C46.4265 43.7344 45.4109 44.8671 44.2967 45.8889C40.034 49.8192 34.3463 52.2291 28.0923 52.2506C21.8321 52.2722 16.1197 49.9023 11.8293 45.9935C10.7275 44.9902 9.71798 43.8883 8.81619 42.6942C7.13265 40.4689 5.82768 37.9452 4.99976 35.2152C4.61196 33.9379 4.32573 32.6206 4.15337 31.2633C4.03026 30.2908 3.96563 29.2997 3.96255 28.2933C3.91638 15.0127 14.6424 4.21282 27.923 4.16665C41.2005 4.12049 52.0034 14.8434 52.0496 28.124L52.0465 28.1178Z" fill="white"/>
<path style="mix-blend-mode:multiply" d="M29.3125 45.8086C39.0358 45.086 46.3323 36.618 45.6097 26.8947C44.8872 17.1715 36.4191 9.87494 26.6959 10.5975C16.9726 11.3201 9.67609 19.7881 10.3986 29.5114C11.1212 39.2346 19.5892 46.5311 29.3125 45.8086Z" fill="#111827"/>
<path d="M28.3816 42.0571L27.3136 42.728L27.6214 41.5062L26.6519 40.6967L27.9107 40.6105L28.3816 39.4379L28.8525 40.6105L30.1113 40.6967L29.1449 41.5062L29.4526 42.728L28.3816 42.0571Z" fill="white"/>
<path d="M23.7003 41.2999L22.9339 41.7832L23.1555 40.9029L22.46 40.3243L23.3648 40.2627L23.7003 39.4225L24.0389 40.2627L24.9437 40.3243L24.2481 40.9029L24.4697 41.7832L23.7003 41.2999Z" fill="white"/>
<path d="M33.0626 41.2999L32.2962 41.7832L32.5178 40.9029L31.8223 40.3243L32.7241 40.2627L33.0626 39.4225L33.4012 40.2627L34.303 40.3243L33.6074 40.9029L33.829 41.7832L33.0626 41.2999Z" fill="white"/>
<path d="M37.7541 31.0931V30.7036C37.7541 30.4079 37.8166 30.1362 37.9416 29.8885C38.0691 29.6384 38.253 29.4388 38.4935 29.2898C38.7363 29.1383 39.0321 29.0625 39.3807 29.0625C39.7342 29.0625 40.0312 29.1371 40.2716 29.2862C40.5145 29.4352 40.6972 29.6348 40.8198 29.8849C40.9449 30.1325 41.0074 30.4055 41.0074 30.7036V31.0931C41.0074 31.3889 40.9449 31.6618 40.8198 31.9119C40.6948 32.1595 40.5109 32.3579 40.268 32.507C40.0251 32.6585 39.7294 32.7342 39.3807 32.7342C39.0273 32.7342 38.7303 32.6585 38.4899 32.507C38.2494 32.3579 38.0667 32.1595 37.9416 31.9119C37.8166 31.6618 37.7541 31.3889 37.7541 31.0931ZM38.8037 30.7036V31.0931C38.8037 31.2639 38.8445 31.425 38.9263 31.5765C39.0104 31.7279 39.1619 31.8037 39.3807 31.8037C39.5995 31.8037 39.7486 31.7291 39.828 31.5801C39.9097 31.431 39.9506 31.2687 39.9506 31.0931V30.7036C39.9506 30.5281 39.9121 30.3646 39.8352 30.2131C39.7582 30.0616 39.6068 29.9859 39.3807 29.9859C39.1643 29.9859 39.014 30.0616 38.9299 30.2131C38.8457 30.3646 38.8037 30.5281 38.8037 30.7036ZM33.9634 26.866V26.4765C33.9634 26.1783 34.0271 25.9054 34.1545 25.6578C34.282 25.4077 34.4659 25.2081 34.7064 25.059C34.9492 24.91 35.2426 24.8354 35.5864 24.8354C35.9423 24.8354 36.2404 24.91 36.4809 25.059C36.7213 25.2081 36.9041 25.4077 37.0291 25.6578C37.1542 25.9054 37.2167 26.1783 37.2167 26.4765V26.866C37.2167 27.1642 37.153 27.4371 37.0255 27.6848C36.9005 27.9324 36.7165 28.1308 36.4737 28.2799C36.2332 28.4265 35.9375 28.4999 35.5864 28.4999C35.2354 28.4999 34.9384 28.4253 34.6956 28.2763C34.4551 28.1248 34.2724 27.9264 34.1473 27.6812C34.0247 27.4335 33.9634 27.1618 33.9634 26.866ZM35.0202 26.4765V26.866C35.0202 27.0416 35.061 27.2039 35.1428 27.3529C35.2269 27.502 35.3748 27.5766 35.5864 27.5766C35.8076 27.5766 35.9579 27.502 36.0373 27.3529C36.119 27.2039 36.1599 27.0416 36.1599 26.866V26.4765C36.1599 26.301 36.1214 26.1375 36.0445 25.986C35.9675 25.8345 35.8148 25.7587 35.5864 25.7587C35.3724 25.7587 35.2245 25.8357 35.1428 25.9896C35.061 26.1435 35.0202 26.3058 35.0202 26.4765ZM34.4395 32.4781L39.5178 25.0915H40.4628L35.3844 32.4781H34.4395Z" fill="#D1D5DB"/>
<path d="M29.6147 32.6404C28.9943 32.638 28.4605 32.4854 28.0133 32.1824C27.5684 31.8794 27.2258 31.4406 26.9853 30.8659C26.7473 30.2912 26.6295 29.5999 26.6319 28.792C26.6319 27.9865 26.7509 27.3 26.9889 26.7326C27.2294 26.1651 27.572 25.7335 28.0169 25.4377C28.4641 25.1396 28.9967 24.9905 29.6147 24.9905C30.2326 24.9905 30.764 25.1396 31.2089 25.4377C31.6561 25.7359 31.9999 26.1687 32.2404 26.7362C32.4808 27.3012 32.5999 27.9865 32.5975 28.792C32.5975 29.6024 32.4772 30.2949 32.2368 30.8695C31.9987 31.4442 31.6573 31.883 31.2125 32.186C30.7676 32.489 30.235 32.6404 29.6147 32.6404ZM29.6147 31.3456C30.0379 31.3456 30.3757 31.1328 30.6282 30.7072C30.8806 30.2816 31.0057 29.6432 31.0033 28.792C31.0033 28.2318 30.9456 27.7653 30.8301 27.3926C30.7171 27.0199 30.556 26.7398 30.3468 26.5522C30.14 26.3647 29.896 26.2709 29.6147 26.2709C29.1939 26.2709 28.8572 26.4813 28.6048 26.9021C28.3523 27.3229 28.2249 27.9529 28.2225 28.792C28.2225 29.3595 28.279 29.8332 28.392 30.2131C28.5074 30.5906 28.6697 30.8743 28.8789 31.0643C29.0881 31.2518 29.3333 31.3456 29.6147 31.3456Z" fill="#D1D5DB"/>
<path d="M22.622 32.6404C22.0016 32.638 21.4678 32.4854 21.0206 32.1824C20.5758 31.8794 20.2331 31.4406 19.9927 30.8659C19.7546 30.2912 19.6368 29.5999 19.6392 28.792C19.6392 27.9865 19.7582 27.3 19.9963 26.7326C20.2367 26.1651 20.5794 25.7335 21.0242 25.4377C21.4714 25.1396 22.004 24.9905 22.622 24.9905C23.2399 24.9905 23.7713 25.1396 24.2162 25.4377C24.6634 25.7359 25.0073 26.1687 25.2477 26.7362C25.4882 27.3012 25.6072 27.9865 25.6048 28.792C25.6048 29.6024 25.4846 30.2949 25.2441 30.8695C25.0061 31.4442 24.6646 31.883 24.2198 32.186C23.7749 32.489 23.2423 32.6404 22.622 32.6404ZM22.622 31.3456C23.0452 31.3456 23.383 31.1328 23.6355 30.7072C23.888 30.2816 24.013 29.6432 24.0106 28.792C24.0106 28.2318 23.9529 27.7653 23.8375 27.3926C23.7245 27.0199 23.5634 26.7398 23.3542 26.5522C23.1474 26.3647 22.9033 26.2709 22.622 26.2709C22.2012 26.2709 21.8646 26.4813 21.6121 26.9021C21.3596 27.3229 21.2322 27.9529 21.2298 28.792C21.2298 29.3595 21.2863 29.8332 21.3993 30.2131C21.5147 30.5906 21.677 30.8743 21.8862 31.0643C22.0954 31.2518 22.3407 31.3456 22.622 31.3456Z" fill="#D1D5DB"/>
<path d="M17.9699 25.0915V32.4781H16.4082V26.5739H16.3649L14.6733 27.6343V26.2493L16.502 25.0915H17.9699Z" fill="#D1D5DB"/>
<path d="M17.0692 37.143C16.9 37.143 16.7394 37.1087 16.5873 37.04C16.4377 36.9714 16.3053 36.877 16.1901 36.7568C16.0773 36.6342 15.989 36.492 15.9252 36.3301C15.8615 36.1683 15.8296 35.993 15.8296 35.8042C15.8296 35.6252 15.8615 35.4572 15.9252 35.3003C15.989 35.1409 16.0785 35.0011 16.1938 34.8809C16.309 34.7608 16.4439 34.6664 16.5984 34.5977C16.7528 34.5291 16.9208 34.4947 17.1023 34.4947C17.3475 34.4947 17.5571 34.5475 17.7312 34.6529C17.9078 34.7559 18.0402 34.8932 18.1285 35.0649L17.7496 35.3444C17.6834 35.2144 17.5902 35.1151 17.4701 35.0465C17.3524 34.9778 17.2236 34.9435 17.0839 34.9435C16.9735 34.9435 16.873 34.9668 16.7823 35.0134C16.6915 35.0599 16.6131 35.1237 16.5469 35.2046C16.4807 35.2855 16.4292 35.3787 16.3924 35.4842C16.358 35.5896 16.3409 35.7012 16.3409 35.8189C16.3409 35.9439 16.3593 36.0592 16.3961 36.1646C16.4353 36.2701 16.4892 36.362 16.5579 36.4405C16.629 36.519 16.7112 36.5815 16.8043 36.6281C16.8975 36.6722 17.0005 36.6943 17.1133 36.6943C17.2457 36.6943 17.372 36.66 17.4922 36.5913C17.6148 36.5226 17.7288 36.4221 17.8342 36.2897V36.7899C17.616 37.0253 17.361 37.143 17.0692 37.143ZM17.7974 36.1536H17.2715V35.7821H18.2168V37.1246H17.7974V36.1536ZM19.7565 37.143C19.548 37.143 19.3703 37.1087 19.2231 37.04C19.0785 36.9689 18.9608 36.8721 18.87 36.7495C18.7818 36.6269 18.7168 36.4883 18.6751 36.3338C18.6334 36.1769 18.6126 36.0138 18.6126 35.8446V34.5131H19.1202V35.8446C19.1202 35.9525 19.13 36.058 19.1496 36.161C19.1716 36.2615 19.2072 36.3522 19.2562 36.4331C19.3053 36.5141 19.3703 36.5778 19.4512 36.6244C19.5321 36.671 19.6326 36.6943 19.7528 36.6943C19.8754 36.6943 19.9772 36.671 20.0581 36.6244C20.1415 36.5754 20.2064 36.5104 20.253 36.4295C20.3021 36.3485 20.3376 36.2578 20.3597 36.1573C20.3818 36.0543 20.3928 35.9501 20.3928 35.8446V34.5131H20.8967V35.8446C20.8967 36.0236 20.8746 36.1916 20.8305 36.3485C20.7888 36.5055 20.7214 36.644 20.6282 36.7642C20.5375 36.8819 20.4198 36.9751 20.2751 37.0437C20.1304 37.1099 19.9576 37.143 19.7565 37.143ZM22.0137 34.5131H22.5286L23.4887 37.1246H22.9664L22.7236 36.4736H21.8114L21.5723 37.1246H21.05L22.0137 34.5131ZM22.6316 36.1168L22.2712 35.0391L21.896 36.1168H22.6316ZM23.7751 37.1246V34.5131H24.93C25.0502 34.5131 25.1605 34.5376 25.2611 34.5867C25.3641 34.6357 25.4523 34.7019 25.5259 34.7853C25.6019 34.8687 25.6595 34.9619 25.6988 35.0649C25.7405 35.1678 25.7613 35.2733 25.7613 35.3812C25.7613 35.4915 25.7417 35.5982 25.7025 35.7012C25.6657 35.8017 25.6117 35.89 25.5406 35.966C25.4695 36.042 25.3861 36.1009 25.2905 36.1426L25.8864 37.1246H25.3273L24.7903 36.2492H24.2827V37.1246H23.7751ZM24.2827 35.8042H24.919C24.9828 35.8042 25.0392 35.7858 25.0882 35.749C25.1372 35.7098 25.1765 35.6583 25.2059 35.5945C25.2353 35.5308 25.25 35.4596 25.25 35.3812C25.25 35.2978 25.2329 35.2255 25.1985 35.1642C25.1642 35.1004 25.1201 35.0501 25.0661 35.0134C25.0146 34.9766 24.9582 34.9582 24.8969 34.9582H24.2827V35.8042ZM26.9311 34.5131H27.4461L28.4061 37.1246H27.8838L27.641 36.4736H26.7288L26.4897 37.1246H25.9674L26.9311 34.5131ZM27.549 36.1168L27.1886 35.0391L26.8134 36.1168H27.549ZM29.2001 35.4474V37.1246H28.6925V34.5131H29.0971L30.447 36.2345V34.5168H30.9546V37.1246H30.5316L29.2001 35.4474ZM33.451 34.9582H32.616V37.1246H32.1121V34.9582H31.2771V34.5131H33.451V34.9582ZM35.5885 36.6796V37.1246H33.7751V34.5131H35.5554V34.9582H34.2827V35.5872H35.3825V35.9991H34.2827V36.6796H35.5885ZM37.7976 36.6796V37.1246H35.9842V34.5131H37.7645V34.9582H36.4918V35.5872H37.5916V35.9991H36.4918V36.6796H37.7976ZM38.1933 37.1246V34.5131H39.1422C39.4267 34.5131 39.6645 34.572 39.8558 34.6897C40.0471 34.8049 40.1905 34.9619 40.2862 35.1605C40.3818 35.3567 40.4296 35.5749 40.4296 35.8152C40.4296 36.08 40.3769 36.3105 40.2714 36.5067C40.166 36.7029 40.0164 36.8549 39.8227 36.9628C39.6314 37.0707 39.4046 37.1246 39.1422 37.1246H38.1933ZM39.9183 35.8152C39.9183 35.646 39.8877 35.4977 39.8264 35.3701C39.7651 35.2402 39.6768 35.1396 39.5616 35.0685C39.4463 34.995 39.3065 34.9582 39.1422 34.9582H38.7009V36.6796H39.1422C39.309 36.6796 39.45 36.6428 39.5652 36.5692C39.6805 36.4932 39.7675 36.3902 39.8264 36.2603C39.8877 36.1278 39.9183 35.9795 39.9183 35.8152Z" fill="white"/>
<path d="M45.5185 16.8779C45.5185 16.8779 44.4659 15.3944 43.4687 15.2928C42.5762 15.2005 41.6929 15.5021 41.6929 15.5021C41.6929 15.5021 43.5703 16.844 44.4659 17.1056C45.1615 17.3088 45.5185 16.8779 45.5185 16.8779Z" fill="#111827"/>
<path d="M48.458 33.8733C48.458 33.8733 48.9228 34.1903 49.5168 33.6517C50.2831 32.9561 51.2711 30.18 51.2711 30.18C51.2711 30.18 50.4247 30.6755 49.7107 31.3434C48.9166 32.0913 48.458 33.8733 48.458 33.8733Z" fill="#111827"/>
<path d="M47.3682 36.8556C48.4116 34.6089 49.0056 32.1528 49.1287 29.5521C49.2118 29.5767 49.6735 29.6844 50.1167 29.0843C50.7445 28.2287 51.2185 25.2863 51.2185 25.2863C51.2185 25.2863 50.4737 25.9696 49.8951 26.7883C49.3842 27.5115 49.1934 28.8196 49.138 29.3305C49.1472 29.0658 49.1564 28.798 49.1564 28.5303C49.1564 27.3546 49.061 26.1973 48.8825 25.0586C49.0549 25.0278 49.4057 24.8954 49.6335 24.323C50.0367 23.3104 49.7843 20.3403 49.7843 20.3403C49.7843 20.3403 49.2334 21.2175 48.8702 22.1778C48.6824 22.6733 48.6517 23.3258 48.6671 23.8859C48.4362 22.8087 48.1284 21.7592 47.7437 20.7435C47.8853 20.6974 48.2669 20.5158 48.4024 19.8356C48.6209 18.7553 47.8391 15.8991 47.8391 15.8991C47.8391 15.8991 47.4544 16.8809 47.2697 17.9027C47.1466 18.5922 47.3221 19.4847 47.4821 20.088C46.9927 18.9153 46.4018 17.795 45.7124 16.7363C45.814 16.6839 46.211 16.4377 46.2202 15.6898C46.2356 14.5818 44.9029 11.9596 44.9029 11.9596C44.9029 11.9596 44.7183 13.006 44.7337 14.0463C44.746 14.9173 45.2754 15.9976 45.54 16.487C45.0968 15.8283 44.6167 15.1912 44.0966 14.588C43.9735 14.191 43.5764 13.2553 42.4623 12.532C41.1635 11.6887 39.0213 10.8608 39.0213 10.8608C39.0213 10.8608 41.3204 13.0553 42.5115 13.954C43.2194 14.4895 43.8011 14.6896 44.035 14.7542C45.4231 16.3823 46.5434 18.2198 47.3621 20.1988C47.0543 19.6848 46.568 19.02 46.0079 18.8292C45.1646 18.5429 44.2597 18.6445 44.2597 18.6445C44.2597 18.6445 45.8109 20.368 46.6327 20.8205C47.1189 21.0882 47.4821 20.9528 47.6268 20.8728C48.1038 22.1439 48.4608 23.4673 48.6886 24.8246C48.5255 24.2891 48.1161 23.1719 47.4698 22.781C46.6973 22.3132 45.7986 22.2178 45.7986 22.2178C45.7986 22.2178 47.0051 24.246 47.7283 24.8739C48.2054 25.2863 48.6178 25.1755 48.7348 25.1324C48.9071 26.2466 49.0025 27.3854 49.0025 28.5334C49.0025 28.875 48.9933 29.2135 48.9779 29.549C48.9594 29.3151 48.7994 27.6531 48.0946 27.0006C47.4144 26.3728 46.5526 26.0773 46.5526 26.0773C46.5526 26.0773 47.3898 28.3333 47.9992 29.1089C48.4485 29.6814 48.9317 29.589 48.9748 29.5798C48.904 31.0294 48.6794 32.4329 48.3193 33.781C48.347 33.4024 48.4178 31.8881 47.8699 31.1433C47.3067 30.3769 46.5095 29.8968 46.5095 29.8968C46.5095 29.8968 46.9589 32.2975 47.4267 33.19C47.7591 33.824 48.2177 33.8641 48.2977 33.8671C47.9499 35.1382 47.476 36.3601 46.8727 37.5174C46.9928 36.9449 47.1589 35.8123 46.8173 35.1075C46.3926 34.2303 45.6878 33.584 45.6878 33.584C45.6878 33.584 45.7278 36.037 46.0356 37.0188C46.211 37.5789 46.5372 37.779 46.6973 37.8467C45.9863 39.1486 45.1215 40.3735 44.0966 41.5031C44.3089 41.0106 44.7398 39.8472 44.5151 39.0286C44.2535 38.0744 43.6718 37.2865 43.6718 37.2865C43.6718 37.2865 43.281 39.7026 43.4041 40.7306C43.4779 41.3338 43.7734 41.6016 43.915 41.697C43.7796 41.8416 43.6503 41.9863 43.5087 42.1279C42.8162 42.8296 42.0591 43.4852 41.2527 44.0946C41.6128 43.6083 42.1022 42.8204 42.0929 42.1217C42.0837 41.1276 41.7205 40.1919 41.7205 40.1919C41.7205 40.1919 40.7203 42.3956 40.5664 43.4174C40.4863 43.9622 40.6556 44.2915 40.7726 44.4516C39.8893 45.0856 38.9444 45.6611 37.9503 46.1813C38.3381 45.8951 39.3814 45.061 39.5569 44.1807C39.7508 43.2082 39.5753 42.214 39.5753 42.214C39.5753 42.214 38.1165 44.1376 37.7441 45.101C37.4855 45.7627 37.7317 46.1813 37.7902 46.2675C36.7899 46.7814 35.7374 47.237 34.6478 47.6278C35.1649 47.3662 36.2575 46.7384 36.5653 45.9566C36.9284 45.0271 36.9007 44.0176 36.9007 44.0176C36.9007 44.0176 35.0726 45.6919 34.5124 46.5845C34.1369 47.1816 34.3062 47.6248 34.3585 47.7356C33.0905 48.1757 31.7732 48.5296 30.4159 48.7851C29.4248 48.9728 28.5969 49.2406 27.9075 49.5422C27.215 49.2406 26.3902 48.9728 25.3991 48.7851C24.0449 48.5296 22.7245 48.1726 21.4565 47.7356C21.5088 47.6278 21.6781 47.1846 21.3026 46.5845C20.7425 45.6919 18.9143 44.0176 18.9143 44.0176C18.9143 44.0176 18.8896 45.0271 19.2497 45.9566C19.5544 46.7384 20.6471 47.3662 21.1641 47.6278C20.0746 47.237 19.022 46.7814 18.0217 46.2675C18.0802 46.1813 18.3264 45.7627 18.0679 45.101C17.6924 44.1376 16.2366 42.214 16.2366 42.214C16.2366 42.214 16.0612 43.2082 16.2551 44.1807C16.4305 45.061 17.4739 45.8951 17.8617 46.1813C16.8706 45.6611 15.9227 45.0856 15.0394 44.4516C15.1563 44.2946 15.3256 43.9622 15.2456 43.4174C15.0917 42.3925 14.0914 40.1919 14.0914 40.1919C14.0914 40.1919 13.7282 41.1276 13.719 42.1217C13.7128 42.8204 14.1991 43.6083 14.5592 44.0946C13.7528 43.4821 12.9957 42.8265 12.3032 42.1279C12.1647 41.9863 12.0324 41.8416 11.897 41.697C12.0385 41.6016 12.334 41.3369 12.4079 40.7306C12.531 39.7026 12.1401 37.2865 12.1401 37.2865C12.1401 37.2865 11.5584 38.0775 11.2968 39.0286C11.0721 39.8472 11.503 41.0106 11.7154 41.5031C10.6905 40.3735 9.82561 39.1486 9.11465 37.8467C9.27469 37.779 9.60094 37.5789 9.77637 37.0188C10.0842 36.037 10.1242 33.584 10.1242 33.584C10.1242 33.584 9.41935 34.2303 8.99462 35.1075C8.65299 35.8154 8.81919 36.9449 8.93922 37.5174C8.33906 36.357 7.86508 35.1382 7.51421 33.8671C7.59116 33.8671 8.05282 33.824 8.38215 33.19C8.84997 32.2975 9.29931 29.8968 9.29931 29.8968C9.29931 29.8968 8.4991 30.3769 7.93895 31.1433C7.3911 31.8881 7.46188 33.4024 7.48958 33.781C7.12641 32.4329 6.90482 31.0294 6.83403 29.5798C6.88019 29.589 7.3634 29.6814 7.80968 29.1089C8.416 28.3333 9.25623 26.0773 9.25623 26.0773C9.25623 26.0773 8.39137 26.3697 7.71427 27.0006C7.00946 27.6531 6.85249 29.312 6.83095 29.549C6.81556 29.2135 6.80632 28.875 6.80632 28.5334C6.80632 27.3823 6.89866 26.2466 7.07409 25.1324C7.19105 25.1755 7.60347 25.2863 8.08052 24.8739C8.80687 24.2491 10.0103 22.2178 10.0103 22.2178C10.0103 22.2178 9.11157 22.3163 8.33905 22.781C7.69272 23.1719 7.28338 24.2891 7.12026 24.8246C7.35109 23.4673 7.70811 22.1439 8.18208 20.8728C8.32674 20.9528 8.68992 21.0882 9.17621 20.8205C9.99797 20.368 11.5492 18.6445 11.5492 18.6445C11.5492 18.6445 10.6443 18.5398 9.80099 18.8292C9.24084 19.02 8.75455 19.6848 8.44678 20.1988C9.26854 18.2198 10.3858 16.3823 11.7738 14.7542C12.0078 14.6896 12.5925 14.4895 13.2973 13.954C14.4854 13.0553 16.7875 10.8608 16.7875 10.8608C16.7875 10.8608 14.6454 11.6887 13.3466 12.532C12.2324 13.2553 11.8385 14.191 11.7123 14.588C11.1921 15.1943 10.712 15.8283 10.2688 16.487C10.5335 15.9976 11.0629 14.9173 11.0752 14.0463C11.0906 13.006 10.9059 11.9596 10.9059 11.9596C10.9059 11.9596 9.57324 14.5818 9.58863 15.6898C9.59786 16.4408 9.99489 16.687 10.0965 16.7363C9.40704 17.795 8.8161 18.9184 8.32674 20.088C8.48678 19.4847 8.66529 18.5891 8.53911 17.9027C8.35444 16.8809 7.96972 15.8991 7.96972 15.8991C7.96972 15.8991 7.18797 18.7553 7.40649 19.8356C7.54499 20.5158 7.92664 20.6974 8.06514 20.7435C7.68041 21.7592 7.36956 22.8118 7.1418 23.8859C7.16027 23.3258 7.12642 22.6733 6.93867 22.1778C6.57549 21.2175 6.02457 20.3403 6.02457 20.3403C6.02457 20.3403 5.77219 23.3104 6.17538 24.323C6.40314 24.8954 6.754 25.0278 6.92636 25.0586C6.74785 26.1973 6.65243 27.3577 6.65243 28.5303C6.65243 28.798 6.66167 29.0658 6.67091 29.3305C6.61551 28.8165 6.42468 27.5115 5.91377 26.7883C5.33515 25.9696 4.59033 25.2863 4.59033 25.2863C4.59033 25.2863 5.0643 28.2287 5.69217 29.0843C6.13229 29.6875 6.59704 29.5798 6.68014 29.5521C6.80325 32.1528 7.39726 34.6089 8.44062 36.8556C8.14208 36.4063 7.7512 35.92 7.33263 35.6676C6.51702 35.1752 5.60292 34.889 5.60292 34.889C5.60292 34.889 7.06486 37.3881 7.93895 37.8898C8.48371 38.2037 8.84688 37.9944 8.96999 37.899C9.55784 38.9793 10.2534 40.0073 11.0536 40.9737C10.6505 40.6136 10.1395 40.232 9.66249 40.1027C8.7607 39.8595 7.81276 39.838 7.81276 39.838C7.81276 39.838 9.81022 41.8447 10.7797 42.0817C11.3922 42.2325 11.6907 41.9155 11.78 41.7924C11.9185 41.9432 12.057 42.0909 12.1986 42.2387C12.7249 42.7711 13.2881 43.2759 13.8821 43.7591C13.4451 43.5036 12.9311 43.2697 12.4756 43.2359C11.543 43.1651 10.6012 43.3251 10.6012 43.3251C10.6012 43.3251 12.8911 44.9286 13.8975 44.9779C14.5284 45.0087 14.7777 44.6455 14.8516 44.5039C15.6949 45.1164 16.5967 45.6765 17.5416 46.1874C16.9968 45.932 16.0581 45.5596 15.341 45.6242C14.3838 45.7135 13.4574 46.0274 13.4574 46.0274C13.4574 46.0274 16.0242 47.2216 17.0614 47.0985C17.8247 47.0061 17.9663 46.4767 17.9786 46.4183C18.902 46.8922 19.8653 47.3139 20.8625 47.6832C20.2377 47.5201 19.2436 47.3201 18.5388 47.4893C17.5601 47.7232 16.6552 48.1757 16.6552 48.1757C16.6552 48.1757 19.5144 48.9636 20.5886 48.6804C21.3026 48.4927 21.4196 48.0218 21.438 47.8925C22.703 48.3296 24.0172 48.6804 25.3684 48.9359C26.2824 49.1082 27.058 49.3514 27.7136 49.6253C26.7472 50.0747 26.0639 50.5917 25.593 51.0565C25.6484 51.0749 25.7038 51.0934 25.7592 51.1088C26.2394 50.6502 26.9319 50.1455 27.9075 49.7084C28.8832 50.1424 29.5757 50.6502 30.0558 51.1088C30.1112 51.0903 30.1666 51.0749 30.222 51.0565C29.7511 50.5948 29.0678 50.0747 28.1014 49.6253C28.7539 49.3514 29.5295 49.1113 30.4467 48.9359C31.7978 48.6804 33.112 48.3296 34.377 47.8925C34.3954 48.0218 34.5124 48.4927 35.2264 48.6804C36.3006 48.9636 39.1598 48.1757 39.1598 48.1757C39.1598 48.1757 38.255 47.7232 37.2762 47.4893C36.5745 47.3201 35.5773 47.5201 34.9525 47.6832C35.9497 47.3139 36.9161 46.8922 37.8364 46.4183C37.8487 46.4767 37.9934 47.0061 38.7536 47.0985C39.7908 47.2216 42.3576 46.0274 42.3576 46.0274C42.3576 46.0274 41.4312 45.7104 40.474 45.6242C39.7569 45.5565 38.8182 45.932 38.2734 46.1874C39.2183 45.6796 40.1201 45.1164 40.9634 44.5039C41.0373 44.6455 41.2866 45.0056 41.9175 44.9779C42.9239 44.9286 45.2138 43.3251 45.2138 43.3251C45.2138 43.3251 44.272 43.1651 43.3394 43.2359C42.8839 43.2697 42.3699 43.5067 41.9329 43.7591C42.5269 43.2759 43.0901 42.7711 43.6164 42.2387C43.7611 42.094 43.8965 41.9432 44.035 41.7924C44.1243 41.9155 44.4228 42.2294 45.0353 42.0817C46.0017 41.8447 48.0023 39.838 48.0023 39.838C48.0023 39.838 47.0543 39.8595 46.1525 40.1027C45.6724 40.232 45.1646 40.6105 44.7614 40.9737C45.5647 40.0073 46.2572 38.9824 46.845 37.899C46.9681 37.9944 47.3282 38.2037 47.8761 37.8898C48.7502 37.3881 50.2121 34.889 50.2121 34.889C50.2121 34.889 49.298 35.1783 48.4824 35.6676C48.0638 35.92 47.6729 36.4063 47.3744 36.8556H47.3682Z" fill="#111827"/>
<path d="M12.3433 15.2897C11.3461 15.3944 10.2935 16.8748 10.2935 16.8748C10.2935 16.8748 10.6536 17.3057 11.346 17.1025C12.2417 16.8409 14.1191 15.499 14.1191 15.499C14.1191 15.499 13.2389 15.1974 12.3433 15.2897Z" fill="#111827"/>
<path d="M7.35409 33.8733C7.35409 33.8733 6.89551 32.0913 6.10145 31.3434C5.39048 30.6755 4.54102 30.18 4.54102 30.18C4.54102 30.18 5.52898 32.9561 6.29535 33.6517C6.88936 34.1903 7.35409 33.8733 7.35409 33.8733Z" fill="#111827"/>
<path d="M26.2209 8.97108L27.5874 8.11238L28.957 8.97108L28.5631 7.40449L29.8003 6.36728L28.1907 6.25956L27.5874 4.76068L26.9873 6.25956L25.3745 6.36728L26.6149 7.40449L26.2209 8.97108Z" fill="#111827"/>
<path d="M18.3143 9.77745L18.4805 10.6084L18.9329 9.8944L19.7732 9.99289L19.2345 9.3404L19.5885 8.57096L18.8006 8.88182L18.1789 8.30627L18.2312 9.15266L17.4956 9.56508L18.3143 9.77745Z" fill="#111827"/>
<path d="M21.8628 9.29422L22.6507 8.41398L23.7864 8.74329L23.1955 7.72148L23.8572 6.74274L22.7031 6.99204L21.9767 6.05948L21.8567 7.23211L20.7456 7.6353L21.8259 8.11235L21.8628 9.29422Z" fill="#111827"/>
<path d="M36.1869 9.8944L36.6393 10.6084L36.8055 9.77745L37.6242 9.56508L36.8886 9.15266L36.9379 8.30627L36.3162 8.88182L35.5313 8.57096L35.8853 9.3404L35.3467 9.99289L36.1869 9.8944Z" fill="#111827"/>
<path d="M31.333 8.74329L32.4656 8.41398L33.2566 9.29422L33.2935 8.11235L34.3738 7.6353L33.2628 7.23211L33.1396 6.05948L32.4164 6.99204L31.2622 6.74274L31.9239 7.72148L31.333 8.74329Z" fill="#111827"/>
<path d="M25.9721 17.2403C25.9721 17.3921 25.9328 17.5199 25.8544 17.6236C25.7759 17.7248 25.6697 17.802 25.5355 17.8552C25.404 17.9083 25.2597 17.9349 25.1028 17.9349H23.8009V15.2399H25.2433C25.3698 15.2399 25.4786 15.2741 25.5697 15.3424C25.6633 15.4082 25.7342 15.4942 25.7823 15.6005C25.8329 15.7043 25.8582 15.8131 25.8582 15.9269C25.8582 16.056 25.8253 16.1787 25.7595 16.2951C25.6937 16.4115 25.5975 16.4976 25.471 16.5532C25.6254 16.5988 25.7468 16.681 25.8354 16.8C25.9265 16.9189 25.9721 17.0657 25.9721 17.2403ZM25.4445 17.1416C25.4445 17.0732 25.4305 17.0125 25.4027 16.9594C25.3749 16.9037 25.3369 16.8607 25.2888 16.8303C25.2433 16.7974 25.1901 16.781 25.1294 16.781H24.3247V17.4908H25.1028C25.1661 17.4908 25.223 17.4756 25.2736 17.4452C25.3268 17.4123 25.3685 17.3693 25.3989 17.3162C25.4293 17.263 25.4445 17.2048 25.4445 17.1416ZM24.3247 15.6878V16.3672H25.0231C25.0813 16.3672 25.1345 16.3533 25.1825 16.3255C25.2306 16.2977 25.2686 16.2584 25.2964 16.2078C25.3268 16.1572 25.342 16.0965 25.342 16.0256C25.342 15.9573 25.328 15.8978 25.3002 15.8472C25.2749 15.7966 25.2395 15.7574 25.1939 15.7296C25.1509 15.7017 25.1016 15.6878 25.0459 15.6878H24.3247ZM28.2521 17.4756V17.9349H26.3808V15.2399H28.2179V15.6992H26.9046V16.3483H28.0395V16.7734H26.9046V17.4756H28.2521ZM30.2661 15.9459C30.2483 15.9282 30.2155 15.9042 30.1674 15.8738C30.1218 15.8434 30.0649 15.8143 29.9966 15.7865C29.9308 15.7587 29.8587 15.7346 29.7802 15.7144C29.7018 15.6916 29.6221 15.6802 29.5411 15.6802C29.3994 15.6802 29.2918 15.7068 29.2184 15.7599C29.1476 15.8131 29.1122 15.8877 29.1122 15.9839C29.1122 16.0573 29.1349 16.1155 29.1805 16.1585C29.226 16.2015 29.2944 16.2382 29.3855 16.2686C29.4765 16.2989 29.5904 16.3318 29.7271 16.3672C29.9042 16.4103 30.0573 16.4634 30.1863 16.5267C30.3179 16.5874 30.4179 16.6684 30.4862 16.7696C30.5571 16.8683 30.5925 16.9999 30.5925 17.1643C30.5925 17.3086 30.5659 17.4326 30.5128 17.5363C30.4596 17.6375 30.3863 17.7198 30.2926 17.783C30.199 17.8463 30.0927 17.8931 29.9738 17.9235C29.8549 17.9513 29.7283 17.9652 29.5942 17.9652C29.4601 17.9652 29.326 17.9513 29.1919 17.9235C29.0578 17.8957 28.9287 17.8564 28.8047 17.8058C28.6807 17.7527 28.5668 17.6894 28.4631 17.616L28.6946 17.1643C28.7174 17.1871 28.7579 17.2175 28.8161 17.2554C28.8743 17.2909 28.9451 17.3276 29.0287 17.3655C29.1122 17.4009 29.2033 17.4313 29.3019 17.4566C29.4006 17.4819 29.5006 17.4946 29.6018 17.4946C29.7435 17.4946 29.8511 17.4705 29.9244 17.4225C29.9978 17.3744 30.0345 17.3061 30.0345 17.2175C30.0345 17.1365 30.0054 17.0732 29.9472 17.0277C29.889 16.9821 29.808 16.9429 29.7043 16.91C29.6005 16.8746 29.4778 16.8366 29.3361 16.7962C29.1666 16.7481 29.0249 16.6949 28.911 16.6367C28.7971 16.576 28.7123 16.5001 28.6567 16.409C28.601 16.3179 28.5732 16.204 28.5732 16.0674C28.5732 15.8827 28.6162 15.7283 28.7022 15.6043C28.7908 15.4778 28.9097 15.3829 29.059 15.3196C29.2083 15.2538 29.3741 15.2209 29.5563 15.2209C29.6828 15.2209 29.8017 15.2349 29.9131 15.2627C30.0269 15.2905 30.1332 15.3272 30.2319 15.3728C30.3306 15.4183 30.4192 15.4677 30.4976 15.5208L30.2661 15.9459ZM33.0038 15.6992H32.1422V17.9349H31.6222V15.6992H30.7606V15.2399H33.0038V15.6992Z" fill="white"/>
<path d="M21.4364 21.7496C21.239 21.7496 21.0593 21.7116 20.8974 21.6357C20.7379 21.5573 20.6 21.4535 20.4836 21.3244C20.3698 21.1954 20.2812 21.0499 20.2179 20.8879C20.1547 20.7235 20.123 20.5552 20.123 20.3831C20.123 20.2034 20.1559 20.0326 20.2217 19.8707C20.2901 19.7062 20.3824 19.5607 20.4988 19.4342C20.6177 19.3051 20.7569 19.2039 20.9163 19.1305C21.0783 19.0546 21.2554 19.0166 21.4477 19.0166C21.6426 19.0166 21.8197 19.0559 21.9791 19.1343C22.1411 19.2128 22.279 19.3178 22.3929 19.4494C22.5068 19.5809 22.5953 19.7277 22.6586 19.8897C22.7218 20.0516 22.7535 20.2186 22.7535 20.3907C22.7535 20.5678 22.7206 20.7386 22.6548 20.9031C22.589 21.0651 22.4966 21.2106 22.3777 21.3396C22.2613 21.4662 22.1221 21.5661 21.9602 21.6395C21.8007 21.7129 21.6261 21.7496 21.4364 21.7496ZM21.4402 21.2865C21.5667 21.2865 21.6793 21.2612 21.778 21.2106C21.8767 21.1574 21.9589 21.0878 22.0247 21.0018C22.0905 20.9132 22.1398 20.8158 22.1727 20.7095C22.2082 20.6007 22.2259 20.4919 22.2259 20.3831C22.2259 20.2667 22.2069 20.1541 22.1689 20.0453C22.1335 19.9365 22.0816 19.8403 22.0133 19.7568C21.9475 19.6733 21.8653 19.6063 21.7666 19.5556C21.6704 19.505 21.5616 19.4797 21.4402 19.4797C21.3111 19.4797 21.1972 19.5063 21.0985 19.5594C21.0024 19.61 20.9214 19.6796 20.8556 19.7682C20.7898 19.8542 20.7392 19.9504 20.7038 20.0567C20.6709 20.163 20.6544 20.2718 20.6544 20.3831C20.6544 20.4995 20.6722 20.6121 20.7076 20.7209C20.743 20.8297 20.7936 20.9259 20.8594 21.0094C20.9277 21.0929 21.01 21.16 21.1061 21.2106C21.2048 21.2612 21.3162 21.2865 21.4402 21.2865ZM21.387 20.7323H21.8805L22.7687 21.7306H22.2752L21.387 20.7323ZM24.2941 21.7496C24.079 21.7496 23.8955 21.7141 23.7437 21.6433C23.5944 21.5699 23.473 21.47 23.3793 21.3434C23.2882 21.2169 23.2212 21.0739 23.1782 20.9145C23.1351 20.7526 23.1136 20.5843 23.1136 20.4097V19.0356H23.6374V20.4097C23.6374 20.521 23.6476 20.6298 23.6678 20.7361C23.6906 20.8399 23.7273 20.9335 23.7779 21.017C23.8285 21.1005 23.8955 21.1663 23.979 21.2144C24.0626 21.2625 24.1663 21.2865 24.2903 21.2865C24.4168 21.2865 24.5218 21.2625 24.6053 21.2144C24.6914 21.1638 24.7584 21.0967 24.8065 21.0132C24.8571 20.9297 24.8938 20.8361 24.9166 20.7323C24.9394 20.626 24.9508 20.5185 24.9508 20.4097V19.0356H25.4708V20.4097C25.4708 20.5944 25.448 20.7677 25.4024 20.9297C25.3594 21.0916 25.2898 21.2346 25.1937 21.3586C25.1001 21.4801 24.9786 21.5762 24.8293 21.6471C24.68 21.7154 24.5016 21.7496 24.2941 21.7496ZM26.6235 19.0356H27.1549L28.1455 21.7306H27.6065L27.356 21.0587H26.4147L26.168 21.7306H25.629L26.6235 19.0356ZM27.2611 20.6906L26.8892 19.5784L26.502 20.6906H27.2611ZM28.4411 21.7306V19.0356H28.9649V21.2713H30.339V21.7306H28.4411ZM30.6578 21.7306V19.0356H31.1816V21.7306H30.6578ZM33.7594 19.4949H32.8978V21.7306H32.3777V19.4949H31.5161V19.0356H33.7594V19.4949ZM34.3976 19.0356L35.0619 20.3034L35.7375 19.0356H36.3031L35.3238 20.7893V21.7306H34.8037V20.7817L33.8282 19.0356H34.3976Z" fill="white"/>
</svg>
