<svg width="151" height="86" viewBox="0 0 151 86" fill="none" xmlns="http://www.w3.org/2000/svg">
<path opacity="0.6" d="M5.53558 1.46979C3.29003 1.46979 1.46966 3.29016 1.46966 5.5357V80.4899C1.46966 82.7355 3.29004 84.5558 5.53558 84.5558H145.544C147.79 84.5558 149.61 82.7355 149.61 80.4899V5.5357C149.61 3.29016 147.79 1.46979 145.544 1.46979H5.53558Z" fill="#1D1C39" stroke="#403F6F" stroke-width="1.06067"/>
<path d="M33.62 63.1815C33.62 64.8218 33.1333 66.1287 32.16 67.102C31.0665 68.2611 29.6284 68.8407 27.8459 68.8407C26.1399 68.8407 24.6964 68.2502 23.5153 67.0691C22.3342 65.8881 21.7437 64.4336 21.7437 62.7058C21.7437 60.9779 22.3342 59.5235 23.5153 58.3424C24.6964 57.1613 26.1399 56.5708 27.8459 56.5708C28.7098 56.5708 29.5245 56.7239 30.29 57.0301C31.0555 57.3363 31.6843 57.7683 32.1764 58.326L31.0938 59.4086C30.7329 58.9712 30.2627 58.6322 29.6831 58.3916C29.1144 58.1401 28.502 58.0143 27.8459 58.0143C26.5664 58.0143 25.4837 58.4572 24.5979 59.343C23.7231 60.2398 23.2856 61.3607 23.2856 62.7058C23.2856 64.0509 23.7231 65.1718 24.5979 66.0685C25.4837 66.9543 26.5664 67.3972 27.8459 67.3972C29.016 67.3972 29.9893 67.0691 30.7657 66.413C31.5422 65.7569 31.9905 64.8547 32.1108 63.7064H27.8459V62.2957H33.5379C33.5926 62.6019 33.62 62.8971 33.62 63.1815ZM34.6517 64.5594C34.6517 63.3236 35.0399 62.3011 35.8164 61.4919C36.6038 60.6827 37.5934 60.278 38.7854 60.278C39.9774 60.278 40.9617 60.6827 41.7381 61.4919C42.5255 62.3011 42.9192 63.3236 42.9192 64.5594C42.9192 65.8061 42.5255 66.8286 41.7381 67.6269C40.9617 68.4361 39.9774 68.8407 38.7854 68.8407C37.5934 68.8407 36.6038 68.4361 35.8164 67.6269C35.0399 66.8176 34.6517 65.7951 34.6517 64.5594ZM36.1609 64.5594C36.1609 65.4233 36.4124 66.1232 36.9154 66.6591C37.4185 67.1949 38.0418 67.4628 38.7854 67.4628C39.5291 67.4628 40.1524 67.1949 40.6555 66.6591C41.1585 66.1232 41.41 65.4233 41.41 64.5594C41.41 63.7064 41.1585 63.012 40.6555 62.4761C40.1415 61.9293 39.5181 61.6559 38.7854 61.6559C38.0527 61.6559 37.4294 61.9293 36.9154 62.4761C36.4124 63.012 36.1609 63.7064 36.1609 64.5594ZM43.8307 64.5594C43.8307 63.3236 44.2189 62.3011 44.9954 61.4919C45.7828 60.6827 46.7725 60.278 47.9645 60.278C49.1565 60.278 50.1407 60.6827 50.9171 61.4919C51.7045 62.3011 52.0982 63.3236 52.0982 64.5594C52.0982 65.8061 51.7045 66.8286 50.9171 67.6269C50.1407 68.4361 49.1565 68.8407 47.9645 68.8407C46.7725 68.8407 45.7828 68.4361 44.9954 67.6269C44.2189 66.8176 43.8307 65.7951 43.8307 64.5594ZM45.3399 64.5594C45.3399 65.4233 45.5914 66.1232 46.0944 66.6591C46.5975 67.1949 47.2208 67.4628 47.9645 67.4628C48.7081 67.4628 49.3314 67.1949 49.8345 66.6591C50.3375 66.1232 50.589 65.4233 50.589 64.5594C50.589 63.7064 50.3375 63.012 49.8345 62.4761C49.3205 61.9293 48.6972 61.6559 47.9645 61.6559C47.2318 61.6559 46.6084 61.9293 46.0944 62.4761C45.5914 63.012 45.3399 63.7064 45.3399 64.5594ZM57.0778 67.4628C57.8215 67.4628 58.4284 67.1949 58.8987 66.6591C59.3908 66.1232 59.6368 65.4233 59.6368 64.5594C59.6368 63.7173 59.3908 63.0229 58.8987 62.4761C58.4175 61.9293 57.8105 61.6559 57.0778 61.6559C56.3561 61.6559 55.7491 61.9293 55.257 62.4761C54.7649 63.0229 54.5189 63.7173 54.5189 64.5594C54.5189 65.4124 54.7649 66.1068 55.257 66.6427C55.7491 67.1894 56.3561 67.4628 57.0778 67.4628ZM57.0286 72.3839C56.5803 72.3839 56.1592 72.3238 55.7656 72.2035C55.3719 72.0941 55.011 71.9356 54.6829 71.7278C54.3658 71.52 54.0924 71.274 53.8627 70.9896C53.6331 70.7053 53.4581 70.3882 53.3378 70.0382L54.7649 69.4477C54.929 69.9179 55.2133 70.2952 55.6179 70.5795C56.0225 70.8639 56.4928 71.006 57.0286 71.006C57.8488 71.006 58.4886 70.76 58.9479 70.2679C59.4072 69.7758 59.6368 69.0977 59.6368 68.2338V67.4628H59.5712C59.2869 67.8893 58.8987 68.2283 58.4065 68.4799C57.9254 68.7205 57.4005 68.8407 56.8318 68.8407C55.782 68.8407 54.8798 68.4307 54.1252 67.6105C53.3816 66.7684 53.0097 65.7514 53.0097 64.5594C53.0097 63.3674 53.3816 62.3558 54.1252 61.5247C54.8798 60.6936 55.782 60.278 56.8318 60.278C57.4005 60.278 57.9254 60.4038 58.4065 60.6553C58.8987 60.8959 59.2869 61.2294 59.5712 61.6559H59.6368V60.5405H61.0803V68.2338C61.0803 69.5242 60.714 70.5358 59.9813 71.2685C59.2377 72.0121 58.2534 72.3839 57.0286 72.3839ZM64.4295 56.8333V68.5783H62.9204V56.8333H64.4295ZM69.7971 68.8407C68.616 68.8407 67.6427 68.4361 66.8772 67.6269C66.1117 66.8176 65.729 65.7951 65.729 64.5594C65.729 63.3346 66.1008 62.3176 66.8444 61.5083C67.5881 60.6881 68.5395 60.278 69.6987 60.278C70.8907 60.278 71.8366 60.6662 72.5365 61.4427C73.2473 62.2082 73.6027 63.2854 73.6027 64.6742L73.5863 64.8382H67.2709C67.2928 65.6256 67.5553 66.2599 68.0583 66.7411C68.5614 67.2222 69.1628 67.4628 69.8627 67.4628C70.8251 67.4628 71.5796 66.9817 72.1264 66.0193L73.4715 66.6755C73.1106 67.3535 72.6076 67.8839 71.9624 68.2666C71.3281 68.6494 70.6063 68.8407 69.7971 68.8407ZM67.3858 63.5916H71.9952C71.9514 63.0338 71.7218 62.5745 71.3062 62.2137C70.9016 61.8418 70.3548 61.6559 69.6659 61.6559C69.0972 61.6559 68.6051 61.8309 68.1895 62.1809C67.7849 62.5308 67.517 63.001 67.3858 63.5916ZM80.3588 63.8212V68.5783H78.8496V56.8333H82.8521C83.8691 56.8333 84.7331 57.1723 85.4439 57.8503C86.1657 58.5283 86.5265 59.354 86.5265 60.3272C86.5265 61.3224 86.1657 62.1535 85.4439 62.8206C84.744 63.4877 83.8801 63.8212 82.8521 63.8212H80.3588ZM80.3588 58.2768V62.3777H82.8849C83.4864 62.3777 83.984 62.1754 84.3777 61.7708C84.7823 61.3661 84.9846 60.885 84.9846 60.3272C84.9846 59.7805 84.7823 59.3047 84.3777 58.9001C83.984 58.4846 83.4864 58.2768 82.8849 58.2768H80.3588ZM88.6249 66.1177C88.6249 66.5114 88.789 66.8395 89.117 67.102C89.456 67.3644 89.8497 67.4956 90.2981 67.4956C90.9324 67.4956 91.4956 67.2605 91.9877 66.7903C92.4907 66.32 92.7422 65.7678 92.7422 65.1335C92.272 64.7617 91.6159 64.5758 90.7738 64.5758C90.1614 64.5758 89.6474 64.7234 89.2319 65.0187C88.8272 65.314 88.6249 65.6803 88.6249 66.1177ZM90.577 60.278C91.6924 60.278 92.5727 60.5788 93.2179 61.1802C93.8632 61.7708 94.1858 62.5855 94.1858 63.6244V68.5783H92.7422V67.4628H92.6766C92.0533 68.3814 91.2222 68.8407 90.1833 68.8407C89.2975 68.8407 88.5538 68.5783 87.9524 68.0534C87.3618 67.5285 87.0666 66.8723 87.0666 66.0849C87.0666 65.2538 87.3782 64.5922 88.0016 64.1001C88.6359 63.608 89.4779 63.3619 90.5277 63.3619C91.4245 63.3619 92.1626 63.526 92.7422 63.854V63.5096C92.7422 62.9846 92.5345 62.5417 92.1189 62.1809C91.7033 61.809 91.2167 61.6231 90.659 61.6231C89.8169 61.6231 89.1498 61.9785 88.6577 62.6894L87.329 61.8528C88.0617 60.8029 89.1444 60.278 90.577 60.278ZM105.304 68.7095C104.647 68.7095 104.101 68.5072 103.663 68.1026C103.237 67.698 103.018 67.1348 103.007 66.413V61.9184H101.596V60.5405H103.007V58.0799H104.516V60.5405H106.485V61.9184H104.516V65.9209C104.516 66.4567 104.62 66.8231 104.828 67.0199C105.036 67.2058 105.271 67.2988 105.533 67.2988C105.654 67.2988 105.768 67.2879 105.878 67.266C105.998 67.2332 106.107 67.1949 106.206 67.1512L106.682 68.4963C106.288 68.6384 105.829 68.7095 105.304 68.7095ZM95.8879 60.5405H97.3314V61.8528H97.397C97.8454 60.8248 98.7695 60.3108 100.169 60.3108L100.481 60.3436V61.9184L99.8084 61.8528C99.1085 61.8528 98.5289 62.0715 98.0696 62.5089C97.6212 62.9354 97.397 63.4822 97.397 64.1493V68.5783H95.8879V60.5405ZM108.014 60.5405H109.458V61.6559H109.524C109.753 61.2622 110.103 60.9342 110.573 60.6717C111.055 60.4093 111.552 60.278 112.066 60.278C113.05 60.278 113.805 60.5624 114.33 61.131C114.866 61.6887 115.134 62.4871 115.134 63.526V68.5783H113.625V63.6244C113.592 62.3121 112.93 61.6559 111.64 61.6559C111.038 61.6559 110.535 61.902 110.131 62.3941C109.726 62.8753 109.524 63.4549 109.524 64.1329V68.5783H108.014V60.5405ZM120.514 68.8407C119.333 68.8407 118.36 68.4361 117.594 67.6269C116.829 66.8176 116.446 65.7951 116.446 64.5594C116.446 63.3346 116.818 62.3176 117.561 61.5083C118.305 60.6881 119.256 60.278 120.415 60.278C121.607 60.278 122.553 60.6662 123.253 61.4427C123.964 62.2082 124.32 63.2854 124.32 64.6742L124.303 64.8382H117.988C118.01 65.6256 118.272 66.2599 118.775 66.7411C119.278 67.2222 119.88 67.4628 120.58 67.4628C121.542 67.4628 122.296 66.9817 122.843 66.0193L124.188 66.6755C123.827 67.3535 123.324 67.8839 122.679 68.2666C122.045 68.6494 121.323 68.8407 120.514 68.8407ZM118.103 63.5916H122.712C122.668 63.0338 122.439 62.5745 122.023 62.2137C121.618 61.8418 121.072 61.6559 120.383 61.6559C119.814 61.6559 119.322 61.8309 118.906 62.1809C118.502 62.5308 118.234 63.001 118.103 63.5916ZM127.209 68.5783H125.7V60.5405H127.143V61.8528H127.209C127.362 61.4263 127.674 61.0654 128.144 60.7701C128.625 60.4639 129.095 60.3108 129.555 60.3108C129.992 60.3108 130.364 60.3765 130.67 60.5077L130.211 61.9676C130.025 61.8911 129.729 61.8528 129.325 61.8528C128.756 61.8528 128.259 62.0824 127.832 62.5417C127.417 63.001 127.209 63.5369 127.209 64.1493V68.5783Z" fill="white" fill-opacity="0.84"/>
<path d="M91.3589 28.343C91.3589 27.1879 91.2552 26.0772 91.0627 25.011H75.7207V31.3196H84.4876C84.1025 33.3484 82.9474 35.0662 81.2148 36.2213V40.3234H86.5016C89.5818 37.4801 91.3589 33.304 91.3589 28.343Z" fill="#4285F4"/>
<path d="M75.72 44.2625C80.1183 44.2625 83.8057 42.8113 86.5009 40.3234L81.2141 36.2213C79.7629 37.1987 77.9118 37.7911 75.72 37.7911C71.4847 37.7911 67.8862 34.933 66.5978 31.0826H61.1777V35.2884C63.8581 40.6047 69.3522 44.2625 75.72 44.2625Z" fill="#34A853"/>
<path d="M66.5991 31.0678C66.2733 30.0905 66.0808 29.0538 66.0808 27.9728C66.0808 26.8917 66.2733 25.8551 66.5991 24.8777V20.672H61.1791C60.0684 22.8637 59.4316 25.3368 59.4316 27.9728C59.4316 30.6088 60.0684 33.0818 61.1791 35.2736L65.3996 31.986L66.5991 31.0678Z" fill="#FBBC05"/>
<path d="M75.72 18.1693C78.1191 18.1693 80.2516 18.9986 81.9546 20.598L86.6194 15.9332C83.7909 13.2972 80.1183 11.683 75.72 11.683C69.3522 11.683 63.8581 15.3408 61.1777 20.672L66.5978 24.8777C67.8862 21.0274 71.4847 18.1693 75.72 18.1693Z" fill="#EA4335"/>
</svg>
