<svg width="110" height="62" viewBox="0 0 110 62" fill="none" xmlns="http://www.w3.org/2000/svg">
<g opacity="0.9">
<rect x="1.15625" y="1.00098" width="107" height="60" rx="2.58643" fill="#0E1219" fill-opacity="0.51"/>
<rect x="0.65625" y="0.500977" width="108" height="61" rx="3.08643" stroke="white" stroke-opacity="0.09"/>
</g>
<path d="M80.8605 34.0017H79.9362V35.6064H78.8597V34.0017H75.7416V33.1486L78.8495 28.3242H79.9362V33.0876H80.8605V34.0017ZM78.8597 31.1173C78.8597 30.9548 78.8597 30.799 78.8597 30.6501C78.8664 30.5011 78.8732 30.3589 78.88 30.2235C78.8867 30.0813 78.8901 29.9527 78.8901 29.8375C78.8969 29.7157 78.9037 29.6073 78.9104 29.5125H78.8698C78.8156 29.648 78.7513 29.7868 78.6768 29.929C78.6091 30.0711 78.5414 30.1964 78.4737 30.3047L76.7674 33.0876H78.8597V31.1173ZM81.6533 35.0072C81.6533 34.7431 81.7177 34.5569 81.8463 34.4486C81.9817 34.3403 82.1476 34.2861 82.344 34.2861C82.5336 34.2861 82.6961 34.3403 82.8315 34.4486C82.9737 34.5569 83.0448 34.7431 83.0448 35.0072C83.0448 35.2713 82.9737 35.4609 82.8315 35.576C82.6961 35.6911 82.5336 35.7486 82.344 35.7486C82.1476 35.7486 81.9817 35.6911 81.8463 35.576C81.7177 35.4609 81.6533 35.2713 81.6533 35.0072ZM86.4044 28.2531C86.8107 28.2531 87.1696 28.3208 87.481 28.4563C87.7993 28.5849 88.0464 28.7779 88.2225 29.0352C88.4053 29.2925 88.4967 29.6141 88.4967 30C88.4967 30.2912 88.4391 30.5451 88.324 30.7618C88.2157 30.9785 88.0633 31.1714 87.867 31.3407C87.6774 31.5032 87.4675 31.6454 87.2373 31.7673C87.5013 31.9095 87.7451 32.072 87.9685 32.2548C88.192 32.4308 88.3714 32.6374 88.5068 32.8743C88.649 33.1113 88.7201 33.3957 88.7201 33.7275C88.7201 34.1338 88.6253 34.4858 88.4357 34.7838C88.2529 35.0749 87.9889 35.3017 87.6435 35.4643C87.2982 35.6268 86.8886 35.708 86.4146 35.708C85.9068 35.708 85.4768 35.6301 85.1247 35.4744C84.7794 35.3187 84.5187 35.0986 84.3427 34.8142C84.1666 34.5231 84.0786 34.171 84.0786 33.758C84.0786 33.4262 84.1395 33.1384 84.2614 32.8947C84.3901 32.6509 84.556 32.441 84.7591 32.265C84.969 32.0889 85.1992 31.9399 85.4497 31.8181C85.2331 31.6826 85.0367 31.5303 84.8606 31.361C84.6846 31.185 84.5458 30.9852 84.4442 30.7618C84.3494 30.5383 84.302 30.281 84.302 29.9899C84.302 29.6107 84.3934 29.2959 84.5763 29.0453C84.7591 28.788 85.0096 28.5917 85.3278 28.4563C85.6461 28.3208 86.0049 28.2531 86.4044 28.2531ZM85.1349 33.7376C85.1349 34.0694 85.2398 34.3437 85.4497 34.5603C85.6596 34.7702 85.9745 34.8752 86.3943 34.8752C86.6787 34.8752 86.9123 34.8278 87.0951 34.733C87.2779 34.6314 87.4167 34.496 87.5115 34.3267C87.6131 34.1507 87.6638 33.9509 87.6638 33.7275C87.6638 33.504 87.6097 33.3077 87.5013 33.1384C87.393 32.9691 87.244 32.8202 87.0545 32.6915C86.8716 32.5561 86.6617 32.4342 86.4248 32.3259L86.2927 32.265C86.049 32.3801 85.8391 32.5087 85.663 32.6509C85.4937 32.7931 85.3617 32.9522 85.2669 33.1283C85.1789 33.3043 85.1349 33.5074 85.1349 33.7376ZM86.3841 29.0961C86.0862 29.0961 85.8391 29.1774 85.6427 29.3399C85.4531 29.5024 85.3583 29.7394 85.3583 30.0508C85.3583 30.2743 85.4057 30.4639 85.5005 30.6196C85.6021 30.7753 85.7307 30.9107 85.8865 31.0259C86.049 31.1342 86.225 31.2391 86.4146 31.3407C86.6042 31.2459 86.7735 31.1443 86.9224 31.036C87.0782 30.9209 87.2 30.7855 87.2881 30.6298C87.3828 30.4672 87.4302 30.2743 87.4302 30.0508C87.4302 29.7394 87.3321 29.5024 87.1357 29.3399C86.9461 29.1774 86.6956 29.0961 86.3841 29.0961Z" fill="#F0F0F0"/>
<path d="M17.508 9.5326C17.9609 9.5326 18.3348 9.59316 18.6297 9.71429C18.9246 9.83541 19.1432 10.0171 19.2854 10.2594C19.4328 10.4963 19.5066 10.7965 19.5066 11.1599C19.5066 11.4495 19.4565 11.6944 19.3565 11.8946C19.2617 12.0894 19.1353 12.25 18.9773 12.3764C18.8246 12.4976 18.6587 12.595 18.4796 12.6687L19.9726 15.1729H18.9773L17.7213 12.8899H16.8602V15.1729H15.9834V9.5326H17.508ZM17.4685 10.2594H16.8602V12.1789H17.4843C17.7423 12.1789 17.953 12.1421 18.1163 12.0683C18.2848 11.9946 18.4085 11.884 18.4875 11.7366C18.5718 11.5891 18.6139 11.4074 18.6139 11.1915C18.6139 10.965 18.5718 10.786 18.4875 10.6543C18.4085 10.5174 18.2821 10.4173 18.1084 10.3541C17.9398 10.291 17.7265 10.2594 17.4685 10.2594ZM22.2446 10.836C22.7449 10.836 23.1215 10.9545 23.3742 11.1915C23.6323 11.4232 23.7613 11.7892 23.7613 12.2895V15.1729H23.1531L22.9872 14.5804H22.9556C22.8344 14.7331 22.7133 14.8595 22.5922 14.9596C22.4763 15.0596 22.3394 15.1334 22.1814 15.1808C22.0287 15.2281 21.8391 15.2518 21.6126 15.2518C21.3757 15.2518 21.1624 15.2071 20.9728 15.1176C20.7832 15.0228 20.6331 14.8806 20.5225 14.691C20.4119 14.4961 20.3566 14.2539 20.3566 13.9642C20.3566 13.5324 20.5094 13.2032 20.8148 12.9768C21.1255 12.7503 21.5969 12.6266 22.2288 12.6055L22.9082 12.5818V12.3448C22.9082 12.0288 22.8423 11.8077 22.7107 11.6813C22.5843 11.5549 22.4052 11.4917 22.1735 11.4917C21.9787 11.4917 21.7864 11.5233 21.5969 11.5865C21.4073 11.6497 21.2229 11.726 21.0439 11.8156L20.7832 11.2073C20.9781 11.102 21.1992 11.0151 21.4468 10.9466C21.6995 10.8729 21.9655 10.836 22.2446 10.836ZM22.3947 13.1427C21.9629 13.1637 21.6627 13.2454 21.4942 13.3876C21.3256 13.5245 21.2414 13.7193 21.2414 13.9721C21.2414 14.1933 21.2993 14.3539 21.4152 14.454C21.5363 14.5541 21.6916 14.6041 21.8812 14.6041C22.1709 14.6041 22.4131 14.5119 22.608 14.3276C22.8081 14.1433 22.9082 13.8668 22.9082 13.4982V13.1269L22.3947 13.1427ZM26.4465 14.5725C26.5571 14.5725 26.6651 14.562 26.7704 14.5409C26.8757 14.5198 26.9679 14.4961 27.0469 14.4698V15.1018C26.9574 15.1439 26.8389 15.1781 26.6914 15.2044C26.5492 15.236 26.3991 15.2518 26.2411 15.2518C26.02 15.2518 25.8172 15.2123 25.6329 15.1334C25.4486 15.0544 25.3011 14.9174 25.1905 14.7226C25.0799 14.5277 25.0246 14.2565 25.0246 13.9089V11.5549H24.4796V11.1757L25.0641 10.8597L25.3564 9.95917H25.8857V10.915H27.0153V11.5549H25.8857V13.8931C25.8857 14.1248 25.9383 14.296 26.0437 14.4066C26.149 14.5172 26.2833 14.5725 26.4465 14.5725ZM29.4498 10.836C29.8027 10.836 30.1081 10.915 30.3662 11.073C30.6242 11.2257 30.8217 11.4469 30.9586 11.7366C31.1008 12.0262 31.1719 12.3685 31.1719 12.7635V13.2217H28.494C28.5045 13.6588 28.6098 13.9932 28.81 14.2249C29.0101 14.4566 29.2918 14.5725 29.6552 14.5725C29.9133 14.5725 30.1424 14.5488 30.3425 14.5014C30.5479 14.4487 30.7559 14.3724 30.9665 14.2723V14.9675C30.7664 15.0623 30.561 15.1334 30.3504 15.1808C30.145 15.2281 29.8948 15.2518 29.5999 15.2518C29.2155 15.2518 28.8732 15.1702 28.573 15.007C28.2728 14.8437 28.0384 14.6015 27.8699 14.2802C27.7014 13.9537 27.6171 13.5535 27.6171 13.0795C27.6171 12.6002 27.6935 12.1947 27.8462 11.863C27.999 11.5312 28.2122 11.2784 28.4861 11.1046C28.7652 10.9255 29.0865 10.836 29.4498 10.836ZM29.4498 11.4838C29.1812 11.4838 28.9653 11.5812 28.8021 11.7761C28.6388 11.9709 28.544 12.2474 28.5177 12.6055H30.3267C30.3267 12.3843 30.2951 12.1895 30.2319 12.0209C30.1687 11.8524 30.0713 11.7208 29.9396 11.626C29.8132 11.5312 29.6499 11.4838 29.4498 11.4838ZM37.6346 13.04C37.6346 13.3928 37.5898 13.7062 37.5003 13.98C37.4108 14.2539 37.2817 14.4856 37.1132 14.6752C36.95 14.8648 36.7498 15.0096 36.5129 15.1097C36.2759 15.2044 36.0099 15.2518 35.715 15.2518C35.4464 15.2518 35.1963 15.2044 34.9646 15.1097C34.7328 15.0096 34.5327 14.8648 34.3642 14.6752C34.1957 14.4856 34.064 14.2539 33.9692 13.98C33.8797 13.7062 33.8349 13.3902 33.8349 13.0321C33.8349 12.5634 33.9113 12.1658 34.064 11.8393C34.2167 11.5127 34.4353 11.2652 34.7197 11.0967C35.0093 10.9229 35.3516 10.836 35.7466 10.836C36.1152 10.836 36.4418 10.9229 36.7261 11.0967C37.0105 11.2652 37.2317 11.5127 37.3897 11.8393C37.553 12.1658 37.6346 12.566 37.6346 13.04ZM34.7197 13.04C34.7197 13.356 34.7539 13.6298 34.8224 13.8615C34.8961 14.088 35.0067 14.2618 35.1541 14.3829C35.3069 14.504 35.4991 14.5646 35.7308 14.5646C35.9678 14.5646 36.16 14.504 36.3075 14.3829C36.4602 14.2618 36.5708 14.088 36.6392 13.8615C36.713 13.6298 36.7498 13.356 36.7498 13.04C36.7498 12.7135 36.713 12.4396 36.6392 12.2184C36.5655 11.9972 36.4549 11.8287 36.3075 11.7129C36.16 11.5917 35.9652 11.5312 35.7229 11.5312C35.3701 11.5312 35.1146 11.6628 34.9567 11.9262C34.7987 12.1895 34.7197 12.5607 34.7197 13.04ZM40.6931 10.836C41.1565 10.836 41.512 10.9598 41.7595 11.2073C42.0123 11.4548 42.1387 11.8524 42.1387 12.4001V15.1729H41.2855V12.5186C41.2855 12.1868 41.2197 11.9393 41.088 11.7761C40.9616 11.6075 40.7642 11.5233 40.4956 11.5233C40.1006 11.5233 39.8294 11.6523 39.6819 11.9104C39.5345 12.1684 39.4607 12.5397 39.4607 13.0242V15.1729H38.6076V10.915H39.279L39.3975 11.4838H39.4449C39.5345 11.3363 39.6424 11.2152 39.7688 11.1204C39.8952 11.0256 40.0374 10.9545 40.1954 10.9071C40.3534 10.8597 40.5193 10.836 40.6931 10.836Z" fill="#F0F0F0"/>
<path d="M31.0508 19.7148H33.6094V35.5981H31.0508V19.7148Z" fill="white"/>
<path d="M42.5084 30.5654C42.5084 33.0264 40.506 33.2501 39.8385 33.2501C38.2811 33.2501 38.0586 31.7959 38.0586 31.0129V24.8604H35.5V30.901C35.5 32.3552 35.945 33.6976 36.8349 34.4806C37.6136 35.2637 38.6148 35.5993 39.8385 35.5993C40.7285 35.5993 41.8409 35.3755 42.5084 34.7043V35.5993H45.067V24.8604H42.5084V30.5654Z" fill="white"/>
<path d="M50.0748 20.9453H47.5162V24.8602H45.625V27.321H47.5162V35.5982H50.0748V27.321H51.9659V24.8602H50.0748V20.9453Z" fill="white"/>
<path d="M59.9748 32.3553C59.4186 32.8028 58.6399 33.1384 57.8611 33.1384C56.0812 33.1384 54.8575 31.796 54.8575 30.0062C54.8575 28.2164 56.0812 26.9859 57.8611 26.9859C58.6399 26.9859 59.4186 27.2096 59.9748 27.7689L60.3085 28.1045L62.0884 26.4265L61.6435 26.0909C60.6423 25.196 59.3073 24.6367 57.8611 24.6367C54.7463 24.6367 52.4102 26.9859 52.4102 30.118C52.4102 33.2502 54.7463 35.5993 57.8611 35.5993C59.3073 35.5993 60.6423 35.04 61.6435 34.1451L62.0884 33.8095L60.3085 32.0197L59.9748 32.3553Z" fill="white"/>
<path d="M71.0996 25.755C70.3209 24.972 69.5422 24.6364 68.3185 24.6364C67.4285 24.6364 66.5386 24.8601 65.8711 25.5313V19.7148H63.3125V35.5981H65.8711V29.6699C65.8711 27.2091 67.5398 26.9854 68.2073 26.9854C69.7647 26.9854 69.6534 28.4395 69.6534 29.2224V35.4863H72.2121V29.3343C72.2121 27.8802 71.8783 26.5379 71.0996 25.755Z" fill="white"/>
<path d="M57.7487 31.9068C58.7317 31.9068 59.5286 31.1055 59.5286 30.117C59.5286 29.1285 58.7317 28.3271 57.7487 28.3271C56.7656 28.3271 55.9688 29.1285 55.9688 30.117C55.9688 31.1055 56.7656 31.9068 57.7487 31.9068Z" fill="#EF4335"/>
<path d="M27.4918 31.6833C26.6019 32.5781 25.2669 33.1374 23.8207 33.1374C21.0396 33.1374 19.0372 30.9003 19.0372 27.8803C19.0372 24.8602 21.0396 22.6231 23.932 22.6231C25.2669 22.6231 26.6019 23.1824 27.6031 24.1891L27.9368 24.5247L29.6055 22.8468L29.2717 22.5113C27.8255 21.0572 25.9344 20.2742 23.932 20.2742C19.7047 20.1623 16.5898 23.518 16.5898 27.8803C16.5898 32.2426 19.7047 35.5982 23.8207 35.5982C25.8231 35.5982 27.8255 34.8152 29.1605 33.3611L29.4942 33.0256L27.8255 31.3478L27.4918 31.6833Z" fill="white"/>
<path d="M35.2506 42.0495L34.2241 44.1502C34.1719 44.2571 34.0947 44.3496 33.9992 44.4197C33.9037 44.4898 33.7928 44.5353 33.676 44.5525L31.3815 44.8895C31.2739 44.9052 31.1729 44.951 31.0898 45.0217C31.0067 45.0925 30.9449 45.1853 30.9113 45.2897C30.8777 45.3941 30.8737 45.5059 30.8998 45.6125C30.9259 45.719 30.981 45.8161 31.0589 45.8926L32.7199 47.528C32.8043 47.6111 32.8674 47.7136 32.9038 47.8268C32.9403 47.94 32.949 48.0604 32.9292 48.1778L32.537 50.487C32.5188 50.5951 32.5309 50.7062 32.5719 50.8077C32.6129 50.9093 32.6813 50.9972 32.7691 51.0616C32.857 51.1259 32.961 51.1642 33.0693 51.172C33.1776 51.1799 33.2859 51.1569 33.3819 51.1059L35.4345 50.0158C35.5389 49.9603 35.6551 49.9313 35.7731 49.9313C35.8911 49.9313 36.0073 49.9603 36.1118 50.0158L38.1643 51.1059C38.2604 51.1569 38.3687 51.1799 38.4769 51.172C38.5852 51.1642 38.6892 51.1259 38.7771 51.0616C38.865 50.9972 38.9333 50.9093 38.9743 50.8077C39.0153 50.7062 39.0274 50.5951 39.0092 50.487L38.6171 48.1778C38.5972 48.0604 38.6059 47.94 38.6424 47.8268C38.6788 47.7136 38.7419 47.611 38.8263 47.528L40.4873 45.8926C40.5652 45.8161 40.6203 45.719 40.6464 45.6125C40.6725 45.5059 40.6685 45.3941 40.6349 45.2897C40.6014 45.1853 40.5395 45.0925 40.4564 45.0217C40.3733 44.951 40.2723 44.9052 40.1647 44.8895L37.8693 44.5525C37.7525 44.5353 37.6416 44.4898 37.5461 44.4197C37.4506 44.3496 37.3735 44.2571 37.3212 44.1502L36.2947 42.0495C36.2466 41.9511 36.1723 41.8683 36.08 41.8103C35.9878 41.7524 35.8813 41.7217 35.7727 41.7217C35.664 41.7217 35.5576 41.7524 35.4653 41.8103C35.3731 41.8683 35.2987 41.9511 35.2506 42.0495Z" fill="#FFAF00"/>
<path d="M49.5211 42.0496L48.4945 44.1503C48.4423 44.2572 48.3651 44.3497 48.2697 44.4197C48.1742 44.4898 48.0633 44.5354 47.9465 44.5525L45.651 44.8895C45.5435 44.9052 45.4424 44.951 45.3593 45.0218C45.2762 45.0925 45.2144 45.1853 45.1808 45.2897C45.1472 45.3941 45.1433 45.5059 45.1694 45.6125C45.1955 45.7191 45.2506 45.8161 45.3284 45.8927L46.9894 47.528C47.0738 47.6111 47.1369 47.7137 47.1733 47.8268C47.2098 47.94 47.2185 48.0605 47.1987 48.1778L46.8066 50.487C46.7884 50.5951 46.8004 50.7062 46.8415 50.8078C46.8825 50.9093 46.9508 50.9972 47.0387 51.0616C47.1266 51.126 47.2305 51.1642 47.3388 51.1721C47.4471 51.1799 47.5554 51.157 47.6515 51.1059L49.704 50.0158C49.8084 49.9603 49.9247 49.9314 50.0426 49.9314C50.1606 49.9314 50.2769 49.9603 50.3813 50.0158L52.4338 51.1059C52.5299 51.157 52.6382 51.1799 52.7465 51.1721C52.8548 51.1642 52.9587 51.126 53.0466 51.0616C53.1345 50.9972 53.2028 50.9093 53.2438 50.8078C53.2849 50.7062 53.2969 50.5951 53.2787 50.487L52.8866 48.1778C52.8668 48.0605 52.8755 47.94 52.9119 47.8268C52.9484 47.7136 53.0115 47.6111 53.0958 47.528L54.7568 45.8927C54.8347 45.8161 54.8898 45.7191 54.9159 45.6125C54.942 45.5059 54.9381 45.3941 54.9045 45.2897C54.8709 45.1853 54.8091 45.0925 54.726 45.0218C54.6429 44.951 54.5418 44.9052 54.4343 44.8895L52.1388 44.5525C52.022 44.5354 51.9111 44.4898 51.8156 44.4197C51.7202 44.3497 51.643 44.2572 51.5908 44.1503L50.5642 42.0496C50.5161 41.9514 50.4417 41.8688 50.3496 41.811C50.2574 41.7533 50.1511 41.7227 50.0426 41.7227C49.9342 41.7227 49.8279 41.7533 49.7357 41.811C49.6436 41.8688 49.5692 41.9514 49.5211 42.0496Z" fill="#FFAF00"/>
<path d="M63.7903 42.0486L62.7638 44.1493C62.7115 44.2562 62.6344 44.3486 62.5389 44.4187C62.4434 44.4888 62.3325 44.5344 62.2157 44.5515L59.9206 44.8885C59.813 44.9042 59.712 44.95 59.6289 45.0208C59.5457 45.0915 59.4839 45.1843 59.4503 45.2887C59.4168 45.3931 59.4128 45.5049 59.4389 45.6115C59.465 45.718 59.5201 45.8151 59.598 45.8916L61.259 47.527C61.3433 47.6101 61.4064 47.7126 61.4429 47.8258C61.4793 47.939 61.488 48.0594 61.4682 48.1768L61.0761 50.486C61.0579 50.5941 61.07 50.7052 61.111 50.8068C61.152 50.9083 61.2203 50.9962 61.3082 51.0606C61.3961 51.125 61.5001 51.1632 61.6083 51.171C61.7166 51.1789 61.8249 51.156 61.921 51.1049L63.9735 50.0148C64.078 49.9593 64.1942 49.9303 64.3122 49.9303C64.4302 49.9303 64.5464 49.9593 64.6508 50.0148L66.7034 51.1049C66.7994 51.156 66.9077 51.1789 67.016 51.171C67.1243 51.1632 67.2283 51.125 67.3161 51.0606C67.404 50.9962 67.4723 50.9083 67.5134 50.8068C67.5544 50.7052 67.5665 50.5941 67.5483 50.486L67.1561 48.1768C67.1363 48.0594 67.145 47.939 67.1814 47.8258C67.2179 47.7126 67.281 47.6101 67.3654 47.527L69.0264 45.8916C69.1043 45.8151 69.1594 45.718 69.1854 45.6115C69.2115 45.5049 69.2076 45.3931 69.174 45.2887C69.1404 45.1843 69.0786 45.0915 68.9955 45.0208C68.9124 44.95 68.8113 44.9042 68.7038 44.8885L66.4083 44.5515C66.2916 44.5344 66.1806 44.4888 66.0852 44.4187C65.9897 44.3486 65.9125 44.2562 65.8603 44.1493L64.8343 42.0486C64.7863 41.9501 64.7119 41.8673 64.6197 41.8093C64.5274 41.7514 64.421 41.7207 64.3123 41.7207C64.2037 41.7207 64.0972 41.7514 64.005 41.8093C63.9127 41.8673 63.8384 41.9501 63.7903 42.0486Z" fill="#FFAF00"/>
<path d="M79.1081 42.0498L80.1347 44.1505C80.1869 44.2574 80.2641 44.3499 80.3596 44.4199C80.455 44.49 80.5659 44.5356 80.6827 44.5527L82.9779 44.8897C83.0854 44.9054 83.1865 44.9513 83.2696 45.022C83.3527 45.0927 83.4145 45.1855 83.4481 45.2899C83.4817 45.3943 83.4856 45.5062 83.4595 45.6127C83.4334 45.7193 83.3783 45.8163 83.3005 45.8929L81.6395 47.5282C81.5551 47.6113 81.492 47.7139 81.4556 47.8271C81.4191 47.9402 81.4104 48.0607 81.4302 48.178L81.8223 50.4873C81.8406 50.5954 81.8285 50.7065 81.7874 50.808C81.7464 50.9095 81.6781 50.9974 81.5902 51.0618C81.5023 51.1262 81.3984 51.1644 81.2901 51.1723C81.1818 51.1801 81.0735 51.1572 80.9774 51.1061L78.9249 50.016C78.8205 49.9606 78.7043 49.9316 78.5863 49.9316C78.4683 49.9316 78.352 49.9606 78.2476 50.016L76.1951 51.1061C76.099 51.1572 75.9907 51.1801 75.8824 51.1723C75.7741 51.1644 75.6702 51.1262 75.5823 51.0618C75.4944 50.9974 75.4261 50.9095 75.3851 50.808C75.3441 50.7065 75.332 50.5954 75.3502 50.4873L75.7423 48.178C75.7621 48.0607 75.7534 47.9402 75.717 47.827C75.6806 47.7139 75.6174 47.6113 75.5331 47.5282L73.8721 45.8929C73.7942 45.8163 73.7391 45.7193 73.713 45.6127C73.6869 45.5062 73.6909 45.3943 73.7244 45.2899C73.758 45.1855 73.8198 45.0927 73.9029 45.022C73.986 44.9513 74.0871 44.9054 74.1946 44.8897L76.4901 44.5527C76.6069 44.5356 76.7178 44.49 76.8133 44.4199C76.9088 44.3499 76.9859 44.2574 77.0381 44.1505L78.062 42.0498C78.1098 41.9508 78.1842 41.8674 78.2767 41.809C78.3691 41.7507 78.476 41.7197 78.585 41.7197C78.6941 41.7197 78.8009 41.7507 78.8934 41.809C78.9859 41.8674 79.0603 41.9508 79.1081 42.0498Z" fill="#FFAF00"/>
<path d="M80.9774 51.1064L79.5796 50.3638V43.0137L80.1344 44.1493C80.1866 44.2562 80.2638 44.3487 80.3592 44.4187C80.4547 44.4888 80.5656 44.5344 80.6824 44.5515L82.9779 44.8885C83.0854 44.9042 83.1865 44.95 83.2696 45.0208C83.3527 45.0915 83.4145 45.1843 83.4481 45.2887C83.4817 45.3931 83.4856 45.5049 83.4595 45.6115C83.4334 45.7181 83.3783 45.8151 83.3005 45.8917L81.6395 47.527C81.5551 47.6101 81.492 47.7127 81.4556 47.8258C81.4191 47.939 81.4104 48.0595 81.4302 48.1768L81.8223 50.486C81.8409 50.5943 81.8291 50.7056 81.7882 50.8073C81.7473 50.9091 81.679 50.9973 81.5911 51.0619C81.5031 51.1265 81.399 51.1649 81.2906 51.1727C81.1821 51.1806 81.0736 51.1577 80.9774 51.1064Z" fill="#FDE3AC"/>
<path d="M20.982 42.0508L19.9555 44.1518C19.9032 44.2587 19.8261 44.3512 19.7306 44.4213C19.6351 44.4914 19.5242 44.5369 19.4074 44.5541L17.112 44.8911C17.0044 44.9068 16.9034 44.9526 16.8203 45.0233C16.7372 45.0941 16.6753 45.1869 16.6417 45.2913C16.6082 45.3957 16.6042 45.5075 16.6303 45.6141C16.6564 45.7206 16.7115 45.8177 16.7894 45.8942L18.4504 47.5295C18.5347 47.6127 18.5978 47.7152 18.6343 47.8284C18.6707 47.9416 18.6794 48.062 18.6596 48.1793L18.2675 50.4886C18.2493 50.5967 18.2614 50.7078 18.3024 50.8093C18.3434 50.9109 18.4117 50.9988 18.4996 51.0632C18.5875 51.1275 18.6915 51.1658 18.7998 51.1736C18.908 51.1814 19.0163 51.1585 19.1124 51.1075L21.1649 50.0173C21.2694 49.9619 21.3856 49.9329 21.5036 49.9329C21.6216 49.9329 21.7378 49.9619 21.8422 50.0173L23.8948 51.1075C23.9908 51.1585 24.0991 51.1814 24.2074 51.1736C24.3157 51.1658 24.4197 51.1275 24.5076 51.0632C24.5954 50.9988 24.6638 50.9109 24.7048 50.8093C24.7458 50.7078 24.7579 50.5967 24.7397 50.4886L24.3475 48.1793C24.3277 48.062 24.3364 47.9416 24.3728 47.8284C24.4093 47.7152 24.4724 47.6126 24.5568 47.5295L26.2178 45.8942C26.2957 45.8177 26.3508 45.7206 26.3769 45.6141C26.403 45.5075 26.399 45.3957 26.3654 45.2913C26.3318 45.1869 26.27 45.0941 26.1869 45.0233C26.1038 44.9526 26.0028 44.9068 25.8952 44.8911L23.601 44.5538C23.4842 44.5366 23.3733 44.4911 23.2778 44.421C23.1823 44.3509 23.1051 44.2584 23.0529 44.1515L22.0264 42.0508C21.9783 41.9523 21.904 41.8694 21.8117 41.8114C21.7194 41.7534 21.6129 41.7227 21.5042 41.7227C21.3955 41.7227 21.289 41.7534 21.1967 41.8114C21.1044 41.8694 21.03 41.9523 20.982 42.0508Z" fill="#E2E2E2"/>
<path d="M22.0056 42.0505L23.0322 44.1512C23.0844 44.2582 23.1616 44.3506 23.257 44.4207C23.3525 44.4908 23.4634 44.5364 23.5802 44.5535L25.8757 44.8905C25.9832 44.9062 26.0843 44.952 26.1674 45.0228C26.2505 45.0935 26.3123 45.1863 26.3459 45.2907C26.3795 45.3951 26.3834 45.5069 26.3573 45.6135C26.3312 45.72 26.2761 45.8171 26.1983 45.8936L24.5372 47.529C24.4529 47.6121 24.3898 47.7146 24.3534 47.8278C24.3169 47.941 24.3082 48.0614 24.328 48.1788L24.7201 50.488C24.7383 50.5961 24.7263 50.7072 24.6852 50.8087C24.6442 50.9103 24.5759 50.9982 24.488 51.0626C24.4001 51.1269 24.2962 51.1652 24.1879 51.173C24.0796 51.1809 23.9713 51.158 23.8752 51.1069L21.8227 50.0168C21.7183 49.9613 21.602 49.9323 21.4841 49.9323C21.3661 49.9323 21.2498 49.9613 21.1454 50.0168L19.0929 51.1069C18.9968 51.158 18.8885 51.1809 18.7802 51.173C18.6719 51.1652 18.568 51.1269 18.4801 51.0626C18.3922 50.9982 18.3239 50.9103 18.2829 50.8087C18.2419 50.7072 18.2298 50.5961 18.248 50.488L18.6401 48.1788C18.6599 48.0614 18.6512 47.941 18.6148 47.8278C18.5783 47.7146 18.5152 47.6121 18.4309 47.529L16.7698 45.8936C16.692 45.8171 16.6369 45.72 16.6108 45.6135C16.5847 45.5069 16.5886 45.3951 16.6222 45.2907C16.6558 45.1863 16.7176 45.0935 16.8007 45.0228C16.8838 44.952 16.9849 44.9062 17.0924 44.8905L19.3879 44.5535C19.5047 44.5364 19.6156 44.4908 19.7111 44.4207C19.8065 44.3506 19.8837 44.2582 19.9359 44.1512L20.9625 42.0505C21.0106 41.9524 21.085 41.8698 21.1771 41.812C21.2693 41.7542 21.3756 41.7236 21.4841 41.7236C21.5925 41.7236 21.6988 41.7542 21.791 41.812C21.8831 41.8698 21.9575 41.9524 22.0056 42.0505Z" fill="#FFAF00"/>
</svg>
