<svg width="110" height="62" viewBox="0 0 110 62" fill="none" xmlns="http://www.w3.org/2000/svg">
<rect x="1.15625" y="1.00098" width="107" height="60" rx="2.58643" fill="#0E1219"/>
<rect x="0.65625" y="0.500977" width="108" height="61" rx="3.08643" stroke="white" stroke-opacity="0.09"/>
<path d="M39.5627 32.999L36.8548 24.9169H36.7995C36.8088 25.1011 36.8226 25.3636 36.841 25.7044C36.8594 26.0359 36.8732 26.3997 36.8824 26.7958C36.9009 27.1826 36.9101 27.5464 36.9101 27.8872V32.999H35.3213V23.1347H37.7805L40.3778 30.8852H40.4331L43.1409 23.1347H45.6001V32.999H43.9146V27.8043C43.9146 27.4912 43.9192 27.1504 43.9284 26.782C43.9468 26.4044 43.9607 26.0498 43.9699 25.7182C43.9883 25.3774 44.0021 25.1149 44.0113 24.9307H43.956L41.1377 32.999H39.5627ZM49.727 25.5109V32.999H47.9862V25.5109H49.727ZM48.8566 22.6235C49.1145 22.6235 49.3402 22.6926 49.5336 22.8307C49.727 22.9597 49.8237 23.1945 49.8237 23.5353C49.8237 23.8669 49.727 24.1064 49.5336 24.2537C49.3402 24.3919 49.1145 24.461 48.8566 24.461C48.5895 24.461 48.3592 24.3919 48.1658 24.2537C47.9816 24.1064 47.8895 23.8669 47.8895 23.5353C47.8895 23.1945 47.9816 22.9597 48.1658 22.8307C48.3592 22.6926 48.5895 22.6235 48.8566 22.6235ZM54.9785 33.1372C54.2692 33.1372 53.6521 33.0036 53.1272 32.7365C52.6114 32.4602 52.2107 32.0411 51.9252 31.4793C51.6489 30.9083 51.5107 30.1806 51.5107 29.2964C51.5107 28.3754 51.6627 27.6293 51.9666 27.0583C52.2798 26.478 52.7081 26.0544 53.2515 25.7873C53.7949 25.5109 54.4166 25.3728 55.1166 25.3728C55.5863 25.3728 56.0054 25.4188 56.3738 25.5109C56.7422 25.603 57.0554 25.7136 57.3133 25.8425L56.8021 27.2103C56.5166 27.0997 56.2311 27.0076 55.9455 26.934C55.66 26.8511 55.3837 26.8096 55.1166 26.8096C54.7021 26.8096 54.3567 26.9017 54.0804 27.0859C53.8133 27.2701 53.6153 27.5464 53.4864 27.9149C53.3574 28.2741 53.2929 28.73 53.2929 29.2826C53.2929 29.8168 53.3574 30.2635 53.4864 30.6227C53.6245 30.9819 53.8271 31.2536 54.0942 31.4379C54.3614 31.6129 54.6929 31.7004 55.089 31.7004C55.5127 31.7004 55.8857 31.6497 56.208 31.5484C56.5304 31.4471 56.8344 31.3089 57.1199 31.1339V32.6398C56.8344 32.8148 56.5258 32.9392 56.1942 33.0128C55.8719 33.0957 55.4666 33.1372 54.9785 33.1372ZM62.7978 25.3728C62.9083 25.3728 63.0373 25.3774 63.1846 25.3866C63.332 25.3958 63.4563 25.4142 63.5576 25.4419L63.4057 27.0583C63.3228 27.0399 63.2123 27.0261 63.0741 27.0168C62.9451 26.9984 62.83 26.9892 62.7287 26.9892C62.4524 26.9892 62.1853 27.0353 61.9274 27.1274C61.6787 27.2103 61.4531 27.3392 61.2504 27.5142C61.057 27.68 60.9004 27.8964 60.7807 28.1635C60.6702 28.4306 60.6149 28.7484 60.6149 29.1168V32.999H58.8741V25.5109H60.2143L60.4629 26.8096H60.5458C60.6932 26.5425 60.8774 26.303 61.0985 26.0912C61.3195 25.8702 61.5728 25.6952 61.8583 25.5662C62.1531 25.4373 62.4662 25.3728 62.7978 25.3728ZM71.3624 29.2412C71.3624 29.8675 71.2795 30.4201 71.1137 30.899C70.9479 31.378 70.7085 31.7879 70.3953 32.1286C70.0914 32.4602 69.7137 32.7135 69.2624 32.8885C68.8203 33.0543 68.3276 33.1372 67.7842 33.1372C67.2684 33.1372 66.794 33.0543 66.3611 32.8885C65.9283 32.7135 65.5506 32.4602 65.2283 32.1286C64.9151 31.7879 64.671 31.378 64.496 30.899C64.321 30.4201 64.2335 29.8675 64.2335 29.2412C64.2335 28.4122 64.3763 27.7122 64.6618 27.1412C64.9473 26.5609 65.3572 26.1234 65.8914 25.8287C66.4348 25.5248 67.0749 25.3728 67.8118 25.3728C68.5118 25.3728 69.1243 25.5248 69.6493 25.8287C70.1835 26.1234 70.6025 26.5609 70.9065 27.1412C71.2104 27.7122 71.3624 28.4122 71.3624 29.2412ZM66.0157 29.2412C66.0157 29.7662 66.0756 30.2175 66.1954 30.5951C66.3243 30.9635 66.5177 31.2444 66.7756 31.4379C67.0427 31.6313 67.3835 31.728 67.798 31.728C68.2216 31.728 68.5624 31.6313 68.8203 31.4379C69.0874 31.2444 69.2808 30.9635 69.4006 30.5951C69.5203 30.2175 69.5802 29.7662 69.5802 29.2412C69.5802 28.707 69.5157 28.2603 69.3868 27.9011C69.267 27.5326 69.0736 27.2563 68.8065 27.0721C68.5486 26.8787 68.2124 26.782 67.798 26.782C67.1717 26.782 66.7157 26.9938 66.4302 27.4175C66.1539 27.8412 66.0157 28.4491 66.0157 29.2412ZM78.26 30.83C78.26 31.3273 78.1402 31.751 77.9008 32.101C77.6613 32.4418 77.3067 32.6997 76.837 32.8747C76.3764 33.0497 75.81 33.1372 75.1376 33.1372C74.6126 33.1372 74.1613 33.1003 73.7837 33.0267C73.4061 32.953 73.0469 32.8378 72.7061 32.6813V31.203C73.0745 31.378 73.4844 31.5254 73.9357 31.6451C74.387 31.7648 74.8061 31.8247 75.1929 31.8247C75.6718 31.8247 76.0172 31.751 76.2291 31.6036C76.4409 31.4563 76.5468 31.2583 76.5468 31.0096C76.5468 30.8622 76.5054 30.7287 76.4225 30.6089C76.3396 30.4892 76.1784 30.3648 75.9389 30.2359C75.6995 30.0977 75.3357 29.9273 74.8475 29.7247C74.3686 29.5313 73.9679 29.3379 73.6455 29.1445C73.3324 28.951 73.0929 28.7208 72.9271 28.4537C72.7706 28.1774 72.6923 27.832 72.6923 27.4175C72.6923 26.7451 72.9594 26.2386 73.4936 25.8978C74.0278 25.5478 74.7324 25.3728 75.6074 25.3728C76.0679 25.3728 76.5008 25.4188 76.906 25.5109C77.3205 25.5938 77.735 25.732 78.1494 25.9254L77.5968 27.2103C77.3666 27.109 77.1363 27.0215 76.906 26.9478C76.685 26.8649 76.4593 26.8004 76.2291 26.7544C76.008 26.7083 75.7824 26.6853 75.5521 26.6853C75.1745 26.6853 74.889 26.7451 74.6955 26.8649C74.5021 26.9754 74.4054 27.132 74.4054 27.3346C74.4054 27.4912 74.4515 27.6293 74.5436 27.7491C74.6449 27.8596 74.8153 27.9747 75.0547 28.0945C75.3034 28.205 75.6534 28.3524 76.1047 28.5366C76.556 28.7116 76.9383 28.8958 77.2514 29.0892C77.5738 29.2734 77.8225 29.5037 77.9975 29.78C78.1725 30.0563 78.26 30.4063 78.26 30.83ZM86.6217 29.2412C86.6217 29.8675 86.5388 30.4201 86.373 30.899C86.2072 31.378 85.9677 31.7879 85.6546 32.1286C85.3506 32.4602 84.973 32.7135 84.5217 32.8885C84.0796 33.0543 83.5868 33.1372 83.0434 33.1372C82.5276 33.1372 82.0533 33.0543 81.6204 32.8885C81.1875 32.7135 80.8099 32.4602 80.4875 32.1286C80.1744 31.7879 79.9303 31.378 79.7553 30.899C79.5803 30.4201 79.4928 29.8675 79.4928 29.2412C79.4928 28.4122 79.6356 27.7122 79.9211 27.1412C80.2066 26.5609 80.6165 26.1234 81.1507 25.8287C81.6941 25.5248 82.3342 25.3728 83.0711 25.3728C83.771 25.3728 84.3835 25.5248 84.9085 25.8287C85.4427 26.1234 85.8618 26.5609 86.1658 27.1412C86.4697 27.7122 86.6217 28.4122 86.6217 29.2412ZM81.275 29.2412C81.275 29.7662 81.3349 30.2175 81.4546 30.5951C81.5836 30.9635 81.777 31.2444 82.0349 31.4379C82.302 31.6313 82.6428 31.728 83.0572 31.728C83.4809 31.728 83.8217 31.6313 84.0796 31.4379C84.3467 31.2444 84.5401 30.9635 84.6599 30.5951C84.7796 30.2175 84.8395 29.7662 84.8395 29.2412C84.8395 28.707 84.775 28.2603 84.646 27.9011C84.5263 27.5326 84.3329 27.2563 84.0658 27.0721C83.8079 26.8787 83.4717 26.782 83.0572 26.782C82.4309 26.782 81.975 26.9938 81.6895 27.4175C81.4132 27.8412 81.275 28.4491 81.275 29.2412ZM92.3035 26.8234H90.4936V32.999H88.7528V26.8234H87.5509V25.9945L88.7528 25.4971V24.9859C88.7528 24.3412 88.8542 23.8346 89.0568 23.4662C89.2594 23.0978 89.5542 22.8353 89.941 22.6787C90.3278 22.5129 90.7837 22.4301 91.3087 22.4301C91.6772 22.4301 92.0087 22.4623 92.3035 22.5268C92.5982 22.582 92.8423 22.6465 93.0357 22.7202L92.5936 24.0189C92.437 23.9728 92.262 23.9314 92.0686 23.8945C91.8844 23.8485 91.6818 23.8254 91.4607 23.8254C91.1291 23.8254 90.8851 23.9314 90.7285 24.1432C90.5719 24.355 90.4936 24.6498 90.4936 25.0274V25.5109H92.3035V26.8234ZM96.4495 31.7418C96.6705 31.7418 96.8823 31.7234 97.085 31.6865C97.2876 31.6405 97.4764 31.5898 97.6514 31.5346V32.8332C97.4672 32.9161 97.2277 32.9852 96.933 33.0405C96.6383 33.1049 96.3297 33.1372 96.0074 33.1372C95.5837 33.1372 95.1968 33.0681 94.8468 32.9299C94.5061 32.7826 94.2297 32.5339 94.0179 32.1839C93.8153 31.8339 93.714 31.3458 93.714 30.7194V26.8234H92.7054V26.0636L93.8107 25.4557L94.3633 23.8669H95.4547V25.5109H97.5823V26.8234H95.4547V30.7056C95.4547 31.0556 95.5468 31.3181 95.731 31.4931C95.9153 31.6589 96.1547 31.7418 96.4495 31.7418Z" fill="#E8E8E8"/>
<path d="M39.1081 40.2648C39.1081 40.6991 39.0029 41.0688 38.7926 41.3741C38.5823 41.6794 38.2804 41.9169 37.8868 42.0865C37.4933 42.2494 37.0252 42.3308 36.4824 42.3308C36.2178 42.3308 35.9634 42.3138 35.7191 42.2799C35.4749 42.2528 35.2476 42.212 35.0373 42.1578C34.827 42.1035 34.6404 42.0356 34.4775 41.9542V40.9162C34.7489 41.0383 35.0678 41.1502 35.4342 41.252C35.8006 41.347 36.1737 41.3945 36.5537 41.3945C36.8793 41.3945 37.1507 41.3504 37.3678 41.2622C37.5849 41.174 37.7478 41.0519 37.8563 40.8958C37.9649 40.7398 38.0191 40.5566 38.0191 40.3463C38.0191 40.1224 37.9615 39.9358 37.8461 39.7865C37.7376 39.6305 37.5646 39.488 37.3271 39.3591C37.0964 39.2234 36.7843 39.0809 36.3908 38.9316C36.1194 38.8299 35.8718 38.7179 35.6479 38.5958C35.4308 38.4669 35.2374 38.3176 35.0678 38.148C34.905 37.9784 34.7795 37.7816 34.6913 37.5577C34.6031 37.3339 34.559 37.0726 34.559 36.7741C34.559 36.3738 34.6573 36.0312 34.8541 35.7462C35.0576 35.4613 35.3358 35.2442 35.6886 35.0949C36.0414 34.9389 36.4519 34.8608 36.92 34.8608C37.3135 34.8608 37.6765 34.9015 38.009 34.983C38.3482 35.0576 38.6705 35.1628 38.9758 35.2984L38.6298 36.2042C38.3516 36.0889 38.07 35.9939 37.7851 35.9192C37.5001 35.8446 37.2016 35.8073 36.8895 35.8073C36.6181 35.8073 36.3908 35.848 36.2076 35.9294C36.0245 36.0108 35.8854 36.1228 35.7904 36.2653C35.7022 36.4077 35.6581 36.574 35.6581 36.7639C35.6581 36.9878 35.709 37.1744 35.8107 37.3237C35.9125 37.4729 36.0753 37.612 36.2992 37.7409C36.5231 37.8631 36.8183 37.9988 37.1846 38.148C37.5917 38.3041 37.9377 38.4737 38.2227 38.6569C38.5144 38.8401 38.7349 39.0606 38.8842 39.3184C39.0335 39.5694 39.1081 39.8849 39.1081 40.2648ZM41.4875 36.7436V42.229H40.4088V36.7436H41.4875ZM40.9583 34.6573C41.1212 34.6573 41.2636 34.7048 41.3858 34.7998C41.5079 34.8948 41.5689 35.0542 41.5689 35.2781C41.5689 35.4952 41.5079 35.6546 41.3858 35.7564C41.2636 35.8514 41.1212 35.8989 40.9583 35.8989C40.7819 35.8989 40.6327 35.8514 40.5105 35.7564C40.3952 35.6546 40.3375 35.4952 40.3375 35.2781C40.3375 35.0542 40.3952 34.8948 40.5105 34.7998C40.6327 34.7048 40.7819 34.6573 40.9583 34.6573ZM44.2604 42.229H43.1816V34.4945H44.2604V42.229ZM47.1859 42.229L45.1098 36.7436H46.2496L47.3894 39.9493C47.4369 40.085 47.4844 40.2377 47.5319 40.4073C47.5862 40.5769 47.6337 40.7398 47.6744 40.8958C47.7151 41.0519 47.7422 41.1876 47.7558 41.3029H47.7965C47.8168 41.1876 47.8474 41.0519 47.8881 40.8958C47.9356 40.733 47.9865 40.5701 48.0407 40.4073C48.095 40.2377 48.1425 40.085 48.1832 39.9493L49.323 36.7436H50.4629L48.3766 42.229H47.1859ZM53.4688 36.6418C53.9505 36.6418 54.3644 36.7436 54.7104 36.9471C55.0564 37.1439 55.321 37.4288 55.5042 37.802C55.6942 38.1752 55.7892 38.6162 55.7892 39.125V39.7153H52.1051C52.1187 40.2784 52.2645 40.7092 52.5427 41.0078C52.8277 41.3063 53.2246 41.4555 53.7334 41.4555C54.0862 41.4555 54.3983 41.425 54.6697 41.364C54.9479 41.2961 55.2328 41.1977 55.5246 41.0688V41.9644C55.2532 42.0865 54.975 42.1781 54.6901 42.2392C54.4119 42.3002 54.0795 42.3308 53.6927 42.3308C53.1635 42.3308 52.6954 42.2256 52.2883 42.0153C51.8812 41.805 51.5623 41.4929 51.3317 41.079C51.1078 40.6583 50.9958 40.1427 50.9958 39.5321C50.9958 38.9147 51.0976 38.3923 51.3011 37.9648C51.5114 37.5374 51.7998 37.2117 52.1662 36.9878C52.5393 36.7572 52.9735 36.6418 53.4688 36.6418ZM53.4688 37.4763C53.0821 37.4763 52.77 37.6018 52.5325 37.8529C52.3019 38.1039 52.1662 38.4601 52.1255 38.9215H54.7104C54.7104 38.6365 54.6663 38.3855 54.5781 38.1684C54.4899 37.9513 54.3542 37.7816 54.171 37.6595C53.9879 37.5374 53.7538 37.4763 53.4688 37.4763ZM59.8424 36.6418C59.9373 36.6418 60.0425 36.6486 60.1578 36.6622C60.2732 36.669 60.3682 36.6791 60.4428 36.6927L60.3308 37.7002C60.2562 37.6799 60.168 37.6629 60.0662 37.6493C59.9645 37.6358 59.8695 37.629 59.7813 37.629C59.5777 37.629 59.381 37.6697 59.191 37.7511C59.0078 37.8257 58.8416 37.9377 58.6923 38.087C58.5431 38.2294 58.4244 38.4058 58.3362 38.6162C58.2547 38.8265 58.214 39.0673 58.214 39.3387V42.229H57.1353V36.7436H57.9901L58.1326 37.7206H58.1733C58.2887 37.5238 58.4277 37.344 58.5906 37.1812C58.7534 37.0184 58.94 36.8895 59.1503 36.7945C59.3606 36.6927 59.5913 36.6418 59.8424 36.6418Z" fill="#C4C4C4"/>
<path d="M66.2597 34.9626C67.2095 34.9626 67.9016 35.156 68.3358 35.5427C68.77 35.9226 68.9871 36.4552 68.9871 37.1405C68.9871 37.4458 68.9362 37.7375 68.8345 38.0157C68.7395 38.2939 68.58 38.5449 68.3562 38.7688C68.1323 38.9859 67.8337 39.1589 67.4606 39.2878C67.0942 39.41 66.643 39.471 66.107 39.471H65.3234V42.229H64.2243V34.9626H66.2597ZM66.1783 35.8887H65.3234V38.5449H65.9849C66.3988 38.5449 66.7448 38.5008 67.023 38.4126C67.3011 38.3176 67.5081 38.1718 67.6438 37.975C67.7862 37.7715 67.8575 37.5069 67.8575 37.1812C67.8575 36.747 67.7218 36.4247 67.4504 36.2144C67.1858 35.9973 66.7617 35.8887 66.1783 35.8887ZM72.4606 36.6418C73.1526 36.6418 73.6683 36.7945 74.0075 37.0998C74.3467 37.3983 74.5164 37.8698 74.5164 38.5144V42.229H73.7531L73.5394 41.4657H73.4987C73.3426 41.6625 73.1798 41.8253 73.0102 41.9542C72.8473 42.0831 72.6574 42.1781 72.4402 42.2392C72.2299 42.3002 71.9721 42.3308 71.6668 42.3308C71.3411 42.3308 71.046 42.2731 70.7814 42.1578C70.5236 42.0356 70.32 41.8525 70.1708 41.6082C70.0215 41.3572 69.9469 41.0451 69.9469 40.6719C69.9469 40.1156 70.1572 39.6915 70.5778 39.3998C71.0053 39.108 71.6532 38.9486 72.5217 38.9215L73.4579 38.8909V38.5856C73.4579 38.1785 73.3664 37.8936 73.1832 37.7308C73 37.5679 72.7422 37.4865 72.4097 37.4865C72.1248 37.4865 71.8534 37.5272 71.5955 37.6086C71.3377 37.69 71.0935 37.7884 70.8628 37.9038L70.5168 37.1201C70.7746 36.9844 71.0697 36.8725 71.4022 36.7843C71.7414 36.6893 72.0942 36.6418 72.4606 36.6418ZM72.715 39.6135C72.0908 39.6406 71.6566 39.7458 71.4124 39.929C71.1749 40.1054 71.0562 40.3564 71.0562 40.6821C71.0562 40.9671 71.141 41.174 71.3106 41.3029C71.487 41.4318 71.7075 41.4963 71.9721 41.4963C72.3995 41.4963 72.7523 41.3775 73.0305 41.1401C73.3087 40.9026 73.4478 40.5464 73.4478 40.0715V39.5932L72.715 39.6135ZM78.8845 36.6418C78.9795 36.6418 79.0847 36.6486 79.2 36.6622C79.3154 36.669 79.4103 36.6791 79.485 36.6927L79.373 37.7002C79.2984 37.6799 79.2102 37.6629 79.1084 37.6493C79.0066 37.6358 78.9117 37.629 78.8235 37.629C78.6199 37.629 78.4232 37.6697 78.2332 37.7511C78.05 37.8257 77.8838 37.9377 77.7345 38.087C77.5853 38.2294 77.4665 38.4058 77.3783 38.6162C77.2969 38.8265 77.2562 39.0673 77.2562 39.3387V42.229H76.1774V36.7436H77.0323L77.1748 37.7206H77.2155C77.3308 37.5238 77.4699 37.344 77.6327 37.1812C77.7956 37.0184 77.9822 36.8895 78.1925 36.7945C78.4028 36.6927 78.6335 36.6418 78.8845 36.6418ZM82.475 41.4555C82.6175 41.4555 82.7634 41.442 82.9126 41.4148C83.0619 41.3877 83.1908 41.3572 83.2994 41.3232V42.1374C83.184 42.1917 83.028 42.2358 82.8312 42.2697C82.6345 42.3104 82.4377 42.3308 82.241 42.3308C81.9424 42.3308 81.6676 42.2799 81.4166 42.1781C81.1724 42.0763 80.9756 41.8999 80.8263 41.6489C80.6771 41.3979 80.6025 41.0485 80.6025 40.6007V37.5679H79.8392V37.0794L80.6432 36.6723L81.0197 35.5122H81.6812V36.7436H83.2485V37.5679H81.6812V40.5803C81.6812 40.8789 81.7525 41.0994 81.8949 41.2418C82.0442 41.3843 82.2376 41.4555 82.475 41.4555ZM87.1749 36.6418C87.8127 36.6418 88.3012 36.8013 88.6404 37.1201C88.9796 37.439 89.1492 37.9513 89.1492 38.6569V42.229H88.0807V38.8095C88.0807 38.3821 87.9891 38.0632 87.8059 37.8529C87.6295 37.6358 87.3445 37.5272 86.951 37.5272C86.3947 37.5272 86.0079 37.6934 85.7908 38.0259C85.5805 38.3583 85.4753 38.8367 85.4753 39.4609V42.229H84.3966V36.7436H85.2514L85.4041 37.4763H85.4652C85.5873 37.2864 85.7366 37.1303 85.913 37.0082C86.0894 36.8861 86.2861 36.7945 86.5032 36.7334C86.7203 36.6723 86.9442 36.6418 87.1749 36.6418ZM92.9644 36.6418C93.4462 36.6418 93.86 36.7436 94.206 36.9471C94.5521 37.1439 94.8167 37.4288 94.9998 37.802C95.1898 38.1752 95.2848 38.6162 95.2848 39.125V39.7153H91.6007C91.6143 40.2784 91.7602 40.7092 92.0383 41.0078C92.3233 41.3063 92.7202 41.4555 93.229 41.4555C93.5818 41.4555 93.8939 41.425 94.1653 41.364C94.4435 41.2961 94.7285 41.1977 95.0202 41.0688V41.9644C94.7488 42.0865 94.4706 42.1781 94.1857 42.2392C93.9075 42.3002 93.5751 42.3308 93.1883 42.3308C92.6591 42.3308 92.191 42.2256 91.7839 42.0153C91.3768 41.805 91.0579 41.4929 90.8273 41.079C90.6034 40.6583 90.4914 40.1427 90.4914 39.5321C90.4914 38.9147 90.5932 38.3923 90.7967 37.9648C91.0071 37.5374 91.2954 37.2117 91.6618 36.9878C92.0349 36.7572 92.4692 36.6418 92.9644 36.6418ZM92.9644 37.4763C92.5777 37.4763 92.2656 37.6018 92.0282 37.8529C91.7975 38.1039 91.6618 38.4601 91.6211 38.9215H94.206C94.206 38.6365 94.1619 38.3855 94.0737 38.1684C93.9855 37.9513 93.8498 37.7816 93.6667 37.6595C93.4835 37.5374 93.2494 37.4763 92.9644 37.4763ZM99.338 36.6418C99.4329 36.6418 99.5381 36.6486 99.6534 36.6622C99.7688 36.669 99.8638 36.6791 99.9384 36.6927L99.8265 37.7002C99.7518 37.6799 99.6636 37.6629 99.5619 37.6493C99.4601 37.6358 99.3651 37.629 99.2769 37.629C99.0734 37.629 98.8766 37.6697 98.6866 37.7511C98.5034 37.8257 98.3372 37.9377 98.188 38.087C98.0387 38.2294 97.92 38.4058 97.8318 38.6162C97.7503 38.8265 97.7096 39.0673 97.7096 39.3387V42.229H96.6309V36.7436H97.4857L97.6282 37.7206H97.6689C97.7843 37.5238 97.9234 37.344 98.0862 37.1812C98.249 37.0184 98.4356 36.8895 98.6459 36.7945C98.8562 36.6927 99.0869 36.6418 99.338 36.6418Z" fill="#A2A2A2"/>
<rect x="9.11328" y="21.3682" width="10.1077" height="10.1077" fill="#EB5321"/>
<rect x="20.9062" y="21.3682" width="10.1077" height="10.1077" fill="#7FBA00"/>
<rect x="20.9062" y="33.1606" width="10.1077" height="10.1077" fill="#FCBB01"/>
<rect x="9.11328" y="33.1606" width="10.1077" height="10.1077" fill="#08A1EF"/>
</svg>
