<svg width="27" height="27" viewBox="0 0 27 27" fill="none" xmlns="http://www.w3.org/2000/svg">
<g clip-path="url(#clip0_5257_18524)">
<path d="M2.85699 12.7526L11.2039 4.41439L11.2067 4.41152L11.2067 4.41149C11.4954 4.11288 11.4954 3.63938 11.2067 3.34075L11.2067 3.34072C10.9109 3.03479 10.4228 3.02624 10.1165 3.32182L10.1136 3.32463L10.1136 3.32466L0.450737 12.9775C0.229765 13.1977 0.163322 13.5293 0.282604 13.8176C0.282604 13.8176 0.282612 13.8176 0.282612 13.8176L0.499067 13.728C0.525942 13.793 0.56535 13.852 0.614975 13.9018L2.85699 12.7526ZM2.85699 12.7526H25.6897H25.6897C26.1153 12.7526 26.4608 13.0974 26.4608 13.5232C26.4608 13.949 26.1153 14.2937 25.6897 14.2937H2.85699V12.7526Z" fill="white" stroke="white" stroke-width="0.468515"/>
</g>
<defs>
<clipPath id="clip0_5257_18524">
<rect width="25.7683" height="25.7415" fill="white" transform="matrix(-1 0 0 1 26.2266 0.658691)"/>
</clipPath>
</defs>
</svg>
