<svg width="191" height="42" viewBox="0 0 191 42" fill="none" xmlns="http://www.w3.org/2000/svg">
<g clip-path="url(#clip0_3_3025)">
<path d="M30.8308 31.3277L20.719 36.4805V26.1748L30.8308 31.3277Z" fill="#05164D"/>
<path d="M10.3595 20.8625L20.584 15.6641L10.3595 10.4429H10.3368L0.0900389 15.6641L0 15.7097V26.061L0.067782 26.1066H0.0900389L10.3368 31.3278H10.3595V31.3506L20.584 36.5718L20.7191 36.4807V36.6403L31.0786 41.9071V31.4646L30.8307 31.3278L20.7191 26.1749L20.584 26.1066L10.3595 20.9081L10.3368 20.8853L10.3595 20.8625Z" fill="#FFAD00"/>
<path d="M20.7192 5.28944V15.5952L20.584 15.6636L10.3596 10.4423V10.4195L20.584 5.19824L20.7192 5.28944Z" fill="#FFAD00"/>
<path d="M20.5841 5.19845L10.3596 0V10.4425L20.5841 15.6637L20.7192 15.5954V15.7322L30.8308 20.8851L20.7192 26.0379V26.1747L30.8308 31.3275L31.0786 31.2136L41.078 26.1063L41.4381 25.9239V15.8462L41.078 15.6638L31.0786 10.5565L30.8308 10.4426L20.7192 5.28964L20.5841 5.19845Z" fill="#24315B"/>
<path d="M41.438 25.9236V15.8459L41.0777 15.6636L31.0908 20.7418V20.74L30.8286 20.8861L31.0908 21.0286L41.0777 26.1061L41.438 25.9236Z" fill="#05164D"/>
<path d="M31.0785 10.5564V20.7481L30.8308 20.885L20.719 15.7321V15.5952L30.8308 10.4424L31.0785 10.5564Z" fill="#05164D"/>
<path d="M20.584 15.6637L10.3596 20.8621V10.4424L20.584 15.6637Z" fill="#FCBB31"/>
<path d="M10.337 20.8848L0.0900825 26.1061H0.0675621L0 26.0605V15.7092L0.0900825 15.6636L10.337 20.8848Z" fill="#FCBB31"/>
<path d="M10.3598 20.9076V31.3273H10.3372L0.090332 26.1061L10.3372 20.8848L10.3598 20.9076Z" fill="#FFAD00"/>
<path d="M20.7192 26.1749V36.4805L20.584 36.5718L10.3596 31.3505V31.3277L20.584 26.1064L20.7192 26.1749Z" fill="#FFAD00"/>
<path d="M31.0785 31.4644V41.9069L20.719 36.6401V36.4805L30.8308 31.3276L31.0785 31.4644Z" fill="#FFAD00"/>
<path d="M20.584 26.1062L10.3596 31.3275V20.9077L20.584 26.1062Z" fill="#FCBB31"/>
<path d="M30.8308 31.3277L20.719 36.4805V26.1748L30.8308 31.3277Z" fill="#FCBB31"/>
<path d="M31.0785 21.0216V31.2133L30.8308 31.3273L20.719 26.1745V26.0376L30.8308 20.8848L31.0785 21.0216Z" fill="#05164D"/>
<path d="M41.0778 26.1064L31.0786 31.2137V21.022L41.0778 26.1064Z" fill="#24315B"/>
<path d="M10.3598 10.4424V20.8621L10.3372 20.885L0.090332 15.6637L10.3372 10.4424H10.3598Z" fill="#FFAD00"/>
<path d="M20.7192 5.28944V15.5951L20.584 15.6636L10.3596 10.4423V10.4195L20.584 5.19824L20.7192 5.28944Z" fill="#FFAD00"/>
<path d="M20.7192 5.28944V15.5951L20.584 15.6636L10.3596 10.4423V10.4195L20.584 5.19824L20.7192 5.28944Z" fill="#05164D"/>
<path d="M41.0778 15.6639L31.0786 20.7484V10.5566L41.0778 15.6639Z" fill="#24315B"/>
<path d="M30.8308 10.4424L20.719 15.5953V5.28955L30.8308 10.4424Z" fill="#24315B"/>
<path d="M20.584 5.19845L10.3596 10.4197V0L20.584 5.19845Z" fill="#24315B"/>
<path d="M61.0261 6.30957H64.1506L59.6256 24.7383H53.7538L49.2288 6.30957H52.3532L56.0163 22.1017H57.3631L61.0261 6.30957Z" fill="#05164D"/>
<path d="M75.7416 15.4302V21.5641C75.7596 21.9587 75.8583 22.2546 76.0379 22.4519C76.2354 22.6313 76.5318 22.7479 76.9268 22.8017L76.8458 25.0346C75.3017 25.0346 74.1076 24.7028 73.2636 24.0392C71.8271 24.7028 70.3816 25.0346 68.9271 25.0346C66.2516 25.0346 64.9138 23.6088 64.9138 20.7571C64.9138 19.394 65.273 18.4075 65.9912 17.7977C66.7274 17.1879 67.8497 16.8202 69.3581 16.6947L72.8327 16.3987V15.4302C72.8327 14.7128 72.671 14.2106 72.3478 13.9237C72.0426 13.6367 71.5847 13.4932 70.9742 13.4932C69.825 13.4932 68.3884 13.5649 66.6646 13.7084L65.8027 13.7622L65.6949 11.6906C67.6522 11.2243 69.4478 10.9912 71.0819 10.9912C72.7339 10.9912 73.919 11.3499 74.6372 12.0673C75.3735 12.7668 75.7416 13.8878 75.7416 15.4302ZM69.7082 18.7662C68.4692 18.8738 67.8497 19.5464 67.8497 20.7839C67.8497 22.0215 68.3974 22.6403 69.4928 22.6403C70.3906 22.6403 71.3423 22.4968 72.3478 22.2098L72.8327 22.0484V18.4703L69.7082 18.7662Z" fill="#05164D"/>
<path d="M79.5889 24.7384V5.69092H82.5249V24.7384H79.5889Z" fill="#05164D"/>
<path d="M94.4015 11.2871H97.3108V24.7387H94.4015V23.9047C93.0904 24.658 91.8787 25.0346 90.7656 25.0346C88.9159 25.0346 87.6767 24.5414 87.048 23.5549C86.42 22.5506 86.106 20.8019 86.106 18.3088V11.2871H89.0412V18.3357C89.0412 19.95 89.1765 21.035 89.4454 21.591C89.7151 22.147 90.3431 22.425 91.331 22.425C92.3005 22.425 93.1898 22.2457 93.9973 21.8869L94.4015 21.7256V11.2871Z" fill="#05164D"/>
<path d="M110.454 22.3174L111.208 22.2367L111.262 24.4159C109.214 24.8284 107.401 25.0346 105.821 25.0346C103.827 25.0346 102.391 24.4876 101.511 23.3935C100.649 22.2994 100.218 20.5508 100.218 18.1474C100.218 13.3766 102.166 10.9912 106.063 10.9912C109.834 10.9912 111.72 13.0448 111.72 17.152L111.531 19.2505H103.181C103.199 20.3625 103.442 21.1785 103.908 21.6986C104.375 22.2188 105.246 22.4788 106.521 22.4788C107.796 22.4788 109.107 22.4251 110.454 22.3174ZM108.838 16.9906C108.838 15.6634 108.622 14.7397 108.191 14.2196C107.778 13.6815 107.069 13.4125 106.063 13.4125C105.057 13.4125 104.322 13.6904 103.854 14.2464C103.406 14.8024 103.172 15.7172 103.154 16.9906H108.838Z" fill="#05164D"/>
<path d="M121.088 25.0342C118.395 25.0342 116.562 24.2899 115.593 22.8013C114.641 21.3126 114.165 18.8644 114.165 15.4567C114.165 12.049 114.65 9.62763 115.62 8.19283C116.589 6.74006 118.412 6.01367 121.088 6.01367C122.686 6.01367 124.445 6.23787 126.367 6.68625L126.259 9.10751C124.643 8.82054 123.027 8.67705 121.411 8.67705C119.795 8.67705 118.699 9.16135 118.125 10.1299C117.55 11.0804 117.263 12.8829 117.263 15.5374C117.263 18.1739 117.541 19.9764 118.098 20.9449C118.654 21.8955 119.741 22.3708 121.357 22.3708C122.973 22.3708 124.607 22.2363 126.259 21.9672L126.34 24.4423C124.491 24.8369 122.739 25.0342 121.088 25.0342Z" fill="#FFAD00"/>
<path d="M129.685 12.7399C130.618 11.5741 132.162 10.9912 134.318 10.9912C136.472 10.9912 138.008 11.5741 138.923 12.7399C139.857 13.9057 140.324 15.6544 140.324 17.986C140.324 20.3176 139.875 22.0753 138.977 23.259C138.08 24.4427 136.526 25.0346 134.318 25.0346C132.109 25.0346 130.556 24.4427 129.658 23.259C128.76 22.0753 128.311 20.3176 128.311 17.986C128.311 15.6544 128.769 13.9057 129.685 12.7399ZM131.893 21.4834C132.306 22.2009 133.114 22.5595 134.318 22.5595C135.52 22.5595 136.328 22.2009 136.742 21.4834C137.154 20.766 137.361 19.5912 137.361 17.9591C137.361 16.327 137.137 15.1701 136.688 14.4886C136.257 13.807 135.467 13.4662 134.318 13.4662C133.168 13.4662 132.369 13.807 131.92 14.4886C131.489 15.1701 131.274 16.327 131.274 17.9591C131.274 19.5912 131.48 20.766 131.893 21.4834Z" fill="#FFAD00"/>
<path d="M154.229 5.69092V24.7384H151.32V24.0389C150.009 24.7025 148.806 25.0343 147.711 25.0343C145.951 25.0343 144.658 24.5052 143.832 23.447C143.025 22.3888 142.62 20.6132 142.62 18.1202C142.62 15.6271 143.069 13.8156 143.967 12.6858C144.883 11.5558 146.301 10.9909 148.223 10.9909C148.869 10.9909 149.893 11.1074 151.293 11.3405V5.69092H154.229ZM150.836 21.9404L151.293 21.7521V13.7888C150.216 13.6094 149.219 13.5197 148.304 13.5197C146.49 13.5197 145.583 15.0263 145.583 18.0395C145.583 19.6895 145.789 20.8374 146.203 21.4831C146.634 22.1108 147.307 22.4247 148.223 22.4247C149.139 22.4247 150.009 22.2633 150.836 21.9404Z" fill="#FFAD00"/>
<path d="M167.374 22.3174L168.129 22.2367L168.182 24.4159C166.136 24.8284 164.322 25.0346 162.742 25.0346C160.749 25.0346 159.312 24.4876 158.432 23.3935C157.57 22.2994 157.139 20.5508 157.139 18.1474C157.139 13.3766 159.088 10.9912 162.984 10.9912C166.755 10.9912 168.64 13.0448 168.64 17.152L168.452 19.2505H160.102C160.12 20.3625 160.362 21.1785 160.83 21.6986C161.296 22.2188 162.167 22.4788 163.442 22.4788C164.717 22.4788 166.028 22.4251 167.374 22.3174ZM165.758 16.9906C165.758 15.6634 165.543 14.7397 165.112 14.2196C164.698 13.6815 163.989 13.4125 162.984 13.4125C161.979 13.4125 161.242 13.6904 160.775 14.2464C160.326 14.8024 160.093 15.7172 160.075 16.9906H165.758Z" fill="#FFAD00"/>
<path d="M171.463 24.7387V11.2871H174.372V12.9013C175.898 11.9148 177.425 11.2781 178.951 10.9912V13.9237C177.407 14.2285 176.087 14.6231 174.992 15.1074L174.399 15.3495V24.7387H171.463Z" fill="#FFAD00"/>
<path d="M190.542 14.0581C188.423 13.7711 186.888 13.6276 185.936 13.6276C184.984 13.6276 184.32 13.7442 183.943 13.9774C183.584 14.1927 183.404 14.5424 183.404 15.0266C183.404 15.5109 183.602 15.8517 183.997 16.049C184.41 16.2462 185.362 16.4794 186.852 16.7484C188.36 16.9996 189.429 17.4031 190.057 17.9591C190.686 18.5151 191 19.5015 191 20.9185C191 22.3353 190.542 23.3756 189.626 24.0392C188.729 24.7028 187.409 25.0346 185.667 25.0346C184.572 25.0346 183.189 24.8822 181.519 24.5773L180.684 24.4427L180.792 21.9946C182.947 22.2816 184.5 22.425 185.451 22.425C186.403 22.425 187.077 22.3084 187.472 22.0753C187.884 21.8421 188.091 21.4565 188.091 20.9185C188.091 20.3803 187.894 20.0127 187.499 19.8154C187.121 19.6002 186.197 19.376 184.725 19.1429C183.27 18.8917 182.201 18.5061 181.519 17.9859C180.837 17.4658 180.496 16.5153 180.496 15.1342C180.496 13.7532 180.963 12.7219 181.896 12.0403C182.848 11.3588 184.06 11.0181 185.532 11.0181C186.681 11.0181 188.091 11.1616 189.761 11.4485L190.596 11.61L190.542 14.0581Z" fill="#FFAD00"/>
<path d="M52.8334 36.624C51.9972 36.624 51.3267 36.3532 50.8222 35.8115C50.3205 35.2699 50.0696 34.5653 50.0696 33.6976C50.0696 32.7653 50.3258 32.0215 50.8384 31.4665C51.351 30.9114 52.047 30.6338 52.9265 30.6338C53.7412 30.6338 54.3968 30.9033 54.8932 31.4422C55.3923 31.9812 55.6418 32.6858 55.6418 33.5561C55.6418 34.502 55.3869 35.2497 54.877 35.7994C54.3672 36.3491 53.686 36.624 52.8334 36.624ZM52.878 31.4786C52.3464 31.4786 51.9135 31.6766 51.5789 32.0728C51.2471 32.4689 51.0812 32.9903 51.0812 33.637C51.0812 34.281 51.2431 34.7997 51.5668 35.1932C51.8906 35.5866 52.3141 35.7832 52.8375 35.7832C53.3932 35.7832 53.8316 35.596 54.1526 35.2214C54.4737 34.8468 54.6342 34.3228 54.6342 33.6491C54.6342 32.9566 54.4777 32.4217 54.1648 32.0445C53.8545 31.6672 53.4256 31.4786 52.878 31.4786Z" fill="#3F3F3F"/>
<path d="M60.2915 36.527H59.3526V34.1948C59.3526 33.4214 59.0788 33.0347 58.5312 33.0347C58.2452 33.0347 58.0091 33.1425 57.823 33.358C57.6368 33.5709 57.5438 33.8404 57.5438 34.1664V36.527H56.6008V32.388H57.5438V33.0751H57.56C57.8702 32.5524 58.318 32.291 58.9035 32.291C59.354 32.291 59.6979 32.4379 59.9353 32.7316C60.1728 33.0226 60.2915 33.4443 60.2915 33.9967V36.527Z" fill="#3F3F3F"/>
<path d="M63.6221 34.6111H61.4126V33.9199H63.6221V34.6111Z" fill="#3F3F3F"/>
<path d="M64.8801 36.5271V30.731H66.5555C68.6949 30.731 69.7645 31.6727 69.7645 33.5563C69.7645 34.4509 69.4677 35.1704 68.8742 35.7147C68.2807 36.2562 67.4848 36.5271 66.4867 36.5271H64.8801ZM65.8392 31.5474V35.7147H66.6081C67.2852 35.7147 67.8113 35.5287 68.1863 35.1568C68.564 34.785 68.7528 34.2596 68.7528 33.5805C68.7528 32.2251 68.05 31.5474 66.6445 31.5474H65.8392Z" fill="#3F3F3F"/>
<path d="M74.2321 34.7121H71.4075C71.4183 35.0948 71.5357 35.3899 71.7595 35.5973C71.9862 35.8048 72.2964 35.9085 72.6903 35.9085C73.1328 35.9085 73.5387 35.7765 73.9084 35.5124V36.2683C73.5306 36.5054 73.0316 36.624 72.4111 36.624C71.8014 36.624 71.3225 36.4367 70.9745 36.0622C70.6292 35.6848 70.4565 35.1554 70.4565 34.4736C70.4565 33.8297 70.6467 33.3055 71.0271 32.9013C71.4102 32.4944 71.885 32.291 72.4516 32.291C73.0181 32.291 73.4565 32.4729 73.7667 32.8366C74.077 33.2004 74.2321 33.7057 74.2321 34.3524V34.7121ZM73.3257 34.0492C73.3229 33.7125 73.2434 33.4511 73.0869 33.2651C72.9305 33.0765 72.7146 32.9822 72.4394 32.9822C72.1697 32.9822 71.9403 33.0805 71.7514 33.2773C71.5653 33.474 71.4507 33.7313 71.4075 34.0492H73.3257Z" fill="#3F3F3F"/>
<path d="M81.3229 36.527H80.3839V34.2716C80.3839 33.8377 80.322 33.5238 80.1975 33.3298C80.076 33.1358 79.8697 33.0388 79.5786 33.0388C79.3334 33.0388 79.1241 33.1613 78.9514 33.4066C78.781 33.6518 78.6962 33.9455 78.6962 34.2877V36.527H77.7534V34.1948C77.7534 33.4241 77.4807 33.0388 76.936 33.0388C76.6823 33.0388 76.4737 33.1546 76.3088 33.3864C76.147 33.6181 76.066 33.9186 76.066 34.2877V36.527H75.1272V32.388H76.066V33.0428H76.0822C76.3817 32.5416 76.8175 32.291 77.389 32.291C77.6755 32.291 77.9246 32.3705 78.1377 32.5295C78.3539 32.6857 78.5006 32.8919 78.5793 33.1479C78.8865 32.5766 79.3449 32.291 79.9545 32.291C80.8667 32.291 81.3229 32.8528 81.3229 33.9765V36.527Z" fill="#3F3F3F"/>
<path d="M85.6483 36.527H84.7376V35.8803H84.7216C84.4359 36.3761 84.0164 36.624 83.4633 36.624C83.0561 36.624 82.736 36.5135 82.5037 36.2925C82.2745 36.0716 82.1599 35.7792 82.1599 35.4154C82.1599 34.634 82.6107 34.1786 83.5114 34.0492L84.7415 33.8754C84.7415 33.2853 84.4611 32.9903 83.9003 32.9903C83.4068 32.9903 82.9613 33.16 82.5648 33.4995V32.679C83.0018 32.4204 83.5061 32.291 84.0783 32.291C85.125 32.291 85.6483 32.8057 85.6483 33.835V36.527ZM84.7415 34.4939L83.872 34.6151C83.6023 34.6501 83.3984 34.7162 83.2608 34.8132C83.1256 34.9075 83.0584 35.0745 83.0584 35.3144C83.0584 35.4895 83.1203 35.6337 83.2448 35.7469C83.3716 35.8574 83.5397 35.9126 83.7506 35.9126C84.0363 35.9126 84.2724 35.8129 84.4588 35.6134C84.6475 35.4114 84.7415 35.1581 84.7415 34.8536V34.4939Z" fill="#3F3F3F"/>
<path d="M90.4885 36.527H89.5495V34.1948C89.5495 33.4214 89.276 33.0347 88.7282 33.0347C88.4417 33.0347 88.2057 33.1425 88.02 33.358C87.8336 33.5709 87.7404 33.8404 87.7404 34.1664V36.527H86.7976V32.388H87.7404V33.0751H87.7572C88.0674 32.5524 88.5151 32.291 89.1003 32.291C89.5511 32.291 89.8949 32.4379 90.1325 32.7316C90.3693 33.0226 90.4885 33.4443 90.4885 33.9967V36.527Z" fill="#3F3F3F"/>
<path d="M95.4043 36.5271H94.4653V35.8238H94.4493C94.1475 36.3573 93.6822 36.624 93.0534 36.624C92.5439 36.624 92.1351 36.4395 91.8272 36.0703C91.5224 35.6984 91.3704 35.1932 91.3704 34.5546C91.3704 33.8701 91.5384 33.3218 91.8761 32.9095C92.2161 32.4972 92.6676 32.2911 93.2315 32.2911C93.7899 32.2911 94.1956 32.5148 94.4493 32.962H94.4653V30.3994H95.4043V36.5271ZM94.4776 34.6354V34.0938C94.4776 33.8 94.3821 33.5508 94.1903 33.3461C93.9993 33.1412 93.7548 33.0388 93.4584 33.0388C93.1077 33.0388 92.8311 33.1695 92.6287 33.4309C92.4285 33.6923 92.3292 34.0547 92.3292 34.5182C92.3292 34.9385 92.4247 35.2713 92.6164 35.5165C92.8105 35.7591 93.071 35.8803 93.3973 35.8803C93.7181 35.8803 93.9787 35.7631 94.1781 35.5287C94.3782 35.2916 94.4776 34.9938 94.4776 34.6354Z" fill="#3F3F3F"/>
<path d="M98.7517 36.2966V35.3063C98.8403 35.3871 98.9457 35.4599 99.0672 35.5246C99.191 35.5893 99.3224 35.6445 99.4599 35.6903C99.5974 35.7334 99.7349 35.7671 99.8724 35.7913C100.01 35.8156 100.137 35.8277 100.253 35.8277C100.657 35.8277 100.958 35.7604 101.155 35.6256C101.355 35.4909 101.455 35.2956 101.455 35.0395C101.455 34.9021 101.421 34.7835 101.353 34.6838C101.289 34.5815 101.197 34.4885 101.078 34.4049C100.96 34.3214 100.819 34.2419 100.657 34.1664C100.498 34.0883 100.327 34.0075 100.144 33.924C99.9466 33.8188 99.7632 33.7125 99.5928 33.6046C99.4232 33.4969 99.275 33.3783 99.1482 33.2489C99.0236 33.1169 98.9251 32.9687 98.8525 32.8043C98.7822 32.6399 98.7471 32.4473 98.7471 32.2264C98.7471 31.9542 98.8082 31.7184 98.9297 31.519C99.0534 31.3169 99.2154 31.1512 99.4148 31.0219C99.6173 30.8898 99.8465 30.7928 100.103 30.7308C100.359 30.6662 100.621 30.6338 100.888 30.6338C101.495 30.6338 101.938 30.7025 102.216 30.84V31.7898C101.886 31.5527 101.463 31.4342 100.945 31.4342C100.801 31.4342 100.659 31.4476 100.516 31.4746C100.375 31.5015 100.248 31.546 100.135 31.608C100.024 31.6699 99.9343 31.7494 99.864 31.8464C99.7938 31.9434 99.7594 32.0606 99.7594 32.198C99.7594 32.3274 99.7861 32.4393 99.8404 32.5336C99.8938 32.6279 99.9725 32.7141 100.075 32.7922C100.18 32.8703 100.306 32.9471 100.455 33.0226C100.606 33.0954 100.78 33.1749 100.977 33.2611C101.18 33.3662 101.37 33.4767 101.548 33.5925C101.728 33.7084 101.886 33.8364 102.021 33.9765C102.159 34.1167 102.267 34.2729 102.345 34.4454C102.426 34.6152 102.466 34.8091 102.466 35.0274C102.466 35.3211 102.407 35.569 102.288 35.7712C102.17 35.9732 102.009 36.1376 101.807 36.2642C101.607 36.3909 101.377 36.4825 101.115 36.5391C100.853 36.5957 100.577 36.624 100.285 36.624C100.188 36.624 100.068 36.6159 99.9252 36.5997C99.7846 36.5863 99.6402 36.5647 99.492 36.535C99.3438 36.5081 99.2032 36.4745 99.071 36.434C98.9388 36.3936 98.8326 36.3478 98.7517 36.2966Z" fill="#3F3F3F"/>
<path d="M105.266 36.624C104.628 36.624 104.116 36.4313 103.733 36.046C103.353 35.658 103.162 35.1446 103.162 34.506C103.162 33.8108 103.361 33.2678 103.758 32.8771C104.156 32.4864 104.693 32.291 105.368 32.291C106.015 32.291 106.52 32.4809 106.882 32.8609C107.243 33.2408 107.424 33.7677 107.424 34.4413C107.424 35.1015 107.228 35.631 106.837 36.0298C106.448 36.4259 105.925 36.624 105.266 36.624ZM105.311 33.0388C104.944 33.0388 104.654 33.1668 104.441 33.4227C104.228 33.6787 104.121 34.0317 104.121 34.4817C104.121 34.9156 104.23 35.2578 104.445 35.5084C104.661 35.7563 104.95 35.8803 105.311 35.8803C105.68 35.8803 105.964 35.7576 106.161 35.5124C106.36 35.2672 106.461 34.9182 106.461 34.4655C106.461 34.0102 106.36 33.6585 106.161 33.4106C105.964 33.1627 105.68 33.0388 105.311 33.0388Z" fill="#3F3F3F"/>
<path d="M110.588 31.1635C110.461 31.0907 110.317 31.0544 110.155 31.0544C109.699 31.0544 109.471 31.3117 109.471 31.8264V32.3882H110.434V33.1238H109.475V36.5272H108.536V33.1238H107.828V32.3882H108.536V31.7173C108.536 31.2807 108.679 30.9372 108.965 30.6866C109.251 30.4333 109.609 30.3066 110.037 30.3066C110.269 30.3066 110.453 30.3322 110.588 30.3835V31.1635Z" fill="#3F3F3F"/>
<path d="M113.441 36.4828C113.258 36.5744 113.016 36.6202 112.717 36.6202C111.912 36.6202 111.51 36.2349 111.51 35.4642V33.1239H110.819V32.3883H111.51V31.4304L112.449 31.1636V32.3883H113.441V33.1239H112.449V35.1934C112.449 35.4386 112.494 35.6137 112.583 35.7189C112.672 35.824 112.821 35.8765 113.028 35.8765C113.187 35.8765 113.325 35.8307 113.441 35.7391V36.4828Z" fill="#3F3F3F"/>
<path d="M119.822 32.3882L118.6 36.5272H117.617L116.864 33.722C116.834 33.6143 116.815 33.493 116.808 33.3582H116.791C116.785 33.4499 116.762 33.5685 116.718 33.7139L115.901 36.5272H114.938L113.719 32.3882H114.691L115.444 35.3712C115.468 35.4601 115.484 35.5787 115.492 35.7268H115.52C115.529 35.6136 115.55 35.4924 115.585 35.3631L116.423 32.3882H117.305L118.05 35.3832C118.074 35.4776 118.091 35.5961 118.103 35.7389H118.131C118.136 35.6393 118.156 35.5207 118.191 35.3832L118.928 32.3882H119.822Z" fill="#3F3F3F"/>
<path d="M123.703 36.527H122.792V35.8803H122.776C122.49 36.3761 122.071 36.624 121.518 36.624C121.111 36.624 120.79 36.5135 120.559 36.2925C120.33 36.0716 120.214 35.7792 120.214 35.4154C120.214 34.634 120.665 34.1786 121.567 34.0492L122.797 33.8754C122.797 33.2853 122.516 32.9903 121.955 32.9903C121.461 32.9903 121.016 33.16 120.619 33.4995V32.679C121.056 32.4204 121.561 32.291 122.133 32.291C123.179 32.291 123.703 32.8057 123.703 33.835V36.527ZM122.797 34.4939L121.926 34.6151C121.657 34.6501 121.453 34.7162 121.315 34.8132C121.181 34.9075 121.113 35.0745 121.113 35.3144C121.113 35.4895 121.175 35.6337 121.299 35.7469C121.426 35.8574 121.595 35.9126 121.805 35.9126C122.091 35.9126 122.327 35.8129 122.513 35.6134C122.702 35.4114 122.797 35.1581 122.797 34.8536V34.4939Z" fill="#3F3F3F"/>
<path d="M127.256 33.2815C127.142 33.1925 126.98 33.1481 126.767 33.1481C126.489 33.1481 126.256 33.2734 126.071 33.524C125.884 33.7746 125.791 34.1155 125.791 34.5466V36.5272H124.853V32.3882H125.791V33.241H125.808C125.899 32.95 126.039 32.7237 126.228 32.562C126.42 32.3977 126.633 32.3154 126.867 32.3154C127.038 32.3154 127.167 32.3411 127.256 32.3923V33.2815Z" fill="#3F3F3F"/>
<path d="M131.356 34.7121H128.531C128.542 35.0948 128.659 35.3899 128.883 35.5973C129.11 35.8048 129.42 35.9085 129.814 35.9085C130.256 35.9085 130.663 35.7765 131.032 35.5124V36.2683C130.654 36.5054 130.155 36.624 129.535 36.624C128.925 36.624 128.446 36.4367 128.098 36.0622C127.753 35.6848 127.58 35.1554 127.58 34.4736C127.58 33.8297 127.77 33.3055 128.151 32.9013C128.534 32.4944 129.009 32.291 129.575 32.291C130.142 32.291 130.58 32.4729 130.89 32.8366C131.2 33.2004 131.356 33.7057 131.356 34.3524V34.7121ZM130.449 34.0492C130.446 33.7125 130.367 33.4511 130.21 33.2651C130.054 33.0765 129.838 32.9822 129.563 32.9822C129.293 32.9822 129.064 33.0805 128.875 33.2773C128.689 33.474 128.575 33.7313 128.531 34.0492H130.449Z" fill="#3F3F3F"/>
<path d="M138.361 31.5474H136.694V36.5271H135.73V31.5474H134.067V30.731H138.361V31.5474Z" fill="#3F3F3F"/>
<path d="M141.804 34.7121H138.979C138.99 35.0948 139.108 35.3899 139.331 35.5973C139.558 35.8048 139.869 35.9085 140.262 35.9085C140.704 35.9085 141.111 35.7765 141.481 35.5124V36.2683C141.102 36.5054 140.603 36.624 139.983 36.624C139.373 36.624 138.894 36.4367 138.547 36.0622C138.201 35.6848 138.029 35.1554 138.029 34.4736C138.029 33.8297 138.219 33.3055 138.599 32.9013C138.982 32.4944 139.457 32.291 140.024 32.291C140.59 32.291 141.028 32.4729 141.338 32.8366C141.649 33.2004 141.804 33.7057 141.804 34.3524V34.7121ZM140.898 34.0492C140.895 33.7125 140.815 33.4511 140.658 33.2651C140.503 33.0765 140.286 32.9822 140.011 32.9822C139.742 32.9822 139.512 33.0805 139.324 33.2773C139.137 33.474 139.023 33.7313 138.979 34.0492H140.898Z" fill="#3F3F3F"/>
<path d="M145.879 36.527H144.968V35.8803H144.952C144.666 36.3761 144.247 36.624 143.694 36.624C143.287 36.624 142.966 36.5135 142.735 36.2925C142.506 36.0716 142.39 35.7792 142.39 35.4154C142.39 34.634 142.841 34.1786 143.743 34.0492L144.973 33.8754C144.973 33.2853 144.692 32.9903 144.131 32.9903C143.637 32.9903 143.192 33.16 142.795 33.4995V32.679C143.232 32.4204 143.737 32.291 144.309 32.291C145.355 32.291 145.879 32.8057 145.879 33.835V36.527ZM144.973 34.4939L144.103 34.6151C143.833 34.6501 143.629 34.7162 143.491 34.8132C143.357 34.9075 143.289 35.0745 143.289 35.3144C143.289 35.4895 143.351 35.6337 143.475 35.7469C143.602 35.8574 143.771 35.9126 143.981 35.9126C144.267 35.9126 144.503 35.8129 144.689 35.6134C144.878 35.4114 144.973 35.1581 144.973 34.8536V34.4939Z" fill="#3F3F3F"/>
<path d="M153.224 36.527H152.285V34.2716C152.285 33.8377 152.224 33.5238 152.099 33.3298C151.978 33.1358 151.771 33.0388 151.48 33.0388C151.235 33.0388 151.026 33.1613 150.853 33.4066C150.683 33.6518 150.598 33.9455 150.598 34.2877V36.527H149.655V34.1948C149.655 33.4241 149.382 33.0388 148.837 33.0388C148.584 33.0388 148.375 33.1546 148.21 33.3864C148.048 33.6181 147.967 33.9186 147.967 34.2877V36.527H147.028V32.388H147.967V33.0428H147.984C148.283 32.5416 148.719 32.291 149.291 32.291C149.577 32.291 149.826 32.3705 150.039 32.5295C150.255 32.6857 150.402 32.8919 150.481 33.1479C150.788 32.5766 151.246 32.291 151.856 32.291C152.768 32.291 153.224 32.8528 153.224 33.9765V36.527Z" fill="#3F3F3F"/>
<path d="M154.11 36.3976V35.5286C154.461 35.7953 154.848 35.9288 155.271 35.9288C155.838 35.9288 156.121 35.7617 156.121 35.4276C156.121 35.3333 156.097 35.2538 156.048 35.1891C155.999 35.1217 155.934 35.0624 155.85 35.0112C155.769 34.96 155.672 34.9142 155.559 34.8738C155.448 34.8334 155.324 34.7876 155.187 34.7364C155.016 34.669 154.863 34.5976 154.725 34.5221C154.59 34.4467 154.477 34.3618 154.385 34.2675C154.296 34.1705 154.229 34.0614 154.183 33.9401C154.137 33.8188 154.114 33.6774 154.114 33.5157C154.114 33.3163 154.161 33.1412 154.255 32.9903C154.35 32.8366 154.477 32.7086 154.636 32.6062C154.795 32.5012 154.976 32.423 155.178 32.3718C155.381 32.318 155.59 32.291 155.805 32.291C156.188 32.291 156.531 32.3489 156.833 32.4648V33.2853C156.542 33.0859 156.207 32.9862 155.83 32.9862C155.711 32.9862 155.603 32.9984 155.506 33.0226C155.412 33.0469 155.331 33.0805 155.263 33.1236C155.196 33.1668 155.143 33.2193 155.106 33.2813C155.067 33.3406 155.049 33.4066 155.049 33.4793C155.049 33.5683 155.067 33.6437 155.106 33.7057C155.143 33.7677 155.199 33.8229 155.271 33.8714C155.347 33.9172 155.436 33.9603 155.538 34.0007C155.643 34.0384 155.763 34.0802 155.899 34.126C156.077 34.1988 156.236 34.2729 156.376 34.3483C156.519 34.4238 156.64 34.51 156.741 34.607C156.84 34.7014 156.917 34.8119 156.971 34.9385C157.025 35.0624 157.052 35.2106 157.052 35.3831C157.052 35.5933 157.003 35.7765 156.906 35.9328C156.809 36.0891 156.679 36.2184 156.517 36.3208C156.356 36.4232 156.168 36.4987 155.955 36.5471C155.745 36.5984 155.522 36.624 155.287 36.624C154.834 36.624 154.442 36.5485 154.11 36.3976Z" fill="#3F3F3F"/>
</g>
<defs>
<clipPath id="clip0_3_3025">
<rect width="191" height="42" fill="white"/>
</clipPath>
</defs>
</svg>
