<svg width="54" height="33" viewBox="0 0 54 33" fill="none" xmlns="http://www.w3.org/2000/svg">
<path d="M46.8828 20.6193H46.2417V21.7324H45.495V20.6193H43.3322V20.0276L45.4879 16.6813H46.2417V19.9853H46.8828V20.6193ZM45.495 18.6186C45.495 18.5059 45.495 18.3979 45.495 18.2946C45.4997 18.1912 45.5044 18.0926 45.5091 17.9987C45.5138 17.9001 45.5161 17.8108 45.5161 17.731C45.5208 17.6465 45.5255 17.5713 45.5302 17.5056H45.502C45.4644 17.5995 45.4198 17.6958 45.3682 17.7944C45.3212 17.893 45.2742 17.9799 45.2273 18.055L44.0437 19.9853H45.495V18.6186ZM47.4327 21.3168C47.4327 21.1336 47.4773 21.0045 47.5666 20.9293C47.6605 20.8542 47.7756 20.8166 47.9118 20.8166C48.0433 20.8166 48.156 20.8542 48.2499 20.9293C48.3485 21.0045 48.3979 21.1336 48.3979 21.3168C48.3979 21.4999 48.3485 21.6314 48.2499 21.7113C48.156 21.7911 48.0433 21.831 47.9118 21.831C47.7756 21.831 47.6605 21.7911 47.5666 21.7113C47.4773 21.6314 47.4327 21.4999 47.4327 21.3168ZM50.7282 16.632C51.01 16.632 51.2589 16.679 51.4749 16.7729C51.6957 16.8621 51.8671 16.996 51.9892 17.1745C52.116 17.3529 52.1794 17.576 52.1794 17.8437C52.1794 18.0457 52.1395 18.2218 52.0597 18.3721C51.9845 18.5224 51.8788 18.6562 51.7426 18.7736C51.6111 18.8863 51.4655 18.985 51.3059 19.0695C51.489 19.1681 51.6581 19.2808 51.8131 19.4076C51.9681 19.5298 52.0925 19.673 52.1865 19.8374C52.2851 20.0018 52.3344 20.199 52.3344 20.4291C52.3344 20.7109 52.2687 20.9551 52.1372 21.1618C52.0103 21.3637 51.8272 21.5211 51.5877 21.6338C51.3481 21.7465 51.064 21.8029 50.7352 21.8029C50.383 21.8029 50.0848 21.7489 49.8406 21.6408C49.601 21.5328 49.4202 21.3802 49.2981 21.1829C49.176 20.981 49.1149 20.7368 49.1149 20.4503C49.1149 20.2201 49.1572 20.0205 49.2417 19.8515C49.331 19.6824 49.446 19.5368 49.5869 19.4147C49.7325 19.2926 49.8922 19.1893 50.066 19.1047C49.9157 19.0108 49.7795 18.9051 49.6574 18.7877C49.5353 18.6656 49.439 18.527 49.3686 18.3721C49.3028 18.2171 49.2699 18.0386 49.2699 17.8367C49.2699 17.5737 49.3333 17.3553 49.4601 17.1815C49.5869 17.003 49.7607 16.8668 49.9814 16.7729C50.2022 16.679 50.4511 16.632 50.7282 16.632ZM49.8476 20.4362C49.8476 20.6663 49.9204 20.8565 50.066 21.0068C50.2116 21.1524 50.43 21.2252 50.7212 21.2252C50.9184 21.2252 51.0804 21.1923 51.2072 21.1266C51.334 21.0561 51.4303 20.9622 51.4961 20.8448C51.5665 20.7227 51.6017 20.5841 51.6017 20.4291C51.6017 20.2742 51.5642 20.138 51.489 20.0205C51.4139 19.9031 51.3106 19.7998 51.1791 19.7106C51.0523 19.6166 50.9067 19.5321 50.7423 19.457L50.6507 19.4147C50.4816 19.4945 50.336 19.5838 50.2139 19.6824C50.0965 19.781 50.0049 19.8914 49.9392 20.0135C49.8781 20.1356 49.8476 20.2765 49.8476 20.4362ZM50.7141 17.2167C50.5075 17.2167 50.336 17.2731 50.1998 17.3858C50.0683 17.4985 50.0026 17.6629 50.0026 17.8789C50.0026 18.0339 50.0355 18.1654 50.1012 18.2734C50.1717 18.3815 50.2609 18.4754 50.3689 18.5552C50.4816 18.6304 50.6037 18.7032 50.7352 18.7736C50.8667 18.7079 50.9842 18.6374 51.0875 18.5623C51.1955 18.4824 51.28 18.3885 51.3411 18.2805C51.4068 18.1678 51.4397 18.0339 51.4397 17.8789C51.4397 17.6629 51.3716 17.4985 51.2354 17.3858C51.1039 17.2731 50.9301 17.2167 50.7141 17.2167Z" fill="white"/>
<path d="M11.2051 10.339H12.9897V21.3569H11.2051V10.339Z" fill="white"/>
<path d="M19.2066 17.8652C19.2066 19.5722 17.81 19.7274 17.3444 19.7274C16.2581 19.7274 16.103 18.7187 16.103 18.1756V13.9081H14.3184V18.098C14.3184 19.1066 14.6287 20.0377 15.2495 20.5809C15.7926 21.124 16.4909 21.3568 17.3444 21.3568C17.9651 21.3568 18.741 21.2016 19.2066 20.7361V21.3568H20.9912V13.9081H19.2066V17.8652Z" fill="white"/>
<path d="M24.4767 11.1925H22.6921V13.9082H21.373V15.6152H22.6921V21.3569H24.4767V15.6152H25.7957V13.9082H24.4767V11.1925Z" fill="white"/>
<path d="M31.3924 19.1069C31.0044 19.4172 30.4613 19.65 29.9182 19.65C28.6767 19.65 27.8232 18.7189 27.8232 17.4774C27.8232 16.236 28.6767 15.3825 29.9182 15.3825C30.4613 15.3825 31.0044 15.5377 31.3924 15.9256L31.6252 16.1584L32.8666 14.9945L32.5563 14.7618C31.8579 14.141 30.9269 13.7531 29.9182 13.7531C27.7456 13.7531 26.1162 15.3825 26.1162 17.555C26.1162 19.7276 27.7456 21.357 29.9182 21.357C30.9269 21.357 31.8579 20.969 32.5563 20.3483L32.8666 20.1155L31.6252 18.8741L31.3924 19.1069Z" fill="white"/>
<path d="M39.1457 14.5289C38.6026 13.9858 38.0595 13.753 37.2059 13.753C36.5852 13.753 35.9645 13.9082 35.4989 14.3737V10.339H33.7144V21.3569H35.4989V17.2446C35.4989 15.5376 36.6628 15.3824 37.1284 15.3824C38.2146 15.3824 38.137 16.3911 38.137 16.9342V21.2793H39.9216V17.0118C39.9216 16.0031 39.6889 15.072 39.1457 14.5289Z" fill="white"/>
<path d="M29.8333 18.796C30.5189 18.796 31.0747 18.2402 31.0747 17.5546C31.0747 16.8689 30.5189 16.3131 29.8333 16.3131C29.1476 16.3131 28.5918 16.8689 28.5918 17.5546C28.5918 18.2402 29.1476 18.796 29.8333 18.796Z" fill="#EF4335"/>
<path d="M8.72745 18.6414C8.10672 19.2621 7.17563 19.65 6.16695 19.65C4.22717 19.65 2.83054 18.0982 2.83054 16.0033C2.83054 13.9083 4.22717 12.3565 6.24454 12.3565C7.17563 12.3565 8.10672 12.7444 8.80504 13.4428L9.03781 13.6755L10.2017 12.5117L9.9689 12.2789C8.96022 11.2702 7.64118 10.7271 6.24454 10.7271C3.29608 10.6495 1.12354 12.9772 1.12354 16.0033C1.12354 19.0293 3.29608 21.357 6.16695 21.357C7.56358 21.357 8.96022 20.8139 9.89131 19.8052L10.1241 19.5724L8.96022 18.4086L8.72745 18.6414Z" fill="white"/>
<path d="M15.7488 25.6892L14.9914 27.2305C14.9529 27.3089 14.896 27.3768 14.8255 27.4282C14.7551 27.4796 14.6733 27.513 14.5871 27.5256L12.8943 27.7728C12.8149 27.7844 12.7404 27.818 12.6791 27.8699C12.6178 27.9218 12.5721 27.9899 12.5474 28.0665C12.5226 28.1431 12.5197 28.2251 12.5389 28.3033C12.5582 28.3815 12.5988 28.4527 12.6563 28.5088L13.8817 29.7086C13.9439 29.7696 13.9905 29.8449 14.0174 29.9279C14.0443 30.0109 14.0507 30.0993 14.0361 30.1854L13.7468 31.8796C13.7334 31.9589 13.7423 32.0405 13.7725 32.1149C13.8028 32.1894 13.8532 32.2539 13.918 32.3012C13.9829 32.3484 14.0596 32.3765 14.1395 32.3822C14.2193 32.388 14.2992 32.3711 14.3701 32.3337L15.8844 31.5339C15.9614 31.4932 16.0472 31.4719 16.1342 31.4719C16.2213 31.4719 16.307 31.4932 16.3841 31.5339L17.8984 32.3337C17.9692 32.3711 18.0491 32.388 18.129 32.3822C18.2089 32.3765 18.2856 32.3484 18.3505 32.3012C18.4153 32.2539 18.4657 32.1894 18.496 32.1149C18.5262 32.0405 18.5351 31.9589 18.5217 31.8796L18.2324 30.1854C18.2178 30.0993 18.2242 30.0109 18.2511 29.9279C18.278 29.8448 18.3245 29.7696 18.3868 29.7086L19.6122 28.5088C19.6697 28.4527 19.7103 28.3815 19.7296 28.3033C19.7488 28.2251 19.7459 28.1431 19.7211 28.0665C19.6963 27.9899 19.6507 27.9218 19.5894 27.8699C19.5281 27.818 19.4536 27.7844 19.3742 27.7728L17.6807 27.5256C17.5946 27.513 17.5127 27.4796 17.4423 27.4282C17.3718 27.3768 17.3149 27.3089 17.2764 27.2305L16.519 25.6892C16.4836 25.617 16.4287 25.5562 16.3607 25.5137C16.2926 25.4712 16.214 25.4487 16.1339 25.4487C16.0538 25.4487 15.9752 25.4712 15.9072 25.5137C15.8391 25.5562 15.7842 25.617 15.7488 25.6892Z" fill="#FFAF00"/>
<path d="M27.1152 25.6887L26.3578 27.2299C26.3193 27.3084 26.2624 27.3762 26.1919 27.4276C26.1215 27.4791 26.0397 27.5125 25.9535 27.5251L24.26 27.7723C24.1806 27.7838 24.1061 27.8175 24.0448 27.8693C23.9835 27.9212 23.9379 27.9893 23.9131 28.0659C23.8883 28.1425 23.8854 28.2246 23.9046 28.3027C23.9239 28.3809 23.9646 28.4521 24.022 28.5083L25.2474 29.7081C25.3097 29.7691 25.3562 29.8443 25.3831 29.9274C25.41 30.0104 25.4164 30.0988 25.4018 30.1848L25.1125 31.8791C25.0991 31.9584 25.108 32.0399 25.1383 32.1144C25.1685 32.1889 25.2189 32.2534 25.2838 32.3006C25.3486 32.3479 25.4253 32.3759 25.5052 32.3817C25.5851 32.3874 25.665 32.3706 25.7358 32.3331L27.2501 31.5333C27.3272 31.4927 27.4129 31.4714 27.5 31.4714C27.587 31.4714 27.6728 31.4927 27.7498 31.5333L29.2641 32.3331C29.335 32.3706 29.4149 32.3874 29.4947 32.3817C29.5746 32.3759 29.6513 32.3479 29.7162 32.3006C29.781 32.2534 29.8314 32.1889 29.8617 32.1144C29.8919 32.0399 29.9009 31.9584 29.8874 31.8791L29.5981 30.1848C29.5835 30.0988 29.5899 30.0104 29.6168 29.9274C29.6437 29.8443 29.6902 29.7691 29.7525 29.7081L30.9779 28.5083C31.0354 28.4521 31.076 28.3809 31.0953 28.3027C31.1145 28.2246 31.1116 28.1425 31.0868 28.0659C31.0621 27.9893 31.0164 27.9212 30.9551 27.8693C30.8938 27.8175 30.8193 27.7838 30.7399 27.7723L29.0464 27.5251C28.9603 27.5125 28.8784 27.4791 28.808 27.4276C28.7376 27.3762 28.6806 27.3084 28.6421 27.2299L27.8847 25.6887C27.8492 25.6167 27.7944 25.5561 27.7264 25.5137C27.6584 25.4713 27.58 25.4489 27.5 25.4489C27.42 25.4489 27.3415 25.4713 27.2735 25.5137C27.2056 25.5561 27.1507 25.6167 27.1152 25.6887Z" fill="#FFAF00"/>
<path d="M38.4909 25.6892L37.7336 27.2305C37.695 27.3089 37.6381 27.3768 37.5677 27.4282C37.4972 27.4796 37.4154 27.513 37.3292 27.5256L35.636 27.7728C35.5566 27.7844 35.4821 27.818 35.4208 27.8699C35.3595 27.9218 35.3138 27.9899 35.2891 28.0665C35.2643 28.1431 35.2614 28.2251 35.2806 28.3033C35.2999 28.3815 35.3405 28.4527 35.398 28.5088L36.6234 29.7086C36.6856 29.7696 36.7322 29.8449 36.7591 29.9279C36.786 30.0109 36.7924 30.0993 36.7778 30.1854L36.4885 31.8796C36.4751 31.9589 36.484 32.0405 36.5142 32.1149C36.5445 32.1894 36.5949 32.2539 36.6597 32.3012C36.7246 32.3484 36.8013 32.3765 36.8812 32.3822C36.961 32.388 37.0409 32.3711 37.1118 32.3337L38.6261 31.5339C38.7031 31.4932 38.7889 31.4719 38.8759 31.4719C38.963 31.4719 39.0487 31.4932 39.1258 31.5339L40.6401 32.3337C40.7109 32.3711 40.7908 32.388 40.8707 32.3822C40.9506 32.3765 41.0273 32.3484 41.0922 32.3012C41.157 32.2539 41.2074 32.1894 41.2377 32.1149C41.2679 32.0405 41.2768 31.9589 41.2634 31.8796L40.9741 30.1854C40.9595 30.0993 40.9659 30.0109 40.9928 29.9279C41.0197 29.8448 41.0662 29.7696 41.1285 29.7086L42.3539 28.5088C42.4114 28.4527 42.452 28.3815 42.4713 28.3033C42.4905 28.2251 42.4876 28.1431 42.4628 28.0665C42.438 27.9899 42.3924 27.9218 42.3311 27.8699C42.2698 27.818 42.1953 27.7844 42.1159 27.7728L40.4224 27.5256C40.3362 27.513 40.2544 27.4796 40.184 27.4282C40.1135 27.3768 40.0566 27.3089 40.0181 27.2305L39.2612 25.6892C39.2257 25.617 39.1709 25.5562 39.1028 25.5137C39.0347 25.4712 38.9562 25.4487 38.8761 25.4487C38.7959 25.4487 38.7174 25.4712 38.6493 25.5137C38.5812 25.5562 38.5264 25.617 38.4909 25.6892Z" fill="#FFAF00"/>
<path d="M50.6477 25.6899L51.4051 27.2312C51.4436 27.3096 51.5006 27.3774 51.571 27.4288C51.6414 27.4803 51.7233 27.5137 51.8094 27.5263L53.5027 27.7735C53.582 27.785 53.6566 27.8187 53.7179 27.8706C53.7792 27.9225 53.8248 27.9906 53.8496 28.0671C53.8744 28.1437 53.8773 28.2258 53.858 28.304C53.8388 28.3821 53.7981 28.4533 53.7407 28.5095L52.5153 29.7093C52.453 29.7703 52.4065 29.8455 52.3796 29.9286C52.3527 30.0116 52.3463 30.1 52.3609 30.1861L52.6502 31.8803C52.6636 31.9596 52.6547 32.0411 52.6244 32.1156C52.5942 32.1901 52.5438 32.2546 52.4789 32.3018C52.4141 32.3491 52.3374 32.3771 52.2575 32.3829C52.1776 32.3886 52.0977 32.3718 52.0269 32.3343L50.5126 31.5346C50.4355 31.4939 50.3498 31.4726 50.2627 31.4726C50.1757 31.4726 50.0899 31.4939 50.0129 31.5346L48.4986 32.3343C48.4277 32.3718 48.3478 32.3886 48.2679 32.3829C48.1881 32.3771 48.1114 32.3491 48.0465 32.3018C47.9817 32.2546 47.9313 32.1901 47.901 32.1156C47.8708 32.0411 47.8618 31.9596 47.8753 31.8803L48.1646 30.1861C48.1792 30.1 48.1728 30.0116 48.1459 29.9286C48.119 29.8455 48.0724 29.7703 48.0102 29.7093L46.7848 28.5095C46.7273 28.4533 46.6867 28.3821 46.6674 28.304C46.6482 28.2258 46.6511 28.1437 46.6759 28.0671C46.7006 27.9906 46.7462 27.9225 46.8076 27.8706C46.8689 27.8187 46.9434 27.785 47.0228 27.7735L48.7163 27.5263C48.8024 27.5137 48.8843 27.4803 48.9547 27.4288C49.0251 27.3774 49.0821 27.3096 49.1206 27.2312L49.8759 25.6899C49.9112 25.6173 49.9661 25.5561 50.0343 25.5133C50.1025 25.4705 50.1814 25.4478 50.2618 25.4478C50.3423 25.4478 50.4211 25.4705 50.4893 25.5133C50.5576 25.5561 50.6125 25.6173 50.6477 25.6899Z" fill="#FFAF00"/>
<path d="M52.0269 32.3354L50.9956 31.7905V26.3979L51.4049 27.2311C51.4434 27.3095 51.5003 27.3773 51.5708 27.4287C51.6412 27.4802 51.723 27.5136 51.8092 27.5262L53.5027 27.7734C53.582 27.7849 53.6566 27.8186 53.7179 27.8705C53.7792 27.9224 53.8248 27.9905 53.8496 28.0671C53.8744 28.1436 53.8773 28.2257 53.858 28.3039C53.8388 28.382 53.7981 28.4532 53.7407 28.5094L52.5153 29.7092C52.453 29.7702 52.4065 29.8454 52.3796 29.9285C52.3527 30.0115 52.3463 30.0999 52.3609 30.186L52.6502 31.8802C52.6639 31.9596 52.6551 32.0413 52.625 32.1159C52.5948 32.1906 52.5445 32.2553 52.4796 32.3027C52.4147 32.3501 52.3379 32.3782 52.2579 32.384C52.1778 32.3898 52.0978 32.373 52.0269 32.3354Z" fill="#FDE3AC"/>
<path d="M4.39497 25.6897L3.63761 27.2311C3.59908 27.3096 3.54215 27.3774 3.47171 27.4288C3.40127 27.4802 3.31944 27.5137 3.23328 27.5262L1.53978 27.7735C1.46043 27.785 1.38588 27.8186 1.32457 27.8705C1.26326 27.9224 1.21764 27.9905 1.19288 28.0671C1.16811 28.1437 1.16519 28.2257 1.18444 28.3039C1.20368 28.3821 1.24434 28.4533 1.3018 28.5095L2.52722 29.7093C2.58945 29.7703 2.63601 29.8455 2.66289 29.9285C2.68978 30.0116 2.6962 30.0999 2.68159 30.186L2.39229 31.8803C2.37886 31.9596 2.38778 32.0411 2.41804 32.1156C2.4483 32.1901 2.4987 32.2546 2.56354 32.3018C2.62838 32.349 2.70508 32.3771 2.78497 32.3829C2.86486 32.3886 2.94475 32.3718 3.01563 32.3343L4.5299 31.5345C4.60695 31.4938 4.6927 31.4726 4.77975 31.4726C4.8668 31.4726 4.95255 31.4938 5.02961 31.5345L6.54388 32.3343C6.61475 32.3718 6.69464 32.3886 6.77453 32.3829C6.85442 32.3771 6.93112 32.349 6.99596 32.3018C7.0608 32.2546 7.1112 32.1901 7.14146 32.1156C7.17172 32.0411 7.18064 31.9596 7.16721 31.8803L6.87792 30.186C6.86329 30.0999 6.86969 30.0116 6.89658 29.9285C6.92347 29.8455 6.97004 29.7702 7.03228 29.7093L8.2577 28.5095C8.31516 28.4533 8.35582 28.3821 8.37507 28.3039C8.39432 28.2257 8.39139 28.1437 8.36662 28.0671C8.34185 27.9905 8.29623 27.9224 8.23492 27.8705C8.17361 27.8186 8.09907 27.785 8.01972 27.7735L6.32713 27.526C6.24096 27.5134 6.15913 27.48 6.0887 27.4286C6.01826 27.3772 5.96132 27.3093 5.9228 27.2309L5.16543 25.6897C5.13001 25.6174 5.07514 25.5565 5.00706 25.514C4.93897 25.4714 4.86039 25.4489 4.7802 25.4489C4.70001 25.4489 4.62143 25.4714 4.55334 25.514C4.48526 25.5565 4.43039 25.6174 4.39497 25.6897Z" fill="#E2E2E2"/>
<path d="M5.14353 25.6901L5.9009 27.2313C5.93942 27.3097 5.99636 27.3776 6.0668 27.429C6.13723 27.4804 6.21906 27.5139 6.30523 27.5264L7.99872 27.7737C8.07807 27.7852 8.15262 27.8188 8.21393 27.8707C8.27524 27.9226 8.32086 27.9907 8.34562 28.0673C8.37039 28.1439 8.37331 28.2259 8.35406 28.3041C8.33482 28.3823 8.29416 28.4535 8.23671 28.5097L7.01128 29.7095C6.94906 29.7705 6.9025 29.8457 6.87561 29.9287C6.84872 30.0118 6.8423 30.1001 6.85691 30.1862L7.14621 31.8805C7.15964 31.9598 7.15073 32.0413 7.12047 32.1158C7.09021 32.1903 7.03981 32.2548 6.97497 32.302C6.91013 32.3492 6.83343 32.3773 6.75354 32.383C6.67365 32.3888 6.59375 32.372 6.52287 32.3345L5.00861 31.5347C4.93155 31.494 4.84581 31.4728 4.75876 31.4728C4.6717 31.4728 4.58596 31.494 4.5089 31.5347L2.99463 32.3345C2.92375 32.372 2.84386 32.3888 2.76397 32.383C2.68408 32.3773 2.60738 32.3492 2.54254 32.302C2.4777 32.2548 2.42731 32.1903 2.39704 32.1158C2.36678 32.0413 2.35786 31.9598 2.3713 31.8805L2.66059 30.1862C2.67522 30.1001 2.66881 30.0118 2.64193 29.9287C2.61504 29.8457 2.56846 29.7704 2.50622 29.7095L1.2808 28.5097C1.22334 28.4535 1.18269 28.3823 1.16344 28.3041C1.14419 28.2259 1.14711 28.1439 1.17188 28.0673C1.19665 27.9907 1.24227 27.9226 1.30358 27.8707C1.36489 27.8188 1.43944 27.7852 1.51879 27.7737L3.21228 27.5264C3.29845 27.5139 3.38028 27.4804 3.45071 27.429C3.52115 27.3776 3.57809 27.3097 3.61661 27.2313L4.37397 25.6901C4.40949 25.6181 4.46434 25.5574 4.53233 25.5151C4.60032 25.4727 4.67874 25.4502 4.75876 25.4502C4.83877 25.4502 4.91719 25.4727 4.98518 25.5151C5.05317 25.5574 5.10801 25.6181 5.14353 25.6901Z" fill="#FFAF00"/>
<path d="M2.60965 2.0064C2.94194 2.0064 3.21627 2.05083 3.43264 2.1397C3.64901 2.22857 3.80936 2.36187 3.91368 2.5396C4.02187 2.71348 4.07596 2.93371 4.07596 3.20031C4.07596 3.41282 4.03926 3.59249 3.96584 3.73931C3.8963 3.88228 3.80356 4.00012 3.68765 4.09285C3.5756 4.18172 3.45389 4.2532 3.32252 4.30729L4.41791 6.14453H3.68765L2.76613 4.46957H2.1344V6.14453H1.49108V2.0064H2.60965ZM2.58067 2.5396H2.1344V3.94796H2.59226C2.78159 3.94796 2.93614 3.92091 3.05592 3.86682C3.17956 3.81273 3.27036 3.73159 3.32832 3.6234C3.39014 3.51521 3.42105 3.38191 3.42105 3.2235C3.42105 3.05735 3.39014 2.92598 3.32832 2.82939C3.27036 2.72893 3.17763 2.65552 3.05012 2.60915C2.92648 2.56279 2.77 2.5396 2.58067 2.5396ZM6.08481 2.96269C6.45187 2.96269 6.72813 3.04963 6.91359 3.2235C7.10292 3.3935 7.19758 3.66204 7.19758 4.0291V6.14453H6.75131L6.6296 5.70985H6.60642C6.51755 5.8219 6.42868 5.91464 6.33982 5.98805C6.25481 6.06146 6.15435 6.11555 6.03844 6.15033C5.92639 6.1851 5.78729 6.20249 5.62115 6.20249C5.44728 6.20249 5.2908 6.16965 5.1517 6.10396C5.0126 6.03441 4.90248 5.93009 4.82134 5.79099C4.7402 5.64803 4.69963 5.4703 4.69963 5.25779C4.69963 4.94096 4.81168 4.69947 5.03578 4.53333C5.26375 4.36718 5.60956 4.27638 6.07322 4.26093L6.57165 4.24354V4.06967C6.57165 3.83784 6.52335 3.67556 6.42675 3.58283C6.33402 3.4901 6.20265 3.44373 6.03265 3.44373C5.88968 3.44373 5.74866 3.46692 5.60956 3.51328C5.47046 3.55965 5.33523 3.61567 5.20386 3.68136L5.0126 3.23509C5.15556 3.15781 5.31784 3.09406 5.49944 3.04383C5.6849 2.98974 5.88003 2.96269 6.08481 2.96269ZM6.19492 4.65504C5.87809 4.67049 5.65786 4.73038 5.53421 4.8347C5.41057 4.93516 5.34875 5.07812 5.34875 5.26358C5.34875 5.42586 5.39125 5.54371 5.47626 5.61712C5.56513 5.69053 5.67911 5.72724 5.8182 5.72724C6.03071 5.72724 6.20845 5.65962 6.35141 5.52439C6.49823 5.38916 6.57165 5.18631 6.57165 4.91584V4.64344L6.19492 4.65504ZM9.16767 5.70406C9.24881 5.70406 9.32801 5.69633 9.40529 5.68088C9.48257 5.66542 9.55018 5.64803 9.60814 5.62871V6.09237C9.54246 6.12328 9.45552 6.1484 9.34733 6.16771C9.24301 6.1909 9.13289 6.20249 9.01698 6.20249C8.8547 6.20249 8.70594 6.17351 8.57071 6.11555C8.43548 6.0576 8.32729 5.95714 8.24615 5.81418C8.16501 5.67122 8.12444 5.47223 8.12444 5.21722V3.4901H7.72454V3.21191L8.15342 2.98008L8.36786 2.31937H8.75617V3.02065H9.58496V3.4901H8.75617V5.20563C8.75617 5.37563 8.79481 5.50121 8.87209 5.58235C8.94936 5.66349 9.04789 5.70406 9.16767 5.70406ZM11.3711 2.96269C11.63 2.96269 11.8541 3.02065 12.0434 3.13656C12.2327 3.24861 12.3776 3.41089 12.4781 3.6234C12.5824 3.83591 12.6346 4.08706 12.6346 4.37684V4.71299H10.6698C10.6776 5.03369 10.7548 5.27904 10.9017 5.44905C11.0485 5.61905 11.2552 5.70406 11.5218 5.70406C11.7111 5.70406 11.8792 5.68667 12.026 5.6519C12.1767 5.61326 12.3293 5.55723 12.4839 5.48382V5.99384C12.3371 6.06339 12.1864 6.11555 12.0318 6.15033C11.8811 6.1851 11.6976 6.20249 11.4812 6.20249C11.1992 6.20249 10.948 6.1426 10.7278 6.02282C10.5076 5.90304 10.3356 5.72531 10.212 5.48962C10.0883 5.25006 10.0265 4.95641 10.0265 4.60867C10.0265 4.25706 10.0825 3.95955 10.1946 3.71613C10.3066 3.47271 10.4631 3.28725 10.664 3.15974C10.8688 3.02838 11.1045 2.96269 11.3711 2.96269ZM11.3711 3.43794C11.1741 3.43794 11.0157 3.50942 10.8959 3.65238C10.7761 3.79534 10.7065 3.99819 10.6872 4.26093H12.0144C12.0144 4.09865 11.9913 3.95569 11.9449 3.83205C11.8985 3.7084 11.827 3.61181 11.7305 3.54226C11.6377 3.47271 11.5179 3.43794 11.3711 3.43794ZM17.3761 4.57969C17.3761 4.83857 17.3433 5.06846 17.2776 5.26938C17.2119 5.4703 17.1172 5.64031 16.9936 5.7794C16.8738 5.9185 16.727 6.02475 16.5531 6.09817C16.3792 6.16771 16.1841 6.20249 15.9677 6.20249C15.7707 6.20249 15.5872 6.16771 15.4172 6.09817C15.2471 6.02475 15.1003 5.9185 14.9767 5.7794C14.853 5.64031 14.7564 5.4703 14.6869 5.26938C14.6212 5.06846 14.5884 4.83663 14.5884 4.5739C14.5884 4.23002 14.6444 3.9383 14.7564 3.69874C14.8685 3.45919 15.0288 3.27759 15.2375 3.15395C15.45 3.02644 15.7011 2.96269 15.9909 2.96269C16.2614 2.96269 16.501 3.02644 16.7096 3.15395C16.9182 3.27759 17.0805 3.45919 17.1964 3.69874C17.3162 3.9383 17.3761 4.23195 17.3761 4.57969ZM15.2375 4.57969C15.2375 4.81152 15.2626 5.01244 15.3128 5.18244C15.3669 5.34859 15.4481 5.47609 15.5563 5.56496C15.6683 5.65383 15.8093 5.69826 15.9793 5.69826C16.1532 5.69826 16.2942 5.65383 16.4024 5.56496C16.5145 5.47609 16.5956 5.34859 16.6458 5.18244C16.6999 5.01244 16.727 4.81152 16.727 4.57969C16.727 4.34014 16.6999 4.13922 16.6458 3.97694C16.5917 3.81466 16.5106 3.69102 16.4024 3.60601C16.2942 3.51715 16.1513 3.47271 15.9735 3.47271C15.7147 3.47271 15.5273 3.56931 15.4114 3.7625C15.2954 3.95569 15.2375 4.22809 15.2375 4.57969ZM19.62 2.96269C19.96 2.96269 20.2209 3.05349 20.4025 3.23509C20.5879 3.41669 20.6806 3.7084 20.6806 4.11024V6.14453H20.0547V4.19718C20.0547 3.95376 20.0064 3.77216 19.9098 3.65238C19.8171 3.52874 19.6722 3.46692 19.4751 3.46692C19.1854 3.46692 18.9864 3.56158 18.8782 3.75091C18.77 3.94023 18.7159 4.21263 18.7159 4.5681V6.14453H18.09V3.02065H18.5826L18.6695 3.43794H18.7043C18.77 3.32975 18.8492 3.24088 18.9419 3.17134C19.0347 3.10179 19.139 3.04963 19.2549 3.01485C19.3708 2.98008 19.4925 2.96269 19.62 2.96269Z" fill="white"/>
</svg>
