<svg width="85" height="29" viewBox="0 0 85 29" fill="none" xmlns="http://www.w3.org/2000/svg">
<path d="M13.3557 0.961322C10.2295 0.57054 3.91184 2.91523 1.1438 4.13642C-1.39628 18.2046 8.22672 26.4436 13.3557 28.8045C25.0792 24.3105 26.3818 10.8123 25.5677 4.62492C21.1714 1.93829 17.2636 1.4498 13.3557 0.961322Z" fill="#E7E7E7"/>
<path d="M25.5659 4.62474C21.1696 1.93812 17.2618 1.44962 13.354 0.961147V28.8044C25.0775 24.3104 26.3801 10.8121 25.5659 4.62474Z" fill="#BABABA"/>
<path d="M15.7989 27.5832L7.00635 18.7906L11.6469 9.75378H19.2183L25.08 13.9058C23.5169 22.503 18.2413 26.6062 15.7989 27.5832Z" fill="#C1BDBD"/>
<path fill-rule="evenodd" clip-rule="evenodd" d="M13.3787 8.36864C14.1956 8.36864 14.8722 8.96976 14.9901 9.75381H11.7672C11.8852 8.96976 12.5618 8.36864 13.3787 8.36864ZM9.09795 9.75381H10.2129C10.3377 8.11449 11.7074 6.8232 13.3787 6.8232C15.05 6.8232 16.4197 8.11449 16.5445 9.75381H17.6505C18.9308 9.75381 19.9687 10.7917 19.9687 12.072V17.2052C19.9687 18.4855 18.9308 19.5234 17.6505 19.5234H9.09795C7.81766 19.5234 6.77979 18.4855 6.77979 17.2052V12.072C6.77979 10.7917 7.81766 9.75381 9.09795 9.75381ZM13.6181 15.6161C14.1577 15.6161 14.5951 15.1787 14.5951 14.6391C14.5951 14.0996 14.1577 13.6622 13.6181 13.6622C13.0786 13.6622 12.6412 14.0996 12.6412 14.6391C12.6412 15.1787 13.0786 15.6161 13.6181 15.6161Z" fill="white"/>
<path d="M32.0135 5.03971H33.0397V9.14479H32.0135V8.71089C31.8122 8.90206 31.6097 9.04041 31.406 9.12593C31.2048 9.20894 30.9859 9.25044 30.7495 9.25044C30.2187 9.25044 29.7597 9.04544 29.3723 8.63543C28.9849 8.22291 28.7913 7.71103 28.7913 7.0998C28.7913 6.46593 28.9787 5.9465 29.3534 5.54153C29.7282 5.13656 30.1835 4.93407 30.7193 4.93407C30.9658 4.93407 31.1972 4.9806 31.4135 5.07367C31.6299 5.16674 31.8298 5.30634 32.0135 5.49248V5.03971ZM30.9306 5.88488C30.6111 5.88488 30.3458 5.99807 30.1345 6.22445C29.9232 6.44832 29.8175 6.73633 29.8175 7.08848C29.8175 7.44315 29.9244 7.73493 30.1382 7.96383C30.3546 8.19273 30.6199 8.30718 30.9344 8.30718C31.2588 8.30718 31.528 8.19524 31.7418 7.97138C31.9556 7.74499 32.0625 7.44944 32.0625 7.08471C32.0625 6.72753 31.9556 6.43826 31.7418 6.21691C31.528 5.99555 31.2576 5.88488 30.9306 5.88488ZM34.0811 5.03971H35.1074V5.45852C35.3413 5.26232 35.5526 5.12649 35.7412 5.05103C35.9324 4.97306 36.1273 4.93407 36.326 4.93407C36.7335 4.93407 37.0794 5.07619 37.3636 5.36042C37.6026 5.6019 37.7221 5.95908 37.7221 6.43197V9.14479H36.7034V7.34505C36.7034 6.85455 36.6807 6.52881 36.6354 6.36783C36.5927 6.20684 36.516 6.08485 36.4053 6.00184C36.2971 5.91632 36.1625 5.87356 36.0016 5.87356C35.7928 5.87356 35.6129 5.94399 35.462 6.08485C35.3136 6.22319 35.2105 6.41562 35.1526 6.66213C35.1224 6.79041 35.1074 7.06836 35.1074 7.49597V9.14479H34.0811V5.03971ZM41.7555 3.45503H42.7817V9.14479H41.7555V8.71089C41.5542 8.90206 41.3518 9.04041 41.148 9.12593C40.9468 9.20894 40.7279 9.25044 40.4915 9.25044C39.9608 9.25044 39.5017 9.04544 39.1143 8.63543C38.727 8.22291 38.5333 7.71103 38.5333 7.0998C38.5333 6.46593 38.7207 5.9465 39.0955 5.54153C39.4703 5.13656 39.9255 4.93407 40.4613 4.93407C40.7078 4.93407 40.9392 4.9806 41.1556 5.07367C41.3719 5.16674 41.5718 5.30634 41.7555 5.49248V3.45503ZM40.6726 5.88488C40.3532 5.88488 40.0878 5.99807 39.8765 6.22445C39.6652 6.44832 39.5596 6.73633 39.5596 7.08848C39.5596 7.44315 39.6665 7.73493 39.8803 7.96383C40.0966 8.19273 40.362 8.30718 40.6764 8.30718C41.0009 8.30718 41.27 8.19524 41.4838 7.97138C41.6976 7.74499 41.8045 7.44944 41.8045 7.08471C41.8045 6.72753 41.6976 6.43826 41.4838 6.21691C41.27 5.99555 40.9996 5.88488 40.6726 5.88488ZM43.5816 5.03971H44.4645V5.55662C44.5601 5.35288 44.6871 5.19818 44.8456 5.09254C45.0041 4.98689 45.1776 4.93407 45.3663 4.93407C45.4996 4.93407 45.6392 4.96928 45.7851 5.03971L45.4644 5.92638C45.3436 5.86601 45.2443 5.83583 45.1663 5.83583C45.0078 5.83583 44.8733 5.93393 44.7626 6.13013C44.6544 6.32632 44.6004 6.71118 44.6004 7.28468L44.6041 7.48465V9.14479H43.5816V5.03971ZM48.2263 4.93407C48.6136 4.93407 48.9771 5.03091 49.3167 5.22459C49.6588 5.41828 49.9254 5.68113 50.1166 6.01316C50.3077 6.34519 50.4033 6.70363 50.4033 7.08848C50.4033 7.47585 50.3065 7.83806 50.1128 8.17512C49.9216 8.51218 49.66 8.77629 49.328 8.96746C48.996 9.15611 48.63 9.25044 48.23 9.25044C47.6414 9.25044 47.1384 9.04166 46.7208 8.62411C46.3058 8.20405 46.0983 7.69468 46.0983 7.09603C46.0983 6.45461 46.3334 5.92009 46.8038 5.49248C47.2163 5.12021 47.6905 4.93407 48.2263 4.93407ZM48.2413 5.90374C47.9219 5.90374 47.6553 6.01568 47.4415 6.23954C47.2302 6.4609 47.1245 6.74513 47.1245 7.09225C47.1245 7.44944 47.2289 7.7387 47.4377 7.96006C47.649 8.18141 47.9156 8.29208 48.2376 8.29208C48.5595 8.29208 48.8274 8.18015 49.0412 7.95628C49.255 7.73242 49.3619 7.44441 49.3619 7.09225C49.3619 6.7401 49.2563 6.45461 49.045 6.23577C48.8362 6.01442 48.5683 5.90374 48.2413 5.90374ZM51.6522 3.34939C51.8333 3.34939 51.988 3.41479 52.1163 3.54559C52.2471 3.67638 52.3125 3.83485 52.3125 4.02099C52.3125 4.20461 52.2483 4.36182 52.12 4.49262C51.9918 4.62091 51.8383 4.68505 51.6597 4.68505C51.4761 4.68505 51.3189 4.61965 51.1881 4.48885C51.0598 4.35553 50.9957 4.19455 50.9957 4.0059C50.9957 3.82479 51.0598 3.6701 51.1881 3.54181C51.3164 3.41353 51.4711 3.34939 51.6522 3.34939ZM51.1353 5.03971H52.1691V9.14479H51.1353V5.03971ZM56.1383 3.45503H57.1646V9.14479H56.1383V8.71089C55.9371 8.90206 55.7346 9.04041 55.5309 9.12593C55.3297 9.20894 55.1108 9.25044 54.8744 9.25044C54.3436 9.25044 53.8846 9.04544 53.4972 8.63543C53.1098 8.22291 52.9162 7.71103 52.9162 7.0998C52.9162 6.46593 53.1036 5.9465 53.4783 5.54153C53.8531 5.13656 54.3084 4.93407 54.8442 4.93407C55.0907 4.93407 55.3221 4.9806 55.5384 5.07367C55.7548 5.16674 55.9547 5.30634 56.1383 5.49248V3.45503ZM55.0555 5.88488C54.736 5.88488 54.4707 5.99807 54.2594 6.22445C54.0481 6.44832 53.9424 6.73633 53.9424 7.08848C53.9424 7.44315 54.0493 7.73493 54.2631 7.96383C54.4795 8.19273 54.7448 8.30718 55.0593 8.30718C55.3837 8.30718 55.6529 8.19524 55.8667 7.97138C56.0805 7.74499 56.1874 7.44944 56.1874 7.08471C56.1874 6.72753 56.0805 6.43826 55.8667 6.21691C55.6529 5.99555 55.3825 5.88488 55.0555 5.88488Z" fill="white"/>
<path d="M33.6806 15.7361H30.3716C30.4194 16.0279 30.5465 16.2606 30.7527 16.4341C30.9615 16.6052 31.2269 16.6907 31.5488 16.6907C31.9337 16.6907 32.2644 16.5561 32.5411 16.287L33.4089 16.6945C33.1926 17.0013 32.9335 17.229 32.6317 17.3774C32.3298 17.5233 31.9714 17.5962 31.5564 17.5962C30.9124 17.5962 30.388 17.3937 29.983 16.9888C29.578 16.5813 29.3755 16.0719 29.3755 15.4607C29.3755 14.8344 29.5768 14.3149 29.9792 13.9024C30.3842 13.4874 30.8911 13.2799 31.4998 13.2799C32.1462 13.2799 32.6719 13.4874 33.0769 13.9024C33.4819 14.3149 33.6844 14.8608 33.6844 15.5399L33.6806 15.7361ZM32.6468 14.9249C32.5789 14.696 32.4443 14.5099 32.2431 14.3665C32.0444 14.2231 31.8129 14.1514 31.5488 14.1514C31.2621 14.1514 31.0105 14.2319 30.7942 14.3929C30.6584 14.4935 30.5326 14.6709 30.4169 14.9249H32.6468ZM34.5182 13.3855H35.5445V13.8043C35.7784 13.6081 35.9897 13.4723 36.1784 13.3968C36.3695 13.3188 36.5645 13.2799 36.7632 13.2799C37.1707 13.2799 37.5165 13.422 37.8008 13.7062C38.0397 13.9477 38.1592 14.3049 38.1592 14.7778V17.4906H37.1405V15.6908C37.1405 15.2003 37.1179 14.8746 37.0726 14.7136C37.0298 14.5526 36.9531 14.4306 36.8424 14.3476C36.7343 14.2621 36.5997 14.2193 36.4387 14.2193C36.2299 14.2193 36.0501 14.2898 35.8992 14.4306C35.7507 14.569 35.6476 14.7614 35.5898 15.0079C35.5596 15.1362 35.5445 15.4141 35.5445 15.8418V17.4906H34.5182V13.3855ZM39.2836 11.8725H40.3099V13.3855H40.9211V14.2722H40.3099V17.4906H39.2836V14.2722H38.7554V13.3855H39.2836V11.8725ZM45.5884 15.7361H42.2794C42.3272 16.0279 42.4542 16.2606 42.6605 16.4341C42.8692 16.6052 43.1346 16.6907 43.4566 16.6907C43.8414 16.6907 44.1722 16.5561 44.4489 16.287L45.3167 16.6945C45.1004 17.0013 44.8413 17.229 44.5394 17.3774C44.2376 17.5233 43.8792 17.5962 43.4641 17.5962C42.8202 17.5962 42.2957 17.3937 41.8908 16.9888C41.4858 16.5813 41.2833 16.0719 41.2833 15.4607C41.2833 14.8344 41.4845 14.3149 41.887 13.9024C42.292 13.4874 42.7988 13.2799 43.4075 13.2799C44.054 13.2799 44.5797 13.4874 44.9847 13.9024C45.3896 14.3149 45.5921 14.8608 45.5921 15.5399L45.5884 15.7361ZM44.5545 14.9249C44.4866 14.696 44.352 14.5099 44.1508 14.3665C43.9521 14.2231 43.7207 14.1514 43.4566 14.1514C43.1698 14.1514 42.9183 14.2319 42.702 14.3929C42.5661 14.4935 42.4404 14.6709 42.3247 14.9249H44.5545ZM46.1845 13.3855H47.0674V13.9024C47.163 13.6987 47.29 13.544 47.4485 13.4383C47.6069 13.3327 47.7805 13.2799 47.9691 13.2799C48.1025 13.2799 48.2421 13.3151 48.388 13.3855L48.0672 14.2722C47.9465 14.2118 47.8472 14.1816 47.7692 14.1816C47.6107 14.1816 47.4761 14.2797 47.3655 14.4759C47.2573 14.6721 47.2032 15.057 47.2032 15.6305L47.207 15.8304V17.4906H46.1845V13.3855ZM49.9236 13.3855V13.8383C50.1097 13.6521 50.311 13.5125 50.5273 13.4195C50.7436 13.3264 50.975 13.2799 51.2215 13.2799C51.7573 13.2799 52.2126 13.4823 52.5874 13.8873C52.9622 14.2923 53.1495 14.8117 53.1495 15.4456C53.1495 16.0568 52.9559 16.5687 52.5685 16.9812C52.1811 17.3912 51.7221 17.5962 51.1913 17.5962C50.9549 17.5962 50.7348 17.5547 50.5311 17.4717C50.3273 17.3862 50.1248 17.2479 49.9236 17.0567V18.9923H48.9011V13.3855H49.9236ZM51.0065 14.2307C50.682 14.2307 50.4128 14.3413 50.199 14.5627C49.9852 14.784 49.8783 15.0733 49.8783 15.4305C49.8783 15.7952 49.9852 16.0908 50.199 16.3172C50.4128 16.541 50.682 16.653 51.0065 16.653C51.3209 16.653 51.585 16.5385 51.7988 16.3096C52.0151 16.0807 52.1233 15.7889 52.1233 15.4343C52.1233 15.0821 52.0176 14.7941 51.8063 14.5702C51.5951 14.3439 51.3284 14.2307 51.0065 14.2307ZM53.7608 13.3855H54.6437V13.9024C54.7393 13.6987 54.8663 13.544 55.0248 13.4383C55.1832 13.3327 55.3568 13.2799 55.5454 13.2799C55.6788 13.2799 55.8184 13.3151 55.9642 13.3855L55.6435 14.2722C55.5228 14.2118 55.4234 14.1816 55.3455 14.1816C55.187 14.1816 55.0524 14.2797 54.9417 14.4759C54.8336 14.6721 54.7795 15.057 54.7795 15.6305L54.7833 15.8304V17.4906H53.7608V13.3855ZM56.8811 11.6952C57.0622 11.6952 57.2169 11.7606 57.3452 11.8914C57.476 12.0222 57.5414 12.1806 57.5414 12.3668C57.5414 12.5504 57.4772 12.7076 57.349 12.8384C57.2207 12.9667 57.0672 13.0308 56.8886 13.0308C56.705 13.0308 56.5478 12.9654 56.417 12.8346C56.2887 12.7013 56.2246 12.5403 56.2246 12.3517C56.2246 12.1706 56.2887 12.0159 56.417 11.8876C56.5453 11.7593 56.7 11.6952 56.8811 11.6952ZM56.3642 13.3855H57.398V17.4906H56.3642V13.3855ZM60.8466 13.959L60.2089 14.5967C59.9498 14.3401 59.7147 14.2118 59.5034 14.2118C59.3877 14.2118 59.2971 14.237 59.2317 14.2873C59.1663 14.3351 59.1336 14.3954 59.1336 14.4684C59.1336 14.5237 59.1537 14.5753 59.194 14.6231C59.2367 14.6683 59.3399 14.7312 59.5034 14.8117L59.8807 15.0004C60.2781 15.1966 60.551 15.3965 60.6994 15.6003C60.8478 15.804 60.922 16.043 60.922 16.3172C60.922 16.6819 60.7875 16.9863 60.5183 17.2302C60.2517 17.4742 59.8932 17.5962 59.443 17.5962C58.8443 17.5962 58.3664 17.3623 58.0092 16.8944L58.6431 16.204C58.7638 16.3448 58.9047 16.4593 59.0657 16.5473C59.2292 16.6328 59.3738 16.6756 59.4996 16.6756C59.6354 16.6756 59.7448 16.6429 59.8278 16.5775C59.9109 16.5121 59.9524 16.4366 59.9524 16.3511C59.9524 16.1927 59.8027 16.038 59.5034 15.887L59.1562 15.7135C58.4922 15.3789 58.1602 14.9601 58.1602 14.457C58.1602 14.1326 58.2847 13.8559 58.5337 13.627C58.7852 13.3956 59.1059 13.2799 59.4958 13.2799C59.7624 13.2799 60.0127 13.339 60.2467 13.4572C60.4831 13.5729 60.6831 13.7402 60.8466 13.959ZM65.8496 15.7361H62.5407C62.5885 16.0279 62.7155 16.2606 62.9218 16.4341C63.1305 16.6052 63.3959 16.6907 63.7179 16.6907C64.1027 16.6907 64.4335 16.5561 64.7102 16.287L65.578 16.6945C65.3617 17.0013 65.1026 17.229 64.8007 17.3774C64.4989 17.5233 64.1404 17.5962 63.7254 17.5962C63.0815 17.5962 62.557 17.3937 62.152 16.9888C61.7471 16.5813 61.5446 16.0719 61.5446 15.4607C61.5446 14.8344 61.7458 14.3149 62.1483 13.9024C62.5532 13.4874 63.0601 13.2799 63.6688 13.2799C64.3153 13.2799 64.841 13.4874 65.246 13.9024C65.6509 14.3149 65.8534 14.8608 65.8534 15.5399L65.8496 15.7361ZM64.8158 14.9249C64.7479 14.696 64.6133 14.5099 64.4121 14.3665C64.2134 14.2231 63.982 14.1514 63.7179 14.1514C63.4311 14.1514 63.1796 14.2319 62.9633 14.3929C62.8274 14.4935 62.7017 14.6709 62.5859 14.9249H64.8158Z" fill="white"/>
<path d="M28.1616 21.7305H29.0445V22.2474C29.1401 22.0436 29.2671 21.889 29.4256 21.7833C29.5841 21.6777 29.7576 21.6248 29.9463 21.6248C30.0796 21.6248 30.2192 21.6601 30.3651 21.7305L30.0444 22.6172C29.9236 22.5568 29.8243 22.5266 29.7463 22.5266C29.5878 22.5266 29.4533 22.6247 29.3426 22.8209C29.2344 23.0171 29.1804 23.4019 29.1804 23.9754L29.1841 24.1754V25.8356H28.1616V21.7305ZM34.9909 24.0811H31.6819C31.7297 24.3729 31.8567 24.6055 32.063 24.7791C32.2717 24.9502 32.5371 25.0357 32.8591 25.0357C33.2439 25.0357 33.5747 24.9011 33.8514 24.632L34.7192 25.0394C34.5029 25.3463 34.2438 25.574 33.9419 25.7224C33.6401 25.8683 33.2817 25.9412 32.8666 25.9412C32.2227 25.9412 31.6982 25.7387 31.2933 25.3337C30.8883 24.9263 30.6858 24.4169 30.6858 23.8057C30.6858 23.1793 30.887 22.6599 31.2895 22.2474C31.6945 21.8324 32.2013 21.6248 32.81 21.6248C33.4565 21.6248 33.9822 21.8324 34.3872 22.2474C34.7921 22.6599 34.9946 23.2057 34.9946 23.8849L34.9909 24.0811ZM33.957 23.2699C33.8891 23.041 33.7545 22.8549 33.5533 22.7115C33.3546 22.5681 33.1232 22.4964 32.8591 22.4964C32.5723 22.4964 32.3208 22.5769 32.1045 22.7379C31.9686 22.8385 31.8429 23.0158 31.7272 23.2699H33.957ZM39.8468 22.5606L38.9903 23.0322C38.8293 22.8637 38.6696 22.7467 38.5111 22.6813C38.3552 22.6159 38.1715 22.5832 37.9602 22.5832C37.5754 22.5832 37.2635 22.6989 37.0245 22.9303C36.7881 23.1592 36.6699 23.4535 36.6699 23.8132C36.6699 24.1628 36.7843 24.4483 37.0132 24.6697C37.2421 24.891 37.5427 25.0017 37.915 25.0017C38.3753 25.0017 38.7337 24.8445 38.9903 24.5301L39.8015 25.0847C39.3613 25.6557 38.74 25.9412 37.9376 25.9412C37.2157 25.9412 36.6497 25.7274 36.2397 25.2998C35.8322 24.8722 35.6285 24.3716 35.6285 23.7981C35.6285 23.4007 35.7279 23.0347 35.9266 22.7002C36.1253 22.3656 36.402 22.1028 36.7566 21.9116C37.1138 21.7204 37.5125 21.6248 37.9527 21.6248C38.3602 21.6248 38.7262 21.7066 39.0507 21.8701C39.3751 22.0311 39.6405 22.2612 39.8468 22.5606ZM42.7067 21.6248C43.0941 21.6248 43.4576 21.7217 43.7972 21.9154C44.1392 22.109 44.4059 22.3719 44.597 22.7039C44.7882 23.036 44.8838 23.3944 44.8838 23.7793C44.8838 24.1666 44.787 24.5288 44.5933 24.8659C44.4021 25.2029 44.1405 25.4671 43.8085 25.6582C43.4764 25.8469 43.1105 25.9412 42.7105 25.9412C42.1219 25.9412 41.6188 25.7324 41.2013 25.3149C40.7863 24.8948 40.5787 24.3855 40.5787 23.7868C40.5787 23.1454 40.8139 22.6109 41.2843 22.1832C41.6968 21.811 42.171 21.6248 42.7067 21.6248ZM42.7218 22.5945C42.4024 22.5945 42.1358 22.7064 41.9219 22.9303C41.7107 23.1517 41.605 23.4359 41.605 23.783C41.605 24.1402 41.7094 24.4295 41.9182 24.6508C42.1295 24.8722 42.3961 24.9829 42.7181 24.9829C43.04 24.9829 43.3079 24.8709 43.5217 24.6471C43.7355 24.4232 43.8424 24.1352 43.8424 23.783C43.8424 23.4309 43.7368 23.1454 43.5255 22.9265C43.3167 22.7052 43.0488 22.5945 42.7218 22.5945ZM45.7214 21.7305H46.7552V22.2021C46.9313 22.0084 47.1262 21.8638 47.34 21.7682C47.5564 21.6726 47.7916 21.6248 48.0456 21.6248C48.3022 21.6248 48.5336 21.6877 48.7399 21.8135C48.9461 21.9393 49.1121 22.1229 49.2379 22.3644C49.4014 22.1229 49.6014 21.9393 49.8378 21.8135C50.0768 21.6877 50.3371 21.6248 50.6188 21.6248C50.9106 21.6248 51.1672 21.6928 51.3885 21.8286C51.6099 21.9644 51.7684 22.1417 51.8639 22.3606C51.962 22.5794 52.0111 22.9353 52.0111 23.4284V25.8356H50.9735V23.7528C50.9735 23.2875 50.9156 22.9731 50.7999 22.8096C50.6842 22.6436 50.5107 22.5606 50.2793 22.5606C50.1032 22.5606 49.9447 22.6109 49.8039 22.7115C49.6655 22.8121 49.5624 22.9517 49.4945 23.1303C49.4265 23.3064 49.3926 23.5906 49.3926 23.983V25.8356H48.355V23.8472C48.355 23.4799 48.3273 23.2146 48.272 23.0511C48.2192 22.885 48.1387 22.7618 48.0305 22.6813C47.9224 22.6008 47.7916 22.5606 47.6381 22.5606C47.4671 22.5606 47.3111 22.6121 47.1703 22.7152C47.0319 22.8159 46.9275 22.958 46.8571 23.1416C46.7892 23.3252 46.7552 23.6145 46.7552 24.0094V25.8356H45.7214V21.7305ZM52.9883 21.7305H54.0221V22.2021C54.1982 22.0084 54.3931 21.8638 54.6069 21.7682C54.8233 21.6726 55.0585 21.6248 55.3125 21.6248C55.5691 21.6248 55.8005 21.6877 56.0067 21.8135C56.213 21.9393 56.379 22.1229 56.5048 22.3644C56.6683 22.1229 56.8683 21.9393 57.1047 21.8135C57.3437 21.6877 57.604 21.6248 57.8857 21.6248C58.1775 21.6248 58.4341 21.6928 58.6554 21.8286C58.8768 21.9644 59.0353 22.1417 59.1308 22.3606C59.2289 22.5794 59.278 22.9353 59.278 23.4284V25.8356H58.2404V23.7528C58.2404 23.2875 58.1825 22.9731 58.0668 22.8096C57.9511 22.6436 57.7776 22.5606 57.5462 22.5606C57.3701 22.5606 57.2116 22.6109 57.0707 22.7115C56.9324 22.8121 56.8293 22.9517 56.7614 23.1303C56.6934 23.3064 56.6595 23.5906 56.6595 23.983V25.8356H55.6219V23.8472C55.6219 23.4799 55.5942 23.2146 55.5389 23.0511C55.4861 22.885 55.4056 22.7618 55.2974 22.6813C55.1893 22.6008 55.0585 22.5606 54.905 22.5606C54.734 22.5606 54.578 22.6121 54.4372 22.7152C54.2988 22.8159 54.1944 22.958 54.124 23.1416C54.0561 23.3252 54.0221 23.6145 54.0221 24.0094V25.8356H52.9883V21.7305ZM64.3754 24.0811H61.0664C61.1142 24.3729 61.2412 24.6055 61.4475 24.7791C61.6563 24.9502 61.9216 25.0357 62.2436 25.0357C62.6285 25.0357 62.9592 24.9011 63.2359 24.632L64.1037 25.0394C63.8874 25.3463 63.6283 25.574 63.3265 25.7224C63.0246 25.8683 62.6662 25.9412 62.2512 25.9412C61.6072 25.9412 61.0828 25.7387 60.6778 25.3337C60.2728 24.9263 60.0703 24.4169 60.0703 23.8057C60.0703 23.1793 60.2716 22.6599 60.674 22.2474C61.079 21.8324 61.5858 21.6248 62.1946 21.6248C62.841 21.6248 63.3667 21.8324 63.7717 22.2474C64.1767 22.6599 64.3792 23.2057 64.3792 23.8849L64.3754 24.0811ZM63.3416 23.2699C63.2736 23.041 63.1391 22.8549 62.9378 22.7115C62.7391 22.5681 62.5077 22.4964 62.2436 22.4964C61.9569 22.4964 61.7053 22.5769 61.489 22.7379C61.3532 22.8385 61.2274 23.0158 61.1117 23.2699H63.3416ZM65.213 21.7305H66.2393V22.1493C66.4732 21.9531 66.6845 21.8173 66.8731 21.7418C67.0643 21.6638 67.2592 21.6248 67.458 21.6248C67.8655 21.6248 68.2113 21.767 68.4956 22.0512C68.7345 22.2927 68.854 22.6499 68.854 23.1227V25.8356H67.8353V24.0358C67.8353 23.5453 67.8126 23.2196 67.7674 23.0586C67.7246 22.8976 67.6479 22.7756 67.5372 22.6926C67.429 22.6071 67.2945 22.5643 67.1335 22.5643C66.9247 22.5643 66.7449 22.6348 66.5939 22.7756C66.4455 22.914 66.3424 23.1064 66.2845 23.3529C66.2544 23.4812 66.2393 23.7591 66.2393 24.1867V25.8356H65.213V21.7305ZM72.8874 20.1458H73.9137V25.8356H72.8874V25.4017C72.6862 25.5928 72.4837 25.7312 72.2799 25.8167C72.0787 25.8997 71.8599 25.9412 71.6234 25.9412C71.0927 25.9412 70.6336 25.7362 70.2462 25.3262C69.8589 24.9137 69.6652 24.4018 69.6652 23.7906C69.6652 23.1567 69.8526 22.6373 70.2274 22.2323C70.6022 21.8273 71.0575 21.6248 71.5932 21.6248C71.8397 21.6248 72.0711 21.6714 72.2875 21.7644C72.5038 21.8575 72.7038 21.9971 72.8874 22.1832V20.1458ZM71.8045 22.5756C71.4851 22.5756 71.2197 22.6888 71.0084 22.9152C70.7971 23.1391 70.6915 23.4271 70.6915 23.7793C70.6915 24.1339 70.7984 24.4257 71.0122 24.6546C71.2285 24.8835 71.4939 24.9979 71.8083 24.9979C72.1328 24.9979 72.4019 24.886 72.6157 24.6621C72.8295 24.4358 72.9364 24.1402 72.9364 23.7755C72.9364 23.4183 72.8295 23.129 72.6157 22.9077C72.4019 22.6863 72.1315 22.5756 71.8045 22.5756ZM79.0676 24.0811H75.7587C75.8065 24.3729 75.9335 24.6055 76.1398 24.7791C76.3485 24.9502 76.6139 25.0357 76.9359 25.0357C77.3207 25.0357 77.6515 24.9011 77.9282 24.632L78.796 25.0394C78.5797 25.3463 78.3206 25.574 78.0187 25.7224C77.7169 25.8683 77.3584 25.9412 76.9434 25.9412C76.2995 25.9412 75.775 25.7387 75.3701 25.3337C74.9651 24.9263 74.7626 24.4169 74.7626 23.8057C74.7626 23.1793 74.9638 22.6599 75.3663 22.2474C75.7713 21.8324 76.2781 21.6248 76.8868 21.6248C77.5333 21.6248 78.059 21.8324 78.464 22.2474C78.8689 22.6599 79.0714 23.2057 79.0714 23.8849L79.0676 24.0811ZM78.0338 23.2699C77.9659 23.041 77.8313 22.8549 77.6301 22.7115C77.4314 22.5681 77.2 22.4964 76.9359 22.4964C76.6491 22.4964 76.3976 22.5769 76.1813 22.7379C76.0454 22.8385 75.9197 23.0158 75.804 23.2699H78.0338ZM82.9388 20.1458H83.9651V25.8356H82.9388V25.4017C82.7376 25.5928 82.5351 25.7312 82.3313 25.8167C82.1301 25.8997 81.9113 25.9412 81.6748 25.9412C81.1441 25.9412 80.685 25.7362 80.2977 25.3262C79.9103 24.9137 79.7166 24.4018 79.7166 23.7906C79.7166 23.1567 79.904 22.6373 80.2788 22.2323C80.6536 21.8273 81.1089 21.6248 81.6446 21.6248C81.8911 21.6248 82.1226 21.6714 82.3389 21.7644C82.5552 21.8575 82.7552 21.9971 82.9388 22.1832V20.1458ZM81.8559 22.5756C81.5365 22.5756 81.2711 22.6888 81.0598 22.9152C80.8485 23.1391 80.7429 23.4271 80.7429 23.7793C80.7429 24.1339 80.8498 24.4257 81.0636 24.6546C81.2799 24.8835 81.5453 24.9979 81.8597 24.9979C82.1842 24.9979 82.4533 24.886 82.6671 24.6621C82.8809 24.4358 82.9878 24.1402 82.9878 23.7755C82.9878 23.4183 82.8809 23.129 82.6671 22.9077C82.4533 22.6863 82.1829 22.5756 81.8559 22.5756Z" fill="white"/>
</svg>
