<svg width="26" height="45" viewBox="0 0 26 45" fill="none" xmlns="http://www.w3.org/2000/svg">
<path d="M24.7028 38.3493V39.1463H24.5388V38.3493H24.7028ZM24.9487 38.3493V38.478H24.2969V38.3493H24.9487ZM25.1177 38.3493H25.2571L25.4622 38.9345L25.6674 38.3493H25.8067L25.5182 39.1463H25.4063L25.1177 38.3493ZM25.0425 38.3493H25.1812L25.2065 38.9197V39.1463H25.0425V38.3493ZM25.7431 38.3493H25.8826V39.1463H25.7179V38.9197L25.7431 38.3493Z" fill="white"/>
<path d="M25.9998 0H0.00683594V25.8127H25.9998V0Z" fill="white"/>
<path d="M5.28284 4.9645C5.19262 4.79948 5.06856 4.67384 4.91067 4.58758C4.75279 4.50132 4.56858 4.45819 4.35806 4.45819C4.12498 4.45819 3.91822 4.51069 3.73777 4.61571C3.55733 4.72072 3.41636 4.87073 3.31484 5.06577C3.21334 5.26076 3.1626 5.4858 3.1626 5.74084C3.1626 6.00338 3.21334 6.23217 3.31484 6.42716C3.42011 6.62221 3.56484 6.7722 3.74905 6.87725C3.93325 6.98224 4.14753 7.03474 4.39189 7.03474C4.69264 7.03474 4.93887 6.95599 5.13059 6.79844C5.32232 6.6372 5.44826 6.41407 5.5084 6.12903H4.15505V5.52705H6.2866V6.21342C6.23396 6.48716 6.12117 6.74035 5.94823 6.97284C5.77531 7.20538 5.55163 7.39292 5.2772 7.53542C5.00654 7.67421 4.70203 7.74355 4.3637 7.74355C3.98401 7.74355 3.64003 7.65921 3.33177 7.49042C3.02726 7.31793 2.78666 7.07973 2.60998 6.77595C2.43705 6.47216 2.35059 6.12712 2.35059 5.74084C2.35059 5.35456 2.43705 5.0095 2.60998 4.70572C2.78666 4.39819 3.02726 4.16003 3.33177 3.99125C3.64003 3.81874 3.98212 3.73248 4.35806 3.73248C4.80165 3.73248 5.18699 3.84124 5.51404 4.05877C5.8411 4.27255 6.06668 4.57445 6.19074 4.9645H5.28284ZM7.6601 5.07702C7.76163 4.91199 7.8932 4.7826 8.05482 4.68884C8.22025 4.59508 8.40822 4.5482 8.61872 4.5482V5.37515H8.41007C8.16195 5.37515 7.97398 5.4333 7.84616 5.54954C7.7221 5.66585 7.6601 5.86833 7.6601 6.15712V7.70981H6.87067V4.59321H7.6601V5.07702ZM12.0545 6.08403C12.0545 6.19652 12.047 6.29777 12.032 6.38782H9.7482C9.76698 6.6128 9.84591 6.7891 9.98505 6.91659C10.1241 7.04414 10.2952 7.10788 10.4982 7.10788C10.7914 7.10788 11.0001 6.98224 11.1241 6.73095H11.9756C11.8854 7.03099 11.7124 7.27853 11.4568 7.47357C11.2012 7.66481 10.8873 7.76046 10.5151 7.76046C10.2143 7.76046 9.94368 7.69481 9.70307 7.56357C9.46622 7.42852 9.28016 7.23913 9.14483 6.99534C9.01326 6.7516 8.94745 6.47031 8.94745 6.15152C8.94745 5.82899 9.01326 5.5458 9.14483 5.30206C9.27641 5.05826 9.46062 4.87073 9.69747 4.73948C9.93426 4.60821 10.2068 4.54257 10.5151 4.54257C10.8121 4.54257 11.0771 4.60633 11.3102 4.73385C11.547 4.86136 11.7293 5.04325 11.8572 5.27956C11.9887 5.51205 12.0545 5.78024 12.0545 6.08403ZM11.2369 5.85899C11.2331 5.65644 11.1598 5.4952 11.0169 5.37515C10.8741 5.25141 10.6993 5.18951 10.4926 5.18951C10.297 5.18951 10.1316 5.24951 9.99632 5.36956C9.86475 5.4858 9.78391 5.64894 9.75381 5.85899H11.2369ZM12.4278 6.14028C12.4278 5.82524 12.4898 5.5458 12.6139 5.30206C12.7416 5.05826 12.9127 4.87073 13.127 4.73948C13.3451 4.60821 13.5875 4.54257 13.8544 4.54257C14.0875 4.54257 14.2905 4.58945 14.4635 4.68321C14.6401 4.77697 14.781 4.89511 14.8864 5.03764V4.59321H15.6815V7.70981H14.8864V7.25413C14.7848 7.40042 14.6439 7.52232 14.4635 7.61981C14.2868 7.71356 14.0819 7.76046 13.8488 7.76046C13.5856 7.76046 13.3451 7.69296 13.127 7.55791C12.9127 7.42292 12.7416 7.23353 12.6139 6.98974C12.4898 6.7422 12.4278 6.45906 12.4278 6.14028ZM14.8864 6.15152C14.8864 5.96023 14.8488 5.79709 14.7736 5.6621C14.6984 5.5233 14.5969 5.4183 14.469 5.34706C14.3412 5.27206 14.204 5.23451 14.0574 5.23451C13.9108 5.23451 13.7755 5.27016 13.6514 5.3414C13.5274 5.41271 13.4259 5.5177 13.3469 5.65644C13.2717 5.79149 13.2341 5.95273 13.2341 6.14028C13.2341 6.32776 13.2717 6.49281 13.3469 6.6353C13.4259 6.7741 13.5274 6.881 13.6514 6.95599C13.7792 7.03099 13.9145 7.06848 14.0574 7.06848C14.204 7.06848 14.3412 7.03289 14.469 6.96159C14.5969 6.88659 14.6984 6.7816 14.7736 6.64655C14.8488 6.50781 14.8864 6.34276 14.8864 6.15152ZM17.3716 5.24016V6.74785C17.3716 6.85284 17.3961 6.92974 17.4449 6.97849C17.4976 7.02349 17.5841 7.04599 17.7043 7.04599H18.0709V7.70981H17.5746C16.9093 7.70981 16.5765 7.38727 16.5765 6.7422V5.24016H16.2044V4.59321H16.5765V3.82249H17.3716V4.59321H18.0709V5.24016H17.3716Z" fill="#101E55"/>
<path d="M5.41027 10.5453C5.41027 10.7553 5.35951 10.9522 5.25802 11.136C5.16027 11.3198 5.00426 11.4679 4.78998 11.5804C4.57946 11.6929 4.31255 11.7492 3.98925 11.7492H3.32949V13.2568H2.54004V9.33013H3.98925C4.29375 9.33013 4.55314 9.38263 4.76742 9.48768C4.9817 9.59267 5.14147 9.73707 5.24674 9.92081C5.35575 10.1046 5.41027 10.3127 5.41027 10.5453ZM3.95542 11.1135C4.17345 11.1135 4.33511 11.0647 4.44036 10.9672C4.54562 10.866 4.59826 10.7253 4.59826 10.5453C4.59826 10.1628 4.38398 9.97146 3.95542 9.97146H3.32949V11.1135H3.95542ZM6.76021 9.09384V13.2568H5.97078V9.09384H6.76021ZM7.33722 11.6873C7.33722 11.3722 7.39923 11.0929 7.52329 10.8491C7.6511 10.6053 7.82214 10.4177 8.03646 10.2865C8.25447 10.1553 8.49693 10.0896 8.76388 10.0896C8.99692 10.0896 9.19997 10.1365 9.37286 10.2302C9.54956 10.324 9.69055 10.4421 9.79577 10.5846V10.1403H10.5909V13.2568H9.79577V12.8011C9.6943 12.9474 9.55331 13.0693 9.37286 13.1668C9.19616 13.2606 8.99132 13.3075 8.75822 13.3075C8.49508 13.3075 8.25447 13.24 8.03646 13.105C7.82214 12.97 7.6511 12.7806 7.52329 12.5368C7.39923 12.2892 7.33722 12.0061 7.33722 11.6873ZM9.79577 11.6985C9.79577 11.5073 9.75821 11.3441 9.68304 11.2091C9.6078 11.0704 9.50634 10.9653 9.37852 10.8941C9.2507 10.8191 9.11347 10.7816 8.96688 10.7816C8.82028 10.7816 8.68489 10.8172 8.56083 10.8885C8.43677 10.9597 8.33531 11.0647 8.25638 11.2035C8.18114 11.3385 8.14358 11.4998 8.14358 11.6873C8.14358 11.8748 8.18114 12.0398 8.25638 12.1824C8.33531 12.3211 8.43677 12.4281 8.56083 12.5031C8.68865 12.5781 8.82398 12.6155 8.96688 12.6155C9.11347 12.6155 9.2507 12.5799 9.37852 12.5086C9.50634 12.4337 9.6078 12.3286 9.68304 12.1936C9.75821 12.0548 9.79577 11.8898 9.79577 11.6985ZM11.1589 11.6985C11.1589 11.376 11.2247 11.0947 11.3563 10.8547C11.4879 10.6109 11.6702 10.4234 11.9033 10.2921C12.1363 10.1571 12.4032 10.0896 12.704 10.0896C13.0912 10.0896 13.4108 10.1871 13.6626 10.3821C13.9182 10.5734 14.0893 10.8434 14.1758 11.1923H13.3243C13.2792 11.0572 13.2021 10.9522 13.0931 10.8772C12.9878 10.7984 12.8562 10.7591 12.6983 10.7591C12.4728 10.7591 12.2942 10.8416 12.1627 11.0066C12.0311 11.1679 11.9653 11.3985 11.9653 11.6985C11.9653 11.9948 12.0311 12.2255 12.1627 12.3905C12.2942 12.5517 12.4728 12.6325 12.6983 12.6325C13.0179 12.6325 13.2265 12.4899 13.3243 12.2049H14.1758C14.0893 12.5423 13.9182 12.8106 13.6626 13.0093C13.407 13.2081 13.0875 13.3075 12.704 13.3075C12.4032 13.3075 12.1363 13.2418 11.9033 13.1106C11.6702 12.9756 11.4879 12.788 11.3563 12.5481C11.2247 12.3042 11.1589 12.0211 11.1589 11.6985ZM17.6582 11.631C17.6582 11.7435 17.6507 11.8448 17.6356 11.9348H15.3518C15.3707 12.1599 15.4496 12.3361 15.5887 12.4637C15.7278 12.5912 15.8989 12.6549 16.1018 12.6549C16.3951 12.6549 16.6037 12.5293 16.7277 12.278H17.5792C17.489 12.5781 17.316 12.8256 17.0605 13.0206C16.8049 13.2118 16.4909 13.3075 16.1188 13.3075C15.818 13.3075 15.5474 13.2418 15.3067 13.1106C15.0698 12.9756 14.8838 12.7861 14.7485 12.5423C14.6168 12.2986 14.5511 12.0173 14.5511 11.6985C14.5511 11.376 14.6168 11.0929 14.7485 10.8491C14.88 10.6053 15.0643 10.4177 15.3011 10.2865C15.5379 10.1553 15.8105 10.0896 16.1188 10.0896C16.4157 10.0896 16.6808 10.1533 16.9138 10.2809C17.1507 10.4084 17.333 10.5903 17.4608 10.8266C17.5924 11.0591 17.6582 11.3273 17.6582 11.631ZM16.8405 11.406C16.8368 11.2035 16.7635 11.0422 16.6206 10.9222C16.4777 10.7984 16.3029 10.7366 16.0962 10.7366C15.9007 10.7366 15.7353 10.7966 15.5999 10.9166C15.4683 11.0329 15.3876 11.196 15.3575 11.406H16.8405Z" fill="#101E55"/>
<path d="M5.22356 14.8768V15.5124H4.17472V18.8034H3.38527V15.5124H2.33643V14.8768H5.22356ZM7.18674 18.8541C6.88604 18.8541 6.61532 18.7884 6.37477 18.6572C6.13416 18.5222 5.94429 18.3328 5.80521 18.089C5.66988 17.8452 5.60222 17.564 5.60222 17.2452C5.60222 16.9263 5.67176 16.6451 5.81087 16.4012C5.95371 16.1576 6.14728 15.97 6.39164 15.8388C6.63601 15.7038 6.90857 15.6362 7.20933 15.6362C7.51009 15.6362 7.7826 15.7038 8.02696 15.8388C8.27132 15.97 8.46305 16.1576 8.60213 16.4012C8.74497 16.6451 8.81639 16.9263 8.81639 17.2452C8.81639 17.564 8.74312 17.8452 8.59647 18.089C8.45363 18.3328 8.25815 18.5222 8.01003 18.6572C7.76572 18.7884 7.49125 18.8541 7.18674 18.8541ZM7.18674 18.1678C7.32963 18.1678 7.46306 18.134 7.58712 18.0665C7.71493 17.9952 7.81646 17.8902 7.89163 17.7514C7.96681 17.6127 8.00442 17.4439 8.00442 17.2452C8.00442 16.9489 7.92549 16.7219 7.76757 16.5644C7.61346 16.4032 7.42359 16.3226 7.19806 16.3226C6.97248 16.3226 6.78266 16.4032 6.6285 16.5644C6.47815 16.7219 6.40297 16.9489 6.40297 17.2452C6.40297 17.5414 6.47624 17.7703 6.62289 17.9315C6.77324 18.089 6.96121 18.1678 7.18674 18.1678Z" fill="#101E55"/>
<path d="M7.80644 20.4241L6.70683 24.3508H5.77643L5.03772 21.5549L4.26518 24.3508L3.3404 24.3565L2.28027 20.4241H3.12612L3.81971 23.4732L4.62045 20.4241H5.50011L6.25572 23.4563L6.95495 20.4241H7.80644ZM9.70912 24.4015C9.40836 24.4015 9.1377 24.3358 8.89709 24.2045C8.65654 24.0696 8.46667 23.8802 8.32759 23.6363C8.19226 23.3926 8.1246 23.1113 8.1246 22.7926C8.1246 22.4737 8.19411 22.1925 8.33319 21.9486C8.47609 21.7048 8.66966 21.5174 8.91402 21.3862C9.15839 21.2511 9.43089 21.1836 9.73165 21.1836C10.0324 21.1836 10.305 21.2511 10.5493 21.3862C10.7937 21.5174 10.9854 21.7048 11.1245 21.9486C11.2673 22.1925 11.3388 22.4737 11.3388 22.7926C11.3388 23.1113 11.2654 23.3926 11.1188 23.6363C10.976 23.8802 10.7805 24.0696 10.5324 24.2045C10.288 24.3358 10.0136 24.4015 9.70912 24.4015ZM9.70912 23.7152C9.85196 23.7152 9.98543 23.6814 10.1095 23.6139C10.2373 23.5426 10.3388 23.4376 10.414 23.2988C10.4892 23.1601 10.5267 22.9912 10.5267 22.7926C10.5267 22.4963 10.4478 22.2693 10.29 22.1118C10.1358 21.9505 9.94597 21.8699 9.72038 21.8699C9.49486 21.8699 9.30498 21.9505 9.15088 22.1118C9.00047 22.2693 8.92529 22.4963 8.92529 22.7926C8.92529 23.0888 8.99862 23.3176 9.14521 23.4789C9.29556 23.6363 9.48353 23.7152 9.70912 23.7152ZM12.7073 21.718C12.8088 21.553 12.9404 21.4236 13.1021 21.3299C13.2674 21.236 13.4554 21.1892 13.6659 21.1892V22.0162H13.4573C13.2091 22.0162 13.0212 22.0743 12.8935 22.1906C12.7693 22.3069 12.7073 22.5093 12.7073 22.7982V24.3508H11.9179V21.2342H12.7073V21.718ZM16.0473 24.3508L14.9872 23.0233V24.3508H14.1977V20.1879H14.9872V22.5563L16.0359 21.2342H17.0622L15.6863 22.7982L17.0735 24.3508H16.0473Z" fill="#101E55"/>
<path d="M25.9998 25.8127H0.00683594V36.0456H25.9998V25.8127Z" fill="#F0F0F0"/>
<path d="M12.9994 36.0453H25.9986L19.4985 40.3347L12.9994 44.6239L6.50028 40.3347L0 36.0453H12.9994Z" fill="#F0F0F0"/>
<path d="M5.2373 30.2496H6.00853C5.99305 30.5018 5.92342 30.7256 5.79959 30.9212C5.67751 31.1168 5.50641 31.2695 5.28631 31.3793C5.06791 31.4891 4.80481 31.544 4.497 31.544C4.25626 31.544 4.04045 31.5028 3.84958 31.4205C3.6587 31.3364 3.49533 31.2164 3.35948 31.0602C3.22535 30.9041 3.12304 30.7153 3.05254 30.4941C2.98204 30.2728 2.94678 30.0249 2.94678 29.7503V29.4905C2.94678 29.216 2.9829 28.9681 3.05512 28.7468C3.12906 28.5238 3.23395 28.3341 3.36981 28.1781C3.50738 28.022 3.67159 27.9019 3.86248 27.8179C4.05335 27.7337 4.26658 27.6917 4.50217 27.6917C4.81513 27.6917 5.0791 27.7484 5.29404 27.8615C5.51071 27.9748 5.67837 28.1308 5.79705 28.3299C5.91741 28.5289 5.98964 28.7554 6.01368 29.0092H5.23987C5.23127 28.8583 5.20118 28.7304 5.14959 28.6258C5.098 28.5195 5.01977 28.4398 4.91488 28.3866C4.8117 28.3316 4.67413 28.3041 4.50217 28.3041C4.3732 28.3041 4.26056 28.3282 4.16427 28.3763C4.06796 28.4242 3.98715 28.4972 3.92179 28.5949C3.85645 28.6928 3.80745 28.8162 3.77477 28.9656C3.74382 29.1131 3.72834 29.2864 3.72834 29.4853V29.7503C3.72834 29.9442 3.74296 30.1149 3.7722 30.2625C3.80142 30.4083 3.84614 30.5319 3.90633 30.633C3.96823 30.7326 4.04733 30.808 4.14363 30.8595C4.24164 30.9092 4.35944 30.9341 4.497 30.9341C4.65865 30.9341 4.79192 30.9084 4.89681 30.8569C5.00172 30.8054 5.08168 30.7291 5.1367 30.6279C5.19346 30.5267 5.22698 30.4006 5.2373 30.2496ZM7.75479 31.544C7.53816 31.544 7.34384 31.5096 7.17188 31.4411C6.99992 31.3707 6.85372 31.2738 6.73336 31.1503C6.61468 31.0267 6.52355 30.8836 6.45993 30.7205C6.39632 30.5558 6.36448 30.3809 6.36448 30.1956V30.0926C6.36448 29.8816 6.39458 29.6886 6.45479 29.5136C6.51494 29.3387 6.60092 29.1868 6.71273 29.0582C6.82622 28.9295 6.9638 28.8308 7.12542 28.7623C7.2871 28.6919 7.46934 28.6567 7.67228 28.6567C7.87001 28.6567 8.04544 28.6893 8.19845 28.7545C8.35151 28.8197 8.47962 28.9124 8.58282 29.0324C8.6877 29.1525 8.7668 29.2967 8.82008 29.4648C8.87341 29.6311 8.90005 29.8164 8.90005 30.0206V30.3293H6.68176V29.8352H8.17008V29.7787C8.17008 29.6757 8.15118 29.584 8.11333 29.5033C8.07722 29.421 8.02221 29.3558 7.94825 29.3078C7.87434 29.2597 7.77975 29.2357 7.66453 29.2357C7.56648 29.2357 7.48223 29.2571 7.41173 29.3C7.34124 29.3429 7.28363 29.403 7.23891 29.4802C7.19592 29.5574 7.16327 29.6483 7.14091 29.7529C7.12028 29.856 7.10993 29.9691 7.10993 30.0926V30.1956C7.10993 30.307 7.12542 30.41 7.15639 30.5044C7.18904 30.5987 7.23463 30.6803 7.29311 30.7488C7.35326 30.8175 7.42549 30.8706 7.50973 30.9084C7.59572 30.9461 7.69291 30.965 7.80125 30.965C7.93536 30.965 8.06006 30.9393 8.17522 30.8878C8.29217 30.8346 8.39277 30.7549 8.47702 30.6485L8.83816 31.0396C8.77969 31.1237 8.69971 31.2044 8.59825 31.2815C8.49851 31.3587 8.37815 31.4221 8.23716 31.472C8.09611 31.5199 7.93536 31.544 7.75479 31.544ZM10.0659 29.3155V31.4925H9.32308V28.7082H10.0221L10.0659 29.3155ZM10.9068 28.6901L10.894 29.3773C10.8578 29.3722 10.814 29.3678 10.7624 29.3643C10.7125 29.3593 10.6669 29.3567 10.6257 29.3567C10.5208 29.3567 10.4297 29.3704 10.3522 29.3978C10.2766 29.4236 10.213 29.4622 10.1614 29.5136C10.1115 29.5651 10.0737 29.6277 10.0479 29.7015C10.0238 29.7752 10.0101 29.8593 10.0066 29.9536L9.85699 29.9074C9.85699 29.7273 9.87508 29.5617 9.91119 29.4107C9.9473 29.258 9.99977 29.1251 10.0685 29.0118C10.139 28.8987 10.225 28.8112 10.3265 28.7494C10.4279 28.6875 10.544 28.6567 10.6747 28.6567C10.7159 28.6567 10.7581 28.6601 10.8011 28.667C10.8441 28.6722 10.8793 28.6799 10.9068 28.6901ZM12.7537 28.7082V29.2332H11.1287V28.7082H12.7537ZM11.5311 28.0212H12.2739V30.6536C12.2739 30.7343 12.2843 30.796 12.3049 30.8389C12.3273 30.8818 12.3599 30.9118 12.4029 30.9289C12.4459 30.9444 12.5001 30.9521 12.5654 30.9521C12.6118 30.9521 12.653 30.9504 12.6892 30.947C12.727 30.9418 12.7589 30.9367 12.7846 30.9315L12.7873 31.4771C12.7237 31.4976 12.6548 31.514 12.5809 31.526C12.507 31.538 12.4253 31.544 12.3358 31.544C12.1725 31.544 12.0297 31.5174 11.9076 31.4643C11.7873 31.4094 11.6944 31.3219 11.6291 31.2018C11.5637 31.0816 11.5311 30.9238 11.5311 30.7283V28.0212ZM13.9609 28.7082V31.4925H13.2154V28.7082H13.9609ZM13.1689 27.9825C13.1689 27.8744 13.2068 27.7853 13.2825 27.7148C13.3582 27.6446 13.4596 27.6094 13.5868 27.6094C13.7124 27.6094 13.8129 27.6446 13.8886 27.7148C13.966 27.7853 14.0048 27.8744 14.0048 27.9825C14.0048 28.0906 13.966 28.1798 13.8886 28.2501C13.8129 28.3205 13.7124 28.3556 13.5868 28.3556C13.4596 28.3556 13.3582 28.3205 13.2825 28.2501C13.2068 28.1798 13.1689 28.0906 13.1689 27.9825ZM15.5033 31.4925H14.758V28.5821C14.758 28.3453 14.806 28.1455 14.9024 27.9825C15.0004 27.8195 15.1397 27.696 15.3202 27.612C15.5024 27.5279 15.7226 27.4859 15.9806 27.4859C16.1267 27.4859 16.2686 27.5004 16.4061 27.5295C16.5437 27.5571 16.6855 27.5931 16.8318 27.6377L16.7234 28.2321C16.6289 28.203 16.5274 28.1755 16.419 28.1498C16.3107 28.124 16.18 28.1112 16.027 28.1112C15.8551 28.1112 15.7244 28.1514 15.6349 28.2321C15.5472 28.3111 15.5033 28.4278 15.5033 28.5821V31.4925ZM16.058 28.7082V29.2332H14.3426V28.7082H16.058ZM17.1774 28.7082V31.4925H16.4319V28.7082H17.1774ZM19.0835 31.544C18.8668 31.544 18.6725 31.5096 18.5006 31.4411C18.3286 31.3707 18.1825 31.2738 18.0621 31.1503C17.9434 31.0267 17.8523 30.8836 17.7887 30.7205C17.7251 30.5558 17.6933 30.3809 17.6933 30.1956V30.0926C17.6933 29.8816 17.7234 29.6886 17.7835 29.5136C17.8438 29.3387 17.9298 29.1868 18.0415 29.0582C18.155 28.9295 18.2926 28.8308 18.4542 28.7623C18.6159 28.6919 18.7981 28.6567 19.0011 28.6567C19.1987 28.6567 19.3742 28.6893 19.5272 28.7545C19.6803 28.8197 19.8084 28.9124 19.9116 29.0324C20.0164 29.1525 20.0955 29.2967 20.1489 29.4648C20.2021 29.6311 20.2289 29.8164 20.2289 30.0206V30.3293H18.0106V29.8352H19.4989V29.7787C19.4989 29.6757 19.4799 29.584 19.4421 29.5033C19.406 29.421 19.3509 29.3558 19.277 29.3078C19.2031 29.2597 19.1085 29.2357 18.9933 29.2357C18.8953 29.2357 18.8111 29.2571 18.7405 29.3C18.67 29.3429 18.6124 29.403 18.5676 29.4802C18.5246 29.5574 18.492 29.6483 18.4696 29.7529C18.449 29.856 18.4387 29.9691 18.4387 30.0926V30.1956C18.4387 30.307 18.4542 30.41 18.4852 30.5044C18.5178 30.5987 18.5634 30.6803 18.6218 30.7488C18.6821 30.8175 18.7543 30.8706 18.8385 30.9084C18.9245 30.9461 19.0217 30.965 19.13 30.965C19.2641 30.965 19.3888 30.9393 19.504 30.8878C19.6209 30.8346 19.7216 30.7549 19.8058 30.6485L20.1669 31.0396C20.1085 31.1237 20.0284 31.2044 19.9271 31.2815C19.8273 31.3587 19.7069 31.4221 19.5659 31.472C19.4248 31.5199 19.2641 31.544 19.0835 31.544ZM22.3001 30.8853V27.5398H23.0481V31.4925H22.3749L22.3001 30.8853ZM20.5358 30.1338V30.0798C20.5358 29.8671 20.5599 29.674 20.608 29.5008C20.6561 29.3258 20.7266 29.1757 20.8196 29.0505C20.9124 28.9251 21.0266 28.8282 21.1626 28.7597C21.2984 28.691 21.4532 28.6567 21.6269 28.6567C21.7902 28.6567 21.9329 28.691 22.0551 28.7597C22.1788 28.8282 22.2838 28.926 22.3698 29.053C22.4574 29.1783 22.528 29.3267 22.5813 29.4982C22.6346 29.6681 22.6732 29.8542 22.6973 30.0566V30.175C22.6732 30.3689 22.6346 30.549 22.5813 30.7153C22.528 30.8818 22.4574 31.0276 22.3698 31.1529C22.2838 31.2764 22.1788 31.3724 22.0551 31.4411C21.9312 31.5096 21.7868 31.544 21.6217 31.544C21.448 31.544 21.2933 31.5088 21.1574 31.4385C21.0233 31.3682 20.9097 31.2695 20.817 31.1426C20.7257 31.0155 20.6561 30.8663 20.608 30.6947C20.5599 30.5232 20.5358 30.3363 20.5358 30.1338ZM21.2786 30.0798V30.1338C21.2786 30.2488 21.2872 30.356 21.3045 30.4555C21.3234 30.555 21.3535 30.6433 21.3947 30.7205C21.4377 30.796 21.4927 30.8552 21.5598 30.898C21.6285 30.9393 21.712 30.9599 21.8101 30.9599C21.9373 30.9599 22.0422 30.9315 22.1246 30.875C22.2073 30.8166 22.27 30.7368 22.313 30.6356C22.3577 30.5344 22.3834 30.4177 22.3904 30.2856V29.9485C22.3852 29.8404 22.3698 29.7435 22.344 29.6577C22.3198 29.5702 22.2838 29.4956 22.2356 29.4339C22.1891 29.3722 22.1308 29.3241 22.0602 29.2897C21.9914 29.2555 21.9097 29.2383 21.8152 29.2383C21.7189 29.2383 21.6364 29.2606 21.5676 29.3052C21.4988 29.3481 21.4429 29.4072 21.3999 29.4827C21.3587 29.5582 21.3276 29.6475 21.307 29.7503C21.2881 29.8516 21.2786 29.9615 21.2786 30.0798Z" fill="#101E55"/>
<path d="M10.375 37.0926V38.8909H10.0049V37.0926H10.375ZM12.19 37.0926V38.8909H11.8186L11.0944 37.6854V38.8909H10.723V37.0926H11.0944L11.8198 38.2993V37.0926H12.19ZM13.0666 38.8909H12.6741L12.6766 38.6019H13.0666C13.164 38.6019 13.2461 38.5801 13.313 38.5364C13.3798 38.4919 13.4301 38.4273 13.4639 38.3424C13.4986 38.2576 13.516 38.1551 13.516 38.0349V37.9473C13.516 37.855 13.5061 37.774 13.4863 37.7039C13.4673 37.6339 13.4389 37.575 13.4008 37.5273C13.3628 37.4795 13.3162 37.4437 13.2609 37.4198C13.2056 37.3951 13.1421 37.3827 13.0703 37.3827H12.6667V37.0926H13.0703C13.1907 37.0926 13.3009 37.1132 13.4008 37.1543C13.5014 37.1946 13.5886 37.2527 13.662 37.3285C13.7355 37.4042 13.7921 37.4948 13.8317 37.6002C13.8721 37.7048 13.8923 37.8213 13.8923 37.9497V38.0349C13.8923 38.1626 13.8721 38.2791 13.8317 38.3844C13.7921 38.49 13.7355 38.5804 13.662 38.6562C13.5894 38.7311 13.5023 38.7892 13.4008 38.8303C13.3002 38.8707 13.1887 38.8909 13.0666 38.8909ZM12.8845 37.0926V38.8909H12.5132V37.0926H12.8845ZM14.5572 37.0926V38.8909H14.1869V37.0926H14.5572ZM15.6603 37.4001L15.17 38.8909H14.775L15.4449 37.0926H15.6962L15.6603 37.4001ZM16.0676 38.8909L15.576 37.4001L15.5364 37.0926H15.7902L16.4637 38.8909H16.0676ZM16.0453 38.2214V38.5118H15.0932V38.2214H16.0453Z" fill="#101E55"/>
<path d="M18.0386 22.5581H18.3653C18.4323 22.5581 18.4898 22.5681 18.5379 22.5881C18.5864 22.6081 18.6237 22.6375 18.6497 22.6767C18.6759 22.7159 18.6889 22.7641 18.6889 22.8213C18.6889 22.868 18.6808 22.9082 18.6648 22.9417C18.6493 22.9748 18.627 23.0026 18.5981 23.025C18.5697 23.047 18.536 23.0646 18.4976 23.0778L18.4405 23.1077H18.1565L18.1553 22.9675H18.3665C18.3981 22.9675 18.4244 22.9619 18.4452 22.9507C18.4662 22.9395 18.4818 22.9239 18.4921 22.9039C18.5031 22.884 18.5084 22.8608 18.5084 22.8344C18.5084 22.8065 18.5032 22.7823 18.4928 22.7619C18.4823 22.7416 18.4665 22.7259 18.4452 22.7151C18.424 22.7043 18.3974 22.6989 18.3653 22.6989H18.2191V23.4309H18.0386V22.5581ZM18.5283 23.4309L18.3285 23.0418L18.5193 23.0407L18.7214 23.4225V23.4309H18.5283Z" fill="white"/>
<path d="M7.51598 34.8535V35.0908H6.46422V34.8883L6.96156 34.356C7.01154 34.3004 7.051 34.2516 7.07984 34.2094C7.10873 34.1665 7.12947 34.1282 7.14213 34.0945C7.15553 34.06 7.16224 34.0274 7.16224 33.9965C7.16224 33.9501 7.15449 33.9103 7.13901 33.8773C7.12352 33.8436 7.10064 33.8176 7.07036 33.7993C7.04078 33.7811 7.0042 33.7719 6.96052 33.7719C6.91406 33.7719 6.87396 33.7831 6.84015 33.8056C6.80704 33.8281 6.78174 33.8594 6.76411 33.8995C6.74724 33.9395 6.7388 33.9849 6.7388 34.0355H6.43359C6.43359 33.9441 6.45544 33.8604 6.49906 33.7846C6.54269 33.708 6.60434 33.6472 6.68385 33.6022C6.76342 33.5565 6.85772 33.5336 6.96687 33.5336C7.07458 33.5336 7.16541 33.5512 7.23932 33.5864C7.31392 33.6208 7.37025 33.6707 7.40827 33.7361C7.44699 33.8007 7.46635 33.878 7.46635 33.968C7.46635 34.0186 7.45826 34.0681 7.44202 34.1166C7.42584 34.1645 7.40261 34.2122 7.37233 34.26C7.34281 34.3071 7.30687 34.3549 7.26463 34.4034C7.22239 34.4519 7.17558 34.5022 7.12421 34.5541L6.85703 34.8535H7.51598ZM8.78414 34.1883V34.454C8.78414 34.5693 8.77184 34.6687 8.74716 34.7524C8.72255 34.8353 8.68701 34.9034 8.64055 34.9569C8.59479 35.0096 8.54024 35.0486 8.47685 35.0739C8.41352 35.0992 8.34309 35.1119 8.26566 35.1119C8.20371 35.1119 8.14599 35.1041 8.09248 35.0886C8.03898 35.0725 7.99078 35.0476 7.94779 35.0138C7.90555 34.9801 7.86898 34.9375 7.83801 34.8863C7.80773 34.8342 7.7845 34.7724 7.76832 34.7007C7.75208 34.629 7.74399 34.5468 7.74399 34.454V34.1883C7.74399 34.0731 7.75636 33.9743 7.78098 33.8921C7.80634 33.8092 7.84188 33.7413 7.88764 33.6886C7.9341 33.6359 7.98899 33.5973 8.05238 33.5726C8.11571 33.5474 8.18609 33.5347 8.26358 33.5347C8.32552 33.5347 8.3829 33.5428 8.43565 33.559C8.48916 33.5744 8.53741 33.5986 8.58034 33.6317C8.62328 33.6647 8.65991 33.7072 8.69019 33.7593C8.72041 33.8105 8.74364 33.872 8.75987 33.9437C8.77605 34.0148 8.78414 34.0963 8.78414 34.1883ZM8.47899 34.494V34.1472C8.47899 34.0917 8.47581 34.0432 8.46946 34.0017C8.46385 33.9602 8.45501 33.9251 8.44305 33.8963C8.43109 33.8668 8.4163 33.8429 8.39873 33.8246C8.38111 33.8063 8.36106 33.793 8.33852 33.7846C8.31599 33.7761 8.29102 33.7719 8.26358 33.7719C8.22908 33.7719 8.19846 33.7786 8.1717 33.792C8.14564 33.8053 8.12345 33.8267 8.10514 33.8562C8.08688 33.8851 8.07278 33.9237 8.0629 33.9722C8.05377 34.02 8.0492 34.0783 8.0492 34.1472V34.494C8.0492 34.5496 8.05198 34.5984 8.05764 34.6406C8.064 34.6828 8.07312 34.719 8.08509 34.7492C8.09774 34.7787 8.11253 34.8029 8.12946 34.8219C8.14703 34.8402 8.16708 34.8535 8.18962 34.862C8.21284 34.8704 8.23821 34.8747 8.26566 34.8747C8.29946 34.8747 8.32939 34.868 8.35539 34.8546C8.38215 34.8406 8.40468 34.8188 8.423 34.7892C8.44201 34.7591 8.45611 34.7196 8.46524 34.6712C8.47437 34.6227 8.47899 34.5637 8.47899 34.494ZM10.0861 34.8535V35.0908H9.03434V34.8883L9.53174 34.356C9.58172 34.3004 9.62113 34.2516 9.65002 34.2094C9.67885 34.1665 9.6996 34.1282 9.71231 34.0945C9.72566 34.06 9.73236 34.0274 9.73236 33.9965C9.73236 33.9501 9.72462 33.9103 9.70913 33.8773C9.69365 33.8436 9.67076 33.8176 9.64049 33.7993C9.6109 33.7811 9.57432 33.7719 9.5307 33.7719C9.48418 33.7719 9.44408 33.7831 9.41028 33.8056C9.37723 33.8281 9.35186 33.8594 9.33424 33.8995C9.31736 33.9395 9.30893 33.9849 9.30893 34.0355H9.00372C9.00372 33.9441 9.02556 33.8604 9.06919 33.7846C9.11287 33.708 9.17447 33.6472 9.25403 33.6022C9.33354 33.5565 9.4279 33.5336 9.537 33.5336C9.6447 33.5336 9.73554 33.5512 9.80944 33.5864C9.88404 33.6208 9.94038 33.6707 9.9784 33.7361C10.0171 33.8007 10.0365 33.878 10.0365 33.968C10.0365 34.0186 10.0284 34.0681 10.0122 34.1166C9.99602 34.1645 9.97279 34.2122 9.94252 34.26C9.91293 34.3071 9.87705 34.3549 9.83481 34.4034C9.79257 34.4519 9.74571 34.5022 9.69434 34.5541L9.42721 34.8535H10.0861ZM11.3712 34.8535V35.0908H10.3194V34.8883L10.8168 34.356C10.8668 34.3004 10.9062 34.2516 10.9351 34.2094C10.9639 34.1665 10.9847 34.1282 10.9973 34.0945C11.0107 34.06 11.0175 34.0274 11.0175 33.9965C11.0175 33.9501 11.0097 33.9103 10.9942 33.8773C10.9787 33.8436 10.9559 33.8176 10.9256 33.7993C10.896 33.7811 10.8594 33.7719 10.8157 33.7719C10.7693 33.7719 10.7292 33.7831 10.6954 33.8056C10.6623 33.8281 10.637 33.8594 10.6193 33.8995C10.6025 33.9395 10.594 33.9849 10.594 34.0355H10.2888C10.2888 33.9441 10.3107 33.8604 10.3543 33.7846C10.3979 33.708 10.4595 33.6472 10.5391 33.6022C10.6186 33.5565 10.7129 33.5336 10.8221 33.5336C10.9298 33.5336 11.0206 33.5512 11.0945 33.5864C11.1691 33.6208 11.2255 33.6707 11.2635 33.7361C11.3022 33.8007 11.3216 33.878 11.3216 33.968C11.3216 34.0186 11.3135 34.0681 11.2972 34.1166C11.2811 34.1645 11.2578 34.2122 11.2275 34.26C11.198 34.3071 11.1621 34.3549 11.1198 34.4034C11.0776 34.4519 11.0308 34.5022 10.9794 34.5541L10.7122 34.8535H11.3712ZM12.7988 34.3127V34.551H12.2021V34.3127H12.7988ZM14.7163 34.8535V35.0908H13.6646V34.8883L14.1619 34.356C14.2119 34.3004 14.2513 34.2516 14.2802 34.2094C14.3091 34.1665 14.3299 34.1282 14.3425 34.0945C14.3559 34.06 14.3626 34.0274 14.3626 33.9965C14.3626 33.9501 14.3548 33.9103 14.3393 33.8773C14.3238 33.8436 14.301 33.8176 14.2707 33.7993C14.2412 33.7811 14.2045 33.7719 14.1609 33.7719C14.1144 33.7719 14.0743 33.7831 14.0405 33.8056C14.0074 33.8281 13.9821 33.8594 13.9645 33.8995C13.9476 33.9395 13.9391 33.9849 13.9391 34.0355H13.634C13.634 33.9441 13.6558 33.8604 13.6994 33.7846C13.7431 33.708 13.8047 33.6472 13.8842 33.6022C13.9637 33.5565 14.0581 33.5336 14.1672 33.5336C14.2749 33.5336 14.3657 33.5512 14.4396 33.5864C14.5143 33.6208 14.5706 33.6707 14.6086 33.7361C14.6473 33.8007 14.6667 33.878 14.6667 33.968C14.6667 34.0186 14.6586 34.0681 14.6424 34.1166C14.6262 34.1645 14.603 34.2122 14.5727 34.26C14.5431 34.3071 14.5072 34.3549 14.465 34.4034C14.4228 34.4519 14.376 34.5022 14.3245 34.5541L14.0574 34.8535H14.7163ZM15.9845 34.1883V34.454C15.9845 34.5693 15.9722 34.6687 15.9475 34.7524C15.9229 34.8353 15.8873 34.9034 15.8409 34.9569C15.7951 35.0096 15.7406 35.0486 15.6772 35.0739C15.6138 35.0992 15.5435 35.1119 15.466 35.1119C15.404 35.1119 15.3463 35.1041 15.2929 35.0886C15.2394 35.0725 15.1911 35.0476 15.1482 35.0138C15.1059 34.9801 15.0693 34.9375 15.0383 34.8863C15.0081 34.8342 14.9848 34.7724 14.9686 34.7007C14.9525 34.629 14.9444 34.5468 14.9444 34.454V34.1883C14.9444 34.0731 14.9567 33.9743 14.9813 33.8921C15.0067 33.8092 15.0422 33.7413 15.088 33.6886C15.1344 33.6359 15.1894 33.5973 15.2527 33.5726C15.3161 33.5474 15.3865 33.5347 15.4639 33.5347C15.5258 33.5347 15.5832 33.5428 15.636 33.559C15.6895 33.5744 15.7377 33.5986 15.7807 33.6317C15.8237 33.6647 15.8602 33.7072 15.8905 33.7593C15.9208 33.8105 15.944 33.872 15.9602 33.9437C15.9764 34.0148 15.9845 34.0963 15.9845 34.1883ZM15.6793 34.494V34.1472C15.6793 34.0917 15.6761 34.0432 15.6698 34.0017C15.6642 33.9602 15.6554 33.9251 15.6434 33.8963C15.6315 33.8668 15.6167 33.8429 15.5991 33.8246C15.5815 33.8063 15.5614 33.793 15.5389 33.7846C15.5164 33.7761 15.4913 33.7719 15.4639 33.7719C15.4294 33.7719 15.3988 33.7786 15.372 33.792C15.346 33.8053 15.3238 33.8267 15.3055 33.8562C15.2872 33.8851 15.2731 33.9237 15.2633 33.9722C15.2541 34.02 15.2495 34.0783 15.2495 34.1472V34.494C15.2495 34.5496 15.2524 34.5984 15.258 34.6406C15.2643 34.6828 15.2734 34.719 15.2855 34.7492C15.2981 34.7787 15.3129 34.8029 15.3298 34.8219C15.3474 34.8402 15.3675 34.8535 15.39 34.862C15.4132 34.8704 15.4385 34.8747 15.466 34.8747C15.4998 34.8747 15.5297 34.868 15.5558 34.8546C15.5825 34.8406 15.6051 34.8188 15.6234 34.7892C15.6423 34.7591 15.6564 34.7196 15.6656 34.6712C15.6748 34.6227 15.6793 34.5637 15.6793 34.494ZM17.2865 34.8535V35.0908H16.2347V34.8883L16.7321 34.356C16.782 34.3004 16.8215 34.2516 16.8503 34.2094C16.8792 34.1665 16.9 34.1282 16.9126 34.0945C16.926 34.06 16.9327 34.0274 16.9327 33.9965C16.9327 33.9501 16.9249 33.9103 16.9095 33.8773C16.894 33.8436 16.8711 33.8176 16.8409 33.7993C16.8113 33.7811 16.7746 33.7719 16.731 33.7719C16.6846 33.7719 16.6444 33.7831 16.6107 33.8056C16.5775 33.8281 16.5522 33.8594 16.5346 33.8995C16.5177 33.9395 16.5092 33.9849 16.5092 34.0355H16.2041C16.2041 33.9441 16.2259 33.8604 16.2696 33.7846C16.3132 33.708 16.3748 33.6472 16.4544 33.6022C16.5339 33.5565 16.6282 33.5336 16.7374 33.5336C16.8451 33.5336 16.9359 33.5512 17.0098 33.5864C17.0844 33.6208 17.1408 33.6707 17.1788 33.7361C17.2175 33.8007 17.2369 33.878 17.2369 33.968C17.2369 34.0186 17.2288 34.0681 17.2125 34.1166C17.1963 34.1645 17.1731 34.2122 17.1428 34.26C17.1133 34.3071 17.0774 34.3549 17.0351 34.4034C16.9929 34.4519 16.9461 34.5022 16.8947 34.5541L16.6275 34.8535H17.2865ZM17.8313 34.1915H17.9939C18.046 34.1915 18.089 34.1827 18.1227 34.1651C18.1565 34.1469 18.1815 34.1215 18.1977 34.0892C18.2146 34.0562 18.2231 34.0179 18.2231 33.9743C18.2231 33.935 18.2153 33.9002 18.1998 33.87C18.1851 33.839 18.1622 33.8151 18.1312 33.7982C18.1002 33.7807 18.0611 33.7719 18.014 33.7719C17.9766 33.7719 17.9421 33.7793 17.9105 33.794C17.8788 33.8088 17.8535 33.8295 17.8344 33.8562C17.8154 33.8829 17.806 33.9153 17.806 33.9533H17.5008C17.5008 33.8689 17.5233 33.7954 17.5684 33.7329C17.6141 33.6704 17.6754 33.6215 17.7521 33.5864C17.8288 33.5512 17.9133 33.5336 18.0055 33.5336C18.1097 33.5336 18.2009 33.5505 18.279 33.5842C18.3571 33.6173 18.418 33.6661 18.4617 33.7308C18.5054 33.7954 18.5272 33.8755 18.5272 33.9711C18.5272 34.0197 18.5159 34.0667 18.4934 34.1124C18.4709 34.1574 18.4385 34.1981 18.3963 34.2347C18.3547 34.2705 18.304 34.2994 18.2442 34.3211C18.1843 34.3423 18.1171 34.3528 18.0425 34.3528H17.8313V34.1915ZM17.8313 34.4224V34.2653H18.0425C18.1262 34.2653 18.1998 34.2748 18.2632 34.2937C18.3265 34.3127 18.3797 34.3401 18.4226 34.376C18.4656 34.4111 18.498 34.453 18.5198 34.5014C18.5416 34.5492 18.5525 34.6023 18.5525 34.6606C18.5525 34.7323 18.5388 34.7963 18.5114 34.8525C18.4839 34.908 18.4451 34.9551 18.3952 34.9938C18.3459 35.0324 18.2882 35.062 18.222 35.0823C18.1558 35.102 18.0837 35.1119 18.0055 35.1119C17.9408 35.1119 17.877 35.103 17.8144 35.0855C17.7524 35.0672 17.6961 35.0402 17.6454 35.0043C17.5955 34.9678 17.5554 34.9221 17.5251 34.8673C17.4955 34.8117 17.4807 34.746 17.4807 34.6701H17.7859C17.7859 34.7095 17.7957 34.7446 17.8154 34.7756C17.8352 34.8065 17.8623 34.8307 17.8968 34.8483C17.932 34.8658 17.971 34.8747 18.014 34.8747C18.0626 34.8747 18.1041 34.8658 18.1386 34.8483C18.1738 34.83 18.2006 34.8047 18.2188 34.7724C18.2378 34.7393 18.2474 34.701 18.2474 34.6575C18.2474 34.6012 18.2371 34.5563 18.2167 34.5225C18.1963 34.4881 18.1671 34.4628 18.1291 34.4466C18.0911 34.4305 18.046 34.4224 17.9939 34.4224H17.8313Z" fill="#101E55"/>
</svg>
