<svg width="48" height="41" viewBox="0 0 48 41" fill="none" xmlns="http://www.w3.org/2000/svg">
<ellipse cx="24.0468" cy="15.754" rx="15.7797" ry="15.754" fill="white"/>
<path d="M39.8282 31.1328H47.9998L45.6516 34.9776L39.5464 35.2589L39.8282 31.1328Z" fill="white"/>
<path d="M39.5464 38.7286H47.9998L45.6516 34.8839L39.5464 34.6026V38.7286Z" fill="white"/>
<path d="M8.17183 31.1328H0.000177383L2.34835 34.9776L8.45361 35.2589L8.17183 31.1328Z" fill="white"/>
<path d="M8.45361 38.7284H0.000177383L2.34835 34.8837L8.45361 34.6024V38.7284Z" fill="white"/>
<path d="M43.2085 34.884H39.5453V38.4474L43.2085 34.884Z" fill="#B3B6B7"/>
<path d="M4.60303 34.884H8.26618V38.4474L4.60303 34.884Z" fill="#B3B6B7"/>
<rect x="4.60303" y="27.4756" width="38.604" height="7.40812" fill="white"/>
<path d="M13.2932 38.9309H12.9865V36.767H12.2266V36.4978H14.0497V36.767H13.2932V38.9309ZM15.7764 38.9309H14.4166V36.4978H15.7764V36.767H14.7233V37.5269H15.715V37.7927H14.7233V38.6617H15.7764V38.9309ZM17.353 36.7329C17.0918 36.7329 16.8862 36.8204 16.7362 36.9953C16.5863 37.1702 16.5113 37.4099 16.5113 37.7143C16.5113 38.0165 16.5806 38.2562 16.7192 38.4334C16.86 38.6083 17.0702 38.6958 17.3496 38.6958C17.4564 38.6958 17.5575 38.6867 17.6529 38.6685C17.7483 38.6504 17.8415 38.6276 17.9324 38.6004V38.8662C17.8415 38.9003 17.7472 38.9253 17.6495 38.9412C17.5541 38.9571 17.4394 38.965 17.3053 38.965C17.0577 38.965 16.851 38.9139 16.6851 38.8117C16.5193 38.7094 16.3943 38.564 16.3102 38.3755C16.2285 38.1869 16.1876 37.9654 16.1876 37.7109C16.1876 37.4656 16.2319 37.2497 16.3205 37.0635C16.4113 36.8749 16.5442 36.7283 16.7192 36.6238C16.8941 36.5171 17.1065 36.4637 17.3564 36.4637C17.6132 36.4637 17.8369 36.5114 18.0278 36.6068L17.9051 36.8658C17.8301 36.8317 17.7461 36.801 17.6529 36.7738C17.562 36.7465 17.4621 36.7329 17.353 36.7329ZM20.3241 38.9309H20.0174V37.7961H18.7701V38.9309H18.4634V36.4978H18.7701V37.5269H20.0174V36.4978H20.3241V38.9309ZM22.9182 38.9309H22.5603L21.2586 36.9101H21.2449C21.2495 36.9896 21.2552 37.0884 21.262 37.2066C21.2688 37.3247 21.2722 37.4463 21.2722 37.5712V38.9309H20.9893V36.4978H21.3438L22.6421 38.5118H22.6558C22.6535 38.4754 22.6501 38.4209 22.6455 38.3482C22.6433 38.2755 22.6399 38.196 22.6353 38.1097C22.633 38.0233 22.6319 37.9438 22.6319 37.8711V36.4978H22.9182V38.9309ZM25.7016 37.7109C25.7016 37.9631 25.6584 38.1835 25.5721 38.3721C25.488 38.5584 25.3631 38.7038 25.1972 38.8083C25.0314 38.9128 24.8258 38.965 24.5804 38.965C24.3282 38.965 24.1181 38.9128 23.9499 38.8083C23.7841 38.7038 23.6603 38.5572 23.5785 38.3686C23.4967 38.1801 23.4558 37.9597 23.4558 37.7075C23.4558 37.4576 23.4967 37.2395 23.5785 37.0532C23.6603 36.8669 23.7841 36.7215 23.9499 36.617C24.1181 36.5125 24.3293 36.4603 24.5838 36.4603C24.8269 36.4603 25.0314 36.5125 25.1972 36.617C25.3631 36.7193 25.488 36.8647 25.5721 37.0532C25.6584 37.2395 25.7016 37.4588 25.7016 37.7109ZM23.7795 37.7109C23.7795 38.0176 23.8443 38.2596 23.9738 38.4368C24.1033 38.6117 24.3055 38.6992 24.5804 38.6992C24.8576 38.6992 25.0598 38.6117 25.187 38.4368C25.3142 38.2596 25.3778 38.0176 25.3778 37.7109C25.3778 37.4042 25.3142 37.1646 25.187 36.9919C25.0598 36.817 24.8587 36.7295 24.5838 36.7295C24.3089 36.7295 24.1056 36.817 23.9738 36.9919C23.8443 37.1646 23.7795 37.4042 23.7795 37.7109ZM26.2408 38.9309V36.4978H26.5476V38.6583H27.6108V38.9309H26.2408ZM30.0845 37.7109C30.0845 37.9631 30.0413 38.1835 29.955 38.3721C29.8709 38.5584 29.746 38.7038 29.5801 38.8083C29.4143 38.9128 29.2087 38.965 28.9633 38.965C28.7111 38.965 28.501 38.9128 28.3329 38.8083C28.167 38.7038 28.0432 38.5572 27.9614 38.3686C27.8796 38.1801 27.8387 37.9597 27.8387 37.7075C27.8387 37.4576 27.8796 37.2395 27.9614 37.0532C28.0432 36.8669 28.167 36.7215 28.3329 36.617C28.501 36.5125 28.7123 36.4603 28.9667 36.4603C29.2098 36.4603 29.4143 36.5125 29.5801 36.617C29.746 36.7193 29.8709 36.8647 29.955 37.0532C30.0413 37.2395 30.0845 37.4588 30.0845 37.7109ZM28.1625 37.7109C28.1625 38.0176 28.2272 38.2596 28.3567 38.4368C28.4862 38.6117 28.6884 38.6992 28.9633 38.6992C29.2405 38.6992 29.4427 38.6117 29.5699 38.4368C29.6971 38.2596 29.7607 38.0176 29.7607 37.7109C29.7607 37.4042 29.6971 37.1646 29.5699 36.9919C29.4427 36.817 29.2416 36.7295 28.9667 36.7295C28.6918 36.7295 28.4885 36.817 28.3567 36.9919C28.2272 37.1646 28.1625 37.4042 28.1625 37.7109ZM31.6802 37.6462H32.5219V38.8389C32.3901 38.8821 32.2572 38.9139 32.1232 38.9343C31.9892 38.9548 31.8369 38.965 31.6666 38.965C31.4144 38.965 31.202 38.915 31.0293 38.8151C30.8566 38.7128 30.7249 38.5686 30.634 38.3823C30.5454 38.1937 30.5011 37.9711 30.5011 37.7143C30.5011 37.4599 30.5511 37.2395 30.651 37.0532C30.751 36.8669 30.8941 36.7227 31.0804 36.6204C31.269 36.5159 31.4962 36.4637 31.762 36.4637C31.8983 36.4637 32.0266 36.4762 32.1471 36.5012C32.2697 36.5262 32.3833 36.5614 32.4878 36.6068L32.372 36.8726C32.2856 36.834 32.188 36.801 32.0789 36.7738C31.9721 36.7465 31.8608 36.7329 31.7449 36.7329C31.4541 36.7329 31.2269 36.8204 31.0634 36.9953C30.9021 37.1702 30.8214 37.4099 30.8214 37.7143C30.8214 37.9075 30.8521 38.079 30.9134 38.2289C30.977 38.3766 31.0759 38.4925 31.2099 38.5765C31.3439 38.6583 31.52 38.6992 31.7381 38.6992C31.8449 38.6992 31.9358 38.6935 32.0107 38.6822C32.0857 38.6708 32.1539 38.6572 32.2152 38.6413V37.9188H31.6802V37.6462ZM33.7369 37.6939L34.3708 36.4978H34.7014L33.8903 37.987V38.9309H33.5836V38.0006L32.7725 36.4978H33.1065L33.7369 37.6939Z" fill="white"/>
<path fill-rule="evenodd" clip-rule="evenodd" d="M16.3629 21.4711V20.0692C16.3629 19.885 16.4781 19.737 16.6688 19.737H16.7216C16.9122 19.737 17.0269 19.8852 17.0269 20.0692V23.0207C17.0269 23.7404 16.6713 24.3131 16.0517 24.6779C15.7678 24.8461 15.4438 24.9345 15.1139 24.9337H14.9822C14.2623 24.9337 13.6904 24.5779 13.325 23.9586C13.1566 23.6748 13.0683 23.3507 13.0693 23.0207V22.8892C13.0693 22.1692 13.4251 21.5968 14.0442 21.2313C14.328 21.0628 14.6522 20.9744 14.9822 20.9755H15.1139C15.6011 20.9755 16.0144 21.1644 16.3629 21.4711ZM13.7332 22.9548C13.7332 23.4747 13.9852 23.8656 14.4407 24.1149C14.6249 24.2157 14.8249 24.2698 15.0351 24.2698C15.5454 24.2698 15.9239 24.0291 16.185 23.5966C16.3064 23.3955 16.3629 23.1753 16.3629 22.9413C16.3629 22.4907 16.1496 22.1389 15.7864 21.8777C15.5662 21.7193 15.3183 21.6399 15.048 21.6399C14.4918 21.6399 14.0915 21.921 13.8513 22.4201C13.7702 22.5889 13.7332 22.7681 13.7332 22.9548ZM19.3301 20.9755H19.4221C20.1913 20.9755 20.7764 21.3487 21.1471 22.0202C21.2953 22.2888 21.3747 22.582 21.3747 22.8892V23.0207C21.3747 23.7404 21.0198 24.3139 20.3992 24.678C20.1119 24.8466 19.7946 24.9337 19.4616 24.9337H19.3301C18.6102 24.9337 18.0381 24.5779 17.6729 23.9586C17.5044 23.6749 17.416 23.3507 17.417 23.0207V22.8892C17.417 22.1691 17.7742 21.5986 18.3917 21.2315C18.6789 21.0609 18.9965 20.9755 19.3301 20.9755ZM18.0809 22.9548C18.0809 23.4595 18.3285 23.8307 18.7548 24.0918C18.9549 24.2143 19.1754 24.2698 19.4092 24.2698C19.9078 24.2698 20.2764 24.017 20.533 23.5961C20.6553 23.3955 20.7107 23.175 20.7107 22.9413C20.7107 22.4721 20.4846 22.1136 20.0982 21.8538C19.8865 21.7113 19.6508 21.6399 19.3958 21.6399C18.8396 21.6399 18.4393 21.921 18.1991 22.4201C18.1179 22.5889 18.0809 22.7681 18.0809 22.9548ZM24.1347 21.693C24.0344 21.646 23.8468 21.6304 23.7385 21.6263C23.1838 21.6054 22.7825 21.9178 22.547 22.4071C22.4657 22.5759 22.4286 22.7546 22.4286 22.9413C22.4286 23.51 22.7272 23.9082 23.2348 24.1509C23.4202 24.2395 23.6596 24.2563 23.8622 24.2563C24.0404 24.2563 24.2923 24.1471 24.4505 24.072L24.4779 24.059H24.6007L24.6142 24.0617C24.7652 24.0932 24.8791 24.1889 24.8791 24.3513V24.417C24.8791 24.8213 24.1404 24.9138 23.8585 24.9335C22.8638 25.0023 22.1198 24.456 21.8362 23.5072C21.787 23.3424 21.7648 23.1788 21.7648 23.0071V22.8757C21.7648 22.1557 22.122 21.5854 22.7395 21.2186C23.0266 21.0481 23.3442 20.9624 23.6777 20.9624H23.8093C24.1632 20.9624 24.4891 21.0629 24.7813 21.2625L24.8053 21.2791L24.8204 21.3041C24.852 21.3564 24.8791 21.4169 24.8791 21.4791V21.5448C24.8791 21.7143 24.7523 21.8055 24.5993 21.8349L24.5866 21.8372H24.5474C24.4483 21.8372 24.2231 21.7346 24.1347 21.693ZM26.2881 22.1425C26.546 21.8843 26.8048 21.6266 27.0665 21.3726C27.1394 21.3017 27.4156 21.0018 27.5243 21.0018H27.6432L27.6568 21.0047C27.8082 21.0361 27.9217 21.132 27.9217 21.2948V21.3604C27.9217 21.4715 27.7916 21.6005 27.7199 21.6765C27.5674 21.8382 27.4068 21.9946 27.2507 22.1529L26.4486 22.9672C26.794 23.3134 27.139 23.6598 27.4815 24.0086C27.5765 24.1049 27.6708 24.2019 27.7644 24.2996C27.7974 24.3343 27.846 24.3775 27.8737 24.4255C27.9034 24.4706 27.9217 24.5214 27.9217 24.5756V24.6442L27.9178 24.66C27.8806 24.8115 27.7844 24.9337 27.6166 24.9337H27.5637C27.4539 24.9337 27.3298 24.8095 27.2546 24.7384C27.0995 24.5923 26.9498 24.4385 26.7978 24.2892L26.2881 23.7888V24.5886C26.2881 24.7728 26.1728 24.9208 25.9823 24.9208H25.9301C25.7393 24.9208 25.6242 24.7728 25.6242 24.5886V20.0821C25.6242 19.8978 25.7394 19.7505 25.9301 19.7505H25.9823C26.1728 19.7505 26.2881 19.8978 26.2881 20.0821V22.1425ZM34.5628 21.0018H34.6287C34.8279 21.0018 34.9607 21.136 34.9607 21.334C34.9607 21.6089 34.698 21.6792 34.4707 21.6792C34.1725 21.6792 33.8878 21.8598 33.6822 22.0622C33.426 22.3149 33.3138 22.6385 33.3138 22.9943V24.6016C33.3138 24.7858 33.1987 24.9337 33.0079 24.9337H32.9555C32.7647 24.9337 32.6497 24.7859 32.6497 24.6016V22.902C32.6497 22.2494 32.9674 21.7166 33.4971 21.3429C33.8133 21.1197 34.1756 21.0019 34.5628 21.0019V21.0018ZM29.8441 24.1872C30.0857 24.2715 30.3611 24.2595 30.609 24.2163C30.7358 24.1624 31.06 24.0209 31.1793 24.0417L31.1979 24.0448L31.215 24.0532C31.2878 24.0885 31.3573 24.1385 31.3945 24.2126C31.4814 24.3863 31.4397 24.5609 31.269 24.6595L31.2122 24.6923C30.5824 25.0558 29.9126 25.0054 29.2848 24.6659C28.9847 24.5037 28.7551 24.2628 28.5857 23.9692L28.5461 23.9005C28.1418 23.2004 28.1964 22.4638 28.6523 21.798C28.8097 21.5679 29.0155 21.3901 29.256 21.251L29.347 21.1985C29.94 20.8561 30.5757 20.8796 31.1848 21.1801C31.5123 21.3417 31.7777 21.5825 31.9605 21.8993L31.9934 21.9563C32.1262 22.1865 31.9542 22.387 31.7766 22.5241C31.5704 22.6831 31.3623 22.8745 31.1647 23.045C30.7242 23.4254 30.2843 23.8066 29.8441 24.1872ZM29.2739 23.7867C29.7665 23.3643 30.2593 22.9414 30.7507 22.5172C30.9187 22.3724 31.1028 22.2221 31.2693 22.0699C31.1357 21.9014 30.9124 21.78 30.7227 21.7076C30.3397 21.5617 29.9621 21.6107 29.6109 21.8134C29.1513 22.0789 28.9555 22.5015 28.9726 23.0275C28.9795 23.2347 29.0352 23.4344 29.1451 23.6106C29.1838 23.6727 29.2271 23.7311 29.2739 23.7867ZM25.6909 10.4823H27.6501V12.4851H28.6406C29.0981 12.4851 29.5686 12.4036 30.0018 12.2568C30.2147 12.1846 30.4536 12.0842 30.6636 11.9578C30.387 11.5967 30.2458 11.1408 30.2043 10.6914C30.1478 10.0801 30.2712 9.28444 30.6848 8.80599L30.8908 8.5678L31.1362 8.76512C31.754 9.26148 32.2737 9.95516 32.3653 10.7459C33.1092 10.5271 33.9827 10.5788 34.6384 10.9573L34.9074 11.1125L34.7659 11.389C34.2113 12.4713 33.0518 12.8066 31.9183 12.7473C30.2221 16.9721 26.5292 18.9723 22.0517 18.9723C19.7384 18.9723 17.6161 18.1075 16.4075 16.0551L16.3877 16.0217L16.2116 15.6634C15.8031 14.7599 15.6674 13.7702 15.7594 12.7813L15.7871 12.4851H17.4625V10.4823H19.4215V8.52307H23.3399V6.56387H25.6909V10.4823Z" fill="#101E55"/>
<path fill-rule="evenodd" clip-rule="evenodd" d="M32.0403 11.2231C32.1717 10.2021 31.4077 9.40021 30.9339 9.01944C30.3878 9.65074 30.303 11.3053 31.1596 12.0019C30.6815 12.4265 29.6742 12.8114 28.6427 12.8114H16.0869C15.9866 13.8881 16.1756 14.8797 16.6074 15.7284L16.7502 15.9897C16.8406 16.1431 16.9394 16.2914 17.0462 16.4339C17.5624 16.4671 18.0384 16.4785 18.4738 16.4689H18.474C19.3296 16.45 20.0278 16.3489 20.557 16.1656C20.5944 16.1539 20.6349 16.1573 20.6698 16.175C20.7048 16.1926 20.7315 16.2232 20.7444 16.2602C20.7572 16.2972 20.7551 16.3378 20.7386 16.3733C20.7221 16.4088 20.6924 16.4365 20.6558 16.4505C20.5854 16.475 20.512 16.4978 20.4363 16.5195H20.436C20.0194 16.6385 19.5725 16.7185 18.9961 16.7541C19.0304 16.7547 18.9604 16.7592 18.9603 16.7592C18.9407 16.7605 18.916 16.7634 18.8963 16.7644C18.6694 16.7772 18.4245 16.7798 18.1742 16.7798C17.9003 16.7798 17.6307 16.7747 17.3292 16.7592L17.3215 16.7644C18.3676 17.9403 20.0034 18.6455 22.0539 18.6455C26.3934 18.6455 30.0742 16.7218 31.7041 12.403C32.8605 12.5217 33.9718 12.2268 34.4773 11.2399C33.6721 10.7752 32.6366 10.9234 32.0403 11.2231Z" fill="#101E55"/>
<path fill-rule="evenodd" clip-rule="evenodd" d="M32.0381 11.2231C32.1695 10.2021 31.4055 9.40021 30.9317 9.01944C30.3856 9.65074 30.3008 11.3053 31.1574 12.0019C30.6793 12.4265 29.672 12.8114 28.6405 12.8114H16.8282C16.7769 14.4604 17.3889 15.7121 18.4715 16.4689H18.4718C19.3274 16.45 20.0256 16.3489 20.5548 16.1656C20.5922 16.1539 20.6327 16.1573 20.6676 16.175C20.7026 16.1926 20.7293 16.2232 20.7422 16.2602C20.755 16.2972 20.7529 16.3378 20.7364 16.3733C20.7199 16.4088 20.6902 16.4365 20.6536 16.4505C20.5832 16.475 20.5098 16.4978 20.4341 16.5195H20.4338C20.0172 16.6385 19.532 16.7288 18.9555 16.7644C18.9553 16.7644 18.9415 16.7511 18.9414 16.7511C20.4182 17.5087 22.5596 17.506 25.0147 16.5629C27.7676 15.5052 30.3293 13.4903 32.1167 11.1857C32.0898 11.1979 32.0636 11.2103 32.0381 11.2231Z" fill="white"/>
<path fill-rule="evenodd" clip-rule="evenodd" d="M16.1099 14.1199C16.1878 14.6967 16.3566 15.2367 16.6068 15.7286L16.7496 15.99C16.8401 16.1434 16.9389 16.2916 17.0457 16.4341C17.562 16.4673 18.0379 16.4787 18.4734 16.4691C19.3291 16.4502 20.0273 16.3491 20.5564 16.1658C20.5939 16.1541 20.6343 16.1575 20.6693 16.1752C20.7043 16.1928 20.731 16.2234 20.7438 16.2604C20.7567 16.2975 20.7546 16.338 20.7381 16.3735C20.7215 16.409 20.6918 16.4367 20.6552 16.4508C20.5848 16.4753 20.5115 16.4981 20.4357 16.5197H20.4355C20.0188 16.6387 19.5362 16.7239 18.9597 16.7596C18.9399 16.7608 18.9054 16.761 18.8854 16.7621C18.6587 16.7748 18.4163 16.7826 18.1659 16.7826C17.8922 16.7826 17.6122 16.7774 17.3108 16.762C18.357 17.9379 20.0029 18.6458 22.0533 18.6458C25.7684 18.6458 29.0006 17.2356 30.8765 14.1199H16.1099Z" fill="#101E55"/>
<path fill-rule="evenodd" clip-rule="evenodd" d="M16.9419 14.1199C17.164 15.1326 17.6977 15.9277 18.4725 16.4691C19.3281 16.4502 20.0263 16.3491 20.5555 16.1658C20.5929 16.1541 20.6334 16.1575 20.6683 16.1752C20.7033 16.1928 20.73 16.2234 20.7429 16.2604C20.7557 16.2975 20.7536 16.338 20.7371 16.3735C20.7206 16.409 20.6909 16.4367 20.6543 16.4508C20.5839 16.4753 20.5105 16.4981 20.4348 16.5197H20.4345C20.0179 16.6387 19.525 16.7239 18.9485 16.7596C20.4253 17.517 22.5605 17.5061 25.0155 16.5631C26.5006 15.9924 27.93 15.143 29.2124 14.1199H16.9419Z" fill="white"/>
<path fill-rule="evenodd" clip-rule="evenodd" d="M17.792 10.8086H19.49V12.5066H17.792V10.8086ZM17.9334 10.9501H18.0675V12.3652H17.9334V10.9501ZM18.1853 10.9501H18.3247V12.3652H18.1854V10.9501H18.1853ZM18.4426 10.9501H18.582V12.3652H18.4426V10.9501ZM18.6999 10.9501H18.8393V12.3652H18.6999V10.9501ZM18.9572 10.9501H19.0965V12.3652H18.9572V10.9501ZM19.2144 10.9501H19.3485V12.3652H19.2144V10.9501ZM19.7511 8.8494H21.4492V10.5474H19.751V8.8494H19.7511ZM19.8927 8.99094H20.0266V10.4059H19.8927V8.99094ZM20.1446 8.99094H20.2839V10.4059H20.1447V8.99094H20.1446ZM20.4018 8.99094H20.5411V10.4059H20.4018V8.99094ZM20.6591 8.99094H20.7984V10.4059H20.6591V8.99094ZM20.9164 8.99094H21.0558V10.4059H20.9164V8.99094ZM21.1736 8.99094H21.3078V10.4059H21.1736V8.99094Z" fill="#101E55"/>
<path fill-rule="evenodd" clip-rule="evenodd" d="M19.7496 10.8087H21.4477V12.5067H19.7495V10.8087H19.7496ZM19.8911 10.9502H20.0251V12.3652H19.8911V10.9502ZM20.143 10.9502H20.2824V12.3652H20.1431V10.9502H20.143ZM20.4002 10.9502H20.5396V12.3652H20.4002V10.9502ZM20.6575 10.9502H20.7969V12.3652H20.6575V10.9502ZM20.9148 10.9502H21.0542V12.3652H20.9148V10.9502ZM21.172 10.9502H21.3062V12.3652H21.172V10.9502Z" fill="#101E55"/>
<path fill-rule="evenodd" clip-rule="evenodd" d="M21.7134 10.8087H23.4114V12.5067H21.7134V10.8087ZM21.8548 10.9502H21.9888V12.3652H21.8548V10.9502ZM22.1067 10.9502H22.246V12.3652H22.1067V10.9502ZM22.364 10.9502H22.5033V12.3652H22.364V10.9502ZM22.6213 10.9502H22.7606V12.3652H22.6213V10.9502ZM22.8785 10.9502H23.018V12.3652H22.8785V10.9502ZM23.1358 10.9502H23.2698V12.3652H23.1358V10.9502Z" fill="#101E55"/>
<path fill-rule="evenodd" clip-rule="evenodd" d="M21.7134 8.8494H23.4114V10.5474H21.7134V8.8494ZM21.8548 8.99094H21.9888V10.4059H21.8548V8.99094ZM22.1067 8.99094H22.246V10.4059H22.1067V8.99094ZM22.364 8.99094H22.5033V10.4059H22.364V8.99094ZM22.6213 8.99094H22.7606V10.4059H22.6213V8.99094ZM22.8785 8.99094H23.018V10.4059H22.8785V8.99094ZM23.1358 8.99094H23.2698V10.4059H23.1358V8.99094ZM23.6725 10.8086H25.3705V12.5066H23.6725V10.8086ZM23.8141 10.9501H23.948V12.3652H23.8141V10.9501ZM24.066 10.9501H24.2053V12.3652H24.066V10.9501ZM24.3232 10.9501H24.4625V12.3652H24.3232V10.9501ZM24.5805 10.9501H24.7199V12.3652H24.5805V10.9501ZM24.8378 10.9501H24.9772V12.3652H24.8378V10.9501ZM25.0951 10.9501H25.2291V12.3652H25.0951V10.9501Z" fill="#101E55"/>
<path fill-rule="evenodd" clip-rule="evenodd" d="M23.6704 8.8494H25.3684V10.5474H23.6704V8.8494ZM23.812 8.99094H23.9459V10.4059H23.812V8.99094ZM24.0638 8.99094H24.2032V10.4059H24.0638V8.99094ZM24.3211 8.99094H24.4604V10.4059H24.3211V8.99094ZM24.5784 8.99094H24.7178V10.4059H24.5784V8.99094ZM24.8356 8.99094H24.975V10.4059H24.8356V8.99094ZM25.0929 8.99094H25.2269V10.4059H25.0929V8.99094Z" fill="#101E55"/>
<path fill-rule="evenodd" clip-rule="evenodd" d="M23.6704 6.89032H25.3684V8.58853H23.6704V6.89032ZM23.812 7.03178H23.9459V8.4469H23.812V7.03169V7.03178ZM24.0638 7.03178H24.2032V8.4469H24.0638V7.03169V7.03178ZM24.3211 7.03178H24.4604V8.4469H24.3211V7.03169V7.03178ZM24.5784 7.03178H24.7178V8.4469H24.5784V7.03169V7.03178ZM24.8356 7.03178H24.975V8.4469H24.8356V7.03169V7.03178ZM25.0929 7.03178H25.2269V8.4469H25.0929V7.03169V7.03178Z" fill="#101E55"/>
<path fill-rule="evenodd" clip-rule="evenodd" d="M25.6279 10.8088H27.3259V12.5069H25.6279V10.8088ZM25.7693 10.9504H25.9034V12.3654H25.7694V10.9504H25.7693ZM26.0212 10.9504H26.1606V12.3654H26.0213V10.9504H26.0212ZM26.2786 10.9504H26.418V12.3654H26.2786V10.9504ZM26.5358 10.9504H26.6752V12.3654H26.5358V10.9504ZM26.7932 10.9504H26.9325V12.3654H26.7932V10.9504ZM27.0504 10.9504H27.1844V12.3654H27.0504V10.9504Z" fill="#101E55"/>
<path fill-rule="evenodd" clip-rule="evenodd" d="M21.3436 15.2599C21.4056 15.259 21.4672 15.2705 21.5248 15.2937C21.5824 15.3169 21.6348 15.3513 21.6789 15.3949C21.7231 15.4385 21.7582 15.4904 21.7821 15.5477C21.806 15.6049 21.8183 15.6664 21.8183 15.7284C21.8183 15.7905 21.806 15.8519 21.782 15.9092C21.7581 15.9664 21.723 16.0183 21.6788 16.0619C21.6346 16.1055 21.5822 16.1399 21.5246 16.163C21.4671 16.1862 21.4055 16.1976 21.3434 16.1968C21.2203 16.1951 21.1028 16.145 21.0163 16.0573C20.9298 15.9696 20.8813 15.8514 20.8813 15.7282C20.8814 15.6051 20.9299 15.4869 21.0164 15.3992C21.1029 15.3116 21.2204 15.2615 21.3436 15.2599Z" fill="#101E55"/>
<path fill-rule="evenodd" clip-rule="evenodd" d="M21.3427 15.3926C21.3855 15.3926 21.4264 15.4007 21.4641 15.4153C21.4381 15.4304 21.4177 15.4537 21.4063 15.4815C21.3948 15.5093 21.3928 15.5401 21.4005 15.5692C21.4083 15.5982 21.4255 15.6239 21.4493 15.6422C21.4731 15.6606 21.5024 15.6706 21.5324 15.6707C21.5843 15.6707 21.6293 15.642 21.6526 15.5995C21.6802 15.6659 21.6856 15.7395 21.6682 15.8093C21.6508 15.8792 21.6113 15.9415 21.5557 15.9872C21.5001 16.0329 21.4313 16.0595 21.3594 16.0631C21.2875 16.0667 21.2164 16.047 21.1566 16.0071C21.0967 15.9671 21.0513 15.909 21.027 15.8412C21.0027 15.7735 21.0009 15.6997 21.0217 15.6308C21.0426 15.5619 21.0851 15.5016 21.1428 15.4587C21.2006 15.4158 21.2707 15.3926 21.3427 15.3926ZM13.0571 14.289H34.8477C34.3733 14.1687 33.3466 14.006 33.5159 13.3842C32.6531 14.3825 30.5725 14.0846 30.0474 13.5924C29.4627 14.4404 26.0587 14.118 25.8213 13.4573C25.0882 14.3177 22.8168 14.3177 22.0837 13.4573C21.8461 14.118 18.4422 14.4404 17.8574 13.5923C17.3324 14.0846 15.2519 14.3825 14.3891 13.3842C14.5584 14.006 13.5317 14.1687 13.0571 14.289" fill="#101E55"/>
<path fill-rule="evenodd" clip-rule="evenodd" d="M22.5889 18.6354C21.4288 18.0849 20.7922 17.3365 20.4379 16.5196C20.0069 16.6426 19.489 16.7212 18.8871 16.755C18.6604 16.7677 18.4218 16.7742 18.1717 16.7742C17.8831 16.7742 17.579 16.7656 17.2598 16.7487C18.3236 17.812 19.6324 18.6306 22.0557 18.6456C22.2346 18.6456 22.4122 18.6421 22.5889 18.6354Z" fill="#101E55"/>
<path fill-rule="evenodd" clip-rule="evenodd" d="M20.8689 17.2734C20.7084 17.0555 20.5527 16.7817 20.4383 16.5194C20.0073 16.6425 19.4892 16.7212 18.8872 16.755C19.3007 16.9794 19.892 17.1874 20.869 17.2734" fill="#101E55"/>
<path d="M8.82043 32L8.58733 31.3682H7.74083L7.50774 32H7.16423L7.9954 29.8009H8.3389L9.16701 32H8.82043ZM8.2745 30.4634C8.26836 30.4409 8.25712 30.4072 8.24076 30.3622C8.22645 30.3152 8.21213 30.2681 8.19782 30.2211C8.18351 30.172 8.17226 30.1322 8.16408 30.1015C8.15386 30.1424 8.14159 30.1874 8.12728 30.2365C8.11501 30.2835 8.10274 30.3274 8.09047 30.3683C8.07821 30.4072 8.06798 30.4389 8.0598 30.4634L7.83898 31.0799H8.49532L8.2745 30.4634ZM11.1615 31.2271C11.1615 31.3784 11.1298 31.5154 11.0664 31.6381C11.0051 31.7587 10.91 31.8548 10.7812 31.9264C10.6524 31.9959 10.4898 32.0307 10.2935 32.0307C10.0154 32.0307 9.80382 31.9571 9.65864 31.8098C9.51551 31.6606 9.44395 31.4643 9.44395 31.221V29.8101H9.77519V31.2056C9.77519 31.3856 9.81915 31.5215 9.90707 31.6136C9.99499 31.7035 10.1289 31.7485 10.3089 31.7485C10.4315 31.7485 10.5317 31.726 10.6094 31.681C10.6871 31.636 10.7434 31.5737 10.7781 31.4939C10.8149 31.4122 10.8333 31.315 10.8333 31.2026V29.8101H11.1615V31.2271ZM12.4628 32H12.1315V30.0954H11.4752V29.8101H13.1191V30.0954H12.4628V32ZM15.1632 32H14.832V31.0001H13.7861V32H13.4549V29.8101H13.7861V30.718H14.832V29.8101H15.1632V32ZM17.6814 30.902C17.6814 31.0717 17.6599 31.2261 17.617 31.3651C17.5761 31.5021 17.5127 31.6207 17.4269 31.7209C17.343 31.8211 17.2367 31.8978 17.1079 31.9509C16.9811 32.0041 16.8329 32.0307 16.6632 32.0307C16.4894 32.0307 16.3381 32.0041 16.2092 31.9509C16.0825 31.8957 15.9761 31.819 15.8903 31.7209C15.8064 31.6207 15.7441 31.5011 15.7032 31.3621C15.6623 31.223 15.6418 31.0686 15.6418 30.8989C15.6418 30.674 15.6786 30.4777 15.7523 30.3101C15.8259 30.1424 15.9383 30.0115 16.0896 29.9175C16.243 29.8234 16.4352 29.7764 16.6662 29.7764C16.8911 29.7764 17.0782 29.8234 17.2275 29.9175C17.3788 30.0095 17.4923 30.1404 17.5679 30.3101C17.6436 30.4777 17.6814 30.675 17.6814 30.902ZM15.9915 30.902C15.9915 31.0778 16.015 31.2292 16.062 31.3559C16.109 31.4806 16.1827 31.5778 16.2828 31.6473C16.383 31.7148 16.5098 31.7485 16.6632 31.7485C16.8186 31.7485 16.9453 31.7148 17.0435 31.6473C17.1416 31.5778 17.2142 31.4806 17.2612 31.3559C17.3083 31.2292 17.3318 31.0778 17.3318 30.902C17.3318 30.6382 17.2786 30.4327 17.1723 30.2855C17.068 30.1363 16.8993 30.0616 16.6662 30.0616C16.5108 30.0616 16.383 30.0954 16.2828 30.1628C16.1827 30.2303 16.109 30.3264 16.062 30.4511C16.015 30.5759 15.9915 30.7262 15.9915 30.902ZM18.7707 29.8101C18.9588 29.8101 19.1132 29.8336 19.2338 29.8807C19.3545 29.9277 19.4444 29.9982 19.5037 30.0923C19.563 30.1843 19.5927 30.3009 19.5927 30.4419C19.5927 30.5544 19.5712 30.6495 19.5283 30.7272C19.4874 30.8028 19.4342 30.8652 19.3688 30.9143C19.3033 30.9613 19.2348 30.9991 19.1633 31.0277L19.7767 32H19.3964L18.8688 31.1136H18.4885V32H18.1573V29.8101H18.7707ZM18.7492 30.0923H18.4885V30.8376H18.7646C18.877 30.8376 18.969 30.8233 19.0406 30.7947C19.1142 30.766 19.1674 30.7231 19.2001 30.6658C19.2348 30.6086 19.2522 30.538 19.2522 30.4542C19.2522 30.3663 19.2338 30.2968 19.197 30.2457C19.1623 30.1925 19.107 30.1536 19.0314 30.1291C18.9578 30.1046 18.8637 30.0923 18.7492 30.0923ZM20.7729 32H19.9233V31.8098L20.184 31.7332V30.08L19.9233 30.0003V29.8101H20.7729V30.0003L20.5153 30.08V31.7332L20.7729 31.8098V32ZM22.5442 32H20.9953V31.7638L22.1178 30.0954H21.029V29.8101H22.5166V30.0463L21.394 31.7148H22.5442V32ZM24.1765 32H22.9435V29.8101H24.1765V30.0923H23.2748V30.718H24.1213V30.9971H23.2748V31.7148H24.1765V32ZM26.4235 30.8836C26.4235 31.129 26.3775 31.3345 26.2855 31.5001C26.1935 31.6657 26.0606 31.7904 25.8868 31.8743C25.7151 31.9581 25.5075 32 25.2642 32H24.6508V29.8101H25.3286C25.5515 29.8101 25.7447 29.851 25.9083 29.9328C26.0718 30.0146 26.1986 30.1352 26.2886 30.2947C26.3786 30.4522 26.4235 30.6485 26.4235 30.8836ZM26.077 30.8928C26.077 30.7088 26.0473 30.5575 25.988 30.4389C25.9287 30.3203 25.8408 30.2324 25.7243 30.1751C25.6097 30.1179 25.4707 30.0892 25.3071 30.0892H24.982V31.7209H25.2489C25.5249 31.7209 25.7314 31.6514 25.8684 31.5123C26.0074 31.3733 26.077 31.1668 26.077 30.8928ZM28.3103 29.8101C28.5965 29.8101 28.8051 29.8684 28.9359 29.985C29.0668 30.0995 29.1322 30.26 29.1322 30.4665C29.1322 30.5585 29.1169 30.6464 29.0862 30.7302C29.0576 30.8141 29.0096 30.8897 28.9421 30.9572C28.8746 31.0226 28.7846 31.0748 28.6722 31.1136C28.5618 31.1504 28.4258 31.1688 28.2643 31.1688H28.0281V32H27.6969V29.8101H28.3103ZM28.2857 30.0892H28.0281V30.8897H28.2275C28.3522 30.8897 28.4565 30.8764 28.5403 30.8499C28.6241 30.8212 28.6865 30.7773 28.7274 30.718C28.7703 30.6566 28.7918 30.5769 28.7918 30.4787C28.7918 30.3479 28.7509 30.2508 28.6691 30.1874C28.5894 30.1219 28.4616 30.0892 28.2857 30.0892ZM30.7869 32L30.5538 31.3682H29.7073L29.4742 32H29.1307L29.9619 29.8009H30.3054L31.1335 32H30.7869ZM30.241 30.4634C30.2348 30.4409 30.2236 30.4072 30.2072 30.3622C30.1929 30.3152 30.1786 30.2681 30.1643 30.2211C30.15 30.172 30.1387 30.1322 30.1306 30.1015C30.1203 30.1424 30.1081 30.1874 30.0938 30.2365C30.0815 30.2835 30.0692 30.3274 30.0569 30.3683C30.0447 30.4072 30.0345 30.4389 30.0263 30.4634L29.8055 31.0799H30.4618L30.241 30.4634ZM32.0422 29.8101C32.2303 29.8101 32.3847 29.8336 32.5054 29.8807C32.626 29.9277 32.716 29.9982 32.7753 30.0923C32.8346 30.1843 32.8642 30.3009 32.8642 30.4419C32.8642 30.5544 32.8427 30.6495 32.7998 30.7272C32.7589 30.8028 32.7057 30.8652 32.6403 30.9143C32.5749 30.9613 32.5064 30.9991 32.4348 31.0277L33.0482 32H32.6679L32.1404 31.1136H31.7601V32H31.4288V29.8101H32.0422ZM32.0208 30.0923H31.7601V30.8376H32.0361C32.1486 30.8376 32.2406 30.8233 32.3121 30.7947C32.3857 30.766 32.4389 30.7231 32.4716 30.6658C32.5064 30.6086 32.5238 30.538 32.5238 30.4542C32.5238 30.3663 32.5054 30.2968 32.4686 30.2457C32.4338 30.1925 32.3786 30.1536 32.3029 30.1291C32.2293 30.1046 32.1353 30.0923 32.0208 30.0923ZM34.1058 32H33.7745V30.0954H33.1182V29.8101H34.7621V30.0954H34.1058V32ZM36.8952 32H36.4934L35.3862 30.2303H35.3739C35.376 30.2712 35.378 30.3152 35.3801 30.3622C35.3841 30.4092 35.3872 30.4593 35.3893 30.5125C35.3913 30.5636 35.3933 30.6168 35.3954 30.672C35.3974 30.7251 35.3985 30.7793 35.3985 30.8345V32H35.0979V29.8101H35.4966L36.6007 31.5706H36.6099C36.6079 31.5399 36.6059 31.5021 36.6038 31.4571C36.6018 31.4101 36.5997 31.36 36.5977 31.3068C36.5977 31.2537 36.5967 31.1995 36.5946 31.1443C36.5926 31.0891 36.5905 31.0369 36.5885 30.9879V29.8101H36.8952V32ZM38.712 32H37.479V29.8101H38.712V30.0923H37.8103V30.718H38.6568V30.9971H37.8103V31.7148H38.712V32ZM39.7997 29.8101C39.9878 29.8101 40.1422 29.8336 40.2628 29.8807C40.3834 29.9277 40.4734 29.9982 40.5327 30.0923C40.592 30.1843 40.6217 30.3009 40.6217 30.4419C40.6217 30.5544 40.6002 30.6495 40.5572 30.7272C40.5164 30.8028 40.4632 30.8652 40.3978 30.9143C40.3323 30.9613 40.2638 30.9991 40.1923 31.0277L40.8057 32H40.4254L39.8978 31.1136H39.5175V32H39.1863V29.8101H39.7997ZM39.7782 30.0923H39.5175V30.8376H39.7936C39.906 30.8376 39.998 30.8233 40.0696 30.7947C40.1432 30.766 40.1964 30.7231 40.2291 30.6658C40.2638 30.6086 40.2812 30.538 40.2812 30.4542C40.2812 30.3663 40.2628 30.2968 40.226 30.2457C40.1912 30.1925 40.136 30.1536 40.0604 30.1291C39.9868 30.1046 39.8927 30.0923 39.7782 30.0923Z" fill="#101E55"/>
</svg>
