<svg width="78" height="33" viewBox="0 0 78 33" fill="none" xmlns="http://www.w3.org/2000/svg">
<path d="M26.8764 10.4734C27.182 10.6685 27.6556 10.8349 28.2406 10.9462C28.8256 11.1126 29.4382 11.1401 30.0795 11.1401C30.6921 11.1401 31.2496 11.0575 31.7506 10.9175C32.2517 10.7511 32.6977 10.5297 33.0873 10.2508C33.4493 9.97316 33.7562 9.64045 33.9516 9.19523C34.1458 8.77873 34.2573 8.3347 34.2573 7.80689C34.2573 7.19531 34.0631 6.63997 33.7011 6.1397C33.339 5.66695 32.7253 5.27798 31.8621 5.00031L30.191 4.44498C29.5784 4.25109 29.1049 4.02849 28.8532 3.77835C28.6314 3.55574 28.4911 3.27807 28.4911 2.91662C28.4911 2.44507 28.6865 2.05609 29.0486 1.86101C29.4382 1.6396 29.9405 1.50077 30.637 1.50077C31.5001 1.50077 32.2242 1.66713 32.9482 1.97232C33.1436 2.0561 33.3103 2.13988 33.4218 2.13988C33.6172 2.13988 33.7011 2.02857 33.7011 1.75091V1.27815C33.7011 1.11179 33.6723 0.972962 33.5896 0.889184C33.5057 0.777878 33.3942 0.666566 33.2276 0.583985C33.1161 0.500206 32.9207 0.416434 32.7253 0.388907C32.5311 0.306325 32.3081 0.277598 32.0575 0.195017C31.8346 0.166292 31.5552 0.083708 31.2771 0.083708C30.999 -7.05319e-05 30.7197 -6.10352e-05 30.4691 -6.10352e-05C29.9117 -6.10352e-05 29.4669 0.0837108 28.9934 0.195017C28.5199 0.361377 28.1015 0.555258 27.7395 0.805396C27.3774 1.08306 27.1269 1.38946 26.8764 1.77843C26.6534 2.1674 26.5695 2.5839 26.5695 3.1117C26.5695 3.72329 26.7649 4.30616 27.1545 4.83396C27.5441 5.38929 28.1579 5.77825 29.0761 6.02839L30.8036 6.58372C31.3886 6.77881 31.7782 6.9727 32.0012 7.19531C32.2242 7.41792 32.3081 7.69559 32.3081 8.00079C32.3081 8.47354 32.1127 8.8625 31.6955 9.14017C31.2771 9.41783 30.7197 9.52914 29.9405 9.52914C29.4669 9.52914 28.9934 9.50162 28.5475 9.36279C28.0739 9.27901 27.6556 9.14017 27.2108 8.94509C27.0993 8.91756 26.9878 8.8625 26.9039 8.83497C26.82 8.80625 26.7361 8.80626 26.6809 8.80626C26.4855 8.80626 26.4028 8.91756 26.4028 9.19523V9.77927C26.4028 9.89058 26.4304 10.0007 26.4855 10.1407C26.5695 10.2796 26.6809 10.3621 26.8764 10.4734Z" fill="white"/>
<path d="M6.71896 4.72257C6.30058 4.63879 5.85486 4.63878 5.4649 4.63878C4.26706 4.63878 3.29209 4.94518 2.54008 5.58429C1.78796 6.19468 1.45361 7.02886 1.45361 8.02822C1.45361 9.00125 1.73222 9.75047 2.31723 10.3345C2.90212 10.9174 3.68217 11.195 4.68497 11.195C6.07772 11.195 7.24762 10.6397 8.19467 9.55659C8.30616 9.83425 8.41765 10.0568 8.55671 10.2507C8.69577 10.4458 8.83602 10.6397 8.97508 10.8061C9.08657 10.9174 9.19806 10.9736 9.33712 10.9736C9.41984 10.9736 9.53132 10.9461 9.64281 10.8623L10.3957 10.362C10.5623 10.2507 10.6186 10.1394 10.6186 10.0006C10.6186 9.91802 10.5899 9.83424 10.5347 9.72294C10.3681 9.41775 10.2278 9.14009 10.1451 8.86242C10.0612 8.58475 10.0336 8.25083 10.0336 7.80681V3.91709C10.0336 2.63887 9.72673 1.66704 9.0578 1.00041C8.39007 0.333769 7.38669 0.0273743 5.93842 0.0273743C5.26986 0.0273743 4.65703 0.111158 4.07214 0.249991C3.51494 0.416351 3.01361 0.555172 2.59571 0.80531C2.4286 0.889089 2.31723 0.971676 2.2893 1.02793C2.20574 1.11171 2.20574 1.25055 2.20574 1.44443V2.02848C2.20574 2.2499 2.28929 2.41626 2.42859 2.41626C2.45641 2.41626 2.54009 2.41627 2.62364 2.38874C2.7072 2.36121 2.84649 2.30615 3.04142 2.22237C3.45932 2.05601 3.90491 1.91718 4.32281 1.8334C4.74059 1.7221 5.1863 1.66703 5.6042 1.66703C6.55113 1.66703 7.16371 1.86093 7.55452 2.22237C7.94412 2.58382 8.11075 3.22293 8.11075 4.13971V5.00023C7.60966 4.88892 7.19248 4.80634 6.71896 4.72257ZM8.08319 6.83378C8.08319 7.22275 8.05561 7.58419 7.9717 7.83433C7.88778 8.11199 7.7775 8.38966 7.58209 8.58474C7.2752 8.94499 6.88559 9.19514 6.43988 9.33397C6.02198 9.50153 5.57627 9.55659 5.1863 9.55659C4.62922 9.55659 4.21132 9.39022 3.93284 9.14008C3.65424 8.86241 3.51495 8.44472 3.51495 7.88939C3.51495 7.30653 3.70999 6.83379 4.09996 6.52859C4.48992 6.2234 5.07493 6.05584 5.85487 6.05584C6.21702 6.05584 6.60747 6.08336 6.99707 6.13961C7.38668 6.16714 7.74872 6.25092 8.08319 6.3335V6.83378Z" fill="white"/>
<path d="M14.0913 10.2794C14.174 10.5008 14.258 10.6684 14.3143 10.751C14.397 10.8348 14.5373 10.8623 14.7878 10.8623H15.79C16.013 10.8623 16.1796 10.8348 16.2635 10.751C16.3475 10.6684 16.4314 10.5296 16.4865 10.2794L18.3255 2.61129L20.192 10.2794C20.2196 10.5008 20.3023 10.6684 20.4138 10.751C20.4977 10.8348 20.6931 10.8623 20.8873 10.8623H21.8907C22.0861 10.8623 22.2527 10.8348 22.3642 10.751C22.4481 10.6684 22.5596 10.5296 22.5872 10.2794L25.4835 1.11166C25.5122 1.00036 25.5674 0.889041 25.5674 0.833986C25.5674 0.750208 25.5949 0.722687 25.5949 0.638909C25.5949 0.445021 25.5122 0.361249 25.3168 0.361249H24.2307C24.0077 0.361249 23.8411 0.388761 23.7572 0.472539C23.6733 0.556318 23.5894 0.695166 23.5342 0.944108L21.4723 8.91741L19.5506 0.916568C19.5231 0.695154 19.4392 0.5276 19.3277 0.445018C19.2437 0.36124 19.0495 0.33371 18.8541 0.33371H17.8795C17.6565 0.33371 17.4899 0.36124 17.406 0.445018C17.3221 0.5276 17.2382 0.66643 17.183 0.916568L15.3165 8.77858L13.3385 0.916568C13.2558 0.695154 13.1719 0.5276 13.1155 0.445018C13.0328 0.36124 12.8937 0.33371 12.642 0.33371H11.4732C11.2778 0.33371 11.1938 0.416303 11.1938 0.611387C11.1938 0.695166 11.2214 0.833986 11.3053 1.08412L14.0913 10.2794Z" fill="white"/>
<path d="M31.7556 16.03C27.3812 17.891 22.5908 18.7803 18.2728 18.7803C11.8377 18.7803 5.59856 17.0293 0.556675 14.0851C0.138896 13.8074 -0.223262 14.279 0.166705 14.6404C4.84643 18.8354 11.0021 21.3631 17.8832 21.3631C22.7575 21.3631 28.4398 19.8359 32.3958 16.918C32.9532 16.474 32.4234 15.7798 31.7556 16.03Z" fill="white"/>
<path d="M29.3025 14.4183C28.9405 14.6409 29.0244 15.0023 29.3864 14.9736C30.6392 14.8073 33.4803 14.4745 33.955 15.1412C34.4561 15.7516 33.3976 18.4193 32.9516 19.6138C32.785 19.9752 33.1183 20.114 33.4527 19.8352C35.5698 18.0854 36.0997 14.3907 35.6813 13.8905C35.2353 13.2789 31.5311 12.8624 29.3025 14.4183Z" fill="white"/>
<path d="M45.0475 8.41661C44.9648 8.41661 44.8809 8.38909 44.8809 8.25026V1.83282C44.8809 1.74904 44.9084 1.66645 45.0475 1.66645H45.2429C45.3544 1.66645 45.4095 1.69399 45.4095 1.83282L45.4383 2.22179C45.7164 1.99918 46.0233 1.83282 46.3014 1.72151C46.5796 1.61021 46.8589 1.55515 47.1646 1.55515C47.7783 1.55515 48.2519 1.77776 48.6139 2.22179C48.9759 2.63829 49.1701 3.27739 49.1701 4.00028C49.1701 4.77822 48.9759 5.38862 48.6139 5.86137C48.2231 6.33292 47.7496 6.55554 47.0818 6.55554C46.4968 6.55554 45.9945 6.33292 45.4934 5.88889V8.22274C45.4934 8.30532 45.4659 8.38909 45.3268 8.38909H45.0475V8.41661ZM46.9979 6.08399C47.499 6.08399 47.8886 5.91643 48.168 5.58371C48.4461 5.22227 48.5576 4.72198 48.5576 4.05534C48.5576 2.72207 48.0565 2.08296 47.0255 2.08296C46.5244 2.08296 45.967 2.27805 45.4659 2.69455V5.44486C45.744 5.66628 45.967 5.83384 46.2175 5.94395C46.4681 6.0002 46.7474 6.08399 46.9979 6.08399Z" fill="white"/>
<path d="M51.4516 6.55554C51.0344 6.55554 50.6711 6.44423 50.393 6.16657C50.1149 5.94396 50.0034 5.5837 50.0034 5.1672C50.0034 4.69445 50.1701 4.36053 50.4769 4.08286C50.7826 3.8052 51.2286 3.69389 51.7585 3.69389C52.1756 3.69389 52.6216 3.77768 53.1227 3.91651V3.13858C53.1227 2.7496 53.04 2.47193 52.8446 2.3331C52.6491 2.16674 52.371 2.11048 51.9526 2.11048C51.5355 2.11048 51.0619 2.19427 50.5884 2.3331C50.5608 2.3331 50.4769 2.36062 50.4206 2.36062C50.3379 2.36062 50.3379 2.33309 50.3379 2.24931V2.05542C50.3379 2.02789 50.3379 1.97166 50.3655 1.94413C50.393 1.9166 50.393 1.9166 50.4494 1.86034C50.9505 1.66646 51.4516 1.55515 52.0366 1.55515C52.594 1.55515 53.0112 1.66645 53.2905 1.91659C53.5686 2.13801 53.6801 2.49946 53.6801 2.97221V6.3054C53.6801 6.38918 53.6525 6.47295 53.5135 6.47295H53.3181C53.2342 6.47295 53.1514 6.44423 53.1514 6.3054L53.1227 5.91643C52.6216 6.36165 52.0366 6.55554 51.4516 6.55554ZM51.5355 6.08399C51.7585 6.08399 52.0366 6.05526 52.3147 5.91643C52.594 5.80512 52.8721 5.69501 53.179 5.49992V4.33302C52.7606 4.22171 52.371 4.16665 51.9251 4.16665C51.0344 4.16665 50.5884 4.52809 50.5884 5.1672C50.5884 5.44487 50.6711 5.66629 50.8114 5.83385C50.978 6.00021 51.2286 6.08399 51.5355 6.08399Z" fill="white"/>
<path d="M55.3224 6.47383C55.2385 6.47383 55.1558 6.44511 55.1558 6.30627V1.8337C55.1558 1.75112 55.1833 1.66733 55.3224 1.66733H55.5178C55.6293 1.66733 55.6844 1.69486 55.6844 1.8337L55.712 2.38903C55.935 2.11137 56.1855 1.91748 56.4085 1.8337C56.6315 1.72239 56.9108 1.66733 57.1889 1.66733C57.3004 1.66733 57.3843 1.66733 57.4119 1.66733C57.4946 1.66733 57.5785 1.69486 57.5785 1.8337V2.0563C57.5785 2.08382 57.5785 2.08382 57.5509 2.13888C57.5509 2.1676 57.5234 2.1676 57.467 2.1676C57.4395 2.1676 57.3555 2.1676 57.3004 2.1676C57.2728 2.1676 57.1889 2.1676 57.105 2.1676C56.8269 2.1676 56.5476 2.19514 56.3258 2.33397C56.1028 2.44528 55.9074 2.61164 55.6569 2.83425V6.30627C55.6569 6.39005 55.6293 6.47383 55.489 6.47383H55.3224Z" fill="white"/>
<path d="M60.0626 6.52856C59.6718 6.52856 59.3937 6.41725 59.1983 6.22336C59.0041 6.02828 58.8926 5.75061 58.8926 5.36164V2.22234H58.1398C58.0571 2.22234 57.9731 2.1948 57.9731 2.05597V1.9722C57.9731 1.94467 57.9731 1.88962 58.0007 1.86089C58.0007 1.83336 58.0283 1.83337 58.1122 1.83337L58.8926 1.75079L58.9753 0.500097C58.9753 0.47257 59.0041 0.416316 59.0041 0.388788C59.0317 0.361261 59.0317 0.361267 59.1156 0.361267H59.2822C59.3661 0.361267 59.4489 0.388785 59.4489 0.527618V1.77831H60.8143C60.8982 1.77831 60.9809 1.80585 60.9809 1.94468V2.13976C60.9809 2.22234 60.9533 2.30613 60.8143 2.30613H59.4489V5.44541C59.4489 5.72307 59.4776 5.86191 59.6167 6.00075C59.7282 6.11205 59.9224 6.16712 60.1741 6.16712C60.3683 6.16712 60.5362 6.1671 60.6477 6.13958C60.7304 6.13958 60.7579 6.11205 60.8143 6.11205C60.8419 6.11205 60.8982 6.11205 60.8982 6.11205C60.9809 6.11205 61.0097 6.13958 61.0097 6.22336V6.38971C61.0097 6.50102 60.9809 6.55608 60.8982 6.5836C60.6477 6.4735 60.3959 6.52856 60.0626 6.52856Z" fill="white"/>
<path d="M62.1786 6.47371C62.0947 6.47371 62.0107 6.44499 62.0107 6.30616V1.83358C62.0107 1.751 62.0395 1.66721 62.1786 1.66721H62.374C62.4843 1.66721 62.5406 1.69475 62.5406 1.83358L62.5682 2.22255C62.8751 1.99994 63.1808 1.83358 63.5428 1.72227C63.906 1.61097 64.2117 1.52838 64.5186 1.52838C64.9922 1.52838 65.3266 1.63969 65.5772 1.88983C65.8001 2.11124 65.9392 2.47269 65.9392 2.97296V6.27863C65.9392 6.36241 65.9116 6.44499 65.7714 6.44499H65.4932C65.4093 6.44499 65.3266 6.41747 65.3266 6.27863V3.25062C65.3266 2.83412 65.2427 2.55646 65.1036 2.36138C64.9358 2.16749 64.6853 2.08372 64.3508 2.08372C63.7382 2.08372 63.0981 2.2788 62.513 2.6953V6.3624C62.513 6.44498 62.4843 6.52877 62.3452 6.52877H62.151V6.47371H62.1786Z" fill="white"/>
<path d="M69.4197 6.58306C68.668 6.58306 68.083 6.38918 67.7486 5.97268C67.3578 5.55618 67.1636 4.91706 67.1636 4.05534C67.1636 3.2774 67.3578 2.66582 67.7486 2.22179C68.1382 1.80529 68.6956 1.55515 69.3358 1.55515C69.9208 1.55515 70.3392 1.7215 70.6736 2.05542C70.9793 2.36062 71.1472 2.83337 71.1472 3.44376C71.1472 3.66637 71.1472 3.86146 71.1184 4.02782C71.1184 4.1104 71.0357 4.19417 70.9517 4.19417H67.7486C67.7486 4.86081 67.9152 5.3611 68.1658 5.66629C68.4451 5.97268 68.9186 6.13903 69.5036 6.13903C69.9771 6.13903 70.3943 6.05526 70.7851 5.91643C70.8678 5.8889 70.9517 5.88889 70.9517 5.88889C70.9793 5.88889 70.9793 5.8889 71.0357 5.91643C71.0357 5.94396 71.0632 5.94395 71.0632 6.0002V6.16657C71.0632 6.27787 71.0357 6.33292 70.9517 6.36165C70.4507 6.47295 69.9771 6.58306 69.4197 6.58306ZM70.5897 3.75014C70.5897 3.66636 70.5897 3.55506 70.5897 3.44376C70.5897 2.9722 70.4782 2.66582 70.2828 2.44441C70.0598 2.2218 69.7266 2.08296 69.3082 2.08296C68.3048 2.08296 67.7762 2.63828 67.721 3.75014H70.5897Z" fill="white"/>
<path d="M72.4298 6.47383C72.3459 6.47383 72.2632 6.44511 72.2632 6.30627V1.8337C72.2632 1.75112 72.2907 1.66733 72.4298 1.66733H72.6252C72.7367 1.66733 72.7918 1.69486 72.7918 1.8337L72.8194 2.38903C73.0424 2.11137 73.2929 1.91748 73.5159 1.8337C73.7389 1.72239 74.0182 1.66733 74.2963 1.66733C74.4078 1.66733 74.4917 1.66733 74.5193 1.66733C74.6032 1.66733 74.6859 1.69486 74.6859 1.8337V2.0563C74.6859 2.08382 74.6859 2.08382 74.6584 2.13888C74.6584 2.1676 74.6308 2.1676 74.5744 2.1676C74.5193 2.1676 74.463 2.1676 74.4078 2.1676C74.3803 2.1676 74.2963 2.1676 74.2124 2.1676C73.9343 2.1676 73.6562 2.19514 73.4332 2.33397C73.2102 2.44528 73.0148 2.61164 72.7643 2.83425V6.30627C72.7643 6.39005 72.7367 6.47383 72.5976 6.47383H72.4298Z" fill="white"/>
<path d="M45.0475 16.9457C44.9648 16.9457 44.8809 16.9182 44.8809 16.7794V12.3343C44.8809 12.2518 44.9084 12.168 45.0475 12.168H45.2429C45.3544 12.168 45.4095 12.1955 45.4095 12.3343L45.4383 12.7233C45.744 12.5007 46.0509 12.3343 46.4129 12.223C46.775 12.1117 47.0818 12.0291 47.3875 12.0291C47.8611 12.0291 48.1955 12.1405 48.4461 12.3906C48.669 12.612 48.8081 12.9734 48.8081 13.4737V16.7794C48.8081 16.8632 48.7805 16.9457 48.6415 16.9457H48.3622C48.2794 16.9457 48.1955 16.9182 48.1955 16.7794V13.6963C48.1955 13.2786 48.1116 13.001 47.9726 12.8071C47.8059 12.612 47.5554 12.5294 47.2209 12.5294C46.6083 12.5294 45.967 12.7233 45.382 13.1398V16.8069C45.382 16.8907 45.3544 16.9745 45.2153 16.9745H45.0199V16.9457H45.0475Z" fill="white"/>
<path d="M52.3123 17.0843C51.5594 17.0843 50.9756 16.8904 50.6412 16.4739C50.2504 16.0574 50.0562 15.4183 50.0562 14.5566C50.0562 13.7786 50.2504 13.1682 50.6412 12.723C51.0308 12.3065 51.5882 12.0564 52.2284 12.0564C52.8134 12.0564 53.2317 12.2227 53.5662 12.5566C53.8719 12.8618 54.0397 13.3346 54.0397 13.9462C54.0397 14.1676 54.0397 14.3627 54.011 14.529C54.011 14.6128 53.9283 14.6954 53.8443 14.6954H50.6412C50.6412 15.362 50.8078 15.8623 51.0583 16.1675C51.3377 16.4739 51.8112 16.6403 52.3962 16.6403C52.8697 16.6403 53.2869 16.5565 53.6765 16.4176C53.7604 16.3901 53.8443 16.3901 53.8443 16.3901C53.8719 16.3901 53.8719 16.3901 53.9282 16.4176C53.9282 16.4464 53.9558 16.4464 53.9558 16.5014V16.6678C53.9558 16.7791 53.9283 16.8353 53.8443 16.8629C53.3708 16.9742 52.841 17.0843 52.3123 17.0843ZM53.4823 14.2238C53.4823 14.1401 53.4823 14.0288 53.4823 13.9175C53.4823 13.4459 53.3708 13.1395 53.1754 12.9181C52.9524 12.6955 52.618 12.5566 52.2008 12.5566C51.1974 12.5566 50.6687 13.112 50.6124 14.2238H53.4823Z" fill="white"/>
<path d="M56.6803 17.0296C56.2895 17.0296 56.0114 16.9184 55.816 16.7245C55.6218 16.5294 55.5103 16.2517 55.5103 15.8627V12.6684H54.7575C54.6747 12.6684 54.5908 12.6409 54.5908 12.502V12.4182C54.5908 12.3907 54.5908 12.3345 54.6184 12.3069C54.6184 12.2794 54.646 12.2794 54.7299 12.2794L55.5103 12.1956L55.593 10.9461C55.593 10.9186 55.6218 10.8624 55.6218 10.8348C55.6494 10.8073 55.6494 10.8073 55.7321 10.8073H55.8999C55.9838 10.8073 56.0665 10.8348 56.0665 10.9737V12.2244H57.432C57.5159 12.2244 57.5986 12.2519 57.5986 12.3907V12.5846C57.5986 12.6684 57.571 12.7522 57.432 12.7522H56.0953V15.8915C56.0953 16.1691 56.1229 16.308 56.2619 16.4468C56.401 16.5856 56.5688 16.6132 56.8194 16.6132C57.0136 16.6132 57.1814 16.6132 57.2929 16.5856C57.3756 16.5856 57.4044 16.5581 57.4595 16.5581C57.4871 16.5581 57.5434 16.5581 57.5434 16.5581C57.6274 16.5581 57.6549 16.5856 57.6549 16.6682V16.8358C57.6549 16.9471 57.6274 17.0021 57.5434 17.0296C57.2653 16.9746 56.986 17.0296 56.6803 17.0296Z" fill="white"/>
<path d="M59.7622 16.946C59.6783 16.946 59.5955 16.9184 59.5668 16.8358L58.091 12.4459C58.0635 12.3621 58.0635 12.3345 58.0635 12.2795C58.0635 12.2232 58.0911 12.1957 58.175 12.1957H58.4807C58.5646 12.1957 58.5922 12.2232 58.6485 12.307L59.9288 16.308L61.0713 12.307C61.0988 12.2232 61.1552 12.1957 61.2666 12.1957H61.6287C61.7126 12.1957 61.7953 12.2232 61.8241 12.307L62.9653 16.308L64.3032 12.252C64.3308 12.1682 64.3859 12.1407 64.4698 12.1407H64.748C64.8319 12.1407 64.8594 12.1682 64.8594 12.2232C64.8594 12.252 64.8594 12.307 64.8319 12.3908L63.2722 16.7796C63.2447 16.8634 63.1883 16.8909 63.0768 16.8909H62.7711C62.6872 16.8909 62.6033 16.8634 62.5757 16.7796L61.4333 12.7798L60.292 16.7796C60.2633 16.8634 60.2081 16.8909 60.0966 16.8909H59.8185V16.946H59.7622Z" fill="white"/>
<path d="M67.6216 17.0846C66.9251 17.0846 66.3689 16.8632 65.9781 16.4179C65.5885 16.0014 65.3931 15.3623 65.3931 14.5569C65.3931 13.7789 65.5885 13.1685 65.9781 12.6958C66.3689 12.2793 66.9251 12.0291 67.6216 12.0291C68.3181 12.0291 68.8756 12.2518 69.2652 12.6958C69.656 13.1123 69.8502 13.7514 69.8502 14.5569C69.8502 15.3348 69.656 15.9464 69.2652 16.4179C68.848 16.8632 68.3181 17.0846 67.6216 17.0846ZM67.6216 16.5855C68.7089 16.5855 69.2652 15.9189 69.2652 14.5569C69.2652 13.1961 68.7089 12.5294 67.6216 12.5294C66.5355 12.5294 65.9781 13.1961 65.9781 14.5569C65.9781 15.9189 66.5079 16.5855 67.6216 16.5855Z" fill="white"/>
<path d="M71.1805 16.9457C71.0966 16.9457 71.0127 16.9181 71.0127 16.7793V12.3342C71.0127 12.2517 71.0415 12.1679 71.1805 12.1679H71.3747C71.4862 12.1679 71.5426 12.1954 71.5426 12.3342L71.5701 12.8896C71.7931 12.6119 72.0437 12.418 72.2666 12.3342C72.4896 12.2229 72.7677 12.1679 73.0471 12.1679C73.1585 12.1679 73.2413 12.1679 73.2688 12.1679C73.3527 12.1679 73.4367 12.1954 73.4367 12.3342V12.5568C73.4367 12.5844 73.4366 12.5844 73.4091 12.6406C73.3803 12.6682 73.3803 12.6682 73.3252 12.6682C73.2976 12.6682 73.2137 12.6682 73.1585 12.6682C73.1298 12.6682 73.047 12.6682 72.9631 12.6682C72.685 12.6682 72.4057 12.6957 72.1827 12.8345C71.9597 12.9458 71.7655 13.1122 71.515 13.3348V16.8068C71.515 16.8906 71.4862 16.9744 71.3472 16.9744H71.153V16.9457H71.1805Z" fill="white"/>
<path d="M74.4337 16.9462C74.351 16.9462 74.2671 16.9187 74.2671 16.7798V10.0847C74.2671 10.001 74.2947 9.91837 74.4337 9.91837H74.7131C74.797 9.91837 74.8797 9.9459 74.8797 10.0847V14.3072L77.1358 12.2797C77.2197 12.196 77.3036 12.1959 77.3588 12.1959H77.7208C77.8047 12.1959 77.8323 12.2235 77.8323 12.2797C77.8323 12.3348 77.8047 12.3623 77.7208 12.4461L75.4095 14.4747L77.9162 16.7798C77.9438 16.8074 78.0001 16.8636 78.0001 16.8911C78.0001 16.9749 77.9726 16.9749 77.8887 16.9749H77.4978C77.4151 16.9749 77.3312 16.9462 77.3036 16.8911L74.8797 14.6411V16.8074C74.8797 16.8911 74.8521 16.9749 74.7131 16.9749H74.4337V16.9462Z" fill="white"/>
<path d="M1.89819 28.9777C1.36892 28.7826 0.978946 28.5337 0.756091 28.2548C0.533235 27.9772 0.421875 27.6169 0.421875 27.1717C0.421875 26.6164 0.616799 26.1723 1.0347 25.8384C1.45248 25.5045 2.00967 25.3382 2.70605 25.3382C3.29094 25.3382 3.84815 25.4495 4.40523 25.6721V26.6714C3.82021 26.5051 3.29094 26.3938 2.78961 26.3938C2.09323 26.3938 1.73107 26.6164 1.73107 27.0604C1.73107 27.228 1.78682 27.3668 1.89819 27.4769C2.00968 27.5882 2.26034 27.6995 2.59456 27.8108L3.26313 28.061C3.82021 28.2549 4.21017 28.505 4.43303 28.7551C4.65588 29.0328 4.79519 29.3667 4.79519 29.8107C4.79519 30.4223 4.57233 30.8951 4.12662 31.2553C3.68091 31.6168 3.09602 31.7831 2.31608 31.7831C1.98174 31.7831 1.64752 31.7556 1.31318 31.7005C0.978954 31.6443 0.700347 31.5617 0.449679 31.4504V30.4223C0.756091 30.5061 1.0625 30.5887 1.39685 30.6449C1.73107 30.7 2.03748 30.7275 2.31608 30.7275C2.67812 30.7275 2.92891 30.6725 3.12383 30.5336C3.31888 30.3948 3.40243 30.2272 3.40243 29.9783C3.40243 29.7832 3.34668 29.6444 3.23531 29.5331C3.12383 29.4218 2.87317 29.3105 2.53882 29.1716L1.89819 28.9777ZM6.80065 29.7281C6.82823 30.1171 6.93971 30.3948 7.16268 30.5887C7.38566 30.755 7.72013 30.8388 8.16608 30.8388C8.55569 30.8388 9.0292 30.755 9.55907 30.6162V31.4779C9.36367 31.5892 9.11312 31.6718 8.80623 31.7281C8.52811 31.7831 8.22122 31.8118 7.91553 31.8118C7.16269 31.8118 6.57768 31.6168 6.18795 31.2003C5.79798 30.7838 5.60306 30.1997 5.60306 29.3942C5.60306 28.6438 5.79798 28.061 6.18795 27.6169C6.57768 27.1992 7.13512 26.9778 7.83162 26.9778C8.41663 26.9778 8.86258 27.1442 9.19584 27.4769C9.50273 27.8108 9.66936 28.2548 9.66936 28.8664C9.66936 29.0053 9.66936 29.1441 9.64179 29.3104C9.61421 29.478 9.61422 29.6168 9.58665 29.7281H6.80065ZM7.7477 27.8946C7.44201 27.8946 7.21903 27.9772 7.0512 28.1447C6.88457 28.3111 6.80065 28.5612 6.77308 28.894H8.52811V28.7551C8.52811 28.1723 8.27757 27.8946 7.7477 27.8946ZM12.6508 31.5892C12.4002 31.7005 12.1209 31.7281 11.8428 31.7281C11.0348 31.7281 10.6452 31.284 10.6452 30.3948V25.088H11.9543V30.2835C11.9543 30.4498 11.9818 30.5611 12.0382 30.6449C12.0933 30.7 12.1772 30.755 12.3163 30.755C12.4002 30.755 12.5117 30.755 12.6508 30.7275V31.5892ZM14.5173 29.7281C14.5449 30.1171 14.6563 30.3948 14.8793 30.5887C15.1023 30.755 15.4356 30.8388 15.8815 30.8388C16.2723 30.8388 16.7458 30.755 17.2745 30.6162V31.4779C17.0791 31.5892 16.8286 31.6718 16.5229 31.7281C16.2435 31.7831 15.9379 31.8118 15.631 31.8118C14.8793 31.8118 14.2943 31.6168 13.9035 31.2003C13.5139 30.7838 13.3185 30.1997 13.3185 29.3942C13.3185 28.6438 13.5139 28.061 13.9035 27.6169C14.2943 27.1992 14.8505 26.9778 15.547 26.9778C16.1321 26.9778 16.578 27.1442 16.9125 27.4769C17.2194 27.8108 17.386 28.2548 17.386 28.8664C17.386 29.0053 17.386 29.1441 17.3584 29.3104C17.3309 29.478 17.3308 29.6168 17.3021 29.7281H14.5173ZM15.4919 27.8946C15.185 27.8946 14.962 27.9772 14.7954 28.1447C14.6288 28.3111 14.5449 28.5612 14.5173 28.894H16.2723V28.7551C16.2435 28.1723 15.993 27.8946 15.4919 27.8946ZM21.6477 31.4779C21.4811 31.5617 21.2857 31.6443 21.0627 31.7005C20.8397 31.7556 20.5892 31.7831 20.3662 31.7831C19.6421 31.7831 19.0847 31.5892 18.6951 31.1727C18.3055 30.755 18.1101 30.1722 18.1101 29.4218C18.1101 28.6725 18.3055 28.0885 18.7227 27.672C19.141 27.2555 19.6985 27.0329 20.395 27.0329C20.8397 27.0329 21.2305 27.1167 21.5926 27.3105V28.1723C21.2305 28.0609 20.9236 28.0334 20.6167 28.0334C20.1996 28.0334 19.8927 28.1447 19.6985 28.3386C19.5031 28.5612 19.4192 28.894 19.4192 29.3392V29.478C19.4192 29.922 19.5031 30.256 19.6985 30.4774C19.8927 30.7 20.1996 30.7838 20.5892 30.7838C20.8685 30.7838 21.2305 30.7275 21.5926 30.6162V31.4779H21.6477ZM25.2693 31.5617C24.9348 31.6718 24.6003 31.7556 24.1832 31.7556C23.6809 31.7556 23.2913 31.6443 23.0683 31.3941C22.8177 31.144 22.7062 30.7838 22.7062 30.2835V28.0885H22.0097V27.283L22.7338 27.1442L22.9292 25.8935H23.9878V27.1167H25.2129V28.0885H23.9878V30.2272C23.9878 30.4223 24.0441 30.5611 24.1268 30.6449C24.2107 30.7275 24.3774 30.755 24.6003 30.755C24.7957 30.755 24.9911 30.7275 25.2417 30.7V31.5617H25.2693Z" fill="white"/>
<path d="M28.526 31.0769C28.4733 31.0769 28.4507 31.0552 28.4507 31.0048V27.9385H27.3521C27.2994 27.9385 27.2769 27.9167 27.2769 27.8661V27.7508C27.2769 27.7004 27.2994 27.6786 27.3521 27.6786H29.8504C29.9029 27.6786 29.9256 27.7004 29.9256 27.7508V27.8661C29.9256 27.9167 29.9029 27.9385 29.8504 27.9385H28.7517V31.0048C28.7517 31.0552 28.7291 31.0769 28.6764 31.0769H28.526ZM31.5058 31.149C31.0994 31.149 30.7983 31.0409 30.5878 30.8171C30.3844 30.5936 30.2792 30.2688 30.2792 29.8358C30.2792 29.4246 30.3844 29.1072 30.5878 28.8763C30.7983 28.6453 31.0842 28.5372 31.4531 28.5372C31.7617 28.5372 32.0023 28.6239 32.1677 28.7899C32.3335 28.963 32.4161 29.2011 32.4161 29.5184C32.4161 29.6484 32.4087 29.7494 32.3934 29.8143C32.386 29.8647 32.3559 29.8865 32.3034 29.8865H30.5726C30.5726 30.2327 30.6555 30.4851 30.806 30.6439C30.9563 30.8099 31.1972 30.8892 31.5207 30.8892C31.7691 30.8892 32.0023 30.846 32.2205 30.7667C32.2655 30.7521 32.2956 30.745 32.3109 30.745C32.3258 30.745 32.3335 30.7521 32.3484 30.7593C32.3559 30.7739 32.3637 30.781 32.3637 30.8028V30.8749C32.3637 30.9252 32.3484 30.9613 32.3034 30.9759C32.0699 31.0912 31.7992 31.149 31.5058 31.149ZM32.1376 29.6627C32.1376 29.6195 32.1454 29.5616 32.1454 29.5041C32.1454 29.266 32.0852 29.0929 31.9647 28.9701C31.8442 28.8474 31.6713 28.7899 31.4378 28.7899C30.8961 28.7899 30.6101 29.0855 30.58 29.6698H32.1376V29.6627ZM34.1392 31.1344C33.748 31.1344 33.4472 31.0263 33.2364 30.8099C33.0333 30.5936 32.9278 30.2688 32.9278 29.8504C32.9278 29.4317 33.0333 29.1144 33.2364 28.8909C33.4472 28.6671 33.748 28.5589 34.1392 28.5589C34.3273 28.5589 34.508 28.5878 34.6735 28.6528C34.7111 28.6671 34.7337 28.7031 34.7337 28.7538V28.8259C34.7337 28.8691 34.7111 28.8909 34.6735 28.8909C34.6661 28.8909 34.6508 28.8909 34.6359 28.8834C34.6207 28.8763 34.5984 28.8763 34.5608 28.8691C34.4251 28.8402 34.2898 28.8185 34.1544 28.8185C33.8309 28.8185 33.5974 28.898 33.4546 29.0565C33.3115 29.2154 33.2364 29.4681 33.2364 29.8215V29.8793C33.2364 30.2184 33.3115 30.4708 33.4546 30.6296C33.5974 30.7882 33.8309 30.8749 34.147 30.8749C34.2823 30.8749 34.4251 30.8531 34.5909 30.8099C34.6285 30.8028 34.6508 30.7956 34.6661 30.7882C34.681 30.781 34.6962 30.781 34.7036 30.781C34.7412 30.781 34.7639 30.8028 34.7639 30.846V30.9181C34.7639 30.9688 34.7486 31.0048 34.7111 31.0191C34.5381 31.0912 34.3426 31.1344 34.1392 31.1344ZM35.4562 31.0769C35.4034 31.0769 35.3807 31.0552 35.3807 31.0048V27.5198C35.3807 27.4695 35.4034 27.4477 35.4562 27.4477H35.5916C35.6443 27.4477 35.6667 27.4695 35.6667 27.5198V28.8909C35.8325 28.7824 36.0054 28.696 36.1935 28.631C36.3742 28.5661 36.5546 28.5372 36.7279 28.5372C36.9759 28.5372 37.1641 28.6021 37.2997 28.7249C37.4351 28.8474 37.4953 29.0351 37.4953 29.2803V31.0048C37.4953 31.0552 37.4727 31.0769 37.4199 31.0769H37.2845C37.2321 31.0769 37.2094 31.0552 37.2094 31.0048V29.4031C37.2094 29.1936 37.1641 29.0351 37.0815 28.9412C36.9986 28.8474 36.8632 28.797 36.6751 28.797C36.3364 28.797 36.0054 28.898 35.6819 29.1072V31.0048C35.6819 31.0552 35.6592 31.0769 35.6065 31.0769H35.4562ZM38.3606 31.0769C38.3078 31.0769 38.2855 31.0552 38.2855 31.0048V28.6814C38.2855 28.631 38.3078 28.6093 38.3606 28.6093H38.4658C38.5186 28.6093 38.5487 28.631 38.5562 28.6814L38.5789 28.8909C38.7443 28.7752 38.925 28.6888 39.1054 28.6239C39.2861 28.5589 39.4668 28.53 39.6397 28.53C39.8881 28.53 40.0762 28.595 40.2116 28.7174C40.3469 28.8402 40.4072 29.0279 40.4072 29.2732V31.0048C40.4072 31.0552 40.3848 31.0769 40.3321 31.0769H40.1967C40.1439 31.0769 40.1212 31.0552 40.1212 31.0048V29.4031C40.1212 29.1936 40.0762 29.0351 39.9933 28.9412C39.9108 28.8474 39.7751 28.797 39.5873 28.797C39.2485 28.797 38.9176 28.898 38.5938 29.1072V31.0048C38.5938 31.0552 38.5714 31.0769 38.5186 31.0769H38.3606ZM42.2433 31.149C41.867 31.149 41.5736 31.0337 41.3706 30.8028C41.1598 30.5718 41.062 30.247 41.062 29.8358C41.062 29.4246 41.1672 29.1072 41.3706 28.8763C41.5811 28.6453 41.8744 28.53 42.2433 28.53C42.6196 28.53 42.913 28.6453 43.116 28.8763C43.3268 29.1072 43.432 29.4246 43.432 29.8358C43.432 30.247 43.3268 30.5718 43.116 30.8028C42.913 31.0337 42.6196 31.149 42.2433 31.149ZM42.2433 30.8963C42.8301 30.8963 43.1312 30.5429 43.1312 29.8433C43.1312 29.1433 42.8378 28.797 42.2433 28.797C41.6565 28.797 41.3553 29.1433 41.3553 29.8433C41.3553 30.5429 41.6487 30.8963 42.2433 30.8963ZM44.5308 31.0912C44.3954 31.0912 44.2899 31.0552 44.2147 30.9759C44.1396 30.8966 44.1017 30.7956 44.1017 30.6511V27.5127C44.1017 27.4623 44.1244 27.4406 44.1772 27.4406H44.3125C44.3653 27.4406 44.3877 27.4623 44.3877 27.5127V30.6439C44.3877 30.7161 44.4029 30.7667 44.433 30.7956C44.4631 30.8242 44.5156 30.8388 44.591 30.8388C44.6137 30.8388 44.636 30.8388 44.6587 30.8317C44.6814 30.8317 44.7037 30.8242 44.7189 30.8242C44.7639 30.8242 44.7941 30.846 44.7941 30.8963V30.9902C44.7941 31.0337 44.7717 31.0552 44.7264 31.0623C44.6661 31.0841 44.6059 31.0912 44.5308 31.0912ZM46.4271 31.149C46.0508 31.149 45.7571 31.0337 45.5541 30.8028C45.3433 30.5718 45.2455 30.247 45.2455 29.8358C45.2455 29.4246 45.351 29.1072 45.5541 28.8763C45.7649 28.6453 46.0583 28.53 46.4271 28.53C46.8031 28.53 47.0968 28.6453 47.2998 28.8763C47.5106 29.1072 47.6159 29.4246 47.6159 29.8358C47.6159 30.247 47.5106 30.5718 47.2998 30.8028C47.0968 31.0337 46.8031 31.149 46.4271 31.149ZM46.4271 30.8963C47.0139 30.8963 47.3147 30.5429 47.3147 29.8433C47.3147 29.1433 47.0213 28.797 46.4271 28.797C45.84 28.797 45.5392 29.1433 45.5392 29.8433C45.5466 30.5429 45.84 30.8963 46.4271 30.8963ZM49.1884 32.1446C49.0456 32.1446 48.9024 32.1303 48.7671 32.1014C48.6317 32.0725 48.5113 32.0365 48.406 31.9861C48.3685 31.9715 48.3458 31.9354 48.3458 31.8851V31.8127C48.3458 31.7695 48.3607 31.748 48.406 31.748C48.4135 31.748 48.4284 31.748 48.4361 31.7552C48.451 31.7552 48.4737 31.7623 48.5038 31.7766C48.7444 31.8487 48.9701 31.8922 49.166 31.8922C49.4821 31.8922 49.7153 31.8201 49.8658 31.6684C50.0161 31.5171 50.0915 31.279 50.0915 30.9541V30.7161C49.9636 30.8171 49.8279 30.8963 49.6699 30.9541C49.5197 31.012 49.3691 31.0409 49.2337 31.0409C48.9024 31.0409 48.6466 30.9252 48.4436 30.7018C48.248 30.478 48.1502 30.1824 48.1502 29.8143C48.1502 29.4174 48.248 29.1072 48.4436 28.8763C48.6392 28.6453 48.9102 28.53 49.2486 28.53C49.5721 28.53 49.8506 28.6382 50.099 28.8548L50.1217 28.6742C50.1291 28.6239 50.1592 28.6021 50.2117 28.6021H50.3172C50.3697 28.6021 50.3924 28.6239 50.3924 28.6742V30.9541C50.3924 31.3365 50.2871 31.6324 50.0838 31.8344C49.8807 32.0365 49.5721 32.1446 49.1884 32.1446ZM49.3014 30.7882C49.5572 30.7882 49.8205 30.6871 50.0915 30.478V29.1144C49.9484 29.0062 49.8205 28.9195 49.6851 28.8691C49.5572 28.8185 49.4141 28.7899 49.2713 28.7899C49.0002 28.7899 48.7898 28.8763 48.6544 29.0422C48.5187 29.2154 48.451 29.4606 48.451 29.7997C48.451 30.1174 48.5265 30.3626 48.6693 30.5358C48.8124 30.7089 49.0229 30.7882 49.3014 30.7882ZM51.2729 32.1446C51.19 32.1446 51.1148 32.1303 51.0397 32.1086C50.9869 32.0943 50.9642 32.0654 50.9642 32.0075V31.9354C50.9642 31.8922 50.9869 31.8705 51.0245 31.8705C51.0471 31.8705 51.062 31.8705 51.0773 31.8776C51.0922 31.8776 51.1148 31.8851 51.1449 31.8851C51.1751 31.8851 51.2052 31.8851 51.2502 31.8851C51.3632 31.8851 51.4536 31.8562 51.5212 31.7984C51.5889 31.7405 51.6491 31.6395 51.7094 31.4953L51.8823 31.0841L50.8739 28.7103C50.859 28.6814 50.8516 28.6599 50.8516 28.6453C50.8516 28.6093 50.8739 28.5878 50.9115 28.5878H51.0773C51.1223 28.5878 51.1524 28.6093 51.1676 28.6528L52.0251 30.7593L52.8907 28.6528C52.9056 28.6093 52.9357 28.5878 52.981 28.5878H53.1313C53.1689 28.5878 53.1915 28.6021 53.1915 28.6453C53.1915 28.6528 53.1841 28.6742 53.1689 28.7103L51.9652 31.582C51.8823 31.7841 51.7845 31.9211 51.6793 32.0075C51.5737 32.1086 51.4383 32.1446 51.2729 32.1446Z" fill="white"/>
<path d="M55.636 32.0469C55.5688 32.0469 55.54 32.0178 55.54 31.9491V27.5383C55.54 27.47 55.5688 27.4406 55.636 27.4406H57.0951C57.5077 27.4406 57.8341 27.5678 58.084 27.8122C58.3335 28.0569 58.4488 28.3894 58.4488 28.8099C58.4488 29.2206 58.324 29.5531 58.084 29.7974C57.8341 30.0422 57.5077 30.169 57.0951 30.169H55.9144V31.9491C55.9144 32.0178 55.8856 32.0469 55.8184 32.0469H55.636ZM57.0855 29.8172C57.7287 29.8172 58.0551 29.4848 58.0551 28.8099C58.0551 28.1349 57.7287 27.7928 57.0855 27.7928H55.9144V29.8172H57.0855ZM60.0517 32.1252C59.7542 32.1252 59.5142 32.0372 59.3316 31.8611C59.1589 31.685 59.0631 31.4503 59.0631 31.157C59.0631 30.8343 59.1684 30.5798 59.3894 30.394C59.61 30.2082 59.9079 30.1105 60.2822 30.1105C60.5701 30.1105 60.887 30.1593 61.2133 30.2672V29.7098C61.2133 29.4359 61.146 29.2501 61.0212 29.1326C60.8965 29.015 60.6854 28.9565 60.3974 28.9565C60.0996 28.9565 59.7827 29.015 59.4469 29.1229C59.4084 29.1326 59.37 29.1423 59.351 29.1423C59.3126 29.1423 59.2837 29.1132 59.2837 29.0542V28.9468C59.2837 28.9076 59.2932 28.8882 59.3031 28.8684C59.3126 28.849 59.3415 28.8292 59.37 28.8195C59.7158 28.6826 60.0806 28.6144 60.4644 28.6144C60.8486 28.6144 61.127 28.6923 61.3187 28.8587C61.5108 29.0251 61.5971 29.2695 61.5971 29.6019V31.9491C61.5971 32.0178 61.5682 32.0469 61.5013 32.0469H61.3666C61.2997 32.0469 61.2708 32.0178 61.2613 31.9491L61.2323 31.6656C60.8486 31.9685 60.4549 32.1252 60.0517 32.1252ZM60.0996 31.773C60.2628 31.773 60.4454 31.7439 60.637 31.6753C60.8291 31.607 61.0212 31.5093 61.2228 31.382V30.5508C60.9349 30.4724 60.647 30.4332 60.378 30.4332C59.7732 30.4332 59.4663 30.6679 59.4663 31.1474C59.4663 31.3525 59.5237 31.5093 59.6295 31.6167C59.7253 31.7241 59.8885 31.773 60.0996 31.773ZM62.6914 32.0469C62.6241 32.0469 62.5956 32.0178 62.5956 31.9491V28.8002C62.5956 28.7315 62.6241 28.7024 62.6914 28.7024H62.8162C62.8835 28.7024 62.922 28.7315 62.9315 28.8002L62.9604 29.1911C63.1236 29.0053 63.2867 28.8684 63.4499 28.8002C63.6131 28.7218 63.7858 28.6826 63.9874 28.6826C64.0547 28.6826 64.1121 28.6826 64.1601 28.6923C64.2274 28.6923 64.2563 28.7315 64.2563 28.8002V28.9662C64.2563 28.986 64.2464 29.0053 64.2369 29.015C64.2274 29.0348 64.208 29.0348 64.189 29.0348C64.1505 29.0348 64.1216 29.0348 64.0931 29.0348C64.0642 29.0348 64.0163 29.0348 63.9585 29.0348C63.7569 29.0348 63.5842 29.074 63.4305 29.152C63.2772 29.2303 63.1236 29.3479 62.9889 29.5139V31.9588C62.9889 32.0275 62.9604 32.0566 62.893 32.0566H62.6914V32.0469ZM65.8497 32.0861C65.5907 32.0861 65.3986 32.0178 65.2639 31.8809C65.1296 31.7439 65.0627 31.5383 65.0627 31.2742V29.0445H64.5442C64.4769 29.0445 64.448 29.015 64.448 28.9468V28.8785C64.448 28.8393 64.4579 28.8195 64.4674 28.8002C64.4769 28.7804 64.5058 28.7707 64.5442 28.7707L65.0722 28.7218L65.1201 27.8416C65.1201 27.8025 65.1296 27.7831 65.149 27.7633C65.168 27.7439 65.1875 27.7439 65.216 27.7439H65.3312C65.3986 27.7439 65.4275 27.7734 65.4275 27.8416V28.7121H66.3776C66.445 28.7121 66.4735 28.7416 66.4735 28.8099V28.9468C66.4735 29.015 66.445 29.0445 66.3776 29.0445H65.4275V31.2548C65.4275 31.4406 65.4655 31.5678 65.5423 31.6361C65.6192 31.7145 65.7439 31.7536 65.9265 31.7536C66.0513 31.7536 66.1665 31.7439 66.2624 31.7241C66.3103 31.7145 66.3487 31.7048 66.3776 31.7048C66.4065 31.6951 66.4255 31.6951 66.445 31.6951C66.4929 31.6951 66.5214 31.7241 66.5214 31.773V31.8708C66.5214 31.9491 66.5024 31.9883 66.445 32.0077C66.2719 32.0566 66.0703 32.0861 65.8497 32.0861ZM67.2993 32.0469C67.2319 32.0469 67.203 32.0178 67.203 31.9491V28.8002C67.203 28.7315 67.2319 28.7024 67.2993 28.7024H67.4335C67.5009 28.7024 67.5393 28.7315 67.5488 28.8002L67.5773 29.0837C67.7888 28.9274 68.0189 28.8099 68.2494 28.7218C68.4799 28.6337 68.7101 28.5946 68.9311 28.5946C69.2479 28.5946 69.4879 28.6826 69.6606 28.849C69.8333 29.015 69.9101 29.2695 69.9101 29.6019V31.9491C69.9101 32.0178 69.8812 32.0469 69.8143 32.0469H69.6412C69.5743 32.0469 69.5454 32.0178 69.5454 31.9491V29.7781C69.5454 29.4945 69.4879 29.2792 69.3822 29.152C69.2764 29.0251 69.1037 28.9565 68.8637 28.9565C68.432 28.9565 68.0094 29.0934 67.5967 29.3769V31.9491C67.5967 32.0178 67.5678 32.0469 67.5009 32.0469H67.2993ZM72.3004 32.1446C71.7819 32.1446 71.3982 31.998 71.1292 31.6951C70.8702 31.3917 70.7355 30.9514 70.7355 30.365C70.7355 29.8075 70.8702 29.377 71.1292 29.0643C71.3982 28.7513 71.7629 28.6047 72.2331 28.6047C72.6268 28.6047 72.9337 28.7218 73.1452 28.9468C73.3563 29.1815 73.4617 29.5042 73.4617 29.9344C73.4617 30.1105 73.4522 30.2474 73.4331 30.3355C73.4236 30.4041 73.3852 30.4332 73.3179 30.4332H71.1102C71.1102 30.9026 71.2156 31.2451 71.4077 31.46C71.5998 31.685 71.9067 31.7928 72.3194 31.7928C72.6363 31.7928 72.9337 31.7338 73.2121 31.6264C73.27 31.607 73.3084 31.5969 73.3274 31.5969C73.3468 31.5969 73.3563 31.607 73.3753 31.6167C73.3852 31.6361 73.3947 31.6458 73.3947 31.6753V31.773C73.3947 31.8417 73.3753 31.8906 73.3179 31.9099C73.0204 32.0667 72.6747 32.1446 72.3004 32.1446ZM73.1068 30.1303C73.1068 30.0713 73.1163 29.9933 73.1163 29.915C73.1163 29.5922 73.0395 29.3576 72.8858 29.1911C72.7321 29.0251 72.5115 28.9468 72.2141 28.9468C71.5229 28.9468 71.1581 29.3479 71.1197 30.14H73.1068V30.1303ZM74.3928 32.0469C74.3259 32.0469 74.297 32.0178 74.297 31.9491V28.8002C74.297 28.7315 74.3259 28.7024 74.3928 28.7024H74.5176C74.5849 28.7024 74.6233 28.7315 74.6328 28.8002L74.6617 29.1911C74.8249 29.0053 74.9881 28.8684 75.1513 28.8002C75.3145 28.7218 75.4871 28.6826 75.6887 28.6826C75.7561 28.6826 75.8135 28.6826 75.8618 28.6923C75.9287 28.6923 75.9577 28.7315 75.9577 28.8002V28.9662C75.9577 28.986 75.9482 29.0053 75.9382 29.015C75.9287 29.0348 75.9097 29.0348 75.8903 29.0348C75.8519 29.0348 75.8234 29.0348 75.7945 29.0348C75.7656 29.0348 75.7176 29.0348 75.6602 29.0348C75.4586 29.0348 75.2855 29.074 75.1323 29.152C74.9786 29.2303 74.8249 29.3479 74.6907 29.5139V31.9588C74.6907 32.0275 74.6617 32.0566 74.5944 32.0566H74.3928V32.0469Z" fill="white"/>
</svg>
