<svg width="113" height="37" viewBox="0 0 113 37" fill="none" xmlns="http://www.w3.org/2000/svg">
<path d="M38.6654 11.8456C39.1051 12.0663 39.7862 12.2544 40.6276 12.3803C41.469 12.5685 42.35 12.5996 43.2725 12.5996C44.1535 12.5996 44.9553 12.5062 45.676 12.3478C46.3967 12.1597 47.0381 11.9092 47.5985 11.5938C48.1192 11.2798 48.5606 10.9035 48.8416 10.3999C49.1209 9.92888 49.2813 9.42668 49.2813 8.82973C49.2813 8.13802 49.002 7.50993 48.4813 6.94411C47.9606 6.40943 47.0778 5.9695 45.8363 5.65546L43.4328 5.02737C42.5518 4.80808 41.8707 4.55632 41.5086 4.27341C41.1896 4.02163 40.9879 3.70759 40.9879 3.29879C40.9879 2.76546 41.269 2.32553 41.7897 2.10489C42.35 1.85446 43.0725 1.69745 44.0742 1.69745C45.3156 1.69745 46.3571 1.8856 47.3985 2.23078C47.6795 2.32553 47.9192 2.42028 48.0795 2.42028C48.3606 2.42028 48.4813 2.2944 48.4813 1.98036V1.44567C48.4813 1.25751 48.4399 1.1005 48.3209 1.00574C48.2002 0.879855 48.0399 0.753961 47.8002 0.66056C47.6398 0.565806 47.3588 0.471059 47.0778 0.439926C46.7984 0.346525 46.4777 0.314035 46.1174 0.220634C45.7967 0.188147 45.3949 0.0947434 44.9949 0.0947434C44.5949 -1.07409e-05 44.1932 0 43.8328 0C43.0311 0 42.3914 0.0947466 41.7103 0.220634C41.0293 0.408789 40.4276 0.62807 39.9068 0.910979C39.3861 1.22502 39.0258 1.57156 38.6654 2.01149C38.3447 2.45142 38.224 2.92248 38.224 3.51943C38.224 4.21113 38.5051 4.87037 39.0654 5.46732C39.6258 6.0954 40.5086 6.53531 41.8293 6.81822L44.3139 7.44631C45.1553 7.66695 45.7157 7.88624 46.0364 8.13802C46.3571 8.3898 46.4777 8.70384 46.4777 9.04902C46.4777 9.5837 46.1967 10.0236 45.5967 10.3377C44.9949 10.6517 44.1932 10.7776 43.0725 10.7776C42.3914 10.7776 41.7103 10.7465 41.0689 10.5895C40.3879 10.4947 39.7862 10.3377 39.1465 10.117C38.9861 10.0859 38.8258 10.0236 38.7051 9.99249C38.5844 9.96 38.4637 9.96002 38.3844 9.96002C38.1033 9.96002 37.9844 10.0859 37.9844 10.3999V11.0605C37.9844 11.1864 38.024 11.3109 38.1033 11.4693C38.224 11.6263 38.3844 11.7197 38.6654 11.8456Z" fill="black"/>
<path d="M9.65602 5.3413C9.05427 5.24655 8.41321 5.24654 7.85233 5.24654C6.12952 5.24654 4.72724 5.59308 3.64565 6.31592C2.56389 7.00627 2.08301 7.94974 2.08301 9.08002C2.08301 10.1805 2.48372 11.0279 3.32513 11.6885C4.16636 12.3477 5.28829 12.6617 6.73058 12.6617C8.73374 12.6617 10.4164 12.0337 11.7785 10.8086C11.9388 11.1227 12.0992 11.3744 12.2992 11.5937C12.4992 11.8143 12.7009 12.0336 12.9009 12.2218C13.0613 12.3477 13.2216 12.4113 13.4217 12.4113C13.5406 12.4113 13.701 12.3802 13.8613 12.2854L14.9441 11.7196C15.1838 11.5937 15.2648 11.4678 15.2648 11.3108C15.2648 11.2174 15.2234 11.1227 15.1441 10.9968C14.9045 10.6516 14.7027 10.3376 14.5838 10.0235C14.4631 9.70947 14.4234 9.3318 14.4234 8.8296V4.43031C14.4234 2.98463 13.982 1.88548 13.0199 1.13151C12.0595 0.37754 10.6164 0.0310059 8.53339 0.0310059C7.57181 0.0310059 6.6904 0.125766 5.84917 0.282787C5.04776 0.470942 4.32671 0.627949 3.72566 0.910857C3.4853 1.00561 3.32513 1.09902 3.28495 1.16264C3.16478 1.25739 3.16477 1.41442 3.16477 1.63371V2.29427C3.16477 2.54469 3.28494 2.73286 3.4853 2.73286C3.5253 2.73286 3.64565 2.73286 3.76583 2.70173C3.88601 2.6706 4.08635 2.60832 4.3667 2.51356C4.96776 2.32541 5.60864 2.16839 6.2097 2.07364C6.81058 1.94775 7.45163 1.88547 8.05269 1.88547C9.41463 1.88547 10.2957 2.10477 10.8578 2.51356C11.4181 2.92236 11.6578 3.64521 11.6578 4.68209V5.65534C10.9371 5.52945 10.3371 5.43606 9.65602 5.3413ZM11.6181 7.7291C11.6181 8.16903 11.5785 8.57782 11.4578 8.86073C11.3371 9.17477 11.1785 9.48881 10.8974 9.70946C10.456 10.1169 9.89567 10.3998 9.25462 10.5568C8.65356 10.7463 8.01251 10.8086 7.45163 10.8086C6.6504 10.8086 6.04934 10.6205 5.64881 10.3375C5.24811 10.0235 5.04777 9.55109 5.04777 8.92301C5.04777 8.26379 5.32829 7.72911 5.88917 7.38394C6.45005 7.03876 7.29145 6.84925 8.41321 6.84925C8.93409 6.84925 9.49566 6.88037 10.056 6.94399C10.6164 6.97512 11.1371 7.06988 11.6181 7.16328V7.7291Z" fill="black"/>
<path d="M20.267 11.6268C20.386 11.8773 20.5066 12.0668 20.5877 12.1602C20.7066 12.2549 20.9084 12.2861 21.2687 12.2861H22.7102C23.0309 12.2861 23.2705 12.2549 23.3912 12.1602C23.5119 12.0668 23.6326 11.9098 23.7119 11.6268L26.3568 2.95413L29.0414 11.6268C29.0811 11.8773 29.2 12.0668 29.3604 12.1602C29.4811 12.2549 29.7621 12.2861 30.0414 12.2861H31.4846C31.7656 12.2861 32.0053 12.2549 32.1656 12.1602C32.2863 12.0668 32.4467 11.9098 32.4863 11.6268L36.652 1.25805C36.6934 1.13216 36.7727 1.00626 36.7727 0.943991C36.7727 0.849236 36.8123 0.81811 36.8123 0.723356C36.8123 0.504068 36.6934 0.409321 36.4123 0.409321H34.8502C34.5295 0.409321 34.2898 0.440437 34.1692 0.535191C34.0485 0.629946 33.9278 0.786984 33.8484 1.06854L30.8828 10.0864L28.119 1.03739C28.0793 0.78697 27.9586 0.597465 27.7983 0.504065C27.6776 0.40931 27.3982 0.378174 27.1172 0.378174H25.7154C25.3947 0.378174 25.1551 0.40931 25.0344 0.504065C24.9137 0.597465 24.793 0.754483 24.7137 1.03739L22.0291 9.92939L19.1842 1.03739C19.0652 0.78697 18.9445 0.597465 18.8635 0.504065C18.7445 0.40931 18.5445 0.378174 18.1824 0.378174H16.5013C16.2203 0.378174 16.0996 0.471588 16.0996 0.69223C16.0996 0.786984 16.1393 0.94399 16.26 1.2269L20.267 11.6268Z" fill="black"/>
<path d="M45.6733 18.1294C39.3817 20.2342 32.4918 21.24 26.2813 21.24C17.0258 21.24 8.05226 19.2596 0.800651 15.9297C0.19977 15.6157 -0.321112 16.149 0.239768 16.5578C6.9705 21.3023 15.8241 24.1611 25.7209 24.1611C32.7315 24.1611 40.9042 22.4339 46.594 19.1338C47.3958 18.6316 46.6337 17.8464 45.6733 18.1294Z" fill="#FF9900"/>
<path d="M42.1498 16.3082C41.6291 16.56 41.7498 16.9688 42.2705 16.9363C44.0723 16.7482 48.1586 16.3718 48.8414 17.1258C49.5621 17.8162 48.0397 20.8334 47.3983 22.1843C47.1586 22.5931 47.6379 22.7502 48.119 22.4348C51.1639 20.4557 51.926 16.2771 51.3243 15.7113C50.6829 15.0196 45.3551 14.5485 42.1498 16.3082Z" fill="#FF9900"/>
<path d="M64.7787 9.51818C64.6598 9.51818 64.5391 9.48706 64.5391 9.33004V2.07187C64.5391 1.97711 64.5787 1.8837 64.7787 1.8837H65.0598C65.2201 1.8837 65.2994 1.91485 65.2994 2.07187L65.3408 2.51179C65.7408 2.26002 66.1822 2.07187 66.5823 1.94598C66.9823 1.82009 67.384 1.75781 67.8236 1.75781C68.7064 1.75781 69.3875 2.0096 69.9082 2.51179C70.4289 2.98286 70.7082 3.70569 70.7082 4.52328C70.7082 5.40314 70.4289 6.0935 69.9082 6.62819C69.3461 7.16152 68.6651 7.41329 67.7047 7.41329C66.8633 7.41329 66.1408 7.16151 65.4201 6.65931V9.29891C65.4201 9.39231 65.3805 9.48705 65.1805 9.48705H64.7787V9.51818ZM67.584 6.87997C68.3047 6.87997 68.8651 6.69046 69.2668 6.31415C69.6668 5.90535 69.8272 5.33953 69.8272 4.58555C69.8272 3.07761 69.1065 2.35478 67.6236 2.35478C66.9029 2.35478 66.1012 2.57542 65.3805 3.04648V6.15711C65.7805 6.40753 66.1012 6.59705 66.4615 6.72159C66.8219 6.78521 67.2236 6.87997 67.584 6.87997Z" fill="black"/>
<path d="M73.9959 7.41329C73.3959 7.41329 72.8735 7.28741 72.4734 6.97337C72.0734 6.72159 71.9131 6.31414 71.9131 5.84308C71.9131 5.30839 72.1528 4.93072 72.5941 4.61668C73.0338 4.30264 73.6752 4.17675 74.4373 4.17675C75.0373 4.17675 75.6787 4.27151 76.3994 4.42854V3.54868C76.3994 3.10875 76.2805 2.79471 75.9994 2.63768C75.7184 2.44953 75.3184 2.3859 74.7166 2.3859C74.1166 2.3859 73.4355 2.48066 72.7545 2.63768C72.7148 2.63768 72.5941 2.66881 72.5131 2.66881C72.3941 2.66881 72.3941 2.63767 72.3941 2.54292V2.32363C72.3941 2.2925 72.3941 2.22889 72.4338 2.19776C72.4735 2.16663 72.4734 2.16662 72.5545 2.10299C73.2752 1.88371 73.9959 1.75781 74.8373 1.75781C75.6391 1.75781 76.2391 1.8837 76.6408 2.16661C77.0408 2.41703 77.2012 2.82583 77.2012 3.36052V7.13039C77.2012 7.22514 77.1615 7.31989 76.9615 7.31989H76.6805C76.5598 7.31989 76.4408 7.28741 76.4408 7.13039L76.3994 6.69046C75.6787 7.19401 74.8373 7.41329 73.9959 7.41329ZM74.1166 6.87997C74.4373 6.87997 74.8373 6.84748 75.2373 6.69046C75.6391 6.56457 76.0391 6.44003 76.4805 6.21939V4.89961C75.8787 4.77372 75.3184 4.71144 74.677 4.71144C73.3959 4.71144 72.7545 5.12024 72.7545 5.84308C72.7545 6.15712 72.8735 6.40755 73.0752 6.59706C73.3148 6.78521 73.6752 6.87997 74.1166 6.87997Z" fill="black"/>
<path d="M79.5561 7.32193C79.4354 7.32193 79.3164 7.28945 79.3164 7.13242V2.07391C79.3164 1.98051 79.356 1.88574 79.5561 1.88574H79.8371C79.9974 1.88574 80.0768 1.91689 80.0768 2.07391L80.1164 2.702C80.4371 2.38796 80.7975 2.16866 81.1182 2.07391C81.4389 1.94802 81.8406 1.88574 82.2406 1.88574C82.401 1.88574 82.5217 1.88574 82.5613 1.88574C82.6803 1.88574 82.801 1.91689 82.801 2.07391V2.32567C82.801 2.3568 82.801 2.3568 82.7613 2.41907C82.7613 2.45156 82.7217 2.45156 82.6406 2.45156C82.601 2.45156 82.4803 2.45156 82.401 2.45156C82.3613 2.45156 82.2406 2.45156 82.1199 2.45156C81.7199 2.45156 81.3182 2.4827 80.9992 2.63972C80.6785 2.76561 80.3975 2.95377 80.0371 3.20554V7.13242C80.0371 7.22718 79.9975 7.32193 79.7957 7.32193H79.5561Z" fill="black"/>
<path d="M86.3685 7.38248C85.8065 7.38248 85.4065 7.25659 85.1254 7.0373C84.8461 6.81666 84.6857 6.50262 84.6857 6.06269V2.51211H83.603C83.484 2.51211 83.3633 2.48097 83.3633 2.32395V2.2292C83.3633 2.19807 83.3633 2.1358 83.4029 2.10331C83.4029 2.07218 83.4426 2.07219 83.5633 2.07219L84.6857 1.97879L84.8047 0.564244C84.8047 0.533111 84.8461 0.469487 84.8461 0.438353C84.8857 0.40722 84.8857 0.407227 85.0064 0.407227H85.2461C85.3668 0.407227 85.4858 0.43835 85.4858 0.595371V2.00991H87.4496C87.5703 2.00991 87.6893 2.04106 87.6893 2.19808V2.41871C87.6893 2.51211 87.6496 2.60688 87.4496 2.60688H85.4858V6.15743C85.4858 6.47147 85.5271 6.6285 85.7272 6.78552C85.8875 6.91141 86.1668 6.97368 86.5289 6.97368C86.8082 6.97368 87.0496 6.97367 87.21 6.94254C87.3289 6.94254 87.3686 6.91141 87.4496 6.91141C87.4893 6.91141 87.5703 6.91141 87.5703 6.91141C87.6893 6.91141 87.7307 6.94255 87.7307 7.0373V7.22545C87.7307 7.35133 87.6893 7.4136 87.5703 7.44474C87.21 7.3202 86.8479 7.38248 86.3685 7.38248Z" fill="black"/>
<path d="M89.4191 7.32075C89.2984 7.32075 89.1777 7.28826 89.1777 7.13124V2.07272C89.1777 1.97932 89.2191 1.88456 89.4191 1.88456H89.7002C89.8588 1.88456 89.9398 1.9157 89.9398 2.07272L89.9795 2.51265C90.4209 2.26087 90.8605 2.07272 91.3813 1.94683C91.9037 1.82094 92.3434 1.72754 92.7848 1.72754C93.4658 1.72754 93.9469 1.85343 94.3072 2.13634C94.6279 2.38676 94.8279 2.79555 94.8279 3.36137V7.10011C94.8279 7.19487 94.7883 7.28826 94.5865 7.28826H94.1865C94.0658 7.28826 93.9469 7.25713 93.9469 7.10011V3.67541C93.9469 3.20434 93.8262 2.89031 93.6262 2.66966C93.3848 2.45038 93.0244 2.35563 92.5434 2.35563C91.6623 2.35563 90.7416 2.57627 89.9002 3.04734V7.19486C89.9002 7.28826 89.8588 7.38302 89.6588 7.38302H89.3795V7.32075H89.4191Z" fill="black"/>
<path d="M99.8465 7.44442C98.7654 7.44442 97.924 7.22514 97.443 6.75408C96.8809 6.28301 96.6016 5.56017 96.6016 4.58555C96.6016 3.70569 96.8809 3.01399 97.443 2.51179C98.0033 2.04073 98.8051 1.75781 99.7258 1.75781C100.567 1.75781 101.169 1.94597 101.65 2.32363C102.09 2.6688 102.331 3.20349 102.331 3.89385C102.331 4.14562 102.331 4.36627 102.29 4.55443C102.29 4.64783 102.171 4.74257 102.05 4.74257H97.443C97.443 5.49654 97.6826 6.06238 98.043 6.40755C98.4447 6.75408 99.1258 6.94222 99.9672 6.94222C100.648 6.94222 101.248 6.84748 101.81 6.69046C101.929 6.65933 102.05 6.65931 102.05 6.65931C102.09 6.65931 102.09 6.65933 102.171 6.69046C102.171 6.72159 102.21 6.72158 102.21 6.7852V6.97337C102.21 7.09926 102.171 7.16151 102.05 7.194C101.329 7.31989 100.648 7.44442 99.8465 7.44442ZM101.529 4.24037C101.529 4.14562 101.529 4.01973 101.529 3.89385C101.529 3.36052 101.369 3.014 101.088 2.76358C100.767 2.5118 100.288 2.35478 99.6861 2.35478C98.243 2.35478 97.4826 2.98285 97.4033 4.24037H101.529Z" fill="black"/>
<path d="M104.165 7.32193C104.045 7.32193 103.926 7.28945 103.926 7.13242V2.07391C103.926 1.98051 103.965 1.88574 104.165 1.88574H104.446C104.607 1.88574 104.686 1.91689 104.686 2.07391L104.726 2.702C105.046 2.38796 105.407 2.16866 105.728 2.07391C106.048 1.94802 106.45 1.88574 106.85 1.88574C107.01 1.88574 107.131 1.88574 107.171 1.88574C107.291 1.88574 107.41 1.91689 107.41 2.07391V2.32567C107.41 2.3568 107.41 2.3568 107.371 2.41907C107.371 2.45156 107.331 2.45156 107.25 2.45156C107.171 2.45156 107.09 2.45156 107.01 2.45156C106.971 2.45156 106.85 2.45156 106.729 2.45156C106.329 2.45156 105.929 2.4827 105.609 2.63972C105.288 2.76561 105.007 2.95377 104.646 3.20554V7.13242C104.646 7.22718 104.607 7.32193 104.407 7.32193H104.165Z" fill="black"/>
<path d="M64.7787 19.1642C64.6598 19.1642 64.5391 19.1331 64.5391 18.9761V13.9487C64.5391 13.8553 64.5787 13.7605 64.7787 13.7605H65.0598C65.2201 13.7605 65.2994 13.7917 65.2994 13.9487L65.3408 14.3886C65.7805 14.1368 66.2219 13.9487 66.7426 13.8228C67.2633 13.6969 67.7047 13.6035 68.1444 13.6035C68.8254 13.6035 69.3065 13.7294 69.6668 14.0123C69.9875 14.2627 70.1875 14.6715 70.1875 15.2373V18.9761C70.1875 19.0708 70.1479 19.1642 69.9479 19.1642H69.5461C69.4272 19.1642 69.3065 19.1331 69.3065 18.9761V15.4891C69.3065 15.0167 69.1858 14.7027 68.9858 14.4834C68.7461 14.2627 68.3858 14.1693 67.9047 14.1693C67.0236 14.1693 66.1012 14.3886 65.2598 14.8597V19.0072C65.2598 19.102 65.2201 19.1967 65.0201 19.1967H64.7391V19.1642H64.7787Z" fill="black"/>
<path d="M75.2371 19.3204C74.1543 19.3204 73.3147 19.1011 72.8336 18.6301C72.2715 18.159 71.9922 17.4361 71.9922 16.4615C71.9922 15.5817 72.2715 14.8913 72.8336 14.3878C73.394 13.9167 74.1957 13.6338 75.1164 13.6338C75.9578 13.6338 76.5596 13.8219 77.0406 14.1996C77.4803 14.5448 77.7217 15.0795 77.7217 15.7712C77.7217 16.0216 77.7217 16.2422 77.6803 16.4304C77.6803 16.5252 77.5613 16.6185 77.4406 16.6185H72.8336C72.8336 17.3725 73.0733 17.9383 73.4336 18.2835C73.8353 18.63 74.5164 18.8182 75.3578 18.8182C76.0389 18.8182 76.6389 18.7234 77.1993 18.5664C77.32 18.5353 77.4406 18.5353 77.4406 18.5353C77.4803 18.5353 77.4803 18.5353 77.5613 18.5664C77.5613 18.5989 77.601 18.5989 77.601 18.6612V18.8493C77.601 18.9752 77.5613 19.0388 77.4406 19.07C76.7596 19.1959 75.9975 19.3204 75.2371 19.3204ZM76.9199 16.0852C76.9199 15.9905 76.9199 15.8646 76.9199 15.7387C76.9199 15.2054 76.7596 14.8588 76.4785 14.6084C76.1578 14.3566 75.6768 14.1996 75.0768 14.1996C73.6336 14.1996 72.8733 14.8277 72.7922 16.0852H76.9199Z" fill="black"/>
<path d="M81.5317 19.2592C80.9696 19.2592 80.5695 19.1333 80.2885 18.914C80.0092 18.6934 79.8488 18.3793 79.8488 17.9394V14.3266H78.766C78.6471 14.3266 78.5264 14.2954 78.5264 14.1384V14.0437C78.5264 14.0125 78.5264 13.9489 78.566 13.9178C78.566 13.8866 78.6057 13.8866 78.7264 13.8866L79.8488 13.7919L79.9678 12.3787C79.9678 12.3476 80.0092 12.2839 80.0092 12.2528C80.0488 12.2217 80.0488 12.2217 80.1678 12.2217H80.4092C80.5299 12.2217 80.6489 12.2528 80.6489 12.4098V13.8244H82.6127C82.7334 13.8244 82.8524 13.8555 82.8524 14.0125V14.2318C82.8524 14.3266 82.8127 14.4213 82.6127 14.4213H80.6902V17.9719C80.6902 18.2859 80.7299 18.443 80.9299 18.6C81.1299 18.757 81.3713 18.7881 81.7317 18.7881C82.011 18.7881 82.2523 18.7881 82.4127 18.757C82.5317 18.757 82.5731 18.7259 82.6524 18.7259C82.692 18.7259 82.773 18.7259 82.773 18.7259C82.8937 18.7259 82.9334 18.757 82.9334 18.8504V19.0399C82.9334 19.1658 82.8937 19.2281 82.773 19.2592C82.373 19.1969 81.9713 19.2592 81.5317 19.2592Z" fill="black"/>
<path d="M85.9256 19.1653C85.8049 19.1653 85.6859 19.1342 85.6446 19.0408L83.5221 14.0757C83.4824 13.9809 83.4824 13.9498 83.4824 13.8875C83.4824 13.8239 83.5221 13.7927 83.6428 13.7927H84.0825C84.2031 13.7927 84.2428 13.8239 84.3238 13.9186L86.1653 18.4438L87.8084 13.9186C87.8481 13.8239 87.9291 13.7927 88.0895 13.7927H88.6102C88.7309 13.7927 88.8498 13.8239 88.8912 13.9186L90.5327 18.4438L92.4569 13.8564C92.4965 13.7616 92.5758 13.7305 92.6965 13.7305H93.0965C93.2172 13.7305 93.2569 13.7616 93.2569 13.8239C93.2569 13.8564 93.2569 13.9186 93.2172 14.0134L90.974 18.9771C90.9344 19.0719 90.8534 19.103 90.693 19.103H90.2533C90.1326 19.103 90.012 19.0719 89.9723 18.9771L88.3291 14.4533L86.6877 18.9771C86.6463 19.0719 86.567 19.103 86.4067 19.103H86.0066V19.1653H85.9256Z" fill="black"/>
<path d="M97.2297 19.3212C96.2279 19.3212 95.4279 19.0708 94.8658 18.5673C94.3055 18.0962 94.0244 17.3734 94.0244 16.4624C94.0244 15.5825 94.3055 14.8922 94.8658 14.3575C95.4279 13.8864 96.2279 13.6035 97.2297 13.6035C98.2314 13.6035 99.0332 13.8553 99.5936 14.3575C100.156 14.8286 100.435 15.5514 100.435 16.4624C100.435 17.3422 100.156 18.0339 99.5936 18.5673C98.9935 19.0708 98.2314 19.3212 97.2297 19.3212ZM97.2297 18.7568C98.7935 18.7568 99.5936 18.0028 99.5936 16.4624C99.5936 14.9233 98.7935 14.1693 97.2297 14.1693C95.6676 14.1693 94.8658 14.9233 94.8658 16.4624C94.8658 18.0028 95.6279 18.7568 97.2297 18.7568Z" fill="black"/>
<path d="M102.361 19.1642C102.24 19.1642 102.119 19.1331 102.119 18.976V13.9487C102.119 13.8553 102.161 13.7605 102.361 13.7605H102.64C102.8 13.7605 102.881 13.7916 102.881 13.9487L102.921 14.5767C103.242 14.2627 103.602 14.0434 103.923 13.9487C104.243 13.8228 104.643 13.7605 105.045 13.7605C105.205 13.7605 105.324 13.7605 105.364 13.7605C105.485 13.7605 105.605 13.7916 105.605 13.9487V14.2004C105.605 14.2316 105.605 14.2316 105.566 14.2952C105.524 14.3263 105.524 14.3263 105.445 14.3263C105.405 14.3263 105.285 14.3263 105.205 14.3263C105.164 14.3263 105.045 14.3263 104.924 14.3263C104.524 14.3263 104.123 14.3575 103.802 14.5145C103.481 14.6404 103.202 14.8285 102.842 15.0803V19.0072C102.842 19.1019 102.8 19.1967 102.6 19.1967H102.321V19.1642H102.361Z" fill="black"/>
<path d="M107.048 19.1644C106.929 19.1644 106.809 19.1332 106.809 18.9762V11.404C106.809 11.3092 106.848 11.2158 107.048 11.2158H107.45C107.571 11.2158 107.69 11.247 107.69 11.404V16.1796L110.935 13.8865C111.055 13.7918 111.176 13.7918 111.255 13.7918H111.776C111.897 13.7918 111.936 13.8229 111.936 13.8865C111.936 13.9488 111.897 13.98 111.776 14.0747L108.452 16.3691L112.057 18.9762C112.097 19.0073 112.178 19.0709 112.178 19.1021C112.178 19.1968 112.138 19.1968 112.017 19.1968H111.455C111.336 19.1968 111.216 19.1643 111.176 19.1021L107.69 16.5573V19.0073C107.69 19.1021 107.65 19.1968 107.45 19.1968H107.048V19.1644Z" fill="black"/>
<path d="M2.72588 32.7741C1.96465 32.5534 1.40376 32.2719 1.08323 31.9565C0.762705 31.6424 0.602539 31.235 0.602539 30.7314C0.602539 30.1033 0.882893 29.6011 1.48395 29.2235C2.08483 28.8458 2.88622 28.6577 3.88781 28.6577C4.72904 28.6577 5.53045 28.7836 6.33169 29.0353V30.1656C5.49028 29.9775 4.72905 29.8516 4.00799 29.8516C3.0064 29.8516 2.48552 30.1034 2.48552 30.6056C2.48552 30.7951 2.5657 30.9521 2.72588 31.0766C2.88623 31.2025 3.24675 31.3284 3.72745 31.4543L4.68904 31.7372C5.49027 31.9565 6.05115 32.2394 6.37168 32.5223C6.6922 32.8363 6.89256 33.214 6.89256 33.7162C6.89256 34.4079 6.57203 34.9426 5.93097 35.35C5.28992 35.7588 4.44868 35.947 3.32693 35.947C2.84605 35.947 2.36535 35.9158 1.88448 35.8536C1.40377 35.79 1.00306 35.6966 0.642529 35.5707V34.4079C1.08323 34.5026 1.52394 34.596 2.00481 34.6597C2.48552 34.7219 2.92622 34.7531 3.32693 34.7531C3.84763 34.7531 4.20834 34.6908 4.4887 34.5338C4.76922 34.3768 4.8894 34.1872 4.8894 33.9057C4.8894 33.685 4.80921 33.528 4.64904 33.4021C4.48869 33.2763 4.12817 33.1504 3.64729 32.9933L2.72588 32.7741ZM9.77697 33.6228C9.81662 34.0627 9.97696 34.3768 10.2977 34.5961C10.6184 34.7842 11.0994 34.879 11.7408 34.879C12.3012 34.879 12.9822 34.7842 13.7443 34.6272V35.6018C13.4633 35.7277 13.1029 35.8211 12.6615 35.8847C12.2615 35.947 11.8201 35.9794 11.3805 35.9794C10.2977 35.9794 9.45627 35.7588 8.89573 35.2878C8.33485 34.8167 8.0545 34.1561 8.0545 33.2451C8.0545 32.3964 8.33485 31.7372 8.89573 31.235C9.45627 30.7626 10.258 30.5122 11.2598 30.5122C12.1012 30.5122 12.7426 30.7003 13.2219 31.0766C13.6633 31.4543 13.903 31.9565 13.903 32.6482C13.903 32.8052 13.903 32.9622 13.8633 33.1504C13.8236 33.3399 13.8236 33.4969 13.784 33.6228H9.77697ZM11.1391 31.549C10.6994 31.549 10.3787 31.6424 10.1373 31.8319C9.89766 32.0201 9.77696 32.303 9.73731 32.6793H12.2615V32.5223C12.2615 31.8631 11.9012 31.549 11.1391 31.549ZM18.191 35.7277C17.8307 35.8536 17.4289 35.8847 17.0289 35.8847C15.8668 35.8847 15.3065 35.3825 15.3065 34.3768V28.3748H17.1893V34.2509C17.1893 34.439 17.2289 34.5649 17.31 34.6597C17.3893 34.7219 17.51 34.7842 17.71 34.7842C17.8307 34.7842 17.991 34.7842 18.191 34.7531V35.7277ZM20.8756 33.6228C20.9152 34.0627 21.0756 34.3768 21.3963 34.5961C21.717 34.7842 22.1963 34.879 22.8377 34.879C23.3998 34.879 24.0809 34.7842 24.8412 34.6272V35.6018C24.5602 35.7277 24.1998 35.8211 23.7602 35.8847C23.3584 35.947 22.9188 35.9794 22.4774 35.9794C21.3963 35.9794 20.5549 35.7588 19.9928 35.2878C19.4324 34.8167 19.1514 34.1561 19.1514 33.2451C19.1514 32.3964 19.4324 31.7372 19.9928 31.235C20.5549 30.7626 21.3549 30.5122 22.3567 30.5122C23.1981 30.5122 23.8395 30.7003 24.3205 31.0766C24.7619 31.4543 25.0016 31.9565 25.0016 32.6482C25.0016 32.8052 25.0016 32.9622 24.9619 33.1504C24.9223 33.3399 24.9223 33.4969 24.8809 33.6228H20.8756ZM22.2774 31.549C21.836 31.549 21.5153 31.6424 21.2756 31.8319C21.0359 32.0201 20.9152 32.303 20.8756 32.6793H23.3998V32.5223C23.3584 31.8631 22.9981 31.549 22.2774 31.549ZM31.1311 35.6018C30.8914 35.6965 30.6104 35.79 30.2897 35.8536C29.969 35.9158 29.6086 35.947 29.2879 35.947C28.2465 35.947 27.4448 35.7277 26.8844 35.2566C26.324 34.7842 26.043 34.125 26.043 33.2763C26.043 32.4289 26.324 31.7683 26.9241 31.2972C27.5258 30.8262 28.3276 30.5744 29.3293 30.5744C29.969 30.5744 30.5311 30.6692 31.0518 30.8885V31.8631C30.5311 31.7372 30.0897 31.706 29.6483 31.706C29.0483 31.706 28.6069 31.8319 28.3276 32.0512C28.0465 32.303 27.9258 32.6793 27.9258 33.1829V33.3399C27.9258 33.8421 28.0465 34.2197 28.3276 34.4702C28.6069 34.7219 29.0483 34.8167 29.6086 34.8167C30.0104 34.8167 30.5311 34.7531 31.0518 34.6272V35.6018H31.1311ZM36.3399 35.6965C35.8588 35.8211 35.3778 35.9158 34.7778 35.9158C34.0553 35.9158 33.495 35.7899 33.1743 35.507C32.8139 35.2241 32.6536 34.8167 32.6536 34.2509V31.7683H31.6518V30.8573L32.6932 30.7003L32.9743 29.2858H34.4967V30.6692H36.2589V31.7683H34.4967V34.1873C34.4967 34.4079 34.5778 34.5649 34.6967 34.6597C34.8174 34.7531 35.0571 34.7842 35.3778 34.7842C35.6588 34.7842 35.9399 34.7531 36.3002 34.7219V35.6965H36.3399Z" fill="black"/>
<path d="M41.0153 35.1479C40.9395 35.1479 40.9071 35.1233 40.9071 35.0664V31.5983H39.327C39.2512 31.5983 39.2188 31.5737 39.2188 31.5164V31.386C39.2188 31.329 39.2512 31.3044 39.327 31.3044H42.9203C42.9957 31.3044 43.0283 31.329 43.0283 31.386V31.5164C43.0283 31.5737 42.9957 31.5983 42.9203 31.5983H41.34V35.0664C41.34 35.1233 41.3075 35.1479 41.2317 35.1479H41.0153ZM45.3012 35.2295C44.7167 35.2295 44.2835 35.1071 43.9808 34.854C43.6883 34.6013 43.5369 34.2339 43.5369 33.7442C43.5369 33.2791 43.6883 32.9202 43.9808 32.659C44.2835 32.3978 44.6948 32.2754 45.2253 32.2754C45.6691 32.2754 46.0152 32.3735 46.2532 32.5612C46.4916 32.757 46.6104 33.0263 46.6104 33.3853C46.6104 33.5322 46.5997 33.6465 46.5778 33.7199C46.5671 33.7769 46.5238 33.8015 46.4483 33.8015H43.9589C43.9589 34.1931 44.0781 34.4786 44.2947 34.6582C44.5108 34.8459 44.8573 34.9356 45.3226 34.9356C45.6798 34.9356 46.0152 34.8867 46.3291 34.7971C46.3938 34.7806 46.4372 34.7725 46.459 34.7725C46.4805 34.7725 46.4916 34.7806 46.5131 34.7886C46.5238 34.8052 46.535 34.8132 46.535 34.8379V34.9194C46.535 34.9764 46.5131 35.0171 46.4483 35.0337C46.1125 35.1641 45.7232 35.2295 45.3012 35.2295ZM46.2099 33.5484C46.2099 33.4995 46.221 33.4341 46.221 33.3691C46.221 33.0998 46.1344 32.904 45.9612 32.7651C45.7879 32.6263 45.5392 32.5612 45.2034 32.5612C44.4242 32.5612 44.0129 32.8956 43.9696 33.5565H46.2099V33.5484ZM49.0887 35.213C48.526 35.213 48.0934 35.0906 47.7902 34.8459C47.4981 34.6013 47.3463 34.2339 47.3463 33.7607C47.3463 33.2872 47.4981 32.9282 47.7902 32.6755C48.0934 32.4224 48.526 32.3 49.0887 32.3C49.3593 32.3 49.6192 32.3327 49.8572 32.4062C49.9112 32.4224 49.9438 32.4631 49.9438 32.5204V32.602C49.9438 32.6509 49.9112 32.6755 49.8572 32.6755C49.8465 32.6755 49.8246 32.6755 49.8031 32.667C49.7812 32.659 49.7491 32.659 49.6951 32.6509C49.4999 32.6182 49.3053 32.5936 49.1106 32.5936C48.6453 32.5936 48.3095 32.6836 48.1041 32.8629C47.8982 33.0425 47.7902 33.3283 47.7902 33.728V33.7934C47.7902 34.1769 47.8982 34.4624 48.1041 34.642C48.3095 34.8213 48.6453 34.9194 49.0999 34.9194C49.2945 34.9194 49.4999 34.8948 49.7384 34.8459C49.7924 34.8379 49.8246 34.8298 49.8465 34.8213C49.8679 34.8132 49.8898 34.8133 49.9005 34.8133C49.9545 34.8133 49.9871 34.8379 49.9871 34.8867V34.9683C49.9871 35.0256 49.9652 35.0664 49.9112 35.0825C49.6625 35.1641 49.3812 35.213 49.0887 35.213ZM50.9829 35.1479C50.907 35.1479 50.8744 35.1233 50.8744 35.0664V31.1248C50.8744 31.0678 50.907 31.0432 50.9829 31.0432H51.1776C51.2535 31.0432 51.2856 31.0678 51.2856 31.1248V32.6755C51.5241 32.5528 51.7728 32.4551 52.0434 32.3816C52.3033 32.3081 52.5627 32.2754 52.8119 32.2754C53.1687 32.2754 53.4393 32.3489 53.6344 32.4878C53.8291 32.6263 53.9157 32.8386 53.9157 33.116V35.0664C53.9157 35.1233 53.8831 35.1479 53.8072 35.1479H53.6125C53.5371 35.1479 53.5045 35.1233 53.5045 35.0664V33.2548C53.5045 33.0179 53.4393 32.8386 53.3205 32.7324C53.2013 32.6263 53.0066 32.5693 52.736 32.5693C52.2488 32.5693 51.7728 32.6836 51.3075 32.9202V35.0664C51.3075 35.1233 51.2749 35.1479 51.199 35.1479H50.9829ZM55.1602 35.1479C55.0843 35.1479 55.0522 35.1233 55.0522 35.0664V32.4385C55.0522 32.3816 55.0843 32.357 55.1602 32.357H55.3116C55.3875 32.357 55.4308 32.3816 55.4415 32.4385L55.4741 32.6755C55.7121 32.5447 55.972 32.447 56.2314 32.3735C56.4913 32.3 56.7512 32.2673 56.9999 32.2673C57.3572 32.2673 57.6278 32.3408 57.8224 32.4793C58.0171 32.6182 58.1038 32.8305 58.1038 33.1079V35.0664C58.1038 35.1233 58.0716 35.1479 57.9957 35.1479H57.801C57.7251 35.1479 57.6925 35.1233 57.6925 35.0664V33.2548C57.6925 33.0179 57.6278 32.8386 57.5085 32.7324C57.3898 32.6263 57.1946 32.5693 56.9245 32.5693C56.4373 32.5693 55.9613 32.6836 55.4955 32.9202V35.0664C55.4955 35.1233 55.4634 35.1479 55.3875 35.1479H55.1602ZM60.7446 35.2295C60.2034 35.2295 59.7814 35.0991 59.4894 34.8379C59.1862 34.5767 59.0455 34.2093 59.0455 33.7442C59.0455 33.2791 59.1969 32.9202 59.4894 32.659C59.7921 32.3978 60.2141 32.2673 60.7446 32.2673C61.2858 32.2673 61.7077 32.3978 61.9998 32.659C62.303 32.9202 62.4543 33.2791 62.4543 33.7442C62.4543 34.2093 62.303 34.5767 61.9998 34.8379C61.7077 35.0991 61.2858 35.2295 60.7446 35.2295ZM60.7446 34.9437C61.5885 34.9437 62.0217 34.544 62.0217 33.7526C62.0217 32.9609 61.5997 32.5693 60.7446 32.5693C59.9006 32.5693 59.4675 32.9609 59.4675 33.7526C59.4675 34.544 59.8894 34.9437 60.7446 34.9437ZM64.0346 35.1641C63.8399 35.1641 63.6881 35.1233 63.5801 35.0337C63.472 34.944 63.4175 34.8298 63.4175 34.6663V31.1167C63.4175 31.0598 63.4501 31.0352 63.526 31.0352H63.7207C63.7966 31.0352 63.8288 31.0598 63.8288 31.1167V34.6582C63.8288 34.7398 63.8507 34.7971 63.894 34.8298C63.9373 34.8621 64.0127 34.8786 64.1213 34.8786C64.1539 34.8786 64.186 34.8786 64.2186 34.8706C64.2512 34.8706 64.2833 34.8621 64.3052 34.8621C64.37 34.8621 64.4133 34.8867 64.4133 34.9437V35.0498C64.4133 35.0991 64.3812 35.1233 64.3159 35.1314C64.2293 35.156 64.1427 35.1641 64.0346 35.1641ZM66.7621 35.2295C66.2209 35.2295 65.7984 35.0991 65.5064 34.8379C65.2032 34.5767 65.0625 34.2093 65.0625 33.7442C65.0625 33.2791 65.2144 32.9202 65.5064 32.659C65.8096 32.3978 66.2316 32.2673 66.7621 32.2673C67.3028 32.2673 67.7253 32.3978 68.0173 32.659C68.3205 32.9202 68.4718 33.2791 68.4718 33.7442C68.4718 34.2093 68.3205 34.5767 68.0173 34.8379C67.7253 35.0991 67.3028 35.2295 66.7621 35.2295ZM66.7621 34.9437C67.606 34.9437 68.0387 34.544 68.0387 33.7526C68.0387 32.9609 67.6167 32.5693 66.7621 32.5693C65.9177 32.5693 65.485 32.9609 65.485 33.7526C65.4957 34.544 65.9177 34.9437 66.7621 34.9437ZM70.7335 36.3555C70.5281 36.3555 70.3223 36.3393 70.1276 36.3066C69.9329 36.2739 69.7597 36.2332 69.6083 36.1762C69.5543 36.1597 69.5217 36.1189 69.5217 36.062V35.98C69.5217 35.9312 69.5431 35.9069 69.6083 35.9069C69.619 35.9069 69.6404 35.9069 69.6516 35.915C69.673 35.915 69.7056 35.9231 69.7489 35.9393C70.095 36.0208 70.4196 36.07 70.7014 36.07C71.156 36.07 71.4913 35.9885 71.7079 35.8169C71.924 35.6457 72.0325 35.3764 72.0325 35.0091V34.7398C71.8485 34.854 71.6534 34.9437 71.4261 35.0091C71.21 35.0744 70.9934 35.1071 70.7987 35.1071C70.3223 35.1071 69.9543 34.9764 69.6623 34.7236C69.381 34.4705 69.2403 34.1362 69.2403 33.7199C69.2403 33.271 69.381 32.9202 69.6623 32.659C69.9436 32.3978 70.3335 32.2673 70.8202 32.2673C71.2854 32.2673 71.686 32.3897 72.0432 32.6347L72.0758 32.4305C72.0865 32.3735 72.1299 32.3489 72.2053 32.3489H72.3571C72.4326 32.3489 72.4652 32.3735 72.4652 32.4305V35.0091C72.4652 35.4415 72.3138 35.7761 72.0213 36.0046C71.7293 36.2332 71.2855 36.3555 70.7335 36.3555ZM70.8961 34.8213C71.264 34.8213 71.6427 34.7071 72.0325 34.4705V32.9282C71.8267 32.8059 71.6427 32.7078 71.448 32.6509C71.264 32.5936 71.0582 32.5612 70.8528 32.5612C70.4629 32.5612 70.1602 32.659 69.9655 32.8467C69.7704 33.0425 69.673 33.3199 69.673 33.7034C69.673 34.0627 69.7815 34.3401 69.9869 34.5359C70.1928 34.7317 70.4955 34.8213 70.8961 34.8213ZM73.7316 36.3555C73.6123 36.3555 73.5043 36.3393 73.3962 36.3147C73.3203 36.2985 73.2877 36.2659 73.2877 36.2005V36.1189C73.2877 36.07 73.3203 36.0454 73.3744 36.0454C73.407 36.0454 73.4284 36.0454 73.4503 36.0535C73.4717 36.0535 73.5043 36.062 73.5476 36.062C73.5909 36.062 73.6342 36.062 73.699 36.062C73.8615 36.062 73.9915 36.0293 74.0888 35.9639C74.1862 35.8985 74.2728 35.7842 74.3594 35.6211L74.6081 35.156L73.1578 32.4712C73.1364 32.4385 73.1256 32.4143 73.1256 32.3978C73.1256 32.357 73.1578 32.3327 73.2118 32.3327H73.4503C73.515 32.3327 73.5583 32.357 73.5802 32.4062L74.8135 34.7886L76.0585 32.4062C76.0799 32.357 76.1232 32.3327 76.1884 32.3327H76.4045C76.4586 32.3327 76.4912 32.3489 76.4912 32.3978C76.4912 32.4062 76.4804 32.4305 76.4586 32.4712L74.7274 35.7192C74.6081 35.9477 74.4675 36.1027 74.3161 36.2005C74.1643 36.3147 73.9696 36.3555 73.7316 36.3555Z" fill="black"/>
<path d="M80.0072 36.2449C79.9106 36.2449 79.8691 36.2121 79.8691 36.1344V31.1457C79.8691 31.0685 79.9106 31.0352 80.0072 31.0352H82.1058C82.6992 31.0352 83.1686 31.1791 83.5281 31.4554C83.887 31.7323 84.0527 32.1083 84.0527 32.5838C84.0527 33.0485 83.8733 33.4244 83.5281 33.7008C83.1686 33.9777 82.6992 34.1211 82.1058 34.1211H80.4076V36.1344C80.4076 36.2121 80.3662 36.2449 80.2696 36.2449H80.0072ZM82.092 33.7232C83.0171 33.7232 83.4865 33.3472 83.4865 32.5838C83.4865 31.8205 83.0171 31.4335 82.092 31.4335H80.4076V33.7232H82.092ZM86.3581 36.3336C85.9303 36.3336 85.5851 36.234 85.3225 36.0348C85.0741 35.8356 84.9363 35.5702 84.9363 35.2385C84.9363 34.8735 85.0878 34.5857 85.4056 34.3756C85.7229 34.1654 86.1513 34.0549 86.6896 34.0549C87.1038 34.0549 87.5595 34.1101 88.0289 34.2321V33.6017C88.0289 33.292 87.932 33.0818 87.7526 32.9489C87.5732 32.8159 87.2695 32.7497 86.8554 32.7497C86.427 32.7497 85.9713 32.8159 85.4882 32.9379C85.433 32.9489 85.3777 32.9598 85.3504 32.9598C85.2951 32.9598 85.2535 32.9269 85.2535 32.8602V32.7387C85.2535 32.6944 85.2672 32.6725 85.2815 32.6501C85.2951 32.6282 85.3367 32.6058 85.3777 32.5948C85.875 32.4399 86.3997 32.3627 86.9517 32.3627C87.5042 32.3627 87.9047 32.4509 88.1804 32.6391C88.4567 32.8273 88.5809 33.1037 88.5809 33.4797V36.1344C88.5809 36.2121 88.5393 36.2449 88.443 36.2449H88.2493C88.1531 36.2449 88.1115 36.2121 88.0978 36.1344L88.0562 35.8137C87.5042 36.1563 86.938 36.3336 86.3581 36.3336ZM86.427 35.9352C86.6617 35.9352 86.9243 35.9023 87.2 35.8247C87.4763 35.7475 87.7526 35.6369 88.0426 35.493V34.5528C87.6284 34.4642 87.2143 34.4199 86.8275 34.4199C85.9576 34.4199 85.5162 34.6853 85.5162 35.2276C85.5162 35.4596 85.5987 35.6369 85.7509 35.7584C85.8887 35.8799 86.1234 35.9352 86.427 35.9352ZM90.1548 36.2449C90.058 36.2449 90.017 36.2121 90.017 36.1344V32.5729C90.017 32.4952 90.058 32.4623 90.1548 32.4623H90.3343C90.4311 32.4623 90.4864 32.4952 90.5 32.5729L90.5416 33.0151C90.7763 32.8049 91.011 32.6501 91.2457 32.5729C91.4804 32.4843 91.7288 32.4399 92.0187 32.4399C92.1156 32.4399 92.1982 32.4399 92.2671 32.4509C92.3639 32.4509 92.4055 32.4952 92.4055 32.5729V32.7606C92.4055 32.783 92.3913 32.8049 92.3776 32.8159C92.3639 32.8383 92.336 32.8383 92.3087 32.8383C92.2534 32.8383 92.2118 32.8383 92.1708 32.8383C92.1292 32.8383 92.0603 32.8383 91.9771 32.8383C91.6872 32.8383 91.4388 32.8826 91.2178 32.9708C90.9973 33.0594 90.7763 33.1924 90.5826 33.3801V36.1454C90.5826 36.223 90.5416 36.2559 90.4448 36.2559H90.1548V36.2449ZM94.6972 36.2893C94.3247 36.2893 94.0484 36.2121 93.8547 36.0572C93.6616 35.9023 93.5653 35.6698 93.5653 35.371V32.8493H92.8197C92.7228 32.8493 92.6812 32.8159 92.6812 32.7387V32.6615C92.6812 32.6172 92.6955 32.5948 92.7091 32.5729C92.7228 32.5505 92.7644 32.5395 92.8197 32.5395L93.579 32.4843L93.6479 31.4888C93.6479 31.4445 93.6616 31.4226 93.6895 31.4002C93.7168 31.3783 93.7448 31.3783 93.7858 31.3783H93.9515C94.0484 31.3783 94.09 31.4116 94.09 31.4888V32.4733H95.4566C95.5534 32.4733 95.5944 32.5066 95.5944 32.5838V32.7387C95.5944 32.8159 95.5534 32.8493 95.4566 32.8493H94.09V35.3491C94.09 35.5592 94.1446 35.7031 94.2552 35.7803C94.3657 35.869 94.5451 35.9133 94.8077 35.9133C94.9872 35.9133 95.1529 35.9023 95.2908 35.8799C95.3597 35.869 95.415 35.858 95.4566 35.858C95.4982 35.8471 95.5255 35.8471 95.5534 35.8471C95.6223 35.8471 95.6633 35.8799 95.6633 35.9352V36.0458C95.6633 36.1344 95.636 36.1787 95.5534 36.2006C95.3045 36.2559 95.0145 36.2893 94.6972 36.2893ZM96.7822 36.2449C96.6853 36.2449 96.6437 36.2121 96.6437 36.1344V32.5729C96.6437 32.4952 96.6853 32.4623 96.7822 32.4623H96.9753C97.0721 32.4623 97.1274 32.4952 97.141 32.5729L97.182 32.8936C97.4862 32.7168 97.8172 32.5838 98.1487 32.4843C98.4803 32.3847 98.8112 32.3403 99.1291 32.3403C99.5848 32.3403 99.93 32.4399 100.178 32.6282C100.427 32.8159 100.537 33.1037 100.537 33.4797V36.1344C100.537 36.2121 100.496 36.2449 100.399 36.2449H100.15C100.054 36.2449 100.013 36.2121 100.013 36.1344V33.6789C100.013 33.3582 99.93 33.1147 99.7779 32.9708C99.6258 32.8273 99.3775 32.7497 99.0323 32.7497C98.4114 32.7497 97.8035 32.9045 97.21 33.2252V36.1344C97.21 36.2121 97.1684 36.2449 97.0721 36.2449H96.7822ZM103.975 36.3555C103.229 36.3555 102.677 36.1897 102.291 35.8471C101.918 35.504 101.724 35.006 101.724 34.3427C101.724 33.7122 101.918 33.2252 102.291 32.8717C102.677 32.5176 103.202 32.3518 103.878 32.3518C104.445 32.3518 104.886 32.4843 105.19 32.7387C105.494 33.0041 105.645 33.3692 105.645 33.8557C105.645 34.0549 105.632 34.2097 105.604 34.3093C105.591 34.387 105.535 34.4199 105.439 34.4199H102.263C102.263 34.9507 102.415 35.3381 102.691 35.5811C102.967 35.8356 103.409 35.9576 104.002 35.9576C104.458 35.9576 104.886 35.8909 105.286 35.7694C105.37 35.7475 105.425 35.736 105.452 35.736C105.48 35.736 105.494 35.7475 105.521 35.7584C105.535 35.7803 105.549 35.7913 105.549 35.8247V35.9352C105.549 36.0129 105.521 36.0682 105.439 36.0901C105.011 36.2673 104.513 36.3555 103.975 36.3555ZM105.135 34.0773C105.135 34.0105 105.149 33.9224 105.149 33.8338C105.149 33.4687 105.038 33.2033 104.817 33.0151C104.596 32.8273 104.279 32.7387 103.851 32.7387C102.857 32.7387 102.332 33.1924 102.277 34.0882H105.135V34.0773ZM106.985 36.2449C106.888 36.2449 106.847 36.2121 106.847 36.1344V32.5729C106.847 32.4952 106.888 32.4623 106.985 32.4623H107.164C107.261 32.4623 107.316 32.4952 107.33 32.5729L107.371 33.0151C107.606 32.8049 107.841 32.6501 108.075 32.5729C108.31 32.4843 108.559 32.4399 108.848 32.4399C108.945 32.4399 109.028 32.4399 109.097 32.4509C109.194 32.4509 109.235 32.4952 109.235 32.5729V32.7606C109.235 32.783 109.222 32.8049 109.207 32.8159C109.194 32.8383 109.166 32.8383 109.138 32.8383C109.083 32.8383 109.042 32.8383 109.001 32.8383C108.959 32.8383 108.89 32.8383 108.807 32.8383C108.518 32.8383 108.269 32.8826 108.048 32.9708C107.827 33.0594 107.606 33.1924 107.413 33.3801V36.1454C107.413 36.223 107.371 36.2559 107.275 36.2559H106.985V36.2449Z" fill="black"/>
</svg>
