<svg width="94" height="44" viewBox="0 0 94 44" fill="none" xmlns="http://www.w3.org/2000/svg">
<path d="M81.7628 25.1549H80.9719V26.5279H80.0508V25.1549H77.3828V24.4249L80.0421 20.2969H80.9719V24.3727H81.7628V25.1549ZM80.0508 22.6868C80.0508 22.5477 80.0508 22.4145 80.0508 22.287C80.0566 22.1596 80.0624 22.0379 80.0681 21.922C80.0739 21.8004 80.0768 21.6903 80.0768 21.5918C80.0826 21.4875 80.0884 21.3948 80.0942 21.3137H80.0595C80.0131 21.4296 79.9581 21.5483 79.8943 21.67C79.8364 21.7917 79.7785 21.8988 79.7205 21.9915L78.2605 24.3727H80.0508V22.6868Z" fill="black"/>
<path d="M82.4412 26.0152C82.4412 25.7892 82.4962 25.6299 82.6063 25.5372C82.7222 25.4445 82.8641 25.3982 83.0321 25.3982C83.1943 25.3982 83.3334 25.4445 83.4493 25.5372C83.5709 25.6299 83.6318 25.7892 83.6318 26.0152C83.6318 26.2412 83.5709 26.4034 83.4493 26.5019C83.3334 26.6004 83.1943 26.6496 83.0321 26.6496C82.8641 26.6496 82.7222 26.6004 82.6063 26.5019C82.4962 26.4034 82.4412 26.2412 82.4412 26.0152Z" fill="black"/>
<path d="M86.5064 20.2361C86.8541 20.2361 87.1611 20.294 87.4276 20.4099C87.6999 20.52 87.9114 20.6851 88.062 20.9052C88.2185 21.1254 88.2967 21.4006 88.2967 21.7308C88.2967 21.98 88.2474 22.1972 88.1489 22.3826C88.0562 22.568 87.9259 22.7331 87.7579 22.878C87.5956 23.017 87.416 23.1387 87.2191 23.243C87.445 23.3646 87.6536 23.5037 87.8448 23.6601C88.036 23.8107 88.1895 23.9874 88.3054 24.1902C88.427 24.393 88.4879 24.6363 88.4879 24.9202C88.4879 25.2678 88.4067 25.5691 88.2445 25.824C88.0881 26.0731 87.8621 26.2672 87.5667 26.4063C87.2712 26.5453 86.9207 26.6148 86.5151 26.6148C86.0806 26.6148 85.7127 26.5482 85.4115 26.415C85.116 26.2817 84.8929 26.0934 84.7423 25.8501C84.5917 25.601 84.5163 25.2997 84.5163 24.9463C84.5163 24.6624 84.5685 24.4162 84.6728 24.2076C84.7828 23.999 84.9248 23.8194 85.0986 23.6688C85.2782 23.5182 85.4752 23.3907 85.6895 23.2864C85.5042 23.1705 85.3361 23.0402 85.1855 22.8953C85.0349 22.7447 84.9161 22.5738 84.8292 22.3826C84.7481 22.1914 84.7075 21.9713 84.7075 21.7221C84.7075 21.3977 84.7857 21.1283 84.9422 20.9139C85.0986 20.6938 85.313 20.5258 85.5853 20.4099C85.8576 20.294 86.1646 20.2361 86.5064 20.2361ZM85.4201 24.9289C85.4201 25.2128 85.5099 25.4474 85.6895 25.6328C85.8691 25.8124 86.1385 25.9022 86.4978 25.9022C86.7411 25.9022 86.941 25.8617 87.0974 25.7806C87.2538 25.6937 87.3726 25.5778 87.4537 25.4329C87.5406 25.2823 87.5841 25.1114 87.5841 24.9202C87.5841 24.729 87.5377 24.561 87.445 24.4162C87.3523 24.2713 87.2248 24.1439 87.0626 24.0338C86.9062 23.9179 86.7266 23.8136 86.5238 23.7209L86.4108 23.6688C86.2023 23.7673 86.0227 23.8774 85.872 23.999C85.7272 24.1207 85.6142 24.2568 85.5331 24.4075C85.4578 24.5581 85.4201 24.7319 85.4201 24.9289ZM86.4891 20.9574C86.2341 20.9574 86.0227 21.0269 85.8547 21.166C85.6924 21.305 85.6113 21.5078 85.6113 21.7743C85.6113 21.9655 85.6519 22.1277 85.733 22.2609C85.8199 22.3942 85.93 22.5101 86.0632 22.6086C86.2023 22.7013 86.3529 22.7911 86.5151 22.878C86.6774 22.7969 86.8222 22.71 86.9497 22.6173C87.0829 22.5188 87.1872 22.4029 87.2625 22.2696C87.3436 22.1306 87.3842 21.9655 87.3842 21.7743C87.3842 21.5078 87.3002 21.305 87.1322 21.166C86.9699 21.0269 86.7556 20.9574 86.4891 20.9574Z" fill="black"/>
<path d="M17.8867 12.8628H21.0535V28.005H17.8867V12.8628Z" fill="black"/>
<path d="M32.0892 23.2045C32.0892 25.5505 29.6109 25.7638 28.7848 25.7638C26.8572 25.7638 26.5818 24.3775 26.5818 23.6311V17.7661H23.415V23.5244C23.415 24.9107 23.9658 26.1903 25.0673 26.9368C26.0311 27.6832 27.2702 28.0031 28.7848 28.0031C29.8862 28.0031 31.2631 27.7899 32.0892 27.15V28.0031H35.256V17.7661H32.0892V23.2045Z" fill="black"/>
<path d="M41.439 14.0369H38.2723V17.7691H35.9316V20.1151H38.2723V28.0061H41.439V20.1151H43.7797V17.7691H41.439V14.0369Z" fill="black"/>
<path d="M53.7044 24.9113C53.016 25.3379 52.0522 25.6578 51.0884 25.6578C48.8854 25.6578 47.3709 24.3781 47.3709 22.672C47.3709 20.9658 48.8854 19.7928 51.0884 19.7928C52.0522 19.7928 53.016 20.0061 53.7044 20.5393L54.1174 20.8592L56.3204 19.2596L55.7697 18.9397C54.5305 18.0866 52.8783 17.5535 51.0884 17.5535C47.2332 17.5535 44.3418 19.7928 44.3418 22.7786C44.3418 25.7644 47.2332 28.0037 51.0884 28.0037C52.8783 28.0037 54.5305 27.4706 55.7697 26.6175L56.3204 26.2976L54.1174 24.5914L53.7044 24.9113Z" fill="black"/>
<path d="M67.4641 18.6211C66.5003 17.8747 65.5365 17.5548 64.022 17.5548C62.9205 17.5548 61.819 17.768 60.9929 18.4078V12.8628H57.8262V28.005H60.9929V22.3534C60.9929 20.0074 63.0582 19.7941 63.8843 19.7941C65.8119 19.7941 65.6742 21.1804 65.6742 21.9268V27.8984H68.841V22.0335C68.841 20.6472 68.4279 19.3676 67.4641 18.6211Z" fill="black"/>
<path d="M50.9471 24.487C52.1638 24.487 53.1501 23.7232 53.1501 22.7809C53.1501 21.8386 52.1638 21.0747 50.9471 21.0747C49.7304 21.0747 48.7441 21.8386 48.7441 22.7809C48.7441 23.7232 49.7304 24.487 50.9471 24.487Z" fill="black"/>
<path d="M13.4931 24.2754C12.3916 25.1285 10.7394 25.6617 8.94952 25.6617C5.5074 25.6617 3.02907 23.529 3.02907 20.6498C3.02907 17.7706 5.5074 15.6379 9.0872 15.6379C10.7394 15.6379 12.3916 16.1711 13.6308 17.1308L14.0439 17.4507L16.1091 15.8512L15.6961 15.5313C13.9062 14.145 11.5655 13.3986 9.0872 13.3986C3.85518 13.292 0 16.491 0 20.6498C0 24.8086 3.85518 28.0077 8.94952 28.0077C11.4278 28.0077 13.9062 27.2612 15.5584 25.8749L15.9715 25.555L13.9062 23.9555L13.4931 24.2754Z" fill="black"/>
<path d="M25.9242 33.9629L24.5803 36.0811C24.5119 36.1889 24.4109 36.2821 24.2859 36.3528C24.1609 36.4234 24.0157 36.4694 23.8628 36.4867L20.8589 36.8264C20.7181 36.8423 20.5858 36.8885 20.477 36.9598C20.3682 37.0312 20.2873 37.1247 20.2433 37.23C20.1994 37.3353 20.1942 37.448 20.2283 37.5555C20.2625 37.6629 20.3346 37.7608 20.4366 37.838L22.6111 39.4869C22.7215 39.5707 22.8041 39.6741 22.8519 39.7882C22.8996 39.9023 22.911 40.0238 22.885 40.1421L22.3717 42.4705C22.3478 42.5795 22.3637 42.6916 22.4174 42.7939C22.4711 42.8963 22.5605 42.985 22.6756 43.0499C22.7906 43.1148 22.9267 43.1534 23.0685 43.1613C23.2102 43.1691 23.352 43.146 23.4778 43.0945L26.1649 41.9954C26.3016 41.9395 26.4537 41.9102 26.6082 41.9102C26.7627 41.9102 26.9148 41.9395 27.0516 41.9954L29.7386 43.0945C29.8644 43.146 30.0062 43.1691 30.148 43.1613C30.2897 43.1534 30.4258 43.1148 30.5409 43.0499C30.6559 42.985 30.7454 42.8963 30.7991 42.7939C30.8528 42.6916 30.8686 42.5795 30.8448 42.4705L30.3314 40.1421C30.3054 40.0238 30.3168 39.9023 30.3645 39.7882C30.4122 39.6741 30.4949 39.5707 30.6053 39.4869L32.7798 37.838C32.8818 37.7608 32.9539 37.6629 32.9881 37.5555C33.0222 37.448 33.0171 37.3353 32.9731 37.23C32.9292 37.1247 32.8482 37.0312 32.7394 36.9598C32.6306 36.8885 32.4983 36.8423 32.3575 36.8264L29.3524 36.4867C29.1995 36.4694 29.0543 36.4234 28.9293 36.3528C28.8043 36.2821 28.7033 36.1889 28.6349 36.0811L27.291 33.9629C27.2281 33.8637 27.1308 33.7801 27.01 33.7217C26.8892 33.6633 26.7498 33.6323 26.6076 33.6323C26.4654 33.6323 26.326 33.6633 26.2052 33.7217C26.0845 33.7801 25.9871 33.8637 25.9242 33.9629Z" fill="#FF141A"/>
<path d="M46.1032 33.962L44.7592 36.0801C44.6909 36.1879 44.5898 36.2812 44.4648 36.3518C44.3398 36.4225 44.1946 36.4684 44.0417 36.4857L41.0366 36.8255C40.8958 36.8414 40.7635 36.8876 40.6548 36.9589C40.546 37.0302 40.465 37.1238 40.4211 37.2291C40.3771 37.3343 40.3719 37.4471 40.4061 37.5545C40.4402 37.662 40.5124 37.7598 40.6143 37.837L42.7888 39.4859C42.8993 39.5697 42.9819 39.6731 43.0296 39.7873C43.0773 39.9014 43.0887 40.0228 43.0628 40.1411L42.5494 42.4696C42.5256 42.5786 42.5414 42.6906 42.5951 42.793C42.6488 42.8954 42.7382 42.984 42.8533 43.0489C42.9683 43.1138 43.1044 43.1524 43.2462 43.1603C43.388 43.1682 43.5298 43.1451 43.6555 43.0936L46.3426 41.9944C46.4793 41.9385 46.6315 41.9093 46.786 41.9093C46.9404 41.9093 47.0926 41.9385 47.2293 41.9944L49.9164 43.0936C50.0422 43.1451 50.1839 43.1682 50.3257 43.1603C50.4675 43.1524 50.6036 43.1138 50.7186 43.0489C50.8337 42.984 50.9231 42.8954 50.9768 42.793C51.0305 42.6906 51.0463 42.5786 51.0225 42.4696L50.5091 40.1411C50.4832 40.0228 50.4945 39.9014 50.5423 39.7873C50.59 39.6731 50.6726 39.5697 50.7831 39.4859L52.9576 37.837C53.0595 37.7598 53.1317 37.662 53.1658 37.5545C53.2 37.4471 53.1948 37.3343 53.1508 37.2291C53.1069 37.1238 53.0259 37.0302 52.9171 36.9589C52.8084 36.8876 52.6761 36.8414 52.5353 36.8255L49.5302 36.4857C49.3773 36.4684 49.2321 36.4225 49.1071 36.3518C48.9821 36.2812 48.881 36.1879 48.8127 36.0801L47.4687 33.962C47.4057 33.863 47.3084 33.7797 47.1877 33.7214C47.0671 33.6632 46.9279 33.6323 46.786 33.6323C46.644 33.6323 46.5048 33.6632 46.3842 33.7214C46.2635 33.7797 46.1662 33.863 46.1032 33.962Z" fill="#FF141A"/>
<path d="M66.2893 33.9629L64.9453 36.0811C64.877 36.1889 64.776 36.2821 64.651 36.3528C64.526 36.4234 64.3808 36.4694 64.2279 36.4867L61.2232 36.8264C61.0824 36.8423 60.9501 36.8885 60.8413 36.9598C60.7325 37.0312 60.6515 37.1247 60.6076 37.23C60.5636 37.3353 60.5584 37.448 60.5926 37.5555C60.6268 37.6629 60.6989 37.7608 60.8009 37.838L62.9754 39.4869C63.0858 39.5707 63.1684 39.6741 63.2161 39.7882C63.2638 39.9023 63.2752 40.0238 63.2493 40.1421L62.7359 42.4705C62.7121 42.5795 62.7279 42.6916 62.7816 42.7939C62.8353 42.8963 62.9248 42.985 63.0398 43.0499C63.1549 43.1148 63.291 43.1534 63.4327 43.1613C63.5745 43.1691 63.7163 43.146 63.842 43.0945L66.5291 41.9954C66.6658 41.9395 66.818 41.9102 66.9725 41.9102C67.127 41.9102 67.2791 41.9395 67.4158 41.9954L70.1029 43.0945C70.2287 43.146 70.3705 43.1691 70.5122 43.1613C70.654 43.1534 70.7901 43.1148 70.9051 43.0499C71.0202 42.985 71.1096 42.8963 71.1633 42.7939C71.217 42.6916 71.2329 42.5795 71.209 42.4705L70.6957 40.1421C70.6697 40.0238 70.6811 39.9023 70.7288 39.7882C70.7765 39.6741 70.8591 39.5707 70.9696 39.4869L73.1441 37.838C73.2461 37.7608 73.3182 37.6629 73.3523 37.5555C73.3865 37.448 73.3813 37.3353 73.3374 37.23C73.2934 37.1247 73.2125 37.0312 73.1037 36.9598C72.9949 36.8885 72.8626 36.8423 72.7218 36.8264L69.7167 36.4867C69.5638 36.4694 69.4186 36.4234 69.2936 36.3528C69.1686 36.2821 69.0676 36.1889 68.9992 36.0811L67.6561 33.9629C67.5932 33.8637 67.4958 33.7801 67.375 33.7217C67.2543 33.6633 67.1149 33.6323 66.9727 33.6323C66.8305 33.6323 66.6911 33.6633 66.5703 33.7217C66.4495 33.7801 66.3522 33.8637 66.2893 33.9629Z" fill="#FF141A"/>
<path d="M87.8611 33.9515L89.205 36.0696C89.2734 36.1774 89.3744 36.2707 89.4994 36.3413C89.6244 36.412 89.7696 36.4579 89.9225 36.4752L92.9272 36.815C93.068 36.8309 93.2003 36.8771 93.3091 36.9484C93.4179 37.0197 93.4989 37.1133 93.5428 37.2186C93.5868 37.3238 93.5919 37.4366 93.5578 37.544C93.5236 37.6515 93.4515 37.7493 93.3495 37.8265L91.175 39.4754C91.0646 39.5592 90.982 39.6626 90.9343 39.7768C90.8866 39.8909 90.8752 40.0123 90.9011 40.1306L91.4145 42.4591C91.4383 42.5681 91.4225 42.6801 91.3688 42.7825C91.3151 42.8849 91.2256 42.9735 91.1106 43.0384C90.9955 43.1033 90.8594 43.1419 90.7177 43.1498C90.5759 43.1577 90.4341 43.1346 90.3083 43.0831L87.6213 41.9839C87.4845 41.928 87.3324 41.8988 87.1779 41.8988C87.0234 41.8988 86.8713 41.928 86.7346 41.9839L84.0475 43.0831C83.9217 43.1346 83.7799 43.1577 83.6382 43.1498C83.4964 43.1419 83.3603 43.1033 83.2453 43.0384C83.1302 42.9735 83.0408 42.8849 82.9871 42.7825C82.9334 42.6801 82.9175 42.5681 82.9414 42.4591L83.4547 40.1306C83.4807 40.0123 83.4693 39.8909 83.4216 39.7768C83.3739 39.6626 83.2913 39.5592 83.1808 39.4754L81.0063 37.8265C80.9043 37.7493 80.8322 37.6515 80.798 37.544C80.7639 37.4366 80.7691 37.3238 80.813 37.2186C80.857 37.1133 80.9379 37.0197 81.0467 36.9484C81.1555 36.8771 81.2878 36.8309 81.4286 36.815L84.4337 36.4752C84.5866 36.4579 84.7318 36.412 84.8568 36.3413C84.9818 36.2707 85.0828 36.1774 85.1512 36.0696L86.4915 33.9515C86.5541 33.8516 86.6515 33.7675 86.7726 33.7087C86.8937 33.6498 87.0336 33.6187 87.1763 33.6187C87.3191 33.6187 87.459 33.6498 87.58 33.7087C87.7011 33.7675 87.7985 33.8516 87.8611 33.9515Z" fill="#FF141A"/>
<path d="M90.3083 43.0922L88.4783 42.3434V34.9321L89.2046 36.0772C89.273 36.185 89.374 36.2782 89.499 36.3489C89.624 36.4195 89.7692 36.4655 89.9221 36.4828L92.9272 36.8225C93.068 36.8384 93.2003 36.8846 93.3091 36.9559C93.4179 37.0272 93.4989 37.1208 93.5428 37.2261C93.5868 37.3314 93.5919 37.4441 93.5578 37.5516C93.5236 37.659 93.4515 37.7569 93.3495 37.8341L91.175 39.483C91.0646 39.5668 90.982 39.6702 90.9343 39.7843C90.8866 39.8984 90.8752 40.0199 90.9011 40.1382L91.4145 42.4666C91.4387 42.5758 91.4232 42.688 91.3697 42.7906C91.3162 42.8932 91.2268 42.9821 91.1117 43.0473C90.9965 43.1124 90.8603 43.1511 90.7183 43.1591C90.5763 43.167 90.4343 43.1438 90.3083 43.0922Z" fill="#FF141A"/>
<path d="M5.75843 33.9495L4.4145 36.068C4.34614 36.1758 4.24511 36.2691 4.12011 36.3397C3.99512 36.4104 3.84992 36.4563 3.69702 36.4736L0.691914 36.8134C0.55111 36.8293 0.418819 36.8755 0.310026 36.9468C0.201233 37.0181 0.120281 37.1117 0.076331 37.217C0.0323814 37.3222 0.0271931 37.435 0.0613503 37.5424C0.0955074 37.6499 0.167657 37.7477 0.269613 37.8249L2.44413 39.4738C2.55455 39.5576 2.63716 39.6611 2.68487 39.7752C2.73258 39.8893 2.74396 40.0107 2.71804 40.129L2.20469 42.4575C2.18086 42.5665 2.19668 42.6785 2.25038 42.7809C2.30408 42.8833 2.39351 42.9719 2.50857 43.0368C2.62362 43.1017 2.75973 43.1403 2.90149 43.1482C3.04326 43.1561 3.18503 43.133 3.3108 43.0815L5.99786 41.9823C6.1346 41.9264 6.28676 41.8972 6.44123 41.8972C6.5957 41.8972 6.74786 41.9264 6.88459 41.9823L9.57166 43.0815C9.69743 43.133 9.8392 43.1561 9.98097 43.1482C10.1227 43.1403 10.2588 43.1017 10.3739 43.0368C10.489 42.9719 10.5784 42.8833 10.6321 42.7809C10.6858 42.6785 10.7016 42.5665 10.6778 42.4575L10.1644 40.129C10.1385 40.0107 10.1498 39.8893 10.1975 39.7752C10.2453 39.661 10.3279 39.5576 10.4383 39.4738L12.6128 37.8249C12.7148 37.7477 12.787 37.6499 12.8211 37.5424C12.8553 37.435 12.8501 37.3222 12.8061 37.217C12.7622 37.1117 12.6812 37.0181 12.5724 36.9468C12.4636 36.8755 12.3313 36.8293 12.1905 36.8134L9.18705 36.4733C9.03414 36.456 8.88894 36.4101 8.76395 36.3394C8.63896 36.2688 8.53792 36.1755 8.46956 36.0677L7.12562 33.9495C7.06275 33.8502 6.9654 33.7666 6.84458 33.7081C6.72377 33.6496 6.58432 33.6187 6.44203 33.6187C6.29973 33.6187 6.16028 33.6496 6.03947 33.7081C5.91865 33.7666 5.8213 33.8502 5.75843 33.9495Z" fill="#FF141A"/>
<path d="M7.08495 33.9483L8.42889 36.0665C8.49726 36.1742 8.59829 36.2675 8.72328 36.3382C8.84827 36.4088 8.99348 36.4548 9.14638 36.4721L12.1515 36.8118C12.2923 36.8277 12.4246 36.8739 12.5334 36.9452C12.6421 37.0165 12.7231 37.1101 12.7671 37.2154C12.811 37.3207 12.8162 37.4334 12.782 37.5408C12.7479 37.6483 12.6757 37.7461 12.5738 37.8233L10.3993 39.4723C10.2888 39.5561 10.2062 39.6595 10.1585 39.7736C10.1108 39.8877 10.0994 40.0092 10.1253 40.1275L10.6387 42.4559C10.6625 42.5649 10.6467 42.6769 10.593 42.7793C10.5393 42.8817 10.4499 42.9703 10.3348 43.0352C10.2198 43.1002 10.0837 43.1387 9.9419 43.1466C9.80014 43.1545 9.65836 43.1314 9.53259 43.0799L6.84553 41.9807C6.7088 41.9248 6.55664 41.8956 6.40217 41.8956C6.24769 41.8956 6.09554 41.9248 5.9588 41.9807L3.27173 43.0799C3.14596 43.1314 3.00418 43.1545 2.86242 43.1466C2.72065 43.1387 2.58456 43.1002 2.4695 43.0352C2.35444 42.9703 2.26502 42.8817 2.21132 42.7793C2.15762 42.6769 2.14179 42.5649 2.16563 42.4559L2.67898 40.1275C2.70494 40.0092 2.69357 39.8877 2.64586 39.7736C2.59814 39.6595 2.5155 39.5561 2.40505 39.4723L0.230538 37.8233C0.128582 37.7461 0.0564449 37.6483 0.0222878 37.5408C-0.0118694 37.4334 -0.00668106 37.3207 0.0372685 37.2154C0.0812181 37.1101 0.162171 37.0165 0.270964 36.9452C0.379757 36.8739 0.512047 36.8277 0.652851 36.8118L3.65795 36.4721C3.81086 36.4548 3.95606 36.4088 4.08105 36.3382C4.20604 36.2675 4.30708 36.1742 4.37544 36.0665L5.71937 33.9483C5.7824 33.8493 5.87973 33.766 6.00038 33.7078C6.12102 33.6495 6.26018 33.6187 6.40217 33.6187C6.54415 33.6187 6.68331 33.6495 6.80395 33.7078C6.9246 33.766 7.02192 33.8493 7.08495 33.9483Z" fill="#FF141A"/>
<path d="M7.1044 0C7.64309 0 8.08782 0.0720342 8.4386 0.216103C8.78937 0.360171 9.04932 0.576273 9.21844 0.86441C9.39383 1.14628 9.48153 1.50332 9.48153 1.93553C9.48153 2.28004 9.42202 2.57131 9.30301 2.80933C9.19026 3.04109 9.03992 3.23214 8.85201 3.38247C8.67036 3.52654 8.47305 3.64242 8.26008 3.73012L10.0359 6.70857H8.85201L7.35808 3.9932H6.33395V6.70857H5.29102V0H7.1044ZM7.05742 0.86441H6.33395V3.14758H7.07621C7.38314 3.14758 7.63369 3.10373 7.82787 3.01604C8.02831 2.92835 8.17551 2.7968 8.26947 2.62142C8.36969 2.44603 8.4198 2.22993 8.4198 1.97311C8.4198 1.70376 8.36969 1.49079 8.26947 1.3342C8.17551 1.17134 8.02518 1.05233 7.81848 0.977159C7.61803 0.901993 7.36435 0.86441 7.05742 0.86441Z" fill="#16313B"/>
<path d="M12.7382 1.5503C13.3332 1.5503 13.7811 1.69124 14.0818 1.97311C14.3887 2.24872 14.5422 2.68406 14.5422 3.27912V6.70857H13.8187L13.6214 6.00389H13.5838C13.4397 6.18554 13.2957 6.33588 13.1516 6.45489C13.0138 6.5739 12.8509 6.66159 12.663 6.71797C12.4814 6.77434 12.2559 6.80253 11.9865 6.80253C11.7046 6.80253 11.451 6.74929 11.2255 6.6428C11 6.53005 10.8214 6.36093 10.6899 6.13543C10.5584 5.90367 10.4926 5.61553 10.4926 5.27102C10.4926 4.75739 10.6742 4.3659 11.0376 4.09655C11.4071 3.82721 11.9677 3.68001 12.7194 3.65495L13.5274 3.62676V3.34489C13.5274 2.96906 13.4491 2.70598 13.2925 2.55565C13.1422 2.40531 12.9292 2.33015 12.6536 2.33015C12.4219 2.33015 12.1932 2.36773 11.9677 2.4429C11.7422 2.51806 11.523 2.60889 11.31 2.71538L11 1.9919C11.2317 1.86662 11.4948 1.76327 11.7892 1.68184C12.0899 1.59415 12.4062 1.5503 12.7382 1.5503ZM12.9167 4.29386C12.4031 4.31892 12.046 4.41601 11.8456 4.58513C11.6451 4.74799 11.5449 4.97975 11.5449 5.28042C11.5449 5.5435 11.6138 5.73455 11.7516 5.85356C11.8957 5.97257 12.0805 6.03208 12.306 6.03208C12.6505 6.03208 12.9386 5.92246 13.1704 5.70323C13.4084 5.48399 13.5274 5.15514 13.5274 4.71667V4.27507L12.9167 4.29386Z" fill="#16313B"/>
<path d="M17.736 5.9945C17.8675 5.9945 17.9959 5.98197 18.1212 5.95691C18.2465 5.93186 18.3561 5.90367 18.4501 5.87235V6.62401C18.3436 6.67412 18.2027 6.71484 18.0273 6.74616C17.8581 6.78374 17.6796 6.80253 17.4917 6.80253C17.2286 6.80253 16.9875 6.75555 16.7682 6.66159C16.549 6.56764 16.3736 6.40478 16.2421 6.17302C16.1105 5.94125 16.0448 5.61867 16.0448 5.20525V2.40531H15.3965V1.95432L16.0917 1.57849L16.4394 0.507371H17.0689V1.64426H18.4125V2.40531H17.0689V5.18646C17.0689 5.46207 17.1315 5.66564 17.2568 5.79718C17.3821 5.92873 17.5418 5.9945 17.736 5.9945Z" fill="#16313B"/>
<path d="M21.3081 1.5503C21.7278 1.5503 22.0911 1.64426 22.3981 1.83217C22.705 2.01382 22.9399 2.27691 23.1027 2.62142C23.2719 2.96593 23.3564 3.37308 23.3564 3.84287V4.38782H20.1713C20.1838 4.90772 20.3091 5.30547 20.5471 5.58108C20.7851 5.85669 21.1202 5.9945 21.5524 5.9945C21.8594 5.9945 22.1318 5.96631 22.3699 5.90993C22.6142 5.8473 22.8616 5.75647 23.1121 5.63746V6.46428C22.8741 6.57703 22.6298 6.66159 22.3793 6.71797C22.135 6.77434 21.8374 6.80253 21.4867 6.80253C21.0294 6.80253 20.6223 6.70544 20.2652 6.51126C19.9082 6.31708 19.6294 6.02895 19.429 5.64685C19.2286 5.25849 19.1283 4.78244 19.1283 4.2187C19.1283 3.64869 19.2192 3.16637 19.4008 2.77175C19.5825 2.37713 19.8361 2.07646 20.1619 1.86976C20.4938 1.65679 20.8759 1.5503 21.3081 1.5503ZM21.3081 2.32075C20.9887 2.32075 20.7319 2.43663 20.5377 2.6684C20.3435 2.90016 20.2308 3.22901 20.1994 3.65495H22.3511C22.3511 3.39187 22.3135 3.16011 22.2383 2.95966C22.1632 2.75922 22.0473 2.60263 21.8907 2.48988C21.7404 2.37713 21.5462 2.32075 21.3081 2.32075Z" fill="#16313B"/>
<path d="M31.0432 4.17172C31.0432 4.5914 30.9899 4.96409 30.8835 5.28981C30.777 5.61553 30.6235 5.89114 30.4231 6.11664C30.2289 6.34214 29.9909 6.51439 29.709 6.63341C29.4271 6.74616 29.1108 6.80253 28.76 6.80253C28.4406 6.80253 28.143 6.74616 27.8674 6.63341C27.5918 6.51439 27.3538 6.34214 27.1533 6.11664C26.9529 5.89114 26.7963 5.61553 26.6835 5.28981C26.5771 4.96409 26.5238 4.58826 26.5238 4.16232C26.5238 3.60484 26.6146 3.13192 26.7963 2.74356C26.9779 2.3552 27.2379 2.0608 27.5761 1.86036C27.9207 1.65365 28.3278 1.5503 28.7976 1.5503C29.2361 1.5503 29.6244 1.65365 29.9627 1.86036C30.3009 2.0608 30.564 2.3552 30.7519 2.74356C30.9461 3.13192 31.0432 3.60797 31.0432 4.17172ZM27.5761 4.17172C27.5761 4.54755 27.6169 4.87327 27.6983 5.14888C27.786 5.41822 27.9175 5.62493 28.0929 5.769C28.2746 5.91307 28.5032 5.9851 28.7788 5.9851C29.0607 5.9851 29.2893 5.91307 29.4647 5.769C29.6463 5.62493 29.7779 5.41822 29.8593 5.14888C29.947 4.87327 29.9909 4.54755 29.9909 4.17172C29.9909 3.78336 29.947 3.45764 29.8593 3.19456C29.7716 2.93148 29.6401 2.73103 29.4647 2.59323C29.2893 2.44916 29.0575 2.37713 28.7694 2.37713C28.3497 2.37713 28.0459 2.53372 27.858 2.84692C27.6701 3.16011 27.5761 3.60171 27.5761 4.17172Z" fill="#16313B"/>
<path d="M34.681 1.5503C35.2322 1.5503 35.655 1.6975 35.9494 1.9919C36.25 2.2863 36.4004 2.75922 36.4004 3.41066V6.70857H35.3856V3.5516C35.3856 3.15698 35.3073 2.86258 35.1507 2.6684C35.0004 2.46795 34.7655 2.36773 34.4461 2.36773C33.9763 2.36773 33.6537 2.5212 33.4783 2.82812C33.3029 3.13505 33.2152 3.57665 33.2152 4.15293V6.70857H32.2005V1.64426H32.9991L33.1401 2.32075H33.1964C33.3029 2.14537 33.4313 2.0013 33.5816 1.88855C33.732 1.7758 33.9011 1.69124 34.089 1.63486C34.2769 1.57849 34.4742 1.5503 34.681 1.5503Z" fill="#16313B"/>
</svg>
