<svg width="74" height="48" viewBox="0 0 74 48" fill="none" xmlns="http://www.w3.org/2000/svg">
<ellipse cx="36.7688" cy="18.9479" rx="24.135" ry="18.9479" fill="#E7E7E7"/>
<rect x="7.02637" y="33.0459" width="59.0446" height="8.91004" fill="#24B8EB"/>
<path d="M60.9007 37.4453H73.3992L69.8077 42.0695L60.4697 42.4079L60.9007 37.4453Z" fill="#24B8EB"/>
<path d="M60.4697 46.5798H73.3992L69.8077 41.9556L60.4697 41.6173V46.5798Z" fill="#24B8EB"/>
<path d="M12.4987 37.4453H0.000217438L3.59174 42.0695L12.9297 42.4079L12.4987 37.4453Z" fill="#24B8EB"/>
<path d="M12.9297 46.5798H0.000217438L3.59174 41.9556L12.9297 41.6173V46.5798Z" fill="#24B8EB"/>
<path d="M66.0664 41.9561H60.4636V46.2419L66.0664 41.9561Z" fill="#008BB8"/>
<path d="M7.02637 41.9561H12.6291V46.2419L7.02637 41.9561Z" fill="#008BB8"/>
<path d="M17.2081 38.625L16.9266 37.862H15.9043L15.6228 38.625H15.208L16.2118 35.9693H16.6266L17.6266 38.625H17.2081ZM16.5488 36.7694C16.5414 36.7422 16.5278 36.7015 16.5081 36.6471C16.4908 36.5903 16.4735 36.5336 16.4562 36.4768C16.4389 36.4175 16.4253 36.3693 16.4155 36.3323C16.4031 36.3817 16.3883 36.436 16.371 36.4953C16.3562 36.5521 16.3414 36.6052 16.3266 36.6545C16.3118 36.7015 16.2994 36.7397 16.2895 36.7694L16.0229 37.5138H16.8155L16.5488 36.7694Z" fill="white"/>
<path d="M20.0353 37.6916C20.0353 37.8744 19.997 38.0398 19.9204 38.188C19.8464 38.3336 19.7315 38.4497 19.576 38.5361C19.4204 38.6201 19.2241 38.662 18.9871 38.662C18.6512 38.662 18.3957 38.5732 18.2204 38.3954C18.0475 38.2151 17.9611 37.9781 17.9611 37.6842V35.9804H18.3611V37.6657C18.3611 37.883 18.4142 38.0472 18.5204 38.1583C18.6266 38.267 18.7883 38.3213 19.0056 38.3213C19.1537 38.3213 19.2747 38.2941 19.3686 38.2398C19.4624 38.1855 19.5303 38.1102 19.5723 38.0139C19.6167 37.9151 19.6389 37.7978 19.6389 37.662V35.9804H20.0353V37.6916Z" fill="white"/>
<path d="M21.6067 38.625H21.2067V36.3249H20.4141V35.9804H22.3994V36.3249H21.6067V38.625Z" fill="white"/>
<path d="M24.8679 38.625H24.4679V37.4175H23.2049V38.625H22.8049V35.9804H23.2049V37.0768H24.4679V35.9804H24.8679V38.625Z" fill="white"/>
<path d="M27.909 37.299C27.909 37.504 27.8831 37.6904 27.8312 37.8583C27.7818 38.0237 27.7053 38.167 27.6016 38.288C27.5003 38.4089 27.3719 38.5015 27.2164 38.5657C27.0633 38.6299 26.8842 38.662 26.6793 38.662C26.4694 38.662 26.2867 38.6299 26.1311 38.5657C25.978 38.4991 25.8496 38.4065 25.7459 38.288C25.6447 38.167 25.5694 38.0225 25.52 37.8546C25.4706 37.6867 25.4459 37.5003 25.4459 37.2953C25.4459 37.0237 25.4903 36.7867 25.5792 36.5842C25.6681 36.3817 25.8039 36.2237 25.9867 36.1101C26.1719 35.9965 26.404 35.9397 26.683 35.9397C26.9546 35.9397 27.1805 35.9965 27.3608 36.1101C27.5435 36.2212 27.6806 36.3792 27.7719 36.5842C27.8633 36.7867 27.909 37.0249 27.909 37.299ZM25.8681 37.299C25.8681 37.5114 25.8965 37.6941 25.9533 37.8472C26.0101 37.9978 26.099 38.1151 26.22 38.1991C26.341 38.2805 26.4941 38.3213 26.6793 38.3213C26.867 38.3213 27.02 38.2805 27.1386 38.1991C27.2571 38.1151 27.3448 37.9978 27.4015 37.8472C27.4583 37.6941 27.4867 37.5114 27.4867 37.299C27.4867 36.9805 27.4225 36.7323 27.2941 36.5545C27.1682 36.3743 26.9645 36.2842 26.683 36.2842C26.4953 36.2842 26.341 36.3249 26.22 36.4064C26.099 36.4879 26.0101 36.6039 25.9533 36.7546C25.8965 36.9052 25.8681 37.0867 25.8681 37.299Z" fill="white"/>
<path d="M29.2244 35.9804C29.4516 35.9804 29.638 36.0088 29.7837 36.0656C29.9294 36.1224 30.0381 36.2076 30.1097 36.3212C30.1813 36.4323 30.2171 36.5731 30.2171 36.7434C30.2171 36.8792 30.1911 36.9941 30.1393 37.0879C30.0899 37.1793 30.0257 37.2546 29.9467 37.3138C29.8677 37.3706 29.785 37.4163 29.6985 37.4509L30.4393 38.625H29.98L29.343 37.5546H28.8837V38.625H28.4837V35.9804H29.2244ZM29.1985 36.3212H28.8837V37.2212H29.217C29.3528 37.2212 29.464 37.204 29.5504 37.1694C29.6393 37.1348 29.7035 37.083 29.743 37.0138C29.785 36.9447 29.8059 36.8595 29.8059 36.7583C29.8059 36.6521 29.7837 36.5681 29.7393 36.5064C29.6973 36.4422 29.6306 36.3953 29.5393 36.3656C29.4504 36.336 29.3368 36.3212 29.1985 36.3212Z" fill="white"/>
<path d="M31.6424 38.625H30.6164V38.3954L30.9312 38.3028V36.3064L30.6164 36.2101V35.9804H31.6424V36.2101L31.3312 36.3064V38.3028L31.6424 38.3954V38.625Z" fill="white"/>
<path d="M33.7814 38.625H31.911V38.3398L33.2666 36.3249H31.9517V35.9804H33.7481V36.2656L32.3925 38.2805H33.7814V38.625Z" fill="white"/>
<path d="M35.7527 38.625H34.2637V35.9804H35.7527V36.3212H34.6637V37.0768H35.686V37.4138H34.6637V38.2805H35.7527V38.625Z" fill="white"/>
<path d="M38.4663 37.2768C38.4663 37.5731 38.4107 37.8213 38.2996 38.0213C38.1885 38.2213 38.028 38.3719 37.8181 38.4731C37.6107 38.5744 37.3601 38.625 37.0662 38.625H36.3255V35.9804H37.144C37.4132 35.9804 37.6465 36.0298 37.844 36.1286C38.0416 36.2274 38.1947 36.3731 38.3033 36.5657C38.412 36.7558 38.4663 36.9928 38.4663 37.2768ZM38.0478 37.2879C38.0478 37.0657 38.012 36.883 37.9403 36.7397C37.8687 36.5965 37.7626 36.4903 37.6218 36.4212C37.4835 36.3521 37.3156 36.3175 37.1181 36.3175H36.7255V38.288H37.0477C37.3811 38.288 37.6305 38.204 37.7959 38.0361C37.9638 37.8682 38.0478 37.6188 38.0478 37.2879Z" fill="white"/>
<path d="M40.7448 35.9804C41.0905 35.9804 41.3424 36.0508 41.5004 36.1916C41.6584 36.3298 41.7374 36.5237 41.7374 36.7731C41.7374 36.8842 41.7189 36.9904 41.6819 37.0916C41.6473 37.1928 41.5893 37.2842 41.5078 37.3657C41.4263 37.4447 41.3177 37.5077 41.1818 37.5546C41.0485 37.599 40.8843 37.6213 40.6892 37.6213H40.404V38.625H40.004V35.9804H40.7448ZM40.7152 36.3175H40.404V37.2842H40.6448C40.7954 37.2842 40.9213 37.2682 41.0226 37.2361C41.1238 37.2015 41.1991 37.1484 41.2485 37.0768C41.3004 37.0027 41.3263 36.9064 41.3263 36.7879C41.3263 36.6299 41.2769 36.5126 41.1781 36.436C41.0818 36.357 40.9275 36.3175 40.7152 36.3175Z" fill="white"/>
<path d="M43.7357 38.625L43.4542 37.862H42.4319L42.1504 38.625H41.7356L42.7393 35.9693H43.1542L44.1542 38.625H43.7357ZM43.0764 36.7694C43.069 36.7422 43.0554 36.7015 43.0356 36.6471C43.0184 36.5903 43.0011 36.5336 42.9838 36.4768C42.9665 36.4175 42.9529 36.3693 42.943 36.3323C42.9307 36.3817 42.9159 36.436 42.8986 36.4953C42.8838 36.5521 42.869 36.6052 42.8542 36.6545C42.8393 36.7015 42.827 36.7397 42.8171 36.7694L42.5504 37.5138H43.3431L43.0764 36.7694Z" fill="white"/>
<path d="M45.2517 35.9804C45.4788 35.9804 45.6653 36.0088 45.8109 36.0656C45.9566 36.1224 46.0653 36.2076 46.1369 36.3212C46.2085 36.4323 46.2443 36.5731 46.2443 36.7434C46.2443 36.8792 46.2184 36.9941 46.1665 37.0879C46.1171 37.1793 46.0529 37.2546 45.9739 37.3138C45.8949 37.3706 45.8122 37.4163 45.7258 37.4509L46.4665 38.625H46.0072L45.3702 37.5546H44.9109V38.625H44.5109V35.9804H45.2517ZM45.2257 36.3212H44.9109V37.2212H45.2442C45.3801 37.2212 45.4912 37.204 45.5776 37.1694C45.6665 37.1348 45.7307 37.083 45.7702 37.0138C45.8122 36.9447 45.8332 36.8595 45.8332 36.7583C45.8332 36.6521 45.8109 36.5681 45.7665 36.5064C45.7245 36.4422 45.6578 36.3953 45.5665 36.3656C45.4776 36.336 45.364 36.3212 45.2257 36.3212Z" fill="white"/>
<path d="M47.7437 38.625H47.3437V36.3249H46.551V35.9804H48.5363V36.3249H47.7437V38.625Z" fill="white"/>
<path d="M51.1123 38.625H50.6271L49.29 36.4879H49.2751C49.2776 36.5373 49.2801 36.5903 49.2825 36.6471C49.2875 36.7039 49.2912 36.7644 49.2937 36.8286C49.2961 36.8904 49.2986 36.9546 49.3011 37.0212C49.3035 37.0854 49.3048 37.1509 49.3048 37.2175V38.625H48.9418V35.9804H49.4233L50.7567 38.1065H50.7678C50.7653 38.0694 50.7629 38.0237 50.7604 37.9694C50.7579 37.9126 50.7555 37.8521 50.753 37.7879C50.753 37.7237 50.7517 37.6583 50.7493 37.5916C50.7468 37.525 50.7443 37.462 50.7419 37.4027V35.9804H51.1123V38.625Z" fill="white"/>
<path d="M53.3063 38.625H51.8174V35.9804H53.3063V36.3212H52.2174V37.0768H53.2396V37.4138H52.2174V38.2805H53.3063V38.625Z" fill="white"/>
<path d="M54.6199 35.9804C54.847 35.9804 55.0335 36.0088 55.1791 36.0656C55.3248 36.1224 55.4335 36.2076 55.5051 36.3212C55.5767 36.4323 55.6125 36.5731 55.6125 36.7434C55.6125 36.8792 55.5866 36.9941 55.5347 37.0879C55.4853 37.1793 55.4211 37.2546 55.3421 37.3138C55.2631 37.3706 55.1804 37.4163 55.094 37.4509L55.8347 38.625H55.3755L54.7384 37.5546H54.2791V38.625H53.8791V35.9804H54.6199ZM54.5939 36.3212H54.2791V37.2212H54.6125C54.7483 37.2212 54.8594 37.204 54.9458 37.1694C55.0347 37.1348 55.0989 37.083 55.1384 37.0138C55.1804 36.9447 55.2014 36.8595 55.2014 36.7583C55.2014 36.6521 55.1791 36.5681 55.1347 36.5064C55.0927 36.4422 55.0261 36.3953 54.9347 36.3656C54.8458 36.336 54.7322 36.3212 54.5939 36.3212Z" fill="white"/>
<path d="M23.4961 47.0127H23.1257V44.3994H22.208V44.0743H24.4098V44.3994H23.4961V47.0127Z" fill="black"/>
<path d="M26.4949 47.0127H24.8528V44.0743H26.4949V44.3994H25.2232V45.3172H26.4208V45.6382H25.2232V46.6876H26.4949V47.0127Z" fill="black"/>
<path d="M28.3989 44.3583C28.2426 44.3583 28.1013 44.3857 27.9751 44.4406C27.8489 44.4927 27.7419 44.5709 27.6541 44.6752C27.5663 44.7767 27.499 44.9015 27.4524 45.0497C27.4058 45.1951 27.3824 45.3597 27.3824 45.5435C27.3824 45.785 27.4195 45.9949 27.4936 46.1732C27.5704 46.3515 27.6829 46.4887 27.831 46.5847C27.9819 46.6808 28.1699 46.7288 28.3948 46.7288C28.5238 46.7288 28.6459 46.7178 28.7611 46.6958C28.8763 46.6739 28.9888 46.6465 29.0986 46.6135V46.9345C28.9888 46.9757 28.875 47.0059 28.757 47.0251C28.6418 47.0443 28.5032 47.0539 28.3413 47.0539C28.0423 47.0539 27.7926 46.9922 27.5923 46.8687C27.392 46.7452 27.2411 46.5696 27.1396 46.3419C27.0409 46.1142 26.9915 45.8467 26.9915 45.5394C26.9915 45.3172 27.0217 45.1142 27.082 44.9303C27.1451 44.7465 27.2357 44.5874 27.3536 44.4529C27.4743 44.3185 27.6225 44.2156 27.7981 44.1443C27.9737 44.0702 28.1753 44.0332 28.4031 44.0332C28.554 44.0332 28.6994 44.0483 28.8393 44.0784C28.9792 44.1086 29.1041 44.1511 29.2138 44.206L29.0656 44.5188C28.9751 44.4776 28.8736 44.4406 28.7611 44.4077C28.6514 44.3747 28.5306 44.3583 28.3989 44.3583Z" fill="black"/>
<path d="M31.9869 47.0127H31.6165V45.6423H30.1103V47.0127H29.7399V44.0743H30.1103V45.3172H31.6165V44.0743H31.9869V47.0127Z" fill="black"/>
<path d="M35.1196 47.0127H34.6875L33.1154 44.5723H33.0989C33.1017 44.6217 33.1044 44.6765 33.1072 44.7369C33.1127 44.7973 33.1168 44.8631 33.1195 44.9344C33.1223 45.003 33.125 45.0744 33.1278 45.1484C33.1305 45.2225 33.1319 45.2966 33.1319 45.3707V47.0127H32.7903V44.0743H33.2183L34.7863 46.5065H34.8027C34.8 46.4736 34.7972 46.4283 34.7945 46.3707C34.7918 46.3104 34.789 46.2445 34.7863 46.1732C34.7835 46.0991 34.7808 46.0237 34.778 45.9468C34.7753 45.87 34.7739 45.7987 34.7739 45.7328V44.0743H35.1196V47.0127Z" fill="black"/>
<path d="M38.481 45.5394C38.481 45.7671 38.4521 45.9743 38.3945 46.1608C38.3369 46.3447 38.2505 46.5038 38.1353 46.6382C38.0228 46.7727 37.8815 46.8756 37.7114 46.9469C37.544 47.0182 37.3492 47.0539 37.127 47.0539C36.8965 47.0539 36.6962 47.0182 36.5261 46.9469C36.356 46.8728 36.2147 46.7699 36.1022 46.6382C35.9898 46.5038 35.9061 46.3433 35.8512 46.1567C35.7963 45.9702 35.7689 45.763 35.7689 45.5353C35.7689 45.2335 35.8183 44.9701 35.917 44.7451C36.0158 44.5202 36.1653 44.3446 36.3656 44.2184C36.5687 44.0922 36.8238 44.0291 37.1311 44.0291C37.4247 44.0291 37.6716 44.0922 37.8719 44.2184C38.0722 44.3418 38.2231 44.5174 38.3246 44.7451C38.4288 44.9701 38.481 45.2349 38.481 45.5394ZM36.1599 45.5394C36.1599 45.7863 36.1941 45.999 36.2627 46.1773C36.3313 46.3556 36.437 46.4928 36.5796 46.5888C36.725 46.6849 36.9075 46.7329 37.127 46.7329C37.3492 46.7329 37.5303 46.6849 37.6702 46.5888C37.8129 46.4928 37.9185 46.3556 37.9871 46.1773C38.0557 45.999 38.09 45.7863 38.09 45.5394C38.09 45.169 38.0132 44.8796 37.8595 44.6711C37.7059 44.4598 37.4631 44.3542 37.1311 44.3542C36.9089 44.3542 36.725 44.4022 36.5796 44.4982C36.437 44.5915 36.3313 44.7273 36.2627 44.9056C36.1941 45.0812 36.1599 45.2925 36.1599 45.5394Z" fill="black"/>
<path d="M39.1322 47.0127V44.0743H39.5026V46.6835H40.7866V47.0127H39.1322Z" fill="black"/>
<path d="M43.7739 45.5394C43.7739 45.7671 43.7451 45.9743 43.6875 46.1608C43.6299 46.3447 43.5435 46.5038 43.4282 46.6382C43.3157 46.7727 43.1744 46.8756 43.0043 46.9469C42.837 47.0182 42.6422 47.0539 42.42 47.0539C42.1895 47.0539 41.9892 47.0182 41.8191 46.9469C41.649 46.8728 41.5077 46.7699 41.3952 46.6382C41.2827 46.5038 41.199 46.3433 41.1442 46.1567C41.0893 45.9702 41.0619 45.763 41.0619 45.5353C41.0619 45.2335 41.1112 44.9701 41.21 44.7451C41.3088 44.5202 41.4583 44.3446 41.6586 44.2184C41.8616 44.0922 42.1168 44.0291 42.4241 44.0291C42.7176 44.0291 42.9646 44.0922 43.1648 44.2184C43.3651 44.3418 43.516 44.5174 43.6175 44.7451C43.7218 44.9701 43.7739 45.2349 43.7739 45.5394ZM41.4528 45.5394C41.4528 45.7863 41.4871 45.999 41.5557 46.1773C41.6243 46.3556 41.7299 46.4928 41.8726 46.5888C42.018 46.6849 42.2005 46.7329 42.42 46.7329C42.6422 46.7329 42.8233 46.6849 42.9632 46.5888C43.1059 46.4928 43.2115 46.3556 43.2801 46.1773C43.3487 45.999 43.383 45.7863 43.383 45.5394C43.383 45.169 43.3061 44.8796 43.1525 44.6711C42.9989 44.4598 42.756 44.3542 42.4241 44.3542C42.2018 44.3542 42.018 44.4022 41.8726 44.4982C41.7299 44.5915 41.6243 44.7273 41.5557 44.9056C41.4871 45.0812 41.4528 45.2925 41.4528 45.5394Z" fill="black"/>
<path d="M45.701 45.4612H46.7175V46.9016C46.5583 46.9537 46.3978 46.9922 46.236 47.0168C46.0741 47.0415 45.8903 47.0539 45.6845 47.0539C45.38 47.0539 45.1234 46.9935 44.9149 46.8728C44.7064 46.7493 44.5473 46.5751 44.4375 46.3501C44.3305 46.1224 44.277 45.8536 44.277 45.5435C44.277 45.2362 44.3374 44.9701 44.4581 44.7451C44.5788 44.5202 44.7517 44.3459 44.9767 44.2225C45.2044 44.0963 45.4787 44.0332 45.7997 44.0332C45.9644 44.0332 46.1194 44.0483 46.2648 44.0784C46.4129 44.1086 46.5501 44.1511 46.6763 44.206L46.5364 44.527C46.4321 44.4804 46.3142 44.4406 46.1825 44.4077C46.0535 44.3747 45.9191 44.3583 45.7792 44.3583C45.546 44.3583 45.3457 44.4063 45.1783 44.5023C45.0109 44.5984 44.8834 44.7355 44.7956 44.9139C44.7078 45.0895 44.6639 45.2993 44.6639 45.5435C44.6639 45.7767 44.7009 45.9839 44.775 46.165C44.8518 46.3433 44.9712 46.4832 45.133 46.5847C45.2949 46.6835 45.5075 46.7329 45.7709 46.7329C45.8587 46.7329 45.9355 46.7301 46.0014 46.7247C46.07 46.7164 46.1317 46.7068 46.1866 46.6958C46.2442 46.6849 46.2977 46.6739 46.3471 46.6629V45.7905H45.701V45.4612Z" fill="black"/>
<path d="M48.1848 45.5188L48.9503 44.0743H49.3494L48.37 45.8728V47.0127H47.9996V45.8892L47.0201 44.0743H47.4234L48.1848 45.5188Z" fill="black"/>
<path fill-rule="evenodd" clip-rule="evenodd" d="M25.0053 25.8241V24.1379C25.0053 23.9164 25.1814 23.7384 25.4732 23.7384H25.5539C25.8455 23.7384 26.0208 23.9166 26.0208 24.1379V27.6878C26.0208 28.5534 25.477 29.2422 24.5292 29.681C24.0951 29.8833 23.5995 29.9896 23.0949 29.9886H22.8935C21.7925 29.9886 20.9177 29.5607 20.3588 28.8159C20.1013 28.4745 19.9661 28.0847 19.9678 27.6878V27.5296C19.9678 26.6636 20.5119 25.9752 21.4588 25.5356C21.8929 25.3329 22.3887 25.2266 22.8935 25.228H23.0949C23.8401 25.228 24.4722 25.4551 25.0053 25.8241ZM20.9831 27.6085C20.9831 28.2339 21.3685 28.704 22.0653 29.0039C22.3471 29.1251 22.6529 29.1902 22.9744 29.1902C23.7549 29.1902 24.3338 28.9006 24.7331 28.3805C24.9188 28.1385 25.0053 27.8738 25.0053 27.5924C25.0053 27.0503 24.679 26.6273 24.1235 26.3131C23.7867 26.1226 23.4076 26.0271 22.9942 26.0271C22.1434 26.0271 21.5312 26.3651 21.1637 26.9655C21.0397 27.1685 20.9831 27.384 20.9831 27.6085ZM29.5436 25.228H29.6843C30.8608 25.228 31.7556 25.6768 32.3227 26.4844C32.5494 26.8075 32.6707 27.1601 32.6707 27.5296V27.6878C32.6707 28.5534 32.1279 29.2432 31.1788 29.6811C30.7394 29.8838 30.254 29.9886 29.7447 29.9886H29.5436C28.4425 29.9886 27.5675 29.5607 27.0089 28.8159C26.7512 28.4746 26.6159 28.0847 26.6174 27.6878V27.5296C26.6174 26.6635 27.1638 25.9774 28.1084 25.5358C28.5475 25.3307 29.0333 25.228 29.5436 25.228ZM27.6329 27.6085C27.6329 28.2155 28.0116 28.662 28.6636 28.976C28.9697 29.1234 29.3069 29.1902 29.6645 29.1902C30.4272 29.1902 30.991 28.8861 31.3833 28.3799C31.5705 28.1385 31.6551 27.8734 31.6551 27.5924C31.6551 27.0279 31.3094 26.5968 30.7184 26.2843C30.3946 26.1129 30.0341 26.0271 29.6441 26.0271C28.7933 26.0271 28.1811 26.3651 27.8138 26.9655C27.6895 27.1685 27.6329 27.384 27.6329 27.6085ZM36.8921 26.0909C36.7388 26.0344 36.4518 26.0156 36.2861 26.0107C35.4378 25.9856 34.8239 26.3613 34.4638 26.9498C34.3395 27.1528 34.2827 27.3677 34.2827 27.5924C34.2827 28.2763 34.7394 28.7552 35.5157 29.0471C35.7993 29.1537 36.1654 29.1739 36.4754 29.1739C36.7479 29.1739 37.1332 29.0426 37.3751 28.9522L37.4171 28.9366H37.6049L37.6256 28.9399C37.8565 28.9777 38.0308 29.0928 38.0308 29.2882V29.3672C38.0308 29.8534 36.9009 29.9647 36.4697 29.9884C34.9483 30.0712 33.8104 29.4141 33.3767 28.2729C33.3013 28.0747 33.2674 27.8779 33.2674 27.6714V27.5134C33.2674 26.6475 33.8138 25.9615 34.7583 25.5204C35.1974 25.3153 35.6831 25.2122 36.1932 25.2122H36.3945C36.9357 25.2122 37.4342 25.3331 37.8811 25.5731L37.9178 25.5931L37.941 25.6232C37.9892 25.6861 38.0308 25.7588 38.0308 25.8337V25.9127C38.0308 26.1165 37.8368 26.2262 37.6028 26.2616L37.5834 26.2643H37.5233C37.3719 26.2643 37.0273 26.141 36.8921 26.0909ZM40.1858 26.6316C40.5802 26.321 40.976 26.011 41.3764 25.7056C41.4879 25.6203 41.9102 25.2596 42.0765 25.2596H42.2584L42.2791 25.263C42.5108 25.3009 42.6843 25.4162 42.6843 25.612V25.6909C42.6843 25.8245 42.4854 25.9797 42.3757 26.0711C42.1425 26.2655 41.8969 26.4536 41.6581 26.6441L40.4313 27.6235C40.9595 28.0398 41.4872 28.4564 42.0111 28.876C42.1565 28.9918 42.3007 29.1084 42.4437 29.2259C42.4942 29.2677 42.5686 29.3196 42.6109 29.3774C42.6564 29.4316 42.6843 29.4927 42.6843 29.558V29.6404L42.6784 29.6595C42.6214 29.8417 42.4744 29.9886 42.2177 29.9886H42.1368C41.9688 29.9886 41.7791 29.8392 41.664 29.7538C41.4268 29.578 41.1979 29.3931 40.9654 29.2135L40.1858 28.6116V29.5735C40.1858 29.7951 40.0094 29.9732 39.7181 29.9732H39.6382C39.3465 29.9732 39.1703 29.7951 39.1703 29.5735V24.1534C39.1703 23.9318 39.3466 23.7546 39.6382 23.7546H39.7181C40.0094 23.7546 40.1858 23.9318 40.1858 24.1534V26.6316ZM52.8418 25.2596H52.9427C53.2473 25.2596 53.4505 25.421 53.4505 25.6592C53.4505 25.9898 53.0486 26.0744 52.7009 26.0744C52.2449 26.0744 51.8094 26.2915 51.4951 26.535C51.1031 26.8389 50.9316 27.2282 50.9316 27.656V29.5892C50.9316 29.8108 50.7556 29.9886 50.4637 29.9886H50.3835C50.0917 29.9886 49.9158 29.8109 49.9158 29.5892V27.545C49.9158 26.7601 50.4017 26.1193 51.2119 25.6699C51.6956 25.4014 52.2496 25.2598 52.8418 25.2598V25.2596ZM45.6246 29.0907C45.9941 29.1922 46.4155 29.1777 46.7946 29.1258C46.9885 29.061 47.4844 28.8908 47.6668 28.9158L47.6953 28.9196L47.7215 28.9297C47.8329 28.9721 47.9391 29.0322 47.996 29.1213C48.1289 29.3302 48.0651 29.5403 47.804 29.6589L47.7171 29.6983C46.754 30.1355 45.7294 30.0749 44.7693 29.6666C44.3102 29.4714 43.959 29.1817 43.6999 28.8286L43.6394 28.746C43.021 27.9039 43.1045 27.018 43.8019 26.2172C44.0426 25.9404 44.3573 25.7266 44.7251 25.5593L44.8643 25.4962C45.7714 25.0844 46.7436 25.1126 47.6752 25.474C48.1762 25.6684 48.582 25.958 48.8617 26.339L48.912 26.4077C49.1151 26.6845 48.852 26.9256 48.5803 27.0905C48.265 27.2817 47.9467 27.512 47.6445 27.717C46.9707 28.1745 46.2979 28.633 45.6246 29.0907ZM44.7525 28.6091C45.506 28.101 46.2598 27.5925 47.0113 27.0822C47.2682 26.9081 47.5498 26.7273 47.8045 26.5442C47.6001 26.3416 47.2586 26.1956 46.9685 26.1085C46.3827 25.933 45.8052 25.9919 45.268 26.2358C44.565 26.555 44.2655 27.0634 44.2917 27.696C44.3022 27.9452 44.3874 28.1853 44.5555 28.3973C44.6148 28.472 44.6809 28.5422 44.7525 28.6091ZM39.2724 12.6073H42.2689V15.0162H43.7839C44.4837 15.0162 45.2033 14.9182 45.8659 14.7417C46.1915 14.6548 46.5569 14.534 46.8781 14.382C46.455 13.9477 46.2391 13.3994 46.1756 12.8589C46.0892 12.1236 46.2779 11.1667 46.9106 10.5912L47.2256 10.3047L47.6009 10.5421C48.5459 11.139 49.3407 11.9734 49.4808 12.9244C50.6186 12.6612 51.9546 12.7235 52.9575 13.1787L53.369 13.3654L53.1525 13.6978C52.3043 14.9996 50.5308 15.403 48.7971 15.3315C46.2028 20.413 40.5546 22.8186 33.7062 22.8186C30.168 22.8186 26.922 21.7785 25.0735 19.31L25.0432 19.2698L24.7739 18.8388C24.1491 17.7523 23.9415 16.5619 24.0822 15.3725L24.1246 15.0162H26.687V12.6073H29.6834V10.2509H35.6765V7.89453H39.2724V12.6073Z" fill="#364548"/>
<path fill-rule="evenodd" clip-rule="evenodd" d="M48.9791 13.4981C49.18 12.2701 48.0114 11.3056 47.2867 10.8477C46.4516 11.6069 46.3218 13.5969 47.632 14.4347C46.9008 14.9454 45.3601 15.4084 43.7824 15.4084H24.5783C24.425 16.7034 24.7141 17.8961 25.3744 18.9168L25.5929 19.2311C25.7312 19.4156 25.8823 19.5939 26.0456 19.7653C26.8352 19.8052 27.5631 19.8189 28.2291 19.8074H28.2294C29.5381 19.7847 30.606 19.6631 31.4154 19.4426C31.4726 19.4286 31.5345 19.4326 31.588 19.4539C31.6415 19.4751 31.6823 19.5119 31.702 19.5564C31.7216 19.6009 31.7184 19.6497 31.6931 19.6924C31.6678 19.7352 31.6224 19.7685 31.5665 19.7853C31.4587 19.8148 31.3466 19.8422 31.2307 19.8683H31.2303C30.5931 20.0114 29.9097 20.1077 29.028 20.1504C29.0804 20.1512 28.9735 20.1566 28.9732 20.1566C28.9432 20.1582 28.9055 20.1616 28.8753 20.1628C28.5283 20.1782 28.1538 20.1814 27.7709 20.1814C27.352 20.1814 26.9396 20.1752 26.4785 20.1566L26.4667 20.1628C28.0668 21.5771 30.5687 22.4253 33.7049 22.4253C40.3421 22.4253 45.9718 20.1116 48.4648 14.9172C50.2334 15.0599 51.9332 14.7052 52.7064 13.5183C51.4748 12.9594 49.891 13.1376 48.9791 13.4981Z" fill="#22A0C8"/>
<path fill-rule="evenodd" clip-rule="evenodd" d="M48.9907 13.4981C49.1916 12.2701 48.0231 11.3056 47.2984 10.8477C46.4633 11.6069 46.3335 13.5969 47.6437 14.4347C46.9125 14.9454 45.3718 15.4084 43.7941 15.4084H25.7272C25.6488 17.3917 26.5848 18.8972 28.2407 19.8074H28.2411C29.5498 19.7847 30.6177 19.6631 31.4271 19.4426C31.4843 19.4286 31.5462 19.4326 31.5997 19.4539C31.6531 19.4751 31.694 19.5119 31.7136 19.5564C31.7333 19.6009 31.7301 19.6497 31.7048 19.6924C31.6795 19.7352 31.6341 19.7685 31.5781 19.7853C31.4704 19.8148 31.3583 19.8422 31.2424 19.8683H31.242C30.6047 20.0114 29.8626 20.12 28.981 20.1628C28.9807 20.1628 28.9596 20.1468 28.9593 20.1468C31.2182 21.058 34.4934 21.0547 38.2485 19.9204C42.459 18.6483 46.3772 16.225 49.1109 13.4531C49.0698 13.4678 49.0297 13.4827 48.9907 13.4981Z" fill="#37B1D9"/>
<path fill-rule="evenodd" clip-rule="evenodd" d="M24.6074 16.9824C24.7267 17.6762 24.9848 18.3257 25.3675 18.9173L25.5859 19.2317C25.7242 19.4161 25.8754 19.5945 26.0387 19.7659C26.8284 19.8058 27.5563 19.8195 28.2225 19.8079C29.5312 19.7853 30.5991 19.6637 31.4084 19.4431C31.4657 19.4291 31.5276 19.4332 31.581 19.4544C31.6345 19.4757 31.6754 19.5124 31.695 19.557C31.7147 19.6015 31.7115 19.6503 31.6862 19.693C31.6609 19.7357 31.6155 19.769 31.5595 19.7859C31.4518 19.8153 31.3396 19.8428 31.2238 19.8688H31.2234C30.5861 20.012 29.8479 20.1144 28.9663 20.1573C28.936 20.1587 28.8832 20.159 28.8527 20.1604C28.5059 20.1756 28.1352 20.185 27.7521 20.185C27.3334 20.185 26.9052 20.1787 26.4443 20.1603C28.0444 21.5746 30.5618 22.4259 33.6979 22.4259C39.3801 22.4259 44.3237 20.7298 47.1929 16.9824H24.6074Z" fill="#1B81A5"/>
<path fill-rule="evenodd" clip-rule="evenodd" d="M25.8906 16.9824C26.2303 18.2005 27.0466 19.1567 28.2316 19.8079C29.5404 19.7853 30.6083 19.6637 31.4176 19.4431C31.4748 19.4291 31.5367 19.4332 31.5902 19.4544C31.6437 19.4757 31.6846 19.5124 31.7042 19.557C31.7238 19.6015 31.7207 19.6503 31.6954 19.693C31.6701 19.7357 31.6247 19.769 31.5687 19.7859C31.461 19.8153 31.3488 19.8428 31.233 19.8688H31.2326C30.5953 20.012 29.8415 20.1144 28.9597 20.1573C31.2184 21.0683 34.4842 21.0552 38.2391 19.921C40.5106 19.2346 42.6969 18.213 44.6582 16.9824H25.8906Z" fill="#1D91B4"/>
<path fill-rule="evenodd" clip-rule="evenodd" d="M27.1836 12.999H29.7807V15.0413H27.1836V12.999ZM27.4 13.1692H27.6049V14.8711H27.4V13.1692ZM27.7852 13.1692H27.9984V14.8711H27.7854V13.1692H27.7852ZM28.1786 13.1692H28.3918V14.8711H28.1786V13.1692ZM28.5723 13.1692H28.7854V14.8711H28.5723V13.1692ZM28.9658 13.1692H29.1789V14.8711H28.9658V13.1692ZM29.3592 13.1692H29.5643V14.8711H29.3592V13.1692ZM30.1801 10.6426H32.7773V12.6848H30.18V10.6426H30.1801ZM30.3966 10.8128H30.6014V12.5146H30.3966V10.8128ZM30.7819 10.8128H30.9949V12.5146H30.782V10.8128H30.7819ZM31.1753 10.8128H31.3883V12.5146H31.1753V10.8128ZM31.5688 10.8128H31.7819V12.5146H31.5688V10.8128ZM31.9623 10.8128H32.1755V12.5146H31.9623V10.8128ZM32.3557 10.8128H32.5609V12.5146H32.3557V10.8128Z" fill="#23A3C2"/>
<path fill-rule="evenodd" clip-rule="evenodd" d="M30.1847 13H32.7807V15.0423H30.1846V13H30.1847ZM30.4011 13.1702H30.6058V14.8722H30.4011V13.1702ZM30.7862 13.1702H30.9992V14.8722H30.7863V13.1702H30.7862ZM31.1794 13.1702H31.3924V14.8722H31.1794V13.1702ZM31.5727 13.1702H31.7857V14.8722H31.5727V13.1702ZM31.9661 13.1702H32.1792V14.8722H31.9661V13.1702ZM32.3593 13.1702H32.5644V14.8722H32.3593V13.1702Z" fill="#34BBDE"/>
<path fill-rule="evenodd" clip-rule="evenodd" d="M33.1953 13H35.7912V15.0423H33.1953V13ZM33.4116 13.1702H33.6163V14.8722H33.4116V13.1702ZM33.7967 13.1702H34.0096V14.8722H33.7967V13.1702ZM34.19 13.1702H34.403V14.8722H34.19V13.1702ZM34.5833 13.1702H34.7963V14.8722H34.5833V13.1702ZM34.9766 13.1702H35.1898V14.8722H34.9766V13.1702ZM35.3699 13.1702H35.5748V14.8722H35.3699V13.1702Z" fill="#23A3C2"/>
<path fill-rule="evenodd" clip-rule="evenodd" d="M33.1953 10.6426H35.7924V12.6848H33.1953V10.6426ZM33.4117 10.8128H33.6165V12.5146H33.4117V10.8128ZM33.7969 10.8128H34.01V12.5146H33.7969V10.8128ZM34.1905 10.8128H34.4036V12.5146H34.1905V10.8128ZM34.584 10.8128H34.7971V12.5146H34.584V10.8128ZM34.9774 10.8128H35.1907V12.5146H34.9774V10.8128ZM35.3709 10.8128H35.5759V12.5146H35.3709V10.8128ZM36.1918 12.999H38.7889V15.0413H36.1918V12.999ZM36.4083 13.1692H36.6131V14.8711H36.4083V13.1692ZM36.7936 13.1692H37.0067V14.8711H36.7936V13.1692ZM37.187 13.1692H37.4V14.8711H37.187V13.1692ZM37.5805 13.1692H37.7937V14.8711H37.5805V13.1692ZM37.974 13.1692H38.1872V14.8711H37.974V13.1692ZM38.3676 13.1692H38.5725V14.8711H38.3676V13.1692Z" fill="#34BBDE"/>
<path fill-rule="evenodd" clip-rule="evenodd" d="M36.1865 10.6426H38.7824V12.6848H36.1865V10.6426ZM36.4029 10.8128H36.6076V12.5146H36.4029V10.8128ZM36.788 10.8128H37.001V12.5146H36.788V10.8128ZM37.1812 10.8128H37.3942V12.5146H37.1812V10.8128ZM37.5746 10.8128H37.7877V12.5146H37.5746V10.8128ZM37.9679 10.8128H38.181V12.5146H37.9679V10.8128ZM38.3612 10.8128H38.5661V12.5146H38.3612V10.8128Z" fill="#23A3C2"/>
<path fill-rule="evenodd" clip-rule="evenodd" d="M36.1865 8.28711H38.7824V10.3296H36.1865V8.28711ZM36.4029 8.45725H36.6076V10.1593H36.4029V8.45715V8.45725ZM36.788 8.45725H37.001V10.1593H36.788V8.45715V8.45725ZM37.1812 8.45725H37.3942V10.1593H37.1812V8.45715V8.45725ZM37.5746 8.45725H37.7877V10.1593H37.5746V8.45715V8.45725ZM37.9679 8.45725H38.181V10.1593H37.9679V8.45715V8.45725ZM38.3612 8.45725H38.5661V10.1593H38.3612V8.45715V8.45725Z" fill="#34BBDE"/>
<path fill-rule="evenodd" clip-rule="evenodd" d="M39.1777 13.001H41.7736V15.0433H39.1777V13.001ZM39.3939 13.1712H39.5988V14.8731H39.394V13.1712H39.3939ZM39.7789 13.1712H39.9921V14.8731H39.7791V13.1712H39.7789ZM40.1724 13.1712H40.3855V14.8731H40.1724V13.1712ZM40.5656 13.1712H40.7787V14.8731H40.5656V13.1712ZM40.9591 13.1712H41.1721V14.8731H40.9591V13.1712ZM41.3523 13.1712H41.5572V14.8731H41.3523V13.1712Z" fill="#23A3C2"/>
<path fill-rule="evenodd" clip-rule="evenodd" d="M32.6191 18.3528C32.7141 18.3518 32.8083 18.3657 32.8963 18.3936C32.9844 18.4215 33.0645 18.4628 33.1321 18.5153C33.1996 18.5678 33.2533 18.6303 33.2899 18.6992C33.3265 18.7681 33.3453 18.842 33.3453 18.9167C33.3453 18.9914 33.3264 19.0653 33.2898 19.1342C33.2531 19.2031 33.1995 19.2656 33.1319 19.318C33.0643 19.3704 32.9842 19.4118 32.8961 19.4396C32.808 19.4675 32.7138 19.4813 32.6189 19.4803C32.4305 19.4783 32.2508 19.418 32.1185 19.3125C31.9862 19.2069 31.9121 19.0647 31.9121 18.9165C31.9121 18.7683 31.9864 18.626 32.1187 18.5205C32.251 18.4151 32.4308 18.3548 32.6191 18.3528Z" fill="#D3ECEC"/>
<path fill-rule="evenodd" clip-rule="evenodd" d="M32.6209 18.5133C32.6864 18.5133 32.7489 18.523 32.8066 18.5406C32.7668 18.5588 32.7357 18.5868 32.7182 18.6202C32.7006 18.6536 32.6975 18.6907 32.7094 18.7256C32.7213 18.7606 32.7476 18.7915 32.784 18.8136C32.8205 18.8356 32.8652 18.8476 32.9112 18.8477C32.9905 18.8477 33.0593 18.8132 33.0949 18.7621C33.1371 18.842 33.1455 18.9305 33.1188 19.0145C33.0921 19.0985 33.0318 19.1735 32.9468 19.2285C32.8617 19.2834 32.7565 19.3154 32.6465 19.3197C32.5366 19.324 32.4278 19.3004 32.3363 19.2523C32.2447 19.2043 32.1752 19.1344 32.1381 19.0529C32.101 18.9714 32.0981 18.8827 32.13 18.7998C32.162 18.717 32.2269 18.6444 32.3153 18.5928C32.4037 18.5412 32.5108 18.5133 32.6209 18.5133ZM19.9482 17.1859H53.2767C52.5511 17.0412 50.9808 16.8456 51.2398 16.0977C49.9201 17.2984 46.738 16.9401 45.9348 16.3481C45.0405 17.3681 39.8341 16.9803 39.4709 16.1857C38.3497 17.2204 34.8755 17.2204 33.7543 16.1857C33.3909 16.9803 28.1846 17.3681 27.2902 16.348C26.4872 16.9401 23.3051 17.2984 21.9855 16.0978C22.2444 16.8456 20.6741 17.0412 19.9482 17.186" fill="#364548"/>
<path fill-rule="evenodd" clip-rule="evenodd" d="M34.5249 22.4139C32.7506 21.7518 31.7768 20.8516 31.2349 19.8691C30.5757 20.017 29.7836 20.1116 28.863 20.1522C28.5162 20.1675 28.1514 20.1753 27.7687 20.1753C27.3274 20.1753 26.8623 20.165 26.374 20.1447C28.0012 21.4236 30.0029 22.4082 33.7094 22.4261C33.9831 22.4261 34.2546 22.422 34.5249 22.4139Z" fill="#BDD9D7"/>
<path fill-rule="evenodd" clip-rule="evenodd" d="M31.8933 20.776C31.6478 20.5139 31.4097 20.1846 31.2346 19.8691C30.5755 20.0172 29.783 20.1118 28.8623 20.1525C29.4947 20.4224 30.3991 20.6725 31.8934 20.776" fill="#D3ECEC"/>
</svg>
