<svg width="59" height="22" viewBox="0 0 59 22" fill="none" xmlns="http://www.w3.org/2000/svg">
<path d="M6.99453 5.47168C3.97289 5.47168 1.67383 7.93737 1.67383 11.2475V11.2813C1.67383 14.5914 4.03858 17.0233 7.29012 17.0233C9.12937 17.0233 10.4431 16.314 11.527 14.9629L11.6583 14.794L9.65488 13.139L9.32644 13.4767C8.57103 14.2198 8.04553 14.3549 7.1259 14.3549C6.10774 14.3549 4.99105 13.5781 4.66262 12.531H11.9868H12.2167V12.2946C12.2495 12.0244 12.2495 11.7204 12.2495 11.4839C12.2495 9.86264 11.7897 8.37647 10.9686 7.3294C10.0162 6.07966 8.66956 5.47168 6.99453 5.47168ZM4.4984 10.1666L4.56408 9.9302C4.82683 8.78179 5.84499 8.07248 6.99453 8.07248C8.20975 8.07248 9.19506 8.81557 9.42497 9.9302L9.45781 10.1666H4.4984Z" fill="#BC181F"/>
<path d="M29.4575 13.7803C28.7021 13.7803 28.0781 13.2061 28.0781 12.463C28.0781 12.4292 28.0452 12.0239 28.0452 11.551V8.5111H31.034V5.60631H28.0452V1.78955H24.8594V12.3954C24.8594 12.4292 24.8594 12.463 24.8594 12.463C24.8594 14.8611 26.9285 16.8202 29.4904 16.8202C29.556 16.8202 29.5889 16.8202 31.2311 16.8202V13.7803C29.556 13.7803 29.4904 13.7803 29.4575 13.7803Z" fill="#BC181F"/>
<path d="M18.8149 5.50451C18.6179 5.50451 18.388 5.47074 18.1581 5.50451C15.0707 5.60584 12.6074 8.34175 12.706 11.5505C12.8045 14.6918 15.3006 17.0561 18.3551 17.0561C19.4061 17.0561 20.1615 16.6846 21.0812 16.0091V16.8197H23.8729V11.2803C23.8729 8.30798 21.6723 5.74095 18.8149 5.50451ZM18.3551 14.1513C16.8443 14.1513 15.6291 12.9016 15.6291 11.3479C15.6291 9.79415 16.8443 8.54441 18.3551 8.54441C19.8659 8.54441 21.0812 9.79415 21.0812 11.3479C21.0812 12.9016 19.8659 14.1513 18.3551 14.1513Z" fill="#BC181F"/>
<path d="M42.8557 5.60679C42.79 5.60679 42.6915 5.57301 42.6258 5.57301C42.2973 5.50546 41.936 5.47168 41.6076 5.47168C38.5531 5.47168 36.0898 8.0387 36.0898 11.2137C36.0898 11.5177 36.1227 11.8555 36.1555 12.1595C36.5168 14.9629 38.8159 16.9895 41.6733 16.9895C42.1003 16.9895 42.5272 16.922 42.9214 16.7869C43.414 16.6517 43.8738 16.4829 44.3008 16.2127V16.8882C44.3008 17.3273 44.1694 17.7664 43.9395 18.1041C43.6111 18.577 42.987 19.0161 41.9032 19.0161C41.9032 19.0161 40.0639 19.0161 39.6041 18.0366H36.5825C36.5825 18.0366 37.0752 21.8196 42.2316 21.8196C42.2316 21.8196 43.2826 21.752 44.4322 21.3129C46.1729 20.6374 47.3224 18.881 47.3224 16.9557V11.2813C47.2896 8.54535 45.4503 6.14721 42.8557 5.60679ZM44.268 11.5853C44.2023 12.227 43.9067 12.835 43.4797 13.2741C42.987 13.747 42.363 14.0172 41.6405 14.0172C40.1625 14.0172 38.9801 12.8012 38.9801 11.2813C38.9801 11.1124 39.0129 10.9435 39.0458 10.7746C39.3085 9.55865 40.3595 8.61291 41.6405 8.61291C43.0199 8.61291 44.1366 9.69376 44.268 11.0786V11.5853Z" fill="#BC181F"/>
<path d="M53.4328 5.47168C50.3783 5.47168 47.915 8.0387 47.915 11.2137C47.915 14.3887 50.3783 16.9557 53.4328 16.9557C56.4873 16.9557 58.9506 14.3887 58.9506 11.2137C58.9506 8.0387 56.4873 5.47168 53.4328 5.47168ZM53.4985 14.0509C52.0205 14.0509 50.8381 12.835 50.8381 11.315C50.8381 9.79509 52.0205 8.57913 53.4985 8.57913C54.9765 8.57913 56.1588 9.79509 56.1588 11.315C56.1588 12.8012 54.9765 14.0509 53.4985 14.0509Z" fill="#BC181F"/>
<path d="M35.1107 5.60645H31.9248V16.8203H35.1107V5.60645Z" fill="#BC181F"/>
<path d="M33.5004 1.38428C32.4822 1.38428 31.6611 2.22869 31.6611 3.27577C31.6611 4.32285 32.4822 5.16726 33.5004 5.16726C34.5185 5.16726 35.3396 4.32285 35.3396 3.27577C35.3068 2.22869 34.4857 1.38428 33.5004 1.38428Z" fill="#BC181F"/>
<path fill-rule="evenodd" clip-rule="evenodd" d="M1.64219 8.14017C2.56182 6.31623 4.30254 4.99894 6.3717 4.76251C6.99574 4.52607 7.42271 3.88431 7.42271 3.175C7.42271 2.22926 6.70014 1.48617 5.78051 1.48617C5.74767 1.48617 5.68198 1.48617 5.64914 1.48617C5.41923 0.641756 4.66382 0 3.77704 0C2.85741 0 2.10201 0.641756 1.8721 1.48617C1.80641 1.48617 1.74072 1.4524 1.64219 1.4524C0.722564 1.4524 0 2.22926 0 3.14123C0 4.08697 0.722564 4.83006 1.64219 4.83006V8.14017Z" fill="#F5831F"/>
</svg>
