<svg width="32" height="32" viewBox="0 0 32 32" fill="none" xmlns="http://www.w3.org/2000/svg">
<path d="M17.6596 24.4011H4.82961C3.76561 24.4011 2.89961 23.5361 2.89961 22.4711V10.2401H27.1296V17.1811C27.1296 17.6781 27.5326 18.0811 28.0296 18.0811C28.5266 18.0811 28.9296 17.6781 28.9296 17.1811V5.82107C28.9296 3.77007 27.2616 2.10107 25.2096 2.10107H4.81961C2.76861 2.10107 1.09961 3.76907 1.09961 5.82107V22.4711C1.09961 24.5281 2.77261 26.2011 4.82961 26.2011H17.6596C18.1566 26.2011 18.5596 25.7981 18.5596 25.3011C18.5596 24.8041 18.1566 24.4011 17.6596 24.4011ZM4.81961 3.90107H25.2096C26.2686 3.90107 27.1296 4.76207 27.1296 5.82107V8.44007H2.89961V5.82107C2.89961 4.76307 3.76061 3.90107 4.81961 3.90107Z" fill="#6AA0FF"/>
<path d="M5.98955 6.96811C6.43358 6.96811 6.79355 6.60814 6.79355 6.16411C6.79355 5.72007 6.43358 5.36011 5.98955 5.36011C5.54551 5.36011 5.18555 5.72007 5.18555 6.16411C5.18555 6.60814 5.54551 6.96811 5.98955 6.96811Z" fill="#6AA0FF"/>
<path d="M8.82158 6.96811C9.26561 6.96811 9.62558 6.60814 9.62558 6.16411C9.62558 5.72007 9.26561 5.36011 8.82158 5.36011C8.37754 5.36011 8.01758 5.72007 8.01758 6.16411C8.01758 6.60814 8.37754 6.96811 8.82158 6.96811Z" fill="#6AA0FF"/>
<path d="M11.6536 6.96811C12.0976 6.96811 12.4576 6.60814 12.4576 6.16411C12.4576 5.72007 12.0976 5.36011 11.6536 5.36011C11.2096 5.36011 10.8496 5.72007 10.8496 6.16411C10.8496 6.60814 11.2096 6.96811 11.6536 6.96811Z" fill="#6AA0FF"/>
<path d="M29.6251 20.3821L21.0031 17.7591C20.3691 17.5671 19.6791 17.7381 19.2091 18.2071C18.7381 18.6781 18.5661 19.3651 18.7601 20.0021L21.3831 28.6251C21.6151 29.3871 22.2801 29.8871 23.0761 29.8981H23.1041C23.8881 29.8981 24.5541 29.4201 24.8061 28.6741L26.0321 25.0311L29.6771 23.8031C30.4321 23.5481 30.9121 22.8681 30.9001 22.0731C30.8881 21.2771 30.3871 20.6131 29.6251 20.3821ZM25.4571 23.3271C24.9281 23.5061 24.5061 23.9281 24.3281 24.4561L23.1051 28.1011L20.4841 19.4831L29.1021 22.1001L25.4571 23.3271Z" fill="#6AA0FF"/>
</svg>
