<svg width="79" height="32" viewBox="0 0 79 32" fill="none" xmlns="http://www.w3.org/2000/svg">
<path d="M13.473 12.4337C16.7811 12.4337 19.9537 13.8859 22.2928 16.4709C24.632 19.0559 25.9461 22.5619 25.9461 26.2176V30.7184C25.9461 30.793 25.9192 30.8646 25.8715 30.9173C25.8238 30.9701 25.759 30.9997 25.6915 30.9997H1.25455C1.18704 30.9997 1.12229 30.9701 1.07456 30.9173C1.02682 30.8646 1 30.793 1 30.7184V26.2176C1 22.5619 2.31412 19.0559 4.65327 16.4709C6.9924 13.8859 10.165 12.4337 13.473 12.4337Z" stroke="white"/>
<path d="M13.4733 20.8731C18.3938 20.8731 22.3826 16.4651 22.3826 11.0275C22.3826 5.58992 18.3938 1.18188 13.4733 1.18188C8.55279 1.18188 4.56396 5.58992 4.56396 11.0275C4.56396 16.4651 8.55279 20.8731 13.4733 20.8731Z" stroke="white"/>
<path d="M39.4374 12.2518C42.7454 12.2518 45.918 13.704 48.2572 16.289C50.5963 18.874 51.9104 22.38 51.9104 26.0357V30.5365C51.9104 30.6111 51.8834 30.6827 51.8361 30.7355C51.7882 30.7882 51.7236 30.8178 51.6559 30.8178H27.2189C27.1514 30.8178 27.0866 30.7882 27.0389 30.7355C26.9912 30.6827 26.9644 30.6111 26.9644 30.5365V26.0357C26.9644 22.38 28.2785 18.874 30.6176 16.289C32.9568 13.704 36.1293 12.2518 39.4374 12.2518Z" stroke="#FFB81D"/>
<path d="M39.4376 20.6912C44.3581 20.6912 48.3469 16.2832 48.3469 10.8456C48.3469 5.40804 44.3581 1 39.4376 1C34.5171 1 30.5283 5.40804 30.5283 10.8456C30.5283 16.2832 34.5171 20.6912 39.4376 20.6912Z" stroke="#FFB81D"/>
<path d="M65.4015 12.2518C68.7097 12.2518 71.8819 13.704 74.2212 16.289C76.5605 18.874 77.8745 22.38 77.8745 26.0357V30.5365C77.8745 30.6111 77.8476 30.6827 77.8002 30.7355C77.7524 30.7882 77.6877 30.8178 77.62 30.8178H53.183C53.1153 30.8178 53.0507 30.7882 53.0028 30.7355C52.9555 30.6827 52.9285 30.6111 52.9285 30.5365V26.0357C52.9285 22.38 54.2425 18.874 56.5818 16.289C58.9211 13.704 62.0933 12.2518 65.4015 12.2518Z" stroke="white"/>
<path d="M65.4015 20.6912C70.322 20.6912 74.3108 16.2832 74.3108 10.8456C74.3108 5.40804 70.322 1 65.4015 1C60.481 1 56.4922 5.40804 56.4922 10.8456C56.4922 16.2832 60.481 20.6912 65.4015 20.6912Z" stroke="white"/>
</svg>
