<svg width="26" height="26" viewBox="0 0 26 26" fill="none" xmlns="http://www.w3.org/2000/svg">
<path d="M21.2204 5.88749C20.2169 5.88749 19.4025 5.07699 19.4025 4.07839V0H7.77051C7.0876 0 6.53596 0.548978 6.53596 1.2236V12.0414H5.07531V6.2898C5.07531 5.7565 4.75482 5.27537 4.26088 5.07164L3.60417 4.79967C3.60417 4.76836 3.60941 4.74207 3.60941 4.71075C3.60941 3.84804 2.90532 3.14215 2.03321 3.14215C1.16632 3.14215 0.457 3.84809 0.457 4.71075C0.457 5.57866 1.16637 6.27936 2.03321 6.27936C2.49549 6.27936 2.91059 6.08065 3.19959 5.7617L3.85107 6.03348C3.95616 6.07523 4.02453 6.17459 4.02453 6.28979V12.0413L3.05784 12.0412C2.83719 11.4294 2.25917 10.9954 1.57621 10.9954C0.709316 10.9954 0 11.6959 0 12.564C0 13.4267 0.709365 14.1326 1.57621 14.1326C2.25912 14.1326 2.83716 13.6934 3.05784 13.0869H4.02453V18.833C4.02453 18.948 3.95616 19.0473 3.85107 19.0891L3.19959 19.3611C2.91057 19.0421 2.49569 18.8434 2.03321 18.8434C1.16632 18.8434 0.457 19.5441 0.457 20.412C0.457 21.2747 1.16637 21.9806 2.03321 21.9806C2.90532 21.9806 3.60941 21.2747 3.60941 20.412C3.60941 20.3807 3.60417 20.3544 3.60417 20.3231L4.26088 20.0513C4.75482 19.8474 5.07531 19.3662 5.07531 18.8332V13.087H6.53596V23.8682C6.53596 24.5426 7.09282 25.0968 7.77051 25.0968H23.8578C24.5409 25.0968 25.0978 24.5426 25.0978 23.8682V5.88758L21.2204 5.88749ZM14.6006 5.02983C14.7476 4.78415 15.0681 4.70045 15.3204 4.84678L16.0665 5.28073L17.4271 3.13727C17.5846 2.89159 17.9053 2.81833 18.1522 2.97509C18.399 3.12664 18.4727 3.45099 18.3151 3.69667L16.6812 6.26387C16.5814 6.42083 16.4132 6.50955 16.2399 6.50955C16.1506 6.50955 16.056 6.48867 15.9721 6.43628L14.79 5.74623C14.5375 5.5999 14.4534 5.28096 14.6006 5.02984L14.6006 5.02983ZM9.98244 2.33719H13.2503C13.5393 2.33719 13.7757 2.56721 13.7757 2.86004C13.7757 3.14767 13.5393 3.38289 13.2503 3.38289H9.98244C9.68817 3.38289 9.45706 3.14765 9.45706 2.86004C9.45706 2.56719 9.68819 2.33719 9.98244 2.33719ZM9.98244 4.7737H13.2503C13.5393 4.7737 13.7757 5.00894 13.7757 5.29655C13.7757 5.58416 13.5393 5.8194 13.2503 5.8194H9.98244C9.68817 5.8194 9.45706 5.58416 9.45706 5.29655C9.45706 5.00894 9.68819 4.7737 9.98244 4.7737ZM9.98244 7.2102H13.2503C13.5393 7.2102 13.7757 7.44545 13.7757 7.73305C13.7757 8.02066 13.5393 8.25591 13.2503 8.25591H9.98244C9.68817 8.25591 9.45706 8.02066 9.45706 7.73305C9.45706 7.44545 9.68819 7.2102 9.98244 7.2102ZM19.345 21.9234L11.3802 21.9599C11.2541 21.9599 11.1333 21.9286 11.023 21.871L9.74627 21.1861C9.63594 21.1285 9.63594 20.9822 9.74103 20.9248L11.0125 20.2293C11.1228 20.1665 11.2489 20.1351 11.3697 20.1351L19.3449 20.0986L19.345 21.9234ZM21.8722 21.641C21.7092 21.8083 21.4781 21.9129 21.2312 21.9129L20.3958 21.9181V20.0986L21.2154 20.0934C21.7251 20.0882 22.1349 20.496 22.1349 21.0033C22.1347 21.2489 22.0349 21.479 21.8721 21.641L21.8722 21.641ZM21.6515 18.0124H9.98276C9.6885 18.0124 9.45738 17.7771 9.45738 17.4895C9.45738 17.1967 9.68852 16.9667 9.98276 16.9667H21.6515C21.9406 16.9667 22.1769 17.1967 22.1769 17.4895C22.1767 17.7771 21.9403 18.0124 21.6515 18.0124ZM21.6515 15.5706H9.98276C9.6885 15.5706 9.45738 15.3354 9.45738 15.0478C9.45738 14.7602 9.68852 14.5249 9.98276 14.5249H21.6515C21.9406 14.5249 22.1769 14.7602 22.1769 15.0478C22.1767 15.3354 21.9403 15.5706 21.6515 15.5706ZM21.6515 13.1341H9.98276C9.6885 13.1341 9.45738 12.8989 9.45738 12.6113C9.45738 12.3237 9.68852 12.0884 9.98276 12.0884H21.6515C21.9406 12.0884 22.1769 12.3237 22.1769 12.6113C22.1767 12.8989 21.9403 13.1341 21.6515 13.1341ZM21.6515 10.6978H9.98276C9.6885 10.6978 9.45738 10.4626 9.45738 10.175C9.45738 9.88211 9.68852 9.6521 9.98276 9.6521H21.6515C21.9406 9.6521 22.1769 9.88213 22.1769 10.175C22.1767 10.4624 21.9403 10.6978 21.6515 10.6978Z" fill="#212121"/>
<path d="M21.2168 4.83979H24.7907L20.4529 0.312256V4.07911C20.4527 4.49879 20.7955 4.83979 21.2168 4.83979Z" fill="#212121"/>
</svg>
