<svg width="55" height="44" viewBox="0 0 55 44" fill="none" xmlns="http://www.w3.org/2000/svg">
<path d="M12.3729 25.9326C15.4579 25.9326 18.4161 27.2869 20.5976 29.6975C22.7792 32.1081 24.0045 35.3776 24.0045 38.7867V42.9839C24.0045 43.0535 23.9794 43.1202 23.9352 43.1694C23.8906 43.2186 23.8303 43.2462 23.7672 43.2462H0.978592C0.915448 43.2462 0.855156 43.2186 0.810528 43.1694C0.766375 43.1202 0.741211 43.0535 0.741211 42.9839V38.7867C0.741211 35.3776 1.96657 32.1081 4.1481 29.6975C6.32963 27.2869 9.28787 25.9326 12.3729 25.9326Z" stroke="#212121" stroke-width="0.582838"/>
<path d="M12.3729 33.8029C16.9615 33.8029 20.6812 29.6922 20.6812 24.6214C20.6812 19.5506 16.9615 15.4399 12.3729 15.4399C7.78433 15.4399 4.06458 19.5506 4.06458 24.6214C4.06458 29.6922 7.78433 33.8029 12.3729 33.8029Z" stroke="#212121" stroke-width="0.582838"/>
<path d="M28.8076 19.9313V19.6399H28.5162H26.9833C25.4809 19.6399 24.346 18.6248 24.346 17.488V3.3476C24.346 2.21018 25.4699 1.19572 26.9834 1.19572H52.0162C53.5187 1.19572 54.6535 2.21086 54.6535 3.34759L54.6531 17.4972C54.6531 18.6336 53.5186 19.6491 52.0157 19.6491H35.2822H35.1766L35.0955 19.7167L30.2705 23.742C30.1145 23.8721 29.8883 23.949 29.6513 23.949C29.5404 23.949 29.4254 23.9275 29.3151 23.8893L29.3152 23.8893L29.3109 23.8879C28.9767 23.778 28.8076 23.5245 28.8076 23.2935V19.9313Z" stroke="#FFB81D" stroke-width="0.582838"/>
<path d="M33.9059 13.7832H33.0666V7.86157H30.987V7.12486H35.9761V7.86157H33.9059V13.7832ZM38.8284 8.69153C38.9217 8.69153 39.0211 8.69775 39.1268 8.71018C39.2387 8.7164 39.3351 8.72883 39.4159 8.74749L39.3133 9.50284C39.2325 9.48419 39.1424 9.46865 39.0429 9.45622C38.9496 9.44378 38.8595 9.43757 38.7724 9.43757C38.5797 9.43757 38.3963 9.47798 38.2222 9.5588C38.0482 9.63962 37.8927 9.75463 37.756 9.90384C37.6192 10.0468 37.5104 10.2209 37.4296 10.4261C37.355 10.6312 37.3177 10.8612 37.3177 11.1161V13.7832H36.497V8.78479H37.1685L37.2617 9.69868H37.299C37.4047 9.51217 37.5322 9.34431 37.6814 9.1951C37.8306 9.03968 38.0015 8.91845 38.1943 8.83141C38.387 8.73816 38.5984 8.69153 38.8284 8.69153ZM41.2631 8.78479V13.7832H40.4425V8.78479H41.2631ZM40.8621 6.91038C40.9865 6.91038 41.0953 6.9539 41.1885 7.04094C41.288 7.12176 41.3377 7.25231 41.3377 7.4326C41.3377 7.60668 41.288 7.73723 41.1885 7.82427C41.0953 7.91131 40.9865 7.95483 40.8621 7.95483C40.7254 7.95483 40.6104 7.91131 40.5171 7.82427C40.4238 7.73723 40.3772 7.60668 40.3772 7.4326C40.3772 7.25231 40.4238 7.12176 40.5171 7.04094C40.6104 6.9539 40.7254 6.91038 40.8621 6.91038ZM44.833 8.70086C45.4423 8.70086 45.893 8.83452 46.1852 9.10185C46.4774 9.36918 46.6235 9.79504 46.6235 10.3794V13.7832H46.0267L45.8681 13.0745H45.8308C45.6878 13.2548 45.5386 13.4071 45.3832 13.5314C45.234 13.6495 45.0599 13.7366 44.861 13.7925C44.6683 13.8485 44.432 13.8765 44.1523 13.8765C43.8538 13.8765 43.5834 13.8236 43.3409 13.7179C43.1047 13.6122 42.9182 13.4506 42.7814 13.233C42.6446 13.0092 42.5763 12.7294 42.5763 12.3937C42.5763 11.8964 42.7721 11.514 43.1638 11.2467C43.5554 10.9731 44.1585 10.8239 44.9729 10.7991L45.8215 10.7711V10.4727C45.8215 10.0562 45.7314 9.76706 45.5511 9.60542C45.3708 9.44378 45.1159 9.36296 44.7864 9.36296C44.5253 9.36296 44.2766 9.40337 44.0404 9.48419C43.8041 9.5588 43.5834 9.64583 43.3782 9.7453L43.1265 9.12983C43.3441 9.01171 43.6021 8.91223 43.9005 8.83141C44.1989 8.74438 44.5097 8.70086 44.833 8.70086ZM45.0755 11.3679C44.4538 11.3928 44.0217 11.4923 43.7792 11.6663C43.543 11.8404 43.4249 12.086 43.4249 12.403C43.4249 12.6828 43.5088 12.888 43.6767 13.0185C43.8507 13.1491 44.0714 13.2144 44.3388 13.2144C44.7615 13.2144 45.1128 13.0993 45.3925 12.8693C45.6723 12.6331 45.8122 12.2725 45.8122 11.7876V11.3399L45.0755 11.3679ZM49.0812 13.7832H48.2605V6.6959H49.0812V13.7832Z" fill="#212121"/>
</svg>
