<svg width="25" height="26" viewBox="0 0 25 26" fill="none" xmlns="http://www.w3.org/2000/svg">
<path fill-rule="evenodd" clip-rule="evenodd" d="M12.0996 0C12.3598 0 12.62 0 12.8802 0C15.0763 0.141903 17.0076 0.588094 18.1494 1.80659C18.3531 2.02395 18.5022 2.24344 18.6129 2.52678C18.729 2.82393 18.7349 3.13916 18.7349 3.57656C18.7349 5.11635 18.7839 6.75162 18.6617 8.22731C18.5405 9.69051 18.2238 10.9579 17.2834 11.5597C16.3169 12.1783 14.7483 12.1823 13.1852 12.1823C11.6193 12.1823 9.93584 12.1092 8.66 12.3654C7.30156 12.6381 6.53799 13.3404 6.11079 14.526C5.70124 15.6625 5.62608 17.1524 5.6229 18.7495C5.13488 18.7495 4.66148 18.7495 4.18363 18.7495C3.6925 18.7495 3.19578 18.8002 2.78096 18.7129C2.05091 18.5592 1.55386 17.9899 1.19532 17.4311C0.46403 16.2915 0.0872464 14.6854 0 12.8903C0 12.6299 0 12.3694 0 12.109C0.0589124 10.6508 0.326177 9.39412 0.805014 8.32496C1.03277 7.81641 1.31541 7.3259 1.70761 6.9334C2.11682 6.52386 2.5392 6.24982 3.31763 6.24982C6.34983 6.24982 9.40303 6.24982 12.4899 6.24982C12.4899 6.04231 12.4899 5.8348 12.4899 5.62728C10.4083 5.62728 8.32661 5.62728 6.24496 5.62728C6.24496 5.14285 6.24496 4.67027 6.24496 4.1991C6.24496 3.70462 6.19606 3.21368 6.28155 2.79533C6.4345 2.04685 6.9952 1.56982 7.56225 1.20846C8.7054 0.479979 10.2945 0.0741434 12.0996 0ZM7.90377 3.00284C7.84482 3.71121 8.33998 4.28455 9.05031 4.28455C9.69322 4.28455 10.2751 3.77329 10.209 3.01505C10.1551 2.39615 9.63628 1.92603 8.97713 1.97748C8.39271 2.0231 7.95129 2.43169 7.90377 3.00284Z" fill="#212121"/>
<path fill-rule="evenodd" clip-rule="evenodd" d="M24.9934 12.1276C24.9934 12.388 24.9934 12.6485 24.9934 12.9089C24.9368 14.368 24.6629 15.6219 24.1883 16.6933C23.9632 17.2016 23.6774 17.693 23.2857 18.085C22.8763 18.4947 22.4539 18.7686 21.6756 18.7686C18.6434 18.7686 15.5901 18.7686 12.5031 18.7686C12.5031 18.9761 12.5031 19.1837 12.5031 19.3912C14.5848 19.3912 16.6665 19.3912 18.7482 19.3912C18.7482 19.8797 18.7482 20.3535 18.7482 20.8317C18.7482 21.3233 18.7989 21.8204 18.7117 22.2356C18.5577 22.968 17.989 23.4615 17.4309 23.8226C16.2945 24.5582 14.6857 24.9292 12.8934 25.019C12.6332 25.019 12.373 25.019 12.1128 25.019C12.1101 25.0095 12.1026 25.0048 12.0884 25.0068C10.5529 24.9534 9.31833 24.679 8.2218 24.1644C7.43988 23.7975 6.68191 23.2948 6.36778 22.492C6.25333 22.1995 6.25801 21.8556 6.25801 21.4177C6.25801 19.8787 6.21047 18.2575 6.33119 16.7787C6.45009 15.3223 6.7502 14.0208 7.68511 13.4216C8.65562 12.7996 10.2234 12.8356 11.8079 12.8356C13.3688 12.8356 15.0411 12.8723 16.2965 12.6159C17.6387 12.3418 18.4418 11.6484 18.8702 10.4795C19.2848 9.34849 19.3631 7.84933 19.3825 6.26786C19.8802 6.26786 20.3376 6.26786 20.8096 6.26786C21.3051 6.26786 21.7939 6.22133 22.2001 6.30448C22.9442 6.45677 23.4294 7.02609 23.7858 7.5863C24.5304 8.75667 24.9116 10.3202 24.9934 12.1276ZM15.1134 21.0759C14.9409 21.2485 14.8075 21.4873 14.7841 21.7961C14.7314 22.4907 15.2388 23.0687 15.9672 23.0535C16.547 23.0415 17.0369 22.6178 17.0894 22.0159C17.1564 21.247 16.5691 20.6907 15.8574 20.7463C15.5489 20.7703 15.2794 20.9097 15.1134 21.0759Z" fill="#212121"/>
</svg>
