<svg width="101" height="40" viewBox="0 0 101 40" fill="none" xmlns="http://www.w3.org/2000/svg">
<path d="M20.8099 23.3599H17.9039V22.7094L18.7956 22.4471V16.7924L17.9039 16.5197V15.8692H20.8099V16.5197L19.9287 16.7924V22.4471L20.8099 22.7094V23.3599ZM31.9778 23.3599H30.6035L26.8162 17.3065H26.7742C26.7812 17.4464 26.7882 17.5968 26.7952 17.7576C26.8092 17.9185 26.8197 18.0898 26.8267 18.2717C26.8337 18.4465 26.8407 18.6284 26.8477 18.8172C26.8547 18.9991 26.8582 19.1844 26.8582 19.3733V23.3599H25.83V15.8692H27.1939L30.9707 21.8911H31.0022C30.9952 21.7862 30.9882 21.6568 30.9812 21.5029C30.9742 21.3421 30.9672 21.1707 30.9602 20.9889C30.9602 20.807 30.9567 20.6217 30.9497 20.4329C30.9427 20.244 30.9357 20.0657 30.9287 19.8978V15.8692H31.9778V23.3599ZM44.2038 19.6041C44.2038 20.1986 44.1268 20.7406 43.973 21.2302C43.8191 21.7128 43.5883 22.1254 43.2806 22.4681C42.9728 22.8108 42.5882 23.0661 42.1265 23.234L43.9205 25.1433H42.3678L40.9411 23.4543C40.9061 23.4543 40.8676 23.4543 40.8257 23.4543C40.7907 23.4613 40.7557 23.4648 40.7207 23.4648C40.1262 23.4648 39.6087 23.3739 39.1681 23.192C38.7344 23.0032 38.3707 22.7409 38.077 22.4052C37.7902 22.0625 37.5769 21.6533 37.437 21.1777C37.2972 20.7021 37.2272 20.1741 37.2272 19.5936C37.2272 18.8242 37.3531 18.1528 37.6049 17.5793C37.8567 17.0058 38.2414 16.5581 38.7589 16.2364C39.2835 15.9147 39.9409 15.7538 40.7312 15.7538C41.5006 15.7538 42.1405 15.9147 42.6511 16.2364C43.1687 16.5512 43.5568 16.9988 43.8156 17.5793C44.0744 18.1528 44.2038 18.8277 44.2038 19.6041ZM38.4232 19.6041C38.4232 20.2055 38.5036 20.7231 38.6645 21.1567C38.8254 21.5834 39.0771 21.9156 39.4198 22.1534C39.7626 22.3842 40.1962 22.4996 40.7207 22.4996C41.2523 22.4996 41.6859 22.3842 42.0216 22.1534C42.3573 21.9156 42.6056 21.5834 42.7665 21.1567C42.9274 20.7231 43.0078 20.2055 43.0078 19.6041C43.0078 18.7018 42.826 17.9989 42.4623 17.4954C42.1056 16.9848 41.5286 16.7295 40.7312 16.7295C40.1997 16.7295 39.7626 16.8449 39.4198 17.0757C39.0771 17.3065 38.8254 17.6352 38.6645 18.0619C38.5036 18.4885 38.4232 19.0026 38.4232 19.6041ZM55.263 20.7161C55.263 21.2337 55.1546 21.7023 54.9378 22.1219C54.728 22.5346 54.4027 22.8633 53.9621 23.1081C53.5215 23.3459 52.9655 23.4648 52.294 23.4648C51.3428 23.4648 50.619 23.213 50.1224 22.7094C49.6328 22.1989 49.388 21.5274 49.388 20.6951V15.8692H50.521V20.6427C50.521 21.2582 50.6714 21.7233 50.9722 22.038C51.2729 22.3457 51.731 22.4996 52.3465 22.4996C52.7661 22.4996 53.1088 22.4227 53.3746 22.2688C53.6404 22.1149 53.8327 21.9016 53.9516 21.6288C54.0775 21.3491 54.1405 21.0169 54.1405 20.6322V15.8692H55.263V20.7161ZM63.1238 23.3599H60.2178V22.7094L61.1095 22.4471V16.7924L60.2178 16.5197V15.8692H63.1238V16.5197L62.2425 16.7924V22.4471L63.1238 22.7094V23.3599ZM70.2421 15.8692C70.8856 15.8692 71.4136 15.9497 71.8263 16.1105C72.2389 16.2714 72.5467 16.5127 72.7495 16.8344C72.9523 17.1491 73.0538 17.5478 73.0538 18.0304C73.0538 18.4151 72.9803 18.7403 72.8334 19.0061C72.6936 19.2648 72.5117 19.4782 72.2879 19.646C72.0641 19.8069 71.8298 19.9363 71.585 20.0342L73.6832 23.3599H72.3823L70.5779 20.3279H69.277V23.3599H68.1439V15.8692H70.2421ZM70.1687 16.8344H69.277V19.3837H70.2212C70.6058 19.3837 70.9206 19.3348 71.1654 19.2369C71.4171 19.139 71.599 18.9921 71.7109 18.7962C71.8298 18.6004 71.8892 18.3591 71.8892 18.0724C71.8892 17.7716 71.8263 17.5338 71.7004 17.359C71.5815 17.1771 71.3927 17.0442 71.1339 16.9603C70.8821 16.8764 70.5604 16.8344 70.1687 16.8344ZM80.469 19.3733L82.3049 15.8692H83.5219L81.025 20.4538V23.3599H79.9025V20.4958L77.4056 15.8692H78.633L80.469 19.3733Z" fill="#928F8F"/>
<rect x="1.23795" y="0.326087" width="98.5512" height="39.0501" rx="3.20561" stroke="#BDB7B7" stroke-width="0.582838" stroke-dasharray="3.5 3.5"/>
</svg>
