<svg width="27" height="26" viewBox="0 0 27 26" fill="none" xmlns="http://www.w3.org/2000/svg">
<path fill-rule="evenodd" clip-rule="evenodd" d="M20.4521 25.0188C23.8516 25.0188 26.6075 22.3518 26.6075 19.0619C26.6075 15.772 23.8516 13.105 20.4521 13.105C17.0525 13.105 14.2966 15.772 14.2966 19.0619C14.2966 22.3518 17.0525 25.0188 20.4521 25.0188ZM20.1471 15.1712C20.3316 15.0641 20.5718 15.0636 20.7561 15.1712L21.9088 15.8314L21.91 15.8321C22.4527 16.1429 22.9954 16.4537 23.538 16.7648C23.7124 16.8644 23.829 17.0613 23.8272 17.265V20.4621C23.8285 20.6743 23.7004 20.8758 23.5164 20.9732C23.0312 21.2506 22.5461 21.5283 22.061 21.8059L22.0603 21.8063L22.0596 21.8067L22.0581 21.8075C21.6202 22.0581 21.1824 22.3087 20.7444 22.5592C20.5562 22.6684 20.3111 22.66 20.1287 22.5418C19.9782 22.4534 19.8276 22.3651 19.677 22.2769L19.676 22.2763C19.5496 22.2023 19.4232 22.1283 19.2969 22.0541C19.2852 22.047 19.273 22.0401 19.2609 22.0333L19.2608 22.0332C19.2147 22.0072 19.1681 21.981 19.1365 21.9369C19.1623 21.9016 19.2031 21.8889 19.2431 21.8764C19.2579 21.8717 19.2726 21.8672 19.2864 21.8615C19.3951 21.8264 19.4954 21.7715 19.5952 21.7168L19.6145 21.7062C19.6414 21.6876 19.6742 21.6947 19.7 21.7114C19.8012 21.7703 19.902 21.8298 20.0029 21.8894L20.0029 21.8895L20.0029 21.8895L20.003 21.8895C20.1381 21.9694 20.2733 22.0493 20.4095 22.1274C20.4536 22.1533 20.4983 22.1267 20.5378 22.1032L20.5549 22.0932C20.9872 21.8453 21.4199 21.5979 21.8525 21.3505L21.8528 21.3504L21.855 21.3491L21.8572 21.3479L21.8591 21.3467C22.3317 21.0765 22.8043 20.8062 23.2766 20.5354C23.3102 20.519 23.3287 20.4828 23.326 20.4455C23.3264 19.7745 23.3264 19.1035 23.3263 18.4324L23.3263 17.2814C23.3302 17.2391 23.306 17.2001 23.2683 17.1828C22.754 16.8891 22.2399 16.5951 21.7258 16.3012L20.5059 15.6037C20.49 15.5926 20.4711 15.5867 20.4517 15.5866C20.4324 15.5866 20.4134 15.5925 20.3974 15.6036C19.989 15.8371 19.5806 16.0707 19.1723 16.3044L19.1714 16.3049L19.1712 16.305L19.1711 16.3051C18.6592 16.5979 18.1474 16.8908 17.6354 17.1833C17.5978 17.2006 17.5726 17.2389 17.577 17.2814L17.5771 19.3909L17.577 20.4457C17.5754 20.4639 17.5794 20.4822 17.5883 20.498C17.5973 20.5139 17.6108 20.5266 17.6271 20.5344C17.7897 20.6279 17.9524 20.721 18.1151 20.8141L18.3648 20.9569C18.5033 21.0326 18.6734 21.0775 18.826 21.0196C18.9607 20.9706 19.0551 20.8312 19.0525 20.6861C19.0531 20.1868 19.053 19.6875 19.0529 19.1882V19.1882V19.1882V19.1882C19.0528 18.639 19.0526 18.0898 19.0535 17.5407C19.0501 17.4942 19.0936 17.4557 19.1383 17.4601C19.2563 17.4593 19.3746 17.4585 19.4926 17.4604C19.5419 17.4593 19.5758 17.5094 19.5697 17.5563C19.5696 17.945 19.5697 18.3337 19.5698 18.7224C19.57 19.3888 19.5702 20.0553 19.5689 20.7217C19.5693 21.0029 19.4553 21.3088 19.1989 21.4464C18.8829 21.6124 18.4924 21.5772 18.1803 21.4181C18.0121 21.3329 17.8486 21.2382 17.6851 21.1434L17.6851 21.1434L17.6851 21.1434C17.586 21.086 17.487 21.0286 17.3868 20.9733C17.2024 20.8765 17.0749 20.6742 17.0762 20.4621V17.265C17.0742 17.057 17.1955 16.8566 17.3753 16.7585C18.0706 16.3605 18.7659 15.9623 19.4611 15.5641L19.4617 15.5637L19.465 15.5618L20.1471 15.1712ZM20.9532 17.3858C21.3562 17.3595 21.7877 17.3702 22.1503 17.5715C22.4311 17.7258 22.5868 18.0497 22.5917 18.3661C22.5839 18.4087 22.5399 18.4323 22.4997 18.4294C22.4628 18.4293 22.4259 18.4294 22.3889 18.4296C22.3089 18.4299 22.2289 18.4302 22.1489 18.4285C22.0993 18.4305 22.0705 18.3841 22.0643 18.3396C22.0307 18.1883 21.9493 18.0383 21.8088 17.9653C21.5988 17.8587 21.3561 17.8611 21.1264 17.8634L21.1079 17.8636C20.9362 17.8728 20.7516 17.8879 20.6062 17.9903C20.4945 18.0679 20.4606 18.2244 20.5005 18.3505C20.5365 18.4372 20.6324 18.4676 20.7145 18.4937L20.7254 18.4972C20.9377 18.5535 21.1554 18.5827 21.3731 18.612C21.6536 18.6496 21.934 18.6873 22.2022 18.7827C22.3994 18.8519 22.5924 18.9862 22.6599 19.1957C22.7482 19.4764 22.7095 19.8119 22.5125 20.0373C22.3529 20.2227 22.1203 20.3237 21.8883 20.3785C21.5797 20.4483 21.2594 20.45 20.946 20.4191C20.6513 20.385 20.3447 20.3065 20.1172 20.1028C19.9226 19.9315 19.8276 19.6646 19.837 19.4069C19.8393 19.3634 19.882 19.3331 19.9231 19.3367C20.0409 19.3357 20.1586 19.3354 20.2764 19.3368C20.3234 19.3334 20.3583 19.3746 20.3607 19.4196C20.3824 19.5638 20.4358 19.7152 20.5598 19.8007C20.7791 19.9442 21.0494 19.9472 21.3039 19.9501L21.3735 19.951L21.409 19.9494C21.6267 19.94 21.8649 19.9298 22.0406 19.7855C22.1383 19.6987 22.1673 19.5535 22.1409 19.4285C22.1123 19.323 22.0035 19.2739 21.91 19.2418C21.6813 19.1684 21.4433 19.1427 21.2054 19.117H21.2054H21.2054C20.9445 19.0889 20.6837 19.0608 20.4354 18.9698C20.2426 18.9007 20.0562 18.7701 19.9821 18.5692C19.8788 18.285 19.9261 17.9334 20.1437 17.7156C20.3558 17.499 20.6621 17.4156 20.9532 17.3858Z" fill="#C4C4C4"/>
<path fill-rule="evenodd" clip-rule="evenodd" d="M6.35398 11.9137C9.86319 11.9137 12.708 9.24674 12.708 5.95686C12.708 2.66698 9.86319 0 6.35398 0C2.84478 0 0 2.66698 0 5.95686C0 9.24674 2.84478 11.9137 6.35398 11.9137ZM6.54527 2.00259L6.35974 1.5886C6.33714 1.62035 6.39385 7.81466 6.39906 7.82808V7.89105C6.39167 8.03043 6.40666 8.16541 6.42948 8.30039C6.44381 8.41443 6.47593 8.52428 6.5242 8.62431C6.5507 8.67825 6.58112 8.73684 6.64542 8.73684C6.76685 8.63257 6.88092 8.51674 6.98651 8.39047C7.63566 7.59424 7.95763 6.63619 7.94242 5.52044C7.93873 5.14723 7.88941 4.77816 7.7986 4.41837C7.64718 3.82939 7.43514 3.28481 7.12077 2.79443C6.98691 2.58805 6.84145 2.39266 6.6854 2.20958C6.63217 2.14661 6.58698 2.07899 6.54527 2.00259ZM6.30165 1.59737C6.29338 1.58194 6.28512 1.59 6.27685 1.59805L6.27302 1.6017C6.27765 1.6908 6.24438 1.77022 6.1923 1.84608C6.14143 1.913 6.07595 1.96607 6.00863 2.02061L5.98313 2.04133C5.56043 2.38295 5.22772 2.7956 4.96128 3.25712C4.60676 3.87826 4.42405 4.54394 4.37223 5.24475C4.34851 5.49753 4.45786 6.38952 4.54322 6.64689C4.77611 7.33013 5.19445 7.90264 5.73632 8.39955C5.83055 8.48426 5.92942 8.56463 6.0314 8.6422C6.0273 8.6674 6.02301 8.69256 6.01852 8.71768C6.01746 8.725 6.01643 8.73233 6.0154 8.73964C6.0054 8.81064 5.99552 8.88081 5.95719 8.94399C5.95719 8.95273 5.95719 8.96148 5.96091 8.97446C6.02969 9.20527 6.04853 9.44033 6.06014 9.67988V9.76731C6.06014 9.82121 6.05915 9.84143 6.06864 9.85319C6.07754 9.86421 6.09565 9.8678 6.13242 9.88472C6.14159 9.8886 6.15106 9.89172 6.16067 9.89489C6.1832 9.90231 6.20642 9.90997 6.22793 9.92818C6.25093 9.92818 6.25465 9.90645 6.25465 9.88896L6.24326 9.74533V9.34466C6.24019 9.28696 6.2474 9.22961 6.25432 9.17455C6.25579 9.16287 6.25725 9.15129 6.25859 9.13983L6.25881 9.13958C6.26648 9.03966 6.30853 8.95673 6.35431 8.87405C6.30831 8.85231 6.27414 8.8091 6.24742 8.76089C6.2348 8.73589 6.22337 8.71015 6.21317 8.68378C6.21419 8.68069 6.21521 8.67766 6.21629 8.67473C6.23506 8.61808 6.24938 8.56023 6.25911 8.50163L6.35456 7.8362L6.30165 1.59737Z" fill="#C4C4C4"/>
<path fill-rule="evenodd" clip-rule="evenodd" d="M20.4521 11.9137C23.8516 11.9137 26.6075 9.24674 26.6075 5.95686C26.6075 2.66698 23.8516 0 20.4521 0C17.0525 0 14.2966 2.66698 14.2966 5.95686C14.2966 9.24674 17.0525 11.9137 20.4521 11.9137ZM21.7768 6.92778V4.66965H21.4221L21.3323 5.57117H19.6954V3.4604H22.0482L22.6274 4.67398L22.8966 4.64364L22.6658 2.77992H22.5291L22.076 3.00964H19.6954H19.2509H18.2679V3.22635L18.9731 3.4474V8.43176L18.2679 8.65281V8.86952H19.2509H19.6954H22.1358L22.5761 9.13391H22.7214L23.0334 7.22251L22.794 7.17917L22.1238 8.41876H19.6954V6.02193H21.3323L21.4221 6.92778H21.7768Z" fill="#C4C4C4"/>
<path fill-rule="evenodd" clip-rule="evenodd" d="M12.708 19.0619C12.708 22.3518 9.86319 25.0188 6.35398 25.0188C2.84478 25.0188 0 22.3518 0 19.0619C0 15.772 2.84478 13.105 6.35398 13.105C9.86319 13.105 12.708 15.772 12.708 19.0619ZM6.26048 19.6932C6.60391 19.6932 6.88232 19.4075 6.88232 19.0551C6.88232 18.7027 6.60391 18.417 6.26048 18.417C5.91705 18.417 5.63865 18.7027 5.63865 19.0551C5.63865 19.4075 5.91705 19.6932 6.26048 19.6932ZM4.05327 20.2102C4.11433 20.2317 4.1776 20.2521 4.24296 20.2714C4.22212 20.3578 4.20396 20.4426 4.18858 20.5257C4.03869 21.3328 4.16257 21.9404 4.51808 22.1514C4.61222 22.2073 4.7237 22.2353 4.85005 22.2353C4.97145 22.2353 5.10771 22.2086 5.25264 22.1552C5.53011 22.0548 5.83359 21.8616 6.12841 21.5972C6.17646 21.5541 6.22468 21.5085 6.27303 21.4606C6.3358 21.5225 6.39861 21.5813 6.46129 21.6367C6.90723 22.0307 7.33458 22.2392 7.67151 22.2392C7.79415 22.2392 7.90439 22.2112 7.9973 22.1553C8.1831 22.0447 8.31193 21.8197 8.36891 21.5032C8.42218 21.2058 8.40979 20.8397 8.33423 20.4456C8.32225 20.3832 8.30841 20.3194 8.29273 20.2544C8.33689 20.241 8.38007 20.2271 8.42222 20.2128C9.23482 19.9369 9.73897 19.4933 9.73897 19.0548C9.73897 18.84 9.6151 18.6201 9.38099 18.4192C9.16545 18.2362 8.86196 18.0709 8.5015 17.9438C8.42964 17.9183 8.35533 17.8941 8.27878 17.8714C8.29155 17.818 8.30313 17.7655 8.3135 17.714C8.48692 16.8547 8.36429 16.1835 7.99392 15.9649C7.81306 15.8581 7.56532 15.8581 7.27918 15.9662C7.01657 16.0653 6.72547 16.2534 6.43809 16.5102C6.38014 16.5619 6.3221 16.6165 6.26413 16.6738C6.22526 16.6356 6.18649 16.5988 6.14789 16.5637C5.50871 15.9802 4.88069 15.754 4.51155 15.9739C4.32946 16.0819 4.20682 16.3018 4.1548 16.6107C4.10773 16.8941 4.12135 17.2462 4.19444 17.6301C4.20918 17.7076 4.22632 17.7865 4.24576 17.8668C4.15658 17.8928 4.07042 17.9206 3.98761 17.9502C3.23076 18.2197 2.77987 18.6328 2.77987 19.0548C2.77987 19.2747 2.90621 19.5022 3.14405 19.7107C3.36826 19.9077 3.68289 20.0806 4.05327 20.2102ZM4.32543 18.1605C4.2425 18.1846 4.16277 18.2103 4.08671 18.2375C3.39055 18.4866 3.0784 18.8272 3.0784 19.0548C3.0784 19.2912 3.41409 19.6636 4.14989 19.9217C4.20541 19.9411 4.26296 19.9597 4.32243 19.9773C4.41022 19.6828 4.52572 19.375 4.66509 19.064C4.52721 18.7568 4.41273 18.4523 4.32543 18.1605ZM4.83597 18.7049C4.74945 18.4943 4.6752 18.2867 4.61457 18.0858C4.81366 18.0403 5.02607 18.003 5.24671 17.9747C5.17358 18.0917 5.10234 18.2118 5.03338 18.3343C4.96421 18.4573 4.89832 18.581 4.83597 18.7049ZM4.99365 19.0631C5.08366 19.2549 5.18301 19.4476 5.2907 19.6385C5.39793 19.8287 5.51206 20.014 5.63063 20.1914C5.83236 20.2047 6.04284 20.2115 6.26066 20.2115C6.47855 20.2115 6.69238 20.2037 6.89927 20.1885C7.01164 20.0154 7.12288 19.8312 7.2321 19.6371C7.34085 19.4438 7.44091 19.2502 7.53124 19.059C7.44089 18.872 7.34048 18.6804 7.23053 18.4856C7.12241 18.2939 7.00984 18.1097 6.89455 17.9352C6.68768 17.9191 6.47547 17.9108 6.26066 17.9108C6.04792 17.9108 5.83579 17.9192 5.62809 17.9354C5.5108 18.1117 5.39745 18.2966 5.2898 18.4881L5.28926 18.4877C5.18287 18.6771 5.08385 18.8701 4.99365 19.0631ZM4.83597 19.4223C4.89823 19.5456 4.964 19.6687 5.03305 19.791C5.10355 19.916 5.17634 20.0384 5.25102 20.1575C5.02273 20.1314 4.80844 20.096 4.61063 20.0517C4.67217 19.8482 4.74797 19.6367 4.83597 19.4223ZM5.46672 20.4851C5.12773 20.4571 4.81347 20.4104 4.53028 20.346C4.51072 20.4269 4.4938 20.506 4.47968 20.5829C4.34218 21.3265 4.47472 21.7739 4.66549 21.887C4.71256 21.915 4.77449 21.9302 4.85005 21.9302C5.09656 21.9302 5.48428 21.7701 5.93269 21.3684C5.97661 21.329 6.02074 21.2874 6.06503 21.2437C5.86081 21.0192 5.65925 20.7636 5.46672 20.4851ZM6.48057 21.2414C6.5393 21.2995 6.59778 21.3542 6.65577 21.4053C7.21443 21.8985 7.65789 22.0053 7.84989 21.8909C8.04932 21.7727 8.19549 21.2884 8.04437 20.5054C8.03334 20.4486 8.02066 20.3905 8.00635 20.3314C7.71946 20.3994 7.40161 20.4497 7.06479 20.4806C6.8721 20.767 6.67606 21.0223 6.48057 21.2414ZM8.21201 19.9609C8.252 19.9487 8.29112 19.936 8.32932 19.9229C9.0936 19.6624 9.44292 19.2899 9.44292 19.0548C9.44292 18.934 9.35373 18.7917 9.19146 18.6531C9.00441 18.4929 8.7319 18.3468 8.40612 18.2311C8.33938 18.2076 8.27037 18.1854 8.19928 18.1643C8.11372 18.4481 7.99929 18.7492 7.86018 19.0571C8.00656 19.3731 8.12471 19.6765 8.21201 19.9609ZM7.69135 19.4101C7.7847 19.6281 7.86288 19.8383 7.92496 20.038C7.72353 20.0853 7.5058 20.1233 7.27627 20.1516C7.34819 20.0346 7.41943 19.9135 7.48976 19.7884C7.56054 19.6623 7.62783 19.5359 7.69135 19.4101ZM7.68835 18.7054C7.77665 18.4931 7.85159 18.2861 7.91165 18.0884C7.71084 18.0415 7.49747 18.0033 7.27533 17.9746C7.34744 18.0905 7.41812 18.2097 7.48694 18.3318C7.55791 18.4576 7.62509 18.5823 7.68835 18.7054ZM7.0593 17.6435C7.38756 17.675 7.70179 17.7259 7.99149 17.7948C8.00281 17.7472 8.01313 17.7003 8.02241 17.6542C8.18468 16.8445 8.0447 16.3488 7.84527 16.2306C7.74369 16.1708 7.57895 16.1785 7.38075 16.2534C7.15159 16.3399 6.8927 16.5089 6.63257 16.7416C6.57935 16.7891 6.526 16.8392 6.47265 16.8918C6.67027 17.1107 6.86816 17.3644 7.0593 17.6435ZM6.05578 16.8916C5.85376 17.1144 5.65463 17.3676 5.46468 17.6428C5.13704 17.6738 4.82354 17.7239 4.53437 17.7913C4.51635 17.7168 4.50046 17.6435 4.48677 17.5716C4.41988 17.2246 4.4075 16.9094 4.44837 16.6628C4.4843 16.4493 4.55986 16.298 4.66143 16.2383C4.86087 16.12 5.34892 16.2433 5.95094 16.7925C5.98574 16.8242 6.0207 16.8572 6.05578 16.8916ZM6.2643 17.1099C6.40078 17.2617 6.53771 17.4314 6.6725 17.6157C6.5362 17.6091 6.39828 17.6057 6.25942 17.6057C6.12263 17.6057 5.98681 17.6089 5.85261 17.6153C5.9871 17.4334 6.12511 17.2639 6.2643 17.1099ZM6.27287 21.0236C6.13176 20.8673 5.99088 20.6941 5.85364 20.5086C5.98632 20.5139 6.1221 20.5166 6.26066 20.5166C6.403 20.5166 6.54381 20.5133 6.68234 20.5069C6.54619 20.6969 6.40919 20.8699 6.27287 21.0236Z" fill="#C4C4C4"/>
</svg>
