<svg width="55" height="44" viewBox="0 0 55 44" fill="none" xmlns="http://www.w3.org/2000/svg">
<path d="M12.3726 25.9329C15.4576 25.9329 18.4159 27.2871 20.5974 29.6977C22.7789 32.1083 24.0043 35.3778 24.0043 38.7869V42.9841C24.0043 43.0537 23.9791 43.1204 23.935 43.1697C23.8903 43.2188 23.8301 43.2465 23.7669 43.2465H0.978348C0.915204 43.2465 0.854911 43.2188 0.810284 43.1697C0.766131 43.1204 0.740967 43.0537 0.740967 42.9841V38.7869C0.740967 35.3778 1.96633 32.1083 4.14786 29.6977C6.32939 27.2871 9.28763 25.9329 12.3726 25.9329Z" stroke="white" stroke-width="0.582838"/>
<path d="M12.3728 33.803C16.9614 33.803 20.6811 29.6923 20.6811 24.6215C20.6811 19.5508 16.9614 15.4401 12.3728 15.4401C7.78421 15.4401 4.06445 19.5508 4.06445 24.6215C4.06445 29.6923 7.78421 33.803 12.3728 33.803Z" stroke="white" stroke-width="0.582838"/>
<path d="M28.8075 19.9315V19.64H28.5161H26.9832C25.4807 19.64 24.3459 18.6249 24.3459 17.4882V3.34772C24.3459 2.2103 25.4698 1.19584 26.9833 1.19584H52.0161C53.5185 1.19584 54.6534 2.21098 54.6534 3.34771L54.6529 17.4973C54.6529 18.6337 53.5185 19.6492 52.0156 19.6492H35.2821H35.1765L35.0954 19.7168L30.2703 23.7421C30.1144 23.8722 29.8882 23.9492 29.6512 23.9492C29.5403 23.9492 29.4253 23.9276 29.315 23.8895L29.315 23.8894L29.3108 23.888C28.9766 23.7781 28.8075 23.5247 28.8075 23.2936V19.9315Z" stroke="#FFB81D" stroke-width="0.582838"/>
<path d="M33.2808 13.7833H32.4384V7.86388H30.3575V7.12623H35.348V7.86388H33.2808V13.7833ZM38.4465 8.6926C38.6681 8.6926 38.8639 8.71082 39.0339 8.74724L38.9338 9.50311C38.7486 9.46061 38.568 9.43936 38.3919 9.43936C38.1278 9.43936 37.8819 9.51222 37.6542 9.65793C37.4296 9.80364 37.2535 10.0055 37.1261 10.2635C36.9986 10.5185 36.9348 10.8024 36.9348 11.115V13.7833H36.1152V8.78367H36.7891L36.8802 9.69891H36.9166C37.1078 9.36803 37.334 9.11759 37.5951 8.94759C37.8561 8.7776 38.1399 8.6926 38.4465 8.6926ZM40.8803 13.7833H40.0606V8.78367H40.8803V13.7833ZM39.9969 7.4313C39.9969 7.24917 40.0424 7.11712 40.1335 7.03516C40.2276 6.9532 40.343 6.91222 40.4796 6.91222C40.6071 6.91222 40.7179 6.9532 40.812 7.03516C40.9091 7.11712 40.9577 7.24917 40.9577 7.4313C40.9577 7.61041 40.9091 7.74246 40.812 7.82745C40.7179 7.91245 40.6071 7.95495 40.4796 7.95495C40.343 7.95495 40.2276 7.91245 40.1335 7.82745C40.0424 7.74246 39.9969 7.61041 39.9969 7.4313ZM45.6453 13.7833L45.4859 13.073H45.4495C45.2006 13.3857 44.9517 13.5982 44.7028 13.7105C44.4569 13.8198 44.1457 13.8744 43.7693 13.8744C43.2775 13.8744 42.892 13.7454 42.6127 13.4874C42.3335 13.2293 42.1938 12.8651 42.1938 12.3945C42.1938 11.3806 42.9937 10.8494 44.5935 10.8008L45.4404 10.769V10.473C45.4404 10.0935 45.3585 9.81426 45.1945 9.63516C45.0306 9.45302 44.768 9.36195 44.4068 9.36195C44.1427 9.36195 43.8923 9.40142 43.6555 9.48034C43.4217 9.55927 43.2016 9.6473 42.9952 9.74444L42.7448 9.12973C42.9967 8.99616 43.2715 8.89143 43.569 8.81554C43.8664 8.73965 44.1609 8.70171 44.4523 8.70171C45.0564 8.70171 45.5057 8.83528 45.8001 9.10241C46.0946 9.36954 46.2418 9.79453 46.2418 10.3774V13.7833H45.6453ZM43.956 13.2141C44.4144 13.2141 44.7741 13.0912 45.0352 12.8453C45.2993 12.5964 45.4313 12.2443 45.4313 11.7889V11.3381L44.6937 11.37C44.1199 11.3913 43.701 11.4823 43.4369 11.6432C43.1758 11.8041 43.0453 12.0576 43.0453 12.4036C43.0453 12.6647 43.1242 12.8651 43.2821 13.0047C43.443 13.1443 43.6676 13.2141 43.956 13.2141ZM48.7074 13.7833H47.8878V6.6982H48.7074V13.7833Z" fill="white"/>
</svg>
