<svg width="28" height="28" viewBox="0 0 28 28" fill="none" xmlns="http://www.w3.org/2000/svg">
<path d="M23.34 13.16C22.7011 12.5133 21.6667 12.513 21.0277 13.1599C17.4347 16.7963 23.7141 10.4411 14.6666 19.5977C11.7339 22.5656 6.90157 20.6565 6.99956 16.591C7.02937 15.3547 7.53508 14.1786 8.42359 13.2794L14.7847 6.84166C15.4236 6.19512 15.4238 5.14825 14.7847 4.50154L12.2413 1.92744C11.6022 1.28073 10.568 1.28067 9.92898 1.92744C9.022 2.84541 4.36574 7.5577 3.38289 8.5524C1.25467 10.7063 0.0811788 13.57 0.0786173 16.616C0.0735488 22.7288 4.88453 27.9941 11.3189 28C14.4133 28 17.2705 26.7907 19.4007 24.6349L25.8833 18.0741C26.5223 17.4276 26.5225 16.3807 25.8833 15.734L23.34 13.16ZM11.0851 3.09753L13.6285 5.67163L10.4428 8.89586L7.8993 6.32176L11.0851 3.09753ZM18.2446 23.4648C14.4817 27.273 8.27829 27.3269 4.52652 23.5163C0.778941 19.71 0.784555 13.5222 4.539 9.72243L6.74314 7.49174L9.28659 10.0658L7.26743 12.1093C4.80866 14.5976 4.71051 18.5544 7.0824 20.9548C9.4411 23.342 13.3619 23.258 15.8227 20.7676L17.8418 18.7241L20.3853 21.2982L18.2446 23.4648ZM21.5415 20.1283L18.998 17.5542L22.1839 14.3299L24.7273 16.904L21.5415 20.1283Z" fill="#FFBC05"/>
<path d="M20.7537 5.22241C21.5821 5.43416 22.4115 6.27425 22.625 7.10833C22.7389 7.55278 23.1866 7.81588 23.6215 7.7017C24.0586 7.58709 24.321 7.13558 24.2078 6.69327C23.8453 5.27785 22.5632 3.9783 21.1542 3.61813C20.7164 3.50633 20.2719 3.77467 20.1613 4.21763C20.0507 4.66065 20.3159 5.11056 20.7537 5.22241Z" fill="#FFBC05"/>
<path d="M27.7637 5.61029C27.1088 3.0524 24.7545 0.673557 22.2186 0.0253575C21.7809 -0.0864448 21.3364 0.181892 21.2258 0.624854C21.1152 1.06787 21.3804 1.51773 21.8182 1.62964C23.7738 2.12952 25.6751 4.04941 26.181 6.02534C26.2948 6.46979 26.7425 6.73289 27.1774 6.61871C27.6145 6.5041 27.8769 6.05264 27.7637 5.61029Z" fill="#FFBC05"/>
</svg>
