<svg width="27" height="26" viewBox="0 0 27 26" fill="none" xmlns="http://www.w3.org/2000/svg">
<path fill-rule="evenodd" clip-rule="evenodd" d="M20.4519 25.0187C23.8515 25.0187 26.6074 22.3517 26.6074 19.0618C26.6074 15.772 23.8515 13.105 20.4519 13.105C17.0524 13.105 14.2965 15.772 14.2965 19.0618C14.2965 22.3517 17.0524 25.0187 20.4519 25.0187ZM20.147 15.1711C20.3314 15.064 20.5717 15.0635 20.756 15.1711L21.9087 15.8313C22.4518 16.1424 22.9949 16.4534 23.5379 16.7648C23.7122 16.8644 23.8289 17.0612 23.8271 17.265V20.462C23.8284 20.6742 23.7002 20.8757 23.5163 20.9731C23.0311 21.2505 22.5461 21.5281 22.061 21.8057L22.058 21.8075C21.6201 22.0581 21.1823 22.3087 20.7443 22.5591C20.556 22.6683 20.3109 22.6599 20.1285 22.5418C19.978 22.4533 19.8273 22.365 19.6766 22.2767L19.6763 22.2765L19.6759 22.2763L19.6755 22.2761L19.6752 22.2759C19.549 22.202 19.4229 22.1281 19.2968 22.054C19.285 22.0469 19.2729 22.04 19.2607 22.0332C19.2146 22.0072 19.168 21.9809 19.1364 21.9369C19.1622 21.9015 19.2029 21.8888 19.243 21.8763C19.2578 21.8717 19.2725 21.8671 19.2863 21.8614C19.3949 21.8264 19.4953 21.7714 19.5951 21.7167L19.6144 21.7062C19.6413 21.6875 19.6741 21.6947 19.6998 21.7113C19.801 21.7702 19.9019 21.8298 20.0027 21.8894L20.0027 21.8894C20.1379 21.9693 20.2732 22.0492 20.4093 22.1274C20.4535 22.1532 20.4982 22.1266 20.5376 22.1031L20.5547 22.0931C20.9862 21.8458 21.418 21.5989 21.8497 21.352L21.8527 21.3503C22.3274 21.0788 22.8021 20.8074 23.2764 20.5353C23.31 20.519 23.3286 20.4828 23.3259 20.4455C23.3263 19.7759 23.3263 19.1062 23.3262 18.4366V18.4324L23.3262 17.2814C23.3301 17.239 23.3059 17.2001 23.2681 17.1827C22.7539 16.889 22.2398 16.5951 21.7257 16.3011L20.5058 15.6037C20.4898 15.5926 20.471 15.5866 20.4516 15.5866C20.4322 15.5865 20.4133 15.5924 20.3973 15.6035C19.9889 15.837 19.5805 16.0707 19.1721 16.3043L19.172 16.3044L19.1719 16.3045L19.1717 16.3046C18.6596 16.5976 18.1475 16.8906 17.6353 17.1832C17.5977 17.2006 17.5724 17.2389 17.5769 17.2814L17.577 19.3908L17.5769 20.4456C17.5753 20.4638 17.5793 20.4821 17.5882 20.498C17.5972 20.5138 17.6107 20.5265 17.627 20.5344C17.7894 20.6278 17.9519 20.7207 18.1145 20.8137L18.115 20.814L18.3647 20.9569C18.5032 21.0325 18.6733 21.0774 18.8259 21.0195C18.9606 20.9705 19.055 20.8311 19.0524 20.6861C19.053 20.1868 19.0529 19.6875 19.0528 19.1882C19.0526 18.6389 19.0525 18.0897 19.0534 17.5406C19.05 17.4941 19.0935 17.4556 19.1381 17.46C19.2562 17.4592 19.3744 17.4584 19.4925 17.4603C19.5418 17.4592 19.5757 17.5093 19.5696 17.5562C19.5694 17.9449 19.5696 18.3337 19.5697 18.7224C19.5699 19.3888 19.5701 20.0552 19.5688 20.7216C19.5691 21.0028 19.4552 21.3088 19.1988 21.4464C18.8828 21.6124 18.4923 21.5772 18.1802 21.418C18.0119 21.3328 17.8484 21.2381 17.6849 21.1433C17.5859 21.0859 17.4868 21.0285 17.3867 20.9732C17.2023 20.8764 17.0747 20.6741 17.076 20.462V17.265C17.0741 17.057 17.1954 16.8566 17.3752 16.7584C18.0718 16.3597 18.7683 15.9607 19.4649 15.5618L20.147 15.1711ZM20.9531 17.3857C21.3561 17.3594 21.7875 17.3701 22.1502 17.5715C22.431 17.7258 22.5866 18.0496 22.5916 18.366C22.5837 18.4087 22.5398 18.4322 22.4996 18.4293C22.4627 18.4292 22.4257 18.4294 22.3888 18.4295C22.3088 18.4298 22.2288 18.4301 22.1488 18.4285C22.0992 18.4304 22.0704 18.384 22.0641 18.3396C22.0305 18.1882 21.9491 18.0383 21.8087 17.9653C21.5986 17.8586 21.356 17.861 21.1262 17.8634L21.1078 17.8635C20.9361 17.8728 20.7515 17.8879 20.6061 17.9902C20.4944 18.0678 20.4605 18.2244 20.5004 18.3504C20.5363 18.4371 20.6323 18.4676 20.7144 18.4937L20.7253 18.4971C20.9375 18.5534 21.1553 18.5827 21.373 18.6119C21.6535 18.6496 21.9338 18.6872 22.202 18.7827C22.3993 18.8518 22.5922 18.9862 22.6597 19.1956C22.7481 19.4763 22.7093 19.8119 22.5124 20.0372C22.3527 20.2227 22.1201 20.3236 21.8882 20.3784C21.5796 20.4482 21.2593 20.45 20.9459 20.419C20.6512 20.3849 20.3445 20.3064 20.117 20.1028C19.9225 19.9314 19.8275 19.6645 19.8369 19.4069C19.8392 19.3634 19.8819 19.333 19.923 19.3366C20.0407 19.3356 20.1585 19.3353 20.2762 19.3368C20.3233 19.3334 20.3581 19.3746 20.3605 19.4195C20.3823 19.5638 20.4357 19.7151 20.5597 19.8007C20.7789 19.9441 21.0493 19.9471 21.3038 19.95L21.3733 19.9509L21.4089 19.9493C21.6266 19.94 21.8648 19.9297 22.0405 19.7854C22.1382 19.6986 22.1672 19.5534 22.1408 19.4285C22.1121 19.323 22.0033 19.2738 21.9099 19.2417C21.6812 19.1683 21.4432 19.1426 21.2052 19.117H21.2052C20.9443 19.0888 20.6836 19.0607 20.4352 18.9697C20.2425 18.9006 20.0561 18.77 19.982 18.5692C19.8787 18.2849 19.926 17.9333 20.1436 17.7155C20.3557 17.499 20.6619 17.4156 20.9531 17.3857Z" fill="#212121"/>
<path fill-rule="evenodd" clip-rule="evenodd" d="M6.35398 11.9137C9.86319 11.9137 12.708 9.24674 12.708 5.95686C12.708 2.66698 9.86319 0 6.35398 0C2.84478 0 0 2.66698 0 5.95686C0 9.24674 2.84478 11.9137 6.35398 11.9137ZM6.54527 2.00259L6.35974 1.5886C6.33714 1.62035 6.39385 7.81466 6.39906 7.82808V7.89105C6.39167 8.03043 6.40666 8.16541 6.42948 8.3004C6.44381 8.41443 6.47593 8.52428 6.5242 8.62431C6.5507 8.67825 6.58112 8.73684 6.64542 8.73684C6.76685 8.63257 6.88092 8.51674 6.98651 8.39047C7.63566 7.59424 7.95763 6.63619 7.94242 5.52044C7.93873 5.14723 7.88941 4.77816 7.7986 4.41837C7.64718 3.82939 7.43514 3.28481 7.12077 2.79443C6.98691 2.58805 6.84145 2.39266 6.6854 2.20958C6.63217 2.14661 6.58698 2.07899 6.54527 2.00259ZM6.30165 1.59737C6.29338 1.58194 6.28512 1.59 6.27685 1.59805L6.27302 1.6017C6.27765 1.6908 6.24438 1.77022 6.1923 1.84608C6.14143 1.913 6.07595 1.96607 6.00863 2.02061L5.98313 2.04133C5.56043 2.38295 5.22772 2.7956 4.96128 3.25712C4.60676 3.87826 4.42405 4.54394 4.37223 5.24475C4.34851 5.49753 4.45786 6.38952 4.54322 6.64689C4.77611 7.33013 5.19445 7.90264 5.73632 8.39955C5.83055 8.48426 5.92942 8.56464 6.0314 8.64221C6.0273 8.6674 6.02301 8.69256 6.01852 8.71768C6.01746 8.725 6.01643 8.73233 6.0154 8.73964C6.0054 8.81064 5.99552 8.88081 5.95719 8.94399C5.95719 8.95273 5.95719 8.96148 5.96091 8.97446C6.02969 9.20528 6.04853 9.44033 6.06014 9.67989V9.76731C6.06014 9.82121 6.05915 9.84143 6.06864 9.85319C6.07754 9.86421 6.09565 9.8678 6.13242 9.88472C6.14159 9.8886 6.15106 9.89172 6.16067 9.89489C6.1832 9.90231 6.20642 9.90997 6.22793 9.92818C6.25093 9.92818 6.25465 9.90645 6.25465 9.88896L6.24326 9.74533V9.34466C6.24019 9.28696 6.2474 9.22961 6.25432 9.17455C6.25579 9.16287 6.25725 9.15129 6.25859 9.13983L6.25881 9.13958C6.26648 9.03966 6.30853 8.95673 6.35431 8.87405C6.30831 8.85231 6.27414 8.8091 6.24742 8.76089C6.2348 8.73589 6.22337 8.71015 6.21317 8.68378C6.21419 8.68069 6.21521 8.67766 6.21629 8.67473C6.23506 8.61808 6.24938 8.56023 6.25911 8.50163L6.35456 7.8362L6.30165 1.59737Z" fill="#212121"/>
<path fill-rule="evenodd" clip-rule="evenodd" d="M20.4519 11.9137C23.8515 11.9137 26.6074 9.24674 26.6074 5.95686C26.6074 2.66698 23.8515 0 20.4519 0C17.0524 0 14.2965 2.66698 14.2965 5.95686C14.2965 9.24674 17.0524 11.9137 20.4519 11.9137ZM21.7767 6.92778V4.66965H21.422L21.3322 5.57117H19.6953V3.4604H22.0481L22.6272 4.67398L22.8965 4.64364L22.6657 2.77992H22.5289L22.0759 3.00964H19.6953H19.2508H18.2678V3.22635L18.973 3.4474V8.43176L18.2678 8.65281V8.86952H19.2508H19.6953H22.1357L22.5759 9.13391H22.7213L23.0333 7.22251L22.7939 7.17917L22.1237 8.41876H19.6953V6.02193H21.3322L21.422 6.92778H21.7767Z" fill="#212121"/>
<path fill-rule="evenodd" clip-rule="evenodd" d="M12.708 19.0618C12.708 22.3517 9.86319 25.0187 6.35398 25.0187C2.84478 25.0187 0 22.3517 0 19.0618C0 15.772 2.84478 13.105 6.35398 13.105C9.86319 13.105 12.708 15.772 12.708 19.0618ZM6.26048 19.6931C6.60391 19.6931 6.88232 19.4074 6.88232 19.055C6.88232 18.7026 6.60391 18.4169 6.26048 18.4169C5.91705 18.4169 5.63865 18.7026 5.63865 19.055C5.63865 19.4074 5.91705 19.6931 6.26048 19.6931ZM4.05327 20.2102C4.11433 20.2316 4.1776 20.252 4.24296 20.2713C4.22212 20.3577 4.20396 20.4426 4.18858 20.5256C4.03869 21.3327 4.16257 21.9403 4.51808 22.1513C4.61222 22.2073 4.7237 22.2352 4.85005 22.2352C4.97145 22.2352 5.10771 22.2085 5.25264 22.1552C5.53011 22.0547 5.83359 21.8615 6.12841 21.5971C6.17646 21.554 6.22468 21.5085 6.27303 21.4606C6.3358 21.5225 6.39861 21.5812 6.46129 21.6366C6.90723 22.0306 7.33458 22.2391 7.67151 22.2391C7.79415 22.2391 7.90439 22.2111 7.9973 22.1552C8.1831 22.0446 8.31193 21.8196 8.36891 21.5031C8.42218 21.2057 8.40979 20.8396 8.33423 20.4456C8.32225 20.3831 8.30841 20.3193 8.29273 20.2543C8.33689 20.2409 8.38007 20.227 8.42222 20.2127C9.23482 19.9369 9.73897 19.4932 9.73897 19.0547C9.73897 18.8399 9.6151 18.62 9.38099 18.4192C9.16545 18.2361 8.86196 18.0709 8.5015 17.9438C8.42964 17.9182 8.35533 17.8941 8.27878 17.8713C8.29155 17.818 8.30313 17.7655 8.3135 17.7139C8.48692 16.8546 8.36429 16.1835 7.99392 15.9648C7.81306 15.8581 7.56532 15.8581 7.27918 15.9661C7.01657 16.0653 6.72547 16.2534 6.43809 16.5102C6.38014 16.5618 6.3221 16.6164 6.26413 16.6737C6.22526 16.6355 6.18649 16.5988 6.14789 16.5636C5.50871 15.9802 4.88069 15.7539 4.51155 15.9738C4.32946 16.0818 4.20682 16.3017 4.1548 16.6106C4.10773 16.8941 4.12135 17.2462 4.19444 17.6301C4.20918 17.7075 4.22632 17.7865 4.24576 17.8667C4.15658 17.8927 4.07042 17.9206 3.98761 17.9501C3.23076 18.2196 2.77987 18.6327 2.77987 19.0547C2.77987 19.2746 2.90621 19.5021 3.14405 19.7106C3.36826 19.9076 3.68289 20.0805 4.05327 20.2102ZM4.32543 18.1604C4.2425 18.1845 4.16277 18.2102 4.08671 18.2374C3.39055 18.4865 3.0784 18.8272 3.0784 19.0547C3.0784 19.2911 3.41409 19.6636 4.14989 19.9216C4.20541 19.9411 4.26296 19.9596 4.32243 19.9772C4.41022 19.6827 4.52572 19.3749 4.66509 19.0639C4.52721 18.7567 4.41273 18.4523 4.32543 18.1604ZM4.83597 18.7048C4.74945 18.4942 4.6752 18.2867 4.61457 18.0858C4.81366 18.0402 5.02607 18.0029 5.24671 17.9746C5.17358 18.0916 5.10234 18.2117 5.03338 18.3342C4.96421 18.4572 4.89832 18.581 4.83597 18.7048ZM4.99365 19.063C5.08366 19.2548 5.18301 19.4475 5.2907 19.6384C5.39793 19.8286 5.51206 20.014 5.63063 20.1914C5.83236 20.2047 6.04284 20.2114 6.26066 20.2114C6.47855 20.2114 6.69238 20.2036 6.89927 20.1884C7.01164 20.0153 7.12288 19.8312 7.2321 19.6371C7.34085 19.4437 7.44091 19.2501 7.53124 19.0589C7.44089 18.8719 7.34048 18.6803 7.23053 18.4855C7.12241 18.2939 7.00984 18.1097 6.89455 17.9352C6.68768 17.919 6.47547 17.9107 6.26066 17.9107C6.04792 17.9107 5.83579 17.9191 5.62809 17.9354C5.5108 18.1116 5.39745 18.2966 5.2898 18.488L5.28926 18.4877C5.18287 18.677 5.08385 18.87 4.99365 19.063ZM4.83597 19.4223C4.89823 19.5455 4.964 19.6686 5.03305 19.7909C5.10355 19.916 5.17634 20.0383 5.25102 20.1574C5.02273 20.1313 4.80844 20.0959 4.61063 20.0516C4.67217 19.8481 4.74797 19.6366 4.83597 19.4223ZM5.46672 20.4851C5.12773 20.457 4.81347 20.4104 4.53028 20.346C4.51072 20.4269 4.4938 20.5059 4.47968 20.5828C4.34218 21.3264 4.47472 21.7738 4.66549 21.8869C4.71256 21.9149 4.77449 21.9302 4.85005 21.9302C5.09656 21.9302 5.48428 21.77 5.93269 21.3683C5.97661 21.329 6.02074 21.2874 6.06503 21.2436C5.86081 21.0191 5.65925 20.7635 5.46672 20.4851ZM6.48057 21.2414C6.5393 21.2994 6.59778 21.3541 6.65577 21.4053C7.21443 21.8984 7.65789 22.0052 7.84989 21.8908C8.04932 21.7726 8.19549 21.2883 8.04437 20.5053C8.03334 20.4485 8.02066 20.3905 8.00635 20.3313C7.71946 20.3994 7.40161 20.4497 7.06479 20.4805C6.8721 20.7669 6.67606 21.0222 6.48057 21.2414ZM8.21201 19.9608C8.252 19.9486 8.29112 19.9359 8.32931 19.9229C9.0936 19.6623 9.44292 19.2899 9.44292 19.0547C9.44292 18.934 9.35373 18.7916 9.19146 18.653C9.00441 18.4929 8.7319 18.3467 8.40612 18.231C8.33938 18.2076 8.27037 18.1853 8.19928 18.1643C8.11372 18.448 7.99929 18.7491 7.86018 19.057C8.00656 19.3731 8.12471 19.6764 8.21201 19.9608ZM7.69135 19.41C7.7847 19.6281 7.86288 19.8382 7.92496 20.0379C7.72353 20.0852 7.5058 20.1233 7.27627 20.1516C7.34819 20.0346 7.41943 19.9134 7.48976 19.7883C7.56054 19.6622 7.62783 19.5359 7.69135 19.41ZM7.68835 18.7054C7.77665 18.4931 7.85159 18.2861 7.91165 18.0884C7.71084 18.0414 7.49747 18.0032 7.27533 17.9745C7.34744 18.0904 7.41812 18.2097 7.48694 18.3317C7.55791 18.4576 7.62509 18.5822 7.68835 18.7054ZM7.0593 17.6434C7.38756 17.675 7.70178 17.7259 7.99149 17.7947C8.00281 17.7471 8.01313 17.7002 8.02241 17.6542C8.18468 16.8445 8.0447 16.3487 7.84527 16.2305C7.74369 16.1708 7.57895 16.1784 7.38075 16.2534C7.15159 16.3398 6.8927 16.5089 6.63257 16.7415C6.57935 16.789 6.526 16.8392 6.47265 16.8918C6.67027 17.1107 6.86816 17.3643 7.0593 17.6434ZM6.05578 16.8916C5.85376 17.1143 5.65463 17.3675 5.46468 17.6427C5.13704 17.6737 4.82354 17.7238 4.53437 17.7913C4.51635 17.7167 4.50046 17.6434 4.48677 17.5716C4.41988 17.2246 4.4075 16.9093 4.44837 16.6627C4.4843 16.4492 4.55986 16.2979 4.66143 16.2382C4.86087 16.12 5.34892 16.2433 5.95094 16.7924C5.98574 16.8241 6.0207 16.8572 6.05578 16.8916ZM6.2643 17.1098C6.40078 17.2617 6.53771 17.4314 6.6725 17.6156C6.5362 17.609 6.39828 17.6056 6.25942 17.6056C6.12263 17.6056 5.98681 17.6089 5.85261 17.6152C5.9871 17.4334 6.12511 17.2639 6.2643 17.1098ZM6.27287 21.0236C6.13176 20.8672 5.99088 20.6941 5.85364 20.5086C5.98632 20.5138 6.1221 20.5165 6.26066 20.5165C6.403 20.5165 6.54381 20.5132 6.68234 20.5068C6.54619 20.6968 6.40919 20.8698 6.27287 21.0236Z" fill="#212121"/>
</svg>
