<svg width="27" height="26" viewBox="0 0 27 26" fill="none" xmlns="http://www.w3.org/2000/svg">
<path fill-rule="evenodd" clip-rule="evenodd" d="M20.4523 25.0187C23.8518 25.0187 26.6077 22.3518 26.6077 19.0619C26.6077 15.772 23.8518 13.105 20.4523 13.105C17.0528 13.105 14.2969 15.772 14.2969 19.0619C14.2969 22.3518 17.0528 25.0187 20.4523 25.0187ZM20.1473 15.1711C20.3317 15.064 20.572 15.0635 20.7563 15.1711L21.909 15.8313L21.9093 15.8315L21.9116 15.8328L21.9122 15.8332C22.4543 16.1435 22.9963 16.4539 23.5382 16.7647C23.7125 16.8643 23.8292 17.0611 23.8274 17.2649V20.462C23.8287 20.6742 23.7005 20.8757 23.5166 20.9731C23.0304 21.2511 22.5443 21.5292 22.0583 21.8074C21.6204 22.058 21.1826 22.3086 20.7446 22.5591C20.5563 22.6683 20.3112 22.6599 20.1288 22.5417C19.9781 22.4531 19.8271 22.3646 19.6762 22.2762L19.6747 22.2754C19.5488 22.2016 19.4229 22.1279 19.2971 22.054C19.2853 22.0468 19.2732 22.04 19.261 22.0331C19.2149 22.0071 19.1683 21.9809 19.1367 21.9368C19.1625 21.9015 19.2032 21.8888 19.2433 21.8762C19.2581 21.8716 19.2728 21.8671 19.2866 21.8614C19.3952 21.8263 19.4956 21.7714 19.5954 21.7167L19.6147 21.7061C19.6416 21.6875 19.6744 21.6946 19.7001 21.7113C19.8014 21.7701 19.9022 21.8297 20.003 21.8893L20.0032 21.8895C20.1384 21.9693 20.2735 22.0492 20.4096 22.1273C20.4538 22.1532 20.4985 22.1266 20.5379 22.1031L20.555 22.0931C20.9874 21.8452 21.4201 21.5978 21.8527 21.3504L21.853 21.3503C22.3277 21.0788 22.8024 20.8073 23.2768 20.5353C23.3103 20.5189 23.3289 20.4827 23.3262 20.4454C23.3266 19.7744 23.3266 19.1034 23.3265 18.4323L23.3265 17.2813C23.3304 17.239 23.3062 17.2 23.2684 17.1827C22.7542 16.889 22.2401 16.595 21.726 16.301L20.5061 15.6036C20.4902 15.5925 20.4713 15.5865 20.4519 15.5865C20.4325 15.5865 20.4136 15.5924 20.3976 15.6035C19.9892 15.8369 19.5808 16.0706 19.1724 16.3043L19.1716 16.3048C18.6596 16.5977 18.1477 16.8906 17.6356 17.1832C17.598 17.2005 17.5727 17.2388 17.5772 17.2813L17.5773 19.3908L17.5772 20.4456C17.5756 20.4638 17.5796 20.4821 17.5885 20.4979C17.5975 20.5138 17.611 20.5265 17.6273 20.5343C17.7898 20.6278 17.9524 20.7208 18.1151 20.8138L18.1151 20.8139L18.1152 20.8139L18.1153 20.8139L18.365 20.9568C18.5035 21.0324 18.6736 21.0774 18.8262 21.0194C18.9609 20.9705 19.0553 20.8311 19.0527 20.686C19.0533 20.1867 19.0532 19.6874 19.0531 19.1881V19.1881V19.1881V19.1881C19.0529 18.6389 19.0528 18.0897 19.0537 17.5406C19.0503 17.494 19.0938 17.4556 19.1384 17.46C19.2565 17.4592 19.3747 17.4584 19.4928 17.4603C19.5421 17.4592 19.576 17.5093 19.5699 17.5562C19.5697 17.9449 19.5699 18.3336 19.57 18.7223C19.5702 19.3887 19.5704 20.0551 19.5691 20.7216C19.5694 21.0028 19.4555 21.3087 19.1991 21.4463C18.8831 21.6123 18.4926 21.5771 18.1805 21.4179C18.0122 21.3328 17.8488 21.2381 17.6853 21.1433L17.6853 21.1433L17.6852 21.1433C17.5862 21.0859 17.4871 21.0285 17.387 20.9732C17.2026 20.8764 17.075 20.674 17.0763 20.462V17.2649C17.0744 17.0569 17.1957 16.8565 17.3755 16.7584C18.0706 16.3605 18.7657 15.9624 19.4608 15.5643L19.4613 15.5639L19.4618 15.5636L19.4652 15.5617L20.1473 15.1711ZM20.9534 17.3857C21.3564 17.3593 21.7878 17.3701 22.1505 17.5714C22.4313 17.7257 22.5869 18.0496 22.5919 18.366C22.5841 18.4086 22.5401 18.4322 22.4999 18.4292C22.463 18.4292 22.4261 18.4293 22.3891 18.4295H22.3891C22.3091 18.4298 22.2291 18.4301 22.1491 18.4284C22.0995 18.4304 22.0707 18.384 22.0644 18.3395C22.0308 18.1881 21.9494 18.0382 21.809 17.9652C21.5989 17.8586 21.3563 17.861 21.1265 17.8633L21.1081 17.8635C20.9364 17.8727 20.7518 17.8878 20.6064 17.9902C20.4947 18.0677 20.4608 18.2243 20.5007 18.3504C20.5366 18.4371 20.6326 18.4675 20.7147 18.4936L20.7256 18.4971C20.9378 18.5534 21.1556 18.5826 21.3733 18.6119C21.6538 18.6495 21.9341 18.6872 22.2023 18.7826C22.3996 18.8517 22.5925 18.9861 22.66 19.1956C22.7484 19.4763 22.7096 19.8118 22.5127 20.0372C22.353 20.2226 22.1204 20.3235 21.8885 20.3784C21.5799 20.4482 21.2596 20.4499 20.9462 20.4189C20.6515 20.3849 20.3448 20.3064 20.1173 20.1027C19.9228 19.9314 19.8278 19.6645 19.8372 19.4068C19.8395 19.3633 19.8822 19.333 19.9233 19.3366C20.041 19.3356 20.1588 19.3353 20.2765 19.3367C20.3236 19.3333 20.3584 19.3745 20.3608 19.4195C20.3826 19.5637 20.436 19.7151 20.56 19.8006C20.7792 19.944 21.0496 19.9471 21.3041 19.95L21.3736 19.9508L21.4092 19.9493C21.6269 19.9399 21.8651 19.9297 22.0408 19.7854C22.1385 19.6986 22.1675 19.5533 22.1411 19.4284C22.1124 19.3229 22.0036 19.2738 21.9102 19.2416C21.6815 19.1683 21.4435 19.1426 21.2055 19.1169H21.2055C20.9446 19.0888 20.6839 19.0607 20.4355 18.9697C20.2428 18.9006 20.0564 18.77 19.9823 18.5691C19.879 18.2849 19.9263 17.9332 20.1439 17.7155C20.356 17.4989 20.6622 17.4155 20.9534 17.3857Z" fill="#C4C4C4"/>
<path fill-rule="evenodd" clip-rule="evenodd" d="M6.35398 25.0189C9.86319 25.0189 12.708 22.3519 12.708 19.062C12.708 15.7721 9.86319 13.1052 6.35398 13.1052C2.84478 13.1052 0 15.7721 0 19.062C0 22.3519 2.84478 25.0189 6.35398 25.0189ZM2.77986 16.6767L6.11395 15.4879L9.53783 16.6556L8.98345 21.0701L6.11395 22.6605L3.28935 21.0912L2.77986 16.6767ZM6.11917 16.3252L4.04165 20.9511L4.81774 20.9378L5.23485 19.8943H7.09856L7.55526 20.9511L8.29703 20.9643L6.11917 16.3252ZM6.12447 17.8073L6.82665 19.2761H5.50672L6.12447 17.8073Z" fill="#C4C4C4"/>
<path fill-rule="evenodd" clip-rule="evenodd" d="M6.35398 11.9137C9.86319 11.9137 12.708 9.24674 12.708 5.95686C12.708 2.66698 9.86319 0 6.35398 0C2.84478 0 0 2.66698 0 5.95686C0 9.24674 2.84478 11.9137 6.35398 11.9137ZM6.54413 2.00259L6.3586 1.58861C6.336 1.62035 6.3927 7.81466 6.39792 7.82808V7.89106C6.39053 8.03043 6.40552 8.16541 6.42833 8.3004C6.44266 8.41443 6.47479 8.52428 6.52306 8.62431C6.54956 8.67825 6.57998 8.73684 6.64428 8.73684C6.76571 8.63258 6.87978 8.51674 6.98537 8.39047C7.63452 7.59425 7.95649 6.63619 7.94128 5.52044C7.93759 5.14724 7.88827 4.77816 7.79746 4.41837C7.64604 3.8294 7.434 3.28482 7.11963 2.79443C6.98576 2.58806 6.84031 2.39266 6.68426 2.20959C6.63103 2.14661 6.58584 2.07899 6.54413 2.00259ZM6.3006 1.59737C6.29233 1.58193 6.28406 1.58999 6.27579 1.59805L6.27196 1.60169C6.2766 1.69079 6.24333 1.77021 6.19124 1.84607C6.14038 1.91299 6.07489 1.96606 6.00758 2.02061L5.98207 2.04132C5.55937 2.38295 5.22667 2.79559 4.96023 3.25712C4.60571 3.87825 4.42299 4.54393 4.37118 5.24474C4.34745 5.49753 4.45681 6.38951 4.54217 6.64688C4.77506 7.33012 5.1934 7.90264 5.73527 8.39954C5.82959 8.48434 5.92856 8.56479 6.03064 8.64243C6.02656 8.66755 6.02228 8.69264 6.0178 8.71768C6.01674 8.72501 6.01571 8.73233 6.01468 8.73964C6.00468 8.81065 5.9948 8.88081 5.95647 8.94399C5.95647 8.95274 5.95647 8.96148 5.9602 8.97447C6.02897 9.20528 6.04781 9.44034 6.05942 9.67989V9.76732C6.05942 9.82121 6.05843 9.84143 6.06792 9.85319C6.07682 9.86421 6.09493 9.8678 6.13171 9.88472C6.14087 9.8886 6.15035 9.89173 6.15995 9.89489C6.18248 9.90232 6.20571 9.90997 6.22721 9.92819C6.25021 9.92819 6.25393 9.90645 6.25393 9.88897L6.24254 9.74534V9.34466C6.23947 9.28697 6.24668 9.22961 6.25361 9.17456C6.25508 9.16287 6.25653 9.15129 6.25787 9.13983L6.25809 9.13958C6.26576 9.03966 6.30782 8.95673 6.3536 8.87405C6.3076 8.85232 6.27343 8.8091 6.2467 8.76089C6.234 8.73574 6.22251 8.70984 6.21227 8.68331C6.21324 8.68038 6.21421 8.6775 6.21524 8.67473C6.23401 8.61808 6.24832 8.56022 6.25805 8.50162L6.3535 7.8362L6.3006 1.59737Z" fill="#C4C4C4"/>
<path fill-rule="evenodd" clip-rule="evenodd" d="M20.4523 11.9138C23.8518 11.9138 26.6077 9.24677 26.6077 5.95689C26.6077 2.66701 23.8518 3.05176e-05 20.4523 3.05176e-05C17.0528 3.05176e-05 14.2969 2.66701 14.2969 5.95689C14.2969 9.24677 17.0528 11.9138 20.4523 11.9138ZM21.7774 6.92789V4.66976H21.4227L21.3329 5.57128H19.696V3.46051H22.0488L22.628 4.67409L22.8972 4.64375L22.6664 2.78003H22.5297L22.0766 3.00974H19.696H19.2515H18.2685V3.22646L18.9737 3.4475V8.43187L18.2685 8.65292V8.86963H19.2515H19.696H22.1364L22.5767 9.13402H22.722L23.034 7.22262L22.7946 7.17928L22.1244 8.41887H19.696V6.02204H21.3329L21.4227 6.92789H21.7774Z" fill="#C4C4C4"/>
</svg>
