<svg width="27" height="26" viewBox="0 0 27 26" fill="none" xmlns="http://www.w3.org/2000/svg">
<path fill-rule="evenodd" clip-rule="evenodd" d="M20.4523 25.0187C23.8518 25.0187 26.6077 22.3517 26.6077 19.0618C26.6077 15.772 23.8518 13.105 20.4523 13.105C17.0528 13.105 14.2969 15.772 14.2969 19.0618C14.2969 22.3517 17.0528 25.0187 20.4523 25.0187ZM20.1473 15.171C20.3317 15.0639 20.572 15.0635 20.7563 15.171L21.909 15.8313C22.4521 16.1423 22.9952 16.4533 23.5382 16.7647C23.7125 16.8643 23.8292 17.0611 23.8274 17.2649V20.4619C23.8287 20.6741 23.7005 20.8757 23.5166 20.973C23.0314 21.2505 22.5464 21.5281 22.0613 21.8056L22.0583 21.8074L22.0535 21.8102L22.0486 21.8129C21.614 22.0617 21.1793 22.3104 20.7446 22.559C20.5563 22.6682 20.3112 22.6598 20.1288 22.5417C19.9783 22.4532 19.8276 22.3649 19.6769 22.2766L19.6766 22.2764L19.6762 22.2762C19.5498 22.2022 19.4234 22.1281 19.2971 22.0539C19.2853 22.0468 19.2732 22.04 19.261 22.0331L19.261 22.0331L19.261 22.0331C19.2149 22.0071 19.1683 21.9808 19.1367 21.9368C19.1625 21.9015 19.2032 21.8887 19.2433 21.8762C19.2581 21.8716 19.2728 21.867 19.2866 21.8613C19.3952 21.8263 19.4955 21.7713 19.5954 21.7167L19.5954 21.7166L19.6147 21.7061C19.6416 21.6874 19.6744 21.6946 19.7001 21.7113C19.8014 21.7701 19.9022 21.8297 20.003 21.8893L20.0031 21.8893C20.1383 21.9692 20.2735 22.0491 20.4096 22.1273C20.4538 22.1532 20.4985 22.1266 20.5379 22.1031L20.555 22.093C20.9872 21.8453 21.4197 21.598 21.8521 21.3507L21.853 21.3502C22.3277 21.0788 22.8024 20.8073 23.2768 20.5353C23.3103 20.5189 23.3289 20.4827 23.3262 20.4454C23.3266 19.7758 23.3266 19.1061 23.3265 18.4365V18.4323L23.3265 17.2813C23.3304 17.2389 23.3062 17.2 23.2684 17.1827C22.7542 16.8889 22.2401 16.595 21.726 16.301L20.5061 15.6036C20.4902 15.5925 20.4713 15.5865 20.4519 15.5865C20.4325 15.5865 20.4136 15.5924 20.3976 15.6034C19.9892 15.8369 19.5808 16.0706 19.1724 16.3042L19.1716 16.3048C18.6596 16.5977 18.1477 16.8906 17.6356 17.1831C17.598 17.2005 17.5727 17.2388 17.5772 17.2813L17.5773 19.3907L17.5772 20.4455C17.5756 20.4637 17.5796 20.482 17.5885 20.4979C17.5975 20.5138 17.611 20.5265 17.6273 20.5343C17.7897 20.6277 17.9522 20.7207 18.1148 20.8136L18.1153 20.8139L18.365 20.9568C18.5035 21.0324 18.6736 21.0774 18.8262 21.0194C18.9609 20.9704 19.0553 20.831 19.0527 20.686C19.0533 20.1867 19.0532 19.6874 19.0531 19.1881C19.0529 18.6389 19.0528 18.0897 19.0537 17.5406C19.0503 17.494 19.0938 17.4556 19.1384 17.4599C19.2565 17.4591 19.3747 17.4583 19.4928 17.4603C19.5421 17.4591 19.576 17.5093 19.5699 17.5561C19.5697 17.9449 19.5699 18.3336 19.57 18.7223C19.5702 19.3887 19.5704 20.0551 19.5691 20.7215C19.5694 21.0027 19.4555 21.3087 19.1991 21.4463C18.8831 21.6123 18.4926 21.5771 18.1805 21.4179C18.0122 21.3327 17.8488 21.238 17.6853 21.1433L17.6853 21.1433L17.6852 21.1433C17.5862 21.0859 17.4871 21.0284 17.387 20.9732C17.2026 20.8763 17.075 20.674 17.0763 20.462V17.2649C17.0744 17.0569 17.1957 16.8565 17.3755 16.7583C18.0712 16.3601 18.7669 15.9616 19.4626 15.5632L19.4639 15.5624L19.4652 15.5617L20.1473 15.171ZM20.9534 17.3856C21.3564 17.3593 21.7878 17.37 22.1505 17.5714C22.4313 17.7257 22.5869 18.0496 22.5919 18.3659C22.5841 18.4086 22.5401 18.4321 22.4999 18.4292C22.463 18.4292 22.4261 18.4293 22.3891 18.4294H22.3891C22.3091 18.4298 22.2291 18.4301 22.1491 18.4284C22.0995 18.4303 22.0707 18.384 22.0644 18.3395C22.0308 18.1881 21.9494 18.0382 21.809 17.9652C21.5989 17.8585 21.3563 17.861 21.1265 17.8633L21.1081 17.8635C20.9364 17.8727 20.7518 17.8878 20.6064 17.9902C20.4947 18.0677 20.4608 18.2243 20.5007 18.3504C20.5366 18.437 20.6326 18.4675 20.7147 18.4936L20.7256 18.497C20.9378 18.5533 21.1556 18.5826 21.3733 18.6118C21.6538 18.6495 21.9341 18.6871 22.2023 18.7826C22.3996 18.8517 22.5925 18.9861 22.66 19.1955C22.7484 19.4762 22.7096 19.8118 22.5127 20.0371C22.353 20.2226 22.1204 20.3235 21.8885 20.3783C21.5799 20.4481 21.2596 20.4499 20.9462 20.4189C20.6515 20.3848 20.3448 20.3063 20.1173 20.1027C19.9228 19.9314 19.8278 19.6644 19.8372 19.4068C19.8395 19.3633 19.8822 19.333 19.9233 19.3365C20.041 19.3356 20.1588 19.3352 20.2765 19.3367C20.3236 19.3333 20.3584 19.3745 20.3608 19.4195C20.3826 19.5637 20.436 19.7151 20.56 19.8006C20.7792 19.944 21.0496 19.9471 21.3041 19.9499L21.3736 19.9508L21.4092 19.9493C21.6269 19.9399 21.8651 19.9296 22.0408 19.7853C22.1385 19.6985 22.1675 19.5533 22.1411 19.4284C22.1124 19.3229 22.0036 19.2738 21.9102 19.2416C21.6815 19.1682 21.4435 19.1426 21.2055 19.1169H21.2055C20.9446 19.0888 20.6839 19.0606 20.4355 18.9697C20.2428 18.9006 20.0564 18.7699 19.9823 18.5691C19.879 18.2848 19.9263 17.9332 20.1439 17.7155C20.356 17.4989 20.6622 17.4155 20.9534 17.3856Z" fill="#212121"/>
<path fill-rule="evenodd" clip-rule="evenodd" d="M6.35398 25.0187C9.86319 25.0187 12.708 22.3517 12.708 19.0618C12.708 15.772 9.86319 13.105 6.35398 13.105C2.84478 13.105 0 15.772 0 19.0618C0 22.3517 2.84478 25.0187 6.35398 25.0187ZM2.77986 16.6765L6.11395 15.4877L9.53783 16.6554L8.98345 21.0699L6.11395 22.6603L3.28935 21.091L2.77986 16.6765ZM6.11917 16.325L4.04165 20.9509L4.81774 20.9377L5.23485 19.8941H7.09856L7.55526 20.9509L8.29703 20.9641L6.11917 16.325ZM6.12447 17.8071L6.82665 19.2759H5.50672L6.12447 17.8071Z" fill="#212121"/>
<path fill-rule="evenodd" clip-rule="evenodd" d="M6.35398 11.9137C9.86319 11.9137 12.708 9.24674 12.708 5.95686C12.708 2.66698 9.86319 0 6.35398 0C2.84478 0 0 2.66698 0 5.95686C0 9.24674 2.84478 11.9137 6.35398 11.9137ZM6.54413 2.00259L6.3586 1.58861C6.336 1.62035 6.3927 7.81466 6.39792 7.82808V7.89106C6.39053 8.03043 6.40552 8.16541 6.42833 8.3004C6.44266 8.41443 6.47479 8.52428 6.52306 8.62431C6.54956 8.67825 6.57998 8.73684 6.64428 8.73684C6.76571 8.63258 6.87978 8.51674 6.98537 8.39047C7.63452 7.59425 7.95649 6.6362 7.94128 5.52044C7.93759 5.14724 7.88827 4.77816 7.79746 4.41837C7.64604 3.8294 7.434 3.28482 7.11963 2.79443C6.98576 2.58806 6.84031 2.39266 6.68426 2.20959C6.63103 2.14661 6.58584 2.07899 6.54413 2.00259ZM6.3006 1.59737C6.29233 1.58193 6.28406 1.58999 6.27579 1.59805L6.27196 1.60169C6.2766 1.69079 6.24333 1.77021 6.19124 1.84607C6.14038 1.91299 6.07489 1.96606 6.00758 2.02061L5.98207 2.04132C5.55937 2.38295 5.22667 2.79559 4.96023 3.25712C4.60571 3.87825 4.42299 4.54393 4.37118 5.24474C4.34745 5.49753 4.45681 6.38951 4.54217 6.64688C4.77506 7.33012 5.1934 7.90264 5.73527 8.39954C5.82959 8.48434 5.92856 8.56479 6.03064 8.64243C6.02656 8.66755 6.02228 8.69264 6.0178 8.71768C6.01674 8.72501 6.01571 8.73233 6.01468 8.73964C6.00468 8.81065 5.9948 8.88081 5.95647 8.94399C5.95647 8.95274 5.95647 8.96148 5.9602 8.97447C6.02897 9.20528 6.04781 9.44034 6.05942 9.67989V9.76732C6.05942 9.82121 6.05843 9.84143 6.06792 9.85319C6.07682 9.86421 6.09493 9.8678 6.13171 9.88472C6.14087 9.8886 6.15035 9.89173 6.15995 9.89489C6.18248 9.90232 6.20571 9.90997 6.22721 9.92819C6.25021 9.92819 6.25393 9.90645 6.25393 9.88897L6.24254 9.74534V9.34466C6.23947 9.28697 6.24668 9.22961 6.25361 9.17456C6.25508 9.16287 6.25653 9.15129 6.25787 9.13983L6.25809 9.13958C6.26576 9.03966 6.30782 8.95673 6.3536 8.87405C6.3076 8.85232 6.27343 8.8091 6.2467 8.76089C6.234 8.73574 6.22251 8.70984 6.21227 8.68331C6.21324 8.68038 6.21421 8.6775 6.21524 8.67473C6.23401 8.61808 6.24832 8.56022 6.25805 8.50162L6.3535 7.8362L6.3006 1.59737Z" fill="#212121"/>
<path fill-rule="evenodd" clip-rule="evenodd" d="M20.4523 11.9137C23.8518 11.9137 26.6077 9.24674 26.6077 5.95686C26.6077 2.66698 23.8518 0 20.4523 0C17.0528 0 14.2969 2.66698 14.2969 5.95686C14.2969 9.24674 17.0528 11.9137 20.4523 11.9137ZM21.7774 6.92786V4.66973H21.4227L21.3329 5.57125H19.696V3.46047H22.0488L22.628 4.67406L22.8972 4.64372L22.6664 2.78H22.5297L22.0766 3.00971H19.696H19.2515H18.2685V3.22643L18.9737 3.44747V8.43184L18.2685 8.65288V8.8696H19.2515H19.696H22.1364L22.5767 9.13398H22.722L23.034 7.22259L22.7946 7.17925L22.1244 8.41884H19.696V6.02201H21.3329L21.4227 6.92786H21.7774Z" fill="#212121"/>
</svg>
