<svg width="25" height="26" viewBox="0 0 25 26" fill="none" xmlns="http://www.w3.org/2000/svg">
<path fill-rule="evenodd" clip-rule="evenodd" d="M5.05493 3.05176e-05C5.16726 3.05176e-05 5.2796 3.05176e-05 5.39194 3.05176e-05C6.92366 1.11554 8.84597 1.84431 10.3348 3.00229C10.3348 6.33813 10.3348 9.67397 10.3348 13.0098C11.5845 12.7267 12.8557 11.5026 14.2666 11.0083C14.2666 9.22919 14.2666 7.45008 14.2666 5.67096C15.857 4.53944 17.6641 3.62242 19.4341 2.6687C21.2041 3.62242 23.0111 4.53944 24.6016 5.67096C24.6016 7.52424 24.6016 9.37742 24.6016 11.2307C23.1274 12.329 21.3318 13.1091 19.7711 14.1218C19.7711 15.9009 19.7711 17.68 19.7711 19.4591C16.5669 21.3283 13.2595 23.0954 10.1101 25.0188C9.99776 25.0188 9.88543 25.0188 9.77309 25.0188C6.6017 23.006 3.02769 21.3916 -0.000244141 19.2367C-0.000244141 13.8253 -0.000244141 8.4138 -0.000244141 3.00229C1.54529 1.86343 3.42042 1.05082 5.05493 3.05176e-05ZM5.16726 0.889588C3.80563 1.58033 2.49533 2.32189 1.23546 3.11348C2.48735 3.87583 3.83944 4.539 5.05493 5.33738C6.49498 4.65008 7.88672 3.91497 9.09907 3.00229C7.68789 2.39772 6.56463 1.50794 5.16726 0.889588ZM19.4341 3.55826C18.0387 4.21576 16.7737 5.00213 15.5023 5.78216C16.7543 6.54451 18.1064 7.20767 19.3217 8.00605C20.7612 7.3182 22.1369 6.56719 23.3659 5.67096C21.9466 5.07429 20.8482 4.16005 19.4341 3.55826ZM0.786116 19.0143C3.77013 20.5825 6.53935 22.3635 9.54841 23.9069C9.54841 22.4243 9.54841 20.9417 9.54841 19.4591C8.02995 18.4788 6.24536 17.7618 4.83025 16.6792C4.83025 13.158 4.83025 9.63694 4.83025 6.11574C3.54635 5.27389 2.17045 4.5231 0.786116 3.78065C0.786116 8.85858 0.786116 13.9365 0.786116 19.0143ZM5.50428 6.11574C5.50428 9.34039 5.50428 12.565 5.50428 15.7897C6.99488 15.1524 8.36854 14.3994 9.54841 13.4546C9.4736 10.267 9.69816 6.78302 9.43608 3.78065C8.19801 4.63085 6.72561 5.24909 5.50428 6.11574ZM15.0529 10.8971C16.3974 11.642 17.6499 12.4777 19.0971 13.121C19.0971 11.6755 19.0971 10.2299 19.0971 8.78441C17.8144 7.94134 16.4261 7.20278 15.0529 6.44932C15.0529 7.93188 15.0529 9.41455 15.0529 10.8971ZM19.7711 8.67322C19.7711 10.1558 19.7711 11.6384 19.7711 13.121C21.2337 12.4931 22.4448 11.6162 23.8152 10.8971C23.7406 9.45125 23.9645 7.70994 23.7029 6.44932C22.4128 7.2109 21.1379 7.98759 19.7711 8.67322ZM14.6036 11.5643C11.8717 13.382 8.65017 14.7152 6.06596 16.6792C7.47546 17.2855 8.64601 18.1284 9.99776 18.7919C12.7891 17.0331 15.8393 15.5302 18.6477 13.7882C17.2209 13.1248 16.0121 12.2458 14.6036 11.5643ZM18.8724 14.5665C16.0502 16.1836 13.2763 17.8488 10.3348 19.3479C10.3348 20.8676 10.3348 22.3872 10.3348 23.9069C13.2955 22.2786 16.2422 20.6363 19.0971 18.9031C18.9516 17.5274 19.3907 15.5732 18.8724 14.5665Z" fill="#C4C4C4"/>
</svg>
