<svg width="26" height="26" viewBox="0 0 26 26" fill="none" xmlns="http://www.w3.org/2000/svg">
<g clip-path="url(#clip0_898_3474)">
<path d="M17.2528 0C15.9148 0.0925446 14.351 0.948974 13.4397 2.06422C12.6083 3.07593 11.9245 4.57861 12.1911 6.03893C13.653 6.08442 15.1635 5.20759 16.0388 4.07353C16.8575 3.0179 17.4771 1.52463 17.2528 0Z" fill="#212121"/>
<path d="M22.5409 8.42027C21.2563 6.80937 19.4509 5.87451 17.7458 5.87451C15.495 5.87451 14.5429 6.95211 12.979 6.95211C11.3665 6.95211 10.1415 5.87765 8.19492 5.87765C6.28285 5.87765 4.24687 7.04622 2.95595 9.04456C1.14114 11.8585 1.45171 17.1493 4.39275 21.6557C5.44525 23.2682 6.85067 25.0814 8.68901 25.0971C10.325 25.1128 10.7862 24.0478 13.0025 24.0368C15.2189 24.0242 15.6393 25.1112 17.2721 25.094C19.112 25.0799 20.5943 23.0706 21.6468 21.4581C22.4013 20.3021 22.6821 19.7201 23.2671 18.4151C19.0117 16.7948 18.3293 10.7433 22.5409 8.42027Z" fill="#212121"/>
</g>
<defs>
<clipPath id="clip0_898_3474">
<rect width="25.097" height="25.097" fill="white"/>
</clipPath>
</defs>
</svg>
