<svg width="32" height="39" viewBox="0 0 32 39" fill="none" xmlns="http://www.w3.org/2000/svg">
<path d="M15.9194 14.7036C20.0576 14.7036 24.0265 16.5203 26.9526 19.754C29.8789 22.9878 31.5228 27.3737 31.5228 31.9468V37.5773C31.5228 37.6706 31.489 37.7601 31.4298 37.8261C31.37 37.8921 31.2891 37.9292 31.2044 37.9292H0.634356C0.549906 37.9292 0.468896 37.8921 0.409157 37.8261C0.349482 37.7601 0.315918 37.6706 0.315918 37.5773V31.9468C0.315918 27.3737 1.95982 22.9878 4.88607 19.754C7.81226 16.5203 11.7811 14.7036 15.9194 14.7036Z" stroke="#212121" stroke-width="0.582838"/>
<path d="M15.9196 25.2612C22.075 25.2612 27.0649 19.7468 27.0649 12.9445C27.0649 6.14227 22.075 0.62793 15.9196 0.62793C9.76421 0.62793 4.77429 6.14227 4.77429 12.9445C4.77429 19.7468 9.76421 25.2612 15.9196 25.2612Z" stroke="#212121" stroke-width="0.582838"/>
</svg>
