<svg width="26" height="26" viewBox="0 0 26 26" fill="none" xmlns="http://www.w3.org/2000/svg">
<path d="M22.729 5.26229C23.012 4.90705 23.1806 4.44946 23.1806 3.96177C23.1806 2.80575 22.2413 1.86649 21.0853 1.86649C20.5916 1.86649 20.14 2.03507 19.7848 2.31806C17.7376 0.860992 15.2269 0 12.5235 0C5.60548 0 0 5.60548 0 12.5235C0 19.4416 5.60548 25.047 12.5235 25.047C19.4416 25.047 25.047 19.4416 25.047 12.5235C25.047 9.82013 24.1861 7.3094 22.729 5.26229ZM20.6999 20.6999C19.6403 21.7596 18.3999 22.5965 17.0212 23.1806C15.5942 23.7827 14.0829 24.0897 12.5175 24.0897C10.9581 24.0897 9.44081 23.7827 8.01385 23.1806C6.63506 22.5965 5.40077 21.7656 4.33507 20.6999C3.27538 19.6403 2.43847 18.3999 1.85444 17.0212C1.25235 15.5942 0.945285 14.0829 0.945285 12.5175C0.945285 10.9581 1.25235 9.44081 1.85444 8.01385C2.43847 6.63506 3.26936 5.40077 4.33507 4.33507C5.40077 3.26936 6.63506 2.43847 8.01385 1.85444C9.44081 1.25235 10.9521 0.945285 12.5175 0.945285C14.0769 0.945285 15.5942 1.25235 17.0212 1.85444C17.7858 2.17957 18.5083 2.58298 19.1827 3.05863C19.0562 3.32957 18.984 3.63062 18.984 3.95575C18.984 5.11176 19.9232 6.05103 21.0793 6.05103C21.3984 6.05103 21.6994 5.97878 21.9764 5.85234C22.452 6.52668 22.8554 7.24919 23.1806 8.01385C23.7827 9.44081 24.0897 10.9521 24.0897 12.5175C24.0897 14.0769 23.7827 15.5942 23.1806 17.0212C22.5965 18.3999 21.7656 19.6403 20.6999 20.6999Z" fill="#212121"/>
<path d="M12.5232 18.3095C15.7188 18.3095 18.3093 15.719 18.3093 12.5234C18.3093 9.32783 15.7188 6.7373 12.5232 6.7373C9.32759 6.7373 6.73706 9.32783 6.73706 12.5234C6.73706 15.719 9.32759 18.3095 12.5232 18.3095Z" fill="#212121"/>
</svg>
