<svg width="26" height="26" viewBox="0 0 26 26" fill="none" xmlns="http://www.w3.org/2000/svg">
<g clip-path="url(#clip0_665_1277)">
<path d="M17.2528 0.00012207C15.9148 0.0926667 14.351 0.949096 13.4397 2.06434C12.6083 3.07605 11.9245 4.57873 12.1911 6.03905C13.653 6.08454 15.1635 5.20772 16.0388 4.07365C16.8575 3.01802 17.4771 1.52476 17.2528 0.00012207Z" fill="#C4C4C4"/>
<path d="M22.5409 8.42009C21.2563 6.80919 19.4509 5.87433 17.7458 5.87433C15.495 5.87433 14.5429 6.95192 12.979 6.95192C11.3665 6.95192 10.1415 5.87747 8.19492 5.87747C6.28285 5.87747 4.24687 7.04604 2.95595 9.04437C1.14114 11.8584 1.45171 17.1491 4.39275 21.6555C5.44525 23.268 6.85067 25.0813 8.68901 25.0969C10.325 25.1126 10.7862 24.0476 13.0025 24.0366C15.2189 24.0241 15.6393 25.1111 17.2721 25.0938C19.112 25.0797 20.5943 23.0704 21.6468 21.4579C22.4013 20.3019 22.6821 19.7199 23.2671 18.4149C19.0117 16.7946 18.3293 10.7431 22.5409 8.42009Z" fill="#C4C4C4"/>
</g>
<defs>
<clipPath id="clip0_665_1277">
<rect width="25.097" height="25.097" fill="white"/>
</clipPath>
</defs>
</svg>
