<svg width="79" height="32" viewBox="0 0 79 32" fill="none" xmlns="http://www.w3.org/2000/svg">
<path d="M13.473 12.4336C16.7811 12.4336 19.9537 13.8858 22.2928 16.4708C24.632 19.0557 25.9461 22.5617 25.9461 26.2174V30.7183C25.9461 30.7929 25.9192 30.8644 25.8715 30.9172C25.8238 30.9699 25.759 30.9996 25.6915 30.9996H1.25455C1.18704 30.9996 1.12229 30.9699 1.07456 30.9172C1.02682 30.8644 1 30.7929 1 30.7183V26.2174C1 22.5617 2.31412 19.0557 4.65327 16.4708C6.9924 13.8858 10.165 12.4336 13.473 12.4336Z" stroke="#212121"/>
<path d="M13.4733 20.8729C18.3938 20.8729 22.3826 16.4649 22.3826 11.0273C22.3826 5.58968 18.3938 1.18164 13.4733 1.18164C8.55279 1.18164 4.56396 5.58968 4.56396 11.0273C4.56396 16.4649 8.55279 20.8729 13.4733 20.8729Z" stroke="#212121"/>
<path d="M39.4374 12.252C42.7454 12.252 45.918 13.7042 48.2572 16.2892C50.5963 18.8741 51.9104 22.3801 51.9104 26.0358V30.5366C51.9104 30.6112 51.8834 30.6828 51.8361 30.7356C51.7882 30.7883 51.7236 30.8179 51.6559 30.8179H27.2189C27.1514 30.8179 27.0866 30.7883 27.0389 30.7356C26.9912 30.6828 26.9644 30.6112 26.9644 30.5366V26.0358C26.9644 22.3801 28.2785 18.8741 30.6176 16.2892C32.9568 13.7042 36.1293 12.252 39.4374 12.252Z" stroke="#FFB81D"/>
<path d="M39.4376 20.6912C44.3581 20.6912 48.3469 16.2832 48.3469 10.8456C48.3469 5.40804 44.3581 1 39.4376 1C34.5171 1 30.5283 5.40804 30.5283 10.8456C30.5283 16.2832 34.5171 20.6912 39.4376 20.6912Z" stroke="#FFB81D"/>
<path d="M65.4015 12.252C68.7097 12.252 71.8819 13.7042 74.2212 16.2892C76.5605 18.8741 77.8745 22.3801 77.8745 26.0358V30.5366C77.8745 30.6112 77.8476 30.6828 77.8002 30.7356C77.7524 30.7883 77.6877 30.8179 77.62 30.8179H53.183C53.1153 30.8179 53.0507 30.7883 53.0028 30.7356C52.9555 30.6828 52.9285 30.6112 52.9285 30.5366V26.0358C52.9285 22.3801 54.2425 18.8741 56.5818 16.2892C58.9211 13.7042 62.0933 12.252 65.4015 12.252Z" stroke="#212121"/>
<path d="M65.4015 20.6912C70.322 20.6912 74.3108 16.2832 74.3108 10.8456C74.3108 5.40804 70.322 1 65.4015 1C60.481 1 56.4922 5.40804 56.4922 10.8456C56.4922 16.2832 60.481 20.6912 65.4015 20.6912Z" stroke="#212121"/>
</svg>
