<svg width="22" height="26" viewBox="0 0 22 26" fill="none" xmlns="http://www.w3.org/2000/svg">
<path d="M1.55334 8.12939C1.12092 8.12939 0.754023 8.28019 0.452432 8.58178C0.150841 8.88337 0 9.24527 0 9.66767V16.153C0 16.586 0.150796 16.9526 0.452432 17.2542C0.754023 17.5558 1.12092 17.7066 1.55334 17.7066C1.98544 17.7066 2.35011 17.5558 2.64702 17.2542C2.94335 16.9526 3.09192 16.586 3.09192 16.153V9.66767C3.09192 9.24523 2.94113 8.88337 2.63949 8.58178C2.33785 8.28019 1.97573 8.12939 1.55334 8.12939Z" fill="#212121"/>
<path d="M14.0414 2.30739L15.1123 0.33194C15.1826 0.201157 15.1576 0.100868 15.0371 0.0303487C14.9062 -0.0304596 14.8057 0.000352957 14.7355 0.120608L13.6496 2.11185C12.6942 1.68942 11.6836 1.47781 10.618 1.47781C9.55212 1.47781 8.54147 1.68946 7.58637 2.11185L6.50049 0.120608C6.42992 0.000352957 6.32941 -0.0301873 6.1989 0.0303487C6.0781 0.101186 6.05309 0.201157 6.12366 0.33194L7.19457 2.30739C6.10868 2.86116 5.24384 3.63238 4.60036 4.62274C3.95689 5.61364 3.63501 6.69649 3.63501 7.87317H17.5858C17.5858 6.69676 17.2639 5.61387 16.6205 4.62274C15.9769 3.63238 15.1171 2.86116 14.0414 2.30739ZM7.85021 5.18072C7.7344 5.2968 7.59608 5.35457 7.4353 5.35457C7.27421 5.35457 7.1387 5.2968 7.02816 5.18072C6.91762 5.06519 6.86234 4.92742 6.86234 4.76609C6.86234 4.60531 6.91762 4.46727 7.02816 4.35146C7.1387 4.23593 7.27453 4.17816 7.4353 4.17816C7.59608 4.17816 7.7344 4.23593 7.85021 4.35146C7.96574 4.46754 8.02378 4.60531 8.02378 4.76609C8.02347 4.92714 7.96547 5.06519 7.85021 5.18072ZM14.2072 5.18072C14.0965 5.2968 13.9606 5.35457 13.8001 5.35457C13.639 5.35457 13.5007 5.2968 13.3851 5.18072C13.2694 5.06519 13.2116 4.92742 13.2116 4.76609C13.2116 4.60531 13.2694 4.46727 13.3851 4.35146C13.5007 4.23593 13.639 4.17816 13.8001 4.17816C13.9609 4.17816 14.0964 4.23593 14.2072 4.35146C14.3179 4.46754 14.373 4.60531 14.373 4.76609C14.373 4.92714 14.3178 5.06519 14.2072 5.18072Z" fill="#212121"/>
<path d="M3.69507 18.4604C3.69507 18.9234 3.85585 19.3153 4.17745 19.6369C4.49933 19.9585 4.89122 20.1193 5.35387 20.1193H6.47002L6.48531 23.5433C6.48531 23.9757 6.6361 24.3429 6.9377 24.6445C7.23929 24.9461 7.60146 25.0969 8.02358 25.0969C8.45573 25.0969 8.82285 24.9461 9.12448 24.6445C9.42612 24.3429 9.57691 23.9757 9.57691 23.5433V20.1196H11.6582V23.5433C11.6582 23.9757 11.8089 24.3429 12.1106 24.6445C12.4122 24.9461 12.779 25.0969 13.2115 25.0969C13.6436 25.0969 14.0107 24.9461 14.3124 24.6445C14.614 24.3429 14.7648 23.9757 14.7648 23.5433V20.1196H15.896C16.3484 20.1196 16.7352 19.9588 17.0574 19.6372C17.379 19.3156 17.5399 18.9237 17.5399 18.4607V8.41553H3.69507V18.4604Z" fill="#212121"/>
<path d="M19.6831 8.12939C19.2607 8.12939 18.8988 8.27797 18.5972 8.57429C18.2956 8.87117 18.1448 9.23583 18.1448 9.66767V16.153C18.1448 16.586 18.2955 16.9526 18.5972 17.2542C18.8988 17.5558 19.2609 17.7066 19.6831 17.7066C20.1152 17.7066 20.4824 17.5558 20.784 17.2542C21.0856 16.9526 21.2364 16.586 21.2364 16.153V9.66767C21.2364 9.23579 21.0856 8.87117 20.784 8.57429C20.4824 8.27797 20.1152 8.12939 19.6831 8.12939Z" fill="#212121"/>
</svg>
