<svg width="86" height="27" viewBox="0 0 86 27" fill="none" xmlns="http://www.w3.org/2000/svg">
<path fill-rule="evenodd" clip-rule="evenodd" d="M4.90394 16.0157L11.4821 9.23892L12.8376 10.635L6.2578 17.4107L4.90394 16.0157ZM17.8873 11.2606L6.95607 0.00268555L4.74544 2.2795L8.84416 6.50093L0 15.6093L10.9306 26.8678L13.1413 24.591L9.04255 20.3673L17.8873 11.2606Z" fill="#071529"/>
<path fill-rule="evenodd" clip-rule="evenodd" d="M25.4224 3.27295V6.72212H29.06V8.71412H25.4224V16.4743C25.4224 18.2591 25.9128 19.27 27.3277 19.27C28.0204 19.27 28.4249 19.21 28.8001 19.0919L28.9154 21.0839C28.4249 21.262 27.6452 21.4406 26.6638 21.4406C25.48 21.4406 24.5274 21.0234 23.9211 20.3402C23.2284 19.5377 22.9397 18.2591 22.9397 16.5634V8.71412H20.7739V6.72212H22.9397V4.04577L25.4224 3.27295Z" fill="#071529"/>
<path fill-rule="evenodd" clip-rule="evenodd" d="M31.669 13.947C31.669 17.0994 33.4009 19.4772 35.8841 19.4772C38.3092 19.4772 40.128 17.1285 40.128 13.8876C40.128 11.4493 38.9438 8.38712 35.9418 8.38712C32.968 8.38712 31.669 11.2415 31.669 13.947ZM42.726 13.7986C42.726 19.1205 39.1172 21.4407 35.7689 21.4407C32.0154 21.4407 29.071 18.5857 29.071 14.0366C29.071 9.24956 32.16 6.4248 36 6.4248C40.0122 6.4248 42.726 9.42764 42.726 13.7986Z" fill="#071529"/>
<path fill-rule="evenodd" clip-rule="evenodd" d="M46.5023 15.2558C46.5023 15.6428 46.5311 15.9995 46.6181 16.326C47.0803 18.1399 48.6093 19.3882 50.4292 19.3882C53.1131 19.3882 54.672 17.1285 54.672 13.8283C54.672 10.9739 53.2001 8.50584 50.5157 8.50584C48.7828 8.50584 47.1374 9.75526 46.6752 11.717C46.5888 12.0441 46.5023 12.431 46.5023 12.7575V15.2558ZM43.9908 11.4202C43.9908 9.57661 43.9326 8.08975 43.8755 6.72218H46.1266L46.2718 9.18962H46.3288C47.3397 7.43564 49.0144 6.4248 51.2948 6.4248C54.7014 6.4248 57.2417 9.36828 57.2417 13.709C57.2417 18.883 54.1522 21.4407 50.862 21.4407C49.0144 21.4407 47.3973 20.6079 46.5594 19.181H46.5023V27H43.9908V11.4202Z" fill="#071529"/>
<path fill-rule="evenodd" clip-rule="evenodd" d="M62.0913 3.27295V6.72212H65.7284V8.71412H62.0913V16.4743C62.0913 18.2591 62.5818 19.27 63.9966 19.27C64.6893 19.27 65.0928 19.21 65.4685 19.0919L65.5843 21.0839C65.0928 21.262 64.3136 21.4406 63.3321 21.4406C62.149 21.4406 61.1963 21.0234 60.5901 20.3402C59.8968 19.5377 59.6086 18.2591 59.6086 16.5634V8.71412H57.4429V6.72212H59.6086V4.04577L62.0913 3.27295Z" fill="#071529"/>
<path fill-rule="evenodd" clip-rule="evenodd" d="M74.8398 13.7689C72.0678 13.709 68.9217 14.2147 68.9217 17.0103C68.9217 18.7341 70.0179 19.5075 71.2886 19.5075C73.1362 19.5075 74.3205 18.318 74.724 17.0994C74.811 16.802 74.8398 16.5041 74.8398 16.2666V13.7689ZM77.2937 17.6639C77.2937 18.9133 77.3513 20.1319 77.4949 21.1131H75.2144L75.0133 19.2991H74.9268C74.146 20.4293 72.6458 21.4407 70.6535 21.4407C67.8239 21.4407 66.3813 19.3882 66.3813 17.3071C66.3813 13.8283 69.3839 11.9253 74.7816 11.955V11.6582C74.7816 10.4978 74.4646 8.32776 71.6056 8.35744C70.2778 8.35744 68.9217 8.74385 67.9397 9.42764L67.3628 7.67365C68.5166 6.92994 70.2202 6.4248 71.9813 6.4248C76.2546 6.4248 77.2937 9.42764 77.2937 12.2821V17.6639Z" fill="#071529"/>
<path fill-rule="evenodd" clip-rule="evenodd" d="M79.1763 21.113H81.7166V0.00244141H79.1763V21.113Z" fill="#071529"/>
<path fill-rule="evenodd" clip-rule="evenodd" d="M84.6383 2.7C83.9066 2.7 83.3125 2.09505 83.3125 1.35C83.3125 0.598585 83.9066 0 84.6383 0C85.3763 0 85.9642 0.598585 85.9642 1.35C85.9642 2.09505 85.3763 2.7 84.6383 2.7ZM84.6383 0.191038C84.0067 0.191038 83.4939 0.700472 83.4939 1.35C83.4939 1.98679 84.0067 2.51533 84.6383 2.51533C85.27 2.51533 85.7765 1.98679 85.7765 1.35C85.7765 0.700472 85.27 0.191038 84.6383 0.191038ZM85.0011 2.12689L84.6071 1.51557H84.3319V2.12689H84.1318V0.579481H84.7509C85.0136 0.579481 85.2325 0.764151 85.2325 1.05071C85.2325 1.39458 84.9323 1.5092 84.8447 1.5092L85.2512 2.12689H85.0011ZM84.7509 0.764151H84.3319V1.32453H84.7509C84.8947 1.32453 85.0261 1.20991 85.0261 1.05071C85.0261 0.878774 84.8947 0.764151 84.7509 0.764151Z" fill="#071529"/>
</svg>
