<svg width="89" height="27" viewBox="0 0 89 27" fill="none" xmlns="http://www.w3.org/2000/svg">
<path d="M57.423 6.19139C53.5544 6.21002 50.403 9.39927 50.4207 13.3702C50.4385 17.3412 53.6214 20.5005 57.49 20.4827C61.3586 20.4649 64.5108 17.2748 64.4922 13.3054C64.4736 9.33609 61.2916 6.17437 57.4214 6.19301L57.423 6.19139ZM57.4763 17.5705C56.3795 17.577 55.3255 17.1452 54.5462 16.3716C53.7668 15.5979 53.3347 14.544 53.3226 13.444C53.3105 12.3439 53.7466 11.2867 54.5179 10.505C55.2892 9.7233 56.3399 9.28991 57.4367 9.27776C58.5335 9.26561 59.5874 9.70305 60.3668 10.4767C61.1462 11.2503 61.5783 12.3042 61.5904 13.4043C61.6017 15.6117 59.6763 17.5599 57.4763 17.5713V17.5705ZM73.096 9.55724C71.0729 9.56696 69.4972 11.2503 69.5068 13.2795L69.5392 20.072L66.4604 20.0866L66.3982 6.58832L69.477 6.57374L69.4875 8.69046C69.4875 8.69046 70.7958 6.56807 73.4352 6.55592L74.3155 6.55106L74.3301 9.54995L73.096 9.55724ZM42.3847 6.70335L44.7156 15.956L47.1353 6.68067L50.214 6.6669L46.4052 20.1911L43.4153 20.2048L40.9972 10.7772L38.6664 20.2267L35.6757 20.2405L31.6553 6.76087L34.6452 6.7471L37.3265 15.9981L39.4829 6.72441L42.3847 6.70335ZM83.3118 12.6865C85.4157 11.4423 86.9018 9.14086 86.8896 6.49435L83.8109 6.50893C83.8222 8.80306 81.9824 10.6646 79.784 10.6727L79.3439 10.6743L79.2954 0L76.2167 0.014581L76.3112 20.0396L79.3883 20.0258L79.3592 13.6748L79.7105 13.6732C80.0627 13.6716 80.4156 13.8466 80.5053 14.1107L84.8423 19.9999L88.4484 19.9837L83.3118 12.6865Z" fill="#62C63A"/>
<path d="M24.4768 6.54907C21.0845 6.56529 18.5048 8.78542 17.5397 12.3229C15.9202 9.85695 14.6566 7.03657 13.9317 4.65503L10.3606 4.67125L10.4049 14.0344C10.4088 14.9246 10.0553 15.78 9.42192 16.4124C8.78858 17.0449 7.92728 17.4027 7.02736 17.4072C6.12743 17.411 5.26276 17.0613 4.62342 16.4348C3.98408 15.8083 3.62237 14.9563 3.61782 14.066L3.57272 4.70289L0 4.71911L0.04428 14.0823C0.0631399 17.9677 3.20126 21.0468 7.04212 21.0282C10.883 21.0095 13.994 17.9036 13.976 14.0174L13.9678 12.4275C14.6877 13.8365 15.5881 15.3339 16.5778 16.6552L14.3942 26.9999L18.0546 26.9836L19.629 19.4675C21.0616 20.3452 22.663 20.8667 24.5457 20.8578C28.4751 20.8392 31.6756 17.6456 31.6551 13.5818C31.6401 11.7094 30.877 9.91893 29.5323 8.60118C28.1876 7.28342 26.3705 6.54542 24.4777 6.54826L24.4768 6.54907ZM24.5277 17.2376C23.0993 17.2441 21.6684 16.6325 20.5032 15.6656L20.8533 14.2518V14.1707C21.1157 12.6668 21.9045 10.1019 24.5843 10.0906C25.5291 10.089 26.4364 10.4567 27.1086 11.1136C27.7807 11.7704 28.1634 12.6634 28.1734 13.598C28.093 15.6299 26.4047 17.2279 24.5285 17.2368L24.5277 17.2376Z" fill="#62C63A"/>
</svg>
