<svg width="20" height="15" viewBox="0 0 20 15" fill="none" xmlns="http://www.w3.org/2000/svg">
<path d="M1.50159 8.66895L16.0874 8.66895L11.4334 12.9433C11.0496 13.2912 11.0016 13.9373 11.3374 14.3349C11.6733 14.7325 12.297 14.7822 12.6809 14.4343L19.2061 8.42044C19.3981 8.22163 19.542 7.97313 19.542 7.67492C19.542 7.37671 19.446 7.1282 19.2061 6.92939L12.7289 0.9155C12.5369 0.766395 12.297 0.666992 12.1051 0.666992C11.8172 0.666992 11.5773 0.766396 11.3854 1.0149C11.0496 1.41252 11.0496 2.05864 11.4814 2.40655L16.0874 6.68089L1.50159 6.68089C0.97381 6.68089 0.541992 7.1282 0.541992 7.67492C0.541992 8.22163 0.97381 8.66895 1.50159 8.66895Z" fill="#FFAD00"/>
</svg>
