<svg width="1024" height="225" viewBox="0 0 1024 225" fill="none" xmlns="http://www.w3.org/2000/svg">
<path d="M165.292 168.035L111.08 195.674V140.396L165.292 168.035Z" fill="#05164D"/>
<path d="M55.5401 111.901L110.356 84.018L55.5401 56.0122H55.418L0.482721 84.018L0 84.2625V139.785L0.363397 140.029H0.482721L55.418 168.035H55.5401V168.158L110.356 196.163L111.08 195.674V196.53L166.62 224.781V168.769L165.291 168.035L111.08 140.396L110.356 140.029L55.5401 112.146L55.418 112.024L55.5401 111.901Z" fill="#FFAD00"/>
<path d="M111.08 28.3726V83.6505L110.356 84.0174L55.5399 56.0116V55.8893L110.356 27.8834L111.08 28.3726Z" fill="#FFAD00"/>
<path d="M110.356 27.8835L55.5399 0V56.0115L110.356 84.0173L111.08 83.6504V84.3845L165.291 112.023L111.08 139.662V140.396L165.291 168.035L166.62 167.423L220.229 140.029L222.16 139.051V84.9959L220.229 84.0176L166.62 56.6233L165.291 56.0119L111.08 28.3726L110.356 27.8835Z" fill="#24315B"/>
<path d="M222.16 139.051V84.9958L220.228 84.0175L166.686 111.256V111.247L165.281 112.03L166.686 112.794V112.791L220.228 140.029L222.16 139.051Z" fill="#05164D"/>
<path d="M166.62 56.6232V111.29L165.292 112.023L111.08 84.3844V83.6507L165.292 56.0117L166.62 56.6232Z" fill="#05164D"/>
<path d="M110.356 84.0175L55.54 111.901V56.0117L110.356 84.0175Z" fill="#FCBB31"/>
<path d="M55.4193 112.023L0.482957 140.029H0.362218L0 139.785V84.2621L0.482957 84.0175L55.4193 112.023Z" fill="#FCBB31"/>
<path d="M55.5401 112.146V168.035H55.4194L0.483032 140.029L55.4194 112.023L55.5401 112.146Z" fill="#FFAD00"/>
<path d="M111.08 140.396V195.674L110.356 196.163L55.54 168.157V168.035L110.356 140.029L111.08 140.396Z" fill="#FFAD00"/>
<path d="M166.62 168.769V224.78L111.08 196.53V195.674L165.292 168.035L166.62 168.769Z" fill="#FFAD00"/>
<path d="M110.356 140.029L55.54 168.035V112.146L110.356 140.029Z" fill="#FCBB31"/>
<path d="M165.292 168.035L111.08 195.674V140.396L165.292 168.035Z" fill="#FCBB31"/>
<path d="M166.62 112.757V167.424L165.292 168.035L111.08 140.396V139.662L165.292 112.023L166.62 112.757Z" fill="#05164D"/>
<path d="M220.228 140.029L166.62 167.423V112.757L220.228 140.029Z" fill="#24315B"/>
<path d="M55.5401 56.0117V111.901L55.4194 112.023L0.483032 84.0176L55.4194 56.0117H55.5401Z" fill="#FFAD00"/>
<path d="M111.08 28.3727V83.6506L110.356 84.0175L55.54 56.0117V55.8894L110.356 27.8835L111.08 28.3727Z" fill="#FFAD00"/>
<path d="M111.08 28.3727V83.6506L110.356 84.0175L55.54 56.0117V55.8894L110.356 27.8835L111.08 28.3727Z" fill="#05164D"/>
<path d="M220.228 84.0175L166.62 111.29V56.6232L220.228 84.0175Z" fill="#24315B"/>
<path d="M165.292 56.0116L111.08 83.6506V28.3727L165.292 56.0116Z" fill="#24315B"/>
<path d="M110.356 27.8835L55.54 55.8894V0L110.356 27.8835Z" fill="#24315B"/>
<path d="M327.176 33.8447H343.926L319.667 132.693H288.186L263.927 33.8447H280.677L300.316 118.551H307.537L327.176 33.8447Z" fill="#05164D"/>
<path d="M406.072 82.7636V115.665C406.168 117.781 406.698 119.369 407.661 120.427C408.72 121.389 410.308 122.014 412.426 122.303L411.993 134.28C403.714 134.28 397.312 132.5 392.787 128.941C385.085 132.5 377.336 134.28 369.538 134.28C355.194 134.28 348.022 126.632 348.022 111.336C348.022 104.024 349.947 98.7332 353.798 95.4623C357.745 92.1915 363.762 90.2193 371.848 89.5459L390.476 87.9586V82.7636C390.476 78.9155 389.61 76.2219 387.877 74.6826C386.241 73.1434 383.786 72.3738 380.513 72.3738C374.351 72.3738 366.65 72.7586 357.408 73.5282L352.787 73.8168L352.209 62.7054C362.703 60.2042 372.33 58.9535 381.09 58.9535C389.947 58.9535 396.301 60.8776 400.152 64.7257C404.099 68.4776 406.072 74.4902 406.072 82.7636ZM373.726 100.657C367.083 101.234 363.762 104.842 363.762 111.48C363.762 118.118 366.698 121.437 372.57 121.437C377.384 121.437 382.486 120.667 387.877 119.128L390.476 118.262V99.0699L373.726 100.657Z" fill="#05164D"/>
<path d="M426.698 132.693V30.5258H442.438V132.693H426.698Z" fill="#05164D"/>
<path d="M506.11 60.5409H521.706V132.693H506.11V128.219C499.083 132.26 492.585 134.28 486.616 134.28C476.7 134.28 470.057 131.634 466.688 126.343C463.319 120.956 461.634 111.576 461.634 98.2041V60.5409H477.374V98.3484C477.374 107.007 478.096 112.827 479.54 115.809C480.984 118.791 484.353 120.283 489.648 120.283C494.847 120.283 499.612 119.321 503.944 117.396L506.11 116.531V60.5409Z" fill="#05164D"/>
<path d="M592.171 119.705L596.214 119.272L596.503 130.961C585.528 133.174 575.805 134.28 567.333 134.28C556.647 134.28 548.946 131.346 544.229 125.477C539.608 119.609 537.297 110.229 537.297 97.3383C537.297 71.7485 547.742 58.9535 568.633 58.9535C588.849 58.9535 598.958 69.9687 598.958 91.9991L597.947 103.255H553.182C553.278 109.219 554.578 113.596 557.081 116.386C559.584 119.176 564.253 120.571 571.088 120.571C577.923 120.571 584.951 120.283 592.171 119.705ZM583.507 91.1332C583.507 84.0143 582.351 79.0598 580.041 76.27C577.827 73.3839 574.024 71.9409 568.633 71.9409C563.242 71.9409 559.295 73.432 556.792 76.4143C554.385 79.3965 553.133 84.3029 553.037 91.1332H583.507Z" fill="#05164D"/>
<path d="M649.183 134.28C634.743 134.28 624.923 130.288 619.725 122.303C614.623 114.318 612.071 101.186 612.071 82.9079C612.071 64.6295 614.671 51.6422 619.869 43.946C625.068 36.1536 634.839 32.2574 649.183 32.2574C657.751 32.2574 667.186 33.4599 677.487 35.865L676.909 48.8523C668.245 47.3131 659.58 46.5434 650.916 46.5434C642.252 46.5434 636.379 49.1409 633.299 54.3358C630.218 59.4346 628.678 69.1029 628.678 83.3408C628.678 97.4826 630.17 107.151 633.154 112.346C636.139 117.445 641.963 119.994 650.627 119.994C659.292 119.994 668.052 119.272 676.909 117.829L677.342 131.105C667.426 133.222 658.04 134.28 649.183 134.28Z" fill="#FFAD00"/>
<path d="M695.271 68.3333C700.277 62.0801 708.556 58.9535 720.108 58.9535C731.661 58.9535 739.892 62.0801 744.801 68.3333C749.807 74.5864 752.31 83.9662 752.31 96.4725C752.31 108.979 749.904 118.407 745.09 124.756C740.277 131.105 731.949 134.28 720.108 134.28C708.267 134.28 699.94 131.105 695.126 124.756C690.313 118.407 687.906 108.979 687.906 96.4725C687.906 83.9662 690.361 74.5864 695.271 68.3333ZM707.112 115.232C709.326 119.08 713.658 121.004 720.108 121.004C726.558 121.004 730.891 119.08 733.105 115.232C735.319 111.384 736.426 105.083 736.426 96.3282C736.426 87.5737 735.223 81.3687 732.816 77.713C730.505 74.0573 726.27 72.2295 720.108 72.2295C713.947 72.2295 709.663 74.0573 707.256 77.713C704.946 81.3687 703.791 87.5737 703.791 96.3282C703.791 105.083 704.898 111.384 707.112 115.232Z" fill="#FFAD00"/>
<path d="M826.862 30.5258V132.693H811.267V128.941C804.239 132.5 797.789 134.28 791.917 134.28C782.482 134.28 775.551 131.442 771.122 125.766C766.79 120.09 764.624 110.566 764.624 97.194C764.624 83.8219 767.031 74.1054 771.845 68.0447C776.754 61.9839 784.359 58.9535 794.66 58.9535C798.126 58.9535 803.613 59.5789 811.122 60.8295V30.5258H826.862ZM808.668 117.685L811.122 116.675V73.9611C805.346 72.9991 800.003 72.5181 795.094 72.5181C785.37 72.5181 780.509 80.5991 780.509 96.7611C780.509 105.612 781.616 111.769 783.83 115.232C786.141 118.599 789.751 120.283 794.66 120.283C799.57 120.283 804.239 119.417 808.668 117.685Z" fill="#FFAD00"/>
<path d="M897.337 119.705L901.381 119.272L901.669 130.961C890.695 133.174 880.972 134.28 872.5 134.28C861.814 134.28 854.112 131.346 849.395 125.477C844.774 119.609 842.464 110.229 842.464 97.3383C842.464 71.7485 852.909 58.9535 873.799 58.9535C894.016 58.9535 904.124 69.9687 904.124 91.9991L903.114 103.255H858.348C858.445 109.219 859.744 113.596 862.247 116.386C864.75 119.176 869.419 120.571 876.254 120.571C883.089 120.571 890.117 120.283 897.337 119.705ZM888.673 91.1332C888.673 84.0143 887.518 79.0598 885.207 76.27C882.993 73.3839 879.191 71.9409 873.799 71.9409C868.408 71.9409 864.461 73.432 861.958 76.4143C859.552 79.3965 858.3 84.3029 858.204 91.1332H888.673Z" fill="#FFAD00"/>
<path d="M919.26 132.693V60.5409H934.855V69.1991C943.038 63.908 951.221 60.4928 959.404 58.9535V74.6826C951.125 76.3181 944.049 78.4345 938.177 81.032L935 82.3307V132.693H919.26Z" fill="#FFAD00"/>
<path d="M1021.55 75.4042C1010.19 73.8649 1001.95 73.0953 996.852 73.0953C991.75 73.0953 988.188 73.7206 986.166 74.9712C984.241 76.1257 983.278 78.0016 983.278 80.5991C983.278 83.1965 984.337 85.0244 986.455 86.0826C988.669 87.1408 993.772 88.3915 1001.76 89.8345C1009.85 91.1813 1015.58 93.3459 1018.95 96.3282C1022.32 99.3104 1024 104.602 1024 112.202C1024 119.802 1021.55 125.381 1016.64 128.941C1011.82 132.5 1004.75 134.28 995.408 134.28C989.536 134.28 982.123 133.462 973.17 131.827L968.693 131.105L969.271 117.974C980.823 119.513 989.151 120.283 994.253 120.283C999.355 120.283 1002.97 119.657 1005.08 118.407C1007.3 117.156 1008.4 115.088 1008.4 112.202C1008.4 109.315 1007.35 107.343 1005.23 106.285C1003.21 105.131 998.248 103.928 990.354 102.678C982.556 101.331 976.828 99.2623 973.17 96.4725C969.512 93.6826 967.682 88.5839 967.682 81.1763C967.682 73.7687 970.185 68.2371 975.191 64.5814C980.294 60.9257 986.792 59.0978 994.686 59.0978C1000.85 59.0978 1008.4 59.8675 1017.36 61.4067L1021.83 62.2725L1021.55 75.4042Z" fill="#FFAD00"/>
<path d="M283.254 196.445C278.77 196.445 275.176 194.992 272.472 192.087C269.781 189.182 268.436 185.402 268.436 180.748C268.436 175.747 269.81 171.758 272.558 168.781C275.306 165.803 279.038 164.314 283.753 164.314C288.121 164.314 291.636 165.76 294.297 168.65C296.973 171.541 298.311 175.321 298.311 179.989C298.311 185.062 296.944 189.073 294.21 192.022C291.477 194.97 287.825 196.445 283.254 196.445ZM283.493 168.846C280.644 168.846 278.322 169.908 276.529 172.033C274.75 174.157 273.86 176.954 273.86 180.423C273.86 183.877 274.728 186.66 276.464 188.77C278.199 190.88 280.47 191.935 283.276 191.935C286.255 191.935 288.606 190.931 290.327 188.921C292.048 186.912 292.909 184.101 292.909 180.488C292.909 176.773 292.07 173.904 290.392 171.881C288.729 169.857 286.429 168.846 283.493 168.846Z" fill="#3F3F3F"/>
<path d="M323.239 195.924H318.205V183.415C318.205 179.267 316.737 177.192 313.801 177.192C312.268 177.192 311.003 177.771 310.005 178.927C309.007 180.069 308.508 181.514 308.508 183.263V195.924H303.453V173.724H308.508V177.409H308.594C310.258 174.605 312.659 173.203 315.797 173.203C318.213 173.203 320.057 173.991 321.33 175.566C322.602 177.127 323.239 179.389 323.239 182.352V195.924Z" fill="#3F3F3F"/>
<path d="M341.094 185.648H329.248V181.94H341.094V185.648Z" fill="#3F3F3F"/>
<path d="M347.841 195.924V164.835H356.823C368.293 164.835 374.027 169.886 374.027 179.989C374.027 184.788 372.437 188.647 369.255 191.566C366.073 194.472 361.806 195.924 356.454 195.924H347.841ZM352.983 169.214V191.566H357.105C360.735 191.566 363.556 190.569 365.566 188.575C367.591 186.58 368.604 183.762 368.604 180.119C368.604 172.849 364.836 169.214 357.3 169.214H352.983Z" fill="#3F3F3F"/>
<path d="M397.979 186.19H382.836C382.894 188.242 383.523 189.825 384.723 190.938C385.938 192.051 387.602 192.607 389.713 192.607C392.085 192.607 394.262 191.899 396.244 190.482V194.537C394.219 195.809 391.543 196.445 388.216 196.445C384.947 196.445 382.38 195.44 380.514 193.431C378.663 191.407 377.737 188.567 377.737 184.911C377.737 181.456 378.757 178.645 380.796 176.477C382.85 174.295 385.396 173.203 388.433 173.203C391.471 173.203 393.821 174.179 395.484 176.13C397.147 178.081 397.979 180.791 397.979 184.26V186.19ZM393.119 182.634C393.105 180.828 392.678 179.426 391.839 178.428C391 177.417 389.843 176.911 388.368 176.911C386.922 176.911 385.692 177.438 384.68 178.493C383.682 179.548 383.067 180.929 382.836 182.634H393.119Z" fill="#3F3F3F"/>
<path d="M435.989 195.924H430.956V183.827C430.956 181.5 430.623 179.816 429.958 178.775C429.307 177.734 428.201 177.214 426.639 177.214C425.322 177.214 424.202 177.872 423.276 179.187C422.365 180.502 421.909 182.078 421.909 183.913V195.924H416.854V183.415C416.854 179.281 415.393 177.214 412.472 177.214C411.112 177.214 409.991 177.836 409.109 179.079C408.241 180.322 407.807 181.933 407.807 183.913V195.924H402.774V173.724H407.807V177.236H407.894C409.499 174.548 411.835 173.203 414.902 173.203C416.435 173.203 417.773 173.63 418.915 174.482C420.072 175.321 420.86 176.426 421.28 177.8C422.929 174.735 425.388 173.203 428.656 173.203C433.545 173.203 435.989 176.217 435.989 182.244V195.924Z" fill="#3F3F3F"/>
<path d="M459.182 195.924H454.3V192.455H454.213C452.68 195.115 450.431 196.445 447.466 196.445C445.282 196.445 443.568 195.852 442.324 194.667C441.095 193.482 440.48 191.913 440.48 189.962C440.48 185.771 442.896 183.328 447.727 182.634L454.322 181.702C454.322 178.537 452.818 176.954 449.809 176.954C447.162 176.954 444.776 177.865 442.65 179.686V175.285C444.993 173.897 447.698 173.203 450.764 173.203C456.376 173.203 459.182 175.964 459.182 181.485V195.924ZM454.322 185.019L449.657 185.669C448.211 185.857 447.119 186.211 446.381 186.732C445.658 187.238 445.297 188.134 445.297 189.42C445.297 190.36 445.629 191.133 446.295 191.74C446.974 192.333 447.878 192.629 449.007 192.629C450.54 192.629 451.805 192.094 452.803 191.024C453.816 189.94 454.322 188.582 454.322 186.949V185.019Z" fill="#3F3F3F"/>
<path d="M485.129 195.924H480.096V183.415C480.096 179.267 478.628 177.192 475.692 177.192C474.159 177.192 472.893 177.771 471.895 178.927C470.897 180.069 470.398 181.514 470.398 183.263V195.924H465.343V173.724H470.398V177.409H470.485C472.148 174.605 474.549 173.203 477.688 173.203C480.103 173.203 481.947 173.991 483.22 175.566C484.493 177.127 485.129 179.389 485.129 182.352V195.924Z" fill="#3F3F3F"/>
<path d="M511.489 195.924H506.456V192.152H506.369C504.749 195.014 502.254 196.445 498.884 196.445C496.151 196.445 493.959 195.454 492.31 193.474C490.676 191.48 489.859 188.77 489.859 185.344C489.859 181.673 490.763 178.732 492.571 176.52C494.393 174.309 496.816 173.203 499.839 173.203C502.833 173.203 505.009 174.403 506.369 176.802H506.456V163.057H511.489V195.924ZM506.521 185.778V182.873C506.521 181.297 506.007 179.96 504.981 178.862C503.954 177.763 502.645 177.214 501.054 177.214C499.173 177.214 497.691 177.915 496.606 179.317C495.536 180.719 495.001 182.663 495.001 185.149C495.001 187.404 495.514 189.189 496.541 190.504C497.582 191.805 498.978 192.455 500.728 192.455C502.449 192.455 503.845 191.827 504.915 190.569C505.986 189.297 506.521 187.7 506.521 185.778Z" fill="#3F3F3F"/>
<path d="M529.431 194.688V189.377C529.909 189.81 530.473 190.201 531.123 190.548C531.789 190.894 532.49 191.191 533.228 191.436C533.966 191.668 534.703 191.848 535.441 191.978C536.178 192.108 536.858 192.174 537.48 192.174C539.65 192.174 541.262 191.812 542.318 191.09C543.389 190.367 543.924 189.319 543.924 187.946C543.924 187.209 543.743 186.573 543.381 186.038C543.034 185.489 542.542 184.99 541.906 184.542C541.27 184.094 540.518 183.668 539.65 183.263C538.796 182.844 537.878 182.41 536.894 181.962C535.839 181.398 534.855 180.828 533.944 180.249C533.033 179.671 532.237 179.035 531.557 178.342C530.892 177.633 530.364 176.838 529.974 175.957C529.598 175.075 529.41 174.042 529.41 172.856C529.41 171.397 529.735 170.132 530.386 169.062C531.051 167.978 531.919 167.09 532.989 166.396C534.074 165.688 535.303 165.167 536.677 164.835C538.051 164.488 539.454 164.314 540.886 164.314C544.141 164.314 546.513 164.683 548.002 165.42V170.515C546.238 169.243 543.967 168.607 541.19 168.607C540.423 168.607 539.657 168.679 538.89 168.824C538.138 168.968 537.458 169.207 536.851 169.539C536.258 169.872 535.773 170.298 535.397 170.819C535.021 171.339 534.833 171.968 534.833 172.705C534.833 173.398 534.978 173.998 535.267 174.504C535.557 175.01 535.976 175.473 536.526 175.892C537.09 176.311 537.769 176.723 538.565 177.127C539.375 177.518 540.308 177.944 541.364 178.407C542.448 178.97 543.468 179.563 544.423 180.184C545.392 180.806 546.238 181.492 546.961 182.244C547.699 182.996 548.277 183.834 548.697 184.759C549.131 185.669 549.348 186.71 549.348 187.881C549.348 189.456 549.029 190.786 548.393 191.87C547.757 192.954 546.896 193.836 545.811 194.515C544.741 195.194 543.504 195.686 542.101 195.989C540.698 196.293 539.216 196.445 537.654 196.445C537.133 196.445 536.489 196.401 535.723 196.314C534.971 196.242 534.197 196.127 533.401 195.968C532.606 195.823 531.854 195.642 531.145 195.426C530.436 195.209 529.865 194.963 529.431 194.688Z" fill="#3F3F3F"/>
<path d="M564.361 196.445C560.933 196.445 558.192 195.411 556.138 193.344C554.099 191.263 553.079 188.51 553.079 185.084C553.079 181.355 554.142 178.443 556.268 176.347C558.409 174.251 561.287 173.203 564.903 173.203C568.374 173.203 571.079 174.222 573.017 176.26C574.955 178.298 575.924 181.124 575.924 184.737C575.924 188.278 574.876 191.118 572.778 193.258C570.696 195.382 567.89 196.445 564.361 196.445ZM564.599 177.214C562.632 177.214 561.077 177.901 559.935 179.274C558.792 180.647 558.221 182.54 558.221 184.954C558.221 187.281 558.799 189.117 559.957 190.461C561.114 191.791 562.661 192.455 564.599 192.455C566.581 192.455 568.1 191.798 569.155 190.482C570.226 189.167 570.761 187.295 570.761 184.867C570.761 182.425 570.226 180.538 569.155 179.209C568.1 177.879 566.581 177.214 564.599 177.214Z" fill="#3F3F3F"/>
<path d="M592.89 167.155C592.21 166.764 591.436 166.569 590.569 166.569C588.124 166.569 586.902 167.949 586.902 170.71V173.724H592.066V177.669H586.924V195.924H581.891V177.669H578.094V173.724H581.891V170.125C581.891 167.783 582.657 165.94 584.19 164.596C585.723 163.238 587.64 162.558 589.939 162.558C591.183 162.558 592.167 162.696 592.89 162.97V167.155Z" fill="#3F3F3F"/>
<path d="M608.185 195.686C607.202 196.177 605.907 196.423 604.302 196.423C599.992 196.423 597.837 194.356 597.837 190.222V177.669H594.127V173.724H597.837V168.585L602.87 167.155V173.724H608.185V177.669H602.87V188.77C602.87 190.085 603.109 191.024 603.586 191.588C604.063 192.152 604.859 192.434 605.972 192.434C606.826 192.434 607.563 192.188 608.185 191.697V195.686Z" fill="#3F3F3F"/>
<path d="M642.399 173.724L635.847 195.924H630.575L626.54 180.878C626.38 180.3 626.279 179.65 626.236 178.927H626.149C626.12 179.418 625.99 180.054 625.759 180.835L621.376 195.924H616.213L609.682 173.724H614.889L618.924 189.724C619.055 190.201 619.141 190.837 619.185 191.632H619.337C619.38 191.024 619.496 190.374 619.684 189.68L624.175 173.724H628.904L632.896 189.789C633.026 190.295 633.12 190.931 633.178 191.697H633.33C633.359 191.162 633.468 190.526 633.656 189.789L637.604 173.724H642.399Z" fill="#3F3F3F"/>
<path d="M663.205 195.924H658.323V192.455H658.236C656.703 195.115 654.454 196.445 651.489 196.445C649.305 196.445 647.591 195.852 646.347 194.667C645.118 193.482 644.503 191.913 644.503 189.962C644.503 185.771 646.919 183.328 651.75 182.634L658.345 181.702C658.345 178.537 656.841 176.954 653.832 176.954C651.185 176.954 648.799 177.865 646.673 179.686V175.285C649.016 173.897 651.721 173.203 654.787 173.203C660.399 173.203 663.205 175.964 663.205 181.485V195.924ZM658.345 185.019L653.68 185.669C652.234 185.857 651.142 186.211 650.404 186.732C649.681 187.238 649.32 188.134 649.32 189.42C649.32 190.36 649.652 191.133 650.318 191.74C650.997 192.333 651.901 192.629 653.03 192.629C654.563 192.629 655.828 192.094 656.826 191.024C657.839 189.94 658.345 188.582 658.345 186.949V185.019Z" fill="#3F3F3F"/>
<path d="M682.253 178.515C681.646 178.038 680.771 177.8 679.628 177.8C678.138 177.8 676.894 178.472 675.896 179.816C674.898 181.16 674.399 182.988 674.399 185.301V195.924H669.366V173.724H674.399V178.298H674.486C674.978 176.737 675.73 175.523 676.743 174.656C677.769 173.774 678.912 173.333 680.17 173.333C681.082 173.333 681.776 173.471 682.253 173.745V178.515Z" fill="#3F3F3F"/>
<path d="M704.231 186.19H689.087C689.145 188.242 689.774 189.825 690.975 190.938C692.19 192.051 693.853 192.607 695.965 192.607C698.337 192.607 700.513 191.899 702.495 190.482V194.537C700.47 195.809 697.794 196.445 694.468 196.445C691.199 196.445 688.632 195.44 686.766 193.431C684.914 191.407 683.989 188.567 683.989 184.911C683.989 181.456 685.008 178.645 687.048 176.477C689.102 174.295 691.647 173.203 694.685 173.203C697.722 173.203 700.072 174.179 701.736 176.13C703.399 178.081 704.231 180.791 704.231 184.26V186.19ZM699.371 182.634C699.356 180.828 698.93 179.426 698.091 178.428C697.252 177.417 696.095 176.911 694.62 176.911C693.173 176.911 691.944 177.438 690.931 178.493C689.933 179.548 689.319 180.929 689.087 182.634H699.371Z" fill="#3F3F3F"/>
<path d="M741.785 169.214H732.847V195.924H727.683V169.214H718.766V164.835H741.785V169.214Z" fill="#3F3F3F"/>
<path d="M760.248 186.19H745.105C745.162 188.242 745.792 189.825 746.992 190.938C748.207 192.051 749.87 192.607 751.982 192.607C754.354 192.607 756.531 191.899 758.512 190.482V194.537C756.487 195.809 753.812 196.445 750.485 196.445C747.216 196.445 744.649 195.44 742.783 193.431C740.932 191.407 740.006 188.567 740.006 184.911C740.006 181.456 741.026 178.645 743.065 176.477C745.119 174.295 747.665 173.203 750.702 173.203C753.739 173.203 756.09 174.179 757.753 176.13C759.416 178.081 760.248 180.791 760.248 184.26V186.19ZM755.388 182.634C755.374 180.828 754.947 179.426 754.108 178.428C753.269 177.417 752.112 176.911 750.637 176.911C749.191 176.911 747.961 177.438 746.949 178.493C745.951 179.548 745.336 180.929 745.105 182.634H755.388Z" fill="#3F3F3F"/>
<path d="M782.095 195.924H777.214V192.455H777.127C775.594 195.115 773.345 196.445 770.38 196.445C768.196 196.445 766.482 195.852 765.238 194.667C764.008 193.482 763.394 191.913 763.394 189.962C763.394 185.771 765.809 183.328 770.64 182.634L777.235 181.702C777.235 178.537 775.731 176.954 772.723 176.954C770.076 176.954 767.689 177.865 765.563 179.686V175.285C767.906 173.897 770.611 173.203 773.677 173.203C779.289 173.203 782.095 175.964 782.095 181.485V195.924ZM777.235 185.019L772.571 185.669C771.125 185.857 770.033 186.211 769.295 186.732C768.572 187.238 768.21 188.134 768.21 189.42C768.21 190.36 768.543 191.133 769.208 191.74C769.888 192.333 770.792 192.629 771.92 192.629C773.453 192.629 774.719 192.094 775.717 191.024C776.729 189.94 777.235 188.582 777.235 186.949V185.019Z" fill="#3F3F3F"/>
<path d="M821.472 195.924H816.439V183.827C816.439 181.5 816.106 179.816 815.441 178.775C814.79 177.734 813.684 177.214 812.121 177.214C810.805 177.214 809.684 177.872 808.759 179.187C807.847 180.502 807.392 182.078 807.392 183.913V195.924H802.337V183.415C802.337 179.281 800.876 177.214 797.954 177.214C796.595 177.214 795.474 177.836 794.592 179.079C793.724 180.322 793.29 181.933 793.29 183.913V195.924H788.257V173.724H793.29V177.236H793.377C794.982 174.548 797.318 173.203 800.384 173.203C801.917 173.203 803.255 173.63 804.398 174.482C805.555 175.321 806.343 176.426 806.763 177.8C808.412 174.735 810.87 173.203 814.139 173.203C819.028 173.203 821.472 176.217 821.472 182.244V195.924Z" fill="#3F3F3F"/>
<path d="M826.223 195.23V190.569C828.104 192 830.179 192.716 832.45 192.716C835.487 192.716 837.006 191.819 837.006 190.027C837.006 189.521 836.876 189.095 836.615 188.748C836.355 188.387 836.001 188.069 835.552 187.794C835.119 187.52 834.598 187.274 833.99 187.057C833.397 186.84 832.732 186.594 831.994 186.32C831.083 185.959 830.259 185.576 829.521 185.171C828.798 184.766 828.19 184.311 827.699 183.805C827.221 183.285 826.86 182.699 826.614 182.049C826.368 181.398 826.245 180.64 826.245 179.772C826.245 178.703 826.498 177.763 827.004 176.954C827.511 176.13 828.19 175.444 829.044 174.894C829.897 174.331 830.866 173.912 831.951 173.637C833.036 173.348 834.157 173.203 835.314 173.203C837.368 173.203 839.204 173.514 840.824 174.136V178.537C839.262 177.467 837.469 176.932 835.444 176.932C834.808 176.932 834.229 176.997 833.708 177.127C833.202 177.258 832.768 177.438 832.407 177.669C832.045 177.901 831.763 178.183 831.56 178.515C831.358 178.833 831.257 179.187 831.257 179.577C831.257 180.054 831.358 180.459 831.56 180.791C831.763 181.124 832.059 181.42 832.45 181.68C832.855 181.926 833.332 182.157 833.882 182.374C834.446 182.576 835.09 182.8 835.813 183.046C836.767 183.436 837.621 183.834 838.373 184.239C839.139 184.643 839.79 185.106 840.325 185.626C840.861 186.132 841.273 186.725 841.562 187.404C841.851 188.069 841.996 188.864 841.996 189.789C841.996 190.916 841.736 191.899 841.215 192.737C840.694 193.576 840 194.269 839.132 194.819C838.264 195.368 837.259 195.772 836.117 196.033C834.988 196.307 833.795 196.445 832.537 196.445C830.107 196.445 828.002 196.04 826.223 195.23Z" fill="#3F3F3F"/>
</svg>
