<svg width="43" height="42" viewBox="0 0 43 42" fill="none" xmlns="http://www.w3.org/2000/svg">
<path d="M39.6881 26.5885H32.5562C32.1943 26.5885 31.8587 26.4479 31.6018 26.1854L30.2463 24.8297C29.7007 24.2934 28.9882 23.999 28.2364 23.999H22.8889C21.3178 23.999 20.0391 25.2778 20.0391 26.8491V39.1497C20.0391 40.721 21.3178 41.9998 22.8889 41.9998H39.6881C41.2593 41.9998 42.538 40.721 42.538 39.1497V29.4369C42.538 27.8656 41.2593 26.5868 39.6881 26.5868V26.5885ZM28.0693 36.0147C28.3618 36.3072 28.3618 36.7816 28.0693 37.076C27.9231 37.2222 27.7318 37.2953 27.5387 37.2953C27.3475 37.2953 27.1544 37.2222 27.0081 37.076L24.7582 34.8259C24.4657 34.5333 24.4657 34.0589 24.7582 33.7646L27.0081 31.5145C27.3006 31.222 27.775 31.222 28.0693 31.5145C28.3618 31.807 28.3618 32.2814 28.0693 32.5758L26.35 34.2952L28.0693 36.0147ZM32.7491 32.2814L31.2492 36.7816C31.1442 37.0966 30.8517 37.2935 30.5386 37.2935C30.4598 37.2935 30.3811 37.2804 30.3005 37.2541C29.9086 37.1229 29.6949 36.6991 29.8261 36.3053L31.326 31.8051C31.4573 31.4132 31.8791 31.1995 32.2748 31.3307C32.6666 31.462 32.8803 31.8857 32.7491 32.2795L32.7491 32.2814ZM37.8186 34.8259L35.5687 37.076C35.4225 37.2223 35.2312 37.2954 35.0381 37.2954C34.8469 37.2954 34.6538 37.2223 34.5075 37.076C34.215 36.7835 34.215 36.3091 34.5075 36.0147L36.2268 34.2953L34.5075 32.5759C34.215 32.2833 34.215 31.8089 34.5075 31.5146C34.8 31.2221 35.2744 31.2221 35.5687 31.5146L37.8186 33.7647C38.1111 34.0572 38.1111 34.5316 37.8186 34.8259Z" fill="#FBD278"/>
<path d="M28.2367 22.5016C29.3841 22.5016 30.4716 22.9516 31.2965 23.7616L32.624 25.0892H32.804C33.2689 23.8141 33.5389 22.4416 33.5389 21.0015C33.5389 14.3863 28.154 9.00098 21.5395 9.00098C14.9249 9.00098 9.54004 14.3863 9.54004 21.0015C9.54004 26.5817 13.3724 31.2696 18.5396 32.6046V26.852C18.5396 24.4519 20.4895 22.5018 22.8894 22.5018L28.2367 22.5016Z" fill="#FFB81D"/>
<path d="M41.0385 18.0009H39.2836C38.8355 15.3289 37.7799 12.7845 36.2088 10.5736L37.4481 9.33228C38.0331 8.74723 38.0331 7.79472 37.4481 7.21154L35.3275 5.09081C34.7425 4.50576 33.7901 4.50576 33.207 5.09081L31.9677 6.33023C29.7572 4.75705 27.2129 3.70322 24.541 3.25512V1.50006C24.541 0.673133 23.8679 0 23.0411 0H20.0412C19.2144 0 18.5413 0.673133 18.5413 1.50006V3.25512C15.8695 3.70326 13.3254 4.75893 11.1146 6.33023L9.8753 5.09081C9.59219 4.80768 9.21533 4.65017 8.81599 4.65017H8.81411C8.41288 4.65017 8.03789 4.8058 7.75293 5.08894L5.63239 7.20967C5.0474 7.79472 5.0474 8.74722 5.63239 9.3304L6.87356 10.5717C5.30054 12.7824 4.24679 15.3269 3.79681 17.999H2.04192C1.21506 17.999 0.541992 18.6722 0.541992 19.4991V22.4992C0.541992 23.3262 1.21506 23.9993 2.04192 23.9993H3.79681C4.24492 26.6713 5.30049 29.2157 6.87356 31.4267L5.63239 32.668C5.0474 33.253 5.0474 34.2055 5.63239 34.7887L7.75293 36.9094C8.03604 37.1926 8.4129 37.3482 8.81411 37.3482H8.81599C9.21722 37.3482 9.59221 37.1907 9.8753 36.9094L11.1165 35.67C13.327 37.2432 15.8712 38.297 18.5432 38.7451V34.153C12.5415 32.7842 8.04366 27.4121 8.04366 20.9995C8.04366 13.5554 14.0995 7.49893 21.543 7.49893C28.9865 7.49893 35.0424 13.5554 35.0424 20.9995C35.0424 22.4246 34.8174 23.7971 34.4068 25.0872H39.0678C39.1522 24.7272 39.2272 24.3653 39.2872 23.9996H41.0421C41.8689 23.9996 42.542 23.3265 42.542 22.4996V19.4995C42.542 18.6725 41.8689 17.9994 41.0421 17.9994L41.0385 18.0009Z" fill="#FFB81D"/>
</svg>
