<svg width="30" height="30" viewBox="0 0 30 30" fill="none" xmlns="http://www.w3.org/2000/svg">
<path d="M22.3933 12.6591V14.3636H23.6054L23.6056 12.6591C23.6056 12.2069 23.414 11.7734 23.0729 11.4538C22.732 11.1342 22.2696 10.9546 21.7874 10.9546H16.3331V4.70449C16.3331 4.2525 16.1415 3.81893 15.8004 3.49937C15.4595 3.17959 14.9971 3 14.515 3H4.81812C4.336 3 3.87353 3.17958 3.53245 3.49937C3.19155 3.81896 3 4.25251 3 4.70449V27.4312C3 27.5819 3.06392 27.7264 3.17755 27.833C3.29119 27.9395 3.4454 27.9994 3.60611 27.9994H6.63625V20.6131C6.63625 20.1611 6.8278 19.7276 7.1687 19.4078C7.5098 19.0882 7.97225 18.9086 8.45437 18.9086H10.8786C11.3607 18.9086 11.8232 19.0882 12.1641 19.4078C12.5052 19.7276 12.6967 20.1611 12.6967 20.6131V27.9994H15.7269C15.8876 27.9994 16.0418 27.9395 16.1554 27.833C16.269 27.7264 16.333 27.5819 16.333 27.4312V12.0908H21.7873C21.948 12.0908 22.1021 12.1507 22.2159 12.2572C22.3295 12.3638 22.3933 12.5084 22.3933 12.6591ZM9.06079 17.2043C9.06079 17.355 8.99687 17.4996 8.88324 17.6061C8.76961 17.7126 8.6154 17.7726 8.45468 17.7726H6.03045C5.69584 17.7726 5.42455 17.518 5.42455 17.2043V14.9316C5.42455 14.6179 5.69585 14.3636 6.03045 14.3636H8.45468C8.6154 14.3636 8.76961 14.4233 8.88324 14.5299C8.99687 14.6366 9.06079 14.781 9.06079 14.9316V17.2043ZM9.06079 12.6591C9.06079 12.8098 8.99687 12.9542 8.88324 13.0609C8.76961 13.1674 8.6154 13.2271 8.45468 13.2271H6.03045C5.69584 13.2271 5.42455 12.9728 5.42455 12.6591V10.3864C5.42455 10.0727 5.69585 9.81816 6.03045 9.81816H8.45468C8.6154 9.81816 8.76961 9.87809 8.88324 9.98462C8.99687 10.0911 9.06079 10.2357 9.06079 10.3864V12.6591ZM9.06079 8.11386C9.06079 8.26453 8.99687 8.40891 8.88324 8.51544C8.76961 8.62197 8.6154 8.6819 8.45468 8.6819H6.03045C5.69584 8.6819 5.42455 8.42755 5.42455 8.11367V5.84115C5.42455 5.52726 5.69585 5.27292 6.03045 5.27292H8.45468C8.6154 5.27292 8.76961 5.33284 8.88324 5.43937C8.99687 5.5459 9.06079 5.69048 9.06079 5.84115V8.11386ZM13.9091 17.2046C13.9091 17.3553 13.8451 17.4997 13.7315 17.6062C13.6179 17.7128 13.4637 17.7727 13.3029 17.7727H10.8789C10.5441 17.7727 10.2728 17.5181 10.2728 17.2044V14.9317C10.2728 14.618 10.5441 14.3637 10.8789 14.3637H13.3032C13.4639 14.3637 13.6179 14.4234 13.7315 14.53C13.8451 14.6367 13.9091 14.7811 13.9091 14.9317L13.9091 17.2046ZM13.9091 12.6594C13.9091 12.8101 13.8451 12.9543 13.7315 13.061C13.6179 13.1675 13.4637 13.2272 13.3029 13.2272H10.8789C10.5441 13.2272 10.2728 12.9729 10.2728 12.6592V10.3865C10.2728 10.0728 10.5441 9.81826 10.8789 9.81826H13.3032C13.4639 9.81826 13.6179 9.87819 13.7315 9.98472C13.8451 10.0912 13.9091 10.2358 13.9091 10.3865L13.9091 12.6594ZM13.9091 8.11415C13.9091 8.26482 13.8451 8.40901 13.7315 8.51554C13.6179 8.62207 13.4637 8.682 13.3029 8.682H10.8789C10.5441 8.682 10.2728 8.42766 10.2728 8.11377V5.84125C10.2728 5.52736 10.5441 5.27302 10.8789 5.27302H13.3032C13.4639 5.27302 13.6179 5.33294 13.7315 5.43948C13.8451 5.54601 13.9091 5.69058 13.9091 5.84125L13.9091 8.11415ZM6.63656 6.40927H7.84857V7.54553L6.63656 7.54572V6.40927ZM6.63656 10.9545H7.84857V12.0908L6.63656 12.091V10.9545ZM6.63656 15.4998H7.84857V16.636L6.63656 16.6362V15.4998ZM11.4848 15.4998H12.6968V16.636L11.4848 16.6362V15.4998ZM11.4848 20.6132V27.9995H7.84857V20.6132C7.84857 20.2995 8.12008 20.045 8.45468 20.045H10.8789C11.0396 20.045 11.1936 20.1049 11.3075 20.2115C11.4211 20.318 11.4848 20.4626 11.4848 20.6132ZM11.4848 6.40947H12.6968V7.54573L11.4848 7.54592V6.40947ZM11.4848 10.9547H12.6968V12.091L11.4848 12.0912V10.9547ZM17.5454 14.3637V13.2274H21.1816V14.3637H17.5454Z" fill="#FFB81D"/>
<path d="M24.6667 20.5425C24.372 20.5425 24.0893 20.4303 23.881 20.2306C23.6726 20.0308 23.5556 19.7598 23.5556 19.4772V16.2812H19.6667C19.2247 16.2812 18.8008 16.4496 18.4881 16.7492C18.1756 17.049 18 17.4555 18 17.8792V26.402C18 26.8258 18.1756 27.2322 18.4881 27.5318C18.8008 27.8316 19.2247 28 19.6667 28H26.3333C26.7753 28 27.1992 27.8316 27.5119 27.5318C27.8244 27.2322 28 26.8258 28 26.402V20.5424L24.6667 20.5425ZM25.7777 25.3365H20.2225V24.2712H25.7777V25.3365ZM25.7777 23.2058L20.2225 23.2059V22.1405H25.7777V23.2058ZM24.111 19.477V16.814C24.1122 16.5989 24.2481 16.4056 24.4555 16.3239C24.6624 16.2404 24.9014 16.2847 25.0612 16.4357L27.8389 19.099C27.9965 19.2522 28.0426 19.4813 27.9556 19.6797C27.8704 19.8785 27.6687 20.0089 27.4444 20.01H24.6667C24.36 20.01 24.1111 19.7714 24.1111 19.4773L24.111 19.477Z" fill="#FFB81D" fill-opacity="0.58"/>
</svg>
