<svg width="31" height="28" viewBox="0 0 31 28" fill="none" xmlns="http://www.w3.org/2000/svg">
<path opacity="0.58" d="M18.5 9.39188C18.3368 9.88434 18.0429 10.4823 17.4551 11.2562C17.0633 11.7135 17.5205 12.417 18.0756 12.2059C19.2184 11.7486 20.4919 11.1155 21.7 10.4823C22.0592 10.5175 22.4184 10.5527 22.8102 10.5527C26.5979 10.5527 29.6673 8.19591 29.6673 5.27634C29.6673 2.35676 26.5979 0 22.8102 0C19.0225 0 15.9531 2.35676 15.9531 5.27634C15.9531 6.92959 16.9327 8.40696 18.5 9.39188ZM26.1734 4.11554C26.7612 4.11554 27.251 4.64318 27.251 5.27634C27.251 5.9095 26.7612 6.43713 26.1734 6.43713C25.5857 6.43713 25.0959 5.9095 25.0959 5.27634C25.1285 4.64318 25.5857 4.11554 26.1734 4.11554ZM22.7775 4.11554C23.3653 4.11554 23.8551 4.64318 23.8551 5.27634C23.8551 5.9095 23.3653 6.43713 22.7775 6.43713C22.1898 6.43713 21.7 5.9095 21.7 5.27634C21.7327 4.64318 22.1898 4.11554 22.7775 4.11554ZM19.4143 4.11554C20.0021 4.11554 20.4919 4.64318 20.4919 5.27634C20.4919 5.9095 20.0021 6.43713 19.4143 6.43713C18.8266 6.43713 18.3368 5.9095 18.3368 5.27634C18.3368 4.64318 18.8266 4.11554 19.4143 4.11554Z" fill="#FFAD00"/>
<path d="M15.988 13.7538C15.5309 13.0854 14.9105 12.5226 14.1595 12.2412H14.0942C13.3758 12.804 12.5268 13.1206 11.5799 13.1206C10.633 13.1206 9.75135 12.804 9.06564 12.2412L8.96769 12.2764C7.66158 12.7688 6.682 14.0352 6.51873 15.6181L6.35547 17.2361H14.388C14.4207 15.8291 15.0411 14.598 15.988 13.7538Z" fill="#FFAD00"/>
<path d="M11.5819 11.889C13.3452 11.889 14.7492 10.3413 14.7492 8.47697C14.7492 6.57749 13.3125 5.06494 11.5819 5.06494C9.81867 5.06494 8.41461 6.61267 8.41461 8.47697C8.38196 10.3765 9.81867 11.889 11.5819 11.889Z" fill="#FFAD00"/>
<path opacity="0.58" d="M15.2719 20.1904C14.9127 19.698 14.6515 19.1 14.4882 18.4316H6.03116C5.90055 18.4316 5.76994 18.502 5.67198 18.6075L0.153677 24.7984C-0.17285 25.1502 0.0557188 25.7482 0.512857 25.7482H12.3658L12.4964 24.3411C12.6923 22.512 13.7372 20.9643 15.2719 20.1904Z" fill="#FFAD00"/>
<path opacity="0.58" d="M30.8447 24.7984L25.359 18.6075C25.2611 18.502 25.1305 18.4316 24.9998 18.4316H22.8774C22.7468 19.0648 22.4529 19.6628 22.0938 20.1904C23.6284 20.9643 24.6733 22.512 24.8692 24.3411L24.9998 25.713H30.4855C30.9426 25.7482 31.1712 25.1502 30.8447 24.7984Z" fill="#FFAD00"/>
<path d="M21.2792 21.1406L21.2139 21.1055C20.4955 21.6683 19.6466 21.9849 18.6996 21.9849C17.7527 21.9849 16.8711 21.6683 16.1854 21.1055L16.0874 21.1406C14.7813 21.6331 13.8017 22.8994 13.6385 24.4823L13.3773 27.1205C13.3446 27.5778 13.6711 27.9999 14.0956 27.9999H23.271C23.6955 27.9999 24.0547 27.613 23.9894 27.1205L23.7608 24.4823C23.5649 22.9346 22.5853 21.6683 21.2792 21.1406Z" fill="#FFAD00"/>
<path d="M18.6634 13.9648C16.9002 13.9648 15.4961 15.5126 15.4961 17.3769C15.4961 19.2764 16.9002 20.7889 18.6634 20.7889C20.4267 20.7889 21.8307 19.2412 21.8307 17.3769C21.8307 15.5126 20.4267 13.9648 18.6634 13.9648Z" fill="#FFAD00"/>
</svg>
