<svg width="28" height="30" viewBox="0 0 28 30" fill="none" xmlns="http://www.w3.org/2000/svg">
<path opacity="0.58" d="M18.9876 27.2405H17.8875V26.1709H10.1869V27.2405H9.08677C8.34155 27.2405 7.73828 27.7753 7.73828 28.4437C7.73828 29.1122 8.30607 29.647 9.08677 29.647H18.9876C19.7328 29.647 20.336 29.1122 20.336 28.4437C20.3006 27.7418 19.7328 27.2405 18.9876 27.2405Z" fill="#FFAD00"/>
<path opacity="0.58" d="M26.0117 7.15283H24.6987V8.85746H26.0117C26.1182 8.85746 26.1892 8.95773 26.1892 9.058L26.1537 22.0265H1.88079V9.09143C1.88079 8.95773 1.98725 8.89088 2.05823 8.89088H3.30026V7.18626H2.02274C0.922653 7.18626 0 8.05528 0 9.12485V23.4972C0 24.5668 0.922653 25.4358 2.02274 25.4358H25.9762C27.0763 25.4358 27.999 24.5668 27.999 23.4972V9.09143C28.0345 7.98843 27.1473 7.15283 26.0117 7.15283ZM14.0172 24.4999C13.5559 24.4999 13.1655 24.1322 13.1655 23.6977C13.1655 23.2632 13.5559 22.8956 14.0172 22.8956C14.4786 22.8956 14.8689 23.2632 14.8689 23.6977C14.8689 24.1657 14.4786 24.4999 14.0172 24.4999Z" fill="#FFAD00"/>
<path d="M10.7861 7.90585L12.2765 5.9447C12.383 5.79148 12.3475 5.63827 12.17 5.54634C11.9926 5.45441 11.8152 5.48505 11.7087 5.63827L10.1118 7.722C10.0409 7.81393 10.0409 7.96714 10.1118 8.05907L11.7442 10.1122C11.8152 10.2041 11.9216 10.2347 12.0281 10.2347C12.0991 10.2347 12.17 10.2347 12.241 10.1734C12.383 10.0815 12.4185 9.89765 12.312 9.77508L10.7861 7.90585Z" fill="#FFAD00"/>
<path d="M16.2878 5.60751C16.1814 5.45429 15.9684 5.42365 15.8265 5.51558C15.6491 5.60751 15.6136 5.79136 15.72 5.91394L17.246 7.87509L15.7555 9.77496C15.6491 9.92818 15.6846 10.0814 15.8265 10.1733C15.8975 10.204 15.933 10.2346 16.0039 10.2346C16.1104 10.2346 16.2169 10.1733 16.2878 10.112L17.9202 8.05895C17.9912 7.96702 17.9912 7.84445 17.9202 7.72188L16.2878 5.60751Z" fill="#FFAD00"/>
<path d="M21.716 0H6.31477C5.03726 0 3.97266 0.888649 3.97266 2.02244V13.9119C3.97266 15.0151 5.00177 15.9344 6.31477 15.9344H10.2538L14.0154 19.1519L17.777 15.9037H21.716C22.9935 15.9037 24.0581 15.0151 24.0581 13.8813V2.02244C24.0581 0.888649 22.9935 0 21.716 0ZM16.5704 1.62408C16.5704 1.37894 16.7833 1.16444 17.1027 1.16444C17.3866 1.16444 17.635 1.34829 17.635 1.62408V2.81916H16.6059V1.62408H16.5704ZM13.5895 1.62408C13.5895 1.37894 13.8025 1.16444 14.1218 1.16444C14.4057 1.16444 14.6541 1.34829 14.6541 1.62408V2.81916H13.625V1.62408H13.5895ZM10.6087 1.62408C10.6087 1.37894 10.8216 1.16444 11.141 1.16444C11.4249 1.16444 11.6733 1.34829 11.6733 1.62408V2.81916H10.6441V1.62408H10.6087ZM6.7761 4.74967H8.16008V5.66897H6.7761C6.49221 5.66897 6.2438 5.45446 6.2438 5.20932C6.27929 4.96417 6.49221 4.74967 6.7761 4.74967ZM6.7761 7.32369H8.16008V8.24298H6.7761C6.49221 8.24298 6.2438 8.02848 6.2438 7.78334C6.27929 7.50755 6.49221 7.32369 6.7761 7.32369ZM8.19557 10.7864H6.81159C6.5277 10.7864 6.27929 10.6025 6.27929 10.3267C6.27929 10.0816 6.49221 9.86706 6.81159 9.86706H8.19557V10.7864ZM11.4603 14.0958C11.4603 14.341 11.2474 14.5555 10.928 14.5555C10.6441 14.5555 10.3957 14.3716 10.3957 14.0958V12.9007H11.4249V14.0958H11.4603ZM14.4412 14.0958C14.4412 14.341 14.2283 14.5555 13.9089 14.5555C13.625 14.5555 13.3766 14.3716 13.3766 14.0958V12.9007H14.4057V14.0958H14.4412ZM17.4221 14.0958C17.4221 14.341 17.2092 14.5555 16.8898 14.5555C16.6059 14.5555 16.3575 14.3716 16.3575 14.0958V12.9007H17.3866V14.0958H17.4221ZM19.019 11.0009C18.8416 11.5831 18.3093 11.9814 17.6705 12.1653H10.3603C9.68601 12.0121 9.22468 11.5524 9.01176 11.0009V4.71903C9.18919 4.13681 9.72149 3.73845 10.3603 3.55459H17.635C18.3093 3.70781 18.7706 4.16746 18.9835 4.71903V11.0009H19.019ZM19.8352 4.93353H21.2192C21.5031 4.93353 21.7515 5.11739 21.7515 5.39318C21.7515 5.63832 21.5385 5.85282 21.2192 5.85282H19.8352V4.93353ZM21.2547 10.9702H19.8707V10.0509H21.2547C21.5385 10.0509 21.787 10.2654 21.787 10.5106C21.7515 10.7557 21.5385 10.9702 21.2547 10.9702ZM21.2547 8.3962H19.8707V7.47691H21.2547C21.5385 7.47691 21.787 7.69141 21.787 7.93655C21.7515 8.1817 21.5385 8.3962 21.2547 8.3962Z" fill="#FFAD00"/>
<path d="M14.7974 5.14796C14.62 5.11732 14.4071 5.20925 14.3716 5.36246L12.9521 10.1734C12.9166 10.3266 13.0231 10.5105 13.2005 10.5411C13.2715 10.5411 13.307 10.5411 13.378 10.5411C13.5199 10.5105 13.6264 10.4186 13.6264 10.3266L15.0458 5.51568C15.1168 5.36246 15.0103 5.20925 14.7974 5.14796Z" fill="#FFAD00"/>
</svg>
