<svg width="33" height="35" viewBox="0 0 33 35" fill="none" xmlns="http://www.w3.org/2000/svg">
<path d="M7.41742 9.93018H7.41016V21.5228H7.41742V9.93018Z" fill="#FFAD00"/>
<path d="M8.13672 9.13232V22.3219C8.1403 22.2979 8.1403 22.2734 8.13672 22.2493V9.18314C8.13847 9.16624 8.13847 9.14922 8.13672 9.13232Z" fill="#FFAD00"/>
<path opacity="0.58" d="M7.41524 9.93115H5.53516V21.5238H7.41524V9.93115Z" fill="#FFAD00"/>
<path opacity="0.58" d="M4.79824 10.4312V11.883H1.54621C1.35369 11.883 1.16906 11.8065 1.03292 11.6703C0.89679 11.5342 0.820312 11.3496 0.820312 11.1571C0.820312 10.9645 0.89679 10.7799 1.03292 10.6438C1.16906 10.5076 1.35369 10.4312 1.54621 10.4312H4.79824Z" fill="#FFAD00"/>
<path opacity="0.58" d="M4.79781 14.9976V16.4494H3.12824C2.93572 16.4494 2.75109 16.3729 2.61496 16.2367C2.47882 16.1006 2.40234 15.916 2.40234 15.7235C2.40234 15.5309 2.47882 15.3463 2.61496 15.2102C2.75109 15.074 2.93572 14.9976 3.12824 14.9976H4.79781Z" fill="#FFAD00"/>
<path opacity="0.58" d="M4.7982 19.5996V21.0514H0.7259C0.533379 21.0514 0.348743 20.9749 0.212611 20.8388C0.076478 20.7027 0 20.518 0 20.3255C0 20.133 0.076478 19.9484 0.212611 19.8122C0.348743 19.6761 0.533379 19.5996 0.7259 19.5996H4.7982Z" fill="#FFAD00"/>
<path opacity="0.58" d="M31.4178 15.7235C31.4178 15.916 31.3413 16.1006 31.2052 16.2367C31.0691 16.3729 30.8844 16.4494 30.6919 16.4494H29.0078V14.9976H30.6919C30.8844 14.9976 31.0691 15.074 31.2052 15.2102C31.3413 15.3463 31.4178 15.5309 31.4178 15.7235Z" fill="#FFAD00"/>
<path opacity="0.58" d="M33.0003 11.1571C33.0003 11.3496 32.9238 11.5342 32.7877 11.6703C32.6515 11.8065 32.4669 11.883 32.2744 11.883H29.0078V10.4312H32.2744C32.4669 10.4312 32.6515 10.5076 32.7877 10.6438C32.9238 10.7799 33.0003 10.9645 33.0003 11.1571Z" fill="#FFAD00"/>
<path opacity="0.58" d="M22.3426 4.71143H10.75V6.59151H22.3426V4.71143Z" fill="#FFAD00"/>
<path opacity="0.58" d="M21.8346 1.45197V3.95633H20.3828V1.45197C20.3828 1.25945 20.4593 1.07482 20.5954 0.938686C20.7316 0.802553 20.9162 0.726074 21.1087 0.726074C21.3012 0.726074 21.4859 0.802553 21.622 0.938686C21.7581 1.07482 21.8346 1.25945 21.8346 1.45197Z" fill="#FFAD00"/>
<path opacity="0.58" d="M17.2799 2.30158V3.98567H15.8281V2.30158C15.8281 2.10906 15.9046 1.92443 16.0407 1.78829C16.1769 1.65216 16.3615 1.57568 16.554 1.57568C16.7465 1.57568 16.9312 1.65216 17.0673 1.78829C17.2034 1.92443 17.2799 2.10906 17.2799 2.30158Z" fill="#FFAD00"/>
<path opacity="0.58" d="M12.7096 0.7259V3.98519H11.2578V0.7259C11.2578 0.533379 11.3343 0.348744 11.4704 0.212611C11.6066 0.0764787 11.7912 0 11.9837 0C12.1762 0 12.3609 0.0764787 12.497 0.212611C12.6331 0.348744 12.7096 0.533379 12.7096 0.7259Z" fill="#FFAD00"/>
<path opacity="0.58" d="M17.2799 27.4609V29.145C17.2799 29.3375 17.2034 29.5222 17.0673 29.6583C16.9312 29.7944 16.7465 29.8709 16.554 29.8709C16.3615 29.8709 16.1769 29.7944 16.0407 29.6583C15.9046 29.5222 15.8281 29.3375 15.8281 29.145V27.4609H17.2799Z" fill="#FFAD00"/>
<path opacity="0.58" d="M12.7096 27.4609V30.7202C12.7096 30.9127 12.6331 31.0974 12.497 31.2335C12.3609 31.3696 12.1762 31.4461 11.9837 31.4461C11.7912 31.4461 11.6066 31.3696 11.4704 31.2335C11.3343 31.0974 11.2578 30.9127 11.2578 30.7202V27.4609H12.7096Z" fill="#FFAD00"/>
<path opacity="0.58" d="M27.5559 9.92285V21.2324C27.4734 21.1968 27.3843 21.1795 27.2945 21.1816H25.6758V9.92285H27.5559Z" fill="#FFAD00"/>
<path d="M22.4214 9.98828H10.6836V21.4575H22.4214V9.98828Z" fill="#FFAD00"/>
<path d="M24.9486 7.31719V21.4868H23.1411V9.9885C23.1411 9.79598 23.0646 9.61134 22.9285 9.47521C22.7923 9.33908 22.6077 9.2626 22.4152 9.2626H10.6774C10.4848 9.2626 10.3002 9.33908 10.1641 9.47521C10.0279 9.61134 9.95147 9.79598 9.95147 9.9885V21.4577C9.95147 21.6502 10.0279 21.8349 10.1641 21.971C10.3002 22.1071 10.4848 22.1836 10.6774 22.1836H20.0415V24.129H8.13672V22.3215C8.1403 22.2975 8.1403 22.273 8.13672 22.249V9.18275C8.1403 9.15869 8.1403 9.13422 8.13672 9.11016V7.29541L24.9486 7.31719Z" fill="#FFAD00"/>
<path opacity="0.58" d="M19.7556 24.8555H10.7617V26.7356H19.7556V24.8555Z" fill="#FFAD00"/>
<path opacity="0.58" d="M31.0912 28.7384C30.9866 28.6849 30.8975 28.6054 30.8327 28.5075C30.7678 28.4096 30.7293 28.2966 30.721 28.1794C30.6922 27.6964 30.5868 27.2211 30.4088 26.7712C30.3682 26.666 30.355 26.5523 30.3702 26.4406C30.3854 26.3289 30.4287 26.2229 30.4959 26.1324L31.2944 25.0798L30.6411 24.2668L29.4797 24.7895C29.3728 24.8381 29.2551 24.8583 29.1381 24.8481C29.0211 24.8379 28.9088 24.7977 28.8118 24.7314C28.4156 24.4522 27.9768 24.2389 27.5125 24.0999C27.4002 24.0671 27.2983 24.0057 27.2169 23.9217C27.1354 23.8378 27.0772 23.734 27.0479 23.6208L26.7285 22.3359H25.6469L25.3275 23.6208C25.2982 23.734 25.24 23.8378 25.1586 23.9217C25.0771 24.0057 24.9753 24.0671 24.8629 24.0999C24.3986 24.2389 23.9598 24.4522 23.5636 24.7314C23.4673 24.7991 23.3548 24.8401 23.2375 24.8503C23.1202 24.8605 23.0023 24.8395 22.8958 24.7895L22.4094 24.5645L21.6835 24.2378L21.0302 25.0508L21.8432 26.1324C21.917 26.2253 21.9641 26.3366 21.9794 26.4542C21.9948 26.5719 21.9778 26.6915 21.9303 26.8002C21.7523 27.2501 21.6469 27.7255 21.6182 28.2085C21.6098 28.3256 21.5713 28.4386 21.5064 28.5365C21.4416 28.6345 21.3526 28.714 21.248 28.7674L20.043 29.3409L20.2753 30.3499H21.5964C21.7142 30.3564 21.8287 30.3915 21.9299 30.4522C22.0311 30.5129 22.1159 30.5974 22.1771 30.6983C22.4124 31.1188 22.7166 31.4967 23.0772 31.8162C23.1612 31.8978 23.2243 31.9985 23.2609 32.1097C23.2976 32.221 23.3068 32.3394 23.2877 32.455L23.0119 33.7543L23.9556 34.2117L24.7976 33.1881C24.8729 33.097 24.971 33.0275 25.082 32.9866C25.1929 32.9458 25.3127 32.9352 25.4291 32.9559C25.9097 33.0371 26.4004 33.0371 26.8809 32.9559C26.9962 32.9366 27.1146 32.9479 27.2241 32.9886C27.3337 33.0294 27.4306 33.0982 27.5052 33.1881L28.3545 34.2117L29.2909 33.7543L29.0151 32.4477C28.996 32.3322 29.0052 32.2137 29.0419 32.1025C29.0786 31.9912 29.1416 31.8905 29.2256 31.8089C29.5874 31.4914 29.894 31.1161 30.133 30.6983C30.1899 30.5953 30.2728 30.5089 30.3734 30.4478C30.4739 30.3867 30.5888 30.3529 30.7064 30.3499H32.0276L32.2599 29.3409L31.0912 28.7384ZM26.1696 32.3025C25.4256 32.3017 24.6979 32.0844 24.0753 31.6771C23.4528 31.2698 22.9622 30.6901 22.6635 30.0087C22.6606 29.9846 22.6606 29.9602 22.6635 29.9361L22.4965 29.4207C22.416 29.1226 22.3769 28.8149 22.3804 28.5061C22.371 27.586 22.6929 26.6932 23.2873 25.9909C23.8817 25.2885 24.7089 24.8234 25.6179 24.6806C26.1376 24.6098 26.6662 24.6439 27.1724 24.7811C27.6786 24.9182 28.1522 25.1556 28.565 25.4791C29.1829 25.975 29.6316 26.6505 29.8491 27.4123C30.0666 28.1742 30.0422 28.9847 29.7793 29.7321C29.5163 30.4795 29.0278 31.1268 28.3812 31.5846C27.7346 32.0425 26.9618 32.2882 26.1696 32.288V32.3025Z" fill="#FFAD00"/>
<path opacity="0.58" d="M29.2697 28.492C29.2716 29.2027 29.0292 29.8925 28.5831 30.4458C28.137 30.9991 27.5143 31.3822 26.8193 31.5311C26.1244 31.68 25.3994 31.5855 24.7658 31.2635C24.1322 30.9414 23.6285 30.4115 23.3391 29.7623L23.1431 29.1743C23.092 28.9506 23.0677 28.7215 23.0705 28.492C23.0708 27.9081 23.2361 27.3361 23.5472 26.842C23.8584 26.3479 24.3028 25.9517 24.8292 25.6991C25.3557 25.4465 25.9428 25.3477 26.5229 25.4142C27.103 25.4806 27.6526 25.7096 28.1083 26.0747C28.4721 26.3636 28.7657 26.7312 28.9669 27.1499C29.168 27.5686 29.2716 28.0275 29.2697 28.492Z" fill="#FFAD00"/>
</svg>
