<svg width="26" height="26" viewBox="0 0 26 26" fill="none" xmlns="http://www.w3.org/2000/svg">
<path d="M20.1691 10.0455V11.8181H21.4296L21.4298 10.0455C21.4298 9.57519 21.2306 9.12429 20.8758 8.79194C20.5213 8.45956 20.0403 8.2728 19.5389 8.2728H13.8664V1.77267C13.8664 1.3026 13.6672 0.851692 13.3124 0.519342C12.9579 0.186769 12.4769 0 11.9755 0H1.89085C1.38944 0 0.908471 0.186763 0.553748 0.519342C0.199214 0.851717 0 1.30261 0 1.77267V25.4084C0 25.5651 0.0664768 25.7155 0.184655 25.8263C0.302833 25.9371 0.463214 25.9994 0.630355 25.9994H3.7817V18.3177C3.7817 17.8476 3.98091 17.3967 4.33544 17.0641C4.69019 16.7317 5.17114 16.545 5.67254 16.545H8.19375C8.69516 16.545 9.17612 16.7317 9.53063 17.0641C9.88537 17.3967 10.0846 17.8476 10.0846 18.3177V25.9994H13.2359C13.4031 25.9994 13.5635 25.9371 13.6816 25.8263C13.7998 25.7155 13.8663 25.5651 13.8663 25.4084V9.45441H19.5388C19.706 9.45441 19.8661 9.51673 19.9845 9.62752C20.1027 9.73831 20.1691 9.88877 20.1691 10.0455ZM6.30323 14.7725C6.30323 14.9292 6.23675 15.0796 6.11857 15.1904C6.00039 15.3012 5.84001 15.3635 5.67287 15.3635H3.15167C2.80368 15.3635 2.52153 15.0988 2.52153 14.7725V12.4089C2.52153 12.0826 2.80368 11.8181 3.15167 11.8181H5.67287C5.84001 11.8181 6.00039 11.8803 6.11857 11.9911C6.23675 12.102 6.30323 12.2522 6.30323 12.4089V14.7725ZM6.30323 10.0455C6.30323 10.2022 6.23675 10.3523 6.11857 10.4633C6.00039 10.5741 5.84001 10.6362 5.67287 10.6362H3.15167C2.80368 10.6362 2.52153 10.3717 2.52153 10.0455V7.68184C2.52153 7.3556 2.80368 7.09089 3.15167 7.09089H5.67287C5.84001 7.09089 6.00039 7.15321 6.11857 7.264C6.23675 7.37479 6.30323 7.52515 6.30323 7.68184V10.0455ZM6.30323 5.31841C6.30323 5.47511 6.23675 5.62527 6.11857 5.73606C6.00039 5.84685 5.84001 5.90917 5.67287 5.90917H3.15167C2.80368 5.90917 2.52153 5.64466 2.52153 5.31822V2.95479C2.52153 2.62835 2.80368 2.36383 3.15167 2.36383H5.67287C5.84001 2.36383 6.00039 2.42616 6.11857 2.53695C6.23675 2.64774 6.30323 2.7981 6.30323 2.95479V5.31841ZM11.3454 14.7728C11.3454 14.9295 11.2789 15.0797 11.1608 15.1905C11.0426 15.3013 10.8822 15.3636 10.7151 15.3636H8.19408C7.84587 15.3636 7.56372 15.0989 7.56372 14.7726V12.409C7.56372 12.0828 7.84587 11.8182 8.19408 11.8182H10.7153C10.8824 11.8182 11.0426 11.8804 11.1608 11.9912C11.2789 12.1021 11.3454 12.2523 11.3454 12.409L11.3454 14.7728ZM11.3454 10.0458C11.3454 10.2025 11.2789 10.3524 11.1608 10.4634C11.0426 10.5742 10.8822 10.6363 10.7151 10.6363H8.19408C7.84587 10.6363 7.56372 10.3718 7.56372 10.0456V7.68195C7.56372 7.35571 7.84587 7.09099 8.19408 7.09099H10.7153C10.8824 7.09099 11.0426 7.15332 11.1608 7.26411C11.2789 7.3749 11.3454 7.52526 11.3454 7.68195L11.3454 10.0458ZM11.3454 5.31872C11.3454 5.47541 11.2789 5.62537 11.1608 5.73617C11.0426 5.84696 10.8822 5.90928 10.7151 5.90928H8.19408C7.84587 5.90928 7.56372 5.64476 7.56372 5.31832V2.9549C7.56372 2.62846 7.84587 2.36394 8.19408 2.36394H10.7153C10.8824 2.36394 11.0426 2.42626 11.1608 2.53705C11.2789 2.64785 11.3454 2.7982 11.3454 2.9549L11.3454 5.31872ZM3.78202 3.54564H5.04252V4.72736L3.78202 4.72755V3.54564ZM3.78202 8.2727H5.04252V9.45441L3.78202 9.45461V8.2727ZM3.78202 12.9997H5.04252V14.1815L3.78202 14.1817V12.9997ZM8.82421 12.9997H10.0847V14.1815L8.82421 14.1817V12.9997ZM8.82421 18.3178V25.9995H5.04252V18.3178C5.04252 17.9915 5.32488 17.7268 5.67287 17.7268H8.19408C8.36122 17.7268 8.52139 17.7891 8.63978 17.8999C8.75795 18.0107 8.82421 18.1611 8.82421 18.3178ZM8.82421 3.54585H10.0847V4.72756L8.82421 4.72776V3.54585ZM8.82421 8.2729H10.0847V9.45461L8.82421 9.45481V8.2729ZM15.1272 11.8182V10.6365H18.9089V11.8182H15.1272Z" fill="#FFB81D"/>
<path d="M22.5334 18.2442C22.227 18.2442 21.933 18.1275 21.7163 17.9198C21.4996 17.7121 21.3779 17.4301 21.3779 17.1363V13.8125H17.3334C16.8738 13.8125 16.4329 13.9876 16.1077 14.2992C15.7827 14.611 15.6001 15.0337 15.6001 15.4744V24.3381C15.6001 24.7788 15.7827 25.2015 16.1077 25.5131C16.4329 25.8249 16.8738 26 17.3334 26H24.2668C24.7264 26 25.1673 25.8249 25.4925 25.5131C25.8175 25.2015 26.0001 24.7788 26.0001 24.3381V18.2441L22.5334 18.2442ZM23.6889 23.2299H17.9115V22.1221H23.6889V23.2299ZM23.6889 21.014L17.9115 21.0142V19.9061H23.6889V21.014ZM21.9556 17.1361V14.3665C21.9567 14.1428 22.0982 13.9418 22.3139 13.8568C22.529 13.77 22.7776 13.816 22.9438 13.9731L25.8326 16.7429C25.9964 16.9023 26.0444 17.1406 25.9539 17.3469C25.8653 17.5537 25.6556 17.6893 25.4223 17.6904H22.5335C22.2145 17.6904 21.9556 17.4422 21.9556 17.1363L21.9556 17.1361Z" fill="#FFB81D" fill-opacity="0.58"/>
</svg>
