<svg width="30" height="30" viewBox="0 0 30 30" fill="none" xmlns="http://www.w3.org/2000/svg">
<path d="M27.7909 24.7349H1.41858C1.16747 24.7349 1 24.9023 1 25.1534V27.5813C1 27.8324 1.16747 27.9999 1.41858 27.9999H27.7909C28.042 27.9999 28.2095 27.8324 28.2095 27.5813V25.1534C28.2095 24.9442 28.042 24.7349 27.7909 24.7349Z" fill="#FFB81D"/>
<path d="M11.0469 18.9165H13.14V21.3444H11.0469V18.9165Z" fill="#FFB81D" fill-opacity="0.58"/>
<path d="M11.0469 13.8926H13.14V16.3204H11.0469V13.8926Z" fill="#FFB81D" fill-opacity="0.58"/>
<path d="M16.0684 18.9165H18.1615V21.3444H16.0684V18.9165Z" fill="#FFB81D" fill-opacity="0.58"/>
<path d="M11.0469 8.91162H13.14V11.3395H11.0469V8.91162Z" fill="#FFB81D" fill-opacity="0.58"/>
<path d="M11.0469 3.93018H13.14V6.35803H11.0469V3.93018Z" fill="#FFB81D" fill-opacity="0.58"/>
<path d="M16.0684 13.8926H18.1615V16.3204H16.0684V13.8926Z" fill="#FFB81D" fill-opacity="0.58"/>
<path d="M16.0684 3.93018H18.1615V6.35803H16.0684V3.93018Z" fill="#FFB81D" fill-opacity="0.58"/>
<path d="M16.0684 8.91162H18.1615V11.3395H16.0684V8.91162Z" fill="#FFB81D" fill-opacity="0.58"/>
<path d="M21.0515 1.41878C21.0515 1.16767 20.8422 1.00019 20.6329 1.00019L8.57679 1C8.32568 1 8.1582 1.16747 8.1582 1.41858V23.8978H21.0511L21.0515 1.41878ZM13.9773 21.7209C13.9773 21.9301 13.768 22.1394 13.5587 22.1394H10.6284C10.3773 22.1394 10.2098 21.9301 10.2098 21.7209V18.4556C10.2098 18.2045 10.3773 18.0371 10.6284 18.0371H13.5587C13.768 18.0371 13.9773 18.2045 13.9773 18.4556V21.7209ZM13.9773 16.7394C13.9773 16.9906 13.768 17.158 13.5587 17.158H10.6284C10.3773 17.158 10.2098 16.9906 10.2098 16.7394V13.4742C10.2098 13.2231 10.3773 13.0556 10.6284 13.0556H13.5587C13.768 13.0556 13.9773 13.2231 13.9773 13.4742V16.7394ZM13.9773 11.758C13.9773 11.9673 13.768 12.1766 13.5587 12.1766H10.6284C10.3773 12.1766 10.2098 11.9673 10.2098 11.758V8.49281C10.2098 8.2417 10.3773 8.07422 10.6284 8.07422H13.5587C13.768 8.07422 13.9773 8.24169 13.9773 8.49281V11.758ZM13.9773 6.73468C13.9773 6.98579 13.768 7.15327 13.5587 7.15327H10.6284C10.3773 7.15327 10.2098 6.9858 10.2098 6.73468V3.51129C10.2098 3.302 10.3773 3.09271 10.6284 3.09271H13.5587C13.768 3.09271 13.9773 3.302 13.9773 3.51129V6.73468ZM19.0006 21.7204C19.0006 21.9297 18.7913 22.1389 18.582 22.1389H15.6518C15.4006 22.1389 15.2332 21.9297 15.2332 21.7204V18.4551C15.2332 18.204 15.4006 18.0366 15.6518 18.0366H18.582C18.7913 18.0366 19.0006 18.204 19.0006 18.4551V21.7204ZM19.0006 16.739C19.0006 16.9901 18.7913 17.1575 18.582 17.1575H15.6518C15.4006 17.1575 15.2332 16.9901 15.2332 16.739V13.4737C15.2332 13.2226 15.4006 13.0551 15.6518 13.0551H18.582C18.7913 13.0551 19.0006 13.2226 19.0006 13.4737V16.739ZM19.0006 11.7575C19.0006 11.9668 18.7913 12.1761 18.582 12.1761H15.6518C15.4006 12.1761 15.2332 11.9668 15.2332 11.7575V8.49231C15.2332 8.2412 15.4006 8.07373 15.6518 8.07373H18.582C18.7913 8.07373 19.0006 8.2412 19.0006 8.49231V11.7575ZM19.0006 6.73419C19.0006 6.9853 18.7913 7.15277 18.582 7.15277H15.6518C15.4006 7.15277 15.2332 6.9853 15.2332 6.73419V3.5108C15.2332 3.30151 15.4006 3.09222 15.6518 3.09222H18.582C18.7913 3.09222 19.0006 3.30151 19.0006 3.5108V6.73419Z" fill="#FFB81D" fill-opacity="0.58"/>
<path d="M27.2899 9.95819C27.2899 9.83254 27.2481 9.70708 27.1224 9.62324L22.7271 5.89762C22.6015 5.77197 22.4342 5.77197 22.2667 5.8558C22.0993 5.93944 22.0156 6.06509 22.0156 6.23256V23.8977H27.2482L27.248 9.95789L27.2899 9.95819ZM25.3225 22.1396H24.0247C23.8154 22.1396 23.6061 21.9303 23.6061 21.7211C23.6061 21.4699 23.8154 21.3025 24.0247 21.3025H25.3225C25.5317 21.3025 25.741 21.4699 25.741 21.7211C25.741 21.9722 25.5738 22.1396 25.3225 22.1396ZM25.3225 18.8326H24.0247C23.8154 18.8326 23.6061 18.6233 23.6061 18.414C23.6061 18.2047 23.8154 17.9955 24.0247 17.9955H25.3225C25.5317 17.9955 25.741 18.2047 25.741 18.414C25.741 18.6233 25.5738 18.8326 25.3225 18.8326ZM25.3225 15.4838H24.0247C23.8154 15.4838 23.6061 15.3163 23.6061 15.0652C23.6061 14.8141 23.8154 14.6466 24.0247 14.6466H25.3225C25.5317 14.6466 25.741 14.8141 25.741 15.0652C25.741 15.2745 25.5738 15.4838 25.3225 15.4838ZM25.3225 12.1349H24.0247C23.8154 12.1349 23.6061 11.9675 23.6061 11.7163C23.6061 11.4652 23.8154 11.2978 24.0247 11.2978H25.3225C25.5317 11.2978 25.741 11.4652 25.741 11.7163C25.741 11.9675 25.5738 12.1349 25.3225 12.1349Z" fill="#FFB81D"/>
<path d="M7.15454 6.2329C7.15454 6.06543 7.0709 5.93997 6.90343 5.85614C6.73596 5.7725 6.56849 5.81432 6.44303 5.89796L2.04753 9.62358C1.96389 9.70722 1.92188 9.83287 1.92188 9.95853V23.9397H7.15441L7.15454 6.2329ZM5.18709 22.1402H3.88951C3.6384 22.1402 3.47093 21.9309 3.47093 21.7216C3.47093 21.4705 3.6384 21.303 3.88951 21.303H5.18728C5.43839 21.303 5.60587 21.4705 5.60587 21.7216C5.60567 21.9727 5.4384 22.1402 5.18709 22.1402H5.18709ZM5.18709 18.8332H3.88951C3.6384 18.8332 3.47093 18.6239 3.47093 18.4146C3.47093 18.2053 3.6384 17.996 3.88951 17.996H5.18728C5.43839 17.996 5.60587 18.2053 5.60587 18.4146C5.60567 18.6239 5.4384 18.8332 5.18709 18.8332H5.18709ZM5.18709 15.4843H3.88951C3.6384 15.4843 3.47093 15.3168 3.47093 15.0657C3.47093 14.8146 3.6384 14.6471 3.88951 14.6471H5.18728C5.43839 14.6471 5.60587 14.8146 5.60587 15.0657C5.60567 15.275 5.4384 15.4843 5.18709 15.4843H5.18709ZM5.18709 12.1355H3.88951C3.6384 12.1355 3.47093 11.968 3.47093 11.7169C3.47093 11.4658 3.6384 11.2983 3.88951 11.2983H5.18728C5.43839 11.2983 5.60587 11.4658 5.60587 11.7169C5.60567 11.968 5.4384 12.1355 5.18709 12.1355H5.18709Z" fill="#FFB81D"/>
</svg>
