<svg width="22" height="31" viewBox="0 0 22 31" fill="none" xmlns="http://www.w3.org/2000/svg">
<path d="M20.9797 0H16.6754C16.1015 0 15.6551 0.446377 15.6551 1.02029C15.6551 1.5942 16.1015 2.04058 16.6754 2.04058H18.5565L12.7217 7.87536L8.06667 3.22029C7.68406 2.83768 7.04638 2.83768 6.63188 3.22029L0.286957 9.53333C-0.0956522 9.91594 -0.0956522 10.5536 0.286957 10.9681C0.478261 11.1594 0.733334 11.2551 0.988406 11.2551C1.24348 11.2551 1.49855 11.1594 1.68986 10.9681L7.30145 5.35652L11.9565 10.0116C12.3391 10.3942 12.9768 10.3942 13.3913 10.0116L19.9594 3.44348V5.32464C19.9594 5.89855 20.4058 6.34493 20.9797 6.34493C21.5536 6.34493 22 5.89855 22 5.32464V1.02029C22 0.446377 21.5536 0 20.9797 0Z" fill="#FFAD00"/>
<path opacity="0.58" d="M4.01486 18.5243V14.4432C4.01486 14.2519 3.85543 14.0605 3.63225 14.0605H0.507609C0.316305 14.0605 0.125 14.22 0.125 14.4432V18.5243C0.125 18.7156 0.284421 18.9069 0.507609 18.9069H3.63225C3.82355 18.875 4.01486 18.7156 4.01486 18.5243Z" fill="#FFAD00"/>
<path opacity="0.58" d="M9.88595 11.4143C9.88595 11.223 9.72653 11.0317 9.50334 11.0317H6.3787C6.15551 11.0317 5.99609 11.1912 5.99609 11.4143V18.5245C5.99609 18.5883 5.99609 18.6201 6.02798 18.652C7.1758 18.1419 8.48305 17.7593 9.85407 17.6317V11.4143H9.88595Z" fill="#FFAD00"/>
<path opacity="0.58" d="M21.3002 9.02295H18.1756C17.9843 9.02295 17.793 9.18237 17.793 9.40556V18.5244C17.793 18.7157 17.9524 18.907 18.1756 18.907H21.3002C21.4915 18.907 21.6828 18.7476 21.6828 18.5244V9.37367C21.6828 9.18237 21.5234 9.02295 21.3002 9.02295Z" fill="#FFAD00"/>
<path opacity="0.58" d="M15.7805 13.4231C15.7805 13.2318 15.6211 13.0405 15.3979 13.0405H12.2732C12.05 13.0405 11.8906 13.1999 11.8906 13.4231V17.5999C13.2935 17.6956 14.6008 18.0782 15.7486 18.5884C15.7486 18.5565 15.7486 18.5565 15.7486 18.5246V13.4231H15.7805Z" fill="#FFAD00"/>
<path d="M10.9973 19.3857C5.83206 19.3857 1.81467 23.8176 1.62337 24.0089C1.20888 24.4872 1.20888 25.2205 1.62337 25.6988C1.78279 25.8901 5.83206 30.322 10.9973 30.322C16.1625 30.322 20.1799 25.8901 20.3712 25.6988C20.7857 25.2205 20.7857 24.4872 20.3712 24.0089C20.1799 23.8176 16.1625 19.3857 10.9973 19.3857ZM10.9973 28.5365C8.9567 28.5365 7.29873 26.8785 7.29873 24.8379C7.29873 22.7973 8.9567 21.1394 10.9973 21.1394C13.0379 21.1394 14.6958 22.7973 14.6958 24.8379C14.6958 26.8785 13.0379 28.5365 10.9973 28.5365Z" fill="#FFAD00"/>
<path d="M10.9995 22.7017C10.9039 22.7017 10.8082 22.7017 10.7126 22.7335C10.7763 22.8611 10.8082 23.0524 10.8082 23.2118C10.8082 23.8495 10.2981 24.3596 9.66038 24.3596C9.40531 24.3596 9.18212 24.2959 8.99082 24.1683C8.92705 24.3915 8.86328 24.6147 8.86328 24.8698C8.86328 26.0495 9.8198 27.006 10.9995 27.006C12.1792 27.006 13.1357 26.0495 13.1357 24.8698C13.1357 23.6582 12.1792 22.7017 10.9995 22.7017Z" fill="#FFAD00"/>
</svg>
