<svg width="35" height="30" viewBox="0 0 35 30" fill="none" xmlns="http://www.w3.org/2000/svg">
<path opacity="0.58" d="M34.7189 9.88142C33.7997 8.28993 31.2006 8.56757 29.4092 9.00807C28.799 6.87734 27.8319 5.26846 26.5333 4.91723V2.77024C26.5333 1.24266 25.2906 0 23.763 0H9.48774C7.96437 0 6.72485 1.24267 6.72485 2.77024V3.78889C2.73678 3.93135 0 5.63108 0 7.16716C0 8.77166 2.98213 10.5594 7.26138 10.5594C11.5373 10.5594 14.5179 8.77424 14.522 7.17057V7.16834L14.5224 7.16668C14.5219 5.63112 11.7869 3.93235 7.80142 3.78902V2.77024C7.80142 1.83632 8.55803 1.07656 9.48775 1.07656H23.763C24.697 1.07656 25.4567 1.83632 25.4567 2.77024V4.91649C24.1563 5.26579 23.188 6.87546 22.5773 9.00804C20.7855 8.5674 18.1861 8.2916 17.2679 9.88143C16.3544 11.4638 17.8929 13.5916 19.165 14.9192C17.8938 16.2459 16.3542 18.3742 17.2679 19.957C17.5889 20.5128 18.3413 21.1755 20.103 21.1755C20.8392 21.1755 21.6803 21.051 22.5773 20.8304C23.188 22.9629 24.1563 24.5726 25.4567 24.9219V27.0717C25.4567 28.0018 24.697 28.7584 23.763 28.7584H9.48774C8.55802 28.7584 7.80141 28.0018 7.80141 27.0717V26.0461C11.7873 25.9012 14.522 24.2018 14.522 22.6661V20.3852C12.9345 21.6641 10.3023 22.4879 7.26138 22.4879C4.22264 22.4879 1.59222 21.6654 0.00428471 20.3881V22.6661C0.00428471 24.2037 2.73962 25.9053 6.72485 26.0465V27.0717C6.72485 28.5954 7.96436 29.8349 9.48774 29.8349H23.763C25.2906 29.8349 26.5333 28.5954 26.5333 27.0717V24.9212C27.8319 24.57 28.799 22.9611 29.4092 20.8304C30.3062 21.051 31.1472 21.1755 31.8835 21.1755C33.6455 21.1755 34.3979 20.5128 34.7189 19.957C35.5052 18.595 34.5682 16.726 32.8231 14.9192C34.5683 13.1125 35.5052 11.2434 34.7189 9.88142ZM20.103 20.0989C19.1291 20.0989 18.4535 19.8575 18.2001 19.4187C17.6083 18.394 19.1141 16.5293 19.935 15.6705C20.5336 16.2177 21.2033 16.7543 21.9292 17.2698C22.0127 18.1396 22.1423 18.988 22.3169 19.7888C21.511 19.9861 20.7581 20.0989 20.103 20.0989ZM21.8311 15.8585C21.4326 15.55 21.0564 15.2365 20.7069 14.9192C21.0564 14.6019 21.4326 14.2885 21.8311 13.9799C21.8075 14.602 21.806 15.1975 21.8311 15.8585ZM21.9292 12.5686C21.2033 13.0841 20.5336 13.6207 19.935 14.1679C16.7768 10.864 17.661 8.90972 22.3169 10.0496C22.1423 10.8504 22.0127 11.6988 21.9292 12.5686ZM28.8898 11.7857C28.2298 11.3703 27.8408 11.1566 27.2561 10.8474C27.7271 10.6544 28.1891 10.4851 28.6402 10.3403C28.738 10.7938 28.821 11.2776 28.8898 11.7857ZM25.9923 5.92054L25.995 5.92107L25.996 5.92084C26.8533 5.92356 27.7651 7.19207 28.377 9.2985C27.6052 9.54289 26.8053 9.84961 25.9934 10.2208C25.1814 9.84958 24.3814 9.54285 23.6094 9.29846C24.2218 7.1906 25.1345 5.92142 25.9923 5.92054ZM23.3463 10.3403C23.7974 10.4851 24.2595 10.6545 24.7305 10.8475C24.1828 11.1371 23.7892 11.3507 23.0968 11.7849C23.1656 11.2771 23.2485 10.7935 23.3463 10.3403ZM23.0968 18.0535C23.7756 18.4792 24.1669 18.6929 24.7305 18.991C24.2594 19.184 23.7974 19.3533 23.3463 19.4981C23.2485 19.0449 23.1656 18.5613 23.0968 18.0535ZM25.9932 23.918C25.1351 23.918 24.222 22.6485 23.6094 20.5399C24.3814 20.2956 25.1813 19.9889 25.9933 19.6176C26.8051 19.9889 27.6051 20.2956 28.377 20.54C27.7645 22.6486 26.8514 23.918 25.9932 23.918ZM28.6402 19.4982C28.1891 19.3533 27.7271 19.184 27.2561 18.991C27.8072 18.6996 28.2066 18.4827 28.8898 18.0527C28.821 18.5608 28.738 19.0447 28.6402 19.4982ZM29.0329 16.6743C28.5658 16.9905 27.0267 17.9225 25.9933 18.4234C24.9633 17.9241 24.0322 17.4059 22.9536 16.6748C22.8681 15.4816 22.8679 14.3588 22.9536 13.1636C24.0225 12.4391 24.9507 11.9204 25.9933 11.4151C27.0392 11.922 27.9488 12.4302 29.0329 13.1641C29.1184 14.3581 29.1185 15.4794 29.0329 16.6743ZM32.0524 14.1737C31.4442 13.62 30.7719 13.0817 30.0576 12.5727C29.9741 11.7014 29.8444 10.8517 29.6696 10.0497C33.997 8.99034 35.4409 10.6407 32.0524 14.1737ZM30.1552 13.9774C30.5621 14.292 30.9406 14.6068 31.2853 14.9192C30.9406 15.2316 30.5621 15.5464 30.1552 15.861C30.1791 15.2355 30.1804 14.6381 30.1552 13.9774ZM33.7867 19.4187C33.1971 20.4396 30.8864 20.0867 29.6696 19.7888C29.8445 18.9868 29.9742 18.137 30.0577 17.2657C30.772 16.7568 31.4442 16.2184 32.0524 15.6647C33.5726 17.2497 34.2158 18.6754 33.7867 19.4187Z" fill="#FFAD00"/>
<path d="M0.0078125 17.5402C0.0535447 19.1349 3.01881 20.8949 7.2649 20.8949C11.5408 20.8949 14.5214 19.1098 14.5255 17.5061V15.2188C12.938 16.4976 10.3058 17.3214 7.2649 17.3214C4.22617 17.3214 1.59575 16.4988 0.0078125 15.2216V17.5402Z" fill="#FFAD00"/>
<path d="M14.5255 12.3389V10.0503C12.938 11.3292 10.3058 12.153 7.2649 12.153C4.22617 12.153 1.59575 11.3305 0.0078125 10.0532V12.373C0.0535447 13.9674 3.01881 15.7273 7.2649 15.7273C11.5408 15.7273 14.5214 13.9422 14.5255 12.3389Z" fill="#FFAD00"/>
</svg>
