<svg width="41" height="24" viewBox="0 0 41 24" fill="none" xmlns="http://www.w3.org/2000/svg">
<path d="M11.3365 8.69232C11.2913 10.1064 12.0026 10.7326 12.0202 11.1303C12.0118 11.2112 11.984 11.289 11.9392 11.3571C11.8944 11.4252 11.8338 11.4817 11.7625 11.5217L10.9582 12.0811C10.8541 12.1536 10.7314 12.1952 10.6045 12.201C10.5774 12.1997 10.0898 12.3152 9.31757 10.6021C8.84641 11.1865 8.24693 11.6559 7.56501 11.9746C6.8831 12.2933 6.13684 12.4527 5.38336 12.4407C4.36037 12.4963 1.58801 11.8639 1.73065 8.93144C1.63074 6.54155 3.87087 5.05692 6.18767 5.1824C6.63381 5.18365 7.54494 5.2055 9.14037 5.57385V4.59867C9.3094 2.94672 8.21667 1.665 6.32465 1.85729C6.17384 1.85791 5.10562 1.82607 3.44421 2.48847C2.98173 2.69949 2.92267 2.66453 2.76872 2.66453C2.3031 2.66453 2.49475 1.32349 2.58398 1.15368C2.91136 0.754115 4.8373 0.00805461 6.72743 0.018668C7.99124 -0.0923812 9.24827 0.295147 10.2268 1.09749C10.6246 1.53956 10.9281 2.05714 11.1189 2.61899C11.3097 3.18083 11.384 3.77528 11.3371 4.36642L11.3365 8.69232ZM5.90616 10.7145C7.94395 10.6851 8.8067 9.46773 9.00338 8.81219C9.15796 8.18475 9.1322 7.78769 9.1322 7.10156C8.52457 6.95672 7.64988 6.79877 6.64637 6.79752C5.6944 6.72635 3.9557 7.14901 4.02357 8.81157C3.94565 9.8598 4.72231 10.7719 5.90616 10.7145ZM16.6462 12.1535C16.1523 12.1985 15.9223 11.8501 15.8495 11.5061L12.7202 1.22672C12.6592 1.05316 12.619 0.873984 12.5995 0.691059C12.588 0.615643 12.6071 0.538759 12.6525 0.4773C12.698 0.415841 12.7662 0.374835 12.8421 0.363292C12.8572 0.360794 12.7082 0.363292 14.2402 0.363292C14.7919 0.308352 14.9716 0.739756 15.0288 1.01071L17.2733 9.80299L19.357 1.01071C19.3903 0.809679 19.5417 0.31959 20.1613 0.371408H21.2396C21.3759 0.36017 21.9377 0.340192 22.0364 1.01883L24.1364 9.92348L26.4532 1.01883C26.4833 0.882725 26.6241 0.308976 27.2499 0.371408H28.4891C28.5425 0.363292 28.8755 0.320838 28.819 0.907073C28.7919 1.02257 29.0332 0.24155 25.5043 11.5142C25.4321 11.8582 25.2015 12.2066 24.7076 12.1617H23.5331C22.8457 12.2335 22.747 11.5586 22.7364 11.4905L20.6527 2.92924L18.5929 11.4818C18.5829 11.5498 18.4842 12.2247 17.7961 12.1529H16.6462V12.1535ZM33.8308 12.505C33.4613 12.5057 31.6994 12.4863 30.2265 11.7377C30.0798 11.676 29.9548 11.5724 29.8675 11.44C29.7801 11.3077 29.7342 11.1525 29.7358 10.9942V10.323C29.7358 9.79549 30.1253 9.89226 30.2906 9.95532C30.9215 10.2088 31.3262 10.4011 32.1009 10.5547C34.4039 11.0248 35.4168 10.4111 35.665 10.275C36.4913 9.78738 36.5567 8.67172 35.9949 8.09298C35.3364 7.5442 35.0222 7.5236 32.6564 6.78191C32.3648 6.70137 29.9104 5.93221 29.9048 3.51298C29.8665 1.7499 31.4788 0.00555712 34.2732 0.0199164C35.0693 0.0192921 37.1907 0.27776 37.765 0.995102C37.8499 1.12558 37.892 1.27917 37.8857 1.43462V2.06581C37.8857 2.34301 37.7839 2.4816 37.5797 2.4816C37.0952 2.42791 36.2356 1.78424 34.4906 1.81046C34.0577 1.78799 31.9841 1.86727 32.0771 3.36939C32.05 4.55309 33.7491 4.99698 33.9433 5.04818C36.2343 5.73305 37.0003 5.84668 37.9096 6.89491C38.9866 8.28402 38.406 9.91037 38.1829 10.3561C36.984 12.6967 33.8836 12.5063 33.8308 12.505ZM36.3569 19.0516C31.9564 22.2806 25.5684 23.9994 20.1142 23.9994C12.7548 24.0476 5.64338 21.3589 0.177955 16.462C-0.232369 16.0942 0.129571 15.5904 0.628495 15.8707C6.69127 19.3164 13.5556 21.1269 20.5402 21.1225C25.7561 21.0947 30.9151 20.0434 35.721 18.029C36.4612 17.7168 37.0889 18.516 36.3569 19.0516ZM38.1911 16.9733C37.6281 16.2541 34.4661 16.6374 33.0504 16.8053C32.6237 16.8534 32.5515 16.4857 32.9379 16.2141C35.4558 14.4554 39.5911 14.9592 40.0661 15.5505C40.5405 16.1417 39.9373 20.2584 37.5803 22.225C37.2184 22.5291 36.8721 22.3686 37.033 21.9691C37.5633 20.6424 38.7541 17.6931 38.1911 16.9733Z" fill="#FFB81D"/>
</svg>
