<svg width="33" height="32" viewBox="0 0 33 32" fill="none" xmlns="http://www.w3.org/2000/svg">
<path fill-rule="evenodd" clip-rule="evenodd" d="M15.7331 15.1443C19.8371 15.1443 23.164 11.7541 23.164 7.57214C23.164 3.39032 19.837 0 15.7331 0C11.6292 0 8.30225 3.3902 8.30225 7.57214C8.30225 11.7542 11.6292 15.1443 15.7331 15.1443ZM15.7331 11.4506C17.6991 11.4506 19.4486 9.80055 19.4486 7.57203C19.4486 5.34373 17.6991 3.69368 15.7331 3.69368C13.7671 3.69368 12.0177 5.34373 12.0177 7.57203C12.0177 9.80055 13.7672 11.4506 15.7331 11.4506Z" fill="#FFB81D"/>
<path d="M4.21729 30.6276C4.21795 30.9371 4.21862 31.255 4.21862 31.5814H0.50318C0.50318 31.2788 0.502512 30.9762 0.501622 30.6745C0.49695 28.951 0.492277 27.255 0.642687 25.7318C0.821573 23.9216 1.23455 22.1258 2.2814 20.577C4.45074 17.3674 8.69955 16.0679 15.7306 16.0679C22.0559 16.0679 26.7151 17.9931 27.9324 19.7618C26.2234 19.7618 24.2732 20.9526 23.722 21.2525C22.3052 19.9647 19.2103 19.7618 15.7307 19.7618C8.83465 19.7618 6.39909 21.1074 5.36528 22.6371C4.81059 23.4579 4.49244 24.5552 4.34047 26.0929C4.20986 27.4147 4.2132 28.8923 4.21743 30.6276H4.21729Z" fill="#FFB81D"/>
<path fill-rule="evenodd" clip-rule="evenodd" d="M14.3761 24.945C14.0949 25.3019 13.8998 25.8479 13.8998 26.4735C13.8998 27.0992 14.0949 27.6452 14.3761 28.0023C14.6358 28.3318 14.9658 28.5098 15.3976 28.5098C15.3976 28.5098 15.4057 28.5098 15.4228 28.5078C15.4399 28.5061 15.4639 28.5027 15.4953 28.4967C15.5592 28.4847 15.6428 28.4636 15.7476 28.43C15.9601 28.3621 16.2189 28.2555 16.5181 28.11C17.1175 27.8188 17.7894 27.4162 18.4365 26.9924C18.7496 26.7875 19.0503 26.5817 19.3263 26.3877C18.8192 25.9801 18.3161 25.6121 17.8188 25.3057C16.8594 24.7143 16.0573 24.4375 15.3976 24.4375C14.9658 24.4375 14.6358 24.6155 14.3761 24.945ZM24.1492 26.4735C24.3861 26.6473 24.6407 26.8291 24.9048 27.0104C25.5198 27.4323 26.1586 27.8314 26.7308 28.1191C27.0163 28.2626 27.2628 28.367 27.4647 28.4331C27.5643 28.4658 27.6435 28.4858 27.7036 28.4976C27.733 28.5032 27.7555 28.5063 27.7715 28.5081C27.7875 28.5098 27.7948 28.5098 27.7948 28.5098C28.1286 28.5098 28.4 28.3648 28.6481 27.9979C28.9211 27.5943 29.0842 27.0122 29.0842 26.4735C29.0842 25.9349 28.9211 25.3528 28.6481 24.9494C28.4 24.5823 28.1286 24.4375 27.7948 24.4375C27.7948 24.4375 27.7875 24.4375 27.7715 24.439C27.7555 24.4408 27.733 24.4439 27.7036 24.4497C27.6435 24.4613 27.5643 24.4815 27.4647 24.514C27.2628 24.5803 27.0163 24.6844 26.7308 24.8279C26.1586 25.1158 25.5198 25.5148 24.9048 25.9366C24.6407 26.118 24.3862 26.2998 24.1492 26.4735ZM21.6941 28.363C21.2554 28.6843 20.6947 29.0814 20.0853 29.4806C19.3862 29.9383 18.5952 30.417 17.8338 30.7869C17.1323 31.1277 16.2356 31.4893 15.3977 31.4893C12.3753 31.4893 10.9028 28.7617 10.9028 26.4735C10.9028 24.1856 12.3753 21.458 15.3977 21.458C16.8568 21.458 18.223 22.0492 19.3979 22.7734C20.2212 23.2807 21.0181 23.8964 21.7657 24.5291C22.1673 24.2216 22.6641 23.8539 23.2026 23.4845C23.8726 23.025 24.6357 22.5427 25.3784 22.1693C26.0641 21.8244 26.949 21.458 27.7947 21.458C29.3355 21.458 30.458 22.2859 31.1351 23.2869C31.7874 24.2512 32.0807 25.432 32.0807 26.4735C32.0807 27.515 31.7875 28.696 31.1351 29.6603C30.458 30.6611 29.3355 31.4892 27.7947 31.4892C26.949 31.4892 26.0641 31.1225 25.3784 30.7779C24.6357 30.4045 23.8725 29.9222 23.2026 29.4625C22.6317 29.0709 22.1077 28.6813 21.6941 28.3629V28.363Z" fill="#FFB81D" fill-opacity="0.5"/>
</svg>
