<svg width="32" height="32" viewBox="0 0 32 32" fill="none" xmlns="http://www.w3.org/2000/svg">
<path d="M30.4262 11.7333H26.2295V29.8667H24.1311V18.1333H19.9344V29.8667H17.8361V22.4H13.6393V29.8667H11.541V25.6H7.34426V29.8667H2.09836V0H0V32H31.4754V29.8667H30.4262V11.7333Z" fill="#FFB81D"/>
<path d="M31.4757 5.3335H28.3282V6.40016H30.2095L28.6357 8.00016H26.68C26.4455 7.08228 25.6308 6.40016 24.6561 6.40016C23.4989 6.40016 22.5577 7.35705 22.5577 8.5335C22.5577 9.1335 22.8043 9.67422 23.1978 10.0625L21.7369 12.2909C21.6613 12.2819 21.5868 12.2669 21.5086 12.2669C20.5338 12.2669 19.7191 12.949 19.4847 13.8669H17.2374C17.003 12.949 16.1882 12.2669 15.2135 12.2669C14.0563 12.2669 13.1151 13.2238 13.1151 14.4002C13.1151 14.8195 13.239 15.2083 13.4451 15.5378L10.4392 19.4673C10.1411 19.3026 9.80552 19.2002 9.44299 19.2002C8.46827 19.2002 7.65351 19.8823 7.41909 20.8002H4.72168V21.8669H7.41909C7.65352 22.7848 8.46827 23.4669 9.44299 23.4669C10.6001 23.4669 11.5413 22.51 11.5413 21.3335C11.5413 20.9143 11.4175 20.5254 11.2114 20.1959L14.2172 16.2664C14.5154 16.4311 14.8509 16.5335 15.2135 16.5335C16.1882 16.5335 17.003 15.8514 17.2374 14.9335H19.4847C19.7191 15.8514 20.5338 16.5335 21.5086 16.5335C22.6657 16.5335 23.6069 15.5766 23.6069 14.4002C23.6069 13.6935 23.2634 13.0707 22.7409 12.6823L24.1154 10.5863C24.2889 10.6332 24.4678 10.6668 24.6561 10.6668C25.6308 10.6668 26.4456 9.9847 26.68 9.06682H28.8528C28.992 9.06682 29.1257 9.01086 29.2238 8.91063L30.9512 7.15422V9.06685H32.0004V5.86685C32.0004 5.57185 31.7652 5.33351 31.4758 5.33351L31.4757 5.3335ZM9.44297 22.4002C8.86428 22.4002 8.39379 21.9218 8.39379 21.3335C8.39379 20.7452 8.86428 20.2668 9.44297 20.2668C10.0217 20.2668 10.4921 20.7452 10.4921 21.3335C10.4921 21.9218 10.0217 22.4002 9.44297 22.4002ZM15.2135 15.4668C14.6348 15.4668 14.1643 14.9885 14.1643 14.4002C14.1643 13.8118 14.6348 13.3335 15.2135 13.3335C15.7921 13.3335 16.2626 13.8118 16.2626 14.4002C16.2626 14.9885 15.7921 15.4668 15.2135 15.4668ZM21.5085 15.4668C20.9299 15.4668 20.4594 14.9885 20.4594 14.4002C20.4594 13.8118 20.9299 13.3335 21.5085 13.3335C22.0872 13.3335 22.5577 13.8118 22.5577 14.4002C22.5577 14.9885 22.0872 15.4668 21.5085 15.4668ZM24.6561 9.60016C24.0774 9.60016 23.6069 9.12183 23.6069 8.5335C23.6069 7.94517 24.0774 7.46683 24.6561 7.46683C25.2348 7.46683 25.7053 7.94517 25.7053 8.5335C25.7053 9.12183 25.2348 9.60016 24.6561 9.60016Z" fill="#FFB81D" fill-opacity="0.58"/>
<path d="M9.96664 6.93342C9.83291 6.93342 9.71371 6.87842 9.62144 6.79485L9.61839 6.79866L5.50291 3.07959C5.01017 3.89172 4.7207 4.84434 4.7207 5.86676C4.7207 8.80747 7.0741 11.2001 9.9666 11.2001C12.4999 11.2001 14.6193 9.36488 15.1066 6.93343L9.96664 6.93342Z" fill="#FFB81D" fill-opacity="0.58"/>
<path d="M6.1416 2.22936L9.44274 5.21243V0.560547C8.14392 0.692454 6.98724 1.31057 6.1416 2.22936Z" fill="#FFB81D" fill-opacity="0.58"/>
<path d="M10.4922 0.560547V5.86676H15.2135C15.2135 3.10628 13.1392 0.82892 10.4922 0.560547Z" fill="#FFB81D" fill-opacity="0.58"/>
</svg>
