<svg width="40" height="38" viewBox="0 0 40 38" fill="none" xmlns="http://www.w3.org/2000/svg">
<path d="M7.5 35.3403V38.0003H20V35.3403C17.9369 35.6839 15.8444 35.843 13.75 35.8153C11.6556 35.843 9.56312 35.6839 7.5 35.3403Z" fill="#FFAD00"/>
<path d="M21.88 19.5126C21.7742 19.567 21.6554 19.5948 21.535 19.5933C21.3742 19.594 21.2176 19.5439 21.09 19.4508C20.9772 19.3724 20.8901 19.2651 20.8387 19.1415C20.7874 19.018 20.774 18.8831 20.8 18.7526L21.385 15.7268H19.835C18.8903 15.7268 17.984 15.3716 17.3142 14.7388C16.6443 14.106 16.2653 13.247 16.26 12.3496V11.6893C15.4469 11.4686 14.6057 11.3551 13.76 11.3521C6.15501 11.3521 0 20.5243 0 27.0746C0 33.6248 6.15501 35.1021 13.75 35.1021C21.345 35.1021 27.5 33.6438 27.5 27.0746C27.5 24.2911 26.39 21.0373 24.53 18.2111L21.88 19.5126ZM20.945 30.3711C19.25 30.9696 17.03 30.9981 14.445 30.9981H13.395C10.68 30.9981 8.32502 30.9981 6.55501 30.3711C4.53001 29.6538 3.55501 28.1528 3.55501 25.7873C3.55501 23.4218 4.55501 21.9256 6.55501 21.2083C8.32502 20.5766 10.675 20.5766 13.395 20.5813H14.105C16.82 20.5813 19.175 20.5813 20.945 21.2083C22.945 21.9256 23.945 23.4218 23.945 25.7873C23.945 28.1528 22.97 29.6538 20.945 30.3711Z" fill="#FFAD00"/>
<path d="M20.6855 21.8742C19.0405 21.2899 16.7605 21.2899 14.1054 21.2947H13.3954C10.7454 21.2947 8.46044 21.2947 6.81543 21.8742C5.07543 22.4917 4.31543 23.6982 4.31543 25.7882C4.31543 27.8782 5.09543 29.0847 6.81543 29.7022C8.46044 30.2865 10.7454 30.2912 13.3954 30.2865H14.1054C16.7505 30.2865 19.0405 30.2865 20.6855 29.7022C22.4255 29.0847 23.1855 27.8782 23.1855 25.7882C23.1855 23.6982 22.4255 22.4917 20.6855 21.8742ZM9.13544 28.1205C8.64988 28.1205 8.17523 27.9837 7.77151 27.7274C7.36779 27.4711 7.05312 27.1069 6.86731 26.6807C6.6815 26.2546 6.63288 25.7856 6.72761 25.3332C6.82233 24.8808 7.05615 24.4652 7.39949 24.1391C7.74283 23.8129 8.18027 23.5908 8.65649 23.5008C9.13272 23.4108 9.62633 23.457 10.0749 23.6335C10.5235 23.81 10.9069 24.1089 11.1767 24.4925C11.4465 24.876 11.5904 25.3269 11.5904 25.7882C11.5904 26.4068 11.3318 27 10.8714 27.4374C10.411 27.8747 9.78655 28.1205 9.13544 28.1205ZM18.3655 28.1205C17.8799 28.1205 17.4053 27.9837 17.0015 27.7274C16.5978 27.4711 16.2831 27.1069 16.0973 26.6807C15.9115 26.2546 15.8629 25.7856 15.9576 25.3332C16.0523 24.8808 16.2862 24.4652 16.6295 24.1391C16.9728 23.8129 17.4103 23.5908 17.8865 23.5008C18.3627 23.4108 18.8563 23.457 19.3049 23.6335C19.7535 23.81 20.137 24.1089 20.4067 24.4925C20.6765 24.876 20.8205 25.3269 20.8205 25.7882C20.8205 26.4068 20.5618 27 20.1014 27.4374C19.641 27.8747 19.0166 28.1205 18.3655 28.1205Z" fill="#FFAD00"/>
<path d="M9.13567 27.407C10.0773 27.407 10.8407 26.6818 10.8407 25.7872C10.8407 24.8927 10.0773 24.1675 9.13567 24.1675C8.19402 24.1675 7.43066 24.8927 7.43066 25.7872C7.43066 26.6818 8.19402 27.407 9.13567 27.407Z" fill="#FFAD00"/>
<path d="M18.3652 27.407C19.3068 27.407 20.0702 26.6818 20.0702 25.7872C20.0702 24.8927 19.3068 24.1675 18.3652 24.1675C17.4235 24.1675 16.6602 24.8927 16.6602 25.7872C16.6602 26.6818 17.4235 27.407 18.3652 27.407Z" fill="#FFAD00"/>
<path opacity="0.45" d="M37.175 1.68157e-05H19.835C19.4632 -0.00123358 19.0948 0.0672611 18.7509 0.201572C18.407 0.335884 18.0943 0.533369 17.831 0.782704C17.5676 1.03204 17.3586 1.32832 17.216 1.65454C17.0734 1.98077 17 2.33053 17 2.68377V12.35C17 13.0618 17.2976 13.7444 17.8274 14.2477C18.3572 14.751 19.0758 15.0338 19.825 15.0338H22.275L21.525 18.9003L29.455 15.0338H37.175C37.9243 15.0338 38.6428 14.751 39.1726 14.2477C39.7024 13.7444 40 13.0618 40 12.35V2.68377C40 1.972 39.7024 1.28937 39.1726 0.786071C38.6428 0.282769 37.9243 1.68157e-05 37.175 1.68157e-05ZM22.205 9.29578C21.8597 9.29672 21.5218 9.2003 21.2342 9.01871C20.9466 8.83713 20.7221 8.57855 20.5893 8.27572C20.4564 7.97289 20.4212 7.63943 20.4879 7.31754C20.5547 6.99566 20.7205 6.69983 20.9643 6.46751C21.2082 6.2352 21.5191 6.07684 21.8577 6.01249C22.1964 5.94814 22.5475 5.98069 22.8666 6.10602C23.1858 6.23135 23.4586 6.44382 23.6506 6.71654C23.8425 6.98926 23.945 7.30996 23.945 7.63803C23.9437 8.07649 23.7601 8.49671 23.4342 8.80719C23.1083 9.11767 22.6665 9.29328 22.205 9.29578ZM28.865 9.29578C28.5199 9.29578 28.1825 9.19856 27.8955 9.0164C27.6086 8.83425 27.3849 8.57534 27.2528 8.27243C27.1208 7.96951 27.0862 7.63619 27.1535 7.31462C27.2209 6.99305 27.3871 6.69766 27.6311 6.46582C27.8752 6.23398 28.1861 6.0761 28.5246 6.01213C28.8631 5.94817 29.2139 5.98099 29.5328 6.10647C29.8517 6.23194 30.1242 6.44442 30.3159 6.71703C30.5077 6.98965 30.61 7.31016 30.61 7.63803C30.61 8.07769 30.4262 8.49935 30.0989 8.81024C29.7717 9.12113 29.3278 9.29578 28.865 9.29578ZM35.53 9.29578C35.1847 9.29672 34.8468 9.2003 34.5592 9.01871C34.2716 8.83713 34.0471 8.57855 33.9143 8.27572C33.7815 7.97289 33.7462 7.63943 33.813 7.31754C33.8797 6.99566 34.0455 6.69983 34.2894 6.46751C34.5332 6.2352 34.8441 6.07684 35.1828 6.01249C35.5214 5.94814 35.8725 5.98069 36.1917 6.10602C36.5108 6.23135 36.7836 6.44382 36.9756 6.71654C37.1676 6.98926 37.27 7.30996 37.27 7.63803C37.27 8.07687 37.0869 8.49781 36.7607 8.80856C36.4345 9.11932 35.992 9.29453 35.53 9.29578Z" fill="#FFAD00"/>
<path opacity="0.45" d="M22.2061 6.69727C22.0083 6.69727 21.8149 6.75298 21.6505 6.85737C21.486 6.96176 21.3579 7.11013 21.2822 7.28372C21.2065 7.45731 21.1867 7.64832 21.2253 7.8326C21.2639 8.01689 21.3591 8.18616 21.4989 8.31902C21.6388 8.45188 21.817 8.54236 22.011 8.57902C22.2049 8.61567 22.406 8.59686 22.5887 8.52495C22.7715 8.45305 22.9276 8.33129 23.0375 8.17506C23.1474 8.01883 23.2061 7.83516 23.2061 7.64727C23.2061 7.39531 23.1007 7.15367 22.9132 6.97551C22.7256 6.79735 22.4713 6.69727 22.2061 6.69727Z" fill="#FFAD00"/>
<path opacity="0.45" d="M28.8643 6.69727C28.6665 6.69727 28.4731 6.75298 28.3087 6.85737C28.1442 6.96176 28.0161 7.11013 27.9404 7.28372C27.8647 7.45731 27.8449 7.64832 27.8835 7.8326C27.9221 8.01689 28.0173 8.18616 28.1572 8.31902C28.297 8.45188 28.4752 8.54236 28.6692 8.57902C28.8632 8.61567 29.0642 8.59686 29.2469 8.52495C29.4297 8.45305 29.5858 8.33129 29.6957 8.17506C29.8056 8.01883 29.8643 7.83516 29.8643 7.64727C29.8643 7.39531 29.7589 7.15367 29.5714 6.97551C29.3838 6.79735 29.1295 6.69727 28.8643 6.69727Z" fill="#FFAD00"/>
<path opacity="0.45" d="M35.5293 6.69727C35.3315 6.69727 35.1382 6.75298 34.9737 6.85737C34.8093 6.96176 34.6811 7.11013 34.6054 7.28372C34.5297 7.45731 34.5099 7.64832 34.5485 7.8326C34.5871 8.01689 34.6823 8.18616 34.8222 8.31902C34.962 8.45188 35.1402 8.54236 35.3342 8.57902C35.5282 8.61567 35.7293 8.59686 35.912 8.52495C36.0947 8.45305 36.2509 8.33129 36.3608 8.17506C36.4707 8.01883 36.5293 7.83516 36.5293 7.64727C36.5293 7.39531 36.4239 7.15367 36.2364 6.97551C36.0489 6.79735 35.7945 6.69727 35.5293 6.69727Z" fill="#FFAD00"/>
</svg>
