<svg width="38" height="30" viewBox="0 0 38 30" fill="none" xmlns="http://www.w3.org/2000/svg">
<g clip-path="url(#clip0_751_6)">
<path d="M25.1349 26.1322C25.1349 26.8908 24.871 27.5379 24.3432 28.0737C23.8154 28.6094 23.1779 28.8772 22.4306 28.8772C21.6832 28.8772 21.0429 28.6094 20.5094 28.0737C19.976 27.5379 19.7093 26.8908 19.7093 26.1322C19.7093 25.3736 19.976 24.7236 20.5094 24.1822C21.0429 23.6408 21.6832 23.3701 22.4306 23.3701C23.1779 23.3701 23.8154 23.6408 24.3432 24.1822C24.871 24.7236 25.1349 25.3736 25.1349 26.1322ZM12.7828 26.1322C12.7828 26.8908 12.5161 27.5379 11.9827 28.0737C11.4493 28.6094 10.8089 28.8772 10.0616 28.8772C9.31422 28.8772 8.67667 28.6094 8.14889 28.0737C7.62111 27.5379 7.35722 26.8908 7.35722 26.1322C7.35722 25.3736 7.62111 24.7236 8.14889 24.1822C8.67667 23.6408 9.31422 23.3701 10.0616 23.3701C10.8089 23.3701 11.4493 23.6408 11.9827 24.1822C12.5161 24.7236 12.7828 25.3736 12.7828 26.1322ZM0 1.1208C0.626296 1.7908 1.23359 2.37365 1.82189 2.86937C2.41018 3.36508 3.07518 3.82294 3.81689 4.24294C4.55859 4.66294 5.30593 5.01437 6.05889 5.29722C6.81185 5.58008 7.72455 5.83365 8.797 6.05794C9.86944 6.28222 10.9693 6.45794 12.0967 6.58508C13.224 6.71222 14.5983 6.81579 16.2197 6.89579C17.841 6.97579 19.5123 7.02865 21.2336 7.05437C22.9548 7.08008 25.0026 7.09437 27.3769 7.09722C28.9053 7.09722 30.2494 7.12508 31.4091 7.1808C32.5688 7.23651 33.5638 7.32865 34.3942 7.45722C35.2246 7.58579 35.9065 7.73937 36.4399 7.91794C36.9733 8.09651 37.3638 8.31722 37.6116 8.58008C37.8593 8.84294 37.9908 9.13008 38.0063 9.44151C38.0218 9.75294 37.9148 10.1101 37.6854 10.5129C37.456 10.9158 37.1457 11.3429 36.7544 11.7944C36.3632 12.2458 35.8713 12.7537 35.2788 13.3179C34.6863 13.8822 34.0487 14.4651 33.3661 15.0665C32.6835 15.6679 31.9193 16.3322 31.0734 17.0594C29.0397 18.8122 27.4677 20.1908 26.3572 21.1951C26.6767 20.6265 27.0975 20.0179 27.6197 19.3694C28.1418 18.7208 28.6583 18.1322 29.1692 17.6037C29.6801 17.0751 30.1994 16.5251 30.7272 15.9537C31.255 15.3822 31.711 14.8715 32.0952 14.4215C32.4794 13.9715 32.7764 13.5222 32.9861 13.0737C33.1958 12.6251 33.2676 12.2344 33.2014 11.9015C33.1353 11.5687 32.8855 11.2587 32.452 10.9715C32.0185 10.6844 31.3781 10.4558 30.5309 10.2858C29.6836 10.1158 28.5619 9.98437 27.1658 9.89151C25.7696 9.79865 24.0983 9.7708 22.1519 9.80794C20.304 9.8308 18.5778 9.79722 16.9733 9.70722C15.3689 9.61722 13.9615 9.48865 12.7511 9.32151C11.5407 9.15437 10.4162 8.9258 9.37755 8.6358C8.33889 8.3458 7.46207 8.05865 6.74711 7.77437C6.03215 7.49008 5.3587 7.14151 4.72678 6.72865C4.09485 6.31579 3.5917 5.94437 3.21733 5.61437C2.84296 5.28437 2.4693 4.88508 2.09633 4.41651C1.72337 3.94794 1.44541 3.56008 1.26244 3.25294C1.07948 2.9458 0.859926 2.56651 0.603778 2.11508C0.34763 1.66365 0.147074 1.33151 0.00211111 1.11865L0 1.1208Z" fill="#FFB81D"/>
</g>
<defs>
<clipPath id="clip0_751_6">
<rect width="38" height="30" fill="white"/>
</clipPath>
</defs>
</svg>
