<svg width="39" height="26" viewBox="0 0 39 26" fill="none" xmlns="http://www.w3.org/2000/svg">
<path d="M3.61948 0H35.3647C37.3737 0 39 1.81411 39 4.05508V17.572C39 19.813 37.3737 21.6271 35.3647 21.6271H23.9804L25.543 25.8956L18.671 21.6271H3.63543C1.62644 21.6271 0.000116244 19.813 0.000116244 17.572V4.05508C-0.0158281 1.8319 1.6105 0 3.61948 0Z" fill="#FFB81D"/>
<path d="M2.2207 3.69604C2.44265 3.36004 2.77558 3.1832 3.21948 3.14783C4.02802 3.07709 4.48777 3.50151 4.59875 4.42109C5.09021 8.1171 5.62924 11.2472 6.19997 13.8114L9.67192 6.4371C9.98899 5.7651 10.3853 5.41141 10.8609 5.37604C11.5585 5.32299 11.9866 5.81815 12.1609 6.86152C12.5573 9.21353 13.0646 11.2118 13.667 12.9095C14.0792 8.41774 14.7768 5.18152 15.7597 3.1832C15.9975 2.68804 16.3463 2.44046 16.8061 2.40509C17.1707 2.36972 17.5036 2.49351 17.8048 2.75877C18.1061 3.02404 18.2646 3.36004 18.2963 3.76678C18.3122 4.08509 18.2646 4.35036 18.1378 4.61562C17.5195 5.88889 17.0122 8.02868 16.6 10.9996C16.2036 13.8822 16.0609 16.1281 16.1561 17.7373C16.1878 18.1794 16.1244 18.5685 15.9658 18.9045C15.7756 19.2936 15.4902 19.5058 15.1256 19.5411C14.7134 19.5765 14.2853 19.3643 13.8731 18.8868C12.3987 17.2068 11.2256 14.6956 10.3695 11.3533C9.33899 13.6169 8.57802 15.3146 8.08655 16.4464C7.15119 18.4447 6.3585 19.4704 5.69265 19.5234C5.2646 19.5588 4.89997 19.1521 4.58289 18.3032C3.77436 15.9866 2.90241 11.5125 1.96704 4.88088C1.90363 4.42109 1.99875 4.01436 2.2207 3.69604ZM36.2902 6.47247C35.7195 5.35836 34.8792 4.68636 33.7536 4.42109C33.4524 4.35036 33.167 4.31499 32.8975 4.31499C31.3756 4.31499 30.139 5.1992 29.1719 6.96763C28.3475 8.47079 27.9353 10.1331 27.9353 11.9546C27.9353 13.3163 28.189 14.4834 28.6963 15.4561C29.267 16.5702 30.1073 17.2422 31.2329 17.5074C31.5341 17.5782 31.8195 17.6135 32.089 17.6135C33.6268 17.6135 34.8634 16.7293 35.8146 14.9609C36.639 13.4401 37.0512 11.7777 37.0512 9.95627C37.067 8.57689 36.7975 7.42742 36.2902 6.47247ZM34.2926 11.371C34.0707 12.5382 33.6744 13.4047 33.0878 13.9883C32.628 14.4481 32.2 14.6426 31.8036 14.5542C31.4231 14.4658 31.1061 14.0944 30.8683 13.4047C30.678 12.8565 30.5829 12.3083 30.5829 11.7954C30.5829 11.3533 30.6146 10.9112 30.6939 10.5045C30.8366 9.77942 31.1061 9.07205 31.5341 8.40005C32.0573 7.53352 32.6122 7.17984 33.1829 7.30363C33.5634 7.39205 33.8805 7.76342 34.1183 8.4531C34.3085 9.00132 34.4036 9.54953 34.4036 10.0624C34.4036 10.5222 34.3719 10.9643 34.2926 11.371ZM26.3658 6.47247C25.7951 5.35836 24.939 4.68636 23.8292 4.42109C23.528 4.35036 23.2426 4.31499 22.9731 4.31499C21.4512 4.31499 20.2146 5.1992 19.2475 6.96763C18.4231 8.47079 18.0109 10.1331 18.0109 11.9546C18.0109 13.3163 18.2646 14.4834 18.7719 15.4561C19.3426 16.5702 20.1829 17.2422 21.3085 17.5074C21.6097 17.5782 21.8951 17.6135 22.1646 17.6135C23.7024 17.6135 24.939 16.7293 25.8902 14.9609C26.7146 13.4401 27.1268 11.7777 27.1268 9.95627C27.1268 8.57689 26.8731 7.42742 26.3658 6.47247ZM24.3524 11.371C24.1305 12.5382 23.7341 13.4047 23.1475 13.9883C22.6878 14.4481 22.2597 14.6426 21.8634 14.5542C21.4829 14.4658 21.1658 14.0944 20.928 13.4047C20.7378 12.8565 20.6426 12.3083 20.6426 11.7954C20.6426 11.3533 20.6744 10.9112 20.7536 10.5045C20.8963 9.77942 21.1658 9.07205 21.5939 8.40005C22.117 7.53352 22.6719 7.17984 23.2426 7.30363C23.6231 7.39205 23.9402 7.76342 24.178 8.4531C24.3683 9.00132 24.4634 9.54953 24.4634 10.0624C24.4792 10.5222 24.4317 10.9643 24.3524 11.371Z" fill="white"/>
</svg>
