<svg width="31" height="36" viewBox="0 0 31 36" fill="none" xmlns="http://www.w3.org/2000/svg">
<path fill-rule="evenodd" clip-rule="evenodd" d="M20.4122 33.5701C20.9361 34.1258 20.9361 35.0273 20.4122 35.583C19.888 36.1387 19.0384 36.1387 18.5145 35.583L14.6024 31.4338C14.0785 30.8781 14.0785 29.9766 14.6024 29.4209L18.5145 25.2717C19.0384 24.7161 19.888 24.7161 20.4119 25.2717C20.9361 25.8274 20.9361 26.7289 20.4119 27.2846L17.4488 30.4274L20.4122 33.5701ZM24.0468 27.2846C23.5225 26.7289 23.5225 25.8277 24.0468 25.2717C24.5706 24.7161 25.4203 24.7161 25.9445 25.2717L29.8563 29.4209C30.3801 29.977 30.3801 30.8781 29.8563 31.4338L25.9445 35.583C25.4203 36.1387 24.5707 36.1387 24.0468 35.583C23.5225 35.0273 23.5225 34.1261 24.0468 33.5701L27.0098 30.4273L24.0468 27.2846Z" fill="#FFB81D" fill-opacity="0.58"/>
<path fill-rule="evenodd" clip-rule="evenodd" d="M0.338135 4.14919C0.338135 1.85757 2.19571 0 4.48733 0H21.0841C23.3757 0 25.2333 1.85757 25.2333 4.14919V20.746C25.2333 21.5097 24.614 22.129 23.8502 22.129H18.0806C17.7138 22.129 17.3622 22.2748 17.1025 22.5341L11.0242 28.6124C10.6034 29.0335 10.499 29.6766 10.7652 30.2091L12.6397 33.9583C12.854 34.3868 12.8311 34.8958 12.5792 35.3036C12.327 35.7115 11.8821 35.9597 11.4027 35.9597H4.48733C2.19572 35.9597 0.338141 34.1021 0.338141 31.8105L0.338135 4.14919ZM8.63652 2.76613C7.87275 2.76613 7.25346 3.38542 7.25346 4.14919C7.25346 4.91297 7.87275 5.53226 8.63652 5.53226H16.9349C17.6987 5.53226 18.318 4.91297 18.318 4.14919C18.318 3.38542 17.6987 2.76613 16.9349 2.76613H8.63652Z" fill="#FFB81D"/>
</svg>
