<svg width="31" height="36" viewBox="0 0 31 36" fill="none" xmlns="http://www.w3.org/2000/svg">
<path d="M16.1358 0L14.7091 3.45259C14.6021 3.72372 14.3383 3.89479 14.0529 3.89479H7.0836C6.79116 3.89479 6.5344 3.72356 6.42012 3.45259L4.98621 0H16.1358Z" fill="#FFB81D"/>
<path d="M12.9828 8.503C13.3967 8.08919 13.9317 7.87519 14.4951 7.87519C14.9944 7.87519 15.4866 8.05352 15.8646 8.37452L16.8134 9.1592L16.9346 7.91795C17.0416 6.81228 17.9548 5.97774 19.0675 5.97774L21.1291 5.97788V2.52529C21.1291 1.13428 19.9878 3.56473e-05 18.5968 3.56473e-05H17.6836L16.0215 4.00186C15.7076 4.79363 14.93 5.32154 14.0456 5.32154H7.07628C6.21318 5.32154 5.4356 4.80801 5.1004 4.00896L3.43116 0H2.51801C1.127 0 0 1.13424 0 2.52525V33.1417C0 34.5327 1.12715 35.667 2.51816 35.667H18.5968C19.9877 35.667 21.129 34.5327 21.129 33.1417V29.682H19.0745C17.9688 29.682 17.0486 28.8546 16.9416 27.7489L16.8204 26.5077L15.8574 27.3066C15.4936 27.6133 15.0014 27.7917 14.502 27.7917C13.9385 27.7917 13.4035 27.5777 13.004 27.1783L11.0851 25.2593C10.2934 24.4532 10.2506 23.2192 10.9567 22.3774L11.7413 21.4286L10.5001 21.3074C9.39442 21.2004 8.56698 20.2802 8.56698 19.1745V16.4853C8.56698 15.3796 9.39442 14.4665 10.5001 14.3595L11.7342 14.2382L10.9425 13.2752C10.2433 12.4192 10.3005 11.1851 11.0851 10.4004L12.9828 8.503ZM14.4594 31.7721C14.8517 31.7721 15.1727 32.086 15.1727 32.4854C15.1727 32.8778 14.8517 33.1988 14.4594 33.1988H6.66973C6.2774 33.1988 5.9564 32.8778 5.9564 32.4854C5.9564 32.086 6.2774 31.7721 6.66973 31.7721H14.4594Z" fill="#FFB81D"/>
<path d="M30.1886 15.7791L27.9772 15.5651C27.8275 15.0515 27.6206 14.5593 27.3638 14.0885L28.7763 12.3694C29.0117 12.0841 28.9903 11.6703 28.7335 11.4135L26.8359 9.50896C26.5791 9.25219 26.1582 9.23073 25.88 9.46619L24.1609 10.8787C23.6901 10.6219 23.1979 10.415 22.6844 10.2652L22.4704 8.05389C22.4347 7.68302 22.1279 7.40479 21.7641 7.40479H19.0749C18.704 7.40479 18.3972 7.68302 18.3616 8.05389L18.1476 10.2652C17.6411 10.415 17.1418 10.6219 16.671 10.8787L14.9519 9.46619C14.6737 9.23073 14.26 9.25219 13.996 9.50896L12.0841 11.4135C11.8273 11.6703 11.8058 12.0841 12.0413 12.3694L13.4538 14.0885C13.197 14.5593 12.9972 15.0515 12.8404 15.5651L10.629 15.7791C10.2652 15.8147 9.987 16.1215 9.987 16.4853V19.1745C9.987 19.5454 10.2652 19.8522 10.629 19.8879L12.8404 20.1019C12.9972 20.6154 13.197 21.1076 13.4538 21.5784L12.0413 23.2975C11.8058 23.5757 11.8273 23.9894 12.0841 24.2534L13.9959 26.1581C14.2598 26.4149 14.6736 26.4363 14.9518 26.2009L16.6709 24.7884C17.1417 25.0452 17.641 25.245 18.1475 25.4018L18.3615 27.6132C18.3971 27.9769 18.7039 28.2552 19.0748 28.2552H21.764C22.1278 28.2552 22.4346 27.9769 22.4702 27.6132L22.6843 25.4018C23.1978 25.2449 23.69 25.0452 24.1608 24.7884L25.8799 26.2009C26.1652 26.4363 26.579 26.4149 26.8358 26.1581L28.7405 24.2536C28.9973 23.9897 29.0187 23.5759 28.7833 23.2977L27.3708 21.5785C27.6276 21.1078 27.8345 20.6155 27.9842 20.102L30.1956 19.888C30.5664 19.8523 30.8447 19.5455 30.8447 19.1747V16.4854C30.8448 16.1215 30.5667 15.8147 30.1886 15.7791ZM20.4158 22.0992C18.0689 22.0992 16.1501 20.1803 16.1501 17.8335C16.1501 15.4795 18.069 13.5677 20.4158 13.5677C22.7699 13.5677 24.6816 15.4795 24.6816 17.8335C24.6816 20.1804 22.7698 22.0992 20.4158 22.0992Z" fill="#FFB81D" fill-opacity="0.58"/>
</svg>
