<svg width="45" height="43" viewBox="0 0 45 43" fill="none" xmlns="http://www.w3.org/2000/svg">
<path d="M32.7156 29.3748C32.7453 29.331 32.7789 29.2902 32.8161 29.2527C36.2864 24.6577 36.2864 18.3176 32.8161 13.722C32.7789 13.6845 32.7453 13.6437 32.7156 13.5999C31.6232 12.1808 30.2455 11.0059 28.6715 10.1512C28.6175 10.1335 28.5665 10.1068 28.5212 10.0723C24.7622 8.08389 20.2626 8.08389 16.5037 10.0723C16.4583 10.1068 16.4073 10.1335 16.3533 10.1512C14.7794 11.0059 13.4016 12.1808 12.3093 13.5999C12.2795 13.6437 12.2459 13.6845 12.2087 13.722C8.73845 18.317 8.73845 24.6571 12.2087 29.2527C12.2459 29.2902 12.2795 29.331 12.3093 29.3748C13.4016 30.794 14.7793 31.9688 16.3533 32.8235C16.4073 32.8412 16.4584 32.8679 16.5037 32.9024C20.2626 34.8912 24.7622 34.8912 28.5212 32.9024C28.5665 32.8679 28.6175 32.8412 28.6715 32.8235C30.2455 31.9688 31.6232 30.794 32.7156 29.3748ZM28.9657 21.4874C28.9636 20.3545 28.6644 19.242 28.0981 18.2608C27.1576 16.6484 25.5698 15.5176 23.7387 15.156C24.5918 17.9595 26.0977 23.1003 26.0977 24.3556C26.0977 26.3356 24.4925 27.9408 22.5125 27.9408C20.5325 27.9408 18.9273 26.3356 18.9273 24.3556C18.9273 23.101 20.4332 17.9598 21.2863 15.156C20.5931 15.2851 19.9266 15.5299 19.3147 15.8801C19.3039 15.8819 19.2937 15.887 19.2859 15.8945V15.9018H19.2787C19.2715 15.909 19.2643 15.909 19.2571 15.9162C17.278 17.0739 16.0608 19.1944 16.0593 21.4874C16.0581 21.8829 15.7379 22.2031 15.3424 22.2043H11.7572C11.3617 22.2031 11.0415 21.8829 11.0403 21.4874C11.0514 17.4079 13.2195 13.6383 16.7405 11.5779C16.7549 11.571 16.7621 11.5638 16.7762 11.5566C16.7906 11.5494 16.8122 11.535 16.8266 11.5278C20.3587 9.549 24.6665 9.549 28.198 11.5278C28.2052 11.535 28.2197 11.535 28.2269 11.5422C28.2341 11.5494 28.2341 11.5494 28.2413 11.5494L28.2485 11.5566C28.2626 11.5638 28.2698 11.571 28.2842 11.5779C31.8051 13.6383 33.9733 17.4078 33.9844 21.4874C33.9832 21.8829 33.663 22.2031 33.2675 22.2043H29.6823C29.2868 22.2031 28.9666 21.8829 28.9654 21.4874L28.9657 21.4874Z" fill="#FFB81D"/>
<path d="M28.1415 13.1774L27.0588 15.056C27.9951 15.7072 28.7759 16.5564 29.346 17.5441C29.9132 18.5341 30.2604 19.6345 30.3643 20.7707H32.5225C32.2957 17.704 30.6827 14.9086 28.1415 13.1774Z" fill="#FFB81D"/>
<path d="M18.1315 12.4529L19.207 14.3246C20.0097 13.9522 20.871 13.7217 21.7524 13.6434C21.7812 13.5356 21.8097 13.4426 21.8313 13.3853C21.924 13.0867 22.2001 12.8832 22.5125 12.8832C22.8249 12.8832 23.101 13.0867 23.1937 13.3853C23.2153 13.4426 23.2438 13.5356 23.2727 13.6434C24.1544 13.7292 25.015 13.9642 25.818 14.3387L26.8936 12.4601C24.1204 11.1493 20.9067 11.1466 18.1319 12.4529L18.1315 12.4529Z" fill="#FFB81D"/>
<path d="M12.5033 20.7707H14.6616C14.8749 18.472 16.0792 16.3804 17.9599 15.0416L16.8844 13.1774C14.3441 14.9096 12.7317 17.7046 12.5034 20.7707H12.5033Z" fill="#FFB81D"/>
<path d="M20.3616 24.3553C20.3616 25.5434 21.3246 26.5063 22.5127 26.5063C23.7008 26.5063 24.6637 25.5434 24.6637 24.3553C24.6637 23.4877 23.5309 19.4224 22.5127 16.0453C21.4945 19.4225 20.3616 23.4879 20.3616 24.3553ZM23.1078 23.9538C23.1351 23.9937 23.1567 24.0372 23.1723 24.0828C23.193 24.1236 23.2077 24.1671 23.2155 24.2118C23.2233 24.2596 23.2281 24.3073 23.2296 24.3553C23.2284 24.4036 23.2236 24.4513 23.2155 24.4987C23.2077 24.5437 23.193 24.5873 23.1723 24.6278C23.1567 24.6737 23.1351 24.7169 23.1078 24.7568C23.0814 24.7946 23.0525 24.8303 23.0216 24.8645C22.8842 24.9954 22.7026 25.0698 22.5127 25.0725C22.4191 25.0713 22.3263 25.0518 22.2402 25.0152C22.1526 24.9804 22.0721 24.9294 22.0037 24.8645C21.9728 24.8303 21.944 24.7946 21.9176 24.7568C21.8903 24.7169 21.8687 24.6737 21.8531 24.6278C21.8324 24.5873 21.8177 24.5437 21.8099 24.4987C21.8018 24.4513 21.797 24.4036 21.7958 24.3553C21.7985 24.1656 21.8726 23.9838 22.0037 23.8463C22.0721 23.7815 22.1526 23.7305 22.2402 23.6957C22.5076 23.5877 22.8137 23.6465 23.0216 23.8463C23.0526 23.8802 23.0814 23.9163 23.1078 23.9538L23.1078 23.9538Z" fill="#FFB81D"/>
<path d="M13.2915 35.2688C13.1577 35.4029 12.9758 35.4785 12.7862 35.4785C12.5965 35.4785 12.4147 35.4029 12.2805 35.2688L10.2513 33.2395C10.1172 33.1057 10.0418 32.9238 10.0418 32.7342C10.0418 32.5445 10.1172 32.3627 10.2513 32.2285L11.6425 30.8377C11.3268 30.4718 11.033 30.0847 10.7533 29.6904L9.23308 31.2103C8.58879 31.8564 8.4219 32.8386 8.81685 33.6615L6.9137 35.5701H5.18218C5.07354 35.2658 4.89979 34.9894 4.67292 34.7598C3.82156 33.9495 2.48437 33.9495 1.63302 34.7598C1.08865 35.3027 0.875284 36.0949 1.07334 36.8379C1.2714 37.581 1.85087 38.1616 2.5936 38.3615C3.33603 38.5614 4.12854 38.3501 4.67291 37.8069C4.89918 37.581 5.07083 37.3064 5.17496 37.0039H7.2114C7.40196 37.0039 7.58442 36.9283 7.71916 36.7932L9.74115 34.7655L10.7534 35.7777L10.7555 35.7801L9.23553 37.2998C9.10079 37.4342 9.02546 37.6167 9.02516 37.8069V38.8395C8.72297 38.9367 8.44809 39.1036 8.22243 39.3272C7.60665 39.942 7.42209 40.8675 7.75489 41.6715C8.08769 42.4758 8.87214 43 9.74239 43C10.6126 43 11.3971 42.4757 11.7299 41.6715C12.0627 40.8675 11.8781 39.942 11.2624 39.3272C11.0367 39.1036 10.7618 38.9367 10.4593 38.8395V38.1037L11.8623 36.701L11.8647 36.7028C12.1516 36.8391 12.4652 36.9102 12.7826 36.9108C13.354 36.9117 13.9026 36.6875 14.3098 36.2869L16.2172 34.3795C15.7697 34.1584 15.3343 33.9144 14.9121 33.6482L13.2915 35.2688ZM2.64378 36.7887C2.3686 36.5069 2.3722 36.0562 2.65159 35.7786C2.93097 35.5011 3.38201 35.5008 3.66166 35.7777C3.7955 35.9134 3.87022 36.0964 3.86962 36.287C3.86842 36.5769 3.69287 36.8377 3.42428 36.9475C3.156 37.0573 2.84781 36.9946 2.64376 36.7888L2.64378 36.7887ZM10.2511 41.3561C9.96779 41.625 9.52365 41.625 9.24008 41.3561C9.10263 41.2226 9.02521 41.0389 9.02521 40.8471C9.02521 40.6554 9.10263 40.4717 9.24008 40.3382C9.37212 40.2034 9.55337 40.1281 9.74214 40.1302C10.032 40.1314 10.2931 40.3064 10.4041 40.5741C10.5152 40.8417 10.4552 41.1499 10.2511 41.3561L10.2511 41.3561Z" fill="#FFB81D" fill-opacity="0.58"/>
<path d="M31.7338 7.70601C31.8676 7.57187 32.0495 7.49625 32.2391 7.49625C32.4288 7.49625 32.6107 7.57187 32.7448 7.70601L34.774 9.73523C34.9082 9.86907 34.9838 10.0509 34.9838 10.2406C34.9838 10.4302 34.9082 10.6121 34.774 10.7462L33.3828 12.1371C33.6985 12.5029 33.9923 12.8901 34.272 13.2844L35.7919 11.7645C36.4365 11.1181 36.6031 10.1359 36.2085 9.31332L38.1116 7.40472H39.8504C39.9533 7.70992 40.1252 7.9869 40.3524 8.21498C40.8968 8.75814 41.6893 8.96971 42.4317 8.76985C43.1744 8.56969 43.7539 7.98902 43.952 7.24598C44.15 6.50295 43.9367 5.71074 43.3923 5.16783C42.5409 4.35757 41.2037 4.35757 40.3524 5.16783C40.1261 5.3938 39.9545 5.66838 39.8503 5.97086H37.8139C37.6233 5.97086 37.4409 6.04649 37.3061 6.18153L35.2845 8.20929L34.2698 7.19468L35.7898 5.67503C35.9245 5.54059 35.9999 5.35814 36.0002 5.16787V4.14966C36.3033 4.04703 36.5781 3.87537 36.8029 3.6476C37.2068 3.24487 37.434 2.69814 37.434 2.12765C37.434 1.55715 37.2068 1.0104 36.8029 0.607693C35.9515 -0.202564 34.6143 -0.202564 33.763 0.607693C33.3591 1.01042 33.1319 1.55715 33.1319 2.12765C33.1319 2.69814 33.3591 3.24489 33.763 3.6476C33.9878 3.87536 34.2629 4.04702 34.566 4.14966V4.87107L33.1634 6.27341L33.1607 6.27191C32.3399 5.87639 31.3592 6.04324 30.7155 6.68784L28.8082 8.59521C29.2556 8.81638 29.691 9.06036 30.1132 9.32653L31.7338 7.70601ZM41.8722 5.97088C42.1618 5.97268 42.4223 6.14763 42.5333 6.41501C42.6443 6.68269 42.5843 6.99059 42.3811 7.19707C42.0967 7.46926 41.6477 7.46926 41.3632 7.19707C41.2294 7.06143 41.1547 6.87838 41.1553 6.68782C41.1574 6.49996 41.2318 6.3202 41.3632 6.18607C41.4971 6.04892 41.6804 5.9715 41.8722 5.9709V5.97088ZM34.7739 1.61867C34.9086 1.48363 35.0919 1.40861 35.2828 1.41071C35.4716 1.40861 35.6528 1.48394 35.7849 1.61867C35.9223 1.75222 35.9997 1.93587 35.9997 2.12763C35.9997 2.31939 35.9223 2.50304 35.7849 2.63659C35.5013 2.90547 35.0571 2.90547 34.7739 2.63659C34.4966 2.3539 34.4966 1.90136 34.7739 1.61867H34.7739Z" fill="#FFB81D" fill-opacity="0.58"/>
<path d="M40.3518 34.7594C40.1247 34.9872 39.9527 35.2645 39.8498 35.5697H38.111L36.2079 33.6611C36.6028 32.8382 36.4359 31.856 35.7913 31.21L34.2714 29.69C33.9917 30.0843 33.6979 30.4715 33.3822 30.8373L34.7734 32.2282C34.9076 32.3623 34.9829 32.5442 34.9829 32.7338C34.9829 32.9235 34.9076 33.1053 34.7734 33.2392L32.7442 35.2684C32.6101 35.4025 32.4282 35.4782 32.2386 35.4782C32.0489 35.4782 31.8671 35.4025 31.7332 35.2684L30.1127 33.6479C29.6905 33.9141 29.255 34.158 28.8076 34.3792L30.715 36.2866C31.1201 36.6857 31.6663 36.9099 32.2349 36.9105C32.5548 36.909 32.8705 36.8381 33.1601 36.7025L33.1625 36.701L34.5655 38.1033V38.8392C34.263 38.9364 33.9881 39.1032 33.7624 39.3268C33.1467 39.9417 32.9621 40.8672 33.2949 41.6712C33.6277 42.4754 34.4122 42.9997 35.2824 42.9997C36.1527 42.9997 36.9371 42.4754 37.2699 41.6712C37.6027 40.8672 37.4182 39.9417 36.8024 39.3268C36.5767 39.1032 36.3018 38.9364 35.9996 38.8392V37.8066C35.9993 37.6163 35.924 37.4339 35.7893 37.2994L34.2693 35.7798L34.2714 35.7774L35.2824 34.7664L35.2839 34.7652L37.3056 36.7929C37.4403 36.928 37.6228 37.0036 37.8134 37.0039H39.8498C39.9542 37.3061 40.1259 37.5807 40.3519 37.8066C40.8962 38.3498 41.6887 38.5614 42.4315 38.3615C43.1739 38.1613 43.7534 37.5807 43.9514 36.8376C44.1495 36.0946 43.9361 35.3024 43.3921 34.7595C42.5404 33.9492 41.2032 33.9492 40.3518 34.7595L40.3518 34.7594ZM35.7844 41.3557C35.5009 41.6246 35.0567 41.6246 34.7734 41.3557C34.5664 41.1508 34.5043 40.8408 34.6159 40.5719C34.7278 40.3027 34.991 40.1281 35.2824 40.1299C35.4711 40.1278 35.6524 40.2031 35.7845 40.3378C35.9219 40.4714 35.9993 40.655 35.9993 40.8468C35.9993 41.0385 35.9219 41.2222 35.7845 41.3557L35.7844 41.3557ZM42.3807 36.7883C42.1767 36.9942 41.8685 37.0569 41.6002 36.9471C41.3316 36.8373 41.1561 36.5765 41.1549 36.2866C41.1543 36.096 41.229 35.913 41.3628 35.7773C41.6422 35.4982 42.095 35.4973 42.3754 35.7758C42.6556 36.0543 42.6583 36.5068 42.3808 36.7884L42.3807 36.7883Z" fill="#FFB81D" fill-opacity="0.58"/>
<path d="M3.15313 8.83912C3.7224 8.84032 4.26884 8.61585 4.67308 8.21523C4.89995 7.98566 5.0737 7.70928 5.18234 7.40497H6.91386L8.81701 9.31357C8.42209 10.1361 8.58894 11.1186 9.23354 11.7647L10.7535 13.2847C11.0332 12.8903 11.327 12.5032 11.6426 12.1374L10.2514 10.7465C10.1173 10.6123 10.0417 10.4305 10.0417 10.2408C10.0417 10.0512 10.1173 9.86932 10.2514 9.73548L12.2807 7.70626C12.4148 7.57212 12.5967 7.4965 12.7863 7.4965C12.976 7.4965 13.1578 7.57212 13.2917 7.70626L14.9122 9.32678C15.3353 9.0615 15.7725 8.82472 16.2173 8.59546L14.3099 6.68808C13.6662 6.04349 12.6855 5.87667 11.8648 6.27215L11.8621 6.27365L10.4594 4.87132V4.1499C10.7625 4.04727 11.0377 3.87562 11.2624 3.64784C11.6664 3.24512 11.8935 2.69838 11.8935 2.12789C11.8935 1.5574 11.6664 1.01065 11.2624 0.607937C10.4111 -0.20232 9.0739 -0.20232 8.22254 0.607937C7.81861 1.01066 7.59145 1.5574 7.59145 2.12789C7.59145 2.69838 7.81861 3.24513 8.22254 3.64784C8.44731 3.87561 8.72219 4.04726 9.02526 4.1499V5.16812C9.02557 5.35838 9.10089 5.54084 9.23563 5.67528L10.7556 7.19492L9.74098 8.20953L7.71929 6.18177C7.58455 6.04673 7.40209 5.97111 7.21153 5.97081H5.17509C5.07066 5.66862 4.89931 5.39403 4.67304 5.16808C3.82168 4.35782 2.48449 4.35782 1.63313 5.16808C1.01494 5.78177 0.828866 6.70847 1.16229 7.51327C1.49539 8.31815 2.28191 8.84178 3.15309 8.83909L3.15313 8.83912ZM9.24047 1.61894C9.37251 1.4842 9.55376 1.40887 9.74252 1.41098C10.0003 1.40648 10.2407 1.54152 10.3709 1.76389C10.5009 1.98656 10.5009 2.26204 10.3709 2.48471C10.2407 2.70737 10.0003 2.84212 9.74252 2.83762C9.55497 2.84092 9.37431 2.7686 9.24047 2.63686C9.10302 2.50332 9.0256 2.31966 9.0256 2.1279C9.0256 1.93614 9.10302 1.75249 9.24047 1.61895V1.61894ZM2.64417 6.18633C2.77771 6.04858 2.96137 5.97116 3.15313 5.97116C3.34489 5.97116 3.52854 6.04858 3.66208 6.18633C3.79352 6.32047 3.86795 6.50022 3.87004 6.68808C3.87064 6.87864 3.79592 7.06169 3.66208 7.19733C3.3776 7.46952 2.92866 7.46952 2.64417 7.19733C2.50973 7.06319 2.4344 6.88133 2.4344 6.69168C2.4344 6.50202 2.50973 6.32017 2.64417 6.18633Z" fill="#FFB81D" fill-opacity="0.58"/>
</svg>
