<svg width="32" height="32" viewBox="0 0 32 32" fill="none" xmlns="http://www.w3.org/2000/svg">
<path d="M13.3334 22.667C13.3334 17.7895 17.0964 13.7814 21.8682 13.3728C21.6043 12.5113 21.3018 11.6776 20.9218 10.9225C16.38 14.1228 10.2863 14.1203 5.7471 10.9194C5.34337 11.7269 5.02304 12.6203 4.7499 13.5447L1.02091 12.0003L0 14.464L4.17963 16.1928C4.07277 16.9975 4.00134 17.818 4.00134 18.6671H0.00142176V21.3333H4.18884C4.29961 22.1174 4.4659 22.8749 4.6693 23.6017L0.00139288 25.5364L1.02087 28.0001L5.58885 26.107C7.26546 29.6614 10.1083 32 13.3344 32C14.8796 32 16.3327 31.4532 17.6167 30.5028C15.0437 28.8413 13.3327 25.9505 13.3327 22.6672L13.3334 22.667Z" fill="#FFB81D"/>
<path d="M17.0754 6.46861L19.3335 1.02063L16.8701 0L14.6045 5.47149C14.1876 5.38778 13.7658 5.3331 13.335 5.3331C12.9025 5.3331 12.4795 5.38778 12.0627 5.47149L9.79715 0L7.33349 1.02091L9.59151 6.47168C8.70875 7.02887 7.89398 7.76324 7.17749 8.66415C10.8415 11.3098 15.8273 11.3098 19.4922 8.66415C18.7758 7.76266 17.9593 7.02575 17.0751 6.46861H17.0754Z" fill="#FFB81D"/>
<path d="M28.2251 26.3381C28.9216 25.2834 29.3331 24.0228 29.3331 22.6663C29.3331 18.9838 26.3488 15.9995 22.667 15.9995C18.9845 15.9995 16.0002 18.9838 16.0002 22.6663C16.0002 26.3481 18.9845 29.3324 22.667 29.3324C24.0249 29.3324 25.2852 28.9212 26.3402 28.2234L30.1144 31.9993L31.9999 30.1137L28.2251 26.3381ZM22.667 26.6662C20.4574 26.6662 18.667 24.8746 18.667 22.6663C18.667 20.4554 20.4574 18.6663 22.667 18.6663C24.8762 18.6663 26.6669 20.4554 26.6669 22.6663C26.6669 24.8746 24.8762 26.6662 22.667 26.6662Z" fill="#FFB81D" fill-opacity="0.58"/>
</svg>
