<svg width="173" height="38" viewBox="0 0 173 38" fill="none" xmlns="http://www.w3.org/2000/svg">
<g clip-path="url(#clip0_8174_31869)">
<path d="M27.8165 28.2152L18.6934 32.8561V23.5742L27.8165 28.2152Z" fill="#05164D"/>
<path d="M9.34663 18.7898L18.5714 14.1078L9.34663 9.40527H9.32612L0.0812355 14.1078L0 14.1488V23.4718L0.0611548 23.5129H0.0812355L9.32612 28.2154H9.34663V28.2359L18.5714 32.9385L18.6933 32.8564V33.0001L28.0399 37.7438V28.3386L27.8163 28.2154L18.6933 23.5745L18.5714 23.5129L9.34663 18.8309L9.32612 18.8104L9.34663 18.7898Z" fill="#FFAD00"/>
<path d="M18.6923 4.76427V14.0462L18.5705 14.1078L9.3457 9.4052V9.38465L18.5705 4.68213L18.6923 4.76427Z" fill="#FFAD00"/>
<path d="M18.5705 4.68202L9.3457 0V9.40508L18.5705 14.1076L18.6923 14.046V14.1693L27.8154 18.8102L18.6923 23.4512V23.5744L27.8154 28.2153L28.039 28.1126L37.0607 23.5128L37.3856 23.3485V14.2719L37.0607 14.1077L28.039 9.50782L27.8154 9.40513L18.6923 4.76416L18.5705 4.68202Z" fill="#05164D"/>
<path d="M37.3865 23.3483V14.2717L37.0614 14.1074L28.051 18.6812V18.6796L27.8145 18.8111L28.051 18.9395V18.9389L37.0614 23.5125L37.3865 23.3483Z" fill="#05164D"/>
<path d="M28.04 9.50792V18.6872L27.8165 18.8104L18.6934 14.1694V14.0462L27.8165 9.40527L28.04 9.50792Z" fill="#05164D"/>
<path d="M18.5705 14.1078L9.3457 18.7899V9.40527L18.5705 14.1078Z" fill="#D99913"/>
<path d="M9.32634 18.81L0.0812751 23.5125H0.0609562L0 23.4715V14.1485L0.0812751 14.1074L9.32634 18.81Z" fill="#D99913"/>
<path d="M9.34545 18.8306V28.2151H9.32511L0.0800781 23.5126L9.32511 18.8101L9.34545 18.8306Z" fill="#FFAD00"/>
<path d="M18.6923 23.5743V32.8562L18.5705 32.9383L9.3457 28.2358V28.2153L18.5705 23.5127L18.6923 23.5743Z" fill="#FFAD00"/>
<path d="M28.04 28.339V37.7441L18.6934 33.0005V32.8567L27.8165 28.2158L28.04 28.339Z" fill="#FFAD00"/>
<path d="M18.5705 23.5131L9.3457 28.2156V18.8311L18.5705 23.5131Z" fill="#D99913"/>
<path d="M27.8165 28.2157L18.6934 32.8566V23.5747L27.8165 28.2157Z" fill="#D99913"/>
<path d="M28.04 18.9333V28.1125L27.8165 28.2151L18.6934 23.5742V23.451L27.8165 18.8101L28.04 18.9333Z" fill="#05164D"/>
<path d="M37.0606 23.5125L28.0391 28.1123V18.9331L37.0606 23.5125Z" fill="#05164D"/>
<path d="M9.34545 9.40527V18.7899L9.32511 18.8104L0.0800781 14.1078L9.32511 9.40527H9.34545Z" fill="#FFAD00"/>
<path d="M18.6923 4.76427V14.0462L18.5705 14.1078L9.3457 9.40524V9.38469L18.5705 4.68213L18.6923 4.76427Z" fill="#FFAD00"/>
<path d="M18.6923 4.76427V14.0462L18.5705 14.1078L9.3457 9.40524V9.38469L18.5705 4.68213L18.6923 4.76427Z" fill="#05164D"/>
<path d="M37.0606 14.1077L28.0391 18.6871V9.50781L37.0606 14.1077Z" fill="#05164D"/>
<path d="M27.8165 9.40508L18.6934 14.046V4.76416L27.8165 9.40508Z" fill="#05164D"/>
<path d="M18.5705 4.68202L9.3457 9.38458V0L18.5705 4.68202Z" fill="#05164D"/>
<path d="M55.0601 5.68311H57.8789L53.7966 22.281H48.4988L44.416 5.68311H47.2353L50.54 19.9064H51.7549L55.0601 5.68311Z" fill="#05164D"/>
<path d="M68.3355 13.897V19.4215C68.3519 19.7769 68.4407 20.0435 68.6026 20.2211C68.781 20.3827 69.0485 20.4877 69.4048 20.5361L69.332 22.5472C67.9388 22.5472 66.8613 22.2484 66.0996 21.6507C64.8037 22.2484 63.4997 22.5472 62.1874 22.5472C59.7735 22.5472 58.5664 21.2631 58.5664 18.6946C58.5664 17.4669 58.8904 16.5785 59.5383 16.0293C60.2026 15.48 61.2151 15.1489 62.576 15.0358L65.711 14.7693V13.897C65.711 13.2508 65.565 12.7985 65.2737 12.5401C64.998 12.2816 64.5849 12.1524 64.0343 12.1524C62.9973 12.1524 61.7014 12.217 60.1458 12.3462L59.3682 12.3947L59.2712 10.5289C61.0371 10.109 62.657 9.89893 64.1312 9.89893C65.6218 9.89893 66.6911 10.222 67.3391 10.8682C68.0034 11.4982 68.3355 12.5078 68.3355 13.897ZM62.8922 16.9016C61.7742 16.9985 61.215 17.6042 61.215 18.7188C61.215 19.8334 61.7092 20.3907 62.6975 20.3907C63.5078 20.3907 64.3664 20.2615 65.2737 20.003L65.711 19.8577V16.635L62.8922 16.9016Z" fill="#05164D"/>
<path d="M71.8086 22.2807V5.12549H74.4572V22.2807H71.8086Z" fill="#05164D"/>
<path d="M85.1701 10.1655H87.7946V22.2808H85.1701V21.5296C83.9875 22.2081 82.8941 22.5473 81.8894 22.5473C80.2209 22.5473 79.1029 22.1031 78.536 21.2147C77.969 20.31 77.6855 18.7351 77.6855 16.4897V10.1655H80.3342V16.5139C80.3342 17.9678 80.4557 18.945 80.6987 19.4458C80.9416 19.9466 81.509 20.197 82.3999 20.197C83.2749 20.197 84.0767 20.0354 84.8056 19.7123L85.1701 19.567V10.1655Z" fill="#05164D"/>
<path d="M99.6544 20.1L100.335 20.0273L100.383 21.99C98.5364 22.3615 96.9002 22.5472 95.4747 22.5472C93.676 22.5472 92.3801 22.0546 91.5861 21.0692C90.8085 20.0838 90.4199 18.5089 90.4199 16.3443C90.4199 12.0474 92.1776 9.89893 95.6931 9.89893C99.0952 9.89893 100.796 11.7485 100.796 15.4477L100.626 17.3377H93.0931C93.1091 18.3392 93.3279 19.0742 93.7492 19.5427C94.1702 20.0111 94.956 20.2454 96.1062 20.2454C97.2565 20.2454 98.4391 20.1969 99.6544 20.1ZM98.1961 15.3023C98.1961 14.107 98.0018 13.2751 97.6128 12.8066C97.2406 12.322 96.6004 12.0797 95.6931 12.0797C94.7858 12.0797 94.1219 12.3301 93.7006 12.8308C93.2956 13.3316 93.0849 14.1554 93.0686 15.3023H98.1961Z" fill="#05164D"/>
<path d="M109.249 22.5474C106.819 22.5474 105.167 21.8771 104.292 20.5363C103.433 19.1956 103.004 16.9906 103.004 13.9214C103.004 10.8522 103.442 8.67143 104.316 7.37915C105.191 6.07071 106.836 5.4165 109.249 5.4165C110.691 5.4165 112.279 5.61841 114.012 6.02226L113.916 8.20297C112.457 7.94454 110.999 7.81529 109.541 7.81529C108.083 7.81529 107.095 8.25146 106.576 9.12373C106.058 9.97988 105.799 11.6033 105.799 13.9941C105.799 16.3687 106.05 17.9921 106.552 18.8644C107.054 19.7206 108.035 20.1486 109.492 20.1486C110.951 20.1486 112.425 20.0275 113.916 19.7852L113.988 22.0144C112.319 22.3698 110.74 22.5474 109.249 22.5474Z" fill="#FFAD00"/>
<path d="M117.005 11.4739C117.848 10.424 119.241 9.89893 121.185 9.89893C123.129 9.89893 124.514 10.424 125.34 11.4739C126.183 12.5239 126.604 14.0989 126.604 16.1989C126.604 18.2988 126.199 19.8819 125.389 20.948C124.579 22.0142 123.178 22.5472 121.185 22.5472C119.192 22.5472 117.791 22.0142 116.981 20.948C116.171 19.8819 115.766 18.2988 115.766 16.1989C115.766 14.0989 116.179 12.5239 117.005 11.4739ZM118.998 19.3488C119.371 19.995 120.1 20.318 121.185 20.318C122.27 20.318 122.999 19.995 123.372 19.3488C123.745 18.7027 123.931 17.6446 123.931 16.1746C123.931 14.7047 123.728 13.6628 123.323 13.0489C122.935 12.435 122.222 12.1281 121.185 12.1281C120.148 12.1281 119.427 12.435 119.022 13.0489C118.633 13.6628 118.439 14.7047 118.439 16.1746C118.439 17.6446 118.625 18.7027 118.998 19.3488Z" fill="#FFAD00"/>
<path d="M139.15 5.12549V22.2807H136.525V21.6507C135.343 22.2484 134.257 22.5472 133.269 22.5472C131.681 22.5472 130.515 22.0707 129.77 21.1176C129.04 20.1646 128.676 18.5654 128.676 16.32C128.676 14.0746 129.081 12.4431 129.891 11.4254C130.717 10.4078 131.997 9.89889 133.731 9.89889C134.314 9.89889 135.237 10.0039 136.501 10.2139V5.12549H139.15ZM136.088 19.7607L136.501 19.5911V12.4189C135.529 12.2574 134.63 12.1766 133.803 12.1766C132.167 12.1766 131.349 13.5335 131.349 16.2473C131.349 17.7334 131.536 18.7673 131.908 19.3488C132.297 19.9142 132.904 20.1969 133.731 20.1969C134.557 20.1969 135.343 20.0515 136.088 19.7607Z" fill="#FFAD00"/>
<path d="M151.01 20.1L151.691 20.0273L151.739 21.99C149.892 22.3615 148.256 22.5472 146.83 22.5472C145.032 22.5472 143.736 22.0546 142.942 21.0692C142.164 20.0838 141.775 18.5089 141.775 16.3443C141.775 12.0474 143.534 9.89893 147.049 9.89893C150.451 9.89893 152.152 11.7485 152.152 15.4477L151.982 17.3377H144.449C144.465 18.3392 144.684 19.0742 145.105 19.5427C145.526 20.0111 146.312 20.2454 147.462 20.2454C148.612 20.2454 149.795 20.1969 151.01 20.1ZM149.552 15.3023C149.552 14.107 149.358 13.2751 148.969 12.8066C148.596 12.322 147.956 12.0797 147.049 12.0797C146.142 12.0797 145.477 12.3301 145.056 12.8308C144.651 13.3316 144.44 14.1554 144.424 15.3023H149.552Z" fill="#FFAD00"/>
<path d="M154.699 22.2807V10.1655H157.324V11.6193C158.701 10.7309 160.078 10.1574 161.455 9.89893V12.5401C160.062 12.8147 158.871 13.1701 157.883 13.6062L157.348 13.8243V22.2807H154.699Z" fill="#FFAD00"/>
<path d="M171.912 12.6614C170 12.4029 168.615 12.2737 167.756 12.2737C166.898 12.2737 166.298 12.3787 165.958 12.5887C165.634 12.7825 165.472 13.0975 165.472 13.5337C165.472 13.9699 165.651 14.2768 166.007 14.4544C166.379 14.6321 167.238 14.8421 168.583 15.0844C169.944 15.3106 170.908 15.674 171.475 16.1748C172.042 16.6756 172.325 17.564 172.325 18.8401C172.325 20.1163 171.912 21.0532 171.086 21.6509C170.276 22.2486 169.085 22.5474 167.513 22.5474C166.525 22.5474 165.278 22.4101 163.771 22.1355L163.018 22.0144L163.115 19.8094C165.059 20.0678 166.46 20.1971 167.319 20.1971C168.178 20.1971 168.785 20.0921 169.142 19.8821C169.514 19.6721 169.701 19.3248 169.701 18.8401C169.701 18.3556 169.522 18.0244 169.166 17.8467C168.826 17.6529 167.992 17.4509 166.663 17.2409C165.351 17.0148 164.387 16.6675 163.771 16.1991C163.155 15.7306 162.848 14.8744 162.848 13.6306C162.848 12.3868 163.269 11.4579 164.111 10.8441C164.97 10.2303 166.064 9.92334 167.392 9.92334C168.429 9.92334 169.701 10.0526 171.207 10.311L171.961 10.4564L171.912 12.6614Z" fill="#FFAD00"/>
<path d="M47.6693 32.9859C46.915 32.9859 46.3101 32.742 45.8547 32.2542C45.402 31.7664 45.1758 31.1317 45.1758 30.3503C45.1758 29.5105 45.4071 28.8407 45.8694 28.3408C46.3321 27.8408 46.9598 27.5908 47.7533 27.5908C48.4883 27.5908 49.0798 27.8335 49.5279 28.3189C49.9781 28.8043 50.2034 29.4389 50.2034 30.2228C50.2034 31.0747 49.9733 31.7482 49.5132 32.2433C49.0531 32.7383 48.4388 32.9859 47.6693 32.9859ZM47.7094 28.3517C47.2299 28.3517 46.8396 28.5301 46.5376 28.8868C46.2382 29.2436 46.0887 29.7132 46.0887 30.2956C46.0887 30.8757 46.2347 31.3428 46.5268 31.6972C46.8189 32.0515 47.201 32.2287 47.6732 32.2287C48.1742 32.2287 48.5702 32.06 48.8597 31.7227C49.1492 31.3854 49.2939 30.9133 49.2939 30.3066C49.2939 29.6829 49.1531 29.2011 48.8704 28.8613C48.5908 28.5215 48.2035 28.3517 47.7094 28.3517Z" fill="#05164D"/>
<path d="M54.3962 32.8982H53.5492V30.7976C53.5492 30.1011 53.3023 29.7529 52.8082 29.7529C52.5501 29.7529 52.3369 29.8499 52.1693 30.0441C52.0013 30.2358 51.9173 30.4785 51.9173 30.7722V32.8982H51.0664V29.1704H51.9173V29.7893H51.9319C52.2115 29.3184 52.6156 29.083 53.1438 29.083C53.5505 29.083 53.8607 29.2153 54.0748 29.4798C54.2893 29.7419 54.3962 30.1218 54.3962 30.6193V32.8982Z" fill="#05164D"/>
<path d="M57.4016 31.1728H55.4082V30.5503H57.4016V31.1728Z" fill="#05164D"/>
<path d="M58.5371 32.8981V27.6777H60.0488C61.9789 27.6777 62.9439 28.5259 62.9439 30.2224C62.9439 31.0281 62.6764 31.6761 62.1409 32.1663C61.6054 32.6542 60.8872 32.8981 59.9868 32.8981H58.5371ZM59.4026 28.4131V32.1663H60.0962C60.7071 32.1663 61.1819 31.9989 61.5201 31.6639C61.8608 31.329 62.0314 30.8558 62.0314 30.2442C62.0314 29.0234 61.3973 28.4131 60.129 28.4131H59.4026Z" fill="#05164D"/>
<path d="M66.9748 31.2636H64.4261C64.436 31.6083 64.542 31.874 64.7441 32.0609C64.9483 32.2478 65.2283 32.3412 65.5837 32.3412C65.9826 32.3412 66.3493 32.2223 66.6827 31.9844V32.6652C66.3419 32.8787 65.8913 32.9855 65.3317 32.9855C64.7815 32.9855 64.3494 32.8168 64.0354 32.4795C63.7239 32.1397 63.5684 31.6628 63.5684 31.0488C63.5684 30.4688 63.7398 29.9968 64.0832 29.6327C64.4287 29.2663 64.8569 29.083 65.3683 29.083C65.8792 29.083 66.2747 29.2468 66.5548 29.5745C66.8348 29.9021 66.9748 30.3572 66.9748 30.9396V31.2636ZM66.1567 30.6666C66.1545 30.3632 66.0826 30.1278 65.9413 29.9603C65.8004 29.7905 65.6057 29.7055 65.3571 29.7055C65.1137 29.7055 64.9069 29.7941 64.7367 29.9713C64.5687 30.1485 64.4653 30.3802 64.4261 30.6666H66.1567Z" fill="#05164D"/>
<path d="M73.3726 32.8982H72.5256V30.8668C72.5256 30.4761 72.4696 30.1933 72.3576 30.0186C72.2482 29.8439 72.062 29.7565 71.7992 29.7565C71.5778 29.7565 71.3891 29.8669 71.2332 30.0878C71.0798 30.3086 71.0031 30.5732 71.0031 30.8814V32.8982H70.1527V30.7976C70.1527 30.1035 69.9067 29.7565 69.4151 29.7565C69.1864 29.7565 68.9977 29.8608 68.849 30.0696C68.703 30.2783 68.6302 30.5489 68.6302 30.8814V32.8982H67.7832V29.1704H68.6302V29.7601H68.6448C68.915 29.3087 69.3079 29.083 69.824 29.083C70.082 29.083 70.3069 29.1546 70.4995 29.2978C70.6942 29.4385 70.8269 29.6242 70.8971 29.8548C71.175 29.3403 71.5886 29.083 72.1387 29.083C72.9616 29.083 73.3726 29.589 73.3726 30.6011V32.8982Z" fill="#05164D"/>
<path d="M77.274 32.8982H76.4525V32.3157H76.4378C76.1798 32.7623 75.8015 32.9855 75.3022 32.9855C74.9347 32.9855 74.6465 32.886 74.4371 32.687C74.2303 32.488 74.127 32.2247 74.127 31.897C74.127 31.1932 74.5332 30.7831 75.3462 30.6666L76.4559 30.5101C76.4559 29.9786 76.203 29.7128 75.6968 29.7128C75.2514 29.7128 74.8499 29.8657 74.4919 30.1715V29.4325C74.886 29.1995 75.3414 29.083 75.8575 29.083C76.8019 29.083 77.274 29.5466 77.274 30.4736V32.8982ZM76.4559 31.067L75.671 31.1762C75.4276 31.2078 75.244 31.2672 75.12 31.3546C74.9981 31.4396 74.9373 31.59 74.9373 31.806C74.9373 31.9638 74.9933 32.0936 75.1053 32.1956C75.2195 32.2951 75.3716 32.3448 75.5616 32.3448C75.8196 32.3448 76.0324 32.255 76.2005 32.0754C76.3711 31.8934 76.4559 31.6653 76.4559 31.391V31.067Z" fill="#05164D"/>
<path d="M81.6403 32.8982H80.7929V30.7976C80.7929 30.1011 80.546 29.7529 80.0519 29.7529C79.7938 29.7529 79.581 29.8499 79.413 30.0441C79.245 30.2358 79.161 30.4785 79.161 30.7722V32.8982H78.3105V29.1704H79.161V29.7893H79.1756C79.4557 29.3184 79.8598 29.083 80.3879 29.083C80.7942 29.083 81.1048 29.2153 81.3189 29.4798C81.533 29.7419 81.6403 30.1218 81.6403 30.6193V32.8982Z" fill="#05164D"/>
<path d="M86.0774 32.8983H85.2305V32.2648H85.2158C84.9435 32.7454 84.5235 32.9856 83.9565 32.9856C83.4964 32.9856 83.1277 32.8194 82.8502 32.4869C82.5749 32.152 82.4375 31.6969 82.4375 31.1217C82.4375 30.5053 82.5896 30.0114 82.8937 29.6401C83.2005 29.2688 83.6084 29.0831 84.1168 29.0831C84.6209 29.0831 84.9871 29.2845 85.2158 29.6874H85.2305V27.3794H86.0774V32.8983ZM85.2417 31.1945V30.7067C85.2417 30.4422 85.1551 30.2177 84.9823 30.0333C84.8096 29.8488 84.5894 29.7566 84.3214 29.7566C84.0052 29.7566 83.7554 29.8743 83.5731 30.1097C83.393 30.3451 83.303 30.6716 83.303 31.089C83.303 31.4676 83.3892 31.7673 83.5619 31.9882C83.7373 32.2066 83.9721 32.3158 84.2667 32.3158C84.5562 32.3158 84.791 32.2102 84.9715 31.9991C85.1516 31.7855 85.2417 31.5173 85.2417 31.1945Z" fill="#05164D"/>
<path d="M89.0952 32.691V31.7991C89.1754 31.872 89.2706 31.9375 89.38 31.9957C89.492 32.054 89.6101 32.1037 89.7341 32.145C89.8582 32.1838 89.9823 32.2141 90.1068 32.236C90.2309 32.2578 90.345 32.2688 90.4497 32.2688C90.8151 32.2688 91.0865 32.2081 91.264 32.0867C91.444 31.9654 91.5341 31.7894 91.5341 31.5588C91.5341 31.4351 91.5039 31.3283 91.4427 31.2385C91.3846 31.1463 91.3019 31.0625 91.1946 30.9873C91.0873 30.9121 90.9611 30.8405 90.8151 30.7725C90.6712 30.7021 90.5169 30.6294 90.3511 30.5541C90.1736 30.4594 90.0081 30.3636 89.8548 30.2665C89.7014 30.1695 89.5674 30.0626 89.4533 29.9461C89.3412 29.8272 89.2521 29.6938 89.1866 29.5457C89.1232 29.3977 89.0918 29.2242 89.0918 29.0251C89.0918 28.78 89.1465 28.5677 89.2559 28.3881C89.368 28.206 89.514 28.0568 89.6941 27.9403C89.8767 27.8214 90.0835 27.734 90.3149 27.6782C90.5458 27.62 90.7819 27.5908 91.0231 27.5908C91.5707 27.5908 91.9696 27.6527 92.2204 27.7765V28.632C91.9235 28.4184 91.5414 28.3116 91.074 28.3116C90.9452 28.3116 90.8159 28.3238 90.6871 28.348C90.5604 28.3723 90.4463 28.4123 90.3437 28.4682C90.2442 28.524 90.1624 28.5956 90.0995 28.683C90.0361 28.7703 90.0043 28.8759 90.0043 28.9996C90.0043 29.1161 90.0288 29.2168 90.0775 29.3018C90.1262 29.3868 90.1968 29.4644 90.289 29.5348C90.3842 29.6052 90.4984 29.6743 90.6324 29.7423C90.7685 29.8078 90.9258 29.8794 91.1033 29.9571C91.2859 30.0517 91.4574 30.1512 91.6181 30.2556C91.7814 30.36 91.9235 30.4752 92.0455 30.6014C92.1695 30.7276 92.2669 30.8684 92.3376 31.0237C92.4104 31.1766 92.447 31.3513 92.447 31.5479C92.447 31.8125 92.3936 32.0358 92.2863 32.2178C92.179 32.3998 92.0343 32.5478 91.8516 32.6619C91.6715 32.7759 91.4634 32.8585 91.2273 32.9095C90.9913 32.9604 90.7418 32.9859 90.479 32.9859C90.3916 32.9859 90.283 32.9786 90.1542 32.964C90.0275 32.9519 89.8974 32.9325 89.7634 32.9058C89.6295 32.8815 89.5028 32.8512 89.3839 32.8148C89.2646 32.7784 89.1685 32.7371 89.0952 32.691Z" fill="#05164D"/>
<path d="M94.9743 32.9855C94.3975 32.9855 93.9365 32.812 93.5906 32.465C93.2476 32.1155 93.0762 31.6531 93.0762 31.0779C93.0762 30.4518 93.255 29.9628 93.6125 29.6109C93.9727 29.259 94.4574 29.083 95.0657 29.083C95.6499 29.083 96.1052 29.2541 96.4314 29.5963C96.7575 29.9385 96.9203 30.413 96.9203 31.0197C96.9203 31.6143 96.7441 32.0912 96.3913 32.4504C96.0406 32.8071 95.5684 32.9855 94.9743 32.9855ZM95.0148 29.7565C94.6835 29.7565 94.422 29.8718 94.2299 30.1023C94.0373 30.3329 93.9412 30.6508 93.9412 31.0561C93.9412 31.4468 94.0386 31.755 94.2333 31.9808C94.4281 32.204 94.6887 32.3157 95.0148 32.3157C95.3483 32.3157 95.6038 32.2053 95.7813 31.9844C95.9613 31.7636 96.0514 31.4493 96.0514 31.0416C96.0514 30.6314 95.9613 30.3147 95.7813 30.0914C95.6038 29.8681 95.3483 29.7565 95.0148 29.7565Z" fill="#05164D"/>
<path d="M99.7753 28.0672C99.6607 28.0017 99.5306 27.9689 99.3845 27.9689C98.9731 27.9689 98.7676 28.2007 98.7676 28.6642V29.1702H99.6365V29.8328H98.771V32.898H97.9241V29.8328H97.2852V29.1702H97.9241V28.5659C97.9241 28.1728 98.0529 27.8633 98.3109 27.6376C98.569 27.4095 98.8917 27.2954 99.2785 27.2954C99.4879 27.2954 99.6533 27.3185 99.7753 27.3646V28.0672Z" fill="#05164D"/>
<path d="M102.35 32.8586C102.185 32.9412 101.967 32.9824 101.696 32.9824C100.971 32.9824 100.609 32.6354 100.609 31.9413V29.8335H99.9844V29.1709H100.609V28.3082L101.456 28.0679V29.1709H102.35V29.8335H101.456V31.6973C101.456 31.9182 101.496 32.076 101.576 32.1706C101.656 32.2653 101.79 32.3126 101.978 32.3126C102.121 32.3126 102.245 32.2713 102.35 32.1888V32.8586Z" fill="#05164D"/>
<path d="M108.107 29.1704L107.005 32.8982H106.117L105.438 30.3717C105.412 30.2747 105.395 30.1654 105.387 30.0441H105.373C105.368 30.1266 105.346 30.2334 105.307 30.3645L104.57 32.8982H103.701L102.602 29.1704H103.478L104.157 31.857C104.179 31.9371 104.193 32.0439 104.201 32.1774H104.226C104.233 32.0754 104.253 31.9662 104.285 31.8497L105.04 29.1704H105.837L106.508 31.8679C106.53 31.9529 106.546 32.0597 106.556 32.1883H106.581C106.586 32.0985 106.604 31.9917 106.636 31.8679L107.3 29.1704H108.107Z" fill="#05164D"/>
<path d="M111.608 32.8982H110.786V32.3157H110.772C110.514 32.7623 110.136 32.9855 109.637 32.9855C109.269 32.9855 108.98 32.886 108.771 32.687C108.564 32.488 108.461 32.2247 108.461 31.897C108.461 31.1932 108.868 30.7831 109.681 30.6666L110.79 30.5101C110.79 29.9786 110.537 29.7128 110.031 29.7128C109.585 29.7128 109.184 29.8657 108.826 30.1715V29.4325C109.22 29.1995 109.675 29.083 110.192 29.083C111.136 29.083 111.608 29.5466 111.608 30.4736V32.8982ZM110.79 31.067L110.005 31.1762C109.762 31.2078 109.578 31.2672 109.454 31.3546C109.332 31.4396 109.271 31.59 109.271 31.806C109.271 31.9638 109.327 32.0936 109.439 32.1956C109.554 32.2951 109.706 32.3448 109.896 32.3448C110.154 32.3448 110.367 32.255 110.535 32.0754C110.705 31.8934 110.79 31.6653 110.79 31.391V31.067Z" fill="#05164D"/>
<path d="M114.815 29.9751C114.713 29.895 114.566 29.8549 114.374 29.8549C114.123 29.8549 113.914 29.9678 113.745 30.1935C113.577 30.4192 113.493 30.7262 113.493 31.1145V32.8983H112.646V29.1705H113.493V29.9386H113.508C113.591 29.6765 113.717 29.4727 113.888 29.327C114.061 29.179 114.253 29.105 114.465 29.105C114.618 29.105 114.735 29.1281 114.815 29.1741V29.9751Z" fill="#05164D"/>
<path d="M118.514 31.2636H115.966C115.975 31.6083 116.081 31.874 116.283 32.0609C116.488 32.2478 116.767 32.3412 117.123 32.3412C117.522 32.3412 117.888 32.2223 118.222 31.9844V32.6652C117.881 32.8787 117.431 32.9855 116.871 32.9855C116.321 32.9855 115.889 32.8168 115.575 32.4795C115.263 32.1397 115.107 31.6628 115.107 31.0488C115.107 30.4688 115.279 29.9968 115.622 29.6327C115.968 29.2663 116.396 29.083 116.907 29.083C117.419 29.083 117.814 29.2468 118.094 29.5745C118.374 29.9021 118.514 30.3572 118.514 30.9396V31.2636ZM117.696 30.6666C117.694 30.3632 117.622 30.1278 117.481 29.9603C117.339 29.7905 117.145 29.7055 116.897 29.7055C116.653 29.7055 116.446 29.7941 116.276 29.9713C116.108 30.1485 116.004 30.3802 115.966 30.6666H117.696Z" fill="#05164D"/>
<path d="M124.833 28.4131H123.328V32.8981H122.46V28.4131H120.959V27.6777H124.833V28.4131Z" fill="#05164D"/>
<path d="M127.94 31.2636H125.391C125.401 31.6083 125.507 31.874 125.709 32.0609C125.913 32.2478 126.193 32.3412 126.549 32.3412C126.947 32.3412 127.314 32.2223 127.648 31.9844V32.6652C127.307 32.8787 126.857 32.9855 126.297 32.9855C125.746 32.9855 125.314 32.8168 125.001 32.4795C124.689 32.1397 124.533 31.6628 124.533 31.0488C124.533 30.4688 124.705 29.9968 125.048 29.6327C125.394 29.2663 125.822 29.083 126.333 29.083C126.844 29.083 127.24 29.2468 127.52 29.5745C127.8 29.9021 127.94 30.3572 127.94 30.9396V31.2636ZM127.122 30.6666C127.119 30.3632 127.047 30.1278 126.906 29.9603C126.765 29.7905 126.571 29.7055 126.322 29.7055C126.079 29.7055 125.872 29.7941 125.702 29.9713C125.534 30.1485 125.43 30.3802 125.391 30.6666H127.122Z" fill="#05164D"/>
<path d="M131.616 32.8982H130.794V32.3157H130.78C130.522 32.7623 130.143 32.9855 129.644 32.9855C129.277 32.9855 128.988 32.886 128.779 32.687C128.572 32.488 128.469 32.2247 128.469 31.897C128.469 31.1932 128.875 30.7831 129.688 30.6666L130.798 30.5101C130.798 29.9786 130.545 29.7128 130.039 29.7128C129.593 29.7128 129.192 29.8657 128.834 30.1715V29.4325C129.228 29.1995 129.683 29.083 130.199 29.083C131.144 29.083 131.616 29.5466 131.616 30.4736V32.8982ZM130.798 31.067L130.013 31.1762C129.769 31.2078 129.586 31.2672 129.462 31.3546C129.34 31.4396 129.279 31.59 129.279 31.806C129.279 31.9638 129.335 32.0936 129.447 32.1956C129.561 32.2951 129.714 32.3448 129.903 32.3448C130.161 32.3448 130.374 32.255 130.542 32.0754C130.713 31.8934 130.798 31.6653 130.798 31.391V31.067Z" fill="#05164D"/>
<path d="M138.244 32.8982H137.397V30.8668C137.397 30.4761 137.341 30.1933 137.229 30.0186C137.119 29.8439 136.933 29.7565 136.67 29.7565C136.449 29.7565 136.26 29.8669 136.104 30.0878C135.951 30.3086 135.874 30.5732 135.874 30.8814V32.8982H135.024V30.7976C135.024 30.1035 134.778 29.7565 134.286 29.7565C134.057 29.7565 133.869 29.8608 133.72 30.0696C133.574 30.2783 133.501 30.5489 133.501 30.8814V32.8982H132.654V29.1704H133.501V29.7601H133.516C133.786 29.3087 134.179 29.083 134.695 29.083C134.953 29.083 135.178 29.1546 135.371 29.2978C135.565 29.4385 135.698 29.6242 135.769 29.8548C136.046 29.3403 136.46 29.083 137.01 29.083C137.833 29.083 138.244 29.589 138.244 30.6011V32.8982Z" fill="#05164D"/>
<path d="M139.041 32.7817V31.999C139.358 32.2392 139.707 32.3594 140.089 32.3594C140.6 32.3594 140.856 32.2089 140.856 31.908C140.856 31.823 140.834 31.7514 140.79 31.6932C140.746 31.6325 140.687 31.5791 140.611 31.533C140.538 31.4869 140.451 31.4456 140.348 31.4092C140.249 31.3728 140.137 31.3316 140.012 31.2855C139.859 31.2248 139.72 31.1605 139.596 31.0925C139.474 31.0245 139.372 30.9481 139.29 30.8632C139.209 30.7758 139.148 30.6775 139.107 30.5683C139.066 30.4591 139.045 30.3317 139.045 30.1861C139.045 30.0065 139.088 29.8487 139.173 29.7128C139.258 29.5745 139.372 29.4592 139.516 29.367C139.66 29.2723 139.823 29.2019 140.005 29.1558C140.188 29.1073 140.376 29.083 140.571 29.083C140.917 29.083 141.226 29.1352 141.498 29.2396V29.9786C141.236 29.799 140.934 29.7092 140.593 29.7092C140.486 29.7092 140.389 29.7201 140.301 29.7419C140.216 29.7638 140.143 29.7941 140.082 29.8329C140.021 29.8718 139.973 29.9191 139.939 29.9749C139.905 30.0283 139.888 30.0878 139.888 30.1533C139.888 30.2334 139.905 30.3014 139.939 30.3571C139.973 30.413 140.023 30.4627 140.089 30.5064C140.157 30.5477 140.237 30.5865 140.33 30.6229C140.425 30.6569 140.533 30.6945 140.655 30.7358C140.816 30.8013 140.959 30.868 141.086 30.936C141.215 31.0039 141.324 31.0816 141.414 31.169C141.504 31.2539 141.574 31.3534 141.622 31.4675C141.671 31.5791 141.696 31.7126 141.696 31.8679C141.696 32.0572 141.652 32.2223 141.564 32.363C141.476 32.5038 141.36 32.6203 141.214 32.7125C141.068 32.8047 140.898 32.8727 140.706 32.9164C140.516 32.9625 140.315 32.9855 140.104 32.9855C139.695 32.9855 139.34 32.9176 139.041 32.7817Z" fill="#05164D"/>
</g>
<defs>
<clipPath id="clip0_8174_31869">
<rect width="172.325" height="37.8275" fill="white"/>
</clipPath>
</defs>
</svg>
