<svg width="400" height="88" viewBox="0 0 400 88" fill="none" xmlns="http://www.w3.org/2000/svg">
<path d="M64.5673 65.6385L43.3907 76.435V54.842L64.5673 65.6385Z" fill="white"/>
<path d="M21.6953 43.7115L43.1078 32.8195L21.6953 21.8798H21.6477L0.188563 32.8195L0 32.915V54.6035L0.141952 54.699H0.188563L21.6477 65.6388H21.6953V65.6865L43.1078 76.6263L43.3907 76.4352V76.7696L65.086 87.805V65.9254L64.5669 65.6388L43.3907 54.8423L43.1078 54.699L21.6953 43.807L21.6477 43.7593L21.6953 43.7115Z" fill="#FFAD00"/>
<path d="M43.3906 11.0831V32.676L43.1077 32.8193L21.6953 21.8795V21.8317L43.1077 10.892L43.3906 11.0831Z" fill="#FFAD00"/>
<path d="M43.1078 10.892L21.6953 0V21.8795L43.1078 32.8192L43.3906 32.6759V32.9627L64.5669 43.7591L43.3906 54.5556V54.8422L64.5669 65.6386L65.086 65.3998L86.0271 54.6989L86.7813 54.3167V33.2015L86.0271 32.8194L65.086 22.1185L64.5669 21.8796L43.3906 11.0831L43.1078 10.892Z" fill="#E6E6E6"/>
<path d="M86.7813 54.3167V33.2015L86.0267 32.8193L65.1118 43.4594V43.4557L64.5627 43.7617L65.1118 44.0603V44.0589L86.0267 54.6989L86.7813 54.3167Z" fill="white"/>
<path d="M65.086 22.1184V43.4725L64.5672 43.7591L43.3906 32.9627V32.676L64.5672 21.8796L65.086 22.1184Z" fill="white"/>
<path d="M43.1077 32.8194L21.6953 43.7114V21.8796L43.1077 32.8194Z" fill="#D99913"/>
<path d="M21.6482 43.7591L0.188655 54.6989H0.141491L0 54.6034V32.9149L0.188655 32.8193L21.6482 43.7591Z" fill="#D99913"/>
<path d="M21.6954 43.8069V65.6386H21.6482L0.188721 54.6989L21.6482 43.7591L21.6954 43.8069Z" fill="#FFAD00"/>
<path d="M43.3906 54.8422V76.4352L43.1077 76.6262L21.6953 65.6865V65.6387L43.1077 54.6989L43.3906 54.8422Z" fill="#FFAD00"/>
<path d="M65.086 65.9253V87.8049L43.3906 76.7695V76.4351L64.5672 65.6387L65.086 65.9253Z" fill="#FFAD00"/>
<path d="M43.1077 54.6989L21.6953 65.6387V43.8069L43.1077 54.6989Z" fill="#D99913"/>
<path d="M64.5672 65.6387L43.3906 76.4351V54.8422L64.5672 65.6387Z" fill="#D99913"/>
<path d="M65.086 44.0457V65.3998L64.5672 65.6386L43.3906 54.8422V54.5556L64.5672 43.7591L65.086 44.0457Z" fill="white"/>
<path d="M86.0268 54.6989L65.0861 65.3998V44.0457L86.0268 54.6989Z" fill="#E6E6E6"/>
<path d="M21.6954 21.8796V43.7114L21.6482 43.7591L0.188721 32.8194L21.6482 21.8796H21.6954Z" fill="#FFAD00"/>
<path d="M43.3906 11.0831V32.676L43.1077 32.8194L21.6953 21.8796V21.8318L43.1077 10.892L43.3906 11.0831Z" fill="#FFAD00"/>
<path d="M43.3906 11.0831V32.676L43.1077 32.8194L21.6953 21.8796V21.8318L43.1077 10.892L43.3906 11.0831Z" fill="white"/>
<path d="M86.0268 32.8193L65.0861 43.4725V22.1184L86.0268 32.8193Z" fill="#E6E6E6"/>
<path d="M64.5672 21.8795L43.3906 32.676V11.0831L64.5672 21.8795Z" fill="#E6E6E6"/>
<path d="M43.1077 10.892L21.6953 21.8318V0L43.1077 10.892Z" fill="#E6E6E6"/>
<path d="M127.803 13.2206H134.346L124.87 51.8331H112.573L103.096 13.2206H109.64L117.311 46.309H120.131L127.803 13.2206Z" fill="white"/>
<path d="M158.622 32.3296V45.1816C158.66 46.0083 158.866 46.6284 159.242 47.0417C159.656 47.4175 160.277 47.6618 161.104 47.7745L160.935 52.4531C157.701 52.4531 155.2 51.7579 153.432 50.3675C150.424 51.7579 147.397 52.4531 144.351 52.4531C138.748 52.4531 135.946 49.4656 135.946 43.4905C135.946 40.6345 136.698 38.5677 138.202 37.29C139.744 36.0123 142.094 35.2419 145.253 34.9789L152.53 34.3588V32.3296C152.53 30.8264 152.191 29.7742 151.515 29.1729C150.875 28.5716 149.916 28.271 148.638 28.271C146.231 28.271 143.223 28.4213 139.612 28.722L137.807 28.8347L137.582 24.4943C141.681 23.5173 145.441 23.0287 148.863 23.0287C152.323 23.0287 154.805 23.7803 156.309 25.2835C157.851 26.7491 158.622 29.0978 158.622 32.3296ZM145.987 39.3193C143.392 39.5447 142.094 40.9539 142.094 43.5469C142.094 46.1398 143.241 47.4363 145.535 47.4363C147.416 47.4363 149.409 47.1357 151.515 46.5344L152.53 46.1962V38.6992L145.987 39.3193Z" fill="white"/>
<path d="M166.679 51.8331V11.9241H172.827V51.8331H166.679Z" fill="white"/>
<path d="M197.699 23.6488H203.791V51.8331H197.699V50.0856C194.954 51.664 192.416 52.4531 190.084 52.4531C186.211 52.4531 183.616 51.4197 182.3 49.3529C180.984 47.2484 180.326 43.5845 180.326 38.361V23.6488H186.474V38.4174C186.474 41.7995 186.756 44.073 187.32 45.238C187.884 46.4029 189.201 46.9854 191.269 46.9854C193.3 46.9854 195.161 46.6096 196.853 45.858L197.699 45.5198V23.6488Z" fill="white"/>
<path d="M231.317 46.7599L232.896 46.5908L233.009 51.1567C228.722 52.021 224.924 52.4531 221.615 52.4531C217.44 52.4531 214.432 51.307 212.589 49.0146C210.784 46.7223 209.882 43.0584 209.882 38.0228C209.882 28.0268 213.962 23.0287 222.122 23.0287C230.019 23.0287 233.968 27.3315 233.968 35.9371L233.573 40.3339H216.087C216.124 42.6638 216.632 44.3736 217.61 45.4634C218.587 46.5532 220.411 47.0981 223.081 47.0981C225.751 47.0981 228.496 46.9854 231.317 46.7599ZM227.932 35.5989C227.932 32.8181 227.481 30.8828 226.578 29.793C225.714 28.6656 224.228 28.1019 222.122 28.1019C220.016 28.1019 218.475 28.6844 217.497 29.8493C216.557 31.0143 216.068 32.9308 216.03 35.5989H227.932Z" fill="white"/>
<path d="M253.587 52.4531C247.946 52.4531 244.111 50.8936 242.08 47.7745C240.087 44.6555 239.09 39.5259 239.09 32.3859C239.09 25.2459 240.106 20.1727 242.136 17.1664C244.167 14.1225 247.984 12.6006 253.587 12.6006C256.934 12.6006 260.619 13.0703 264.643 14.0098L264.418 19.0829C261.033 18.4817 257.649 18.181 254.264 18.181C250.88 18.181 248.586 19.1957 247.382 21.2249C246.179 23.2166 245.577 26.9933 245.577 32.555C245.577 38.0791 246.16 41.8558 247.326 43.8851C248.492 45.8768 250.767 46.8726 254.151 46.8726C257.536 46.8726 260.958 46.5908 264.418 46.0271L264.587 51.213C260.713 52.0398 257.047 52.4531 253.587 52.4531Z" fill="#FFAD00"/>
<path d="M271.59 26.6927C273.546 24.2501 276.78 23.0287 281.292 23.0287C285.805 23.0287 289.02 24.2501 290.938 26.6927C292.894 29.1353 293.871 32.7993 293.871 37.6846C293.871 42.5698 292.931 46.2526 291.051 48.7328C289.171 51.213 285.918 52.4531 281.292 52.4531C276.667 52.4531 273.414 51.213 271.534 48.7328C269.653 46.2526 268.713 42.5698 268.713 37.6846C268.713 32.7993 269.672 29.1353 271.59 26.6927ZM276.216 45.0125C277.081 46.5156 278.773 47.2672 281.292 47.2672C283.812 47.2672 285.504 46.5156 286.369 45.0125C287.234 43.5093 287.666 41.0479 287.666 37.6282C287.666 34.2085 287.196 31.7847 286.256 30.3567C285.354 28.9286 283.699 28.2146 281.292 28.2146C278.886 28.2146 277.212 28.9286 276.272 30.3567C275.369 31.7847 274.918 34.2085 274.918 37.6282C274.918 41.0479 275.351 43.5093 276.216 45.0125Z" fill="#FFAD00"/>
<path d="M322.993 11.9241V51.8331H316.901V50.3675C314.156 51.7579 311.636 52.4531 309.342 52.4531C305.657 52.4531 302.95 51.3445 301.22 49.1274C299.527 46.9102 298.681 43.1899 298.681 37.9664C298.681 32.7429 299.621 28.9474 301.502 26.58C303.42 24.2125 306.39 23.0287 310.414 23.0287C311.768 23.0287 313.911 23.273 316.845 23.7615V11.9241H322.993ZM315.886 45.9707L316.845 45.5762V28.8911C314.588 28.5153 312.501 28.3274 310.583 28.3274C306.785 28.3274 304.886 31.484 304.886 37.7973C304.886 41.2546 305.319 43.6596 306.184 45.0125C307.086 46.3277 308.496 46.9854 310.414 46.9854C312.332 46.9854 314.156 46.6472 315.886 45.9707Z" fill="#FFAD00"/>
<path d="M350.522 46.7599L352.102 46.5908L352.215 51.1567C347.928 52.021 344.13 52.4531 340.82 52.4531C336.646 52.4531 333.638 51.307 331.795 49.0146C329.99 46.7223 329.087 43.0584 329.087 38.0228C329.087 28.0268 333.168 23.0287 341.328 23.0287C349.225 23.0287 353.174 27.3315 353.174 35.9371L352.779 40.3339H335.292C335.33 42.6638 335.838 44.3736 336.815 45.4634C337.793 46.5532 339.617 47.0981 342.287 47.0981C344.957 47.0981 347.702 46.9854 350.522 46.7599ZM347.138 35.5989C347.138 32.8181 346.687 30.8828 345.784 29.793C344.919 28.6656 343.434 28.1019 341.328 28.1019C339.222 28.1019 337.68 28.6844 336.702 29.8493C335.762 31.0143 335.273 32.9308 335.236 35.5989H347.138Z" fill="#FFAD00"/>
<path d="M359.086 51.8331V23.6488H365.178V27.0309C368.374 24.9641 371.571 23.63 374.767 23.0287V29.1729C371.533 29.8118 368.769 30.6385 366.475 31.6531L365.234 32.1604V51.8331H359.086Z" fill="#FFAD00"/>
<path d="M399.041 29.4548C394.604 28.8535 391.388 28.5529 389.395 28.5529C387.402 28.5529 386.011 28.7971 385.221 29.2856C384.469 29.7366 384.093 30.4694 384.093 31.484C384.093 32.4987 384.507 33.2127 385.334 33.626C386.199 34.0394 388.192 34.5279 391.313 35.0916C394.472 35.6177 396.71 36.4632 398.026 37.6282C399.342 38.7931 400 40.86 400 43.8287C400 46.7975 399.041 48.9771 397.123 50.3675C395.243 51.7579 392.479 52.4531 388.831 52.4531C386.537 52.4531 383.642 52.1337 380.144 51.4949L378.396 51.213L378.621 46.0835C383.134 46.6847 386.387 46.9854 388.38 46.9854C390.373 46.9854 391.783 46.7411 392.611 46.2526C393.476 45.7641 393.908 44.9561 393.908 43.8287C393.908 42.7014 393.494 41.931 392.667 41.5176C391.877 41.0667 389.941 40.5969 386.857 40.1084C383.811 39.5823 381.573 38.7744 380.144 37.6846C378.715 36.5948 378.001 34.6031 378.001 31.7095C378.001 28.8159 378.979 26.6551 380.934 25.2271C382.927 23.7991 385.466 23.0851 388.549 23.0851C390.956 23.0851 393.908 23.3857 397.405 23.987L399.154 24.3252L399.041 29.4548Z" fill="#FFAD00"/>
<path d="M110.646 76.7361C108.895 76.7361 107.491 76.1687 106.434 75.0339C105.383 73.8991 104.858 72.4227 104.858 70.6047C104.858 68.6512 105.395 67.0929 106.468 65.9299C107.542 64.7668 108.999 64.1853 110.841 64.1853C112.547 64.1853 113.92 64.7499 114.96 65.8791C116.005 67.0082 116.528 68.4846 116.528 70.3083C116.528 72.29 115.994 73.8567 114.926 75.0085C113.858 76.1602 112.432 76.7361 110.646 76.7361ZM110.739 65.9553C109.626 65.9553 108.72 66.3703 108.019 67.2002C107.324 68.0302 106.977 69.1226 106.977 70.4776C106.977 71.827 107.316 72.9138 107.994 73.7381C108.672 74.5624 109.559 74.9746 110.655 74.9746C111.818 74.9746 112.737 74.5822 113.409 73.7974C114.081 73.0127 114.417 71.9145 114.417 70.5031C114.417 69.0521 114.09 67.9314 113.434 67.1409C112.785 66.3505 111.886 65.9553 110.739 65.9553Z" fill="white"/>
<path d="M126.265 76.5329H124.299V71.6463C124.299 70.026 123.726 69.2158 122.579 69.2158C121.98 69.2158 121.485 69.4416 121.096 69.8933C120.706 70.3393 120.511 70.9039 120.511 71.5871V76.5329H118.536V67.8608H120.511V69.3005H120.545C121.194 68.2052 122.132 67.6575 123.358 67.6575C124.302 67.6575 125.022 67.9652 125.519 68.5806C126.017 69.1904 126.265 70.074 126.265 71.2314V76.5329Z" fill="white"/>
<path d="M133.24 72.5186H128.613V71.0705H133.24V72.5186Z" fill="white"/>
<path d="M135.875 76.5329V64.3886H139.384C143.864 64.3886 146.104 66.3618 146.104 70.3083C146.104 72.1827 145.483 73.6902 144.24 74.8306C142.997 75.9655 141.33 76.5329 139.24 76.5329H135.875ZM137.884 66.0993V74.8306H139.494C140.912 74.8306 142.014 74.4411 142.799 73.6619C143.59 72.8828 143.986 71.7818 143.986 70.3591C143.986 67.5192 142.514 66.0993 139.57 66.0993H137.884Z" fill="white"/>
<path d="M155.461 72.7304H149.545C149.568 73.5321 149.814 74.1503 150.283 74.585C150.757 75.0198 151.407 75.2371 152.232 75.2371C153.158 75.2371 154.009 74.9605 154.783 74.4072V75.9909C153.992 76.4877 152.946 76.7361 151.647 76.7361C150.37 76.7361 149.367 76.3437 148.638 75.5589C147.915 74.7685 147.554 73.6591 147.554 72.2307C147.554 70.8813 147.952 69.7832 148.749 68.9363C149.551 68.0838 150.545 67.6575 151.732 67.6575C152.918 67.6575 153.836 68.0386 154.486 68.8008C155.136 69.563 155.461 70.6216 155.461 71.9766V72.7304ZM153.562 71.3415C153.557 70.6357 153.39 70.0881 153.062 69.6985C152.735 69.3033 152.283 69.1057 151.706 69.1057C151.141 69.1057 150.661 69.3118 150.266 69.7239C149.876 70.1361 149.636 70.6753 149.545 71.3415H153.562Z" fill="white"/>
<path d="M170.308 76.5329H168.342V71.8073C168.342 70.8983 168.212 70.2405 167.952 69.834C167.698 69.4275 167.266 69.2243 166.656 69.2243C166.142 69.2243 165.704 69.4811 165.342 69.9949C164.986 70.5087 164.808 71.1241 164.808 71.8411V76.5329H162.834V71.6463C162.834 70.0316 162.263 69.2243 161.122 69.2243C160.591 69.2243 160.153 69.467 159.808 69.9526C159.469 70.4381 159.3 71.0676 159.3 71.8411V76.5329H157.334V67.8608H159.3V69.2327H159.334C159.961 68.1826 160.873 67.6575 162.071 67.6575C162.67 67.6575 163.192 67.8241 163.639 68.1572C164.091 68.4846 164.399 68.9166 164.562 69.4529C165.207 68.256 166.167 67.6575 167.444 67.6575C169.354 67.6575 170.308 68.8347 170.308 71.189V76.5329Z" fill="white"/>
<path d="M179.368 76.5329H177.461V75.1779H177.427C176.828 76.2167 175.95 76.7361 174.791 76.7361C173.938 76.7361 173.269 76.5046 172.783 76.0417C172.303 75.5787 172.063 74.9661 172.063 74.2039C172.063 72.5666 173.006 71.6125 174.893 71.3415L177.469 70.9773C177.469 69.7409 176.882 69.1226 175.707 69.1226C174.673 69.1226 173.741 69.4783 172.91 70.1897V68.4705C173.825 67.9285 174.882 67.6575 176.08 67.6575C178.272 67.6575 179.368 68.7359 179.368 70.8926V76.5329ZM177.469 72.273L175.647 72.5271C175.082 72.6005 174.656 72.7388 174.368 72.9421C174.085 73.1397 173.944 73.4897 173.944 73.9922C173.944 74.3592 174.074 74.6613 174.334 74.8984C174.599 75.1299 174.952 75.2456 175.393 75.2456C175.992 75.2456 176.486 75.0367 176.876 74.6189C177.272 74.1955 177.469 73.6648 177.469 73.0268V72.273Z" fill="white"/>
<path d="M189.504 76.5329H187.537V71.6463C187.537 70.026 186.964 69.2158 185.817 69.2158C185.218 69.2158 184.724 69.4416 184.334 69.8933C183.944 70.3393 183.749 70.9039 183.749 71.5871V76.5329H181.775V67.8608H183.749V69.3005H183.783C184.433 68.2052 185.371 67.6575 186.597 67.6575C187.54 67.6575 188.261 67.9652 188.758 68.5806C189.255 69.1904 189.504 70.074 189.504 71.2314V76.5329Z" fill="white"/>
<path d="M199.8 76.5329H197.834V75.0593H197.8C197.168 76.1772 196.193 76.7361 194.877 76.7361C193.809 76.7361 192.953 76.3494 192.309 75.5759C191.67 74.7968 191.351 73.7381 191.351 72.4001C191.351 70.966 191.704 69.8171 192.41 68.9533C193.122 68.0894 194.069 67.6575 195.249 67.6575C196.419 67.6575 197.269 68.1261 197.8 69.0634H197.834V63.6941H199.8V76.5329ZM197.86 72.5694V71.4346C197.86 70.8192 197.659 70.297 197.258 69.8679C196.857 69.4388 196.346 69.2243 195.724 69.2243C194.99 69.2243 194.41 69.4981 193.987 70.0457C193.569 70.5934 193.36 71.3528 193.36 72.3239C193.36 73.2046 193.56 73.9019 193.961 74.4157C194.368 74.9238 194.913 75.1779 195.597 75.1779C196.269 75.1779 196.814 74.9323 197.233 74.4411C197.651 73.9442 197.86 73.3204 197.86 72.5694Z" fill="white"/>
<path d="M206.809 76.0501V73.9753C206.995 74.1447 207.216 74.2971 207.47 74.4326C207.73 74.5681 208.004 74.6838 208.292 74.7798C208.58 74.8701 208.868 74.9407 209.157 74.9915C209.445 75.0423 209.71 75.0678 209.953 75.0678C210.801 75.0678 211.431 74.9266 211.843 74.6443C212.261 74.362 212.47 73.9527 212.47 73.4163C212.47 73.1284 212.4 72.88 212.258 72.6711C212.123 72.4565 211.931 72.2617 211.682 72.0867C211.433 71.9117 211.14 71.7451 210.801 71.5871C210.467 71.4233 210.109 71.254 209.724 71.0789C209.312 70.8587 208.928 70.6357 208.572 70.4099C208.216 70.1841 207.905 69.9356 207.64 69.6646C207.38 69.388 207.173 69.0775 207.021 68.7331C206.874 68.3887 206.801 67.985 206.801 67.522C206.801 66.9518 206.928 66.4578 207.182 66.04C207.442 65.6165 207.781 65.2693 208.199 64.9983C208.623 64.7217 209.103 64.5184 209.64 64.3886C210.176 64.2531 210.724 64.1853 211.284 64.1853C212.555 64.1853 213.481 64.3293 214.063 64.6172V66.6074C213.374 66.1106 212.487 65.8621 211.402 65.8621C211.103 65.8621 210.803 65.8904 210.504 65.9468C210.21 66.0033 209.945 66.0964 209.707 66.2263C209.476 66.3561 209.286 66.5227 209.14 66.726C208.993 66.9292 208.919 67.1748 208.919 67.4627C208.919 67.7337 208.976 67.968 209.089 68.1657C209.202 68.3633 209.366 68.5439 209.58 68.7077C209.801 68.8714 210.066 69.0323 210.377 69.1904C210.693 69.3428 211.058 69.5094 211.47 69.69C211.894 69.9102 212.292 70.1417 212.665 70.3845C213.044 70.6273 213.374 70.8954 213.657 71.189C213.945 71.4826 214.171 71.8101 214.335 72.1714C214.504 72.5271 214.589 72.9336 214.589 73.3909C214.589 74.0063 214.465 74.5258 214.216 74.9492C213.967 75.3726 213.631 75.717 213.207 75.9824C212.789 76.2477 212.306 76.4397 211.758 76.5583C211.21 76.6768 210.631 76.7361 210.021 76.7361C209.818 76.7361 209.566 76.7192 209.267 76.6853C208.973 76.6571 208.671 76.6119 208.36 76.5498C208.049 76.4933 207.755 76.4228 207.479 76.3381C207.202 76.2534 206.979 76.1574 206.809 76.0501Z" fill="white"/>
<path d="M220.453 76.7361C219.114 76.7361 218.044 76.3324 217.241 75.5251C216.445 74.7121 216.047 73.6365 216.047 72.2984C216.047 70.8418 216.462 69.7042 217.292 68.8855C218.128 68.0669 219.253 67.6575 220.665 67.6575C222.021 67.6575 223.078 68.0556 223.835 68.8516C224.592 69.6477 224.97 70.7515 224.97 72.1629C224.97 73.5462 224.561 74.6556 223.742 75.4912C222.928 76.3211 221.832 76.7361 220.453 76.7361ZM220.547 69.2243C219.778 69.2243 219.171 69.4924 218.725 70.0288C218.278 70.5652 218.055 71.3048 218.055 72.2476C218.055 73.1566 218.281 73.8736 218.733 74.3987C219.185 74.9181 219.79 75.1779 220.547 75.1779C221.321 75.1779 221.914 74.921 222.326 74.4072C222.744 73.8934 222.953 73.1623 222.953 72.2138C222.953 71.2596 222.744 70.5228 222.326 70.0034C221.914 69.484 221.321 69.2243 220.547 69.2243Z" fill="white"/>
<path d="M231.598 65.2947C231.332 65.1423 231.03 65.0661 230.691 65.0661C229.736 65.0661 229.259 65.6052 229.259 66.6836V67.8608H231.276V69.4021H229.267V76.5329H227.301V69.4021H225.818V67.8608H227.301V66.455C227.301 65.5403 227.6 64.8205 228.199 64.2954C228.798 63.7647 229.547 63.4993 230.445 63.4993C230.931 63.4993 231.315 63.553 231.598 63.6602V65.2947Z" fill="white"/>
<path d="M237.572 76.4397C237.188 76.6317 236.682 76.7276 236.055 76.7276C234.372 76.7276 233.53 75.9203 233.53 74.3056V69.4021H232.081V67.8608H233.53V65.8537L235.496 65.2947V67.8608H237.572V69.4021H235.496V73.7381C235.496 74.2519 235.589 74.6189 235.776 74.8391C235.962 75.0593 236.273 75.1694 236.708 75.1694C237.041 75.1694 237.329 75.0734 237.572 74.8814V76.4397Z" fill="white"/>
<path d="M250.937 67.8608L248.378 76.5329H246.318L244.742 70.6555C244.68 70.4297 244.64 70.1756 244.623 69.8933H244.589C244.578 70.0853 244.527 70.3337 244.437 70.6386L242.725 76.5329H240.708L238.157 67.8608H240.191L241.767 74.1108C241.818 74.2971 241.852 74.5455 241.869 74.856H241.928C241.945 74.6189 241.991 74.3648 242.064 74.0938L243.818 67.8608H245.666L247.225 74.1362C247.276 74.3338 247.313 74.5822 247.335 74.8814H247.395C247.406 74.6725 247.448 74.4241 247.522 74.1362L249.064 67.8608H250.937Z" fill="white"/>
<path d="M259.064 76.5329H257.157V75.1779H257.124C256.525 76.2167 255.646 76.7361 254.488 76.7361C253.635 76.7361 252.965 76.5046 252.479 76.0417C251.999 75.5787 251.759 74.9661 251.759 74.2039C251.759 72.5666 252.703 71.6125 254.59 71.3415L257.166 70.9773C257.166 69.7409 256.578 69.1226 255.403 69.1226C254.369 69.1226 253.437 69.4783 252.607 70.1897V68.4705C253.522 67.9285 254.578 67.6575 255.776 67.6575C257.968 67.6575 259.064 68.7359 259.064 70.8926V76.5329ZM257.166 72.273L255.344 72.5271C254.779 72.6005 254.352 72.7388 254.064 72.9421C253.782 73.1397 253.64 73.4897 253.64 73.9922C253.64 74.3592 253.77 74.6613 254.03 74.8984C254.296 75.1299 254.649 75.2456 255.09 75.2456C255.689 75.2456 256.183 75.0367 256.573 74.6189C256.968 74.1955 257.166 73.6648 257.166 73.0268V72.273Z" fill="white"/>
<path d="M266.505 69.7324C266.268 69.5461 265.926 69.4529 265.48 69.4529C264.898 69.4529 264.412 69.7155 264.022 70.2405C263.632 70.7656 263.437 71.4798 263.437 72.3831V76.5329H261.471V67.8608H263.437V69.6477H263.471C263.663 69.0379 263.957 68.5637 264.353 68.2249C264.754 67.8805 265.2 67.7083 265.692 67.7083C266.047 67.7083 266.319 67.762 266.505 67.8692V69.7324Z" fill="white"/>
<path d="M275.09 72.7304H269.175C269.197 73.5321 269.443 74.1503 269.912 74.585C270.387 75.0198 271.036 75.2371 271.861 75.2371C272.788 75.2371 273.638 74.9605 274.412 74.4072V75.9909C273.621 76.4877 272.576 76.7361 271.276 76.7361C270 76.7361 268.997 76.3437 268.268 75.5589C267.545 74.7685 267.183 73.6591 267.183 72.2307C267.183 70.8813 267.581 69.7832 268.378 68.9363C269.18 68.0838 270.175 67.6575 271.361 67.6575C272.548 67.6575 273.466 68.0386 274.115 68.8008C274.765 69.563 275.09 70.6216 275.09 71.9766V72.7304ZM273.192 71.3415C273.186 70.6357 273.019 70.0881 272.692 69.6985C272.364 69.3033 271.912 69.1057 271.336 69.1057C270.771 69.1057 270.29 69.3118 269.895 69.7239C269.505 70.1361 269.265 70.6753 269.175 71.3415H273.192Z" fill="white"/>
<path d="M289.76 66.0993H286.268V76.5329H284.251V66.0993H280.768V64.3886H289.76V66.0993Z" fill="white"/>
<path d="M296.972 72.7304H291.056C291.079 73.5321 291.325 74.1503 291.794 74.585C292.268 75.0198 292.918 75.2371 293.743 75.2371C294.669 75.2371 295.52 74.9605 296.294 74.4072V75.9909C295.503 76.4877 294.458 76.7361 293.158 76.7361C291.881 76.7361 290.878 76.3437 290.15 75.5589C289.426 74.7685 289.065 73.6591 289.065 72.2307C289.065 70.8813 289.463 69.7832 290.26 68.9363C291.062 68.0838 292.056 67.6575 293.243 67.6575C294.429 67.6575 295.347 68.0386 295.997 68.8008C296.647 69.563 296.972 70.6216 296.972 71.9766V72.7304ZM295.073 71.3415C295.068 70.6357 294.901 70.0881 294.573 69.6985C294.246 69.3033 293.794 69.1057 293.217 69.1057C292.653 69.1057 292.172 69.3118 291.777 69.7239C291.387 70.1361 291.147 70.6753 291.056 71.3415H295.073Z" fill="white"/>
<path d="M305.506 76.5329H303.599V75.1779H303.565C302.966 76.2167 302.088 76.7361 300.929 76.7361C300.076 76.7361 299.407 76.5046 298.921 76.0417C298.441 75.5787 298.201 74.9661 298.201 74.2039C298.201 72.5666 299.144 71.6125 301.031 71.3415L303.608 70.9773C303.608 69.7409 303.02 69.1226 301.845 69.1226C300.811 69.1226 299.879 69.4783 299.048 70.1897V68.4705C299.963 67.9285 301.02 67.6575 302.218 67.6575C304.41 67.6575 305.506 68.7359 305.506 70.8926V76.5329ZM303.608 72.273L301.785 72.5271C301.22 72.6005 300.794 72.7388 300.506 72.9421C300.223 73.1397 300.082 73.4897 300.082 73.9922C300.082 74.3592 300.212 74.6613 300.472 74.8984C300.737 75.1299 301.091 75.2456 301.531 75.2456C302.13 75.2456 302.624 75.0367 303.014 74.6189C303.41 74.1955 303.608 73.6648 303.608 73.0268V72.273Z" fill="white"/>
<path d="M320.888 76.5329H318.921V71.8073C318.921 70.8983 318.791 70.2405 318.532 69.834C318.277 69.4275 317.845 69.2243 317.235 69.2243C316.721 69.2243 316.283 69.4811 315.921 69.9949C315.565 70.5087 315.387 71.1241 315.387 71.8411V76.5329H313.413V71.6463C313.413 70.0316 312.842 69.2243 311.701 69.2243C311.17 69.2243 310.732 69.467 310.387 69.9526C310.048 70.4381 309.879 71.0676 309.879 71.8411V76.5329H307.913V67.8608H309.879V69.2327H309.913C310.54 68.1826 311.452 67.6575 312.65 67.6575C313.249 67.6575 313.772 67.8241 314.218 68.1572C314.67 68.4846 314.978 68.9166 315.142 69.4529C315.786 68.256 316.746 67.6575 318.023 67.6575C319.933 67.6575 320.888 68.8347 320.888 71.189V76.5329Z" fill="white"/>
<path d="M322.743 76.2619V74.4411C323.478 75 324.289 75.2795 325.176 75.2795C326.362 75.2795 326.955 74.9294 326.955 74.2293C326.955 74.0317 326.905 73.8652 326.803 73.7297C326.701 73.5885 326.563 73.4643 326.388 73.3571C326.218 73.2498 326.015 73.1538 325.777 73.0691C325.546 72.9844 325.286 72.8884 324.998 72.7812C324.642 72.64 324.32 72.4904 324.032 72.3323C323.749 72.1742 323.512 71.9964 323.32 71.7988C323.133 71.5955 322.992 71.3669 322.896 71.1128C322.8 70.8587 322.752 70.5623 322.752 70.2236C322.752 69.8058 322.851 69.4388 323.049 69.1226C323.246 68.8008 323.512 68.5326 323.845 68.3181C324.179 68.0979 324.557 67.9342 324.981 67.8269C325.405 67.714 325.842 67.6575 326.294 67.6575C327.097 67.6575 327.814 67.7789 328.447 68.0217V69.7409C327.837 69.3231 327.136 69.1142 326.345 69.1142C326.097 69.1142 325.871 69.1396 325.667 69.1904C325.47 69.2412 325.3 69.3118 325.159 69.4021C325.018 69.4924 324.907 69.6025 324.828 69.7324C324.749 69.8566 324.71 69.9949 324.71 70.1474C324.71 70.3337 324.749 70.4918 324.828 70.6216C324.907 70.7515 325.023 70.8672 325.176 70.9688C325.334 71.0648 325.52 71.1552 325.735 71.2398C325.955 71.3189 326.207 71.4064 326.489 71.5024C326.862 71.6548 327.196 71.8101 327.489 71.9682C327.789 72.1262 328.043 72.3069 328.252 72.5102C328.461 72.7078 328.622 72.9393 328.735 73.2046C328.848 73.4643 328.905 73.7748 328.905 74.1362C328.905 74.5766 328.803 74.9605 328.6 75.2879C328.396 75.6154 328.125 75.8864 327.786 76.101C327.447 76.3155 327.054 76.4736 326.608 76.5752C326.167 76.6825 325.701 76.7361 325.21 76.7361C324.26 76.7361 323.438 76.578 322.743 76.2619Z" fill="white"/>
</svg>
