<svg width="34" height="41" viewBox="0 0 34 41" fill="none" xmlns="http://www.w3.org/2000/svg">
<path fill-rule="evenodd" clip-rule="evenodd" d="M22.4239 37.8931C23.0092 38.5138 23.0092 39.5208 22.4239 40.1416C21.8384 40.7623 20.8893 40.7623 20.3041 40.1416L15.934 35.5067C15.3488 34.8859 15.3488 33.8789 15.934 33.2582L20.3041 28.6233C20.8893 28.0025 21.8384 28.0025 22.4236 28.6233C23.0092 29.244 23.0092 30.251 22.4236 30.8718L19.1137 34.3825L22.4239 37.8931ZM26.4839 30.8718C25.8984 30.251 25.8984 29.2443 26.4839 28.6233C27.0692 28.0025 28.0182 28.0025 28.6038 28.6233L32.9735 33.2582C33.5587 33.8793 33.5587 34.8859 32.9735 35.5067L28.6038 40.1416C28.0182 40.7623 27.0692 40.7623 26.4839 40.1416C25.8984 39.5208 25.8984 38.5141 26.4839 37.8931L29.7939 34.3824L26.4839 30.8718Z" fill="#FFB81D" fill-opacity="0.58"/>
<path fill-rule="evenodd" clip-rule="evenodd" d="M0 5.02796C0 2.46809 2.07502 0.393066 4.6349 0.393066H23.1745C25.7344 0.393066 27.8094 2.46809 27.8094 5.02796V23.5675C27.8094 24.4207 27.1176 25.1125 26.2644 25.1125H19.8193C19.4097 25.1125 19.0169 25.2753 18.7268 25.565L11.9369 32.3549C11.4669 32.8253 11.3503 33.5436 11.6476 34.1385L13.7416 38.3265C13.9809 38.8051 13.9554 39.3738 13.674 39.8293C13.3923 40.2849 12.8953 40.5621 12.3597 40.5621H4.6349C2.07503 40.5621 6.73552e-06 38.4871 6.73552e-06 35.9273L0 5.02796ZM9.26979 3.483C8.41661 3.483 7.72483 4.17478 7.72483 5.02796C7.72483 5.88115 8.41661 6.57293 9.26979 6.57293H18.5396C19.3928 6.57293 20.0846 5.88115 20.0846 5.02796C20.0846 4.17478 19.3928 3.483 18.5396 3.483H9.26979Z" fill="#FFB81D"/>
</svg>
