<svg width="17" height="17" viewBox="0 0 17 17" fill="none" xmlns="http://www.w3.org/2000/svg">
<path d="M8.90261 8.90153L14.9624 2.84173L16.0562 1.25139C16.0132 1.14751 15.9404 1.05869 15.847 0.996152L15.7916 1.07898L15.847 0.996152C15.7536 0.933591 15.6437 0.900131 15.5313 0.9H15.5312H9.90615C9.75531 0.9 9.61064 0.959922 9.50398 1.06658C9.39732 1.17324 9.3374 1.31791 9.3374 1.46875C9.3374 1.61959 9.39732 1.76426 9.50398 1.87092C9.61064 1.97758 9.75531 2.0375 9.90615 2.0375H14.1582L8.09837 8.0973C8.04435 8.14963 8.00125 8.21217 7.97157 8.28128C7.94176 8.35067 7.92607 8.4253 7.92541 8.50082C7.92476 8.57634 7.93915 8.65123 7.96774 8.72113C7.99634 8.79102 8.03857 8.85453 8.09197 8.90793C8.14538 8.96133 8.20888 9.00356 8.27878 9.03216C8.34867 9.06075 8.42356 9.07514 8.49908 9.07449C8.5746 9.07383 8.64923 9.05814 8.71862 9.02833C8.78773 8.99865 8.85027 8.95555 8.90261 8.90153Z" fill="white" stroke="white" stroke-width="0.2"/>
<path d="M2.9424 2.775L2.9425 2.775L8.96875 2.775C9.11959 2.775 9.26426 2.83492 9.37092 2.94158L9.30021 3.01229L9.37092 2.94158C9.47758 3.04824 9.5375 3.19291 9.5375 3.34375C9.5375 3.49459 9.47758 3.63926 9.37092 3.74592C9.26426 3.85258 9.11959 3.9125 8.96875 3.9125L2.94259 3.9125L2.9425 3.9125M2.9424 2.775L1.9375 4.8175C1.93775 4.55103 2.04371 4.29555 2.23213 4.10713C2.42055 3.91871 2.67603 3.81275 2.9425 3.8125V3.9125M2.9424 2.775C2.40088 2.77552 1.88169 2.99087 1.49878 3.37378C1.11587 3.75669 0.900522 4.27588 0.9 4.8174V4.8175L0.9 14.0575L0.9 14.0576C0.900522 14.5991 1.11587 15.1183 1.49878 15.5012C1.88169 15.8841 2.40088 16.0995 2.9424 16.1H2.9425H12.1825H12.1826C12.7241 16.0995 13.2433 15.8841 13.6262 15.5012C14.0091 15.1183 14.2245 14.5991 14.225 14.0576V14.0575V8.03125C14.225 7.88041 14.1651 7.73574 14.0584 7.62908C13.9518 7.52242 13.8071 7.4625 13.6562 7.4625C13.5054 7.4625 13.3607 7.52242 13.2541 7.62908C13.1474 7.73574 13.0875 7.88041 13.0875 8.03125V14.0574C13.0873 14.2974 12.9918 14.5275 12.8222 14.6972C12.6525 14.8668 12.4224 14.9623 12.1824 14.9625H2.94259M2.9424 2.775L2.94259 14.9625M2.9425 3.9125C2.70256 3.91275 2.47251 4.00818 2.30284 4.17784C2.13318 4.34751 2.03775 4.57756 2.0375 4.8175M2.9425 3.9125L2.0375 4.8175M2.0375 4.8175L2.0375 4.81759V14.0574L2.0375 14.0575M2.0375 4.8175L2.9425 15.0625C2.67603 15.0623 2.42055 14.9563 2.23213 14.7679C2.04371 14.5794 1.93775 14.324 1.9375 14.0575H2.0375M2.0375 14.0575C2.03775 14.2974 2.13318 14.5275 2.30284 14.6972C2.47253 14.8668 2.70262 14.9623 2.94259 14.9625M2.0375 14.0575L2.94259 14.9625" fill="white" stroke="white" stroke-width="0.2"/>
</svg>
