<svg width="80" height="80" viewBox="0 0 80 80" fill="none" xmlns="http://www.w3.org/2000/svg">
<rect width="80" height="80" rx="40" fill="white"/>
<path d="M55.9685 56.5252L40 64.6713V48.3792L55.9685 56.5252Z" fill="#05164D"/>
<path d="M23.6402 39.9809L39.7866 31.7627L23.6402 23.5085H23.6043L7.42271 31.7627L7.28052 31.8348V48.199L7.38756 48.2711H7.42271L23.6043 56.5253H23.6402V56.5614L39.7866 64.8156L39.9999 64.6714V64.9237L56.3596 73.2501V56.7416L55.9682 56.5253L39.9999 48.3793L39.7866 48.2711L23.6402 40.053L23.6043 40.0169L23.6402 39.9809Z" fill="#FFAD00"/>
<path d="M40 15.3623V31.6545L39.7866 31.7626L23.6403 23.5084V23.4724L39.7866 15.2181L40 15.3623Z" fill="#FFAD00"/>
<path d="M39.7867 15.2182L23.6403 7V23.5084L39.7867 31.7626L40 31.6545V31.8708L55.9682 40.0169L40 48.1629V48.3792L55.9682 56.5253L56.3596 56.345L72.1506 48.2711L72.7193 47.9827V32.051L72.1506 31.7627L56.3596 23.6887L55.9682 23.5085L40 15.3623L39.7867 15.2182Z" fill="#24315B"/>
<path d="M72.7193 47.9826V32.0509L72.1503 31.7626L56.3791 39.7906V39.7879L55.9651 40.0188L56.3791 40.2441V40.243L72.1503 48.271L72.7193 47.9826Z" fill="#05164D"/>
<path d="M56.3596 23.6886V39.8006L55.9684 40.0169L39.9999 31.8708V31.6545L55.9684 23.5084L56.3596 23.6886Z" fill="#05164D"/>
<path d="M39.7866 31.7626L23.6403 39.9808V23.5084L39.7866 31.7626Z" fill="#FCBB31"/>
<path d="M23.6046 40.0168L7.42278 48.271H7.38721L7.28052 48.1989V31.8347L7.42278 31.7626L23.6046 40.0168Z" fill="#FCBB31"/>
<path d="M23.6404 40.0529V56.5253H23.6048L7.42297 48.2711L23.6048 40.0168L23.6404 40.0529Z" fill="#FFAD00"/>
<path d="M40 48.3793V64.6714L39.7866 64.8156L23.6403 56.5614V56.5253L39.7866 48.2711L40 48.3793Z" fill="#FFAD00"/>
<path d="M56.3596 56.7415V73.25L39.9999 64.9237V64.6714L55.9684 56.5253L56.3596 56.7415Z" fill="#FFAD00"/>
<path d="M39.7866 48.271L23.6403 56.5252V40.0529L39.7866 48.271Z" fill="#FCBB31"/>
<path d="M55.9684 56.5253L39.9999 64.6714V48.3793L55.9684 56.5253Z" fill="#FCBB31"/>
<path d="M56.3596 40.2331V56.3451L55.9684 56.5253L39.9999 48.3792V48.1629L55.9684 40.0168L56.3596 40.2331Z" fill="#05164D"/>
<path d="M72.1503 48.2711L56.3596 56.3451V40.2332L72.1503 48.2711Z" fill="#24315B"/>
<path d="M23.6404 23.5084V39.9808L23.6048 40.0169L7.42297 31.7626L23.6048 23.5084H23.6404Z" fill="#FFAD00"/>
<path d="M40 15.3623V31.6545L39.7866 31.7626L23.6403 23.5084V23.4724L39.7866 15.2181L40 15.3623Z" fill="#FFAD00"/>
<path d="M40 15.3623V31.6545L39.7866 31.7626L23.6403 23.5084V23.4724L39.7866 15.2181L40 15.3623Z" fill="#05164D"/>
<path d="M72.1503 31.7627L56.3596 39.8007V23.6887L72.1503 31.7627Z" fill="#24315B"/>
<path d="M55.9684 23.5084L39.9999 31.6545V15.3623L55.9684 23.5084Z" fill="#24315B"/>
<path d="M39.7866 15.2182L23.6403 23.4724V7L39.7866 15.2182Z" fill="#24315B"/>
</svg>
