<svg width="25" height="25" viewBox="0 0 25 25" fill="none" xmlns="http://www.w3.org/2000/svg">
<g clip-path="url(#clip0_60_35456)">
<path d="M3.52881 8.65967H2.5874C2.26381 8.65967 2.00146 8.92201 2.00146 9.24561C2.00146 9.5692 2.26381 9.83154 2.5874 9.83154H3.52881C4.30494 9.80295 4.30521 8.68838 3.52881 8.65967Z" fill="#FFAD00"/>
<path d="M21.416 8.65967H20.4746C20.151 8.65967 19.8887 8.92201 19.8887 9.24561C19.8887 9.5692 20.151 9.83154 20.4746 9.83154H21.416C22.1922 9.80295 22.1924 8.68838 21.416 8.65967Z" fill="#FFAD00"/>
<path d="M5.596 3.66874C6.16506 4.19737 6.95338 3.40933 6.42463 2.84011L5.75904 2.17452C5.53025 1.94573 5.15924 1.94573 4.93041 2.17452C4.70158 2.40331 4.70158 2.77433 4.93041 3.00315L5.596 3.66874Z" fill="#FFAD00"/>
<path d="M18.407 14.8225C17.8379 14.294 17.0496 15.0819 17.5783 15.6512L18.2439 16.3168C18.4728 16.5457 18.8438 16.5455 19.0725 16.3168C19.3014 16.088 19.3014 15.717 19.0725 15.4881L18.407 14.8225Z" fill="#FFAD00"/>
<path d="M5.596 14.8226L4.93041 15.4882C4.70158 15.717 4.70158 16.088 4.93041 16.3168C5.15932 16.5457 5.53025 16.5455 5.75904 16.3168L6.42463 15.6512C6.95326 15.0822 6.16525 14.2939 5.596 14.8226Z" fill="#FFAD00"/>
<path d="M18.2439 2.17449L17.5784 2.84007C17.3495 3.06886 17.3495 3.43988 17.5784 3.66871C17.8073 3.89761 18.1782 3.89746 18.407 3.66871L19.0726 3.00312C19.6012 2.4341 18.8132 1.64582 18.2439 2.17449Z" fill="#FFAD00"/>
<path d="M12.0019 2.6974C6.07252 2.66107 3.17403 10.1686 7.62196 14.0897C8.29299 14.71 8.72827 15.5435 8.86171 16.4382C8.06033 16.476 8.10279 17.6282 8.9055 17.61V18.2793C8.9055 19.7863 9.9879 21.0446 11.416 21.3193C11.3577 22.2272 12.6463 22.2267 12.5879 21.3193C14.0159 21.0446 15.0983 19.7863 15.0983 18.2793V17.61C15.9016 17.628 15.943 16.4756 15.1421 16.4382C15.2755 15.5437 15.7108 14.7101 16.3819 14.0897C20.8313 10.167 17.9286 2.66029 12.0019 2.6974ZM13.9264 18.2793C13.8293 20.8294 10.1736 20.8278 10.0774 18.2792V17.61H13.9264V18.2793ZM15.5999 13.2168C14.6815 14.0593 14.1011 15.2103 13.96 16.4381H10.0438C9.62282 13.0372 7.07051 13.3037 6.65784 9.83163H9.49141C9.64684 9.83163 9.79587 9.76991 9.90571 9.65999L11.1824 8.38328C12.374 8.99939 13.8611 8.08277 13.843 6.73517C13.843 5.71996 13.0171 4.894 12.0019 4.894C10.6544 4.87611 9.73759 6.36301 10.3538 7.55464L9.24871 8.65969H6.65753C7.49997 2.31357 16.5062 2.31814 17.3462 8.65969H14.5124C14.3569 8.65969 14.2079 8.72141 14.0981 8.83134L12.8214 10.108C11.6298 9.49201 10.1427 10.4086 10.1608 11.7562C10.1608 12.7714 10.9867 13.5973 12.0019 13.5973C13.3494 13.6152 14.2662 12.1283 13.65 10.9367L14.7551 9.83163H17.346C17.2024 11.1345 16.5839 12.3446 15.5999 13.2168ZM11.3326 6.73525C11.3326 6.36622 11.6329 6.06594 12.0019 6.06594C12.8886 6.09961 12.8883 7.371 12.0019 7.40456C11.6329 7.40452 11.3326 7.10428 11.3326 6.73525ZM12.6712 11.7562C12.6712 12.1252 12.3709 12.4255 12.0019 12.4255C11.1152 12.3918 11.1154 11.1204 12.0019 11.0869C12.3709 11.0869 12.6712 11.3871 12.6712 11.7562Z" fill="#FFAD00"/>
</g>
<defs>
<clipPath id="clip0_60_35456">
<rect width="20" height="20" fill="white" transform="translate(2 2)"/>
</clipPath>
</defs>
</svg>
