<svg width="25" height="25" viewBox="0 0 25 25" fill="none" xmlns="http://www.w3.org/2000/svg">
<path d="M18.875 7.25H17.625V5.375C17.625 4.87772 17.4275 4.40081 17.0758 4.04917C16.7242 3.69754 16.2473 3.5 15.75 3.5H5.125C4.62772 3.5 4.15081 3.69754 3.79917 4.04917C3.44754 4.40081 3.25 4.87772 3.25 5.375V17.875C3.25 18.3723 3.44754 18.8492 3.79917 19.2008C4.15081 19.5525 4.62772 19.75 5.125 19.75H18.5625C19.1427 19.75 19.6991 19.5195 20.1093 19.1093C20.5195 18.6991 20.75 18.1427 20.75 17.5625V9.125C20.75 8.62772 20.5525 8.15081 20.2008 7.79917C19.8492 7.44754 19.3723 7.25 18.875 7.25ZM4.5 17.875V5.375C4.5 5.20924 4.56585 5.05027 4.68306 4.93306C4.80027 4.81585 4.95924 4.75 5.125 4.75H15.75C15.9158 4.75 16.0747 4.81585 16.1919 4.93306C16.3092 5.05027 16.375 5.20924 16.375 5.375V17.5625C16.3763 17.8875 16.4511 18.208 16.5938 18.5H5.125C4.95924 18.5 4.80027 18.4342 4.68306 18.3169C4.56585 18.1997 4.5 18.0408 4.5 17.875ZM19.5 17.5625C19.5 17.8111 19.4012 18.0496 19.2254 18.2254C19.0496 18.4012 18.8111 18.5 18.5625 18.5C18.3139 18.5 18.0754 18.4012 17.8996 18.2254C17.7238 18.0496 17.625 17.8111 17.625 17.5625V8.5H18.875C19.0408 8.5 19.1997 8.56585 19.3169 8.68306C19.4342 8.80027 19.5 8.95924 19.5 9.125V17.5625Z" fill="#FFAD00"/>
<path d="M14.5 7.875H8.25C8.08424 7.875 7.92527 7.94085 7.80806 8.05806C7.69085 8.17527 7.625 8.33424 7.625 8.5C7.625 8.66576 7.69085 8.82473 7.80806 8.94194C7.92527 9.05915 8.08424 9.125 8.25 9.125H14.5C14.6658 9.125 14.8247 9.05915 14.9419 8.94194C15.0592 8.82473 15.125 8.66576 15.125 8.5C15.125 8.33424 15.0592 8.17527 14.9419 8.05806C14.8247 7.94085 14.6658 7.875 14.5 7.875Z" fill="#FFAD00"/>
<path d="M14.5 11H6.375C6.20924 11 6.05027 11.0658 5.93306 11.1831C5.81585 11.3003 5.75 11.4592 5.75 11.625C5.75 11.7908 5.81585 11.9497 5.93306 12.0669C6.05027 12.1842 6.20924 12.25 6.375 12.25H14.5C14.6658 12.25 14.8247 12.1842 14.9419 12.0669C15.0592 11.9497 15.125 11.7908 15.125 11.625C15.125 11.4592 15.0592 11.3003 14.9419 11.1831C14.8247 11.0658 14.6658 11 14.5 11Z" fill="#FFAD00"/>
<path d="M14.5 14.125H6.375C6.20924 14.125 6.05027 14.1908 5.93306 14.3081C5.81585 14.4253 5.75 14.5842 5.75 14.75C5.75 14.9158 5.81585 15.0747 5.93306 15.1919C6.05027 15.3092 6.20924 15.375 6.375 15.375H14.5C14.6658 15.375 14.8247 15.3092 14.9419 15.1919C15.0592 15.0747 15.125 14.9158 15.125 14.75C15.125 14.5842 15.0592 14.4253 14.9419 14.3081C14.8247 14.1908 14.6658 14.125 14.5 14.125Z" fill="#FFAD00"/>
</svg>
