<svg width="25" height="25" viewBox="0 0 25 25" fill="none" xmlns="http://www.w3.org/2000/svg">
<g clip-path="url(#clip0_60_35485)">
<path d="M14.9959 7.41759C15.1761 7.37559 15.3635 7.35417 15.5528 7.35417C16.6645 7.35417 17.6438 8.10382 17.9316 9.16664L17.9406 9.20253C17.9445 9.21759 17.9485 9.23276 17.9521 9.24782C17.9537 9.25512 17.9553 9.26241 17.957 9.26994C18.0197 9.54194 18.2617 9.72617 18.5297 9.72617C18.5723 9.72617 18.6156 9.72147 18.6589 9.71182C18.9745 9.641 19.1738 9.32864 19.105 9.01264C19.1032 9.00441 19.1013 8.99606 19.0995 8.98782C18.8109 7.69359 19.5825 6.41288 20.8683 6.06535C20.8939 6.05817 20.9202 6.05182 20.9459 6.04535L20.9662 6.04029C21.2796 5.96182 21.471 5.64535 21.3951 5.33135C21.3191 5.01747 21.0044 4.82406 20.6896 4.89688C20.5095 4.93888 20.3221 4.96029 20.1328 4.96029C19.0218 4.96029 18.0429 4.21064 17.7542 3.14406L17.7248 3.02994C17.6444 2.71817 17.3285 2.52959 17.0155 2.60535C16.7028 2.68182 16.5096 2.99559 16.5821 3.30923C16.8825 4.60911 16.1098 5.89994 14.8173 6.24923C14.7917 6.25641 14.7655 6.26276 14.7397 6.26923L14.7195 6.27429C14.4061 6.35276 14.2146 6.66923 14.2905 6.98323C14.3665 7.29711 14.6815 7.49053 14.9961 7.4177L14.9959 7.41759ZM17.6059 5.11476C17.9701 5.46535 18.405 5.73911 18.8831 5.91464C18.5282 6.2817 18.2544 6.72006 18.0803 7.19935C17.7161 6.84888 17.2811 6.57523 16.8029 6.39982C17.1582 6.03253 17.4318 5.59429 17.6059 5.11476Z" fill="#FFAD00"/>
<path d="M5.34896 7.41759C5.52908 7.37559 5.71649 7.35417 5.90579 7.35417C7.01755 7.35417 7.99685 8.10382 8.28461 9.16664L8.29367 9.20253C8.29755 9.21759 8.30155 9.23276 8.30508 9.24782C8.30673 9.25512 8.30838 9.26241 8.31002 9.26994C8.37273 9.54194 8.61473 9.72617 8.88273 9.72617C8.92532 9.72617 8.96861 9.72147 9.0119 9.71182C9.32755 9.641 9.52685 9.32864 9.45802 9.01264C9.45626 9.00441 9.45438 8.99606 9.45249 8.98782C9.1639 7.69359 9.93555 6.41288 11.2213 6.06535C11.247 6.05817 11.2732 6.05182 11.299 6.04535L11.3192 6.04029C11.6326 5.96182 11.824 5.64535 11.7481 5.33135C11.6721 5.01747 11.3573 4.82406 11.0426 4.89688C10.8625 4.93888 10.6751 4.96029 10.4858 4.96029C9.37485 4.96029 8.3959 4.21064 8.1072 3.14406L8.07779 3.02994C7.99732 2.71817 7.68167 2.52959 7.36849 2.60535C7.05579 2.68182 6.86261 2.99559 6.93508 3.30923C7.23555 4.60911 6.46285 5.89994 5.17037 6.24923C5.14473 6.25641 5.11849 6.26276 5.09273 6.26923L5.07249 6.27429C4.75908 6.35276 4.56767 6.66923 4.64355 6.98323C4.71955 7.29711 5.03437 7.49053 5.34908 7.4177L5.34896 7.41759ZM7.95896 5.11476C8.32308 5.46535 8.75802 5.73911 9.23614 5.91464C8.8812 6.2817 8.60743 6.72006 8.43332 7.19935C8.06908 6.84888 7.63414 6.57523 7.1559 6.39982C7.5112 6.03253 7.78485 5.59429 7.95896 5.11476Z" fill="#FFAD00"/>
<path d="M20.6896 14.426C20.5095 14.468 20.3221 14.4894 20.1328 14.4894C19.0218 14.4894 18.0429 13.7397 17.7542 12.6731L17.7248 12.559C17.6444 12.2474 17.3285 12.0586 17.0155 12.1344C16.7028 12.2109 16.5096 12.5247 16.5821 12.8383C16.8825 14.1382 16.1098 15.429 14.8173 15.7783C14.7917 15.7855 14.7655 15.7918 14.7397 15.7983L14.7195 15.8034C14.4061 15.8818 14.2146 16.1983 14.2905 16.5123C14.3665 16.8262 14.6815 17.0196 14.9961 16.9468C15.1762 16.9048 15.3636 16.8834 15.5529 16.8834C16.6646 16.8834 17.6439 17.633 17.9317 18.6958L17.9408 18.7317C17.9446 18.7468 17.9486 18.762 17.9522 18.777C17.9538 18.7843 17.9555 18.7916 17.9571 18.7991C18.0198 19.0711 18.2618 19.2554 18.5298 19.2554C18.5724 19.2554 18.6157 19.2507 18.659 19.241C18.9746 19.1702 19.1739 18.8578 19.1051 18.5418C19.1033 18.5336 19.1015 18.5253 19.0996 18.517C18.811 17.2228 19.5826 15.9421 20.8684 15.5946C20.8941 15.5874 20.9203 15.581 20.9461 15.5746L20.9663 15.5695C21.2797 15.491 21.4711 15.1746 21.3952 14.8606C21.3193 14.5466 21.0045 14.3526 20.6897 14.4261L20.6896 14.426ZM18.0804 16.7286C17.7162 16.3781 17.2812 16.1044 16.803 15.929C17.1583 15.5617 17.4319 15.1235 17.6061 14.644C17.9702 14.9946 18.4051 15.2683 18.8832 15.4438C18.5283 15.8109 18.2545 16.2493 18.0804 16.7286Z" fill="#FFAD00"/>
<path d="M15.5115 11.0563C15.89 10.6774 15.89 10.0612 15.5115 9.68273L14.3131 8.48332C14.1297 8.29979 13.8858 8.19873 13.6263 8.19873C13.3668 8.19873 13.123 8.29979 12.9394 8.48344L10.9205 10.5039C10.9189 10.5056 10.9178 10.5076 10.9162 10.5092L2.96878 18.4631C2.59043 18.8419 2.59054 19.458 2.96878 19.8365L4.16654 21.0351C4.35007 21.2188 4.59396 21.3199 4.85349 21.3199C5.11301 21.3199 5.3569 21.2188 5.54031 21.0352L13.4924 13.0767L15.5113 11.0563H15.5115ZM13.6263 9.46038L14.5345 10.3694L13.0764 11.8287L12.1682 10.9197L13.6263 9.46038ZM4.85349 20.0583L3.94572 19.1497L11.337 11.7524L12.2448 12.661L4.85349 20.0583Z" fill="#FFAD00"/>
</g>
<defs>
<clipPath id="clip0_60_35485">
<rect width="20" height="20" fill="white" transform="translate(2 2)"/>
</clipPath>
</defs>
</svg>
