<svg width="25" height="25" viewBox="0 0 25 25" fill="none" xmlns="http://www.w3.org/2000/svg">
<path d="M18.4168 21.9583H7.5835C7.08622 21.9583 6.6093 21.7607 6.25767 21.4091C5.90604 21.0575 5.7085 20.5806 5.7085 20.0833V5.91663C5.7085 5.41935 5.90604 4.94243 6.25767 4.5908C6.6093 4.23917 7.08622 4.04163 7.5835 4.04163H18.4168C18.9141 4.04163 19.391 4.23917 19.7427 4.5908C20.0943 4.94243 20.2918 5.41935 20.2918 5.91663V20.0833C20.2918 20.5806 20.0943 21.0575 19.7427 21.4091C19.391 21.7607 18.9141 21.9583 18.4168 21.9583ZM7.5835 5.29163C7.41774 5.29163 7.25876 5.35747 7.14155 5.47468C7.02434 5.59189 6.9585 5.75087 6.9585 5.91663V20.0833C6.9585 20.2491 7.02434 20.408 7.14155 20.5252C7.25876 20.6424 7.41774 20.7083 7.5835 20.7083H18.4168C18.5826 20.7083 18.7416 20.6424 18.8588 20.5252C18.976 20.408 19.0418 20.2491 19.0418 20.0833V5.91663C19.0418 5.75087 18.976 5.59189 18.8588 5.47468C18.7416 5.35747 18.5826 5.29163 18.4168 5.29163H7.5835Z" fill="#FFAD00"/>
<path d="M17.1668 11.125H8.8335C8.66841 11.1228 8.51069 11.0563 8.39394 10.9395C8.2772 10.8228 8.21065 10.665 8.2085 10.5V7.16663C8.2085 7.00087 8.27434 6.84189 8.39155 6.72468C8.50876 6.60747 8.66774 6.54163 8.8335 6.54163H17.1668C17.3326 6.54163 17.4916 6.60747 17.6088 6.72468C17.726 6.84189 17.7918 7.00087 17.7918 7.16663V10.5C17.7897 10.665 17.7231 10.8228 17.6064 10.9395C17.4896 11.0563 17.3319 11.1228 17.1668 11.125ZM9.4585 9.87496H16.5418V7.79163H9.4585V9.87496Z" fill="#FFAD00"/>
<path d="M9.66683 14.2499C10.1271 14.2499 10.5002 13.8768 10.5002 13.4166C10.5002 12.9563 10.1271 12.5833 9.66683 12.5833C9.20659 12.5833 8.8335 12.9563 8.8335 13.4166C8.8335 13.8768 9.20659 14.2499 9.66683 14.2499Z" fill="#FFAD00"/>
<path d="M13.0003 14.2499C13.4606 14.2499 13.8337 13.8768 13.8337 13.4166C13.8337 12.9563 13.4606 12.5833 13.0003 12.5833C12.5401 12.5833 12.167 12.9563 12.167 13.4166C12.167 13.8768 12.5401 14.2499 13.0003 14.2499Z" fill="#FFAD00"/>
<path d="M16.3333 14.2499C16.7936 14.2499 17.1667 13.8768 17.1667 13.4166C17.1667 12.9563 16.7936 12.5833 16.3333 12.5833C15.8731 12.5833 15.5 12.9563 15.5 13.4166C15.5 13.8768 15.8731 14.2499 16.3333 14.2499Z" fill="#FFAD00"/>
<path d="M9.66683 16.7499C10.1271 16.7499 10.5002 16.3768 10.5002 15.9166C10.5002 15.4563 10.1271 15.0833 9.66683 15.0833C9.20659 15.0833 8.8335 15.4563 8.8335 15.9166C8.8335 16.3768 9.20659 16.7499 9.66683 16.7499Z" fill="#FFAD00"/>
<path d="M13.0003 16.7499C13.4606 16.7499 13.8337 16.3768 13.8337 15.9166C13.8337 15.4563 13.4606 15.0833 13.0003 15.0833C12.5401 15.0833 12.167 15.4563 12.167 15.9166C12.167 16.3768 12.5401 16.7499 13.0003 16.7499Z" fill="#FFAD00"/>
<path d="M9.66683 19.2499C10.1271 19.2499 10.5002 18.8768 10.5002 18.4166C10.5002 17.9563 10.1271 17.5833 9.66683 17.5833C9.20659 17.5833 8.8335 17.9563 8.8335 18.4166C8.8335 18.8768 9.20659 19.2499 9.66683 19.2499Z" fill="#FFAD00"/>
<path d="M13.0003 19.2499C13.4606 19.2499 13.8337 18.8768 13.8337 18.4166C13.8337 17.9563 13.4606 17.5833 13.0003 17.5833C12.5401 17.5833 12.167 17.9563 12.167 18.4166C12.167 18.8768 12.5401 19.2499 13.0003 19.2499Z" fill="#FFAD00"/>
<path d="M16.3335 19.2499C16.1684 19.2478 16.0107 19.1812 15.8939 19.0645C15.7772 18.9477 15.7107 18.79 15.7085 18.6249V15.7083C15.7085 15.5425 15.7743 15.3835 15.8916 15.2663C16.0088 15.1491 16.1677 15.0833 16.3335 15.0833C16.4993 15.0833 16.6582 15.1491 16.7754 15.2663C16.8926 15.3835 16.9585 15.5425 16.9585 15.7083V18.6249C16.9563 18.79 16.8898 18.9477 16.7731 19.0645C16.6563 19.1812 16.4986 19.2478 16.3335 19.2499Z" fill="#FFAD00"/>
</svg>
