<svg width="42" height="33" viewBox="0 0 42 33" fill="none" xmlns="http://www.w3.org/2000/svg">
<path d="M42 28.0679V29.8518C42 31.1635 41.0111 32.265 39.8342 32.265H2.16578C0.988574 32.265 0 31.1631 0 29.8518V28.0679H42Z" fill="#FFB81D" fill-opacity="0.58"/>
<path d="M39.4096 4.30235V22.507C39.4096 24.8677 37.6674 26.809 35.5487 26.809L29.0507 26.8086H6.68517C4.56648 26.8086 2.82422 24.8674 2.82422 22.5067V4.30198C2.82422 1.94128 4.56648 5.19597e-08 6.68517 5.19597e-08H35.5479C37.667 -0.000366708 39.4096 1.94127 39.4096 4.30235ZM36.0663 22.2977V4.30235C36.0663 3.77762 35.7366 3.41056 35.2659 3.41056L20.9049 3.4102H6.73176C6.26082 3.4102 5.93139 3.83006 5.93139 4.30198V22.2973C5.93139 22.8221 6.30821 23.1891 6.73176 23.1891H13.7474C14.689 20.7759 16.1017 18.992 17.6083 17.8905C18.1734 17.4182 18.7385 17.156 19.2564 16.8938C19.7744 16.6841 20.3394 16.5792 20.8575 16.5792C21.4696 16.5792 22.0817 16.7365 22.7409 17.0515C23.3059 17.2613 23.871 17.6287 24.3889 18.1006C25.8485 19.255 27.1669 20.9861 28.0617 23.242H35.2656C35.7362 23.242 36.0663 22.8225 36.0663 22.2977Z" fill="#FFB81D"/>
<path d="M20.9063 4.98389C23.4489 4.98389 25.5676 7.29221 25.5676 10.1777C25.5676 13.0631 23.4489 15.3714 20.9063 15.3714C18.3637 15.3714 16.292 13.0631 16.292 10.1777C16.2917 7.34496 18.3166 5.03664 20.9063 4.98389Z" fill="#FFB81D"/>
</svg>
