<svg width="24" height="24" viewBox="0 0 24 24" fill="none" xmlns="http://www.w3.org/2000/svg">
<path d="M11.625 10.125H10.875C10.6264 10.1253 10.3881 10.2241 10.2124 10.3999C10.0366 10.5756 9.93776 10.8139 9.9375 11.0625V13.5C9.9375 13.5995 9.97701 13.6948 10.0473 13.7652C10.1177 13.8355 10.213 13.875 10.3125 13.875C10.412 13.875 10.5073 13.8355 10.5777 13.7652C10.648 13.6948 10.6875 13.5995 10.6875 13.5V12.375H11.8125V13.5C11.8125 13.5995 11.852 13.6948 11.9223 13.7652C11.9927 13.8355 12.088 13.875 12.1875 13.875C12.287 13.875 12.3823 13.8355 12.4527 13.7652C12.523 13.6948 12.5625 13.5995 12.5625 13.5V11.0625C12.5622 10.8139 12.4634 10.5756 12.2876 10.3999C12.1119 10.2241 11.8736 10.1253 11.625 10.125ZM10.6875 11.625V11.0625C10.6876 11.0128 10.7073 10.9651 10.7425 10.93C10.7776 10.8948 10.8253 10.8751 10.875 10.875H11.625C11.6747 10.8751 11.7224 10.8948 11.7575 10.93C11.7927 10.9651 11.8124 11.0128 11.8125 11.0625V11.625H10.6875Z" fill="#2563EB"/>
<path d="M13.3125 10.5V13.5C13.3125 13.5995 13.352 13.6948 13.4223 13.7652C13.4927 13.8355 13.588 13.875 13.6875 13.875C13.787 13.875 13.8823 13.8355 13.9527 13.7652C14.023 13.6948 14.0625 13.5995 14.0625 13.5V10.5C14.0625 10.4005 14.023 10.3052 13.9527 10.2348C13.8823 10.1645 13.787 10.125 13.6875 10.125C13.588 10.125 13.4927 10.1645 13.4223 10.2348C13.352 10.3052 13.3125 10.4005 13.3125 10.5Z" fill="#2563EB"/>
<path d="M21.1011 6.75037C19.9743 4.79224 15.7211 5.6847 12.0063 7.4385L12.0056 7.439C11.1439 7.02915 10.2576 6.67332 9.35168 6.37358C9.9972 3.80766 11.0375 2.25 12.0088 2.25C12.2076 2.26472 12.4012 2.32018 12.5776 2.41291C12.754 2.50565 12.9094 2.63369 13.0342 2.78906C13.0681 2.82479 13.1086 2.85351 13.1536 2.87356C13.1985 2.89362 13.247 2.90462 13.2962 2.90595C13.3454 2.90728 13.3944 2.8989 13.4404 2.88129C13.4863 2.86369 13.5284 2.8372 13.5641 2.80334C13.5998 2.76949 13.6286 2.72893 13.6486 2.68397C13.6687 2.63902 13.6797 2.59056 13.681 2.54135C13.6823 2.49214 13.674 2.44316 13.6563 2.39719C13.6387 2.35122 13.6123 2.30917 13.5784 2.27344C13.3851 2.04222 13.1457 1.85397 12.8754 1.72078C12.6051 1.58758 12.3099 1.51238 12.0088 1.5C10.5814 1.5 9.3492 3.32968 8.63199 6.1542C5.82828 5.36403 3.62916 5.51564 2.91653 6.75C1.78291 8.7125 4.67178 11.934 8.05873 14.2776C8.13455 15.2359 8.27057 16.1886 8.46598 17.1299C5.9126 17.8667 4.06302 17.7354 3.56546 16.8739C3.47889 16.6953 3.43005 16.5007 3.42198 16.3024C3.41392 16.104 3.4468 15.9061 3.51858 15.7211C3.53253 15.6738 3.53704 15.6243 3.53185 15.5754C3.52666 15.5264 3.51188 15.4789 3.48835 15.4357C3.46481 15.3924 3.43299 15.3542 3.3947 15.3233C3.3564 15.2923 3.31238 15.2692 3.26516 15.2552C3.21793 15.2413 3.16842 15.2368 3.11945 15.242C3.07048 15.2472 3.02301 15.2619 2.97976 15.2855C2.8924 15.333 2.8275 15.4133 2.79933 15.5087C2.69625 15.791 2.65343 16.0918 2.67361 16.3917C2.6938 16.6916 2.77655 16.984 2.91653 17.25C3.33916 17.9821 4.28433 18.3336 5.569 18.3336C6.60718 18.3084 7.63727 18.1439 8.63164 17.8444C9.3488 20.6697 10.5812 22.5 12.0088 22.5C14.2761 22.5 15.6216 18.388 15.9589 14.2792C16.7448 13.738 17.4963 13.1483 18.2089 12.5137C20.1073 14.3554 20.9365 16.0343 20.4522 16.8739C20.3409 17.0384 20.1971 17.1782 20.0295 17.2846C19.8619 17.3911 19.6742 17.462 19.4781 17.4928C19.4302 17.5042 19.385 17.525 19.3451 17.5539C19.3052 17.5828 19.2714 17.6193 19.2457 17.6613C19.2199 17.7032 19.2026 17.7499 19.1949 17.7985C19.1871 17.8471 19.189 17.8968 19.2005 17.9447C19.2236 18.0414 19.2842 18.125 19.3689 18.1771C19.4109 18.2029 19.4575 18.2201 19.5062 18.2279C19.5548 18.2356 19.6045 18.2337 19.6524 18.2223C19.9476 18.1683 20.2286 18.0541 20.4779 17.8868C20.7271 17.7196 20.9393 17.5028 21.1011 17.25C21.8138 16.0148 20.8454 14.0334 18.7588 12C20.8454 9.96661 21.8138 7.98537 21.1011 6.75037ZM7.9662 12C7.9662 12.4458 7.97758 12.8832 7.99738 13.313C4.74877 10.9474 2.86116 8.34535 3.56619 7.125C4.06306 6.26422 5.91262 6.13282 8.46604 6.86982C8.12378 8.55819 7.95628 10.2773 7.9662 12ZM12.0088 21.75C11.0375 21.75 9.99722 20.1923 9.35168 17.6264C10.9796 17.0795 12.5472 16.3673 14.03 15.501C14.4171 15.2773 14.7918 15.0487 15.1542 14.8151C14.7291 18.814 13.4189 21.75 12.0088 21.75ZM13.655 14.8513C12.2369 15.6812 10.7402 16.3687 9.18683 16.9039C8.86438 15.2894 8.70669 13.6464 8.7162 12C8.70668 10.3535 8.86438 8.71038 9.18688 7.09579C10.7403 7.63103 12.237 8.31868 13.655 9.14868C15.0807 9.96182 16.4206 10.9171 17.654 12C16.4206 13.0829 15.0807 14.0382 13.655 14.8513ZM18.2089 11.4863C16.9216 10.3504 15.5213 9.34945 14.03 8.49902C13.6428 8.2758 13.2576 8.0657 12.8742 7.86873C16.5477 6.2428 19.7525 5.91038 20.4515 7.125C20.9362 7.96534 20.1072 9.64446 18.2089 11.4863Z" fill="#2563EB"/>
<path d="M13.332 4.45923C13.332 4.68173 13.398 4.89924 13.5216 5.08425C13.6452 5.26925 13.8209 5.41344 14.0265 5.49859C14.2321 5.58374 14.4583 5.60602 14.6765 5.56261C14.8947 5.5192 15.0952 5.41206 15.2525 5.25472C15.4099 5.09739 15.517 4.89693 15.5604 4.67871C15.6038 4.46048 15.5815 4.23428 15.4964 4.02871C15.4112 3.82314 15.2671 3.64744 15.082 3.52383C14.897 3.40021 14.6795 3.33423 14.457 3.33423C14.1588 3.33455 13.8728 3.45319 13.6619 3.66409C13.451 3.875 13.3324 4.16096 13.332 4.45923ZM14.457 4.08423C14.5312 4.08423 14.6037 4.10622 14.6654 4.14743C14.727 4.18863 14.7751 4.2472 14.8035 4.31572C14.8319 4.38424 14.8393 4.45964 14.8248 4.53239C14.8104 4.60513 14.7746 4.67195 14.7222 4.72439C14.6698 4.77684 14.6029 4.81255 14.5302 4.82702C14.4574 4.84149 14.382 4.83407 14.3135 4.80568C14.245 4.7773 14.1864 4.72924 14.1452 4.66757C14.104 4.6059 14.082 4.5334 14.082 4.45923C14.0821 4.35979 14.1216 4.26445 14.1919 4.19414C14.2623 4.12383 14.3576 4.0843 14.457 4.08423Z" fill="#2563EB"/>
<path d="M4.25586 14.7761C4.47836 14.7761 4.69587 14.7101 4.88088 14.5865C5.06588 14.4629 5.21008 14.2872 5.29522 14.0816C5.38037 13.8761 5.40265 13.6499 5.35924 13.4316C5.31583 13.2134 5.20869 13.013 5.05135 12.8556C4.89402 12.6983 4.69356 12.5911 4.47534 12.5477C4.25711 12.5043 4.03091 12.5266 3.82534 12.6118C3.61977 12.6969 3.44407 12.8411 3.32046 13.0261C3.19684 13.2111 3.13086 13.4286 3.13086 13.6511C3.13118 13.9494 3.24982 14.2354 3.46072 14.4463C3.67163 14.6572 3.95759 14.7758 4.25586 14.7761ZM4.25586 13.2761C4.33003 13.2761 4.40253 13.2981 4.4642 13.3393C4.52587 13.3805 4.57393 13.4391 4.60231 13.5076C4.6307 13.5761 4.63812 13.6515 4.62365 13.7243C4.60918 13.797 4.57347 13.8638 4.52102 13.9163C4.46858 13.9687 4.40176 14.0044 4.32902 14.0189C4.25628 14.0334 4.18088 14.026 4.11235 13.9976C4.04383 13.9692 3.98526 13.9211 3.94406 13.8595C3.90285 13.7978 3.88086 13.7253 3.88086 13.6511C3.88093 13.5517 3.92046 13.4563 3.99077 13.386C4.06108 13.3157 4.15642 13.2762 4.25586 13.2761Z" fill="#2563EB"/>
<path d="M17.3164 16.7644C17.0939 16.7644 16.8764 16.8304 16.6914 16.954C16.5064 17.0776 16.3622 17.2533 16.277 17.4589C16.1919 17.6645 16.1696 17.8907 16.213 18.1089C16.2564 18.3271 16.3636 18.5276 16.5209 18.6849C16.6782 18.8422 16.8787 18.9494 17.0969 18.9928C17.3152 19.0362 17.5414 19.0139 17.7469 18.9288C17.9525 18.8436 18.1282 18.6994 18.2518 18.5144C18.3754 18.3294 18.4414 18.1119 18.4414 17.8894C18.4411 17.5911 18.3225 17.3052 18.1115 17.0943C17.9006 16.8834 17.6147 16.7647 17.3164 16.7644ZM17.3164 18.2644C17.2422 18.2644 17.1697 18.2424 17.1081 18.2012C17.0464 18.16 16.9983 18.1014 16.97 18.0329C16.9416 17.9644 16.9341 17.889 16.9486 17.8162C16.9631 17.7435 16.9988 17.6767 17.0512 17.6242C17.1037 17.5718 17.1705 17.5361 17.2432 17.5216C17.316 17.5071 17.3914 17.5146 17.4599 17.543C17.5284 17.5713 17.587 17.6194 17.6282 17.6811C17.6694 17.7427 17.6914 17.8152 17.6914 17.8894C17.6913 17.9888 17.6518 18.0842 17.5815 18.1545C17.5112 18.2248 17.4158 18.2643 17.3164 18.2644Z" fill="#2563EB"/>
</svg>
