<svg width="24" height="24" viewBox="0 0 24 24" fill="none" xmlns="http://www.w3.org/2000/svg">
<g clip-path="url(#clip0_275_18272)">
<path d="M17.5233 14.4515C17.4556 14.2255 17.1769 14.1199 16.8907 14.1199C16.612 14.1199 16.3333 14.2255 16.2656 14.4515L14.8119 19.1888C14.8044 19.219 14.7969 19.249 14.7969 19.264C14.7969 19.5052 15.1508 19.6707 15.4145 19.6707C15.5802 19.6707 15.7082 19.6182 15.7459 19.475L16.0319 18.4732H17.7568L18.0432 19.475C18.0807 19.6182 18.2087 19.6707 18.3744 19.6707C18.6381 19.6707 18.992 19.4977 18.992 19.264C18.992 19.2415 18.9845 19.2188 18.977 19.1888L17.5233 14.4515ZM16.2354 17.7049L16.8905 15.3928L17.546 17.7049H16.2354Z" fill="#2563EB"/>
<path d="M21.4142 9.79065H14.2092V6.71338L16.5507 5.04089C16.7355 4.90887 16.8452 4.69592 16.8452 4.46887C16.8452 4.24164 16.7355 4.02869 16.5507 3.89667L14.181 2.20404C13.9958 0.958557 12.9194 0 11.6234 0H2.586C1.15997 0 0 1.15997 0 2.586V11.6235C0 13.0494 1.15997 14.2094 2.586 14.2094H9.79083V17.2866L7.44928 18.9591C7.26453 19.0911 7.15485 19.3043 7.15485 19.5313C7.15485 19.7584 7.26453 19.9715 7.44928 20.1033L9.81903 21.796C10.0042 23.0414 11.0806 24 12.3766 24H21.4142C22.84 24 24 22.8398 24 21.414V12.3766C24 10.9506 22.84 9.79065 21.4142 9.79065ZM2.586 12.8031C1.93542 12.8031 1.40625 12.2739 1.40625 11.6234V2.58582C1.40625 1.93542 1.93542 1.40625 2.586 1.40625H11.6234C12.2737 1.40625 12.8029 1.93542 12.8029 2.58582C12.8029 2.81305 12.9126 3.02618 13.0974 3.15802L14.9323 4.46869L13.0974 5.77936C12.9126 5.91138 12.8029 6.12451 12.8029 6.35156V9.79065H12.3766C10.9508 9.79065 9.79083 10.9506 9.79083 12.3765V12.8031H2.586ZM22.5938 21.414C22.5938 22.0646 22.0646 22.5938 21.4142 22.5938H12.3766C11.7263 22.5938 11.1971 22.0646 11.1971 21.414C11.1971 21.187 11.0874 20.9738 10.9026 20.842L9.06775 19.5313L10.9026 18.2206C11.0874 18.0886 11.1971 17.8755 11.1971 17.6484V12.3766C11.1971 11.7261 11.7263 11.1969 12.3766 11.1969H13.5042H13.506H13.5079H21.4142C22.0646 11.1969 22.5938 11.7261 22.5938 12.3766V21.414Z" fill="#2563EB"/>
<path d="M9.26404 6.48169C9.48285 6.48169 9.66046 6.30408 9.66046 6.08508C9.66046 5.86609 9.48285 5.68848 9.26404 5.68848H7.50018V4.72571C7.50018 4.50671 7.32257 4.3291 7.10358 4.3291C6.88477 4.3291 6.70715 4.50671 6.70715 4.72571V5.68848H4.9433C4.72449 5.68848 4.54688 5.86609 4.54688 6.08508C4.54688 6.30408 4.72449 6.48169 4.9433 6.48169H5.48987C5.57721 7.31903 5.93829 8.07581 6.48138 8.66193C6.03113 8.93146 5.50525 9.0871 4.9433 9.0871C4.72449 9.0871 4.54688 9.26453 4.54688 9.48352C4.54688 9.70251 4.72449 9.88013 4.9433 9.88013C5.74567 9.88013 6.48999 9.62927 7.10358 9.20264C7.71735 9.62927 8.46167 9.88013 9.26404 9.88013C9.48285 9.88013 9.66046 9.70251 9.66046 9.48352C9.66046 9.26453 9.48285 9.0871 9.26404 9.0871C8.70209 9.0871 8.17621 8.93182 7.72595 8.66193C8.26904 8.07581 8.63013 7.31903 8.71747 6.48169H9.26404ZM7.10358 8.16644C6.6698 7.71619 6.37518 7.13153 6.28894 6.48169H7.9184C7.83215 7.13153 7.53754 7.71619 7.10358 8.16644Z" fill="#2563EB"/>
</g>
<defs>
<clipPath id="clip0_275_18272">
<rect width="24" height="24" fill="white"/>
</clipPath>
</defs>
</svg>
