<svg width="24" height="22" viewBox="0 0 24 22" fill="none" xmlns="http://www.w3.org/2000/svg">
<path d="M23.9444 11.36C23.862 11.2058 23.7013 11.1096 23.5265 11.1096H23.0308V10.3289C23.0291 8.42898 21.8931 6.71357 20.1445 5.97054C21.6354 4.95065 22.0173 2.9153 20.9974 1.42437C19.9775 -0.0665089 17.9422 -0.44837 16.4513 0.571458C14.9604 1.59134 14.5785 3.6267 15.5984 5.11763C15.8273 5.45234 16.1166 5.74153 16.4513 5.97054C14.7027 6.71362 13.5667 8.42898 13.565 10.3289V11.1088H12.7212C12.4596 11.1088 12.2475 11.3209 12.2475 11.5825C12.2475 11.8442 12.4596 12.0563 12.7212 12.0563H22.6402L16.8689 20.6919H13.6475V19.5319C13.6447 17.0116 12.076 14.7585 9.71334 13.8814C11.6737 12.7275 12.3276 10.2029 11.1738 8.24252C10.02 6.28211 7.49537 5.62821 5.53496 6.78205C3.57454 7.93589 2.92065 10.4605 4.07449 12.4209C4.42937 13.0239 4.93199 13.5265 5.53496 13.8814C3.17187 14.7582 1.60268 17.0114 1.59966 19.5319V20.6919H0.473722C0.212094 20.6919 0 20.9039 0 21.1656C0 21.4272 0.212094 21.6393 0.473722 21.6393H17.1223C17.2805 21.6392 17.4283 21.5602 17.5162 21.4287L23.9203 11.8457C24.0171 11.7006 24.0264 11.514 23.9444 11.36ZM15.9747 3.28315C15.9689 2.00007 17.0043 0.955238 18.2874 0.949424C19.5705 0.94361 20.6153 1.97902 20.6211 3.26205C20.6269 4.54507 19.5915 5.58996 18.3085 5.59577C18.305 5.59577 18.3014 5.59577 18.298 5.59577C17.0184 5.59734 15.9791 4.56275 15.9747 3.28315ZM22.0833 11.1088H14.5124V10.3289C14.4947 8.23828 16.1752 6.52909 18.2658 6.51136C20.3564 6.49362 22.0656 8.17409 22.0834 10.2647C22.0835 10.2861 22.0835 10.3075 22.0834 10.3289L22.0833 11.1088ZM4.45286 10.3508C4.44466 8.59938 5.8578 7.17287 7.60926 7.16461C9.36072 7.15636 10.7872 8.56956 10.7955 10.321C10.8037 12.0725 9.39055 13.499 7.63909 13.5072C7.63368 13.5072 7.62827 13.5073 7.62287 13.5073C5.87682 13.5088 4.45885 12.0969 4.45286 10.3508ZM12.7011 20.6919H2.5471V19.5319C2.52669 16.7279 4.78315 14.4383 7.58711 14.4178C10.3911 14.3974 12.6807 16.6539 12.7011 19.4578C12.7013 19.4825 12.7013 19.5072 12.7011 19.5319V20.6919H12.7011Z" fill="white"/>
</svg>
