<svg width="24" height="24" viewBox="0 0 24 24" fill="none" xmlns="http://www.w3.org/2000/svg">
<g clip-path="url(#clip0_275_18297)">
<path d="M18.1264 8.95322C17.9366 8.90831 17.737 8.96489 17.5991 9.10284L14.6435 12.0585L12.5125 11.4875L11.9415 9.35648L14.8971 6.40088C15.0351 6.26292 15.0916 6.06333 15.0467 5.87353C15.0017 5.68373 14.8617 5.53069 14.6765 5.46923C13.6212 5.11912 12.4895 5.06428 11.4037 5.3107C10.2868 5.56411 9.26658 6.12802 8.45325 6.94134C7.57144 7.82316 6.98873 8.93578 6.76814 10.1589C6.57581 11.2251 6.66806 12.3093 7.03402 13.3182L5.55947 14.7928C5.30147 15.0508 5.15939 15.3944 5.15939 15.7602C5.15939 16.1261 5.30147 16.4697 5.55947 16.7277L7.27242 18.4406C7.53914 18.7073 7.88948 18.8407 8.23983 18.8407C8.59022 18.8407 8.94056 18.7073 9.20728 18.4406L10.6818 16.966C11.6907 17.3319 12.7749 17.4241 13.8411 17.2319C15.0643 17.0112 16.1769 16.4285 17.0587 15.5467C17.8721 14.7334 18.4359 13.7131 18.6893 12.5963C18.9358 11.5105 18.8809 10.3788 18.5308 9.32348C18.4693 9.13833 18.3163 8.99817 18.1264 8.95322ZM16.2631 14.7512C14.8101 16.2043 12.6542 16.6125 10.7708 15.7908C10.5587 15.6983 10.3116 15.745 10.1481 15.9087L8.41172 17.6451C8.31698 17.7398 8.16263 17.7398 8.06784 17.6451L6.35494 15.9322C6.29348 15.8707 6.28434 15.798 6.28434 15.7602C6.28434 15.7224 6.29348 15.6497 6.35494 15.5883L8.09128 13.8519C8.25483 13.6883 8.30161 13.4413 8.20913 13.2292C7.38755 11.3459 7.79564 9.19003 9.24877 7.73691C10.1979 6.78769 11.4545 6.28102 12.7463 6.28102C12.9585 6.28102 13.1718 6.2947 13.3847 6.32236L10.9164 8.7907C10.7743 8.93283 10.7188 9.13992 10.7708 9.33403L11.51 12.0924C11.562 12.2865 11.7136 12.4381 11.9077 12.4901L14.6661 13.2292C14.8602 13.2812 15.0673 13.2257 15.2094 13.0837L17.6777 10.6153C17.8737 12.1241 17.3682 13.6461 16.2631 14.7512ZM12 0C5.38317 0 0 5.38317 0 12C0 18.6168 5.38317 24 12 24C18.6168 24 24 18.6168 24 12C24 5.38317 18.6168 0 12 0ZM12 22.875C6.00352 22.875 1.125 17.9965 1.125 12C1.125 6.00352 6.00352 1.125 12 1.125C17.9965 1.125 22.875 6.00352 22.875 12C22.875 17.9965 17.9965 22.875 12 22.875Z" fill="#2563EB"/>
</g>
<defs>
<clipPath id="clip0_275_18297">
<rect width="24" height="24" fill="white"/>
</clipPath>
</defs>
</svg>
