<svg width="24" height="24" viewBox="0 0 24 24" fill="none" xmlns="http://www.w3.org/2000/svg">
<g clip-path="url(#clip0_275_18322)">
<path d="M23.9444 13.0514C23.862 12.8972 23.7013 12.801 23.5265 12.801H23.0308V12.0203C23.0291 10.1204 21.8931 8.40497 20.1445 7.66195C21.6354 6.64206 22.0173 4.60671 20.9974 3.11577C19.9775 1.6249 17.9422 1.24304 16.4513 2.26286C14.9604 3.28275 14.5785 5.3181 15.5984 6.80904C15.8273 7.14375 16.1166 7.43293 16.4513 7.66195C14.7027 8.40503 13.5667 10.1204 13.565 12.0203V12.8002H12.7212C12.4596 12.8002 12.2475 13.0123 12.2475 13.2739C12.2475 13.5356 12.4596 13.7477 12.7212 13.7477H22.6402L16.8689 22.3833H13.6475V21.2233C13.6447 18.703 12.076 16.4499 9.71334 15.5728C11.6737 14.4189 12.3276 11.8943 11.1738 9.93393C10.02 7.97352 7.49537 7.31962 5.53496 8.47346C3.57454 9.6273 2.92065 12.1519 4.07449 14.1123C4.42937 14.7153 4.93199 15.2179 5.53496 15.5728C3.17187 16.4496 1.60268 18.7028 1.59966 21.2233V22.3833H0.473722C0.212094 22.3833 0 22.5954 0 22.857C0 23.1186 0.212094 23.3307 0.473722 23.3307H17.1223C17.2805 23.3306 17.4283 23.2516 17.5162 23.1201L23.9203 13.5371C24.0171 13.392 24.0264 13.2054 23.9444 13.0514ZM15.9747 4.97456C15.9689 3.69147 17.0043 2.64664 18.2874 2.64083C19.5705 2.63502 20.6153 3.67043 20.6211 4.95345C20.6269 6.23648 19.5915 7.28136 18.3085 7.28718C18.305 7.28718 18.3014 7.28718 18.298 7.28718C17.0184 7.28875 15.9791 6.25415 15.9747 4.97456ZM22.0833 12.8002H14.5124V12.0203C14.4947 9.92968 16.1752 8.22049 18.2658 8.20276C20.3564 8.18503 22.0656 9.8655 22.0834 11.9561C22.0835 11.9775 22.0835 11.9989 22.0834 12.0203L22.0833 12.8002ZM4.45286 12.0422C4.44466 10.2908 5.8578 8.86427 7.60926 8.85602C9.36072 8.84776 10.7872 10.261 10.7955 12.0124C10.8037 13.7639 9.39055 15.1904 7.63909 15.1987C7.63368 15.1987 7.62827 15.1987 7.62287 15.1987C5.87682 15.2002 4.45885 13.7883 4.45286 12.0422ZM12.7011 22.3833H2.5471V21.2233C2.52669 18.4193 4.78315 16.1297 7.58711 16.1092C10.3911 16.0888 12.6807 18.3453 12.7011 21.1492C12.7013 21.1739 12.7013 21.1986 12.7011 21.2233V22.3833H12.7011Z" fill="#2563EB"/>
<path d="M10.3167 5.10037L12.1439 6.04218C12.3769 6.16166 12.6625 6.06962 12.782 5.83671C12.8163 5.76997 12.8342 5.69602 12.8342 5.62096V2.56438C12.8342 1.51781 11.9859 0.669434 10.9393 0.669434H6.81096C5.76439 0.669434 4.91602 1.51781 4.91602 2.56438V3.20624C4.91677 4.25247 5.76474 5.10043 6.81096 5.10119L10.3167 5.10037ZM5.86352 3.20624V2.56438C5.86352 2.04112 6.2877 1.61688 6.81102 1.61688H10.9402C11.4634 1.61688 11.8877 2.04106 11.8877 2.56438V4.84375L10.6497 4.20543C10.5827 4.17107 10.5085 4.15305 10.4331 4.15293H6.81102C6.28805 4.15293 5.86398 3.72921 5.86352 3.20624Z" fill="#2563EB"/>
</g>
<defs>
<clipPath id="clip0_275_18322">
<rect width="24" height="24" fill="white"/>
</clipPath>
</defs>
</svg>
