<svg width="17" height="17" viewBox="0 0 17 17" fill="none" xmlns="http://www.w3.org/2000/svg">
<path d="M8.5 0.000145635C6.24566 0.000145635 4.0837 0.895638 2.48956 2.48969C0.8955 4.08374 0 6.24586 0 8.50007C0 10.7543 0.8955 12.9163 2.48956 14.5105C4.08363 16.1045 6.24577 17 8.5 17C10.7542 17 12.9163 16.1045 14.5104 14.5105C16.1045 12.9164 17 10.7543 17 8.50007C17 7.00806 16.6073 5.54224 15.8613 4.24993C15.1152 2.95783 14.0421 1.88475 12.75 1.13869C11.4578 0.392739 9.99195 0 8.49985 0L8.5 0.000145635ZM13.3247 7.00176L8.2246 11.6767C8.06308 11.8248 7.85061 11.9048 7.63164 11.9001C7.41264 11.8952 7.20389 11.8062 7.04906 11.6512L4.49903 9.10118C4.33496 8.9428 4.24146 8.72523 4.23947 8.49726C4.23748 8.26915 4.32727 8.05002 4.48836 7.88879C4.64958 7.72756 4.86886 7.63792 5.09683 7.63977C5.3248 7.64176 5.5425 7.73525 5.7009 7.89932L7.67546 9.87387L12.1755 5.74868C12.3994 5.54348 12.7156 5.47318 13.0053 5.5644C13.295 5.65547 13.514 5.89425 13.5799 6.19079C13.6458 6.4872 13.5484 6.79627 13.3247 7.00162L13.3247 7.00176Z" fill="#FFB81D"/>
</svg>
