<svg width="1150" height="219" viewBox="0 0 1150 219" fill="none" xmlns="http://www.w3.org/2000/svg">
<path d="M1 111.795C3 141.295 24.9 201.195 96.5 204.795C126.5 204.129 190.9 179.1 194.5 111.5C194.5 20.5003 288.5 13.5004 295 14.5004C301.5 15.5004 373.5 17.7054 388 115C390 142.334 417.5 204.795 484 204.795C515.5 205.629 572.5 187.712 578 109.795C580 81.462 603.7 19.3003 672.5 18.5003C700.167 15.8337 745.5 29 767.5 99.5003C774.971 123.443 781.5 192 863.5 203.5C896.5 199.167 957.5 177.5 957.5 108.5C962.5 77.205 991.9 13.2002 1059.5 18.0002C1144 24.0002 1146 96.5 1149 117.5" stroke="#808080" stroke-opacity="0.24" stroke-width="0.5" stroke-dasharray="4 4"/>
<path d="M99.7282 175.456C136.029 175.456 165.456 146.029 165.456 109.728C165.456 73.4275 136.029 44 99.7282 44C63.4275 44 34 73.4275 34 109.728C34 146.029 63.4275 175.456 99.7282 175.456Z" fill="white"/>
<path d="M164.456 109.728C164.456 145.477 135.477 174.456 99.7282 174.456C63.9798 174.456 35 145.477 35 109.728C35 73.9798 63.9798 45 99.7282 45C135.477 45 164.456 73.9798 164.456 109.728Z" stroke="black" stroke-opacity="0.08" stroke-width="2"/>
<path d="M98.1683 123.25C99.7817 123.25 101.343 122.77 102.685 121.86C105.306 120.081 106.54 117.021 106.134 114.077L99.5177 119.453C99.4821 119.482 99.4433 119.505 99.4058 119.529C99.3916 119.538 99.3793 119.549 99.3651 119.556C99.2835 119.605 99.1977 119.64 99.1096 119.665C99.0902 119.672 99.0712 119.675 99.0518 119.68C98.9608 119.702 98.8683 119.717 98.7759 119.718C98.774 119.718 98.7716 119.719 98.7697 119.719C98.7479 119.719 98.7257 119.712 98.7034 119.71C98.637 119.707 98.5712 119.702 98.5067 119.687C98.4773 119.68 98.4493 119.667 98.4204 119.658C98.3612 119.64 98.3029 119.621 98.247 119.593C98.2403 119.589 98.2332 119.589 98.227 119.586L94.6177 117.723L91.3203 119.434C91.3777 119.526 91.4279 119.621 91.4895 119.713C92.9915 121.929 95.4884 123.25 98.1683 123.25Z" fill="#05164D"/>
<path d="M94.0515 115.349L94.0734 115.338C94.0952 115.327 94.1179 115.321 94.1402 115.312C94.1857 115.291 94.2307 115.27 94.2786 115.256C94.3141 115.245 94.3497 115.24 94.3857 115.233C94.425 115.224 94.4639 115.215 94.5037 115.212C94.5416 115.208 94.5791 115.209 94.617 115.209C94.6559 115.209 94.6947 115.208 94.7336 115.212C94.7725 115.215 94.8094 115.223 94.8473 115.232C94.8848 115.239 94.9218 115.244 94.9587 115.255C95.0033 115.269 95.0455 115.288 95.0881 115.307C95.1128 115.317 95.1384 115.323 95.163 115.337L98.6282 117.125L105.388 111.633C105.225 111.304 105.047 110.978 104.835 110.665C103.332 108.45 100.836 107.127 98.1552 107.127C96.5423 107.127 94.9805 107.609 93.6392 108.518C90.7328 110.49 89.5303 114.037 90.3806 117.255L94.0492 115.35C94.0501 115.349 94.0511 115.349 94.0515 115.349Z" fill="#05164D"/>
<path d="M123.428 98.3312V94.3499C123.428 92.8829 122.234 91.6895 120.768 91.6895H78.6917C77.2247 91.6895 76.0312 92.8829 76.0312 94.3499V98.3312H123.428ZM81.5222 95.0115H84.8419C85.4965 95.0115 86.0269 95.5419 86.0269 96.1965C86.0269 96.851 85.4965 97.3814 84.8419 97.3814H81.5222C80.8677 97.3814 80.3373 96.851 80.3373 96.1965C80.3373 95.5419 80.8681 95.0115 81.5222 95.0115Z" fill="#FDAD00"/>
<path d="M76.0312 100.701V125.106C76.0312 126.572 77.2247 127.766 78.6917 127.766H101.941L100.33 125.39C99.6247 125.539 98.9023 125.62 98.1705 125.62C94.7039 125.62 91.4738 123.909 89.5305 121.044C89.4162 120.876 89.32 120.7 89.2172 120.528L84.5789 122.934C84.4045 123.025 84.2177 123.069 84.0338 123.069C83.6058 123.069 83.192 122.835 82.9811 122.429C82.6797 121.847 82.9062 121.133 83.4868 120.831L88.2337 118.368C86.862 114.075 88.3939 109.211 92.3075 106.556C94.0427 105.379 96.0642 104.757 98.1535 104.757C101.62 104.757 104.851 106.468 106.794 109.334C106.965 109.586 107.117 109.846 107.263 110.107L110.888 107.162C111.395 106.749 112.142 106.827 112.555 107.335C112.967 107.843 112.89 108.589 112.382 109.002L108.203 112.398C109.013 115.32 108.505 118.462 106.836 120.973L111.443 127.767H120.768C122.235 127.767 123.428 126.572 123.428 125.106V100.701L76.0312 100.701Z" fill="#FDAD00"/>
<path d="M108.581 127.766L105.238 122.836C104.858 123.187 104.458 123.522 104.018 123.821C103.582 124.117 103.128 124.377 102.66 124.602L104.806 127.766H108.581Z" fill="#05164D"/>
<path d="M290.728 174.456C327.029 174.456 356.456 145.029 356.456 108.728C356.456 72.4275 327.029 43 290.728 43C254.428 43 225 72.4275 225 108.728C225 145.029 254.428 174.456 290.728 174.456Z" fill="#F9F9FA"/>
<path d="M355.456 108.728C355.456 144.477 326.477 173.456 290.728 173.456C254.98 173.456 226 144.477 226 108.728C226 72.9798 254.98 44 290.728 44C326.477 44 355.456 72.9798 355.456 108.728Z" stroke="black" stroke-opacity="0.02" stroke-width="2"/>
<path d="M276.006 102.998V104.633L273.185 111.033C272.891 111.704 272.95 112.47 273.347 113.088C273.752 113.7 274.43 114.068 275.166 114.068H276.706V117.979C276.706 119.629 278.046 120.962 279.689 120.962H292.239C292.637 120.962 292.961 120.645 292.976 120.255L292.998 119.724C292.202 119.393 291.643 118.62 291.643 117.706C291.643 117.154 291.856 116.653 292.188 116.263C291.856 115.88 291.643 115.379 291.643 114.826C291.643 114.274 291.856 113.773 292.188 113.39C291.856 113 291.643 112.499 291.643 111.947C291.643 111.357 291.878 110.827 292.254 110.429L292.173 110.149C292.011 109.538 291.62 108.956 291.053 108.455C288.726 106.401 287.385 103.447 287.385 100.346C287.385 96.9951 288.947 93.8354 291.584 91.8026C290.376 91.3975 289.102 91.1839 287.82 91.1839C281.302 91.1839 276.006 96.4869 276.006 102.998Z" fill="#05164D"/>
<path d="M304.297 107.344C306.308 105.568 307.464 103.02 307.464 100.347C307.464 95.2122 303.295 91.0221 298.162 91C296.217 91.014 294.361 91.6113 292.792 92.7301C290.332 94.4757 288.859 97.3194 288.859 100.347C288.859 103.02 290.016 105.576 292.034 107.351C292.815 108.042 293.352 108.867 293.595 109.759C293.684 109.745 293.765 109.737 293.853 109.737H297.425V103.123L295.37 101.068C295.083 100.781 295.083 100.317 295.37 100.029C295.657 99.7425 296.121 99.7425 296.409 100.029L298.191 101.804L299.966 100.029C300.253 99.7425 300.725 99.7425 301.012 100.029C301.299 100.317 301.299 100.781 301.012 101.068L298.898 103.182V109.737H302.529C302.596 109.737 302.662 109.737 302.728 109.752C302.971 108.861 303.509 108.035 304.297 107.344Z" fill="#FFAD00"/>
<path d="M303.267 117.707C303.267 117.302 302.935 116.97 302.53 116.97H293.854C293.449 116.97 293.117 117.302 293.117 117.707C293.117 118.112 293.449 118.443 293.854 118.443H302.53C302.935 118.443 303.267 118.112 303.267 117.707Z" fill="#FFAD00"/>
<path d="M302.53 111.21H293.854C293.449 111.21 293.117 111.541 293.117 111.947C293.117 112.352 293.449 112.684 293.854 112.684H302.53C302.935 112.684 303.267 112.352 303.267 111.947C303.267 111.541 302.935 111.21 302.53 111.21Z" fill="#FFAD00"/>
<path d="M298.191 127.274C298.596 127.274 298.927 126.95 298.927 126.537V121.323H300.68C301.085 121.323 301.417 120.991 301.417 120.586C301.417 120.181 301.085 119.85 300.68 119.85H295.701C295.296 119.85 294.965 120.181 294.965 120.586C294.965 120.991 295.296 121.323 295.701 121.323H297.454V126.537C297.454 126.95 297.786 127.274 298.191 127.274Z" fill="#FFAD00"/>
<path d="M302.53 114.089H293.854C293.449 114.089 293.117 114.421 293.117 114.826C293.117 115.232 293.449 115.562 293.854 115.562H302.53C302.935 115.562 303.267 115.232 303.267 114.826C303.267 114.421 302.935 114.089 302.53 114.089Z" fill="#FFAD00"/>
<path d="M482.728 175.456C519.029 175.456 548.456 146.029 548.456 109.728C548.456 73.4275 519.029 44 482.728 44C446.427 44 417 73.4275 417 109.728C417 146.029 446.427 175.456 482.728 175.456Z" fill="white"/>
<path d="M547.456 109.728C547.456 145.477 518.477 174.456 482.728 174.456C446.98 174.456 418 145.477 418 109.728C418 73.9798 446.98 45 482.728 45C518.477 45 547.456 73.9798 547.456 109.728Z" stroke="black" stroke-opacity="0.08" stroke-width="2"/>
<path d="M505.681 121.68H487.873C487.776 121.68 487.679 121.776 487.679 121.873V122.599C487.679 123.035 487.341 123.422 486.857 123.422H479.163C478.727 123.422 478.34 123.035 478.34 122.599V121.922C478.34 121.825 478.243 121.728 478.146 121.728H460.29C460.145 121.728 460 121.873 460 122.018V124.97C460 126.374 461.161 127.535 462.565 127.535H503.406C504.81 127.535 505.971 126.374 505.971 124.97V122.018C505.971 121.825 505.826 121.68 505.681 121.68Z" fill="#FDAD00"/>
<path d="M465.761 119.55H500.167C501.425 119.55 502.393 118.534 502.393 117.324V95.9358C502.393 93.226 500.167 91 497.457 91H468.471C465.761 91 463.535 93.226 463.535 95.9358V117.276C463.535 118.534 464.551 119.55 465.761 119.55ZM468.035 95.9358C468.035 95.6939 468.229 95.5003 468.471 95.5003H497.505C497.747 95.5003 497.941 95.6939 497.941 95.9358V115.05H468.035V95.9358Z" fill="#FDAD00"/>
<path d="M495.901 97.5811H470.012V101.549H495.901V97.5811Z" fill="#05164D"/>
<path d="M477.27 103.679H470.012V112.97H477.27V103.679Z" fill="#05164D"/>
<path d="M486.61 103.679H479.352V112.97H486.61V103.679Z" fill="#05164D"/>
<path d="M495.903 103.679H488.645V112.97H495.903V103.679Z" fill="#05164D"/>
<path d="M865.728 175.456C902.029 175.456 931.456 146.029 931.456 109.728C931.456 73.4275 902.029 44 865.728 44C829.428 44 800 73.4275 800 109.728C800 146.029 829.428 175.456 865.728 175.456Z" fill="white"/>
<path d="M930.456 109.728C930.456 145.477 901.477 174.456 865.728 174.456C829.98 174.456 801 145.477 801 109.728C801 73.9798 829.98 45 865.728 45C901.477 45 930.456 73.9798 930.456 109.728Z" stroke="black" stroke-opacity="0.08" stroke-width="2"/>
<path d="M887.565 94.1833C887.565 93.339 887.23 92.5293 886.633 91.9324C886.036 91.3354 885.226 91 884.382 91H861.16L864.343 94.1833H887.565Z" fill="#05164D"/>
<path d="M878.015 122.833H871.648V129.199H878.015V122.833Z" fill="#05164D"/>
<path d="M862.561 96.905L856.672 91H846.183C845.339 91 844.529 91.3354 843.932 91.9324C843.335 92.5293 843 93.339 843 94.1833V126.016C843 126.86 843.335 127.67 843.932 128.267C844.529 128.864 845.339 129.199 846.183 129.199H868.466V121.241C868.466 120.819 868.634 120.414 868.932 120.116C869.231 119.817 869.636 119.649 870.058 119.649H879.608C880.03 119.649 880.435 119.817 880.733 120.116C881.032 120.414 881.199 120.819 881.199 121.241V129.199H884.383C885.227 129.199 886.036 128.864 886.633 128.267C887.23 127.67 887.566 126.86 887.566 126.016V97.3665H863.691C863.482 97.3678 863.274 97.3276 863.08 97.2484C862.886 97.1692 862.71 97.0525 862.561 96.905ZM854.141 94.1833C854.456 94.1833 854.764 94.2766 855.026 94.4515C855.287 94.6264 855.491 94.875 855.612 95.1658C855.732 95.4566 855.764 95.7767 855.702 96.0854C855.641 96.3942 855.489 96.6778 855.267 96.9004C855.044 97.123 854.761 97.2745 854.452 97.336C854.143 97.3974 853.823 97.3659 853.532 97.2454C853.242 97.1249 852.993 96.9209 852.818 96.6592C852.643 96.3974 852.55 96.0897 852.55 95.7749C852.55 95.3528 852.717 94.9479 853.016 94.6494C853.314 94.351 853.719 94.1833 854.141 94.1833ZM847.775 97.3665C847.353 97.3665 846.948 97.1989 846.649 96.9004C846.351 96.6019 846.183 96.197 846.183 95.7749C846.183 95.3528 846.351 94.9479 846.649 94.6494C846.948 94.351 847.353 94.1833 847.775 94.1833C848.197 94.1833 848.602 94.351 848.9 94.6494C849.199 94.9479 849.367 95.3528 849.367 95.7749C849.367 96.197 849.199 96.6019 848.9 96.9004C848.602 97.1989 848.197 97.3665 847.775 97.3665ZM863.691 122.833H850.958C850.536 122.833 850.131 122.665 849.833 122.367C849.534 122.068 849.367 121.663 849.367 121.241C849.367 120.819 849.534 120.414 849.833 120.116C850.131 119.817 850.536 119.649 850.958 119.649H863.691C864.113 119.649 864.518 119.817 864.817 120.116C865.115 120.414 865.283 120.819 865.283 121.241C865.283 121.663 865.115 122.068 864.817 122.367C864.518 122.665 864.113 122.833 863.691 122.833ZM881.199 105.325V114.875C881.199 115.297 881.032 115.701 880.733 116C880.435 116.298 880.03 116.466 879.608 116.466H850.958C850.536 116.466 850.131 116.298 849.833 116C849.534 115.701 849.367 115.297 849.367 114.875V105.325C849.367 104.903 849.534 104.498 849.833 104.199C850.131 103.901 850.536 103.733 850.958 103.733H879.608C880.03 103.733 880.435 103.901 880.733 104.199C881.032 104.498 881.199 104.903 881.199 105.325Z" fill="#FDAD00"/>
<path d="M878.017 106.916H852.551V113.283H878.017V106.916Z" fill="#05164D"/>
<path d="M674.728 174.456C711.029 174.456 740.456 145.029 740.456 108.728C740.456 72.4275 711.029 43 674.728 43C638.428 43 609 72.4275 609 108.728C609 145.029 638.428 174.456 674.728 174.456Z" fill="#F9F9FA"/>
<path d="M739.456 108.728C739.456 144.477 710.477 173.456 674.728 173.456C638.98 173.456 610 144.477 610 108.728C610 72.9798 638.98 44 674.728 44C710.477 44 739.456 72.9798 739.456 108.728Z" stroke="black" stroke-opacity="0.02" stroke-width="2"/>
<path fill-rule="evenodd" clip-rule="evenodd" d="M669.669 119.72L668.635 122.254H665.775C664.587 122.254 663.622 123.2 663.622 124.366C663.622 125.531 664.587 126.477 665.775 126.477H682.993C684.181 126.477 685.145 125.531 685.145 124.366C685.145 123.2 684.181 122.254 682.993 122.254H680.132L679.099 119.72H694.185C694.87 119.72 695.527 119.453 696.011 118.977C696.496 118.503 696.768 117.858 696.768 117.186V93.5341C696.768 92.8617 696.496 92.2172 696.011 91.7425C695.527 91.2669 694.87 91 694.185 91H654.583C653.897 91 653.241 91.2669 652.757 91.7425C652.272 92.2172 652 92.8617 652 93.5341V117.186C652 117.858 652.272 118.503 652.757 118.977C653.241 119.453 653.897 119.72 654.583 119.72H669.669ZM677.245 119.72H671.523L670.49 122.254H678.278L677.245 119.72ZM695.046 113.807H653.722V93.5341C653.722 93.3103 653.812 93.0949 653.974 92.9369C654.135 92.7781 654.355 92.6894 654.583 92.6894H694.185C694.413 92.6894 694.633 92.7781 694.794 92.9369C694.955 93.0949 695.046 93.3103 695.046 93.5341V113.807Z" fill="#FFAD00"/>
<path fill-rule="evenodd" clip-rule="evenodd" d="M670.081 107.049H673.525V108.739C673.525 109.205 673.91 109.584 674.386 109.584H678.734C678.818 109.987 679.02 110.36 679.32 110.655C679.724 111.051 680.272 111.273 680.842 111.273C682.468 111.273 685.243 111.273 686.869 111.273C687.44 111.273 687.987 111.051 688.391 110.655C688.795 110.259 689.021 109.721 689.021 109.161V105.782C689.021 105.222 688.795 104.685 688.391 104.289C687.987 103.893 687.44 103.671 686.869 103.671C685.243 103.671 682.468 103.671 680.842 103.671C680.272 103.671 679.724 103.893 679.32 104.289C678.917 104.685 678.69 105.222 678.69 105.782V107.894H675.246V106.205C675.246 105.739 674.861 105.36 674.386 105.36H670.081V99.4472H678.69V99.8696C678.69 100.43 678.917 100.967 679.32 101.363C679.724 101.759 680.272 101.981 680.842 101.981C682.468 101.981 685.243 101.981 686.869 101.981C687.44 101.981 687.987 101.759 688.391 101.363C688.795 100.967 689.021 100.43 689.021 99.8696V97.3355C689.021 96.7754 688.795 96.2382 688.391 95.842C687.987 95.4459 687.44 95.2237 686.869 95.2237C685.243 95.2237 682.468 95.2237 680.842 95.2237C680.272 95.2237 679.724 95.4459 679.32 95.842C678.917 96.2382 678.69 96.7754 678.69 97.3355V97.7578H670.081V97.3355C670.081 96.7754 669.855 96.2382 669.451 95.842C669.047 95.4459 668.499 95.2237 667.929 95.2237C666.303 95.2237 663.528 95.2237 661.902 95.2237C661.332 95.2237 660.784 95.4459 660.38 95.842C659.976 96.2382 659.75 96.7754 659.75 97.3355C659.75 100.058 659.75 106.439 659.75 109.161C659.75 109.721 659.976 110.259 660.38 110.655C660.784 111.051 661.332 111.273 661.902 111.273C663.528 111.273 666.303 111.273 667.929 111.273C668.499 111.273 669.047 111.051 669.451 110.655C669.855 110.259 670.081 109.721 670.081 109.161V107.049ZM687.299 97.3355V99.8696C687.299 99.9819 687.254 100.089 687.174 100.169C687.093 100.247 686.983 100.292 686.869 100.292H680.842C680.728 100.292 680.619 100.247 680.538 100.169C680.458 100.089 680.412 99.9819 680.412 99.8696V97.3355C680.412 97.2231 680.458 97.1158 680.538 97.0364C680.619 96.9579 680.728 96.9131 680.842 96.9131H686.869C686.983 96.9131 687.093 96.9579 687.174 97.0364C687.254 97.1158 687.299 97.2231 687.299 97.3355Z" fill="#05164D"/>
<path d="M1054.73 174.456C1091.03 174.456 1120.46 145.029 1120.46 108.728C1120.46 72.4275 1091.03 43 1054.73 43C1018.43 43 989 72.4275 989 108.728C989 145.029 1018.43 174.456 1054.73 174.456Z" fill="#F9F9FA"/>
<path d="M1119.46 108.728C1119.46 144.477 1090.48 173.456 1054.73 173.456C1018.98 173.456 990 144.477 990 108.728C990 72.9798 1018.98 44 1054.73 44C1090.48 44 1119.46 72.9798 1119.46 108.728Z" stroke="black" stroke-opacity="0.02" stroke-width="2"/>
<path d="M1045.78 104.45C1045.78 104.271 1045.85 104.101 1045.98 103.975C1046.1 103.849 1046.27 103.778 1046.45 103.778H1070.16C1070.53 103.778 1070.83 104.079 1070.83 104.45V122.159H1072.82V103.358C1072.82 102.531 1072.13 101.859 1071.28 101.859H1052.04H1048.1H1045.39C1045.28 101.859 1045.18 101.87 1045.08 101.889C1044.49 102.007 1044.02 102.458 1043.89 103.03C1043.89 103.031 1043.89 103.033 1043.89 103.034C1043.87 103.114 1043.86 103.196 1043.86 103.28C1043.85 103.306 1043.85 103.332 1043.85 103.358V107.716V122.159H1045.78V104.45Z" fill="#FFAD00"/>
<path d="M1047.65 99.2373C1047.5 98.4515 1047.05 97.7731 1046.38 97.327C1045.88 96.988 1045.29 96.8125 1044.69 96.8125C1044.48 96.8125 1044.27 96.8338 1044.06 96.8776C1042.39 97.2201 1041.3 98.841 1041.61 100.49C1041.75 101.217 1042.15 101.852 1042.73 102.29C1043.1 101.391 1043.92 100.722 1044.91 100.557C1044.94 100.553 1044.97 100.549 1044.99 100.545C1045.12 100.527 1045.26 100.515 1045.39 100.515H1047.62C1047.72 100.095 1047.73 99.6602 1047.65 99.2373Z" fill="#05164D"/>
<path d="M1040.3 100.747C1039.84 98.3771 1041.41 96.0509 1043.79 95.5614C1044.96 95.3221 1046.14 95.552 1047.12 96.2104C1048.08 96.857 1048.74 97.8416 1048.96 98.9824C1049.05 99.4901 1049.06 100.008 1048.98 100.516H1051.45C1051.47 100.214 1051.48 99.9102 1051.47 99.6083C1051.46 99.4291 1051.53 99.2545 1051.65 99.1235C1051.77 98.9921 1051.94 98.9152 1052.11 98.9089C1052.15 98.9076 1052.19 98.9045 1052.24 98.8964L1052.65 98.8113C1053.06 98.7281 1053.32 98.3152 1053.24 97.8914C1053.2 97.684 1053.08 97.507 1052.91 97.3928C1052.75 97.2842 1052.56 97.2451 1052.37 97.2849L1051.96 97.3693C1051.91 97.38 1051.86 97.3962 1051.8 97.42C1051.64 97.4957 1051.45 97.5004 1051.28 97.4338C1051.11 97.3671 1050.98 97.2345 1050.91 97.0665C1050.54 96.1651 1049.99 95.3624 1049.3 94.6821C1049.04 94.4303 1049.03 94.0196 1049.27 93.7512C1049.29 93.7218 1049.32 93.6909 1049.34 93.6561L1049.57 93.2986C1049.81 92.9373 1049.72 92.4494 1049.37 92.211C1049.21 92.1 1049.01 92.059 1048.82 92.0981C1048.63 92.1372 1048.46 92.2536 1048.35 92.4259L1048.11 92.7841C1048.09 92.8225 1048.07 92.8632 1048.05 92.9039C1047.9 93.242 1047.51 93.3975 1047.17 93.2517C1046.28 92.8666 1045.33 92.6724 1044.36 92.693C1044.02 92.6862 1043.73 92.4431 1043.69 92.1022L1043.68 92.0449L1043.6 91.6214C1043.56 91.4143 1043.45 91.2373 1043.28 91.1231C1043.11 91.0143 1042.92 90.9755 1042.73 91.0152C1042.33 91.0984 1042.06 91.5113 1042.14 91.9351L1042.24 92.399C1042.32 92.7262 1042.16 93.0825 1041.85 93.2101C1040.92 93.5908 1040.09 94.1597 1039.4 94.9007C1039.17 95.1413 1038.81 95.181 1038.53 94.9949L1038.22 94.7803C1038.06 94.669 1037.87 94.6286 1037.68 94.6674C1037.48 94.7065 1037.31 94.8229 1037.2 94.9955C1036.96 95.3565 1037.05 95.8448 1037.4 96.0831L1037.73 96.3058C1037.99 96.4854 1038.09 96.8241 1037.97 97.1181C1037.57 98.0922 1037.38 99.1225 1037.42 100.18C1037.43 100.508 1037.2 100.796 1036.88 100.861L1036.6 100.918C1036.2 101.001 1035.93 101.414 1036.01 101.839C1036.05 102.046 1036.17 102.223 1036.34 102.337C1036.5 102.445 1036.7 102.484 1036.88 102.445L1037.23 102.375C1037.27 102.366 1037.32 102.361 1037.36 102.361C1037.63 102.361 1037.87 102.521 1037.98 102.775C1038.38 103.748 1038.97 104.6 1039.74 105.307C1039.98 105.529 1040.03 105.895 1039.85 106.17L1039.68 106.432C1039.44 106.793 1039.53 107.281 1039.88 107.519C1040.04 107.63 1040.24 107.671 1040.43 107.632C1040.62 107.593 1040.79 107.477 1040.91 107.304L1041.13 106.956C1041.14 106.949 1041.14 106.943 1041.15 106.938C1041.32 106.676 1041.65 106.57 1041.94 106.684C1042.13 106.756 1042.32 106.82 1042.51 106.876V103.74C1041.36 103.128 1040.55 102.04 1040.3 100.747Z" fill="#05164D"/>
<path d="M1069.49 105.123H1047.12V122.16H1069.49V105.123Z" fill="#FDAD00"/>
<path d="M1070.15 123.504H1046.44H1043.17H1042.1V124.441C1042.1 125.682 1043.12 127.284 1044.21 127.284H1072.67C1073.76 127.284 1074.78 125.682 1074.78 124.441V123.504H1073.48H1070.15ZM1060.52 126.066H1056.36C1055.99 126.066 1055.69 125.765 1055.69 125.394C1055.69 125.023 1055.99 124.722 1056.36 124.722H1060.52C1060.89 124.722 1061.19 125.023 1061.19 125.394C1061.19 125.765 1060.89 126.066 1060.52 126.066Z" fill="#05164D"/>
<path d="M99.7568 218.514C110.668 218.514 119.514 209.668 119.514 198.757C119.514 187.845 110.668 179 99.7568 179C88.8454 179 80 187.845 80 198.757C80 209.668 88.8454 218.514 99.7568 218.514Z" fill="#F6F6F6"/>
<path d="M118.514 198.757C118.514 209.116 110.116 217.514 99.7568 217.514C89.3977 217.514 81 209.116 81 198.757C81 188.398 89.3977 180 99.7568 180C110.116 180 118.514 188.398 118.514 198.757Z" stroke="#05164D" stroke-opacity="0.04" stroke-width="2"/>
<path opacity="0.6" d="M99.56 199.288C99.56 200.515 99.4267 201.565 99.16 202.44C98.904 203.315 98.4827 203.987 97.896 204.456C97.32 204.925 96.5413 205.16 95.56 205.16C94.184 205.16 93.176 204.643 92.536 203.608C91.896 202.563 91.576 201.123 91.576 199.288C91.576 198.051 91.704 196.995 91.96 196.12C92.216 195.245 92.6373 194.573 93.224 194.104C93.8107 193.635 94.5893 193.4 95.56 193.4C96.9253 193.4 97.9333 193.917 98.584 194.952C99.2347 195.987 99.56 197.432 99.56 199.288ZM93.976 199.288C93.976 200.589 94.088 201.571 94.312 202.232C94.536 202.883 94.952 203.208 95.56 203.208C96.1573 203.208 96.5733 202.883 96.808 202.232C97.0427 201.581 97.16 200.6 97.16 199.288C97.16 197.987 97.0427 197.005 96.808 196.344C96.5733 195.683 96.1573 195.352 95.56 195.352C94.952 195.352 94.536 195.683 94.312 196.344C94.088 197.005 93.976 197.987 93.976 199.288ZM106.764 205H104.348V198.392C104.348 198.115 104.354 197.752 104.364 197.304C104.386 196.856 104.402 196.461 104.412 196.12C104.359 196.184 104.242 196.301 104.06 196.472C103.89 196.632 103.73 196.776 103.58 196.904L102.268 197.96L101.1 196.504L104.78 193.576H106.764V205Z" fill="#05164D"/>
<path d="M290.757 39.5136C301.668 39.5136 310.514 30.6681 310.514 19.7568C310.514 8.84541 301.668 0 290.757 0C279.845 0 271 8.84541 271 19.7568C271 30.6681 279.845 39.5136 290.757 39.5136Z" fill="#F6F6F6"/>
<path d="M309.514 19.7568C309.514 30.1159 301.116 38.5136 290.757 38.5136C280.398 38.5136 272 30.1159 272 19.7568C272 9.3977 280.398 1 290.757 1C301.116 1 309.514 9.3977 309.514 19.7568Z" stroke="#05164D" stroke-opacity="0.04" stroke-width="2"/>
<path opacity="0.6" d="M289.56 20.288C289.56 21.5147 289.427 22.5653 289.16 23.44C288.904 24.3147 288.483 24.9867 287.896 25.456C287.32 25.9253 286.541 26.16 285.56 26.16C284.184 26.16 283.176 25.6427 282.536 24.608C281.896 23.5627 281.576 22.1227 281.576 20.288C281.576 19.0507 281.704 17.9947 281.96 17.12C282.216 16.2453 282.637 15.5733 283.224 15.104C283.811 14.6347 284.589 14.4 285.56 14.4C286.925 14.4 287.933 14.9173 288.584 15.952C289.235 16.9867 289.56 18.432 289.56 20.288ZM283.976 20.288C283.976 21.5893 284.088 22.5707 284.312 23.232C284.536 23.8827 284.952 24.208 285.56 24.208C286.157 24.208 286.573 23.8827 286.808 23.232C287.043 22.5813 287.16 21.6 287.16 20.288C287.16 18.9867 287.043 18.0053 286.808 17.344C286.573 16.6827 286.157 16.352 285.56 16.352C284.952 16.352 284.536 16.6827 284.312 17.344C284.088 18.0053 283.976 18.9867 283.976 20.288ZM298.78 26H290.796V24.32L293.66 21.424C294.236 20.8267 294.7 20.3307 295.052 19.936C295.404 19.5307 295.66 19.168 295.82 18.848C295.98 18.5173 296.06 18.1653 296.06 17.792C296.06 17.3333 295.932 16.992 295.676 16.768C295.431 16.544 295.095 16.432 294.668 16.432C294.231 16.432 293.804 16.5333 293.388 16.736C292.972 16.9387 292.535 17.2267 292.076 17.6L290.764 16.048C291.095 15.76 291.442 15.4933 291.804 15.248C292.178 15.0027 292.604 14.8053 293.084 14.656C293.575 14.496 294.162 14.416 294.844 14.416C295.591 14.416 296.231 14.5547 296.764 14.832C297.308 15.0987 297.724 15.4667 298.012 15.936C298.311 16.3947 298.46 16.9173 298.46 17.504C298.46 18.1333 298.332 18.7093 298.076 19.232C297.831 19.7547 297.468 20.272 296.988 20.784C296.519 21.296 295.948 21.8613 295.276 22.48L293.804 23.856V23.968H298.78V26Z" fill="#05164D"/>
<path d="M482.757 218.514C493.668 218.514 502.514 209.668 502.514 198.757C502.514 187.845 493.668 179 482.757 179C471.845 179 463 187.845 463 198.757C463 209.668 471.845 218.514 482.757 218.514Z" fill="#F6F6F6"/>
<path d="M501.514 198.757C501.514 209.116 493.116 217.514 482.757 217.514C472.398 217.514 464 209.116 464 198.757C464 188.398 472.398 180 482.757 180C493.116 180 501.514 188.398 501.514 198.757Z" stroke="#05164D" stroke-opacity="0.04" stroke-width="2"/>
<path opacity="0.6" d="M481.56 199.288C481.56 200.515 481.427 201.565 481.16 202.44C480.904 203.315 480.483 203.987 479.896 204.456C479.32 204.925 478.541 205.16 477.56 205.16C476.184 205.16 475.176 204.643 474.536 203.608C473.896 202.563 473.576 201.123 473.576 199.288C473.576 198.051 473.704 196.995 473.96 196.12C474.216 195.245 474.637 194.573 475.224 194.104C475.811 193.635 476.589 193.4 477.56 193.4C478.925 193.4 479.933 193.917 480.584 194.952C481.235 195.987 481.56 197.432 481.56 199.288ZM475.976 199.288C475.976 200.589 476.088 201.571 476.312 202.232C476.536 202.883 476.952 203.208 477.56 203.208C478.157 203.208 478.573 202.883 478.808 202.232C479.043 201.581 479.16 200.6 479.16 199.288C479.16 197.987 479.043 197.005 478.808 196.344C478.573 195.683 478.157 195.352 477.56 195.352C476.952 195.352 476.536 195.683 476.312 196.344C476.088 197.005 475.976 197.987 475.976 199.288ZM490.332 196.136C490.332 196.925 490.092 197.555 489.612 198.024C489.143 198.493 488.562 198.813 487.868 198.984V199.032C488.786 199.139 489.479 199.416 489.948 199.864C490.428 200.312 490.668 200.915 490.668 201.672C490.668 202.333 490.503 202.931 490.172 203.464C489.852 203.987 489.351 204.403 488.668 204.712C487.996 205.011 487.127 205.16 486.06 205.16C484.823 205.16 483.724 204.952 482.764 204.536V202.488C483.255 202.733 483.767 202.92 484.3 203.048C484.844 203.176 485.346 203.24 485.804 203.24C486.668 203.24 487.271 203.091 487.612 202.792C487.964 202.493 488.14 202.072 488.14 201.528C488.14 201.208 488.06 200.941 487.9 200.728C487.74 200.504 487.458 200.339 487.052 200.232C486.658 200.115 486.103 200.056 485.388 200.056H484.524V198.2H485.404C486.108 198.2 486.642 198.136 487.004 198.008C487.378 197.869 487.628 197.688 487.756 197.464C487.895 197.229 487.964 196.963 487.964 196.664C487.964 196.259 487.836 195.944 487.58 195.72C487.335 195.485 486.919 195.368 486.332 195.368C485.788 195.368 485.314 195.464 484.908 195.656C484.514 195.837 484.178 196.019 483.9 196.2L482.78 194.536C483.228 194.216 483.751 193.949 484.348 193.736C484.956 193.523 485.676 193.416 486.508 193.416C487.682 193.416 488.61 193.656 489.292 194.136C489.986 194.605 490.332 195.272 490.332 196.136Z" fill="#05164D"/>
<path d="M674.757 39.5136C685.668 39.5136 694.514 30.6681 694.514 19.7568C694.514 8.84541 685.668 0 674.757 0C663.845 0 655 8.84541 655 19.7568C655 30.6681 663.845 39.5136 674.757 39.5136Z" fill="#F6F6F6"/>
<path d="M693.514 19.7568C693.514 30.1159 685.116 38.5136 674.757 38.5136C664.398 38.5136 656 30.1159 656 19.7568C656 9.3977 664.398 1 674.757 1C685.116 1 693.514 9.3977 693.514 19.7568Z" stroke="#05164D" stroke-opacity="0.04" stroke-width="2"/>
<path opacity="0.6" d="M673.56 20.288C673.56 21.2053 673.485 22.0267 673.336 22.752C673.197 23.4773 672.968 24.096 672.648 24.608C672.339 25.1093 671.928 25.4933 671.416 25.76C670.915 26.0267 670.296 26.16 669.56 26.16C668.643 26.16 667.891 25.9253 667.304 25.456C666.717 24.9867 666.28 24.3147 665.992 23.44C665.715 22.5653 665.576 21.5147 665.576 20.288C665.576 19.0507 665.704 17.9947 665.96 17.12C666.216 16.2453 666.637 15.5733 667.224 15.104C667.811 14.6347 668.589 14.4 669.56 14.4C670.477 14.4 671.229 14.6347 671.816 15.104C672.403 15.5627 672.84 16.2347 673.128 17.12C673.416 17.9947 673.56 19.0507 673.56 20.288ZM667.976 20.288C667.976 21.152 668.024 21.8773 668.12 22.464C668.216 23.04 668.376 23.4773 668.6 23.776C668.835 24.064 669.155 24.208 669.56 24.208C669.965 24.208 670.28 24.064 670.504 23.776C670.739 23.488 670.904 23.056 671 22.48C671.107 21.8933 671.16 21.1627 671.16 20.288C671.16 19.4133 671.107 18.688 671 18.112C670.904 17.5253 670.739 17.088 670.504 16.8C670.28 16.5013 669.965 16.352 669.56 16.352C669.155 16.352 668.835 16.5013 668.6 16.8C668.376 17.088 668.216 17.5253 668.12 18.112C668.024 18.688 667.976 19.4133 667.976 20.288ZM683.036 23.632H681.66V26H679.308V23.632H674.428V21.952L679.436 14.576H681.66V21.76H683.036V23.632ZM679.308 19.824C679.308 19.6427 679.308 19.4293 679.308 19.184C679.319 18.928 679.33 18.6773 679.34 18.432C679.351 18.176 679.362 17.952 679.372 17.76C679.383 17.5573 679.394 17.4187 679.404 17.344H679.34C679.244 17.5573 679.143 17.7653 679.036 17.968C678.93 18.1707 678.802 18.3787 678.652 18.592L676.556 21.76H679.308V19.824Z" fill="#05164D"/>
<path d="M865.757 218.514C876.668 218.514 885.514 209.668 885.514 198.757C885.514 187.845 876.668 179 865.757 179C854.845 179 846 187.845 846 198.757C846 209.668 854.845 218.514 865.757 218.514Z" fill="#F6F6F6"/>
<path d="M884.514 198.757C884.514 209.116 876.116 217.514 865.757 217.514C855.398 217.514 847 209.116 847 198.757C847 188.398 855.398 180 865.757 180C876.116 180 884.514 188.398 884.514 198.757Z" stroke="#05164D" stroke-opacity="0.04" stroke-width="2"/>
<path opacity="0.6" d="M864.56 199.288C864.56 200.515 864.427 201.565 864.16 202.44C863.904 203.315 863.483 203.987 862.896 204.456C862.32 204.925 861.541 205.16 860.56 205.16C859.184 205.16 858.176 204.643 857.536 203.608C856.896 202.563 856.576 201.123 856.576 199.288C856.576 198.051 856.704 196.995 856.96 196.12C857.216 195.245 857.637 194.573 858.224 194.104C858.811 193.635 859.589 193.4 860.56 193.4C861.925 193.4 862.933 193.917 863.584 194.952C864.235 195.987 864.56 197.432 864.56 199.288ZM858.976 199.288C858.976 200.589 859.088 201.571 859.312 202.232C859.536 202.883 859.952 203.208 860.56 203.208C861.157 203.208 861.573 202.883 861.808 202.232C862.043 201.581 862.16 200.6 862.16 199.288C862.16 197.987 862.043 197.005 861.808 196.344C861.573 195.683 861.157 195.352 860.56 195.352C859.952 195.352 859.536 195.683 859.312 196.344C859.088 197.005 858.976 197.987 858.976 199.288ZM869.956 197.704C870.65 197.704 871.268 197.837 871.812 198.104C872.356 198.371 872.783 198.76 873.092 199.272C873.412 199.784 873.572 200.419 873.572 201.176C873.572 202.413 873.188 203.389 872.42 204.104C871.652 204.808 870.516 205.16 869.012 205.16C868.415 205.16 867.85 205.107 867.316 205C866.794 204.893 866.335 204.739 865.94 204.536V202.456C866.335 202.659 866.81 202.835 867.364 202.984C867.919 203.123 868.442 203.192 868.932 203.192C869.647 203.192 870.191 203.048 870.564 202.76C870.948 202.461 871.14 202.003 871.14 201.384C871.14 200.232 870.378 199.656 868.852 199.656C868.554 199.656 868.244 199.688 867.924 199.752C867.604 199.805 867.338 199.859 867.124 199.912L866.164 199.4L866.596 193.576H872.788V195.624H868.708L868.5 197.864C868.682 197.832 868.874 197.8 869.076 197.768C869.29 197.725 869.583 197.704 869.956 197.704Z" fill="#05164D"/>
<path d="M1054.76 39.5136C1065.67 39.5136 1074.51 30.6681 1074.51 19.7568C1074.51 8.84541 1065.67 0 1054.76 0C1043.85 0 1035 8.84541 1035 19.7568C1035 30.6681 1043.85 39.5136 1054.76 39.5136Z" fill="#F6F6F6"/>
<path d="M1073.51 19.7568C1073.51 30.1159 1065.12 38.5136 1054.76 38.5136C1044.4 38.5136 1036 30.1159 1036 19.7568C1036 9.3977 1044.4 1 1054.76 1C1065.12 1 1073.51 9.39769 1073.51 19.7568Z" stroke="#05164D" stroke-opacity="0.04" stroke-width="2"/>
<path opacity="0.6" d="M1054.56 20.288C1054.56 21.5147 1054.43 22.5653 1054.16 23.44C1053.9 24.3147 1053.48 24.9867 1052.9 25.456C1052.32 25.9253 1051.54 26.16 1050.56 26.16C1049.18 26.16 1048.18 25.6427 1047.54 24.608C1046.9 23.5627 1046.58 22.1227 1046.58 20.288C1046.58 19.0507 1046.7 17.9947 1046.96 17.12C1047.22 16.2453 1047.64 15.5733 1048.22 15.104C1048.81 14.6347 1049.59 14.4 1050.56 14.4C1051.93 14.4 1052.93 14.9173 1053.58 15.952C1054.23 16.9867 1054.56 18.432 1054.56 20.288ZM1048.98 20.288C1048.98 21.5893 1049.09 22.5707 1049.31 23.232C1049.54 23.8827 1049.95 24.208 1050.56 24.208C1051.16 24.208 1051.57 23.8827 1051.81 23.232C1052.04 22.5813 1052.16 21.6 1052.16 20.288C1052.16 18.9867 1052.04 18.0053 1051.81 17.344C1051.57 16.6827 1051.16 16.352 1050.56 16.352C1049.95 16.352 1049.54 16.6827 1049.31 17.344C1049.09 18.0053 1048.98 18.9867 1048.98 20.288ZM1055.72 21.152C1055.72 20.4907 1055.76 19.84 1055.86 19.2C1055.96 18.56 1056.12 17.9573 1056.36 17.392C1056.6 16.816 1056.94 16.3093 1057.36 15.872C1057.8 15.424 1058.35 15.0773 1059.01 14.832C1059.68 14.576 1060.49 14.448 1061.44 14.448C1061.67 14.448 1061.93 14.4587 1062.23 14.48C1062.53 14.4907 1062.78 14.5173 1062.98 14.56V16.496C1062.78 16.4427 1062.55 16.4053 1062.31 16.384C1062.07 16.352 1061.84 16.336 1061.6 16.336C1060.65 16.336 1059.92 16.4853 1059.4 16.784C1058.88 17.0827 1058.52 17.504 1058.31 18.048C1058.09 18.5813 1057.97 19.2 1057.94 19.904H1058.04C1058.25 19.5307 1058.55 19.216 1058.95 18.96C1059.35 18.704 1059.88 18.576 1060.52 18.576C1061.52 18.576 1062.31 18.8907 1062.9 19.52C1063.49 20.1493 1063.78 21.04 1063.78 22.192C1063.78 23.4293 1063.43 24.4 1062.72 25.104C1062.03 25.808 1061.09 26.16 1059.89 26.16C1059.11 26.16 1058.41 25.984 1057.78 25.632C1057.15 25.2693 1056.65 24.72 1056.28 23.984C1055.9 23.2373 1055.72 22.2933 1055.72 21.152ZM1059.84 24.224C1060.31 24.224 1060.7 24.064 1061 23.744C1061.29 23.4133 1061.44 22.9067 1061.44 22.224C1061.44 21.6693 1061.32 21.232 1061.06 20.912C1060.8 20.592 1060.41 20.432 1059.89 20.432C1059.54 20.432 1059.23 20.512 1058.96 20.672C1058.7 20.8213 1058.49 21.0187 1058.34 21.264C1058.19 21.5093 1058.12 21.76 1058.12 22.016C1058.12 22.368 1058.18 22.7147 1058.31 23.056C1058.44 23.3867 1058.63 23.664 1058.88 23.888C1059.15 24.112 1059.47 24.224 1059.84 24.224Z" fill="#05164D"/>
<path d="M106 29H100H94L100 23L106 29ZM106 35L100 29L94 35H106Z" fill="#FDAD00"/>
<path d="M489 29H483H477L483 23L489 29ZM489 35L483 29L477 35H489Z" fill="#FDAD00"/>
<path d="M872 29H866H860L866 23L872 29ZM872 35L866 29L860 35H872Z" fill="#FDAD00"/>
<path d="M297 190H291H285L291 196L297 190ZM297 184L291 190L285 184H297Z" fill="#FDAD00"/>
<path d="M681 190H675H669L675 196L681 190ZM681 184L675 190L669 184H681Z" fill="#FDAD00"/>
<path d="M1061 190H1055H1049L1055 196L1061 190ZM1061 184L1055 190L1049 184H1061Z" fill="#FDAD00"/>
</svg>
