<svg width="455" height="258" viewBox="0 0 455 258" fill="none" xmlns="http://www.w3.org/2000/svg">
<path d="M60.2317 53H52.9837V33.176C52.9837 32.632 52.9837 31.96 52.9837 31.16C53.0157 30.36 53.0477 29.528 53.0797 28.664C53.1117 27.8 53.1437 27.032 53.1757 26.36C53.0157 26.552 52.6637 26.904 52.1197 27.416C51.6077 27.896 51.1277 28.328 50.6797 28.712L46.7437 31.88L43.2397 27.512L54.2797 18.728H60.2317V53ZM81.6045 18.296C83.5885 18.296 85.3965 18.6 87.0285 19.208C88.6925 19.816 90.0205 20.728 91.0125 21.944C92.0365 23.16 92.5485 24.696 92.5485 26.552C92.5485 27.928 92.2765 29.144 91.7325 30.2C91.1885 31.224 90.4525 32.12 89.5245 32.888C88.6285 33.656 87.5885 34.328 86.4045 34.904C87.6205 35.544 88.7725 36.296 89.8605 37.16C90.9805 37.992 91.8765 38.984 92.5485 40.136C93.2525 41.256 93.6045 42.584 93.6045 44.12C93.6045 46.008 93.0925 47.656 92.0685 49.064C91.0765 50.472 89.6685 51.56 87.8445 52.328C86.0525 53.096 83.9725 53.48 81.6045 53.48C79.0445 53.48 76.8685 53.112 75.0765 52.376C73.2845 51.64 71.9085 50.584 70.9485 49.208C70.0205 47.832 69.5565 46.2 69.5565 44.312C69.5565 42.744 69.8445 41.384 70.4205 40.232C71.0285 39.08 71.8285 38.088 72.8205 37.256C73.8125 36.392 74.9165 35.672 76.1325 35.096C75.1085 34.456 74.1805 33.736 73.3485 32.936C72.5165 32.104 71.8445 31.176 71.3325 30.152C70.8525 29.096 70.6125 27.88 70.6125 26.504C70.6125 24.68 71.1245 23.16 72.1485 21.944C73.1725 20.728 74.5165 19.816 76.1805 19.208C77.8765 18.6 79.6845 18.296 81.6045 18.296ZM76.2765 43.88C76.2765 45.128 76.7085 46.152 77.5725 46.952C78.4685 47.752 79.7805 48.152 81.5085 48.152C82.7245 48.152 83.7165 47.976 84.4845 47.624C85.2845 47.272 85.8765 46.776 86.2605 46.136C86.6765 45.496 86.8845 44.76 86.8845 43.928C86.8845 43.064 86.6285 42.312 86.1165 41.672C85.6045 41 84.9645 40.408 84.1965 39.896C83.4605 39.352 82.6925 38.856 81.8925 38.408L81.2685 38.072C80.2765 38.52 79.3965 39.032 78.6285 39.608C77.8925 40.184 77.3165 40.824 76.9005 41.528C76.4845 42.2 76.2765 42.984 76.2765 43.88ZM81.5565 23.576C80.3725 23.576 79.3805 23.88 78.5805 24.488C77.8125 25.096 77.4285 25.96 77.4285 27.08C77.4285 27.848 77.6205 28.536 78.0045 29.144C78.3885 29.72 78.9005 30.232 79.5405 30.68C80.1805 31.096 80.8685 31.496 81.6045 31.88C82.3405 31.528 83.0125 31.144 83.6205 30.728C84.2605 30.312 84.7725 29.816 85.1565 29.24C85.5405 28.632 85.7325 27.912 85.7325 27.08C85.7325 25.96 85.3325 25.096 84.5325 24.488C83.7645 23.88 82.7725 23.576 81.5565 23.576ZM111.617 33.512H120.689V38.648H111.617V47.672H106.481V38.648H97.4092V33.512H106.481V24.392H111.617V33.512Z" fill="#333333"/>
<path d="M6.24772 84.4L9.74771 77.72H12.0677L7.30772 86.46V92H5.16771V86.54L0.407715 77.72H2.74771L6.24772 84.4ZM16.9718 81.02C17.9184 81.02 18.7318 81.22 19.4118 81.62C20.0918 82.0067 20.6118 82.5667 20.9718 83.3C21.3451 84.0333 21.5318 84.9 21.5318 85.9V87.06H14.2918C14.3184 88.1667 14.6051 89.0133 15.1518 89.6C15.7118 90.1867 16.4918 90.48 17.4918 90.48C18.1851 90.48 18.7984 90.42 19.3318 90.3C19.8784 90.1667 20.4384 89.9733 21.0118 89.72V91.48C20.4784 91.72 19.9318 91.9 19.3718 92.02C18.8251 92.14 18.1718 92.2 17.4118 92.2C16.3718 92.2 15.4518 91.9933 14.6518 91.58C13.8518 91.1667 13.2251 90.5533 12.7718 89.74C12.3318 88.9133 12.1118 87.9 12.1118 86.7C12.1118 85.4867 12.3118 84.46 12.7118 83.62C13.1251 82.78 13.6918 82.14 14.4118 81.7C15.1451 81.2467 15.9984 81.02 16.9718 81.02ZM16.9718 82.66C16.2118 82.66 15.5984 82.9067 15.1318 83.4C14.6784 83.8933 14.4118 84.5933 14.3318 85.5H19.4118C19.4118 84.94 19.3251 84.4467 19.1518 84.02C18.9784 83.5933 18.7118 83.26 18.3518 83.02C17.9918 82.78 17.5318 82.66 16.9718 82.66ZM28.3571 81.02C29.7171 81.02 30.7304 81.32 31.3971 81.92C32.0638 82.5067 32.3971 83.4333 32.3971 84.7V92H30.8971L30.4771 90.5H30.3971C30.0904 90.8867 29.7704 91.2067 29.4371 91.46C29.1171 91.7133 28.7438 91.9 28.3171 92.02C27.9038 92.14 27.3971 92.2 26.7971 92.2C26.1571 92.2 25.5771 92.0867 25.0571 91.86C24.5504 91.62 24.1504 91.26 23.8571 90.78C23.5638 90.2867 23.4171 89.6733 23.4171 88.94C23.4171 87.8467 23.8304 87.0133 24.6571 86.44C25.4971 85.8667 26.7704 85.5533 28.4771 85.5L30.3171 85.44V84.84C30.3171 84.04 30.1371 83.48 29.7771 83.16C29.4171 82.84 28.9104 82.68 28.2571 82.68C27.6971 82.68 27.1638 82.76 26.6571 82.92C26.1504 83.08 25.6704 83.2733 25.2171 83.5L24.5371 81.96C25.0438 81.6933 25.6238 81.4733 26.2771 81.3C26.9438 81.1133 27.6371 81.02 28.3571 81.02ZM28.8571 86.86C27.6304 86.9133 26.7771 87.12 26.2971 87.48C25.8304 87.8267 25.5971 88.32 25.5971 88.96C25.5971 89.52 25.7638 89.9267 26.0971 90.18C26.4438 90.4333 26.8771 90.56 27.3971 90.56C28.2371 90.56 28.9304 90.3267 29.4771 89.86C30.0238 89.3933 30.2971 88.6933 30.2971 87.76V86.82L28.8571 86.86ZM40.9815 81.02C41.1681 81.02 41.3748 81.0333 41.6015 81.06C41.8281 81.0733 42.0148 81.0933 42.1615 81.12L41.9415 83.1C41.7948 83.06 41.6215 83.0267 41.4215 83C41.2215 82.9733 41.0348 82.96 40.8615 82.96C40.4615 82.96 40.0748 83.04 39.7015 83.2C39.3415 83.3467 39.0148 83.5667 38.7215 83.86C38.4281 84.14 38.1948 84.4867 38.0215 84.9C37.8615 85.3133 37.7815 85.7867 37.7815 86.32V92H35.6615V81.22H37.3415L37.6215 83.14H37.7015C37.9281 82.7533 38.2015 82.4 38.5215 82.08C38.8415 81.76 39.2081 81.5067 39.6215 81.32C40.0348 81.12 40.4881 81.02 40.9815 81.02ZM51.3176 88.96C51.3176 89.6667 51.1442 90.26 50.7976 90.74C50.4509 91.22 49.9509 91.5867 49.2976 91.84C48.6442 92.08 47.8576 92.2 46.9376 92.2C46.1776 92.2 45.5242 92.14 44.9776 92.02C44.4442 91.9133 43.9509 91.7533 43.4976 91.54V89.68C43.9776 89.9067 44.5309 90.1133 45.1576 90.3C45.7842 90.4733 46.3976 90.56 46.9976 90.56C47.7976 90.56 48.3709 90.4333 48.7176 90.18C49.0776 89.9267 49.2576 89.5867 49.2576 89.16C49.2576 88.92 49.1909 88.7067 49.0576 88.52C48.9242 88.32 48.6709 88.12 48.2976 87.92C47.9376 87.7067 47.4042 87.4667 46.6976 87.2C46.0176 86.92 45.4376 86.6467 44.9576 86.38C44.4776 86.1 44.1109 85.7733 43.8576 85.4C43.6042 85.0133 43.4776 84.52 43.4776 83.92C43.4776 82.9867 43.8509 82.2733 44.5976 81.78C45.3576 81.2733 46.3576 81.02 47.5976 81.02C48.2509 81.02 48.8642 81.0867 49.4376 81.22C50.0242 81.34 50.5909 81.5267 51.1376 81.78L50.4376 83.4C50.1309 83.2533 49.8109 83.1333 49.4776 83.04C49.1576 82.9333 48.8309 82.8467 48.4976 82.78C48.1776 82.7133 47.8442 82.68 47.4976 82.68C46.8576 82.68 46.3709 82.78 46.0376 82.98C45.7042 83.18 45.5376 83.46 45.5376 83.82C45.5376 84.0733 45.6109 84.2933 45.7576 84.48C45.9176 84.6667 46.1909 84.8533 46.5776 85.04C46.9642 85.2267 47.4909 85.4533 48.1576 85.72C48.8242 85.9733 49.3909 86.2333 49.8576 86.5C50.3376 86.7667 50.6976 87.0933 50.9376 87.48C51.1909 87.8667 51.3176 88.36 51.3176 88.96ZM67.3204 92H59.2804V77.72H67.3204V79.56H61.4404V83.64H66.9604V85.46H61.4404V90.14H67.3204V92ZM72.6332 86.5L68.9732 81.22H71.3932L73.9532 85.1L76.5132 81.22H78.9132L75.2532 86.5L79.0932 92H76.6932L73.9532 87.88L71.1932 92H68.7932L72.6332 86.5ZM86.4126 81.02C87.7059 81.02 88.7459 81.4867 89.5326 82.42C90.3326 83.3533 90.7326 84.7467 90.7326 86.6C90.7326 87.8133 90.5526 88.84 90.1926 89.68C89.8326 90.52 89.3259 91.1533 88.6726 91.58C88.0192 91.9933 87.2592 92.2 86.3926 92.2C85.8459 92.2 85.3659 92.1333 84.9526 92C84.5392 91.8533 84.1859 91.6667 83.8926 91.44C83.6126 91.2 83.3659 90.9467 83.1526 90.68H83.0126C83.0526 90.92 83.0859 91.2067 83.1126 91.54C83.1392 91.86 83.1526 92.1467 83.1526 92.4V96.8H81.0326V81.22H82.7526L83.0526 82.66H83.1526C83.3659 82.3667 83.6192 82.0933 83.9126 81.84C84.2059 81.5867 84.5592 81.3867 84.9726 81.24C85.3859 81.0933 85.8659 81.02 86.4126 81.02ZM85.9126 82.76C85.2459 82.76 84.7126 82.8933 84.3126 83.16C83.9126 83.4133 83.6192 83.8 83.4326 84.32C83.2592 84.8267 83.1659 85.4733 83.1526 86.26V86.58C83.1526 87.4067 83.2392 88.1133 83.4126 88.7C83.5859 89.2733 83.8726 89.7133 84.2726 90.02C84.6859 90.3133 85.2459 90.46 85.9526 90.46C86.5526 90.46 87.0392 90.3 87.4126 89.98C87.7992 89.6467 88.0859 89.1867 88.2726 88.6C88.4592 88.0133 88.5526 87.3333 88.5526 86.56C88.5526 85.3867 88.3392 84.46 87.9126 83.78C87.4859 83.1 86.8192 82.76 85.9126 82.76ZM97.6749 81.02C98.6216 81.02 99.4349 81.22 100.115 81.62C100.795 82.0067 101.315 82.5667 101.675 83.3C102.048 84.0333 102.235 84.9 102.235 85.9V87.06H94.9949C95.0216 88.1667 95.3082 89.0133 95.8549 89.6C96.4149 90.1867 97.1949 90.48 98.1949 90.48C98.8882 90.48 99.5016 90.42 100.035 90.3C100.582 90.1667 101.142 89.9733 101.715 89.72V91.48C101.182 91.72 100.635 91.9 100.075 92.02C99.5282 92.14 98.8749 92.2 98.1149 92.2C97.0749 92.2 96.1549 91.9933 95.3549 91.58C94.5549 91.1667 93.9282 90.5533 93.4749 89.74C93.0349 88.9133 92.8149 87.9 92.8149 86.7C92.8149 85.4867 93.0149 84.46 93.4149 83.62C93.8282 82.78 94.3949 82.14 95.1149 81.7C95.8482 81.2467 96.7016 81.02 97.6749 81.02ZM97.6749 82.66C96.9149 82.66 96.3016 82.9067 95.8349 83.4C95.3816 83.8933 95.1149 84.5933 95.0349 85.5H100.115C100.115 84.94 100.028 84.4467 99.8549 84.02C99.6816 83.5933 99.4149 83.26 99.0549 83.02C98.6949 82.78 98.2349 82.66 97.6749 82.66ZM110.2 81.02C110.387 81.02 110.594 81.0333 110.82 81.06C111.047 81.0733 111.234 81.0933 111.38 81.12L111.16 83.1C111.014 83.06 110.84 83.0267 110.64 83C110.44 82.9733 110.254 82.96 110.08 82.96C109.68 82.96 109.294 83.04 108.92 83.2C108.56 83.3467 108.234 83.5667 107.94 83.86C107.647 84.14 107.414 84.4867 107.24 84.9C107.08 85.3133 107 85.7867 107 86.32V92H104.88V81.22H106.56L106.84 83.14H106.92C107.147 82.7533 107.42 82.4 107.74 82.08C108.06 81.76 108.427 81.5067 108.84 81.32C109.254 81.12 109.707 81.02 110.2 81.02ZM115.496 81.22V92H113.376V81.22H115.496ZM114.456 77.12C114.776 77.12 115.056 77.2133 115.296 77.4C115.536 77.5867 115.656 77.9 115.656 78.34C115.656 78.7667 115.536 79.08 115.296 79.28C115.056 79.4667 114.776 79.56 114.456 79.56C114.11 79.56 113.816 79.4667 113.576 79.28C113.35 79.08 113.236 78.7667 113.236 78.34C113.236 77.9 113.35 77.5867 113.576 77.4C113.816 77.2133 114.11 77.12 114.456 77.12ZM123.066 81.02C124.012 81.02 124.826 81.22 125.506 81.62C126.186 82.0067 126.706 82.5667 127.066 83.3C127.439 84.0333 127.626 84.9 127.626 85.9V87.06H120.386C120.412 88.1667 120.699 89.0133 121.246 89.6C121.806 90.1867 122.586 90.48 123.586 90.48C124.279 90.48 124.892 90.42 125.426 90.3C125.972 90.1667 126.532 89.9733 127.106 89.72V91.48C126.572 91.72 126.026 91.9 125.466 92.02C124.919 92.14 124.266 92.2 123.506 92.2C122.466 92.2 121.546 91.9933 120.746 91.58C119.946 91.1667 119.319 90.5533 118.866 89.74C118.426 88.9133 118.206 87.9 118.206 86.7C118.206 85.4867 118.406 84.46 118.806 83.62C119.219 82.78 119.786 82.14 120.506 81.7C121.239 81.2467 122.092 81.02 123.066 81.02ZM123.066 82.66C122.306 82.66 121.692 82.9067 121.226 83.4C120.772 83.8933 120.506 84.5933 120.426 85.5H125.506C125.506 84.94 125.419 84.4467 125.246 84.02C125.072 83.5933 124.806 83.26 124.446 83.02C124.086 82.78 123.626 82.66 123.066 82.66ZM135.731 81.02C136.984 81.02 137.944 81.3333 138.611 81.96C139.278 82.5867 139.611 83.5933 139.611 84.98V92H137.511V85.28C137.511 84.44 137.331 83.8133 136.971 83.4C136.624 82.9733 136.064 82.76 135.291 82.76C134.198 82.76 133.438 83.0867 133.011 83.74C132.598 84.3933 132.391 85.3333 132.391 86.56V92H130.271V81.22H131.951L132.251 82.66H132.371C132.611 82.2867 132.904 81.98 133.251 81.74C133.598 81.5 133.984 81.32 134.411 81.2C134.838 81.08 135.278 81.02 135.731 81.02ZM147.208 92.2C146.222 92.2 145.355 92.0067 144.608 91.62C143.862 91.2333 143.282 90.6333 142.868 89.82C142.455 88.9933 142.248 87.9467 142.248 86.68C142.248 85.3467 142.468 84.2667 142.908 83.44C143.362 82.6133 143.968 82.0067 144.728 81.62C145.502 81.22 146.382 81.02 147.368 81.02C147.968 81.02 148.528 81.0867 149.048 81.22C149.582 81.34 150.022 81.48 150.368 81.64L149.728 83.36C149.355 83.2133 148.955 83.0867 148.528 82.98C148.115 82.8733 147.722 82.82 147.348 82.82C146.682 82.82 146.128 82.9667 145.688 83.26C145.262 83.54 144.942 83.9667 144.728 84.54C144.528 85.1 144.428 85.8067 144.428 86.66C144.428 87.4733 144.535 88.16 144.748 88.72C144.962 89.28 145.275 89.7067 145.688 90C146.115 90.28 146.642 90.42 147.268 90.42C147.868 90.42 148.395 90.3533 148.848 90.22C149.302 90.0867 149.728 89.9133 150.128 89.7V91.54C149.742 91.7667 149.322 91.9333 148.868 92.04C148.415 92.1467 147.862 92.2 147.208 92.2ZM156.913 81.02C157.86 81.02 158.673 81.22 159.353 81.62C160.033 82.0067 160.553 82.5667 160.913 83.3C161.287 84.0333 161.473 84.9 161.473 85.9V87.06H154.233C154.26 88.1667 154.547 89.0133 155.093 89.6C155.653 90.1867 156.433 90.48 157.433 90.48C158.127 90.48 158.74 90.42 159.273 90.3C159.82 90.1667 160.38 89.9733 160.953 89.72V91.48C160.42 91.72 159.873 91.9 159.313 92.02C158.767 92.14 158.113 92.2 157.353 92.2C156.313 92.2 155.393 91.9933 154.593 91.58C153.793 91.1667 153.167 90.5533 152.713 89.74C152.273 88.9133 152.053 87.9 152.053 86.7C152.053 85.4867 152.253 84.46 152.653 83.62C153.067 82.78 153.633 82.14 154.353 81.7C155.087 81.2467 155.94 81.02 156.913 81.02ZM156.913 82.66C156.153 82.66 155.54 82.9067 155.073 83.4C154.62 83.8933 154.353 84.5933 154.273 85.5H159.353C159.353 84.94 159.267 84.4467 159.093 84.02C158.92 83.5933 158.653 83.26 158.293 83.02C157.933 82.78 157.473 82.66 156.913 82.66Z" fill="#283043"/>
<path d="M306.088 37.456C306.088 35.472 306.232 33.52 306.52 31.6C306.808 29.68 307.304 27.872 308.008 26.176C308.744 24.448 309.752 22.928 311.032 21.616C312.344 20.272 313.992 19.232 315.976 18.496C317.992 17.728 320.424 17.344 323.272 17.344C323.944 17.344 324.728 17.376 325.624 17.44C326.52 17.472 327.272 17.552 327.88 17.68V23.488C327.272 23.328 326.6 23.216 325.864 23.152C325.16 23.056 324.456 23.008 323.752 23.008C321.608 23.008 319.832 23.264 318.424 23.776C317.048 24.288 315.96 25.024 315.16 25.984C314.36 26.944 313.768 28.08 313.384 29.392C313.032 30.672 312.824 32.112 312.76 33.712H313.048C313.496 32.944 314.04 32.272 314.68 31.696C315.352 31.088 316.168 30.608 317.128 30.256C318.088 29.904 319.208 29.728 320.488 29.728C322.504 29.728 324.232 30.16 325.672 31.024C327.144 31.856 328.28 33.088 329.08 34.72C329.88 36.32 330.28 38.272 330.28 40.576C330.28 43.04 329.8 45.168 328.84 46.96C327.912 48.752 326.568 50.128 324.808 51.088C323.08 52.016 321.016 52.48 318.616 52.48C316.856 52.48 315.208 52.176 313.672 51.568C312.168 50.96 310.84 50.048 309.688 48.832C308.568 47.584 307.688 46.016 307.048 44.128C306.408 42.24 306.088 40.016 306.088 37.456ZM318.472 46.672C319.88 46.672 321.032 46.192 321.928 45.232C322.824 44.24 323.272 42.72 323.272 40.672C323.272 39.008 322.888 37.696 322.12 36.736C321.352 35.776 320.184 35.296 318.616 35.296C317.56 35.296 316.632 35.536 315.832 36.016C315.032 36.464 314.408 37.056 313.96 37.792C313.512 38.528 313.288 39.28 313.288 40.048C313.288 40.848 313.4 41.648 313.624 42.448C313.848 43.216 314.168 43.92 314.584 44.56C315.032 45.2 315.576 45.712 316.216 46.096C316.856 46.48 317.608 46.672 318.472 46.672ZM346.276 30.112C348.356 30.112 350.212 30.512 351.844 31.312C353.476 32.112 354.756 33.28 355.684 34.816C356.644 36.352 357.124 38.256 357.124 40.528C357.124 42.992 356.612 45.12 355.588 46.912C354.564 48.704 353.028 50.08 350.98 51.04C348.964 52 346.452 52.48 343.444 52.48C341.652 52.48 339.956 52.32 338.356 52C336.788 51.68 335.412 51.216 334.228 50.608V44.368C335.412 44.976 336.836 45.504 338.5 45.952C340.164 46.368 341.732 46.576 343.204 46.576C344.644 46.576 345.844 46.384 346.804 46C347.796 45.616 348.548 45.024 349.06 44.224C349.572 43.424 349.828 42.4 349.828 41.152C349.828 39.456 349.268 38.176 348.148 37.312C347.028 36.416 345.3 35.968 342.964 35.968C342.068 35.968 341.14 36.064 340.18 36.256C339.22 36.416 338.42 36.576 337.78 36.736L334.9 35.2L336.196 17.728H354.772V23.872H342.532L341.908 30.592C342.452 30.496 343.028 30.4 343.636 30.304C344.276 30.176 345.156 30.112 346.276 30.112ZM385.025 34.864C385.025 37.616 384.801 40.08 384.353 42.256C383.937 44.432 383.249 46.288 382.289 47.824C381.361 49.328 380.129 50.48 378.593 51.28C377.089 52.08 375.233 52.48 373.025 52.48C370.273 52.48 368.017 51.776 366.257 50.368C364.497 48.96 363.185 46.944 362.321 44.32C361.489 41.696 361.073 38.544 361.073 34.864C361.073 31.152 361.457 27.984 362.225 25.36C362.993 22.736 364.257 20.72 366.017 19.312C367.777 17.904 370.113 17.2 373.025 17.2C375.777 17.2 378.033 17.904 379.793 19.312C381.553 20.688 382.865 22.704 383.729 25.36C384.593 27.984 385.025 31.152 385.025 34.864ZM368.273 34.864C368.273 37.456 368.417 39.632 368.705 41.392C368.993 43.12 369.473 44.432 370.145 45.328C370.849 46.192 371.809 46.624 373.025 46.624C374.241 46.624 375.185 46.192 375.857 45.328C376.561 44.464 377.057 43.168 377.345 41.44C377.665 39.68 377.825 37.488 377.825 34.864C377.825 32.24 377.665 30.064 377.345 28.336C377.057 26.576 376.561 25.264 375.857 24.4C375.185 23.504 374.241 23.056 373.025 23.056C371.809 23.056 370.849 23.504 370.145 24.4C369.473 25.264 368.993 26.576 368.705 28.336C368.417 30.064 368.273 32.24 368.273 34.864ZM403.086 32.512H412.158V37.648H403.086V46.672H397.95V37.648H388.878V32.512H397.95V23.392H403.086V32.512Z" fill="#333333"/>
<path d="M267.448 92H265.308V77.72H273.348V79.56H267.448V84.22H272.968V86.06H267.448V92ZM284.914 81.22V92H283.214L282.914 90.58H282.814C282.587 90.9533 282.294 91.26 281.934 91.5C281.574 91.74 281.181 91.9133 280.754 92.02C280.327 92.14 279.887 92.2 279.434 92.2C278.594 92.2 277.881 92.0667 277.294 91.8C276.721 91.52 276.281 91.0933 275.974 90.52C275.681 89.9333 275.534 89.1867 275.534 88.28V81.22H277.674V87.96C277.674 88.8 277.847 89.4267 278.194 89.84C278.554 90.2533 279.107 90.46 279.854 90.46C280.601 90.46 281.187 90.3133 281.614 90.02C282.041 89.7267 282.341 89.3 282.514 88.74C282.701 88.1667 282.794 87.48 282.794 86.68V81.22H284.914ZM290.352 92H288.232V76.8H290.352V92ZM295.801 92H293.681V76.8H295.801V92ZM303.01 90.48C303.29 90.48 303.577 90.4533 303.87 90.4C304.164 90.3467 304.417 90.2867 304.63 90.22V91.82C304.404 91.9267 304.097 92.0133 303.71 92.08C303.324 92.16 302.937 92.2 302.55 92.2C301.964 92.2 301.424 92.1 300.93 91.9C300.45 91.7 300.064 91.3533 299.77 90.86C299.477 90.3667 299.33 89.68 299.33 88.8V82.84H297.83V81.88L299.41 81.08L300.15 78.8H301.45V81.22H304.53V82.84H301.45V88.76C301.45 89.3467 301.59 89.78 301.87 90.06C302.164 90.34 302.544 90.48 303.01 90.48ZM308.906 81.22V92H306.786V81.22H308.906ZM307.866 77.12C308.186 77.12 308.466 77.2133 308.706 77.4C308.946 77.5867 309.066 77.9 309.066 78.34C309.066 78.7667 308.946 79.08 308.706 79.28C308.466 79.4667 308.186 79.56 307.866 79.56C307.52 79.56 307.226 79.4667 306.986 79.28C306.76 79.08 306.646 78.7667 306.646 78.34C306.646 77.9 306.76 77.5867 306.986 77.4C307.226 77.2133 307.52 77.12 307.866 77.12ZM324.316 81.02C325.529 81.02 326.442 81.3333 327.056 81.96C327.669 82.5867 327.976 83.5933 327.976 84.98V92H325.856V85.26C325.856 84.4333 325.689 83.8133 325.356 83.4C325.036 82.9733 324.529 82.76 323.836 82.76C322.876 82.76 322.189 83.06 321.776 83.66C321.362 84.2467 321.156 85.1 321.156 86.22V92H319.056V85.26C319.056 84.7133 318.976 84.2533 318.816 83.88C318.669 83.5067 318.449 83.2267 318.156 83.04C317.862 82.8533 317.482 82.76 317.016 82.76C316.349 82.76 315.822 82.9067 315.436 83.2C315.049 83.4933 314.769 83.9267 314.596 84.5C314.436 85.06 314.356 85.7467 314.356 86.56V92H312.236V81.22H313.916L314.216 82.66H314.336C314.562 82.2867 314.836 81.98 315.156 81.74C315.489 81.5 315.856 81.32 316.256 81.2C316.656 81.08 317.069 81.02 317.496 81.02C318.309 81.02 318.996 81.1667 319.556 81.46C320.116 81.74 320.522 82.1733 320.776 82.76H320.936C321.282 82.16 321.762 81.72 322.376 81.44C322.989 81.16 323.636 81.02 324.316 81.02ZM335.46 81.02C336.407 81.02 337.22 81.22 337.9 81.62C338.58 82.0067 339.1 82.5667 339.46 83.3C339.833 84.0333 340.02 84.9 340.02 85.9V87.06H332.78C332.807 88.1667 333.093 89.0133 333.64 89.6C334.2 90.1867 334.98 90.48 335.98 90.48C336.673 90.48 337.287 90.42 337.82 90.3C338.367 90.1667 338.927 89.9733 339.5 89.72V91.48C338.967 91.72 338.42 91.9 337.86 92.02C337.313 92.14 336.66 92.2 335.9 92.2C334.86 92.2 333.94 91.9933 333.14 91.58C332.34 91.1667 331.713 90.5533 331.26 89.74C330.82 88.9133 330.6 87.9 330.6 86.7C330.6 85.4867 330.8 84.46 331.2 83.62C331.613 82.78 332.18 82.14 332.9 81.7C333.633 81.2467 334.487 81.02 335.46 81.02ZM335.46 82.66C334.7 82.66 334.087 82.9067 333.62 83.4C333.167 83.8933 332.9 84.5933 332.82 85.5H337.9C337.9 84.94 337.813 84.4467 337.64 84.02C337.467 83.5933 337.2 83.26 336.84 83.02C336.48 82.78 336.02 82.66 335.46 82.66ZM359.661 84.72C359.661 86.32 359.361 87.66 358.761 88.74C358.161 89.82 357.294 90.6333 356.161 91.18C355.041 91.7267 353.687 92 352.101 92H348.101V77.72H352.521C353.974 77.72 355.234 77.9867 356.301 78.52C357.367 79.0533 358.194 79.84 358.781 80.88C359.367 81.9067 359.661 83.1867 359.661 84.72ZM357.401 84.78C357.401 83.58 357.207 82.5933 356.821 81.82C356.434 81.0467 355.861 80.4733 355.101 80.1C354.354 79.7267 353.447 79.54 352.381 79.54H350.261V90.18H352.001C353.801 90.18 355.147 89.7267 356.041 88.82C356.947 87.9133 357.401 86.5667 357.401 84.78ZM366.769 81.02C367.715 81.02 368.529 81.22 369.209 81.62C369.889 82.0067 370.409 82.5667 370.769 83.3C371.142 84.0333 371.329 84.9 371.329 85.9V87.06H364.089C364.115 88.1667 364.402 89.0133 364.949 89.6C365.509 90.1867 366.289 90.48 367.289 90.48C367.982 90.48 368.595 90.42 369.129 90.3C369.675 90.1667 370.235 89.9733 370.809 89.72V91.48C370.275 91.72 369.729 91.9 369.169 92.02C368.622 92.14 367.969 92.2 367.209 92.2C366.169 92.2 365.249 91.9933 364.449 91.58C363.649 91.1667 363.022 90.5533 362.569 89.74C362.129 88.9133 361.909 87.9 361.909 86.7C361.909 85.4867 362.109 84.46 362.509 83.62C362.922 82.78 363.489 82.14 364.209 81.7C364.942 81.2467 365.795 81.02 366.769 81.02ZM366.769 82.66C366.009 82.66 365.395 82.9067 364.929 83.4C364.475 83.8933 364.209 84.5933 364.129 85.5H369.209C369.209 84.94 369.122 84.4467 368.949 84.02C368.775 83.5933 368.509 83.26 368.149 83.02C367.789 82.78 367.329 82.66 366.769 82.66ZM376.003 92L371.923 81.22H374.163L376.403 87.52C376.497 87.7867 376.59 88.0867 376.683 88.42C376.79 88.7533 376.883 89.0733 376.963 89.38C377.043 89.6867 377.097 89.9533 377.123 90.18H377.203C377.243 89.9533 377.303 89.6867 377.383 89.38C377.477 89.06 377.577 88.74 377.683 88.42C377.79 88.0867 377.883 87.7867 377.963 87.52L380.203 81.22H382.443L378.343 92H376.003ZM388.351 81.02C389.297 81.02 390.111 81.22 390.791 81.62C391.471 82.0067 391.991 82.5667 392.351 83.3C392.724 84.0333 392.911 84.9 392.911 85.9V87.06H385.671C385.697 88.1667 385.984 89.0133 386.531 89.6C387.091 90.1867 387.871 90.48 388.871 90.48C389.564 90.48 390.177 90.42 390.711 90.3C391.257 90.1667 391.817 89.9733 392.391 89.72V91.48C391.857 91.72 391.311 91.9 390.751 92.02C390.204 92.14 389.551 92.2 388.791 92.2C387.751 92.2 386.831 91.9933 386.031 91.58C385.231 91.1667 384.604 90.5533 384.151 89.74C383.711 88.9133 383.491 87.9 383.491 86.7C383.491 85.4867 383.691 84.46 384.091 83.62C384.504 82.78 385.071 82.14 385.791 81.7C386.524 81.2467 387.377 81.02 388.351 81.02ZM388.351 82.66C387.591 82.66 386.977 82.9067 386.511 83.4C386.057 83.8933 385.791 84.5933 385.711 85.5H390.791C390.791 84.94 390.704 84.4467 390.531 84.02C390.357 83.5933 390.091 83.26 389.731 83.02C389.371 82.78 388.911 82.66 388.351 82.66ZM397.676 92H395.556V76.8H397.676V92ZM410.505 86.6C410.505 87.4933 410.385 88.2867 410.145 88.98C409.905 89.6733 409.565 90.26 409.125 90.74C408.685 91.22 408.152 91.5867 407.525 91.84C406.899 92.08 406.192 92.2 405.405 92.2C404.685 92.2 404.019 92.08 403.405 91.84C402.792 91.5867 402.259 91.22 401.805 90.74C401.365 90.26 401.019 89.6733 400.765 88.98C400.512 88.2867 400.385 87.4867 400.385 86.58C400.385 85.3933 400.585 84.3867 400.985 83.56C401.399 82.7333 401.985 82.1067 402.745 81.68C403.519 81.24 404.425 81.02 405.465 81.02C406.452 81.02 407.319 81.24 408.065 81.68C408.825 82.1067 409.419 82.7333 409.845 83.56C410.285 84.3867 410.505 85.4 410.505 86.6ZM402.565 86.6C402.565 87.4 402.665 88.0933 402.865 88.68C403.065 89.2533 403.379 89.6933 403.805 90C404.232 90.3067 404.779 90.46 405.445 90.46C406.112 90.46 406.659 90.3067 407.085 90C407.512 89.6933 407.825 89.2533 408.025 88.68C408.225 88.0933 408.325 87.4 408.325 86.6C408.325 85.7733 408.219 85.08 408.005 84.52C407.805 83.96 407.492 83.5333 407.065 83.24C406.652 82.9333 406.105 82.78 405.425 82.78C404.425 82.78 403.699 83.1133 403.245 83.78C402.792 84.4467 402.565 85.3867 402.565 86.6ZM418.573 81.02C419.866 81.02 420.906 81.4867 421.693 82.42C422.493 83.3533 422.893 84.7467 422.893 86.6C422.893 87.8133 422.713 88.84 422.353 89.68C421.993 90.52 421.486 91.1533 420.833 91.58C420.179 91.9933 419.419 92.2 418.553 92.2C418.006 92.2 417.526 92.1333 417.113 92C416.699 91.8533 416.346 91.6667 416.053 91.44C415.773 91.2 415.526 90.9467 415.313 90.68H415.173C415.213 90.92 415.246 91.2067 415.273 91.54C415.299 91.86 415.313 92.1467 415.313 92.4V96.8H413.193V81.22H414.913L415.213 82.66H415.313C415.526 82.3667 415.779 82.0933 416.073 81.84C416.366 81.5867 416.719 81.3867 417.133 81.24C417.546 81.0933 418.026 81.02 418.573 81.02ZM418.073 82.76C417.406 82.76 416.873 82.8933 416.473 83.16C416.073 83.4133 415.779 83.8 415.593 84.32C415.419 84.8267 415.326 85.4733 415.313 86.26V86.58C415.313 87.4067 415.399 88.1133 415.573 88.7C415.746 89.2733 416.033 89.7133 416.433 90.02C416.846 90.3133 417.406 90.46 418.113 90.46C418.713 90.46 419.199 90.3 419.573 89.98C419.959 89.6467 420.246 89.1867 420.433 88.6C420.619 88.0133 420.713 87.3333 420.713 86.56C420.713 85.3867 420.499 84.46 420.073 83.78C419.646 83.1 418.979 82.76 418.073 82.76ZM429.835 81.02C430.782 81.02 431.595 81.22 432.275 81.62C432.955 82.0067 433.475 82.5667 433.835 83.3C434.208 84.0333 434.395 84.9 434.395 85.9V87.06H427.155C427.182 88.1667 427.468 89.0133 428.015 89.6C428.575 90.1867 429.355 90.48 430.355 90.48C431.048 90.48 431.662 90.42 432.195 90.3C432.742 90.1667 433.302 89.9733 433.875 89.72V91.48C433.342 91.72 432.795 91.9 432.235 92.02C431.688 92.14 431.035 92.2 430.275 92.2C429.235 92.2 428.315 91.9933 427.515 91.58C426.715 91.1667 426.088 90.5533 425.635 89.74C425.195 88.9133 424.975 87.9 424.975 86.7C424.975 85.4867 425.175 84.46 425.575 83.62C425.988 82.78 426.555 82.14 427.275 81.7C428.008 81.2467 428.862 81.02 429.835 81.02ZM429.835 82.66C429.075 82.66 428.462 82.9067 427.995 83.4C427.542 83.8933 427.275 84.5933 427.195 85.5H432.275C432.275 84.94 432.188 84.4467 432.015 84.02C431.842 83.5933 431.575 83.26 431.215 83.02C430.855 82.78 430.395 82.66 429.835 82.66ZM442.36 81.02C442.547 81.02 442.754 81.0333 442.98 81.06C443.207 81.0733 443.394 81.0933 443.54 81.12L443.32 83.1C443.174 83.06 443 83.0267 442.8 83C442.6 82.9733 442.414 82.96 442.24 82.96C441.84 82.96 441.454 83.04 441.08 83.2C440.72 83.3467 440.394 83.5667 440.1 83.86C439.807 84.14 439.574 84.4867 439.4 84.9C439.24 85.3133 439.16 85.7867 439.16 86.32V92H437.04V81.22H438.72L439 83.14H439.08C439.307 82.7533 439.58 82.4 439.9 82.08C440.22 81.76 440.587 81.5067 441 81.32C441.414 81.12 441.867 81.02 442.36 81.02ZM452.696 88.96C452.696 89.6667 452.523 90.26 452.176 90.74C451.83 91.22 451.33 91.5867 450.676 91.84C450.023 92.08 449.236 92.2 448.316 92.2C447.556 92.2 446.903 92.14 446.356 92.02C445.823 91.9133 445.33 91.7533 444.876 91.54V89.68C445.356 89.9067 445.91 90.1133 446.536 90.3C447.163 90.4733 447.776 90.56 448.376 90.56C449.176 90.56 449.75 90.4333 450.096 90.18C450.456 89.9267 450.636 89.5867 450.636 89.16C450.636 88.92 450.57 88.7067 450.436 88.52C450.303 88.32 450.05 88.12 449.676 87.92C449.316 87.7067 448.783 87.4667 448.076 87.2C447.396 86.92 446.816 86.6467 446.336 86.38C445.856 86.1 445.49 85.7733 445.236 85.4C444.983 85.0133 444.856 84.52 444.856 83.92C444.856 82.9867 445.23 82.2733 445.976 81.78C446.736 81.2733 447.736 81.02 448.976 81.02C449.63 81.02 450.243 81.0867 450.816 81.22C451.403 81.34 451.97 81.5267 452.516 81.78L451.816 83.4C451.51 83.2533 451.19 83.1333 450.856 83.04C450.536 82.9333 450.21 82.8467 449.876 82.78C449.556 82.7133 449.223 82.68 448.876 82.68C448.236 82.68 447.75 82.78 447.416 82.98C447.083 83.18 446.916 83.46 446.916 83.82C446.916 84.0733 446.99 84.2933 447.136 84.48C447.296 84.6667 447.57 84.8533 447.956 85.04C448.343 85.2267 448.87 85.4533 449.536 85.72C450.203 85.9733 450.77 86.2333 451.236 86.5C451.716 86.7667 452.076 87.0933 452.316 87.48C452.57 87.8667 452.696 88.36 452.696 88.96Z" fill="#283043"/>
<path d="M39.2797 209H15.3277V203.96L23.9197 195.272C25.6477 193.48 27.0397 191.992 28.0957 190.808C29.1517 189.592 29.9197 188.504 30.3997 187.544C30.8797 186.552 31.1197 185.496 31.1197 184.376C31.1197 183 30.7357 181.976 29.9677 181.304C29.2317 180.632 28.2237 180.296 26.9437 180.296C25.6317 180.296 24.3517 180.6 23.1037 181.208C21.8557 181.816 20.5437 182.68 19.1677 183.8L15.2317 179.144C16.2237 178.28 17.2637 177.48 18.3517 176.744C19.4717 176.008 20.7517 175.416 22.1917 174.968C23.6637 174.488 25.4237 174.248 27.4717 174.248C29.7117 174.248 31.6317 174.664 33.2317 175.496C34.8637 176.296 36.1117 177.4 36.9757 178.808C37.8717 180.184 38.3197 181.752 38.3197 183.512C38.3197 184.952 38.0957 186.28 37.6477 187.496C37.2317 188.712 36.6077 189.896 35.7757 191.048C34.9757 192.168 33.9837 193.336 32.7997 194.552C31.6157 195.736 30.2717 197.032 28.7677 198.44L24.3517 202.568V202.904H39.2797V209ZM66.5565 191.864C66.5565 194.616 66.3325 197.08 65.8845 199.256C65.4685 201.432 64.7805 203.288 63.8205 204.824C62.8925 206.328 61.6605 207.48 60.1245 208.28C58.6205 209.08 56.7645 209.48 54.5565 209.48C51.8045 209.48 49.5485 208.776 47.7885 207.368C46.0285 205.96 44.7165 203.944 43.8525 201.32C43.0205 198.696 42.6045 195.544 42.6045 191.864C42.6045 188.152 42.9885 184.984 43.7565 182.36C44.5245 179.736 45.7885 177.72 47.5485 176.312C49.3085 174.904 51.6445 174.2 54.5565 174.2C57.3085 174.2 59.5645 174.904 61.3245 176.312C63.0845 177.688 64.3965 179.704 65.2605 182.36C66.1245 184.984 66.5565 188.152 66.5565 191.864ZM49.8045 191.864C49.8045 194.456 49.9485 196.632 50.2365 198.392C50.5245 200.12 51.0045 201.432 51.6765 202.328C52.3805 203.192 53.3405 203.624 54.5565 203.624C55.7725 203.624 56.7165 203.192 57.3885 202.328C58.0925 201.464 58.5885 200.168 58.8765 198.44C59.1965 196.68 59.3565 194.488 59.3565 191.864C59.3565 189.24 59.1965 187.064 58.8765 185.336C58.5885 183.576 58.0925 182.264 57.3885 181.4C56.7165 180.504 55.7725 180.056 54.5565 180.056C53.3405 180.056 52.3805 180.504 51.6765 181.4C51.0045 182.264 50.5245 183.576 50.2365 185.336C49.9485 187.064 49.8045 189.24 49.8045 191.864ZM94.0252 191.864C94.0252 194.616 93.8012 197.08 93.3532 199.256C92.9372 201.432 92.2492 203.288 91.2892 204.824C90.3612 206.328 89.1292 207.48 87.5932 208.28C86.0892 209.08 84.2332 209.48 82.0252 209.48C79.2732 209.48 77.0172 208.776 75.2572 207.368C73.4972 205.96 72.1852 203.944 71.3212 201.32C70.4892 198.696 70.0732 195.544 70.0732 191.864C70.0732 188.152 70.4572 184.984 71.2252 182.36C71.9932 179.736 73.2572 177.72 75.0172 176.312C76.7772 174.904 79.1132 174.2 82.0252 174.2C84.7772 174.2 87.0332 174.904 88.7932 176.312C90.5532 177.688 91.8652 179.704 92.7292 182.36C93.5932 184.984 94.0252 188.152 94.0252 191.864ZM77.2732 191.864C77.2732 194.456 77.4172 196.632 77.7052 198.392C77.9932 200.12 78.4732 201.432 79.1452 202.328C79.8492 203.192 80.8092 203.624 82.0252 203.624C83.2412 203.624 84.1852 203.192 84.8572 202.328C85.5612 201.464 86.0572 200.168 86.3452 198.44C86.6652 196.68 86.8252 194.488 86.8252 191.864C86.8252 189.24 86.6652 187.064 86.3452 185.336C86.0572 183.576 85.5612 182.264 84.8572 181.4C84.1852 180.504 83.2412 180.056 82.0252 180.056C80.8092 180.056 79.8492 180.504 79.1452 181.4C78.4732 182.264 77.9932 183.576 77.7052 185.336C77.4172 187.064 77.2732 189.24 77.2732 191.864ZM121.494 191.864C121.494 194.616 121.27 197.08 120.822 199.256C120.406 201.432 119.718 203.288 118.758 204.824C117.83 206.328 116.598 207.48 115.062 208.28C113.558 209.08 111.702 209.48 109.494 209.48C106.742 209.48 104.486 208.776 102.726 207.368C100.966 205.96 99.654 203.944 98.79 201.32C97.958 198.696 97.542 195.544 97.542 191.864C97.542 188.152 97.926 184.984 98.694 182.36C99.462 179.736 100.726 177.72 102.486 176.312C104.246 174.904 106.582 174.2 109.494 174.2C112.246 174.2 114.502 174.904 116.262 176.312C118.022 177.688 119.334 179.704 120.198 182.36C121.062 184.984 121.494 188.152 121.494 191.864ZM104.742 191.864C104.742 194.456 104.886 196.632 105.174 198.392C105.462 200.12 105.942 201.432 106.614 202.328C107.318 203.192 108.278 203.624 109.494 203.624C110.71 203.624 111.654 203.192 112.326 202.328C113.03 201.464 113.526 200.168 113.814 198.44C114.134 196.68 114.294 194.488 114.294 191.864C114.294 189.24 114.134 187.064 113.814 185.336C113.526 183.576 113.03 182.264 112.326 181.4C111.654 180.504 110.71 180.056 109.494 180.056C108.278 180.056 107.318 180.504 106.614 181.4C105.942 182.264 105.462 183.576 105.174 185.336C104.886 187.064 104.742 189.24 104.742 191.864ZM139.555 189.512H148.627V194.648H139.555V203.672H134.419V194.648H125.347V189.512H134.419V180.392H139.555V189.512Z" fill="#333333"/>
<path d="M20.5277 249L16.2077 236.86H16.1277C16.141 237.127 16.161 237.487 16.1877 237.94C16.2144 238.393 16.2344 238.88 16.2477 239.4C16.261 239.92 16.2677 240.433 16.2677 240.94V249H14.3077V234.72H17.3877L21.4877 246.18H21.5677L25.7877 234.72H28.8677V249H26.7677V240.82C26.7677 240.353 26.7744 239.873 26.7877 239.38C26.8144 238.873 26.8344 238.4 26.8477 237.96C26.8744 237.52 26.8944 237.16 26.9077 236.88H26.8277L22.3877 249H20.5277ZM36.6071 238.02C37.9671 238.02 38.9804 238.32 39.6471 238.92C40.3138 239.507 40.6471 240.433 40.6471 241.7V249H39.1471L38.7271 247.5H38.6471C38.3404 247.887 38.0204 248.207 37.6871 248.46C37.3671 248.713 36.9938 248.9 36.5671 249.02C36.1538 249.14 35.6471 249.2 35.0471 249.2C34.4071 249.2 33.8271 249.087 33.3071 248.86C32.8004 248.62 32.4004 248.26 32.1071 247.78C31.8138 247.287 31.6671 246.673 31.6671 245.94C31.6671 244.847 32.0804 244.013 32.9071 243.44C33.7471 242.867 35.0204 242.553 36.7271 242.5L38.5671 242.44V241.84C38.5671 241.04 38.3871 240.48 38.0271 240.16C37.6671 239.84 37.1604 239.68 36.5071 239.68C35.9471 239.68 35.4138 239.76 34.9071 239.92C34.4004 240.08 33.9204 240.273 33.4671 240.5L32.7871 238.96C33.2938 238.693 33.8738 238.473 34.5271 238.3C35.1938 238.113 35.8871 238.02 36.6071 238.02ZM37.1071 243.86C35.8804 243.913 35.0271 244.12 34.5471 244.48C34.0804 244.827 33.8471 245.32 33.8471 245.96C33.8471 246.52 34.0138 246.927 34.3471 247.18C34.6938 247.433 35.1271 247.56 35.6471 247.56C36.4871 247.56 37.1804 247.327 37.7271 246.86C38.2738 246.393 38.5471 245.693 38.5471 244.76V243.82L37.1071 243.86ZM49.3715 238.02C50.6248 238.02 51.5848 238.333 52.2515 238.96C52.9181 239.587 53.2515 240.593 53.2515 241.98V249H51.1515V242.28C51.1515 241.44 50.9715 240.813 50.6115 240.4C50.2648 239.973 49.7048 239.76 48.9315 239.76C47.8381 239.76 47.0781 240.087 46.6515 240.74C46.2381 241.393 46.0315 242.333 46.0315 243.56V249H43.9115V238.22H45.5915L45.8915 239.66H46.0115C46.2515 239.287 46.5448 238.98 46.8915 238.74C47.2381 238.5 47.6248 238.32 48.0515 238.2C48.4781 238.08 48.9181 238.02 49.3715 238.02ZM65.8844 241.4L69.3844 234.72H71.7044L66.9444 243.46V249H64.8044V243.54L60.0444 234.72H62.3844L65.8844 241.4ZM76.6085 238.02C77.5552 238.02 78.3685 238.22 79.0485 238.62C79.7285 239.007 80.2485 239.567 80.6085 240.3C80.9818 241.033 81.1685 241.9 81.1685 242.9V244.06H73.9285C73.9552 245.167 74.2418 246.013 74.7885 246.6C75.3485 247.187 76.1285 247.48 77.1285 247.48C77.8218 247.48 78.4352 247.42 78.9685 247.3C79.5152 247.167 80.0752 246.973 80.6485 246.72V248.48C80.1152 248.72 79.5685 248.9 79.0085 249.02C78.4618 249.14 77.8085 249.2 77.0485 249.2C76.0085 249.2 75.0885 248.993 74.2885 248.58C73.4885 248.167 72.8618 247.553 72.4085 246.74C71.9685 245.913 71.7485 244.9 71.7485 243.7C71.7485 242.487 71.9485 241.46 72.3485 240.62C72.7618 239.78 73.3285 239.14 74.0485 238.7C74.7818 238.247 75.6352 238.02 76.6085 238.02ZM76.6085 239.66C75.8485 239.66 75.2352 239.907 74.7685 240.4C74.3152 240.893 74.0485 241.593 73.9685 242.5H79.0485C79.0485 241.94 78.9618 241.447 78.7885 241.02C78.6152 240.593 78.3485 240.26 77.9885 240.02C77.6285 239.78 77.1685 239.66 76.6085 239.66ZM87.9938 238.02C89.3538 238.02 90.3671 238.32 91.0338 238.92C91.7005 239.507 92.0338 240.433 92.0338 241.7V249H90.5338L90.1138 247.5H90.0338C89.7271 247.887 89.4071 248.207 89.0738 248.46C88.7538 248.713 88.3805 248.9 87.9538 249.02C87.5405 249.14 87.0338 249.2 86.4338 249.2C85.7938 249.2 85.2138 249.087 84.6938 248.86C84.1871 248.62 83.7871 248.26 83.4938 247.78C83.2005 247.287 83.0538 246.673 83.0538 245.94C83.0538 244.847 83.4671 244.013 84.2938 243.44C85.1338 242.867 86.4071 242.553 88.1138 242.5L89.9538 242.44V241.84C89.9538 241.04 89.7738 240.48 89.4138 240.16C89.0538 239.84 88.5471 239.68 87.8938 239.68C87.3338 239.68 86.8005 239.76 86.2938 239.92C85.7871 240.08 85.3071 240.273 84.8538 240.5L84.1738 238.96C84.6805 238.693 85.2605 238.473 85.9138 238.3C86.5805 238.113 87.2738 238.02 87.9938 238.02ZM88.4938 243.86C87.2671 243.913 86.4138 244.12 85.9338 244.48C85.4671 244.827 85.2338 245.32 85.2338 245.96C85.2338 246.52 85.4005 246.927 85.7338 247.18C86.0805 247.433 86.5138 247.56 87.0338 247.56C87.8738 247.56 88.5671 247.327 89.1138 246.86C89.6605 246.393 89.9338 245.693 89.9338 244.76V243.82L88.4938 243.86ZM100.618 238.02C100.805 238.02 101.012 238.033 101.238 238.06C101.465 238.073 101.652 238.093 101.798 238.12L101.578 240.1C101.432 240.06 101.258 240.027 101.058 240C100.858 239.973 100.672 239.96 100.498 239.96C100.098 239.96 99.7115 240.04 99.3382 240.2C98.9782 240.347 98.6515 240.567 98.3582 240.86C98.0649 241.14 97.8315 241.487 97.6582 241.9C97.4982 242.313 97.4182 242.787 97.4182 243.32V249H95.2982V238.22H96.9782L97.2582 240.14H97.3382C97.5649 239.753 97.8382 239.4 98.1582 239.08C98.4782 238.76 98.8449 238.507 99.2582 238.32C99.6715 238.12 100.125 238.02 100.618 238.02ZM110.954 245.96C110.954 246.667 110.781 247.26 110.434 247.74C110.088 248.22 109.588 248.587 108.934 248.84C108.281 249.08 107.494 249.2 106.574 249.2C105.814 249.2 105.161 249.14 104.614 249.02C104.081 248.913 103.588 248.753 103.134 248.54V246.68C103.614 246.907 104.168 247.113 104.794 247.3C105.421 247.473 106.034 247.56 106.634 247.56C107.434 247.56 108.008 247.433 108.354 247.18C108.714 246.927 108.894 246.587 108.894 246.16C108.894 245.92 108.828 245.707 108.694 245.52C108.561 245.32 108.308 245.12 107.934 244.92C107.574 244.707 107.041 244.467 106.334 244.2C105.654 243.92 105.074 243.647 104.594 243.38C104.114 243.1 103.748 242.773 103.494 242.4C103.241 242.013 103.114 241.52 103.114 240.92C103.114 239.987 103.488 239.273 104.234 238.78C104.994 238.273 105.994 238.02 107.234 238.02C107.888 238.02 108.501 238.087 109.074 238.22C109.661 238.34 110.228 238.527 110.774 238.78L110.074 240.4C109.768 240.253 109.448 240.133 109.114 240.04C108.794 239.933 108.468 239.847 108.134 239.78C107.814 239.713 107.481 239.68 107.134 239.68C106.494 239.68 106.008 239.78 105.674 239.98C105.341 240.18 105.174 240.46 105.174 240.82C105.174 241.073 105.248 241.293 105.394 241.48C105.554 241.667 105.828 241.853 106.214 242.04C106.601 242.227 107.128 242.453 107.794 242.72C108.461 242.973 109.028 243.233 109.494 243.5C109.974 243.767 110.334 244.093 110.574 244.48C110.828 244.867 110.954 245.36 110.954 245.96ZM126.957 249H118.917V234.72H126.957V236.56H121.077V240.64H126.597V242.46H121.077V247.14H126.957V249ZM132.27 243.5L128.61 238.22H131.03L133.59 242.1L136.15 238.22H138.55L134.89 243.5L138.73 249H136.33L133.59 244.88L130.83 249H128.43L132.27 243.5ZM146.049 238.02C147.343 238.02 148.383 238.487 149.169 239.42C149.969 240.353 150.369 241.747 150.369 243.6C150.369 244.813 150.189 245.84 149.829 246.68C149.469 247.52 148.963 248.153 148.309 248.58C147.656 248.993 146.896 249.2 146.029 249.2C145.483 249.2 145.003 249.133 144.589 249C144.176 248.853 143.823 248.667 143.529 248.44C143.249 248.2 143.003 247.947 142.789 247.68H142.649C142.689 247.92 142.723 248.207 142.749 248.54C142.776 248.86 142.789 249.147 142.789 249.4V253.8H140.669V238.22H142.389L142.689 239.66H142.789C143.003 239.367 143.256 239.093 143.549 238.84C143.843 238.587 144.196 238.387 144.609 238.24C145.023 238.093 145.503 238.02 146.049 238.02ZM145.549 239.76C144.883 239.76 144.349 239.893 143.949 240.16C143.549 240.413 143.256 240.8 143.069 241.32C142.896 241.827 142.803 242.473 142.789 243.26V243.58C142.789 244.407 142.876 245.113 143.049 245.7C143.223 246.273 143.509 246.713 143.909 247.02C144.323 247.313 144.883 247.46 145.589 247.46C146.189 247.46 146.676 247.3 147.049 246.98C147.436 246.647 147.723 246.187 147.909 245.6C148.096 245.013 148.189 244.333 148.189 243.56C148.189 242.387 147.976 241.46 147.549 240.78C147.123 240.1 146.456 239.76 145.549 239.76Z" fill="#283043"/>
<path d="M316.608 209H292.656V203.96L301.248 195.272C302.976 193.48 304.368 191.992 305.424 190.808C306.48 189.592 307.248 188.504 307.728 187.544C308.208 186.552 308.448 185.496 308.448 184.376C308.448 183 308.064 181.976 307.296 181.304C306.56 180.632 305.552 180.296 304.272 180.296C302.96 180.296 301.68 180.6 300.432 181.208C299.184 181.816 297.872 182.68 296.496 183.8L292.56 179.144C293.552 178.28 294.592 177.48 295.68 176.744C296.8 176.008 298.08 175.416 299.52 174.968C300.992 174.488 302.752 174.248 304.8 174.248C307.04 174.248 308.96 174.664 310.56 175.496C312.192 176.296 313.44 177.4 314.304 178.808C315.2 180.184 315.648 181.752 315.648 183.512C315.648 184.952 315.424 186.28 314.976 187.496C314.56 188.712 313.936 189.896 313.104 191.048C312.304 192.168 311.312 193.336 310.128 194.552C308.944 195.736 307.6 197.032 306.096 198.44L301.68 202.568V202.904H316.608V209ZM332.605 187.112C334.685 187.112 336.541 187.512 338.173 188.312C339.805 189.112 341.085 190.28 342.013 191.816C342.973 193.352 343.453 195.256 343.453 197.528C343.453 199.992 342.941 202.12 341.917 203.912C340.893 205.704 339.357 207.08 337.309 208.04C335.293 209 332.781 209.48 329.773 209.48C327.981 209.48 326.285 209.32 324.685 209C323.117 208.68 321.741 208.216 320.557 207.608V201.368C321.741 201.976 323.165 202.504 324.829 202.952C326.493 203.368 328.061 203.576 329.533 203.576C330.973 203.576 332.173 203.384 333.133 203C334.125 202.616 334.877 202.024 335.389 201.224C335.901 200.424 336.157 199.4 336.157 198.152C336.157 196.456 335.597 195.176 334.477 194.312C333.357 193.416 331.629 192.968 329.293 192.968C328.397 192.968 327.469 193.064 326.509 193.256C325.549 193.416 324.749 193.576 324.109 193.736L321.229 192.2L322.525 174.728H341.101V180.872H328.861L328.237 187.592C328.781 187.496 329.357 187.4 329.965 187.304C330.605 187.176 331.485 187.112 332.605 187.112ZM371.353 191.864C371.353 194.616 371.129 197.08 370.681 199.256C370.265 201.432 369.577 203.288 368.617 204.824C367.689 206.328 366.457 207.48 364.921 208.28C363.417 209.08 361.561 209.48 359.353 209.48C356.601 209.48 354.345 208.776 352.585 207.368C350.825 205.96 349.513 203.944 348.649 201.32C347.817 198.696 347.401 195.544 347.401 191.864C347.401 188.152 347.785 184.984 348.553 182.36C349.321 179.736 350.585 177.72 352.345 176.312C354.105 174.904 356.441 174.2 359.353 174.2C362.105 174.2 364.361 174.904 366.121 176.312C367.881 177.688 369.193 179.704 370.057 182.36C370.921 184.984 371.353 188.152 371.353 191.864ZM354.601 191.864C354.601 194.456 354.745 196.632 355.033 198.392C355.321 200.12 355.801 201.432 356.473 202.328C357.177 203.192 358.137 203.624 359.353 203.624C360.569 203.624 361.513 203.192 362.185 202.328C362.889 201.464 363.385 200.168 363.673 198.44C363.993 196.68 364.153 194.488 364.153 191.864C364.153 189.24 363.993 187.064 363.673 185.336C363.385 183.576 362.889 182.264 362.185 181.4C361.513 180.504 360.569 180.056 359.353 180.056C358.137 180.056 357.177 180.504 356.473 181.4C355.801 182.264 355.321 183.576 355.033 185.336C354.745 187.064 354.601 189.24 354.601 191.864ZM398.822 191.864C398.822 194.616 398.598 197.08 398.15 199.256C397.734 201.432 397.046 203.288 396.086 204.824C395.158 206.328 393.926 207.48 392.39 208.28C390.886 209.08 389.03 209.48 386.822 209.48C384.07 209.48 381.814 208.776 380.054 207.368C378.294 205.96 376.982 203.944 376.118 201.32C375.286 198.696 374.87 195.544 374.87 191.864C374.87 188.152 375.254 184.984 376.022 182.36C376.79 179.736 378.054 177.72 379.814 176.312C381.574 174.904 383.91 174.2 386.822 174.2C389.574 174.2 391.83 174.904 393.59 176.312C395.35 177.688 396.662 179.704 397.526 182.36C398.39 184.984 398.822 188.152 398.822 191.864ZM382.07 191.864C382.07 194.456 382.214 196.632 382.502 198.392C382.79 200.12 383.27 201.432 383.942 202.328C384.646 203.192 385.606 203.624 386.822 203.624C388.038 203.624 388.982 203.192 389.654 202.328C390.358 201.464 390.854 200.168 391.142 198.44C391.462 196.68 391.622 194.488 391.622 191.864C391.622 189.24 391.462 187.064 391.142 185.336C390.854 183.576 390.358 182.264 389.654 181.4C388.982 180.504 388.038 180.056 386.822 180.056C385.606 180.056 384.646 180.504 383.942 181.4C383.27 182.264 382.79 183.576 382.502 185.336C382.214 187.064 382.07 189.24 382.07 191.864ZM416.883 189.512H425.955V194.648H416.883V203.672H411.747V194.648H402.675V189.512H411.747V180.392H416.883V189.512Z" fill="#333333"/>
<path d="M273.861 245.14C273.861 245.993 273.655 246.72 273.241 247.32C272.828 247.92 272.235 248.387 271.461 248.72C270.688 249.04 269.768 249.2 268.701 249.2C268.181 249.2 267.681 249.167 267.201 249.1C266.721 249.047 266.275 248.967 265.861 248.86C265.448 248.753 265.081 248.62 264.761 248.46V246.42C265.295 246.66 265.921 246.88 266.641 247.08C267.361 247.267 268.095 247.36 268.841 247.36C269.481 247.36 270.015 247.273 270.441 247.1C270.868 246.927 271.188 246.687 271.401 246.38C271.615 246.073 271.721 245.713 271.721 245.3C271.721 244.86 271.608 244.493 271.381 244.2C271.168 243.893 270.828 243.613 270.361 243.36C269.908 243.093 269.295 242.813 268.521 242.52C267.988 242.32 267.501 242.1 267.061 241.86C266.635 241.607 266.255 241.313 265.921 240.98C265.601 240.647 265.355 240.26 265.181 239.82C265.008 239.38 264.921 238.867 264.921 238.28C264.921 237.493 265.115 236.82 265.501 236.26C265.901 235.7 266.448 235.273 267.141 234.98C267.835 234.673 268.641 234.52 269.561 234.52C270.335 234.52 271.048 234.6 271.701 234.76C272.368 234.907 273.001 235.113 273.601 235.38L272.921 237.16C272.375 236.933 271.821 236.747 271.261 236.6C270.701 236.453 270.115 236.38 269.501 236.38C268.968 236.38 268.521 236.46 268.161 236.62C267.801 236.78 267.528 237 267.341 237.28C267.168 237.56 267.081 237.887 267.081 238.26C267.081 238.7 267.181 239.067 267.381 239.36C267.581 239.653 267.901 239.927 268.341 240.18C268.781 240.42 269.361 240.687 270.081 240.98C270.881 241.287 271.561 241.62 272.121 241.98C272.695 242.34 273.128 242.773 273.421 243.28C273.715 243.773 273.861 244.393 273.861 245.14ZM280.597 238.02C281.957 238.02 282.971 238.32 283.637 238.92C284.304 239.507 284.637 240.433 284.637 241.7V249H283.137L282.717 247.5H282.637C282.331 247.887 282.011 248.207 281.677 248.46C281.357 248.713 280.984 248.9 280.557 249.02C280.144 249.14 279.637 249.2 279.037 249.2C278.397 249.2 277.817 249.087 277.297 248.86C276.791 248.62 276.391 248.26 276.097 247.78C275.804 247.287 275.657 246.673 275.657 245.94C275.657 244.847 276.071 244.013 276.897 243.44C277.737 242.867 279.011 242.553 280.717 242.5L282.557 242.44V241.84C282.557 241.04 282.377 240.48 282.017 240.16C281.657 239.84 281.151 239.68 280.497 239.68C279.937 239.68 279.404 239.76 278.897 239.92C278.391 240.08 277.911 240.273 277.457 240.5L276.777 238.96C277.284 238.693 277.864 238.473 278.517 238.3C279.184 238.113 279.877 238.02 280.597 238.02ZM281.097 243.86C279.871 243.913 279.017 244.12 278.537 244.48C278.071 244.827 277.837 245.32 277.837 245.96C277.837 246.52 278.004 246.927 278.337 247.18C278.684 247.433 279.117 247.56 279.637 247.56C280.477 247.56 281.171 247.327 281.717 246.86C282.264 246.393 282.537 245.693 282.537 244.76V243.82L281.097 243.86ZM291.782 247.48C292.062 247.48 292.348 247.453 292.642 247.4C292.935 247.347 293.188 247.287 293.402 247.22V248.82C293.175 248.927 292.868 249.013 292.482 249.08C292.095 249.16 291.708 249.2 291.322 249.2C290.735 249.2 290.195 249.1 289.702 248.9C289.222 248.7 288.835 248.353 288.542 247.86C288.248 247.367 288.102 246.68 288.102 245.8V239.84H286.602V238.88L288.182 238.08L288.922 235.8H290.222V238.22H293.302V239.84H290.222V245.76C290.222 246.347 290.362 246.78 290.642 247.06C290.935 247.34 291.315 247.48 291.782 247.48ZM297.678 238.22V249H295.558V238.22H297.678ZM296.638 234.12C296.958 234.12 297.238 234.213 297.478 234.4C297.718 234.587 297.838 234.9 297.838 235.34C297.838 235.767 297.718 236.08 297.478 236.28C297.238 236.467 296.958 236.56 296.638 236.56C296.291 236.56 295.998 236.467 295.758 236.28C295.531 236.08 295.418 235.767 295.418 235.34C295.418 234.9 295.531 234.587 295.758 234.4C295.998 234.213 296.291 234.12 296.638 234.12ZM308.167 245.96C308.167 246.667 307.994 247.26 307.647 247.74C307.301 248.22 306.801 248.587 306.147 248.84C305.494 249.08 304.707 249.2 303.787 249.2C303.027 249.2 302.374 249.14 301.827 249.02C301.294 248.913 300.801 248.753 300.347 248.54V246.68C300.827 246.907 301.381 247.113 302.007 247.3C302.634 247.473 303.247 247.56 303.847 247.56C304.647 247.56 305.221 247.433 305.567 247.18C305.927 246.927 306.107 246.587 306.107 246.16C306.107 245.92 306.041 245.707 305.907 245.52C305.774 245.32 305.521 245.12 305.147 244.92C304.787 244.707 304.254 244.467 303.547 244.2C302.867 243.92 302.287 243.647 301.807 243.38C301.327 243.1 300.961 242.773 300.707 242.4C300.454 242.013 300.327 241.52 300.327 240.92C300.327 239.987 300.701 239.273 301.447 238.78C302.207 238.273 303.207 238.02 304.447 238.02C305.101 238.02 305.714 238.087 306.287 238.22C306.874 238.34 307.441 238.527 307.987 238.78L307.287 240.4C306.981 240.253 306.661 240.133 306.327 240.04C306.007 239.933 305.681 239.847 305.347 239.78C305.027 239.713 304.694 239.68 304.347 239.68C303.707 239.68 303.221 239.78 302.887 239.98C302.554 240.18 302.387 240.46 302.387 240.82C302.387 241.073 302.461 241.293 302.607 241.48C302.767 241.667 303.041 241.853 303.427 242.04C303.814 242.227 304.341 242.453 305.007 242.72C305.674 242.973 306.241 243.233 306.707 243.5C307.187 243.767 307.547 244.093 307.787 244.48C308.041 244.867 308.167 245.36 308.167 245.96ZM315.955 239.84H313.295V249H311.175V239.84H309.355V238.84L311.175 238.18V237.5C311.175 236.58 311.315 235.847 311.595 235.3C311.888 234.74 312.301 234.333 312.835 234.08C313.368 233.827 314.015 233.7 314.775 233.7C315.241 233.7 315.668 233.74 316.055 233.82C316.441 233.9 316.768 233.987 317.035 234.08L316.495 235.7C316.281 235.633 316.035 235.573 315.755 235.52C315.475 235.453 315.181 235.42 314.875 235.42C314.341 235.42 313.941 235.593 313.675 235.94C313.421 236.287 313.295 236.813 313.295 237.52V238.22H315.955V239.84ZM319.955 238.22V249H317.835V238.22H319.955ZM318.915 234.12C319.235 234.12 319.515 234.213 319.755 234.4C319.995 234.587 320.115 234.9 320.115 235.34C320.115 235.767 319.995 236.08 319.755 236.28C319.515 236.467 319.235 236.56 318.915 236.56C318.568 236.56 318.275 236.467 318.035 236.28C317.808 236.08 317.695 235.767 317.695 235.34C317.695 234.9 317.808 234.587 318.035 234.4C318.275 234.213 318.568 234.12 318.915 234.12ZM327.513 238.02C328.459 238.02 329.273 238.22 329.953 238.62C330.633 239.007 331.153 239.567 331.513 240.3C331.886 241.033 332.073 241.9 332.073 242.9V244.06H324.833C324.859 245.167 325.146 246.013 325.693 246.6C326.253 247.187 327.033 247.48 328.033 247.48C328.726 247.48 329.339 247.42 329.873 247.3C330.419 247.167 330.979 246.973 331.553 246.72V248.48C331.019 248.72 330.473 248.9 329.913 249.02C329.366 249.14 328.713 249.2 327.953 249.2C326.913 249.2 325.993 248.993 325.193 248.58C324.393 248.167 323.766 247.553 323.313 246.74C322.873 245.913 322.653 244.9 322.653 243.7C322.653 242.487 322.853 241.46 323.253 240.62C323.666 239.78 324.233 239.14 324.953 238.7C325.686 238.247 326.539 238.02 327.513 238.02ZM327.513 239.66C326.753 239.66 326.139 239.907 325.673 240.4C325.219 240.893 324.953 241.593 324.873 242.5H329.953C329.953 241.94 329.866 241.447 329.693 241.02C329.519 240.593 329.253 240.26 328.893 240.02C328.533 239.78 328.073 239.66 327.513 239.66ZM338.418 249.2C337.125 249.2 336.078 248.733 335.278 247.8C334.491 246.867 334.098 245.48 334.098 243.64C334.098 241.787 334.498 240.387 335.298 239.44C336.098 238.493 337.151 238.02 338.458 238.02C339.005 238.02 339.478 238.093 339.878 238.24C340.291 238.373 340.645 238.56 340.938 238.8C341.245 239.04 341.505 239.307 341.718 239.6H341.838C341.811 239.413 341.778 239.147 341.738 238.8C341.698 238.44 341.678 238.12 341.678 237.84V233.8H343.798V249H342.138L341.778 247.56H341.678C341.478 247.867 341.225 248.147 340.918 248.4C340.625 248.64 340.271 248.833 339.858 248.98C339.445 249.127 338.965 249.2 338.418 249.2ZM338.918 247.46C339.958 247.46 340.691 247.173 341.118 246.6C341.545 246.013 341.758 245.14 341.758 243.98V243.66C341.758 242.393 341.551 241.427 341.138 240.76C340.738 240.093 339.991 239.76 338.898 239.76C338.031 239.76 337.378 240.113 336.938 240.82C336.498 241.513 336.278 242.467 336.278 243.68C336.278 244.893 336.498 245.827 336.938 246.48C337.378 247.133 338.038 247.46 338.918 247.46ZM358.656 236.38C357.949 236.38 357.316 236.507 356.756 236.76C356.196 237 355.716 237.36 355.316 237.84C354.929 238.32 354.629 238.9 354.416 239.58C354.216 240.26 354.116 241.027 354.116 241.88C354.116 243 354.282 243.973 354.616 244.8C354.949 245.613 355.449 246.24 356.116 246.68C356.782 247.12 357.622 247.34 358.636 247.34C359.249 247.34 359.836 247.287 360.396 247.18C360.969 247.06 361.549 246.907 362.136 246.72V248.58C361.576 248.793 361.002 248.947 360.416 249.04C359.829 249.147 359.149 249.2 358.376 249.2C356.922 249.2 355.709 248.9 354.736 248.3C353.776 247.7 353.056 246.847 352.576 245.74C352.096 244.633 351.856 243.34 351.856 241.86C351.856 240.78 352.002 239.793 352.296 238.9C352.602 237.993 353.042 237.213 353.616 236.56C354.189 235.907 354.896 235.407 355.736 235.06C356.589 234.7 357.569 234.52 358.676 234.52C359.396 234.52 360.102 234.6 360.796 234.76C361.489 234.907 362.116 235.12 362.676 235.4L361.876 237.2C361.409 236.987 360.902 236.8 360.356 236.64C359.822 236.467 359.256 236.38 358.656 236.38ZM374.252 238.22V249H372.552L372.252 247.58H372.152C371.925 247.953 371.632 248.26 371.272 248.5C370.912 248.74 370.519 248.913 370.092 249.02C369.665 249.14 369.225 249.2 368.772 249.2C367.932 249.2 367.219 249.067 366.632 248.8C366.059 248.52 365.619 248.093 365.312 247.52C365.019 246.933 364.872 246.187 364.872 245.28V238.22H367.012V244.96C367.012 245.8 367.185 246.427 367.532 246.84C367.892 247.253 368.445 247.46 369.192 247.46C369.939 247.46 370.525 247.313 370.952 247.02C371.379 246.727 371.679 246.3 371.852 245.74C372.039 245.167 372.132 244.48 372.132 243.68V238.22H374.252ZM384.73 245.96C384.73 246.667 384.556 247.26 384.21 247.74C383.863 248.22 383.363 248.587 382.71 248.84C382.056 249.08 381.27 249.2 380.35 249.2C379.59 249.2 378.936 249.14 378.39 249.02C377.856 248.913 377.363 248.753 376.91 248.54V246.68C377.39 246.907 377.943 247.113 378.57 247.3C379.196 247.473 379.81 247.56 380.41 247.56C381.21 247.56 381.783 247.433 382.13 247.18C382.49 246.927 382.67 246.587 382.67 246.16C382.67 245.92 382.603 245.707 382.47 245.52C382.336 245.32 382.083 245.12 381.71 244.92C381.35 244.707 380.816 244.467 380.11 244.2C379.43 243.92 378.85 243.647 378.37 243.38C377.89 243.1 377.523 242.773 377.27 242.4C377.016 242.013 376.89 241.52 376.89 240.92C376.89 239.987 377.263 239.273 378.01 238.78C378.77 238.273 379.77 238.02 381.01 238.02C381.663 238.02 382.276 238.087 382.85 238.22C383.436 238.34 384.003 238.527 384.55 238.78L383.85 240.4C383.543 240.253 383.223 240.133 382.89 240.04C382.57 239.933 382.243 239.847 381.91 239.78C381.59 239.713 381.256 239.68 380.91 239.68C380.27 239.68 379.783 239.78 379.45 239.98C379.116 240.18 378.95 240.46 378.95 240.82C378.95 241.073 379.023 241.293 379.17 241.48C379.33 241.667 379.603 241.853 379.99 242.04C380.376 242.227 380.903 242.453 381.57 242.72C382.236 242.973 382.803 243.233 383.27 243.5C383.75 243.767 384.11 244.093 384.35 244.48C384.603 244.867 384.73 245.36 384.73 245.96ZM391.137 247.48C391.417 247.48 391.704 247.453 391.997 247.4C392.291 247.347 392.544 247.287 392.757 247.22V248.82C392.531 248.927 392.224 249.013 391.837 249.08C391.451 249.16 391.064 249.2 390.677 249.2C390.091 249.2 389.551 249.1 389.057 248.9C388.577 248.7 388.191 248.353 387.897 247.86C387.604 247.367 387.457 246.68 387.457 245.8V239.84H385.957V238.88L387.537 238.08L388.277 235.8H389.577V238.22H392.657V239.84H389.577V245.76C389.577 246.347 389.717 246.78 389.997 247.06C390.291 247.34 390.671 247.48 391.137 247.48ZM404.413 243.6C404.413 244.493 404.293 245.287 404.053 245.98C403.813 246.673 403.473 247.26 403.033 247.74C402.593 248.22 402.06 248.587 401.433 248.84C400.807 249.08 400.1 249.2 399.313 249.2C398.593 249.2 397.927 249.08 397.313 248.84C396.7 248.587 396.167 248.22 395.713 247.74C395.273 247.26 394.927 246.673 394.673 245.98C394.42 245.287 394.293 244.487 394.293 243.58C394.293 242.393 394.493 241.387 394.893 240.56C395.307 239.733 395.893 239.107 396.653 238.68C397.427 238.24 398.333 238.02 399.373 238.02C400.36 238.02 401.227 238.24 401.973 238.68C402.733 239.107 403.327 239.733 403.753 240.56C404.193 241.387 404.413 242.4 404.413 243.6ZM396.473 243.6C396.473 244.4 396.573 245.093 396.773 245.68C396.973 246.253 397.287 246.693 397.713 247C398.14 247.307 398.687 247.46 399.353 247.46C400.02 247.46 400.567 247.307 400.993 247C401.42 246.693 401.733 246.253 401.933 245.68C402.133 245.093 402.233 244.4 402.233 243.6C402.233 242.773 402.127 242.08 401.913 241.52C401.713 240.96 401.4 240.533 400.973 240.24C400.56 239.933 400.013 239.78 399.333 239.78C398.333 239.78 397.607 240.113 397.153 240.78C396.7 241.447 396.473 242.387 396.473 243.6ZM419.181 238.02C420.394 238.02 421.308 238.333 421.921 238.96C422.534 239.587 422.841 240.593 422.841 241.98V249H420.721V242.26C420.721 241.433 420.554 240.813 420.221 240.4C419.901 239.973 419.394 239.76 418.701 239.76C417.741 239.76 417.054 240.06 416.641 240.66C416.228 241.247 416.021 242.1 416.021 243.22V249H413.921V242.26C413.921 241.713 413.841 241.253 413.681 240.88C413.534 240.507 413.314 240.227 413.021 240.04C412.728 239.853 412.348 239.76 411.881 239.76C411.214 239.76 410.688 239.907 410.301 240.2C409.914 240.493 409.634 240.927 409.461 241.5C409.301 242.06 409.221 242.747 409.221 243.56V249H407.101V238.22H408.781L409.081 239.66H409.201C409.428 239.287 409.701 238.98 410.021 238.74C410.354 238.5 410.721 238.32 411.121 238.2C411.521 238.08 411.934 238.02 412.361 238.02C413.174 238.02 413.861 238.167 414.421 238.46C414.981 238.74 415.388 239.173 415.641 239.76H415.801C416.148 239.16 416.628 238.72 417.241 238.44C417.854 238.16 418.501 238.02 419.181 238.02ZM430.325 238.02C431.272 238.02 432.085 238.22 432.765 238.62C433.445 239.007 433.965 239.567 434.325 240.3C434.699 241.033 434.885 241.9 434.885 242.9V244.06H427.645C427.672 245.167 427.959 246.013 428.505 246.6C429.065 247.187 429.845 247.48 430.845 247.48C431.539 247.48 432.152 247.42 432.685 247.3C433.232 247.167 433.792 246.973 434.365 246.72V248.48C433.832 248.72 433.285 248.9 432.725 249.02C432.179 249.14 431.525 249.2 430.765 249.2C429.725 249.2 428.805 248.993 428.005 248.58C427.205 248.167 426.579 247.553 426.125 246.74C425.685 245.913 425.465 244.9 425.465 243.7C425.465 242.487 425.665 241.46 426.065 240.62C426.479 239.78 427.045 239.14 427.765 238.7C428.499 238.247 429.352 238.02 430.325 238.02ZM430.325 239.66C429.565 239.66 428.952 239.907 428.485 240.4C428.032 240.893 427.765 241.593 427.685 242.5H432.765C432.765 241.94 432.679 241.447 432.505 241.02C432.332 240.593 432.065 240.26 431.705 240.02C431.345 239.78 430.885 239.66 430.325 239.66ZM442.851 238.02C443.037 238.02 443.244 238.033 443.471 238.06C443.697 238.073 443.884 238.093 444.031 238.12L443.811 240.1C443.664 240.06 443.491 240.027 443.291 240C443.091 239.973 442.904 239.96 442.731 239.96C442.331 239.96 441.944 240.04 441.571 240.2C441.211 240.347 440.884 240.567 440.591 240.86C440.297 241.14 440.064 241.487 439.891 241.9C439.731 242.313 439.651 242.787 439.651 243.32V249H437.531V238.22H439.211L439.491 240.14H439.571C439.797 239.753 440.071 239.4 440.391 239.08C440.711 238.76 441.077 238.507 441.491 238.32C441.904 238.12 442.357 238.02 442.851 238.02ZM453.187 245.96C453.187 246.667 453.013 247.26 452.667 247.74C452.32 248.22 451.82 248.587 451.167 248.84C450.513 249.08 449.727 249.2 448.807 249.2C448.047 249.2 447.393 249.14 446.847 249.02C446.313 248.913 445.82 248.753 445.367 248.54V246.68C445.847 246.907 446.4 247.113 447.027 247.3C447.653 247.473 448.267 247.56 448.867 247.56C449.667 247.56 450.24 247.433 450.587 247.18C450.947 246.927 451.127 246.587 451.127 246.16C451.127 245.92 451.06 245.707 450.927 245.52C450.793 245.32 450.54 245.12 450.167 244.92C449.807 244.707 449.273 244.467 448.567 244.2C447.887 243.92 447.307 243.647 446.827 243.38C446.347 243.1 445.98 242.773 445.727 242.4C445.473 242.013 445.347 241.52 445.347 240.92C445.347 239.987 445.72 239.273 446.467 238.78C447.227 238.273 448.227 238.02 449.467 238.02C450.12 238.02 450.733 238.087 451.307 238.22C451.893 238.34 452.46 238.527 453.007 238.78L452.307 240.4C452 240.253 451.68 240.133 451.347 240.04C451.027 239.933 450.7 239.847 450.367 239.78C450.047 239.713 449.713 239.68 449.367 239.68C448.727 239.68 448.24 239.78 447.907 239.98C447.573 240.18 447.407 240.46 447.407 240.82C447.407 241.073 447.48 241.293 447.627 241.48C447.787 241.667 448.06 241.853 448.447 242.04C448.833 242.227 449.36 242.453 450.027 242.72C450.693 242.973 451.26 243.233 451.727 243.5C452.207 243.767 452.567 244.093 452.807 244.48C453.06 244.867 453.187 245.36 453.187 245.96Z" fill="#283043"/>
<line x1="213.908" y1="2.18557e-08" x2="213.908" y2="101" stroke="#DFDFDF"/>
<line x1="213.908" y1="157" x2="213.908" y2="258" stroke="#DFDFDF"/>
</svg>
