<svg width="400" height="51" viewBox="0 0 400 51" fill="none" xmlns="http://www.w3.org/2000/svg">
<rect x="290.312" y="0.712891" width="0.91954" height="49.6552" fill="#656565"/>
<path d="M312.164 15.3618H313.65C313.612 16.17 313.448 16.8677 313.157 17.455C312.872 18.0369 312.455 18.4841 311.906 18.7966C311.362 19.1091 310.681 19.2653 309.863 19.2653C309.276 19.2653 308.746 19.1495 308.272 18.9178C307.799 18.6861 307.392 18.3548 307.053 17.9237C306.719 17.4873 306.464 16.9647 306.286 16.3558C306.108 15.747 306.02 15.0627 306.02 14.303V12.129C306.02 11.3747 306.108 10.6931 306.286 10.0843C306.469 9.47545 306.73 8.95552 307.069 8.52448C307.414 8.08806 307.831 7.75401 308.321 7.52233C308.816 7.29065 309.376 7.1748 310 7.1748C310.765 7.1748 311.411 7.32836 311.938 7.63547C312.471 7.9372 312.88 8.3817 313.166 8.96899C313.456 9.55088 313.618 10.2648 313.65 11.1107H312.164C312.127 10.4911 312.03 9.9873 311.874 9.59937C311.717 9.20605 311.486 8.9178 311.179 8.73461C310.878 8.54603 310.485 8.45174 310 8.45174C309.57 8.45174 309.196 8.53795 308.878 8.71037C308.566 8.88278 308.307 9.13062 308.103 9.4539C307.904 9.77179 307.753 10.157 307.651 10.6096C307.554 11.0568 307.505 11.5579 307.505 12.1128V14.303C307.505 14.8203 307.546 15.3025 307.626 15.7497C307.712 16.1969 307.847 16.5902 308.03 16.9297C308.219 17.2637 308.463 17.525 308.765 17.7136C309.066 17.9022 309.432 17.9965 309.863 17.9965C310.407 17.9965 310.837 17.9076 311.155 17.7298C311.473 17.552 311.707 17.2691 311.857 16.8812C312.014 16.4932 312.116 15.9868 312.164 15.3618Z" fill="#656565"/>
<path d="M316.129 7.33644H317.566L320.643 16.9297L323.711 7.33644H325.148L321.2 19.1037H320.069L316.129 7.33644ZM315.661 7.33644H316.92L317.138 14.5132V19.1037H315.661V7.33644ZM324.349 7.33644H325.608V19.1037H324.131V14.5132L324.349 7.33644Z" fill="#656565"/>
<path d="M328.628 7.33644H330.066L333.142 16.9297L336.21 7.33644H337.648L333.699 19.1037H332.569L328.628 7.33644ZM328.16 7.33644H329.42L329.638 14.5132V19.1037H328.16V7.33644ZM336.848 7.33644H338.108V19.1037H336.63V14.5132L336.848 7.33644Z" fill="#656565"/>
<path d="M342.21 7.33644V19.1037H340.724V7.33644H342.21Z" fill="#656565"/>
<path d="M354.685 17.8348V19.1037H349.808V17.8348H354.685ZM350.074 7.33644V19.1037H348.589V7.33644H350.074Z" fill="#656565"/>
<path d="M362.776 17.8348V19.1037H357.673V17.8348H362.776ZM357.939 7.33644V19.1037H356.453V7.33644H357.939ZM362.089 12.3957V13.6646H357.673V12.3957H362.089ZM362.695 7.33644V8.61338H357.673V7.33644H362.695Z" fill="#656565"/>
<path d="M367.903 17.3176L370.729 7.33644H372.344L368.694 19.1037H367.556L367.903 17.3176ZM365.368 7.33644L368.17 17.3176L368.541 19.1037H367.402L363.753 7.33644H365.368Z" fill="#656565"/>
<path d="M380.265 17.8348V19.1037H375.162V17.8348H380.265ZM375.429 7.33644V19.1037H373.943V7.33644H375.429ZM379.579 12.3957V13.6646H375.162V12.3957H379.579ZM380.184 7.33644V8.61338H375.162V7.33644H380.184Z" fill="#656565"/>
<path d="M388.259 17.8348V19.1037H383.382V17.8348H388.259ZM383.648 7.33644V19.1037H382.163V7.33644H383.648Z" fill="#656565"/>
<path d="M395.332 12.4846H396.253C396.662 12.4846 397.001 12.3984 397.27 12.226C397.539 12.0482 397.739 11.8084 397.868 11.5067C398.002 11.1996 398.07 10.8548 398.07 10.4722C398.07 10.0196 398.01 9.63978 397.892 9.33267C397.774 9.02556 397.596 8.79388 397.359 8.63763C397.128 8.48138 396.834 8.40325 396.479 8.40325C396.145 8.40325 395.855 8.48677 395.607 8.65379C395.359 8.81543 395.168 9.04711 395.034 9.34883C394.899 9.65056 394.832 10.0062 394.832 10.4156H393.411C393.411 9.81758 393.534 9.2734 393.782 8.7831C394.035 8.2928 394.39 7.90218 394.848 7.61123C395.311 7.32028 395.855 7.1748 396.479 7.1748C397.076 7.1748 397.601 7.30142 398.054 7.55465C398.506 7.8025 398.858 8.17427 399.111 8.66996C399.37 9.16026 399.499 9.77179 399.499 10.5045C399.499 10.8009 399.442 11.1188 399.329 11.4582C399.222 11.7923 399.047 12.1048 398.804 12.3957C398.568 12.6867 398.255 12.9264 397.868 13.115C397.486 13.2982 397.017 13.3898 396.463 13.3898H395.332V12.4846ZM395.332 13.7131V12.816H396.463C397.12 12.816 397.655 12.9049 398.07 13.0827C398.484 13.2605 398.804 13.4975 399.031 13.7939C399.257 14.0902 399.413 14.4162 399.499 14.7718C399.59 15.122 399.636 15.4722 399.636 15.8224C399.636 16.372 399.555 16.8596 399.394 17.2853C399.238 17.7109 399.014 18.0719 398.724 18.3682C398.438 18.6646 398.105 18.8882 397.722 19.039C397.34 19.1899 396.923 19.2653 396.471 19.2653C396.029 19.2653 395.62 19.1926 395.244 19.0471C394.867 18.9016 394.536 18.6915 394.25 18.4167C393.965 18.1365 393.742 17.7944 393.58 17.3903C393.424 16.9808 393.346 16.5148 393.346 15.9922H394.775C394.775 16.4016 394.843 16.7599 394.977 17.067C395.112 17.3742 395.305 17.6139 395.558 17.7863C395.811 17.9534 396.116 18.0369 396.471 18.0369C396.826 18.0369 397.133 17.9587 397.391 17.8025C397.65 17.6409 397.849 17.3984 397.989 17.0751C398.134 16.7519 398.207 16.3451 398.207 15.8548C398.207 15.3645 398.126 14.9631 397.965 14.6506C397.809 14.3327 397.585 14.0983 397.295 13.9474C397.004 13.7912 396.657 13.7131 396.253 13.7131H395.332Z" fill="#656565"/>
<path d="M307.828 31.2446V43.0119H306.343V31.2446H307.828Z" fill="#656565"/>
<path d="M315.556 40.0377C315.556 39.763 315.524 39.5205 315.459 39.3104C315.394 39.0949 315.281 38.9009 315.12 38.7285C314.958 38.5561 314.732 38.3917 314.442 38.2355C314.151 38.0792 313.782 37.9203 313.335 37.7587C312.851 37.5862 312.412 37.395 312.019 37.1848C311.626 36.9693 311.29 36.7242 311.01 36.4494C310.735 36.1746 310.523 35.8594 310.372 35.5038C310.221 35.1482 310.146 34.7414 310.146 34.2834C310.146 33.8255 310.224 33.4025 310.38 33.0146C310.542 32.6267 310.768 32.2899 311.058 32.0043C311.354 31.7134 311.71 31.4871 312.124 31.3255C312.539 31.1638 313.002 31.083 313.513 31.083C314.277 31.083 314.921 31.2527 315.443 31.5922C315.97 31.9262 316.369 32.3653 316.638 32.9095C316.907 33.4483 317.042 34.0248 317.042 34.639H315.556C315.556 34.1972 315.483 33.8066 315.338 33.4672C315.198 33.1223 314.977 32.8529 314.676 32.659C314.38 32.4596 313.992 32.3599 313.513 32.3599C313.082 32.3599 312.727 32.4435 312.447 32.6105C312.173 32.7775 311.968 33.0038 311.833 33.2894C311.704 33.5749 311.64 33.9009 311.64 34.2673C311.64 34.5151 311.683 34.7414 311.769 34.9462C311.855 35.1455 311.987 35.3314 312.165 35.5038C312.348 35.6762 312.574 35.8352 312.843 35.9806C313.117 36.1261 313.44 36.2662 313.812 36.4009C314.388 36.5895 314.88 36.7996 315.289 37.0313C315.699 37.263 316.032 37.5243 316.291 37.8152C316.549 38.1008 316.737 38.4268 316.856 38.7931C316.98 39.1541 317.042 39.5636 317.042 40.0216C317.042 40.5011 316.961 40.9348 316.799 41.3228C316.643 41.7107 316.414 42.0421 316.113 42.3168C315.812 42.5916 315.448 42.8045 315.023 42.9553C314.598 43.1008 314.119 43.1735 313.586 43.1735C313.123 43.1735 312.668 43.0981 312.221 42.9472C311.78 42.7964 311.379 42.5701 311.018 42.2684C310.657 41.9666 310.369 41.5949 310.154 41.1531C309.939 40.7059 309.831 40.1886 309.831 39.6013H311.317C311.317 40.0054 311.376 40.3529 311.494 40.6439C311.613 40.9295 311.777 41.1665 311.987 41.3551C312.197 41.5437 312.436 41.6838 312.706 41.7754C312.98 41.8616 313.273 41.9047 313.586 41.9047C314.016 41.9047 314.377 41.8292 314.668 41.6784C314.964 41.5275 315.184 41.312 315.33 41.0318C315.48 40.7516 315.556 40.4203 315.556 40.0377Z" fill="#656565"/>
<path d="M326.634 36.1099V38.1547C326.634 38.9844 326.543 39.7145 326.36 40.3449C326.182 40.9699 325.921 41.4925 325.576 41.9127C325.232 42.333 324.817 42.6482 324.333 42.8583C323.848 43.0685 323.302 43.1735 322.694 43.1735C322.107 43.1735 321.571 43.0685 321.087 42.8583C320.602 42.6482 320.185 42.333 319.835 41.9127C319.485 41.4925 319.214 40.9699 319.02 40.3449C318.831 39.7145 318.737 38.9844 318.737 38.1547V36.1099C318.737 35.2802 318.831 34.5528 319.02 33.9278C319.208 33.2974 319.477 32.7721 319.827 32.3519C320.177 31.9316 320.594 31.6164 321.079 31.4063C321.563 31.1908 322.099 31.083 322.686 31.083C323.294 31.083 323.84 31.1908 324.325 31.4063C324.815 31.6164 325.229 31.9316 325.568 32.3519C325.913 32.7721 326.177 33.2974 326.36 33.9278C326.543 34.5528 326.634 35.2802 326.634 36.1099ZM325.165 38.1547V36.0938C325.165 35.4472 325.111 34.8923 325.003 34.4289C324.895 33.9602 324.737 33.5776 324.527 33.2813C324.317 32.9849 324.058 32.7667 323.752 32.6267C323.445 32.4812 323.089 32.4084 322.686 32.4084C322.304 32.4084 321.959 32.4812 321.652 32.6267C321.351 32.7667 321.092 32.9849 320.877 33.2813C320.662 33.5776 320.495 33.9602 320.376 34.4289C320.263 34.8923 320.207 35.4472 320.207 36.0938V38.1547C320.207 38.8066 320.263 39.367 320.376 39.8357C320.495 40.2991 320.662 40.6816 320.877 40.9833C321.098 41.2797 321.361 41.5006 321.668 41.646C321.975 41.7861 322.317 41.8562 322.694 41.8562C323.098 41.8562 323.453 41.7861 323.76 41.646C324.072 41.5006 324.33 41.2797 324.535 40.9833C324.745 40.6816 324.901 40.2991 325.003 39.8357C325.111 39.367 325.165 38.8066 325.165 38.1547Z" fill="#656565"/>
<path d="M333.699 41.7592H333.812C334.539 41.7592 335.123 41.638 335.565 41.3955C336.006 41.1531 336.337 40.8271 336.558 40.4176C336.784 40.0081 336.935 39.5474 337.01 39.0356C337.091 38.5184 337.131 37.9876 337.131 37.4435V35.6412C337.131 35.1078 337.08 34.6337 336.978 34.2188C336.881 33.8039 336.749 33.4564 336.582 33.1762C336.421 32.896 336.235 32.6832 336.025 32.5377C335.82 32.3923 335.61 32.3195 335.395 32.3195C335.121 32.3195 334.878 32.3896 334.668 32.5297C334.458 32.6644 334.281 32.8556 334.135 33.1035C333.995 33.3513 333.888 33.6423 333.812 33.9763C333.737 34.3104 333.699 34.6741 333.699 35.0674C333.699 35.4176 333.732 35.757 333.796 36.0857C333.861 36.4144 333.961 36.7107 334.095 36.9747C334.235 37.2387 334.407 37.4488 334.612 37.6051C334.822 37.756 335.069 37.8314 335.355 37.8314C335.592 37.8314 335.82 37.7667 336.041 37.6374C336.267 37.5027 336.472 37.3222 336.655 37.0959C336.838 36.8643 336.988 36.6029 337.107 36.312C337.225 36.021 337.295 35.7166 337.317 35.3987H337.987C337.987 35.8459 337.914 36.2877 337.769 36.7242C337.629 37.1552 337.427 37.5485 337.163 37.9041C336.905 38.2597 336.601 38.5453 336.251 38.7608C335.906 38.9709 335.527 39.076 335.112 39.076C334.612 39.076 334.184 38.9629 333.829 38.7366C333.473 38.5103 333.183 38.2085 332.957 37.8314C332.736 37.4542 332.572 37.034 332.464 36.5706C332.356 36.1019 332.303 35.6277 332.303 35.1482C332.303 34.5879 332.367 34.0625 332.496 33.5722C332.626 33.0819 332.817 32.6509 333.07 32.2791C333.328 31.902 333.651 31.6083 334.039 31.3982C334.426 31.1881 334.878 31.083 335.395 31.083C335.971 31.083 336.461 31.2177 336.865 31.4871C337.268 31.7565 337.594 32.1175 337.842 32.5701C338.089 33.0227 338.27 33.5318 338.383 34.0976C338.496 34.6633 338.552 35.2452 338.552 35.8432V36.3847C338.552 36.9936 338.523 37.6132 338.463 38.2436C338.41 38.8686 338.294 39.4666 338.116 40.0377C337.944 40.6089 337.686 41.1207 337.341 41.5733C336.997 42.0205 336.536 42.3761 335.96 42.6401C335.39 42.8987 334.674 43.0281 333.812 43.0281H333.708L333.699 41.7592Z" fill="#656565"/>
<path d="M346.861 36.1908V37.9849C346.861 38.9494 346.786 39.763 346.635 40.4257C346.49 41.0884 346.28 41.6218 346.005 42.0259C345.731 42.43 345.399 42.7236 345.012 42.9068C344.63 43.0846 344.199 43.1735 343.72 43.1735C343.343 43.1735 342.991 43.117 342.662 43.0038C342.339 42.8907 342.049 42.7102 341.79 42.4623C341.532 42.2091 341.311 41.8804 341.128 41.4763C340.945 41.0722 340.805 40.5819 340.708 40.0054C340.611 39.4289 340.563 38.7554 340.563 37.9849V36.1908C340.563 35.2263 340.638 34.4181 340.789 33.7662C340.94 33.1143 341.152 32.5916 341.427 32.1983C341.707 31.7996 342.038 31.514 342.42 31.3416C342.808 31.1692 343.238 31.083 343.712 31.083C344.094 31.083 344.447 31.1396 344.77 31.2527C345.098 31.3605 345.389 31.5356 345.642 31.7781C345.9 32.0151 346.121 32.333 346.304 32.7317C346.487 33.125 346.624 33.6073 346.716 34.1784C346.813 34.7495 346.861 35.4203 346.861 36.1908ZM345.44 38.2274V35.9402C345.44 35.4122 345.416 34.9488 345.367 34.5501C345.319 34.146 345.249 33.8012 345.157 33.5157C345.066 33.2301 344.947 32.9984 344.802 32.8206C344.662 32.6428 344.501 32.5135 344.317 32.4327C344.134 32.3465 343.933 32.3034 343.712 32.3034C343.437 32.3034 343.192 32.3707 342.977 32.5054C342.767 32.6347 342.587 32.8422 342.436 33.1277C342.291 33.4133 342.18 33.7877 342.105 34.2511C342.03 34.7145 341.992 35.2775 341.992 35.9402V38.2274C341.992 38.7554 342.016 39.2215 342.065 39.6256C342.119 40.0297 342.191 40.3799 342.283 40.6762C342.38 40.9672 342.498 41.2069 342.638 41.3955C342.778 41.5841 342.939 41.7242 343.122 41.8158C343.305 41.902 343.505 41.9451 343.72 41.9451C344.005 41.9451 344.253 41.875 344.463 41.7349C344.678 41.5949 344.858 41.3766 345.004 41.0803C345.149 40.7786 345.257 40.3934 345.327 39.9246C345.402 39.4505 345.44 38.8847 345.44 38.2274Z" fill="#656565"/>
<path d="M355.032 36.1908V37.9849C355.032 38.9494 354.957 39.763 354.806 40.4257C354.661 41.0884 354.451 41.6218 354.177 42.0259C353.902 42.43 353.571 42.7236 353.183 42.9068C352.801 43.0846 352.371 43.1735 351.891 43.1735C351.515 43.1735 351.162 43.117 350.834 43.0038C350.511 42.8907 350.22 42.7102 349.962 42.4623C349.703 42.2091 349.483 41.8804 349.3 41.4763C349.116 41.0722 348.977 40.5819 348.88 40.0054C348.783 39.4289 348.734 38.7554 348.734 37.9849V36.1908C348.734 35.2263 348.81 34.4181 348.96 33.7662C349.111 33.1143 349.324 32.5916 349.598 32.1983C349.878 31.7996 350.209 31.514 350.591 31.3416C350.979 31.1692 351.41 31.083 351.883 31.083C352.266 31.083 352.618 31.1396 352.941 31.2527C353.27 31.3605 353.56 31.5356 353.813 31.7781C354.072 32.0151 354.292 32.333 354.475 32.7317C354.658 33.125 354.796 33.6073 354.887 34.1784C354.984 34.7495 355.032 35.4203 355.032 36.1908ZM353.611 38.2274V35.9402C353.611 35.4122 353.587 34.9488 353.539 34.5501C353.49 34.146 353.42 33.8012 353.329 33.5157C353.237 33.2301 353.119 32.9984 352.973 32.8206C352.833 32.6428 352.672 32.5135 352.489 32.4327C352.306 32.3465 352.104 32.3034 351.883 32.3034C351.609 32.3034 351.364 32.3707 351.149 32.5054C350.939 32.6347 350.758 32.8422 350.608 33.1277C350.462 33.4133 350.352 33.7877 350.277 34.2511C350.201 34.7145 350.163 35.2775 350.163 35.9402V38.2274C350.163 38.7554 350.188 39.2215 350.236 39.6256C350.29 40.0297 350.363 40.3799 350.454 40.6762C350.551 40.9672 350.669 41.2069 350.809 41.3955C350.949 41.5841 351.111 41.7242 351.294 41.8158C351.477 41.902 351.676 41.9451 351.891 41.9451C352.177 41.9451 352.424 41.875 352.634 41.7349C352.85 41.5949 353.03 41.3766 353.175 41.0803C353.321 40.7786 353.428 40.3934 353.498 39.9246C353.574 39.4505 353.611 38.8847 353.611 38.2274Z" fill="#656565"/>
<path d="M361.177 31.18V43.0119H359.748V33.0469L357.277 34.146V32.7964L360.959 31.18H361.177Z" fill="#656565"/>
<path d="M365.263 42.2199C365.263 41.9666 365.341 41.7538 365.497 41.5814C365.659 41.4036 365.89 41.3147 366.192 41.3147C366.493 41.3147 366.722 41.4036 366.878 41.5814C367.039 41.7538 367.12 41.9666 367.12 42.2199C367.12 42.4677 367.039 42.6778 366.878 42.8502C366.722 43.0227 366.493 43.1089 366.192 43.1089C365.89 43.1089 365.659 43.0227 365.497 42.8502C365.341 42.6778 365.263 42.4677 365.263 42.2199ZM365.255 35.0835C365.255 34.8303 365.333 34.6175 365.489 34.4451C365.651 34.2673 365.882 34.1784 366.183 34.1784C366.485 34.1784 366.714 34.2673 366.87 34.4451C367.031 34.6175 367.112 34.8303 367.112 35.0835C367.112 35.3314 367.031 35.5415 366.87 35.7139C366.714 35.8863 366.485 35.9726 366.183 35.9726C365.882 35.9726 365.651 35.8863 365.489 35.7139C365.333 35.5415 365.255 35.3314 365.255 35.0835Z" fill="#656565"/>
<path d="M375.526 41.7834V43.0119H368.953V41.937L372.191 37.6455C372.589 37.1175 372.893 36.6703 373.103 36.3039C373.313 35.9321 373.459 35.6008 373.539 35.3098C373.62 35.0135 373.66 34.7118 373.66 34.4047C373.66 34.0167 373.599 33.6665 373.475 33.354C373.351 33.0361 373.171 32.7829 372.934 32.5943C372.697 32.4057 372.412 32.3115 372.078 32.3115C371.642 32.3115 371.284 32.4138 371.004 32.6186C370.729 32.8179 370.528 33.0981 370.398 33.4591C370.269 33.8201 370.205 34.2349 370.205 34.7037H368.775C368.775 34.041 368.896 33.4348 369.139 32.8853C369.386 32.3357 369.755 31.8993 370.245 31.576C370.735 31.2473 371.346 31.083 372.078 31.083C372.708 31.083 373.246 31.215 373.693 31.479C374.145 31.7376 374.489 32.104 374.726 32.5782C374.969 33.0469 375.09 33.5965 375.09 34.2269C375.09 34.5717 375.041 34.9219 374.944 35.2775C374.853 35.6277 374.724 35.9779 374.557 36.3282C374.395 36.6784 374.204 37.0232 373.983 37.3626C373.763 37.7021 373.526 38.0361 373.273 38.3648L370.665 41.7834H375.526Z" fill="#656565"/>
<path d="M383.407 36.1908V37.9849C383.407 38.9494 383.331 39.763 383.18 40.4257C383.035 41.0884 382.825 41.6218 382.551 42.0259C382.276 42.43 381.945 42.7236 381.557 42.9068C381.175 43.0846 380.745 43.1735 380.265 43.1735C379.889 43.1735 379.536 43.117 379.208 43.0038C378.885 42.8907 378.594 42.7102 378.336 42.4623C378.077 42.2091 377.857 41.8804 377.674 41.4763C377.491 41.0722 377.351 40.5819 377.254 40.0054C377.157 39.4289 377.108 38.7554 377.108 37.9849V36.1908C377.108 35.2263 377.184 34.4181 377.334 33.7662C377.485 33.1143 377.698 32.5916 377.972 32.1983C378.252 31.7996 378.583 31.514 378.965 31.3416C379.353 31.1692 379.784 31.083 380.257 31.083C380.64 31.083 380.992 31.1396 381.315 31.2527C381.644 31.3605 381.934 31.5356 382.187 31.7781C382.446 32.0151 382.666 32.333 382.849 32.7317C383.032 33.125 383.17 33.6073 383.261 34.1784C383.358 34.7495 383.407 35.4203 383.407 36.1908ZM381.985 38.2274V35.9402C381.985 35.4122 381.961 34.9488 381.913 34.5501C381.864 34.146 381.794 33.8012 381.703 33.5157C381.611 33.2301 381.493 32.9984 381.347 32.8206C381.208 32.6428 381.046 32.5135 380.863 32.4327C380.68 32.3465 380.478 32.3034 380.257 32.3034C379.983 32.3034 379.738 32.3707 379.523 32.5054C379.313 32.6347 379.132 32.8422 378.982 33.1277C378.836 33.4133 378.726 33.7877 378.651 34.2511C378.575 34.7145 378.538 35.2775 378.538 35.9402V38.2274C378.538 38.7554 378.562 39.2215 378.61 39.6256C378.664 40.0297 378.737 40.3799 378.828 40.6762C378.925 40.9672 379.044 41.2069 379.184 41.3955C379.323 41.5841 379.485 41.7242 379.668 41.8158C379.851 41.902 380.05 41.9451 380.265 41.9451C380.551 41.9451 380.798 41.875 381.008 41.7349C381.224 41.5949 381.404 41.3766 381.549 41.0803C381.695 40.7786 381.802 40.3934 381.872 39.9246C381.948 39.4505 381.985 38.8847 381.985 38.2274Z" fill="#656565"/>
<path d="M389.551 31.18V43.0119H388.122V33.0469L385.651 34.146V32.7964L389.333 31.18H389.551Z" fill="#656565"/>
<path d="M395.195 37.4111L394.057 37.104L394.557 31.2446H399.677V32.6267H395.761L395.486 35.8271C395.669 35.7032 395.89 35.5873 396.148 35.4796C396.407 35.3718 396.708 35.3179 397.053 35.3179C397.515 35.3179 397.927 35.4122 398.288 35.6008C398.654 35.784 398.964 36.048 399.217 36.3928C399.47 36.7376 399.663 37.1525 399.798 37.6374C399.932 38.1223 400 38.6638 400 39.2619C400 39.8276 399.932 40.3476 399.798 40.8217C399.669 41.2958 399.47 41.7107 399.2 42.0663C398.937 42.4165 398.603 42.6886 398.199 42.8826C397.801 43.0765 397.335 43.1735 396.802 43.1735C396.404 43.1735 396.027 43.1089 395.672 42.9796C395.316 42.8449 394.996 42.6428 394.711 42.3734C394.431 42.0986 394.202 41.7592 394.025 41.3551C393.847 40.9456 393.737 40.4661 393.694 39.9165H395.042C395.096 40.3583 395.198 40.7301 395.349 41.0318C395.505 41.3335 395.704 41.5625 395.946 41.7188C396.194 41.8696 396.479 41.9451 396.802 41.9451C397.077 41.9451 397.324 41.8831 397.545 41.7592C397.766 41.6353 397.951 41.4575 398.102 41.2258C398.253 40.9941 398.369 40.7139 398.449 40.3853C398.53 40.0566 398.571 39.6875 398.571 39.2781C398.571 38.9063 398.53 38.5615 398.449 38.2436C398.369 37.9257 398.248 37.6482 398.086 37.4111C397.925 37.1741 397.728 36.9909 397.497 36.8616C397.271 36.7269 397.007 36.6595 396.705 36.6595C396.302 36.6595 396.003 36.7269 395.809 36.8616C395.621 36.9963 395.416 37.1795 395.195 37.4111Z" fill="#656565"/>
<path fill-rule="evenodd" clip-rule="evenodd" d="M0 4.37293C0.0520727 4.27648 0.00578577 3.71922 0.0347151 3.61205C0.0925737 3.3495 0.231434 3.11373 0.410796 2.90476C0.711661 2.55111 1.08774 2.29391 1.5159 2.0903C1.95562 1.88133 2.42428 1.79024 2.91029 1.73665C3.13015 1.71522 3.3558 1.71522 3.57566 1.74201C3.63352 1.75273 3.69138 1.75809 3.74924 1.7688C4.45511 1.90812 4.94112 2.29391 5.21885 2.8994C5.28249 3.04407 5.34035 3.19411 5.38664 3.33878C6.59588 6.95562 7.82827 10.5617 9.00858 14.1893C10.0038 17.2596 11.0683 20.3138 12.0982 23.3734C12.1329 23.4699 12.1503 23.5663 12.214 23.6574C12.295 23.5556 12.3123 23.4323 12.3528 23.3198C12.9661 21.4659 13.5736 19.6119 14.1869 17.7579C15.4656 13.9 16.7501 10.0474 18.0345 6.19475C18.3527 5.23561 18.671 4.28184 18.9892 3.3227C19.076 3.06015 19.1859 2.80295 19.3537 2.57254C19.6083 2.21354 19.9496 1.95634 20.3894 1.82238C20.5224 1.78488 20.6613 1.76344 20.7944 1.73665C21.0374 1.7045 21.2746 1.73129 21.5176 1.74201C21.9631 1.80095 22.3971 1.87061 22.8194 2.026C23.0335 2.10637 23.236 2.19746 23.4269 2.30999C24.2196 2.79223 24.5089 3.47809 24.3816 4.33006C24.3527 4.50153 24.3064 4.67299 24.2485 4.8391C21.8243 12.121 19.4 19.3976 16.9815 26.6795C16.5128 28.0833 16.05 29.4926 15.5813 30.8964C15.5408 31.009 15.5061 31.1268 15.454 31.234C15.1995 31.7377 14.7829 32.0699 14.2159 32.236C13.8456 32.3432 13.4637 32.4021 13.076 32.445C12.1677 32.5468 11.2709 32.4718 10.3914 32.2307C9.87646 32.086 9.43095 31.8449 9.08959 31.4483C8.95651 31.2983 8.85815 31.1322 8.80029 30.9393C7.53898 26.9527 6.20244 22.9876 4.88327 19.0171C3.64509 15.2931 2.3722 11.5798 1.12246 7.86117C0.775305 6.83238 0.439725 5.80895 0.0983597 4.78016C0.0636445 4.64084 0.0347152 4.50689 0 4.37293Z" fill="#0B1E3E"/>
<path fill-rule="evenodd" clip-rule="evenodd" d="M201.03 17.0178C201.03 19.9702 201.03 22.928 201.03 25.8804C201.03 26.5663 200.943 27.2361 200.746 27.8951C200.399 29.0365 199.722 29.9634 198.698 30.6654C197.853 31.2441 196.933 31.6942 195.927 31.9728C195.331 32.1389 194.729 32.2246 194.11 32.2246C191.911 32.2246 189.718 32.2246 187.52 32.2246C187.3 32.2246 187.08 32.2086 186.872 32.1443C186.496 32.0317 186.212 31.8121 186.004 31.5066C185.755 31.1476 185.639 30.7511 185.605 30.3332C185.576 29.9849 185.576 29.6366 185.651 29.2883C185.72 28.9668 185.836 28.6667 186.056 28.4095C186.334 28.0827 186.698 27.8951 187.132 27.8148C187.335 27.7773 187.543 27.7612 187.751 27.7612C189.527 27.7612 191.309 27.7612 193.086 27.7612C193.363 27.7612 193.641 27.7558 193.913 27.7023C194.11 27.6594 194.295 27.6058 194.474 27.5147C194.642 27.429 194.798 27.3272 194.914 27.1879C195.244 26.7806 195.452 26.3305 195.493 25.8215C195.504 25.6929 195.504 25.5643 195.504 25.4357C195.504 19.8149 195.504 14.1887 195.51 8.56781C195.51 8.01591 195.383 7.51223 195.064 7.04606C194.839 6.7192 194.532 6.49951 194.139 6.39235C193.89 6.32805 193.635 6.28518 193.375 6.27447C193.236 6.26911 193.097 6.26911 192.958 6.26911C190.129 6.26911 187.294 6.26911 184.465 6.26911C184.06 6.26911 184.1 6.2316 184.1 6.61204C184.094 10.2128 184.089 13.8082 184.083 17.409C184.077 21.6688 184.066 25.9287 184.054 30.1939C184.054 30.3868 184.054 30.5797 184.008 30.7725C183.898 31.2334 183.637 31.5977 183.232 31.8871C182.897 32.1282 182.521 32.2836 182.104 32.364C181.358 32.5086 180.623 32.4711 179.906 32.2354C179.437 32.08 179.078 31.8067 178.835 31.3995C178.656 31.094 178.592 30.7618 178.569 30.4189C178.563 30.3278 178.569 30.2367 178.569 30.1403C178.569 21.6099 178.569 13.0795 178.569 4.5491C178.569 4.17938 178.592 3.81501 178.685 3.45601C178.8 3.02199 179.02 2.64691 179.414 2.37899C179.645 2.21824 179.911 2.11108 180.183 2.01999C180.6 1.88067 181.034 1.84316 181.473 1.82709C181.56 1.82173 181.653 1.82709 181.74 1.82709C185.796 1.82709 189.851 1.83245 193.902 1.82709C194.868 1.82709 195.793 1.9932 196.684 2.34148C197.315 2.58797 197.934 2.8666 198.507 3.21488C199.034 3.53638 199.479 3.93825 199.855 4.41514C200.416 5.12779 200.758 5.92618 200.92 6.78886C201.007 7.26039 201.041 7.73728 201.041 8.21952C201.03 11.1451 201.03 14.0815 201.03 17.0178Z" fill="#FFB81D"/>
<path fill-rule="evenodd" clip-rule="evenodd" d="M265.264 32.2306C263.875 32.2306 262.481 32.2252 261.092 32.2306C260.224 32.2359 259.397 32.0913 258.587 31.8073C257.736 31.5072 256.949 31.0946 256.232 30.5802C255.248 29.8729 254.618 28.9459 254.288 27.8368C254.132 27.3009 254.039 26.7598 254.039 26.2025C254.033 25.238 254.033 24.2682 254.033 23.3037C254.033 23.0733 254.074 22.8482 254.155 22.6285C254.311 22.1999 254.606 21.8784 255.028 21.6533C255.289 21.514 255.572 21.4283 255.867 21.38C256.538 21.2675 257.21 21.2729 257.881 21.4229C258.211 21.4979 258.523 21.6158 258.795 21.8141C259.24 22.1409 259.472 22.5749 259.53 23.0947C259.547 23.2233 259.541 23.3519 259.541 23.4805C259.541 24.1503 259.541 24.8254 259.541 25.4952C259.541 25.747 259.576 25.9882 259.634 26.2346C259.692 26.4704 259.802 26.6847 259.917 26.8991C260.184 27.3652 260.606 27.6224 261.156 27.7189C261.399 27.7618 261.647 27.7778 261.896 27.7778C262.752 27.7778 263.603 27.7778 264.459 27.7778C265.842 27.7778 267.225 27.7778 268.602 27.7778C268.868 27.7778 269.134 27.7671 269.4 27.7189C269.927 27.6171 270.338 27.3813 270.604 26.9419C270.818 26.5829 270.963 26.2079 270.986 25.7953C270.992 25.7149 270.992 25.6292 270.992 25.5488C270.992 24.0592 270.992 22.5642 270.992 21.0746C270.992 20.8067 270.963 20.5442 270.876 20.287C270.783 20.0137 270.644 19.7565 270.471 19.5207C270.28 19.2582 270.014 19.0921 269.696 18.9902C269.354 18.8777 268.995 18.8456 268.642 18.8402C267.647 18.8349 266.652 18.8402 265.663 18.8402C264.112 18.8402 262.562 18.8295 261.011 18.8456C259.935 18.8563 258.922 18.6312 257.956 18.2187C257.429 17.999 256.926 17.7418 256.457 17.4256C255.624 16.8737 254.999 16.1557 254.589 15.2823C254.328 14.7304 254.172 14.1517 254.091 13.5569C254.051 13.2462 254.033 12.9354 254.033 12.6192C254.033 11.1029 254.033 9.5811 254.033 8.06471C254.033 7.2556 254.16 6.46794 254.461 5.71242C254.82 4.82294 255.393 4.07278 256.191 3.47266C256.44 3.28512 256.706 3.12973 256.984 2.98505C257.632 2.64212 258.303 2.35277 259.015 2.13308C259.663 1.93483 260.328 1.83838 261.005 1.83838C263.846 1.83838 266.693 1.83838 269.534 1.83838C270.349 1.83838 271.13 1.97769 271.894 2.24561C272.565 2.48137 273.208 2.77072 273.815 3.11901C274.845 3.70842 275.58 4.5336 276.037 5.5731C276.268 6.10357 276.407 6.66083 276.477 7.22881C276.523 7.5771 276.529 7.92539 276.529 8.27368C276.529 8.9649 276.529 9.65612 276.529 10.342C276.529 10.5188 276.511 10.6903 276.477 10.8617C276.349 11.419 276.014 11.8316 275.476 12.0995C275.238 12.2174 274.984 12.2977 274.718 12.3406C274.029 12.4585 273.335 12.4585 272.646 12.3085C272.444 12.2656 272.247 12.1959 272.062 12.1049C271.454 11.8048 271.119 11.3279 271.038 10.701C271.009 10.492 271.003 10.2777 271.003 10.0687C270.997 9.52752 270.997 8.98097 271.003 8.43979C271.003 7.97897 270.864 7.55567 270.627 7.14844C270.349 6.68227 269.921 6.44114 269.377 6.3447C269.14 6.30183 268.909 6.28575 268.666 6.28575C266.409 6.28575 264.153 6.28575 261.896 6.28575C261.584 6.28575 261.283 6.3179 260.982 6.39292C260.56 6.49473 260.23 6.71442 259.998 7.05735C259.709 7.48065 259.553 7.94146 259.553 8.43979C259.547 9.72042 259.547 11.001 259.553 12.2763C259.559 12.8121 259.721 13.3105 260.056 13.7552C260.23 13.9803 260.45 14.141 260.722 14.2428C260.965 14.3339 261.213 14.3928 261.474 14.4036C261.699 14.4143 261.931 14.4196 262.157 14.4196C264.569 14.4196 266.988 14.425 269.4 14.4196C270.338 14.4196 271.235 14.5697 272.102 14.9019C272.803 15.1698 273.474 15.4913 274.093 15.8932C275.047 16.5094 275.724 17.3399 276.112 18.358C276.372 19.0385 276.517 19.7458 276.523 20.4638C276.534 21.3265 276.529 22.1945 276.529 23.0572C276.529 24.0538 276.529 25.0451 276.529 26.0417C276.529 26.6312 276.448 27.2152 276.286 27.7886C276.025 28.7155 275.545 29.53 274.799 30.2051C274.405 30.5641 273.96 30.8481 273.491 31.116C272.698 31.5661 271.859 31.9144 270.945 32.102C270.529 32.1877 270.106 32.2359 269.678 32.2359C268.209 32.2306 266.733 32.2306 265.264 32.2306Z" fill="#FFB81D"/>
<path fill-rule="evenodd" clip-rule="evenodd" d="M227.766 17.3023C227.766 13.0586 227.766 8.81481 227.766 4.57105C227.766 4.22276 227.789 3.87448 227.87 3.52619C227.916 3.31721 227.991 3.11896 228.101 2.93142C228.252 2.67422 228.454 2.46525 228.72 2.30986C229.166 2.05266 229.652 1.90263 230.173 1.8544C230.491 1.82225 230.809 1.81689 231.127 1.81689C234.807 1.81689 238.481 1.82225 242.161 1.81689C243.127 1.81689 244.053 1.98836 244.944 2.33665C245.447 2.5349 245.939 2.75995 246.408 3.01179C247.536 3.61728 248.323 4.48532 248.803 5.59984C249.034 6.14103 249.168 6.70365 249.231 7.2877C249.266 7.61992 249.277 7.94677 249.277 8.27898C249.277 10.0633 249.277 11.8476 249.277 13.6373C249.277 14.366 249.173 15.084 248.93 15.7859C248.543 16.9112 247.819 17.8114 246.766 18.4812C246.379 18.7276 245.974 18.942 245.563 19.1456C245.494 19.1831 245.424 19.2152 245.355 19.2527C245.303 19.2795 245.285 19.317 245.314 19.3653C245.343 19.4135 245.372 19.4617 245.407 19.5099C247.05 22.023 248.687 24.5307 250.33 27.0437C250.689 27.5956 251.054 28.1475 251.412 28.694C251.592 28.962 251.736 29.2406 251.846 29.5406C251.997 29.9586 251.956 30.3551 251.754 30.7463C251.644 30.9552 251.499 31.1428 251.331 31.3089C251.123 31.5179 250.897 31.7215 250.631 31.8661C250.116 32.1448 249.601 32.4234 249 32.5199C248.213 32.6485 247.576 32.4073 247.067 31.8501C246.928 31.7 246.842 31.5286 246.732 31.3625C246.379 30.8106 246.02 30.2533 245.661 29.7014C243.63 26.5454 241.605 23.3947 239.575 20.2387C239.517 20.1529 239.459 20.0672 239.407 19.9761C239.36 19.9065 239.303 19.8689 239.21 19.8743C239.141 19.8743 239.071 19.8743 239.002 19.8743C238.169 19.8743 237.33 19.8743 236.496 19.8743C236.317 19.8743 236.144 19.869 235.964 19.8261C235.629 19.7404 235.351 19.5689 235.137 19.3117C234.871 19.0009 234.732 18.6365 234.668 18.2507C234.593 17.7846 234.599 17.3131 234.72 16.8522C234.749 16.7344 234.784 16.6218 234.836 16.5093C235.131 15.8342 235.686 15.4912 236.462 15.443C236.601 15.4323 236.739 15.4377 236.878 15.4377C238.36 15.4377 239.841 15.4377 241.322 15.4377C241.64 15.4377 241.958 15.4109 242.265 15.3412C242.745 15.234 243.104 14.9822 243.353 14.5857C243.59 14.1945 243.74 13.7819 243.74 13.3265C243.74 11.6815 243.74 10.0311 243.74 8.38615C243.74 7.9307 243.59 7.51811 243.353 7.12695C243.075 6.67686 242.653 6.43573 242.12 6.34464C241.883 6.30714 241.652 6.2857 241.409 6.2857C238.788 6.2857 236.161 6.2857 233.54 6.2857C233.488 6.2857 233.442 6.2857 233.389 6.2857C233.291 6.29106 233.262 6.31249 233.256 6.39823C233.251 6.4786 233.256 6.56433 233.256 6.64471C233.256 9.37743 233.256 12.1102 233.256 14.8482C233.256 19.9547 233.256 25.0665 233.256 30.1729C233.256 30.4194 233.256 30.6659 233.199 30.9124C233.037 31.5661 232.608 32.0001 231.943 32.2466C231.642 32.3591 231.33 32.4127 231.017 32.4395C230.421 32.4877 229.825 32.4609 229.247 32.2948C228.362 32.0376 227.876 31.4107 227.806 30.6445C227.789 30.4408 227.777 30.2426 227.777 30.039C227.766 25.7899 227.766 21.5461 227.766 17.3023Z" fill="#FFB81D"/>
<path fill-rule="evenodd" clip-rule="evenodd" d="M174.138 17.0233C174.138 19.9704 174.138 22.9121 174.138 25.8592C174.138 26.5504 174.051 27.2362 173.849 27.906C173.507 29.0366 172.836 29.9582 171.818 30.6548C170.973 31.2335 170.059 31.689 169.046 31.973C168.445 32.1391 167.831 32.2302 167.201 32.2302C164.389 32.2302 161.577 32.2248 158.765 32.2355C157.741 32.2409 156.775 32.0587 155.843 31.6783C155.074 31.3675 154.35 30.9817 153.714 30.478C152.759 29.7278 152.14 28.7794 151.845 27.6542C151.729 27.2148 151.66 26.7701 151.654 26.3146C151.648 26.0949 151.643 25.8752 151.643 25.6502C151.643 19.8793 151.643 14.1084 151.643 8.33756C151.643 8.03214 151.643 7.72672 151.666 7.42666C151.764 6.27462 152.14 5.21368 152.915 4.2867C153.158 3.992 153.448 3.74016 153.749 3.49903C153.992 3.30078 154.258 3.14539 154.53 3.00071C155.328 2.58277 156.15 2.2184 157.041 2.00407C157.533 1.88619 158.036 1.82189 158.545 1.82189C161.438 1.81653 164.331 1.81653 167.224 1.82189C168.109 1.82189 168.954 2.00943 169.77 2.32557C170.412 2.57741 171.037 2.85604 171.621 3.21504C172.136 3.53118 172.582 3.9277 172.952 4.39387C173.525 5.11188 173.866 5.91562 174.028 6.79438C174.115 7.26591 174.15 7.74279 174.15 8.22504C174.132 11.156 174.138 14.0924 174.138 17.0233ZM168.607 17.018C168.607 14.2638 168.607 11.515 168.607 8.76087C168.607 8.63227 168.607 8.50367 168.607 8.37507C168.601 7.90354 168.445 7.47488 168.184 7.07301C167.953 6.72472 167.635 6.49967 167.212 6.39251C166.906 6.31213 166.587 6.27998 166.269 6.27998C164.013 6.27998 161.756 6.27998 159.5 6.27998C159.263 6.27998 159.025 6.30142 158.788 6.33892C158.227 6.43002 157.793 6.68721 157.521 7.16946C157.365 7.44809 157.238 7.73744 157.185 8.04822C157.151 8.25183 157.145 8.45009 157.145 8.6537C157.145 14.221 157.145 19.7882 157.145 25.3608C157.145 25.4519 157.145 25.543 157.145 25.6395C157.162 26.1003 157.295 26.5236 157.538 26.9255C157.805 27.3648 158.215 27.606 158.736 27.7131C159.02 27.7721 159.309 27.7721 159.598 27.7721C161.415 27.7721 163.237 27.7721 165.054 27.7721C165.494 27.7721 165.928 27.7721 166.368 27.7721C166.599 27.7721 166.825 27.756 167.05 27.7078C167.426 27.6274 167.774 27.4881 168.017 27.1987C168.265 26.9094 168.433 26.5772 168.532 26.2128C168.601 25.9503 168.607 25.6823 168.607 25.4198C168.607 22.6174 168.607 19.8204 168.607 17.018Z" fill="#FFB81D"/>
<path fill-rule="evenodd" clip-rule="evenodd" d="M77.8897 1.64487C78.127 1.64487 78.3642 1.63951 78.6014 1.64487C78.9717 1.65023 79.3362 1.69845 79.6833 1.80562C79.7875 1.83777 79.8916 1.86992 79.99 1.91278C80.6959 2.20749 81.072 2.72724 81.1645 3.42918C81.1877 3.62208 81.1819 3.81497 81.1819 4.00787C81.1819 11.113 81.1819 18.2127 81.1819 25.3178C81.1819 25.5214 81.1877 25.7196 81.2108 25.9233C81.2687 26.3734 81.448 26.7752 81.7315 27.1396C81.9861 27.4664 82.3449 27.6218 82.7556 27.7076C83.0392 27.7665 83.3284 27.7719 83.6177 27.7719C85.2551 27.7719 86.8983 27.7719 88.5357 27.7719C89.149 27.7719 89.7681 27.7719 90.3814 27.7719C90.6823 27.7719 90.9774 27.7397 91.2609 27.6593C91.6717 27.5468 91.9841 27.3325 92.2097 26.9896C92.499 26.5555 92.6379 26.084 92.6495 25.575C92.6553 25.4464 92.6495 25.3178 92.6495 25.1892C92.6495 18.1055 92.6495 11.0165 92.6495 3.93286C92.6495 3.66494 92.6495 3.40239 92.7247 3.13983C92.8809 2.56649 93.2454 2.15926 93.8182 1.90742C94.229 1.7306 94.6687 1.66094 95.12 1.63951C95.3572 1.62879 95.5945 1.63415 95.8317 1.63415C96.0342 1.67166 96.2425 1.69845 96.445 1.74132C96.5781 1.76811 96.7111 1.80562 96.8442 1.85384C97.66 2.14855 98.0766 2.71653 98.1576 3.50955C98.1692 3.61672 98.1634 3.72924 98.1634 3.84177C98.1634 11.188 98.1634 18.5288 98.1634 25.875C98.1634 26.652 98.065 27.4182 97.7989 28.1577C97.4228 29.2025 96.7574 30.0545 95.7912 30.6975C94.9002 31.2923 93.9339 31.7638 92.8693 32.0263C92.337 32.1603 91.7989 32.2246 91.2493 32.2246C88.42 32.2246 85.5849 32.2192 82.7556 32.23C81.7142 32.2353 80.7306 32.0317 79.7817 31.6352C79.1742 31.3833 78.5956 31.0779 78.0575 30.7082C76.9119 29.9205 76.1771 28.8757 75.8589 27.5897C75.7374 27.1128 75.6738 26.6305 75.6738 26.1429C75.6738 26.0036 75.668 25.8643 75.668 25.7304C75.668 18.4699 75.668 11.2094 75.668 3.94893C75.668 3.69173 75.668 3.43454 75.7316 3.1827C75.8763 2.60936 76.2292 2.19141 76.802 1.92886C77.0624 1.81098 77.3401 1.73596 77.6236 1.69845C77.7162 1.68238 77.8087 1.68773 77.8897 1.64487Z" fill="#0B1E3E"/>
<path fill-rule="evenodd" clip-rule="evenodd" d="M124.952 17.0185C124.952 14.0554 124.952 11.0922 124.952 8.12909C124.952 7.45395 125.033 6.78952 125.236 6.14117C125.565 5.08559 126.161 4.19611 127.081 3.49418C127.405 3.24769 127.758 3.04944 128.129 2.8619C128.927 2.46003 129.749 2.12245 130.64 1.94563C131.05 1.86526 131.467 1.82775 131.884 1.82775C134.765 1.82239 137.646 1.82239 140.528 1.82775C141.372 1.82775 142.182 1.9885 142.963 2.2832C143.554 2.50825 144.126 2.76009 144.67 3.06551C145.515 3.53168 146.18 4.16932 146.655 4.96235C147.025 5.57855 147.257 6.24298 147.366 6.93955C147.436 7.36821 147.465 7.79688 147.465 8.2309C147.465 9.04 147.465 9.8491 147.465 10.6582C147.465 10.9154 147.43 11.1726 147.349 11.4191C147.193 11.8906 146.88 12.2443 146.412 12.48C146.209 12.5818 145.995 12.6622 145.775 12.7051C145.006 12.8605 144.236 12.8658 143.478 12.6729C143.328 12.6354 143.178 12.5765 143.039 12.5122C142.472 12.2443 142.13 11.8156 141.997 11.2369C141.957 11.0494 141.934 10.8565 141.939 10.6636C141.939 9.90804 141.939 9.15252 141.939 8.39701C141.939 7.94691 141.795 7.52896 141.557 7.13781C141.28 6.677 140.857 6.42516 140.308 6.32871C140.094 6.2912 139.874 6.26977 139.654 6.26977C137.357 6.26977 135.06 6.26977 132.769 6.26977C132.468 6.26977 132.173 6.30727 131.884 6.38229C131.473 6.4841 131.155 6.70379 130.923 7.036C130.634 7.45931 130.478 7.91476 130.478 8.41844C130.478 8.49345 130.478 8.56311 130.478 8.63813C130.478 14.2161 130.478 19.7941 130.478 25.372C130.478 25.6132 130.478 25.8489 130.53 26.0847C130.611 26.4544 130.767 26.7866 130.993 27.0921C131.183 27.3546 131.455 27.5207 131.774 27.6225C132.011 27.6975 132.254 27.7458 132.503 27.7511C132.584 27.7511 132.659 27.7565 132.74 27.7565C135.043 27.7565 137.351 27.7565 139.654 27.7565C139.943 27.7565 140.227 27.7243 140.51 27.6547C140.933 27.5475 141.257 27.3278 141.488 26.9849C141.772 26.5616 141.928 26.1008 141.928 25.6025C141.928 24.8684 141.934 24.1289 141.928 23.3948C141.928 23.1805 141.951 22.9715 142.009 22.7679C142.159 22.216 142.518 21.8195 143.073 21.573C143.299 21.4712 143.536 21.4069 143.779 21.3641C144.445 21.2569 145.104 21.2622 145.764 21.4016C145.995 21.4498 146.221 21.5248 146.429 21.632C146.967 21.9052 147.291 22.3339 147.401 22.8858C147.436 23.0573 147.459 23.2287 147.459 23.4056C147.453 24.2522 147.465 25.0988 147.453 25.9454C147.442 26.7116 147.332 27.4671 147.06 28.1959C146.695 29.1604 146.088 29.9641 145.214 30.5803C144.393 31.159 143.502 31.6144 142.518 31.9092C141.864 32.1074 141.187 32.2092 140.499 32.2092C137.675 32.2092 134.852 32.2039 132.034 32.2092C131.045 32.2146 130.101 32.027 129.199 31.668C128.568 31.4162 127.972 31.1054 127.411 30.7303C126.173 29.8998 125.409 28.7853 125.108 27.3975C124.993 26.8617 124.946 26.3258 124.946 25.7793C124.952 22.8751 124.952 19.9495 124.952 17.0185Z" fill="#FFB81D"/>
<path fill-rule="evenodd" clip-rule="evenodd" d="M37.4983 6.99276C37.4057 7.01955 37.4057 7.08921 37.3884 7.1535C37.0933 7.98404 36.804 8.81457 36.5089 9.64511C34.5706 15.1588 32.6324 20.6725 30.6941 26.1861C30.1445 27.74 29.6006 29.2993 29.0509 30.8532C28.9005 31.2765 28.6633 31.6569 28.3277 31.9838C27.9458 32.3482 27.4888 32.5303 26.9391 32.525C26.1175 32.5143 25.3538 32.316 24.6421 31.9356C24.538 31.882 24.4396 31.8177 24.347 31.748C23.6701 31.2551 23.4329 30.6121 23.6007 29.8405C23.6759 29.4868 23.8205 29.1546 23.942 28.8117C26.6151 21.2672 29.2939 13.7335 31.967 6.19973C32.2737 5.3424 32.5745 4.49044 32.8754 3.63311C33.0258 3.20445 33.263 2.82937 33.616 2.51859C33.9805 2.20245 34.4029 1.99348 34.8947 1.90774C35.589 1.7845 36.289 1.70413 36.9891 1.6559C37.3768 1.62911 37.7644 1.63447 38.1521 1.67198C38.6439 1.7202 39.1415 1.76843 39.6333 1.8113C40.1482 1.85416 40.5937 2.03098 40.9814 2.33641C41.2649 2.5561 41.5137 2.80794 41.7335 3.08121C41.9303 3.32233 42.0807 3.58489 42.1848 3.87959C44.4529 10.2988 46.7267 16.718 48.9948 23.1373C49.7354 25.227 50.4644 27.3114 51.205 29.4011C51.3149 29.7119 51.3786 30.0227 51.367 30.3495C51.3554 30.805 51.1703 31.1908 50.8405 31.5176C50.7074 31.6516 50.5512 31.7695 50.3834 31.8713C49.6717 32.2892 48.8849 32.4982 48.0459 32.5196C47.6004 32.5303 47.207 32.391 46.854 32.1499C46.5358 31.9302 46.2928 31.6516 46.1308 31.3247C46.0498 31.1693 45.9804 31.0032 45.9225 30.8371C43.1453 22.9765 40.3681 15.1159 37.5851 7.26067C37.5619 7.16422 37.5272 7.07849 37.4983 6.99276Z" fill="#0B1E3E"/>
<path fill-rule="evenodd" clip-rule="evenodd" d="M205.509 17.0125C205.509 12.8438 205.509 8.67502 205.509 4.50628C205.509 4.12584 205.561 3.75612 205.694 3.39175C205.775 3.17207 205.891 2.96845 206.018 2.77555C206.249 2.42191 206.585 2.18614 206.996 2.04147C207.285 1.93966 207.586 1.88072 207.893 1.85393C208.24 1.82714 208.587 1.82178 208.934 1.82178C213.354 1.82178 217.781 1.82178 222.201 1.82178C222.392 1.82178 222.577 1.82714 222.768 1.84857C223.318 1.91823 223.734 2.16471 224.012 2.60945C224.162 2.85057 224.255 3.11312 224.313 3.3864C224.423 3.93294 224.44 4.48484 224.29 5.02603C224.22 5.27787 224.105 5.51364 223.925 5.71189C223.59 6.08161 223.15 6.237 222.641 6.26915C222.49 6.27987 222.34 6.27451 222.195 6.27451C218.596 6.27451 214.998 6.27451 211.405 6.27451C211.318 6.27451 211.225 6.27451 211.138 6.27451C211.029 6.27987 211.005 6.3013 211.005 6.41383C211 6.48884 211.005 6.5585 211.005 6.63352C211.005 13.5564 211.005 20.474 211.005 27.3969C211.005 27.8148 210.948 27.7612 211.405 27.7612C215.281 27.7612 219.158 27.7612 223.034 27.7612C223.225 27.7612 223.41 27.7666 223.595 27.7987C224.18 27.8952 224.585 28.206 224.834 28.6989C224.961 28.9508 225.03 29.2187 225.059 29.4973C225.106 29.9474 225.123 30.3975 225.019 30.8422C224.961 31.1048 224.862 31.3566 224.689 31.5763C224.457 31.8764 224.151 32.0639 223.775 32.155C223.595 32.1979 223.404 32.23 223.214 32.2247C223.161 32.2247 223.115 32.2247 223.063 32.2247C218.203 32.2247 213.343 32.2247 208.483 32.2247C208.055 32.2247 207.632 32.1872 207.216 32.0747C206.678 31.9246 206.267 31.6353 205.983 31.1798C205.688 30.7083 205.538 30.1993 205.52 29.6581C205.515 29.5295 205.52 29.4009 205.52 29.2723C205.509 25.1839 205.509 21.1009 205.509 17.0125Z" fill="#FFB81D"/>
<path fill-rule="evenodd" clip-rule="evenodd" d="M102.739 16.997C102.739 12.8657 102.739 8.73448 102.739 4.59788C102.739 4.32461 102.739 4.04598 102.803 3.77271C102.878 3.44585 103.011 3.14043 103.191 2.85108C103.445 2.44385 103.815 2.17058 104.296 2.01519C104.706 1.88123 105.129 1.84908 105.557 1.83301C105.626 1.83301 105.696 1.83301 105.765 1.83301C110.336 1.83301 114.907 1.83301 119.478 1.83301C119.646 1.83301 119.813 1.83837 119.981 1.85444C120.484 1.90802 120.878 2.13307 121.167 2.51887C121.312 2.71177 121.41 2.92074 121.468 3.14579C121.624 3.72448 121.653 4.30854 121.538 4.89795C121.526 4.9676 121.503 5.04262 121.48 5.11228C121.3 5.68026 120.855 6.20537 119.889 6.28038C119.75 6.2911 119.611 6.28574 119.472 6.28574C115.856 6.28574 112.24 6.28574 108.618 6.28574C108.531 6.28574 108.438 6.28574 108.352 6.28574C108.242 6.2911 108.218 6.30718 108.218 6.4197C108.218 6.49472 108.218 6.56437 108.218 6.63939C108.218 13.5623 108.218 20.4798 108.218 27.4027C108.218 27.5206 108.166 27.6599 108.259 27.7457C108.34 27.8207 108.485 27.7725 108.606 27.7725C112.483 27.7725 116.359 27.7725 120.236 27.7725C120.427 27.7725 120.612 27.7778 120.797 27.81C121.318 27.8957 121.711 28.1529 121.966 28.5816C122.122 28.8441 122.209 29.1228 122.249 29.4175C122.307 29.83 122.324 30.2426 122.261 30.6552C122.22 30.9017 122.157 31.1428 122.035 31.3679C121.792 31.818 121.404 32.0912 120.872 32.1877C120.699 32.2198 120.519 32.2359 120.34 32.2359C115.439 32.2359 110.539 32.2359 105.644 32.2359C105.227 32.2359 104.811 32.193 104.411 32.0805C103.873 31.9305 103.462 31.6304 103.185 31.175C102.919 30.7356 102.757 30.2641 102.745 29.7604C102.739 29.6211 102.739 29.4818 102.739 29.3478C102.739 25.2219 102.739 21.1068 102.739 16.997Z" fill="#0B1E3E"/>
<path fill-rule="evenodd" clip-rule="evenodd" d="M53.2471 16.6913C53.2471 12.4422 53.2471 8.18774 53.2471 3.93862C53.2471 3.69214 53.2471 3.44566 53.3049 3.19918C53.4611 2.54011 53.8777 2.10073 54.5431 1.84889C54.844 1.73637 55.1506 1.68278 55.4688 1.65599C56.0069 1.60777 56.5392 1.6292 57.0657 1.7578C57.2393 1.80067 57.4071 1.85425 57.5691 1.92391C58.2171 2.21325 58.5874 2.70086 58.6858 3.35457C58.7205 3.56354 58.7263 3.77787 58.7263 3.98685C58.7263 11.7832 58.7263 19.5741 58.7263 27.3704C58.7263 27.4615 58.7263 27.5526 58.7263 27.649C58.7321 27.7616 58.7379 27.7669 58.8709 27.7669C58.9577 27.7669 59.0503 27.7669 59.1371 27.7669C63.3087 27.7669 67.4861 27.7669 71.6577 27.7669C71.8486 27.7669 72.0338 27.7723 72.2189 27.8044C72.6876 27.8848 73.0405 28.1045 73.2893 28.4796C73.3819 28.6242 73.4571 28.7743 73.5034 28.935C73.6943 29.6316 73.7059 30.3335 73.5265 31.0355C73.5149 31.073 73.5034 31.1051 73.4918 31.1426C73.2893 31.7053 72.8554 32.1661 71.9643 32.2196C71.8775 32.225 71.785 32.225 71.6982 32.225C66.5314 32.225 61.3646 32.225 56.1979 32.225C55.8276 32.225 55.4631 32.1982 55.1043 32.1178C54.8787 32.0696 54.6646 32 54.4679 31.8928C54.2191 31.7642 54.0108 31.6034 53.8488 31.3891C53.4901 30.9122 53.2818 30.3818 53.2529 29.7977C53.2471 29.653 53.2471 29.503 53.2471 29.3583C53.2471 25.136 53.2471 20.9137 53.2471 16.6913Z" fill="#0B1E3E"/>
<path fill-rule="evenodd" clip-rule="evenodd" d="M114.797 19.858C112.847 19.8795 111.111 18.3899 111.117 16.4019C111.123 14.4515 112.818 12.9673 114.797 12.9673C116.839 12.9673 118.558 14.4783 118.552 16.4287C118.54 18.3845 116.81 19.8795 114.797 19.858Z" fill="#0B1E3E"/>
<path fill-rule="evenodd" clip-rule="evenodd" d="M221.315 16.4176C221.373 18.2287 219.718 19.8684 217.554 19.8577C215.5 19.8523 213.892 18.2502 213.897 16.4016C213.903 14.5583 215.518 12.9455 217.6 12.9615C219.735 12.9776 221.379 14.6012 221.315 16.4176Z" fill="#FFB81D"/>
<path fill-rule="evenodd" clip-rule="evenodd" d="M37.3799 19.6703C39.3241 19.6435 40.8575 21.1493 40.869 22.8589C40.8806 24.6059 39.3414 26.085 37.4319 26.101C35.5224 26.1225 33.9717 24.6863 33.9601 22.9071C33.9427 21.1172 35.4877 19.6542 37.3799 19.6703Z" fill="#0B1E3E"/>
<path d="M85.7396 44.6648V45.1504C85.7396 45.8182 85.6456 46.4172 85.4577 46.9473C85.2698 47.4775 85.0011 47.9288 84.6515 48.3011C84.3062 48.6735 83.8911 48.9588 83.406 49.1571C82.921 49.3513 82.3835 49.4485 81.7935 49.4485C81.208 49.4485 80.6727 49.3513 80.1876 49.1571C79.7069 48.9588 79.2896 48.6735 78.9356 48.3011C78.5817 47.9288 78.3063 47.4775 78.1097 46.9473C77.9174 46.4172 77.8213 45.8182 77.8213 45.1504V44.6648C77.8213 43.997 77.9174 43.4 78.1097 42.8739C78.302 42.3437 78.5729 41.8925 78.9225 41.5201C79.2765 41.1437 79.6938 40.8584 80.1745 40.6642C80.6596 40.4659 81.1949 40.3667 81.7804 40.3667C82.3704 40.3667 82.9079 40.4659 83.3929 40.6642C83.878 40.8584 84.2953 41.1437 84.6449 41.5201C84.9945 41.8925 85.2633 42.3437 85.4512 42.8739C85.6434 43.4 85.7396 43.997 85.7396 44.6648ZM84.0943 45.1504V44.6526C84.0943 44.1589 84.0419 43.7238 83.937 43.3474C83.8365 42.967 83.6857 42.6493 83.4847 42.3943C83.2881 42.1353 83.0455 41.941 82.7571 41.8115C82.4687 41.678 82.1431 41.6112 81.7804 41.6112C81.4177 41.6112 81.0944 41.678 80.8103 41.8115C80.5263 41.941 80.2837 42.1353 80.0827 42.3943C79.8861 42.6493 79.7353 42.967 79.6304 43.3474C79.5256 43.7238 79.4731 44.1589 79.4731 44.6526V45.1504C79.4731 45.6442 79.5256 46.0813 79.6304 46.4617C79.7353 46.8421 79.8883 47.1639 80.0893 47.4269C80.2947 47.6859 80.5394 47.8822 80.8234 48.0158C81.1075 48.1453 81.4308 48.2101 81.7935 48.2101C82.1606 48.2101 82.4862 48.1453 82.7702 48.0158C83.0543 47.8822 83.2946 47.6859 83.4913 47.4269C83.6879 47.1639 83.8365 46.8421 83.937 46.4617C84.0419 46.0813 84.0943 45.6442 84.0943 45.1504Z" fill="#0C1F3F"/>
<path d="M94.9557 40.4881V49.3271H93.3105L89.0301 42.9953V49.3271H87.3849V40.4881H89.0301L93.3236 46.832V40.4881H94.9557Z" fill="#0C1F3F"/>
<path d="M99.9374 44.9683V46.1339H96.4699V44.9683H99.9374Z" fill="#0C1F3F"/>
<path d="M104.251 49.3271H102.212L102.225 48.119H104.251C104.84 48.119 105.334 47.9996 105.732 47.7608C106.134 47.522 106.436 47.1801 106.637 46.7349C106.842 46.2897 106.945 45.7595 106.945 45.1443V44.6648C106.945 44.1872 106.886 43.7643 106.768 43.396C106.654 43.0277 106.484 42.7181 106.256 42.4672C106.033 42.2162 105.758 42.026 105.43 41.8965C105.107 41.767 104.733 41.7023 104.31 41.7023H102.173V40.4881H104.31C104.943 40.4881 105.522 40.5873 106.047 40.7856C106.571 40.9798 107.023 41.2611 107.403 41.6294C107.788 41.9977 108.083 42.4388 108.288 42.9528C108.494 43.4668 108.596 44.0415 108.596 44.6769V45.1443C108.596 45.7797 108.494 46.3544 108.288 46.8684C108.083 47.3824 107.788 47.8236 107.403 48.1918C107.019 48.5561 106.56 48.8374 106.027 49.0357C105.498 49.2299 104.906 49.3271 104.251 49.3271ZM103.123 40.4881V49.3271H101.478V40.4881H103.123Z" fill="#0C1F3F"/>
<path d="M116.495 48.119V49.3271H111.428V48.119H116.495ZM111.894 40.4881V49.3271H110.248V40.4881H111.894ZM115.833 44.1791V45.369H111.428V44.1791H115.833ZM116.462 40.4881V41.7023H111.428V40.4881H116.462Z" fill="#0C1F3F"/>
<path d="M118.507 40.4881H119.976L122.735 47.3055L125.488 40.4881H126.957L123.312 49.3271H122.145L118.507 40.4881ZM117.839 40.4881H119.235L119.478 46.3888V49.3271H117.839V40.4881ZM126.229 40.4881H127.632V49.3271H125.987V46.3888L126.229 40.4881Z" fill="#0C1F3F"/>
<path d="M133.42 41.6658L130.568 49.3271H128.844L132.437 40.4881H133.538L133.42 41.6658ZM135.806 49.3271L132.948 41.6658L132.823 40.4881H133.931L137.536 49.3271H135.806ZM135.668 46.0489V47.257H130.477V46.0489H135.668Z" fill="#0C1F3F"/>
<path d="M146.176 40.4881V49.3271H144.53L140.25 42.9953V49.3271H138.605V40.4881H140.25L144.543 46.832V40.4881H146.176Z" fill="#0C1F3F"/>
<path d="M150.908 49.3271H148.87L148.883 48.119H150.908C151.498 48.119 151.992 47.9996 152.39 47.7608C152.792 47.522 153.093 47.1801 153.294 46.7349C153.5 46.2897 153.602 45.7595 153.602 45.1443V44.6648C153.602 44.1872 153.543 43.7643 153.425 43.396C153.312 43.0277 153.141 42.7181 152.914 42.4672C152.691 42.2162 152.416 42.026 152.088 41.8965C151.765 41.767 151.391 41.7023 150.967 41.7023H148.83V40.4881H150.967C151.601 40.4881 152.18 40.5873 152.704 40.7856C153.229 40.9798 153.681 41.2611 154.061 41.6294C154.446 41.9977 154.741 42.4388 154.946 42.9528C155.151 43.4668 155.254 44.0415 155.254 44.6769V45.1443C155.254 45.7797 155.151 46.3544 154.946 46.8684C154.741 47.3824 154.446 47.8236 154.061 48.1918C153.676 48.5561 153.218 48.8374 152.685 49.0357C152.156 49.2299 151.564 49.3271 150.908 49.3271ZM149.781 40.4881V49.3271H148.135V40.4881H149.781Z" fill="#0C1F3F"/>
<path d="M165.27 47.0505C165.27 46.8684 165.239 46.7065 165.178 46.5649C165.121 46.4232 165.019 46.2937 164.87 46.1764C164.721 46.059 164.512 45.9457 164.241 45.8364C163.974 45.7231 163.633 45.6077 163.218 45.4904C162.764 45.3609 162.344 45.2172 161.96 45.0594C161.579 44.8975 161.247 44.7113 160.963 44.5009C160.679 44.2864 160.459 44.0415 160.301 43.7663C160.144 43.487 160.065 43.1653 160.065 42.8011C160.065 42.4409 160.146 42.113 160.308 41.8176C160.474 41.5222 160.708 41.2672 161.009 41.0527C161.315 40.8341 161.676 40.6662 162.091 40.5488C162.506 40.4274 162.965 40.3667 163.467 40.3667C164.175 40.3667 164.785 40.4881 165.296 40.7309C165.812 40.9738 166.207 41.2996 166.483 41.7083C166.762 42.1171 166.902 42.5683 166.902 43.0621H165.27C165.27 42.7707 165.202 42.5137 165.067 42.2911C164.936 42.0645 164.735 41.8864 164.464 41.7569C164.197 41.6274 163.858 41.5626 163.448 41.5626C163.059 41.5626 162.735 41.6173 162.478 41.7265C162.22 41.8358 162.027 41.9835 161.901 42.1697C161.774 42.3559 161.711 42.5663 161.711 42.8011C161.711 42.967 161.752 43.1188 161.835 43.2564C161.918 43.3899 162.045 43.5154 162.215 43.6327C162.386 43.7461 162.6 43.8533 162.858 43.9545C163.116 44.0557 163.419 44.1528 163.769 44.2459C164.298 44.3916 164.759 44.5535 165.152 44.7315C165.545 44.9056 165.873 45.1039 166.135 45.3265C166.397 45.5491 166.594 45.802 166.725 46.0853C166.856 46.3646 166.922 46.6823 166.922 47.0384C166.922 47.4107 166.841 47.7467 166.679 48.0461C166.518 48.3416 166.286 48.5945 165.984 48.805C165.687 49.0114 165.329 49.1713 164.909 49.2846C164.494 49.3938 164.031 49.4485 163.52 49.4485C163.061 49.4485 162.609 49.3918 162.163 49.2785C161.722 49.1652 161.319 48.9932 160.957 48.7625C160.594 48.5278 160.306 48.2364 160.092 47.8883C159.877 47.5362 159.77 47.1254 159.77 46.656H161.416C161.416 46.9433 161.468 47.1882 161.573 47.3905C161.682 47.5929 161.833 47.7588 162.025 47.8883C162.218 48.0138 162.44 48.1069 162.694 48.1676C162.952 48.2283 163.227 48.2586 163.52 48.2586C163.904 48.2586 164.225 48.208 164.483 48.1069C164.745 48.0057 164.942 47.864 165.073 47.6819C165.204 47.4998 165.27 47.2893 165.27 47.0505Z" fill="#0C1F3F"/>
<path d="M175.987 44.6648V45.1504C175.987 45.8182 175.893 46.4172 175.705 46.9473C175.517 47.4775 175.249 47.9288 174.899 48.3011C174.554 48.6735 174.139 48.9588 173.654 49.1571C173.169 49.3513 172.631 49.4485 172.041 49.4485C171.456 49.4485 170.92 49.3513 170.435 49.1571C169.954 48.9588 169.537 48.6735 169.183 48.3011C168.829 47.9288 168.554 47.4775 168.357 46.9473C168.165 46.4172 168.069 45.8182 168.069 45.1504V44.6648C168.069 43.997 168.165 43.4 168.357 42.8739C168.55 42.3437 168.82 41.8925 169.17 41.5201C169.524 41.1437 169.941 40.8584 170.422 40.6642C170.907 40.4659 171.442 40.3667 172.028 40.3667C172.618 40.3667 173.155 40.4659 173.64 40.6642C174.126 40.8584 174.543 41.1437 174.892 41.5201C175.242 41.8925 175.511 42.3437 175.699 42.8739C175.891 43.4 175.987 43.997 175.987 44.6648ZM174.342 45.1504V44.6526C174.342 44.1589 174.289 43.7238 174.185 43.3474C174.084 42.967 173.933 42.6493 173.732 42.3943C173.536 42.1353 173.293 41.941 173.005 41.8115C172.716 41.678 172.391 41.6112 172.028 41.6112C171.665 41.6112 171.342 41.678 171.058 41.8115C170.774 41.941 170.531 42.1353 170.33 42.3943C170.134 42.6493 169.983 42.967 169.878 43.3474C169.773 43.7238 169.721 44.1589 169.721 44.6526V45.1504C169.721 45.6442 169.773 46.0813 169.878 46.4617C169.983 46.8421 170.136 47.1639 170.337 47.4269C170.542 47.6859 170.787 47.8822 171.071 48.0158C171.355 48.1453 171.678 48.2101 172.041 48.2101C172.408 48.2101 172.734 48.1453 173.018 48.0158C173.302 47.8822 173.542 47.6859 173.739 47.4269C173.935 47.1639 174.084 46.8421 174.185 46.4617C174.289 46.0813 174.342 45.6442 174.342 45.1504Z" fill="#0C1F3F"/>
<path d="M179.278 40.4881V49.3271H177.632V40.4881H179.278ZM183.171 44.3552V45.5632H178.858V44.3552H183.171ZM183.715 40.4881V41.7023H178.858V40.4881H183.715Z" fill="#0C1F3F"/>
<path d="M189.084 40.4881V49.3271H187.452V40.4881H189.084ZM192.079 40.4881V41.7023H184.482V40.4881H192.079Z" fill="#0C1F3F"/>
<path d="M195.835 47.3419L197.736 40.4881H198.733L198.621 42.2547L196.589 49.3271H195.553L195.835 47.3419ZM194.413 40.4881L195.953 47.2873L196.091 49.3271H194.99L192.781 40.4881H194.413ZM200.889 47.2691L202.41 40.4881H204.049L201.84 49.3271H200.738L200.889 47.2691ZM199.119 40.4881L201.001 47.3602L201.276 49.3271H200.24L198.241 42.2547L198.136 40.4881H199.119Z" fill="#0C1F3F"/>
<path d="M208.696 41.6658L205.845 49.3271H204.121L207.713 40.4881H208.814L208.696 41.6658ZM211.082 49.3271L208.224 41.6658L208.099 40.4881H209.207L212.812 49.3271H211.082ZM210.944 46.0489V47.257H205.753V46.0489H210.944Z" fill="#0C1F3F"/>
<path d="M213.881 40.4881H217.257C217.982 40.4881 218.6 40.5893 219.112 40.7916C219.623 40.994 220.014 41.2935 220.285 41.6901C220.56 42.0827 220.698 42.5683 220.698 43.1471C220.698 43.5882 220.611 43.9767 220.436 44.3127C220.261 44.6486 220.014 44.9319 219.695 45.1626C219.376 45.3892 218.996 45.5652 218.554 45.6907L218.056 45.9153H215.021L215.008 44.7073H217.283C217.676 44.7073 218.004 44.6425 218.266 44.513C218.528 44.3835 218.725 44.2074 218.856 43.9848C218.991 43.7582 219.059 43.5032 219.059 43.2199C219.059 42.9123 218.994 42.6452 218.863 42.4186C218.736 42.1879 218.539 42.0119 218.273 41.8904C218.006 41.765 217.667 41.7023 217.257 41.7023H215.526V49.3271H213.881V40.4881ZM219.328 49.3271L217.086 45.3568L218.81 45.3508L221.085 49.2481V49.3271H219.328Z" fill="#0C1F3F"/>
<path d="M228.583 48.119V49.3271H223.517V48.119H228.583ZM223.982 40.4881V49.3271H222.337V40.4881H223.982ZM227.921 44.1791V45.369H223.517V44.1791H227.921ZM228.551 40.4881V41.7023H223.517V40.4881H228.551Z" fill="#0C1F3F"/>
<path d="M236.882 40.4881V49.3271H235.25V40.4881H236.882ZM239.878 40.4881V41.7023H232.28V40.4881H239.878Z" fill="#0C1F3F"/>
<path d="M247.383 48.119V49.3271H242.316V48.119H247.383ZM242.781 40.4881V49.3271H241.136V40.4881H242.781ZM246.721 44.1791V45.369H242.316V44.1791H246.721ZM247.35 40.4881V41.7023H242.316V40.4881H247.35Z" fill="#0C1F3F"/>
<path d="M252.443 41.6658L249.592 49.3271H247.868L251.46 40.4881H252.561L252.443 41.6658ZM254.829 49.3271L251.971 41.6658L251.847 40.4881H252.954L256.56 49.3271H254.829ZM254.692 46.0489V47.257H249.5V46.0489H254.692Z" fill="#0C1F3F"/>
<path d="M258.297 40.4881H259.765L262.525 47.3055L265.278 40.4881H266.746L263.101 49.3271H261.935L258.297 40.4881ZM257.628 40.4881H259.024L259.267 46.3888V49.3271H257.628V40.4881ZM266.018 40.4881H267.421V49.3271H265.776V46.3888L266.018 40.4881Z" fill="#0C1F3F"/>
<path d="M274.395 47.0505C274.395 46.8684 274.365 46.7065 274.304 46.5649C274.247 46.4232 274.144 46.2937 273.996 46.1764C273.847 46.059 273.637 45.9457 273.366 45.8364C273.1 45.7231 272.759 45.6077 272.344 45.4904C271.889 45.3609 271.47 45.2172 271.085 45.0594C270.705 44.8975 270.373 44.7113 270.089 44.5009C269.805 44.2864 269.584 44.0415 269.427 43.7663C269.27 43.487 269.191 43.1653 269.191 42.8011C269.191 42.4409 269.272 42.113 269.433 41.8176C269.599 41.5222 269.833 41.2672 270.135 41.0527C270.441 40.8341 270.801 40.6662 271.216 40.5488C271.632 40.4274 272.09 40.3667 272.593 40.3667C273.301 40.3667 273.91 40.4881 274.422 40.7309C274.937 40.9738 275.333 41.2996 275.608 41.7083C275.888 42.1171 276.028 42.5683 276.028 43.0621H274.395C274.395 42.7707 274.328 42.5137 274.192 42.2911C274.061 42.0645 273.86 41.8864 273.589 41.7569C273.323 41.6274 272.984 41.5626 272.573 41.5626C272.184 41.5626 271.861 41.6173 271.603 41.7265C271.345 41.8358 271.153 41.9835 271.026 42.1697C270.9 42.3559 270.836 42.5663 270.836 42.8011C270.836 42.967 270.878 43.1188 270.961 43.2564C271.044 43.3899 271.17 43.5154 271.341 43.6327C271.511 43.7461 271.725 43.8533 271.983 43.9545C272.241 44.0557 272.545 44.1528 272.894 44.2459C273.423 44.3916 273.884 44.5535 274.277 44.7315C274.671 44.9056 274.999 45.1039 275.261 45.3265C275.523 45.5491 275.72 45.802 275.851 46.0853C275.982 46.3646 276.047 46.6823 276.047 47.0384C276.047 47.4107 275.966 47.7467 275.805 48.0461C275.643 48.3416 275.411 48.5945 275.11 48.805C274.813 49.0114 274.454 49.1713 274.035 49.2846C273.62 49.3938 273.157 49.4485 272.645 49.4485C272.186 49.4485 271.734 49.3918 271.288 49.2785C270.847 49.1652 270.445 48.9932 270.082 48.7625C269.72 48.5278 269.431 48.2364 269.217 47.8883C269.003 47.5362 268.896 47.1254 268.896 46.656H270.541C270.541 46.9433 270.594 47.1882 270.699 47.3905C270.808 47.5929 270.959 47.7588 271.151 47.8883C271.343 48.0138 271.566 48.1069 271.819 48.1676C272.077 48.2283 272.353 48.2586 272.645 48.2586C273.03 48.2586 273.351 48.208 273.609 48.1069C273.871 48.0057 274.068 47.864 274.199 47.6819C274.33 47.4998 274.395 47.2893 274.395 47.0505Z" fill="#0C1F3F"/>
</svg>
