<svg width="32" height="39" viewBox="0 0 32 39" fill="none" xmlns="http://www.w3.org/2000/svg">
<path d="M15.9191 14.7036C20.0574 14.7036 24.0262 16.5203 26.9524 19.754C29.8787 22.9878 31.5226 27.3737 31.5226 31.9468V37.5773C31.5226 37.6706 31.4888 37.7601 31.4296 37.8261C31.3697 37.8921 31.2888 37.9292 31.2041 37.9292H0.634111C0.549662 37.9292 0.468652 37.8921 0.408913 37.8261C0.349237 37.7601 0.315674 37.6706 0.315674 37.5773V31.9468C0.315674 27.3737 1.95958 22.9878 4.88583 19.754C7.81201 16.5203 11.7808 14.7036 15.9191 14.7036Z" stroke="white" stroke-width="0.582838"/>
<path d="M15.9195 25.2611C22.0749 25.2611 27.0648 19.7468 27.0648 12.9445C27.0648 6.14221 22.0749 0.627869 15.9195 0.627869C9.76409 0.627869 4.77417 6.14221 4.77417 12.9445C4.77417 19.7468 9.76409 25.2611 15.9195 25.2611Z" stroke="white" stroke-width="0.582838"/>
</svg>
