<svg width="25" height="26" viewBox="0 0 25 26" fill="none" xmlns="http://www.w3.org/2000/svg">
<path d="M1.37071 14.3651C1.95452 14.3651 2.46218 13.9844 2.63997 13.4765H5.25464V12.5373L2.63997 12.5375C2.43686 12.0043 1.95452 11.6489 1.37071 11.6489C0.609108 11.6489 0 12.2582 0 13.0196C0 13.7559 0.60929 14.365 1.37071 14.365V14.3651Z" fill="#212121"/>
<path d="M18.0487 22.4128V20.9404C18.0487 20.7373 17.9218 20.5597 17.7442 20.4836L16.2718 19.9759V18.4021C16.0179 18.5799 15.688 18.7067 15.358 18.7067H15.3326V20.306C15.3326 20.5091 15.4596 20.6867 15.6372 20.7628L17.1095 21.2705V22.4128C16.6019 22.5906 16.221 23.0982 16.221 23.682C16.221 24.4436 16.8303 25.0527 17.5917 25.0527C18.3533 25.0527 18.9624 24.4434 18.9624 23.682C18.9373 23.098 18.5564 22.5904 18.0487 22.4128L18.0487 22.4128Z" fill="#212121"/>
<path d="M22.7451 17.1328C22.1613 17.1328 21.6536 17.5135 21.4758 18.0213H20.3588L19.8004 16.5488C19.7242 16.371 19.5464 16.2188 19.3435 16.2188H17.7189C17.7442 16.5488 17.6427 16.9042 17.4143 17.158H19.0136L19.5468 18.6556C19.6229 18.8334 19.8007 18.9602 20.0036 18.9602L21.4503 18.9606C21.6534 19.4682 22.1358 19.8491 22.7196 19.8491C23.4812 19.8491 24.0903 19.2398 24.0903 18.4784C24.1158 17.7675 23.5065 17.1328 22.7451 17.1328L22.7451 17.1328Z" fill="#212121"/>
<path d="M22.7452 11.624C22.1614 11.624 21.6538 12.0047 21.476 12.5126L18.8358 12.5124V13.4516H21.4505C21.6536 13.9593 22.1359 14.3402 22.7197 14.3402C23.4813 14.3402 24.0905 13.7309 24.0905 12.9695C24.116 12.2332 23.5066 11.6241 22.7452 11.6241V11.624Z" fill="#212121"/>
<path d="M16.2473 7.61299V6.01367L17.7196 5.48049C17.8974 5.40435 18.0242 5.22657 18.0242 5.02365L18.0244 3.60213C18.5575 3.39902 18.9129 2.91668 18.9129 2.33287C18.9129 1.57127 18.3036 0.962158 17.5422 0.962158C16.7806 0.962158 16.1715 1.57145 16.1715 2.33287C16.1715 2.91668 16.5522 3.42434 17.0601 3.60213V4.71912L15.6127 5.25212C15.4096 5.32826 15.3081 5.50604 15.3081 5.70896V7.33361H15.3334C15.6635 7.30829 15.9935 7.40993 16.2473 7.61304L16.2473 7.61299Z" fill="#212121"/>
<path d="M17.7436 9.74548H19.3682C19.5713 9.74548 19.7489 9.61852 19.8251 9.44091L20.3583 7.96857H21.4497C21.6528 8.47623 22.1352 8.85714 22.719 8.85714C23.4806 8.85714 24.0897 8.24785 24.0897 7.48643C24.0897 6.72483 23.4804 6.11572 22.719 6.11572C22.1352 6.11572 21.6275 6.49643 21.4497 7.00429H19.9774C19.7743 7.00429 19.5967 7.13126 19.5206 7.30886L18.9874 8.7812H17.3881C17.642 9.08559 17.7436 9.41547 17.7436 9.74552L17.7436 9.74548Z" fill="#212121"/>
<path d="M1.37085 8.85649C1.95467 8.85649 2.46233 8.47578 2.64011 7.96792H3.7824L4.29006 9.44026C4.3662 9.61804 4.54398 9.74482 4.7469 9.74482H6.37155C6.34623 9.41476 6.4477 9.05938 6.67612 8.80562H5.07681L4.56915 7.33328C4.49301 7.15549 4.31523 7.02871 4.11231 7.02871H2.63997C2.43686 6.49553 1.95452 6.14014 1.37071 6.14014C0.609108 6.14014 0 6.74943 0 7.51085C0.000177062 8.24729 0.609471 8.85644 1.37089 8.85644L1.37085 8.85649Z" fill="#212121"/>
<path d="M6.06734 3.60216V5.0745C6.06734 5.27761 6.1943 5.45521 6.3719 5.53135L7.86958 6.06453V7.63836C8.12351 7.43526 8.4534 7.33379 8.78345 7.33379H8.83427V5.70914C8.83427 5.50604 8.70731 5.32844 8.50421 5.2523L7.03187 4.71912L7.03205 3.60213C7.5397 3.39902 7.92062 2.91668 7.92062 2.33287C7.92062 1.57127 7.28599 0.962158 6.54991 0.962158C5.81383 0.962158 5.1792 1.57145 5.1792 2.33287C5.17885 2.89134 5.55973 3.39904 6.06741 3.60213L6.06734 3.60216Z" fill="#212121"/>
<path d="M11.5759 3.60213V6.2168H12.5151V3.60213C13.0227 3.39902 13.4037 2.91668 13.4037 2.33287C13.4037 1.57127 12.7944 0.962158 12.0329 0.962158C11.2713 0.962158 10.6622 1.57145 10.6622 2.33287C10.6876 2.89134 11.0683 3.39904 11.5759 3.60213H11.5759Z" fill="#212121"/>
<path d="M6.37141 16.2432H4.74676C4.54365 16.2432 4.36605 16.3702 4.28991 16.5733L3.78226 18.0456H2.63997C2.43686 17.538 1.95452 17.1571 1.37071 17.1571C0.609109 17.1571 0 17.7917 0 18.5278C0 19.2894 0.60929 19.8985 1.37071 19.8985C1.95452 19.8985 2.46218 19.5178 2.63997 19.0099H4.11231C4.31541 19.0099 4.49301 18.883 4.56915 18.7053L5.07681 17.2077H6.67612C6.44752 16.9031 6.37138 16.5732 6.37138 16.2432L6.37141 16.2432Z" fill="#212121"/>
<path d="M7.87002 18.3765V19.9503L6.37234 20.458C6.19456 20.5341 6.06777 20.7119 6.06777 20.9148V22.3871C5.56011 22.5649 5.1792 23.0726 5.1792 23.6564C5.1792 24.418 5.78849 25.0271 6.54991 25.0271C7.31151 25.0271 7.92062 24.4178 7.92062 23.6564C7.92062 23.0726 7.53991 22.5649 7.03205 22.3871V21.2449L8.50439 20.7372C8.70749 20.6611 8.83445 20.4833 8.83445 20.2804V18.681H8.78363C8.45374 18.6812 8.12366 18.5796 7.86994 18.3765L7.87002 18.3765Z" fill="#212121"/>
<path d="M12.5401 22.413V19.7981H11.6009V22.4128C11.0932 22.5906 10.7123 23.0982 10.7123 23.682C10.7123 24.4436 11.3216 25.0527 12.083 25.0527C12.8446 25.0527 13.4537 24.4434 13.4537 23.682C13.4284 23.0982 13.0477 22.5906 12.54 22.413H12.5401Z" fill="#212121"/>
<path d="M15.6367 17.4628L16.4997 16.5997C16.652 16.4474 16.6775 16.1935 16.5251 16.0159L15.6365 14.8989C15.6112 14.8481 15.5857 14.7974 15.6112 14.7466C15.6873 14.5943 15.7635 14.442 15.8143 14.2898C15.8396 14.239 15.8651 14.2136 15.9157 14.2136L17.3373 14.0613C17.5657 14.036 17.7435 13.8582 17.7435 13.6298V12.4114C17.7435 12.183 17.5657 11.9799 17.3373 11.9799L15.9157 11.8276C15.8649 11.8276 15.8143 11.7767 15.8143 11.7514C15.7635 11.5991 15.6873 11.4469 15.6112 11.2946C15.5859 11.2438 15.5859 11.1931 15.6365 11.1423L16.5251 10.0253C16.6774 9.84752 16.652 9.59378 16.4997 9.44149L15.6367 8.57844C15.4844 8.42616 15.2305 8.40066 15.0529 8.55312L13.9359 9.44169C13.8851 9.46701 13.8344 9.49251 13.7836 9.46701C13.6313 9.39087 13.479 9.31473 13.3268 9.26391C13.2759 9.23859 13.2506 9.21309 13.2506 9.16245L13.0983 7.74092C13.073 7.51249 12.8952 7.33472 12.6668 7.33472H11.4484C11.2199 7.33472 11.0168 7.5125 11.0168 7.74092L10.8646 9.16245C10.8646 9.21327 10.8137 9.26391 10.7884 9.26391C10.6361 9.31473 10.4838 9.39087 10.3316 9.46701C10.2808 9.49234 10.2301 9.49233 10.1793 9.44169L9.06229 8.55312C8.88451 8.40084 8.63077 8.42616 8.47848 8.57844L7.61543 9.44149C7.46314 9.59378 7.43765 9.8477 7.59011 10.0253L8.47868 11.1423C8.504 11.1931 8.5295 11.2438 8.504 11.2946C8.42786 11.4469 8.35172 11.5992 8.3009 11.7514C8.27558 11.8022 8.25008 11.8276 8.19943 11.8276L6.77791 11.9799C6.54948 12.0052 6.3717 12.183 6.3717 12.4114V13.6298C6.3717 13.8582 6.54949 14.0613 6.77791 14.0613L8.19943 14.2136C8.25025 14.2136 8.3009 14.2645 8.3009 14.2898C8.35172 14.4421 8.42786 14.5943 8.504 14.7466C8.52932 14.7974 8.52932 14.8481 8.47868 14.8989L7.59011 16.0159C7.43782 16.1937 7.46314 16.4474 7.61543 16.5997L8.47848 17.4628C8.63076 17.615 8.88468 17.6405 9.06229 17.4881L10.1793 16.5995C10.2301 16.5742 10.2808 16.5487 10.3316 16.5742C10.4839 16.6503 10.6361 16.7265 10.7884 16.7773C10.8392 16.8026 10.8646 16.8281 10.8646 16.8788L11.0168 18.3003C11.0422 18.5287 11.2199 18.7065 11.4484 18.7065H12.6668C12.8952 18.7065 13.0983 18.5287 13.0983 18.3003L13.2506 16.8788C13.2506 16.8279 13.3014 16.7773 13.3268 16.7773C13.479 16.7265 13.6313 16.6503 13.7836 16.5742C13.8344 16.5489 13.8851 16.5489 13.9359 16.5995L15.0529 17.4881C15.2305 17.6405 15.4844 17.6152 15.6367 17.4628ZM12.0573 15.0512C10.915 15.0512 10.0012 14.1373 10.0012 12.9951C10.0012 11.8528 10.915 10.9389 12.0573 10.9389C13.1996 10.9389 14.1135 11.8528 14.1135 12.9951C14.1135 14.1373 13.1743 15.0512 12.0573 15.0512Z" fill="#212121"/>
</svg>
