<svg width="25" height="26" viewBox="0 0 25 26" fill="none" xmlns="http://www.w3.org/2000/svg">
<path d="M1.37071 14.3651C1.95452 14.3651 2.46218 13.9844 2.63997 13.4765H5.25464V12.5373L2.63997 12.5375C2.43686 12.0043 1.95452 11.6489 1.37071 11.6489C0.609108 11.6489 0 12.2582 0 13.0196C0 13.7559 0.60929 14.365 1.37071 14.365V14.3651Z" fill="#C4C4C4"/>
<path d="M18.0489 22.4129V20.9406C18.0489 20.7375 17.9219 20.5599 17.7443 20.4837L16.272 19.9761V18.4022C16.018 18.58 15.6881 18.7068 15.3581 18.7068H15.3328V20.3061C15.3328 20.5092 15.4597 20.6868 15.6373 20.7629L17.1097 21.2706V22.4129C16.602 22.5907 16.2211 23.0983 16.2211 23.6822C16.2211 24.4438 16.8304 25.0529 17.5918 25.0529C18.3534 25.0529 18.9625 24.4436 18.9625 23.6822C18.9374 23.0982 18.5565 22.5905 18.0488 22.4129L18.0489 22.4129Z" fill="#C4C4C4"/>
<path d="M22.7451 17.1328C22.1613 17.1328 21.6536 17.5135 21.4758 18.0214H20.3588L19.8004 16.5489C19.7242 16.3711 19.5464 16.2188 19.3435 16.2188H17.7189C17.7442 16.5489 17.6427 16.9043 17.4143 17.158H19.0136L19.5468 18.6557C19.6229 18.8335 19.8007 18.9603 20.0036 18.9603L21.4503 18.9606C21.6534 19.4683 22.1358 19.8492 22.7196 19.8492C23.4812 19.8492 24.0903 19.2399 24.0903 18.4785C24.1158 17.7675 23.5065 17.1329 22.7451 17.1329L22.7451 17.1328Z" fill="#C4C4C4"/>
<path d="M22.7453 11.6241C22.1615 11.6241 21.6539 12.0048 21.4761 12.5127L18.8359 12.5125V13.4517H21.4506C21.6537 13.9593 22.1361 14.3403 22.7199 14.3403C23.4815 14.3403 24.0906 13.731 24.0906 12.9695C24.1161 12.2333 23.5068 11.6241 22.7453 11.6241V11.6241Z" fill="#C4C4C4"/>
<path d="M16.2473 7.61305V6.01373L17.7196 5.48056C17.8974 5.40441 18.0242 5.22663 18.0242 5.02371L18.0244 3.60219C18.5575 3.39908 18.9129 2.91674 18.9129 2.33293C18.9129 1.57133 18.3036 0.962219 17.5422 0.962219C16.7806 0.962219 16.1715 1.57151 16.1715 2.33293C16.1715 2.91674 16.5522 3.4244 17.0601 3.60219V4.71918L15.6127 5.25218C15.4096 5.32832 15.3081 5.5061 15.3081 5.70902V7.33367H15.3334C15.6635 7.30835 15.9935 7.40999 16.2473 7.6131L16.2473 7.61305Z" fill="#C4C4C4"/>
<path d="M17.7435 9.74548H19.3681C19.5712 9.74548 19.7488 9.61852 19.825 9.44091L20.3581 7.96857H21.4496C21.6527 8.47623 22.1351 8.85714 22.7189 8.85714C23.4805 8.85714 24.0896 8.24785 24.0896 7.48643C24.0896 6.72483 23.4803 6.11572 22.7189 6.11572C22.1351 6.11572 21.6274 6.49643 21.4496 7.00429H19.9773C19.7742 7.00429 19.5966 7.13126 19.5204 7.30886L18.9873 8.7812H17.3879C17.6419 9.08559 17.7435 9.41547 17.7435 9.74552L17.7435 9.74548Z" fill="#C4C4C4"/>
<path d="M1.37085 8.85649C1.95467 8.85649 2.46233 8.47578 2.64011 7.96792H3.7824L4.29006 9.44026C4.3662 9.61804 4.54398 9.74482 4.7469 9.74482H6.37155C6.34623 9.41476 6.4477 9.05938 6.67612 8.80562H5.07681L4.56915 7.33328C4.49301 7.15549 4.31523 7.02871 4.11231 7.02871H2.63997C2.43686 6.49553 1.95452 6.14014 1.37071 6.14014C0.609108 6.14014 0 6.74943 0 7.51085C0.000177062 8.24729 0.609471 8.85644 1.37089 8.85644L1.37085 8.85649Z" fill="#C4C4C4"/>
<path d="M6.06734 3.60222V5.07456C6.06734 5.27767 6.1943 5.45527 6.3719 5.53141L7.86958 6.06459V7.63842C8.12351 7.43532 8.4534 7.33385 8.78345 7.33385H8.83427V5.7092C8.83427 5.5061 8.70731 5.3285 8.50421 5.25236L7.03187 4.71918L7.03205 3.60219C7.5397 3.39908 7.92062 2.91674 7.92062 2.33293C7.92062 1.57133 7.28599 0.962219 6.54991 0.962219C5.81383 0.962219 5.1792 1.57151 5.1792 2.33293C5.17885 2.8914 5.55973 3.39911 6.06741 3.60219L6.06734 3.60222Z" fill="#C4C4C4"/>
<path d="M11.576 3.60219V6.21686H12.5152V3.60219C13.0229 3.39908 13.4038 2.91674 13.4038 2.33293C13.4038 1.57133 12.7945 0.962219 12.0331 0.962219C11.2715 0.962219 10.6624 1.57151 10.6624 2.33293C10.6877 2.8914 11.0684 3.39911 11.576 3.60219H11.576Z" fill="#C4C4C4"/>
<path d="M6.37141 16.2432H4.74676C4.54365 16.2432 4.36605 16.3702 4.28991 16.5733L3.78226 18.0456H2.63997C2.43686 17.538 1.95452 17.1571 1.37071 17.1571C0.609109 17.1571 0 17.7917 0 18.5278C0 19.2894 0.60929 19.8985 1.37071 19.8985C1.95452 19.8985 2.46218 19.5178 2.63997 19.0099H4.11231C4.31541 19.0099 4.49301 18.883 4.56915 18.7053L5.07681 17.2077H6.67612C6.44752 16.9031 6.37138 16.5732 6.37138 16.2432L6.37141 16.2432Z" fill="#C4C4C4"/>
<path d="M7.87002 18.3765V19.9503L6.37234 20.458C6.19456 20.5341 6.06777 20.7119 6.06777 20.9148V22.3871C5.56011 22.5649 5.1792 23.0726 5.1792 23.6564C5.1792 24.418 5.78849 25.0271 6.54991 25.0271C7.31151 25.0271 7.92062 24.4178 7.92062 23.6564C7.92062 23.0726 7.53991 22.5649 7.03205 22.3871V21.2449L8.50439 20.7372C8.70749 20.6611 8.83445 20.4833 8.83445 20.2804V18.681H8.78363C8.45374 18.6812 8.12366 18.5796 7.86994 18.3765L7.87002 18.3765Z" fill="#C4C4C4"/>
<path d="M12.5402 22.4129V19.798H11.601V22.4127C11.0933 22.5905 10.7124 23.0982 10.7124 23.682C10.7124 24.4436 11.3217 25.0527 12.0831 25.0527C12.8447 25.0527 13.4538 24.4434 13.4538 23.682C13.4285 23.0982 13.0478 22.5905 12.5401 22.4129H12.5402Z" fill="#C4C4C4"/>
<path d="M15.6368 17.4626L16.4999 16.5996C16.6522 16.4473 16.6776 16.1934 16.5252 16.0158L15.6366 14.8988C15.6113 14.848 15.5858 14.7973 15.6113 14.7465C15.6874 14.5942 15.7636 14.4419 15.8144 14.2897C15.8397 14.2388 15.8652 14.2135 15.9159 14.2135L17.3374 14.0612C17.5658 14.0359 17.7436 13.8581 17.7436 13.6297V12.4113C17.7436 12.1828 17.5658 11.9797 17.3374 11.9797L15.9159 11.8274C15.865 11.8274 15.8144 11.7766 15.8144 11.7513C15.7636 11.599 15.6874 11.4467 15.6113 11.2945C15.586 11.2436 15.586 11.193 15.6366 11.1422L16.5252 10.0252C16.6775 9.8474 16.6522 9.59366 16.4999 9.44137L15.6368 8.57832C15.4845 8.42604 15.2306 8.40054 15.053 8.553L13.936 9.44157C13.8852 9.46689 13.8345 9.49239 13.7837 9.46689C13.6314 9.39075 13.4792 9.31461 13.3269 9.26379C13.2761 9.23847 13.2507 9.21297 13.2507 9.16232L13.0985 7.7408C13.0731 7.51237 12.8954 7.33459 12.6669 7.33459H11.4485C11.2201 7.33459 11.017 7.51238 11.017 7.7408L10.8647 9.16232C10.8647 9.21314 10.8139 9.26379 10.7885 9.26379C10.6363 9.31461 10.484 9.39075 10.3317 9.46689C10.2809 9.49221 10.2302 9.49221 10.1794 9.44157L9.06242 8.553C8.88463 8.40071 8.63089 8.42604 8.4786 8.57832L7.61555 9.44137C7.46327 9.59365 7.43777 9.84757 7.59023 10.0252L8.4788 11.1422C8.50412 11.193 8.52962 11.2436 8.50412 11.2945C8.42798 11.4467 8.35184 11.599 8.30102 11.7513C8.2757 11.8021 8.2502 11.8274 8.19955 11.8274L6.77803 11.9797C6.5496 12.0051 6.37183 12.1828 6.37183 12.4113V13.6297C6.37183 13.8581 6.54961 14.0612 6.77803 14.0612L8.19955 14.2135C8.25037 14.2135 8.30102 14.2643 8.30102 14.2897C8.35184 14.4419 8.42798 14.5942 8.50412 14.7465C8.52944 14.7973 8.52944 14.848 8.4788 14.8988L7.59023 16.0158C7.43795 16.1936 7.46327 16.4473 7.61555 16.5996L8.4786 17.4626C8.63089 17.6149 8.88481 17.6404 9.06242 17.488L10.1794 16.5994C10.2302 16.5741 10.2809 16.5486 10.3317 16.5741C10.484 16.6502 10.6363 16.7263 10.7885 16.7772C10.8394 16.8025 10.8647 16.828 10.8647 16.8786L11.017 18.3002C11.0423 18.5286 11.2201 18.7064 11.4485 18.7064H12.6669C12.8954 18.7064 13.0985 18.5286 13.0985 18.3002L13.2507 16.8786C13.2507 16.8278 13.3016 16.7772 13.3269 16.7772C13.4792 16.7263 13.6314 16.6502 13.7837 16.5741C13.8345 16.5487 13.8852 16.5487 13.936 16.5994L15.053 17.488C15.2306 17.6404 15.4845 17.6151 15.6368 17.4626ZM12.0575 15.0511C10.9152 15.0511 10.0013 14.1372 10.0013 12.9949C10.0013 11.8526 10.9152 10.9388 12.0575 10.9388C13.1997 10.9388 14.1136 11.8526 14.1136 12.9949C14.1136 14.1372 13.1744 15.0511 12.0575 15.0511Z" fill="#C4C4C4"/>
</svg>
