<svg width="28" height="28" viewBox="0 0 28 28" fill="none" xmlns="http://www.w3.org/2000/svg">
<path d="M25.0844 5.58846H20.8547V2.15764C20.8547 0.967935 19.9986 0 18.9462 0H8.8146C7.76225 0 6.90613 0.967874 6.90613 2.15764V5.58846H2.67633C1.23639 5.58846 0.0649414 6.91104 0.0649414 8.53662V25.0134C0.0649414 26.6403 1.23553 27.9639 2.67439 27.9639H25.0864C26.5253 27.9639 27.6959 26.6403 27.6959 25.0134V8.53662C27.6958 6.91104 26.5244 5.58846 25.0844 5.58846ZM7.98546 2.15764C7.98546 1.63983 8.35745 1.21852 8.8146 1.21852H18.9462C19.4034 1.21852 19.7753 1.63983 19.7753 2.15764V5.58846H18.3748V3.41437C18.3748 3.07787 18.1332 2.8051 17.8352 2.8051H9.92561C9.62755 2.8051 9.38594 3.07787 9.38594 3.41437V5.58846H7.98546V2.15764ZM10.4653 5.58846V4.02363H17.2955V5.58846H10.4653ZM1.14427 8.53662C1.14427 7.58288 1.83154 6.80698 2.67633 6.80698H25.0844C25.9292 6.80698 26.6165 7.58288 26.6165 8.53662V14.187C26.6165 16.0669 25.2618 17.5963 23.5966 17.5963H23.0166V15.0123C23.0166 14.6758 22.7749 14.403 22.4769 14.403H19.1915C18.8934 14.403 18.6518 14.6758 18.6518 15.0123V17.5963H9.10904V15.0123C9.10904 14.6758 8.86743 14.403 8.56938 14.403H5.28389C4.98583 14.403 4.74422 14.6758 4.74422 15.0123V17.5963H4.16414C2.499 17.5963 1.14427 16.0669 1.14427 14.187V8.53662ZM21.9372 15.6216V20.1803H19.7311V15.6216H21.9372ZM8.02971 15.6216V20.1803H5.82361V15.6216H8.02971ZM26.6165 25.0134C26.6165 25.9685 25.9301 26.7454 25.0864 26.7454H2.67439C1.83067 26.7453 1.14427 25.9684 1.14427 25.0134V17.3133C1.89414 18.2357 2.97034 18.8149 4.16414 18.8149H4.74422V20.7896C4.74422 21.1261 4.98583 21.3989 5.28389 21.3989H8.56932C8.86738 21.3989 9.10899 21.1261 9.10899 20.7896V18.8149H18.6517V20.7896C18.6517 21.1261 18.8933 21.3989 19.1914 21.3989H22.4768C22.7748 21.3989 23.0164 21.1261 23.0164 20.7896V18.8149H23.5965C24.7903 18.8149 25.8665 18.2358 26.6164 17.3133V25.0134H26.6165Z" fill="#FFBC05"/>
<path d="M7.47961 10.0662H20.2821C20.5801 10.0662 20.8217 9.79341 20.8217 9.45692C20.8217 9.12042 20.5801 8.84766 20.2821 8.84766H7.47961C7.18155 8.84766 6.93994 9.12042 6.93994 9.45692C6.93994 9.79341 7.18155 10.0662 7.47961 10.0662Z" fill="#FFBC05"/>
</svg>
