<svg width="29" height="25" viewBox="0 0 29 25" fill="none" xmlns="http://www.w3.org/2000/svg">
<path d="M14.0179 14.9303C15.401 14.9303 16.5222 13.8102 16.5222 12.4285C16.5222 11.0468 15.401 9.92676 14.0179 9.92676C12.6349 9.92676 11.5137 11.0468 11.5137 12.4285C11.5137 13.8102 12.6349 14.9303 14.0179 14.9303Z" fill="#212121"/>
<path d="M14.0179 18.1595C10.501 18.1595 7.42801 17.7458 5.12827 16.9584C3.63668 16.4501 2.36958 15.7723 1.46665 14.9999C0.508836 14.1826 0 13.2905 0 12.4283C0 10.7738 1.81585 9.15414 4.86388 8.09762C7.35817 7.23048 10.6107 6.74707 14.013 6.74707C17.3553 6.74707 20.563 7.21553 23.0423 8.0727C24.494 8.57106 25.7162 9.21892 26.5842 9.93656C27.527 10.724 28.0259 11.5861 28.0259 12.4283C28.0259 14.1477 25.9955 15.8869 22.723 16.9684C20.4083 17.7359 17.3154 18.1595 14.0179 18.1595ZM14.0179 7.94313C10.7903 7.94313 7.59762 8.41158 5.26296 9.22391C2.45938 10.2007 1.20225 11.5363 1.20225 12.4283C1.20225 13.3553 2.55416 14.8155 5.51738 15.8271C7.69241 16.5697 10.6357 16.9634 14.0179 16.9634C17.1907 16.9634 20.1489 16.5647 22.3489 15.8321C25.4268 14.8105 26.8336 13.3503 26.8336 12.4283C26.8336 11.9549 26.4745 11.3967 25.8209 10.8535C25.0677 10.2256 23.9702 9.65249 22.6582 9.19899C20.2986 8.39165 17.2306 7.94313 14.0179 7.94313Z" fill="#212121"/>
<path d="M8.33578 24.8973C7.82694 24.8973 7.37797 24.7877 6.99884 24.5684C5.56711 23.7412 5.06825 21.359 5.67187 18.1944C6.16574 15.598 7.37298 12.548 9.07409 9.60274C10.7453 6.71226 12.7507 4.17064 14.7311 2.4513C15.8885 1.44462 17.0608 0.707048 18.1184 0.318329C19.2708 -0.105275 20.2685 -0.105275 20.9968 0.313345C22.4884 1.17052 22.9823 3.80185 22.2839 7.17075C21.79 9.56287 20.6127 12.4484 18.9665 15.304C17.2105 18.3439 15.3148 20.7959 13.484 22.3956C12.2967 23.4322 11.0745 24.1897 9.95707 24.5834C9.3734 24.7927 8.82466 24.8973 8.33578 24.8973ZM9.58791 9.90175L10.1067 10.2008C8.49541 12.9916 7.30314 15.9867 6.84419 18.4187C6.29046 21.3341 6.82424 23.0883 7.59248 23.5318C7.78204 23.6415 8.03147 23.7013 8.33578 23.7013C9.32851 23.7013 10.8899 23.0734 12.6958 21.4985C14.4268 19.9885 16.2377 17.6363 17.9288 14.7109C19.5152 11.965 20.6426 9.20405 21.1116 6.93652C21.7651 3.76198 21.2014 1.81839 20.3982 1.35491C19.9891 1.12069 19.3256 1.15059 18.5275 1.44462C17.6046 1.7835 16.562 2.44632 15.5144 3.35831C13.6337 4.99293 11.7131 7.42491 10.1067 10.2058L9.58791 9.90175Z" fill="#212121"/>
<path d="M19.7014 24.9131C18.3445 24.9131 16.6234 24.0958 14.8275 22.5509C12.8221 20.8266 10.7818 18.26 9.07568 15.3147C7.39952 12.4242 6.20226 9.41915 5.69841 6.84263C5.40408 5.33759 5.34921 3.95714 5.53877 2.8458C5.74829 1.63479 6.24216 0.772635 6.97549 0.34903C8.46209 -0.513129 10.9913 0.373948 13.5654 2.66141C15.3912 4.28108 17.3069 6.74296 18.9581 9.59357C20.7191 12.6336 21.9014 15.4991 22.3703 17.8813C22.6746 19.4262 22.7245 20.8614 22.51 22.0276C22.2805 23.2685 21.7617 24.1506 21.0134 24.5842C20.6392 24.8035 20.1953 24.9131 19.7014 24.9131ZM10.1133 14.7167C11.7296 17.5075 13.735 20.0342 15.6107 21.6439C17.8606 23.5775 19.6465 23.9961 20.4197 23.5476C21.2229 23.0841 21.8116 21.1854 21.2029 18.1155C20.754 15.8629 19.6216 13.1219 17.9254 10.1966C16.3341 7.45063 14.5033 5.0934 12.7722 3.55846C10.3478 1.40555 8.38227 0.922142 7.57911 1.38561C7.17004 1.61984 6.86574 2.21289 6.72107 3.05013C6.55645 4.01695 6.60633 5.25287 6.87572 6.61339C7.35462 9.06033 8.502 11.9359 10.1133 14.7167Z" fill="#212121"/>
</svg>
