<svg width="29" height="25" viewBox="0 0 29 25" fill="none" xmlns="http://www.w3.org/2000/svg">
<path d="M14.0179 14.9304C15.401 14.9304 16.5222 13.8103 16.5222 12.4287C16.5222 11.047 15.401 9.92691 14.0179 9.92691C12.6349 9.92691 11.5137 11.047 11.5137 12.4287C11.5137 13.8103 12.6349 14.9304 14.0179 14.9304Z" fill="#C4C4C4"/>
<path d="M14.0179 18.1593C10.501 18.1593 7.42801 17.7456 5.12827 16.9582C3.63668 16.4499 2.36958 15.7721 1.46665 14.9997C0.508836 14.1824 0 13.2903 0 12.4282C0 10.7736 1.81585 9.15395 4.86388 8.09744C7.35817 7.23029 10.6107 6.74689 14.013 6.74689C17.3553 6.74689 20.563 7.21534 23.0423 8.07252C24.494 8.57088 25.7162 9.21874 26.5842 9.93638C27.527 10.7238 28.0259 11.5859 28.0259 12.4282C28.0259 14.1475 25.9955 15.8868 22.723 16.9682C20.4083 17.7357 17.3154 18.1593 14.0179 18.1593ZM14.0179 7.94295C10.7903 7.94295 7.59762 8.4114 5.26296 9.22372C2.45938 10.2005 1.20225 11.5361 1.20225 12.4282C1.20225 13.3551 2.55416 14.8153 5.51738 15.827C7.69241 16.5695 10.6357 16.9632 14.0179 16.9632C17.1907 16.9632 20.1489 16.5645 22.3489 15.8319C25.4268 14.8103 26.8336 13.3501 26.8336 12.4282C26.8336 11.9547 26.4745 11.3966 25.8209 10.8534C25.0677 10.2254 23.9702 9.65231 22.6582 9.19881C20.2986 8.39147 17.2306 7.94295 14.0179 7.94295Z" fill="#C4C4C4"/>
<path d="M8.33578 24.8973C7.82694 24.8973 7.37797 24.7877 6.99884 24.5684C5.56711 23.7412 5.06825 21.359 5.67187 18.1944C6.16574 15.598 7.37298 12.548 9.07409 9.60274C10.7453 6.71226 12.7507 4.17064 14.7311 2.4513C15.8885 1.44462 17.0608 0.707048 18.1184 0.318329C19.2708 -0.105275 20.2685 -0.105275 20.9968 0.313345C22.4884 1.17052 22.9823 3.80185 22.2839 7.17075C21.79 9.56287 20.6127 12.4484 18.9665 15.304C17.2105 18.3439 15.3148 20.7959 13.484 22.3956C12.2967 23.4322 11.0745 24.1897 9.95707 24.5834C9.3734 24.7927 8.82466 24.8973 8.33578 24.8973ZM9.58791 9.90175L10.1067 10.2008C8.49541 12.9916 7.30314 15.9867 6.84419 18.4187C6.29046 21.3341 6.82424 23.0883 7.59248 23.5318C7.78204 23.6415 8.03147 23.7013 8.33578 23.7013C9.32851 23.7013 10.8899 23.0734 12.6958 21.4985C14.4268 19.9885 16.2377 17.6363 17.9288 14.7109C19.5152 11.965 20.6426 9.20405 21.1116 6.93652C21.7651 3.76198 21.2014 1.81839 20.3982 1.35491C19.9891 1.12069 19.3256 1.15059 18.5275 1.44462C17.6046 1.7835 16.562 2.44632 15.5144 3.35831C13.6337 4.99293 11.7131 7.42491 10.1067 10.2058L9.58791 9.90175Z" fill="#C4C4C4"/>
<path d="M19.7014 24.913C18.3445 24.913 16.6234 24.0957 14.8275 22.5508C12.8221 20.8264 10.7818 18.2599 9.07568 15.3146C7.39952 12.4241 6.20226 9.41902 5.69841 6.84251C5.40408 5.33747 5.34921 3.95702 5.53877 2.84568C5.74829 1.63467 6.24216 0.772512 6.97549 0.348908C8.46209 -0.513251 10.9913 0.373826 13.5654 2.66129C15.3912 4.28095 17.3069 6.74284 18.9581 9.59345C20.7191 12.6334 21.9014 15.499 22.3703 17.8811C22.6746 19.4261 22.7245 20.8613 22.51 22.0275C22.2805 23.2684 21.7617 24.1505 21.0134 24.5841C20.6392 24.8033 20.1953 24.913 19.7014 24.913ZM10.1133 14.7166C11.7296 17.5074 13.735 20.034 15.6107 21.6437C17.8606 23.5774 19.6465 23.996 20.4197 23.5475C21.2229 23.084 21.8116 21.1853 21.2029 18.1154C20.754 15.8628 19.6216 13.1218 17.9254 10.1965C16.3341 7.45051 14.5033 5.09328 12.7722 3.55833C10.3478 1.40543 8.38227 0.92202 7.57911 1.38549C7.17004 1.61972 6.86574 2.21277 6.72107 3.05001C6.55645 4.01682 6.60633 5.25275 6.87572 6.61327C7.35462 9.06021 8.502 11.9357 10.1133 14.7166Z" fill="#C4C4C4"/>
</svg>
