<svg width="26" height="26" viewBox="0 0 26 26" fill="none" xmlns="http://www.w3.org/2000/svg">
<path d="M18.1387 5.01004H17.5132V3.64446C18.0742 3.44599 18.5079 2.99356 18.682 2.42476C18.8562 1.85618 18.7502 1.23856 18.3963 0.760394C18.0426 0.282023 17.4828 0 16.8878 0C16.2928 0 15.7331 0.281996 15.3791 0.760394C15.0254 1.23856 14.9192 1.85613 15.0935 2.42476C15.2677 2.99356 15.7012 3.446 16.2623 3.64446V5.01004H8.75652V3.64446C9.31757 3.44599 9.75109 2.99356 9.92533 2.42476C10.0996 1.85618 9.99339 1.23856 9.63967 0.760394C9.28574 0.282023 8.72595 0 8.13096 0C7.53597 0 6.9762 0.281996 6.62247 0.760394C6.26854 1.23856 6.16257 1.85613 6.33681 2.42476C6.51085 2.99356 6.94457 3.446 7.50562 3.64446V5.01004H6.88007C6.05095 5.01108 5.25599 5.3406 4.66979 5.92676C4.08337 6.51298 3.75355 7.30746 3.75275 8.13629V18.1407C3.75358 18.9695 4.08343 19.7642 4.66979 20.3502C5.25599 20.9365 6.05095 21.2662 6.88007 21.267H8.75651V24.3934C8.7563 24.6302 8.89012 24.8469 9.10206 24.9529C9.31399 25.0588 9.56761 25.0358 9.75693 24.8936L14.5942 21.267H18.1387C18.9678 21.2662 19.7628 20.9364 20.349 20.3503C20.9354 19.7643 21.2652 18.9696 21.266 18.1407V8.13632C21.2652 7.30749 20.9354 6.513 20.349 5.92679C19.7628 5.34058 18.9678 5.01105 18.1387 5.01004ZM9.38219 9.07419C10.4695 9.07419 11.2586 9.73179 11.2586 10.6374C11.2586 10.9826 10.9784 11.2628 10.6331 11.2628C10.2877 11.2628 10.0075 10.9826 10.0075 10.6374C10.0075 10.2064 8.75664 10.2064 8.75664 10.6374C8.75664 10.9826 8.47664 11.2628 8.13109 11.2628C7.78575 11.2628 7.50575 10.9826 7.50575 10.6374C7.50575 9.73195 8.29487 9.07419 9.38219 9.07419ZM17.1673 16.199C15.7118 16.8859 14.1187 17.2319 12.5092 17.2108C10.8998 17.2319 9.30676 16.8859 7.85123 16.199C7.54212 16.0445 7.41688 15.6689 7.57144 15.3601C7.72578 15.0511 8.1017 14.9259 8.41058 15.0804C10.7475 16.248 14.271 16.248 16.6079 15.0804C16.9168 14.9259 17.2927 15.0511 17.4471 15.3601C17.6016 15.6689 17.4764 16.0445 17.1673 16.199ZM16.8877 11.2629C16.7216 11.2629 16.5624 11.1971 16.4452 11.0797C16.3279 10.9624 16.2621 10.8033 16.2621 10.6375C16.2621 10.2065 15.0112 10.2065 15.0112 10.6375C15.0112 10.9828 14.731 11.2629 14.3857 11.2629C14.0404 11.2629 13.7601 10.9828 13.7601 10.6375C13.7601 9.73206 14.5493 9.0743 15.6366 9.0743C16.7239 9.0743 17.513 9.7319 17.513 10.6375C17.5132 10.8033 17.4473 10.9624 17.33 11.0797C17.2127 11.1971 17.0535 11.2629 16.8877 11.2629Z" fill="#C4C4C4"/>
<path d="M0 11.8878V14.3889C0.000418821 14.8863 0.198323 15.363 0.550171 15.7147C0.90202 16.0664 1.37886 16.2641 1.87644 16.2647H2.50199L2.50178 10.0119H1.87644C1.37885 10.0125 0.901982 10.2103 0.550176 10.5621C0.198344 10.9136 0.000433808 11.3905 4.90837e-06 11.8877L0 11.8878Z" fill="#C4C4C4"/>
<path d="M23.1424 10.012H22.517V16.2648H23.1426H23.1424C23.64 16.2642 24.1168 16.0666 24.4686 15.7148C24.8204 15.3631 25.0184 14.8864 25.0188 14.389V11.8879C25.0184 11.3907 24.8205 10.9138 24.4686 10.5623C24.1168 10.2106 23.64 10.0127 23.1424 10.0121L23.1424 10.012Z" fill="#C4C4C4"/>
</svg>
