<svg width="16" height="26" viewBox="0 0 16 26" fill="none" xmlns="http://www.w3.org/2000/svg">
<path d="M0.00700908 12.6791C0.00823452 12.7299 0.0190187 12.778 0.0393617 12.8245C0.0458974 12.84 0.0508808 12.8551 0.0599493 12.8694C0.0913209 12.9218 0.131188 12.9698 0.187479 13.0039C0.188214 13.0044 0.189767 13.0044 0.190502 13.0049C0.191482 13.0054 0.191727 13.0067 0.192789 13.0072L7.66069 17.3829C7.66649 17.3864 7.67327 17.3847 7.67948 17.3882C7.73316 17.4158 7.79239 17.4364 7.85791 17.4364C7.92343 17.4364 7.98266 17.4158 8.03683 17.3873C8.04361 17.3845 8.05137 17.3855 8.0579 17.3819L15.393 13.0054C15.4504 12.9712 15.4906 12.9223 15.5232 12.8689C15.5321 12.8541 15.5375 12.8403 15.5438 12.8244C15.5644 12.7778 15.5752 12.7298 15.577 12.6791C15.577 12.6683 15.584 12.6595 15.5833 12.6492C15.5833 12.6445 15.5795 12.6412 15.5785 12.6364C15.574 12.5789 15.5597 12.5226 15.5284 12.47L8.19286 0.190274C8.19008 0.18529 8.18534 0.183248 8.18207 0.178509C8.17325 0.164457 8.16247 0.153429 8.15168 0.140847C8.13812 0.124997 8.12431 0.110945 8.10855 0.0968929C8.09654 0.0870892 8.08567 0.0763054 8.07293 0.0682987C8.06794 0.0647857 8.06541 0.0598022 8.06035 0.0567795C8.05185 0.0514691 8.04254 0.0514691 8.03396 0.047221C8.01688 0.0381527 7.99981 0.0316985 7.98102 0.0251625C7.9655 0.0196072 7.94989 0.0141335 7.93306 0.0108657C7.91648 0.00710755 7.90047 0.00637241 7.88388 0.00555528C7.87489 0.00449323 7.86689 0 7.85782 0C7.84875 0 7.84173 0.00449325 7.83274 0.00498348C7.81664 0.00645404 7.80161 0.00678082 7.78609 0.00996697C7.76828 0.0132348 7.75194 0.0190352 7.73437 0.0247541C7.71607 0.0310447 7.699 0.0378256 7.68193 0.0468125C7.67416 0.0510606 7.66534 0.0510606 7.65758 0.055309C7.65309 0.0580866 7.65031 0.0628252 7.64606 0.0656028C7.63225 0.0746711 7.62049 0.0857003 7.60742 0.0969744C7.59189 0.110536 7.57784 0.123854 7.56428 0.139621C7.55448 0.15163 7.54369 0.162497 7.53569 0.17524C7.53193 0.180224 7.52719 0.182757 7.52392 0.187822L0.0562263 12.4679C0.0238739 12.5206 0.00957673 12.5781 0.00451126 12.6365C0.00402107 12.6415 0.00050796 12.6448 1.79356e-05 12.6501C-0.000390564 12.6598 0.00630867 12.6688 0.00688047 12.6791L0.00700908 12.6791ZM8.24833 1.80468L14.2131 11.7911L8.24833 9.05507V1.80468ZM7.46755 9.05277L1.37874 11.7961L7.46755 1.78355V9.05277ZM7.46755 9.90961V16.3642L1.23966 12.7155L7.46755 9.90961ZM8.24833 16.3579V9.9138L14.3549 12.7157L8.24833 16.3579Z" fill="#212121"/>
<path d="M15.5489 14.0126C15.4252 13.8771 15.2214 13.8502 15.0633 13.9408L7.85681 18.1957L0.653049 13.941C0.495702 13.8495 0.291858 13.8773 0.166622 14.0129C0.0418721 14.1494 0.0288006 14.3526 0.135495 14.5035L7.53794 24.9327C7.54374 24.9407 7.55322 24.9432 7.55902 24.9505C7.57429 24.9691 7.58965 24.9854 7.60746 25.0007C7.61596 25.0077 7.62102 25.0185 7.63034 25.0248C7.63761 25.0301 7.64692 25.0278 7.65468 25.0328C7.66726 25.04 7.67805 25.0506 7.69186 25.0574C7.74153 25.0815 7.79651 25.0967 7.85525 25.0967H7.85598H7.85647H7.85697H7.8577C7.91644 25.0967 7.97118 25.0812 8.02109 25.0574C8.0349 25.0508 8.04569 25.0403 8.05827 25.0328C8.06578 25.0275 8.07509 25.03 8.08261 25.0248C8.09192 25.0187 8.09691 25.0079 8.10549 25.0007C8.1233 24.9852 8.1389 24.9691 8.15369 24.9505C8.15949 24.9432 8.16921 24.9407 8.17477 24.9327L15.5799 14.5035C15.687 14.3526 15.6738 14.1493 15.5488 14.0128L15.5489 14.0126ZM7.46652 18.8729V23.4812L1.83323 15.545L7.46652 18.8729ZM8.2473 23.4812V18.8729L13.8829 15.545L8.2473 23.4812Z" fill="#212121"/>
<path d="M1.04541 12.2L7.66831 1.04565L14.9884 12.2L14.2912 13.2457L7.66831 16.7315L1.74256 13.5943L1.04541 12.2Z" fill="#212121"/>
<path d="M9.063 4.18282L9.41157 2.78852L8.36585 1.7428L7.6687 1.04565V2.09137L8.01727 3.1371L9.063 4.18282Z" fill="#212121"/>
</svg>
