<svg width="28" height="28" viewBox="0 0 28 28" fill="none" xmlns="http://www.w3.org/2000/svg">
<path d="M27.583 25.7049C26.7801 24.4208 25.4072 23.6541 23.9108 23.6541C23.0185 23.6541 22.1693 23.9241 21.4516 24.4264C21.1731 23.793 20.748 23.2276 20.2116 22.787C19.4418 22.1548 18.4715 21.8066 17.4796 21.8066C16.5258 21.8066 15.6204 22.1144 14.8611 22.6968C14.4568 23.007 14.1086 23.3892 13.8334 23.8189C13.5582 23.3893 13.21 23.007 12.8056 22.6968C12.0464 22.1144 11.141 21.8066 10.1872 21.8066C9.19526 21.8066 8.22499 22.1548 7.45518 22.787C6.91866 23.2276 6.49366 23.793 6.21516 24.4264C5.49745 23.9241 4.64826 23.6541 3.75596 23.6541C2.25948 23.6541 0.886683 24.4208 0.0837564 25.7049C0.0290175 25.7924 0 25.8938 0 25.9973V27.4533C0 27.7553 0.241975 28.0002 0.540364 28.0002H27.1263C27.4247 28.0002 27.6666 27.7553 27.6666 27.4533V25.9973C27.6667 25.8938 27.6377 25.7924 27.583 25.7049V25.7049ZM26.586 26.9064H1.08084V26.1623C1.69345 25.2738 2.68264 24.7479 3.75607 24.7479C4.64065 24.7479 5.46891 25.1014 6.08828 25.7434C6.22667 25.8868 6.43152 25.9422 6.622 25.8876C6.81258 25.833 6.95843 25.6773 7.00198 25.4818C7.34111 23.9619 8.65101 22.9004 10.1872 22.9004C11.618 22.9004 12.9045 23.8719 13.3157 25.2628C13.3842 25.4943 13.5946 25.6529 13.8334 25.6529C14.0722 25.6529 14.2826 25.4943 14.351 25.2628C14.7622 23.8719 16.0487 22.9004 17.4795 22.9004C19.0158 22.9004 20.3256 23.9619 20.6648 25.4818C20.7084 25.6773 20.8542 25.833 21.0447 25.8876C21.2352 25.942 21.44 25.8868 21.5785 25.7434C22.1978 25.1014 23.0261 24.7479 23.9107 24.7479C24.9841 24.7479 25.9733 25.2738 26.5859 26.1622V26.9064H26.586Z" fill="#FFBC05"/>
<path d="M8.07051 20.1912C8.1628 20.3685 8.34355 20.4805 8.54154 20.4831C8.54392 20.4831 8.54624 20.4831 8.54862 20.4831C8.74391 20.4831 8.92428 20.3764 9.01998 20.2036L9.99669 18.44C10.0667 18.4732 10.1446 18.4915 10.2257 18.4915H11.6832C11.6807 18.5347 11.6794 18.5782 11.6794 18.6219C11.6794 20.4027 13.5281 21.2884 13.6068 21.3253C13.6787 21.359 13.7562 21.3757 13.8335 21.3757C13.9144 21.3757 13.9954 21.3574 14.07 21.3206C14.1482 21.2821 15.9876 20.3565 15.9876 18.6219C15.9876 18.5782 15.9864 18.5347 15.9839 18.4915H17.4413C17.5244 18.4915 17.6039 18.4723 17.6753 18.4376L18.6465 20.2024C18.7419 20.3758 18.9226 20.4831 19.1185 20.4831H19.1248C19.323 20.4808 19.5042 20.3688 19.5965 20.1912L21.0548 17.3903C21.7388 16.0766 21.6373 14.5075 20.7898 13.2952L19.5389 11.506C19.5287 11.4914 19.5178 11.4774 19.5064 11.464C19.7046 10.4586 19.8402 9.60849 19.8402 9.16328C19.8402 7.10424 18.8756 4.94852 16.9734 2.75599C15.5826 1.15305 14.2083 0.145161 14.1505 0.102997C13.962 -0.0342685 13.7079 -0.0343779 13.5193 0.102942C13.4614 0.145106 12.0865 1.15289 10.6951 2.75577C8.79195 4.94825 7.82697 7.10397 7.82697 9.16306C7.82697 9.60827 7.96249 10.4584 8.16069 11.4639C8.14929 11.4773 8.13843 11.4913 8.12816 11.5059L6.87728 13.2951C6.02977 14.5074 5.92824 16.0765 6.61228 17.3902L8.07051 20.1912ZM14.9069 18.6219C14.9069 19.3921 14.205 19.9539 13.8288 20.1996C13.4542 19.9613 12.7601 19.413 12.7601 18.6219C12.7601 18.578 12.7626 18.5345 12.7677 18.4916H14.8994C14.9043 18.5345 14.9069 18.578 14.9069 18.6219ZM19.9076 13.927C20.5188 14.8013 20.592 15.933 20.0987 16.8805L19.1053 18.7885L18.2013 17.1459C18.4524 16.1421 18.8574 14.4876 19.2019 12.9177L19.9076 13.927ZM13.8346 1.23716C14.3121 1.62276 15.2613 2.43831 16.2001 3.52774H11.468C12.4073 2.4382 13.3571 1.62265 13.8346 1.23716V1.23716ZM10.6075 4.62149H17.0602C18.0004 5.94367 18.7593 7.51987 18.7593 9.16334C18.7593 10.3177 17.5906 15.1612 17.0228 17.3978H10.6441C10.0764 15.1612 8.90764 10.3177 8.90764 9.16317C8.90764 7.51971 9.66685 5.94356 10.6075 4.62149V4.62149ZM7.75942 13.927L8.46508 12.9176C8.81086 14.4933 9.21748 16.1541 9.46837 17.1568L8.56321 18.7913L7.56829 16.8805C7.075 15.933 7.14821 14.8013 7.75942 13.927Z" fill="#FFBC05"/>
<path d="M13.8338 12.8964C15.6657 12.8964 17.156 11.388 17.156 9.53411C17.156 7.68021 15.6657 6.17188 13.8338 6.17188C12.0019 6.17188 10.5116 7.68015 10.5116 9.53411C10.5116 11.3881 12.0019 12.8964 13.8338 12.8964ZM13.8338 7.26562C15.0698 7.26562 16.0753 8.28325 16.0753 9.53411C16.0753 10.785 15.0698 11.8026 13.8338 11.8026C12.5978 11.8026 11.5923 10.785 11.5923 9.53411C11.5923 8.28325 12.5978 7.26562 13.8338 7.26562Z" fill="#FFBC05"/>
</svg>
