<svg width="23" height="25" viewBox="0 0 23 25" fill="none" xmlns="http://www.w3.org/2000/svg">
<path d="M21.3609 5.4548L12.2836 0.270116C11.9575 0.0930944 11.5887 0 11.2134 0C10.838 0 10.4692 0.0930944 10.1432 0.270116L1.06527 5.45424C0.738127 5.64516 0.468218 5.9132 0.281616 6.23247C0.0950153 6.55174 -0.00197011 6.91144 3.03304e-05 7.27683V17.6312C-0.00193233 17.9968 0.0950541 18.3567 0.281637 18.6762C0.468221 18.9958 0.738106 19.2641 1.06527 19.4554L3.4457 20.8092L3.45914 20.8164C4.66103 21.4021 5.12123 21.4021 5.65444 21.4021C7.53145 21.4021 8.69773 20.2452 8.69773 18.3826V8.34302C8.69882 8.21768 8.64766 8.09705 8.55547 8.00759C8.46328 7.91813 8.3376 7.86714 8.20599 7.86582H6.89897C6.76736 7.86714 6.64167 7.91813 6.54949 8.00759C6.4573 8.09705 6.40614 8.21768 6.40723 8.34302V18.3826C6.41199 18.5263 6.37765 18.6688 6.30756 18.7961C6.23746 18.9235 6.13399 19.0314 6.00718 19.1095C5.66261 19.3097 5.16212 19.2674 4.59738 18.9899L2.31622 17.6823C2.30749 17.6767 2.30036 17.669 2.29547 17.6601C2.29058 17.6512 2.28808 17.6412 2.28819 17.6312V7.42311C2.28857 7.41137 2.29189 7.39989 2.29789 7.38963C2.30388 7.37938 2.31237 7.37064 2.32265 7.36415L11.1903 2.19171C11.1969 2.18857 11.2042 2.18694 11.2116 2.18694C11.219 2.18694 11.2263 2.18857 11.2329 2.19171L20.1058 7.36415C20.1159 7.37116 20.1241 7.38038 20.1297 7.39102C20.1353 7.40167 20.1381 7.41343 20.1379 7.42533V17.6312C20.1382 17.6417 20.1359 17.6522 20.1314 17.6618C20.1268 17.6714 20.1201 17.68 20.1117 17.6868L11.2312 22.7285C11.216 22.7335 11.1996 22.7335 11.1845 22.7285L8.91673 21.446C8.84941 21.4041 8.77164 21.3799 8.69132 21.3759C8.611 21.3719 8.531 21.3882 8.45945 21.4232L8.43959 21.4343C7.81353 21.7875 7.64534 21.8793 7.06483 22.0806C6.97022 22.1134 6.74771 22.1918 6.72844 22.4015C6.70916 22.6112 6.92058 22.7602 7.10863 22.8642L10.1397 24.6368C10.4626 24.821 10.8319 24.9185 11.2084 24.9188H11.2423C11.6093 24.9133 11.9684 24.816 12.2836 24.6368L21.3609 19.4571C21.6879 19.2652 21.9576 18.9965 22.1441 18.6767C22.3306 18.357 22.4277 17.997 22.4261 17.6312V7.27683C22.4279 6.91155 22.3309 6.55198 22.1443 6.23282C21.9577 5.91367 21.6879 5.64571 21.3609 5.4548Z" fill="#212121"/>
<path d="M14.2144 15.874C12.0233 15.874 11.5562 15.2919 11.4175 14.3524C11.4019 14.2405 11.3446 14.1377 11.2559 14.0626C11.1673 13.9876 11.0532 13.9453 10.9346 13.9435H9.77117C9.64005 13.9461 9.51537 13.998 9.42442 14.0878C9.33346 14.1777 9.28363 14.2981 9.28584 14.4227C9.28584 15.2372 9.58667 17.8955 14.2167 17.8955C15.6492 17.8955 16.8408 17.5771 17.6617 16.9744C18.4825 16.3717 18.922 15.4947 18.922 14.4496C18.922 12.352 17.4824 11.7778 14.6474 11.4024C11.7654 11.0215 11.7654 10.8277 11.7654 10.4031C11.7654 10.0976 11.7654 9.38203 13.8489 9.38203C15.3314 9.38203 16.1252 9.56022 16.379 10.4992C16.4015 10.6033 16.4607 10.697 16.5468 10.7647C16.6329 10.8325 16.7408 10.8703 16.8526 10.8718H18.0201C18.0889 10.8711 18.1568 10.8566 18.2192 10.829C18.2816 10.8015 18.3371 10.7616 18.382 10.712C18.4718 10.6124 18.5165 10.4831 18.5066 10.3523C18.3556 8.36651 16.8285 7.35938 13.8507 7.35938C11.1443 7.35938 9.52909 8.51845 9.52909 10.4595C9.52909 12.5878 11.2031 13.1894 13.7179 13.4385C16.6557 13.7273 16.6557 14.1485 16.6557 14.5205C16.6575 15.1003 16.4043 15.874 14.2144 15.874Z" fill="#212121"/>
</svg>
