<svg width="25" height="26" viewBox="0 0 25 26" fill="none" xmlns="http://www.w3.org/2000/svg">
<path fill-rule="evenodd" clip-rule="evenodd" d="M5.05493 0C5.16726 0 5.2796 0 5.39194 0C6.92366 1.11551 8.84597 1.84428 10.3348 3.00226C10.3348 6.3381 10.3348 9.67394 10.3348 13.0098C11.5845 12.7267 12.8557 11.5025 14.2666 11.0083C14.2666 9.22916 14.2666 7.45005 14.2666 5.67093C15.857 4.53941 17.6641 3.62239 19.4341 2.66867C21.2041 3.62239 23.0111 4.53941 24.6016 5.67093C24.6016 7.52421 24.6016 9.37739 24.6016 11.2307C23.1274 12.3289 21.3318 13.1091 19.7711 14.1217C19.7711 15.9008 19.7711 17.68 19.7711 19.4591C16.5669 21.3283 13.2595 23.0954 10.1101 25.0188C9.99776 25.0188 9.88543 25.0188 9.77309 25.0188C6.6017 23.006 3.02769 21.3915 -0.000244141 19.2367C-0.000244141 13.8253 -0.000244141 8.41377 -0.000244141 3.00226C1.54529 1.8634 3.42042 1.05079 5.05493 0ZM5.16726 0.889558C3.80563 1.5803 2.49533 2.32186 1.23546 3.11345C2.48735 3.8758 3.83944 4.53897 5.05493 5.33735C6.49498 4.65005 7.88672 3.91494 9.09907 3.00226C7.68789 2.39769 6.56463 1.50791 5.16726 0.889558ZM19.4341 3.55823C18.0387 4.21573 16.7737 5.00209 15.5023 5.78213C16.7543 6.54448 18.1064 7.20764 19.3217 8.00602C20.7612 7.31817 22.1369 6.56716 23.3659 5.67093C21.9466 5.07426 20.8482 4.16002 19.4341 3.55823ZM0.786116 19.0143C3.77013 20.5825 6.53935 22.3635 9.54841 23.9069C9.54841 22.4243 9.54841 20.9416 9.54841 19.4591C8.02995 18.4788 6.24536 17.7618 4.83025 16.6792C4.83025 13.158 4.83025 9.63691 4.83025 6.11571C3.54635 5.27385 2.17045 4.52307 0.786116 3.78062C0.786116 8.85855 0.786116 13.9365 0.786116 19.0143ZM5.50428 6.11571C5.50428 9.34036 5.50428 12.565 5.50428 15.7897C6.99488 15.1524 8.36854 14.3994 9.54841 13.4546C9.4736 10.2669 9.69816 6.78299 9.43608 3.78062C8.19801 4.63082 6.72561 5.24906 5.50428 6.11571ZM15.0529 10.8971C16.3974 11.642 17.6499 12.4777 19.0971 13.121C19.0971 11.6754 19.0971 10.2299 19.0971 8.78438C17.8144 7.94131 16.4261 7.20275 15.0529 6.44929C15.0529 7.93185 15.0529 9.41452 15.0529 10.8971ZM19.7711 8.67319C19.7711 10.1557 19.7711 11.6384 19.7711 13.121C21.2337 12.4931 22.4448 11.6162 23.8152 10.8971C23.7406 9.45122 23.9645 7.70991 23.7029 6.44929C22.4128 7.21087 21.1379 7.98756 19.7711 8.67319ZM14.6036 11.5643C11.8717 13.382 8.65017 14.7152 6.06596 16.6792C7.47546 17.2854 8.64601 18.1284 9.99776 18.7919C12.7891 17.033 15.8393 15.5301 18.6477 13.7881C17.2209 13.1248 16.0121 12.2458 14.6036 11.5643ZM18.8724 14.5665C16.0502 16.1836 13.2763 17.8488 10.3348 19.3479C10.3348 20.8676 10.3348 22.3872 10.3348 23.9069C13.2955 22.2785 16.2422 20.6363 19.0971 18.9031C18.9516 17.5274 19.3907 15.5732 18.8724 14.5665Z" fill="#212121"/>
</svg>
