<svg width="28" height="28" viewBox="0 0 28 28" fill="none" xmlns="http://www.w3.org/2000/svg">
<path d="M14.4201 22.7206C14.4201 23.0424 14.1785 23.3032 13.8804 23.3032C13.5823 23.3032 13.3407 23.0424 13.3407 22.7206C13.3407 22.3988 13.5823 22.1381 13.8804 22.1381C14.1785 22.1381 14.4201 22.3988 14.4201 22.7206Z" fill="#FFBC05"/>
<path d="M25.915 17.4774C25.915 15.5499 24.4625 13.9819 22.677 13.9819C20.8915 13.9819 19.439 15.5499 19.439 17.4774C19.439 19.4049 20.8915 20.9729 22.677 20.9729C24.4625 20.9729 25.915 19.4049 25.915 17.4774ZM22.677 19.8077C21.4868 19.8077 20.5183 18.7623 20.5183 17.4774C20.5183 16.1925 21.4868 15.1471 22.677 15.1471C23.8672 15.1471 24.8357 16.1925 24.8357 17.4774C24.8357 18.7623 23.8672 19.8077 22.677 19.8077Z" fill="#FFBC05"/>
<path d="M22.677 20.9729C21.3171 20.9729 19.9609 21.5823 19.0372 22.5704C17.8213 20.8454 15.9463 19.8077 13.8804 19.8077C11.902 19.8077 9.98491 20.7822 8.72386 22.5704C7.79989 21.5826 6.44397 20.9729 5.08384 20.9729C2.36337 20.9729 0.0649414 23.374 0.0649414 26.2161V27.3813C0.0649414 27.7031 0.306527 27.9639 0.604608 27.9639H27.1562C27.4543 27.9639 27.6959 27.7031 27.6959 27.3813V26.2161C27.6959 23.374 25.3975 20.9729 22.677 20.9729ZM1.14428 26.2161C1.14428 24.0055 2.94837 22.1381 5.08384 22.1381C6.25235 22.1381 7.41116 22.697 8.12854 23.5854C7.65422 24.5744 7.40441 25.6768 7.40441 26.7987H1.14428V26.2161ZM13.8804 20.9729C16.8834 20.9729 19.2771 23.6031 19.2771 26.7987H8.48375C8.48375 23.5606 10.9264 20.9729 13.8804 20.9729ZM26.6166 26.7987H20.3564C20.3564 25.6768 20.1066 24.5744 19.6323 23.5854C20.3497 22.697 21.5085 22.1381 22.677 22.1381C24.8125 22.1381 26.6166 24.0055 26.6166 26.2161V26.7987Z" fill="#FFBC05"/>
<path d="M8.32185 17.4774C8.32185 15.5499 6.86938 13.9819 5.08384 13.9819C3.29831 13.9819 1.84584 15.5499 1.84584 17.4774C1.84584 19.4049 3.29831 20.9729 5.08384 20.9729C6.86938 20.9729 8.32185 19.4049 8.32185 17.4774ZM5.08384 19.8077C3.89363 19.8077 2.92518 18.7623 2.92518 17.4774C2.92518 16.1925 3.89363 15.1471 5.08384 15.1471C6.27406 15.1471 7.24251 16.1925 7.24251 17.4774C7.24251 18.7623 6.27406 19.8077 5.08384 19.8077Z" fill="#FFBC05"/>
<path d="M18.1978 15.1471C18.1978 12.5771 16.2611 10.4864 13.8804 10.4864C11.4998 10.4864 9.56308 12.5771 9.56308 15.1471C9.56308 17.717 11.4998 19.8077 13.8804 19.8077C16.2611 19.8077 18.1978 17.717 18.1978 15.1471ZM13.8804 18.6426C12.0949 18.6426 10.6424 17.0746 10.6424 15.1471C10.6424 13.2196 12.0949 11.6516 13.8804 11.6516C15.666 11.6516 17.1184 13.2196 17.1184 15.1471C17.1184 17.0746 15.666 18.6426 13.8804 18.6426Z" fill="#FFBC05"/>
<path d="M18.1514 3.3883C18.088 3.17734 17.9191 3.02373 17.7157 2.99187L15.388 2.62707L14.3457 0.326791C14.2553 0.126757 14.0673 0 13.8611 0C13.6549 0 13.4669 0.126757 13.3762 0.326564L12.3342 2.62707L10.0065 2.99164C9.80305 3.0235 9.63419 3.17734 9.57074 3.3883C9.50728 3.59925 9.5602 3.83069 9.70734 3.98544L11.393 5.7589L10.9952 8.26331C10.9604 8.48178 11.0436 8.70275 11.21 8.83292C11.3752 8.96263 11.5953 8.98107 11.7783 8.8773L13.8611 7.69507L15.9447 8.8773C16.1264 8.98061 16.3467 8.96332 16.5131 8.83292C16.6792 8.70252 16.7624 8.48178 16.7277 8.26308L16.3294 5.7589L18.0148 3.98544C18.162 3.83069 18.2149 3.59925 18.1514 3.3883ZM15.3726 5.13831C15.2455 5.27212 15.1873 5.4651 15.2174 5.65399L15.4786 7.29682L14.1122 6.52126C13.9549 6.43205 13.7671 6.43205 13.6098 6.52126L12.2438 7.29682L12.5048 5.65399C12.5347 5.46488 12.4765 5.27212 12.3494 5.13831L11.2439 3.9752L12.7712 3.7358C12.9479 3.70826 13.1003 3.5881 13.1785 3.41515L13.8611 1.90863L14.5435 3.41515C14.6219 3.58833 14.7743 3.70826 14.9508 3.7358L16.4783 3.9752L15.3726 5.13831Z" fill="#FFBC05"/>
<path d="M26.2178 7.75469C26.1543 7.54373 25.9855 7.39012 25.782 7.35826L24.205 7.11089L23.4998 5.56797C23.409 5.36907 23.2216 5.24322 23.016 5.24322C22.8107 5.24322 22.6229 5.36907 22.532 5.56797L21.8264 7.11089L20.2492 7.35826C20.046 7.39012 19.8771 7.54373 19.8137 7.75469C19.75 7.96565 19.8029 8.19709 19.95 8.35183L21.0911 9.55318L20.8217 11.2486C20.7872 11.467 20.8702 11.6878 21.0365 11.8182C21.2027 11.9486 21.423 11.9659 21.6047 11.8628L23.0158 11.0624L24.4265 11.8628C24.6083 11.9659 24.8288 11.9486 24.9949 11.8182C25.161 11.688 25.2441 11.467 25.2095 11.2486L24.9401 9.55318L26.0814 8.35183C26.2285 8.19709 26.2812 7.96565 26.2178 7.75469ZM23.9836 8.93282C23.8563 9.06663 23.7983 9.25939 23.8285 9.44827L23.9609 10.2821L23.2671 9.88862C23.1098 9.79941 22.922 9.79941 22.765 9.88862L22.0706 10.2823L22.2032 9.44827C22.2331 9.25939 22.1751 9.06663 22.048 8.93282L21.4864 8.34159L22.2624 8.22007C22.4382 8.19254 22.5902 8.07329 22.6688 7.90147L23.0158 7.14253L23.3626 7.90125C23.4412 8.07329 23.5932 8.19254 23.769 8.22007L24.545 8.34159L23.9836 8.93282Z" fill="#FFBC05"/>
<path d="M7.8691 7.75469C7.80565 7.54373 7.63679 7.39012 7.43336 7.35826L5.85631 7.11089L5.15116 5.56797C5.0603 5.36907 4.87289 5.24322 4.66736 5.24322C4.46182 5.24322 4.2742 5.36907 4.18334 5.56797L3.47777 7.11089L1.90051 7.35826C1.69729 7.39012 1.52843 7.54373 1.46498 7.75469C1.40132 7.96565 1.45423 8.19709 1.60137 8.35183L2.74247 9.55318L2.47327 11.2486C2.43849 11.467 2.52176 11.6878 2.68787 11.8182C2.85399 11.9486 3.07428 11.9659 3.25621 11.8628L4.66715 11.0624L6.07787 11.8628C6.26085 11.9666 6.48093 11.9479 6.64621 11.8182C6.81232 11.688 6.89559 11.467 6.86081 11.2486L6.5914 9.55318L7.73271 8.35183C7.87985 8.19709 7.93255 7.96565 7.8691 7.75469ZM5.63475 8.93282C5.50763 9.06663 5.44966 9.25939 5.4796 9.44827L5.6122 10.2821L4.91822 9.88862C4.76117 9.79941 4.57334 9.79941 4.41628 9.88862L3.72167 10.2823L3.85427 9.44827C3.88442 9.25939 3.82623 9.06663 3.69912 8.93282L3.13753 8.34159L3.91372 8.22007C4.08932 8.19254 4.24131 8.07329 4.31995 7.90147L4.66693 7.14253L5.01371 7.90125C5.09234 8.07329 5.24434 8.19254 5.42015 8.22007L6.19613 8.34159L5.63475 8.93282Z" fill="#FFBC05"/>
<path d="M16.2453 22.9009C15.9961 22.7241 15.6616 22.7989 15.498 23.0679C15.3342 23.3367 15.4035 23.6978 15.6527 23.8746C16.1517 24.2285 16.5505 24.7219 16.806 25.3013C16.9338 25.5914 17.2555 25.7155 17.5251 25.5769C17.7943 25.4387 17.9086 25.091 17.7806 24.8006C17.4404 24.0287 16.9093 23.3717 16.2453 22.9009Z" fill="#FFBC05"/>
</svg>
