<svg width="29" height="26" viewBox="0 0 29 26" fill="none" xmlns="http://www.w3.org/2000/svg">
<path fill-rule="evenodd" clip-rule="evenodd" d="M8.08398 0C7.32731 0.00161223 6.58661 0.433174 6.2057 1.09154L0.281237 11.432C-0.0937458 12.0921 -0.0937458 12.9549 0.281237 13.6151L6.2057 23.9555C6.58665 24.6139 7.32731 25.0456 8.08398 25.047H19.9329C20.6895 25.0454 21.4302 24.6139 21.8111 23.9555L27.7356 13.6151C28.1106 12.9549 28.1105 12.0921 27.7356 11.432L21.8111 1.09154C21.4302 0.433174 20.6895 0.00149132 19.9329 0H8.08398ZM8.19151 6.04929C8.20779 6.04767 8.22486 6.04767 8.24119 6.04929H10.2849C10.3754 6.05117 10.4632 6.1037 10.5083 6.1826L13.9753 12.3902C13.9928 12.4209 14.004 12.4551 14.0083 12.4902C14.0126 12.4551 14.0238 12.4209 14.0412 12.3902L17.4999 6.1826C17.5465 6.10131 17.6384 6.04849 17.7316 6.04929H19.7753C19.9563 6.0509 20.0918 6.27993 20.007 6.44091L16.6228 12.5235L20.007 18.5978C20.0999 18.7597 19.961 18.9994 19.7753 18.9978H17.7316C17.6368 18.997 17.5444 18.9405 17.4999 18.8561L14.0412 12.6485C14.0238 12.6178 14.0126 12.5836 14.0083 12.5485C14.004 12.5836 13.9928 12.6178 13.9753 12.6485L10.5083 18.8561C10.4652 18.9381 10.377 18.994 10.2849 18.9978H8.24119C8.05552 18.9994 7.9167 18.7597 8.00953 18.5978L11.3937 12.5235L8.00953 6.44091C7.92841 6.29403 8.02738 6.08064 8.19151 6.04929Z" fill="#212121"/>
</svg>
