<svg width="23" height="25" viewBox="0 0 23 25" fill="none" xmlns="http://www.w3.org/2000/svg">
<path d="M21.3609 5.4548L12.2836 0.270116C11.9575 0.0930944 11.5887 0 11.2134 0C10.838 0 10.4692 0.0930944 10.1432 0.270116L1.06527 5.45424C0.738127 5.64516 0.468218 5.9132 0.281616 6.23247C0.0950153 6.55174 -0.00197011 6.91144 3.03304e-05 7.27683V17.6312C-0.00193233 17.9968 0.0950541 18.3567 0.281637 18.6762C0.468221 18.9958 0.738106 19.2641 1.06527 19.4554L3.4457 20.8092L3.45914 20.8164C4.66103 21.4021 5.12123 21.4021 5.65444 21.4021C7.53145 21.4021 8.69773 20.2452 8.69773 18.3826V8.34302C8.69882 8.21768 8.64766 8.09705 8.55547 8.00759C8.46328 7.91813 8.3376 7.86714 8.20599 7.86582H6.89897C6.76736 7.86714 6.64167 7.91813 6.54949 8.00759C6.4573 8.09705 6.40614 8.21768 6.40723 8.34302V18.3826C6.41199 18.5263 6.37765 18.6688 6.30756 18.7961C6.23746 18.9235 6.13399 19.0314 6.00718 19.1095C5.66261 19.3097 5.16212 19.2674 4.59738 18.9899L2.31622 17.6823C2.30749 17.6767 2.30036 17.669 2.29547 17.6601C2.29058 17.6512 2.28808 17.6412 2.28819 17.6312V7.42311C2.28857 7.41137 2.29189 7.39989 2.29789 7.38963C2.30388 7.37938 2.31237 7.37064 2.32265 7.36415L11.1903 2.19171C11.1969 2.18857 11.2042 2.18694 11.2116 2.18694C11.219 2.18694 11.2263 2.18857 11.2329 2.19171L20.1058 7.36415C20.1159 7.37116 20.1241 7.38038 20.1297 7.39102C20.1353 7.40167 20.1381 7.41343 20.1379 7.42533V17.6312C20.1382 17.6417 20.1359 17.6522 20.1314 17.6618C20.1268 17.6714 20.1201 17.68 20.1117 17.6868L11.2312 22.7285C11.216 22.7335 11.1996 22.7335 11.1845 22.7285L8.91673 21.446C8.84941 21.4041 8.77164 21.3799 8.69132 21.3759C8.611 21.3719 8.531 21.3882 8.45945 21.4232L8.43959 21.4343C7.81353 21.7875 7.64534 21.8793 7.06483 22.0806C6.97022 22.1134 6.74771 22.1918 6.72844 22.4015C6.70916 22.6112 6.92058 22.7602 7.10863 22.8642L10.1397 24.6368C10.4626 24.821 10.8319 24.9185 11.2084 24.9188H11.2423C11.6093 24.9133 11.9684 24.816 12.2836 24.6368L21.3609 19.4571C21.6879 19.2652 21.9576 18.9965 22.1441 18.6767C22.3306 18.357 22.4277 17.997 22.4261 17.6312V7.27683C22.4279 6.91155 22.3309 6.55198 22.1443 6.23282C21.9577 5.91367 21.6879 5.64571 21.3609 5.4548Z" fill="#C4C4C4"/>
<path d="M14.2145 15.8741C12.0235 15.8741 11.5563 15.292 11.4177 14.3525C11.4021 14.2406 11.3447 14.1378 11.2561 14.0628C11.1674 13.9877 11.0534 13.9454 10.9347 13.9436H9.77129C9.64017 13.9462 9.5155 13.9981 9.42454 14.088C9.33358 14.1778 9.28375 14.2982 9.28596 14.4229C9.28596 15.2373 9.5868 17.8956 14.2169 17.8956C15.6493 17.8956 16.8409 17.5772 17.6618 16.9745C18.4826 16.3718 18.9221 15.4948 18.9221 14.4497C18.9221 12.3522 17.4826 11.7779 14.6475 11.4026C11.7655 11.0216 11.7655 10.8278 11.7655 10.4033C11.7655 10.0977 11.7655 9.38215 13.849 9.38215C15.3315 9.38215 16.1253 9.56034 16.3791 10.4993C16.4016 10.6034 16.4608 10.6971 16.5469 10.7649C16.633 10.8326 16.7409 10.8704 16.8527 10.8719H18.0202C18.089 10.8713 18.1569 10.8567 18.2193 10.8291C18.2817 10.8016 18.3372 10.7617 18.3821 10.7122C18.4719 10.6125 18.5167 10.4833 18.5067 10.3524C18.3557 8.36663 16.8286 7.3595 13.8508 7.3595C11.1444 7.3595 9.52921 8.51857 9.52921 10.4597C9.52921 12.5879 11.2032 13.1895 13.718 13.4386C16.6559 13.7274 16.6559 14.1486 16.6559 14.5206C16.6576 15.1004 16.4044 15.8741 14.2145 15.8741Z" fill="#C4C4C4"/>
</svg>
