<svg width="86" height="27" viewBox="0 0 86 27" fill="none" xmlns="http://www.w3.org/2000/svg">
<path fill-rule="evenodd" clip-rule="evenodd" d="M4.90394 16.0157L11.4821 9.23892L12.8376 10.635L6.2578 17.4107L4.90394 16.0157ZM17.8873 11.2606L6.95607 0.00268555L4.74544 2.2795L8.84416 6.50093L0 15.6093L10.9306 26.8678L13.1413 24.591L9.04255 20.3673L17.8873 11.2606Z" fill="#0F42D9"/>
<path fill-rule="evenodd" clip-rule="evenodd" d="M25.4229 3.27295V6.72212H29.0605V8.71412H25.4229V16.4743C25.4229 18.2591 25.9133 19.27 27.3281 19.27C28.0209 19.27 28.4254 19.21 28.8006 19.0919L28.9159 21.0839C28.4254 21.262 27.6457 21.4406 26.6642 21.4406C25.4805 21.4406 24.5279 21.0234 23.9216 20.3402C23.2289 19.5377 22.9401 18.2591 22.9401 16.5634V8.71412H20.7744V6.72212H22.9401V4.04577L25.4229 3.27295Z" fill="#242E40"/>
<path fill-rule="evenodd" clip-rule="evenodd" d="M31.6693 13.947C31.6693 17.0994 33.4011 19.4772 35.8844 19.4772C38.3095 19.4772 40.1283 17.1285 40.1283 13.8876C40.1283 11.4493 38.944 8.38712 35.942 8.38712C32.9683 8.38712 31.6693 11.2415 31.6693 13.947ZM42.7263 13.7986C42.7263 19.1205 39.1175 21.4407 35.7691 21.4407C32.0156 21.4407 29.0713 18.5857 29.0713 14.0366C29.0713 9.24956 32.1603 6.4248 36.0002 6.4248C40.0125 6.4248 42.7263 9.42764 42.7263 13.7986Z" fill="#242E40"/>
<path fill-rule="evenodd" clip-rule="evenodd" d="M46.5028 15.2558C46.5028 15.6428 46.5316 15.9995 46.6186 16.326C47.0808 18.1399 48.6098 19.3882 50.4297 19.3882C53.1136 19.3882 54.6725 17.1285 54.6725 13.8283C54.6725 10.9739 53.2006 8.50584 50.5162 8.50584C48.7832 8.50584 47.1379 9.75526 46.6757 11.717C46.5892 12.0441 46.5028 12.431 46.5028 12.7575V15.2558ZM43.9912 11.4202C43.9912 9.57661 43.9331 8.08975 43.876 6.72218H46.1271L46.2722 9.18962H46.3293C47.3402 7.43564 49.0149 6.4248 51.2953 6.4248C54.7019 6.4248 57.2422 9.36828 57.2422 13.709C57.2422 18.883 54.1527 21.4407 50.8625 21.4407C49.0149 21.4407 47.3978 20.6079 46.5599 19.181H46.5028V27H43.9912V11.4202Z" fill="#242E40"/>
<path fill-rule="evenodd" clip-rule="evenodd" d="M62.0918 3.27295V6.72212H65.7289V8.71412H62.0918V16.4743C62.0918 18.2591 62.5823 19.27 63.9971 19.27C64.6898 19.27 65.0933 19.21 65.469 19.0919L65.5848 21.0839C65.0933 21.262 64.3141 21.4406 63.3326 21.4406C62.1495 21.4406 61.1968 21.0234 60.5905 20.3402C59.8973 19.5377 59.6091 18.2591 59.6091 16.5634V8.71412H57.4434V6.72212H59.6091V4.04577L62.0918 3.27295Z" fill="#242E40"/>
<path fill-rule="evenodd" clip-rule="evenodd" d="M74.8393 13.7689C72.0673 13.709 68.9212 14.2147 68.9212 17.0103C68.9212 18.7341 70.0174 19.5075 71.2881 19.5075C73.1358 19.5075 74.32 18.318 74.7235 17.0994C74.8105 16.802 74.8393 16.5041 74.8393 16.2666V13.7689ZM77.2932 17.6639C77.2932 18.9133 77.3509 20.1319 77.4944 21.1131H75.2139L75.0128 19.2991H74.9263C74.1455 20.4293 72.6453 21.4407 70.653 21.4407C67.8234 21.4407 66.3809 19.3882 66.3809 17.3071C66.3809 13.8283 69.3834 11.9253 74.7811 11.955V11.6582C74.7811 10.4978 74.4641 8.32776 71.6051 8.35744C70.2773 8.35744 68.9212 8.74385 67.9392 9.42764L67.3623 7.67365C68.5161 6.92994 70.2197 6.4248 71.9808 6.4248C76.2541 6.4248 77.2932 9.42764 77.2932 12.2821V17.6639Z" fill="#242E40"/>
<path fill-rule="evenodd" clip-rule="evenodd" d="M79.1758 21.113H81.7161V0.00244141H79.1758V21.113Z" fill="#242E40"/>
<path fill-rule="evenodd" clip-rule="evenodd" d="M84.6383 2.7C83.9066 2.7 83.3125 2.09505 83.3125 1.35C83.3125 0.598585 83.9066 0 84.6383 0C85.3763 0 85.9642 0.598585 85.9642 1.35C85.9642 2.09505 85.3763 2.7 84.6383 2.7ZM84.6383 0.191038C84.0067 0.191038 83.4939 0.700472 83.4939 1.35C83.4939 1.98679 84.0067 2.51533 84.6383 2.51533C85.27 2.51533 85.7765 1.98679 85.7765 1.35C85.7765 0.700472 85.27 0.191038 84.6383 0.191038ZM85.0011 2.12689L84.6071 1.51557H84.3319V2.12689H84.1318V0.579481H84.7509C85.0136 0.579481 85.2325 0.764151 85.2325 1.05071C85.2325 1.39458 84.9323 1.5092 84.8447 1.5092L85.2512 2.12689H85.0011ZM84.7509 0.764151H84.3319V1.32453H84.7509C84.8947 1.32453 85.0261 1.20991 85.0261 1.05071C85.0261 0.878774 84.8947 0.764151 84.7509 0.764151Z" fill="#242E40"/>
</svg>
