<svg width="89" height="27" viewBox="0 0 89 27" fill="none" xmlns="http://www.w3.org/2000/svg">
<path d="M57.4227 6.19139C53.5541 6.21002 50.4027 9.39927 50.4205 13.3702C50.4383 17.3412 53.6212 20.5005 57.4898 20.4827C61.3583 20.4649 64.5106 17.2748 64.492 13.3054C64.4734 9.33609 61.2913 6.17437 57.4211 6.19301L57.4227 6.19139ZM57.476 17.5705C56.3793 17.577 55.3253 17.1452 54.5459 16.3716C53.7665 15.5979 53.3345 14.544 53.3223 13.444C53.3102 12.3439 53.7464 11.2867 54.5176 10.505C55.2889 9.7233 56.3397 9.28991 57.4365 9.27776C58.5332 9.26561 59.5872 9.70305 60.3666 10.4767C61.1459 11.2503 61.578 12.3042 61.5901 13.4043C61.6014 15.6117 59.676 17.5599 57.476 17.5713V17.5705ZM73.0957 9.55724C71.0726 9.56696 69.4969 11.2503 69.5066 13.2795L69.5389 20.072L66.4602 20.0866L66.398 6.58832L69.4767 6.57374L69.4872 8.69046C69.4872 8.69046 70.7956 6.56807 73.435 6.55592L74.3153 6.55106L74.3298 9.54995L73.0957 9.55724ZM42.3845 6.70335L44.7153 15.956L47.135 6.68067L50.2137 6.6669L46.4049 20.1911L43.415 20.2048L40.997 10.7772L38.6661 20.2267L35.6755 20.2405L31.655 6.76087L34.6449 6.7471L37.3263 15.9981L39.4827 6.72441L42.3845 6.70335ZM83.3116 12.6865C85.4155 11.4423 86.9015 9.14086 86.8894 6.49435L83.8107 6.50893C83.822 8.80306 81.9822 10.6646 79.7838 10.6727L79.3436 10.6743L79.2952 0L76.2165 0.014581L76.311 20.0396L79.3881 20.0258L79.359 13.6748L79.7103 13.6732C80.0624 13.6716 80.4154 13.8466 80.505 14.1107L84.842 19.9999L88.4481 19.9837L83.3116 12.6865Z" fill="#071529"/>
<path d="M24.4768 6.54907C21.0845 6.56529 18.5048 8.78542 17.5397 12.3229C15.9202 9.85695 14.6566 7.03657 13.9317 4.65503L10.3606 4.67125L10.4049 14.0344C10.4088 14.9246 10.0553 15.78 9.42192 16.4124C8.78858 17.0449 7.92728 17.4027 7.02736 17.4072C6.12743 17.411 5.26276 17.0613 4.62342 16.4348C3.98408 15.8083 3.62237 14.9563 3.61782 14.066L3.57272 4.70289L0 4.71911L0.04428 14.0823C0.0631399 17.9677 3.20126 21.0468 7.04212 21.0282C10.883 21.0095 13.994 17.9036 13.976 14.0174L13.9678 12.4275C14.6877 13.8365 15.5881 15.3339 16.5778 16.6552L14.3942 26.9999L18.0546 26.9836L19.629 19.4675C21.0616 20.3452 22.663 20.8667 24.5457 20.8578C28.4751 20.8392 31.6756 17.6456 31.6551 13.5818C31.6401 11.7094 30.877 9.91893 29.5323 8.60118C28.1876 7.28342 26.3705 6.54542 24.4777 6.54826L24.4768 6.54907ZM24.5277 17.2376C23.0993 17.2441 21.6684 16.6325 20.5032 15.6656L20.8533 14.2518V14.1707C21.1157 12.6668 21.9045 10.1019 24.5843 10.0906C25.5291 10.089 26.4364 10.4567 27.1086 11.1136C27.7807 11.7704 28.1634 12.6634 28.1734 13.598C28.093 15.6299 26.4047 17.2279 24.5285 17.2368L24.5277 17.2376Z" fill="black"/>
</svg>
