<svg width="26" height="27" viewBox="0 0 26 27" fill="none" xmlns="http://www.w3.org/2000/svg">
<path d="M7.42927 2.39286C7.42927 3.16203 6.80559 3.78571 6.03641 3.78571C5.26724 3.78571 4.64355 3.16203 4.64355 2.39286C4.64355 1.62368 5.26724 1 6.03641 1C6.80559 1 7.42927 1.62368 7.42927 2.39286Z" fill="#FFB81D"/>
<path d="M13.5125 3.35728H14.125L14.0024 2.75718C13.9533 2.51689 13.9533 2.26908 14.0024 2.02882L14.125 1.42871H13.5125H8.3125H7.7L7.82262 2.02881C7.87172 2.26911 7.87172 2.51691 7.82262 2.75718L7.69999 3.35728H8.3125H13.5125Z" fill="#FFB81D" stroke="#FFB81D"/>
<path d="M24.1428 23.2856H1.85712C1.19364 23.2856 0.580516 23.6397 0.248724 24.2142C-0.0829082 24.7888 -0.0829082 25.4968 0.248724 26.0714C0.580564 26.6459 1.19369 26.9999 1.85712 26.9999H24.1428C24.8063 26.9999 25.4194 26.6459 25.7512 26.0714C26.0829 25.4968 26.0829 24.7888 25.7512 24.2142C25.4194 23.6397 24.8063 23.2856 24.1428 23.2856ZM2.3214 26.5356C1.95205 26.5356 1.59759 26.3889 1.33648 26.1277C1.07537 25.8666 0.928571 25.5121 0.928571 25.1428C0.928571 24.7735 1.07532 24.419 1.33648 24.1579C1.59764 23.8968 1.9521 23.75 2.3214 23.75C2.69071 23.75 3.04521 23.8967 3.30632 24.1579C3.56744 24.4191 3.71423 24.7735 3.71423 25.1428C3.71423 25.5121 3.56749 25.8666 3.30632 26.1277C3.04516 26.3889 2.69071 26.5356 2.3214 26.5356ZM5.5714 25.6071H4.17854V24.6785H5.5714V25.6071ZM7.42854 26.5356C7.05919 26.5356 6.70474 26.3889 6.44362 26.1277C6.18251 25.8666 6.03571 25.5121 6.03571 25.1428C6.03571 24.7735 6.18246 24.419 6.44362 24.1579C6.70478 23.8968 7.05924 23.75 7.42854 23.75C7.79785 23.75 8.15235 23.8967 8.41347 24.1579C8.67458 24.4191 8.82137 24.7735 8.82137 25.1428C8.82137 25.5121 8.67463 25.8666 8.41347 26.1277C8.15231 26.3889 7.79785 26.5356 7.42854 26.5356ZM11.1428 25.6071H9.28569V24.6785H11.1428V25.6071ZM13 26.5356C12.6306 26.5356 12.2762 26.3889 12.015 26.1277C11.7539 25.8666 11.6071 25.5121 11.6071 25.1428C11.6071 24.7735 11.7539 24.419 12.015 24.1579C12.2762 23.8968 12.6307 23.75 13 23.75C13.3693 23.75 13.7238 23.8967 13.9849 24.1579C14.246 24.4191 14.3928 24.7735 14.3928 25.1428C14.3928 25.5121 14.2461 25.8666 13.9849 26.1277C13.7237 26.3889 13.3693 26.5356 13 26.5356ZM16.7143 25.6071H14.8571V24.6785H16.7143V25.6071ZM18.5714 26.5356C18.202 26.5356 17.8476 26.3889 17.5865 26.1277C17.3254 25.8666 17.1786 25.5121 17.1786 25.1428C17.1786 24.7735 17.3253 24.419 17.5865 24.1579C17.8476 23.8968 18.2021 23.75 18.5714 23.75C18.9407 23.75 19.2952 23.8967 19.5563 24.1579C19.8174 24.4191 19.9642 24.7735 19.9642 25.1428C19.9642 25.5121 19.8175 25.8666 19.5563 26.1277C19.2952 26.3889 18.9407 26.5356 18.5714 26.5356ZM21.8214 25.6071H20.4285V24.6785H21.8214V25.6071ZM23.6785 26.5356C23.3092 26.5356 22.9547 26.3889 22.6936 26.1277C22.4325 25.8666 22.2857 25.5121 22.2857 25.1428C22.2857 24.7735 22.4325 24.419 22.6936 24.1579C22.9548 23.8968 23.3092 23.75 23.6785 23.75C24.0478 23.75 24.4024 23.8967 24.6635 24.1579C24.9246 24.4191 25.0714 24.7735 25.0714 25.1428C25.0714 25.5121 24.9246 25.8666 24.6635 26.1277C24.4023 26.3889 24.0478 26.5356 23.6785 26.5356Z" fill="#FFB81D"/>
<path d="M17.1793 2.39286C17.1793 3.16203 16.5556 3.78571 15.7864 3.78571C15.0172 3.78571 14.3936 3.16203 14.3936 2.39286C14.3936 1.62368 15.0172 1 15.7864 1C16.5556 1 17.1793 1.62368 17.1793 2.39286Z" fill="#FFB81D"/>
<path d="M2.78662 16.7856V22.3571H9.28662V16.7856H7.42948V19.5714C7.43031 19.7326 7.3474 19.8829 7.21039 19.9681C7.07339 20.0533 6.90198 20.0613 6.75772 19.9892L6.03662 19.6261L5.31551 19.9867V19.9869C5.17167 20.0589 5.00067 20.0512 4.86387 19.9664C4.72687 19.8818 4.64375 19.7322 4.64375 19.5714V16.7856L2.78662 16.7856Z" fill="#FFB81D" fill-opacity="0.58"/>
<path d="M2.78502 25.143C2.78502 25.3994 2.57712 25.6073 2.32073 25.6073C2.06434 25.6073 1.85645 25.3994 1.85645 25.143C1.85645 24.8866 2.06434 24.6787 2.32073 24.6787C2.57712 24.6787 2.78502 24.8866 2.78502 25.143Z" fill="#FFB81D"/>
<path d="M6.24208 18.6915L6.49888 18.82V16.7856H5.57031V18.8202L5.82712 18.6917V18.6915C5.9577 18.6262 6.11149 18.6262 6.24207 18.6915L6.24208 18.6915Z" fill="#FFB81D" fill-opacity="0.58"/>
<path d="M7.89195 25.143C7.89195 25.3994 7.68406 25.6073 7.42766 25.6073C7.17127 25.6073 6.96338 25.3994 6.96338 25.143C6.96338 24.8866 7.17127 24.6787 7.42766 24.6787C7.68406 24.6787 7.89195 24.8866 7.89195 25.143Z" fill="#FFB81D"/>
<path d="M19.035 25.143C19.035 25.3994 18.8271 25.6073 18.5707 25.6073C18.3143 25.6073 18.1064 25.3994 18.1064 25.143C18.1064 24.8866 18.3143 24.6787 18.5707 24.6787C18.8271 24.6787 19.035 24.8866 19.035 25.143Z" fill="#FFB81D"/>
<path d="M13.4652 25.143C13.4652 25.3994 13.2573 25.6073 13.0009 25.6073C12.7445 25.6073 12.5366 25.3994 12.5366 25.143C12.5366 24.8866 12.7445 24.6787 13.0009 24.6787C13.2573 24.6787 13.4652 24.8866 13.4652 25.143Z" fill="#FFB81D"/>
<path d="M24.142 25.143C24.142 25.3994 23.9341 25.6073 23.6777 25.6073C23.4213 25.6073 23.2134 25.3994 23.2134 25.143C23.2134 24.8866 23.4213 24.6787 23.6777 24.6787C23.9341 24.6787 24.142 24.8866 24.142 25.143Z" fill="#FFB81D"/>
<path d="M6.96359 9.35728C6.96359 9.87007 6.54781 10.2859 6.03502 10.2859C5.52223 10.2859 5.10645 9.87007 5.10645 9.35728C5.10645 8.84449 5.52223 8.42871 6.03502 8.42871C6.54781 8.42871 6.96359 8.84449 6.96359 9.35728Z" fill="#FFB81D" fill-opacity="0.58"/>
<path d="M23.6779 8.42871C23.0623 8.42871 22.4718 8.67329 22.0363 9.10853C21.601 9.544 21.3564 10.1345 21.3564 10.7501C21.3564 11.3658 21.601 11.9562 22.0363 12.3917C22.4717 12.827 23.0623 13.0716 23.6779 13.0716C24.2935 13.0716 24.884 12.827 25.3195 12.3917C25.7547 11.9563 25.9993 11.3658 25.9993 10.7501C25.9985 10.1347 25.7537 9.54464 25.3186 9.10938C24.8834 8.67432 24.2933 8.42956 23.6779 8.42871ZM23.6779 12.143C23.3085 12.143 22.9541 11.9963 22.693 11.7351C22.4318 11.4739 22.285 11.1195 22.285 10.7502C22.285 10.3809 22.4318 10.0264 22.693 9.76524C22.9541 9.50413 23.3086 9.35734 23.6779 9.35734C24.0472 9.35734 24.4017 9.50408 24.6628 9.76524C24.9239 10.0264 25.0707 10.3809 25.0707 10.7502C25.0707 11.1195 24.924 11.474 24.6628 11.7351C24.4016 11.9962 24.0472 12.143 23.6779 12.143Z" fill="#FFB81D"/>
<path d="M16.7482 3.9302L16.2122 4.26263L16.6581 4.70865L20.8981 8.94898L21.2737 9.32462L21.6259 8.92699C21.8016 8.72865 22.005 8.55649 22.2299 8.41549L22.7616 8.0821L22.3178 7.63832L18.0422 3.36276L17.622 2.94253L17.2799 3.42845C17.1379 3.62999 16.9572 3.80055 16.7482 3.9302Z" fill="#FFB81D" stroke="#FFB81D"/>
<path d="M19.5011 19.1074C19.5011 18.9842 19.4522 18.8661 19.3651 18.779C19.2781 18.692 19.1599 18.6431 19.0368 18.6431H14.394C14.1376 18.6431 13.9297 18.851 13.9297 19.1074V22.3574H19.5011V19.1074ZM16.7154 21.8931C16.346 21.8931 15.9916 21.7463 15.7305 21.4852C15.4694 21.224 15.3226 20.8695 15.3226 20.5002C15.3226 20.1309 15.4693 19.7764 15.7305 19.5153C15.9916 19.2542 16.3461 19.1074 16.7154 19.1074C17.0847 19.1074 17.4392 19.2542 17.7003 19.5153C17.9614 19.7765 18.1082 20.1309 18.1082 20.5002C18.1082 20.8695 17.9615 21.224 17.7003 21.4852C17.4392 21.7463 17.0847 21.8931 16.7154 21.8931Z" fill="#FFB81D"/>
<path d="M24.142 10.7499C24.142 11.0063 23.9341 11.2142 23.6777 11.2142C23.4213 11.2142 23.2134 11.0063 23.2134 10.7499C23.2134 10.4935 23.4213 10.2856 23.6777 10.2856C23.9341 10.2856 24.142 10.4935 24.142 10.7499Z" fill="#FFB81D"/>
<path d="M6.49888 7.56601V4.66797C6.19254 4.73057 5.87663 4.73057 5.57031 4.66797V7.56644C5.87355 7.47856 6.19564 7.47856 6.49888 7.56644V7.56601Z" fill="#FFB81D"/>
<path d="M20.8254 12.5008L15.6842 17.6435L15.5135 17.8142H15.7549H18.3789H18.4203L18.4496 17.7849L22.4425 13.792L22.3894 13.7389L22.4124 13.6298C21.8749 13.3924 21.4145 13.0102 21.0822 12.5268L21.1948 12.4142H20.9535H20.9534H20.7691L20.8254 12.5008Z" fill="#FFB81D" stroke="#FFB81D" stroke-width="0.2"/>
<path d="M17.1786 20.4999C17.1786 20.7563 16.9707 20.9642 16.7143 20.9642C16.4579 20.9642 16.25 20.7563 16.25 20.4999C16.25 20.2435 16.4579 20.0356 16.7143 20.0356C16.9707 20.0356 17.1786 20.2435 17.1786 20.4999Z" fill="#FFB81D"/>
<path d="M11.0404 11.3886L9.18322 9.06717C9.09513 8.95711 8.96165 8.89307 8.82071 8.89307H7.82666C7.91392 9.19651 7.91392 9.51818 7.82666 9.82164H8.59791L10.1035 11.7039L8.43209 14.2069C8.2899 14.4202 8.34731 14.7085 8.5608 14.8509C8.77408 14.9931 9.0624 14.9355 9.2046 14.7222L11.0617 11.9365C11.1749 11.7688 11.1662 11.5472 11.0404 11.3887L11.0404 11.3886Z" fill="#FFB81D" fill-opacity="0.58"/>
<path d="M4.24529 8.89312H3.25125C3.1103 8.89312 2.97682 8.95716 2.88873 9.06722L1.03159 11.3887C0.905154 11.5466 0.895412 11.7682 1.00775 11.9365L2.8649 14.7222C3.00729 14.9355 3.2956 14.9931 3.5089 14.8509C3.72218 14.7085 3.7798 14.4202 3.63761 14.2069L1.96619 11.7039L3.47408 9.82164H4.24533C4.15807 9.51819 4.15807 9.19652 4.24533 8.89307L4.24529 8.89312Z" fill="#FFB81D" fill-opacity="0.58"/>
</svg>
