<svg width="27" height="26" viewBox="0 0 27 26" fill="none" xmlns="http://www.w3.org/2000/svg">
<path d="M24.1155 0H2.88454C1.26909 0 0 1.30771 0 2.88454V18.1538C0 19.7692 1.30771 21.0383 2.88454 21.0383H11.3074C11.4612 21.0383 11.5767 21.1537 11.5767 21.3076V22.6922C11.5767 22.8075 11.4998 22.9231 11.3458 22.9231C9.61508 23.1923 8.38422 23.7307 8.38422 24.3846C8.38422 25.2693 10.6535 26 13.4999 26C16.346 26 18.6155 25.2693 18.6155 24.3846C18.6155 23.7307 17.4233 23.1924 15.6539 22.9231C15.5385 22.9231 15.423 22.8077 15.423 22.6922V21.3076C15.423 21.1539 15.5383 21.0383 15.6923 21.0383H24.1152C25.7306 21.0383 26.9997 19.7306 26.9997 18.1538L27.0001 2.88503C27.0001 1.30801 25.6924 0.000296728 24.1156 0.000296728L24.1155 0ZM25.154 18.1537C25.154 18.7307 24.6925 19.1922 24.1155 19.1922H2.88454C2.30755 19.1922 1.84608 18.7307 1.84608 18.1537V2.88444C1.84608 2.30745 2.30774 1.84598 2.88454 1.84598H24.115C24.692 1.84598 25.1535 2.30745 25.1535 2.88444L25.154 18.1537Z" fill="#FFB81D"/>
<path d="M5.3077 5.57715H5.19238V5.65403C5.23082 5.61559 5.26926 5.61559 5.3077 5.57715Z" fill="#FFB81D"/>
<path d="M11.9226 13.4998C10.8073 13.2689 9.96105 12.4229 9.69199 11.346C9.69199 11.3075 9.65355 11.2691 9.61511 11.2306L8.38425 10.5768C8.34581 10.5383 8.26893 10.5383 8.23049 10.5768C7.99965 10.6921 7.76902 10.7692 7.49976 10.846C7.30737 10.8845 7.11517 10.8845 6.92277 10.8845C6.42288 10.8845 5.92274 10.7307 5.49974 10.4999C5.38442 10.423 5.23047 10.4999 5.23047 10.6536V17.2305C5.23047 17.3843 5.34579 17.4998 5.49974 17.4998H12.4614C12.6151 17.4998 12.7306 17.3845 12.7306 17.2305V13.769C12.7306 13.6537 12.6537 13.5766 12.5382 13.5766C12.3076 13.5384 12.0383 13.5384 11.9228 13.4997L11.9226 13.4998Z" fill="#FFB81D" fill-opacity="0.58"/>
<path d="M20.1165 8.80786H20.0396C19.7703 8.80786 19.5011 8.76942 19.2704 8.69254C19.1551 8.6541 19.0011 8.6541 18.9243 8.73098L15.5396 10.9616C15.4628 11.0385 15.3859 11.1154 15.3472 11.2309C15.2704 11.6539 15.078 12.0385 14.8087 12.4231C14.7318 12.5 14.6934 12.5769 14.6163 12.6539C14.5394 12.7308 14.501 12.8077 14.501 12.9232V17.2695C14.501 17.4232 14.6163 17.5387 14.7702 17.5387H21.5395C21.6933 17.5387 21.8088 17.4234 21.8088 17.2695V8.61565C21.8088 8.46188 21.655 8.38481 21.5011 8.46188C21.078 8.69272 20.6165 8.80804 20.1164 8.80804L20.1165 8.80786Z" fill="#FFB81D" fill-opacity="0.58"/>
<path d="M20.1545 4.23116C19.5006 4.19272 18.8852 4.57731 18.5775 5.1543C18.3851 5.50045 18.3467 5.88502 18.4237 6.23118C18.4237 6.30806 18.4237 6.38494 18.3469 6.42357L13.8085 9.42362C13.7316 9.46206 13.6547 9.46206 13.5776 9.42362C13.4623 9.3083 13.3084 9.23123 13.1162 9.15435C12.4623 8.88508 11.77 9.03903 11.2701 9.5005C11.2316 9.53894 11.1163 9.57738 11.0777 9.53894L8.65462 8.30807C8.57774 8.26963 8.5393 8.19275 8.57774 8.15431C8.57774 7.76972 8.46242 7.34669 8.19315 7.00054C7.80856 6.50064 7.1547 6.30823 6.53929 6.42355C5.30842 6.69282 4.80853 8.11589 5.57773 9.15434C5.96231 9.65424 6.61618 9.88507 7.23159 9.76975C7.57774 9.69287 7.847 9.53892 8.07764 9.34672C8.11608 9.30828 8.2314 9.26984 8.27003 9.30828L10.6931 10.5776C10.77 10.616 10.77 10.6545 10.77 10.7313C10.77 11.5005 11.2699 12.2697 12.1162 12.4237C12.7316 12.539 13.4239 12.3084 13.8085 11.8083C14.0778 11.4621 14.1931 11.0391 14.1546 10.6545C14.1546 10.5776 14.1931 10.5392 14.2315 10.5007L18.8853 7.42378C18.9621 7.38534 19.039 7.38534 19.0776 7.42378C19.3469 7.61617 19.6546 7.73149 20.0392 7.73149C20.6931 7.76993 21.3085 7.38534 21.5776 6.80835C22.1545 5.57729 21.4238 4.26958 20.1545 4.23115L20.1545 4.23116ZM7.1931 8.5772C6.88539 8.73096 6.5008 8.5772 6.34706 8.26948C6.1933 7.96177 6.34706 7.57718 6.65477 7.42344C6.96249 7.2697 7.34708 7.42344 7.50082 7.73115C7.65458 8.03887 7.50082 8.42346 7.1931 8.5772ZM13.0777 10.9234C12.9239 11.2695 12.5778 11.4233 12.2316 11.2695C11.8855 11.1158 11.7318 10.7696 11.8855 10.4235C12.0393 10.0773 12.3854 9.92358 12.7315 10.0773C13.0777 10.1926 13.2314 10.5772 13.0777 10.9234ZM20.7316 6.07724C20.6547 6.42339 20.2701 6.6158 19.924 6.53871C19.5778 6.46183 19.3854 6.07724 19.4625 5.73108C19.5394 5.38493 19.924 5.19252 20.2701 5.26961C20.6163 5.38493 20.8085 5.73108 20.7316 6.07724Z" fill="#FFB81D" fill-opacity="0.58"/>
</svg>
