<svg width="28" height="26" viewBox="0 0 28 26" fill="none" xmlns="http://www.w3.org/2000/svg">
<path d="M23.7391 0H3.95652C2.90709 0 1.90081 0.416846 1.15873 1.15892C0.416905 1.90075 0 2.90703 0 3.95652V22.0435C0 23.0929 0.416846 24.0992 1.15873 24.8411C1.90081 25.5832 2.90709 26 3.95652 26H23.7391C24.7883 26 25.7946 25.5832 26.5367 24.8411C27.2788 24.0993 27.6957 23.093 27.6957 22.0435V3.95652C27.6957 2.90709 27.2788 1.90081 26.5367 1.15892C25.7946 0.41684 24.7884 0 23.7391 0ZM23.1739 2.82609H24.8696C25.1817 2.82609 25.4348 3.07918 25.4348 3.3913C25.4348 3.70343 25.1817 3.95652 24.8696 3.95652H23.1739C22.8615 3.95652 22.6087 3.70343 22.6087 3.3913C22.6087 3.07918 22.8615 2.82609 23.1739 2.82609ZM19.2174 2.82609H20.913C21.2252 2.82609 21.4783 3.07918 21.4783 3.3913C21.4783 3.70343 21.2252 3.95652 20.913 3.95652H19.2174C18.905 3.95652 18.6522 3.70343 18.6522 3.3913C18.6522 3.07918 18.905 2.82609 19.2174 2.82609ZM15.2609 2.82609H17.5217C17.8339 2.82609 18.087 3.07918 18.087 3.3913C18.087 3.70343 17.8339 3.95652 17.5217 3.95652H15.2609C14.9485 3.95652 14.6957 3.70343 14.6957 3.3913C14.6957 3.07918 14.9485 2.82609 15.2609 2.82609ZM2.82609 2.82609H6.21739C6.52952 2.82609 6.78261 3.07918 6.78261 3.3913C6.78261 3.70343 6.52952 3.95652 6.21739 3.95652H2.82609C2.51371 3.95652 2.26087 3.70343 2.26087 3.3913C2.26087 3.07918 2.51371 2.82609 2.82609 2.82609ZM16.3913 11.6377C16.3875 12.6442 16.0608 13.623 15.4587 14.4297L14.6843 15.464V15.5715L14.3169 19.7032C14.3199 19.7163 14.3199 19.7299 14.3169 19.7428L15.0234 20.4438C15.9013 21.3158 16.3956 22.5015 16.3969 23.739C16.3969 24.0511 16.1438 24.3042 15.8317 24.3042C15.5195 24.3042 15.2665 24.0511 15.2665 23.739C15.269 22.8033 14.8963 21.9055 14.2321 21.2464L14.0005 21.009H14.0003C13.5617 22.0019 12.754 22.7851 11.748 23.1927C10.7422 23.6002 9.61682 23.6002 8.61105 23.1927C7.60503 22.7852 6.79732 22.0019 6.35877 21.009L6.12714 21.2464H6.12688C5.46277 21.9055 5.09005 22.8033 5.09257 23.739C5.09257 24.0511 4.83948 24.3042 4.52735 24.3042C4.21522 24.3042 3.96214 24.0511 3.96214 23.739C3.96037 22.5033 4.45064 21.3176 5.32421 20.4438L6.03077 19.7428C6.02824 19.7317 6.02824 19.7201 6.03077 19.709L5.66337 15.6225C5.6606 15.5715 5.6606 15.5205 5.66337 15.4698L4.88344 14.4297C4.28138 13.623 3.95461 12.6442 3.9508 11.6376V11.3041C3.9508 10.9919 4.20389 10.7388 4.51602 10.7388C4.82814 10.7388 5.08123 10.9919 5.08123 11.3041V11.6376C5.08174 12.4002 5.32953 13.142 5.78779 13.7514L6.1042 14.1753H6.10446C6.47942 13.6394 7.05725 13.2801 7.70399 13.1807C7.65151 12.92 7.62501 12.6551 7.62476 12.3894C7.62476 10.6428 8.75519 9.28068 10.1682 9.28068C11.5813 9.28068 12.7117 10.6428 12.7117 12.3894C12.7115 12.6551 12.685 12.92 12.6327 13.1807C13.28 13.2783 13.8595 13.6356 14.2378 14.1698L14.5487 13.7514C15.0069 13.142 15.255 12.4002 15.2552 11.6376V11.3041C15.2552 10.9919 15.5083 10.7388 15.8205 10.7388C16.1326 10.7388 16.3857 10.9919 16.3857 11.3041L16.3913 11.6377ZM20.9186 23.1739C20.9186 23.486 20.6655 23.7391 20.3534 23.7391C20.0413 23.7391 19.7882 23.486 19.7882 23.1739V9.6087C19.7882 9.29657 20.0413 9.04348 20.3534 9.04348C20.6655 9.04348 20.9186 9.29657 20.9186 9.6087V23.1739ZM24.8751 18.6522H23.1795C22.8673 18.6522 22.6143 18.3991 22.6143 18.087C22.6143 17.7748 22.8673 17.5217 23.1795 17.5217H24.8751C25.1873 17.5217 25.4403 17.7748 25.4403 18.087C25.4403 18.3991 25.1873 18.6522 24.8751 18.6522ZM24.8751 15.2609H23.1795C22.8673 15.2609 22.6143 15.0078 22.6143 14.6957C22.6143 14.3835 22.8673 14.1304 23.1795 14.1304H24.8751C25.1873 14.1304 25.4403 14.3835 25.4403 14.6957C25.4403 15.0078 25.1873 15.2609 24.8751 15.2609ZM24.8751 11.8696H23.1795C22.8673 11.8696 22.6143 11.6165 22.6143 11.3043C22.6143 10.9922 22.8673 10.7391 23.1795 10.7391H24.8751C25.1873 10.7391 25.4403 10.9922 25.4403 11.3043C25.4403 11.6165 25.1873 11.8696 24.8751 11.8696ZM25.4403 6.78261H1.70121C1.38908 6.78261 1.13599 6.52952 1.13599 6.21739C1.13599 5.90526 1.38908 5.65217 1.70121 5.65217H25.4403C25.7525 5.65217 26.0056 5.90526 26.0056 6.21739C26.0056 6.52952 25.7525 6.78261 25.4403 6.78261Z" fill="#FFB81D"/>
<path d="M10.1792 14.458C10.9422 14.458 11.5922 13.5085 11.5922 12.3894C11.5922 11.2703 10.9705 10.4111 10.1792 10.4111C9.38785 10.4111 8.76611 11.3041 8.76611 12.3894C8.76611 13.4747 9.41608 14.458 10.1792 14.458Z" fill="#FFB81D" fill-opacity="0.58"/>
<path d="M12.2717 14.272H12.2321C12.0368 14.653 11.7441 14.9758 11.3837 15.2072C11.0234 15.4386 10.608 15.5703 10.1804 15.589C9.75265 15.5703 9.33731 15.4386 8.97699 15.2072C8.61666 14.9758 8.32399 14.6531 8.12865 14.272H8.08903C7.74435 14.272 7.41355 14.409 7.16983 14.6528C6.92608 14.8965 6.78906 15.2273 6.78906 15.572L7.15091 19.602C7.23897 20.6224 7.83498 21.5298 8.73629 22.0162C9.6376 22.5025 10.7231 22.5025 11.6245 22.0162C12.5258 21.5298 13.1218 20.6224 13.2098 19.602L13.5717 15.521C13.5613 15.1842 13.4195 14.865 13.1765 14.6313C12.9335 14.3979 12.6088 14.269 12.2717 14.272H12.2717ZM10.7456 21.4784C10.7456 21.7905 10.4925 22.0436 10.1804 22.0436C9.86824 22.0436 9.61515 21.7905 9.61515 21.4784V17.5219C9.61515 17.2097 9.86824 16.9566 10.1804 16.9566C10.4925 16.9566 10.7456 17.2097 10.7456 17.5219V21.4784Z" fill="#FFB81D" fill-opacity="0.58"/>
</svg>
