<svg width="28" height="27" viewBox="0 0 28 27" fill="none" xmlns="http://www.w3.org/2000/svg">
<path d="M27.2197 0H25.342C21.2536 0.00602289 17.3407 1.61008 14.4517 4.46529L7.60709 11.2293C7.52339 11.312 7.52339 11.4459 7.60709 11.5286L15.7841 19.6093C15.8678 19.692 16.0033 19.692 16.087 19.6093L22.9254 12.8515C25.8147 9.99629 27.4439 6.11166 27.4379 2.07156V0.215763C27.4379 0.0969141 27.3403 0.000349465 27.2199 0.000349465L27.2197 0ZM19.5336 11.3663C18.5282 12.3599 16.9048 12.3599 15.8994 11.3663C14.894 10.3728 14.894 8.76873 15.8994 7.77497C16.9048 6.78142 18.5282 6.78142 19.5336 7.77497C20.539 8.76873 20.539 10.3728 19.5336 11.3663Z" fill="#FFB81D"/>
<path d="M7.0944 13.3177C6.99588 13.2204 6.83071 13.2404 6.7592 13.3587L5.17195 15.9802C5.12157 16.0635 5.13498 16.1699 5.20425 16.2384L11.0186 21.9842C11.0881 22.0529 11.1958 22.066 11.2801 22.0162L13.9329 20.4476C14.0525 20.377 14.0728 20.2137 13.9743 20.1164L7.0944 13.3177Z" fill="#FFB81D" fill-opacity="0.58"/>
<path d="M24.2961 13.9157L19.0117 19.1486C18.969 19.191 18.9443 19.2472 18.943 19.305L18.7966 24.834C18.7923 25.0249 19.0231 25.1121 19.1641 24.9725L24.3793 19.8187C24.421 19.7776 24.4456 19.7232 24.448 19.6667L24.6639 14.0581C24.6725 13.8648 24.439 13.7738 24.2964 13.9152L24.2961 13.9157Z" fill="#FFB81D" fill-opacity="0.58"/>
<path d="M7.45876 3.01714L2.20502 8.20899C2.06281 8.34952 2.15362 8.581 2.34946 8.57758L7.90848 8.45753C7.9676 8.45653 8.02509 8.43203 8.06816 8.38967L13.3921 3.13975C13.5359 2.99782 13.4419 2.76393 13.2438 2.77116L7.61457 2.94944C7.55688 2.95164 7.50101 2.97614 7.45896 3.01749L7.45876 3.01714Z" fill="#FFB81D" fill-opacity="0.58"/>
<path d="M6.56573 20.5112C6.23114 20.1805 5.68915 20.1805 5.35454 20.5112L0.250944 25.5551C-0.083648 25.8857 -0.083648 26.4213 0.250944 26.752C0.585536 27.0826 1.12752 27.0826 1.46213 26.752L6.56573 21.7081C6.90032 21.3776 6.90032 20.842 6.56573 20.5112Z" fill="#FFB81D"/>
<path d="M7.94908 22.2308L5.44198 24.7087C5.10739 25.0394 5.10739 25.5754 5.44198 25.9057C5.77658 26.2363 6.31856 26.2363 6.65317 25.9057L9.16027 23.4277C9.49486 23.097 9.49486 22.561 9.16027 22.2308C8.82568 21.9001 8.28369 21.9001 7.94908 22.2308Z" fill="#FFB81D"/>
<path d="M1.16061 21.7001C1.4952 22.0308 2.03719 22.0308 2.3718 21.7001L4.8789 19.2221C5.21349 18.8915 5.21349 18.3555 4.8789 18.0252C4.54431 17.6946 4.00232 17.6946 3.66771 18.0252L1.16061 20.5032C0.82602 20.8336 0.82602 21.3698 1.16061 21.7001Z" fill="#FFB81D"/>
</svg>
