<svg width="27" height="26" viewBox="0 0 27 26" fill="none" xmlns="http://www.w3.org/2000/svg">
<path d="M25.7987 22.856H0.40308C0.161272 22.856 0 23.0172 0 23.259V25.597C0 25.8388 0.161267 26 0.40308 26H25.7987C26.0405 26 26.2017 25.8388 26.2017 25.597V23.259C26.2017 23.0575 26.0405 22.856 25.7987 22.856Z" fill="#FFB81D"/>
<path d="M9.67383 17.2529H11.6894V19.5909H9.67383V17.2529Z" fill="#FFB81D" fill-opacity="0.58"/>
<path d="M9.67383 12.4153H11.6894V14.7532H9.67383V12.4153Z" fill="#FFB81D" fill-opacity="0.58"/>
<path d="M14.5107 17.2529H16.5263V19.5909H14.5107V17.2529Z" fill="#FFB81D" fill-opacity="0.58"/>
<path d="M9.67383 7.61877H11.6894V9.95671H9.67383V7.61877Z" fill="#FFB81D" fill-opacity="0.58"/>
<path d="M9.67383 2.82129H11.6894V5.15922H9.67383V2.82129Z" fill="#FFB81D" fill-opacity="0.58"/>
<path d="M14.5107 12.4153H16.5263V14.7532H14.5107V12.4153Z" fill="#FFB81D" fill-opacity="0.58"/>
<path d="M14.5107 2.82129H16.5263V5.15922H14.5107V2.82129Z" fill="#FFB81D" fill-opacity="0.58"/>
<path d="M14.5107 7.61877H16.5263V9.95671H14.5107V7.61877Z" fill="#FFB81D" fill-opacity="0.58"/>
<path d="M19.3093 0.403265C19.3093 0.161457 19.1078 0.000185557 18.9062 0.000185557L7.29663 0C7.05483 0 6.89355 0.161267 6.89355 0.40308V22.0498H19.3089L19.3093 0.403265ZM12.4971 19.9534C12.4971 20.155 12.2956 20.3565 12.094 20.3565H9.27227C9.03046 20.3565 8.86919 20.155 8.86919 19.9534V16.8091C8.86919 16.5673 9.03046 16.406 9.27227 16.406H12.094C12.2956 16.406 12.4971 16.5673 12.4971 16.8091V19.9534ZM12.4971 15.1565C12.4971 15.3983 12.2956 15.5596 12.094 15.5596H9.27227C9.03046 15.5596 8.86919 15.3983 8.86919 15.1565V12.0122C8.86919 11.7704 9.03046 11.6091 9.27227 11.6091H12.094C12.2956 11.6091 12.4971 11.7704 12.4971 12.0122V15.1565ZM12.4971 10.3596C12.4971 10.5611 12.2956 10.7627 12.094 10.7627H9.27227C9.03046 10.7627 8.86919 10.5611 8.86919 10.3596V7.21529C8.86919 6.97349 9.03046 6.81221 9.27227 6.81221H12.094C12.2956 6.81221 12.4971 6.97348 12.4971 7.21529V10.3596ZM12.4971 5.52229C12.4971 5.7641 12.2956 5.92537 12.094 5.92537H9.27227C9.03046 5.92537 8.86919 5.7641 8.86919 5.52229V2.41828C8.86919 2.21674 9.03046 2.0152 9.27227 2.0152H12.094C12.2956 2.0152 12.4971 2.21674 12.4971 2.41828V5.52229ZM17.3344 19.9529C17.3344 20.1545 17.1329 20.356 16.9313 20.356H14.1096C13.8678 20.356 13.7065 20.1545 13.7065 19.9529V16.8087C13.7065 16.5668 13.8678 16.4056 14.1096 16.4056H16.9313C17.1329 16.4056 17.3344 16.5668 17.3344 16.8087V19.9529ZM17.3344 15.156C17.3344 15.3978 17.1329 15.5591 16.9313 15.5591H14.1096C13.8678 15.5591 13.7065 15.3978 13.7065 15.156V12.0117C13.7065 11.7699 13.8678 11.6087 14.1096 11.6087H16.9313C17.1329 11.6087 17.3344 11.7699 17.3344 12.0117V15.156ZM17.3344 10.3591C17.3344 10.5606 17.1329 10.7622 16.9313 10.7622H14.1096C13.8678 10.7622 13.7065 10.5606 13.7065 10.3591V7.21482C13.7065 6.97301 13.8678 6.81174 14.1096 6.81174H16.9313C17.1329 6.81174 17.3344 6.97301 17.3344 7.21482V10.3591ZM17.3344 5.52181C17.3344 5.76362 17.1329 5.92489 16.9313 5.92489H14.1096C13.8678 5.92489 13.7065 5.76363 13.7065 5.52181V2.41781C13.7065 2.21627 13.8678 2.01473 14.1096 2.01473H16.9313C17.1329 2.01473 17.3344 2.21627 17.3344 2.41781V5.52181Z" fill="#FFB81D" fill-opacity="0.58"/>
<path d="M25.3153 8.62659C25.3153 8.50559 25.275 8.38478 25.154 8.30405L20.9215 4.71641C20.8005 4.59542 20.6394 4.59542 20.4781 4.67614C20.3169 4.75668 20.2363 4.87768 20.2363 5.03895V22.0498H25.2751L25.2749 8.62631L25.3153 8.62659ZM23.4207 20.3569H22.171C21.9694 20.3569 21.7679 20.1553 21.7679 19.9538C21.7679 19.712 21.9694 19.5507 22.171 19.5507H23.4207C23.6222 19.5507 23.8238 19.712 23.8238 19.9538C23.8238 20.1956 23.6627 20.3569 23.4207 20.3569ZM23.4207 17.1723H22.171C21.9694 17.1723 21.7679 16.9708 21.7679 16.7693C21.7679 16.5677 21.9694 16.3662 22.171 16.3662H23.4207C23.6222 16.3662 23.8238 16.5677 23.8238 16.7693C23.8238 16.9708 23.6627 17.1723 23.4207 17.1723ZM23.4207 13.9475H22.171C21.9694 13.9475 21.7679 13.7863 21.7679 13.5444C21.7679 13.3026 21.9694 13.1414 22.171 13.1414H23.4207C23.6222 13.1414 23.8238 13.3026 23.8238 13.5444C23.8238 13.746 23.6627 13.9475 23.4207 13.9475ZM23.4207 10.7227H22.171C21.9694 10.7227 21.7679 10.5614 21.7679 10.3196C21.7679 10.0778 21.9694 9.91655 22.171 9.91655H23.4207C23.6222 9.91655 23.8238 10.0778 23.8238 10.3196C23.8238 10.5614 23.6627 10.7227 23.4207 10.7227Z" fill="#FFB81D"/>
<path d="M5.92753 5.03891C5.92753 4.87764 5.84699 4.75683 5.68573 4.6761C5.52446 4.59556 5.36319 4.63583 5.24238 4.71637L1.00967 8.30401C0.92913 8.38455 0.888672 8.50555 0.888672 8.62655V22.0899H5.9274L5.92753 5.03891ZM4.03295 20.357H2.78343C2.54162 20.357 2.38035 20.1555 2.38035 19.9539C2.38035 19.7121 2.54162 19.5509 2.78343 19.5509H4.03314C4.27495 19.5509 4.43622 19.7121 4.43622 19.9539C4.43603 20.1957 4.27495 20.357 4.03295 20.357H4.03295ZM4.03295 17.1725H2.78343C2.54162 17.1725 2.38035 16.971 2.38035 16.7694C2.38035 16.5679 2.54162 16.3663 2.78343 16.3663H4.03314C4.27495 16.3663 4.43622 16.5679 4.43622 16.7694C4.43603 16.971 4.27495 17.1725 4.03295 17.1725H4.03295ZM4.03295 13.9477H2.78343C2.54162 13.9477 2.38035 13.7864 2.38035 13.5446C2.38035 13.3028 2.54162 13.1415 2.78343 13.1415H4.03314C4.27495 13.1415 4.43622 13.3028 4.43622 13.5446C4.43603 13.7461 4.27495 13.9477 4.03295 13.9477H4.03295ZM4.03295 10.7229H2.78343C2.54162 10.7229 2.38035 10.5616 2.38035 10.3198C2.38035 10.078 2.54162 9.91669 2.78343 9.91669H4.03314C4.27495 9.91669 4.43622 10.078 4.43622 10.3198C4.43603 10.5616 4.27495 10.7229 4.03295 10.7229H4.03295Z" fill="#FFB81D"/>
</svg>
