<svg width="34" height="26" viewBox="0 0 34 26" fill="none" xmlns="http://www.w3.org/2000/svg">
<path d="M33.0387 22.6177V24.0552C33.0387 25.1122 32.2608 25.9998 31.335 25.9998H1.70368C0.777647 25.9998 0 25.1119 0 24.0552V22.6177H33.0387Z" fill="#FFB81D"/>
<path d="M31.0011 3.46693V18.1366C31.0011 20.039 29.6305 21.6033 27.9639 21.6033L22.8523 21.603H5.25884C3.59221 21.603 2.22168 20.0387 2.22168 18.1364V3.46663C2.22168 1.56433 3.59221 4.18702e-08 5.25884 4.18702e-08H27.9633C29.6302 -0.000295501 31.0011 1.56432 31.0011 3.46693ZM28.3711 17.968V3.46693C28.3711 3.04409 28.1117 2.74831 27.7415 2.74831L16.4446 2.74801H5.29549C4.92503 2.74801 4.66589 3.08634 4.66589 3.46663V17.9677C4.66589 18.3905 4.96231 18.6863 5.29549 18.6863H10.8142C11.5549 16.7417 12.6662 15.3041 13.8514 14.4165C14.2959 14.036 14.7404 13.8247 15.1478 13.6134C15.5553 13.4444 15.9998 13.3599 16.4073 13.3599C16.8888 13.3599 17.3703 13.4867 17.8888 13.7405C18.3333 13.9095 18.7778 14.2056 19.1852 14.5859C20.3334 15.5161 21.3705 16.911 22.0744 18.7289H27.7412C28.1114 18.7289 28.3711 18.3908 28.3711 17.968Z" fill="#FFB81D" fill-opacity="0.58"/>
<path d="M16.4457 4.01611C18.4458 4.01611 20.1124 5.87621 20.1124 8.20137C20.1124 10.5265 18.4458 12.3866 16.4457 12.3866C14.4456 12.3866 12.8159 10.5265 12.8159 8.20137C12.8157 5.91872 14.4085 4.05863 16.4457 4.01611Z" fill="#FFB81D"/>
</svg>
