<svg width="41" height="24" viewBox="0 0 41 24" fill="none" xmlns="http://www.w3.org/2000/svg">
<path d="M16.1406 10.7083C16.1161 11.4743 16.5014 11.8135 16.5109 12.0289C16.5064 12.0727 16.4914 12.1149 16.4671 12.1518C16.4428 12.1887 16.41 12.2192 16.3714 12.2409L15.9357 12.5439C15.8793 12.5832 15.8129 12.6057 15.7441 12.6089C15.7294 12.6082 15.4653 12.6708 15.047 11.7428C14.7918 12.0593 14.4671 12.3136 14.0977 12.4863C13.7283 12.6589 13.3241 12.7452 12.916 12.7387C12.3619 12.7688 10.8602 12.4263 10.9374 10.8379C10.8833 9.54334 12.0967 8.73916 13.3517 8.80714C13.5933 8.80781 14.0868 8.81965 14.951 9.01917V8.49094C15.0426 7.59614 14.4507 6.90187 13.4259 7.00603C13.3442 7.00637 12.7655 6.98912 11.8656 7.34792C11.6151 7.46222 11.5831 7.44329 11.4997 7.44329C11.2475 7.44329 11.3513 6.71689 11.3997 6.62491C11.577 6.40848 12.6202 6.00436 13.644 6.01011C14.3286 5.94996 15.0095 6.15987 15.5395 6.59447C15.755 6.83393 15.9194 7.11429 16.0227 7.41862C16.1261 7.72295 16.1663 8.04494 16.141 8.36514L16.1406 10.7083V10.7083ZM13.1992 11.8037C14.303 11.7878 14.7703 11.1284 14.8768 10.7733C14.9606 10.4334 14.9466 10.2183 14.9466 9.84668C14.6175 9.76822 14.1437 9.68266 13.6001 9.68199C13.0845 9.64344 12.1427 9.87238 12.1794 10.7729C12.1372 11.3407 12.5579 11.8348 13.1992 11.8037V11.8037ZM19.0167 12.5832C18.7492 12.6075 18.6246 12.4188 18.5851 12.2325L16.8901 6.66448C16.8571 6.57046 16.8353 6.47341 16.8247 6.37432C16.8185 6.33347 16.8288 6.29183 16.8535 6.25854C16.8781 6.22525 16.915 6.20304 16.9561 6.19678C16.9643 6.19543 16.8836 6.19678 17.7134 6.19678C18.0123 6.16702 18.1096 6.4007 18.1406 6.54747L19.3564 11.31L20.485 6.54747C20.5031 6.43858 20.5851 6.17311 20.9207 6.20118H21.5048C21.5786 6.19509 21.8829 6.18427 21.9364 6.55186L23.0739 11.3752L24.3288 6.55186C24.3451 6.47814 24.4214 6.16736 24.7604 6.20118H25.4316C25.4605 6.19678 25.6409 6.17379 25.6103 6.49133C25.5956 6.55389 25.7263 6.13084 23.8148 12.2369C23.7757 12.4232 23.6508 12.6119 23.3833 12.5876H22.7471C22.3748 12.6265 22.3213 12.2609 22.3155 12.224L21.1869 7.58667L20.0712 12.2193C20.0657 12.2562 20.0123 12.6217 19.6396 12.5828H19.0167V12.5832ZM28.325 12.7736C28.1249 12.7739 27.1705 12.7634 26.3727 12.3579C26.2932 12.3245 26.2255 12.2684 26.1782 12.1967C26.1309 12.125 26.1061 12.0409 26.1069 11.9552V11.5916C26.1069 11.3059 26.3179 11.3583 26.4074 11.3925C26.7491 11.5298 26.9683 11.6339 27.388 11.7171C28.6354 11.9718 29.1841 11.6393 29.3186 11.5656C29.7661 11.3015 29.8015 10.6972 29.4973 10.3837C29.1406 10.0864 28.9704 10.0753 27.6889 9.67353C27.531 9.62991 26.2015 9.21328 26.1984 7.90286C26.1777 6.94786 27.051 6.00301 28.5647 6.01079C28.9959 6.01045 30.145 6.15045 30.4561 6.53901C30.502 6.60969 30.5248 6.69288 30.5214 6.77709V7.11898C30.5214 7.26913 30.4663 7.3442 30.3557 7.3442C30.0932 7.31512 29.6276 6.96646 28.6824 6.98067C28.4479 6.96849 27.3247 7.01144 27.3751 7.82508C27.3604 8.46626 28.2808 8.7067 28.386 8.73443C29.6269 9.1054 30.0418 9.16695 30.5343 9.73474C31.1177 10.4872 30.8032 11.3681 30.6824 11.6096C30.033 12.8774 28.3536 12.7742 28.325 12.7736V12.7736ZM29.6933 16.3196C27.3097 18.0687 23.8496 18.9997 20.8952 18.9997C16.9088 19.0258 13.0568 17.5694 10.0964 14.9169C9.87413 14.7177 10.0702 14.4448 10.3404 14.5966C13.6244 16.4631 17.3426 17.4438 21.126 17.4414C23.9512 17.4263 26.7457 16.8569 29.3489 15.7657C29.7498 15.5966 30.0898 16.0295 29.6933 16.3196V16.3196ZM30.6868 15.1939C30.3819 14.8043 28.6691 15.0119 27.9023 15.1029C27.6712 15.1289 27.632 14.9297 27.8414 14.7826C29.2052 13.83 31.4452 14.1029 31.7025 14.4232C31.9595 14.7434 31.6327 16.9733 30.356 18.0386C30.1599 18.2033 29.9724 18.1163 30.0595 17.8999C30.3468 17.1813 30.9918 15.5838 30.6868 15.1939Z" fill="#FFB81D"/>
</svg>
