<svg width="41" height="24" viewBox="0 0 41 24" fill="none" xmlns="http://www.w3.org/2000/svg">
<path d="M11.9852 8.69232C11.94 10.1064 12.6513 10.7326 12.6689 11.1303C12.6605 11.2112 12.6327 11.289 12.5879 11.3571C12.5431 11.4252 12.4825 11.4817 12.4112 11.5217L11.6069 12.0811C11.5028 12.1536 11.3801 12.1952 11.2531 12.201C11.2261 12.1997 10.7385 12.3152 9.96625 10.6021C9.49509 11.1865 8.89561 11.6559 8.2137 11.9746C7.53178 12.2933 6.78552 12.4527 6.03204 12.4407C5.00905 12.4963 2.23669 11.8639 2.37933 8.93144C2.27942 6.54155 4.51956 5.05692 6.83635 5.1824C7.28249 5.18365 8.19362 5.2055 9.78905 5.57385V4.59867C9.95808 2.94672 8.86535 1.665 6.97333 1.85729C6.82252 1.85791 5.7543 1.82607 4.09289 2.48847C3.63041 2.69949 3.57135 2.66453 3.4174 2.66453C2.95178 2.66453 3.14343 1.32349 3.23266 1.15368C3.56004 0.754115 5.48599 0.00805461 7.37612 0.018668C8.63992 -0.0923812 9.89695 0.295147 10.8755 1.09749C11.2733 1.53956 11.5767 2.05714 11.7676 2.61899C11.9584 3.18083 12.0327 3.77528 11.9858 4.36642L11.9852 8.69232ZM6.55484 10.7145C8.59264 10.6851 9.45539 9.46773 9.65207 8.81219C9.80664 8.18475 9.78088 7.78769 9.78088 7.10156C9.17325 6.95672 8.29856 6.79877 7.29506 6.79752C6.34308 6.72635 4.60438 7.14901 4.67225 8.81157C4.59433 9.8598 5.37099 10.7719 6.55484 10.7145ZM17.2949 12.1535C16.801 12.1985 16.571 11.8501 16.4981 11.5061L13.3689 1.22672C13.3079 1.05316 13.2677 0.873984 13.2482 0.691059C13.2367 0.615643 13.2557 0.538759 13.3012 0.4773C13.3467 0.415841 13.4149 0.374835 13.4908 0.363292C13.5058 0.360794 13.3569 0.363292 14.8889 0.363292C15.4406 0.308352 15.6203 0.739756 15.6775 1.01071L17.922 9.80299L20.0057 1.01071C20.039 0.809679 20.1904 0.31959 20.81 0.371408H21.8883C22.0246 0.36017 22.5864 0.340192 22.685 1.01883L24.785 9.92348L27.1018 1.01883C27.132 0.882725 27.2728 0.308976 27.8986 0.371408H29.1378C29.1912 0.363292 29.5242 0.320838 29.4676 0.907073C29.4406 1.02257 29.6819 0.24155 26.153 11.5142C26.0807 11.8582 25.8501 12.2066 25.3562 12.1617H24.1818C23.4944 12.2335 23.3957 11.5586 23.385 11.4905L21.3014 2.92924L19.2416 11.4818C19.2315 11.5498 19.1329 12.2247 18.4448 12.1529H17.2949V12.1535ZM34.4795 12.505C34.11 12.5057 32.3481 12.4863 30.8752 11.7377C30.7285 11.676 30.6035 11.5724 30.5161 11.44C30.4288 11.3077 30.3829 11.1525 30.3844 10.9942V10.323C30.3844 9.79549 30.774 9.89226 30.9393 9.95532C31.5702 10.2088 31.9748 10.4011 32.7496 10.5547C35.0526 11.0248 36.0655 10.4111 36.3137 10.275C37.14 9.78738 37.2054 8.67172 36.6436 8.09298C35.9851 7.5442 35.6709 7.5236 33.3051 6.78191C33.0135 6.70137 30.5591 5.93221 30.5535 3.51298C30.5151 1.7499 32.1275 0.00555712 34.9219 0.0199164C35.718 0.0192921 37.8394 0.27776 38.4137 0.995102C38.4986 1.12558 38.5407 1.27917 38.5344 1.43462V2.06581C38.5344 2.34301 38.4326 2.4816 38.2284 2.4816C37.7439 2.42791 36.8843 1.78424 35.1393 1.81046C34.7064 1.78799 32.6327 1.86727 32.7257 3.36939C32.6987 4.55309 34.3978 4.99698 34.592 5.04818C36.883 5.73305 37.649 5.84668 38.5582 6.89491C39.6353 8.28402 39.0547 9.91037 38.8316 10.3561C37.6327 12.6967 34.5323 12.5063 34.4795 12.505ZM37.0056 19.0516C32.6051 22.2806 26.2171 23.9994 20.7629 23.9994C13.4035 24.0476 6.29206 21.3589 0.826637 16.462C0.416313 16.0942 0.778253 15.5904 1.27718 15.8707C7.33996 19.3164 14.2043 21.1269 21.1889 21.1225C26.4048 21.0947 31.5638 20.0434 36.3696 18.029C37.1099 17.7168 37.7376 18.516 37.0056 19.0516ZM38.8398 16.9733C38.2767 16.2541 35.1148 16.6374 33.6991 16.8053C33.2724 16.8534 33.2002 16.4857 33.5866 16.2141C36.1045 14.4554 40.2398 14.9592 40.7148 15.5505C41.1892 16.1417 40.586 20.2584 38.229 22.225C37.867 22.5291 37.5208 22.3686 37.6817 21.9691C38.212 20.6424 39.4028 17.6931 38.8398 16.9733Z" fill="#FFB81D"/>
</svg>
