<svg width="35" height="39" viewBox="0 0 35 39" fill="none" xmlns="http://www.w3.org/2000/svg">
<path d="M34.9998 9.43161V26.8161L0.00634766 26.8158V9.4313C0.00634766 8.35826 0.879547 7.49146 1.94619 7.49146H9.66839L7.59755 20.0105C7.42272 21.0585 7.71603 22.1188 8.40221 22.9298C9.08842 23.7406 10.0926 24.2084 11.1531 24.2084H23.8468C24.9135 24.2084 25.9177 23.7406 26.6038 22.9298C27.29 22.1191 27.5831 21.0521 27.4085 20.0044L25.3376 7.49153H33.0598C34.1262 7.49123 34.9997 8.35834 34.9997 9.43138L34.9998 9.43161Z" fill="#FFB81D"/>
<path d="M0 28.0637V31.5505C0 32.6232 0.867118 33.4904 1.93985 33.4904H33.0535C34.1262 33.4904 34.9933 32.6232 34.9933 31.5505L34.9936 28.0637H0ZM17.4967 31.9562C16.848 31.9562 16.3241 31.4259 16.3241 30.7772C16.3241 30.1285 16.848 29.5982 17.4967 29.5982C18.1516 29.5982 18.6757 30.1285 18.6757 30.7772C18.6754 31.4259 18.1516 31.9562 17.4967 31.9562Z" fill="#FFB81D"/>
<path d="M26.211 37.7695C26.211 38.0253 25.999 38.2373 25.7431 38.2373H9.25689C9.00105 38.2373 8.78906 38.0253 8.78906 37.7695C8.78906 37.5075 9.00105 37.3017 9.25689 37.3017H11.546L12.5253 34.738H22.4744L23.46 37.3017H25.7428C25.9987 37.3017 26.2106 37.5075 26.2106 37.7695H26.211Z" fill="#FFB81D"/>
<path d="M26.1797 20.2104L23.7906 5.82626C23.7406 5.49579 23.4601 5.25853 23.1293 5.25853H21.3266L21.0521 3.02536C20.7716 1.27257 19.2743 0 17.5029 0C15.7315 0 14.2345 1.27249 13.9476 3.04392L13.6792 5.25846H11.8765C11.5457 5.25846 11.2652 5.49542 11.2091 5.82618L8.82641 20.2103C8.58945 21.6512 9.69961 22.9612 11.1531 22.9612H23.8468C25.3063 22.9612 26.4165 21.6512 26.1795 20.2103L26.1797 20.2104ZM17.5031 18.2081C15.9936 18.2081 14.771 16.9916 14.771 15.4821C14.771 13.9727 15.9936 12.7501 17.5031 12.7501C19.0125 12.7501 20.2351 13.9727 20.2351 15.4821C20.2351 16.9916 19.0125 18.2081 17.5031 18.2081ZM14.6212 5.25863L14.8709 3.17532C15.0829 1.8778 16.187 0.93606 17.5031 0.93606C18.8131 0.93606 19.9232 1.87811 20.1291 3.15668L20.385 5.25886L14.6212 5.25863Z" fill="#FFB81D" fill-opacity="0.58"/>
</svg>
