<svg width="36" height="36" viewBox="0 0 36 36" fill="none" xmlns="http://www.w3.org/2000/svg">
<path d="M15 25.5001C15 20.013 19.2335 15.5039 24.6017 15.0442C24.3048 14.075 23.9645 13.1371 23.537 12.2876C18.4275 15.888 11.5721 15.8852 6.46548 12.2842C6.01129 13.1926 5.65092 14.1976 5.34364 15.2376L1.14852 13.5002L0 16.2718L4.70208 18.2167C4.58186 19.122 4.50151 20.0451 4.50151 21.0003H0.00159948V23.9998H4.71244C4.83706 24.8819 5.02413 25.7341 5.25296 26.5518L0.00156699 28.7283L1.14848 31.4999L6.28746 29.3702C8.17364 33.3688 11.3718 35.9999 15.0012 35.9999C16.7395 35.9999 18.3743 35.3846 19.8188 34.3155C16.9241 32.4463 14.9993 29.1941 14.9993 25.5005L15 25.5001Z" fill="#FFB81D"/>
<path d="M19.2099 7.27719L21.7502 1.14821L18.9789 0L16.4301 6.15542C15.9611 6.06125 15.4865 5.99973 15.0019 5.99973C14.5154 5.99973 14.0395 6.06125 13.5706 6.15542L11.0218 0L8.2502 1.14853L10.7905 7.28064C9.79737 7.90748 8.88075 8.73364 8.07471 9.74717C12.1967 12.7235 17.8058 12.7235 21.9288 9.74717C21.1228 8.733 20.2043 7.90396 19.2096 7.27719H19.2099Z" fill="#FFB81D"/>
<path d="M31.7533 29.6304C32.5367 28.4438 32.9997 27.0257 32.9997 25.4996C32.9997 21.3569 29.6424 17.9995 25.5003 17.9995C21.3576 17.9995 18.0002 21.3569 18.0002 25.4996C18.0002 29.6417 21.3576 32.9991 25.5003 32.9991C27.028 32.9991 28.4458 32.5364 29.6327 31.7514L33.8787 35.9992L35.9999 33.878L31.7533 29.6304ZM25.5003 29.9995C23.0146 29.9995 21.0004 27.984 21.0004 25.4996C21.0004 23.0123 23.0146 20.9997 25.5003 20.9997C27.9857 20.9997 30.0002 23.0123 30.0002 25.4996C30.0002 27.984 27.9857 29.9995 25.5003 29.9995Z" fill="#FFB81D" fill-opacity="0.58"/>
</svg>
