<svg width="36" height="37" viewBox="0 0 36 37" fill="none" xmlns="http://www.w3.org/2000/svg">
<path fill-rule="evenodd" clip-rule="evenodd" d="M14.3892 30.1479H21.241V35.6294H14.3892V30.1479Z" fill="#FFB81D"/>
<path fill-rule="evenodd" clip-rule="evenodd" d="M35.6298 21.9258V5.48137C35.6298 4.93598 35.4132 4.41318 35.0275 4.02807C34.6424 3.64235 34.1196 3.42578 33.5742 3.42578H28.7779V18.4999C28.7779 19.0453 28.5613 19.568 28.1756 19.9532C27.7905 20.3389 27.2677 20.5554 26.7223 20.5554H8.90747C8.36208 20.5554 7.83929 20.3389 7.45417 19.9532C7.06845 19.568 6.85188 19.0453 6.85188 18.4999V3.42578H2.05559C1.5102 3.42578 0.987404 3.64235 0.60229 4.02807C0.216566 4.41318 0 4.93596 0 5.48137V21.9258H35.6298Z" fill="#FFB81D"/>
<path fill-rule="evenodd" clip-rule="evenodd" d="M10.278 37.0003H24.6669C25.0449 37.0003 25.352 36.6931 25.352 36.3151C25.352 35.937 25.0449 35.6299 24.6669 35.6299H10.278C9.89989 35.6299 9.59277 35.937 9.59277 36.3151C9.59277 36.6931 9.89989 37.0003 10.278 37.0003Z" fill="#FFB81D"/>
<path fill-rule="evenodd" clip-rule="evenodd" d="M35.6299 23.2964H0.000244141V26.7223C0.000244141 27.2677 0.21681 27.7905 0.602534 28.1756C0.987648 28.5613 1.51042 28.7779 2.05583 28.7779H33.5744C34.1198 28.7779 34.6425 28.5613 35.0277 28.1756C35.4134 27.7905 35.6299 27.2677 35.6299 26.7223L35.6299 23.2964ZM17.8151 24.6668C17.0586 24.6668 16.4447 25.2807 16.4447 26.0371C16.4447 26.7936 17.0586 27.4075 17.8151 27.4075C18.5715 27.4075 19.1854 26.7936 19.1854 26.0371C19.1854 25.2807 18.5715 24.6668 17.8151 24.6668Z" fill="#FFB81D"/>
<path fill-rule="evenodd" clip-rule="evenodd" d="M20.5557 2.74072H24.6668V4.11109H20.5557V2.74072Z" fill="#FFB81D" fill-opacity="0.58"/>
<path fill-rule="evenodd" clip-rule="evenodd" d="M10.9631 2.74121H16.4446V6.16808H10.9631V2.74121Z" fill="#FFB81D" fill-opacity="0.58"/>
<path fill-rule="evenodd" clip-rule="evenodd" d="M21.2407 8.22217H24.667V16.4444H21.2407V8.22217Z" fill="#FFB81D" fill-opacity="0.58"/>
<path fill-rule="evenodd" clip-rule="evenodd" d="M27.4076 18.5V0.685185C27.4076 0.50349 27.3357 0.328826 27.2069 0.200661C27.0788 0.0718857 26.9041 0 26.7224 0H8.9076C8.7259 0 8.55124 0.0718834 8.42307 0.200661C8.2943 0.328826 8.22241 0.50349 8.22241 0.685185V18.5C8.22241 18.6817 8.2943 18.8564 8.42307 18.9845C8.55124 19.1133 8.7259 19.1852 8.9076 19.1852H26.7224C26.9041 19.1852 27.0788 19.1133 27.2069 18.9845C27.3357 18.8564 27.4076 18.6817 27.4076 18.5ZM26.0372 8.22223C26.0372 7.46515 25.4239 6.85185 24.6669 6.85185H21.2409C20.4839 6.85185 19.8706 7.46515 19.8706 8.22223V16.4445C19.8706 17.2015 20.4839 17.8148 21.2409 17.8148H24.6669C25.4239 17.8148 26.0372 17.2015 26.0372 16.4445V8.22223ZM17.1298 10.2778C17.1298 9.52071 16.5165 8.90741 15.7595 8.90741H12.3335C11.5765 8.90741 10.9632 9.52071 10.9632 10.2778V16.4445C10.9632 17.2015 11.5765 17.8148 12.3335 17.8148H15.7595C16.5165 17.8148 17.1298 17.2015 17.1298 16.4445V10.2778ZM17.815 2.74074C17.815 1.98367 17.2017 1.37037 16.4446 1.37037H10.9632C10.2061 1.37037 9.59278 1.98367 9.59278 2.74074V6.16667C9.59278 6.92374 10.2061 7.53704 10.9632 7.53704H16.4446C17.2017 7.53704 17.815 6.92374 17.815 6.16667V2.74074ZM26.0372 2.74074C26.0372 1.98367 25.4239 1.37037 24.6669 1.37037H20.5557C19.7987 1.37037 19.1854 1.98367 19.1854 2.74074V4.11111C19.1854 4.86818 19.7987 5.48148 20.5557 5.48148H24.6669C25.4239 5.48148 26.0372 4.86818 26.0372 4.11111V2.74074Z" fill="#FFB81D" fill-opacity="0.58"/>
<path fill-rule="evenodd" clip-rule="evenodd" d="M12.3335 10.2778H15.7597V16.4445H12.3335V10.2778Z" fill="#FFB81D" fill-opacity="0.58"/>
</svg>
