<svg width="36" height="36" viewBox="0 0 36 36" fill="none" xmlns="http://www.w3.org/2000/svg">
<path d="M11.5716 5.14286L14.143 0H12.8573L10.2859 5.14286H11.5716Z" fill="#FFB81D" fill-opacity="0.58"/>
<path d="M9 5.14286L11.5714 0H1.28571C0.575699 0 0 0.575699 0 1.28571V5.14286H9ZM6.42857 1.28571C7.13859 1.28571 7.71428 1.86141 7.71428 2.57143C7.71428 3.28144 7.13859 3.85714 6.42857 3.85714C5.71855 3.85714 5.14286 3.28144 5.14286 2.57143C5.14286 1.86141 5.71855 1.28571 6.42857 1.28571ZM2.57143 1.28571C3.28144 1.28571 3.85714 1.86141 3.85714 2.57143C3.85714 3.28144 3.28144 3.85714 2.57143 3.85714C1.86141 3.85714 1.28571 3.28144 1.28571 2.57143C1.28571 1.86141 1.86141 1.28571 2.57143 1.28571Z" fill="#FFB81D" fill-opacity="0.58"/>
<path d="M36 5.14286V1.28571C36 0.575699 35.4243 0 34.7143 0H15.4286L12.8572 5.14286H36Z" fill="#FFB81D" fill-opacity="0.58"/>
<path d="M0 6.42847V34.7142C0 35.4242 0.575699 35.9999 1.28571 35.9999H34.7143C35.4243 35.9999 36 35.4242 36 34.7142V6.42847H0ZM7.71428 16.0713V14.0248C6.96695 13.7591 6.42857 13.0528 6.42857 12.2142C6.42857 11.1492 7.29213 10.2856 8.35714 10.2856C9.42215 10.2856 10.2857 11.1492 10.2857 12.2142C10.2857 13.0528 9.74732 13.759 9 14.0248V15.8053L12.6689 19.4742C12.7894 19.5944 12.8572 19.7578 12.8572 19.9285V22.4999C12.8572 22.8552 12.5696 23.1428 12.2143 23.1428C11.859 23.1428 11.5715 22.8552 11.5715 22.4999V20.1945L7.90255 16.5256C7.78202 16.4054 7.71428 16.2421 7.71428 16.0713ZM13.9116 32.2919C14.1839 32.5192 14.2209 32.9247 13.9939 33.1979C13.8665 33.3506 13.6837 33.4289 13.4992 33.4289C13.3542 33.4289 13.2084 33.3799 13.0879 33.2803L9.23077 30.066C9.0844 29.9435 8.99974 29.7626 8.99974 29.5718C8.99974 29.3809 9.0844 29.2001 9.23077 29.0776L13.0879 25.8633C13.3617 25.636 13.7666 25.673 13.9939 25.9457C14.2212 26.2189 14.1842 26.6244 13.9116 26.8517L10.647 29.5718L13.9116 32.2919ZM13.0454 16.5261C12.9249 16.4056 12.8572 16.2423 12.8572 16.0715V14.025C12.1098 13.7593 11.5715 13.053 11.5715 12.2144C11.5715 11.1494 12.435 10.2858 13.5 10.2858C14.565 10.2858 15.4286 11.1494 15.4286 12.2144C15.4286 13.0529 14.8902 13.7592 14.1429 14.025V15.8055L16.5261 18.1887C16.6466 18.3089 16.7144 18.4722 16.7144 18.643V22.5001C16.7144 22.8554 16.4268 23.143 16.0715 23.143C15.7162 23.143 15.4286 22.8554 15.4286 22.5001V18.909L13.0454 16.5261ZM20.4798 26.6876L16.6227 33.1162C16.5021 33.3171 16.2892 33.4282 16.0708 33.4282C15.9583 33.4282 15.8441 33.3986 15.7405 33.3366C15.436 33.1538 15.3375 32.7589 15.5201 32.4547L19.3772 26.0261C19.5606 25.7211 19.9598 25.6249 20.2585 25.8057C20.5639 25.9882 20.6632 26.3831 20.4798 26.6876H20.4798ZM20.5716 22.5002C20.5716 22.8555 20.2841 23.143 19.9288 23.143C19.5735 23.143 19.2859 22.8555 19.2859 22.5002V18.643C19.2859 18.4723 19.3537 18.309 19.4742 18.1885L21.8574 15.8055V14.0251C21.1101 13.7593 20.5717 13.0531 20.5717 12.2144C20.5717 11.1494 21.4352 10.2859 22.5003 10.2859C23.5653 10.2859 24.4288 11.1494 24.4288 12.2144C24.4288 13.053 23.8904 13.7593 23.1431 14.0251V16.0716C23.1431 16.2423 23.0754 16.4056 22.9548 16.5262L20.5716 18.9094V22.5002ZM26.7692 30.0661L22.912 33.2803C22.7915 33.3802 22.6457 33.429 22.5008 33.429C22.3162 33.429 22.1334 33.3507 22.006 33.198C21.7787 32.9248 21.8157 32.5193 22.0883 32.292L25.3529 29.5719L22.0883 26.8518C21.816 26.6245 21.779 26.219 22.006 25.9458C22.2333 25.6735 22.6382 25.6364 22.912 25.8635L26.7691 29.0777C26.9155 29.2006 27.0002 29.3814 27.0002 29.5722C27.0002 29.7631 26.9155 29.9439 26.7691 30.0661L26.7692 30.0661ZM28.2859 14.0255V16.072C28.2859 16.2427 28.2182 16.406 28.0977 16.5266L24.4288 20.1955V22.5006C24.4288 22.8559 24.1412 23.1434 23.7859 23.1434C23.4306 23.1434 23.143 22.8559 23.143 22.5006V19.9292C23.143 19.7584 23.2108 19.5951 23.3313 19.4746L27.0002 15.806V14.0255C26.2529 13.7597 25.7145 13.0535 25.7145 12.2148C25.7145 11.1498 26.5781 10.2863 27.6431 10.2863C28.7081 10.2863 29.5716 11.1498 29.5716 12.2148C29.5716 13.0534 29.0333 13.7597 28.2859 14.0255Z" fill="#FFB81D"/>
</svg>
