<svg width="32" height="32" viewBox="0 0 32 32" fill="none" xmlns="http://www.w3.org/2000/svg">
<path d="M26.6407 14.0417C29.8422 14.0417 32.104 15.4224 31.6932 17.1283L29.8274 24.8473C29.4172 26.5502 27.6709 27.933 25.9289 27.933H24.3531C23.9873 27.933 23.623 27.8692 23.2693 27.7551L25.8256 17.1768C26.0775 16.1423 25.8425 15.1251 25.1464 14.2442C25.0915 14.1774 25.0314 14.1096 24.9701 14.0415L26.6407 14.0417Z" fill="#FFB81D" fill-opacity="0.58"/>
<path d="M25.1808 4.78235C27.3139 4.78235 29.0427 6.50974 29.0427 8.63911C29.0427 10.7701 27.3142 12.4994 25.1808 12.4994C23.0499 12.4994 21.3228 10.7703 21.3228 8.63911C21.3222 6.50926 23.0494 4.78235 25.1808 4.78235Z" fill="#FFB81D" fill-opacity="0.58"/>
<path d="M17.8707 12.6964C22.262 12.6964 25.3616 14.5913 24.7965 16.9295L22.241 27.5092C21.6757 29.8458 19.2826 31.7414 16.8957 31.7414H14.7329C12.346 31.7414 9.96768 29.8458 9.42009 27.5092L6.93947 16.9295C6.39139 14.5913 9.50809 12.6964 13.897 12.6964H17.8707Z" fill="#FFB81D"/>
<path d="M21.1603 5.29024C21.1603 8.21184 18.7919 10.5805 15.8703 10.5805C12.9485 10.5805 10.5801 8.21184 10.5801 5.29024C10.5801 2.36864 12.9484 0 15.8703 0C18.7919 0 21.1603 2.36864 21.1603 5.29024Z" fill="#FFB81D"/>
<path d="M6.56059 4.78235C8.69155 4.78235 10.4182 6.50974 10.4182 8.63911C10.4182 10.7701 8.69155 12.4994 6.56059 12.4994C4.42695 12.4994 2.70142 10.7703 2.70142 8.63911C2.70142 6.50926 4.42695 4.78235 6.56059 4.78235Z" fill="#FFB81D" fill-opacity="0.58"/>
<path d="M8.38955 27.7506V27.7552C8.0361 27.8693 7.67402 27.9331 7.30822 27.9331H5.73182C3.99202 27.9331 2.2525 26.5503 1.85486 24.8474L0.0455986 17.1283C-0.354157 15.4224 1.91895 14.0417 5.11993 14.0417H6.78062C6.72193 14.1101 6.66109 14.1718 6.60591 14.2445C5.90705 15.1247 5.66854 16.1355 5.91002 17.1717L8.38955 27.7506Z" fill="#FFB81D" fill-opacity="0.58"/>
</svg>
