<svg width="36" height="36" viewBox="0 0 36 36" fill="none" xmlns="http://www.w3.org/2000/svg">
<path d="M3.4022 30.9032V13.3102C3.78152 13.587 4.22715 13.7596 4.69426 13.8103L8.68553 22.0571H14.3318L7.54192 11.7597C7.58648 11.5688 7.60876 11.3731 7.60796 11.1769C7.64098 10.4526 7.37629 9.74606 6.87537 9.22177C6.37418 8.69723 5.68049 8.40088 4.9554 8.40088C4.23003 8.40088 3.53641 8.69725 3.03543 9.22177C2.53423 9.74605 2.26951 10.4526 2.30257 11.1769V30.7601C2.55196 30.8771 2.82416 30.9372 3.09989 30.9359C3.20136 30.9359 3.30283 30.9249 3.40216 30.9032L3.4022 30.9032Z" fill="#FFB81D"/>
<path d="M34.4868 27.4288C34.8455 27.4288 35.1896 27.2862 35.443 27.0328C35.6967 26.7791 35.8393 26.435 35.8393 26.0763V24.515C35.8393 24.1564 35.6967 23.8122 35.443 23.5586C35.1896 23.3051 34.8455 23.1626 34.4868 23.1626H6.21156C5.85399 23.1639 5.51121 23.307 5.25886 23.5607C5.00652 23.8141 4.86478 24.1572 4.86478 24.5151V26.0764C4.86478 26.4342 5.00652 26.7773 5.25886 27.0307C5.5112 27.2844 5.85401 27.4275 6.21156 27.4288H8.35028V31.1949C7.1455 30.7302 5.79173 30.8628 4.69966 31.5522C4.22263 31.8566 3.66855 32.0185 3.10268 32.0185C2.53682 32.0185 1.98244 31.8566 1.50543 31.5522C1.38329 31.458 1.22705 31.4193 1.07484 31.4459C0.922637 31.4725 0.788676 31.5619 0.705727 31.6921C0.622779 31.8223 0.598349 31.9814 0.638616 32.1307C0.678883 32.2797 0.780088 32.4051 0.917265 32.4759C1.57255 32.8993 2.33625 33.1245 3.11639 33.1245C3.89653 33.1245 4.66025 32.8993 5.31552 32.4759C5.79362 32.1739 6.34718 32.0137 6.91249 32.0137C7.47781 32.0137 8.03164 32.1739 8.50975 32.4759L8.63055 32.5527V32.553C9.25764 32.9186 9.97201 33.1087 10.6979 33.1028C10.882 33.1038 11.0659 33.0891 11.2476 33.0587C11.8358 32.9833 12.3996 32.7766 12.897 32.4539C13.024 32.3739 13.1563 32.3022 13.2929 32.2394L13.4854 32.168L13.7053 32.091L13.9528 32.0359L14.1343 32.0086H14.3761H14.3759C14.4891 31.9976 14.6035 31.9976 14.7168 32.0086H14.7498C15.2215 32.0445 15.676 32.2018 16.0692 32.4649L16.1463 32.5033C16.7862 32.902 17.5253 33.1132 18.2793 33.1132C19.0334 33.1132 19.7725 32.902 20.4124 32.5033L20.4675 32.4703C20.941 32.1624 21.494 31.9984 22.0591 31.9984C22.6242 31.9984 23.1769 32.1624 23.6507 32.4703H23.7001C24.1994 32.7857 24.7629 32.9849 25.3494 33.0531C25.5808 33.0845 25.8147 33.0936 26.0477 33.0807H26.0753C26.7838 33.0499 27.471 32.8297 28.0653 32.4429C28.5375 32.1414 29.086 31.9812 29.6459 31.9812C30.2062 31.9812 30.7546 32.1414 31.2266 32.4429H31.2542C31.3806 32.5256 31.513 32.5991 31.6499 32.6628C32.9175 33.2692 34.4082 33.1777 35.5918 32.4209C35.7292 32.35 35.8301 32.2247 35.8704 32.0757C35.9107 31.9264 35.8862 31.7672 35.8033 31.637C35.7203 31.5068 35.5864 31.4174 35.4342 31.3909C35.2822 31.3643 35.1257 31.4029 35.0036 31.4972C34.2342 31.9847 33.2839 32.0921 32.4251 31.7887V27.4289L34.4868 27.4288ZM25.4429 32.0142C25.011 31.9599 24.5973 31.8077 24.2335 31.5688H24.1839C23.542 31.1645 22.7987 30.95 22.0398 30.95C21.2812 30.95 20.5379 31.1645 19.8957 31.5688C19.8775 31.5659 19.8589 31.5659 19.8407 31.5688C19.3677 31.8756 18.8158 32.0389 18.2517 32.0389C17.688 32.0389 17.1361 31.8756 16.6631 31.5688C16.6408 31.5546 16.6169 31.5433 16.5917 31.5358C16.2027 31.2875 15.7726 31.1106 15.3217 31.0134V27.4288H25.4431L25.4429 32.0142Z" fill="#FFB81D"/>
<path d="M27.4002 34.4329C26.816 34.8055 26.1194 34.9612 25.4319 34.8726C25.0021 34.8176 24.5903 34.6654 24.2279 34.4272L24.1728 34.3942C23.5307 33.9932 22.7887 33.7803 22.0314 33.7803C21.2744 33.7803 20.5324 33.9932 19.8903 34.3942L19.8353 34.4272C19.3609 34.7341 18.8082 34.8973 18.2437 34.8973C17.6788 34.8973 17.1261 34.7341 16.652 34.4272H16.597C15.9492 34.0189 15.1992 33.8026 14.4336 33.8026C13.668 33.8026 12.9179 34.0189 12.2702 34.4272C11.9019 34.661 11.4874 34.813 11.0552 34.8726C10.3634 34.97 9.65952 34.8117 9.07592 34.4272C8.95352 34.3392 8.80023 34.3051 8.65204 34.3333C8.50386 34.3615 8.37366 34.4492 8.29232 34.5759C8.21071 34.7029 8.18467 34.8578 8.22064 35.0044C8.25662 35.151 8.35111 35.2761 8.48238 35.351C9.13767 35.7743 9.90116 35.9995 10.6815 35.9998C10.8654 36.0017 11.0493 35.9888 11.2313 35.9611C11.8195 35.883 12.3829 35.6744 12.8806 35.351C13.3566 35.0471 13.9099 34.8855 14.4749 34.8855C15.0397 34.8855 15.593 35.0471 16.0692 35.351H16.1186C16.7608 35.7552 17.5041 35.9697 18.2627 35.9697C19.0216 35.9697 19.7649 35.7552 20.4071 35.351H20.4621H20.4618C20.9351 35.0441 21.4867 34.8806 22.0508 34.8806C22.6148 34.8806 23.1667 35.0441 23.6397 35.351H23.6947C24.3406 35.7668 25.0925 35.9877 25.8609 35.9877C26.6289 35.9877 27.3811 35.7668 28.027 35.351C28.0659 35.3247 28.1027 35.2951 28.1371 35.2629C28.3363 35.0388 28.3191 34.6965 28.0984 34.4933C27.9105 34.3081 27.6173 34.2828 27.4002 34.4329L27.4002 34.4329Z" fill="#FFB81D"/>
<path d="M31.0616 6.1301C31.0616 5.82649 30.8154 5.58032 30.5118 5.58032C30.2082 5.58032 29.962 5.82649 29.962 6.1301V7.63664L29.7916 7.63637C29.3688 7.63637 28.9631 7.80442 28.6641 8.10347C28.3653 8.40253 28.1973 8.80788 28.1973 9.23066V11.0284C27.6746 11.0301 27.1742 11.2386 26.8051 11.6086C26.4362 11.9785 26.229 12.4797 26.229 13.0023V22.0627H34.5307C34.6496 22.0541 34.7691 22.0541 34.888 22.0627V13.0023C34.888 12.4789 34.68 11.9769 34.31 11.6066C33.9398 11.2365 33.4379 11.0284 32.9143 11.0284V9.23062C32.9127 8.80727 32.7436 8.40189 32.4438 8.10315C32.1439 7.8041 31.7378 7.63632 31.3144 7.63632H31.1219L31.0616 6.1301ZM32.0788 20.3639H28.9449C28.6413 20.3639 28.3951 20.1178 28.3951 19.8142C28.3951 19.5105 28.6413 19.2644 28.9449 19.2644H32.0788C32.3824 19.2644 32.6285 19.5105 32.6285 19.8142C32.6285 20.1178 32.3824 20.3639 32.0788 20.3639ZM32.0788 17.2521H28.9449V17.2524C28.6413 17.2524 28.3951 17.0062 28.3951 16.7026C28.3951 16.399 28.6413 16.1528 28.9449 16.1528H32.0788C32.3824 16.1528 32.6285 16.399 32.6285 16.7026C32.6285 17.0062 32.3824 17.2524 32.0788 17.2524V17.2521ZM32.0788 13.0464V13.0466C32.3824 13.0466 32.6285 13.2925 32.6285 13.5964C32.6285 13.9 32.3824 14.1462 32.0788 14.1462H28.9449C28.6413 14.1462 28.3951 13.9 28.3951 13.5964C28.3951 13.2925 28.6413 13.0466 28.9449 13.0466L32.0788 13.0464Z" fill="#FFB81D" fill-opacity="0.58"/>
<path d="M22.7875 5.61897C22.7437 5.18193 22.5386 4.77711 22.2124 4.48346C21.886 4.18951 21.4619 4.02791 21.0227 4.03005H19.0601C18.6217 4.0279 18.1983 4.1887 17.8722 4.48131C17.546 4.77392 17.3404 5.17768 17.2953 5.61365L15.4041 22.0631H24.6789L22.7875 5.61897Z" fill="#FFB81D" fill-opacity="0.58"/>
<path d="M20.0439 2.85895C20.1897 2.85895 20.3296 2.80096 20.4326 2.69787C20.5357 2.59479 20.5937 2.45492 20.5937 2.30916C20.5937 1.98837 20.7212 1.68073 20.9481 1.45391C21.1749 1.22707 21.4825 1.09956 21.8033 1.09956H30.5118C30.8155 1.09956 31.0616 0.853666 31.0616 0.549781C31.0616 0.246165 30.8155 0 30.5118 0H21.8033C21.1913 0.00161065 20.6047 0.24536 20.172 0.6781C19.7392 1.11084 19.4955 1.69712 19.4941 2.30916C19.4941 2.45493 19.5521 2.59479 19.6552 2.69787C19.7583 2.80096 19.8982 2.85895 20.0439 2.85895H20.0439Z" fill="#FFB81D" fill-opacity="0.58"/>
<path d="M28.692 2.46336C28.692 2.31732 28.634 2.17746 28.5309 2.07437C28.4278 1.97129 28.288 1.91357 28.1422 1.91357H24.8105C24.5069 1.91357 24.2607 2.15947 24.2607 2.46336C24.2607 2.76697 24.5069 3.01314 24.8105 3.01314H28.1422C28.288 3.01314 28.4278 2.95515 28.5309 2.85206C28.634 2.74898 28.692 2.60912 28.692 2.46336Z" fill="#FFB81D" fill-opacity="0.58"/>
</svg>
