<svg width="34" height="37" viewBox="0 0 34 37" fill="none" xmlns="http://www.w3.org/2000/svg">
<path d="M14.719 20.5385H15.3752C16.3019 20.5385 17.3056 20.577 18.4251 20.6158C19.5445 20.6543 20.7028 20.7316 21.7452 20.7316C22.4015 20.7316 22.942 20.6931 23.4052 20.6543C23.5595 20.6158 23.6756 20.6158 23.7914 20.6158C24.6407 20.6158 25.3743 20.8862 25.9921 21.4267L25.7217 16.292C25.4128 13.8597 23.6371 11.9681 21.3205 11.3888L19.0428 17.1026L18.5408 12.9715H18.8497C19.0428 12.9715 19.1971 12.8172 19.1971 12.6241V11.5046C19.1971 11.3115 19.0428 11.1572 18.8497 11.1572H17.0352C16.8421 11.1572 16.6878 11.3115 16.6878 11.5046V12.6241C16.6878 12.8172 16.8421 12.9715 17.0352 12.9715H17.3441L16.8421 17.1026L14.5644 11.3888C12.2866 11.9293 10.4721 13.8597 10.1632 16.292L9.89282 21.2336C10.7422 20.9633 11.5143 20.7704 12.1706 20.6931C12.9044 20.6156 13.7538 20.5771 14.719 20.5386L14.719 20.5385Z" fill="#FFB81D" fill-opacity="0.58"/>
<path d="M23.0969 5.09624C23.0969 7.91069 20.8153 10.1922 18.0006 10.1922C15.1862 10.1922 12.9047 7.91069 12.9047 5.09624C12.9047 2.28153 15.1862 0 18.0006 0C20.8153 0 23.0969 2.28153 23.0969 5.09624Z" fill="#FFB81D" fill-opacity="0.58"/>
<path d="M33.7522 26.4459C33.3275 25.6738 32.3238 25.0945 31.0498 25.5966C30.1619 25.944 28.772 26.3302 26.8417 26.8321C26.3397 27.6815 25.2975 28.6852 23.2126 29.1099C22.7879 29.1871 22.3247 29.2642 21.7842 29.2642C20.5486 29.3027 19.043 29.2257 17.4603 29.1099L17.1129 29.0713C16.5724 29.0328 16.1092 28.6081 16.0704 28.1062C16.0319 27.7973 16.1477 27.4884 16.3793 27.2568C16.6109 27.0252 16.9198 26.9094 17.2287 26.9094L17.6148 26.9479C19.661 27.1022 21.6298 27.2183 22.8269 26.9864C24.9115 26.5618 25.4909 25.2877 25.3362 24.284C25.2204 23.512 24.6414 22.6625 23.6763 22.7784C22.0548 22.9327 20.163 22.8169 18.3099 22.7399C16.9585 22.6626 15.7618 22.6241 14.7581 22.6626C13.8702 22.6626 13.1366 22.7399 12.5189 22.8169C10.7816 23.0485 7.34563 24.3998 4.45004 26.446C3.02166 27.4497 1.40024 28.6467 0.318969 29.4958C0.125611 29.6116 0.00981086 29.8047 0.00981086 30.0363C-0.0286988 30.2679 0.0483203 30.4995 0.2029 30.654L4.75837 36.3678C4.91268 36.5609 5.10577 36.6382 5.33737 36.6767C5.56896 36.7152 5.76206 36.6382 5.95514 36.4836L7.57663 35.171C8.03983 34.7849 8.65762 34.6691 9.19811 34.8621C12.0936 35.7115 15.298 36.3293 17.4214 36.4063C21.8226 36.5221 30.3547 31.1557 32.9799 29.264C34.1382 28.4534 34.1767 27.2567 33.752 26.4461L33.7522 26.4459Z" fill="#FFB81D"/>
</svg>
