<svg width="36" height="36" viewBox="0 0 36 36" fill="none" xmlns="http://www.w3.org/2000/svg">
<path d="M23.5469 13.0564H22.6414C21.6602 14.0377 19.9997 14.6415 18.113 14.6415C16.2262 14.6415 14.6411 14.0377 13.5845 13.0564H12.9054C9.58464 13.0564 6.9436 15.0942 6.9436 17.5848H29.2826C29.2826 15.0938 26.7162 13.0564 23.5467 13.0564H23.5469Z" fill="#FFB81D" fill-opacity="0.58"/>
<path d="M18.1128 0C14.4146 0 11.396 3.01852 11.396 6.7168C11.396 10.4149 14.4145 13.4336 18.1128 13.4336C21.8109 13.4336 24.8296 10.4151 24.8296 6.7168C24.8296 3.01906 21.8111 0 18.1128 0ZM18.1128 11.9242C15.2448 11.9242 12.9053 9.58478 12.9053 6.71666C12.9053 6.26393 12.9805 5.88647 13.0563 5.43375C13.6602 5.7354 14.792 6.18866 16.0749 6.18866C16.9803 6.18866 17.9616 5.96229 18.8671 5.28319C18.9424 5.20791 21.2824 3.54752 23.0933 5.20791C23.2444 5.66064 23.3196 6.18917 23.3196 6.71716C23.3202 9.58461 20.9808 11.9242 18.1126 11.9242L18.1128 11.9242Z" fill="#FFB81D" fill-opacity="0.58"/>
<path d="M30.5655 32.075V20.0754C30.5655 19.0942 29.7353 18.264 28.7541 18.264L7.47163 18.2646C6.49036 18.2646 5.66023 19.0948 5.66023 20.076V32.0755H0V36.0001L35.9236 35.9995V32.075H30.5655ZM18.1127 23.9247C19.2445 23.9247 20.1505 24.8301 20.1505 25.9625C20.1505 27.0943 19.2451 28.0003 18.1127 28.0003C16.9809 28.0003 16.0749 27.0948 16.0749 25.9625C16.0754 24.8301 16.9809 23.9247 18.1127 23.9247Z" fill="#FFB81D"/>
</svg>
