<svg width="31" height="36" viewBox="0 0 31 36" fill="none" xmlns="http://www.w3.org/2000/svg">
<path d="M16.1359 0L14.7092 3.45259C14.6022 3.72372 14.3384 3.89479 14.053 3.89479H7.08372C6.79128 3.89479 6.53452 3.72356 6.42025 3.45259L4.98633 0H16.1359Z" fill="#FFB81D"/>
<path d="M12.9828 8.503C13.3967 8.08919 13.9317 7.87519 14.4951 7.87519C14.9944 7.87519 15.4866 8.05352 15.8646 8.37452L16.8134 9.1592L16.9346 7.91795C17.0416 6.81228 17.9548 5.97774 19.0675 5.97774L21.1291 5.97788V2.52529C21.1291 1.13428 19.9878 3.56473e-05 18.5968 3.56473e-05H17.6836L16.0215 4.00186C15.7076 4.79363 14.93 5.32154 14.0456 5.32154H7.07628C6.21318 5.32154 5.4356 4.80801 5.1004 4.00896L3.43116 0H2.51801C1.127 0 0 1.13424 0 2.52525V33.1417C0 34.5327 1.12715 35.667 2.51816 35.667H18.5968C19.9877 35.667 21.129 34.5327 21.129 33.1417V29.682H19.0745C17.9688 29.682 17.0486 28.8546 16.9416 27.7489L16.8204 26.5077L15.8574 27.3066C15.4936 27.6133 15.0014 27.7917 14.502 27.7917C13.9385 27.7917 13.4035 27.5777 13.004 27.1783L11.0851 25.2593C10.2934 24.4532 10.2506 23.2192 10.9567 22.3774L11.7413 21.4286L10.5001 21.3074C9.39442 21.2004 8.56698 20.2802 8.56698 19.1745V16.4853C8.56698 15.3796 9.39442 14.4665 10.5001 14.3595L11.7342 14.2382L10.9425 13.2752C10.2433 12.4192 10.3005 11.1851 11.0851 10.4004L12.9828 8.503ZM14.4594 31.7721C14.8517 31.7721 15.1727 32.086 15.1727 32.4854C15.1727 32.8778 14.8517 33.1988 14.4594 33.1988H6.66973C6.2774 33.1988 5.9564 32.8778 5.9564 32.4854C5.9564 32.086 6.2774 31.7721 6.66973 31.7721H14.4594Z" fill="#FFB81D"/>
<path d="M30.1886 15.7791L27.9773 15.5651C27.8275 15.0516 27.6206 14.5594 27.3639 14.0886L28.7763 12.3695C29.0118 12.0841 28.9903 11.6703 28.7336 11.4136L26.836 9.50902C26.5792 9.25225 26.1583 9.23079 25.8801 9.46625L24.161 10.8787C23.6902 10.622 23.198 10.4151 22.6844 10.2653L22.4704 8.05395C22.4348 7.68308 22.128 7.40485 21.7642 7.40485H19.075C18.7041 7.40485 18.3973 7.68308 18.3616 8.05395L18.1476 10.2653C17.6412 10.4151 17.1419 10.622 16.6711 10.8787L14.952 9.46625C14.6737 9.23079 14.2601 9.25225 13.9961 9.50902L12.0841 11.4136C11.8274 11.6703 11.8059 12.0841 12.0414 12.3695L13.4538 14.0886C13.1971 14.5594 12.9973 15.0516 12.8404 15.5651L10.6291 15.7791C10.2653 15.8148 9.98706 16.1216 9.98706 16.4854V19.1746C9.98706 19.5454 10.2653 19.8523 10.6291 19.8879L12.8404 20.1019C12.9973 20.6155 13.1971 21.1077 13.4538 21.5785L12.0414 23.2976C11.8059 23.5758 11.8274 23.9894 12.0841 24.2535L13.996 26.1582C14.2598 26.4149 14.6736 26.4364 14.9519 26.2009L16.671 24.7885C17.1417 25.0452 17.6411 25.245 18.1475 25.4019L18.3615 27.6132C18.3972 27.977 18.704 28.2552 19.0749 28.2552H21.7641C22.1278 28.2552 22.4346 27.977 22.4703 27.6132L22.6843 25.4019C23.1978 25.245 23.6901 25.0452 24.1609 24.7885L25.88 26.2009C26.1653 26.4364 26.5791 26.4149 26.8359 26.1582L28.7406 24.2536C28.9973 23.9897 29.0188 23.5759 28.7833 23.2977L27.3708 21.5786C27.6276 21.1078 27.8345 20.6156 27.9843 20.1021L30.1956 19.8881C30.5665 19.8524 30.8447 19.5456 30.8447 19.1747V16.4855C30.8449 16.1216 30.5668 15.8148 30.1886 15.7791ZM20.4159 22.0993C18.069 22.0993 16.1501 20.1804 16.1501 17.8335C16.1501 15.4795 18.0691 13.5678 20.4159 13.5678C22.7699 13.5678 24.6817 15.4796 24.6817 17.8335C24.6817 20.1805 22.7698 22.0993 20.4159 22.0993Z" fill="#FFB81D" fill-opacity="0.58"/>
</svg>
