<svg width="44" height="36" viewBox="0 0 44 36" fill="none" xmlns="http://www.w3.org/2000/svg">
<path d="M27.6584 5.8181C21.4766 5.8181 16.2038 9.81822 14.2947 15.3636H14.7494C15.2947 15.3636 15.8404 15.5 16.2947 15.7727C16.8401 14.2273 17.7038 12.8183 18.8401 11.6362C18.9311 11.6815 19.0218 11.7272 19.1128 11.8179C19.2038 11.9089 19.2038 12.4996 19.1582 13.0906V13.1813C19.1582 13.1813 19.6582 14.4087 19.2035 15.4087C18.7035 16.454 18.7945 18.1814 19.0672 18.5451C19.2945 18.8635 20.4762 20.3632 20.6126 20.5452C20.7489 20.6816 21.1579 21.7726 21.1579 21.909C21.2036 22.0907 21.9766 23 22.7492 23C23.2039 23 23.7493 23.2273 24.113 23.409C24.2947 23.5 24.4313 23.5453 24.522 23.5907C24.5673 23.5907 24.613 23.6817 24.6583 23.7724C24.7947 23.954 24.931 24.2724 25.3857 24.4997C25.4767 24.5451 25.613 24.6361 25.7494 24.6814C26.1584 24.9087 26.7494 25.2268 26.7948 25.3177C26.7948 25.3631 26.7038 25.4541 26.6584 25.5451C26.3857 25.8178 25.9767 26.3178 26.1131 26.9998C26.2947 27.9088 27.5678 28.9999 27.9768 29.2726C28.2495 29.4542 28.1131 31.318 27.9768 31.6363C27.9315 31.7273 27.9315 31.8636 27.9315 32.0453H27.7951C23.7043 32.0453 20.1131 29.9999 17.9314 26.9088V30.0453C20.4768 32.5454 23.9769 34.0454 27.7951 34.0454C35.5681 34.0454 41.8862 27.7272 41.8862 19.9544C41.7492 12.1364 35.431 5.81787 27.6579 5.81787L27.6584 5.8181ZM38.2949 16.1818C38.2949 16.2728 38.9766 16.6819 38.9766 16.6819C38.9766 16.6819 38.7039 17.2729 38.5219 17.2729C38.3856 17.2729 38.2493 17.8639 38.2493 18.0909C38.2493 18.3182 38.5219 18.7273 38.8403 18.9546C39.1129 19.1363 39.4766 18.7273 39.613 18.5909C39.6583 18.9546 39.6583 19.3183 39.6583 19.6819C39.34 19.6819 38.8856 19.9093 38.7036 20.0456C38.5219 20.2273 38.0672 21.6367 37.8856 21.773C37.7039 21.9093 37.2945 23.8641 37.2492 24.0457C37.2039 24.2274 37.7946 25.7275 38.1129 25.8638C36.4312 28.8182 33.5674 31.0003 30.2037 31.7273C30.2947 31.6363 30.3854 31.5456 30.3854 31.5C30.3854 31.5 30.5217 31.409 30.6127 31.3636C30.7944 31.2726 31.0217 31.1363 31.1127 31C31.2491 30.7726 31.6581 30.3636 31.8401 30.2726C32.0674 30.1816 33.5218 28.8636 33.6128 28.6362C33.8402 28.0909 34.1582 27.4999 34.3402 27.3635C34.6585 27.0908 34.3402 26.6361 34.2492 26.4545V26.4091C34.1128 26.2274 33.2945 26.1364 33.1582 26.1364C33.0218 26.1364 32.2944 25.7274 32.2492 25.6364C32.2492 25.4091 31.5675 24.7727 31.3854 24.7727C31.2944 24.7727 30.8854 24.6817 30.6581 24.409C30.3854 24.0907 29.4307 23.8637 29.1581 23.8637C28.8854 23.8637 28.5217 23.8183 28.249 23.682C28.0217 23.591 27.6127 23.7273 27.158 23.9093C27.067 23.9547 27.0217 24.0003 26.9764 24.0003C26.84 24.0457 26.0673 23.864 25.84 23.8186C25.7946 23.7733 25.749 23.4549 25.749 23.3186C25.749 23.0913 25.7036 23.0003 25.7036 22.9096C25.6583 22.8186 25.4763 22.7732 25.0673 22.6369C24.9763 22.6369 24.8399 22.5916 24.7946 22.5459C24.7946 22.5006 24.8399 22.4096 24.8856 22.3186C25.0219 22.0459 25.0673 21.8185 25.0219 21.6822C24.9766 21.6369 24.9309 21.5912 24.8856 21.5912C24.7039 21.5459 24.4309 21.7276 24.2039 21.9549C24.0676 22.0459 23.9312 22.1822 23.8402 22.1822C23.7039 22.1822 23.3855 22.0459 22.9765 21.8186C22.7492 21.6822 23.0218 21.0005 23.1128 20.6368C23.1582 20.4551 23.2038 20.3185 23.2038 20.2731C23.2038 20.1821 23.6129 20.0914 24.2039 20.0914C24.3402 20.0914 24.5675 20.0461 24.7949 20.0004C24.9765 19.9551 25.1585 19.9551 25.2949 19.9551C25.3859 19.9551 25.5222 20.1824 25.6132 20.3188C25.7496 20.5461 25.8859 20.7278 26.0679 20.6825C26.2952 20.6371 26.2952 20.3641 26.2496 20.1371V19.9554C26.2496 19.8191 26.5679 19.3191 26.7949 19.1827C27.0676 19.001 27.4766 18.4554 27.386 18.1827C27.386 18.0464 27.886 17.728 28.0677 17.5917C28.1587 17.5464 28.204 17.5007 28.2493 17.4554C28.2947 17.41 28.3857 17.3644 28.431 17.3644C28.6127 17.2734 28.84 17.137 28.84 16.8643C28.84 16.6827 29.3854 16.5917 29.7491 16.546C29.8401 16.546 29.8854 16.546 29.9764 16.5007C30.2037 16.4553 30.3401 16.4097 30.3854 16.319C30.4764 16.1826 30.3854 16.0916 30.3401 15.91C30.3401 15.8646 30.2947 15.819 30.2947 15.7736C30.2037 15.5009 30.2494 15.3189 30.4764 15.1373C30.5674 15.0463 30.7948 15.0463 31.0218 15.0009C31.2491 14.9556 31.5218 14.9556 31.7491 14.8646C31.9308 14.8192 32.0218 14.7282 32.0218 14.6372C32.0672 14.5009 31.9765 14.3646 31.8855 14.2736C31.8401 14.2282 31.7945 14.1826 31.7945 14.1372C31.6581 13.9099 31.4308 13.7282 31.2945 13.5919C31.2035 13.5465 31.1581 13.1828 31.1128 13.0008C31.0674 12.8645 31.0674 12.7735 31.0218 12.6825C30.9764 12.5915 30.9308 12.5462 30.8401 12.5462C30.6584 12.4552 30.3401 12.5915 30.2037 12.6372C30.2037 12.5918 30.1584 12.5462 30.1584 12.5008C30.1131 12.3645 30.1131 12.2735 30.0674 12.1825C30.0221 12.1371 29.9311 12.0461 29.7947 11.9551C29.613 11.8188 29.3857 11.5915 29.2494 11.4551C29.1584 11.3641 29.0677 11.3641 29.022 11.3641C28.7947 11.4095 28.6583 11.6368 28.4767 11.9095C28.4767 11.9548 28.4313 11.9548 28.4313 12.0005C28.1586 12.4095 28.1586 12.6822 28.3403 12.8185C28.3403 12.8185 28.3403 12.9095 28.295 13.0459C28.204 13.2275 28.0676 13.4095 28.0223 13.4095C27.795 13.4095 27.7496 13.7279 27.6586 14.0459C27.6586 14.1369 27.6133 14.3186 27.5676 14.4096C27.5223 14.3642 27.4313 14.1822 27.4766 13.6369V13.5915C27.4766 13.5005 27.4313 13.4552 27.4313 13.4098C27.3403 13.3645 27.2496 13.3645 27.1586 13.3645C27.0223 13.3645 26.9769 13.3645 26.9769 13.3192C26.8406 13.0918 26.2042 12.8645 25.9315 12.7738V12.0011C26.0225 11.9101 27.0225 11.1831 27.2496 11.1374C27.5679 11.0464 28.3859 10.501 28.5223 10.3647C28.6586 10.2737 28.704 10.183 28.6586 10.092C28.6133 9.86467 28.1586 9.63733 27.9769 9.59199C27.8403 8.9087 27.6129 8.9087 27.3403 8.9087C27.2039 8.9087 27.0219 8.9087 26.8402 8.86336C26.0676 8.72702 25.4312 8.72702 24.9311 8.77236C24.5675 8.8177 24.1131 8.72702 23.7948 8.63602C23.6584 8.59068 23.5221 8.59068 23.4311 8.59068C24.7491 8.09066 26.1585 7.81799 27.7039 7.81799C29.3857 7.81799 30.9314 8.13633 32.3858 8.7727C32.4311 8.8637 32.4768 9.00004 32.5221 9.09104C32.6585 9.45472 32.9312 10.0458 32.9312 10.5001C32.9312 10.9547 32.9765 11.4548 32.9312 11.5911C32.8858 11.7274 33.8402 12.8184 34.0675 12.8184C34.2949 12.8638 34.4312 12.7274 34.5676 12.5001C34.7039 12.2728 34.8859 12.0454 35.2493 11.7727C35.5219 11.5454 36.204 11.5911 36.4766 11.6364C36.8856 12.0911 37.2493 12.5454 37.613 13.0001L37.4767 13.1365C37.295 13.3182 36.795 13.8182 36.8856 14.1819C36.931 14.5455 37.3403 15.0456 37.8404 15.2729C38.3404 15.4996 38.295 16.0906 38.295 16.1816L38.2949 16.1818Z" fill="#FFB81D"/>
<path d="M42.2496 2.95449C41.7042 2.95449 41.2496 3.40917 41.2496 3.9545V5.31824C37.5678 1.90911 32.7949 0 27.704 0C22.3857 0 17.3857 2.09109 13.6129 5.81824C10.9765 8.45463 9.11279 11.7728 8.29468 15.3638H10.3858C11.2038 12.3183 12.7949 9.54555 15.0676 7.2728C18.4314 3.90905 22.9313 2.04564 27.7041 2.04564C32.2043 2.04564 36.4315 3.72739 39.7497 6.7275L38.477 6.72718C37.9316 6.72718 37.477 7.18186 37.477 7.72719C37.477 8.27252 37.9316 8.72721 38.477 8.72721H42.2044C42.7498 8.72721 43.2044 8.27252 43.2044 7.72719V3.99972C43.2498 3.40871 42.7951 2.95434 42.2497 2.95434L42.2496 2.95449Z" fill="#FFB81D" fill-opacity="0.58"/>
<path d="M16.8856 33.7729H15.9309L15.9312 18.4091C15.9312 17.7728 15.3859 17.2274 14.7495 17.2274H2.70392C2.06756 17.2274 1.52217 17.7727 1.52217 18.4091V33.7729H0.612501C0.33982 33.7729 0.0671387 34.0002 0.0671387 34.3183V35.4546C0.0671387 35.7273 0.294478 36 0.612501 36H16.8854C17.1581 36 17.4308 35.7727 17.4308 35.4546V34.3183C17.4311 34.0456 17.1581 33.7729 16.8854 33.7729H16.8856ZM5.88553 32.0455C5.88553 32.3182 5.65819 32.5909 5.34017 32.5909H4.61282C4.34014 32.5909 4.06745 32.3635 4.06745 32.0455V30.5001C4.06745 30.2275 4.29479 29.9548 4.61282 29.9548H5.34017C5.61285 29.9548 5.88553 30.1821 5.88553 30.5001V32.0455ZM5.88553 27.2274C5.88553 27.5001 5.65819 27.7727 5.34017 27.7727H4.61282C4.34014 27.7727 4.06745 27.5454 4.06745 27.2274V25.682C4.06745 25.4093 4.29479 25.1366 4.61282 25.1366H5.34017C5.61285 25.1366 5.88553 25.364 5.88553 25.682V27.2274ZM5.88553 22.3639C5.88553 22.6365 5.65819 22.9092 5.34017 22.9092H4.61282C4.34014 22.9092 4.06745 22.6819 4.06745 22.3639V20.8185C4.06745 20.5458 4.29479 20.2731 4.61282 20.2731H5.34017C5.61285 20.2731 5.88553 20.5004 5.88553 20.8185V22.3639ZM9.61301 32.0458C9.61301 32.3184 9.38566 32.5911 9.06764 32.5911H8.34029C8.06761 32.5911 7.79493 32.3638 7.79493 32.0458V30.5004C7.79493 30.2277 8.02227 29.955 8.34029 29.955H9.06764C9.34032 29.955 9.61301 30.1824 9.61301 30.5004V32.0458ZM9.61301 27.2276C9.61301 27.5003 9.38566 27.773 9.06764 27.773H8.34029C8.06761 27.773 7.79493 27.5456 7.79493 27.2276V25.6822C7.79493 25.4096 8.02227 25.1369 8.34029 25.1369H9.06764C9.34032 25.1369 9.61301 25.3642 9.61301 25.6822V27.2276ZM9.61301 22.3641C9.61301 22.6368 9.38566 22.9095 9.06764 22.9095H8.34029C8.06761 22.9095 7.79493 22.6821 7.79493 22.3641V20.8187C7.79493 20.546 8.02227 20.2733 8.34029 20.2733H9.06764C9.34032 20.2733 9.61301 20.5007 9.61301 20.8187V22.3641ZM13.3855 32.046C13.3855 32.3187 13.1582 32.5914 12.8402 32.5914L12.1128 32.5917C11.8401 32.5917 11.5674 32.3644 11.5674 32.0463V30.5009C11.5674 30.2283 11.7948 29.9556 12.1128 29.9556H12.8402C13.1128 29.9556 13.3855 30.1829 13.3855 30.5009V32.046ZM13.3855 27.2279C13.3855 27.5005 13.1582 27.7732 12.8402 27.7732H12.1128C11.8401 27.7732 11.5674 27.5459 11.5674 27.2279V25.6825C11.5674 25.4098 11.7948 25.1371 12.1128 25.1371H12.8402C13.1128 25.1371 13.3855 25.3645 13.3855 25.6825V27.2279ZM13.3855 22.3643C13.3855 22.637 13.1582 22.9097 12.8402 22.9097H12.1128C11.8401 22.9097 11.5674 22.6824 11.5674 22.3643V20.819C11.5674 20.5463 11.7948 20.2736 12.1128 20.2736H12.8402C13.1128 20.2736 13.3855 20.5009 13.3855 20.819V22.3643Z" fill="#FFB81D" fill-opacity="0.58"/>
</svg>
