<svg width="37" height="37" viewBox="0 0 37 37" fill="none" xmlns="http://www.w3.org/2000/svg">
<path d="M36.2152 10.6859L24.3223 5.40022C23.9805 5.24802 23.5905 5.24802 23.2486 5.40022L11.3558 10.6859C10.8788 10.8977 10.5712 11.3711 10.5712 11.8932C10.5712 19.6217 14.1735 27.0949 20.2078 31.883L22.9642 34.0711C23.2049 34.2619 23.4954 34.3575 23.7857 34.3575C24.0759 34.3575 24.3665 34.2619 24.6072 34.0711L27.3636 31.883C33.3976 27.0949 37.0002 19.6217 37.0002 11.8932C37.0002 11.3711 36.6925 10.8977 36.2156 10.6859H36.2152ZM32.6485 19.4345L30.0057 22.0774C29.7476 22.3355 29.4093 22.4644 29.0712 22.4644C28.7332 22.4644 28.3949 22.3352 28.1368 22.0771C27.6206 21.5609 27.6206 20.7247 28.1368 20.2085L28.5241 19.8215H25.1069V23.2387L25.4942 22.8514C26.0104 22.3352 26.8466 22.3352 27.3628 22.8514C27.879 23.3676 27.879 24.2038 27.3628 24.72L24.72 27.3628C24.4619 27.6212 24.1235 27.7501 23.7855 27.7501C23.4475 27.7501 23.1092 27.6209 22.8511 27.3628L20.2082 24.72C19.692 24.2038 19.692 23.3676 20.2082 22.8514C20.7244 22.3352 21.5606 22.3352 22.0768 22.8514L22.4641 23.2387V19.8215H19.0469L19.4342 20.2088C19.9504 20.725 19.9504 21.5612 19.4342 22.0774C19.1761 22.3355 18.8378 22.4644 18.4998 22.4644C18.1618 22.4644 17.8234 22.3352 17.5653 22.0771L14.9225 19.4342C14.4063 18.9181 14.4063 18.0819 14.9225 17.5657L17.5653 14.9228C18.0815 14.4066 18.9177 14.4066 19.4339 14.9228C19.9501 15.439 19.9501 16.2752 19.4339 16.7914L19.0469 17.1787H22.4641V13.7615L22.0768 14.1488C21.5606 14.665 20.7244 14.665 20.2082 14.1488C19.692 13.6326 19.692 12.7964 20.2082 12.2802L22.8511 9.63739C23.3672 9.12121 24.2035 9.12121 24.7196 9.63739L27.3625 12.2802C27.8787 12.7964 27.8787 13.6326 27.3625 14.1488C27.1047 14.4069 26.7664 14.5358 26.4284 14.5358C26.0903 14.5358 25.752 14.4066 25.4939 14.1485L25.1069 13.7615V17.1787H28.5241L28.1368 16.7914C27.6206 16.2752 27.6206 15.439 28.1368 14.9228C28.653 14.4066 29.4892 14.4066 30.0054 14.9228L32.6482 17.5657C33.1647 18.0821 33.1647 18.9184 32.6485 19.4346L32.6485 19.4345Z" fill="#FFB81D" fill-opacity="0.58"/>
<path d="M15.4484 3.96471L17.4308 0.000427246H7.67639L9.65853 3.96471H15.4484Z" fill="#FFB81D"/>
<path d="M22.143 35.1059L19.3866 32.9178C13.0393 27.8811 9.25014 20.0215 9.25014 11.8928C9.25014 10.8489 9.86631 9.9009 10.8199 9.47766L22.712 4.19255C23.0521 4.04094 23.4134 3.96426 23.7857 3.96426C24.158 3.96426 24.5193 4.04094 24.86 4.19255L25.1072 4.30257V1.32143C25.1072 0.59169 24.5155 0 23.7857 0H18.9085L16.4482 4.92055C16.3359 5.14442 16.1076 5.28571 15.8572 5.28571H9.25001C8.99959 5.28571 8.77129 5.14442 8.65891 4.92055L6.19863 0H1.32143C0.59169 0 0 0.59169 0 1.32143V35.6786C0 36.4083 0.59169 37 1.32143 37H23.7857C24.5155 37 25.1071 36.4083 25.1071 35.6786V35.319C24.7066 35.5506 24.2503 35.6786 23.7857 35.6786C23.1922 35.6786 22.6082 35.4753 22.1431 35.1058L22.143 35.1059ZM7.54164 27.3631L4.89879 30.0059C4.64069 30.264 4.30238 30.3929 3.96435 30.3929C3.62632 30.3929 3.288 30.2637 3.02991 30.0056L1.70848 28.6842C1.1923 28.168 1.1923 27.3318 1.70848 26.8156C2.22466 26.2995 3.06087 26.2995 3.57705 26.8156L3.96434 27.2029L5.67306 25.4942C6.18924 24.978 7.02545 24.978 7.54163 25.4942C8.05782 26.0104 8.05781 26.8469 7.54163 27.3631H7.54164ZM7.54164 19.4345L4.89879 22.0774C4.64069 22.3355 4.30238 22.4644 3.96435 22.4644C3.62632 22.4644 3.288 22.3352 3.02991 22.0771L1.70848 20.7556C1.1923 20.2395 1.1923 19.4033 1.70848 18.8871C2.22466 18.3709 3.06087 18.3709 3.57705 18.8871L3.96434 19.2744L5.67306 17.5656C6.18924 17.0495 7.02545 17.0495 7.54163 17.5656C8.05782 18.0818 8.05781 18.9183 7.54163 19.4345H7.54164ZM7.54164 11.5059L4.89879 14.1488C4.64069 14.4069 4.30238 14.5358 3.96435 14.5358C3.62632 14.5358 3.288 14.4066 3.02991 14.1485L1.70848 12.8271C1.1923 12.3109 1.1923 11.4747 1.70848 10.9585C2.22466 10.4423 3.06087 10.4423 3.57705 10.9585L3.96434 11.3458L5.67306 9.63706C6.18924 9.12088 7.02545 9.12088 7.54163 9.63706C8.05782 10.1532 8.05781 10.9898 7.54163 11.5059H7.54164Z" fill="#FFB81D"/>
</svg>
