<svg width="36" height="36" viewBox="0 0 36 36" fill="none" xmlns="http://www.w3.org/2000/svg">
<path d="M34.2999 7.74826C31.6225 3.12111 26.6314 0 20.9008 0V15.4843L34.2999 7.74826Z" fill="#FFB81D" fill-opacity="0.58"/>
<path d="M33.9128 11.5655L20.5137 19.3022L32.3735 29.248C34.6328 26.557 35.9975 23.0903 35.9975 19.3022C35.9975 16.481 35.2309 13.844 33.9128 11.5662V11.5655Z" fill="#FFB81D" fill-opacity="0.58"/>
<path d="M29.8605 30.4575C27.3183 33.4796 23.6515 35.5268 19.497 35.9242V21.7741L29.8605 30.4575Z" fill="#FFB81D" fill-opacity="0.58"/>
<path d="M9.43338 18.002C9.43338 22.7264 13.273 26.5659 17.9973 26.5659V36H14.7053L13.7154 31.9879C12.8155 31.7029 11.9605 31.343 11.1583 30.9155L7.6038 33.0601L2.94708 28.4034L5.08417 24.8415C4.6567 24.039 4.3043 23.1843 4.04182 22.2918L0 21.3171V14.6954L4.02697 13.713C4.29687 12.8283 4.65674 11.9807 5.08424 11.1559L2.94715 7.61633L7.60387 2.95218L11.136 5.09676C11.9457 4.65465 12.8081 4.29475 13.7155 4.01714L14.7053 0.00537109H17.9973V9.42375C13.2728 9.42375 9.43344 13.2631 9.43344 18.0026L9.43338 18.002Z" fill="#FFB81D"/>
</svg>
