<svg width="26" height="26" viewBox="0 0 26 26" fill="none" xmlns="http://www.w3.org/2000/svg">
<path d="M23.2583 0H2.74219C2.0153 0.0010882 1.31831 0.290363 0.804337 0.804337C0.290367 1.31831 0.00106787 2.0153 0 2.74219V20.414C0.0010882 21.1409 0.290362 21.8379 0.804337 22.3519C1.31831 22.8658 2.0153 23.1551 2.74219 23.1562H6.44927V24.4766C6.44927 24.8806 6.60978 25.268 6.89543 25.5538C7.18125 25.8395 7.56865 26 7.97272 26H18.0274C18.4315 26 18.8189 25.8395 19.1047 25.5538C19.3903 25.268 19.5508 24.8806 19.5508 24.4766V23.1562H23.2579C23.9848 23.1551 24.6818 22.8658 25.1958 22.3519C25.7097 21.8379 25.999 21.1409 26.0001 20.414V2.74219C25.999 2.0153 25.7098 1.31831 25.1958 0.804337C24.6818 0.290367 23.9848 0.00106787 23.2579 0L23.2583 0ZM19.3988 2.53911H22.6489C22.9855 2.53911 23.2583 2.81188 23.2583 3.14849C23.2583 3.4851 22.9855 3.75787 22.6489 3.75787H19.3988C19.0622 3.75787 18.7895 3.4851 18.7895 3.14849C18.7895 2.81188 19.0622 2.53911 19.3988 2.53911ZM9.64874 2.53911C9.89522 2.53911 10.1174 2.68765 10.2117 2.91526C10.306 3.14305 10.254 3.40513 10.0797 3.57943C9.90537 3.75372 9.6433 3.80577 9.41549 3.71146C9.18788 3.61716 9.03934 3.39498 9.03934 3.14851C9.03934 2.8119 9.31212 2.53913 9.64873 2.53913L9.64874 2.53911ZM6.39871 2.53911C6.64518 2.53911 6.86737 2.68765 6.96166 2.91526C7.05597 3.14305 7.00392 3.40513 6.82963 3.57943C6.65534 3.75372 6.39327 3.80577 6.16546 3.71146C5.93785 3.61716 5.78931 3.39498 5.78931 3.14851C5.78931 2.8119 6.06208 2.53913 6.39869 2.53913L6.39871 2.53911ZM3.14868 2.53911C3.39515 2.53911 3.61733 2.68765 3.71163 2.91526C3.80594 3.14305 3.75389 3.40513 3.5796 3.57943C3.4053 3.75372 3.14324 3.80577 2.91543 3.71146C2.68782 3.61716 2.53928 3.39498 2.53928 3.14851C2.53928 2.8119 2.81205 2.53913 3.14866 2.53913L3.14868 2.53911ZM10.5787 18.4736C10.7965 18.7465 10.7517 19.144 10.479 19.3619C10.2062 19.5795 9.80849 19.5347 9.59083 19.262L8.15046 17.4561C7.96583 17.2259 7.96583 16.8984 8.15046 16.6682L9.59101 14.8624C9.6953 14.7307 9.84764 14.646 10.0145 14.627C10.1814 14.6079 10.3489 14.6562 10.4802 14.7608C10.6115 14.8656 10.6957 15.0184 10.7144 15.1852C10.7329 15.3521 10.6841 15.5196 10.5789 15.6506L9.4528 17.0628L10.5787 18.4736ZM14.0319 15.3976L13.2047 19.0089C13.1403 19.2969 12.8842 19.5013 12.5891 19.5004C12.3973 19.4988 12.2163 19.4108 12.0968 19.2607C11.9771 19.1107 11.9315 18.9146 11.9729 18.7271L12.8004 15.1162C12.8833 14.7819 13.2187 14.5755 13.5544 14.6522C13.8901 14.7288 14.1026 15.0601 14.0324 15.3973L14.0319 15.3976ZM14.4224 8.6371H11.6477C11.4875 8.62513 11.3341 8.56818 11.2046 8.47315C11.0753 8.37793 10.9755 8.24826 10.9164 8.09882L10.5872 7.41436H15.4827L15.1537 8.09882C15.0946 8.24826 14.9947 8.37793 14.8654 8.47315C14.736 8.56819 14.5826 8.62513 14.4225 8.6371H14.4224ZM17.8499 17.4568L16.405 19.2626V19.2624C16.187 19.5352 15.7893 19.5795 15.5165 19.3615C15.2439 19.1435 15.1997 18.7455 15.4177 18.4729L16.547 17.0629L15.4177 15.6511C15.2031 15.3784 15.2486 14.9835 15.5196 14.7668C15.7905 14.5501 16.1857 14.5925 16.4046 14.8618L17.849 16.6675V16.6673C18.0351 16.8975 18.0354 17.2263 17.8499 17.4568L17.8499 17.4568ZM25.3914 20.4144C25.3907 20.9799 25.1658 21.522 24.7661 21.9219C24.3661 22.3217 23.8241 22.5465 23.2585 22.5473H19.5515V8.32839C19.5515 7.92432 19.391 7.53692 19.1053 7.2511C18.8195 6.96546 18.4321 6.80495 18.028 6.80495H7.97334C7.56927 6.80495 7.18187 6.96545 6.89605 7.2511C6.6104 7.53693 6.44989 7.92432 6.44989 8.32839V22.5473H2.74281C2.17731 22.5466 1.63525 22.3217 1.23531 21.9219C0.835583 21.522 0.6107 20.9799 0.609957 20.4144V6.09386H25.3915L25.3914 20.4144Z" fill="#FFB81D"/>
</svg>
