<svg width="32" height="32" viewBox="0 0 32 32" fill="none" xmlns="http://www.w3.org/2000/svg">
<path d="M0.607697 19.3331C0.606803 20.1802 0.878444 21.0051 1.38233 21.6864L1.45568 21.7864H1.45598C1.56213 21.9215 1.67603 22.0507 1.7965 22.173L1.86985 22.2397H1.87015C1.97749 22.3424 2.09109 22.4382 2.21066 22.5266L2.32427 22.6132C2.46411 22.7075 2.60903 22.7945 2.75842 22.873L2.87202 22.9331C3.01216 23.0019 3.15708 23.0596 3.30617 23.1064L3.39294 23.1397C3.56499 23.1959 3.74151 23.2385 3.92042 23.2665H4.04745C4.235 23.3022 4.42464 23.3245 4.61518 23.3331H19.9773V18.6665H0.607666L0.607697 19.3331ZM14.634 19.9998C14.9041 19.9998 15.1477 20.1623 15.2509 20.4114C15.3544 20.6605 15.2974 20.9471 15.1063 21.1379C14.9152 21.3287 14.628 21.3855 14.3784 21.2822C14.1289 21.1793 13.9661 20.9361 13.9661 20.6665C13.9661 20.2983 14.2651 19.9998 14.634 19.9998Z" fill="#FFB81D"/>
<path d="M28.6604 13.3338V9.63386C28.1729 9.87642 27.6356 10.002 27.0909 10.0005H26.7035C25.5466 10.0005 24.4615 9.44161 23.7913 8.5005C23.7006 8.63026 23.6001 8.75258 23.4907 8.86716C22.739 9.67493 21.654 10.0886 20.5539 9.98647C19.4543 9.88469 18.464 9.27903 17.8736 8.34717C17.1192 9.38076 15.9155 9.99211 14.6342 9.99211C13.3528 9.99211 12.1491 9.38081 11.3947 8.34717C10.8043 9.27897 9.81409 9.88468 8.71443 9.98647C7.61447 10.0886 6.52939 9.67487 5.77765 8.86716C5.66822 8.75258 5.56774 8.63026 5.47709 8.5005C4.80679 9.4416 3.72172 10.0005 2.56481 10.0005H2.17748C1.63271 10.002 1.09538 9.87642 0.60791 9.63386V17.3336H19.9775V16.667C19.9775 15.783 20.3294 14.9352 20.9555 14.3098C21.582 13.6848 22.4315 13.3337 23.3171 13.3337L28.6604 13.3338Z" fill="#FFB81D"/>
<path d="M18.8148 24.6665H10.4593L10.0386 27.9998H8.62251C8.25366 27.9998 7.95459 28.2983 7.95459 28.6665C7.95459 29.0346 8.25366 29.3331 8.62251 29.3331H19.9771V27.9998H19.229L18.8148 24.6665Z" fill="#FFB81D"/>
<path d="M2.17728 8.6671H2.56462C3.13235 8.66651 3.67863 8.45074 4.09281 8.06324C4.50698 7.67604 4.75835 7.14568 4.79562 6.5805V6.1939L5.23632 0.000488281H3.27936C2.85058 0.00197635 2.43373 0.140967 2.08993 0.396318C1.74613 0.651974 1.49357 1.0109 1.36923 1.42039L0.0333959 5.87362C0.0131202 6.01052 0.00178926 6.14862 0 6.28701V6.43374C0.00298182 7.01469 0.231688 7.57209 0.637508 7.98847C1.04362 8.40483 1.59557 8.64799 2.17731 8.66703L2.17728 8.6671Z" fill="#FFB81D"/>
<path d="M8.38934 8.66717C8.98271 8.66717 9.5519 8.43176 9.9715 8.01301C10.391 7.59426 10.6269 7.02612 10.6269 6.43382V0.000488281H6.57259L6.21866 5.40701L6.15843 6.28708C6.11251 6.90344 6.32809 7.51084 6.753 7.96059C7.17641 8.41267 7.76915 8.66892 8.38943 8.66713L8.38934 8.66717Z" fill="#FFB81D"/>
<path d="M14.6341 8.6671C15.3425 8.6671 16.0221 8.38615 16.5233 7.88615C17.0243 7.38586 17.3057 6.70757 17.3057 6.00045V0.000488281H11.9624V6.00045C11.9624 6.70759 12.2439 7.38589 12.7448 7.88615C13.2461 8.38615 13.9256 8.6671 14.6341 8.6671Z" fill="#FFB81D"/>
<path d="M20.8791 8.66706C21.4993 8.66884 22.0921 8.4126 22.5155 7.96052C22.9404 7.51082 23.156 6.90338 23.1101 6.287L22.9497 3.84717L22.6959 0.000488281H18.6416V6.43382C18.6416 7.02608 18.8775 7.59419 19.297 8.01301C19.7165 8.43176 20.2857 8.66717 20.8792 8.66717L20.8791 8.66706Z" fill="#FFB81D"/>
<path d="M24.4729 6.58011C24.5102 7.14528 24.7615 7.67564 25.1757 8.06284C25.5899 8.45033 26.1361 8.66611 26.7039 8.66671H27.0912C27.5185 8.66641 27.9365 8.54111 28.2935 8.30659C28.9372 7.90034 29.3279 7.19353 29.3287 6.43338V6.28665C29.3379 6.14915 29.3379 6.01106 29.3287 5.87326L27.9261 1.42003C27.8005 1.00604 27.5438 0.644111 27.1946 0.388189C26.8455 0.131939 26.4224 -0.00406731 25.9891 9.26626e-05H23.9854L24.3995 6.1935L24.4729 6.58011Z" fill="#FFB81D"/>
<path d="M29.9961 14.667H28.9409L28.4668 15.1402H28.4665C28.3406 15.2652 28.1698 15.3345 27.9924 15.3337H25.3207C25.1433 15.3345 24.9724 15.2652 24.8466 15.1402L24.3722 14.667H23.3169C22.7856 14.667 22.2757 14.8777 21.9 15.2527C21.5244 15.6277 21.3132 16.1367 21.3132 16.6669V30.0002C21.3132 30.5305 21.5243 31.0395 21.9 31.4144C22.2758 31.7894 22.7857 32.0001 23.3169 32.0001H29.9961C30.5275 32.0001 31.0374 31.7894 31.413 31.4144C31.7887 31.0394 31.9999 30.5305 31.9999 30.0002V16.6669C31.9999 16.1366 31.7887 15.6276 31.413 15.2527C31.0373 14.8778 30.5274 14.667 29.9961 14.667H29.9961ZM26.6565 30.6669C26.3863 30.6669 26.1427 30.5044 26.0396 30.2553C25.9361 30.0062 25.9931 29.7196 26.1842 29.5288C26.3753 29.338 26.6625 29.2812 26.912 29.3845C27.1616 29.4874 27.3244 29.7306 27.3244 30.0002C27.3244 30.177 27.254 30.3467 27.1288 30.4717C27.0036 30.5967 26.8336 30.6669 26.6565 30.6669ZM29.9961 25.3336C29.9961 25.8639 29.785 26.3729 29.4093 26.7478C29.0336 27.1228 28.5237 27.3335 27.9924 27.3335H25.3207C24.7893 27.3335 24.2794 27.1228 23.9038 26.7478C23.5282 26.3728 23.317 25.8639 23.317 25.3336V22.0003C23.317 21.6321 23.6161 21.3336 23.9849 21.3336H24.7396C24.7396 20.65 25.1052 20.0184 25.6983 19.6765C26.2913 19.3348 27.0219 19.3348 27.6149 19.6765C28.208 20.0184 28.5736 20.65 28.5736 21.3336H29.3283C29.5054 21.3336 29.6754 21.4039 29.8006 21.5289C29.9258 21.6539 29.9962 21.8235 29.9962 22.0003L29.9961 25.3336Z" fill="#FFB81D" fill-opacity="0.45"/>
<path d="M27.4117 21.3338C27.4117 20.9178 27.0739 20.5806 26.657 20.5806C26.2402 20.5806 25.9023 20.9178 25.9023 21.3338V21.4204H27.4117L27.4117 21.3338Z" fill="#FFB81D" fill-opacity="0.45"/>
<path d="M24.6528 25.3332C24.6528 25.5099 24.7232 25.6796 24.8484 25.8046C24.9737 25.9296 25.1436 25.9998 25.3208 25.9998H27.9924C28.1695 25.9998 28.3395 25.9296 28.4647 25.8046C28.59 25.6796 28.6603 25.5099 28.6603 25.3332V22.6665H24.6528V25.3332Z" fill="#FFB81D" fill-opacity="0.45"/>
</svg>
