<svg width="49" height="48" viewBox="0 0 49 48" fill="none" xmlns="http://www.w3.org/2000/svg">
<path d="M39.1358 19.3593C40.0064 8.84222 34.7448 0.84375 22.6428 0.84375C4.65101 0.84375 0.473226 23.4857 13.0283 32.467C13.4788 39.6553 10.4746 44.7442 10.1382 47.1562L30.6474 47.1164C30.6474 42.8603 27.2217 39.6996 30.0247 38.4728C31.7137 37.7334 37.2202 40.5903 38.5749 38.9042C39.5629 34.6745 40.5055 35.3915 40.5055 33.8584C38.3918 32.2482 38.5127 32.0324 40.639 31.3457L40.6584 28.0439L43.1745 27.5692C42.4707 23.4115 39.1358 22.3135 39.1358 19.3593ZM25.0732 8.60466H26.0441L27.3445 6.65944C27.2232 6.43453 27.1543 6.17719 27.1543 5.90372C27.1543 5.02303 27.8682 4.30913 28.7489 4.30913C29.6296 4.30913 30.3435 5.02303 30.3435 5.90372C30.3435 6.78431 29.6296 7.49831 28.7489 7.49831C28.6944 7.49831 28.6406 7.49559 28.5876 7.49025L27.0977 9.71887C26.9696 9.94903 26.724 10.1047 26.4419 10.1047H25.0732V8.60466ZM23.5732 8.60466V10.1047V11.2823C20.1541 11.2824 17.3825 14.0541 17.3825 17.4731C17.3825 20.8922 20.1542 23.6639 23.5732 23.6639V29.3786H21.5864V27.3849C20.2708 27.1226 19.0476 26.605 17.97 25.8861L16.5595 27.2964L13.7499 24.4867L15.1603 23.0764C14.4412 21.9989 13.9238 20.7755 13.6614 19.46H11.6678V15.4866H13.6614C13.9237 14.171 14.4413 12.9476 15.1603 11.8701L13.7499 10.4596L16.5596 7.65L17.9699 9.06028C19.0474 8.34112 20.2709 7.82372 21.5864 7.56131V5.56791H23.5732V8.60466ZM28.749 30.6374C27.8683 30.6374 27.1544 29.9235 27.1544 29.0428C27.1544 28.7693 27.2233 28.512 27.3446 28.287L26.0442 26.3418H25.0733V24.8418H26.442C26.724 24.8418 26.9697 24.9975 27.0978 25.2277L28.5877 27.4563C28.6407 27.4509 28.6945 27.4482 28.749 27.4482C29.6297 27.4482 30.3436 28.1621 30.3436 29.0428C30.3435 29.9235 29.6296 30.6374 28.749 30.6374ZM31.7501 25.8628C30.8694 25.8628 30.1555 25.1489 30.1555 24.2682C30.1555 24.2611 30.1557 24.254 30.1558 24.2469L27.2191 22.6382H25.0733V21.1382H27.4054C27.559 21.1382 27.7018 21.1844 27.8208 21.2637L30.8737 22.9361C31.1252 22.7703 31.4263 22.6737 31.7501 22.6737C32.6308 22.6737 33.3447 23.3876 33.3447 24.2683C33.3446 25.1488 32.6307 25.8628 31.7501 25.8628ZM31.7501 19.0678C31.1407 19.0678 30.6111 18.7258 30.3427 18.2232H25.0732V16.7232H30.3427C30.6111 16.2207 31.1406 15.8786 31.7501 15.8786C32.6308 15.8786 33.3447 16.5925 33.3447 17.4732C33.3446 18.3539 32.6307 19.0678 31.7501 19.0678ZM31.7501 12.2729C31.4263 12.2729 31.1251 12.1763 30.8737 12.0105L27.8208 13.6829C27.7019 13.7622 27.559 13.8084 27.4054 13.8084H25.0733V12.3084H27.2191L30.1558 10.6997C30.1557 10.6926 30.1555 10.6855 30.1555 10.6784C30.1555 9.79772 30.8694 9.08381 31.7501 9.08381C32.6308 9.08381 33.3447 9.79772 33.3447 10.6784C33.3446 11.559 32.6307 12.2729 31.7501 12.2729Z" fill="#FFAD00"/>
</svg>
