<svg width="17" height="17" viewBox="0 0 17 17" fill="none" xmlns="http://www.w3.org/2000/svg">
<path d="M8.98828 0.500137C6.86655 0.500137 4.83176 1.34295 3.3314 2.84324C1.8311 4.34352 0.988281 6.37846 0.988281 8.50007C0.988281 10.6217 1.8311 12.6565 3.3314 14.1569C4.8317 15.6572 6.86665 16.5 8.98828 16.5C11.1099 16.5 13.1448 15.6572 14.6452 14.1569C16.1455 12.6566 16.9883 10.6217 16.9883 8.50007C16.9883 7.09582 16.6186 5.71622 15.9166 4.49993C15.2144 3.28384 14.2044 2.27388 12.9883 1.57171C11.7721 0.869636 10.3925 0.5 8.98814 0.5L8.98828 0.500137ZM13.5291 7.08989L8.72908 11.4898C8.57707 11.6292 8.37709 11.7045 8.171 11.7001C7.96488 11.6955 7.76841 11.6117 7.62269 11.4658L5.22266 9.06581C5.06824 8.91675 4.98025 8.71198 4.97837 8.49742C4.9765 8.28273 5.06101 8.07649 5.21262 7.92474C5.36436 7.773 5.57073 7.68863 5.7853 7.69037C5.99985 7.69224 6.20476 7.78024 6.35383 7.93466L8.21225 9.79306L12.4476 5.91052C12.6583 5.71739 12.9559 5.65123 13.2286 5.73708C13.5012 5.82279 13.7074 6.04753 13.7694 6.32663C13.8314 6.6056 13.7398 6.89649 13.5292 7.08976L13.5291 7.08989Z" fill="#FFAD00"/>
</svg>
