<svg width="29" height="29" viewBox="0 0 29 29" fill="none" xmlns="http://www.w3.org/2000/svg">
<path opacity="0.58" d="M17.4014 12.5425H11.6053C10.805 12.5425 10.1562 13.1912 10.1562 13.9915V19.7876C10.1562 20.5879 10.805 21.2366 11.6053 21.2366H17.4014C18.2016 21.2366 18.8504 20.5879 18.8504 19.7876V13.9915C18.8504 13.1912 18.2016 12.5425 17.4014 12.5425Z" fill="#FFAD00"/>
<path opacity="0.58" d="M22.2291 25.1008C21.3394 25.1008 20.5983 25.7048 20.3737 26.523C18.86 26.3404 17.6542 25.1548 17.4376 23.6518H18.365C19.9638 23.6518 21.2631 22.3525 21.2631 20.7537V15.9236H23.2637C23.8421 18.0866 27.0291 17.6997 27.0592 15.4406C27.0287 13.1814 23.8419 12.7948 23.2637 14.9576H21.2631V13.0256C21.2631 11.4268 19.9638 10.1275 18.365 10.1275H14.984V8.61027C17.1469 8.03496 16.7612 4.84187 14.5009 4.81445C12.2405 4.84211 11.8553 8.03531 14.018 8.61027V10.1275H10.6369C9.03816 10.1275 7.73887 11.4268 7.73887 13.0256V15.4406H6.22124C5.64272 13.2776 2.45606 13.6647 2.42578 15.9237C2.45615 18.183 5.64331 18.5694 6.22127 16.4066H7.73887V20.7537C7.73887 22.3525 9.03816 23.6518 10.6369 23.6518H11.5643C11.3478 25.1548 10.142 26.3404 8.6283 26.523C8.02825 24.3836 4.86659 24.789 4.84082 27.0329C4.8698 29.3064 8.08833 29.6757 8.64327 27.4945C10.6836 27.2972 12.3146 25.6839 12.5405 23.6518H14.018V25.1694C11.8549 25.7477 12.242 28.9348 14.501 28.9649C16.7602 28.9346 17.1468 25.7473 14.984 25.1694V23.6518H16.4615C16.6874 25.6839 18.3183 27.2972 20.3587 27.4945C20.9143 29.6762 24.1324 29.306 24.1611 27.0328C24.1611 25.9654 23.2966 25.1008 22.2291 25.1008ZM25.1272 14.4746C26.401 14.5079 26.4007 16.3734 25.1271 16.4066C23.8533 16.3732 23.8536 14.5077 25.1272 14.4746ZM4.35781 16.8897C3.08402 16.8562 3.08429 14.9908 4.35784 14.9576C5.63161 14.9911 5.63137 16.8564 4.35781 16.8897ZM15.467 27.0328C15.4336 28.3066 13.5682 28.3064 13.535 27.0328C13.5684 25.759 15.4338 25.7593 15.467 27.0328ZM10.6369 22.6858C9.56949 22.6858 8.70489 21.8211 8.70489 20.7537V13.0256C8.70489 11.9581 9.56949 11.0936 10.6369 11.0936H18.365C19.4325 11.0936 20.2971 11.9581 20.2971 13.0256V20.7537C20.2971 21.8211 19.4325 22.6858 18.365 22.6858H10.6369Z" fill="#FFAD00"/>
<path d="M26.0487 7.48055C26.8731 4.74859 24.1613 2.08214 21.4264 2.90164C20.7028 -0.425935 16.1453 -1.06195 14.5 1.88601C12.8528 -1.06522 8.29413 -0.421014 7.57233 2.90026C4.83731 2.08385 2.1292 4.74809 2.94932 7.48152C0.267955 8.00583 -0.940715 11.4264 0.887103 13.5026C-1.73722 17.1161 1.89428 22.0006 6.12684 20.631C6.33324 21.0352 6.59537 21.3983 6.89858 21.7178C6.73057 21.1784 6.77633 20.3221 6.77187 19.7523C6.65377 19.5563 6.39482 19.4834 6.18816 19.5768C5.71411 19.7834 5.21177 19.8881 4.69503 19.8881C2.64414 19.8881 0.975774 18.2358 0.975774 16.2051C0.975774 15.3207 1.3003 14.4642 1.88991 13.7927C2.06231 13.5965 2.04721 13.2986 1.85594 13.1205C1.28851 12.592 0.975774 11.8793 0.975774 11.1135C0.975774 9.6362 2.14485 8.4282 3.63751 8.36311C3.97432 8.3586 4.20648 7.96874 4.05141 7.67043C3.14739 5.89468 4.56517 3.6857 6.56273 3.72763C6.97847 3.7276 7.38246 3.81934 7.76335 4.00047C8.06125 4.15439 8.44848 3.91976 8.4532 3.58536C8.74933 -0.0916258 14.1067 0.197517 14.017 3.89198C17.1096 3.39294 18.6691 7.44261 16.0985 9.16144H18.3641C20.4947 9.16144 22.2281 10.8949 22.2281 13.0255V13.9915H22.6202C24.0684 11.4614 28.0209 12.485 28.0242 15.4406C28.0207 18.3962 24.0678 19.4197 22.6202 16.8896H22.2281C22.1891 17.6292 22.3386 21.0694 22.1007 21.7205C22.4048 21.4008 22.668 21.0375 22.8754 20.6329C27.1079 21.9993 30.7384 17.1131 28.1112 13.5037C29.9413 11.4257 28.7339 8.0038 26.0487 7.48055Z" fill="#FFAD00"/>
</svg>
