<svg width="30" height="30" viewBox="0 0 30 30" fill="none" xmlns="http://www.w3.org/2000/svg">
<path opacity="0.58" d="M15.1431 0.106982C15.0996 -0.0356606 14.9001 -0.0356606 14.8566 0.106982L14.1472 2.42997C14.1279 2.49358 14.0697 2.53696 14.004 2.53696H11.6933C11.5498 2.53696 11.4882 2.72125 11.6022 2.80941L13.4844 4.26457C13.5343 4.30319 13.5552 4.36925 13.5366 4.43003L12.8208 6.77441C12.7776 6.91563 12.9391 7.02959 13.0551 6.93986L14.9088 5.50671C14.9625 5.46514 15.0372 5.46514 15.0909 5.50671L16.9446 6.93986C17.0606 7.02959 17.2221 6.91563 17.1789 6.77441L16.4631 4.43003C16.4445 4.36925 16.4654 4.30319 16.5153 4.26457L18.3975 2.80941C18.5115 2.72125 18.4499 2.53696 18.3065 2.53696H15.9957C15.93 2.53696 15.8718 2.49358 15.8525 2.42997L15.1431 0.106982Z" fill="#FFAD00"/>
<path fill-rule="evenodd" clip-rule="evenodd" d="M8.25392 8.74609C7.42549 8.74609 6.75391 9.42578 6.75391 10.2642V29.9997H23.254V10.2642C23.254 9.42578 22.5825 8.74609 21.754 8.74609H8.25392ZM12.0039 13.3004C11.5897 13.3004 11.2539 13.6403 11.2539 14.0595V15.5776C11.2539 15.9968 11.5897 16.3367 12.0039 16.3367H13.504C13.9181 16.3367 14.254 15.9968 14.254 15.5776V14.0595C14.254 13.6403 13.9181 13.3004 13.504 13.3004H12.0039ZM11.2539 18.6139C11.2539 18.1947 11.5897 17.8548 12.0039 17.8548H13.504C13.9181 17.8548 14.254 18.1947 14.254 18.6139V20.132C14.254 20.5511 13.9181 20.891 13.504 20.891H12.0039C11.5897 20.891 11.2539 20.5511 11.2539 20.132V18.6139ZM12.0039 22.4091C11.5897 22.4091 11.2539 22.749 11.2539 23.1682V24.6863C11.2539 25.1055 11.5897 25.4454 12.0039 25.4454H13.504C13.9181 25.4454 14.254 25.1055 14.254 24.6863V23.1682C14.254 22.749 13.9181 22.4091 13.504 22.4091H12.0039ZM15.754 14.0595C15.754 13.6403 16.0898 13.3004 16.504 13.3004H18.004C18.4181 13.3004 18.754 13.6403 18.754 14.0595V15.5776C18.754 15.9968 18.4181 16.3367 18.004 16.3367H16.504C16.0898 16.3367 15.754 15.9968 15.754 15.5776V14.0595ZM16.504 17.8548C16.0898 17.8548 15.754 18.1947 15.754 18.6139V20.132C15.754 20.5511 16.0898 20.891 16.504 20.891H18.004C18.4181 20.891 18.754 20.5511 18.754 20.132V18.6139C18.754 18.1947 18.4181 17.8548 18.004 17.8548H16.504ZM15.754 23.1682C15.754 22.749 16.0898 22.4091 16.504 22.4091H18.004C18.4181 22.4091 18.754 22.749 18.754 23.1682V24.6863C18.754 25.1055 18.4181 25.4454 18.004 25.4454H16.504C16.0898 25.4454 15.754 25.1055 15.754 24.6863V23.1682Z" fill="#FFAD00"/>
<path opacity="0.58" d="M3.00002 13.3008H5.25004V30.0001H0.750005C0.335792 30.0001 0 29.6602 0 29.241C0 28.8219 0.335792 28.4819 0.750005 28.4819H1.50001V14.8189C1.50001 13.9804 2.1716 13.3008 3.00002 13.3008Z" fill="#FFAD00"/>
<path opacity="0.58" d="M24.75 13.3008V30.0001H29.25C29.6642 30.0001 30 29.6602 30 29.241C30 28.8219 29.6642 28.4819 29.25 28.4819H28.5V14.8189C28.5 13.9804 27.8285 13.3008 27 13.3008H24.75Z" fill="#FFAD00"/>
</svg>
