<svg width="31" height="31" viewBox="0 0 31 31" fill="none" xmlns="http://www.w3.org/2000/svg">
<path d="M24.3594 8.34249L27.1878 6.45689C27.4959 6.25147 27.6808 5.90548 27.6808 5.53571L27.6804 4.12043C28.339 3.7362 28.7874 3.02991 28.7874 2.21429C28.7874 0.993618 27.7943 0 26.5731 0C25.3519 0 24.3588 0.993618 24.3588 2.21429C24.3588 3.03011 24.8074 3.73654 25.4662 4.1207L25.4665 4.94322L22.6381 6.82882C22.33 7.03425 22.1451 7.37915 22.1451 7.75L22.1445 9.96429H24.3588L24.3594 8.34249Z" fill="#FFAD00"/>
<path d="M3.32199 4.12057V5.53571C3.32199 5.90548 3.50687 6.25147 3.81501 6.45689L6.64341 8.34249V9.96429H8.8577V7.75C8.8577 7.38023 8.67282 7.03425 8.36468 6.82882L5.53627 4.94322V4.12057C6.19492 3.73634 6.64341 3.02998 6.64341 2.21429C6.64341 0.993618 5.65034 0 4.42913 0C3.20792 0 2.21484 0.993618 2.21484 2.21429C2.21484 3.02998 2.66334 3.73634 3.32199 4.12057Z" fill="#FFAD00"/>
<path d="M29.8929 26.5713H1.10714C0.495728 26.5713 0 27.0669 0 27.6784C0 29.5128 1.48705 30.9999 3.32143 30.9999H27.6786C29.513 30.9999 31 29.5128 31 27.6784C31 27.0669 30.5043 26.5713 29.8929 26.5713Z" fill="#FFAD00"/>
<path opacity="0.58" d="M28.7863 13.2856C28.7863 12.0626 27.7949 11.0713 26.572 11.0713H22.1434V13.2856C22.1434 14.5062 21.1503 15.4999 19.9291 15.4999H11.072C9.85078 15.4999 8.8577 14.5062 8.8577 13.2856V11.0713H4.42913C3.20623 11.0713 2.21484 12.0626 2.21484 13.2856V25.4641H28.7863V13.2856ZM14.2312 22.3049C14.4475 22.5211 14.4475 22.8714 14.2312 23.0877C14.1231 23.1958 13.9815 23.2499 13.8398 23.2499C13.6982 23.2499 13.5566 23.1958 13.4485 23.0877L11.2342 20.8734C11.0179 20.6572 11.0179 20.3068 11.2342 20.0906L13.4485 17.8763C13.6647 17.6601 14.015 17.6601 14.2312 17.8763C14.4475 18.0926 14.4475 18.4429 14.2312 18.6591L12.4083 20.482L14.2312 22.3049ZM19.7669 20.8734L17.5527 23.0877C17.4445 23.1958 17.3029 23.2499 17.1613 23.2499C17.0196 23.2499 16.878 23.1958 16.7699 23.0877C16.5536 22.8714 16.5536 22.5211 16.7699 22.3049L18.5928 20.482L16.7699 18.6591C16.5536 18.4429 16.5536 18.0926 16.7699 17.8763C16.9861 17.6601 17.3364 17.6601 17.5527 17.8763L19.7669 20.0906C19.9832 20.3068 19.9832 20.6572 19.7669 20.8734Z" fill="#FFAD00"/>
<path d="M17.7148 0V3.32143H21.0363L17.7148 0Z" fill="#FFAD00"/>
<path d="M11.072 14.3929H19.9291C20.5406 14.3929 21.0363 13.8971 21.0363 13.2857V4.42857H17.7148C17.1034 4.42857 16.6077 3.93291 16.6077 3.32143V0H11.072C10.4605 0 9.96484 0.49566 9.96484 1.10714V13.2857C9.96484 13.8971 10.4605 14.3929 11.072 14.3929ZM12.7327 5.53571H18.2684C18.5744 5.53571 18.822 5.78331 18.822 6.08929C18.822 6.39526 18.5744 6.64286 18.2684 6.64286H12.7327C12.4267 6.64286 12.1791 6.39526 12.1791 6.08929C12.1791 5.78331 12.4267 5.53571 12.7327 5.53571ZM12.7327 7.75H18.2684C18.5744 7.75 18.822 7.99759 18.822 8.30357C18.822 8.60955 18.5744 8.85714 18.2684 8.85714H12.7327C12.4267 8.85714 12.1791 8.60955 12.1791 8.30357C12.1791 7.99759 12.4267 7.75 12.7327 7.75ZM12.7327 9.96428H18.2684C18.5744 9.96428 18.822 10.2119 18.822 10.5179C18.822 10.8238 18.5744 11.0714 18.2684 11.0714H12.7327C12.4267 11.0714 12.1791 10.8238 12.1791 10.5179C12.1791 10.2119 12.4267 9.96428 12.7327 9.96428Z" fill="#FFAD00"/>
</svg>
