<svg width="30" height="30" viewBox="0 0 30 30" fill="none" xmlns="http://www.w3.org/2000/svg">
<path fill-rule="evenodd" clip-rule="evenodd" d="M14.4712 14.3865C18.3698 14.3865 21.5302 11.1659 21.5302 7.19324C21.5302 3.22067 18.3697 0 14.4712 0C10.5726 0 7.41211 3.22056 7.41211 7.19324C7.41211 11.166 10.5726 14.3865 14.4712 14.3865ZM14.4712 10.8776C16.3388 10.8776 18.0007 9.31014 18.0007 7.19313C18.0007 5.07634 16.3387 3.50885 14.4712 3.50885C12.6035 3.50885 10.9416 5.07634 10.9416 7.19313C10.9416 9.31014 12.6036 10.8776 14.4712 10.8776Z" fill="#FFB81D"/>
<path d="M3.53128 29.0943C3.53191 29.3883 3.53254 29.6904 3.53254 30.0004H0.00302042C0.00302042 29.713 0.00238633 29.4255 0.00154088 29.1389C-0.00289778 27.5017 -0.00733619 25.8905 0.135547 24.4435C0.305481 22.7239 0.697793 21.0179 1.69226 19.5467C3.75305 16.4977 7.78925 15.2632 14.4685 15.2632C20.4772 15.2632 24.9034 17.0921 26.0597 18.7723C24.4362 18.7723 22.5836 19.9035 22.06 20.1884C20.7141 18.965 17.774 18.7723 14.4686 18.7723C7.9176 18.7723 5.6039 20.0506 4.62183 21.5037C4.0949 22.2834 3.79266 23.3258 3.6483 24.7866C3.52423 26.0423 3.5274 27.4459 3.53141 29.0943H3.53128Z" fill="#FFB81D"/>
<path fill-rule="evenodd" clip-rule="evenodd" d="M13.1804 23.6958C12.9132 24.0348 12.7278 24.5535 12.7278 25.1479C12.7278 25.7422 12.9132 26.2609 13.1804 26.6001C13.427 26.9132 13.7405 27.0823 14.1508 27.0823C14.1508 27.0823 14.1584 27.0823 14.1746 27.0804C14.1909 27.0787 14.2137 27.0755 14.2435 27.0698C14.3042 27.0584 14.3837 27.0383 14.4832 27.0064C14.6851 26.9419 14.9309 26.8407 15.2152 26.7024C15.7845 26.4258 16.4229 26.0434 17.0375 25.6408C17.3349 25.4461 17.6207 25.2506 17.8828 25.0663C17.4011 24.6791 16.9232 24.3295 16.4508 24.0384C15.5394 23.4766 14.7774 23.2137 14.1507 23.2137C13.7405 23.2137 13.427 23.3828 13.1804 23.6958ZM22.4644 25.1479C22.6895 25.3129 22.9313 25.4856 23.1822 25.6579C23.7664 26.0586 24.3732 26.4378 24.9169 26.7111C25.188 26.8474 25.4222 26.9466 25.6139 27.0093C25.7086 27.0404 25.7839 27.0594 25.8409 27.0706C25.8688 27.0759 25.8902 27.0789 25.9054 27.0806C25.9206 27.0823 25.9276 27.0823 25.9276 27.0823C26.2447 27.0823 26.5025 26.9445 26.7382 26.5959C26.9975 26.2125 27.1524 25.6596 27.1524 25.1479C27.1524 24.6361 26.9975 24.0832 26.7382 23.7C26.5025 23.3513 26.2446 23.2137 25.9276 23.2137C25.9276 23.2137 25.9206 23.2137 25.9054 23.2151C25.8902 23.2168 25.8688 23.2198 25.8409 23.2253C25.7839 23.2363 25.7086 23.2555 25.6139 23.2864C25.4222 23.3494 25.188 23.4483 24.9169 23.5846C24.3732 23.8581 23.7664 24.2371 23.1822 24.6378C22.9313 24.8101 22.6895 24.9828 22.4644 25.1479ZM20.1322 26.9428C19.7154 27.248 19.1827 27.6252 18.6038 28.0044C17.9397 28.4392 17.1883 28.894 16.465 29.2454C15.7986 29.5692 14.9468 29.9126 14.1508 29.9126C11.2797 29.9126 9.88086 27.3215 9.88086 25.1479C9.88086 22.9744 11.2797 20.3833 14.1508 20.3833C15.5369 20.3833 16.8347 20.9449 17.9509 21.6329C18.7329 22.1148 19.49 22.6996 20.2002 23.3007C20.5817 23.0086 21.0536 22.6593 21.5652 22.3084C22.2016 21.8719 22.9266 21.4137 23.6321 21.059C24.2835 20.7314 25.1241 20.3833 25.9275 20.3833C27.3912 20.3833 28.4575 21.1698 29.1007 22.1207C29.7204 23.0367 29.999 24.1584 29.999 25.1478C29.999 26.1372 29.7205 27.2591 29.1007 28.1751C28.4575 29.1258 27.3912 29.9125 25.9275 29.9125C25.1241 29.9125 24.2835 29.5642 23.6321 29.2368C22.9266 28.8821 22.2016 28.4239 21.5652 27.9872C21.0229 27.6152 20.5251 27.2451 20.1322 26.9427V26.9428Z" fill="#FFB81D" fill-opacity="0.5"/>
</svg>
