<svg width="30" height="30" viewBox="0 0 30 30" fill="none" xmlns="http://www.w3.org/2000/svg">
<path d="M24.6424 16.071C24.6424 14.3345 24.1198 12.7194 23.2286 11.3678L24.1765 11.1308C24.566 11.5333 25.1096 11.7854 25.7139 11.7854C26.8973 11.7854 27.8567 10.826 27.8567 9.64263C27.8567 9.14413 27.6794 8.69135 27.394 8.32737L28.1661 6.39722C29.2016 6.24617 29.9995 5.36303 29.9995 4.28561C29.9995 3.10212 29.0401 2.14281 27.8567 2.14281C27.3128 2.14281 26.8219 2.35193 26.444 2.68577L23.5278 1.7137C23.329 0.735936 22.4647 0 21.4282 0C20.2448 0 19.2854 0.959319 19.2854 2.14281C19.2854 3.32623 20.2448 4.28561 21.4282 4.28561C21.972 4.28561 22.4629 4.07655 22.8407 3.74272L25.7571 4.71505C25.8246 5.04659 25.9754 5.34446 26.1767 5.60106L25.4049 7.53095C24.5678 7.65291 23.8942 8.25426 23.6641 9.05121L21.6303 9.55971C20.1321 8.27865 18.1923 7.49982 16.0712 7.49982C11.3451 7.49982 7.5 11.3449 7.5 16.071C7.5 20.7971 11.3451 24.6423 16.0712 24.6423C20.7973 24.6423 24.6424 20.7971 24.6424 16.071ZM16.0712 22.4995C12.5264 22.4995 9.64281 19.6159 9.64281 16.071C9.64281 12.5262 12.5264 9.64263 16.0712 9.64263C19.6161 9.64263 22.4996 12.5262 22.4996 16.071C22.4996 19.6159 19.6161 22.4995 16.0712 22.4995Z" fill="#FFAD00"/>
<path d="M26.4702 22.8138C26.1304 22.474 25.6259 22.4247 25.2217 22.6368L24.0552 21.4702C23.3651 22.4875 22.4861 23.3666 21.4688 24.0566L22.6353 25.2232C22.4232 25.6273 22.4725 26.1318 22.8124 26.4717L25.583 29.2423C26.0716 29.7309 26.7208 29.9998 27.4119 29.9998C28.103 29.9998 28.7522 29.7309 29.2408 29.2423C29.7294 28.7536 29.9983 28.1044 29.9983 27.4133C29.9983 26.7223 29.7294 26.073 29.2408 25.5844L26.4702 22.8138Z" fill="#FFAD00"/>
<path opacity="0.58" d="M11.7852 0V4.28561H16.0708L11.7852 0Z" fill="#FFAD00"/>
<path d="M16.0719 10.7144C13.1133 10.7144 10.7148 13.1128 10.7148 16.0714C10.7148 19.03 13.1133 21.4284 16.0719 21.4284C19.0304 21.4284 21.4289 19.03 21.4289 16.0714C21.4289 13.1128 19.0304 10.7144 16.0719 10.7144ZM16.0719 20.357C15.4802 20.357 15.0005 19.8773 15.0005 19.2856C15.0005 18.6938 15.4802 18.2142 16.0719 18.2142C16.6636 18.2142 17.1433 18.6938 17.1433 19.2856C17.1433 19.8773 16.6636 20.357 16.0719 20.357ZM16.8901 15.9092C16.7211 15.9793 16.6076 16.1676 16.6076 16.3785V17.1428C16.6076 17.4389 16.368 17.6785 16.0719 17.6785C15.7758 17.6785 15.5362 17.4389 15.5362 17.1428V16.3785C15.5362 15.7292 15.9071 15.1564 16.481 14.9194C16.8833 14.753 17.1433 14.3638 17.1433 13.9286C17.1433 13.3379 16.6625 12.8572 16.0719 12.8572C15.4812 12.8572 15.0005 13.3379 15.0005 13.9286C15.0005 14.2247 14.7609 14.4643 14.4648 14.4643C14.1687 14.4643 13.9291 14.2247 13.9291 13.9286C13.9291 12.7468 14.8901 11.7858 16.0719 11.7858C17.2536 11.7858 18.2147 12.7468 18.2147 13.9286C18.2147 14.7991 17.6947 15.5765 16.8901 15.9092Z" fill="#FFAD00"/>
<path opacity="0.58" d="M2.67851 19.2853C2.38241 19.2853 2.14281 19.0457 2.14281 18.7496C2.14281 18.4535 2.38241 18.2139 2.67851 18.2139H6.6962C6.53749 17.5216 6.42842 16.8108 6.42842 16.071H2.67851C2.38241 16.071 2.14281 15.8314 2.14281 15.5353C2.14281 15.2392 2.38241 14.9996 2.67851 14.9996H6.49427C6.57771 14.2558 6.74911 13.5395 6.99341 12.8568H2.67851C2.38241 12.8568 2.14281 12.6172 2.14281 12.3211C2.14281 12.025 2.38241 11.7854 2.67851 11.7854H7.44221C7.83123 11.0099 8.32162 10.2934 8.89525 9.65276L8.90538 9.64263H2.67851C2.38241 9.64263 2.14281 9.40303 2.14281 9.10693C2.14281 8.81082 2.38241 8.57122 2.67851 8.57122H10.0481C11.7006 7.23949 13.7885 6.42842 16.071 6.42842V5.35701H11.7854C11.1937 5.35701 10.714 4.87729 10.714 4.28561V0H1.0714C0.479659 0 0 0.479659 0 1.0714V20.3567C0 20.9483 0.479659 21.4281 1.0714 21.4281H8.059C7.61714 20.7694 7.27284 20.0445 7.00231 19.2853H2.67851Z" fill="#FFAD00"/>
</svg>
