<svg width="33" height="32" viewBox="0 0 33 32" fill="none" xmlns="http://www.w3.org/2000/svg">
<path opacity="0.58" d="M17.1406 32.0003H27.4263V22.8574H17.1406V32.0003ZM18.2835 24.5717C18.2835 24.4202 18.3437 24.2748 18.4508 24.1676C18.558 24.0605 18.7034 24.0003 18.8549 24.0003H23.4263C23.5779 24.0003 23.7232 24.0605 23.8304 24.1676C23.9376 24.2748 23.9978 24.4202 23.9978 24.5717V25.7146H25.7121C25.8636 25.7146 26.009 25.7748 26.1161 25.8819C26.2233 25.9891 26.2835 26.1344 26.2835 26.286V30.286C26.2835 30.4375 26.2233 30.5829 26.1161 30.6901C26.009 30.7972 25.8636 30.8574 25.7121 30.8574H21.1406C20.9891 30.8574 20.8437 30.7972 20.7366 30.6901C20.6294 30.5829 20.5692 30.4375 20.5692 30.286V29.1431H18.8549C18.7034 29.1431 18.558 29.0829 18.4508 28.9758C18.3437 28.8686 18.2835 28.7233 18.2835 28.5717V24.5717Z" fill="#FFAD00"/>
<path opacity="0.58" d="M21.3817 18.2856L17.9531 21.7142H27.7657L31.1943 18.2856H21.3817Z" fill="#FFAD00"/>
<path opacity="0.58" d="M22.8577 26.8574H21.7148V28.0003H22.8577V26.8574Z" fill="#FFAD00"/>
<path d="M9.71429 10.2858C16 10.2858 19.4286 8.7755 19.4286 8.00007V3.89893C17.5509 5.09378 13.6206 5.71435 9.71429 5.71435C5.808 5.71435 1.87771 5.09378 0 3.89893V8.00007C0 8.7755 3.42857 10.2858 9.71429 10.2858ZM9.14286 7.42864H10.2857V8.5715H9.14286V7.42864Z" fill="#FFAD00"/>
<path opacity="0.58" d="M21.7148 29.7146H25.1434V26.8574H24.0006V28.5717C24.0006 28.7233 23.9404 28.8686 23.8332 28.9758C23.726 29.0829 23.5807 29.1431 23.4291 29.1431H21.7148V29.7146Z" fill="#FFAD00"/>
<path opacity="0.58" d="M20.5686 26.2854C20.5686 26.1339 20.6288 25.9885 20.736 25.8814C20.8432 25.7742 20.9885 25.714 21.1401 25.714H22.8544V25.1426H19.4258V27.9997H20.5686V26.2854Z" fill="#FFAD00"/>
<path d="M9.71429 16.0001C16 16.0001 19.4286 14.4899 19.4286 13.7144V9.61328C17.5509 10.8081 13.6206 11.4287 9.71429 11.4287C5.808 11.4287 1.87771 10.8081 0 9.61328V13.7144C0 14.4899 3.42857 16.0001 9.71429 16.0001ZM9.14286 13.7144H10.2857V14.8573H9.14286V13.7144Z" fill="#FFAD00"/>
<path d="M9.71429 4.57143C15.0793 4.57143 19.4286 3.54808 19.4286 2.28571C19.4286 1.02335 15.0793 0 9.71429 0C4.34923 0 0 1.02335 0 2.28571C0 3.54808 4.34923 4.57143 9.71429 4.57143Z" fill="#FFAD00"/>
<path d="M17.2846 20.7648L19.4286 18.6208V15.3276C17.5509 16.5225 13.6206 17.1431 9.71429 17.1431C5.808 17.1431 1.87771 16.5225 0 15.3276V19.4288C0 20.2042 3.42857 21.7145 9.71429 21.7145C12.2701 21.7605 14.8193 21.4407 17.2846 20.7648ZM9.14286 18.8574H10.2857V20.0002H9.14286V18.8574Z" fill="#FFAD00"/>
<path opacity="0.58" d="M28.5742 22.5223V31.192L32.0028 27.7635V19.0938L28.5742 22.5223Z" fill="#FFAD00"/>
<path opacity="0.58" d="M25.7148 12.5717V16.0003H26.8577V12.5717C26.8577 12.1171 26.6771 11.681 26.3556 11.3595C26.0341 11.038 25.5981 10.8574 25.1434 10.8574H21.7148V12.0003H25.1434C25.295 12.0003 25.4403 12.0605 25.5475 12.1676C25.6546 12.2748 25.7148 12.4202 25.7148 12.5717Z" fill="#FFAD00"/>
<path opacity="0.58" d="M10.2835 27.4286V24H9.14062V27.4286C9.14063 27.8832 9.32124 28.3193 9.64273 28.6408C9.96422 28.9622 10.4003 29.1429 10.8549 29.1429H14.8549V28H10.8549C10.7034 28 10.558 27.9398 10.4508 27.8326C10.3437 27.7255 10.2835 27.5801 10.2835 27.4286Z" fill="#FFAD00"/>
</svg>
