<svg width="35" height="29" viewBox="0 0 35 29" fill="none" xmlns="http://www.w3.org/2000/svg">
<path opacity="0.58" d="M32.0697 0H2.2391C1.01121 0 0 1.01121 0 2.2391V26.7609C0 27.9888 1.01121 29 2.2391 29H32.0697C33.2976 29 34.3088 27.9888 34.3088 26.7609V2.27522C34.3088 1.01121 33.2976 0 32.0697 0ZM10.6899 2.31133C11.3039 2.31133 11.7734 2.81694 11.7734 3.39477C11.7734 4.00872 11.2677 4.47821 10.6899 4.47821C10.076 4.47821 9.60648 3.9726 9.60648 3.39477C9.60648 2.81694 10.1121 2.31133 10.6899 2.31133ZM7.33126 2.31133C7.94521 2.31133 8.4147 2.81694 8.4147 3.39477C8.4147 4.00872 7.90909 4.47821 7.33126 4.47821C6.71731 4.47821 6.24782 3.9726 6.24782 3.39477C6.21171 2.81694 6.71731 2.31133 7.33126 2.31133ZM3.93649 2.31133C4.55044 2.31133 5.01993 2.81694 5.01993 3.39477C5.01993 4.00872 4.51432 4.47821 3.93649 4.47821C3.32254 4.47821 2.85305 3.9726 2.85305 3.39477C2.85305 2.81694 3.32254 2.31133 3.93649 2.31133ZM31.528 26.2553H2.78082V6.89788H31.528V26.2553Z" fill="#FFAD00"/>
<path d="M28.2082 13.4348C27.8832 11.4846 26.2219 10.0039 24.1995 10.0039C23.73 10.0039 23.2967 10.1123 22.8633 10.2567L24.5968 13.4709H28.2082V13.4348Z" fill="#FFAD00"/>
<path d="M24.1991 18.1657C26.2215 18.1657 27.9189 16.6851 28.2078 14.7349H24.1991C23.9463 14.7349 23.7296 14.5904 23.6213 14.4098L21.7072 10.8706C20.7321 11.629 20.082 12.7847 20.082 14.1209C20.1181 16.3239 21.9239 18.1657 24.1991 18.1657Z" fill="#FFAD00"/>
<path d="M6.75365 18.4552C6.97034 18.4552 7.15091 18.3469 7.29537 18.2024L9.78727 14.8799L11.8458 16.3967C11.9903 16.5051 12.1708 16.5412 12.3514 16.5051C12.532 16.4689 12.6764 16.3967 12.7848 16.2523L15.2406 12.9297L15.9267 13.4353C16.0712 13.5437 16.2518 13.5798 16.4324 13.4714C16.6129 13.3992 16.6852 13.2186 16.7213 13.0381L16.8296 10.3295C16.8296 10.185 16.7574 10.0044 16.649 9.93221C16.5046 9.82386 16.3601 9.82386 16.2157 9.85998L13.6515 10.7267C13.471 10.799 13.3626 10.9434 13.3265 11.124C13.2904 11.3046 13.3626 11.4851 13.5071 11.5935L14.1932 12.0991L12.0986 14.9521L10.0401 13.3992C9.89561 13.2909 9.71504 13.2547 9.53447 13.2909C9.3539 13.327 9.20944 13.3992 9.10109 13.5437L6.21193 17.4079C5.99524 17.6968 6.06747 18.1302 6.35639 18.3469C6.46473 18.4191 6.60919 18.4552 6.75365 18.4552Z" fill="#FFAD00"/>
<path d="M6.5359 23.2575H8.37774C8.63054 23.2575 8.84723 23.0408 8.84723 22.788V20.1877C8.84723 19.9349 8.63054 19.7183 8.37774 19.7183H6.5359C6.28309 19.7183 6.06641 19.9349 6.06641 20.1877V22.8241C6.10252 23.0769 6.28309 23.2575 6.5359 23.2575Z" fill="#FFAD00"/>
<path d="M12.5301 17.9131H10.6882C10.4354 17.9131 10.2188 18.1298 10.2188 18.3826V22.8247C10.2188 23.0775 10.4354 23.2942 10.6882 23.2942H12.5301C12.7829 23.2942 12.9996 23.0775 12.9996 22.8247V18.3826C12.9996 18.1298 12.7829 17.9131 12.5301 17.9131Z" fill="#FFAD00"/>
<path d="M14.8054 16.0708C14.5526 16.0708 14.3359 16.2875 14.3359 16.5403V22.8242C14.3359 23.077 14.5526 23.2937 14.8054 23.2937H16.6473C16.9001 23.2937 17.1168 23.077 17.1168 22.8242V16.5403C17.1168 16.2875 16.9001 16.0708 16.6473 16.0708H14.8054Z" fill="#FFAD00"/>
<path d="M20.5828 23.2584H27.7696C28.0224 23.2584 28.2391 23.0417 28.2391 22.7889V20.947C28.2391 20.6942 28.0224 20.4775 27.7696 20.4775H20.5828C20.33 20.4775 20.1133 20.6942 20.1133 20.947V22.825C20.1133 23.0778 20.2939 23.2584 20.5828 23.2584Z" fill="#FFAD00"/>
</svg>
