<svg width="43" height="32" viewBox="0 0 43 32" fill="none" xmlns="http://www.w3.org/2000/svg">
<path d="M38.4233 8.95342C38.4718 8.60988 38.4947 8.26012 38.4947 7.91063C38.4947 3.55 34.9473 0 30.5841 0C28.0538 0 25.7302 1.19538 24.2591 3.15612C23.7407 3.03036 23.2112 2.96683 22.6738 2.96683C18.8571 2.96683 15.7515 6.07214 15.7515 9.88875C15.7515 9.94737 15.7538 10.0053 15.7551 10.063C15.4355 9.97127 15.0988 9.91986 14.75 9.91986C12.7297 9.91986 11.0916 11.5573 11.0916 13.5783C11.0916 14.044 11.1823 14.4872 11.3405 14.8971H12.7494C13.5413 14.8971 14.2621 14.9915 14.8925 15.1778C15.6657 15.4074 16.3295 15.805 16.8649 16.3588C17.4181 16.9306 17.8274 17.6687 18.0806 18.5504C18.2932 19.2886 18.4009 20.1725 18.4009 21.1776V21.8067C19.2144 22.0061 19.8301 22.7951 19.8995 23.7566H34.5395C38.9024 23.7566 42.4505 20.1967 42.4505 15.8338C42.4498 12.9496 40.8641 10.3322 38.4233 8.95342Z" fill="#FFB81D"/>
<path d="M0.695801 24.2691V25.5784C0.695801 25.7936 0.870026 25.9675 1.08486 25.9675C1.37502 25.9675 1.6069 25.9943 1.77162 26.0458C1.89542 26.0851 1.98155 26.1388 2.03362 26.2102C2.09781 26.2976 2.14103 26.423 2.16396 26.5825C2.19344 26.7885 2.20818 27.0404 2.20818 27.3322V28.0942C2.21931 28.797 2.31069 29.401 2.47967 29.8876C2.65521 30.3989 2.92441 30.8197 3.27909 31.137C3.63017 31.4511 4.07261 31.678 4.59268 31.8113C5.08328 31.9368 5.66784 32 6.33042 32H6.76435C6.97952 32 7.15341 31.8257 7.15341 31.6109V30.0183C7.15341 29.8031 6.97919 29.6292 6.76435 29.6292H6.2659C5.71767 29.6292 5.32732 29.531 5.13802 29.3456C4.95167 29.1635 4.8531 28.7892 4.8531 28.2643V28.0403C4.84032 27.2133 4.85113 26.4633 4.54361 25.8084C4.12671 24.9251 3.22122 24.9169 2.98999 24.8154C3.21335 24.7178 4.13523 24.7024 4.54596 23.8097C4.85119 23.1412 4.83972 22.3837 4.85316 21.5453L4.85283 21.3478C4.85283 21.3259 4.85578 21.3085 4.8561 21.2873C4.86396 20.7944 4.96025 20.4361 5.14102 20.2556C5.26449 20.1318 5.48195 20.0509 5.76556 20.0067C5.91489 19.9838 6.07667 19.9674 6.26564 19.9674H6.76409C6.97925 19.9674 7.15315 19.7932 7.15315 19.5784V17.9854C7.15315 17.7797 6.99267 17.616 6.79029 17.6019C6.78145 17.6016 6.77326 17.5967 6.76409 17.5967H6.33015C5.66829 17.5967 5.07718 17.6635 4.57414 17.7945C4.04328 17.9333 3.59558 18.1662 3.24454 18.4865C2.88921 18.8104 2.62295 19.2401 2.45298 19.7634C2.29054 20.2615 2.20834 20.8811 2.20834 21.6056V22.3136C2.20834 22.6047 2.19393 23.0888 2.16413 23.2889C2.14382 23.4284 2.10485 23.5355 2.05114 23.6161C2.04655 23.6236 2.04328 23.6337 2.03804 23.641C1.98629 23.7084 1.89754 23.7634 1.77375 23.8024C1.62442 23.8489 1.41548 23.8718 1.16625 23.8771C1.13776 23.8774 1.11549 23.8813 1.08503 23.8813C1.01658 23.8813 0.955991 23.9033 0.899995 23.9344C0.780131 23.9996 0.695801 24.1224 0.695801 24.2691ZM17.197 24.2691V25.5784C17.197 25.7936 17.0228 25.9675 16.8079 25.9675C16.5178 25.9675 16.2859 25.9943 16.1212 26.0458C15.9974 26.0851 15.9113 26.1388 15.8592 26.2102C15.7953 26.2976 15.7521 26.4227 15.7292 26.5825C15.6997 26.7885 15.685 27.0404 15.685 27.3322V28.0942C15.6738 28.797 15.5824 29.401 15.4135 29.8876C15.2379 30.3989 14.9687 30.8197 14.614 31.137C14.263 31.4511 13.8205 31.678 13.3004 31.8113C12.8099 31.9368 12.2253 32 11.5627 32H11.1288C10.9136 32 10.7397 31.8257 10.7397 31.6109V30.0183C10.7397 29.8031 10.9139 29.6292 11.1288 29.6292H11.6272C12.1755 29.6292 12.5658 29.531 12.7551 29.3456C12.9415 29.1635 13.04 28.7892 13.04 28.2643V28.0403C13.0528 27.2133 13.042 26.4633 13.3495 25.8084C13.7664 24.9251 14.6719 24.9169 14.9031 24.8154C14.6798 24.7178 13.7579 24.7024 13.3472 23.8097C13.0419 23.1412 13.0534 22.3837 13.04 21.5453V21.3478C13.04 21.3259 13.037 21.3085 13.0367 21.2873C13.0288 20.7944 12.9326 20.4361 12.7518 20.2556C12.6283 20.1318 12.4109 20.0509 12.1272 20.0067C11.9779 19.9838 11.8161 19.9674 11.6272 19.9674H11.1287C10.9136 19.9674 10.7397 19.7932 10.7397 19.5784V17.9854C10.7397 17.7797 10.9001 17.616 11.1025 17.6019C11.1114 17.6016 11.1195 17.5967 11.1287 17.5967H11.5626C12.2245 17.5967 12.8156 17.6635 13.3187 17.7945C13.8495 17.9333 14.2972 18.1662 14.6483 18.4865C15.0036 18.8104 15.2699 19.2401 15.4398 19.7634C15.6023 20.2615 15.6845 20.8811 15.6845 21.6056V22.3136C15.6845 22.6047 15.6989 23.0888 15.7287 23.2889C15.749 23.4284 15.7879 23.5355 15.8417 23.6161C15.8462 23.6236 15.8495 23.6337 15.8548 23.641C15.9065 23.7084 15.9953 23.7634 16.119 23.8024C16.2684 23.8489 16.4773 23.8718 16.7266 23.8771C16.755 23.8774 16.7773 23.8813 16.8078 23.8813C16.8762 23.8813 16.9368 23.9033 16.9928 23.9344C17.1123 23.9996 17.197 24.1224 17.197 24.2691Z" fill="#FFB81D" fill-opacity="0.58"/>
</svg>
