<svg width="36" height="36" viewBox="0 0 36 36" fill="none" xmlns="http://www.w3.org/2000/svg">
<path d="M32.1431 0H16.7146C14.5877 0 12.8574 1.73028 12.8574 3.85714V32.1429C12.8574 34.2697 14.5877 36 16.7146 36H32.1431C34.27 36 36.0003 34.2697 36.0003 32.1429V3.85714C36.0003 1.73028 34.27 0 32.1431 0ZM34.7146 32.1429C34.7146 33.5612 33.5615 34.7143 32.1431 34.7143H16.7146C15.2962 34.7143 14.1431 33.5612 14.1431 32.1429V3.85714C14.1431 2.43882 15.2962 1.28571 16.7146 1.28571H32.1431C33.5615 1.28571 34.7146 2.43882 34.7146 3.85714V32.1429Z" fill="#FFB81D" fill-opacity="0.58"/>
<path d="M10.2859 5.14307C9.57527 5.14307 9.00014 5.71877 9.00014 6.42878V8.45896C8.08089 8.82057 7.21219 9.31076 6.42754 9.91057L4.56414 8.86591C3.95399 8.52554 3.18688 8.73102 2.8304 9.33054L0.180952 13.784C0.00387596 14.0822 -0.0463474 14.4389 0.0440566 14.7742C0.133307 15.1088 0.354296 15.3932 0.656776 15.5634L2.48234 16.5859C2.41232 17.0623 2.37702 17.535 2.37702 18.0002C2.37702 18.4654 2.41232 18.9381 2.48263 19.4145L0.657063 20.4371C0.354575 20.6072 0.133594 20.8916 0.0443431 21.2263C-0.046061 21.5615 0.00416459 21.9182 0.181238 22.2164L2.83047 26.6699C3.1872 27.2694 3.95433 27.4755 4.5645 27.1345L6.4279 26.0893C7.21255 26.6894 8.08265 27.1799 9.0005 27.5415L9.00022 29.5717C9.00022 30.2817 9.57534 30.8574 10.2859 30.8574H11.5716V5.1431L10.2859 5.14307ZM10.0548 20.7215C10.3272 20.9488 10.3642 21.3543 10.1372 21.6267C10.0098 21.7785 9.82696 21.8577 9.64243 21.8577C9.49749 21.8577 9.35171 21.8086 9.23117 21.7082L5.37403 18.4939C5.22766 18.3722 5.143 18.1914 5.143 18.0005C5.143 17.8097 5.22766 17.6289 5.37403 17.5072L9.23117 14.2929C9.50496 14.0656 9.90933 14.1032 10.1372 14.3744C10.3645 14.6468 10.3275 15.0526 10.0548 15.2796L6.79029 18.0005L10.0548 20.7215Z" fill="#FFB81D" fill-opacity="0.58"/>
<path d="M32.1428 2.57178H26.9999C26.9999 3.99179 25.8485 5.14321 24.4285 5.14321C23.0085 5.14321 21.857 3.99179 21.857 2.57178H16.7142C16.0042 2.57178 15.4285 3.14748 15.4285 3.85749V14.1432H18.3767L20.7599 11.76C20.8802 11.6395 21.0435 11.5717 21.2142 11.5717H23.2607C23.5265 10.8244 24.2327 10.286 25.0714 10.286C26.1364 10.286 26.9999 11.1496 26.9999 12.2146C26.9999 13.2796 26.1364 14.1432 25.0714 14.1432C24.2328 14.1432 23.5265 13.6048 23.2607 12.8575H21.4803L19.0971 15.2407C18.9768 15.3612 18.8135 15.4289 18.6428 15.4289H15.4285V17.3575H23.261C23.5268 16.6102 24.233 16.0718 25.0717 16.0718C26.1367 16.0718 27.0003 16.9353 27.0003 18.0003C27.0003 19.0654 26.1367 19.9289 25.0717 19.9289C24.2331 19.9289 23.5268 19.3905 23.261 18.6432H15.4285V20.5718H18.6428C18.8135 20.5718 18.9768 20.6395 19.0973 20.76L21.4805 23.1432H23.261C23.5268 22.3959 24.233 21.8575 25.0717 21.8575C26.1367 21.8575 27.0002 22.7211 27.0002 23.7861C26.9999 24.8511 26.1364 25.7147 25.0714 25.7147C24.2328 25.7147 23.5265 25.1763 23.2607 24.429H21.2142C21.0435 24.429 20.8802 24.3612 20.7596 24.2407L18.3767 21.8575H15.4285V32.1432C15.4285 32.8532 16.0042 33.4289 16.7142 33.4289H32.1428C32.8528 33.4289 33.4285 32.8532 33.4285 32.1432V3.85749C33.4285 3.14748 32.8528 2.57178 32.1428 2.57178Z" fill="#FFB81D"/>
</svg>
