<svg width="35" height="40" viewBox="0 0 35 40" fill="none" xmlns="http://www.w3.org/2000/svg">
<path d="M31.4292 14.9552C31.1762 14.878 30.9867 14.6673 30.9362 14.4078C30.5789 12.5902 29.8624 10.8619 28.8283 9.32501C28.6824 9.10588 28.6686 8.82427 28.7927 8.59198L30.1712 6.00185C29.8597 5.63742 29.5613 5.31187 29.2683 5.01887C28.9754 4.7259 28.6549 4.43173 28.2839 4.11457L25.6932 5.49337C25.4612 5.61743 25.1796 5.60368 24.9604 5.45779C23.4232 4.4237 21.6953 3.70713 19.8774 3.34988C19.6179 3.29936 19.4071 3.10953 19.3303 2.85631L18.4782 0.0542596C17.5895 -0.0180865 16.6968 -0.0180865 15.808 0.0542596L14.956 2.85631C14.8788 3.10923 14.6684 3.29876 14.4089 3.34929C12.5909 3.70653 10.863 4.4231 9.32579 5.4572C9.10666 5.60308 8.82504 5.61683 8.59306 5.49277L5.99994 4.1149C5.63552 4.4264 5.30996 4.72476 5.01696 5.01774C4.72399 5.31071 4.42982 5.63119 4.11267 6.00217L5.49115 8.59231L5.49145 8.59201C5.61552 8.8243 5.60177 9.1059 5.45588 9.32503C4.42178 10.8619 3.70522 12.5902 3.34797 14.4078C3.29744 14.6673 3.10791 14.8781 2.855 14.9552L0.0550071 15.8072C0.0185352 16.2479 0 16.6972 0 17.1423C0 17.5874 0.0185352 18.0359 0.0550071 18.4774L2.85706 19.33C3.10998 19.4072 3.29951 19.6173 3.35003 19.8765C3.70728 21.6942 4.42385 23.4224 5.45795 24.9596C5.60383 25.1784 5.61758 25.4601 5.49352 25.6923L4.11564 28.2852C4.42715 28.6496 4.72551 28.9757 5.01849 29.2681C5.31146 29.5602 5.63194 29.8553 6.00291 30.1724L7.14584 29.5658V27.1422C7.15002 26.127 7.69412 25.1907 8.57453 24.6846C6.62565 22.4727 5.60686 19.5935 5.73092 16.648C5.85499 13.7027 7.11209 10.9194 9.24005 8.87926C11.368 6.83908 14.2018 5.70021 17.1496 5.70021C20.0973 5.70021 22.931 6.83923 25.0592 8.87926C27.1871 10.9193 28.4441 13.7025 28.5683 16.648C28.6923 19.5932 27.6736 22.4724 25.7247 24.6846C26.6012 25.1931 27.1414 26.1291 27.1435 27.1422V29.5629L28.2864 30.1694C28.6508 29.8579 28.9764 29.5596 29.2694 29.2666C29.5624 28.9736 29.8565 28.6531 30.1737 28.2822L28.7952 25.692L28.7949 25.6923C28.6708 25.46 28.6846 25.1784 28.8305 24.9596C29.8646 23.4224 30.5811 21.6941 30.9384 19.8765C30.9889 19.6173 31.1787 19.4072 31.4314 19.33L34.2343 18.4771C34.2678 18.0364 34.2864 17.5871 34.2864 17.1423C34.2864 16.6972 34.2678 16.2487 34.2313 15.8072L31.4292 14.9552Z" fill="#FFB81D" fill-opacity="0.58"/>
<path d="M24.2856 25.7139H10.0002C9.62114 25.7139 9.25791 25.8642 8.99007 26.1321C8.72191 26.4 8.57153 26.7635 8.57153 27.1422V38.5715C8.57153 38.9503 8.7219 39.3138 8.99007 39.5816C9.25793 39.8495 9.62116 39.9999 10.0002 39.9999H24.2856C24.6647 39.9999 25.0279 39.8495 25.2958 39.5816C25.5639 39.3138 25.7143 38.9502 25.7143 38.5715V27.1422C25.7143 26.7635 25.5639 26.3999 25.2958 26.1321C25.0279 25.8642 24.6647 25.7139 24.2856 25.7139ZM14.048 35.1824C14.1924 35.3079 14.2803 35.4861 14.2922 35.6771C14.3039 35.8682 14.2384 36.0559 14.1108 36.1982C13.9828 36.3408 13.8031 36.4257 13.6121 36.4347C13.4208 36.4433 13.2342 36.3752 13.0937 36.2451L10.4701 33.893C10.1715 33.6317 10.0002 33.2541 10.0002 32.8572C10.0002 32.4604 10.1715 32.0829 10.4701 31.8216L13.0931 29.47C13.3873 29.2138 13.8327 29.2413 14.0934 29.5316C14.3541 29.8219 14.3337 30.2679 14.0473 30.5328L11.4279 32.8828L14.048 35.1824ZM18.5481 30.1722L17.1194 35.8867H17.1197C17.0405 36.2042 16.7556 36.4272 16.4282 36.4281C16.3696 36.4278 16.3114 36.4206 16.2546 36.4066C15.8719 36.3109 15.6393 35.9235 15.7347 35.5408L17.1634 29.8264H17.1631C17.2055 29.6389 17.3215 29.4763 17.485 29.3753C17.6489 29.2745 17.8465 29.2437 18.033 29.2903C18.2196 29.3367 18.3795 29.4566 18.4767 29.6225C18.5738 29.7887 18.5998 29.9869 18.549 30.1723L18.5481 30.1722ZM23.8123 33.8936L21.1894 36.2452H21.1897C21.0492 36.3752 20.8626 36.4434 20.6713 36.4347C20.4803 36.4257 20.3006 36.3408 20.1726 36.1982C20.045 36.0559 19.9795 35.8682 19.9915 35.6772C20.0031 35.4861 20.091 35.308 20.2354 35.1824L22.859 32.8303L20.2354 30.531V30.5307C20.091 30.4052 20.0031 30.227 19.9915 30.036C19.9795 29.8449 20.045 29.6572 20.1726 29.5149C20.3006 29.3723 20.4803 29.2874 20.6713 29.2784C20.8626 29.2698 21.0492 29.3379 21.1897 29.468L23.8133 31.8201C24.1119 32.0814 24.2832 32.459 24.2832 32.8559C24.2832 33.2527 24.1119 33.6302 23.8133 33.8915L23.8123 33.8936Z" fill="#FFB81D"/>
</svg>
