<svg width="39" height="36" viewBox="0 0 39 36" fill="none" xmlns="http://www.w3.org/2000/svg">
<path d="M22.9655 10.5518H15.5173V15.0343L10.5518 16.138V21.3152C11.7491 24.4421 14.5807 26.7592 18 27.2178V24.8276H20.4828V27.2178C23.9021 26.7592 26.7337 24.4421 27.9311 21.3152V16.138L22.9655 15.0343V10.5518ZM13.6552 21.1035H12.4138V19.8621H13.6552V21.1035ZM13.6552 18.6207H12.4138V17.3793H13.6552V18.6207ZM24.8276 17.3793H26.069V18.6207H24.8276V17.3793ZM24.8276 19.8621H26.069V21.1035H24.8276V19.8621ZM18.6207 22.3449H17.3793V20.4828H18.6207V22.3449ZM18.6207 18.6207H17.3793V16.7587H18.6207V18.6207ZM18.6207 14.8966H17.3793V13.0345H18.6207V14.8966ZM21.1035 22.3449H19.8621V20.4828H21.1035V22.3449ZM21.1035 18.6207H19.8621V16.7587H21.1035V18.6207ZM21.1035 14.8966H19.8621V13.0345H21.1035V14.8966Z" fill="#FFB81D" fill-opacity="0.58"/>
<path d="M13.4069 2.97931L15.724 1.24138H18V0H15.5173C15.3832 0 15.2524 0.0435036 15.1449 0.124138L12.8278 1.86207H10.4376C10.1805 1.14136 9.49774 0.620689 8.6897 0.620689C7.66305 0.620689 6.82764 1.4561 6.82764 2.48276C6.82764 3.50941 7.66305 4.34483 8.6897 4.34483C9.49774 4.34483 10.1805 3.82417 10.4376 3.10345H13.0345C13.1686 3.10345 13.2994 3.05994 13.4069 2.97931ZM8.6897 3.10345C8.34777 3.10345 8.06902 2.82524 8.06902 2.48276C8.06902 2.14027 8.34777 1.86207 8.6897 1.86207C9.03164 1.86207 9.31039 2.14027 9.31039 2.48276C9.31039 2.82524 9.03164 3.10345 8.6897 3.10345Z" fill="#FFB81D" fill-opacity="0.58"/>
<path d="M13.4069 33.0208C13.2994 32.9402 13.1686 32.8967 13.0345 32.8967H10.4376C10.1808 32.1759 9.49802 31.6553 8.6897 31.6553C7.66305 31.6553 6.82764 32.4907 6.82764 33.5173C6.82764 34.544 7.66305 35.3794 8.6897 35.3794C9.49774 35.3794 10.1805 34.8588 10.4376 34.138H12.8278L15.1449 35.876C15.2524 35.9566 15.3832 36.0001 15.5173 36.0001H18V34.7587H15.724L13.4069 33.0208ZM8.6897 34.138C8.34777 34.138 8.06902 33.8598 8.06902 33.5173C8.06902 33.1749 8.34777 32.8967 8.6897 32.8967C9.03164 32.8967 9.31039 33.1749 9.31039 33.5173C9.31039 33.8598 9.03164 34.138 8.6897 34.138Z" fill="#FFB81D" fill-opacity="0.58"/>
<path d="M9.12872 27.492C9.01262 27.3753 8.8544 27.3102 8.6898 27.3102H6.09291C5.83577 26.5895 5.15301 26.0688 4.34498 26.0688C3.31832 26.0688 2.48291 26.9043 2.48291 27.9309C2.48291 28.9576 3.31832 29.793 4.34498 29.793C5.15301 29.793 5.83577 29.2723 6.09291 28.5516H8.43294L10.1133 30.2319C10.2291 30.3486 10.3873 30.4137 10.5519 30.4137H12.414V29.1723H10.8088L9.12872 27.492ZM4.34494 28.5516C4.00301 28.5516 3.72425 28.2734 3.72425 27.931C3.72425 27.5885 4.00301 27.3103 4.34494 27.3103C4.68688 27.3103 4.96563 27.5885 4.96563 27.931C4.96563 28.2734 4.68688 28.5516 4.34494 28.5516Z" fill="#FFB81D" fill-opacity="0.58"/>
<path d="M4.34473 9.93104C5.15277 9.93104 5.83552 9.41039 6.09267 8.68966H8.68956C8.85415 8.68966 9.01237 8.62455 9.12848 8.50789L10.8085 6.82756H12.4137V5.58618H10.5517C10.3871 5.58618 10.2288 5.6513 10.1127 5.76795L8.4327 7.44829H6.09267C5.83552 6.72758 5.15277 6.20691 4.34473 6.20691C3.31808 6.20691 2.48267 7.04232 2.48267 8.06897C2.48267 9.09563 3.31808 9.93104 4.34473 9.93104ZM4.34473 7.44829C4.68667 7.44829 4.96542 7.72649 4.96542 8.06897C4.96542 8.41146 4.68667 8.68966 4.34473 8.68966C4.0028 8.68966 3.72404 8.41146 3.72404 8.06897C3.72404 7.72649 4.0028 7.44829 4.34473 7.44829Z" fill="#FFB81D" fill-opacity="0.58"/>
<path d="M1.86207 16.138C2.6701 16.138 3.35286 15.6173 3.61 14.8966H6.20689V13.6552H3.61C3.35286 12.9345 2.6701 12.4138 1.86207 12.4138C0.835412 12.4138 0 13.2492 0 14.2759C0 15.3025 0.835412 16.138 1.86207 16.138ZM1.86207 13.6552C2.204 13.6552 2.48276 13.9334 2.48276 14.2759C2.48276 14.6184 2.204 14.8966 1.86207 14.8966C1.52014 14.8966 1.24138 14.6184 1.24138 14.2759C1.24138 13.9334 1.52014 13.6552 1.86207 13.6552Z" fill="#FFB81D" fill-opacity="0.58"/>
<path d="M1.86207 22.9656C2.6701 22.9656 3.35286 22.4449 3.61 21.7242H6.20689V20.4828H3.61C3.35286 19.7621 2.6701 19.2415 1.86207 19.2415C0.835412 19.2415 0 20.0769 0 21.1035C0 22.1302 0.835412 22.9656 1.86207 22.9656ZM1.86207 20.4828C2.204 20.4828 2.48276 20.761 2.48276 21.1035C2.48276 21.446 2.204 21.7242 1.86207 21.7242C1.52014 21.7242 1.24138 21.446 1.24138 21.1035C1.24138 20.761 1.52014 20.4828 1.86207 20.4828Z" fill="#FFB81D" fill-opacity="0.58"/>
<path d="M37.8621 14.2759H36.6636C36.3813 14.2759 36.1397 14.0836 36.0665 13.8103C35.6996 12.4404 35.1579 11.1425 34.4652 9.94213C34.3236 9.69745 34.3585 9.39099 34.5583 9.1912L35.4048 8.34465C35.6476 8.10191 35.6476 7.709 35.4048 7.4671L31.016 3.07822C30.7732 2.83549 30.3803 2.83549 30.1384 3.07822L29.2919 3.92477C29.0921 4.12456 28.7853 4.15947 28.5409 4.01788C27.3406 3.32514 26.0426 2.78345 24.6727 2.41657C24.3992 2.34313 24.2069 2.10179 24.2069 1.81915V0.620689C24.2069 0.278204 23.9287 0 23.5863 0H19.2414V5.58621C12.3964 5.58621 6.82764 11.155 6.82764 18C6.82764 24.845 12.3964 30.4138 19.2414 30.4138V36H23.5863C23.9287 36 24.2069 35.7218 24.2069 35.3793V34.1808C24.2069 33.8985 24.3992 33.6569 24.6725 33.5837C26.0424 33.2168 27.3403 32.6751 28.5407 31.9824C28.7853 31.8408 29.0918 31.8757 29.2916 32.0755L30.1381 32.922C30.3809 33.1648 30.7738 33.1648 31.0157 32.922L35.4046 28.5332C35.6473 28.2904 35.6473 27.8975 35.4046 27.6556L34.558 26.8091C34.3582 26.6093 34.3233 26.3025 34.4649 26.0581C35.1576 24.8578 35.6993 23.5598 36.0662 22.1899C36.1394 21.9167 36.381 21.7244 36.6634 21.7244L37.862 21.7241C38.2045 21.7241 38.4827 21.4459 38.4827 21.1034V14.8966C38.4827 14.5541 38.2045 14.2759 37.862 14.2759L37.8621 14.2759ZM19.2414 28.5517C13.423 28.5517 8.6897 23.8184 8.6897 18C8.6897 12.1816 13.423 7.44827 19.2414 7.44827C25.0598 7.44827 29.7931 12.1816 29.7931 18C29.7931 23.8184 25.0598 28.5517 19.2414 28.5517Z" fill="#FFB81D"/>
</svg>
