<svg width="32" height="32" viewBox="0 0 32 32" fill="none" xmlns="http://www.w3.org/2000/svg">
<path d="M30.4262 11.7333H26.2295V29.8667H24.1311V18.1333H19.9344V29.8667H17.8361V22.4H13.6393V29.8667H11.541V25.6H7.34426V29.8667H2.09836V0H0V32H31.4754V29.8667H30.4262V11.7333Z" fill="#FFB81D"/>
<path d="M31.4755 5.3335H28.328V6.40016H30.2092L28.6355 8.00016H26.6797C26.4453 7.08228 25.6306 6.40016 24.6558 6.40016C23.4987 6.40016 22.5575 7.35705 22.5575 8.5335C22.5575 9.1335 22.8041 9.67422 23.1975 10.0625L21.7367 12.2909C21.661 12.2819 21.5865 12.2669 21.5083 12.2669C20.5336 12.2669 19.7188 12.949 19.4844 13.8669H17.2371C17.0027 12.949 16.188 12.2669 15.2132 12.2669C14.0561 12.2669 13.1149 13.2238 13.1149 14.4002C13.1149 14.8195 13.2388 15.2083 13.4449 15.5378L10.439 19.4673C10.1409 19.3026 9.80528 19.2002 9.44274 19.2002C8.46803 19.2002 7.65326 19.8823 7.41885 20.8002H4.72144V21.8669H7.41885C7.65327 22.7848 8.46803 23.4669 9.44274 23.4669C10.5999 23.4669 11.5411 22.51 11.5411 21.3335C11.5411 20.9143 11.4172 20.5254 11.2111 20.1959L14.217 16.2664C14.5151 16.4311 14.8507 16.5335 15.2132 16.5335C16.188 16.5335 17.0027 15.8514 17.2371 14.9335H19.4844C19.7188 15.8514 20.5336 16.5335 21.5083 16.5335C22.6655 16.5335 23.6067 15.5766 23.6067 14.4002C23.6067 13.6935 23.2631 13.0707 22.7407 12.6823L24.1151 10.5863C24.2887 10.6332 24.4676 10.6668 24.6559 10.6668C25.6306 10.6668 26.4454 9.9847 26.6798 9.06682H28.8526C28.9917 9.06682 29.1254 9.01086 29.2236 8.91063L30.9509 7.15422V9.06685H32.0001V5.86685C32.0001 5.57185 31.765 5.33351 31.4755 5.33351L31.4755 5.3335ZM9.44273 22.4002C8.86404 22.4002 8.39355 21.9218 8.39355 21.3335C8.39355 20.7452 8.86404 20.2668 9.44273 20.2668C10.0214 20.2668 10.4919 20.7452 10.4919 21.3335C10.4919 21.9218 10.0214 22.4002 9.44273 22.4002ZM15.2132 15.4668C14.6345 15.4668 14.164 14.9885 14.164 14.4002C14.164 13.8118 14.6345 13.3335 15.2132 13.3335C15.7919 13.3335 16.2624 13.8118 16.2624 14.4002C16.2624 14.9885 15.7919 15.4668 15.2132 15.4668ZM21.5083 15.4668C20.9296 15.4668 20.4591 14.9885 20.4591 14.4002C20.4591 13.8118 20.9296 13.3335 21.5083 13.3335C22.087 13.3335 22.5575 13.8118 22.5575 14.4002C22.5575 14.9885 22.087 15.4668 21.5083 15.4668ZM24.6558 9.60016C24.0771 9.60016 23.6067 9.12183 23.6067 8.5335C23.6067 7.94517 24.0771 7.46683 24.6558 7.46683C25.2345 7.46683 25.705 7.94517 25.705 8.5335C25.705 9.12183 25.2345 9.60016 24.6558 9.60016Z" fill="#FFB81D" fill-opacity="0.58"/>
<path d="M9.96712 6.93342C9.8334 6.93342 9.71419 6.87842 9.62193 6.79485L9.61888 6.79866L5.5034 3.07959C5.01066 3.89172 4.72119 4.84434 4.72119 5.86676C4.72119 8.80747 7.07459 11.2001 9.96709 11.2001C12.5003 11.2001 14.6198 9.36488 15.1071 6.93343L9.96712 6.93342Z" fill="#FFB81D" fill-opacity="0.58"/>
<path d="M6.1416 2.22936L9.44274 5.21243V0.560547C8.14392 0.692454 6.98724 1.31057 6.1416 2.22936Z" fill="#FFB81D" fill-opacity="0.58"/>
<path d="M10.4917 0.560547V5.86676H15.213C15.213 3.10628 13.1387 0.82892 10.4917 0.560547Z" fill="#FFB81D" fill-opacity="0.58"/>
</svg>
