<svg width="37" height="37" viewBox="0 0 37 37" fill="none" xmlns="http://www.w3.org/2000/svg">
<path d="M14.2737 5.19043L16.8689 0H15.5713L12.9761 5.19043H14.2737Z" fill="#FFB81D"/>
<path d="M11.6785 5.19043L14.2737 0H3.89282C3.17624 0 2.59521 0.581024 2.59521 1.29761V5.19043H11.6785ZM9.08325 1.29761C9.79983 1.29761 10.3809 1.87863 10.3809 2.59521C10.3809 3.3118 9.79983 3.89282 9.08325 3.89282C8.36666 3.89282 7.78564 3.3118 7.78564 2.59521C7.78564 1.87863 8.36666 1.29761 9.08325 1.29761ZM5.19043 1.29761C5.90701 1.29761 6.48803 1.87863 6.48803 2.59521C6.48803 3.3118 5.90701 3.89282 5.19043 3.89282C4.47385 3.89282 3.89282 3.3118 3.89282 2.59521C3.89282 1.87863 4.47385 1.29761 5.19043 1.29761Z" fill="#FFB81D"/>
<path d="M33.7378 5.19043V1.29761C33.7378 0.581024 33.1568 0 32.4402 0H18.1665L15.5713 5.19043H33.7378Z" fill="#FFB81D"/>
<path d="M2.59521 19.4639H0V35.0351H2.59521C3.3118 35.0351 3.89282 34.4541 3.89282 33.7375V20.7615C3.89282 20.0449 3.3118 19.4639 2.59521 19.4639Z" fill="#FFB81D" fill-opacity="0.58"/>
<path d="M4.83085 19.467H10.381C11.0742 19.467 11.7256 19.7369 12.2159 20.2273L14.0508 22.061C15.5804 22.0622 19.866 22.0648 20.1852 22.0674C21.6157 22.1117 22.7856 23.0293 23.1972 24.2928L31.1993 19.9918C31.8371 19.6469 32.5543 19.4644 33.2726 19.4644C33.4287 19.4644 33.5834 19.4794 33.7378 19.4962V6.48828H2.59521V18.1667C3.55218 18.1667 4.38057 18.6936 4.83066 19.4669L4.83085 19.467ZM22.2929 10.231C22.0181 10.0016 21.9807 9.59233 22.2098 9.31659C22.4392 9.04172 22.8479 9.00436 23.1242 9.23347L27.017 12.4775C27.1647 12.6012 27.2502 12.7836 27.2502 12.9763C27.2502 13.1689 27.1647 13.3513 27.017 13.475L23.1242 16.719C23.0026 16.8195 22.8557 16.8691 22.7091 16.8691C22.5229 16.8691 22.3384 16.79 22.2098 16.6359C21.9804 16.3602 22.0178 15.9509 22.2929 15.7215L25.5877 12.9763L22.2929 10.231ZM15.6642 15.8855L19.557 9.39742C19.7421 9.08953 20.145 8.9925 20.4465 9.17497C20.7544 9.35948 20.8546 9.75803 20.6695 10.0651L16.7767 16.5531C16.655 16.7558 16.4401 16.8679 16.2197 16.8679C16.1062 16.8679 15.9909 16.8381 15.8863 16.7755C15.5793 16.5913 15.4799 16.1928 15.6642 15.8855H15.6642ZM9.31664 12.4775L13.2095 9.23347C13.4858 9.00407 13.8945 9.04144 14.1239 9.3166C14.3533 9.59235 14.3159 10.0016 14.0407 10.231L10.746 12.9762L14.0407 15.7214C14.3156 15.9508 14.353 16.3601 14.1239 16.6358C13.9953 16.7899 13.8108 16.869 13.6245 16.869C13.4782 16.869 13.3311 16.8195 13.2095 16.719L9.31663 13.475C9.16891 13.3513 9.08347 13.1688 9.08347 12.9762C9.08347 12.7836 9.16891 12.6011 9.31663 12.4774L9.31664 12.4775Z" fill="#FFB81D"/>
<path d="M34.8463 21.2002C33.9093 20.6403 32.7739 20.616 31.8145 21.1342L23.3171 25.7021C23.1184 27.3024 21.7657 28.5491 20.113 28.5491H14.8965C14.5379 28.5491 14.2477 28.2588 14.2477 27.9003C14.2477 27.5417 14.5379 27.2515 14.8965 27.2515H20.113C21.1865 27.2515 22.0594 26.3785 22.0594 25.3053C22.0594 24.2525 21.2177 23.3975 20.1727 23.3653C19.7843 23.3607 13.5135 23.3592 13.5135 23.3592L11.2983 21.1446C11.055 20.9013 10.7248 20.7646 10.3807 20.7646L5.19055 20.7643V33.7411H7.48161L11.6786 35.0364C13.4223 35.5969 15.2873 36.3337 17.3536 36.3337C19.2221 36.3337 21.0633 35.7142 22.6523 34.4966L35.01 26.3179C35.8384 25.7505 36.3331 24.8129 36.3331 23.8119C36.3331 22.731 35.7776 21.7555 34.8461 21.2005L34.8463 21.2002Z" fill="#FFB81D" fill-opacity="0.58"/>
</svg>
