<svg width="32" height="32" viewBox="0 0 32 32" fill="none" xmlns="http://www.w3.org/2000/svg">
<path d="M10.2857 4.57143L12.5714 0H11.4285L9.14282 4.57143H10.2857Z" fill="#FFB81D" fill-opacity="0.58"/>
<path d="M8 4.57143L10.2857 0H1.14286C0.511732 0 0 0.511732 0 1.14286V4.57143H8ZM5.71428 1.14286C6.34541 1.14286 6.85714 1.65459 6.85714 2.28571C6.85714 2.91684 6.34541 3.42857 5.71428 3.42857C5.08316 3.42857 4.57143 2.91684 4.57143 2.28571C4.57143 1.65459 5.08316 1.14286 5.71428 1.14286ZM2.28571 1.14286C2.91684 1.14286 3.42857 1.65459 3.42857 2.28571C3.42857 2.91684 2.91684 3.42857 2.28571 3.42857C1.65459 3.42857 1.14286 2.91684 1.14286 2.28571C1.14286 1.65459 1.65459 1.14286 2.28571 1.14286Z" fill="#FFB81D" fill-opacity="0.58"/>
<path d="M32.0001 4.57143V1.14286C32.0001 0.511732 31.4884 0 30.8573 0H13.7144L11.4287 4.57143H32.0001Z" fill="#FFB81D" fill-opacity="0.58"/>
<path d="M0 5.71429V30.8572C0 31.4883 0.511732 32 1.14286 32H30.8571C31.4883 32 32 31.4883 32 30.8572V5.71429H0ZM7.83282 26.1185L5.5471 28.4043C5.43537 28.5157 5.2892 28.5716 5.14302 28.5716C4.99685 28.5716 4.85067 28.5157 4.73894 28.4043L3.59608 27.2614C3.37287 27.0382 3.37287 26.6764 3.59608 26.4532C3.8193 26.23 4.18103 26.23 4.40424 26.4532L5.14299 27.1922L7.02459 25.3106C7.2478 25.0874 7.60953 25.0874 7.83275 25.3106C8.05597 25.5336 8.05597 25.8953 7.83275 26.1185H7.83282ZM7.83282 20.4043L5.5471 22.69C5.43537 22.8014 5.2892 22.8573 5.14302 22.8573C4.99685 22.8573 4.85067 22.8014 4.73894 22.69L3.59608 21.5471C3.37287 21.3239 3.37287 20.9622 3.59608 20.7389C3.8193 20.5157 4.18103 20.5157 4.40424 20.7389L5.14299 21.478L7.02459 19.5964C7.2478 19.3731 7.60953 19.3731 7.83275 19.5964C8.05597 19.8193 8.05597 20.181 7.83275 20.4043H7.83282ZM7.83282 14.69L5.5471 16.9757C5.43537 17.0872 5.2892 17.143 5.14302 17.143C4.99685 17.143 4.85067 17.0872 4.73894 16.9757L3.59608 15.8328C3.37287 15.6096 3.37287 15.2479 3.59608 15.0247C3.8193 14.8014 4.18103 14.8014 4.40424 15.0247L5.14299 15.7637L7.02459 13.8821C7.2478 13.6588 7.60953 13.6588 7.83275 13.8821C8.05597 14.105 8.05597 14.4668 7.83275 14.69H7.83282ZM7.83282 8.97568L5.5471 11.2614C5.43537 11.3729 5.2892 11.4287 5.14302 11.4287C4.99685 11.4287 4.85067 11.3729 4.73894 11.2614L3.59608 10.1185C3.37287 9.89532 3.37287 9.53359 3.59608 9.31038C3.8193 9.08716 4.18103 9.08716 4.40424 9.31038L5.14299 10.0494L7.02459 8.16778C7.2478 7.94456 7.60953 7.94456 7.83275 8.16778C8.05597 8.39074 8.05597 8.75247 7.83275 8.97568H7.83282ZM28.5714 24.1907C28.5714 24.4379 28.4913 24.6787 28.3429 24.8764L25.9222 29.2573C25.7064 29.5453 25.3676 29.7147 25.0079 29.7147H19.4286C18.9957 29.7147 18.6 29.47 18.4064 29.0828L16.1207 24.8129C16.0414 24.6545 16 24.4795 16 24.3019V21.6165C16 21.3134 16.1204 21.0226 16.3347 20.8083L18.2857 18.8575V15.6007C16.938 14.9573 16 13.5933 16 12.0004C16 9.79122 17.7908 8.00039 20 8.00039C22.2092 8.00039 24 9.79122 24 12.0004C24 13.5933 23.062 14.9573 21.7143 15.6007V19.429C21.7143 18.4823 22.4819 17.7147 23.4286 17.7147C24.3753 17.7147 25.1429 18.4823 25.1429 19.429V20.5718C25.1429 19.6251 25.9105 18.8575 26.8572 18.8575C27.8038 18.8575 28.5714 19.6251 28.5714 20.5718L28.5714 24.1907Z" fill="#FFB81D"/>
<path d="M18.2857 14.2726V13.1428C18.2857 12.1961 19.0533 11.4285 20 11.4285C20.9466 11.4285 21.7143 12.1961 21.7143 13.1428V14.2726C22.4043 13.7512 22.8571 12.9316 22.8571 11.9999C22.8571 10.4218 21.578 9.14276 20 9.14276C18.4219 9.14276 17.1428 10.4218 17.1428 11.9999C17.1428 12.9316 17.5956 13.7512 18.2857 14.2726Z" fill="#FFB81D"/>
</svg>
