<svg width="30" height="30" viewBox="0 0 30 30" fill="none" xmlns="http://www.w3.org/2000/svg">
<path d="M0.570342 18.125C0.569503 18.919 0.824166 19.6925 1.29656 20.3312L1.36532 20.4249H1.3656C1.46512 20.5516 1.5719 20.6727 1.68484 20.7874L1.7536 20.8499H1.75388C1.85451 20.9461 1.96102 21.036 2.07312 21.1188L2.17962 21.2C2.31072 21.2885 2.44659 21.3699 2.58663 21.4436L2.69314 21.5C2.82452 21.5644 2.96038 21.6185 3.10015 21.6623L3.18149 21.6936C3.34279 21.7463 3.50828 21.7862 3.67601 21.8125H3.79509C3.97092 21.8459 4.14871 21.8669 4.32734 21.875H18.7293V17.5H0.570312L0.570342 18.125ZM13.7199 18.75C13.9732 18.75 14.2016 18.9023 14.2983 19.1358C14.3953 19.3694 14.3419 19.6381 14.1627 19.8169C13.9835 19.9958 13.7143 20.0491 13.4804 19.9522C13.2464 19.8557 13.0938 19.6277 13.0938 19.375C13.0938 19.0298 13.3741 18.75 13.7199 18.75Z" fill="#FFB81D"/>
<path d="M26.8694 12.5001V9.03147C26.4124 9.25887 25.9086 9.37661 25.398 9.37521H25.0349C23.9503 9.37521 22.933 8.85123 22.3046 7.96894C22.2196 8.09059 22.1254 8.20527 22.0228 8.31269C21.3181 9.06997 20.3009 9.45775 19.2696 9.36204C18.2387 9.26662 17.3103 8.69881 16.7568 7.8252C16.0496 8.79418 14.9211 9.36732 13.7199 9.36732C12.5186 9.36732 11.3902 8.79423 10.6829 7.8252C10.1294 8.69876 9.20107 9.26661 8.17014 9.36204C7.13893 9.45773 6.12167 9.06991 5.41692 8.31269C5.31433 8.20527 5.22013 8.09059 5.13515 7.96894C4.50674 8.85122 3.4895 9.37521 2.4049 9.37521H2.04178C1.53106 9.37661 1.02731 9.25887 0.570312 9.03147V16.25H18.7293V15.625C18.7293 14.7963 19.0591 14.0014 19.6461 13.4151C20.2334 12.8292 21.0298 12.5 21.8601 12.5L26.8694 12.5001Z" fill="#FFB81D"/>
<path d="M17.6384 23.1245H9.80519L9.41076 26.2495H8.0832C7.73741 26.2495 7.45703 26.5293 7.45703 26.8745C7.45703 27.2196 7.73741 27.4995 8.0832 27.4995H18.7281V26.2495H18.0267L17.6384 23.1245Z" fill="#FFB81D"/>
<path d="M2.04119 8.1254H2.40432C2.93656 8.12484 3.4487 7.92256 3.83699 7.55928C4.22528 7.19628 4.46093 6.69907 4.49587 6.16922V5.80678L4.90903 0.000488281H3.07438C2.6724 0.00188334 2.28162 0.132187 1.9593 0.371577C1.63699 0.611253 1.40022 0.947742 1.28365 1.33164L0.0313085 5.50652C0.0123001 5.63487 0.00167742 5.76433 0 5.89407V6.03163C0.00279544 6.57627 0.217207 7.09883 0.597661 7.48919C0.978394 7.87953 1.49584 8.10748 2.04122 8.12534L2.04119 8.1254Z" fill="#FFB81D"/>
<path d="M7.86475 8.12547C8.42104 8.12547 8.95465 7.90477 9.34803 7.51219C9.74134 7.11962 9.96245 6.58699 9.96245 6.03171V0.000488281H6.16156L5.82975 5.06908L5.77328 5.89414C5.73023 6.47198 5.93234 7.04141 6.33069 7.46305C6.72764 7.88688 7.28333 8.12711 7.86484 8.12543L7.86475 8.12547Z" fill="#FFB81D"/>
<path d="M13.7195 8.1254C14.3837 8.1254 15.0208 7.86201 15.4907 7.39327C15.9603 6.92424 16.2242 6.28835 16.2242 5.62543V0.000488281H11.2148V5.62543C11.2148 6.28836 11.4787 6.92427 11.9484 7.39327C12.4183 7.86201 13.0554 8.1254 13.7195 8.1254Z" fill="#FFB81D"/>
<path d="M19.5722 8.12536C20.1537 8.12703 20.7094 7.8868 21.1064 7.46298C21.5047 7.04139 21.7068 6.47192 21.6638 5.89407L21.5134 3.60674L21.2755 0.000488281H17.4746V6.03171C17.4746 6.58695 17.6957 7.11955 18.089 7.51219C18.4824 7.90477 19.016 8.12547 19.5723 8.12547L19.5722 8.12536Z" fill="#FFB81D"/>
<path d="M22.9414 6.16882C22.9764 6.69867 23.212 7.19588 23.6003 7.55888C23.9886 7.92215 24.5007 8.12444 25.033 8.125H25.3961C25.7967 8.12472 26.1886 8.00726 26.5232 7.78739C27.1267 7.40654 27.493 6.7439 27.4937 6.03127V5.89371C27.5024 5.7648 27.5024 5.63534 27.4937 5.50616L26.1788 1.33127C26.0611 0.943162 25.8204 0.603852 25.4931 0.363926C25.1657 0.123692 24.7691 -0.00381309 24.3629 8.68708e-05H22.4844L22.8727 5.80638L22.9414 6.16882Z" fill="#FFB81D"/>
<path d="M28.1206 13.75H27.1313L26.6869 14.1936H26.6866C26.5686 14.3108 26.4084 14.3758 26.2421 14.375H23.7374C23.5711 14.3758 23.4109 14.3108 23.293 14.1936L22.8482 13.75H21.8589C21.3608 13.75 20.8828 13.9475 20.5306 14.2991C20.1784 14.6507 19.9805 15.1278 19.9805 15.6249V28.1248C19.9805 28.622 20.1784 29.0992 20.5306 29.4507C20.8828 29.8022 21.3609 29.9998 21.8589 29.9998H28.1207C28.6188 29.9998 29.0968 29.8022 29.449 29.4507C29.8012 29.0991 29.9991 28.622 29.9991 28.1248V15.6249C29.9991 15.1277 29.8012 14.6506 29.449 14.2991C29.0968 13.9476 28.6187 13.75 28.1207 13.75H28.1206ZM24.9898 28.7498C24.7365 28.7498 24.5081 28.5975 24.4114 28.364C24.3144 28.1304 24.3678 27.8617 24.547 27.6829C24.7261 27.504 24.9953 27.4507 25.2293 27.5476C25.4633 27.6441 25.6159 27.8721 25.6159 28.1248C25.6159 28.2906 25.55 28.4496 25.4325 28.5668C25.3151 28.684 25.1558 28.7498 24.9898 28.7498ZM28.1206 23.7499C28.1206 24.2471 27.9227 24.7242 27.5705 25.0757C27.2182 25.4272 26.7402 25.6248 26.2421 25.6248H23.7374C23.2393 25.6248 22.7613 25.4273 22.4091 25.0757C22.057 24.7242 21.859 24.247 21.859 23.7499V20.6249C21.859 20.2798 22.1394 19.9999 22.4851 19.9999H23.1927C23.1927 19.359 23.5354 18.7669 24.0914 18.4464C24.6474 18.1261 25.3323 18.1261 25.8883 18.4464C26.4443 18.767 26.787 19.359 26.787 19.9999H27.4945C27.6606 19.9999 27.8199 20.0658 27.9373 20.183C28.0547 20.3002 28.1207 20.4592 28.1207 20.6249L28.1206 23.7499Z" fill="#FFB81D" fill-opacity="0.45"/>
<path d="M25.6982 20.0006C25.6982 19.6106 25.3815 19.2944 24.9907 19.2944C24.5999 19.2944 24.2832 19.6106 24.2832 20.0006V20.0818H25.6982L25.6982 20.0006Z" fill="#FFB81D" fill-opacity="0.45"/>
<path d="M23.1113 23.7495C23.1113 23.9152 23.1773 24.0743 23.2947 24.1914C23.4121 24.3086 23.5715 24.3745 23.7375 24.3745H26.2422C26.4082 24.3745 26.5676 24.3086 26.685 24.1914C26.8024 24.0743 26.8684 23.9152 26.8684 23.7495V21.2495H23.1113V23.7495Z" fill="#FFB81D" fill-opacity="0.45"/>
</svg>
