<svg width="27" height="32" viewBox="0 0 27 32" fill="none" xmlns="http://www.w3.org/2000/svg">
<path fill-rule="evenodd" clip-rule="evenodd" d="M17.8436 29.84C18.3093 30.334 18.3093 31.1353 17.8436 31.6292C17.3776 32.1232 16.6224 32.1232 16.1567 31.6292L12.6793 27.9411C12.2137 27.4471 12.2137 26.6458 12.6793 26.1519L16.1567 22.4637C16.6224 21.9698 17.3776 21.9698 17.8433 22.4637C18.3093 22.9577 18.3093 23.759 17.8433 24.2529L15.2095 27.0465L17.8436 29.84ZM21.0743 24.2529C20.6083 23.759 20.6083 22.9579 21.0743 22.4637C21.54 21.9698 22.2952 21.9698 22.7611 22.4637L26.2383 26.1519C26.7039 26.6461 26.7039 27.4472 26.2383 27.9411L22.7611 31.6292C22.2952 32.1232 21.54 32.1232 21.0743 31.6292C20.6083 31.1353 20.6083 30.3342 21.0743 29.84L23.7081 27.0464L21.0743 24.2529Z" fill="#FFB81D" fill-opacity="0.58"/>
<path fill-rule="evenodd" clip-rule="evenodd" d="M0 3.68815C0 1.65117 1.65117 0 3.68815 0H18.4408C20.4778 0 22.1289 1.65117 22.1289 3.68815V18.4408C22.1289 19.1197 21.5784 19.6702 20.8995 19.6702H15.771C15.445 19.6702 15.1324 19.7997 14.9016 20.0302L9.49865 25.4332C9.12462 25.8075 9.03187 26.3791 9.26841 26.8524L10.9347 30.185C11.1251 30.5659 11.1048 31.0184 10.8809 31.3809C10.6567 31.7434 10.2613 31.964 9.83508 31.964H3.68816C1.65117 31.964 5.35969e-06 30.3128 5.35969e-06 28.2758L0 3.68815ZM7.37631 2.45877C6.6974 2.45877 6.14692 3.00925 6.14692 3.68815C6.14692 4.36706 6.6974 4.91754 7.37631 4.91754H14.7526C15.4315 4.91754 15.982 4.36706 15.982 3.68815C15.982 3.00925 15.4315 2.45877 14.7526 2.45877H7.37631Z" fill="#FFB81D"/>
</svg>
