<svg width="43" height="43" viewBox="0 0 43 43" fill="none" xmlns="http://www.w3.org/2000/svg">
<path d="M16.4875 8.6C24.7994 8.6 31.5375 6.99569 31.5375 5.01667C31.5375 3.03765 24.7994 1.43333 16.4875 1.43333C8.17561 1.43333 1.4375 3.03765 1.4375 5.01667C1.4375 6.99569 8.17561 8.6 16.4875 8.6Z" fill="#FFAD00"/>
<path d="M16.4875 37.9833C18.6433 37.9838 20.7972 37.8545 22.9375 37.5963V29.0049C20.797 29.2603 18.6431 29.3866 16.4875 29.3833C10.3507 29.3833 4.16083 28.4158 1.4375 26.5461V34.4C1.4375 35.8613 7.30055 37.9833 16.4875 37.9833Z" fill="#FFAD00"/>
<path d="M16.4875 18.6333C25.6745 18.6333 31.5375 16.5113 31.5375 15.05V7.19604C28.8142 9.06583 22.6243 10.0333 16.4875 10.0333C10.3507 10.0333 4.16083 9.06583 1.4375 7.19604V15.05C1.4375 16.5113 7.30055 18.6333 16.4875 18.6333Z" fill="#FFAD00"/>
<path d="M16.4875 27.95C18.6434 27.9521 20.7974 27.8224 22.9375 27.5616V26.5167C22.9386 25.5667 23.3165 24.6559 23.9883 23.9841C24.6601 23.3124 25.5708 22.9345 26.5208 22.9333H31.5375V17.2294C28.8142 19.0992 22.6243 20.0667 16.4875 20.0667C10.3507 20.0667 4.16083 19.0992 1.4375 17.2294V24.3667C1.4375 25.828 7.30055 27.95 16.4875 27.95Z" fill="#FFAD00"/>
<path d="M29.3844 28.6667C28.8142 28.6667 28.2673 28.8932 27.8641 29.2964C27.4609 29.6996 27.2344 30.2465 27.2344 30.8167V32.9667H31.5344V30.8167C31.5344 30.2465 31.3079 29.6996 30.9047 29.2964C30.5015 28.8932 29.9546 28.6667 29.3844 28.6667Z" fill="#FFAD00"/>
<path d="M39.4172 24.3667H26.5172C25.947 24.3667 25.4001 24.5932 24.9969 24.9964C24.5937 25.3996 24.3672 25.9465 24.3672 26.5167V39.4167C24.3672 39.9869 24.5937 40.5337 24.9969 40.9369C25.4001 41.3402 25.947 41.5667 26.5172 41.5667H39.4172C39.9874 41.5667 40.5343 41.3402 40.9375 40.9369C41.3407 40.5337 41.5672 39.9869 41.5672 39.4167V26.5167C41.5672 25.9465 41.3407 25.3996 40.9375 24.9964C40.5343 24.5932 39.9874 24.3667 39.4172 24.3667ZM32.9672 37.9833C32.9672 38.1734 32.8917 38.3557 32.7573 38.4901C32.6229 38.6245 32.4406 38.7 32.2505 38.7C32.0604 38.7 31.8782 38.6245 31.7438 38.4901C31.6094 38.3557 31.5339 38.1734 31.5339 37.9833V34.4H27.2339V37.9833C27.2339 38.1734 27.1583 38.3557 27.0239 38.4901C26.8895 38.6245 26.7073 38.7 26.5172 38.7C26.3271 38.7 26.1448 38.6245 26.0104 38.4901C25.876 38.3557 25.8005 38.1734 25.8005 37.9833V30.8167C25.8005 29.8663 26.178 28.9549 26.8501 28.2829C27.5221 27.6109 28.4335 27.2333 29.3839 27.2333C30.3342 27.2333 31.2456 27.6109 31.9177 28.2829C32.5897 28.9549 32.9672 29.8663 32.9672 30.8167V37.9833ZM39.4172 37.2667C39.6073 37.2667 39.7895 37.3422 39.9239 37.4766C40.0583 37.611 40.1339 37.7933 40.1339 37.9833C40.1339 38.1734 40.0583 38.3557 39.9239 38.4901C39.7895 38.6245 39.6073 38.7 39.4172 38.7H35.1172C34.9271 38.7 34.7448 38.6245 34.6104 38.4901C34.476 38.3557 34.4005 38.1734 34.4005 37.9833C34.4005 37.7933 34.476 37.611 34.6104 37.4766C34.7448 37.3422 34.9271 37.2667 35.1172 37.2667H36.5505V28.6667H35.1172C34.9271 28.6667 34.7448 28.5912 34.6104 28.4568C34.476 28.3224 34.4005 28.1401 34.4005 27.95C34.4005 27.7599 34.476 27.5776 34.6104 27.4432C34.7448 27.3088 34.9271 27.2333 35.1172 27.2333H39.4172C39.6073 27.2333 39.7895 27.3088 39.9239 27.4432C40.0583 27.5776 40.1339 27.7599 40.1339 27.95C40.1339 28.1401 40.0583 28.3224 39.9239 28.4568C39.7895 28.5912 39.6073 28.6667 39.4172 28.6667H37.9839V37.2667H39.4172Z" fill="#FFAD00"/>
</svg>
