<svg width="43" height="43" viewBox="0 0 43 43" fill="none" xmlns="http://www.w3.org/2000/svg">
<path d="M33.9499 3.71287C33.9499 4.08391 33.649 4.38474 33.278 4.38474H23.2376C22.8665 4.38474 22.5657 4.08391 22.5657 3.71287C22.5657 3.34182 22.8665 3.04099 23.2376 3.04099H33.278C33.649 3.04099 33.9499 3.34182 33.9499 3.71287ZM29.9332 19.8526C29.9332 16.8001 27.4498 14.3166 24.3972 14.3166C21.3446 14.3166 18.8613 16.8001 18.8613 19.8526C18.8613 22.1641 16.9806 24.0448 14.6691 24.0448C12.3576 24.0448 10.4769 22.1641 10.4769 19.8526C10.4769 17.5411 12.3576 15.6604 14.6691 15.6604C15.2903 15.6604 15.8877 15.7944 16.432 16.047L16.1206 16.0723C15.7507 16.1025 15.4753 16.4268 15.5055 16.7966C15.5343 17.1479 15.8281 17.414 16.1745 17.4139C16.1928 17.4139 16.2113 17.4132 16.2298 17.4117L18.3214 17.2411C18.5176 17.2251 18.697 17.1237 18.8121 16.9639C18.9271 16.8041 18.9662 16.6019 18.9191 16.4107L18.4171 14.3732C18.3283 14.0129 17.9647 13.7924 17.6041 13.8815C17.2438 13.9703 17.0236 14.3344 17.1124 14.6946L17.165 14.9082C16.4022 14.5218 15.5537 14.3167 14.6691 14.3167C11.6166 14.3167 9.13315 16.8001 9.13315 19.8527C9.13315 22.9053 11.6166 25.3886 14.6691 25.3886C17.7217 25.3886 20.2051 22.9052 20.2051 19.8527C20.2051 17.5411 22.0857 15.6605 24.3972 15.6605C26.7087 15.6605 28.5895 17.5411 28.5895 19.8527C28.5895 22.1643 26.7088 24.0449 24.3972 24.0449C23.7762 24.0449 23.1787 23.9109 22.6344 23.6584L22.9457 23.633C23.3155 23.6029 23.591 23.2785 23.5607 22.9088C23.5306 22.5389 23.2072 22.2634 22.8365 22.2937L20.745 22.4643C20.5487 22.4803 20.3693 22.5816 20.2544 22.7415C20.1393 22.9012 20.1002 23.1035 20.1473 23.2947L20.6493 25.3323C20.7247 25.6386 20.9991 25.8437 21.3011 25.8437C21.3543 25.8437 21.4083 25.8373 21.4623 25.824C21.8226 25.7352 22.0427 25.3713 21.954 25.011L21.9014 24.7974C22.6642 25.1836 23.5127 25.3888 24.3972 25.3888C27.4498 25.3888 29.9332 22.9051 29.9332 19.8526ZM8.66846 2.20728C7.83819 2.20728 7.16271 2.88268 7.16271 3.71295C7.16271 4.54322 7.83819 5.21871 8.66846 5.21871C9.49873 5.21871 10.174 4.54322 10.174 3.71295C10.174 2.88268 9.49865 2.20728 8.66846 2.20728ZM11.7236 2.20728C10.8933 2.20728 10.2178 2.88268 10.2178 3.71295C10.2178 4.54322 10.8933 5.21871 11.7236 5.21871C12.5538 5.21871 13.2291 4.54322 13.2291 3.71295C13.2291 2.88268 12.5537 2.20728 11.7236 2.20728ZM41.261 32.0819V34.4863C41.261 35.0184 40.8283 35.4511 40.2962 35.4511H39.621C39.4365 36.1347 39.1658 36.7876 38.8121 37.4024L39.29 37.8803C39.6662 38.2565 39.6662 38.8686 39.29 39.2448L37.5897 40.945C37.2135 41.3212 36.6013 41.3212 36.2252 40.945L35.7475 40.4672C35.1329 40.8208 34.4798 41.0915 33.7962 41.2761V41.9511C33.7962 42.4832 33.3634 42.916 32.8314 42.916H30.4269C29.8948 42.916 29.4621 42.4832 29.4621 41.9511V41.2761C28.7786 41.0916 28.1255 40.8209 27.5108 40.4671L27.033 40.945C26.851 41.127 26.6086 41.2273 26.3507 41.2273C26.0928 41.2273 25.8504 41.127 25.6682 40.9448L23.9682 39.2448C23.7862 39.0627 23.686 38.8203 23.686 38.5625C23.686 38.3047 23.7862 38.0623 23.9682 37.8802L24.446 37.4024C24.1323 36.8572 23.8842 36.2818 23.7033 35.6815H4.71313C3.07065 35.6815 1.73438 34.3452 1.73438 32.7027V3.06274C1.73446 1.42026 3.07073 0.0839844 4.71313 0.0839844H34.3531C35.9957 0.0839844 37.332 1.42026 37.332 3.06283V25.4396C37.4262 25.4858 37.5136 25.5468 37.5898 25.6231L39.29 27.3235C39.6661 27.6996 39.6662 28.3116 39.2902 28.6878L38.8121 29.1658C39.1657 29.7803 39.4364 30.4333 39.6209 31.1169H40.2962C40.8283 31.1169 41.261 31.5498 41.261 32.0819ZM3.07821 5.99808H35.9882V3.06274C35.9882 2.16117 35.2548 1.42765 34.3531 1.42765H4.71313C3.81164 1.42765 3.07813 2.16109 3.07813 3.06274L3.07821 5.99808ZM22.9619 31.1169H23.6371C23.8215 30.4334 24.0923 29.7804 24.446 29.1657L23.9681 28.6879C23.7862 28.5059 23.6858 28.2635 23.6858 28.0056C23.6858 27.7477 23.7862 27.5053 23.9684 27.3231L25.6683 25.6231C26.0446 25.247 26.6567 25.247 27.0329 25.6231L27.5107 26.101C28.1253 25.7474 28.7784 25.4767 29.462 25.2921V24.6169C29.462 24.0849 29.8948 23.6521 30.4268 23.6521H32.8313C33.3633 23.6521 33.7961 24.0849 33.7961 24.6169V25.2921L33.7973 25.2925L35.4731 25.824V8H3.5V33.386H21.9014L21.9971 32.1468V32.0819C21.9971 31.5498 22.4299 31.1169 22.9619 31.1169ZM39.9173 32.4606H39.0886C38.7682 32.4606 38.4923 32.2344 38.4297 31.9201C38.2523 31.0305 37.9065 30.1962 37.4018 29.4401C37.2238 29.1736 37.2589 28.8186 37.4855 28.5919L38.0719 28.0056L36.9075 26.8412L36.3212 27.4276C36.0946 27.6541 35.7396 27.6893 35.4731 27.5113C34.7165 27.0064 33.8821 26.6606 32.9929 26.4833C32.6787 26.4206 32.4523 26.1448 32.4523 25.8244V24.9958H30.8057V25.8244C30.8057 26.1447 30.5796 26.4206 30.2653 26.4833C29.3756 26.6607 28.5412 27.0065 27.7849 27.5113C27.5185 27.6891 27.1634 27.654 26.9368 27.4275L26.3505 26.8412L25.1862 28.0055L25.7725 28.5918C25.9991 28.8184 26.0341 29.1734 25.8563 29.4399C25.3513 30.1966 25.0054 31.031 24.8282 31.92C24.7656 32.2343 24.4898 32.4606 24.1693 32.4606H23.3408V34.1073H24.1693C24.4897 34.1073 24.7656 34.3336 24.8282 34.6478C25.0055 35.5374 25.3514 36.3718 25.8562 37.1281C26.034 37.3946 25.999 37.7495 25.7725 37.9761L25.1862 38.5625L26.3505 39.7269L26.9368 39.1405C27.1635 38.914 27.5183 38.8788 27.7849 39.0568C28.5417 39.5618 29.3761 39.9077 30.2651 40.0848C30.5794 40.1475 30.8057 40.4233 30.8057 40.7438V41.5723H32.4523V40.7438C32.4523 40.4234 32.6786 40.1476 32.9929 40.0848C33.8825 39.9074 34.717 39.5615 35.4731 39.0568C35.7397 38.8791 36.0946 38.914 36.3212 39.1406L36.9075 39.7269L38.0719 38.5625L37.4855 37.9761C37.259 37.7495 37.224 37.3946 37.4018 37.1281C37.9066 36.3715 38.2525 35.5371 38.4298 34.6478C38.4924 34.3337 38.7682 34.1073 39.0887 34.1073H39.9173V32.4606ZM36.1128 29.1291C37.2226 30.3267 37.7996 31.8848 37.7376 33.5166C37.6755 35.1482 36.9817 36.6579 35.784 37.7678C34.6448 38.8235 33.1793 39.397 31.6348 39.397C31.5555 39.397 31.4762 39.3955 31.3965 39.3925C28.0284 39.2644 25.3923 36.4197 25.5204 33.0515C25.5825 31.4197 26.2764 29.9099 27.474 28.8002C28.6717 27.6902 30.2286 27.1133 31.8615 27.1754C33.4932 27.2375 35.0029 27.9314 36.1128 29.1291ZM35.7438 32.9685L34.4081 31.5075C34.1577 31.2336 33.7328 31.2146 33.4588 31.465C33.1849 31.7154 33.1659 32.1404 33.4163 32.4143L34.3048 33.386L33.3449 34.2871C33.0744 34.5411 33.0611 34.9663 33.3151 35.2369C33.4474 35.3777 33.6259 35.4488 33.8051 35.4488C33.9699 35.4488 34.1352 35.3884 34.2649 35.2667L35.708 33.9116C35.9759 33.66 35.9919 33.2398 35.7438 32.9685ZM31.6793 35.3958L32.8624 31.5693C32.9721 31.2147 32.7735 30.8386 32.4191 30.729C32.0647 30.6189 31.6883 30.8179 31.5787 31.1723L30.3956 34.9988C30.286 35.3534 30.4846 35.7296 30.839 35.8392C30.9051 35.8596 30.9719 35.8693 31.0377 35.8693C31.3245 35.8693 31.5901 35.6842 31.6793 35.3958ZM27.5144 33.5998L28.8502 35.0607C28.9828 35.2057 29.1642 35.2792 29.3462 35.2792C29.5081 35.2792 29.6705 35.2211 29.7993 35.1031C30.0732 34.8528 30.0922 34.4278 29.8418 34.1539L28.9534 33.1823L29.9131 32.281C30.1836 32.027 30.1969 31.6018 29.9428 31.3313C29.689 31.0608 29.2637 31.0475 28.9931 31.3016L27.5501 32.6568C27.2822 32.9084 27.2663 33.3286 27.5144 33.5998ZM5.61336 2.20728C4.78309 2.20728 4.10769 2.88268 4.10769 3.71295C4.10769 4.54322 4.78309 5.21871 5.61336 5.21871C6.44363 5.21871 7.11895 4.54322 7.11895 3.71295C7.11895 2.88268 6.44355 2.20728 5.61336 2.20728Z" fill="#FFAD00"/>
</svg>
