<svg width="39" height="41" viewBox="0 0 39 41" fill="none" xmlns="http://www.w3.org/2000/svg">
<path d="M19.4171 9.68844C17.0927 9.68862 14.8342 10.4603 12.9957 11.8825C11.1573 13.3047 9.8429 15.2969 9.25875 17.5466C8.67461 19.7964 8.85375 22.1764 9.76807 24.3133C10.6824 26.4503 12.2802 28.2233 14.3108 29.3542V30.8727C14.0363 31.0707 13.8127 31.3311 13.6585 31.6325C13.5043 31.9339 13.4239 32.2676 13.4239 32.6061C13.4226 33.03 13.549 33.4444 13.7868 33.7953L13.7962 33.8067C13.5573 34.1628 13.4284 34.5813 13.4253 35.0101V35.1619C13.4267 35.6886 13.6162 36.1974 13.9597 36.5967C14.3031 36.9959 14.7779 37.2594 15.2985 37.3395C15.4978 38.1821 15.9745 38.9334 16.6521 39.4726C17.3297 40.0118 18.1688 40.3076 19.0348 40.3125H19.7947C20.6606 40.3073 21.4997 40.0113 22.1773 39.472C22.8548 38.9328 23.3316 38.1815 23.531 37.3388C24.0507 37.2578 24.5244 36.9941 24.8671 36.5951C25.2097 36.1961 25.3987 35.6879 25.4001 35.1619V35.0101C25.3972 34.5834 25.2694 34.167 25.0326 33.8121L25.0407 33.802C25.3496 33.3409 25.4677 32.7779 25.3699 32.2316C25.2722 31.6852 24.9663 31.198 24.5166 30.8727V29.3542C26.5483 28.2246 28.1475 26.4524 29.0631 24.3156C29.9787 22.1789 30.1588 19.7986 29.5753 17.5484C28.9918 15.2982 27.6777 13.3054 25.8391 11.8828C24.0006 10.4602 21.7417 9.68839 19.4171 9.68844ZM19.6119 15.2045C20.0592 15.2056 20.4919 15.3634 20.8349 15.6505C21.1779 15.9375 21.4095 16.3357 21.4894 16.7758C21.5693 17.2159 21.4924 17.67 21.2721 18.0593C21.0519 18.4486 20.7022 18.7484 20.2838 18.9066V30.4628H18.94V18.9066C18.5217 18.7484 18.172 18.4486 17.9517 18.0593C17.7315 17.67 17.6546 17.2159 17.7345 16.7758C17.8143 16.3357 18.0459 15.9375 18.3889 15.6505C18.7319 15.3634 19.1646 15.2056 19.6119 15.2045ZM14.5124 26.4316V24.3689C14.0909 24.2136 13.7374 23.9152 13.5135 23.5258C13.2896 23.1364 13.2096 22.6807 13.2874 22.2384C13.3652 21.796 13.5958 21.395 13.9391 21.1053C14.2824 20.8156 14.7165 20.6557 15.1657 20.6535C15.6149 20.6512 16.0505 20.8068 16.3967 21.093C16.7429 21.3792 16.9776 21.7779 17.0598 22.2195C17.142 22.6611 17.0665 23.1175 16.8465 23.5091C16.6265 23.9007 16.276 24.2026 15.8561 24.3622V26.1561L17.9389 28.2389C18.0661 28.3653 18.1385 28.5366 18.1405 28.7159V30.4628H16.7968V28.9914L14.7072 26.9086C14.6447 26.846 14.5952 26.7716 14.5617 26.6897C14.5283 26.6078 14.5115 26.52 14.5124 26.4316ZM19.7947 38.9688H19.0348C18.5327 38.9653 18.0431 38.8114 17.6293 38.527C17.2156 38.2425 16.8965 37.8406 16.7134 37.373H22.1153C21.9324 37.8405 21.6135 38.2425 21.1998 38.5269C20.7861 38.8114 20.2967 38.9653 19.7947 38.9688ZM24.0564 35.1619C24.0562 35.3919 23.9647 35.6124 23.8021 35.775C23.6395 35.9377 23.419 36.0291 23.189 36.0293H15.6364C15.4064 36.0291 15.1859 35.9377 15.0233 35.775C14.8607 35.6124 14.7692 35.3919 14.769 35.1619V35.0101C14.7688 34.8771 14.7991 34.7458 14.8577 34.6264H14.8618C15.088 34.7078 15.3268 34.7488 15.5672 34.7474H23.2602C23.5017 34.7487 23.7415 34.708 23.969 34.6271C24.0268 34.7458 24.0567 34.8761 24.0564 35.008V35.1619ZM23.7104 33.2645C23.578 33.356 23.4211 33.4052 23.2602 33.4056H15.5672C15.3859 33.406 15.2099 33.3446 15.0682 33.2315C14.9265 33.1185 14.8276 32.9605 14.7876 32.7837C14.7477 32.6068 14.7693 32.4217 14.8487 32.2587C14.9281 32.0958 15.0607 31.9647 15.2246 31.8872C15.2434 31.8755 15.2637 31.8664 15.285 31.8603C15.375 31.8251 15.4707 31.8069 15.5672 31.8066H23.2602C23.3568 31.8069 23.4525 31.8251 23.5424 31.8603C23.5612 31.872 23.5815 31.8811 23.6029 31.8872C23.7399 31.9507 23.8558 32.0522 23.9368 32.1796C24.0178 32.3071 24.0605 32.4551 24.0597 32.6061C24.0596 32.736 24.0278 32.864 23.9669 32.9787C23.906 33.0935 23.8179 33.1916 23.7104 33.2645ZM24.1605 22.0173V24.4428C24.1614 24.5303 24.1446 24.617 24.1111 24.6978C24.0776 24.7787 24.0281 24.8519 23.9657 24.9131L22.3733 26.5055V30.4628H21.0296V26.2233C21.0322 26.0454 21.1018 25.8751 21.2244 25.7463L22.8168 24.1606V22.0106C22.3999 21.8512 22.0522 21.5506 21.8342 21.1611C21.6163 20.7717 21.5419 20.3181 21.624 19.8794C21.7062 19.4407 21.9396 19.0448 22.2837 18.7606C22.6279 18.4764 23.0608 18.3219 23.5071 18.3242C23.9534 18.3264 24.3847 18.4852 24.726 18.7728C25.0673 19.0604 25.2968 19.4587 25.3745 19.8982C25.4523 20.3376 25.3733 20.7905 25.1515 21.1777C24.9297 21.565 24.5789 21.8621 24.1605 22.0173Z" fill="#FFAD00"/>
<path d="M2.8642 23.1911C3.18337 23.1889 3.4949 23.2887 3.75341 23.4759C4.01191 23.6631 4.20388 23.9279 4.30134 24.2318C4.57287 25.0816 4.91609 25.9067 5.3273 26.6983C5.47554 26.9831 5.52858 27.308 5.47864 27.6251C5.4287 27.9423 5.2784 28.2351 5.04981 28.4606C4.78356 28.7268 4.57236 29.0428 4.42826 29.3906C4.28416 29.7384 4.20999 30.1112 4.20999 30.4877C4.20999 30.8641 4.28416 31.2369 4.42826 31.5847C4.57236 31.9325 4.78356 32.2486 5.04981 32.5147L6.32638 33.7913C6.86543 34.3284 7.59562 34.6297 8.35661 34.6289C9.1176 34.6282 9.84718 34.3255 10.3852 33.7873C10.6107 33.56 10.9032 33.4112 11.2196 33.3626C11.3069 33.3491 11.3906 33.3185 11.466 33.2726C11.5413 33.2267 11.607 33.1664 11.6591 33.0952C11.7112 33.0239 11.7487 32.9431 11.7696 32.8574C11.7904 32.7716 11.7942 32.6826 11.7807 32.5953C11.7671 32.5081 11.7365 32.4244 11.6906 32.349C11.6447 32.2736 11.5845 32.208 11.5132 32.1559C11.442 32.1038 11.3611 32.0663 11.2754 32.0454C11.1896 32.0246 11.1006 32.0208 11.0134 32.0343C10.4133 32.1269 9.8587 32.4095 9.43111 32.8406C9.1408 33.1175 8.75498 33.272 8.35376 33.272C7.95253 33.272 7.56671 33.1175 7.27641 32.8406L5.99984 31.564C5.71428 31.2774 5.55422 30.8892 5.55485 30.4846C5.55548 30.0801 5.71675 29.6923 6.0032 29.4066C6.43323 28.9797 6.71536 28.4264 6.80832 27.8276C6.90129 27.2288 6.80021 26.616 6.51988 26.0788C6.14326 25.3547 5.8286 24.5999 5.57925 23.8227C5.39604 23.2473 5.03399 22.7454 4.54579 22.39C4.0576 22.0346 3.46873 21.8443 2.86487 21.8467C2.46108 21.8463 2.0739 21.6859 1.78824 21.4005C1.50259 21.1151 1.34177 20.728 1.34106 20.3242V18.5175C1.3416 18.1137 1.50224 17.7266 1.78777 17.4411C2.0733 17.1556 2.4604 16.9949 2.8642 16.9944C3.46794 16.9968 4.0567 16.8065 4.54487 16.4513C5.03304 16.096 5.39516 15.5943 5.57858 15.0191C5.82801 14.2429 6.14244 13.489 6.51853 12.7656C6.79904 12.2276 6.89989 11.614 6.8063 11.0145C6.71272 10.4151 6.42963 9.86135 5.9985 9.43447C5.71319 9.14865 5.55295 8.7613 5.55295 8.35745C5.55295 7.9536 5.71319 7.56626 5.9985 7.28044L7.27506 6.00387C7.41693 5.8623 7.58531 5.75007 7.77058 5.67361C7.95584 5.59715 8.15436 5.55795 8.35479 5.55826C8.55521 5.55857 8.75361 5.59839 8.93864 5.67543C9.12367 5.75246 9.2917 5.86522 9.43313 6.00723C9.8601 6.43717 10.4134 6.71923 11.0122 6.81219C11.6109 6.90516 12.2237 6.80414 12.7609 6.52391C13.485 6.14706 14.2398 5.83239 15.0171 5.58328C15.5924 5.40005 16.0942 5.03797 16.4495 4.54976C16.8048 4.06155 16.995 3.4727 16.9924 2.86891C16.9924 2.46487 17.1527 2.07735 17.4381 1.79141C17.7236 1.50546 18.1108 1.34446 18.5149 1.34375H20.3222C20.7259 1.34428 21.113 1.50495 21.3984 1.7905C21.6838 2.07605 21.8443 2.46315 21.8447 2.86689C21.8422 3.47074 22.0326 4.05961 22.388 4.54781C22.7434 5.03601 23.2453 5.39805 23.8207 5.58127C24.598 5.83037 25.3527 6.14504 26.0768 6.52189C26.6148 6.80218 27.2285 6.90292 27.8279 6.80934C28.4273 6.71577 28.981 6.4328 29.408 6.00186C29.694 5.71667 30.0814 5.55652 30.4853 5.55652C30.8892 5.55652 31.2767 5.71667 31.5627 6.00186L32.8392 7.27842C33.1248 7.565 33.2849 7.95325 33.2842 8.35781C33.2836 8.76238 33.1223 9.15013 32.8359 9.43581C32.4053 9.8628 32.1228 10.4164 32.0297 11.0156C31.9366 11.6149 32.0378 12.2281 32.3185 12.7656C32.695 13.4901 33.0097 14.245 33.2592 15.0225C33.4426 15.5977 33.8047 16.0994 34.2929 16.4546C34.781 16.8099 35.3698 17.0001 35.9735 16.9978C36.3773 16.9983 36.7644 17.1589 37.05 17.4445C37.3355 17.73 37.4961 18.1171 37.4967 18.5209V20.3242C37.4961 20.728 37.3355 21.1151 37.05 21.4007C36.7644 21.6862 36.3773 21.8468 35.9735 21.8474C35.3697 21.8449 34.7808 22.0353 34.2926 22.3906C33.8044 22.746 33.4424 23.248 33.2592 23.8233C33.0101 24.6007 32.6954 25.3554 32.3185 26.0795C32.0383 26.6176 31.9377 27.2313 32.0314 27.8307C32.1251 28.4301 32.4082 28.9837 32.8392 29.4107C33.1245 29.6965 33.2848 30.0838 33.2848 30.4877C33.2848 30.8915 33.1245 31.2789 32.8392 31.5647L31.5627 32.8413C31.2722 33.1196 30.8852 33.2746 30.4828 33.2739C30.0805 33.2731 29.6941 33.1166 29.4046 32.8372C28.9301 32.3629 28.3039 32.0706 27.6356 32.0115C27.5475 32.0027 27.4585 32.0117 27.374 32.0378C27.2894 32.0639 27.2109 32.1067 27.1431 32.1636C27.0753 32.2205 27.0196 32.2904 26.9792 32.3691C26.9388 32.4479 26.9146 32.534 26.9079 32.6222C26.8925 32.7997 26.9481 32.976 27.0626 33.1125C27.1772 33.2489 27.3412 33.3343 27.5187 33.3499C27.8744 33.3818 28.2074 33.5381 28.4593 33.7913C28.9974 34.3282 29.7265 34.6298 30.4867 34.6298C31.2468 34.6298 31.976 34.3282 32.514 33.7913L33.7906 32.5147C34.0572 32.2482 34.2685 31.9318 34.4127 31.5835C34.5568 31.2352 34.6308 30.8619 34.6305 30.485C34.6302 30.108 34.5555 29.7349 34.4108 29.3868C34.2662 29.0388 34.0542 28.7227 33.7873 28.4566C33.5599 28.2313 33.4105 27.9392 33.3611 27.6229C33.3116 27.3067 33.3647 26.9829 33.5125 26.699C33.9229 25.9071 34.2652 25.0818 34.5357 24.2318C34.633 23.9284 34.8246 23.6638 35.0826 23.4767C35.3405 23.2895 35.6515 23.1895 35.9702 23.1911C36.7302 23.1902 37.4589 22.8879 37.9964 22.3504C38.5338 21.813 38.8362 21.0843 38.8371 20.3242V18.5175C38.8362 17.7575 38.5338 17.0288 37.9964 16.4913C37.4589 15.9539 36.7302 15.6515 35.9702 15.6507C35.6515 15.6523 35.3405 15.5523 35.0826 15.3651C34.8246 15.178 34.633 14.9134 34.5357 14.6099C34.2638 13.7601 33.9206 12.9348 33.5098 12.1428C33.3616 11.8581 33.3086 11.5334 33.3585 11.2163C33.4085 10.8992 33.5587 10.6065 33.7873 10.3811C34.0535 10.115 34.2647 9.79897 34.4088 9.45116C34.5529 9.10335 34.6271 8.73057 34.6271 8.35409C34.6271 7.97762 34.5529 7.60483 34.4088 7.25703C34.2647 6.90922 34.0535 6.59321 33.7873 6.32705L32.5107 5.05048C31.9719 4.51313 31.2419 4.21165 30.4809 4.21228C29.72 4.21291 28.9904 4.5156 28.4526 5.05384C28.227 5.28099 27.9347 5.4301 27.6184 5.47942C27.3021 5.52873 26.9783 5.47567 26.6943 5.32797C25.903 4.91647 25.0784 4.57259 24.2292 4.3C23.9257 4.20289 23.6611 4.01148 23.4739 3.75361C23.2867 3.49573 23.1867 3.18486 23.1884 2.86622C23.1875 2.10632 22.8853 1.37781 22.3479 0.840478C21.8106 0.30315 21.0821 0.00088908 20.3222 0H18.5149C17.7548 0.00088908 17.0261 0.303221 16.4886 0.840675C15.9512 1.37813 15.6489 2.10682 15.648 2.86689C15.6496 3.18544 15.5496 3.49621 15.3624 3.75397C15.1752 4.01173 14.9107 4.20302 14.6072 4.3C13.7577 4.57217 12.9326 4.9156 12.1408 5.32663C11.8561 5.47481 11.5313 5.52782 11.2143 5.47788C10.8972 5.42794 10.6045 5.27767 10.3791 5.04914C9.84094 4.51237 9.11185 4.21093 8.35174 4.21093C7.59163 4.21093 6.86254 4.51237 6.32436 5.04914L5.0478 6.3257C4.78124 6.59221 4.56986 6.90866 4.42574 7.25695C4.28163 7.60524 4.2076 7.97853 4.20792 8.35546C4.20823 8.73239 4.28287 9.10556 4.42756 9.45361C4.57225 9.80166 4.78416 10.1178 5.05116 10.3838C5.27868 10.6092 5.42804 10.9015 5.47737 11.2179C5.5267 11.5343 5.4734 11.8582 5.32528 12.1421C4.91493 12.9344 4.57239 13.7599 4.30134 14.6099C4.20402 14.9134 4.01246 15.178 3.75449 15.3651C3.49652 15.5523 3.1856 15.6523 2.86689 15.6507C2.10682 15.6515 1.37813 15.9539 0.840675 16.4913C0.303221 17.0288 0.00088908 17.7575 0 18.5175V20.3242C0.000887371 21.0838 0.30285 21.8121 0.839723 22.3495C1.3766 22.8869 2.1046 23.1895 2.8642 23.1911Z" fill="#FFAD00"/>
<path d="M15.1894 22.0173C15.0778 22.0173 14.9686 22.0504 14.8758 22.1125C14.783 22.1745 14.7107 22.2626 14.668 22.3657C14.6252 22.4689 14.6141 22.5824 14.6358 22.6918C14.6576 22.8013 14.7114 22.9019 14.7903 22.9808C14.8692 23.0597 14.9698 23.1135 15.0793 23.1353C15.1887 23.157 15.3022 23.1459 15.4054 23.1031C15.5085 23.0604 15.5966 22.9881 15.6586 22.8953C15.7206 22.8025 15.7538 22.6933 15.7538 22.5817C15.7536 22.4321 15.6941 22.2886 15.5883 22.1828C15.4825 22.077 15.339 22.0175 15.1894 22.0173Z" fill="#FFAD00"/>
<path d="M19.6068 17.6838C19.7574 17.6838 19.9018 17.6239 20.0082 17.5175C20.1147 17.411 20.1745 17.2666 20.1745 17.116C20.1745 16.9654 20.1147 16.821 20.0082 16.7146C19.9018 16.6081 19.7574 16.5483 19.6068 16.5483C19.4562 16.5483 19.3118 16.6081 19.2053 16.7146C19.0989 16.821 19.0391 16.9654 19.0391 17.116C19.0391 17.2666 19.0989 17.411 19.2053 17.5175C19.3118 17.6239 19.4562 17.6838 19.6068 17.6838Z" fill="#FFAD00"/>
<path d="M23.4862 19.6591C23.3742 19.6597 23.2649 19.6935 23.1721 19.7561C23.0792 19.8188 23.007 19.9075 22.9645 20.0111C22.9219 20.1147 22.9109 20.2286 22.9329 20.3384C22.955 20.4482 23.009 20.549 23.0882 20.6282C23.1674 20.7074 23.2682 20.7614 23.378 20.7834C23.4878 20.8055 23.6017 20.7945 23.7053 20.7519C23.8089 20.7094 23.8976 20.6371 23.9603 20.5443C24.0229 20.4515 24.0567 20.3422 24.0573 20.2302C24.0576 20.1551 24.043 20.0807 24.0144 20.0113C23.9858 19.9419 23.9437 19.8788 23.8907 19.8257C23.8376 19.7727 23.7745 19.7306 23.7051 19.702C23.6357 19.6734 23.5613 19.6588 23.4862 19.6591Z" fill="#FFAD00"/>
</svg>
