<svg width="43" height="43" viewBox="0 0 43 43" fill="none" xmlns="http://www.w3.org/2000/svg">
<path d="M41.8733 22.6303C41.8734 23.5637 41.8098 24.496 41.683 25.4206L39.4879 25.9724L37.6906 26.4253C37.2817 28.1823 36.5865 29.8601 35.633 31.3914L36.5848 32.9841L37.7438 34.9262C36.6159 36.4156 35.2886 37.7428 33.7993 38.8707L31.8572 37.7117L30.2641 36.76C28.7324 37.7133 27.0548 38.4093 25.2981 38.8201L24.845 40.6148L24.2907 42.8099C22.4408 43.0629 20.565 43.0629 18.715 42.8099L18.1607 40.6148L17.7077 38.8197C15.9509 38.4089 14.2733 37.7129 12.7416 36.7595L11.149 37.7113L9.2069 38.8703C7.71755 37.7425 6.3903 36.4152 5.26241 34.9259L6.42139 32.9838L7.37352 31.3939C6.42015 29.8613 5.72422 28.1829 5.31339 26.4253L3.51822 25.9724L1.32321 25.4206C1.19631 24.496 1.13269 23.5637 1.13281 22.6303H8.3181C8.3181 26.1272 9.70722 29.4809 12.1799 31.9535C14.6525 34.4262 18.0062 35.8153 21.5031 35.8153C24.9999 35.8153 28.3536 34.4262 30.8262 31.9535C33.2989 29.4809 34.688 26.1272 34.688 22.6303H41.8733ZM21.0958 31.2397C21.0424 31.2929 21 31.3562 20.971 31.4258C20.9421 31.4955 20.9272 31.5702 20.9272 31.6456C20.9272 31.7211 20.9421 31.7958 20.971 31.8654C21 31.9351 21.0424 31.9984 21.0958 32.0516C21.1762 32.132 21.2786 32.1868 21.3901 32.2091C21.5016 32.2314 21.6172 32.2202 21.7223 32.177C21.8275 32.1337 21.9174 32.0602 21.9809 31.9659C22.0444 31.8715 22.0785 31.7605 22.0789 31.6468C22.0789 31.5329 22.0451 31.4216 21.9819 31.3269C21.9186 31.2322 21.8286 31.1584 21.7234 31.1148C21.6182 31.0712 21.5024 31.0598 21.3907 31.082C21.279 31.1043 21.1763 31.1591 21.0958 31.2397ZM16.1925 28.9265V27.4952L14.0576 26.7001C13.9316 26.6652 13.8204 26.5901 13.7412 26.4861C13.662 26.382 13.6191 26.2549 13.619 26.1242V22.6304H9.50379C9.50379 25.8129 10.768 28.865 13.0184 31.1154C15.2687 33.3657 18.3208 34.6299 21.5033 34.6299C24.6858 34.6299 27.7379 33.3657 29.9882 31.1154C32.2386 28.865 33.5028 25.8129 33.5028 22.6304H29.3876V26.1242C29.3875 26.2549 29.3446 26.382 29.2654 26.4861C29.1862 26.5901 29.075 26.6652 28.949 26.7001L26.8141 27.4952V28.9265C27.2059 29.0663 27.5358 29.34 27.7454 29.6994C27.955 30.0587 28.0309 30.4805 27.9597 30.8904C27.8885 31.3003 27.6748 31.6718 27.3563 31.9394C27.0378 32.2071 26.635 32.3535 26.219 32.353C25.8702 32.3528 25.5293 32.2491 25.2393 32.0552C24.9493 31.8614 24.7233 31.5859 24.5897 31.2636C24.4562 30.9414 24.4211 30.5868 24.489 30.2446C24.5568 29.9025 24.7245 29.5881 24.9708 29.3411C25.1557 29.1569 25.3786 29.0155 25.6239 28.9267V27.0832H25.6263C25.627 26.9624 25.6646 26.8446 25.7338 26.7456C25.8031 26.6466 25.9009 26.571 26.0142 26.5289L28.1973 25.7142V22.6303H22.0982V29.9843C22.489 30.1244 22.8178 30.398 23.0266 30.7568C23.2355 31.1157 23.311 31.5367 23.2399 31.9457C23.1688 32.3548 22.9556 32.7256 22.6378 32.9928C22.3201 33.2601 21.9182 33.4066 21.5031 33.4066C21.0879 33.4066 20.686 33.2601 20.3683 32.9928C20.0505 32.7256 19.8373 32.3548 19.7662 31.9457C19.6951 31.5367 19.7706 31.1157 19.9795 30.7568C20.1883 30.398 20.5171 30.1244 20.9079 29.9843V22.6303H14.8095V25.7146L16.9926 26.5292C17.1059 26.5713 17.2036 26.6469 17.2729 26.7459C17.3422 26.8449 17.3797 26.9627 17.3805 27.0835V28.9268C17.7709 29.0667 18.0993 29.3399 18.308 29.6982C18.5167 30.0566 18.5921 30.4771 18.5211 30.8856C18.4502 31.2941 18.2372 31.6645 17.9199 31.9314C17.6026 32.1984 17.2012 32.3447 16.7866 32.3447C16.3719 32.3447 15.9706 32.1984 15.6532 31.9314C15.3359 31.6645 15.123 31.2941 15.052 30.8856C14.981 30.4771 15.0565 30.0566 15.2652 29.6982C15.4738 29.3399 15.8023 29.0667 16.1926 28.9268L16.1925 28.9265ZM25.8137 30.1819C25.747 30.2486 25.6978 30.3308 25.6704 30.4211C25.643 30.5114 25.6383 30.6071 25.6567 30.6996C25.675 30.7922 25.716 30.8788 25.7758 30.9518C25.8356 31.0247 25.9125 31.0819 25.9996 31.1181C26.0868 31.1543 26.1815 31.1684 26.2754 31.1593C26.3694 31.1502 26.4596 31.118 26.5381 31.0657C26.6167 31.0134 26.6811 30.9425 26.7258 30.8594C26.7704 30.7763 26.7939 30.6834 26.7941 30.589C26.7944 30.4753 26.761 30.3639 26.6979 30.2692C26.6349 30.1745 26.5452 30.1006 26.4401 30.057C26.335 30.0134 26.2193 30.002 26.1078 30.0242C25.9962 30.0464 25.8937 30.1013 25.8134 30.1819H25.8137ZM17.1924 30.9938C17.2725 30.9135 17.3271 30.8113 17.3493 30.7001C17.3714 30.5888 17.3601 30.4734 17.3168 30.3686C17.2736 30.2637 17.2002 30.174 17.106 30.1108C17.0118 30.0475 16.901 30.0135 16.7876 30.0132H16.7851C16.6716 30.0132 16.5606 30.047 16.4662 30.1102C16.3718 30.1734 16.2982 30.2631 16.2549 30.3681C16.2115 30.4731 16.2002 30.5886 16.2225 30.7C16.2448 30.8113 16.2996 30.9136 16.38 30.9938C16.4332 31.0473 16.4965 31.0898 16.5662 31.1187C16.6359 31.1477 16.7106 31.1626 16.786 31.1626C16.8615 31.1626 16.9362 31.1477 17.0059 31.1187C17.0756 31.0898 17.1388 31.0473 17.1921 30.9938H17.1924ZM23.8644 16.4021H19.1393V21.4405H23.8644V16.4021ZM14.0143 21.44H6.41451V6.36602H14.0143V21.44ZM11.5323 17.139H8.89633V19.7727H11.5323V17.139ZM11.5323 12.5871H8.89633V15.2207H11.5323V12.5871ZM11.5323 8.03302H8.89633V10.6691H11.5323V8.03302ZM17.9514 21.44H15.2042V3.1107H27.8019V21.44H25.0548V15.8065C25.0548 15.7284 25.0394 15.651 25.0095 15.5787C24.9796 15.5065 24.9357 15.4409 24.8805 15.3856C24.8252 15.3304 24.7596 15.2865 24.6873 15.2566C24.6151 15.2268 24.5377 15.2114 24.4596 15.2114H18.5441C18.3866 15.2118 18.2357 15.2747 18.1246 15.3863C18.0135 15.4979 17.9512 15.649 17.9514 15.8065V21.44ZM22.0982 8.44043H25.4884V6.54431H22.0982V8.44043ZM22.0982 11.527H25.4884V9.63091H22.0982V11.527ZM17.5177 8.44043H20.9079V6.54431H17.5177V8.44043ZM17.5177 11.527H20.9079V9.63091H17.5177V11.527ZM36.5916 21.44H28.9919V6.36602H36.5916V21.44ZM34.1073 17.139H31.4738V19.7727H34.1073V17.139ZM34.1073 12.5871H31.4738V15.2207H34.1073V12.5871ZM34.1073 8.03302H31.4738V10.6691H34.1073V8.03302ZM25.6547 0H17.3515V1.92039H25.6547V0Z" fill="#FFAD00"/>
</svg>
