<svg width="43" height="43" viewBox="0 0 43 43" fill="none" xmlns="http://www.w3.org/2000/svg">
<path d="M22.8438 30.9062H25.5312V32.25H22.8438V30.9062Z" fill="#FFAD00"/>
<path d="M5.375 25.5312H6.71875V26.875H5.375V25.5312Z" fill="#FFAD00"/>
<path d="M10.75 25.5312H12.0938V26.875H10.75V25.5312Z" fill="#FFAD00"/>
<path d="M9.40625 30.9062H21.5V32.25H9.40625V30.9062Z" fill="#FFAD00"/>
<path d="M5.375 36.2812H6.71875V37.625H5.375V36.2812Z" fill="#FFAD00"/>
<path d="M14.7812 23.5156V22.8438H3.35938C3.18118 22.8438 3.01029 22.9145 2.88429 23.0405C2.75829 23.1665 2.6875 23.3374 2.6875 23.5156V28.8906C2.6875 29.0688 2.75829 29.2397 2.88429 29.3657C3.01029 29.4917 3.18118 29.5625 3.35938 29.5625H27.5469C27.7251 29.5625 27.896 29.4917 28.022 29.3657C28.148 29.2397 28.2188 29.0688 28.2188 28.8906V25.5312H16.7969C16.2628 25.5297 15.751 25.3168 15.3734 24.9391C14.9957 24.5615 14.7828 24.0497 14.7812 23.5156ZM8.0625 27.5469C8.0625 27.7251 7.99171 27.896 7.86571 28.022C7.73971 28.148 7.56882 28.2188 7.39062 28.2188H4.70312C4.52493 28.2188 4.35404 28.148 4.22804 28.022C4.10204 27.896 4.03125 27.7251 4.03125 27.5469V24.8594C4.03125 24.6812 4.10204 24.5103 4.22804 24.3843C4.35404 24.2583 4.52493 24.1875 4.70312 24.1875H7.39062C7.56882 24.1875 7.73971 24.2583 7.86571 24.3843C7.99171 24.5103 8.0625 24.6812 8.0625 24.8594V27.5469ZM13.4375 27.5469C13.4375 27.7251 13.3667 27.896 13.2407 28.022C13.1147 28.148 12.9438 28.2188 12.7656 28.2188H10.0781C9.89993 28.2188 9.72904 28.148 9.60304 28.022C9.47704 27.896 9.40625 27.7251 9.40625 27.5469V24.8594C9.40625 24.6812 9.47704 24.5103 9.60304 24.3843C9.72904 24.2583 9.89993 24.1875 10.0781 24.1875H12.7656C12.9438 24.1875 13.1147 24.2583 13.2407 24.3843C13.3667 24.5103 13.4375 24.6812 13.4375 24.8594V27.5469ZM25.5312 26.875H26.875V28.2188H25.5312V26.875ZM24.1875 28.2188H14.7812V26.875H24.1875V28.2188Z" fill="#FFAD00"/>
<path d="M10.75 36.2812H12.0938V37.625H10.75V36.2812Z" fill="#FFAD00"/>
<path d="M2.6875 34.2656V39.6406C2.6875 39.8188 2.75829 39.9897 2.88429 40.1157C3.01029 40.2417 3.18118 40.3125 3.35938 40.3125H27.5469C27.7251 40.3125 27.896 40.2417 28.022 40.1157C28.148 39.9897 28.2188 39.8188 28.2188 39.6406V34.2656C28.2188 34.0874 28.148 33.9165 28.022 33.7905C27.896 33.6645 27.7251 33.5938 27.5469 33.5938H3.35938C3.18118 33.5938 3.01029 33.6645 2.88429 33.7905C2.75829 33.9165 2.6875 34.0874 2.6875 34.2656ZM25.5312 34.9375H26.875V36.2812H25.5312V34.9375ZM25.5312 37.625H26.875V38.9688H25.5312V37.625ZM14.7812 34.9375H24.1875V36.2812H14.7812V34.9375ZM14.7812 37.625H24.1875V38.9688H14.7812V37.625ZM9.40625 35.6094C9.40625 35.4312 9.47704 35.2603 9.60304 35.1343C9.72904 35.0083 9.89993 34.9375 10.0781 34.9375H12.7656C12.9438 34.9375 13.1147 35.0083 13.2407 35.1343C13.3667 35.2603 13.4375 35.4312 13.4375 35.6094V38.2969C13.4375 38.4751 13.3667 38.646 13.2407 38.772C13.1147 38.898 12.9438 38.9688 12.7656 38.9688H10.0781C9.89993 38.9688 9.72904 38.898 9.60304 38.772C9.47704 38.646 9.40625 38.4751 9.40625 38.2969V35.6094ZM4.03125 35.6094C4.03125 35.4312 4.10204 35.2603 4.22804 35.1343C4.35404 35.0083 4.52493 34.9375 4.70312 34.9375H7.39062C7.56882 34.9375 7.73971 35.0083 7.86571 35.1343C7.99171 35.2603 8.0625 35.4312 8.0625 35.6094V38.2969C8.0625 38.4751 7.99171 38.646 7.86571 38.772C7.73971 38.898 7.56882 38.9688 7.39062 38.9688H4.70312C4.52493 38.9688 4.35404 38.898 4.22804 38.772C4.10204 38.646 4.03125 38.4751 4.03125 38.2969V35.6094Z" fill="#FFAD00"/>
<path d="M5.375 30.9062H8.0625V32.25H5.375V30.9062Z" fill="#FFAD00"/>
<path d="M16.125 23.5156C16.125 23.6938 16.1958 23.8647 16.3218 23.9907C16.4478 24.1167 16.6187 24.1875 16.7969 24.1875H39.6406C39.8188 24.1875 39.9897 24.1167 40.1157 23.9907C40.2417 23.8647 40.3125 23.6938 40.3125 23.5156V8.0625H16.125V23.5156ZM31.1031 12.5688L32.0531 11.6187L36.0844 15.65C36.2103 15.776 36.2811 15.9468 36.2811 16.125C36.2811 16.3032 36.2103 16.474 36.0844 16.6L32.0531 20.6313L31.1031 19.6812L34.6593 16.125L31.1031 12.5688ZM29.5974 9.86581L30.874 10.2904L26.8427 22.3842L25.5662 21.9596L29.5974 9.86581ZM20.3531 15.65L24.3844 11.6187L25.3344 12.5688L21.7782 16.125L25.3344 19.6812L24.3844 20.6313L20.3531 16.6C20.2272 16.474 20.1564 16.3032 20.1564 16.125C20.1564 15.9468 20.2272 15.776 20.3531 15.65Z" fill="#FFAD00"/>
<path d="M10.75 14.7812H12.0938V16.125H10.75V14.7812Z" fill="#FFAD00"/>
<path d="M9.40625 20.1562H14.7812V21.5H9.40625V20.1562Z" fill="#FFAD00"/>
<path d="M39.6406 2.6875H16.7969C16.6187 2.6875 16.4478 2.75829 16.3218 2.88429C16.1958 3.01029 16.125 3.18118 16.125 3.35938V6.71875H40.3125V3.35938C40.3125 3.18118 40.2417 3.01029 40.1157 2.88429C39.9897 2.75829 39.8188 2.6875 39.6406 2.6875ZM33.5938 5.375H32.25V4.03125H33.5938V5.375ZM36.2812 5.375H34.9375V4.03125H36.2812V5.375ZM38.9688 5.375H37.625V4.03125H38.9688V5.375Z" fill="#FFAD00"/>
<path d="M5.375 20.1562H8.0625V21.5H5.375V20.1562Z" fill="#FFAD00"/>
<path d="M5.375 14.7812H6.71875V16.125H5.375V14.7812Z" fill="#FFAD00"/>
<path d="M14.7812 12.0938H3.35938C3.18118 12.0938 3.01029 12.1645 2.88429 12.2905C2.75829 12.4165 2.6875 12.5874 2.6875 12.7656V18.1406C2.6875 18.3188 2.75829 18.4897 2.88429 18.6157C3.01029 18.7417 3.18118 18.8125 3.35938 18.8125H14.7812V12.0938ZM8.0625 16.7969C8.0625 16.9751 7.99171 17.146 7.86571 17.272C7.73971 17.398 7.56882 17.4688 7.39062 17.4688H4.70312C4.52493 17.4688 4.35404 17.398 4.22804 17.272C4.10204 17.146 4.03125 16.9751 4.03125 16.7969V14.1094C4.03125 13.9312 4.10204 13.7603 4.22804 13.6343C4.35404 13.5083 4.52493 13.4375 4.70312 13.4375H7.39062C7.56882 13.4375 7.73971 13.5083 7.86571 13.6343C7.99171 13.7603 8.0625 13.9312 8.0625 14.1094V16.7969ZM13.4375 16.7969C13.4375 16.9751 13.3667 17.146 13.2407 17.272C13.1147 17.398 12.9438 17.4688 12.7656 17.4688H10.0781C9.89993 17.4688 9.72904 17.398 9.60304 17.272C9.47704 17.146 9.40625 16.9751 9.40625 16.7969V14.1094C9.40625 13.9312 9.47704 13.7603 9.60304 13.6343C9.72904 13.5083 9.89993 13.4375 10.0781 13.4375H12.7656C12.9438 13.4375 13.1147 13.5083 13.2407 13.6343C13.3667 13.7603 13.4375 13.9312 13.4375 14.1094V16.7969Z" fill="#FFAD00"/>
</svg>
