<svg width="25" height="25" viewBox="0 0 25 25" fill="none" xmlns="http://www.w3.org/2000/svg">
<rect width="25" height="25" rx="5" fill="#FFF4DA"/>
<g clip-path="url(#clip0_630_42543)">
<path fill-rule="evenodd" clip-rule="evenodd" d="M20.0625 7.5C20.0625 6.555 19.6875 5.649 19.0192 4.98075C18.351 4.3125 17.445 3.9375 16.5 3.9375H7.5C6.555 3.9375 5.649 4.3125 4.98075 4.98075C4.3125 5.649 3.9375 6.555 3.9375 7.5V16.5C3.9375 17.445 4.3125 18.351 4.98075 19.0192C5.649 19.6875 6.555 20.0625 7.5 20.0625H16.5C17.445 20.0625 18.351 19.6875 19.0192 19.0192C19.6875 18.351 20.0625 17.445 20.0625 16.5V7.5ZM18.9375 7.5V16.5C18.9375 17.1465 18.681 17.7668 18.2235 18.2235C17.7668 18.681 17.1465 18.9375 16.5 18.9375H7.5C6.8535 18.9375 6.23325 18.681 5.7765 18.2235C5.319 17.7668 5.0625 17.1465 5.0625 16.5V7.5C5.0625 6.8535 5.319 6.23325 5.7765 5.7765C6.23325 5.319 6.8535 5.0625 7.5 5.0625H16.5C17.1465 5.0625 17.7668 5.319 18.2235 5.7765C18.681 6.23325 18.9375 6.8535 18.9375 7.5Z" fill="#FFAD00"/>
<path fill-rule="evenodd" clip-rule="evenodd" d="M12.366 9.12224L10.566 14.5222C10.4685 14.817 10.6275 15.1357 10.9223 15.234C11.217 15.3315 11.5358 15.1725 11.634 14.8777L13.434 9.47774C13.5315 9.18299 13.3725 8.86424 13.0778 8.76599C12.783 8.66849 12.4643 8.82749 12.366 9.12224Z" fill="#FFAD00"/>
<path fill-rule="evenodd" clip-rule="evenodd" d="M14.3025 10.5975L15.7043 12L14.3025 13.4025C14.0828 13.6215 14.0828 13.9785 14.3025 14.1975C14.5215 14.4173 14.8785 14.4173 15.0975 14.1975L16.8975 12.3975C17.1173 12.1778 17.1173 11.8223 16.8975 11.6025L15.0975 9.80251C14.8785 9.58276 14.5215 9.58276 14.3025 9.80251C14.0828 10.0215 14.0828 10.3785 14.3025 10.5975Z" fill="#FFAD00"/>
<path fill-rule="evenodd" clip-rule="evenodd" d="M8.90256 9.80251L7.10256 11.6025C6.88281 11.8223 6.88281 12.1778 7.10256 12.3975L8.90256 14.1975C9.12156 14.4173 9.47856 14.4173 9.69756 14.1975C9.91731 13.9785 9.91731 13.6215 9.69756 13.4025L8.29581 12L9.69756 10.5975C9.91731 10.3785 9.91731 10.0215 9.69756 9.80251C9.47856 9.58276 9.12156 9.58276 8.90256 9.80251Z" fill="#FFAD00"/>
</g>
<defs>
<clipPath id="clip0_630_42543">
<rect width="18" height="18" fill="white" transform="translate(3 3)"/>
</clipPath>
</defs>
</svg>
