<svg width="36" height="36" viewBox="0 0 36 36" fill="none" xmlns="http://www.w3.org/2000/svg">
<path fill-rule="evenodd" clip-rule="evenodd" d="M35.8333 7.16667H0V33.1458C0 33.8586 0.283147 34.5422 0.787151 35.0462C1.29115 35.5502 1.97473 35.8333 2.6875 35.8333H33.1458C33.8586 35.8333 34.5422 35.5502 35.0462 35.0462C35.5502 34.5422 35.8333 33.8586 35.8333 33.1458V7.16667ZM19.7083 25.0833H22.0285L23.5515 26.6152C23.6347 26.6992 23.7338 26.7658 23.843 26.8113C23.9521 26.8568 24.0692 26.8802 24.1875 26.8802C24.3058 26.8802 24.4228 26.8568 24.532 26.8113C24.6412 26.7658 24.7403 26.6992 24.8235 26.6152L26.3465 25.0833H29.5625C30.2753 25.0833 30.9588 24.8002 31.4628 24.2962C31.9669 23.7922 32.25 23.1086 32.25 22.3958V11.6458C32.25 10.9331 31.9669 10.2495 31.4628 9.74548C30.9588 9.24148 30.2753 8.95833 29.5625 8.95833H18.8125C18.0997 8.95833 17.4162 9.24148 16.9121 9.74548C16.4081 10.2495 16.125 10.9331 16.125 11.6458V14.3333H6.27083C5.55806 14.3333 4.87449 14.6165 4.37048 15.1205C3.86648 15.6245 3.58333 16.3081 3.58333 17.0208V27.7708C3.58333 28.4836 3.86648 29.1672 4.37048 29.6712C4.87449 30.1752 5.55806 30.4583 6.27083 30.4583H9.48687L11.0098 31.9902C11.0931 32.0742 11.1922 32.1408 11.3013 32.1863C11.4105 32.2318 11.5276 32.2552 11.6458 32.2552C11.7641 32.2552 11.8812 32.2318 11.9903 32.1863C12.0995 32.1408 12.1986 32.0742 12.2819 31.9902L13.8048 30.4583H17.0208C17.7336 30.4583 18.4172 30.1752 18.9212 29.6712C19.4252 29.1672 19.7083 28.4836 19.7083 27.7708V25.0833ZM10.4902 28.9265C10.4065 28.8434 10.3072 28.7777 10.1981 28.7332C10.0889 28.6886 9.97206 28.666 9.85417 28.6667H6.27083C6.03324 28.6667 5.80539 28.5723 5.63738 28.4043C5.46938 28.2363 5.375 28.0084 5.375 27.7708V17.0208C5.375 16.7832 5.46938 16.5554 5.63738 16.3874C5.80539 16.2194 6.03324 16.125 6.27083 16.125H17.0208C17.2584 16.125 17.4863 16.2194 17.6543 16.3874C17.8223 16.5554 17.9167 16.7832 17.9167 17.0208V27.7708C17.9167 28.0084 17.8223 28.2363 17.6543 28.4043C17.4863 28.5723 17.2584 28.6667 17.0208 28.6667H13.4375C13.3196 28.666 13.2027 28.6886 13.0936 28.7332C12.9844 28.7777 12.8852 28.8434 12.8015 28.9265L11.6458 30.091L10.4902 28.9265ZM15.3815 24.8683C15.9942 23.9425 16.2413 22.8221 16.0747 21.7244C15.9082 20.6267 15.34 19.63 14.4802 18.9276C13.6204 18.2251 12.5304 17.867 11.4215 17.9227C10.3127 17.9784 9.26406 18.4439 8.479 19.229C7.69395 20.0141 7.22842 21.0627 7.17273 22.1716C7.11703 23.2804 7.47513 24.3704 8.17757 25.2302C8.88001 26.09 9.87672 26.6582 10.9744 26.8247C12.0721 26.9913 13.1925 26.7442 14.1183 26.1315L14.5931 26.6152C14.7618 26.7839 14.9906 26.8787 15.2292 26.8787C15.4677 26.8787 15.6965 26.7839 15.8652 26.6152C16.0339 26.4465 16.1287 26.2177 16.1287 25.9792C16.1287 25.7406 16.0339 25.5118 15.8652 25.3431L15.3815 24.8683ZM12.8015 24.8235C12.4395 24.9925 12.0453 25.0811 11.6458 25.0833C11.1143 25.0833 10.5947 24.9257 10.1527 24.6304C9.71078 24.3351 9.36632 23.9154 9.16291 23.4243C8.9595 22.9332 8.90627 22.3929 9.00997 21.8715C9.11367 21.3502 9.36963 20.8713 9.74548 20.4955C10.1213 20.1196 10.6002 19.8637 11.1215 19.76C11.6429 19.6563 12.1832 19.7095 12.6743 19.9129C13.1654 20.1163 13.5851 20.4608 13.8804 20.9027C14.1757 21.3447 14.3333 21.8643 14.3333 22.3958C14.3311 22.7953 14.2425 23.1895 14.0735 23.5515L13.1777 22.6556C13.009 22.4869 12.7802 22.3922 12.5417 22.3922C12.3031 22.3922 12.0743 22.4869 11.9056 22.6556C11.7369 22.8243 11.6422 23.0531 11.6422 23.2917C11.6422 23.5302 11.7369 23.759 11.9056 23.9277L12.8015 24.8235ZM17.9167 14.4856C18.4409 14.671 18.8947 15.0143 19.2156 15.4684C19.5365 15.9224 19.7086 16.4648 19.7083 17.0208V23.2917H22.3958C22.5137 23.291 22.6306 23.3136 22.7397 23.3582C22.8489 23.4027 22.9482 23.4684 23.0319 23.5515L24.1875 24.716L25.3431 23.5515C25.4268 23.4684 25.5261 23.4027 25.6352 23.3582C25.7444 23.3136 25.8613 23.291 25.9792 23.2917H29.5625C29.8001 23.2917 30.0279 23.1973 30.1959 23.0293C30.364 22.8613 30.4583 22.6334 30.4583 22.3958V11.6458C30.4583 11.4082 30.364 11.1804 30.1959 11.0124C30.0279 10.8444 29.8001 10.75 29.5625 10.75H18.8125C18.5749 10.75 18.347 10.8444 18.179 11.0124C18.011 11.1804 17.9167 11.4082 17.9167 11.6458V14.4856ZM25.2446 18.8125L26.0329 20.9356C26.1161 21.159 26.2845 21.3401 26.5013 21.4392C26.718 21.5384 26.9652 21.5473 27.1885 21.4642C27.4119 21.381 27.593 21.2125 27.6921 20.9958C27.7913 20.7791 27.8002 20.5319 27.7171 20.3085L25.0296 13.1419C24.9668 12.9689 24.8523 12.8195 24.7017 12.7139C24.551 12.6083 24.3715 12.5517 24.1875 12.5517C24.0035 12.5517 23.824 12.6083 23.6733 12.7139C23.5227 12.8195 23.4082 12.9689 23.3454 13.1419L20.6579 20.3085C20.5748 20.5319 20.5837 20.7791 20.6828 20.9958C20.782 21.2125 20.9631 21.381 21.1865 21.4642C21.4098 21.5473 21.657 21.5384 21.8737 21.4392C22.0905 21.3401 22.2589 21.159 22.3421 20.9356L23.1304 18.8125H25.2446ZM24.5727 17.0208H23.8023L24.1875 15.9906L24.5727 17.0208ZM24.2412 0H2.6875C1.97473 0 1.29115 0.283147 0.787151 0.787151C0.283147 1.29115 0 1.97473 0 2.6875V5.375H18.4631L24.2412 0ZM26.875 0L21.0879 5.375H35.8333V2.6875C35.8333 1.97473 35.5502 1.29115 35.0462 0.787151C34.5422 0.283147 33.8586 0 33.1458 0H26.875ZM26.875 1.79167C27.0522 1.79167 27.2254 1.84421 27.3727 1.94264C27.52 2.04108 27.6348 2.18099 27.7026 2.34468C27.7704 2.50837 27.7882 2.68849 27.7536 2.86227C27.7191 3.03604 27.6337 3.19567 27.5084 3.32095C27.3832 3.44623 27.2235 3.53155 27.0498 3.56612C26.876 3.60069 26.6959 3.58295 26.5322 3.51514C26.3685 3.44734 26.2286 3.33252 26.1301 3.1852C26.0317 3.03788 25.9792 2.86468 25.9792 2.6875C25.9792 2.44991 26.0735 2.22205 26.2415 2.05405C26.4095 1.88605 26.6374 1.79167 26.875 1.79167ZM29.5625 1.79167C29.7397 1.79167 29.9129 1.84421 30.0602 1.94264C30.2075 2.04108 30.3223 2.18099 30.3901 2.34468C30.4579 2.50837 30.4757 2.68849 30.4411 2.86227C30.4066 3.03604 30.3212 3.19567 30.1959 3.32095C30.0707 3.44623 29.911 3.53155 29.7373 3.56612C29.5635 3.60069 29.3834 3.58295 29.2197 3.51514C29.056 3.44734 28.9161 3.33252 28.8176 3.1852C28.7192 3.03788 28.6667 2.86468 28.6667 2.6875C28.6667 2.44991 28.761 2.22205 28.929 2.05405C29.097 1.88605 29.3249 1.79167 29.5625 1.79167ZM32.25 1.79167C32.4272 1.79167 32.6004 1.84421 32.7477 1.94264C32.895 2.04108 33.0098 2.18099 33.0776 2.34468C33.1454 2.50837 33.1632 2.68849 33.1286 2.86227C33.0941 3.03604 33.0087 3.19567 32.8834 3.32095C32.7582 3.44623 32.5985 3.53155 32.4248 3.56612C32.251 3.60069 32.0709 3.58295 31.9072 3.51514C31.7435 3.44734 31.6036 3.33252 31.5051 3.1852C31.4067 3.03788 31.3542 2.86468 31.3542 2.6875C31.3542 2.44991 31.4485 2.22205 31.6165 2.05405C31.7845 1.88605 32.0124 1.79167 32.25 1.79167ZM4.47917 3.58333H9.85417C10.0918 3.58333 10.3196 3.48895 10.4876 3.32095C10.6556 3.15295 10.75 2.92509 10.75 2.6875C10.75 2.44991 10.6556 2.22205 10.4876 2.05405C10.3196 1.88605 10.0918 1.79167 9.85417 1.79167H4.47917C4.24158 1.79167 4.01372 1.88605 3.84572 2.05405C3.67772 2.22205 3.58333 2.44991 3.58333 2.6875C3.58333 2.92509 3.67772 3.15295 3.84572 3.32095C4.01372 3.48895 4.24158 3.58333 4.47917 3.58333Z" fill="#FFAD00"/>
</svg>
