<svg width="42" height="42" viewBox="0 0 42 42" fill="none" xmlns="http://www.w3.org/2000/svg">
<path d="M0.796916 25.3755C0.795742 26.4872 1.15228 27.57 1.81365 28.4642L1.90993 28.5955H1.91032C2.04964 28.7728 2.19915 28.9424 2.35726 29.1029L2.45353 29.1904H2.45393C2.59481 29.3252 2.74393 29.451 2.90087 29.567L3.04998 29.6807C3.23353 29.8045 3.42374 29.9186 3.61981 30.0217L3.76893 30.1006C3.95287 30.1908 4.14308 30.2666 4.33876 30.328L4.45265 30.3717C4.67847 30.4455 4.91016 30.5014 5.14498 30.5381H5.31171C5.55788 30.585 5.80679 30.6143 6.05688 30.6256H26.2202V24.5005H0.796875L0.796916 25.3755ZM19.2069 26.2505C19.5615 26.2505 19.8813 26.4638 20.0167 26.7907C20.1525 27.1177 20.0777 27.4939 19.8269 27.7443C19.576 27.9947 19.1991 28.0693 18.8715 27.9337C18.5439 27.7986 18.3303 27.4794 18.3303 27.1255C18.3303 26.6423 18.7228 26.2505 19.2069 26.2505Z" fill="#FFB81D"/>
<path d="M37.6168 17.5012V12.6449C36.9769 12.9633 36.2717 13.1281 35.5567 13.1262H35.0483C33.5298 13.1262 32.1056 12.3925 31.2259 11.1573C31.1069 11.3276 30.975 11.4882 30.8314 11.6386C29.8447 12.6988 28.4206 13.2417 26.9767 13.1077C25.5334 12.9741 24.2336 12.1792 23.4587 10.9561C22.4686 12.3127 20.8887 13.1151 19.2069 13.1151C17.5251 13.1151 15.9451 12.3127 14.955 10.9561C14.1801 12.1791 12.8803 12.9741 11.437 13.1077C9.99323 13.2417 8.56903 12.6987 7.58235 11.6386C7.43872 11.4882 7.30683 11.3276 7.18785 11.1573C6.30806 12.3925 4.88387 13.1262 3.36538 13.1262H2.85699C2.14196 13.1281 1.43669 12.9633 0.796875 12.6449V22.7511H26.2202V21.8761C26.2202 20.7159 26.682 19.603 27.5039 18.7822C28.3261 17.9619 29.4411 17.501 30.6036 17.501L37.6168 17.5012Z" fill="#FFB81D"/>
<path d="M24.6958 32.3755H13.7289L13.1767 36.7506H11.3181C10.834 36.7506 10.4414 37.1424 10.4414 37.6256C10.4414 38.1088 10.834 38.5006 11.3181 38.5006H26.2214V36.7506H25.2395L24.6958 32.3755Z" fill="#FFB81D"/>
<path d="M2.85776 11.3757H3.36615C4.11132 11.375 4.82833 11.0917 5.37197 10.5831C5.91558 10.0749 6.24551 9.37881 6.29442 8.63699V8.12956L6.87286 0.000488281H4.30428C3.74148 0.00244142 3.19436 0.184872 2.74311 0.520029C2.29186 0.855586 1.96037 1.32669 1.79717 1.86416L0.0438333 7.70918C0.0172207 7.88888 0.00234847 8.07013 0 8.25177V8.44436C0.00391374 9.20688 0.304099 9.93849 0.836752 10.485C1.3698 11.0315 2.09424 11.3506 2.85779 11.3756L2.85776 11.3757Z" fill="#FFB81D"/>
<path d="M11.0113 11.3758C11.7902 11.3758 12.5372 11.0668 13.088 10.5172C13.6386 9.96759 13.9482 9.22189 13.9482 8.44447V0.000488281H8.62679L8.16224 7.09674L8.08318 8.25187C8.02291 9.06086 8.30587 9.8581 8.86357 10.4484C9.41932 11.0418 10.1973 11.3781 11.0115 11.3758L11.0113 11.3758Z" fill="#FFB81D"/>
<path d="M19.2088 11.3757C20.1387 11.3757 21.0307 11.007 21.6885 10.3507C22.346 9.69406 22.7155 8.80378 22.7155 7.87566V0.000488281H15.7021V7.87566C15.7021 8.8038 16.0716 9.6941 16.7291 10.3507C17.387 11.007 18.2789 11.3757 19.2088 11.3757Z" fill="#FFB81D"/>
<path d="M27.4036 11.3757C28.2176 11.378 28.9957 11.0417 29.5514 10.4483C30.1091 9.85807 30.3921 9.06078 30.3318 8.25176L30.1213 5.0494L29.7882 0.000488281H24.4668V8.44447C24.4668 9.22183 24.7764 9.9675 25.327 10.5172C25.8777 11.0668 26.6248 11.3758 27.4037 11.3758L27.4036 11.3757Z" fill="#FFB81D"/>
<path d="M32.1204 8.63663C32.1693 9.37844 32.4992 10.0746 33.0428 10.5828C33.5864 11.0914 34.3034 11.3746 35.0486 11.3754H35.557C36.1179 11.375 36.6665 11.2105 37.135 10.9027C37.98 10.3695 38.4927 9.44176 38.4938 8.44404V8.25146C38.5059 8.07098 38.5059 7.88973 38.4938 7.70887L36.6528 1.86384C36.488 1.32047 36.1511 0.845419 35.6928 0.509512C35.2345 0.173175 34.6792 -0.00533849 34.1105 0.000121623H31.4805L32.0241 8.12919L32.1204 8.63663Z" fill="#FFB81D"/>
<path d="M39.3702 19.251H37.9852L37.3629 19.8721H37.3625C37.1973 20.0361 36.9731 20.1272 36.7402 20.126H33.2336C33.0007 20.1272 32.7764 20.0362 32.6113 19.8721L31.9886 19.251H30.6036C29.9062 19.251 29.2369 19.5275 28.7438 20.0197C28.2508 20.5119 27.9736 21.18 27.9736 21.876V39.3764C27.9736 40.0725 28.2507 40.7405 28.7438 41.2326C29.237 41.7247 29.9063 42.0014 30.6036 42.0014H39.3703C40.0677 42.0014 40.737 41.7248 41.23 41.2326C41.723 40.7404 42.0002 40.0724 42.0002 39.3764V21.876C42.0002 21.1799 41.7231 20.5119 41.23 20.0197C40.7369 19.5276 40.0676 19.251 39.3703 19.251H39.3702ZM34.9869 40.2514C34.6323 40.2514 34.3125 40.0381 34.1771 39.7112C34.0413 39.3842 34.1161 39.0081 34.3669 38.7576C34.6178 38.5072 34.9947 38.4326 35.3223 38.5682C35.6498 38.7034 35.8635 39.0225 35.8635 39.3764C35.8635 39.6084 35.7712 39.8311 35.6068 39.9952C35.4424 40.1592 35.2193 40.2514 34.9869 40.2514ZM39.3702 33.2513C39.3702 33.9474 39.0931 34.6154 38.6 35.1075C38.1069 35.5996 37.4376 35.8763 36.7402 35.8763H33.2336C32.5362 35.8763 31.8669 35.5997 31.3738 35.1075C30.8808 34.6153 30.6036 33.9473 30.6036 33.2513V28.8762C30.6036 28.393 30.9962 28.0012 31.4803 28.0012H32.4708C32.4708 27.1039 32.9507 26.2749 33.7291 25.8261C34.5076 25.3777 35.4664 25.3777 36.2448 25.8261C37.0233 26.275 37.5031 27.1038 37.5031 28.0012H38.4937C38.7261 28.0012 38.9492 28.0934 39.1136 28.2574C39.278 28.4215 39.3703 28.6441 39.3703 28.8762L39.3702 33.2513Z" fill="#FFB81D" fill-opacity="0.45"/>
<path d="M35.9792 28.0014C35.9792 27.4553 35.5357 27.0127 34.9886 27.0127C34.4415 27.0127 33.998 27.4553 33.998 28.0014V28.1151H35.9791L35.9792 28.0014Z" fill="#FFB81D" fill-opacity="0.45"/>
<path d="M32.3574 33.2506C32.3574 33.4826 32.4498 33.7053 32.6142 33.8693C32.7785 34.0334 33.0016 34.1256 33.2341 34.1256H36.7408C36.9732 34.1256 37.1963 34.0334 37.3607 33.8693C37.5251 33.7053 37.6174 33.4826 37.6174 33.2506V29.7505H32.3574V33.2506Z" fill="#FFB81D" fill-opacity="0.45"/>
</svg>
