<svg width="31" height="31" viewBox="0 0 31 31" fill="none" xmlns="http://www.w3.org/2000/svg">
<g clip-path="url(#clip0_1170_2210)">
<path d="M8.69341 12.87C8.69341 13.2496 8.73445 13.5574 8.80628 13.7831C8.88836 14.0089 8.99096 14.2551 9.13461 14.5219C9.18591 14.604 9.20643 14.6861 9.20643 14.7579C9.20643 14.8605 9.14487 14.9631 9.01148 15.0657L8.36508 15.4966C8.27273 15.5582 8.18039 15.589 8.09831 15.589C7.9957 15.589 7.8931 15.5377 7.7905 15.4453C7.64685 15.2914 7.52373 15.1272 7.42112 14.9631C7.31852 14.7887 7.21591 14.5937 7.10305 14.3577C6.30274 15.3017 5.29722 15.7737 4.08649 15.7737C3.22462 15.7737 2.53717 15.5274 2.03442 15.0349C1.53166 14.5424 1.27515 13.8857 1.27515 13.0649C1.27515 12.1928 1.58296 11.4848 2.20884 10.9513C2.83473 10.4177 3.66582 10.151 4.72264 10.151C5.07149 10.151 5.43061 10.1817 5.81024 10.233C6.18987 10.2843 6.57977 10.3664 6.99019 10.4588V9.70976C6.99019 8.92997 6.82602 8.38617 6.50795 8.0681C6.17961 7.75002 5.62555 7.59612 4.8355 7.59612C4.47639 7.59612 4.10702 7.63716 3.72738 7.7295C3.34775 7.82185 2.97837 7.93471 2.61926 8.07836C2.45509 8.15018 2.33197 8.19122 2.26014 8.21174C2.18832 8.23226 2.13702 8.24252 2.09598 8.24252C1.95233 8.24252 1.88051 8.13992 1.88051 7.92445V7.42169C1.88051 7.25752 1.90103 7.1344 1.95233 7.06258C2.00363 6.99075 2.09598 6.91893 2.23962 6.84711C2.59874 6.66242 3.02967 6.50851 3.53243 6.38539C4.03519 6.25201 4.56873 6.19044 5.13305 6.19044C6.35404 6.19044 7.2467 6.46747 7.82128 7.02153C8.3856 7.5756 8.67289 8.41695 8.67289 9.54559V12.87H8.69341ZM4.52769 14.4295C4.86628 14.4295 5.21514 14.368 5.58451 14.2449C5.95389 14.1217 6.28222 13.896 6.55925 13.5882C6.72342 13.3932 6.84654 13.1778 6.9081 12.9315C6.96967 12.6853 7.01071 12.3877 7.01071 12.0389V11.6079C6.71316 11.5361 6.39508 11.4745 6.06675 11.4335C5.73842 11.3925 5.42035 11.3719 5.10227 11.3719C4.41483 11.3719 3.91207 11.5053 3.57347 11.7824C3.23488 12.0594 3.07072 12.4493 3.07072 12.9623C3.07072 13.4445 3.19384 13.8037 3.45035 14.0499C3.6966 14.3064 4.05571 14.4295 4.52769 14.4295ZM12.7668 15.5377C12.5821 15.5377 12.459 15.5069 12.3769 15.4351C12.2948 15.3735 12.223 15.2299 12.1614 15.0349L9.75023 7.10362C9.68867 6.89841 9.65789 6.76502 9.65789 6.6932C9.65789 6.52904 9.73997 6.43669 9.90414 6.43669H10.9097C11.1046 6.43669 11.238 6.46747 11.3098 6.5393C11.3919 6.60086 11.4535 6.7445 11.515 6.93945L13.2388 13.7318L14.8394 6.93945C14.8907 6.73424 14.9523 6.60086 15.0343 6.5393C15.1164 6.47773 15.2601 6.43669 15.4447 6.43669H16.2656C16.4605 6.43669 16.5939 6.46747 16.676 6.5393C16.7581 6.60086 16.8299 6.7445 16.8709 6.93945L18.4921 13.8139L20.2671 6.93945C20.3287 6.73424 20.4005 6.60086 20.4723 6.5393C20.5544 6.47773 20.6878 6.43669 20.8725 6.43669H21.8267C21.9909 6.43669 22.0832 6.51878 22.0832 6.6932C22.0832 6.7445 22.073 6.79581 22.0627 6.85737C22.0524 6.91893 22.0319 7.00101 21.9909 7.11388L19.5181 15.0452C19.4566 15.2504 19.3847 15.3838 19.3027 15.4453C19.2206 15.5069 19.0872 15.5479 18.9128 15.5479H18.0304C17.8354 15.5479 17.702 15.5171 17.62 15.4453C17.5379 15.3735 17.466 15.2401 17.425 15.0349L15.8346 8.41695L14.2545 15.0246C14.2032 15.2299 14.1417 15.3632 14.0596 15.4351C13.9775 15.5069 13.8339 15.5377 13.6492 15.5377H12.7668ZM25.9514 15.8147C25.4179 15.8147 24.8843 15.7531 24.3713 15.63C23.8583 15.5069 23.4581 15.3735 23.1913 15.2196C23.0272 15.1272 22.9143 15.0246 22.8733 14.9323C22.8322 14.84 22.8117 14.7374 22.8117 14.645V14.1217C22.8117 13.9063 22.8938 13.8037 23.0477 13.8037C23.1093 13.8037 23.1708 13.8139 23.2324 13.8344C23.294 13.855 23.3863 13.896 23.4889 13.937C23.8378 14.0909 24.2174 14.2141 24.6175 14.2962C25.028 14.3782 25.4281 14.4193 25.8385 14.4193C26.4849 14.4193 26.9877 14.3064 27.3365 14.0807C27.6854 13.855 27.8701 13.5266 27.8701 13.1059C27.8701 12.8187 27.7777 12.5827 27.5931 12.3877C27.4084 12.1928 27.0595 12.0183 26.5568 11.8542L25.069 11.3925C24.32 11.1565 23.7659 10.8076 23.4273 10.3459C23.0887 9.89445 22.9143 9.39169 22.9143 8.85815C22.9143 8.42721 23.0067 8.04757 23.1913 7.71924C23.376 7.39091 23.6223 7.10362 23.9301 6.87789C24.2379 6.6419 24.5868 6.46747 24.9972 6.34435C25.4076 6.22122 25.8385 6.16992 26.29 6.16992C26.5157 6.16992 26.7517 6.18018 26.9774 6.21096C27.2134 6.24174 27.4289 6.28279 27.6444 6.32383C27.8496 6.37513 28.0445 6.42643 28.2292 6.48799C28.4139 6.54956 28.5575 6.61112 28.6601 6.67268C28.8038 6.75476 28.9064 6.83685 28.9679 6.92919C29.0295 7.01127 29.0603 7.12414 29.0603 7.26778V7.75002C29.0603 7.96549 28.9782 8.07836 28.8243 8.07836C28.7422 8.07836 28.6088 8.03731 28.4344 7.95523C27.8496 7.68846 27.1929 7.55508 26.4644 7.55508C25.8796 7.55508 25.4179 7.64742 25.0998 7.84237C24.7817 8.03731 24.6175 8.33487 24.6175 8.75554C24.6175 9.04283 24.7201 9.28908 24.9254 9.48403C25.1306 9.67898 25.5102 9.87393 26.054 10.0484L27.511 10.5101C28.2497 10.7461 28.7833 11.0744 29.1013 11.4951C29.4194 11.9157 29.5733 12.398 29.5733 12.9315C29.5733 13.3727 29.481 13.7729 29.3065 14.1217C29.1219 14.4706 28.8756 14.7784 28.5575 15.0246C28.2395 15.2812 27.8598 15.4658 27.4186 15.5992C26.9569 15.7429 26.4747 15.8147 25.9514 15.8147Z" fill="#99A1AF"/>
<path fill-rule="evenodd" clip-rule="evenodd" d="M27.8905 20.8009C24.5149 23.2942 19.6104 24.6178 15.3934 24.6178C9.48339 24.6178 4.15825 22.4323 0.136182 18.8001C-0.18189 18.5128 0.105401 18.1229 0.485035 18.3487C4.83544 20.8727 10.2016 22.4015 15.7525 22.4015C19.4975 22.4015 23.6119 21.6217 27.398 20.0211C27.9623 19.7646 28.4446 20.3905 27.8905 20.8009Z" fill="#99A1AF"/>
<path fill-rule="evenodd" clip-rule="evenodd" d="M29.2965 19.2005C28.8656 18.6464 26.4441 18.9337 25.3463 19.0671C25.0179 19.1081 24.9666 18.8209 25.2642 18.6054C27.1931 17.251 30.3636 17.6409 30.7329 18.0924C31.1023 18.5541 30.6303 21.7245 28.8245 23.2431C28.5475 23.4791 28.2807 23.356 28.4038 23.0481C28.8143 22.0324 29.7274 19.7443 29.2965 19.2005Z" fill="#99A1AF"/>
</g>
<defs>
<clipPath id="clip0_1170_2210">
<rect width="30.85" height="30.85" fill="white"/>
</clipPath>
</defs>
</svg>
