<svg width="31" height="31" viewBox="0 0 31 31" fill="none" xmlns="http://www.w3.org/2000/svg">
<g clip-path="url(#clip0_1170_2223)">
<path d="M10.2843 0.926553H19.4131L9.93646 29.0211C9.88801 29.1646 9.81748 29.2997 9.72744 29.4214C9.63758 29.5433 9.52922 29.6501 9.40619 29.7384C9.28317 29.8268 9.14742 29.8954 9.00319 29.9417C8.85896 29.988 8.70855 30.0119 8.55738 30.0119H1.45292C1.2223 30.0119 0.99477 29.9571 0.789604 29.8514C0.58422 29.7461 0.406929 29.5932 0.272447 29.4056C0.137876 29.218 0.0498412 29.0011 0.0156035 28.7728C-0.0187194 28.5445 0.00210572 28.3112 0.075765 28.0925L8.90485 1.91652C8.95305 1.77305 9.02363 1.63808 9.11387 1.51621C9.20373 1.39435 9.31248 1.28752 9.43512 1.19921C9.55814 1.11089 9.69389 1.04225 9.83812 0.99597C9.98236 0.949692 10.1328 0.925781 10.2839 0.925781V0.926167L10.2843 0.926553Z" fill="#D1D5DC"/>
<path d="M27.1125 30.0114H18.9155C18.8241 30.0114 18.7327 30.003 18.6425 29.9856C18.5526 29.9686 18.4643 29.9432 18.3791 29.9096C18.2939 29.8761 18.2121 29.8344 18.1346 29.7858C18.0572 29.7369 17.9845 29.6809 17.9175 29.6185L8.6156 20.9313C8.51722 20.8394 8.44869 20.7201 8.41892 20.5889C8.38917 20.4576 8.39964 20.3204 8.44895 20.1951C8.49827 20.0699 8.58416 19.9623 8.69543 19.8866C8.80688 19.811 8.93839 19.7705 9.07298 19.7705H23.5487L27.1118 30.0118L27.1125 30.0114Z" fill="#99A1AF"/>
<path d="M19.4459 0.925799L13.0557 19.7722L23.4968 19.7698L27.0783 30.0112H18.9122C18.8277 30.0104 18.7433 30.0027 18.66 29.9877C18.5767 29.9726 18.4949 29.9506 18.4155 29.9213C18.2562 29.8633 18.108 29.7784 17.9774 29.6703L11.6982 23.8099L9.94042 28.9938C9.89491 29.1234 9.83244 29.2464 9.75453 29.3594C9.5984 29.5867 9.38483 29.7686 9.13557 29.8866C9.01146 29.9453 8.88008 29.9872 8.7449 30.0112H1.45727C1.22434 30.0119 0.994488 29.9564 0.787394 29.8492C0.580268 29.7421 0.401977 29.5867 0.267592 29.3961C0.133207 29.2055 0.046679 28.9854 0.015322 28.7543C-0.0159215 28.5232 0.00881092 28.2879 0.0874386 28.0683L8.90225 1.93543C8.94814 1.78927 9.01717 1.65159 9.10664 1.52741C9.19573 1.40323 9.30448 1.29371 9.42789 1.20347C9.5513 1.11323 9.68859 1.04304 9.83398 0.995988C9.97937 0.948938 10.1317 0.925028 10.2848 0.925799H19.4463H19.4459Z" fill="url(#paint0_linear_1170_2223)"/>
<path d="M30.7731 28.0928C30.8468 28.3115 30.8676 28.5447 30.8337 28.773C30.7994 29.0013 30.7115 29.2182 30.5772 29.4059C30.4427 29.5934 30.2655 29.7462 30.0602 29.8516C29.8549 29.957 29.6275 30.012 29.3967 30.0121H19.2225C19.4531 30.0121 19.6807 29.957 19.8862 29.8517C20.0914 29.7464 20.2688 29.5933 20.4034 29.4059C20.538 29.2185 20.6259 29.0013 20.6602 28.773C20.6945 28.5447 20.6737 28.3114 20.6 28.0928L11.7706 1.91595C11.6734 1.62759 11.4882 1.37699 11.2411 1.19941C11.1184 1.1111 10.9827 1.04284 10.8388 0.996561C10.695 0.950282 10.5446 0.926758 10.3938 0.926758H20.5677C20.7188 0.926758 20.8688 0.950282 21.0131 0.996561C21.1569 1.04284 21.2927 1.11148 21.4157 1.19941C21.5383 1.28773 21.6467 1.39455 21.7366 1.51603C21.8264 1.63751 21.8966 1.77249 21.9452 1.91595L30.7747 28.0928H30.7731Z" fill="#99A1AF"/>
</g>
<defs>
<linearGradient id="paint0_linear_1170_2223" x1="16.574" y1="16.1397" x2="14.3796" y2="16.884" gradientUnits="userSpaceOnUse">
<stop stop-opacity="0.3"/>
<stop offset="0.1" stop-opacity="0.2"/>
<stop offset="0.3" stop-opacity="0.1"/>
<stop offset="0.6" stop-opacity="0.1"/>
<stop offset="1" stop-opacity="0"/>
</linearGradient>
<clipPath id="clip0_1170_2223">
<rect width="30.85" height="30.85" fill="white"/>
</clipPath>
</defs>
</svg>
