<svg width="45" height="45" viewBox="0 0 45 45" fill="none" xmlns="http://www.w3.org/2000/svg">
<path d="M1.80396 33.6455C1.80396 35.6116 3.40348 37.2111 5.36959 37.2111H17.7478L17.1177 40.3515H14.8292C13.6702 40.3515 12.4865 41.248 12.1346 42.391L11.9577 42.9615C11.8916 43.1749 11.9307 43.407 12.0633 43.5869C12.1958 43.7667 12.4058 43.8729 12.6293 43.8729H32.3705C32.5939 43.8729 32.804 43.7667 32.9365 43.5869C33.069 43.407 33.1081 43.1749 33.042 42.9615L32.8655 42.3923C32.5132 41.2479 31.3294 40.3515 30.1706 40.3515H27.8843L27.2524 37.2111H39.6325C41.5972 37.2111 43.1958 35.6116 43.1958 33.6455V33.0531H1.80396V33.6455ZM12.2084 34.429H12.749C13.1373 34.429 13.4521 34.7438 13.4521 35.1321C13.4521 35.5204 13.1373 35.8353 12.749 35.8353H12.2084C11.8201 35.8353 11.5052 35.5204 11.5052 35.1321C11.5052 34.7438 11.8201 34.429 12.2084 34.429ZM6.18187 34.429H10.2477C10.636 34.429 10.9508 34.7438 10.9508 35.1321C10.9508 35.5204 10.636 35.8353 10.2477 35.8353H6.18187C5.79357 35.8353 5.47875 35.5204 5.47875 35.1321C5.47875 34.7438 5.79357 34.429 6.18187 34.429ZM12.1184 6.56135C12.0709 6.43303 12.1025 6.28889 12.2001 6.19133L14.5494 3.84202C14.647 3.74446 14.7911 3.71282 14.9194 3.76028L17.4691 4.69983L19.6436 3.80071L20.7835 1.33098C20.8415 1.20706 20.9654 1.12708 21.1025 1.12708H22.7637C22.9579 1.12708 23.1152 1.2844 23.1152 1.47864V2.81765H24.5315C24.7876 2.32045 25.3052 1.979 25.9019 1.979C26.7521 1.979 27.4437 2.67061 27.4437 3.52078C27.4437 4.37094 26.7521 5.0651 25.9019 5.0651C25.3048 5.0651 24.7869 4.72259 24.531 4.2239H23.1153V6.64485H22.7638C18.4844 6.64485 15.003 10.128 15.003 14.4082C15.003 18.6885 18.4844 22.169 22.7638 22.169H23.1153V24.5899H24.5316C24.7877 24.0927 25.3053 23.7513 25.902 23.7513C26.7521 23.7513 27.4438 24.4429 27.4438 25.293C27.4438 26.1432 26.7521 26.8348 25.902 26.8348C25.3053 26.8348 24.7877 26.4934 24.5316 25.9962H23.1153V27.3352C23.1153 27.5294 22.958 27.6867 22.7638 27.6867H21.1026C20.9655 27.6867 20.8416 27.6068 20.7836 27.4828L19.6436 25.0131L17.4692 24.114L14.9195 25.0535C14.7912 25.101 14.6471 25.0685 14.5495 24.9718L12.2002 22.6216C12.1026 22.5249 12.071 22.3808 12.1184 22.2516L13.058 19.701L12.1562 17.5283L9.68915 16.3875C9.56435 16.3304 9.48524 16.2056 9.48524 16.0685V12.7453C9.48524 12.6082 9.56435 12.4834 9.68915 12.4254L12.1562 11.2855L13.058 9.11282L12.1184 6.56135ZM23.1152 8.0511V6.64485H27.2663L28.5661 4.3952C28.4093 4.15403 28.3173 3.86724 28.3173 3.55892C28.3173 2.70875 29.0101 2.01714 29.8616 2.01714C30.7131 2.01714 31.4034 2.70875 31.4034 3.55892C31.4034 4.40909 30.7118 5.1007 29.8616 5.1007C29.8355 5.1007 29.8101 5.09806 29.7843 5.09683L28.2806 7.7005C28.1549 7.91759 27.9229 8.05119 27.6724 8.05119H23.1152V8.0511ZM32.2574 6.8085C33.1075 6.8085 33.7991 7.50011 33.7991 8.35028C33.7991 9.20045 33.1075 9.89206 32.2574 9.89206C32.2322 9.89206 32.2078 9.88951 32.1829 9.88828L30.7171 12.4252C30.5914 12.6427 30.3594 12.7766 30.1083 12.7766H25.2049C25.3849 13.0581 25.5197 13.3709 25.5993 13.705H33.1625C33.4184 13.2064 33.9362 12.8638 34.5335 12.8638C35.3836 12.8638 36.0752 13.5566 36.0752 14.4081C36.0752 15.2597 35.3836 15.9499 34.5335 15.9499C33.9367 15.9499 33.4192 15.6085 33.163 15.1113H25.5992C25.5198 15.4445 25.3854 15.7564 25.2058 16.0371H30.1082C30.3594 16.0371 30.5916 16.1711 30.7172 16.3887L32.1815 18.9255C32.2067 18.9243 32.2316 18.9217 32.2572 18.9217C33.1073 18.9217 33.799 19.6133 33.799 20.4635C33.799 21.3136 33.1073 22.0052 32.2572 22.0052C31.407 22.0052 30.7154 21.3136 30.7154 20.4635C30.7154 20.1556 30.8071 19.869 30.9633 19.6281L29.7022 17.4434H22.6458C22.6453 17.4434 22.6448 17.4434 22.6443 17.4434C20.9709 17.4434 19.6094 16.0819 19.6094 14.4084C19.6094 12.7817 20.8933 11.4498 22.4998 11.374V11.3703H29.7024L30.964 9.18673C30.8073 8.94547 30.7154 8.6586 30.7154 8.3501C30.7154 7.49994 31.407 6.80833 32.2572 6.80833L32.2574 6.8085ZM43.196 11.1563V31.6468H1.80396V11.1563C1.80396 9.19016 3.40348 7.59064 5.36959 7.59064H10.9987L11.548 9.08223L11.1993 9.92255H5.36968C4.6894 9.92255 4.13596 10.476 4.13596 11.1564V28.0837C4.13596 28.7627 4.6894 29.315 5.36968 29.315H39.6328C40.3117 29.315 40.8641 28.7626 40.8641 28.0837V11.1563C40.8641 10.476 40.3117 9.92247 39.6328 9.92247H34.7497C35.038 9.4671 35.2055 8.9279 35.2055 8.35019C35.2055 8.08757 35.1705 7.83304 35.1057 7.59055H39.6328C41.5975 7.59055 43.196 9.19007 43.196 11.1562L43.196 11.1563ZM23.1152 22.169V20.7627H27.6724C27.9229 20.7627 28.1549 20.8963 28.2806 21.1134L29.7843 23.717C29.81 23.7157 29.8355 23.713 29.8616 23.713C30.7118 23.713 31.4034 24.4046 31.4034 25.2548C31.4034 26.105 30.7118 26.7966 29.8616 26.7966C29.0115 26.7966 28.3173 26.105 28.3173 25.2548C28.3173 24.9465 28.4093 24.6597 28.5661 24.4185L27.2663 22.1689L23.1152 22.169ZM22.7637 8.0511H23.1152V9.98926C22.9605 9.97291 22.8035 9.96413 22.6445 9.96413C20.1956 9.96413 18.2033 11.9578 18.2033 14.4084C18.2033 16.859 20.1956 18.8496 22.6445 18.8496C22.8035 18.8496 22.9605 18.8408 23.1152 18.8245V20.7627H22.7637C19.2604 20.7627 16.4092 17.9115 16.4092 14.4082C16.4092 10.9049 19.2604 8.0511 22.7637 8.0511Z" fill="#1D5BC4"/>
</svg>
