<svg width="15" height="15" viewBox="0 0 15 15" fill="none" xmlns="http://www.w3.org/2000/svg">
<path fill-rule="evenodd" clip-rule="evenodd" d="M0 7.33333C0 3.28333 3.28333 0 7.33333 0C11.3833 0 14.6667 3.28333 14.6667 7.33333C14.6667 11.3833 11.3833 14.6667 7.33333 14.6667C3.28333 14.6667 0 11.3833 0 7.33333ZM7.33333 13.3333C6.5454 13.3333 5.76519 13.1781 5.03723 12.8766C4.30928 12.5751 3.64784 12.1331 3.09069 11.576C2.53354 11.0188 2.09158 10.3574 1.79006 9.62943C1.48853 8.90148 1.33333 8.12126 1.33333 7.33333C1.33333 6.5454 1.48853 5.76519 1.79006 5.03723C2.09158 4.30928 2.53354 3.64784 3.09069 3.09069C3.64784 2.53354 4.30928 2.09158 5.03723 1.79006C5.76519 1.48853 6.5454 1.33333 7.33333 1.33333C8.92463 1.33333 10.4508 1.96547 11.576 3.09069C12.7012 4.21591 13.3333 5.74203 13.3333 7.33333C13.3333 8.92463 12.7012 10.4508 11.576 11.576C10.4508 12.7012 8.92463 13.3333 7.33333 13.3333Z" fill="#80838D"/>
<path d="M6.16167 10.2093L3.33301 7.37994L4.27567 6.43727L6.16167 8.3226L9.93234 4.55127L10.8757 5.4946L6.16167 10.2093Z" fill="#80838D"/>
</svg>
