<svg width="45" height="45" viewBox="0 0 45 45" fill="none" xmlns="http://www.w3.org/2000/svg">
<path d="M42.1875 14.0625C42.9609 14.0625 43.5938 13.4297 43.5938 12.6562C43.5938 11.8828 42.9609 11.25 42.1875 11.25H39.2414C38.693 8.48672 36.5133 6.30703 33.75 5.75859V2.8125C33.75 2.03906 33.1172 1.40625 32.3438 1.40625C31.5703 1.40625 30.9375 2.03906 30.9375 2.8125V5.625H28.8281V2.8125C28.8281 2.03906 28.1953 1.40625 27.4219 1.40625C26.6484 1.40625 26.0156 2.03906 26.0156 2.8125V5.625H23.9062V2.8125C23.9062 2.03906 23.2734 1.40625 22.5 1.40625C21.7266 1.40625 21.0938 2.03906 21.0938 2.8125V5.625H18.9844V2.8125C18.9844 2.03906 18.3516 1.40625 17.5781 1.40625C16.8047 1.40625 16.1719 2.03906 16.1719 2.8125V5.625H14.0625V2.8125C14.0625 2.03906 13.4297 1.40625 12.6562 1.40625C11.8828 1.40625 11.25 2.03906 11.25 2.8125V5.75859C8.48672 6.30703 6.30703 8.48672 5.75859 11.25H2.8125C2.03906 11.25 1.40625 11.8828 1.40625 12.6562C1.40625 13.4297 2.03906 14.0625 2.8125 14.0625H5.625V16.1719H2.8125C2.03906 16.1719 1.40625 16.8047 1.40625 17.5781C1.40625 18.3516 2.03906 18.9844 2.8125 18.9844H5.625V21.0938H2.8125C2.03906 21.0938 1.40625 21.7266 1.40625 22.5C1.40625 23.2734 2.03906 23.9062 2.8125 23.9062H5.625V26.0156H2.8125C2.03906 26.0156 1.40625 26.6484 1.40625 27.4219C1.40625 28.1953 2.03906 28.8281 2.8125 28.8281H5.625V30.9375H2.8125C2.03906 30.9375 1.40625 31.5703 1.40625 32.3438C1.40625 33.1172 2.03906 33.75 2.8125 33.75H5.75859C6.30703 36.5133 8.48672 38.693 11.25 39.2414V42.1875C11.25 42.9609 11.8828 43.5938 12.6562 43.5938C13.4297 43.5938 14.0625 42.9609 14.0625 42.1875V39.375H16.1719V42.1875C16.1719 42.9609 16.8047 43.5938 17.5781 43.5938C18.3516 43.5938 18.9844 42.9609 18.9844 42.1875V39.375H21.0938V42.1875C21.0938 42.9609 21.7266 43.5938 22.5 43.5938C23.2734 43.5938 23.9062 42.9609 23.9062 42.1875V39.375H26.0156V42.1875C26.0156 42.9609 26.6484 43.5938 27.4219 43.5938C28.1953 43.5938 28.8281 42.9609 28.8281 42.1875V39.375H30.9375V42.1875C30.9375 42.9609 31.5703 43.5938 32.3438 43.5938C33.1172 43.5938 33.75 42.9609 33.75 42.1875V39.2414C36.5133 38.693 38.693 36.5133 39.2414 33.75H42.1875C42.9609 33.75 43.5938 33.1172 43.5938 32.3438C43.5938 31.5703 42.9609 30.9375 42.1875 30.9375H39.375V28.8281H42.1875C42.9609 28.8281 43.5938 28.1953 43.5938 27.4219C43.5938 26.6484 42.9609 26.0156 42.1875 26.0156H39.375V23.9062H42.1875C42.9609 23.9062 43.5938 23.2734 43.5938 22.5C43.5938 21.7266 42.9609 21.0938 42.1875 21.0938H39.375V18.9844H42.1875C42.9609 18.9844 43.5938 18.3516 43.5938 17.5781C43.5938 16.8047 42.9609 16.1719 42.1875 16.1719H39.375V14.0625H42.1875ZM36.5625 32.393C36.5625 34.6922 34.6922 36.5625 32.393 36.5625H12.607C10.3078 36.5625 8.4375 34.6922 8.4375 32.393V12.607C8.4375 10.3078 10.3078 8.4375 12.607 8.4375H32.4C34.6992 8.4375 36.5695 10.3078 36.5695 12.607V32.393H36.5625Z" fill="#4A5565"/>
<path d="M22.2531 17.641C22.1547 17.3457 21.9508 17.2051 21.6484 17.2051H19.2859C18.9836 17.2051 18.7797 17.3527 18.6812 17.641L15.1586 27.3371C15.1516 27.3652 15.1445 27.4145 15.1445 27.4707C15.1445 27.548 15.1797 27.6254 15.243 27.6887C15.3062 27.752 15.3836 27.7871 15.4609 27.7871H17.4297C17.6688 27.7871 17.8445 27.6746 17.943 27.4566L18.4844 25.9871H22.45L22.9914 27.4566C23.0898 27.6816 23.2656 27.7871 23.5047 27.7871H25.4734C25.5508 27.7871 25.6281 27.752 25.6914 27.6887C25.7547 27.6254 25.7898 27.548 25.7898 27.4707C25.7898 27.4074 25.7828 27.3652 25.7758 27.3371L22.2531 17.641ZM19.1172 23.723L20.4602 19.8629L21.8031 23.723H19.1172Z" fill="#4A5565"/>
<path d="M29.4828 17.2051H27.3172C27.2187 17.2051 27.1273 17.2402 27.05 17.3105C26.9727 17.3809 26.9375 17.4723 26.9375 17.5848V27.4145C26.9375 27.5129 26.9727 27.6043 27.05 27.6816C27.1273 27.759 27.2117 27.7941 27.3172 27.7941H29.4828C29.5953 27.7941 29.6867 27.759 29.757 27.6816C29.8273 27.6043 29.8625 27.5199 29.8625 27.4145V17.5848C29.8625 17.4723 29.8273 17.3809 29.757 17.3105C29.6797 17.2402 29.5883 17.2051 29.4828 17.2051Z" fill="#4A5565"/>
</svg>
