<svg width="45" height="45" viewBox="0 0 45 45" fill="none" xmlns="http://www.w3.org/2000/svg">
<path d="M38.3811 28.5374L33.7504 33.1682L31.9321 31.3499C31.3822 30.8 30.4935 30.8 29.9436 31.3499C29.3938 31.8997 29.3938 32.7885 29.9436 33.3383L32.7561 36.1508C33.0304 36.425 33.3904 36.5629 33.7504 36.5629C34.1104 36.5629 34.4704 36.425 34.7446 36.1508L40.3696 30.5258C40.9194 29.976 40.9194 29.0872 40.3696 28.5374C39.8197 27.9875 38.931 27.9875 38.3811 28.5374Z" fill="#4A5565"/>
<path d="M40.7812 32.3432C40.0036 32.3432 39.375 32.9718 39.375 33.7495C39.375 36.8516 36.8522 39.3745 33.75 39.3745C30.6478 39.3745 28.125 36.8516 28.125 33.7495C28.125 30.6473 30.6478 28.1245 33.75 28.1245C34.5277 28.1245 35.1562 27.4959 35.1562 26.7182C35.1562 25.9405 34.5277 25.312 33.75 25.312C29.0967 25.312 25.3125 29.0962 25.3125 33.7495C25.3125 34.8295 25.5234 35.8588 25.8947 36.808L22.5 38.5054V19.2187L36.5625 13.3588V25.312C36.5625 26.0896 37.1911 26.7182 37.9688 26.7182C38.7464 26.7182 39.375 26.0896 39.375 25.312V11.2495C39.375 11.0779 39.3342 10.9148 39.2766 10.7601C39.2583 10.7109 39.2344 10.6687 39.2105 10.6223C39.1584 10.5182 39.0938 10.424 39.0178 10.3354C38.9841 10.2974 38.9545 10.258 38.9166 10.2229C38.8083 10.1216 38.6859 10.0359 38.5467 9.97398C38.5341 9.96836 38.5242 9.95852 38.5116 9.95289C38.5116 9.95289 38.5102 9.95289 38.5102 9.95148L21.6352 2.92023C21.2892 2.77398 20.8997 2.77398 20.5523 2.92023L3.67734 9.95148C3.67734 9.95148 3.67594 9.95148 3.67594 9.95289C3.66328 9.95852 3.65484 9.96836 3.64219 9.97398C3.50156 10.0373 3.37922 10.123 3.27094 10.2229C3.23297 10.258 3.20344 10.2974 3.16969 10.3354C3.09375 10.424 3.02906 10.5182 2.97703 10.6223C2.95313 10.6687 2.92922 10.7109 2.91094 10.7601C2.85328 10.9148 2.8125 11.0779 2.8125 11.2495V32.3432C2.8125 32.8762 3.11344 33.3627 3.59016 33.6018L20.4652 42.0393C20.662 42.1377 20.8786 42.187 21.0938 42.187C21.3089 42.187 21.5255 42.1377 21.7223 42.0393L27.3445 39.2282C28.8942 41.0352 31.1878 42.187 33.75 42.187C38.4033 42.187 42.1875 38.4027 42.1875 33.7495C42.1875 32.9718 41.5589 32.3432 40.7812 32.3432ZM21.0938 5.74117L34.3125 11.2495L21.0938 16.7577L7.875 11.2495L21.0938 5.74117ZM5.625 13.3588L19.6875 19.2187V38.5054L5.625 31.4741V13.3588Z" fill="#4A5565"/>
</svg>
