<svg width="31" height="31" viewBox="0 0 31 31" fill="none" xmlns="http://www.w3.org/2000/svg">
<path d="M25.665 11.5699C25.0808 9.55312 23.9078 7.77737 22.3333 6.41992L18.8493 9.78827C20.12 10.7882 20.9769 12.26 21.133 13.9258V15.0305C21.1527 15.0305 21.1709 15.0247 21.1906 15.0247C22.95 15.0247 24.3821 16.4092 24.3821 18.1103C24.3821 19.8113 22.95 21.1966 21.1906 21.1966C21.1709 21.1966 21.1527 21.1914 21.133 21.1907V21.1966H16.0821H14.9106V25.9583H21.133V25.9553C21.1527 25.9553 21.1709 25.9583 21.1906 25.9583C25.6665 25.9583 29.3073 22.4375 29.3073 18.111C29.3073 15.3822 27.857 12.9764 25.665 11.5699Z" fill="#99A1AF"/>
<path opacity="0.5" d="M12.5713 16.4462L15.6049 13.4127C15.6023 13.4094 15.5997 13.4069 15.5978 13.4043L12.5662 16.436C12.5674 16.4392 12.5694 16.4424 12.5713 16.4462Z" fill="#FFE082"/>
<path opacity="0.5" d="M12.5713 16.4462L15.6049 13.4127C15.6023 13.4094 15.5997 13.4069 15.5978 13.4043L12.5662 16.436C12.5674 16.4392 12.5694 16.4424 12.5713 16.4462Z" fill="#99A1AF"/>
<path d="M15.1321 3.33496C9.33983 3.33496 4.6272 8.18271 4.6272 14.1411C4.6272 14.3118 4.64429 14.4781 4.65212 14.6466H9.28142C9.26789 14.4796 9.2565 14.3118 9.2565 14.1411C9.2565 10.8084 11.8924 8.097 15.1321 8.097C16.5345 8.097 17.8228 8.6069 18.8342 9.45308L22.1089 6.08449C20.2514 4.38041 17.8107 3.33496 15.1321 3.33496Z" fill="#D1D5DC"/>
<path opacity="0.5" d="M10.0982 20.2446H10.097C9.70426 20.2446 9.33342 20.1566 8.99664 20.0049L5.96948 23.032C7.12186 23.9003 8.54867 24.4222 10.097 24.4222H10.0982H15.425V20.2446H10.0982Z" fill="#99A1AF"/>
<path d="M9.11742 21.0954H9.11602C8.68895 21.0954 8.28564 20.993 7.91937 20.8164L4.6272 24.3399C5.88046 25.3506 7.43219 25.9581 9.11602 25.9581H9.11742H14.9105V21.0954H9.11742Z" fill="#D1D5DC"/>
<path d="M6.39891 18.5401C6.39891 16.8056 7.81108 15.3926 9.54454 15.3926C10.817 15.3926 11.9191 16.1574 12.4145 17.2572L15.9389 13.7307C14.4737 11.7854 12.1544 10.5332 9.54379 10.5332C5.13617 10.5332 1.54224 14.1217 1.54224 18.5401C1.54224 21.15 2.80572 23.4668 4.74614 24.9299L8.26536 21.4086C7.1685 20.9167 6.39891 19.8177 6.39891 18.5401Z" fill="#99A1AF"/>
</svg>
