<svg width="31" height="31" viewBox="0 0 31 31" fill="none" xmlns="http://www.w3.org/2000/svg">
<g clip-path="url(#clip0_1170_2063)">
<path d="M15.4248 0.308594C6.90689 0.308594 -0.000244141 7.21451 -0.000244141 15.7337C-0.000244141 22.549 4.4195 28.3309 10.5484 30.3706C11.3192 30.5133 11.6023 30.0359 11.6023 29.6285C11.6023 29.2607 11.5879 28.0455 11.5814 26.7566C7.29002 27.6897 6.38451 24.9367 6.38451 24.9367C5.68285 23.1537 4.67185 22.6797 4.67185 22.6797C3.2724 21.7223 4.77734 21.7419 4.77734 21.7419C6.32632 21.8508 7.14194 23.3316 7.14194 23.3316C8.51768 25.6897 10.7504 25.0079 11.6306 24.6139C11.769 23.6168 12.1689 22.9364 12.6099 22.5513C9.1839 22.1611 5.5822 20.8385 5.5822 14.9281C5.5822 13.2441 6.18478 11.868 7.17158 10.7878C7.01141 10.3992 6.48347 8.83039 7.32099 6.70569C7.32099 6.70569 8.61628 6.2911 11.564 8.28685C12.7943 7.94497 14.1139 7.77367 15.4248 7.76786C16.7357 7.77367 18.0563 7.94497 19.289 8.28685C22.2332 6.2911 23.5267 6.70569 23.5267 6.70569C24.3663 8.83039 23.8381 10.3992 23.6779 10.7878C24.6669 11.868 25.2654 13.244 25.2654 14.9281C25.2654 20.8525 21.6569 22.1571 18.2221 22.5389C18.7754 23.0176 19.2683 23.9564 19.2683 25.3954C19.2683 27.4593 19.2504 29.1204 19.2504 29.6285C19.2504 30.039 19.5281 30.52 20.3101 30.3685C26.4356 28.3265 30.8498 22.5467 30.8498 15.7337C30.8498 7.21451 23.9436 0.308594 15.4248 0.308594Z" fill="#99A1AF"/>
<path d="M5.77679 22.2821C5.74291 22.3587 5.62218 22.3816 5.51245 22.3291C5.40055 22.2788 5.33764 22.1743 5.37394 22.0973C5.40721 22.0185 5.52794 21.9965 5.6396 22.0494C5.75175 22.0996 5.81562 22.2051 5.77679 22.2821ZM6.53555 22.9591C6.462 23.0273 6.31816 22.9956 6.22053 22.8878C6.11963 22.7803 6.10076 22.6365 6.1754 22.5672C6.25126 22.4991 6.39074 22.5309 6.49188 22.6386C6.59277 22.7473 6.61237 22.8902 6.53543 22.9592L6.53555 22.9591ZM7.05611 23.8252C6.96151 23.8909 6.8069 23.8294 6.71145 23.6922C6.61697 23.5551 6.61697 23.3906 6.71351 23.3246C6.80932 23.2587 6.96151 23.318 7.05829 23.4541C7.15265 23.5936 7.15265 23.7581 7.05599 23.8254L7.05611 23.8252ZM7.93634 24.8285C7.85177 24.9217 7.67176 24.8967 7.5399 24.7695C7.40513 24.6451 7.36751 24.4686 7.45231 24.3753C7.53784 24.2819 7.71894 24.3082 7.85177 24.4344C7.98569 24.5585 8.02659 24.7363 7.93646 24.8285H7.93634ZM9.074 25.1672C9.03686 25.288 8.86338 25.3429 8.68869 25.2916C8.51424 25.2387 8.40004 25.0972 8.43524 24.9751C8.47154 24.8535 8.64574 24.7963 8.82176 24.8512C8.99597 24.9039 9.11041 25.0443 9.07412 25.1672H9.074ZM10.3689 25.3108C10.3733 25.4381 10.2251 25.5436 10.0417 25.5459C9.8572 25.5499 9.70803 25.4469 9.7061 25.3218C9.7061 25.1934 9.85091 25.0888 10.0353 25.0858C10.2187 25.0822 10.3689 25.1844 10.3689 25.3108ZM11.6409 25.2621C11.6629 25.3862 11.5354 25.5137 11.3533 25.5476C11.1743 25.5802 11.0085 25.5037 10.9857 25.3806C10.9634 25.2534 11.0933 25.126 11.272 25.093C11.4544 25.0613 11.6176 25.1359 11.6409 25.2621Z" fill="#99A1AF"/>
</g>
<defs>
<clipPath id="clip0_1170_2063">
<rect width="30.85" height="30.85" fill="white"/>
</clipPath>
</defs>
</svg>
