<svg width="23" height="23" viewBox="0 0 23 23" fill="none" xmlns="http://www.w3.org/2000/svg">
<g clip-path="url(#clip0_921_6177)">
<path d="M11.5 23C17.8403 23 23 17.8403 23 11.5C23 5.15968 17.8404 0 11.5 0C5.15961 0 0 5.15968 0 11.5C0 17.8403 5.15968 23 11.5 23ZM11.5 1.53331C16.997 1.53331 21.4667 6.00296 21.4667 11.5C21.4667 16.997 16.997 21.4667 11.5 21.4667C6.00296 21.4667 1.53331 16.997 1.53331 11.5C1.53331 6.00296 6.00302 1.53331 11.5 1.53331Z" fill="#6A7282"/>
<path d="M14.8602 15.1648C15.0021 15.2797 15.1707 15.3334 15.3394 15.3334C15.5655 15.3334 15.7879 15.2338 15.9373 15.0459C16.2019 14.7163 16.1481 14.2333 15.8185 13.9688L12.2727 11.1321V5.36675C12.2727 4.94508 11.9277 4.6001 11.506 4.6001C11.0844 4.6001 10.7394 4.94508 10.7394 5.36675V11.5001C10.7394 11.734 10.8467 11.9524 11.0269 12.0981L14.8602 15.1648Z" fill="#6A7282"/>
</g>
<defs>
<clipPath id="clip0_921_6177">
<rect width="23" height="23" fill="white"/>
</clipPath>
</defs>
</svg>
