<svg width="16" height="15" viewBox="0 0 16 15" fill="none" xmlns="http://www.w3.org/2000/svg">
<path d="M12.1729 8.08795L0.911152 8.20737C0.65772 8.2097 0.442978 8.12445 0.266927 7.95161C0.0913028 7.77919 0.00232522 7.56626 -5.76663e-06 7.31282C-0.00233678 7.05939 0.082918 6.84465 0.25576 6.6686C0.428183 6.49297 0.64111 6.404 0.894543 6.40167L12.1566 6.31392L7.29709 1.54299C7.11592 1.36513 7.02401 1.15476 7.02136 0.911891C7.01954 0.669014 7.10757 0.456993 7.28543 0.275827C7.4633 0.094661 7.67366 0.00275008 7.91653 9.37051e-05C8.15941 -0.00171788 8.37143 0.0863079 8.5526 0.264171L14.9467 6.54171C15.1279 6.71957 15.2196 6.92973 15.2218 7.17218C15.224 7.41547 15.1362 7.6277 14.9583 7.80887L8.68081 14.203C8.50294 14.3841 8.29257 14.4756 8.0497 14.4774C7.80683 14.4801 7.59481 14.3925 7.41364 14.2146C7.23248 14.0368 7.14099 13.8264 7.13918 13.5835C7.13652 13.3406 7.22412 13.1286 7.40199 12.9475L12.1729 8.08795Z" fill="#80838D"/>
</svg>
