<svg width="31" height="31" viewBox="0 0 31 31" fill="none" xmlns="http://www.w3.org/2000/svg">
<g clip-path="url(#clip0_1170_2116)">
<path d="M11.3383 23.8581C11.3383 23.8581 10.1594 24.5436 12.1773 24.7756C14.6219 25.0544 15.8713 25.0145 18.5653 24.5046C18.5653 24.5046 19.2736 24.9487 20.2627 25.3334C14.2236 27.9216 6.59477 25.1834 11.3383 23.8581ZM10.6003 20.4805C10.6003 20.4805 9.27809 21.4593 11.2975 21.6681C13.9089 21.9375 15.9711 21.9595 19.5397 21.2724C19.5397 21.2724 20.0333 21.7728 20.8094 22.0464C13.5077 24.1816 5.37481 22.2148 10.6003 20.4805Z" fill="#99A1AF"/>
<path d="M16.8214 14.7507C18.3095 16.4639 16.4305 18.0056 16.4305 18.0056C16.4305 18.0056 20.2088 16.0551 18.4736 13.6125C16.8529 11.3348 15.61 10.2029 22.3384 6.30078C22.3384 6.30078 11.7772 8.93845 16.8214 14.7506" fill="#D1D5DC"/>
<path d="M24.8088 26.3561C24.8088 26.3561 25.6812 27.0748 23.848 27.631C20.3621 28.687 9.33927 29.0059 6.27714 27.673C5.17643 27.1943 7.24066 26.5297 7.88994 26.3902C8.56708 26.2434 8.95411 26.2708 8.95411 26.2708C7.72996 25.4084 1.04173 27.964 5.55685 28.6959C17.8701 30.6927 28.0027 27.7967 24.8088 26.3561ZM11.905 16.9807C11.905 16.9807 6.29822 18.3124 9.91959 18.7959C11.4486 19.0007 14.4967 18.9544 17.336 18.7165C19.6564 18.5208 21.9863 18.1046 21.9863 18.1046C21.9863 18.1046 21.1681 18.455 20.5762 18.8592C14.8825 20.3567 3.88323 19.6601 7.04978 18.1283C9.72773 16.8338 11.9051 16.9807 11.9051 16.9807H11.905ZM21.9632 22.6028C27.7512 19.5951 25.0751 16.7048 23.2072 17.0943C22.7493 17.1895 22.5452 17.272 22.5452 17.272C22.5452 17.272 22.7152 17.0058 23.0398 16.8906C26.735 15.5914 29.577 20.7223 21.8469 22.7543C21.8469 22.7544 21.9365 22.6744 21.9632 22.6028Z" fill="#99A1AF"/>
<path d="M18.4737 8.93205e-05C18.4737 8.93205e-05 21.6792 3.20674 15.4334 8.13738C10.4251 12.0927 14.2914 14.3479 15.4314 16.9246C12.5079 14.2869 10.3624 11.9649 11.8018 9.80385C13.9143 6.63142 19.767 5.09339 18.4737 0" fill="#D1D5DC"/>
<path d="M12.4737 30.7529C18.0294 31.1086 26.5608 30.5556 26.7628 27.9268C26.7628 27.9268 26.3745 28.9234 22.1713 29.7148C17.4294 30.6071 11.581 30.503 8.11218 29.931C8.11227 29.931 8.82229 30.5188 12.4738 30.7529" fill="#99A1AF"/>
</g>
<defs>
<clipPath id="clip0_1170_2116">
<rect width="30.85" height="30.85" fill="white"/>
</clipPath>
</defs>
</svg>
