<svg width="400" height="82" viewBox="0 0 400 82" fill="none" xmlns="http://www.w3.org/2000/svg">
<path d="M60.2574 61.2999L40.4944 71.3827V51.217L60.2574 61.2999Z" fill="#05164D"/>
<path d="M20.2472 40.8222L40.2304 30.6502L20.2472 20.4335H20.2027L0.175976 30.6502L0 30.7394V50.9942L0.132477 51.0835H0.175976L20.2027 61.3001H20.2472V61.3447L40.2304 71.5614L40.4944 71.3829V71.6952L60.7415 82.0012V61.5678L60.2571 61.3001L40.4944 51.2173L40.2304 51.0835L20.2472 40.9114L20.2027 40.8668L20.2472 40.8222Z" fill="#FFAD00"/>
<path d="M40.4944 10.3505V30.5161L40.2303 30.65L20.2472 20.4333V20.3887L40.2303 10.172L40.4944 10.3505Z" fill="#FFAD00"/>
<path d="M40.2304 10.172L20.2472 0V20.4333L40.2304 30.6499L40.4944 30.5161V30.7839L60.2571 40.8667L40.4944 50.9495V51.2172L60.2571 61.3L60.7416 61.0769L80.2848 51.0833L80.9887 50.7265V31.007L80.2848 30.6501L60.7416 20.6565L60.2571 20.4334L40.4944 10.3505L40.2304 10.172Z" fill="#24315B"/>
<path d="M80.9887 50.7264V31.0069L80.2845 30.65L60.7656 40.5867V40.5833L60.2532 40.8691L60.7656 41.148V41.1466L80.2845 51.0833L80.9887 50.7264Z" fill="#05164D"/>
<path d="M60.7415 20.6564V40.599L60.2574 40.8667L40.4944 30.7839V30.5162L60.2574 20.4333L60.7415 20.6564Z" fill="#05164D"/>
<path d="M40.2303 30.65L20.2472 40.8221V20.4333L40.2303 30.65Z" fill="#FCBB31"/>
<path d="M20.2032 40.8667L0.176062 51.0833H0.132047L0 50.9941V30.7392L0.176062 30.65L20.2032 40.8667Z" fill="#FCBB31"/>
<path d="M20.2474 40.9113V61.3H20.2033L0.176239 51.0833L20.2033 40.8667L20.2474 40.9113Z" fill="#FFAD00"/>
<path d="M40.4944 51.2172V71.3829L40.2303 71.5613L20.2472 61.3447V61.3L40.2303 51.0834L40.4944 51.2172Z" fill="#FFAD00"/>
<path d="M60.7415 61.5677V82.0011L40.4944 71.6952V71.3829L60.2574 61.3L60.7415 61.5677Z" fill="#FFAD00"/>
<path d="M40.2303 51.0833L20.2472 61.3V40.9113L40.2303 51.0833Z" fill="#FCBB31"/>
<path d="M60.2574 61.3001L40.4944 71.3829V51.2172L60.2574 61.3001Z" fill="#FCBB31"/>
<path d="M60.7415 41.1344V61.0769L60.2574 61.3L40.4944 51.2172V50.9495L60.2574 40.8667L60.7415 41.1344Z" fill="#05164D"/>
<path d="M80.2845 51.0833L60.7415 61.0769V41.1343L80.2845 51.0833Z" fill="#24315B"/>
<path d="M20.2474 20.4333V40.8221L20.2033 40.8667L0.176239 30.65L20.2033 20.4333H20.2474Z" fill="#FFAD00"/>
<path d="M40.4944 10.3505V30.5162L40.2303 30.65L20.2472 20.4334V20.3888L40.2303 10.1721L40.4944 10.3505Z" fill="#FFAD00"/>
<path d="M40.4944 10.3505V30.5162L40.2303 30.65L20.2472 20.4334V20.3888L40.2303 10.1721L40.4944 10.3505Z" fill="#05164D"/>
<path d="M80.2845 30.65L60.7415 40.599V20.6564L80.2845 30.65Z" fill="#24315B"/>
<path d="M60.2574 20.4333L40.4944 30.5162V10.3505L60.2574 20.4333Z" fill="#24315B"/>
<path d="M40.2303 10.1721L20.2472 20.3887V0L40.2303 10.1721Z" fill="#24315B"/>
<path d="M376.322 28.8523C371.97 28.2908 368.917 28.01 367.162 28.01C365.443 28.01 364.32 28.1679 363.793 28.4838C363.302 28.7996 363.056 29.3085 363.056 30.0104C363.056 30.6772 363.39 31.151 364.056 31.4318C364.758 31.6774 366.513 32.0635 369.321 32.5899C372.163 33.0812 374.181 33.906 375.375 35.0641C376.568 36.2223 377.164 38.0998 377.164 40.6969C377.164 46.3823 373.637 49.225 366.583 49.225C364.267 49.225 361.459 48.9091 358.16 48.2774L356.476 47.9616L356.686 42.0656C361.038 42.6271 364.056 42.9079 365.741 42.9079C367.461 42.9079 368.619 42.7499 369.215 42.4341C369.847 42.0831 370.163 41.5743 370.163 40.9074C370.163 40.2406 369.83 39.7493 369.163 39.4335C368.531 39.1176 366.846 38.7315 364.109 38.2753C361.407 37.8191 359.389 37.047 358.055 35.959C356.721 34.8711 356.055 32.9409 356.055 30.1683C356.055 27.3607 357.002 25.255 358.897 23.8512C360.793 22.4123 363.232 21.6929 366.215 21.6929C368.285 21.6929 371.11 22.0263 374.69 22.6931L376.427 23.0089L376.322 28.8523Z" fill="#FFAD00"/>
<path d="M337.837 48.5933V22.2719H344.838V25.062C347.786 23.3072 350.594 22.1667 353.261 21.6402V28.747C350.418 29.3436 347.979 29.9578 345.944 30.5895L344.891 30.958V48.5933H337.837Z" fill="#FFAD00"/>
<path d="M316.792 38.4332C316.827 40.0476 317.248 41.2233 318.055 41.9603C318.898 42.6622 320.091 43.0131 321.635 43.0131C324.899 43.0131 327.812 42.9079 330.374 42.6973L331.848 42.5394L331.953 47.751C327.917 48.7337 324.267 49.225 321.003 49.225C317.038 49.225 314.16 48.1721 312.37 46.0664C310.58 43.9607 309.685 40.5389 309.685 35.8011C309.685 26.3605 313.563 21.6402 321.319 21.6402C328.97 21.6402 332.795 25.606 332.795 33.5375L332.269 38.4332H316.792ZM325.846 33.0637C325.846 30.958 325.513 29.5015 324.846 28.6943C324.179 27.8521 323.004 27.4309 321.319 27.4309C319.67 27.4309 318.494 27.8696 317.792 28.747C317.125 29.5893 316.774 31.0282 316.739 33.0637H325.846Z" fill="#FFAD00"/>
<path d="M304.483 11.7435V48.5934H297.481V47.4879C295.024 48.646 292.901 49.2251 291.111 49.2251C287.286 49.2251 284.619 48.1196 283.11 45.9086C281.601 43.6976 280.846 40.2057 280.846 35.4327C280.846 30.6247 281.741 27.1327 283.531 24.9568C285.356 22.7458 288.093 21.6404 291.743 21.6404C292.866 21.6404 294.428 21.8158 296.428 22.1668L297.428 22.3774V11.7435H304.483ZM296.691 42.2763L297.428 42.1184V28.2733C295.498 27.9224 293.778 27.7469 292.269 27.7469C289.427 27.7469 288.005 30.2738 288.005 35.3274C288.005 38.0649 288.321 40.0126 288.953 41.1708C289.585 42.3289 290.62 42.908 292.059 42.908C293.533 42.908 295.077 42.6974 296.691 42.2763Z" fill="#FFAD00"/>
<path d="M255.513 25.2726C257.373 22.851 260.479 21.6402 264.831 21.6402C269.182 21.6402 272.288 22.851 274.148 25.2726C276.008 27.659 276.938 31.0282 276.938 35.38C276.938 44.61 272.903 49.225 264.831 49.225C256.759 49.225 252.723 44.61 252.723 35.38C252.723 31.0282 253.653 27.659 255.513 25.2726ZM260.935 41.3286C261.672 42.592 262.971 43.2237 264.831 43.2237C266.691 43.2237 267.972 42.592 268.674 41.3286C269.411 40.0652 269.779 38.0823 269.779 35.38C269.779 32.6776 269.411 30.7123 268.674 29.484C267.972 28.2557 266.691 27.6415 264.831 27.6415C262.971 27.6415 261.672 28.2557 260.935 29.484C260.233 30.7123 259.882 32.6776 259.882 35.38C259.882 38.0823 260.233 40.0652 260.935 41.3286Z" fill="#FFAD00"/>
<path d="M249.24 48.0144C245.52 48.8216 242.169 49.2251 239.185 49.2251C236.202 49.2251 233.816 48.8566 232.026 48.1196C230.236 47.3827 228.832 46.207 227.815 44.5926C226.797 42.9782 226.095 41.0831 225.709 38.9072C225.323 36.7313 225.13 33.9939 225.13 30.6949C225.13 23.7812 226.095 18.9732 228.025 16.2708C229.991 13.5334 233.588 12.1647 238.817 12.1647C241.835 12.1647 245.327 12.6385 249.293 13.5861L249.082 19.3767C245.608 18.8503 242.713 18.5871 240.396 18.5871C238.115 18.5871 236.483 18.903 235.5 19.5347C234.518 20.1313 233.781 21.2894 233.289 23.0091C232.833 24.7288 232.605 27.6592 232.605 31.8004C232.605 35.9416 233.079 38.8194 234.026 40.4338C235.009 42.0131 236.939 42.8027 239.817 42.8027C242.73 42.8027 245.818 42.5571 249.082 42.0657L249.24 48.0144Z" fill="#FFAD00"/>
<path d="M204.875 38.4332C204.91 40.0476 205.331 41.2233 206.138 41.9603C206.981 42.6622 208.174 43.0131 209.718 43.0131C212.982 43.0131 215.895 42.9079 218.457 42.6973L219.931 42.5394L220.036 47.751C216 48.7337 212.35 49.225 209.086 49.225C205.12 49.225 202.243 48.1721 200.453 46.0664C198.663 43.9607 197.768 40.5389 197.768 35.8011C197.768 26.3605 201.646 21.6402 209.402 21.6402C217.053 21.6402 220.878 25.606 220.878 33.5375L220.352 38.4332H204.875ZM213.929 33.0637C213.929 30.958 213.596 29.5015 212.929 28.6943C212.262 27.8521 211.087 27.4309 209.402 27.4309C207.753 27.4309 206.577 27.8696 205.875 28.747C205.208 29.5893 204.857 31.0282 204.822 33.0637H213.929Z" fill="#05164D"/>
<path d="M185.516 22.272H192.57V48.5933H185.569V47.1193C183.042 48.5231 180.849 49.225 178.989 49.225C175.339 49.225 172.882 48.2248 171.619 46.2244C170.355 44.1889 169.724 40.8022 169.724 36.0644V22.272H176.778V36.1696C176.778 38.7667 176.988 40.539 177.409 41.4865C177.83 42.4341 178.848 42.9079 180.463 42.9079C182.007 42.9079 183.463 42.6622 184.832 42.1709L185.516 41.9603V22.272Z" fill="#05164D"/>
<path d="M156.114 48.5934V11.7435H163.168V48.5934H156.114Z" fill="#05164D"/>
<path d="M149.073 30.4842V41.4339C149.143 42.2762 149.284 42.8728 149.494 43.2237C149.705 43.5396 150.144 43.7677 150.81 43.9081L150.6 49.225C148.81 49.225 147.371 49.1021 146.283 48.8565C145.23 48.6108 144.16 48.1195 143.072 47.3825C140.545 48.6108 137.966 49.225 135.334 49.225C129.894 49.225 127.174 46.3472 127.174 40.5916C127.174 37.784 127.928 35.8011 129.438 34.643C130.947 33.4497 133.263 32.7478 136.386 32.5373L142.019 32.1161V30.4842C142.019 29.3962 141.773 28.6593 141.282 28.2732C140.791 27.8521 140.001 27.6415 138.913 27.6415L129.016 28.0626L128.806 23.1669C132.561 22.1491 136.123 21.6402 139.492 21.6402C142.897 21.6402 145.336 22.3421 146.81 23.7459C148.319 25.1497 149.073 27.3958 149.073 30.4842ZM137.229 37.433C135.263 37.6085 134.281 38.6614 134.281 40.5916C134.281 42.5218 135.141 43.4869 136.86 43.4869C138.194 43.4869 139.65 43.2764 141.23 42.8552L142.019 42.6447V37.0119L137.229 37.433Z" fill="#05164D"/>
<path d="M118.43 12.7962H126.063L117.746 48.5932H104.322L96.0041 12.7962H103.637L109.849 42.2761H112.218L118.43 12.7962Z" fill="#05164D"/>
<path d="M286.455 77.3297C285.993 77.3297 285.544 77.2508 285.106 77.0928C284.669 76.9471 284.292 76.7284 283.977 76.4368L284.724 75.1248C284.967 75.3556 285.234 75.5318 285.526 75.6533C285.817 75.7748 286.127 75.8355 286.455 75.8355C286.88 75.8355 287.232 75.7262 287.512 75.5075C287.791 75.2888 288.052 74.9001 288.295 74.3413L288.897 73.011L289.079 72.7923L292.869 64.0273H294.582L289.899 74.651C289.62 75.3313 289.304 75.8659 288.951 76.2546C288.611 76.6434 288.235 76.9167 287.822 77.0746C287.409 77.2447 286.953 77.3297 286.455 77.3297ZM288.751 73.995L284.341 64.0273H286.163L289.917 72.6283L288.751 73.995Z" fill="#4B5563"/>
<path d="M281.985 73.7947C281.013 73.7947 280.26 73.5335 279.725 73.0111C279.191 72.4887 278.924 71.7416 278.924 70.7698V61.9136H280.673V70.6969C280.673 71.2192 280.801 71.6201 281.056 71.8995C281.323 72.179 281.699 72.3187 282.185 72.3187C282.732 72.3187 283.188 72.1668 283.552 71.8631L284.099 73.1204C283.832 73.3513 283.51 73.5213 283.133 73.6307C282.769 73.74 282.386 73.7947 281.985 73.7947ZM277.284 65.467V64.0274H283.443V65.467H277.284Z" fill="#4B5563"/>
<path d="M273.579 73.6853V64.0274H275.328V73.6853H273.579ZM274.454 62.1687C274.114 62.1687 273.828 62.0594 273.597 61.8407C273.379 61.622 273.269 61.3548 273.269 61.0389C273.269 60.7109 273.379 60.4376 273.597 60.2189C273.828 60.0002 274.114 59.8909 274.454 59.8909C274.794 59.8909 275.073 60.0002 275.292 60.2189C275.523 60.4254 275.638 60.6866 275.638 61.0025C275.638 61.3305 275.529 61.6099 275.31 61.8407C275.092 62.0594 274.806 62.1687 274.454 62.1687Z" fill="#4B5563"/>
<path d="M267.503 73.7947C266.519 73.7947 265.638 73.5821 264.86 73.1569C264.095 72.7317 263.494 72.1486 263.056 71.4076C262.619 70.6665 262.4 69.8162 262.4 68.8564C262.4 67.8967 262.619 67.0463 263.056 66.3053C263.494 65.5642 264.095 64.9872 264.86 64.5742C265.638 64.149 266.519 63.9364 267.503 63.9364C268.377 63.9364 269.155 64.1125 269.835 64.4648C270.528 64.805 271.062 65.3152 271.439 65.9955L270.108 66.852C269.793 66.3782 269.404 66.032 268.942 65.8133C268.493 65.5825 268.007 65.4671 267.484 65.4671C266.853 65.4671 266.288 65.6068 265.79 65.8862C265.292 66.1656 264.897 66.5604 264.605 67.0706C264.314 67.5687 264.168 68.164 264.168 68.8564C264.168 69.5489 264.314 70.1502 264.605 70.6605C264.897 71.1707 265.292 71.5655 265.79 71.8449C266.288 72.1243 266.853 72.264 267.484 72.264C268.007 72.264 268.493 72.1547 268.942 71.936C269.404 71.7052 269.793 71.3529 270.108 70.8791L271.439 71.7174C271.062 72.3855 270.528 72.9018 269.835 73.2663C269.155 73.6186 268.377 73.7947 267.503 73.7947Z" fill="#4B5563"/>
<path d="M255.863 73.7947C254.891 73.7947 254.028 73.5821 253.275 73.1569C252.522 72.7317 251.927 72.1486 251.489 71.4076C251.052 70.6544 250.833 69.804 250.833 68.8564C250.833 67.8967 251.052 67.0463 251.489 66.3053C251.927 65.5642 252.522 64.9872 253.275 64.5742C254.028 64.149 254.891 63.9364 255.863 63.9364C256.822 63.9364 257.679 64.149 258.432 64.5742C259.197 64.9872 259.793 65.5642 260.218 66.3053C260.655 67.0342 260.874 67.8846 260.874 68.8564C260.874 69.8162 260.655 70.6665 260.218 71.4076C259.793 72.1486 259.197 72.7317 258.432 73.1569C257.679 73.5821 256.822 73.7947 255.863 73.7947ZM255.863 72.264C256.482 72.264 257.035 72.1243 257.521 71.8449C258.019 71.5655 258.408 71.1707 258.687 70.6605C258.967 70.1381 259.106 69.5367 259.106 68.8564C259.106 68.164 258.967 67.5687 258.687 67.0706C258.408 66.5604 258.019 66.1656 257.521 65.8862C257.035 65.6068 256.482 65.4671 255.863 65.4671C255.243 65.4671 254.69 65.6068 254.205 65.8862C253.719 66.1656 253.33 66.5604 253.038 67.0706C252.747 67.5687 252.601 68.164 252.601 68.8564C252.601 69.5367 252.747 70.1381 253.038 70.6605C253.33 71.1707 253.719 71.5655 254.205 71.8449C254.69 72.1243 255.243 72.264 255.863 72.264Z" fill="#4B5563"/>
<path d="M246.637 73.6853V60.1642H248.386V73.6853H246.637Z" fill="#4B5563"/>
<path d="M239.78 73.7947C238.747 73.7947 237.836 73.5821 237.046 73.1569C236.269 72.7317 235.661 72.1486 235.224 71.4076C234.799 70.6665 234.586 69.8162 234.586 68.8564C234.586 67.8967 234.793 67.0463 235.206 66.3053C235.631 65.5642 236.208 64.9872 236.937 64.5742C237.678 64.149 238.51 63.9364 239.433 63.9364C240.369 63.9364 241.195 64.1429 241.912 64.5559C242.628 64.969 243.187 65.5521 243.588 66.3053C244.001 67.0463 244.208 67.9149 244.208 68.9111C244.208 68.984 244.202 69.069 244.189 69.1662C244.189 69.2634 244.183 69.3545 244.171 69.4396H235.953V68.1822H243.26L242.549 68.6195C242.562 68 242.434 67.4472 242.167 66.9613C241.899 66.4754 241.529 66.0988 241.055 65.8315C240.594 65.5521 240.053 65.4124 239.433 65.4124C238.826 65.4124 238.285 65.5521 237.812 65.8315C237.338 66.0988 236.967 66.4814 236.7 66.9795C236.433 67.4655 236.299 68.0243 236.299 68.656V68.9475C236.299 69.5914 236.445 70.1685 236.736 70.6787C237.04 71.1768 237.459 71.5655 237.994 71.8449C238.528 72.1243 239.142 72.264 239.834 72.264C240.405 72.264 240.922 72.1668 241.383 71.9725C241.857 71.7781 242.27 71.4865 242.622 71.0978L243.588 72.2276C243.151 72.7378 242.604 73.1266 241.948 73.3938C241.304 73.6611 240.581 73.7947 239.78 73.7947Z" fill="#4B5563"/>
<path d="M227.439 73.6852L221.826 60.9294H223.794L228.951 72.7012H227.822L233.015 60.9294H234.837L229.243 73.6852H227.439Z" fill="#4B5563"/>
<path d="M210.255 77.3299C209.369 77.3299 208.506 77.2023 207.668 76.9472C206.842 76.7042 206.167 76.3519 205.645 75.8903L206.483 74.5418C206.933 74.9306 207.486 75.2343 208.142 75.453C208.798 75.6838 209.484 75.7992 210.201 75.7992C211.343 75.7992 212.181 75.5319 212.715 74.9974C213.25 74.4629 213.517 73.6489 213.517 72.5556V70.5147L213.699 68.6013L213.608 66.6697V64.0275H215.267V72.3734C215.267 74.0741 214.841 75.3254 213.991 76.1272C213.141 76.929 211.895 77.3299 210.255 77.3299ZM210.037 73.2845C209.101 73.2845 208.263 73.0901 207.522 72.7014C206.793 72.3005 206.21 71.7477 205.773 71.0431C205.347 70.3385 205.135 69.5246 205.135 68.6013C205.135 67.6659 205.347 66.852 205.773 66.1595C206.21 65.4549 206.793 64.9082 207.522 64.5195C208.263 64.1307 209.101 63.9364 210.037 63.9364C210.863 63.9364 211.616 64.1064 212.296 64.4466C212.977 64.7746 213.517 65.2848 213.918 65.9773C214.331 66.6697 214.538 67.5444 214.538 68.6013C214.538 69.6461 214.331 70.5147 213.918 71.2071C213.517 71.8996 212.977 72.422 212.296 72.7743C211.616 73.1144 210.863 73.2845 210.037 73.2845ZM210.237 71.7538C210.881 71.7538 211.452 71.6202 211.95 71.3529C212.448 71.0857 212.837 70.7151 213.116 70.2413C213.408 69.7676 213.554 69.2209 213.554 68.6013C213.554 67.9818 213.408 67.4351 213.116 66.9613C212.837 66.4875 212.448 66.1231 211.95 65.868C211.452 65.6007 210.881 65.4671 210.237 65.4671C209.593 65.4671 209.016 65.6007 208.506 65.868C208.008 66.1231 207.613 66.4875 207.322 66.9613C207.042 67.4351 206.902 67.9818 206.902 68.6013C206.902 69.2209 207.042 69.7676 207.322 70.2413C207.613 70.7151 208.008 71.0857 208.506 71.3529C209.016 71.6202 209.593 71.7538 210.237 71.7538Z" fill="#4B5563"/>
<path d="M198.781 63.9364C199.571 63.9364 200.263 64.0882 200.859 64.3919C201.466 64.6956 201.94 65.1573 202.28 65.7768C202.62 66.3964 202.79 67.18 202.79 68.1275V73.6854H201.041V68.328C201.041 67.3926 200.81 66.688 200.348 66.2142C199.899 65.7404 199.261 65.5035 198.435 65.5035C197.815 65.5035 197.275 65.625 196.813 65.868C196.352 66.1109 195.993 66.4693 195.738 66.9431C195.495 67.4169 195.374 68.0061 195.374 68.7107V73.6854H193.624V64.0275H195.301V66.6333L195.027 65.9408C195.343 65.3091 195.829 64.8171 196.485 64.4648C197.141 64.1125 197.907 63.9364 198.781 63.9364Z" fill="#4B5563"/>
<path d="M188.535 73.6853V64.0274H190.284V73.6853H188.535ZM189.41 62.1687C189.069 62.1687 188.784 62.0594 188.553 61.8407C188.334 61.622 188.225 61.3548 188.225 61.0389C188.225 60.7109 188.334 60.4376 188.553 60.2189C188.784 60.0002 189.069 59.8909 189.41 59.8909C189.75 59.8909 190.029 60.0002 190.248 60.2189C190.479 60.4254 190.594 60.6866 190.594 61.0025C190.594 61.3305 190.485 61.6099 190.266 61.8407C190.047 62.0594 189.762 62.1687 189.41 62.1687Z" fill="#4B5563"/>
<path d="M181.185 73.6854V64.0275H182.862V66.6515L182.698 65.9955C182.965 65.3274 183.415 64.8171 184.046 64.4648C184.678 64.1125 185.455 63.9364 186.379 63.9364V65.6311C186.306 65.6189 186.233 65.6128 186.16 65.6128C186.099 65.6128 186.039 65.6128 185.978 65.6128C185.042 65.6128 184.301 65.8922 183.755 66.4511C183.208 67.0099 182.935 67.8178 182.935 68.8747V73.6854H181.185Z" fill="#4B5563"/>
<path d="M174.328 73.7947C173.296 73.7947 172.384 73.5821 171.595 73.1569C170.817 72.7317 170.21 72.1486 169.773 71.4076C169.347 70.6665 169.135 69.8162 169.135 68.8564C169.135 67.8967 169.341 67.0463 169.754 66.3053C170.18 65.5642 170.757 64.9872 171.486 64.5742C172.227 64.149 173.059 63.9364 173.982 63.9364C174.917 63.9364 175.744 64.1429 176.46 64.5559C177.177 64.969 177.736 65.5521 178.137 66.3053C178.55 67.0463 178.756 67.9149 178.756 68.9111C178.756 68.984 178.75 69.069 178.738 69.1662C178.738 69.2634 178.732 69.3545 178.72 69.4396H170.502V68.1822H177.809L177.098 68.6195C177.11 68 176.983 67.4472 176.715 66.9613C176.448 66.4754 176.078 66.0988 175.604 65.8315C175.142 65.5521 174.602 65.4124 173.982 65.4124C173.375 65.4124 172.834 65.5521 172.36 65.8315C171.886 66.0988 171.516 66.4814 171.249 66.9795C170.981 67.4655 170.848 68.0243 170.848 68.656V68.9475C170.848 69.5914 170.994 70.1685 171.285 70.6787C171.589 71.1768 172.008 71.5655 172.542 71.8449C173.077 72.1243 173.69 72.264 174.383 72.264C174.954 72.264 175.47 72.1668 175.932 71.9725C176.406 71.7781 176.819 71.4865 177.171 71.0978L178.137 72.2276C177.699 72.7378 177.153 73.1266 176.497 73.3938C175.853 73.6611 175.13 73.7947 174.328 73.7947Z" fill="#4B5563"/>
<path d="M163.171 73.7947C162.138 73.7947 161.227 73.5821 160.437 73.1569C159.66 72.7317 159.052 72.1486 158.615 71.4076C158.19 70.6665 157.977 69.8162 157.977 68.8564C157.977 67.8967 158.184 67.0463 158.597 66.3053C159.022 65.5642 159.599 64.9872 160.328 64.5742C161.069 64.149 161.901 63.9364 162.824 63.9364C163.76 63.9364 164.586 64.1429 165.303 64.5559C166.019 64.969 166.578 65.5521 166.979 66.3053C167.392 67.0463 167.599 67.9149 167.599 68.9111C167.599 68.984 167.592 69.069 167.58 69.1662C167.58 69.2634 167.574 69.3545 167.562 69.4396H159.344V68.1822H166.651L165.94 68.6195C165.952 68 165.825 67.4472 165.558 66.9613C165.29 66.4754 164.92 66.0988 164.446 65.8315C163.984 65.5521 163.444 65.4124 162.824 65.4124C162.217 65.4124 161.676 65.5521 161.202 65.8315C160.729 66.0988 160.358 66.4814 160.091 66.9795C159.824 67.4655 159.69 68.0243 159.69 68.656V68.9475C159.69 69.5914 159.836 70.1685 160.127 70.6787C160.431 71.1768 160.85 71.5655 161.385 71.8449C161.919 72.1243 162.533 72.264 163.225 72.264C163.796 72.264 164.312 72.1668 164.774 71.9725C165.248 71.7781 165.661 71.4865 166.013 71.0978L166.979 72.2276C166.542 72.7378 165.995 73.1266 165.339 73.3938C164.695 73.6611 163.972 73.7947 163.171 73.7947Z" fill="#4B5563"/>
<path d="M151.624 63.9364C152.413 63.9364 153.106 64.0882 153.701 64.3919C154.308 64.6956 154.782 65.1573 155.122 65.7768C155.462 66.3964 155.633 67.18 155.633 68.1275V73.6854H153.883V68.328C153.883 67.3926 153.652 66.688 153.191 66.2142C152.741 65.7404 152.103 65.5035 151.277 65.5035C150.658 65.5035 150.117 65.625 149.656 65.868C149.194 66.1109 148.836 66.4693 148.58 66.9431C148.337 67.4169 148.216 68.0061 148.216 68.7107V73.6854H146.467V64.0275H148.143V66.6333L147.87 65.9408C148.186 65.3091 148.672 64.8171 149.328 64.4648C149.984 64.1125 150.749 63.9364 151.624 63.9364Z" fill="#4B5563"/>
<path d="M141.377 73.6853V64.0274H143.127V73.6853H141.377ZM142.252 62.1687C141.912 62.1687 141.626 62.0594 141.395 61.8407C141.177 61.622 141.067 61.3548 141.067 61.0389C141.067 60.7109 141.177 60.4376 141.395 60.2189C141.626 60.0002 141.912 59.8909 142.252 59.8909C142.592 59.8909 142.871 60.0002 143.09 60.2189C143.321 60.4254 143.436 60.6866 143.436 61.0025C143.436 61.3305 143.327 61.6099 143.108 61.8407C142.89 62.0594 142.604 62.1687 142.252 62.1687Z" fill="#4B5563"/>
<path d="M133.023 77.3299C132.137 77.3299 131.274 77.2023 130.436 76.9472C129.61 76.7042 128.936 76.3519 128.413 75.8903L129.251 74.5418C129.701 74.9306 130.254 75.2343 130.91 75.453C131.566 75.6838 132.252 75.7992 132.969 75.7992C134.111 75.7992 134.949 75.5319 135.483 74.9974C136.018 74.4629 136.285 73.6489 136.285 72.5556V70.5147L136.467 68.6013L136.376 66.6697V64.0275H138.035V72.3734C138.035 74.0741 137.609 75.3254 136.759 76.1272C135.909 76.929 134.663 77.3299 133.023 77.3299ZM132.805 73.2845C131.869 73.2845 131.031 73.0901 130.29 72.7014C129.561 72.3005 128.978 71.7477 128.541 71.0431C128.116 70.3385 127.903 69.5246 127.903 68.6013C127.903 67.6659 128.116 66.852 128.541 66.1595C128.978 65.4549 129.561 64.9082 130.29 64.5195C131.031 64.1307 131.869 63.9364 132.805 63.9364C133.631 63.9364 134.384 64.1064 135.064 64.4466C135.745 64.7746 136.285 65.2848 136.686 65.9773C137.099 66.6697 137.306 67.5444 137.306 68.6013C137.306 69.6461 137.099 70.5147 136.686 71.2071C136.285 71.8996 135.745 72.422 135.064 72.7743C134.384 73.1144 133.631 73.2845 132.805 73.2845ZM133.005 71.7538C133.649 71.7538 134.22 71.6202 134.718 71.3529C135.216 71.0857 135.605 70.7151 135.884 70.2413C136.176 69.7676 136.322 69.2209 136.322 68.6013C136.322 67.9818 136.176 67.4351 135.884 66.9613C135.605 66.4875 135.216 66.1231 134.718 65.868C134.22 65.6007 133.649 65.4671 133.005 65.4671C132.361 65.4671 131.784 65.6007 131.274 65.868C130.776 66.1231 130.381 66.4875 130.09 66.9613C129.81 67.4351 129.671 67.9818 129.671 68.6013C129.671 69.2209 129.81 69.7676 130.09 70.2413C130.381 70.7151 130.776 71.0857 131.274 71.3529C131.784 71.6202 132.361 71.7538 133.005 71.7538Z" fill="#4B5563"/>
<path d="M121.549 63.9364C122.339 63.9364 123.031 64.0882 123.627 64.3919C124.234 64.6956 124.708 65.1573 125.048 65.7768C125.388 66.3964 125.558 67.18 125.558 68.1275V73.6854H123.809V68.328C123.809 67.3926 123.578 66.688 123.117 66.2142C122.667 65.7404 122.029 65.5035 121.203 65.5035C120.584 65.5035 120.043 65.625 119.581 65.868C119.12 66.1109 118.761 66.4693 118.506 66.9431C118.263 67.4169 118.142 68.0061 118.142 68.7107V73.6854H116.392V64.0275H118.069V66.6333L117.796 65.9408C118.111 65.3091 118.597 64.8171 119.253 64.4648C119.909 64.1125 120.675 63.9364 121.549 63.9364Z" fill="#4B5563"/>
<path d="M106.098 66.4326H112.658V67.9815H106.098V66.4326ZM106.262 72.0998H113.697V73.6852H104.44V60.9294H113.442V62.5148H106.262V72.0998Z" fill="#4B5563"/>
<path d="M389.441 30.3707V20.4496H390.603L395.054 27.9471H394.43L398.824 20.4496H399.986L400 30.3707H398.639L398.625 22.5897H398.951L395.039 29.166H394.387L390.447 22.5897H390.802V30.3707H389.441Z" fill="#6B7280"/>
<path d="M383.093 30.3707V21.6827H379.691V20.4496H387.897V21.6827H384.496V30.3707H383.093Z" fill="#6B7280"/>
</svg>
