<svg width="31" height="31" viewBox="0 0 31 31" fill="none" xmlns="http://www.w3.org/2000/svg">
<g clip-path="url(#clip0_1170_2131)">
<path d="M10.9149 11.9445C11.9795 15.1999 12.3827 21.0069 15.4957 21.0069C15.7323 21.0069 15.9721 20.9838 16.2124 20.938C13.3829 20.2783 13.0474 14.5344 11.3205 11.5596C11.1851 11.6827 11.0511 11.8109 10.9149 11.9445Z" fill="#99A1AF"/>
<path d="M11.3206 11.5595C13.0474 14.5341 13.3829 20.278 16.2125 20.9379C16.4349 20.8971 16.6576 20.8352 16.8808 20.7573C14.3407 19.5127 13.6389 13.9352 11.6777 11.25C11.5592 11.3488 11.4399 11.4522 11.3206 11.5595Z" fill="#99A1AF"/>
<path d="M13.8086 9.79004C13.5724 9.79004 13.3322 9.81318 13.0911 9.85897C12.4616 9.97779 11.8215 10.2489 11.1765 10.6594C11.3525 10.8334 11.5204 11.0322 11.6781 11.2494C12.3344 10.7049 12.9861 10.3027 13.6351 10.0607C13.879 9.97032 14.1217 9.90259 14.3652 9.85776C14.1895 9.81342 14.0043 9.79004 13.8086 9.79004Z" fill="#99A1AF"/>
<path d="M18.8638 19.6108C19.1236 19.4042 19.3839 19.1757 19.6447 18.9263C18.563 15.6863 18.1757 9.7959 15.041 9.7959C14.8169 9.7959 14.5908 9.81687 14.3652 9.85856C17.2205 10.5688 17.5864 16.781 18.8638 19.6108Z" fill="#99A1AF"/>
<path d="M14.3652 9.858C14.1895 9.81342 14.0042 9.79004 13.8082 9.79004L15.0408 9.79462C14.8169 9.79462 14.5908 9.81535 14.3652 9.858Z" fill="#99A1AF"/>
<path d="M18.8087 20.2988C18.6863 20.1819 18.5699 20.0536 18.4554 19.917C17.9281 20.2903 17.4027 20.5735 16.8809 20.7579C17.0667 20.8485 17.2612 20.916 17.468 20.9577C17.628 20.9905 17.7941 21.0073 17.9681 21.0073C18.554 21.0073 19.0172 20.9379 19.411 20.749C19.1941 20.6314 18.995 20.4795 18.8087 20.2988Z" fill="#99A1AF"/>
<path d="M13.6348 10.0621C16.1922 11.3997 16.4146 17.4574 18.4553 19.9169C18.5922 19.8205 18.7277 19.7183 18.8629 19.6106C17.5855 16.7808 17.2204 10.5679 14.3655 9.8584C14.1219 9.90395 13.8787 9.97144 13.6348 10.0621Z" fill="#99A1AF"/>
<path d="M11.6776 11.2497C13.6388 13.9349 14.3406 19.5127 16.8807 20.7573C17.4027 20.5729 17.9281 20.29 18.4552 19.9164C16.4145 17.4568 16.1921 11.3994 13.6347 10.0615C12.9856 10.303 12.3339 10.7053 11.6776 11.2497Z" fill="#99A1AF"/>
<path d="M9.66049 11.8657C9.35319 12.5606 9.03915 13.4743 8.65979 14.6666C9.41441 13.603 10.1669 12.6869 10.915 11.9443C10.8118 11.6276 10.7012 11.3353 10.5819 11.0752C10.276 11.309 9.96754 11.5727 9.66049 11.8657Z" fill="#99A1AF"/>
<path d="M10.8544 10.875C10.7642 10.9396 10.6734 11.0056 10.582 11.0755C10.7013 11.3358 10.8117 11.6279 10.9146 11.9449C11.0506 11.8118 11.1855 11.6831 11.3205 11.56C11.1757 11.311 11.0216 11.0813 10.8544 10.875Z" fill="#99A1AF"/>
<path d="M11.1766 10.6592C11.0694 10.7271 10.9626 10.799 10.8544 10.8739C11.0219 11.08 11.1756 11.3102 11.321 11.5594C11.4403 11.4514 11.5593 11.3475 11.6782 11.2492C11.5205 11.0323 11.3528 10.8332 11.1766 10.6592Z" fill="#99A1AF"/>
<path d="M28.6207 9.54222C27.1744 15.1203 24.1532 19.6008 21.6206 20.7302H21.6156L21.4789 20.7887L21.4623 20.7952L21.4235 20.8102L21.4061 20.8174L21.3427 20.8398L21.3167 20.849L21.2851 20.8594L21.2548 20.87L21.2278 20.8791L21.1738 20.8955L21.1507 20.9015L21.1143 20.9114L21.0894 20.9182L21.0497 20.9285L21.0012 20.9391C21.1157 20.9813 21.235 21.0028 21.3635 21.0028C23.7652 21.0028 26.1869 16.6987 30.1938 9.54102H28.6204L28.6207 9.54222Z" fill="#99A1AF"/>
<path d="M8.13797 10.0175L8.14255 10.0137L8.14809 10.0101H8.15123L8.19003 9.99513L8.19774 9.99127L8.20786 9.98718L8.24956 9.97223H8.25173L8.34404 9.93994L8.35778 9.93632L8.3973 9.92451L8.41538 9.91873L8.45515 9.90692L8.47033 9.90282L8.60241 9.8686L8.62048 9.8645L8.65905 9.85703L8.67785 9.85124L8.71665 9.84401H8.72581L8.80606 9.82907H8.82197L8.85909 9.82256L8.88006 9.81895L8.91549 9.81365L8.93501 9.80979L9.02129 9.80208C8.93814 9.79436 8.85282 9.78906 8.76557 9.78906C6.06066 9.78906 2.33407 14.8075 0.65564 21.3067H0.979324C1.51655 20.3487 1.99906 19.4422 2.44036 18.5914C3.61628 13.988 6.01077 10.8486 8.13797 10.0168" fill="#99A1AF"/>
<path d="M9.66028 11.8656C9.96757 11.5725 10.2758 11.3088 10.5817 11.0748C10.512 10.922 10.4397 10.7803 10.3621 10.6504C10.1148 10.9507 9.88876 11.3469 9.66028 11.8656Z" fill="#99A1AF"/>
<path d="M9.88261 10.0547C10.0593 10.2027 10.2176 10.4066 10.3622 10.6507C10.4078 10.5948 10.4541 10.543 10.502 10.4943C10.301 10.3068 10.0841 10.153 9.84839 10.0371L9.87731 10.0508L9.88261 10.0547Z" fill="#99A1AF"/>
<path d="M2.44043 18.5912C4.90674 13.8386 6.07519 10.8308 8.13804 10.0166C6.01108 10.8491 3.6161 13.9883 2.44043 18.5912Z" fill="#99A1AF"/>
<path d="M10.5019 10.4941C10.4539 10.5433 10.4081 10.5946 10.3621 10.6506C10.4397 10.7802 10.5117 10.9215 10.5821 11.0747C10.6732 11.0049 10.7643 10.9391 10.8542 10.8742C10.7429 10.7366 10.625 10.6089 10.5019 10.4941Z" fill="#99A1AF"/>
<path d="M3.5603 21.2845L3.51547 21.2898H3.50704L3.46896 21.2937H3.46269L3.37207 21.2997H3.36267C5.85863 21.2298 6.99984 19.9801 7.56598 18.1672C7.9962 16.7932 8.34977 15.6354 8.65947 14.6641C7.61395 16.1357 6.5636 17.8898 5.50771 19.8553C4.99869 20.8025 4.2243 21.1982 3.5603 21.2826" fill="#99A1AF"/>
<path d="M3.56018 21.2836C4.22418 21.199 4.99856 20.8038 5.50758 19.8561C6.56347 17.8916 7.6143 16.137 8.65886 14.6651C9.03895 13.4723 9.35251 12.5593 9.66004 11.8643C7.57791 13.8461 5.48782 17.1415 3.55994 21.2824" fill="#99A1AF"/>
<path d="M2.44053 18.5908C1.99923 19.4416 1.51671 20.3481 0.979248 21.3061H1.92017C2.04478 20.3546 2.2212 19.4476 2.44028 18.5913" fill="#99A1AF"/>
<path d="M8.93484 9.81099L8.91483 9.81485L8.87965 9.81991L8.85892 9.82352L8.8218 9.83003L8.80589 9.83389L8.72564 9.84787H8.71648L8.67743 9.85558L8.65791 9.86088L8.62007 9.86835L8.60224 9.87269L8.46992 9.90692L8.45474 9.91125L8.41473 9.92306L8.39665 9.92813L8.35736 9.93993L8.3429 9.94379L8.25108 9.97609L8.20938 9.99055L8.19203 9.99778L8.15322 10.0122L8.14021 10.0185C6.0776 10.8324 4.90915 13.8403 2.44284 18.5929C2.22376 19.449 2.04637 20.3561 1.92273 21.3077H2.05457L2.95958 21.3038H3.37485L3.46523 21.2978H3.47101L3.50909 21.2939H3.51801L3.56284 21.2886C5.49097 17.1475 7.58105 13.8523 9.66295 11.8705C9.89191 11.3518 10.1177 10.9556 10.3645 10.6558C10.2199 10.4116 10.0618 10.2072 9.8854 10.059L9.88034 10.0551L9.85094 10.0409L9.82178 10.0262L9.79358 10.0125L9.76008 9.9985L9.73405 9.98717L9.67934 9.96428L9.65596 9.9556L9.61523 9.93921L9.59329 9.93198L9.53665 9.91246H9.53207L9.46652 9.8939L9.45182 9.88932L9.39662 9.8739L9.38385 9.87028C9.33926 9.85823 9.29323 9.84907 9.24671 9.84015L9.23249 9.8363L9.17296 9.82666L9.16115 9.82304L9.09078 9.81364H9.07848L9.02401 9.80762L8.93773 9.81557" fill="#99A1AF"/>
<path d="M22.9711 12.6311C22.4963 14.1512 22.1124 15.4052 21.7776 16.437C23.0798 14.6451 24.3625 12.3911 25.5837 9.79004C24.1586 10.2376 23.3989 11.2619 22.9711 12.6311Z" fill="#99A1AF"/>
<path d="M21.8191 20.6362C21.7528 20.6699 21.686 20.702 21.6207 20.7312C24.1533 19.6015 27.1747 15.121 28.6208 9.54297H28.3277C25.0046 15.4794 23.9359 19.4535 21.8191 20.6362Z" fill="#99A1AF"/>
<path d="M20.1652 20.1371C20.7164 19.4644 21.165 18.321 21.7779 16.4365C21.071 17.4076 20.3595 18.2422 19.6473 18.9228L19.6437 18.9289C19.7991 19.3943 19.9695 19.8052 20.1638 20.1368" fill="#99A1AF"/>
<path d="M20.1653 20.1367C19.9778 20.3657 19.7789 20.5399 19.5582 20.6691C19.5099 20.6973 19.4608 20.7238 19.4111 20.7479C19.6444 20.8737 19.8987 20.9581 20.1838 20.9916L20.3101 21.0027H20.3176L20.3783 21.0065H20.5844L20.6078 21.0027L20.6533 20.9988H20.6755L20.7249 20.9935H20.729L20.7442 20.9899L20.797 20.9817H20.8124L20.8717 20.9718H20.8813L20.9997 20.9468C20.6726 20.8272 20.3991 20.545 20.1636 20.1432" fill="#99A1AF"/>
<path d="M15.4957 21.0067C15.7324 21.0067 15.972 20.9835 16.2123 20.9372C16.435 20.897 16.6577 20.8351 16.8806 20.7572C17.0664 20.8478 17.2612 20.9153 17.4675 20.9575C17.6275 20.99 17.7938 21.0069 17.9681 21.0069L15.4957 21.0067ZM17.9681 21.0069C18.5535 21.0069 19.0172 20.9372 19.4108 20.748C19.6441 20.8741 19.8984 20.9582 20.1835 20.992L20.3098 21.0028H20.3172L20.378 21.0067H20.4508L17.9681 21.0069Z" fill="#99A1AF"/>
<path d="M20.4508 21.0075H20.586L20.6094 21.0036L20.6554 20.9998H20.6776L20.7268 20.9945H20.7309L20.7458 20.9906L20.7986 20.9827L20.8147 20.979L20.8743 20.9694H20.8837L21.002 20.9443C21.1165 20.9865 21.2358 21.008 21.3643 21.008L20.4513 21.0118L20.4508 21.0075Z" fill="#99A1AF"/>
<path d="M19.6451 18.9296V18.9258C19.3843 19.1752 19.124 19.4037 18.8642 19.6103C18.7285 19.718 18.5931 19.8202 18.4562 19.9166C18.5709 20.0535 18.6873 20.1817 18.81 20.2986C18.9961 20.4791 19.1949 20.6312 19.412 20.7486C19.4615 20.7242 19.5109 20.6977 19.5588 20.6698C19.7801 20.5406 19.9784 20.3661 20.1662 20.1374C19.9719 19.8057 19.8015 19.3946 19.6463 18.9294" fill="#99A1AF"/>
<path d="M27.3996 9.54297H25.9243L25.6905 9.5543L25.5818 9.78712C24.3604 12.3884 23.0782 14.6424 21.776 16.4343C21.1638 18.3186 20.7145 19.4622 20.1636 20.1346C20.399 20.5367 20.6731 20.8191 20.9989 20.9389L21.0245 20.9334H21.0298L21.0479 20.9295L21.0888 20.9194L21.1132 20.9124L21.1496 20.903L21.1722 20.8965L21.2267 20.8801L21.2537 20.8709L21.2841 20.8599L21.3154 20.85L21.3409 20.8403L21.4046 20.8179L21.4222 20.8114L21.4612 20.7962L21.4776 20.7902L21.6145 20.7316H21.6193C21.6846 20.703 21.7511 20.6704 21.8172 20.6367C23.9345 19.4538 25.0034 15.4799 28.3265 9.54369H27.3984L27.3996 9.54297Z" fill="#99A1AF"/>
<path d="M9.02173 9.80391L9.03691 9.80777L9.07547 9.81187H9.08849L9.15887 9.82103L9.17068 9.82488L9.22997 9.83476L9.24491 9.83838L9.38156 9.86875L9.3941 9.8726L9.44905 9.88803L9.46423 9.89261L9.52955 9.91117L9.53461 9.91502L9.59173 9.93454L9.61342 9.94153L9.65439 9.95816L9.67753 9.96636L9.732 9.98901L9.75851 10.0003L9.79129 10.0146L9.82021 10.0283L9.84889 10.0432C10.0848 10.1589 10.3018 10.3134 10.5028 10.5007C10.577 10.4228 10.6541 10.3529 10.7346 10.29C10.2953 9.97841 9.79708 9.80078 9.22322 9.80078C9.1567 9.80078 9.09018 9.80464 9.02269 9.8097" fill="#99A1AF"/>
<path d="M10.502 10.4948C10.6251 10.6093 10.743 10.737 10.8543 10.8749C10.9623 10.8 11.0693 10.7276 11.1766 10.6602C11.036 10.5197 10.8878 10.3931 10.7333 10.2842C10.6531 10.3468 10.5762 10.4172 10.502 10.4948Z" fill="#99A1AF"/>
<path d="M8.9575 9.81924L9.15815 9.81074C9.7324 9.81074 10.2301 9.98834 10.6693 10.2998C11.1328 9.93359 11.6936 9.80588 12.4723 9.80588H8.7019L8.9575 9.81924Z" fill="#99A1AF"/>
<path d="M12.4725 9.80588C11.6939 9.80588 11.1343 9.9336 10.6696 10.2998C10.8229 10.4081 10.9713 10.5347 11.1124 10.6758C11.7585 10.2658 12.3972 9.99322 13.0274 9.8752C13.2683 9.83019 13.508 9.80707 13.744 9.80707L12.4725 9.80588Z" fill="#99A1AF"/>
<path d="M21.7776 16.4381C22.1128 15.4056 22.4958 14.1521 22.9716 12.6315C23.3998 11.2616 24.1586 10.2373 25.583 9.79044L25.6929 9.55762C23.3704 9.69668 22.2849 10.8781 21.739 12.6277C20.7836 15.6821 20.2049 17.662 19.6477 18.9237C20.3592 18.2433 21.0707 17.4082 21.7776 16.4381Z" fill="#99A1AF"/>
</g>
<defs>
<clipPath id="clip0_1170_2131">
<rect width="30.85" height="30.85" fill="white"/>
</clipPath>
</defs>
</svg>
