<svg width="47" height="15" viewBox="0 0 47 15" fill="none" xmlns="http://www.w3.org/2000/svg">
<path d="M12.9994 6.36401C12.4471 6.36401 11.9994 6.81173 11.9994 7.36401C11.9994 7.9163 12.4471 8.36401 12.9994 8.36401V7.36401V6.36401ZM33.7216 8.07112C34.1121 7.6806 34.1121 7.04743 33.7216 6.65691L27.3576 0.292946C26.9671 -0.0975785 26.334 -0.0975785 25.9434 0.292946C25.5529 0.68347 25.5529 1.31664 25.9434 1.70716L31.6003 7.36401L25.9434 13.0209C25.5529 13.4114 25.5529 14.0446 25.9434 14.4351C26.334 14.8256 26.9671 14.8256 27.3576 14.4351L33.7216 8.07112ZM12.9994 7.36401V8.36401H33.0145V7.36401V6.36401H12.9994V7.36401Z" fill="white"/>
</svg>
