<svg width="31" height="31" viewBox="0 0 31 31" fill="none" xmlns="http://www.w3.org/2000/svg">
<g clip-path="url(#clip0_1170_2092)">
<path d="M14.2749 0.32908C15.0397 -0.108704 16.0359 -0.110682 16.8001 0.32908C20.6446 2.50141 24.4903 4.67034 28.3341 6.84399C29.0571 7.25124 29.5406 8.05584 29.5333 8.88889V21.9585C29.5387 22.826 29.0073 23.6499 28.2445 24.0479C24.4127 26.2082 20.5828 28.3712 16.7516 30.5316C15.971 30.9779 14.9548 30.9436 14.1985 30.4606C13.0497 29.7947 11.899 29.132 10.7501 28.4667C10.5153 28.3267 10.2507 28.2153 10.0849 27.9877C10.2314 27.7902 10.4935 27.7656 10.7064 27.6793C11.1859 27.5269 11.6263 27.2821 12.0668 27.0446C12.1782 26.9683 12.3142 26.9976 12.421 27.0658C13.4034 27.629 14.377 28.2086 15.3627 28.7665C15.573 28.8879 15.7859 28.7267 15.9656 28.6265C19.7258 26.5013 23.4907 24.3841 27.2502 22.2583C27.3895 22.1913 27.4665 22.0434 27.4552 21.8908C27.4578 17.5794 27.4559 13.2673 27.4565 8.9559C27.4725 8.78277 27.3723 8.62358 27.2157 8.55272C23.3972 6.40225 19.5806 4.24849 15.7627 2.09747C15.6965 2.05199 15.6182 2.02759 15.5379 2.02747C15.4576 2.02735 15.3792 2.05152 15.3129 2.09681C11.495 4.24849 7.67911 6.40423 3.86121 8.55459C3.70522 8.62556 3.60052 8.78211 3.61909 8.9559C3.61975 13.2673 3.61909 17.5794 3.61909 21.8915C3.61247 21.9659 3.62882 22.0406 3.66594 22.1055C3.70307 22.1704 3.75918 22.2223 3.82672 22.2543C4.84554 22.8321 5.86569 23.4058 6.88517 23.9815C7.45951 24.2907 8.16468 24.4743 8.79747 24.2375C9.35588 24.0372 9.7473 23.4674 9.73664 22.8745C9.74192 18.5883 9.73401 14.3014 9.7406 10.0158C9.72665 9.82554 9.90714 9.66833 10.0921 9.68624C10.5817 9.68294 11.0719 9.67965 11.5614 9.68756C11.7657 9.68294 11.9063 9.88783 11.8811 10.0795C11.8791 14.3929 11.8863 18.7064 11.8778 23.0197C11.8791 24.1693 11.4068 25.4201 10.3435 25.9826C9.03355 26.6612 7.41446 26.5173 6.12034 25.8666C5 25.3074 3.93087 24.6475 2.83042 24.0484C2.06569 23.6526 1.53695 22.8255 1.54233 21.9586V8.88889C1.53431 8.03859 2.03713 7.21938 2.78263 6.81807C6.61382 4.65595 10.4443 2.49219 14.2749 0.32908Z" fill="#99A1AF"/>
<path d="M17.617 9.38244C19.2879 9.27489 21.0768 9.31873 22.5804 10.1419C23.7445 10.7727 24.39 12.0966 24.4105 13.39C24.378 13.5644 24.1956 13.6606 24.0291 13.6487C23.5443 13.648 23.0594 13.6553 22.5746 13.6454C22.3689 13.6533 22.2494 13.4637 22.2236 13.2819C22.0843 12.663 21.7468 12.0501 21.1643 11.7516C20.2702 11.304 19.2334 11.3265 18.2585 11.3358C17.5467 11.3736 16.7813 11.4353 16.1783 11.8538C15.7154 12.1709 15.5747 12.8109 15.74 13.3263C15.8957 13.6965 16.323 13.8159 16.6725 13.926C18.6862 14.4526 20.8201 14.4002 22.7954 15.0933C23.6132 15.3759 24.4131 15.9252 24.6931 16.7814C25.0592 17.929 24.8987 19.3007 24.0822 20.2219C23.4201 20.9801 22.4558 21.3927 21.494 21.6168C20.2145 21.9021 18.8866 21.9093 17.5872 21.7827C16.3654 21.6434 15.0939 21.3224 14.1506 20.4899C13.3441 19.7895 12.9501 18.6983 12.9892 17.6451C12.9986 17.4672 13.1757 17.3432 13.346 17.3578C13.8343 17.3539 14.3225 17.3525 14.8107 17.3585C15.0057 17.3445 15.1502 17.513 15.1602 17.6968C15.2503 18.2864 15.4719 18.9053 15.986 19.2548C16.9783 19.895 18.2233 19.8511 19.3595 19.8691C20.3007 19.8273 21.3573 19.8147 22.1255 19.1925C22.5307 18.8377 22.6508 18.244 22.5413 17.7333C22.4226 17.3021 21.9715 17.1012 21.5842 16.9698C19.5963 16.341 17.4386 16.5691 15.4699 15.858C14.6707 15.5756 13.8979 15.0416 13.5908 14.2205C13.1624 13.0584 13.3587 11.621 14.2607 10.7308C15.1402 9.84539 16.4099 9.50439 17.617 9.38233V9.38244Z" fill="#99A1AF"/>
</g>
<defs>
<clipPath id="clip0_1170_2092">
<rect width="30.8457" height="30.8457" fill="white"/>
</clipPath>
</defs>
</svg>
