<svg width="45" height="45" viewBox="0 0 45 45" fill="none" xmlns="http://www.w3.org/2000/svg">
<path fill-rule="evenodd" clip-rule="evenodd" d="M35.625 7.5C34.5894 7.5 33.75 8.33948 33.75 9.375C33.75 10.4105 34.5894 11.25 35.625 11.25C36.6606 11.25 37.5 10.4105 37.5 9.375C37.5 8.33948 36.6606 7.5 35.625 7.5ZM37.4743 14.6889C39.6724 13.924 41.25 11.8337 41.25 9.375C41.25 6.26841 38.7317 3.75 35.625 3.75C32.5183 3.75 30 6.26841 30 9.375C30 11.8337 31.5776 13.924 33.7757 14.6889C33.7588 14.7901 33.75 14.894 33.75 15V18.75C33.75 19.7856 32.9106 20.625 31.875 20.625H24.375H13.125C10.0184 20.625 7.5 23.1433 7.5 26.25V30.3201C5.31527 31.0922 3.75 33.1759 3.75 35.625C3.75 38.7317 6.26841 41.25 9.375 41.25C12.4816 41.25 15 38.7317 15 35.625C15 33.1759 13.4347 31.0922 11.25 30.3201V26.25C11.25 25.2144 12.0895 24.375 13.125 24.375H22.5V30.3201C20.3153 31.0922 18.75 33.1759 18.75 35.625C18.75 38.7317 21.2683 41.25 24.375 41.25C27.4817 41.25 30 38.7317 30 35.625C30 33.1759 28.4347 31.0922 26.25 30.3201V24.375H31.875C34.9817 24.375 37.5 21.8567 37.5 18.75V15C37.5 14.894 37.4912 14.7901 37.4743 14.6889ZM9.375 33.75C8.33948 33.75 7.5 34.5894 7.5 35.625C7.5 36.6606 8.33948 37.5 9.375 37.5C10.4105 37.5 11.25 36.6606 11.25 35.625C11.25 34.5894 10.4105 33.75 9.375 33.75ZM22.5 35.625C22.5 34.5894 23.3394 33.75 24.375 33.75C25.4106 33.75 26.25 34.5894 26.25 35.625C26.25 36.6606 25.4106 37.5 24.375 37.5C23.3394 37.5 22.5 36.6606 22.5 35.625Z" fill="#4A5565"/>
</svg>
