<svg width="31" height="31" viewBox="0 0 31 31" fill="none" xmlns="http://www.w3.org/2000/svg">
<g clip-path="url(#clip0_1170_2176)">
<path d="M-0.000244141 15.4248C-0.000244141 19.906 6.90582 23.5391 15.4248 23.5391C23.9437 23.5391 30.8498 19.906 30.8498 15.4248C30.8498 10.9436 23.9435 7.31055 15.4248 7.31055C6.90606 7.31055 -0.000244141 10.9436 -0.000244141 15.4248Z" fill="#99A1AF"/>
<path d="M15.4248 22.9366C23.6109 22.9366 30.2472 19.5732 30.2472 15.4248C30.2472 11.276 23.6109 7.91309 15.4248 7.91309C7.23866 7.91309 0.602295 11.276 0.602295 15.4248C0.602295 19.5732 7.23866 22.9366 15.4248 22.9366Z" fill="#99A1AF"/>
<path d="M8.38045 16.3562C9.05361 16.3562 9.55588 16.2321 9.87378 15.9875C10.1885 15.745 10.4057 15.3254 10.5197 14.7402C10.6258 14.1931 10.5853 13.8113 10.3992 13.605C10.2093 13.3944 9.79835 13.2876 9.17797 13.2876H8.10208L7.50604 16.3562H8.38045ZM4.86186 20.1361C4.83718 20.136 4.81281 20.1305 4.7905 20.12C4.76819 20.1094 4.74849 20.094 4.73283 20.075C4.71716 20.0559 4.70591 20.0336 4.69989 20.0096C4.69386 19.9857 4.69321 19.9607 4.69797 19.9365L6.27831 11.8051C6.28578 11.7671 6.30619 11.7329 6.33608 11.7082C6.36596 11.6836 6.40346 11.67 6.4422 11.6699H9.84872C10.9193 11.6699 11.7161 11.9606 12.2172 12.534C12.7204 13.11 12.8761 13.9159 12.6792 14.9285C12.5989 15.3408 12.4611 15.7238 12.2695 16.067C12.0701 16.4201 11.8156 16.739 11.5156 17.0118C11.1466 17.3569 10.7289 17.6076 10.2751 17.7548C9.82871 17.9004 9.2551 17.9742 8.57109 17.9742H7.19152L6.7977 20.0006C6.79026 20.0388 6.7698 20.0731 6.73981 20.0978C6.70983 20.1226 6.67218 20.1361 6.63333 20.1361H4.86186Z" fill="white"/>
<path d="M8.24022 13.4544H9.17801C9.92684 13.4544 10.1869 13.6188 10.2754 13.7169C10.4216 13.8793 10.4496 14.2223 10.3551 14.7079C10.2493 15.2519 10.0531 15.6378 9.77187 15.8542C9.4841 16.0759 9.01556 16.1883 8.38049 16.1883H7.70902L8.24022 13.4544ZM9.84875 11.5022H6.44248C6.3648 11.5022 6.28954 11.5292 6.22957 11.5786C6.1696 11.6279 6.12866 11.6966 6.11373 11.7729L4.5334 19.9045C4.52406 19.9529 4.52554 20.0028 4.53772 20.0506C4.54991 20.0984 4.5725 20.1429 4.60388 20.181C4.63526 20.2191 4.67466 20.2497 4.71926 20.2708C4.76387 20.2919 4.81257 20.3028 4.8619 20.3029H6.63336C6.71104 20.3028 6.78627 20.2757 6.84619 20.2263C6.90611 20.1769 6.94701 20.1082 6.96187 20.032L7.32942 18.141H8.57089C9.27273 18.141 9.8637 18.0643 10.3272 17.9135C10.8037 17.7587 11.2421 17.4963 11.6301 17.1333C11.9426 16.8488 12.2078 16.5162 12.4156 16.1483C12.6159 15.7899 12.76 15.3898 12.8434 14.9598C13.0506 13.8938 12.8822 13.0404 12.343 12.4234C11.8089 11.8119 10.9697 11.502 9.84875 11.502V11.5022ZM7.30291 16.5228H8.38049C9.0947 16.523 9.62654 16.3884 9.97601 16.1191C10.3255 15.8501 10.5615 15.4009 10.6841 14.7716C10.8011 14.1671 10.7477 13.7407 10.5238 13.4923C10.2997 13.2439 9.85108 13.1197 9.17801 13.1197H7.96425L7.30291 16.5228ZM9.849 11.8362C10.8738 11.8362 11.6212 12.1052 12.0912 12.6432C12.5611 13.1811 12.7025 13.932 12.5154 14.8957C12.4379 15.2929 12.3074 15.6559 12.1237 15.9846C11.9397 16.3137 11.6994 16.6147 11.4028 16.8877C11.0493 17.2187 10.6563 17.4545 10.2238 17.5951C9.79139 17.7358 9.24051 17.8061 8.57113 17.806H7.0537L6.63361 19.9679H4.86214L6.44272 11.8362H9.849Z" fill="#9A9A9A"/>
<path d="M16.7405 17.974C16.7158 17.974 16.6914 17.9686 16.6691 17.958C16.6467 17.9475 16.627 17.9322 16.6113 17.9131C16.5956 17.8941 16.5843 17.8718 16.5782 17.8478C16.5721 17.8239 16.5714 17.7989 16.5762 17.7746L17.2751 14.1768C17.3419 13.8345 17.3255 13.5892 17.2293 13.4851C17.1703 13.4217 16.9934 13.3154 16.4701 13.3154H15.2033L14.3246 17.8388C14.317 17.8768 14.2965 17.9111 14.2665 17.9358C14.2364 17.9604 14.1988 17.9738 14.16 17.9737H12.403C12.3783 17.9737 12.3539 17.9683 12.3316 17.9578C12.3092 17.9473 12.2895 17.932 12.2738 17.913C12.258 17.8939 12.2467 17.8717 12.2406 17.8478C12.2345 17.8239 12.2337 17.7989 12.2384 17.7746L13.8189 9.64302C13.8264 9.60493 13.8469 9.57062 13.8769 9.54595C13.9069 9.52129 13.9445 9.50781 13.9833 9.50781H15.7403C15.765 9.5078 15.7894 9.51323 15.8117 9.52374C15.834 9.53424 15.8538 9.54955 15.8695 9.56858C15.8852 9.5876 15.8966 9.60986 15.9027 9.63377C15.9088 9.65768 15.9096 9.68265 15.9049 9.70689L15.5236 11.6697H16.8861C17.9242 11.6697 18.6279 11.8524 19.0379 12.2291C19.4556 12.6131 19.5862 13.2269 19.4254 14.0543L18.6901 17.8388C18.6826 17.8768 18.6621 17.9111 18.6321 17.9357C18.6021 17.9603 18.5645 17.9737 18.5257 17.9737L16.7405 17.974Z" fill="white"/>
<path d="M15.7407 9.34082H13.9834C13.9057 9.34084 13.8304 9.36787 13.7704 9.41729C13.7105 9.46671 13.6695 9.53545 13.6547 9.61172L12.0743 17.7431C12.065 17.7916 12.0664 17.8415 12.0786 17.8893C12.0907 17.9371 12.1133 17.9817 12.1447 18.0198C12.1761 18.0579 12.2155 18.0886 12.2601 18.1096C12.3048 18.1307 12.3535 18.1417 12.4028 18.1417H14.1601C14.2378 18.1417 14.3131 18.1147 14.3731 18.0653C14.433 18.0159 14.474 17.9471 14.4888 17.8708L15.3413 13.4832H16.4697C16.9923 13.4832 17.1022 13.5947 17.1063 13.5998C17.1381 13.6335 17.1798 13.7914 17.1108 14.1455L16.4119 17.7431C16.4025 17.7916 16.404 17.8415 16.4161 17.8894C16.4283 17.9372 16.4509 17.9818 16.4823 18.0199C16.5138 18.058 16.5532 18.0886 16.5979 18.1097C16.6425 18.1308 16.6913 18.1417 16.7406 18.1417H18.5261C18.6038 18.1417 18.679 18.1146 18.7389 18.0652C18.7988 18.0158 18.8397 17.9471 18.8546 17.8708L19.5899 14.0869C19.7623 13.1985 19.6147 12.5323 19.1513 12.1065C18.7088 11.7001 17.9679 11.5027 16.8862 11.5027H15.7269L16.0694 9.7397C16.0788 9.69121 16.0774 9.64123 16.0652 9.59336C16.0531 9.54548 16.0305 9.50088 15.9991 9.46276C15.9677 9.42464 15.9282 9.39394 15.8835 9.37286C15.8388 9.35178 15.7901 9.34084 15.7407 9.34082ZM15.7407 9.67583L15.3206 11.8373H16.8862C17.8713 11.8373 18.5507 12.0092 18.9245 12.353C19.2985 12.6966 19.4109 13.2533 19.2614 14.0233L18.5258 17.807H16.7406L17.4398 14.2091C17.5194 13.7998 17.49 13.5208 17.3519 13.3718C17.2137 13.223 16.9198 13.1486 16.4702 13.1486H15.0653L14.1601 17.8067H12.4026L13.9832 9.67511H15.7407V9.67583Z" fill="#9A9A9A"/>
<path d="M22.2059 16.3562C22.879 16.3562 23.3816 16.2321 23.6997 15.9875C24.014 15.745 24.2314 15.3254 24.3454 14.7402C24.4514 14.1931 24.4112 13.8113 24.2249 13.605C24.035 13.3944 23.624 13.2876 23.0037 13.2876H21.928L21.3315 16.3562H22.2059ZM18.688 20.1361C18.6633 20.1361 18.6389 20.1307 18.6165 20.1201C18.5941 20.1096 18.5744 20.0942 18.5587 20.0752C18.5429 20.0561 18.5317 20.0337 18.5256 20.0098C18.5195 19.9858 18.5189 19.9608 18.5237 19.9365L20.104 11.8051C20.1115 11.767 20.132 11.7327 20.1619 11.7081C20.1919 11.6834 20.2295 11.6699 20.2684 11.6699H23.6746C24.7452 11.6699 25.542 11.9606 26.0429 12.534C26.5463 13.11 26.7018 13.9159 26.5049 14.9285C26.4295 15.3273 26.2913 15.7116 26.0954 16.067C25.896 16.4201 25.6415 16.739 25.3415 17.0118C24.9728 17.3569 24.5546 17.6076 24.101 17.7548C23.6546 17.9004 23.081 17.9742 22.3968 17.9742H21.0174L20.6239 20.0006C20.6164 20.0388 20.5959 20.0732 20.5659 20.0979C20.5359 20.1226 20.4981 20.1361 20.4593 20.1361H18.688Z" fill="white"/>
<path d="M22.0659 13.4544H23.0037C23.7525 13.4544 24.0126 13.6188 24.1008 13.7169C24.2478 13.8793 24.2753 14.2223 24.1811 14.7079C24.075 15.2519 23.8788 15.6378 23.5976 15.8542C23.3095 16.0759 22.841 16.1883 22.2062 16.1883H21.5347L22.0659 13.4544ZM23.6744 11.5022H20.2682C20.1905 11.5023 20.1153 11.5293 20.0554 11.5786C19.9955 11.628 19.9546 11.6967 19.9397 11.7729L18.3591 19.9045C18.3497 19.9529 18.3512 20.0029 18.3634 20.0507C18.3756 20.0985 18.3982 20.143 18.4296 20.1811C18.461 20.2192 18.5005 20.2498 18.5451 20.2709C18.5897 20.2919 18.6385 20.3028 18.6878 20.3029H20.4593C20.537 20.3028 20.6122 20.2757 20.6721 20.2263C20.732 20.1769 20.7729 20.1082 20.7878 20.032L21.1553 18.141H22.3966C23.0982 18.141 23.6894 18.0643 24.1526 17.9135C24.6293 17.7587 25.0677 17.4963 25.456 17.133C25.7684 16.8486 26.0335 16.5161 26.2413 16.1483C26.4418 15.7899 26.5854 15.3898 26.6691 14.9598C26.8763 13.8938 26.7081 13.0404 26.1687 12.4234C25.6346 11.8119 24.7956 11.502 23.6742 11.502L23.6744 11.5022ZM21.1286 16.5228H22.2059C22.9201 16.523 23.4521 16.3884 23.8019 16.1191C24.1514 15.8501 24.3873 15.4009 24.5096 14.7716C24.627 14.1671 24.5736 13.7407 24.3493 13.4923C24.125 13.2439 23.6764 13.1197 23.0037 13.1197H21.7902L21.1286 16.5228ZM23.6744 11.8362C24.6992 11.8362 25.4466 12.1052 25.9166 12.6432C26.3866 13.1811 26.5279 13.932 26.3406 14.8957C26.2634 15.2929 26.133 15.6559 25.9491 15.9846C25.7653 16.3137 25.525 16.6147 25.228 16.8877C24.8745 17.2187 24.4815 17.4545 24.049 17.5951C23.6168 17.7358 23.066 17.8061 22.3966 17.806H20.8794L20.4588 19.9679H18.6873L20.2679 11.8362H23.6744Z" fill="#9A9A9A"/>
</g>
<defs>
<clipPath id="clip0_1170_2176">
<rect width="30.85" height="30.85" fill="white"/>
</clipPath>
</defs>
</svg>
