<svg width="23" height="23" viewBox="0 0 23 23" fill="none" xmlns="http://www.w3.org/2000/svg">
<path d="M18.2852 6.55859C19.5256 6.55859 20.5312 5.55298 20.5312 4.3125C20.5312 3.07202 19.5256 2.06641 18.2852 2.06641C17.0447 2.06641 16.0391 3.07202 16.0391 4.3125C16.0391 5.55298 17.0447 6.55859 18.2852 6.55859Z" stroke="#6A7282" stroke-width="1.34766" stroke-miterlimit="10" stroke-linecap="round" stroke-linejoin="round"/>
<path d="M4.71484 6.55859C5.95533 6.55859 6.96094 5.55298 6.96094 4.3125C6.96094 3.07202 5.95533 2.06641 4.71484 2.06641C3.47436 2.06641 2.46875 3.07202 2.46875 4.3125C2.46875 5.55298 3.47436 6.55859 4.71484 6.55859Z" stroke="#6A7282" stroke-width="1.34766" stroke-miterlimit="10" stroke-linecap="round" stroke-linejoin="round"/>
<path d="M15.5442 11.9492H22.3274V10.6016C22.3274 8.36868 20.5173 6.55859 18.2844 6.55859C16.6537 6.55859 15.2487 7.52414 14.6094 8.91461" stroke="#6A7282" stroke-width="1.34766" stroke-miterlimit="10" stroke-linecap="round" stroke-linejoin="round"/>
<path d="M8.38986 8.91461C7.75053 7.52414 6.34555 6.55859 4.71484 6.55859C2.48196 6.55859 0.671875 8.36868 0.671875 10.6016V11.9492H7.45508" stroke="#6A7282" stroke-width="1.34766" stroke-miterlimit="10" stroke-linecap="round" stroke-linejoin="round"/>
<path d="M11.5 7.45703C12.7405 7.45703 13.7461 6.45142 13.7461 5.21094C13.7461 3.97045 12.7405 2.96484 11.5 2.96484C10.2595 2.96484 9.25391 3.97045 9.25391 5.21094C9.25391 6.45142 10.2595 7.45703 11.5 7.45703Z" stroke="#6A7282" stroke-width="1.34766" stroke-miterlimit="10" stroke-linecap="round" stroke-linejoin="round"/>
<path d="M11.5 12.8477V18.2383" stroke="#6A7282" stroke-width="1.34766" stroke-miterlimit="10" stroke-linecap="round" stroke-linejoin="round"/>
<path d="M11.5 20.9336C12.2443 20.9336 12.8477 20.3302 12.8477 19.5859C12.8477 18.8416 12.2443 18.2383 11.5 18.2383C10.7557 18.2383 10.1523 18.8416 10.1523 19.5859C10.1523 20.3302 10.7557 20.9336 11.5 20.9336Z" stroke="#6A7282" stroke-width="1.34766" stroke-miterlimit="10" stroke-linecap="round" stroke-linejoin="round"/>
<path d="M16.3046 17.3756L14.6445 15.9922V12.8477" stroke="#6A7282" stroke-width="1.34766" stroke-miterlimit="10" stroke-linecap="round" stroke-linejoin="round"/>
<path d="M6.69531 17.3756L8.3554 15.9922V12.8477" stroke="#6A7282" stroke-width="1.34766" stroke-miterlimit="10" stroke-linecap="round" stroke-linejoin="round"/>
<path d="M11.5 7.45703C13.7329 7.45703 15.543 9.26711 15.543 11.5V12.8477H7.45703V11.5C7.45703 9.26711 9.26711 7.45703 11.5 7.45703Z" stroke="#6A7282" stroke-width="1.34766" stroke-miterlimit="10" stroke-linecap="round" stroke-linejoin="round"/>
<path d="M17.3398 19.5859C18.0841 19.5859 18.6875 18.9826 18.6875 18.2383C18.6875 17.494 18.0841 16.8906 17.3398 16.8906C16.5956 16.8906 15.9922 17.494 15.9922 18.2383C15.9922 18.9826 16.5956 19.5859 17.3398 19.5859Z" stroke="#6A7282" stroke-width="1.34766" stroke-miterlimit="10" stroke-linecap="round" stroke-linejoin="round"/>
<path d="M5.66016 19.5859C6.40445 19.5859 7.00781 18.9826 7.00781 18.2383C7.00781 17.494 6.40445 16.8906 5.66016 16.8906C4.91587 16.8906 4.3125 17.494 4.3125 18.2383C4.3125 18.9826 4.91587 19.5859 5.66016 19.5859Z" stroke="#6A7282" stroke-width="1.34766" stroke-miterlimit="10" stroke-linecap="round" stroke-linejoin="round"/>
</svg>
