<svg width="31" height="31" viewBox="0 0 31 31" fill="none" xmlns="http://www.w3.org/2000/svg">
<path d="M15.4018 1.55295C14.2701 1.55831 13.1899 1.65454 12.2388 1.82288C9.43767 2.3177 8.92945 3.35345 8.92945 5.26386V7.78649H15.5484V8.62737H6.44514C4.52161 8.62737 2.83717 9.78348 2.31018 11.9836C1.70224 14.5047 1.67543 16.0781 2.31018 18.7107C2.78061 20.6704 3.90428 22.0664 5.82809 22.0664H8.10412V19.0423C8.10412 16.8574 9.99415 14.9303 12.2391 14.9303H18.8506C20.691 14.9303 22.1599 13.4148 22.1599 11.5668V5.26412C22.1599 3.47005 20.6465 2.12256 18.8506 1.82314C17.713 1.6339 16.5333 1.54785 15.4018 1.55295ZM11.8223 3.58183C12.5058 3.58183 13.0644 4.1493 13.0644 4.8473C13.0644 5.54236 12.5061 6.10447 11.8223 6.10447C11.1361 6.10447 10.5804 5.54236 10.5804 4.8473C10.5801 4.1493 11.1361 3.58183 11.8223 3.58183Z" fill="#99A1AF"/>
<path d="M22.9852 8.62722V11.5667C22.9852 13.8451 21.053 15.763 18.8502 15.763H12.2387C10.4277 15.763 8.92932 17.3132 8.92932 19.1268V25.43C8.92932 27.2236 10.4888 28.2789 12.2387 28.7933C14.3338 29.409 16.3431 29.5205 18.8502 28.7933C20.5164 28.3105 22.1596 27.3396 22.1596 25.43V22.9071H15.5483V22.066H25.4695C27.393 22.066 28.1103 20.7244 28.7794 18.7103C29.4704 16.6369 29.4406 14.6428 28.7794 11.9832C28.3038 10.068 27.3959 8.62695 25.4695 8.62695L22.9852 8.62722ZM19.2665 24.5889C19.9529 24.5889 20.5086 25.151 20.5086 25.8466C20.5086 26.5441 19.9527 27.1115 19.2665 27.1115C18.5829 27.1115 18.0246 26.5441 18.0246 25.8466C18.0246 25.151 18.5829 24.5889 19.2665 24.5889Z" fill="#D1D5DC"/>
</svg>
