<svg width="31" height="31" viewBox="0 0 31 31" fill="none" xmlns="http://www.w3.org/2000/svg">
<g clip-path="url(#clip0_1170_2010)">
<path d="M15.5195 18.1447C17.0216 18.1447 18.2393 16.927 18.2393 15.4249C18.2393 13.9228 17.0216 12.7051 15.5195 12.7051C14.0174 12.7051 12.7997 13.9228 12.7997 15.4249C12.7997 16.927 14.0174 18.1447 15.5195 18.1447Z" fill="#99A1AF"/>
<path d="M15.5191 20.9961C23.5792 20.9961 30.1132 18.5013 30.1132 15.4239C30.1132 12.3464 23.5792 9.85156 15.5191 9.85156C7.45905 9.85156 0.925049 12.3464 0.925049 15.4239C0.925049 18.5013 7.45905 20.9961 15.5191 20.9961Z" stroke="#99A1AF" stroke-width="1.5425"/>
<path d="M10.6935 18.2111C14.7236 25.1914 20.1511 29.6026 22.8163 28.0639C25.4815 26.5251 24.3751 19.6191 20.345 12.6389C16.315 5.65861 10.8874 1.2474 8.22223 2.78614C5.55704 4.32489 6.66348 11.2309 10.6935 18.2111Z" stroke="#99A1AF" stroke-width="1.5425"/>
<path d="M10.6928 12.6379C6.66278 19.6181 5.55634 26.5241 8.22152 28.0629C10.8867 29.6016 16.3143 25.1904 20.3443 18.2101C24.3744 11.2299 25.4808 4.32389 22.8156 2.78514C20.1504 1.2464 14.7229 5.65761 10.6928 12.6379Z" stroke="#99A1AF" stroke-width="1.5425"/>
</g>
<defs>
<clipPath id="clip0_1170_2010">
<rect width="30.85" height="30.85" fill="white"/>
</clipPath>
</defs>
</svg>
