<svg width="16" height="15" viewBox="0 0 16 15" fill="none" xmlns="http://www.w3.org/2000/svg">
<path d="M3.0489 8.08782L14.3107 8.20725C14.5641 8.20958 14.7788 8.12433 14.9549 7.95149C15.1305 7.77906 15.2195 7.56613 15.2218 7.3127C15.2242 7.05927 15.1389 6.84453 14.9661 6.66848C14.7936 6.49285 14.5807 6.40388 14.3273 6.40154L3.06522 6.3138L7.92473 1.54287C8.10589 1.365 8.19781 1.15464 8.20046 0.911769C8.20227 0.668892 8.11425 0.456871 7.93638 0.275705C7.75852 0.0945389 7.54815 0.00262801 7.30529 -2.83652e-05C7.06241 -0.00183996 6.85039 0.0861858 6.66922 0.264049L0.275129 6.54159C0.0939637 6.71945 0.00226559 6.92961 3.53585e-05 7.17206C-0.0022024 7.41535 0.0856104 7.62758 0.263474 7.80875L6.54101 14.2028C6.71887 14.384 6.92924 14.4755 7.17212 14.4773C7.41499 14.48 7.62701 14.3924 7.80817 14.2145C7.98934 14.0366 8.08083 13.8263 8.08264 13.5834C8.0853 13.3405 7.99769 13.1285 7.81983 12.9473L3.0489 8.08782Z" fill="url(#paint0_linear_763_6152)"/>
<defs>
<linearGradient id="paint0_linear_763_6152" x1="11.6471" y1="3.28792" x2="3.59057" y2="11.1976" gradientUnits="userSpaceOnUse">
<stop stop-color="#05164D"/>
</linearGradient>
</defs>
</svg>
