<svg width="45" height="45" viewBox="0 0 45 45" fill="none" xmlns="http://www.w3.org/2000/svg">
<g clip-path="url(#clip0_1874_21859)">
<path d="M44.9961 7.2654C44.9961 4.13155 42.4445 1.58203 39.3079 1.58203H5.68427C2.54767 1.58203 -0.00390625 4.13155 -0.00390625 7.2654V30.5815C-0.00390625 32.0265 0.538544 33.3473 1.4305 34.3512C0.55983 35.0072 -0.00390625 36.0496 -0.00390625 37.221C-0.00390625 40.5893 2.7389 43.3301 6.11033 43.3301H38.8819C42.2533 43.3301 44.9961 40.5893 44.9961 37.221C44.9961 36.0496 44.432 35.0072 43.5613 34.3512C44.4536 33.3473 44.9961 32.0265 44.9961 30.5815V7.2654ZM2.63281 7.2654C2.63281 5.58552 4.00164 4.21875 5.68427 4.21875H39.3079C40.9905 4.21875 42.3594 5.58552 42.3594 7.2654V30.5815C42.3594 32.2614 40.9905 33.6281 39.3079 33.6281H30.3709C29.1775 33.6281 28.2066 34.5987 28.2066 35.7914C28.2066 36.1464 27.9168 36.4355 27.5604 36.4355H17.4317C17.0754 36.4355 16.7856 36.1464 16.7856 35.7914C16.7856 34.5987 15.8147 33.6281 14.6213 33.6281H5.68427C4.00164 33.6281 2.63281 32.2614 2.63281 30.5815V7.2654ZM38.8819 40.6934H6.11033C4.19287 40.6934 2.63281 39.1357 2.63281 37.221C2.63281 36.6936 3.06265 36.2648 3.59103 36.2648H14.1829C14.4132 37.8503 15.7824 39.0722 17.4317 39.0722H27.5604C29.2098 39.0722 30.5789 37.8503 30.8093 36.2648H41.4012C41.9295 36.2648 42.3594 36.6936 42.3594 37.221C42.3594 39.1357 40.7993 40.6934 38.8819 40.6934Z" fill="#4A5565"/>
<path d="M13.6793 27.8742C15.8804 27.8742 17.6711 26.0835 17.6711 23.8824V15.2763C17.6711 12.6146 19.8365 10.4496 22.4979 10.4496C25.1593 10.4496 27.3247 12.6146 27.3247 15.2763V23.8824C27.3247 25.5039 28.2966 26.9026 29.6885 27.5268C29.3836 27.9556 28.883 28.2357 28.3186 28.2357H25.3719C24.6437 28.2357 24.0535 28.8259 24.0535 29.5541C24.0535 30.2823 24.6437 30.8725 25.3719 30.8725H28.3186C30.3023 30.8725 31.9777 29.5273 32.4807 27.7012C34.1156 27.2017 35.3083 25.6787 35.3083 23.8824V20.0574C35.3083 17.8564 33.5175 16.0656 31.3165 16.0656H29.9614V15.276C29.9614 11.1606 26.6133 7.8125 22.4979 7.8125C18.3825 7.8125 15.0344 11.1606 15.0344 15.276V16.0656H13.6793C11.4783 16.0656 9.6875 17.8564 9.6875 20.0574V23.8824C9.6875 26.0835 11.4783 27.8742 13.6793 27.8742ZM32.6716 20.0574V23.8824C32.6716 24.6298 32.0639 25.2375 31.3165 25.2375C30.5694 25.2375 29.9614 24.6298 29.9614 23.8824V18.7024H31.3165C32.0639 18.7024 32.6716 19.3104 32.6716 20.0574ZM12.3242 20.0574C12.3242 19.3104 12.9319 18.7024 13.6793 18.7024H15.0344V23.8824C15.0344 24.6298 14.4264 25.2375 13.6793 25.2375C12.9319 25.2375 12.3242 24.6298 12.3242 23.8824V20.0574Z" fill="#4A5565"/>
<path d="M22.498 19.2129C21.7699 19.2129 21.1797 19.8031 21.1797 20.5312V25.1253C21.1797 25.8534 21.7699 26.4436 22.498 26.4436C23.2262 26.4436 23.8164 25.8534 23.8164 25.1253V20.5312C23.8164 19.8031 23.2262 19.2129 22.498 19.2129Z" fill="#4A5565"/>
<path d="M22.498 14.2891C21.7699 14.2891 21.1797 14.8792 21.1797 15.6074V16.728C21.1797 17.4559 21.7699 18.0464 22.498 18.0464C23.2262 18.0464 23.8164 17.4559 23.8164 16.728V15.6074C23.8164 14.8792 23.2262 14.2891 22.498 14.2891Z" fill="#4A5565"/>
</g>
<defs>
<clipPath id="clip0_1874_21859">
<rect width="45" height="45" fill="white"/>
</clipPath>
</defs>
</svg>
