<svg width="364" height="263" viewBox="0 0 364 263" fill="none" xmlns="http://www.w3.org/2000/svg">
<g opacity="0.5">
<mask id="mask0_590_7266" style="mask-type:luminance" maskUnits="userSpaceOnUse" x="0" y="141" width="372" height="369">
<path d="M371.428 203.229L310.771 141.768L0.00234746 448.473L60.6593 509.934L371.428 203.229Z" fill="url(#paint0_linear_590_7266)"/>
</mask>
<g mask="url(#mask0_590_7266)">
<mask id="mask1_590_7266" style="mask-type:luminance" maskUnits="userSpaceOnUse" x="17" y="203" width="355" height="307">
<path d="M169.597 402.42L165.105 406.853C139.977 425.341 114.234 450.697 85.6792 485.241L79.2965 491.54C112.132 450.957 141.167 422.378 169.597 402.42ZM183.127 389.068L179.829 392.322C147.741 413.126 115.267 444.623 77.4588 491.883C75.6 494.207 73.7705 496.502 71.969 498.772L66.4092 504.259C69.7445 500.03 73.1769 495.707 76.714 491.286C116.109 442.043 149.723 409.878 183.127 389.068ZM18.341 467.054L17.6716 466.376C38.8237 444.403 62.5967 415.946 91.4757 379.848C101.1 367.819 109.85 356.768 118.031 346.439C211.447 228.479 231.145 203.614 371.428 203.229L370.456 204.188C231.509 204.697 211.717 229.673 118.776 347.032C110.49 357.496 101.624 368.691 92.2204 380.446C63.3241 416.565 39.5267 445.049 18.341 467.054ZM20.2006 468.939L19.5309 468.26C40.0191 446.558 63.0658 418.804 90.9289 383.976C98.6132 374.37 105.593 365.592 112.208 357.273C208.698 235.925 229.36 209.954 365.702 208.88L364.726 209.843C229.707 211.044 208.951 237.138 112.954 357.866C106.159 366.411 98.9945 375.423 91.673 384.573C63.7911 419.425 40.7214 447.205 20.2006 468.939ZM22.0305 470.793L21.3603 470.114C41.1972 448.714 63.5217 421.678 90.3819 388.103C95.4819 381.729 100.831 375.021 105.974 368.573C205.695 243.542 227.411 216.336 359.947 214.56L358.966 215.528C227.741 217.436 205.933 244.777 106.721 369.17C101.876 375.244 96.8461 381.552 91.1268 388.7C64.2462 422.3 41.8991 449.363 22.0305 470.793ZM23.8314 472.618L23.1612 471.939C42.3576 450.873 63.9651 424.568 89.8355 392.23C93.0653 388.193 96.2193 384.245 99.3017 380.39C202.425 251.351 225.292 222.765 354.164 220.267L353.177 221.242C225.609 223.88 202.639 252.614 100.046 380.987C96.9644 384.843 93.8101 388.79 90.5796 392.828C64.6882 425.192 43.0582 451.523 23.8314 472.618ZM25.6061 474.416L24.9347 473.736C43.5011 453.034 64.3958 427.472 89.2887 396.357L92.1565 392.771C198.866 259.374 222.988 229.253 348.349 226.006L347.353 226.989C223.293 230.384 199.055 260.667 92.9011 393.369L90.0334 396.955C65.1186 428.098 44.2018 453.686 25.6061 474.416ZM27.3549 476.188L26.6835 475.508C44.6285 455.199 64.8145 430.393 88.742 400.485C152.974 320.195 188.127 276.937 232.138 254.304C261.366 239.273 294.457 233.365 342.505 231.773L341.505 232.761C294.157 234.398 261.444 240.304 232.571 255.152C188.743 277.692 153.638 320.894 89.4866 401.082C65.5363 431.019 45.3277 455.852 27.3549 476.188ZM29.0803 477.936L28.4084 477.255C45.741 457.368 65.2218 433.328 88.1954 404.612C152.43 324.319 188.209 281.439 232.842 259.189C260.893 245.204 292.403 239.39 336.625 237.577L335.616 238.573C292.081 240.429 260.957 246.239 233.265 260.044C188.813 282.205 153.089 325.024 88.9401 405.21C65.9429 433.955 46.4397 458.022 29.0803 477.936ZM30.7834 479.662L30.1108 478.98C46.8363 459.541 65.6166 436.278 87.6481 408.739C151.884 328.446 188.289 285.944 233.546 264.075C260.332 251.13 290.186 245.431 330.706 243.418L329.685 244.427C289.837 246.48 260.377 252.168 233.96 264.934C188.884 286.716 152.541 329.153 88.393 409.337C66.3374 436.906 47.5353 460.196 30.7834 479.662ZM32.4653 481.366L31.7924 480.684C47.9189 461.718 66.0007 439.243 87.102 412.867C151.339 332.571 188.369 290.448 234.25 268.96C259.679 257.05 287.8 251.495 324.742 249.304L323.713 250.32C287.423 252.548 259.708 258.088 234.653 269.823C188.957 291.226 151.993 333.282 87.8466 413.465C66.7202 439.872 48.6167 462.374 32.4653 481.366ZM34.1275 483.05L33.4541 482.368C48.9866 463.9 66.3719 442.222 86.5552 416.994C150.795 336.694 188.452 294.951 234.953 273.844C258.934 262.96 285.241 257.575 318.736 255.232L317.688 256.266C284.839 258.643 258.944 264.005 235.347 274.715C189.027 295.739 151.444 337.413 87.2997 417.592C67.0913 442.852 49.684 464.557 34.1275 483.05ZM35.7696 484.714L35.0943 484.03C49.8647 466.295 66.3321 445.717 85.3282 421.972L86.0086 421.122C150.25 340.821 188.532 299.456 235.658 278.73C258.093 268.864 282.514 263.686 312.67 261.219L311.612 262.262C282.079 264.759 258.084 269.91 236.04 279.605C189.099 300.249 150.895 341.542 86.7534 421.719L86.0728 422.57C67.0542 446.343 50.5635 466.949 35.7696 484.714ZM37.397 486.363L36.7217 485.679C49.7792 469.856 64.1847 451.85 80.5163 431.431L85.4612 425.249C149.704 344.946 188.611 303.96 236.362 283.616C257.156 274.756 279.611 269.819 306.548 267.261L305.469 268.326C279.146 270.907 257.126 275.806 236.734 284.495C189.171 304.759 150.348 345.671 86.2057 425.846L81.2607 432.029C64.9062 452.477 50.4772 470.512 37.397 486.363ZM39.0091 487.996L38.3341 487.312C49.691 473.436 62.0833 457.937 75.8941 440.659C78.8358 436.978 81.8422 433.216 84.9151 429.376C149.159 349.072 188.692 308.465 237.066 288.502C256.12 280.639 276.533 275.986 300.353 273.375L299.256 274.457C276.035 277.084 256.069 281.692 237.429 289.385C189.244 309.27 149.8 349.799 85.6598 429.973C82.5871 433.814 79.5804 437.576 76.6384 441.256C62.8035 458.564 50.3884 474.091 39.0091 487.996ZM40.6063 489.615L39.9309 488.93C49.5979 477.028 60.0249 463.975 71.4529 449.665C75.6229 444.444 79.9248 439.056 84.3679 433.503C148.613 353.197 188.772 312.971 237.77 293.387C254.983 286.508 273.279 282.184 294.079 279.566L292.963 280.668C272.746 283.291 254.91 287.564 238.121 294.274C189.316 313.78 149.25 353.929 85.1127 434.101C80.6692 439.654 76.3674 445.042 72.1978 450.263C60.7456 464.603 50.2958 477.686 40.6063 489.615ZM42.191 491.221L41.5148 490.535C49.5002 480.638 58.0099 469.97 67.1846 458.466C72.3469 451.995 77.7148 445.264 83.8218 437.63C167.891 332.545 211.77 296.73 287.731 285.831L286.544 287.003C211.656 298.132 167.89 334.075 84.5664 438.228C79.1126 445.045 73.4043 452.202 67.9321 459.063C58.7323 470.598 50.1988 481.295 42.191 491.221ZM43.7622 492.812L43.0884 492.13C49.3983 484.262 56.0393 475.922 63.0844 467.075C69.5896 458.904 76.4291 450.314 83.2749 441.758C164.481 340.252 209.186 303.988 281.26 292.218L280.038 293.424C209.012 305.431 164.459 341.808 84.0195 442.356C76.696 451.509 70.1037 459.789 63.8303 467.667C56.76 476.546 50.0947 484.915 43.7622 492.812ZM45.3233 494.394L44.6494 493.711C49.2881 487.896 54.1097 481.829 59.1412 475.497C66.6128 466.095 74.5354 456.125 82.7279 445.885C161.003 348.043 206.293 311.387 274.665 298.727L273.406 299.969C206.057 312.871 160.962 349.624 83.4731 446.482C74.9504 457.135 67.1959 466.894 59.8874 476.09C54.8304 482.454 49.9848 488.55 45.3233 494.394ZM46.8749 495.966L46.2002 495.283C49.1725 491.54 52.2189 487.698 55.3504 483.748C63.7341 473.174 72.7039 461.859 82.1809 450.012C157.46 355.915 203.089 318.935 267.931 305.372L266.632 306.654C202.787 320.462 157.398 357.521 82.9256 450.61C73.2041 462.762 64.3592 473.918 56.0964 484.341C52.9401 488.322 49.8697 492.194 46.8749 495.966ZM48.417 497.529L47.7424 496.845L51.704 491.835C60.944 480.15 70.9177 467.536 81.6349 454.139C153.852 363.869 199.569 326.645 261.041 312.173L259.697 313.498C199.197 328.216 153.769 365.502 82.3793 454.737C71.4729 468.37 61.5978 480.86 52.4503 492.429L48.417 497.529ZM49.9517 499.084L49.2753 498.399C58.9765 486.093 69.5099 472.738 81.0876 458.267C150.179 371.905 195.728 334.525 253.975 319.146L252.529 320.573C195.265 336.208 150.045 373.601 81.8326 458.865C70.2492 473.343 59.6833 486.74 49.9517 499.084ZM51.4786 500.631L50.8027 499.946C59.9192 488.352 69.7761 475.851 80.5413 462.394C146.409 380.061 191.54 342.659 246.652 326.373L245.148 327.857C190.997 344.393 146.25 381.787 81.2857 462.991C70.5081 476.465 60.6218 489.002 51.4786 500.631ZM52.9996 502.172L52.3243 501.488C60.8642 490.603 70.0495 478.952 79.9941 466.521C142.564 388.31 187.011 350.999 239.093 333.833L237.478 335.427C186.363 352.843 142.358 390.097 80.7391 467.119C70.7375 479.621 61.5388 491.289 52.9996 502.172ZM54.5165 503.709L53.8408 503.025C61.7841 492.886 70.2884 482.098 79.4479 470.649C138.609 396.699 182.097 359.643 231.198 341.625L229.48 343.32C181.345 361.576 138.362 398.536 80.1924 471.246C70.9875 482.753 62.4655 493.563 54.5165 503.709ZM56.0288 505.242L55.3531 504.557C62.6951 495.176 70.5199 485.254 78.901 474.776C134.547 405.22 176.792 368.58 222.948 349.767L221.045 351.645C175.886 370.686 134.225 407.152 79.6457 475.374C71.226 485.899 63.3814 495.847 56.0288 505.242ZM57.5373 506.77L56.862 506.086C63.603 497.469 70.7494 488.411 78.3549 478.904C130.321 413.947 171.008 377.952 214.185 358.416L212.097 360.477C169.944 380.214 129.928 415.966 79.0988 479.502C71.4499 489.063 64.2846 498.146 57.5373 506.77ZM59.0441 508.297L58.3681 507.612C64.4974 499.777 70.9638 491.586 77.8077 483.031C125.899 422.919 164.679 387.827 204.801 367.677L202.459 369.989C163.412 390.302 125.411 425.056 78.5523 483.629C71.6718 492.229 65.1849 500.448 59.0441 508.297ZM60.5494 509.822L59.8727 509.137C65.3826 502.098 71.1686 494.774 77.2611 487.159C121.21 432.223 157.675 398.362 194.585 377.76L191.851 380.457C156.11 401.162 120.576 434.544 78.0056 487.756C71.8879 495.404 66.0796 502.757 60.5494 509.822ZM151.231 420.546C133.536 434.932 115.404 452.796 96.1258 474.931L106.832 464.365C119.026 451.031 130.792 439.432 142.326 429.335L151.231 420.546Z" fill="white"/>
</mask>
<g mask="url(#mask1_590_7266)">
<path d="M371.424 203.223L302.398 133.282L-8.3707 439.987L60.6554 509.928L371.424 203.223Z" fill="url(#paint1_linear_590_7266)"/>
</g>
</g>
<mask id="mask2_590_7266" style="mask-type:luminance" maskUnits="userSpaceOnUse" x="9" y="58" width="507" height="452">
<path d="M435.807 139.698L432.163 143.294C413.449 156.199 394.324 174.209 375.731 198.988L371.401 203.262C392.558 173.953 414.492 153.599 435.807 139.698ZM452.251 123.469L450.061 125.63C418.937 141.375 385.508 169.971 354.464 219.977L351.622 222.781C384.209 169.116 419.57 139.325 452.251 123.469ZM463.696 112.174L462.033 113.815C424.114 128.441 381.224 161.033 342.697 228.701L338.954 235.284L336.458 237.747C338.217 234.648 340.017 231.48 341.868 228.228C381.206 159.134 425.107 126.482 463.696 112.174ZM472.83 103.159L471.425 104.545C430.54 116.467 382.005 148.342 338.859 224.124C333.914 232.81 329.071 241.373 324.391 249.656L321.912 252.103C327.002 243.093 332.313 233.693 338.03 223.651C381.916 146.57 431.395 114.748 472.83 103.159ZM480.535 95.5551L479.293 96.78C436.269 105.901 382.44 136.26 335.021 219.548C328.445 231.097 322.124 242.312 316.096 253.007C314.009 256.709 311.967 260.333 309.947 263.912L307.47 266.356C310.017 261.848 312.612 257.244 315.266 252.536C321.217 241.977 327.458 230.903 334.193 219.075C382.31 134.561 437.05 104.342 480.535 95.5551ZM487.227 88.9497L486.089 90.0734C441.633 96.3722 382.689 124.505 331.182 214.971C323.877 227.801 316.935 240.149 310.342 251.878C305.213 261 300.297 269.744 295.537 278.133L293.031 280.606C298.313 271.322 303.776 261.608 309.511 251.407C316.044 239.787 322.922 227.551 330.354 214.498C382.535 122.849 442.387 94.92 487.227 88.9497ZM493.142 83.1125L492.104 84.1373C446.882 87.6447 382.86 112.886 327.344 210.394C319.386 224.371 311.819 237.869 304.657 250.642C296.294 265.559 288.49 279.474 280.997 292.483L278.427 295.02C286.45 281.159 294.811 266.248 303.823 250.174C310.885 237.578 318.347 224.27 326.516 209.921C382.69 111.258 447.608 86.3051 493.142 83.1125ZM498.456 77.8677L497.477 78.8338C452.181 79.6354 383.033 101.264 323.506 205.818C314.743 221.209 306.662 235.667 299.037 249.306C287.179 270.519 276.427 289.75 266.067 307.218L263.372 309.877C274.306 291.592 285.633 271.332 298.206 248.84C305.854 235.159 313.961 220.655 322.678 205.344C382.856 99.6486 452.917 78.3724 498.456 77.8677ZM503.24 73.1469L502.317 74.0572C457.71 72.2942 383.287 89.4992 319.668 201.241C310.25 217.782 301.609 233.29 293.482 247.877C277.729 276.149 263.897 300.973 250.284 322.794L247.3 325.739C261.61 303.111 276.064 277.179 292.65 247.412C300.799 232.788 309.461 217.24 318.84 200.768C383.109 87.884 458.464 71.112 503.24 73.1469ZM507.58 68.8633L506.703 69.7285C463.695 65.6242 383.713 77.4335 315.83 196.664C305.808 214.267 296.615 230.823 287.99 246.356C267.588 283.099 250.36 314.119 232.52 340.326L228.859 343.939C247.724 316.906 265.677 284.576 287.155 245.894C295.768 230.384 304.947 213.852 315.002 196.192C383.548 75.7965 464.492 64.5158 507.58 68.8633ZM511.518 64.977L510.678 65.806C470.452 59.704 384.448 64.8256 311.992 192.087C301.346 210.787 291.64 228.331 282.555 244.752C255.334 293.957 233.676 333.095 208.364 364.166L200.572 371.856C228.988 339.595 252.041 297.937 281.721 244.289C290.795 227.888 300.488 210.366 311.164 191.615C384.303 63.1517 471.322 58.6753 511.518 64.977ZM12.2289 460.867L11.4041 460.031C90.0701 447.687 138.772 427.707 175.978 396.128L168.781 403.231C132.589 431.182 85.3527 449.33 12.2289 460.867ZM14.1686 462.832L13.3411 461.994C76.7244 452.258 120.786 437.937 155.031 416.801L152.012 419.781C118.314 439.723 75.1981 453.408 14.1686 462.832ZM16.0917 464.781L15.2605 463.939C70.9562 455.553 111.868 443.925 144.28 427.412L142.041 429.622C110.115 445.388 70.0523 456.615 16.0917 464.781ZM18.0105 466.725L17.1788 465.882C67.3156 458.476 105.551 448.665 136.402 435.187L134.456 437.107C104.093 450.023 66.6441 459.505 18.0105 466.725ZM19.9271 468.667L19.095 467.824C64.7248 461.202 100.565 452.775 129.966 441.539L128.229 443.253C99.3154 454.049 64.226 462.208 19.9271 468.667ZM21.8411 470.606L21.0097 469.764C62.8136 463.797 96.4429 456.468 124.461 446.971L122.883 448.529C95.3501 457.673 62.449 464.784 21.8411 470.606ZM23.7468 472.537L22.9093 471.689C61.3309 466.287 92.9258 459.872 119.595 451.774L118.131 453.219C91.9454 461.03 61.0783 467.266 23.7468 472.537ZM25.6458 474.462L24.8088 473.613C60.227 468.702 89.8794 463.035 115.241 456.071L113.837 457.457C88.974 464.171 60.0266 469.675 25.6458 474.462ZM27.5445 476.385L26.7068 475.537C59.3753 471.063 87.1755 466.037 111.24 460.02L109.884 461.358C86.3322 467.159 59.2174 472.031 27.5445 476.385ZM29.4417 478.308L28.604 477.459C58.7319 473.379 84.7488 468.908 107.526 463.685L106.229 464.965C83.9648 470.002 58.6321 474.34 29.4417 478.308ZM31.3382 480.229L30.4986 479.379L31.2394 479.279C58.695 475.583 82.7441 471.623 104.054 467.112L102.798 468.351C81.8214 472.738 58.2288 476.61 31.3681 480.225L31.3382 480.229ZM33.2295 482.146L32.3898 481.295L35.057 480.937C59.5098 477.645 81.256 474.185 100.777 470.346L99.5486 471.558C80.3686 475.289 59.0727 478.668 35.1855 481.883L33.2295 482.146ZM35.1202 484.062L34.2803 483.21L38.8752 482.594C60.4685 479.687 79.9497 476.683 97.6553 473.427L96.4499 474.616C79.0927 477.777 60.057 480.707 39.0041 483.54L35.1202 484.062ZM37.0111 485.977L36.1716 485.127L42.6933 484.251C61.5496 481.713 78.8008 479.126 94.6614 476.382L93.4754 477.552C77.9693 480.212 61.1611 482.729 42.8217 485.197L37.0111 485.977ZM38.9024 487.894L38.0613 487.042L46.5119 485.908C62.75 483.723 77.7861 481.517 91.7808 479.225L90.6024 480.388C76.9782 482.603 62.3692 484.737 46.6404 486.855L38.9024 487.894ZM40.7935 489.81L39.9539 488.959L50.3293 487.566C64.0359 485.721 76.8879 483.876 88.9811 481.988L87.8186 483.135C76.1004 484.954 63.6755 486.733 50.4579 488.512L40.7935 489.81ZM42.685 491.727L41.8453 490.876L54.1476 489.222C65.4076 487.707 76.0938 486.201 86.2555 484.678L85.1032 485.815C75.3233 487.273 65.0643 488.717 54.276 490.169L42.685 491.727ZM44.5783 493.645L43.7387 492.794L50.1206 491.936L57.9656 490.88C66.8582 489.683 75.3863 488.498 83.5879 487.31L82.4425 488.441C74.6312 489.567 66.5261 490.691 58.094 491.827L50.249 492.882L44.5783 493.645ZM46.4724 495.564L45.6331 494.714L60.7042 492.683L61.7841 492.537C68.3716 491.651 74.7591 490.773 80.9638 489.9L79.8249 491.024C74.0174 491.839 68.0521 492.657 61.9127 493.484L60.8329 493.629L46.4724 495.564ZM48.3684 497.485L47.5295 496.635C53.3913 495.84 59.4112 495.029 65.6021 494.195C69.9459 493.61 74.1983 493.032 78.3743 492.456L77.2394 493.576C73.4674 494.094 69.6377 494.615 65.7305 495.142C59.7882 495.941 54.0067 496.721 48.3684 497.485ZM50.2659 499.408L49.4274 498.558C55.8929 497.676 62.5505 496.777 69.4202 495.852L75.8085 494.988L74.6759 496.106L69.5489 496.798C62.9305 497.689 56.5079 498.557 50.2659 499.408ZM52.1663 501.333L51.3283 500.484C58.3914 499.514 65.6879 498.526 73.2386 497.509L73.2559 497.507L72.1251 498.623C65.2685 499.546 58.6181 500.448 52.1663 501.333ZM54.0689 503.261L53.2316 502.413C58.8984 501.629 64.7243 500.834 70.7051 500.025L69.5733 501.142C64.2828 501.859 59.1109 502.564 54.0689 503.261ZM55.974 505.192L55.1379 504.344C59.3858 503.752 63.7227 503.154 68.1464 502.55L67.0129 503.669C63.2682 504.181 59.5921 504.688 55.974 505.192ZM57.8818 507.125L57.0458 506.278C59.849 505.883 62.6932 505.487 65.5743 505.088L64.4376 506.21C62.2312 506.516 60.0424 506.821 57.8818 507.125ZM59.7938 509.062L58.9588 508.216L62.9815 507.647L61.8419 508.772L59.7938 509.062ZM514.267 62.2636C478.553 54.7399 385.725 51.2636 308.154 187.511C296.9 207.276 286.703 225.78 277.177 243.066C206.431 371.441 172.641 432.703 10.2863 458.899L9.46191 458.063C171.942 431.993 205.656 370.87 276.342 242.603C285.859 225.335 296.045 206.85 307.325 187.038C385.62 49.5213 479.553 53.806 515.078 61.4632L514.267 62.2636Z" fill="white"/>
</mask>
<g mask="url(#mask2_590_7266)">
<path d="M531.717 78.3259L445.23 -9.30713L-9.18848 439.169L77.2985 526.802L531.717 78.3259Z" fill="url(#paint2_linear_590_7266)"/>
</g>
</g>
<defs>
<linearGradient id="paint0_linear_590_7266" x1="-53.5303" y1="451.433" x2="345.364" y2="242.05" gradientUnits="userSpaceOnUse">
<stop stop-color="white"/>
<stop offset="1"/>
</linearGradient>
<linearGradient id="paint1_linear_590_7266" x1="371.143" y1="196.49" x2="-3.25624" y2="443.531" gradientUnits="userSpaceOnUse">
<stop stop-color="#1FA2FF"/>
<stop offset="0.5" stop-color="#12D8FA"/>
<stop offset="1" stop-color="#A6FFCB"/>
</linearGradient>
<linearGradient id="paint2_linear_590_7266" x1="518.158" y1="57.3211" x2="8.548" y2="456.898" gradientUnits="userSpaceOnUse">
<stop stop-color="#1FA2FF"/>
<stop offset="0.5" stop-color="#12D8FA"/>
<stop offset="1" stop-color="#A6FFCB"/>
</linearGradient>
</defs>
</svg>
