<svg width="31" height="31" viewBox="0 0 31 31" fill="none" xmlns="http://www.w3.org/2000/svg">
<path d="M25.4756 5.13455C22.8754 1.41503 17.7395 0.312531 14.0265 2.67729L7.50591 6.83173C7.06725 7.10736 6.65802 7.42783 6.28569 7.78801C5.9129 8.14819 5.57888 8.54621 5.28877 8.97553C4.99867 9.40484 4.75388 9.86313 4.55814 10.3429C4.36287 10.8229 4.2179 11.3218 4.12555 11.8317C4.04847 12.2592 4.00642 12.6927 4.00082 13.1272C3.99475 13.5621 4.02511 13.9966 4.09098 14.4259C4.15685 14.8557 4.25822 15.2794 4.3937 15.6923C4.52917 16.1053 4.69875 16.5061 4.90057 16.8911C4.76173 17.102 4.63357 17.3199 4.51656 17.5437C4.3993 17.7675 4.29373 17.9973 4.19983 18.2318C4.10593 18.4663 4.02418 18.7055 3.95457 18.9484C3.88496 19.1914 3.82797 19.4376 3.78312 19.6861C3.59677 20.7312 3.62139 21.803 3.85553 22.8385C3.97232 23.3547 4.14003 23.8583 4.35679 24.3413C4.57355 24.8244 4.8375 25.285 5.14582 25.7157C7.74603 29.4352 12.8815 30.5377 16.5945 28.173L23.1151 24.0358C23.5537 23.7597 23.962 23.4388 24.3344 23.0781C24.7066 22.7178 25.0406 22.3198 25.3308 21.8906C25.6209 21.4618 25.8657 21.0035 26.0614 20.5237C26.2572 20.0444 26.4025 19.5455 26.4954 19.0358C26.5725 18.6083 26.6141 18.1753 26.6197 17.7408C26.6253 17.3064 26.5949 16.8719 26.5286 16.4426C26.4627 16.0133 26.3614 15.59 26.2254 15.1771C26.0895 14.7646 25.9199 14.3637 25.7181 13.9788C25.8568 13.7681 25.9853 13.5499 26.1026 13.3262C26.2193 13.1024 26.3254 12.8726 26.4193 12.6381C26.5132 12.4035 26.5954 12.1644 26.6655 11.9214C26.7351 11.679 26.793 11.4328 26.8383 11.1843C26.9308 10.6629 26.971 10.1336 26.9589 9.60432C26.9467 9.07503 26.8818 8.54854 26.765 8.03186C26.6482 7.51565 26.4805 7.01206 26.2637 6.52902C26.0472 6.04589 25.7832 5.5855 25.4756 5.15463" fill="#99A1AF"/>
<path d="M13.3892 26.0749C12.8789 26.2075 12.3513 26.2614 11.8247 26.2347C11.2982 26.2076 10.7788 26.1011 10.2845 25.9175C9.79024 25.7342 9.32679 25.4766 8.91013 25.1537C8.49381 24.8305 8.12914 24.4458 7.82865 24.0129C7.64319 23.7536 7.48436 23.477 7.35449 23.1865C7.22424 22.8961 7.1233 22.5934 7.05317 22.283C6.98357 21.9723 6.94432 21.6556 6.93732 21.3375C6.93031 21.0193 6.95507 20.7012 7.01113 20.3877C7.02 20.3368 7.03028 20.2859 7.04149 20.2354C7.05224 20.1845 7.06438 20.1341 7.07746 20.0841C7.09008 20.0336 7.10409 19.9836 7.11904 19.9336C7.13352 19.8841 7.14941 19.8346 7.16576 19.7856L7.28862 19.4104L7.62357 19.6604C7.81557 19.8005 8.01365 19.9327 8.21686 20.056C8.42008 20.1798 8.62843 20.2948 8.84145 20.4003C9.05401 20.5064 9.27171 20.6035 9.49267 20.6909C9.71364 20.7787 9.93834 20.8567 10.1663 20.9254L10.4162 20.9978L10.3938 21.2478C10.3818 21.4179 10.3995 21.5887 10.4461 21.7528C10.469 21.835 10.4994 21.9144 10.5363 21.991C10.5732 22.0676 10.6167 22.141 10.6662 22.2101C10.7569 22.3405 10.867 22.4563 10.9927 22.5535C11.1179 22.6506 11.2576 22.7282 11.4066 22.7833C11.5556 22.8384 11.7117 22.8702 11.8705 22.8781C12.0289 22.8866 12.1877 22.8702 12.3414 22.83C12.3769 22.8207 12.4115 22.8099 12.446 22.7978C12.4806 22.7856 12.5147 22.7726 12.5479 22.7576C12.5815 22.7431 12.6142 22.7273 12.6469 22.71C12.6792 22.6931 12.7105 22.6749 12.7413 22.6553L19.2521 18.5004C19.3319 18.4504 19.4063 18.3921 19.474 18.3266C19.5417 18.2607 19.602 18.1883 19.6548 18.1103C19.7076 18.0323 19.7515 17.9487 19.787 17.8613C19.822 17.774 19.8482 17.6833 19.865 17.5908C19.8813 17.496 19.8883 17.4002 19.886 17.304C19.8837 17.2082 19.8715 17.1129 19.85 17.019C19.829 16.9256 19.7982 16.8345 19.7585 16.7467C19.7192 16.6593 19.6706 16.5762 19.6146 16.4982C19.524 16.3678 19.4142 16.2524 19.2885 16.1553C19.1628 16.0581 19.0232 15.9805 18.8746 15.9254C18.7257 15.8703 18.5693 15.8381 18.4107 15.8301C18.2519 15.8222 18.0931 15.8385 17.9394 15.8782C17.9043 15.8876 17.8693 15.8983 17.8347 15.9105C17.8001 15.9226 17.7665 15.9357 17.7329 15.9502C17.6992 15.9651 17.6665 15.981 17.6343 15.9983C17.6021 16.0151 17.5703 16.0338 17.5395 16.0534L15.0392 17.6408C14.9374 17.7053 14.8328 17.766 14.7262 17.823C14.6193 17.8795 14.5109 17.9323 14.4002 17.9809C14.2895 18.0295 14.1769 18.0739 14.0629 18.1136C13.9489 18.1538 13.8335 18.1893 13.7167 18.2206C13.207 18.3523 12.6806 18.4056 12.155 18.3785C11.6295 18.3514 11.1114 18.2444 10.6181 18.0617C10.1247 17.8786 9.66225 17.6212 9.24648 17.2989C8.83071 16.9765 8.46633 16.593 8.16594 16.1609C7.98142 15.9016 7.82305 15.6246 7.69365 15.334C7.56378 15.0434 7.46334 14.7407 7.39373 14.4305C7.32412 14.1198 7.28582 13.8031 7.27928 13.485C7.27227 13.1673 7.29703 12.8492 7.35355 12.5362C7.464 11.9199 7.7017 11.3335 8.05149 10.8142C8.40152 10.295 8.85611 9.85456 9.38616 9.52113L15.917 5.36669C16.0184 5.30222 16.1221 5.24149 16.2282 5.1845C16.3342 5.12797 16.4426 5.07518 16.5524 5.0266C16.6624 4.97799 16.7743 4.93373 16.8878 4.89392C17.0008 4.85375 17.1158 4.81778 17.2321 4.78648C17.7422 4.65427 18.2696 4.60008 18.7957 4.62671C19.3221 4.65381 19.8412 4.76032 20.3354 4.94391C20.8297 5.12704 21.2926 5.38491 21.7093 5.70772C22.1255 6.03105 22.49 6.41589 22.7903 6.84899C22.9753 7.10779 23.1346 7.38435 23.265 7.67492C23.3953 7.9655 23.4962 8.26775 23.5667 8.57841C23.6368 8.88907 23.6761 9.2058 23.6831 9.52394C23.6905 9.84207 23.6662 10.1602 23.6102 10.4737C23.6004 10.5251 23.5901 10.5764 23.5784 10.6274C23.5672 10.6783 23.5551 10.7292 23.542 10.7797C23.5294 10.8306 23.5154 10.881 23.5009 10.931C23.4864 10.9815 23.4714 11.0315 23.4551 11.081L23.3304 11.4561L22.9977 11.2062C22.8053 11.0646 22.6067 10.932 22.4031 10.8072C22.1994 10.683 21.9901 10.5671 21.7766 10.4601C21.3492 10.2469 20.9046 10.07 20.4475 9.9313L20.1971 9.85889L20.22 9.60896C20.227 9.52347 20.2266 9.43751 20.2186 9.35249C20.2111 9.26747 20.1957 9.18291 20.1733 9.10022C20.1504 9.018 20.121 8.93719 20.0841 8.8601C20.0476 8.78256 20.0042 8.70874 19.9547 8.63867C19.8635 8.51063 19.7534 8.39722 19.6281 8.30232C19.503 8.20698 19.3641 8.13136 19.2161 8.07808C18.9187 7.9702 18.5955 7.9557 18.2897 8.0365C18.2542 8.04585 18.2192 8.05659 18.1851 8.06827C18.1505 8.08042 18.1164 8.09396 18.0828 8.10845C18.0496 8.12293 18.0164 8.13928 17.9842 8.1561C17.952 8.17338 17.9202 8.1916 17.8894 8.21122L11.3664 12.3587C11.287 12.4086 11.2127 12.467 11.1455 12.5324C11.0782 12.5978 11.0175 12.6703 10.9647 12.7478C10.9123 12.8258 10.868 12.9089 10.8325 12.9959C10.797 13.0832 10.7708 13.1734 10.754 13.2659C10.7376 13.3607 10.7306 13.4569 10.733 13.5532C10.7386 13.7458 10.7819 13.9355 10.8605 14.1114C10.9001 14.199 10.9482 14.2826 11.0039 14.3609C11.0941 14.4898 11.2034 14.6048 11.3281 14.701C11.4526 14.7977 11.5911 14.8749 11.7388 14.9299C12.0358 15.0403 12.3593 15.0581 12.6665 14.9808C12.7016 14.971 12.7366 14.9603 12.7712 14.9481C12.8053 14.936 12.8394 14.9224 12.873 14.9079C12.9065 14.8934 12.9394 14.8775 12.9716 14.8603C13.0038 14.8435 13.0356 14.8253 13.0664 14.8056L15.5667 13.221C15.669 13.1556 15.7731 13.094 15.8801 13.037C15.9866 12.9795 16.0955 12.9267 16.2067 12.8777C16.3175 12.8291 16.4302 12.7848 16.5444 12.745C16.6589 12.7048 16.7747 12.6693 16.892 12.6385C17.4021 12.5058 17.9291 12.4516 18.4556 12.4778C18.9821 12.5044 19.5011 12.6109 19.9953 12.7941C20.4891 12.9772 20.9525 13.2346 21.3688 13.5579C21.7855 13.8807 22.1499 14.2651 22.4502 14.6982C22.6352 14.9575 22.7941 15.234 22.9244 15.5246C23.0547 15.815 23.1558 16.1176 23.2262 16.4281C23.2963 16.7383 23.3355 17.055 23.343 17.3731C23.3504 17.6917 23.3257 18.0099 23.2701 18.3229C23.215 18.6302 23.1281 18.9309 23.0108 19.2203C22.8936 19.5097 22.7465 19.7861 22.5717 20.0448C22.3974 20.3036 22.1966 20.5438 21.9723 20.761C21.7481 20.9782 21.5019 21.1716 21.2375 21.3379L14.7141 25.4924C14.6118 25.5573 14.5071 25.6185 14.4006 25.6755C14.2937 25.7325 14.1848 25.7853 14.0736 25.8339C13.9629 25.8829 13.8503 25.9273 13.7359 25.9675C13.6219 26.0076 13.506 26.0436 13.3892 26.0749Z" fill="white"/>
</svg>
