<svg width="23" height="23" viewBox="0 0 23 23" fill="none" xmlns="http://www.w3.org/2000/svg">
<g clip-path="url(#clip0_1874_21904)">
<path d="M20.6375 18.1432C21.0012 17.708 21.2206 17.1482 21.2206 16.538C21.2206 15.1558 20.0961 14.0312 18.7139 14.0312C17.3317 14.0312 16.2071 15.1558 16.2071 16.538C16.2071 17.1482 16.4265 17.708 16.7902 18.1432C16.103 18.4898 15.5211 19.0159 15.1069 19.6596C14.6926 19.0159 14.1108 18.4898 13.4236 18.1432C13.7873 17.708 14.0067 17.1482 14.0067 16.538C14.0067 15.1558 12.8821 14.0312 11.4999 14.0312C10.1177 14.0312 8.99314 15.1558 8.99314 16.538C8.99314 17.1482 9.21253 17.708 9.57627 18.1432C8.88901 18.4898 8.30718 19.0159 7.89291 19.6597C7.47864 19.0159 6.89681 18.4898 6.2096 18.1433C6.57333 17.7081 6.79277 17.1483 6.79277 16.5381C6.79277 15.1558 5.6682 14.0313 4.28595 14.0313C2.90375 14.0313 1.77918 15.1558 1.77918 16.5381C1.77918 17.1483 1.99857 17.7081 2.36231 18.1433C0.962496 18.8493 0 20.3006 0 21.9726C0 22.3477 0.304076 22.6518 0.679129 22.6518H7.89304H15.107H22.3209C22.696 22.6518 23 22.3477 23 21.9726C23 20.3006 22.0375 18.8493 20.6375 18.1432ZM4.28604 15.3895C4.91935 15.3895 5.4346 15.9048 5.4346 16.538C5.4346 17.1713 4.91935 17.6865 4.28604 17.6865C3.65278 17.6865 3.13752 17.1713 3.13752 16.538C3.13757 15.9047 3.65278 15.3895 4.28604 15.3895ZM1.43777 21.2935C1.74486 20.0055 2.90537 19.0448 4.28604 19.0448C5.66672 19.0448 6.82727 20.0055 7.13436 21.2935H1.43777ZM11.5 15.3895C12.1333 15.3895 12.6485 15.9048 12.6485 16.538C12.6485 17.1713 12.1333 17.6865 11.5 17.6865C10.8667 17.6865 10.3515 17.1713 10.3515 16.538C10.3515 15.9047 10.8667 15.3895 11.5 15.3895ZM8.65168 21.2935C8.95877 20.0055 10.1193 19.0448 11.5 19.0448C12.8807 19.0448 14.0412 20.0055 14.3483 21.2935H8.65168ZM18.7139 15.3895C19.3472 15.3895 19.8624 15.9048 19.8624 16.538C19.8624 17.1713 19.3472 17.6865 18.7139 17.6865C18.0807 17.6865 17.5654 17.1713 17.5654 16.538C17.5654 15.9047 18.0806 15.3895 18.7139 15.3895ZM15.8656 21.2935C16.1726 20.0055 17.3332 19.0448 18.7139 19.0448C20.0945 19.0448 21.2551 20.0055 21.5622 21.2935H15.8656Z" fill="#6A7282"/>
<path d="M17.1909 6.50649H12.1951V2.66634L13.0269 3.49816C13.1595 3.63077 13.3334 3.69712 13.5071 3.69712C13.6809 3.69712 13.8548 3.63077 13.9873 3.49816C14.2525 3.23299 14.2525 2.80295 13.9873 2.53773L11.9963 0.546705C11.9806 0.530982 11.9641 0.516113 11.9469 0.501963C11.9428 0.498549 11.9384 0.495719 11.9342 0.492395C11.9209 0.481973 11.9075 0.471686 11.8935 0.462297C11.8896 0.459691 11.8854 0.45749 11.8814 0.454975C11.8667 0.445541 11.8519 0.436332 11.8364 0.428021C11.8336 0.426494 11.8305 0.425326 11.8277 0.423799C11.8109 0.415084 11.7938 0.406818 11.7763 0.399541C11.7744 0.398732 11.7723 0.398193 11.7704 0.39743C11.7519 0.389973 11.7331 0.383055 11.7139 0.377125C11.7117 0.376451 11.7094 0.376092 11.7073 0.375463C11.6884 0.369893 11.6692 0.364861 11.6497 0.360953C11.6442 0.359875 11.6385 0.359381 11.633 0.358437C11.6167 0.355607 11.6004 0.352732 11.5838 0.351115C11.5614 0.348869 11.5387 0.347656 11.516 0.347656C11.4933 0.347656 11.4706 0.348824 11.4482 0.351115C11.4315 0.352732 11.4153 0.355607 11.399 0.358437C11.3935 0.359381 11.3878 0.359875 11.3823 0.360953C11.3628 0.364861 11.3436 0.369893 11.3247 0.375463C11.3226 0.376092 11.3203 0.376496 11.3181 0.377125C11.2988 0.382965 11.28 0.389883 11.2616 0.39743C11.2596 0.398193 11.2576 0.398777 11.2557 0.399541C11.2381 0.406818 11.2211 0.415129 11.2043 0.423799C11.2014 0.425281 11.1984 0.426449 11.1955 0.428021C11.1801 0.436287 11.1652 0.445541 11.1505 0.454975C11.1465 0.45749 11.1424 0.459691 11.1384 0.462297C11.1244 0.47173 11.111 0.481973 11.0978 0.492395C11.0936 0.495674 11.0891 0.498549 11.085 0.501963C11.0678 0.516113 11.0514 0.530982 11.0356 0.546705L9.04457 2.53773C8.77935 2.80291 8.77935 3.23294 9.04457 3.49816C9.3097 3.76338 9.73973 3.76338 10.005 3.49816L10.8369 2.66634V6.50654H5.84344C4.60512 6.50654 3.59766 7.51391 3.59766 8.75227V11.8505C3.59761 12.2255 3.90169 12.5296 4.27674 12.5296C4.65179 12.5296 4.95587 12.2255 4.95587 11.8504V8.75223C4.95587 8.26289 5.35397 7.86479 5.84335 7.86479H10.8368V11.8504C10.8368 12.2255 11.1408 12.5296 11.5159 12.5296C11.891 12.5296 12.195 12.2255 12.195 11.8504V7.86479H17.1908C17.6802 7.86479 18.0783 8.26289 18.0783 8.75223V11.8714C18.0783 12.2465 18.3823 12.5505 18.7574 12.5505C19.1324 12.5505 19.4365 12.2465 19.4365 11.8714V8.75223C19.4366 7.51391 18.4292 6.50649 17.1909 6.50649Z" fill="#6A7282"/>
</g>
<defs>
<clipPath id="clip0_1874_21904">
<rect width="23" height="23" fill="white"/>
</clipPath>
</defs>
</svg>
