<svg width="45" height="45" viewBox="0 0 45 45" fill="none" xmlns="http://www.w3.org/2000/svg">
<g clip-path="url(#clip0_1874_21817)">
<mask id="mask0_1874_21817" style="mask-type:luminance" maskUnits="userSpaceOnUse" x="-1" y="0" width="46" height="45">
<path d="M-0.0195312 3.8147e-06H44.9805V45H-0.0195312V3.8147e-06Z" fill="white"/>
</mask>
<g mask="url(#mask0_1874_21817)">
<path d="M8.41406 36.6504C4.53079 36.6504 1.38281 39.7984 1.38281 43.6816H15.4453C15.4453 39.7984 12.2973 36.6504 8.41406 36.6504Z" stroke="#FFAD00" stroke-width="2.63672" stroke-miterlimit="10" stroke-linecap="round" stroke-linejoin="round"/>
<path d="M8.41406 27.8613C6.47247 27.8613 4.89844 29.4353 4.89844 31.377V33.1348C4.89844 35.0764 6.47247 36.6504 8.41406 36.6504C10.3557 36.6504 11.9297 35.0764 11.9297 33.1348V31.377C11.9297 29.4353 10.3557 27.8613 8.41406 27.8613Z" stroke="#FFAD00" stroke-width="2.63672" stroke-miterlimit="10" stroke-linecap="round" stroke-linejoin="round"/>
<path d="M22.4766 36.6504C18.5933 36.6504 15.4453 39.7984 15.4453 43.6816H29.5078C29.5078 39.7984 26.3598 36.6504 22.4766 36.6504Z" stroke="#FFAD00" stroke-width="2.63672" stroke-miterlimit="10" stroke-linecap="round" stroke-linejoin="round"/>
<path d="M22.4766 27.8613C20.535 27.8613 18.9609 29.4353 18.9609 31.377V33.1348C18.9609 35.0764 20.535 36.6504 22.4766 36.6504C24.4182 36.6504 25.9922 35.0764 25.9922 33.1348V31.377C25.9922 29.4353 24.4182 27.8613 22.4766 27.8613Z" stroke="#FFAD00" stroke-width="2.63672" stroke-miterlimit="10" stroke-linecap="round" stroke-linejoin="round"/>
<path d="M36.5391 36.6504C32.6558 36.6504 29.5078 39.7984 29.5078 43.6816H43.5703C43.5703 39.7984 40.4223 36.6504 36.5391 36.6504Z" stroke="#FFAD00" stroke-width="2.63672" stroke-miterlimit="10" stroke-linecap="round" stroke-linejoin="round"/>
<path d="M36.5391 27.8613C34.5975 27.8613 33.0234 29.4353 33.0234 31.377V33.1348C33.0234 35.0764 34.5975 36.6504 36.5391 36.6504C38.4807 36.6504 40.0547 35.0764 40.0547 33.1348V31.377C40.0547 29.4353 38.4807 27.8613 36.5391 27.8613Z" stroke="#FFAD00" stroke-width="2.63672" stroke-miterlimit="10" stroke-linecap="round" stroke-linejoin="round"/>
<path d="M37.4219 11.8652H40.9375V22.5879" stroke="#FFAD00" stroke-width="2.63672" stroke-miterlimit="10" stroke-linecap="round" stroke-linejoin="round"/>
<path d="M7.53906 11.8652H4.02344V22.5879" stroke="#FFAD00" stroke-width="2.63672" stroke-miterlimit="10" stroke-linecap="round" stroke-linejoin="round"/>
</g>
<path d="M23.2422 5.7793C23.2422 5.00265 22.6126 4.37305 21.8359 4.37305C21.0593 4.37305 20.4297 5.00265 20.4297 5.7793V10.4668H15.7422C14.9655 10.4668 14.3359 11.0964 14.3359 11.873C14.3359 12.6497 14.9655 13.2793 15.7422 13.2793H20.4297V17.9668C20.4297 18.7434 21.0593 19.373 21.8359 19.373C22.6126 19.373 23.2422 18.7434 23.2422 17.9668V13.2793H27.9297C28.7063 13.2793 29.3359 12.6497 29.3359 11.873C29.3359 11.0964 28.7063 10.4668 27.9297 10.4668H23.2422V5.7793Z" fill="#FFAD00"/>
</g>
<defs>
<clipPath id="clip0_1874_21817">
<rect width="45" height="45" fill="white"/>
</clipPath>
</defs>
</svg>
