<svg width="45" height="45" viewBox="0 0 45 45" fill="none" xmlns="http://www.w3.org/2000/svg">
<g clip-path="url(#clip0_1874_21782)">
<path d="M1.59766 5.80039V26.8449C1.59766 28.7715 3.16562 30.3465 5.09922 30.3465H39.9109C41.8375 30.3465 43.4125 28.7785 43.4125 26.8449V5.80039C43.4125 3.87383 41.8445 2.29883 39.9109 2.29883H5.09922C3.16562 2.29883 1.59766 3.8668 1.59766 5.80039ZM41.1906 5.80039V26.8449C41.1906 27.5551 40.6141 28.1316 39.9039 28.1316H5.09922C4.38906 28.1316 3.8125 27.5551 3.8125 26.8449V5.80039C3.8125 5.09023 4.38906 4.51367 5.09922 4.51367H39.9109C40.6141 4.51367 41.1906 5.09023 41.1906 5.80039Z" fill="#FFAD00"/>
<path d="M5.09766 42.7012H39.9094C42.7219 42.7012 45.007 40.416 45.007 37.6035C45.007 34.791 42.7219 32.5059 39.9094 32.5059H5.09766C2.28516 32.5059 0 34.791 0 37.6035C0 40.416 2.28516 42.7012 5.09766 42.7012ZM5.09766 34.7277H39.9094C41.4984 34.7277 42.7922 36.0215 42.7922 37.6105C42.7922 39.1996 41.4984 40.4934 39.9094 40.4934H5.09766C3.50859 40.4934 2.21484 39.1996 2.21484 37.6105C2.21484 36.0215 3.50859 34.7277 5.09766 34.7277Z" fill="#FFAD00"/>
<path d="M7.15625 36.498H18.118V38.7129H7.15625V36.498Z" fill="#FFAD00"/>
<path d="M16.6328 20.6145L15.3812 21.866L16.9492 23.434L18.2008 22.1824C19.1219 22.8645 20.2117 23.3285 21.393 23.5043V25.2762H23.6078V23.5043C24.7891 23.3215 25.8789 22.8574 26.8 22.1824L28.0516 23.434L29.6195 21.866L28.368 20.6145C29.05 19.6934 29.5141 18.6035 29.6898 17.4223H31.4617V15.2074H29.6898C29.507 14.0262 29.043 12.9363 28.368 12.0152L29.6195 10.7637L28.0516 9.1957L26.8 10.4473C25.8789 9.76523 24.7891 9.30117 23.6078 9.12539V7.35352H21.393V9.12539C20.2117 9.3082 19.1219 9.77227 18.2008 10.4473L16.9492 9.1957L15.3812 10.7637L16.6328 12.0152C15.9508 12.9363 15.4867 14.0262 15.3109 15.2074H13.5391V17.4223H15.3109C15.4938 18.6035 15.9578 19.6934 16.6328 20.6145ZM22.4969 11.2488C25.2883 11.2488 27.5664 13.5199 27.5664 16.3184C27.5664 19.1168 25.2953 21.3879 22.4969 21.3879C19.7055 21.3879 17.4273 19.1168 17.4273 16.3184C17.4273 13.5199 19.7055 11.2488 22.4969 11.2488Z" fill="#FFAD00"/>
<path d="M22.4984 19.4969C24.2492 19.4969 25.6766 18.0695 25.6766 16.3187C25.6766 14.568 24.2492 13.1406 22.4984 13.1406C20.7477 13.1406 19.3203 14.568 19.3203 16.3187C19.3203 18.0695 20.7477 19.4969 22.4984 19.4969ZM22.4984 15.3555C23.0328 15.3555 23.4617 15.7844 23.4617 16.3187C23.4617 16.8531 23.0258 17.282 22.4984 17.282C21.9641 17.282 21.5352 16.8531 21.5352 16.3187C21.5352 15.7844 21.9641 15.3555 22.4984 15.3555Z" fill="#FFAD00"/>
</g>
<defs>
<clipPath id="clip0_1874_21782">
<rect width="45" height="45" fill="white"/>
</clipPath>
</defs>
</svg>
