<svg width="35" height="35" viewBox="0 0 35 35" fill="none" xmlns="http://www.w3.org/2000/svg">
<g clip-path="url(#clip0_275_14888)">
<path fill-rule="evenodd" clip-rule="evenodd" d="M20.958 1.22584C21.0359 0.934428 21.3353 0.761342 21.6266 0.839203C21.918 0.917065 22.0911 1.21648 22.0133 1.50783L22.0036 1.54378C21.6547 1.43769 21.3037 1.34363 20.9485 1.26112L20.958 1.22584ZM13.6404 19.9035L9.07415 21.8604V26.1513C9.07415 28.8875 10.9834 31.3047 13.6404 31.9483C16.2973 31.3047 18.2066 28.8875 18.2066 26.1513V21.8604L13.6404 19.9035ZM16.8809 24.7381C15.75 25.8795 14.6267 27.0284 13.4906 28.1646C13.1585 28.4968 12.6197 28.4968 12.2875 28.1646L10.4026 26.2797C10.0704 25.9475 10.0704 25.4087 10.4026 25.0766C10.7347 24.7444 11.2735 24.7444 11.6057 25.0766L12.8873 26.3581L15.6762 23.5414C16.0063 23.2079 16.5449 23.207 16.8774 23.5377C17.2096 23.8682 17.2107 24.4053 16.8809 24.7381ZM13.6404 17.525L6.88672 20.4194V26.1514C6.88672 30.1044 9.77251 33.5051 13.6404 34.1794C17.5083 33.5051 20.3941 30.1044 20.3941 26.1514V20.4194L13.6404 17.525ZM19.3004 26.1514C19.3004 29.4381 16.9762 32.3233 13.7702 33.0367C13.6916 33.056 13.6074 33.0581 13.523 33.0394C10.3111 32.3307 7.98047 29.4427 7.98047 26.1513L7.9817 21.5012C7.98177 21.2891 8.10632 21.0875 8.31372 20.9991L13.4269 18.8079C13.5586 18.7519 13.712 18.7474 13.8541 18.8079L18.9323 20.9842C19.1466 21.0583 19.3004 21.2618 19.3004 21.5012L19.3004 26.1514ZM22.1604 18.5243C21.7919 16.4394 20.2551 14.6426 18.0845 14.061C15.9136 13.4793 13.6841 14.2673 12.3225 15.8889C13.2495 12.4295 15.9707 5.16293 21.1957 2.44996C23.994 6.83213 23.4555 13.6906 22.1604 18.5243ZM22.7293 2.94946C24.7897 7.12109 24.5711 12.7578 23.5788 17.3147C24.841 16.5561 26.3961 16.2881 27.9221 16.697C30.0929 17.2787 31.6298 19.0758 31.9982 21.1609C34.0322 13.57 29.9114 5.71391 22.7293 2.94946ZM11.699 14.1317C13.1154 9.69687 15.7413 4.70171 19.6178 2.11568C12.0156 0.9185 4.51841 5.66162 2.48438 13.2527C3.84596 11.6311 6.0755 10.8432 8.24632 11.4248C9.77244 11.8338 10.9853 12.8435 11.699 14.1317ZM18.3201 15.2913L17.5872 18.0265L16.5728 17.5918L17.265 15.0085C17.4443 15.0337 17.6233 15.0698 17.8011 15.1174C17.979 15.1651 18.1521 15.2234 18.3201 15.2913Z" fill="#2563EB"/>
</g>
<defs>
<clipPath id="clip0_275_14888">
<rect width="35" height="35" fill="white"/>
</clipPath>
</defs>
</svg>
