<svg width="35" height="35" viewBox="0 0 35 35" fill="none" xmlns="http://www.w3.org/2000/svg">
<path d="M28.3532 18.7759L22.6283 23.5988C22.672 23.7757 22.6952 23.9606 22.6952 24.1508C22.6952 25.4215 21.6614 26.4553 20.3907 26.4553H12.7591C12.438 26.4553 12.1778 26.1951 12.1778 25.8741C12.1778 25.5531 12.438 25.2929 12.7591 25.2929H20.3907C21.0204 25.2929 21.5327 24.7806 21.5327 24.1508C21.5327 24.0293 21.5136 23.9121 21.4783 23.8021C21.4129 23.7234 21.3718 23.6324 21.3542 23.5384C21.1513 23.2203 20.7952 23.0088 20.3907 23.0088H16.733C15.9201 23.0088 15.156 22.6923 14.5812 22.1176L14.4143 21.9506C13.8267 21.363 13.0453 21.0394 12.2142 21.0394H9.28053C8.18908 21.0394 7.16284 21.4633 6.38977 22.2334L2.73109 26.1082C2.69664 26.1447 2.69054 26.1853 2.6915 26.213C2.69242 26.2406 2.70129 26.2807 2.73811 26.3146L8.08602 31.2512C8.14356 31.3042 8.23196 31.3024 8.28731 31.2472L8.42668 31.1078C9.00145 30.533 9.7656 30.2165 10.5784 30.2165H19.6172C20.1195 30.2165 20.5918 30.0209 20.9469 29.6657L30.0206 20.592C30.2536 20.359 30.382 20.0492 30.382 19.7196C30.382 19.3901 30.2536 19.0802 30.0206 18.8472C29.5639 18.3904 28.847 18.36 28.3532 18.7759Z" fill="#2563EB"/>
<path d="M19.1602 19.7802C23.5907 19.7802 27.1952 16.1756 27.1952 11.745C27.1952 7.31447 23.5907 3.70996 19.1602 3.70996C14.7295 3.70996 11.125 7.31447 11.125 11.745C11.125 16.1756 14.7295 19.7802 19.1602 19.7802ZM15.8709 13.9607C15.8709 13.6397 16.1312 13.3795 16.4522 13.3795C16.7732 13.3795 17.0334 13.6397 17.0334 13.9607V14.2069C17.0334 14.8366 17.5457 15.3489 18.1754 15.3489H20.1449C20.7746 15.3489 21.2869 14.8366 21.2869 14.2069V13.4683C21.2869 12.8386 20.7746 12.3263 20.1449 12.3263H17.9292C16.7943 12.3263 15.871 11.4029 15.871 10.268V9.28325C15.871 8.01255 16.9047 6.97881 18.1754 6.97881H18.5789V6.32905C18.5789 6.00808 18.8392 5.74784 19.1602 5.74784C19.4812 5.74784 19.7414 6.00808 19.7414 6.32905V6.97881H20.1449C21.4156 6.97881 22.4494 8.01255 22.4494 9.28325V9.52944C22.4494 9.85041 22.1892 10.1107 21.8682 10.1107C21.5472 10.1107 21.2869 9.85041 21.2869 9.52944V9.28325C21.2869 8.65357 20.7746 8.14125 20.1449 8.14125H18.1754C17.5457 8.14125 17.0334 8.65358 17.0334 9.28325V10.268C17.0334 10.762 17.4352 11.1638 17.9292 11.1638H20.1449C21.4156 11.1638 22.4494 12.1976 22.4494 13.4683V14.2069C22.4494 15.4776 21.4156 16.5113 20.1449 16.5113H19.7414V17.161C19.7414 17.482 19.4812 17.7422 19.1602 17.7422C18.8392 17.7422 18.5789 17.482 18.5789 17.161V16.5113H18.1754C16.9047 16.5113 15.871 15.4776 15.871 14.2069L15.8709 13.9607Z" fill="#2563EB"/>
</svg>
