<svg width="40" height="40" viewBox="0 0 40 40" fill="none" xmlns="http://www.w3.org/2000/svg">
<path d="M9.37414 25.4938L9.33664 25.7438C9.30539 25.9251 9.36164 26.1063 9.48039 26.2439C9.59914 26.3876 9.77414 26.4626 9.95539 26.4626H16.0804L14.9741 28.8251C14.8804 29.0188 14.8991 29.2439 15.0116 29.4251C15.1241 29.6063 15.3241 29.7188 15.5366 29.7188H16.3054C16.0804 30.7626 15.9491 32.2876 16.4429 33.9876C17.1616 36.4813 18.7866 37.9688 19.6991 38.6313C19.8054 38.7126 19.9366 38.7501 20.0679 38.7501C20.1929 38.7501 20.3241 38.7126 20.4366 38.6313C21.3429 37.9688 22.9741 36.4813 23.6929 33.9876C24.1804 32.2876 24.0491 30.7626 23.8241 29.7188H24.4804C24.6929 29.7188 24.8929 29.6063 25.0054 29.4251C25.1241 29.2439 25.1366 29.0188 25.0491 28.8251L23.9429 26.4626H30.0429C30.2241 26.4626 30.3991 26.3876 30.5179 26.2439C30.6366 26.1063 30.6929 25.9251 30.6616 25.7438L30.6241 25.4938C30.4741 24.4876 30.2991 23.3501 29.5054 21.7813C28.8241 20.4251 27.9304 19.2001 26.8616 18.1188C26.9304 16.4751 26.8304 14.6876 26.4491 12.7876C25.3616 7.43135 22.5929 3.6626 20.4616 1.44385C20.2241 1.19385 19.7929 1.19385 19.5616 1.44385C17.4241 3.6626 14.6554 7.43135 13.5741 12.7876C13.1929 14.6751 13.0866 16.4626 13.1554 18.0938C12.0804 19.1813 11.1804 20.4126 10.4929 21.7813C9.69914 23.3501 9.52414 24.4876 9.37414 25.4938ZM16.5241 28.4688L17.4616 26.4626H22.5616L23.4991 28.4688H16.5241ZM14.7991 13.0376C15.7491 8.34385 18.0679 4.9376 20.0116 2.79385C21.9491 4.9376 24.2741 8.34385 25.2241 13.0376C25.9366 16.5688 25.6241 19.7251 25.0491 22.1438H14.9741C14.3991 19.7251 14.0804 16.5688 14.7991 13.0376Z" fill="#2563EB"/>
<path d="M20 16.7063C22.1228 16.7063 23.8438 14.9854 23.8438 12.8625C23.8438 10.7397 22.1228 9.0188 20 9.0188C17.8772 9.0188 16.1562 10.7397 16.1562 12.8625C16.1562 14.9854 17.8772 16.7063 20 16.7063Z" fill="#2563EB"/>
</svg>
