<svg width="35" height="35" viewBox="0 0 35 35" fill="none" xmlns="http://www.w3.org/2000/svg">
<g clip-path="url(#clip0_275_14909)">
<path d="M30.1964 0.0792091C29.8139 -0.0819826 29.3733 0.00811519 29.079 0.301514L28.2298 1.15068C27.4553 1.92389 26.6938 2.05193 25.7024 2.05193C22.1092 2.05193 19.0229 4.13641 17.4995 7.14122C15.9796 4.14311 13.0143 2.05193 8.94518 2.05193C8.12308 2.05193 7.3511 1.73146 6.76929 1.15068L5.92027 0.301446C5.62584 0.00804683 5.18827 -0.0800686 4.80279 0.0791407C4.4193 0.237325 4.16992 0.611866 4.16992 1.0264V3.07712C4.16992 8.16587 8.30943 12.3054 13.3982 12.3054H16.4742V16.5782C13.2695 16.7453 10.3221 17.6989 10.3221 19.6196C10.3221 21.7445 13.9268 22.6957 17.4996 22.6957C21.0724 22.6957 24.6772 21.7445 24.6772 19.6196C24.6772 17.699 21.7297 16.7453 18.525 16.5783V12.3054H21.6011C26.6899 12.3054 30.8294 8.16587 30.8294 3.07712V1.0264C30.8292 0.611866 30.5799 0.237393 30.1964 0.0792091Z" fill="#2563EB"/>
<path d="M17.4998 28.8478C14.3659 28.8478 11.9188 28.235 10.3223 27.1721V27.8225C10.3223 29.9473 13.927 30.8986 17.4998 30.8986C21.0726 30.8986 24.6774 29.9473 24.6774 27.8225V27.1721C23.0809 28.235 20.6337 28.8478 17.4998 28.8478Z" fill="#2563EB"/>
<path d="M17.4994 32.9492C14.3654 32.9492 11.9183 32.3364 10.3218 31.2735C10.3218 31.6156 10.2833 32.047 10.412 32.3375C10.8629 34.1633 14.1755 34.9999 17.4994 34.9999C19.9643 34.9999 24.6769 34.3753 24.6769 31.9238V31.2734C23.0804 32.3364 20.6333 32.9492 17.4994 32.9492Z" fill="#2563EB"/>
<path d="M17.4998 24.7463C14.3659 24.7463 11.9188 24.1334 10.3223 23.0706V23.7209C10.3223 25.8457 13.927 26.797 17.4998 26.797C21.0726 26.797 24.6774 25.8457 24.6774 23.7209V23.0706C23.0809 24.1335 20.6337 24.7463 17.4998 24.7463Z" fill="#2563EB"/>
<path d="M7.2459 18.5942C3.67323 18.5942 0 19.5455 0 21.6703C0 23.7952 3.67309 24.7465 7.2459 24.7465C7.58914 24.7465 7.93073 24.7296 8.2713 24.7118V18.629C7.93073 18.6111 7.58914 18.5942 7.2459 18.5942Z" fill="#2563EB"/>
<path d="M27.7539 18.5942C27.4107 18.5942 27.0691 18.6111 26.7285 18.6289V24.7117C27.0691 24.7295 27.4107 24.7464 27.7539 24.7464C31.3266 24.7464 34.9998 23.7951 34.9998 21.6703C34.9998 19.5455 31.3266 18.5942 27.7539 18.5942Z" fill="#2563EB"/>
<path d="M7.2459 26.797C4.11196 26.797 1.59654 26.1842 0 25.1213V25.7717C0 27.8965 3.67309 28.8478 7.2459 28.8478C7.58914 28.8478 7.93073 28.8309 8.2713 28.8132V26.7451C7.92786 26.7612 7.60787 26.797 7.2459 26.797Z" fill="#2563EB"/>
<path d="M7.2459 30.8986C4.11196 30.8986 1.59654 30.2858 0 29.2229V29.8733C0 31.998 3.67316 32.9493 7.2459 32.9493C7.58914 32.9493 7.93073 32.9324 8.2713 32.9147V30.8466C7.92786 30.8628 7.60787 30.8986 7.2459 30.8986Z" fill="#2563EB"/>
<path d="M27.7539 26.7971C27.3919 26.7971 27.072 26.7614 26.7285 26.7451V28.8132C27.0691 28.8309 27.4107 28.8478 27.7539 28.8478C31.3266 28.8478 34.9998 27.8965 34.9998 25.7717V25.1213C33.4033 26.1843 30.8878 26.7971 27.7539 26.7971Z" fill="#2563EB"/>
<path d="M27.7539 30.8987C27.3919 30.8987 27.072 30.8629 26.7285 30.8467V32.9147C27.0691 32.9325 27.4107 32.9494 27.7539 32.9494C31.3266 32.9494 34.9998 31.9981 34.9998 29.8733V29.2229C33.4033 30.2858 30.8878 30.8987 27.7539 30.8987Z" fill="#2563EB"/>
</g>
<defs>
<clipPath id="clip0_275_14909">
<rect width="35" height="35" fill="white"/>
</clipPath>
</defs>
</svg>
