<svg width="30" height="31" viewBox="0 0 30 31" fill="none" xmlns="http://www.w3.org/2000/svg">
<path d="M14.3724 4.77217V6.30225C14.3267 6.28819 14.2754 6.27521 14.233 6.26049C13.8585 6.12531 13.6028 5.91719 13.6023 5.51362C13.5961 5.09441 13.9724 4.83552 14.3724 4.77217ZM15.4859 7.69847V9.14644C15.659 9.07721 15.8036 8.98886 15.9126 8.87684C16.0301 8.75615 16.0889 8.61862 16.0889 8.46402C16.0883 8.07055 15.8473 7.85619 15.4859 7.69847ZM21.9128 7.10938C21.9128 11.0296 18.7234 14.2188 14.8034 14.2188C10.8834 14.2188 7.69403 11.0296 7.69403 7.10938C7.69403 3.18912 10.8834 0 14.8034 0C18.7234 0 21.9128 3.18912 21.9128 7.10938ZM17.2024 8.39913C17.2024 8.0835 17.1559 7.8162 17.063 7.59644C16.8021 6.96028 16.1367 6.71898 15.4859 6.56127V4.85519C15.7545 4.93507 16.0862 5.07469 16.2742 5.24445C16.4667 5.38885 16.734 5.33861 16.8958 5.16087C17.1523 4.89104 17.0856 4.52878 16.7848 4.2981C16.4725 4.02483 15.9476 3.79752 15.4859 3.72272V3.37952C15.4909 3.06667 15.2572 2.80728 14.9385 2.81369C14.6227 2.80718 14.3659 3.0642 14.3724 3.37952V3.69909C14.1213 3.73373 13.8795 3.78711 13.6579 3.88047C12.9507 4.17974 12.4992 4.76858 12.5075 5.55982C12.4616 6.63988 13.3713 7.28722 14.3724 7.41937V9.2361C13.9299 9.16437 13.6284 8.97725 13.2589 8.68672C12.6555 8.23688 12.0638 9.19464 12.656 9.6053C13.1803 10.0605 13.7068 10.2536 14.3724 10.3087V10.8392C14.3443 11.5807 15.5098 11.5722 15.4859 10.8392V10.2618C16.4003 10.0834 17.2252 9.3903 17.2024 8.39913ZM11.0621 22.7081C10.8618 22.7081 10.6589 22.6713 10.462 22.5944L1.6784 19.1573V24.9565C1.6784 25.6366 2.08749 26.2364 2.72115 26.4845L14.2565 30.9982V18.9276L12.4666 21.9108C12.162 22.4184 11.6236 22.7081 11.0621 22.7081ZM21.7959 11.3766C20.3529 13.7322 17.7626 15.3125 14.8034 15.3125C11.8442 15.3125 9.25391 13.7323 7.81092 11.3767L4.10944 12.1813L14.8034 16.3659L25.4974 12.1813L21.7959 11.3766ZM10.8605 21.5759C11.1104 21.6729 11.391 21.5775 11.5288 21.3479L14.0015 17.2266L2.45653 12.709L0.0786418 16.6717C-0.00547305 16.8119 -0.0228309 16.9745 0.030041 17.1294C0.0829129 17.2845 0.196132 17.4025 0.348607 17.4623L10.8605 21.5759ZM18.5447 22.7081C17.9829 22.7081 17.4448 22.4184 17.1402 21.9108L15.3503 18.9276V30.9982L26.8859 26.4845C27.5193 26.2364 27.9284 25.6366 27.9284 24.9565V19.1572L19.1448 22.5944C18.9482 22.6713 18.745 22.7081 18.5447 22.7081ZM29.5282 16.6714L27.1503 12.709L15.6053 17.2266L18.078 21.3479C18.2155 21.5775 18.4969 21.6731 18.7463 21.5759L29.2582 17.4623C29.4107 17.4025 29.5239 17.2845 29.5768 17.1294C29.6296 16.9745 29.6123 16.8119 29.5282 16.6714Z" fill="#2563EB"/>
</svg>
