<svg width="35" height="35" viewBox="0 0 35 35" fill="none" xmlns="http://www.w3.org/2000/svg">
<path d="M4.94336 12.8545H11.0315V14.287C11.0315 14.5819 10.7892 14.8242 10.4943 14.8242H9.77805V25.4205H10.4943C10.7892 25.4205 11.0315 25.6575 11.0315 25.9577V27.3902H4.94336V25.9577C4.94336 25.6575 5.1856 25.4205 5.48056 25.4205H6.1968V14.8242H5.48056C5.1856 14.8242 4.94336 14.5819 4.94336 14.287V12.8545Z" fill="#2563EB"/>
<path d="M14.4551 12.8545H20.5432V14.287C20.5432 14.5819 20.3009 14.8242 20.006 14.8242H19.2898V25.4205H20.006C20.3009 25.4205 20.5432 25.6575 20.5432 25.9577V27.3902H14.4551V25.9577C14.4551 25.6575 14.6973 25.4205 14.9923 25.4205H15.7085V14.8242H14.9923C14.6973 14.8242 14.4551 14.5819 14.4551 14.287V12.8545Z" fill="#2563EB"/>
<path d="M28.8015 25.4205H29.5177C29.8127 25.4205 30.0549 25.6575 30.0549 25.9577V27.3902H23.9668V25.9577C23.9668 25.6575 24.2091 25.4205 24.504 25.4205H25.2202V14.8242H24.504C24.2091 14.8242 23.9668 14.5819 23.9668 14.287V12.8545H30.0549V14.287C30.0549 14.5819 29.8127 14.8242 29.5177 14.8242H28.8015V25.4205Z" fill="#2563EB"/>
<path d="M31.8724 29.0914V30.4712H3.13281V29.0914C3.13281 28.7333 3.42247 28.4436 3.78059 28.4436H31.2246C31.5828 28.4436 31.8724 28.7333 31.8724 29.0914Z" fill="#2563EB"/>
<path d="M33.7429 33.3214V32.1712C33.7429 31.8128 33.4523 31.5222 33.0939 31.5222H1.90684C1.54839 31.5222 1.25781 31.8128 1.25781 32.1712V33.3214C1.25781 33.6799 1.54839 33.9704 1.90684 33.9704H33.0939C33.4523 33.9704 33.7429 33.6799 33.7429 33.3214Z" fill="#2563EB"/>
<path d="M16.8597 1.19406L2.93217 8.79987C2.72473 8.91315 2.5957 9.13063 2.5957 9.36698V11.155C2.5957 11.5119 2.885 11.8012 3.24186 11.8012H31.7635C32.1204 11.8012 32.4097 11.5119 32.4097 11.155V9.36691C32.4097 9.1306 32.2807 8.91315 32.0733 8.79985L18.1509 1.19416C17.7485 0.974378 17.2621 0.974342 16.8597 1.19406ZM17.5048 8.93705C16.3383 8.93705 15.3899 7.98864 15.3899 6.82213C15.3899 5.65558 16.3383 4.70717 17.5048 4.70717C18.6666 4.70717 19.6103 5.65558 19.6103 6.82213C19.6103 7.98865 18.6666 8.93705 17.5048 8.93705Z" fill="#2563EB"/>
</svg>
