<svg width="35" height="32" viewBox="0 0 35 32" fill="none" xmlns="http://www.w3.org/2000/svg">
<path d="M33.663 4.57286L12.2272 0.0364434C11.3203 -0.155429 10.4214 0.429681 10.2295 1.3366L9.82227 3.95372L34.5556 9.18769L34.9628 6.57056C35.1547 5.66399 34.5699 4.76479 33.663 4.57286Z" fill="#2563EB"/>
<path d="M24.6494 9.74267C24.399 8.84102 23.4567 8.30806 22.5554 8.55804L18.4861 9.68771L8.89293 7.65747L7.83789 12.6424L1.24595 14.472C0.34464 14.7221 -0.188313 15.6643 0.061664 16.5657L3.77661 29.9526C4.02698 30.8539 4.9693 31.3872 5.87062 31.1369L27.18 25.2233C28.0814 24.9729 28.6143 24.031 28.3643 23.1293L27.7267 20.8312L30.1166 21.3364C31.0235 21.5287 31.9224 20.9435 32.1143 20.0366L33.6263 12.8915L25.0177 11.0698L24.6494 9.74267ZM27.1103 16.5464L27.6373 14.0557C27.7165 13.6828 28.0863 13.4422 28.4591 13.521L30.9499 14.0483C31.3232 14.1275 31.5637 14.4969 31.485 14.8701L30.9579 17.3609C30.8788 17.7338 30.5091 17.9747 30.1361 17.8956L27.6454 17.3686C27.2718 17.2892 27.0312 16.9194 27.1103 16.5464ZM1.61677 15.8079L7.51391 14.172L21.4282 10.3107L22.9255 9.89468C22.9528 9.88731 22.9801 9.88382 23.0067 9.88382C23.1268 9.88382 23.2704 9.96262 23.3124 10.1135L23.4882 10.7466L24.039 12.7314L2.1245 18.8127L1.39791 16.1952C1.35238 16.031 1.45258 15.8535 1.61677 15.8079ZM27.028 23.4997C27.0561 23.6013 27.0267 23.6853 26.9969 23.7378C26.9675 23.7903 26.9107 23.859 26.8092 23.887L5.50014 29.8006C5.4732 29.808 5.44552 29.8118 5.41887 29.8118C5.29877 29.8118 5.15517 29.7327 5.11319 29.5817L2.94638 21.7734L24.8609 15.6917L26.1975 20.5075L27.028 23.4997Z" fill="#2563EB"/>
<path d="M8.94388 24.0341C8.84163 23.6665 8.45783 23.4494 8.09015 23.5513L5.60153 24.2421C5.2342 24.344 5.01677 24.7282 5.11902 25.0959L5.80953 27.5841C5.91179 27.9518 6.29559 28.1689 6.66327 28.0666L9.15189 27.3761C9.51956 27.2742 9.73665 26.8901 9.63474 26.5224L8.94388 24.0341Z" fill="#2563EB"/>
</svg>
