<svg width="35" height="35" viewBox="0 0 35 35" fill="none" xmlns="http://www.w3.org/2000/svg">
<g clip-path="url(#clip0_275_14949)">
<path d="M31.6271 10.1265L27.469 0.685448C27.3861 0.487297 27.2479 0.31724 27.0709 0.195664C26.8938 0.0740872 26.6855 0.00615109 26.4708 0C26.4474 0 26.4239 0.000834896 26.4004 0.00250469C26.1827 0.0117187 25.9732 0.0884891 25.8011 0.222157C25.629 0.355825 25.5028 0.539758 25.4401 0.748418C25.3322 0.966894 23.9286 3.51358 16.9214 4.59031C14.2797 4.99626 12.4387 5.59136 11.1543 6.20073L16.0096 17.8848C16.9337 17.3089 18.5652 16.6289 21.4121 16.1914C30.0482 14.8644 31.5194 11.3255 31.6588 10.9264C31.7499 10.6654 31.7386 10.3795 31.6271 10.1265Z" fill="#2563EB"/>
<path d="M19.8723 30.0236C19.8869 30.0033 19.9031 29.9843 19.9164 29.9632C20.0576 29.7601 20.154 29.5294 20.1994 29.2863C20.2448 29.0431 20.2382 28.7931 20.1798 28.5528C20.0929 28.2577 19.9213 27.9946 19.6864 27.7959C19.945 27.4165 20.085 26.9687 20.0888 26.5095C20.0748 26.018 19.8824 25.5483 19.5475 25.1882C19.7145 24.7175 19.7298 24.2064 19.5913 23.7265C19.4341 23.2409 19.1114 22.8258 18.6795 22.5538C18.7456 22.1713 18.6858 21.7777 18.509 21.4322C18.3321 21.0867 18.0479 20.8079 17.699 20.6378C17.514 20.5568 17.3135 20.5174 17.1116 20.5222C16.9097 20.5271 16.7113 20.5761 16.5303 20.6658L16.0782 20.9019L9.61872 5.37259C9.4545 4.99012 9.14771 4.6867 8.76345 4.52672C8.37919 4.36674 7.94771 4.36279 7.56059 4.51571C7.36549 4.59102 7.18752 4.70475 7.03722 4.85016C6.88692 4.99557 6.76737 5.16969 6.68567 5.36219C6.60514 5.55043 6.56335 5.75297 6.5628 5.95771C6.56225 6.16245 6.60294 6.36521 6.68246 6.55387L12.7439 20.8074C12.9555 20.7858 13.1692 20.797 13.3774 20.8404C13.6027 20.8905 13.8231 20.9608 14.0358 21.0505L7.69103 6.13077C7.66837 6.07666 7.65682 6.01854 7.65707 5.95988C7.65732 5.90122 7.66937 5.8432 7.6925 5.78929C7.7178 5.7307 7.75461 5.67778 7.80076 5.6337C7.8469 5.58961 7.90144 5.55525 7.96113 5.53266C8.08153 5.48304 8.21653 5.48234 8.33743 5.53072C8.45834 5.57909 8.5556 5.67272 8.60854 5.79169L15.1051 21.4101L14.9076 21.5132C15.0632 21.6123 15.221 21.7214 15.3811 21.8405L15.3927 21.8491C15.5533 21.9688 15.7162 22.0983 15.8812 22.2377L17.0368 21.6342C17.0926 21.6153 17.1519 21.609 17.2105 21.6155C17.3604 21.6924 17.4797 21.818 17.5486 21.9717C17.6175 22.1254 17.632 22.298 17.5896 22.4611L16.6412 22.9348C16.8908 23.1811 17.1445 23.4468 17.4026 23.7347C17.4112 23.7442 17.4183 23.7546 17.4267 23.7643L18.0513 23.4522C18.2794 23.5867 18.4538 23.796 18.5448 24.0445C18.6255 24.3821 18.583 24.7374 18.4251 25.0465L18.0373 25.2356C18.0756 25.6923 17.9942 26.1511 17.8009 26.5667L18.8377 26.061C18.933 26.1963 18.9876 26.356 18.9952 26.5213C18.9648 26.8853 18.8054 27.2264 18.5458 27.4833L16.5134 28.5445C16.4184 28.5933 16.3272 28.6494 16.2407 28.7121C16.1284 28.6993 16.0203 28.6618 15.9241 28.6023C15.828 28.5427 15.7462 28.4627 15.6845 28.3679C15.6494 28.3112 15.6233 28.2494 15.6072 28.1846C15.5911 28.1304 15.5863 28.0734 15.5929 28.0173C15.2253 28.0346 14.8572 27.9935 14.5024 27.8953C14.4817 28.1009 14.5019 28.3086 14.5618 28.5063C14.6044 28.6572 14.6676 28.8015 14.7497 28.9351C14.9612 29.2788 15.2822 29.5415 15.661 29.6809C15.6416 29.9557 15.6951 30.2308 15.816 30.4784C15.8375 30.5244 15.8723 30.5925 15.9093 30.662C15.3403 30.9308 14.5211 31.3179 14.5012 31.3272C13.741 31.6863 13.296 31.6781 12.3447 31.4702L12.309 31.4625C11.9104 31.3447 11.4907 31.3166 11.08 31.3802L8.95352 27.2696C8.97567 27.2324 8.99833 27.1962 9.01856 27.1551C10.5813 23.9735 12.5256 23.1327 12.9448 22.9835C13.7402 23.1748 14.9239 24.2459 15.7733 25.193C15.8286 25.2672 15.8587 25.357 15.8595 25.4496C15.8603 25.5421 15.8317 25.6324 15.7777 25.7076C15.7247 25.7689 15.5633 25.9549 14.9335 25.7468C14.4949 25.588 14.0657 25.4046 13.6478 25.1973C13.6338 25.0385 13.6114 24.8806 13.5806 24.7242C13.5523 24.5823 13.4689 24.4573 13.3486 24.3768C13.2283 24.2962 13.081 24.2667 12.9389 24.2945C12.7969 24.3224 12.6717 24.4055 12.5908 24.5256C12.5099 24.6456 12.4799 24.7929 12.5074 24.935C12.8538 26.6928 11.6113 27.4952 11.5496 27.5337C11.426 27.6089 11.3374 27.7302 11.3031 27.8707C11.2688 28.0113 11.2916 28.1597 11.3666 28.2835C11.4416 28.4072 11.5626 28.4962 11.703 28.5309C11.8435 28.5656 11.992 28.5431 12.116 28.4684C12.8501 27.9799 13.3711 27.2305 13.5732 26.3721C13.9678 26.5497 14.402 26.7223 14.5908 26.7846C15.6829 27.1442 16.2884 26.7872 16.6045 26.4231C16.8326 26.1467 16.956 25.7988 16.953 25.4405C16.9501 25.0822 16.8209 24.7364 16.5882 24.4639C15.8351 23.6246 14.3869 22.1763 13.1464 21.9087C12.9658 21.8709 12.7783 21.8833 12.6044 21.9447C11.9992 22.154 9.96596 23.0691 8.27831 26.211C8.11259 26.0859 7.91517 26.0098 7.7084 25.9912C7.50163 25.9725 7.29378 26.0122 7.10839 26.1056L5.80048 26.7702C5.55407 26.8934 5.36347 27.1054 5.26702 27.3635C5.17056 27.6216 5.1754 27.9067 5.28056 28.1613L3.57533 29.0519C3.44721 29.1193 3.35106 29.2348 3.30798 29.3729C3.26489 29.5111 3.27839 29.6608 3.34551 29.789C3.41263 29.9173 3.52789 30.0137 3.66599 30.057C3.8041 30.1004 3.95377 30.0872 4.08215 30.0203L5.77379 29.1368L7.72391 32.9064L5.5078 33.9601C5.37698 34.0224 5.27627 34.1341 5.22784 34.2707C5.1794 34.4073 5.1872 34.5575 5.24952 34.6883C5.31184 34.8192 5.42358 34.9199 5.56016 34.9683C5.69673 35.0168 5.84695 35.0089 5.97778 34.9466L8.22629 33.8775L8.35593 34.1281L8.35607 34.1284C8.49154 34.3881 8.72398 34.5839 9.00292 34.6732C9.28186 34.7626 9.58479 34.7383 9.84594 34.6057L11.1538 33.9411C11.2836 33.8756 11.399 33.785 11.4936 33.6746C11.5881 33.5642 11.6598 33.4361 11.7046 33.2979C11.7494 33.1596 11.7663 33.0138 11.7544 32.8689C11.7426 32.7241 11.7021 32.583 11.6354 32.4539L11.6307 32.4447C11.7542 32.4599 11.8953 32.4905 12.0748 32.5299L12.111 32.5379C13.2165 32.7793 13.9267 32.8079 14.9664 32.3162C14.9735 32.3129 16.507 31.5882 16.8454 31.4283C16.9177 31.4413 16.991 31.4481 17.0645 31.4486C17.131 31.4483 17.1973 31.4435 17.2631 31.4343L18.6379 34.667C18.6945 34.8005 18.8019 34.906 18.9364 34.9604C19.0709 35.0147 19.2214 35.0134 19.3549 34.9567C19.4884 34.9 19.5939 34.7926 19.6482 34.6582C19.7026 34.5237 19.7012 34.3732 19.6446 34.2397L18.2771 31.024C18.4742 30.92 18.7254 30.7876 18.9553 30.6664L20.2769 33.8435C20.3326 33.9773 20.4391 34.0835 20.5731 34.1388C20.7071 34.1942 20.8575 34.194 20.9914 34.1384C21.1252 34.0828 21.2316 33.9764 21.2869 33.8424C21.3423 33.7085 21.3423 33.558 21.2868 33.4241L19.8723 30.0236ZM18.992 29.3793C18.9701 29.4126 18.9399 29.4397 18.9044 29.4577C18.5032 29.6692 17.4764 30.2103 17.4132 30.2444C17.2795 30.317 17.0427 30.4202 16.9589 30.2988C16.9364 30.2639 16.8487 30.1051 16.8082 30.0184C16.7051 29.7962 16.6937 29.6815 17.0178 29.514L18.8729 28.5453C18.9892 28.6163 19.0788 28.7238 19.1276 28.851C19.1507 29.0379 19.1022 29.2266 18.992 29.3793Z" fill="#2563EB"/>
</g>
<defs>
<clipPath id="clip0_275_14949">
<rect width="35" height="35" fill="white"/>
</clipPath>
</defs>
</svg>
