<svg width="30" height="30" viewBox="0 0 30 30" fill="none" xmlns="http://www.w3.org/2000/svg">
<g clip-path="url(#clip0_275_15456)">
<path fill-rule="evenodd" clip-rule="evenodd" d="M24.4129 10.5876C27.1673 10.5876 29.4137 8.34107 29.4137 5.58675C29.4137 2.83237 27.1673 0.585938 24.4129 0.585938C21.6585 0.585938 19.4121 2.83237 19.4121 5.58675C19.4121 8.34107 21.6586 10.5876 24.4129 10.5876Z" fill="#2563EB"/>
<path fill-rule="evenodd" clip-rule="evenodd" d="M22.576 17.561L19.6673 14.6524L11.0646 23.255C9.87661 24.443 7.93264 24.443 6.74471 23.255C5.55678 22.067 5.55672 20.1231 6.74465 18.9351L15.3473 10.3325L12.4386 7.42383L3.08652 15.2769C-0.379129 18.187 -0.113406 23.7132 3.08652 26.9132C6.28645 30.1131 11.8127 30.3789 14.7229 26.9132L22.576 17.561Z" fill="#2563EB"/>
<path fill-rule="evenodd" clip-rule="evenodd" d="M12.4381 7.42383L9.46094 9.92373L12.6082 13.071L15.3467 10.3325L12.4381 7.42383Z" fill="white"/>
<path fill-rule="evenodd" clip-rule="evenodd" d="M11.1767 23.1433L11.0646 23.2554C9.87665 24.4434 7.93274 24.4434 6.74475 23.2554C5.55676 22.0674 5.55676 20.1234 6.74475 18.9355L8.13571 17.5445C7.96245 16.7516 7.87034 15.9283 7.87034 15.0835C7.87034 13.4297 8.22067 11.858 8.85014 10.4375L3.0865 15.2773C-0.379093 18.1874 -0.113428 23.7136 3.0865 26.9136C6.28643 30.1136 11.8126 30.3793 14.7228 26.9136L15.5567 25.9206C13.8869 25.3359 12.3932 24.3769 11.1767 23.1433Z" fill="#2563EB"/>
<path fill-rule="evenodd" clip-rule="evenodd" d="M3.08594 26.9132C6.28592 30.1131 11.8121 30.3788 14.7223 26.9132L22.5754 17.561L19.6667 14.6523L11.0641 23.255C9.87609 24.443 7.93212 24.443 6.74413 23.255L6.1821 25.9349L3.08594 26.9132Z" fill="#2563EB"/>
<path fill-rule="evenodd" clip-rule="evenodd" d="M19.6682 14.6523L16.9297 17.3908L20.077 20.5382L22.5769 17.561L19.6682 14.6523Z" fill="white"/>
<path fill-rule="evenodd" clip-rule="evenodd" d="M3.08594 26.9138C6.28592 30.1137 11.8121 30.3794 14.7223 26.9138L15.5562 25.9207C13.8863 25.3363 12.3928 24.377 11.1761 23.1436L11.0641 23.2556C9.87609 24.4436 7.93212 24.4436 6.74413 23.2556L3.08594 26.9138Z" fill="#2563EB"/>
<path d="M24.4129 0C21.3323 0 18.8262 2.50618 18.8262 5.58675C18.8262 8.66732 21.3323 11.1735 24.4129 11.1735C27.4934 11.1735 29.9997 8.66732 29.9997 5.58675C29.9997 2.50618 27.4934 0 24.4129 0ZM24.4129 10.0016C21.9786 10.0016 19.998 8.02109 19.998 5.58675C19.998 3.15241 21.9786 1.17188 24.4129 1.17188C26.8473 1.17188 28.8278 3.15241 28.8278 5.58675C28.8278 8.02109 26.8473 10.0016 24.4129 10.0016Z" fill="#2563EB"/>
<path d="M20.0815 14.238C19.9716 14.1282 19.8225 14.0664 19.6671 14.0664C19.5117 14.0664 19.3627 14.1282 19.2528 14.238L10.6501 22.8407C10.1862 23.3046 9.56632 23.56 8.9045 23.56C8.24274 23.56 7.62276 23.3046 7.15887 22.8406C6.19635 21.8781 6.19635 20.3119 7.15887 19.3494L15.7615 10.7468C15.8714 10.6369 15.9331 10.4879 15.9331 10.3325C15.9331 10.1771 15.8714 10.028 15.7615 9.91815L12.8528 7.0095C12.6379 6.79463 12.2944 6.77969 12.0617 6.9751L2.70955 14.8281C1.06587 16.2083 0.106456 18.2145 0.00813536 20.4769C-0.101084 22.9892 0.894778 25.5502 2.67205 27.3276C4.36096 29.0165 6.75715 29.9996 9.14714 29.9996C9.27224 29.9996 9.39763 29.9969 9.52261 29.9915C11.785 29.8931 13.7912 28.9337 15.1714 27.2901L23.0245 17.9379C23.2199 17.7052 23.205 17.3617 22.9901 17.1468L20.0815 14.238ZM14.274 26.5364C13.1076 27.9256 11.4021 28.7367 9.47175 28.8207C7.28157 28.9156 5.04973 28.048 3.50068 26.4989C1.95158 24.9499 1.08368 22.7177 1.1789 20.5279C1.26286 18.5975 2.07404 16.8921 3.46318 15.7256L12.404 8.21794L14.5186 10.3325L6.33018 18.5207C4.91074 19.9402 4.91074 22.2498 6.33018 23.6693C7.01538 24.3545 7.92962 24.7319 8.90444 24.7319C9.87927 24.7319 10.7935 24.3545 11.4788 23.6693L19.6671 15.4809L21.7816 17.5955L14.274 26.5364Z" fill="#2563EB"/>
<path d="M15.0234 6.91862C14.8735 6.91862 14.7235 6.86144 14.6091 6.747C14.3803 6.51819 14.3803 6.14718 14.6091 5.91831L16.0755 4.45188C16.3043 4.22307 16.6754 4.22307 16.9042 4.45188C17.133 4.68069 17.133 5.05171 16.9042 5.28057L15.4378 6.747C15.3234 6.86144 15.1734 6.91862 15.0234 6.91862Z" fill="#2563EB"/>
<path d="M23.666 15.5622C23.5161 15.5622 23.3661 15.505 23.2517 15.3906C23.0229 15.1617 23.0229 14.7907 23.2517 14.5619L24.7181 13.0954C24.9469 12.8666 25.3179 12.8666 25.5468 13.0954C25.7756 13.3242 25.7756 13.6953 25.5468 13.9241L24.0804 15.3906C23.9659 15.505 23.8159 15.5622 23.666 15.5622Z" fill="#2563EB"/>
<path d="M18.1602 12.4254C18.0102 12.4254 17.8603 12.3683 17.7458 12.2538C17.517 12.025 17.517 11.654 17.7458 11.4252L18.6038 10.5671C18.8326 10.3383 19.2037 10.3383 19.4325 10.5671C19.6613 10.796 19.6613 11.167 19.4325 11.3958L18.5745 12.2538C18.4601 12.3682 18.3101 12.4254 18.1602 12.4254Z" fill="#2563EB"/>
<path d="M24.9054 5.15686L24.3674 4.93403C24.1593 4.84784 24.0602 4.60848 24.1464 4.40036C24.1877 4.30057 24.2664 4.22246 24.3678 4.18045C24.4693 4.13838 24.5802 4.13797 24.68 4.17934L24.949 4.29079C25.2482 4.41471 25.5908 4.27268 25.7146 3.97368C25.8385 3.67467 25.6965 3.33196 25.3975 3.20809L25.1285 3.09664C25.0854 3.07883 25.042 3.06301 24.9981 3.04912V2.84082C24.9981 2.51721 24.7358 2.25488 24.4122 2.25488C24.0886 2.25488 23.8263 2.51721 23.8263 2.84082V3.13977C23.4804 3.30922 23.2117 3.5944 23.0637 3.95188C22.7302 4.75696 23.1139 5.68315 23.9188 6.01661L24.457 6.2395C24.6651 6.32569 24.7642 6.56511 24.678 6.77317C24.5919 6.98124 24.3526 7.0805 24.1445 6.99425L23.8755 6.8828C23.5765 6.75893 23.2338 6.90085 23.1099 7.19985C22.986 7.4988 23.1279 7.84157 23.4269 7.96544L23.6961 8.07695C23.7392 8.09482 23.7826 8.11058 23.8263 8.12435V8.33265C23.8263 8.65626 24.0886 8.91859 24.4123 8.91859C24.7359 8.91859 24.9982 8.65626 24.9982 8.33265V8.03411C25.331 7.87058 25.6082 7.59026 25.7609 7.22153C26.0942 6.41663 25.7105 5.49038 24.9054 5.15686Z" fill="white"/>
</g>
<defs>
<clipPath id="clip0_275_15456">
<rect width="30" height="30" fill="white"/>
</clipPath>
</defs>
</svg>
