<svg width="32" height="32" viewBox="0 0 32 32" fill="none" xmlns="http://www.w3.org/2000/svg">
<g clip-path="url(#clip0_275_15424)">
<path d="M8.5 15.125C3.84756 15.125 0.0625 18.9101 0.0625 23.5625C0.0625 28.2149 3.84756 32 8.5 32C13.1524 32 16.9375 28.2149 16.9375 23.5625C16.9375 18.9101 13.1524 15.125 8.5 15.125ZM9.4375 27.9375C9.4375 28.4552 9.01775 28.875 8.5 28.875C7.98225 28.875 7.5625 28.4552 7.5625 27.9375V22.3125C7.5625 21.7948 7.98225 21.375 8.5 21.375C9.01775 21.375 9.4375 21.7948 9.4375 22.3125V27.9375ZM8.5 20.125C7.98225 20.125 7.5625 19.7052 7.5625 19.1875C7.5625 18.6697 7.98225 18.25 8.5 18.25C9.01775 18.25 9.4375 18.6697 9.4375 19.1875C9.4375 19.7052 9.01775 20.125 8.5 20.125Z" fill="#2563EB"/>
<path d="M25.6875 0.548828V6.24989H31.3882L25.6875 0.548828Z" fill="#2563EB"/>
<path d="M24.75 8.125C24.2323 8.125 23.8125 7.70525 23.8125 7.1875V0H10.375C8.82419 0 7.5625 1.26169 7.5625 2.8125V13.2931C7.87137 13.2651 8.18394 13.25 8.5 13.25C11.6955 13.25 14.5561 14.711 16.4491 17H26.625C27.1427 17 27.5625 17.4198 27.5625 17.9375C27.5625 18.4552 27.1427 18.875 26.625 18.875H17.6842C18.2703 20.0185 18.6481 21.2853 18.7694 22.625H26.625C27.1427 22.625 27.5625 23.0448 27.5625 23.5625C27.5625 24.0802 27.1427 24.5 26.625 24.5H18.7694C18.4891 27.5962 16.8348 30.3016 14.4224 32H29.125C30.6758 32 31.9375 30.7383 31.9375 29.1875V8.125H24.75ZM26.625 13.25H12.875C12.3573 13.25 11.9375 12.8302 11.9375 12.3125C11.9375 11.7948 12.3573 11.375 12.875 11.375H26.625C27.1427 11.375 27.5625 11.7948 27.5625 12.3125C27.5625 12.8302 27.1427 13.25 26.625 13.25Z" fill="#2563EB"/>
</g>
<defs>
<clipPath id="clip0_275_15424">
<rect width="32" height="32" fill="white"/>
</clipPath>
</defs>
</svg>
