<svg width="35" height="35" viewBox="0 0 35 35" fill="none" xmlns="http://www.w3.org/2000/svg">
<g clip-path="url(#clip0_275_15443)">
<path d="M11.067 8.98421C11.067 8.42838 11.5366 7.95882 12.0925 7.95882H23.1728C23.7286 7.95882 24.1982 8.42838 24.1982 8.98421C24.1982 9.54004 23.7286 10.0096 23.1728 10.0096H12.0925C11.5366 10.0096 11.067 9.54004 11.067 8.98421ZM14.4437 21.0656V20.2498C14.4437 20.0483 14.2735 19.878 14.0719 19.878C13.8704 19.878 13.7002 20.0482 13.7002 20.2498V21.0656C13.7002 21.267 13.8704 21.4373 14.0719 21.4373C14.2735 21.4373 14.4437 21.2671 14.4437 21.0656ZM12.944 6.16083H22.3211L23.6711 2.6393C23.8086 2.28061 23.8454 2.06521 23.8533 1.95208C23.5657 1.8991 22.9485 1.96322 22.6312 1.99617C22.3396 2.02645 22.0642 2.05503 21.806 2.05865C20.3596 2.07875 19.4528 1.4791 18.7905 1.04174C18.2908 0.711698 18.0114 0.539842 17.6523 0.547225L17.6316 0.547635L17.6108 0.547225C17.2511 0.537996 16.974 0.711561 16.4752 1.04126C15.8129 1.47889 14.9035 2.0793 13.4596 2.05872C13.201 2.0551 12.9256 2.02652 12.6341 1.99624C12.3166 1.96329 11.6996 1.8991 11.4118 1.95215C11.4197 2.06521 11.4566 2.28068 11.5941 2.63943L12.9441 6.1609L12.944 6.16083ZM20.9257 24.4124C20.7243 24.4124 20.554 24.5826 20.554 24.7841V25.5999C20.554 25.8003 20.7242 25.9697 20.9257 25.9697C21.1272 25.9697 21.2975 25.8003 21.2975 25.5999V24.7841C21.2975 24.5826 21.1272 24.4124 20.9257 24.4124ZM28.0981 16.0641C30.058 18.9914 31.2281 22.4482 31.2281 25.311C31.2281 27.9703 30.2823 30.0907 28.417 31.6133C26.1083 33.4977 22.4354 34.4532 17.5003 34.4532C12.5652 34.4532 8.89167 33.4976 6.58283 31.6129C4.71737 30.0902 3.77148 27.9695 3.77148 25.3099C3.77148 22.4472 4.94139 18.9907 6.90098 16.0636C8.85872 13.1394 10.8527 11.8074 11.8768 11.8074H23.1215C24.1457 11.8074 26.14 13.1395 28.0981 16.0641ZM14.0719 23.488C15.4077 23.488 16.4945 22.4013 16.4945 21.0655V20.2497C16.4945 18.9139 15.4078 17.8272 14.0719 17.8272C12.7361 17.8272 11.6494 18.9139 11.6494 20.2497V21.0655C11.6494 22.4013 12.7361 23.488 14.0719 23.488ZM21.3074 19.4583C21.642 19.0013 21.5427 18.3597 21.0858 18.0252C20.6289 17.6907 19.9872 17.7899 19.6527 18.2469L13.6922 26.3893C13.3577 26.8463 13.457 27.4879 13.9139 27.8224C14.0965 27.9561 14.3085 28.0204 14.5188 28.0204C14.8346 28.0204 15.1462 27.875 15.347 27.6007L21.3074 19.4582V19.4583ZM23.3482 24.784C23.3482 23.4482 22.2615 22.3615 20.9257 22.3615C19.5899 22.3615 18.5032 23.4482 18.5032 24.784V25.5998C18.5032 26.9346 19.5899 28.0204 20.9257 28.0204C22.2615 28.0204 23.3482 26.9346 23.3482 25.5998V24.784Z" fill="#2563EB"/>
</g>
<defs>
<clipPath id="clip0_275_15443">
<rect width="35" height="35" fill="white"/>
</clipPath>
</defs>
</svg>
