<svg width="35" height="35" viewBox="0 0 35 35" fill="none" xmlns="http://www.w3.org/2000/svg">
<g clip-path="url(#clip0_275_15481)">
<path fill-rule="evenodd" clip-rule="evenodd" d="M3.53206 24.4907C3.58674 24.8613 3.3306 25.2052 2.9618 25.2594C2.58958 25.3138 2.24806 25.0573 2.19344 24.6867C2.13882 24.3169 2.3949 23.9723 2.7637 23.918C3.13591 23.8644 3.48085 24.1205 3.53206 24.4907ZM21.9838 10.0301C23.8699 12.1231 25.2775 13.9406 26.2062 15.5713C27.9673 18.6635 27.5315 21.7806 25.8048 24.0623L24.2652 24.9591C23.8509 25.2003 23.4289 25.3532 22.9927 25.428C23.1746 25.1862 23.3155 24.8968 23.406 24.5612C23.7485 23.2918 22.9888 22.0365 21.7691 21.6138L21.6902 21.5865L21.608 21.5715C21.3261 21.5198 21.0459 21.4615 20.7672 21.3976C21.0162 21.0646 21.1623 20.6545 21.1505 20.1606C21.1484 20.0756 21.1435 20.0008 21.1358 19.937C21.0371 19.1236 20.5971 18.5942 20.0136 18.2419C19.5011 17.9325 18.8865 17.7784 18.323 17.6859C17.9166 17.6192 17.4886 17.5063 17.1751 17.3016C16.9322 17.143 16.758 16.9134 16.7417 16.5777C16.724 16.2145 16.8826 15.9215 17.1325 15.7183C17.3282 15.5592 17.5779 15.4486 17.8486 15.3942C17.9575 15.3722 18.0696 15.3596 18.1828 15.3566C18.1947 15.3573 18.2068 15.3577 18.219 15.3577C18.2336 15.3577 18.2482 15.3572 18.2625 15.3562C18.4122 15.3583 18.5629 15.3775 18.7102 15.4149C19.1628 15.5296 19.5748 15.8279 19.7919 16.3448C19.9219 16.6547 20.2787 16.8007 20.5886 16.6706C20.8985 16.5405 21.0445 16.1838 20.9145 15.8738C20.5323 14.9637 19.8048 14.4379 19.0051 14.2351C18.9464 14.2203 18.8873 14.2072 18.8279 14.196V13.7241C18.8279 13.3879 18.5553 13.1153 18.219 13.1153C17.8827 13.1153 17.6101 13.3879 17.6101 13.7241V14.205C17.1488 14.2981 16.7156 14.4928 16.3667 14.7765C15.8304 15.2125 15.4904 15.8455 15.5287 16.6348C15.5672 17.4279 15.9629 17.9598 16.5139 18.3195C16.9942 18.6331 17.5841 18.7953 18.128 18.8846C18.5649 18.9563 19.0313 19.0697 19.3858 19.2837C19.6692 19.4548 19.8821 19.7049 19.9276 20.0796C19.9337 20.1296 19.9369 20.1659 19.9375 20.1891C19.9445 20.4871 19.802 20.7141 19.588 20.8766C19.5153 20.9317 19.4347 20.9807 19.3483 21.0237C17.7756 20.5611 16.3145 19.9615 14.7614 19.4576C13.1401 18.9316 11.6292 19.5269 10.2284 20.3384L9.27438 20.8911C8.9708 19.2267 9.2443 17.3948 10.2828 15.5713C11.2115 13.9408 12.6191 12.1232 14.5052 10.0302C14.7419 10.1073 14.9943 10.1492 15.2561 10.1492H21.233C21.4947 10.1491 21.747 10.1072 21.9838 10.0301ZM15.256 9.05533H21.2329C21.9698 9.05533 22.5727 8.4524 22.5727 7.71569C22.5727 6.97878 21.9699 6.37599 21.2329 6.37599H15.256C14.5191 6.37599 13.9163 6.97878 13.9163 7.71562C13.9163 8.45247 14.5191 9.05533 15.256 9.05533ZM15.2073 5.28278L14.1069 4.1824C13.5715 3.64701 13.5715 2.77085 14.1069 2.23546C14.5623 1.78005 15.2832 1.70308 15.8251 2.05089C16.0264 2.18009 16.2576 2.20066 16.4785 2.10927C16.6994 2.01773 16.8482 1.83979 16.8993 1.60607C17.0342 0.988037 17.5875 0.521621 18.2446 0.521484C18.8897 0.521484 19.4524 0.976279 19.5899 1.60607C19.6409 1.83979 19.7898 2.01773 20.0107 2.10927C20.2316 2.2008 20.4628 2.18009 20.6639 2.05089C21.1963 1.70923 21.9175 1.77082 22.3822 2.23532V2.23546C22.9175 2.77085 22.9175 3.64701 22.3822 4.1824L21.2818 5.28278C21.2656 5.28244 21.2493 5.28217 21.233 5.28217H15.2561C15.2398 5.28217 15.2235 5.28251 15.2073 5.28278ZM5.71552 24.2168L9.364 30.655L10.7368 29.8628C10.87 29.7856 11.0271 29.7651 11.1774 29.8051L19.799 31.7039C20.9396 32.0089 22.0119 31.8582 22.992 31.2559L33.4616 24.7491C34.0319 24.3994 34.206 23.3728 33.8133 22.7155C33.243 21.7633 31.7336 21.8757 29.7734 23.0166L24.8157 25.9041C23.7843 26.5066 22.671 26.7016 21.4177 26.5008C21.1889 26.4639 20.9636 26.4246 20.7416 26.3819C20.6937 26.3785 16.524 25.2946 16.046 25.1658C15.7352 25.0831 15.5508 24.7655 15.6362 24.4572C15.7181 24.1479 16.0357 23.9648 16.3431 24.0474C16.8314 24.1782 19.7888 25.0166 20.8987 25.2324C21.4656 25.2686 22.1246 25.1108 22.3501 24.2762C22.5345 23.5919 22.1315 22.8969 21.411 22.6473C19.3859 22.2764 17.429 21.5699 15.8581 21.001C15.3083 20.8026 14.8336 20.6311 14.4238 20.4979C13.1329 20.0793 11.907 20.6288 10.7766 21.2848L5.71552 24.2168ZM9.23172 32.7827L3.65155 22.9225C3.59693 22.8262 3.50813 22.7571 3.39882 22.7268C3.36129 22.7169 3.32376 22.7118 3.2861 22.7118C3.21446 22.7118 3.1461 22.7299 3.08464 22.7647L1.18589 23.8387C0.984438 23.9525 0.916079 24.2075 1.02873 24.4073L6.60891 34.2674C6.72163 34.4679 6.97778 34.5383 7.17581 34.4253L9.07456 33.3509C9.1702 33.2966 9.23849 33.2068 9.26918 33.0992C9.30001 32.9913 9.28634 32.879 9.23172 32.7827Z" fill="#2563EB"/>
</g>
<defs>
<clipPath id="clip0_275_15481">
<rect width="35" height="35" fill="white"/>
</clipPath>
</defs>
</svg>
