<svg width="35" height="35" viewBox="0 0 35 35" fill="none" xmlns="http://www.w3.org/2000/svg">
<g clip-path="url(#clip0_275_15448)">
<path d="M0.425937 15.6048C1.12252 16.5139 2.41485 16.6639 3.30182 15.9813L17.5 4.63729L31.698 15.9827C32.5707 16.6541 33.8654 16.5261 34.5739 15.6072C35.2628 14.7141 35.1012 13.4261 34.1984 12.7313L18.7507 0.42458C18.3902 0.147178 17.9566 0 17.5 0C17.0424 0 16.6108 0.146221 16.2493 0.42458L0.802461 12.7299C-0.106035 13.4276 -0.259502 14.7182 0.425937 15.6048Z" fill="#2563EB"/>
<path d="M29.873 2.05078H27.8223C27.256 2.05078 26.7969 2.50988 26.7969 3.07617V4.18229L30.8984 7.46423V3.07617C30.8984 2.50988 30.4393 2.05078 29.873 2.05078Z" fill="#2563EB"/>
<path d="M30.8984 29.8044V17.8487C30.7504 17.7624 30.5832 17.7125 30.4469 17.6076L17.5 7.2666L4.5852 17.5806C4.43598 17.6955 4.26104 17.7491 4.10156 17.8419V29.8044C4.10156 30.3707 4.56066 30.8298 5.12695 30.8298H8.11528C7.56287 29.5714 7.24609 28.188 7.24609 26.7282C7.24609 21.0746 11.8463 16.406 17.5 16.406C23.1537 16.406 27.8223 21.0746 27.8223 26.7282C27.8223 28.188 27.5055 29.5714 26.9531 30.8298H29.873C30.4393 30.8298 30.8984 30.3707 30.8984 29.8044Z" fill="#2563EB"/>
<path d="M25.7715 26.7285C25.7715 22.198 22.0305 18.457 17.5 18.457C12.9695 18.457 9.29688 22.198 9.29688 26.7285C9.29688 31.259 12.9695 35 17.5 35C22.0305 35 25.7715 31.259 25.7715 26.7285ZM16.4746 32.9492V31.6622C15.6771 31.3787 15.0088 30.7876 14.6662 29.977C14.4458 29.4552 14.6892 28.8534 15.2109 28.6331C15.7296 28.4149 16.3345 28.6562 16.5547 29.1779C16.7159 29.5583 17.0864 29.8047 17.5 29.8047C18.0657 29.8047 18.5254 29.345 18.5254 28.7793C18.5254 28.2136 18.0657 27.7539 17.5 27.7539C15.8037 27.7539 14.4238 26.374 14.4238 24.6777C14.4238 23.3427 15.2837 22.2152 16.4746 21.7904V20.5078C16.4746 19.941 16.9332 19.4824 17.5 19.4824C18.0668 19.4824 18.5254 19.941 18.5254 20.5078V21.7948C19.3227 22.0783 19.9904 22.6695 20.3338 23.4801C20.5542 24.0008 20.3108 24.6026 19.7891 24.8239C19.2734 25.0442 18.6666 24.8019 18.4453 24.2791C18.2841 23.8987 17.9125 23.6523 17.5 23.6523C16.9343 23.6523 16.4746 24.112 16.4746 24.6777C16.4746 25.2435 16.9343 25.7031 17.5 25.7031C19.1963 25.7031 20.5762 27.083 20.5762 28.7793C20.5762 30.1144 19.7163 31.2419 18.5254 31.6666V32.9492C18.5254 33.516 18.0668 33.9746 17.5 33.9746C16.9332 33.9746 16.4746 33.516 16.4746 32.9492Z" fill="#2563EB"/>
</g>
<defs>
<clipPath id="clip0_275_15448">
<rect width="35" height="35" fill="white"/>
</clipPath>
</defs>
</svg>
