<svg width="35" height="35" viewBox="0 0 35 35" fill="none" xmlns="http://www.w3.org/2000/svg">
<path d="M31.6902 19.1332C30.4088 18.8044 29.1668 18.3374 27.9861 17.7405C27.6215 17.5582 27.2861 17.3832 26.9798 17.2155C26.3746 16.8801 25.8934 16.5812 25.5798 16.377C25.5619 16.3644 25.5423 16.3546 25.5215 16.3478C25.2903 16.2131 25.0266 16.1445 24.7591 16.1497C24.4916 16.1548 24.2306 16.2335 24.0048 16.377C22.1234 17.6073 20.0619 18.5372 17.8944 19.1332C17.5753 19.2108 17.2914 19.3929 17.0878 19.6506C16.8843 19.9083 16.773 20.2267 16.7715 20.5551V21.802C16.7707 23.6027 17.215 25.3757 18.0648 26.9633C18.9145 28.5509 20.1435 29.9039 21.6423 30.902L22.3204 31.3541L23.9829 32.4624C24.1147 32.5492 24.2602 32.6133 24.4132 32.652H24.4204C24.54 32.6932 24.6659 32.7129 24.7923 32.7103C25.0804 32.7079 25.3616 32.6217 25.6017 32.4624L27.9423 30.902C29.4412 29.9039 30.6701 28.5509 31.5199 26.9633C32.3697 25.3757 32.8139 23.6027 32.8132 21.802V20.5551C32.8117 20.2267 32.7003 19.9083 32.4968 19.6506C32.2933 19.3929 32.0093 19.2108 31.6902 19.1332ZM27.4975 23.1218L24.5809 26.0384C24.4426 26.174 24.2568 26.2499 24.0632 26.2499C23.8695 26.2499 23.6837 26.174 23.5454 26.0384L22.0871 24.5801C21.9498 24.4428 21.8727 24.2566 21.8727 24.0624C21.8727 23.8682 21.9498 23.682 22.0871 23.5447C22.2244 23.4074 22.4106 23.3303 22.6048 23.3303C22.799 23.3303 22.9852 23.4074 23.1225 23.5447L24.0632 24.4926L26.4621 22.0864C26.5301 22.0184 26.6108 21.9644 26.6996 21.9277C26.7885 21.8909 26.8837 21.8719 26.9798 21.8719C27.076 21.8719 27.1712 21.8909 27.26 21.9277C27.3488 21.9644 27.4295 22.0184 27.4975 22.0864C27.5655 22.1543 27.6194 22.2351 27.6562 22.3239C27.693 22.4127 27.712 22.5079 27.712 22.6041C27.712 22.7002 27.693 22.7954 27.6562 22.8843C27.6194 22.9731 27.5655 23.0538 27.4975 23.1218Z" fill="#2563EB"/>
<path d="M25.9438 9.65426L19.7094 3.28134C19.4856 3.05491 19.2331 2.85879 18.9583 2.69801V8.02093C18.9601 8.60056 19.1911 9.15595 19.601 9.56581C20.0108 9.97567 20.5662 10.2067 21.1458 10.2084H26.3885C26.257 10.0109 26.1082 9.82543 25.9438 9.65426ZM26.9354 11.6668H21.1458C20.1789 11.6668 19.2516 11.2826 18.5678 10.5989C17.8841 9.91519 17.5 8.98786 17.5 8.02093V2.21676C17.3698 2.19618 17.2381 2.18642 17.1062 2.18759H5.83333C4.8664 2.18759 3.93907 2.57171 3.25534 3.25543C2.57161 3.93916 2.1875 4.86649 2.1875 5.83343V29.1668C2.1875 30.1337 2.57161 31.061 3.25534 31.7448C3.93907 32.4285 4.8664 32.8126 5.83333 32.8126H21.8823L20.8323 32.1126C19.1333 30.9825 17.7403 29.4497 16.7772 27.6508C15.8141 25.8519 15.311 23.8427 15.3125 21.8022V20.5553C15.3128 20.1044 15.4176 19.6596 15.6188 19.256C15.82 18.8524 16.112 18.501 16.4719 18.2293H7.29167C7.09828 18.2293 6.91281 18.1524 6.77607 18.0157C6.63932 17.8789 6.5625 17.6935 6.5625 17.5001C6.5625 17.3067 6.63932 17.1212 6.77607 16.9845C6.91281 16.8478 7.09828 16.7709 7.29167 16.7709H20.2271C21.2596 16.3053 22.2564 15.7643 23.2094 15.1522C23.6369 14.8806 24.1272 14.7238 24.633 14.697C25.1388 14.6701 25.643 14.7742 26.0969 14.9991L26.1479 15.0209L26.3667 15.1522C26.5198 15.2543 26.724 15.3782 26.9792 15.5313V12.2063C26.9794 12.0256 26.9648 11.8451 26.9354 11.6668ZM15.3125 26.2501C15.3125 26.4435 15.2357 26.629 15.0989 26.7657C14.9622 26.9024 14.7767 26.9793 14.5833 26.9793H7.29167C7.09828 26.9793 6.91281 26.9024 6.77607 26.7657C6.63932 26.629 6.5625 26.4435 6.5625 26.2501C6.5625 26.0567 6.63932 25.8712 6.77607 25.7345C6.91281 25.5978 7.09828 25.5209 7.29167 25.5209H14.5833C14.7767 25.5209 14.9622 25.5978 15.0989 25.7345C15.2357 25.8712 15.3125 26.0567 15.3125 26.2501ZM7.29167 21.1459H13.125C13.3184 21.1459 13.5039 21.2227 13.6406 21.3595C13.7773 21.4962 13.8542 21.6817 13.8542 21.8751C13.8542 22.0685 13.7773 22.2539 13.6406 22.3907C13.5039 22.5274 13.3184 22.6043 13.125 22.6043H7.29167C7.09828 22.6043 6.91281 22.5274 6.77607 22.3907C6.63932 22.2539 6.5625 22.0685 6.5625 21.8751C6.5625 21.6817 6.63932 21.4962 6.77607 21.3595C6.91281 21.2227 7.09828 21.1459 7.29167 21.1459ZM7.29167 8.02093H13.125C13.3184 8.02093 13.5039 8.09775 13.6406 8.2345C13.7773 8.37124 13.8542 8.55671 13.8542 8.75009C13.8542 8.94348 13.7773 9.12895 13.6406 9.26569C13.5039 9.40244 13.3184 9.47926 13.125 9.47926H7.29167C7.09828 9.47926 6.91281 9.40244 6.77607 9.26569C6.63932 9.12895 6.5625 8.94348 6.5625 8.75009C6.5625 8.55671 6.63932 8.37124 6.77607 8.2345C6.91281 8.09775 7.09828 8.02093 7.29167 8.02093ZM17.5 13.8543H7.29167C7.09828 13.8543 6.91281 13.7774 6.77607 13.6407C6.63932 13.5039 6.5625 13.3185 6.5625 13.1251C6.5625 12.9317 6.63932 12.7462 6.77607 12.6095C6.91281 12.4728 7.09828 12.3959 7.29167 12.3959H17.5C17.6934 12.3959 17.8789 12.4728 18.0156 12.6095C18.1523 12.7462 18.2292 12.9317 18.2292 13.1251C18.2292 13.3185 18.1523 13.5039 18.0156 13.6407C17.8789 13.7774 17.6934 13.8543 17.5 13.8543Z" fill="#2563EB"/>
</svg>
