<svg width="34" height="34" viewBox="0 0 34 34" fill="none" xmlns="http://www.w3.org/2000/svg">
<path fill-rule="evenodd" clip-rule="evenodd" d="M25.6693 17.9151L25.5772 18.01C25.2897 18.3044 25.2968 18.7811 25.5935 19.0662L30.1037 23.4455C30.4005 23.7306 30.8749 23.7236 31.1599 23.4291L32.7887 21.7513C33.0762 21.4545 33.0691 20.9801 32.7747 20.695L28.2623 16.3157C27.9678 16.0307 27.4911 16.0377 27.206 16.3321L27.1129 16.428L24.5373 13.9277C25.4725 12.5939 26.0212 10.9693 26.0212 9.2164C26.0212 4.6782 22.343 1 17.8048 1C13.2667 1 9.58846 4.6782 9.58846 9.2164C9.58846 13.7545 13.2667 17.4328 17.8048 17.4328C19.8425 17.4328 21.7068 16.6912 23.1426 15.4632L25.6693 17.9151ZM17.8048 2.9162C21.2844 2.9162 24.105 5.7368 24.105 9.2164C24.105 12.6959 21.2844 15.5165 17.8048 15.5165C14.3253 15.5165 11.5047 12.6959 11.5047 9.2164C11.5047 5.7368 14.3253 2.9162 17.8048 2.9162ZM9.60446 13.5715C9.52859 13.6757 9.45773 13.7848 9.39219 13.8984L1.48733 27.5872C0.837528 28.7119 0.837528 30.0709 1.48733 31.1957C2.13713 32.3221 3.31473 33 4.61433 33H20.4207C21.7203 33 22.8962 32.3221 23.546 31.1957C24.1958 30.0709 24.1958 28.7119 23.546 27.5872L18.2919 18.4869C18.1307 18.4952 17.9682 18.4995 17.8048 18.4995C17.4329 18.4995 17.0661 18.4776 16.7057 18.4351L22.3786 28.2609C22.7886 28.973 22.7886 29.8099 22.3787 30.5218L22.3786 30.5221C21.9683 31.2325 21.2409 31.6532 20.4207 31.6532H4.61433C3.79253 31.6532 3.06753 31.2331 2.6556 30.5234L2.65506 30.5226C2.24473 29.8099 2.24473 28.973 2.65459 28.2611L2.65479 28.2608L10.4106 14.8301C10.1096 14.4343 9.83966 14.0135 9.60446 13.5715ZM11.1478 15.6866L3.57893 28.7935C3.36233 29.1699 3.36213 29.6123 3.57853 29.9887C3.79666 30.3638 4.17973 30.5865 4.61433 30.5865H20.4207C20.8539 30.5865 21.2379 30.3641 21.4545 29.9893C21.6712 29.6127 21.6712 29.17 21.4544 28.7935L15.3165 18.1623C13.7094 17.7163 12.2777 16.8489 11.1478 15.6866ZM12.5175 25.2353C12.1019 25.2353 11.7605 24.9071 11.7457 24.4915L11.5511 19.0919C11.5428 18.8742 11.6154 18.6845 11.7671 18.5279C11.9172 18.3712 12.1052 18.292 12.3229 18.292H12.7121C12.9298 18.292 13.1162 18.3712 13.2679 18.5279C13.418 18.6845 13.4905 18.8742 13.484 19.0919L13.2877 24.4915C13.2729 24.9071 12.9331 25.2353 12.5175 25.2353ZM12.5175 28.3969C11.9733 28.3969 11.5296 27.9533 11.5296 27.409C11.5296 26.8647 11.9733 26.4211 12.5175 26.4211C13.0617 26.4211 13.5054 26.8647 13.5054 27.409C13.5054 27.9533 13.0617 28.3969 12.5175 28.3969Z" fill="#2563EB"/>
</svg>
