<svg width="35" height="35" viewBox="0 0 35 35" fill="none" xmlns="http://www.w3.org/2000/svg">
<path fill-rule="evenodd" clip-rule="evenodd" d="M19.5777 8.79993C20.4986 9.01879 21.3769 9.38265 22.1841 9.88006L23.8782 9.12681L25.8735 11.1221L25.1231 12.8162C25.6205 13.6234 25.9843 14.5017 26.2032 15.4255L27.9314 16.0906V18.913L26.2032 19.5781C25.9843 20.4991 25.6177 21.3774 25.1231 22.1846L25.8735 23.8786L23.8782 25.874L22.1841 25.1236C21.3797 25.621 20.4986 25.9848 19.5777 26.2036L18.9126 27.9318H16.0901L15.425 26.2036C14.5013 25.9848 13.623 25.6181 12.8158 25.1236L11.1217 25.874L9.12635 23.8786L9.87961 22.1846C9.3822 21.3802 9.01833 20.4991 8.79667 19.5781L7.06849 18.913V16.0906L8.79667 15.4255C9.01833 14.5017 9.3822 13.6234 9.87961 12.8162L9.12635 11.1221L11.1217 9.12681L12.8158 9.88006C13.623 9.38265 14.5013 9.01879 15.4222 8.79993L16.0901 7.06894H18.9126L19.5777 8.79993ZM17.4999 23.833C20.9877 23.833 23.8325 20.9882 23.8325 17.5004C23.8325 14.0126 20.9877 11.1678 17.4999 11.1678C14.0121 11.1678 11.1673 14.0126 11.1673 17.5004C11.1673 20.9882 14.0121 23.833 17.4999 23.833ZM15.1582 16.545H13.948C13.6449 16.545 13.399 16.299 13.399 15.996C13.399 15.6929 13.6449 15.447 13.948 15.447H15.1582V15.3487C15.1582 15.2438 15.2433 15.1587 15.3483 15.1587H15.4465V13.9484C15.4465 13.6454 15.6925 13.3993 15.9955 13.3993C16.2985 13.3993 16.5446 13.6454 16.5446 13.9484V15.1587H16.9509V13.9484C16.9509 13.6454 17.1969 13.3993 17.4999 13.3993C17.8029 13.3993 18.049 13.6454 18.049 13.9484V15.1587H18.4553V13.9484C18.4553 13.6454 18.7013 13.3993 19.0043 13.3993C19.3074 13.3993 19.5533 13.6454 19.5533 13.9484V15.1587H19.6516C19.7565 15.1587 19.8416 15.2438 19.8416 15.3487V15.447H21.0519C21.3549 15.447 21.601 15.6929 21.601 15.996C21.601 16.299 21.3549 16.545 21.0519 16.545H19.8416V16.9514H21.0519C21.3549 16.9514 21.601 17.1974 21.601 17.5004C21.601 17.8034 21.3549 18.0494 21.0519 18.0494H19.8416V18.4557H21.0519C21.3549 18.4557 21.601 18.7018 21.601 19.0048C21.601 19.3078 21.3549 19.5538 21.0519 19.5538H19.8416V19.6521C19.8416 19.757 19.7565 19.8421 19.6516 19.8421H19.5533V21.0524C19.5533 21.3554 19.3074 21.6014 19.0043 21.6014C18.7013 21.6014 18.4553 21.3554 18.4553 21.0524V19.8421H18.049V21.0524C18.049 21.3554 17.8029 21.6014 17.4999 21.6014C17.1969 21.6014 16.9509 21.3554 16.9509 21.0524V19.8421H16.5446V21.0524C16.5446 21.3554 16.2985 21.6014 15.9955 21.6014C15.6925 21.6014 15.4465 21.3554 15.4465 21.0524V19.8421H15.3483C15.2433 19.8421 15.1582 19.757 15.1582 19.6521V19.5538H13.948C13.6449 19.5538 13.399 19.3078 13.399 19.0048C13.399 18.7018 13.6449 18.4557 13.948 18.4557H15.1582V18.0494H13.948C13.6449 18.0494 13.399 17.8034 13.399 17.5004C13.399 17.1974 13.6449 16.9514 13.948 16.9514H15.1582V16.545ZM30.0012 7.13469C30.0206 7.18341 30.0167 7.23832 29.9905 7.28375C29.9643 7.32911 29.9187 7.35999 29.8667 7.36754L25.2342 8.03721C25.1695 8.04661 25.1049 8.01813 25.0682 7.96391C25.0314 7.90963 25.0288 7.83922 25.0616 7.78246L25.7008 6.67372C25.2565 6.33676 24.7858 6.02423 24.2908 5.73805C17.7937 1.98784 9.4874 4.21315 5.73719 10.7102C3.75502 14.1445 3.44228 18.0839 4.54856 21.5888C4.57292 21.6654 4.54074 21.7486 4.47122 21.7888C4.0613 22.0257 2.70955 22.8065 2.22229 23.088C2.17837 23.1134 2.12539 23.118 2.07776 23.1005C2.03007 23.083 1.99267 23.0453 1.97558 22.9974C0.427206 18.6149 0.732255 13.6077 3.23702 9.26619C7.78551 1.38913 17.8577 -1.30868 25.7347 3.23789C26.228 3.52406 26.7005 3.83096 27.1542 4.15667L27.957 2.76573C27.9898 2.70897 28.052 2.6759 28.1174 2.68056C28.1828 2.6853 28.2397 2.72689 28.264 2.78776L30.0012 7.13469ZM32.7777 11.9136C32.8216 11.8882 32.8746 11.8836 32.9222 11.9011C32.9699 11.9186 33.0073 11.9564 33.0244 12.0042C34.5728 16.3868 34.2677 21.394 31.7611 25.7356C27.2145 33.6107 17.1423 36.3105 9.26525 31.762C8.77203 31.4777 8.29761 31.1708 7.84576 30.8432L7.03919 32.2416C7.00645 32.2983 6.94414 32.3314 6.8788 32.3267C6.8134 32.3221 6.75644 32.2804 6.73215 32.2195L4.99505 27.8727C4.97563 27.824 4.97954 27.769 5.00575 27.7237C5.03197 27.6782 5.07761 27.6474 5.12949 27.6399L9.76164 26.9702C9.82649 26.9609 9.891 26.9894 9.92778 27.0436C9.9645 27.0979 9.96704 27.1683 9.93423 27.2251L9.2973 28.328C9.74345 28.665 10.2142 28.9775 10.7092 29.2637C17.2044 33.0139 25.5125 30.7886 29.2628 24.2916C31.245 20.8572 31.5577 16.9178 30.4514 13.4111C30.4271 13.3345 30.4593 13.2513 30.5289 13.2112C30.9389 12.9745 32.2906 12.1947 32.7777 11.9136Z" fill="#2563EB"/>
</svg>
