<svg width="25" height="25" viewBox="0 0 25 25" fill="none" xmlns="http://www.w3.org/2000/svg">
<g clip-path="url(#clip0_1713_9969)">
<path d="M15.9926 6.97674C11.0298 6.97674 6.98512 11.0233 6.98512 15.9884C6.98512 20.9535 11.0298 25 15.9926 25C20.9554 25 25 20.9535 25 15.9884C25 11.0233 20.9554 6.97674 15.9926 6.97674ZM14.6676 18.2791C15.0046 18.6163 15.0046 19.1744 14.6676 19.5116C14.4933 19.686 14.2724 19.7674 14.0516 19.7674C13.8308 19.7674 13.61 19.686 13.4356 19.5116L10.53 16.6047C10.1929 16.2674 10.1929 15.7093 10.53 15.3721L13.4356 12.4651C13.7727 12.1279 14.3305 12.1279 14.6676 12.4651C15.0046 12.8023 15.0046 13.3605 14.6676 13.6977L12.378 15.9884L14.6676 18.2791ZM21.4435 16.6047L18.5379 19.5116C18.3636 19.686 18.1427 19.7674 17.9219 19.7674C17.7011 19.7674 17.4802 19.686 17.3059 19.5116C16.9689 19.1744 16.9689 18.6163 17.3059 18.2791L19.5955 15.9884L17.3059 13.6977C16.9689 13.3605 16.9689 12.8023 17.3059 12.4651C17.643 12.1279 18.2008 12.1279 18.5379 12.4651L21.4435 15.3721C21.7806 15.7093 21.7806 16.2674 21.4435 16.6047ZM8.64714 8.11628C7.34542 9.34884 6.33426 10.8953 5.77638 12.6279C2.33612 12.3256 0.360298 11.6512 0 11.2326V6.17442C2.24314 7.69767 6.11344 8.06977 8.64714 8.11628ZM6.06695 20.1395C3.03347 19.7907 0 18.9419 0 17.1512V13.1977C1.41795 13.814 3.48675 14.1395 5.35797 14.3256C5.27662 14.8721 5.23013 15.4186 5.23013 15.9884C5.23013 17.4535 5.53231 18.8605 6.06695 20.1395ZM9.60019 0C6.0437 0 0.0116225 0.674419 0.0116225 3.19767C0.0116225 5.72093 6.0437 6.39535 9.60019 6.39535C13.1567 6.39535 19.1888 5.72093 19.1888 3.19767C19.1888 0.674419 13.1567 0 9.60019 0Z" fill="#05164D"/>
</g>
<defs>
<clipPath id="clip0_1713_9969">
<rect width="25" height="25" rx="4.71698" fill="white"/>
</clipPath>
</defs>
</svg>
